<?xml version="1.0" encoding="UTF-8" standalone="no"?>
<!DOCTYPE svg PUBLIC "-//W3C//DTD SVG 1.1//EN"
 "http://www.w3.org/Graphics/SVG/1.1/DTD/svg11.dtd">
<!-- Generated by graphviz version 2.26.3 (20100126.1600)
 -->
<!-- Title: G Pages: 1 -->
<svg width="1122pt" height="247pt"
 viewBox="0.00 0.00 1122.00 247.00" xmlns="http://www.w3.org/2000/svg" xmlns:xlink="http://www.w3.org/1999/xlink">
<g id="graph1" class="graph" transform="scale(1 1) rotate(0) translate(4 243)">
<title>G</title>
<polygon fill="white" stroke="white" points="-4,5 -4,-243 1119,-243 1119,5 -4,5"/>
<!-- Node1 -->
<g id="node1" class="node"><title>Node1</title>
<polygon fill="#bfbfbf" stroke="black" points="980.5,-217.5 980.5,-238.5 1113.5,-238.5 1113.5,-217.5 980.5,-217.5"/>
<text text-anchor="middle" x="1047" y="-225.5" font-family="Helvetica,sans-Serif" font-size="10.00">gaia::ui::SearchEditWidget</text>
</g>
<!-- Node2 -->
<g id="node2" class="node"><title>Node2</title>
<a xlink:href="../../d8/d8a/classgaia_1_1ui_1_1_relative_controller.html" target="_top" xlink:title="A Layout where the positions of the children can be described in relation to each other or to the par...">
<polygon fill="white" stroke="black" points="756,-217.5 756,-238.5 888,-238.5 888,-217.5 756,-217.5"/>
<text text-anchor="middle" x="822" y="-225.5" font-family="Helvetica,sans-Serif" font-size="10.00">gaia::ui::RelativeController</text>
</a>
</g>
<!-- Node2&#45;&gt;Node1 -->
<g id="edge2" class="edge"><title>Node2&#45;&gt;Node1</title>
<path fill="none" stroke="midnightblue" d="M898.335,-228C924.969,-228 954.628,-228 980.406,-228"/>
<polygon fill="midnightblue" stroke="midnightblue" points="898.291,-224.5 888.29,-228 898.29,-231.5 898.291,-224.5"/>
</g>
<!-- Node3 -->
<g id="node4" class="node"><title>Node3</title>
<a xlink:href="../../db/d6c/classgaia_1_1core_1_1_widget_controller.html" target="_top" xlink:title="Define the default widget layout to put sets of layout in it.">
<polygon fill="white" stroke="black" points="475,-162.5 475,-183.5 613,-183.5 613,-162.5 475,-162.5"/>
<text text-anchor="middle" x="544" y="-170.5" font-family="Helvetica,sans-Serif" font-size="10.00">gaia::core::WidgetController</text>
</a>
</g>
<!-- Node3&#45;&gt;Node2 -->
<g id="edge4" class="edge"><title>Node3&#45;&gt;Node2</title>
<path fill="none" stroke="midnightblue" d="M592.143,-186.065C613.977,-191.725 640.187,-198.149 664,-203 693.934,-209.098 727.316,-214.571 755.655,-218.831"/>
<polygon fill="midnightblue" stroke="midnightblue" points="593.004,-182.673 582.444,-183.528 591.232,-189.445 593.004,-182.673"/>
</g>
<!-- Node6 -->
<g id="node10" class="node"><title>Node6</title>
<a xlink:href="../../d5/dfb/classgaia_1_1core_1_1_scene.html" target="_top" xlink:title="A Scene is used to build a visual interface.">
<polygon fill="white" stroke="black" points="775.5,-59.5 775.5,-80.5 868.5,-80.5 868.5,-59.5 775.5,-59.5"/>
<text text-anchor="middle" x="822" y="-67.5" font-family="Helvetica,sans-Serif" font-size="10.00">gaia::core::Scene</text>
</a>
</g>
<!-- Node3&#45;&gt;Node6 -->
<g id="edge12" class="edge"><title>Node3&#45;&gt;Node6</title>
<path fill="none" stroke="#9a32cd" stroke-dasharray="5,2" d="M623.322,-164.148C665.5,-158.002 711.907,-148.472 728,-135 744.517,-121.173 729.86,-104.265 746,-90 754.178,-82.7717 764.667,-78.1079 775.224,-75.1118"/>
<polygon fill="#9a32cd" stroke="#9a32cd" points="622.692,-160.703 613.277,-165.562 623.667,-167.634 622.692,-160.703"/>
<text text-anchor="middle" x="696" y="-161" font-family="Helvetica,sans-Serif" font-size="10.00"> mpController</text>
</g>
<!-- Node4 -->
<g id="node6" class="node"><title>Node4</title>
<a xlink:href="../../d8/dac/classgaia_1_1core_1_1_widget.html" target="_top" xlink:title="The Widget class is the base class of all user interface component.">
<polygon fill="white" stroke="black" points="999,-125.5 999,-146.5 1095,-146.5 1095,-125.5 999,-125.5"/>
<text text-anchor="middle" x="1047" y="-133.5" font-family="Helvetica,sans-Serif" font-size="10.00">gaia::core::Widget</text>
</a>
</g>
<!-- Node4&#45;&gt;Node3 -->
<g id="edge6" class="edge"><title>Node4&#45;&gt;Node3</title>
<path fill="none" stroke="midnightblue" d="M993.163,-148.802C982.827,-151.222 972.083,-153.711 962,-156 933.605,-162.446 926.91,-166.53 898,-170 794.726,-182.394 768.014,-174.433 664,-174 647.541,-173.931 629.813,-173.81 613.166,-173.675"/>
<polygon fill="midnightblue" stroke="midnightblue" points="993.979,-152.206 1002.91,-146.512 992.378,-145.392 993.979,-152.206"/>
</g>
<!-- Node5 -->
<g id="node8" class="node"><title>Node5</title>
<a xlink:href="../../d0/db2/classgaia_1_1core_1_1_property_animatable.html" target="_top" xlink:title="Any animation object need to implement PropertyAnimatable because of setting value.">
<polygon fill="white" stroke="black" points="746.5,-139.5 746.5,-160.5 897.5,-160.5 897.5,-139.5 746.5,-139.5"/>
<text text-anchor="middle" x="822" y="-147.5" font-family="Helvetica,sans-Serif" font-size="10.00">gaia::core::PropertyAnimatable</text>
</a>
</g>
<!-- Node5&#45;&gt;Node4 -->
<g id="edge8" class="edge"><title>Node5&#45;&gt;Node4</title>
<path fill="none" stroke="midnightblue" d="M907.876,-144.657C938.695,-142.739 972.341,-140.645 998.825,-138.998"/>
<polygon fill="midnightblue" stroke="midnightblue" points="907.311,-141.185 897.548,-145.299 907.746,-148.171 907.311,-141.185"/>
</g>
<!-- Node6&#45;&gt;Node3 -->
<g id="edge32" class="edge"><title>Node6&#45;&gt;Node3</title>
<path fill="none" stroke="#9a32cd" stroke-dasharray="5,2" d="M769.943,-83.1689C761.899,-85.3566 753.707,-87.6733 746,-90 709.133,-101.13 699.772,-103.737 664,-118 628.876,-132.005 589.178,-150.805 565.394,-162.401"/>
<polygon fill="#9a32cd" stroke="#9a32cd" points="770.885,-86.5401 779.639,-80.5724 769.074,-79.7784 770.885,-86.5401"/>
<text text-anchor="middle" x="696" y="-122" font-family="Helvetica,sans-Serif" font-size="10.00"> mpScene</text>
</g>
<!-- Node6&#45;&gt;Node4 -->
<g id="edge10" class="edge"><title>Node6&#45;&gt;Node4</title>
<path fill="none" stroke="#9a32cd" stroke-dasharray="5,2" d="M878.721,-81.4919C904.376,-87.1689 934.945,-94.6039 962,-103 982.713,-109.428 1005.6,-118.427 1022.4,-125.404"/>
<polygon fill="#9a32cd" stroke="#9a32cd" points="879.3,-78.036 868.784,-79.326 877.809,-84.8754 879.3,-78.036"/>
<text text-anchor="middle" x="939" y="-107" font-family="Helvetica,sans-Serif" font-size="10.00"> mpScene</text>
</g>
<!-- Node11 -->
<g id="node22" class="node"><title>Node11</title>
<a xlink:href="../../db/d3f/classgaia_1_1core_1_1_page.html" target="_top" xlink:title="An page is a single, focused thing that the user can do.">
<polygon fill="white" stroke="black" points="1003,-21.5 1003,-42.5 1091,-42.5 1091,-21.5 1003,-21.5"/>
<text text-anchor="middle" x="1047" y="-29.5" font-family="Helvetica,sans-Serif" font-size="10.00">gaia::core::Page</text>
</a>
</g>
<!-- Node6&#45;&gt;Node11 -->
<g id="edge26" class="edge"><title>Node6&#45;&gt;Node11</title>
<path fill="none" stroke="#9a32cd" stroke-dasharray="5,2" d="M878.852,-57.9815C891.082,-55.5438 903.953,-53.0895 916,-51 944.87,-45.9927 977.477,-41.2601 1002.94,-37.7708"/>
<polygon fill="#9a32cd" stroke="#9a32cd" points="877.871,-54.6087 868.761,-60.017 879.256,-61.4705 877.871,-54.6087"/>
<text text-anchor="middle" x="939" y="-55" font-family="Helvetica,sans-Serif" font-size="10.00"> mpScene</text>
</g>
<!-- Node7 -->
<g id="node13" class="node"><title>Node7</title>
<a xlink:href="../../de/dad/classgaia_1_1content_1_1_resources.html" target="_top" xlink:title="Class for accessing an application&#39;s resources.">
<polygon fill="white" stroke="black" points="481,-62.5 481,-83.5 607,-83.5 607,-62.5 481,-62.5"/>
<text text-anchor="middle" x="544" y="-70.5" font-family="Helvetica,sans-Serif" font-size="10.00">gaia::content::Resources</text>
</a>
</g>
<!-- Node7&#45;&gt;Node6 -->
<g id="edge14" class="edge"><title>Node7&#45;&gt;Node6</title>
<path fill="none" stroke="#9a32cd" stroke-dasharray="5,2" d="M617.198,-72.2101C667.217,-71.6703 732.013,-70.9711 775.192,-70.5051"/>
<polygon fill="#9a32cd" stroke="#9a32cd" points="617.044,-68.7115 607.083,-72.3193 617.12,-75.711 617.044,-68.7115"/>
<text text-anchor="middle" x="696" y="-76" font-family="Helvetica,sans-Serif" font-size="10.00"> mpResources</text>
</g>
<!-- Node8 -->
<g id="node15" class="node"><title>Node8</title>
<a xlink:href="../../df/d5d/classgaia_1_1base_1_1_vector.html" target="_top" xlink:title="gaia::base::Vector\&lt; gaia::ui::DialogBox * \&gt;">
<polygon fill="white" stroke="black" points="442.5,-22.5 442.5,-43.5 645.5,-43.5 645.5,-22.5 442.5,-22.5"/>
<text text-anchor="middle" x="544" y="-30.5" font-family="Helvetica,sans-Serif" font-size="10.00">gaia::base::Vector&lt; gaia::ui::DialogBox * &gt;</text>
</a>
</g>
<!-- Node8&#45;&gt;Node6 -->
<g id="edge16" class="edge"><title>Node8&#45;&gt;Node6</title>
<path fill="none" stroke="#9a32cd" stroke-dasharray="5,2" d="M648.428,-44.7642C674.446,-47.8939 702.262,-51.4091 728,-55 743.385,-57.1465 760.146,-59.739 775.197,-62.1607"/>
<polygon fill="#9a32cd" stroke="#9a32cd" points="648.515,-41.2498 638.17,-43.539 647.684,-48.2004 648.515,-41.2498"/>
<text text-anchor="middle" x="696" y="-59" font-family="Helvetica,sans-Serif" font-size="10.00"> mDialogList</text>
</g>
<!-- Node9 -->
<g id="node17" class="node"><title>Node9</title>
<a xlink:href="../../d0/d21/classgaia_1_1base_1_1_vector_impl.html" target="_top" xlink:title="Implements vector data structure equipped with copy&#45;on&#45;write mechanism.">
<polygon fill="white" stroke="black" points="0.5,-23.5 0.5,-44.5 115.5,-44.5 115.5,-23.5 0.5,-23.5"/>
<text text-anchor="middle" x="58" y="-31.5" font-family="Helvetica,sans-Serif" font-size="10.00">gaia::base::VectorImpl</text>
</a>
</g>
<!-- Node9&#45;&gt;Node8 -->
<g id="edge18" class="edge"><title>Node9&#45;&gt;Node8</title>
<path fill="none" stroke="#8b1a1a" d="M125.792,-35.874C128.564,-35.9221 131.309,-35.9646 134,-36 262.878,-37.6955 295.121,-37.6107 424,-36 429.939,-35.9258 436.043,-35.8309 442.201,-35.7209"/>
<polygon fill="#8b1a1a" stroke="#8b1a1a" points="125.743,-32.3725 115.677,-35.6771 125.607,-39.3711 125.743,-32.3725"/>
</g>
<!-- Node10 -->
<g id="node19" class="node"><title>Node10</title>
<a xlink:href="../../df/d5d/classgaia_1_1base_1_1_vector.html" target="_top" xlink:title="This class implements the vector data structure.">
<polygon fill="white" stroke="black" points="154,-0.5 154,-21.5 294,-21.5 294,-0.5 154,-0.5"/>
<text text-anchor="middle" x="224" y="-8.5" font-family="Helvetica,sans-Serif" font-size="10.00">gaia::base::Vector&lt; TYPE &gt;</text>
</a>
</g>
<!-- Node9&#45;&gt;Node10 -->
<g id="edge22" class="edge"><title>Node9&#45;&gt;Node10</title>
<path fill="none" stroke="#8b1a1a" d="M125.596,-24.6344C134.933,-23.3406 144.54,-22.0096 153.921,-20.7098"/>
<polygon fill="#8b1a1a" stroke="#8b1a1a" points="125.018,-21.1809 115.593,-26.0203 125.979,-28.1146 125.018,-21.1809"/>
</g>
<!-- Node10&#45;&gt;Node8 -->
<g id="edge20" class="edge"><title>Node10&#45;&gt;Node8</title>
<path fill="none" stroke="orange" stroke-dasharray="5,2" d="M304.465,-15.4009C340.966,-17.5071 384.675,-20.1821 424,-23 429.943,-23.4258 436.05,-23.8808 442.211,-24.3531"/>
<polygon fill="orange" stroke="orange" points="304.555,-11.9003 294.371,-14.8222 304.154,-18.8889 304.555,-11.9003"/>
<text text-anchor="middle" x="368" y="-27" font-family="Helvetica,sans-Serif" font-size="10.00"> &lt; gaia::ui::DialogBox * &gt;</text>
</g>
<!-- Node11&#45;&gt;Node6 -->
<g id="edge24" class="edge"><title>Node11&#45;&gt;Node6</title>
<path fill="none" stroke="#9a32cd" stroke-dasharray="5,2" d="M1006.68,-18.7128C980.487,-12.0423 945.8,-6.92242 916,-15 884.246,-23.6071 852.232,-45.9225 834.981,-59.3353"/>
<polygon fill="#9a32cd" stroke="#9a32cd" points="1006.06,-22.1718 1016.63,-21.4238 1007.9,-15.418 1006.06,-22.1718"/>
<text text-anchor="middle" x="939" y="-19" font-family="Helvetica,sans-Serif" font-size="10.00"> mpPage</text>
</g>
<!-- Node12 -->
<g id="node25" class="node"><title>Node12</title>
<a xlink:href="../../db/d88/classgaia_1_1core_1_1_widget_tag.html" target="_top" xlink:title="gaia::core::WidgetTag">
<polygon fill="white" stroke="black" points="765.5,-99.5 765.5,-120.5 878.5,-120.5 878.5,-99.5 765.5,-99.5"/>
<text text-anchor="middle" x="822" y="-107.5" font-family="Helvetica,sans-Serif" font-size="10.00">gaia::core::WidgetTag</text>
</a>
</g>
<!-- Node12&#45;&gt;Node4 -->
<g id="edge28" class="edge"><title>Node12&#45;&gt;Node4</title>
<path fill="none" stroke="#9a32cd" stroke-dasharray="5,2" d="M888.693,-116.112C911.916,-118.388 938.129,-121.123 962,-124 973.985,-125.445 986.895,-127.176 998.945,-128.869"/>
<polygon fill="#9a32cd" stroke="#9a32cd" points="888.887,-112.615 878.596,-115.133 888.211,-119.582 888.887,-112.615"/>
<text text-anchor="middle" x="939" y="-128" font-family="Helvetica,sans-Serif" font-size="10.00"> mpTag</text>
</g>
<!-- Node13 -->
<g id="node27" class="node"><title>Node13</title>
<a xlink:href="../../dd/de0/classgaia_1_1core_1_1_event_control.html" target="_top" xlink:title="EventControl is used to dispatch event and register listener.">
<polygon fill="white" stroke="black" points="163,-162.5 163,-183.5 285,-183.5 285,-162.5 163,-162.5"/>
<text text-anchor="middle" x="224" y="-170.5" font-family="Helvetica,sans-Serif" font-size="10.00">gaia::core::EventControl</text>
</a>
</g>
<!-- Node13&#45;&gt;Node3 -->
<g id="edge30" class="edge"><title>Node13&#45;&gt;Node3</title>
<path fill="none" stroke="midnightblue" d="M295.422,-173C348.968,-173 421.839,-173 474.831,-173"/>
<polygon fill="midnightblue" stroke="midnightblue" points="295.321,-169.5 285.321,-173 295.321,-176.5 295.321,-169.5"/>
</g>
</g>
</svg>
