<?xml version="1.0" encoding="UTF-8" standalone="no"?>
<!DOCTYPE svg PUBLIC "-//W3C//DTD SVG 1.1//EN"
 "http://www.w3.org/Graphics/SVG/1.1/DTD/svg11.dtd">
<!-- Generated by graphviz version 2.26.3 (20100126.1600)
 -->
<!-- Title: G Pages: 1 -->
<svg width="426pt" height="320pt"
 viewBox="0.00 0.00 426.00 320.00" xmlns="http://www.w3.org/2000/svg" xmlns:xlink="http://www.w3.org/1999/xlink">
<g id="graph1" class="graph" transform="scale(1 1) rotate(0) translate(4 316)">
<title>G</title>
<polygon fill="white" stroke="white" points="-4,5 -4,-316 423,-316 423,5 -4,5"/>
<!-- Node1 -->
<g id="node1" class="node"><title>Node1</title>
<polygon fill="#bfbfbf" stroke="black" points="128,-290.5 128,-311.5 418,-311.5 418,-290.5 128,-290.5"/>
<text text-anchor="middle" x="273" y="-298.5" font-family="Helvetica,sans-Serif" font-size="10.00">/home/vilon_tao/gaia/sdk/include/gaia/ui/AbsListItemProvider.h</text>
</g>
<!-- Node2 -->
<g id="node3" class="node"><title>Node2</title>
<a xlink:href="../../d4/d8b/_i_list_item_provider_8h.html" target="_top" xlink:title="gaia/ui/IListItemProvider.h">
<polygon fill="white" stroke="black" points="146.5,-232.5 146.5,-253.5 277.5,-253.5 277.5,-232.5 146.5,-232.5"/>
<text text-anchor="middle" x="212" y="-240.5" font-family="Helvetica,sans-Serif" font-size="10.00">gaia/ui/IListItemProvider.h</text>
</a>
</g>
<!-- Node1&#45;&gt;Node2 -->
<g id="edge2" class="edge"><title>Node1&#45;&gt;Node2</title>
<path fill="none" stroke="midnightblue" d="M261.812,-290.362C253.041,-282.023 240.651,-270.242 230.422,-260.516"/>
<polygon fill="midnightblue" stroke="midnightblue" points="232.776,-257.925 223.117,-253.571 227.953,-262.998 232.776,-257.925"/>
</g>
<!-- Node5 -->
<g id="node10" class="node"><title>Node5</title>
<a xlink:href="../../d1/dd0/gmacros_8h.html" target="_top" xlink:title="gaia/base/gmacros.h">
<polygon fill="white" stroke="black" points="265.5,-116.5 265.5,-137.5 372.5,-137.5 372.5,-116.5 265.5,-116.5"/>
<text text-anchor="middle" x="319" y="-124.5" font-family="Helvetica,sans-Serif" font-size="10.00">gaia/base/gmacros.h</text>
</a>
</g>
<!-- Node1&#45;&gt;Node5 -->
<g id="edge32" class="edge"><title>Node1&#45;&gt;Node5</title>
<path fill="none" stroke="midnightblue" d="M276.043,-290.186C278.708,-280.668 282.666,-266.429 286,-254 296.076,-216.433 307.39,-172.486 313.809,-147.379"/>
<polygon fill="midnightblue" stroke="midnightblue" points="317.236,-148.107 316.318,-137.552 310.453,-146.376 317.236,-148.107"/>
</g>
<!-- Node3 -->
<g id="node5" class="node"><title>Node3</title>
<polygon fill="white" stroke="#bfbfbf" points="84,-116.5 84,-137.5 132,-137.5 132,-116.5 84,-116.5"/>
<text text-anchor="middle" x="108" y="-124.5" font-family="Helvetica,sans-Serif" font-size="10.00">limits.h</text>
</g>
<!-- Node2&#45;&gt;Node3 -->
<g id="edge4" class="edge"><title>Node2&#45;&gt;Node3</title>
<path fill="none" stroke="midnightblue" d="M183.328,-232.489C165.983,-224.799 144.654,-212.768 131,-196 119.818,-182.267 113.985,-162.872 110.996,-148.14"/>
<polygon fill="midnightblue" stroke="midnightblue" points="114.386,-147.206 109.223,-137.955 107.49,-148.407 114.386,-147.206"/>
</g>
<!-- Node4 -->
<g id="node7" class="node"><title>Node4</title>
<a xlink:href="../../d9/d0a/_i_item_provider_8h.html" target="_top" xlink:title="gaia/ui/IItemProvider.h">
<polygon fill="white" stroke="black" points="139.5,-174.5 139.5,-195.5 254.5,-195.5 254.5,-174.5 139.5,-174.5"/>
<text text-anchor="middle" x="197" y="-182.5" font-family="Helvetica,sans-Serif" font-size="10.00">gaia/ui/IItemProvider.h</text>
</a>
</g>
<!-- Node2&#45;&gt;Node4 -->
<g id="edge6" class="edge"><title>Node2&#45;&gt;Node4</title>
<path fill="none" stroke="midnightblue" d="M209.249,-232.362C207.303,-224.84 204.634,-214.519 202.284,-205.431"/>
<polygon fill="midnightblue" stroke="midnightblue" points="205.626,-204.376 199.734,-195.571 198.849,-206.128 205.626,-204.376"/>
</g>
<!-- Node2&#45;&gt;Node5 -->
<g id="edge30" class="edge"><title>Node2&#45;&gt;Node5</title>
<path fill="none" stroke="midnightblue" d="M224.631,-232.271C235.252,-223.039 250.636,-209.166 263,-196 278.218,-179.794 294.046,-159.972 304.977,-145.738"/>
<polygon fill="midnightblue" stroke="midnightblue" points="307.836,-147.759 311.1,-137.68 302.263,-143.524 307.836,-147.759"/>
</g>
<!-- Node4&#45;&gt;Node3 -->
<g id="edge8" class="edge"><title>Node4&#45;&gt;Node3</title>
<path fill="none" stroke="midnightblue" d="M180.676,-174.362C167.252,-165.614 148.017,-153.079 132.707,-143.101"/>
<polygon fill="midnightblue" stroke="midnightblue" points="134.509,-140.098 124.22,-137.571 130.688,-145.963 134.509,-140.098"/>
</g>
<!-- Node4&#45;&gt;Node5 -->
<g id="edge10" class="edge"><title>Node4&#45;&gt;Node5</title>
<path fill="none" stroke="midnightblue" d="M219.093,-174.497C238.234,-165.397 266.146,-152.127 287.605,-141.925"/>
<polygon fill="midnightblue" stroke="midnightblue" points="289.13,-145.076 296.659,-137.621 286.125,-138.754 289.13,-145.076"/>
</g>
<!-- Node6 -->
<g id="node12" class="node"><title>Node6</title>
<a xlink:href="../../d4/d7f/_vector_8h.html" target="_top" xlink:title="gaia/base/Vector.h">
<polygon fill="white" stroke="black" points="150,-116.5 150,-137.5 248,-137.5 248,-116.5 150,-116.5"/>
<text text-anchor="middle" x="199" y="-124.5" font-family="Helvetica,sans-Serif" font-size="10.00">gaia/base/Vector.h</text>
</a>
</g>
<!-- Node4&#45;&gt;Node6 -->
<g id="edge12" class="edge"><title>Node4&#45;&gt;Node6</title>
<path fill="none" stroke="midnightblue" d="M197.367,-174.362C197.623,-166.922 197.974,-156.743 198.285,-147.728"/>
<polygon fill="midnightblue" stroke="midnightblue" points="201.789,-147.685 198.635,-137.571 194.793,-147.444 201.789,-147.685"/>
</g>
<!-- Node7 -->
<g id="node14" class="node"><title>Node7</title>
<a xlink:href="../../d1/d86/_type_helpers_8h.html" target="_top" xlink:title="gaia/base/TypeHelpers.h">
<polygon fill="white" stroke="black" points="46.5,-58.5 46.5,-79.5 171.5,-79.5 171.5,-58.5 46.5,-58.5"/>
<text text-anchor="middle" x="109" y="-66.5" font-family="Helvetica,sans-Serif" font-size="10.00">gaia/base/TypeHelpers.h</text>
</a>
</g>
<!-- Node6&#45;&gt;Node7 -->
<g id="edge14" class="edge"><title>Node6&#45;&gt;Node7</title>
<path fill="none" stroke="midnightblue" d="M182.493,-116.362C168.918,-107.614 149.467,-95.0786 133.985,-85.1015"/>
<polygon fill="midnightblue" stroke="midnightblue" points="135.704,-82.0457 125.403,-79.5707 131.912,-87.9297 135.704,-82.0457"/>
</g>
<!-- Node10 -->
<g id="node20" class="node"><title>Node10</title>
<polygon fill="white" stroke="#bfbfbf" points="184,-0.5 184,-21.5 252,-21.5 252,-0.5 184,-0.5"/>
<text text-anchor="middle" x="218" y="-8.5" font-family="Helvetica,sans-Serif" font-size="10.00">sys/types.h</text>
</g>
<!-- Node6&#45;&gt;Node10 -->
<g id="edge28" class="edge"><title>Node6&#45;&gt;Node10</title>
<path fill="none" stroke="midnightblue" d="M200.753,-116.295C203.892,-97.1314 210.522,-56.654 214.586,-31.8434"/>
<polygon fill="midnightblue" stroke="midnightblue" points="218.088,-32.1135 216.251,-21.6792 211.18,-30.9819 218.088,-32.1135"/>
</g>
<!-- Node12 -->
<g id="node24" class="node"><title>Node12</title>
<a xlink:href="../../dc/da9/_vector_impl_8h.html" target="_top" xlink:title="gaia/base/VectorImpl.h">
<polygon fill="white" stroke="black" points="226.5,-58.5 226.5,-79.5 343.5,-79.5 343.5,-58.5 226.5,-58.5"/>
<text text-anchor="middle" x="285" y="-66.5" font-family="Helvetica,sans-Serif" font-size="10.00">gaia/base/VectorImpl.h</text>
</a>
</g>
<!-- Node6&#45;&gt;Node12 -->
<g id="edge24" class="edge"><title>Node6&#45;&gt;Node12</title>
<path fill="none" stroke="midnightblue" d="M214.774,-116.362C227.624,-107.696 245.985,-95.3126 260.71,-85.3819"/>
<polygon fill="midnightblue" stroke="midnightblue" points="262.993,-88.0639 269.326,-79.5707 259.079,-82.2604 262.993,-88.0639"/>
</g>
<!-- Node8 -->
<g id="node16" class="node"><title>Node8</title>
<polygon fill="white" stroke="#bfbfbf" points="-0.5,-0.5 -0.5,-21.5 48.5,-21.5 48.5,-0.5 -0.5,-0.5"/>
<text text-anchor="middle" x="24" y="-8.5" font-family="Helvetica,sans-Serif" font-size="10.00">stdint.h</text>
</g>
<!-- Node7&#45;&gt;Node8 -->
<g id="edge16" class="edge"><title>Node7&#45;&gt;Node8</title>
<path fill="none" stroke="midnightblue" d="M93.4097,-58.3619C80.709,-49.6955 62.5615,-37.3126 48.0079,-27.3819"/>
<polygon fill="midnightblue" stroke="midnightblue" points="49.7245,-24.316 39.4915,-21.5707 45.779,-30.0982 49.7245,-24.316"/>
</g>
<!-- Node9 -->
<g id="node18" class="node"><title>Node9</title>
<polygon fill="white" stroke="#bfbfbf" points="65.5,-0.5 65.5,-21.5 114.5,-21.5 114.5,-0.5 65.5,-0.5"/>
<text text-anchor="middle" x="90" y="-8.5" font-family="Helvetica,sans-Serif" font-size="10.00">string.h</text>
</g>
<!-- Node7&#45;&gt;Node9 -->
<g id="edge18" class="edge"><title>Node7&#45;&gt;Node9</title>
<path fill="none" stroke="midnightblue" d="M105.515,-58.3619C103.024,-50.7584 99.5963,-40.294 96.5959,-31.1349"/>
<polygon fill="midnightblue" stroke="midnightblue" points="99.902,-29.9841 93.4628,-21.5707 93.2499,-32.1634 99.902,-29.9841"/>
</g>
<!-- Node7&#45;&gt;Node10 -->
<g id="edge20" class="edge"><title>Node7&#45;&gt;Node10</title>
<path fill="none" stroke="midnightblue" d="M128.739,-58.4966C145.61,-49.5194 170.109,-36.4835 189.174,-26.3387"/>
<polygon fill="midnightblue" stroke="midnightblue" points="190.856,-29.4086 198.039,-21.6212 187.567,-23.2289 190.856,-29.4086"/>
</g>
<!-- Node11 -->
<g id="node22" class="node"><title>Node11</title>
<polygon fill="white" stroke="#bfbfbf" points="131.5,-0.5 131.5,-21.5 166.5,-21.5 166.5,-0.5 131.5,-0.5"/>
<text text-anchor="middle" x="149" y="-8.5" font-family="Helvetica,sans-Serif" font-size="10.00">new</text>
</g>
<!-- Node7&#45;&gt;Node11 -->
<g id="edge22" class="edge"><title>Node7&#45;&gt;Node11</title>
<path fill="none" stroke="midnightblue" d="M116.337,-58.3619C121.806,-50.4313 129.422,-39.3885 135.924,-29.9606"/>
<polygon fill="midnightblue" stroke="midnightblue" points="138.914,-31.7899 141.71,-21.5707 133.151,-27.8157 138.914,-31.7899"/>
</g>
<!-- Node12&#45;&gt;Node10 -->
<g id="edge26" class="edge"><title>Node12&#45;&gt;Node10</title>
<path fill="none" stroke="midnightblue" d="M272.711,-58.3619C262.983,-49.9408 249.202,-38.0105 237.905,-28.2308"/>
<polygon fill="midnightblue" stroke="midnightblue" points="240.062,-25.4695 230.211,-21.5707 235.481,-30.7619 240.062,-25.4695"/>
</g>
</g>
</svg>
