<?xml version="1.0" encoding="UTF-8" standalone="no"?>
<!DOCTYPE svg PUBLIC "-//W3C//DTD SVG 1.1//EN"
 "http://www.w3.org/Graphics/SVG/1.1/DTD/svg11.dtd">
<!-- Generated by graphviz version 2.26.3 (20100126.1600)
 -->
<!-- Title: G Pages: 1 -->
<svg width="1095pt" height="262pt"
 viewBox="0.00 0.00 1095.00 262.00" xmlns="http://www.w3.org/2000/svg" xmlns:xlink="http://www.w3.org/1999/xlink">
<g id="graph1" class="graph" transform="scale(1 1) rotate(0) translate(4 258)">
<title>G</title>
<polygon fill="white" stroke="white" points="-4,5 -4,-258 1092,-258 1092,5 -4,5"/>
<!-- Node1 -->
<g id="node1" class="node"><title>Node1</title>
<polygon fill="#bfbfbf" stroke="black" points="99,-232.5 99,-253.5 419,-253.5 419,-232.5 99,-232.5"/>
<text text-anchor="middle" x="259" y="-240.5" font-family="Helvetica,sans-Serif" font-size="10.00">/home/vilon_tao/gaia/sdk/include/gaia/ui/preference/PreferencePage.h</text>
</g>
<!-- Node2 -->
<g id="node3" class="node"><title>Node2</title>
<a xlink:href="../../d5/d1d/_preference_header_list_8h.html" target="_top" xlink:title="gaia/ui/preference/PreferenceHeaderList.h">
<polygon fill="white" stroke="black" points="88,-174.5 88,-195.5 288,-195.5 288,-174.5 88,-174.5"/>
<text text-anchor="middle" x="188" y="-182.5" font-family="Helvetica,sans-Serif" font-size="10.00">gaia/ui/preference/PreferenceHeaderList.h</text>
</a>
</g>
<!-- Node1&#45;&gt;Node2 -->
<g id="edge2" class="edge"><title>Node1&#45;&gt;Node2</title>
<path fill="none" stroke="midnightblue" d="M245.978,-232.362C235.569,-223.859 220.781,-211.779 208.745,-201.947"/>
<polygon fill="midnightblue" stroke="midnightblue" points="210.899,-199.187 200.94,-195.571 206.47,-204.608 210.899,-199.187"/>
</g>
<!-- Node4 -->
<g id="node7" class="node"><title>Node4</title>
<polygon fill="white" stroke="#bfbfbf" points="287.5,-0.5 287.5,-21.5 336.5,-21.5 336.5,-0.5 287.5,-0.5"/>
<text text-anchor="middle" x="312" y="-8.5" font-family="Helvetica,sans-Serif" font-size="10.00">stdint.h</text>
</g>
<!-- Node1&#45;&gt;Node4 -->
<g id="edge46" class="edge"><title>Node1&#45;&gt;Node4</title>
<path fill="none" stroke="midnightblue" d="M270.517,-232.154C279.208,-223.28 290.679,-209.955 297,-196 322.571,-139.547 320.283,-119.887 317,-58 316.546,-49.437 315.629,-40.0333 314.704,-31.9021"/>
<polygon fill="midnightblue" stroke="midnightblue" points="318.157,-31.3069 313.478,-21.8013 311.208,-32.1501 318.157,-31.3069"/>
</g>
<!-- Node5 -->
<g id="node9" class="node"><title>Node5</title>
<a xlink:href="../../d1/dd0/gmacros_8h.html" target="_top" xlink:title="gaia/base/gmacros.h">
<polygon fill="white" stroke="black" points="-0.5,-58.5 -0.5,-79.5 106.5,-79.5 106.5,-58.5 -0.5,-58.5"/>
<text text-anchor="middle" x="53" y="-66.5" font-family="Helvetica,sans-Serif" font-size="10.00">gaia/base/gmacros.h</text>
</a>
</g>
<!-- Node1&#45;&gt;Node5 -->
<g id="edge48" class="edge"><title>Node1&#45;&gt;Node5</title>
<path fill="none" stroke="midnightblue" d="M194.391,-232.468C150.055,-224.084 96.2347,-211.249 79,-196 48.9418,-169.405 48.144,-118.236 50.4269,-89.6342"/>
<polygon fill="midnightblue" stroke="midnightblue" points="53.9231,-89.8465 51.4376,-79.5473 46.958,-89.1485 53.9231,-89.8465"/>
</g>
<!-- Node6 -->
<g id="node13" class="node"><title>Node6</title>
<a xlink:href="../../db/ded/_page_8h.html" target="_top" xlink:title="gaia/core/Page.h">
<polygon fill="white" stroke="black" points="705,-174.5 705,-195.5 795,-195.5 795,-174.5 705,-174.5"/>
<text text-anchor="middle" x="750" y="-182.5" font-family="Helvetica,sans-Serif" font-size="10.00">gaia/core/Page.h</text>
</a>
</g>
<!-- Node1&#45;&gt;Node6 -->
<g id="edge14" class="edge"><title>Node1&#45;&gt;Node6</title>
<path fill="none" stroke="midnightblue" d="M347.916,-232.497C448.858,-220.573 610.416,-201.489 694.727,-191.529"/>
<polygon fill="midnightblue" stroke="midnightblue" points="695.343,-194.981 704.863,-190.332 694.522,-188.029 695.343,-194.981"/>
</g>
<!-- Node3 -->
<g id="node5" class="node"><title>Node3</title>
<a xlink:href="../../db/d91/_preference_header_8h.html" target="_top" xlink:title="gaia/ui/preference/PreferenceHeader.h">
<polygon fill="white" stroke="black" points="81,-116.5 81,-137.5 265,-137.5 265,-116.5 81,-116.5"/>
<text text-anchor="middle" x="173" y="-124.5" font-family="Helvetica,sans-Serif" font-size="10.00">gaia/ui/preference/PreferenceHeader.h</text>
</a>
</g>
<!-- Node2&#45;&gt;Node3 -->
<g id="edge4" class="edge"><title>Node2&#45;&gt;Node3</title>
<path fill="none" stroke="midnightblue" d="M185.249,-174.362C183.303,-166.84 180.634,-156.519 178.284,-147.431"/>
<polygon fill="midnightblue" stroke="midnightblue" points="181.626,-146.376 175.734,-137.571 174.849,-148.128 181.626,-146.376"/>
</g>
<!-- Node2&#45;&gt;Node4 -->
<g id="edge12" class="edge"><title>Node2&#45;&gt;Node4</title>
<path fill="none" stroke="midnightblue" d="M220.298,-174.369C238.458,-166.859 260.187,-155.058 274,-138 299.22,-106.857 307.712,-59.3242 310.564,-32.1055"/>
<polygon fill="midnightblue" stroke="midnightblue" points="314.082,-32.0599 311.474,-21.7911 307.109,-31.445 314.082,-32.0599"/>
</g>
<!-- Node2&#45;&gt;Node5 -->
<g id="edge10" class="edge"><title>Node2&#45;&gt;Node5</title>
<path fill="none" stroke="midnightblue" d="M134.836,-174.465C112.622,-167.548 88.2521,-156.26 72,-138 60.2829,-124.835 55.7171,-105.076 53.9751,-90.0713"/>
<polygon fill="midnightblue" stroke="midnightblue" points="57.431,-89.3911 53.1217,-79.7122 50.4546,-89.9659 57.431,-89.3911"/>
</g>
<!-- Node3&#45;&gt;Node4 -->
<g id="edge6" class="edge"><title>Node3&#45;&gt;Node4</title>
<path fill="none" stroke="midnightblue" d="M185.828,-116.295C209.929,-96.1819 262.163,-52.5904 291.3,-28.2752"/>
<polygon fill="midnightblue" stroke="midnightblue" points="293.768,-30.7737 299.203,-21.6792 289.283,-25.3993 293.768,-30.7737"/>
</g>
<!-- Node3&#45;&gt;Node5 -->
<g id="edge8" class="edge"><title>Node3&#45;&gt;Node5</title>
<path fill="none" stroke="midnightblue" d="M151.269,-116.497C132.526,-107.438 105.233,-94.2462 84.1643,-84.0628"/>
<polygon fill="midnightblue" stroke="midnightblue" points="85.5015,-80.8217 74.9749,-79.6212 82.4553,-87.1242 85.5015,-80.8217"/>
</g>
<!-- Node7 -->
<g id="node15" class="node"><title>Node7</title>
<a xlink:href="../../d4/d7f/_vector_8h.html" target="_top" xlink:title="gaia/base/Vector.h">
<polygon fill="white" stroke="black" points="701,-116.5 701,-137.5 799,-137.5 799,-116.5 701,-116.5"/>
<text text-anchor="middle" x="750" y="-124.5" font-family="Helvetica,sans-Serif" font-size="10.00">gaia/base/Vector.h</text>
</a>
</g>
<!-- Node6&#45;&gt;Node7 -->
<g id="edge16" class="edge"><title>Node6&#45;&gt;Node7</title>
<path fill="none" stroke="midnightblue" d="M750,-174.362C750,-166.922 750,-156.743 750,-147.728"/>
<polygon fill="midnightblue" stroke="midnightblue" points="753.5,-147.571 750,-137.571 746.5,-147.571 753.5,-147.571"/>
</g>
<!-- Node10 -->
<g id="node22" class="node"><title>Node10</title>
<polygon fill="white" stroke="#bfbfbf" points="709,-0.5 709,-21.5 777,-21.5 777,-0.5 709,-0.5"/>
<text text-anchor="middle" x="743" y="-8.5" font-family="Helvetica,sans-Serif" font-size="10.00">sys/types.h</text>
</g>
<!-- Node6&#45;&gt;Node10 -->
<g id="edge44" class="edge"><title>Node6&#45;&gt;Node10</title>
<path fill="none" stroke="midnightblue" d="M781.252,-174.421C834.616,-154.664 934.033,-109.471 896,-58 882.908,-40.282 827.337,-26.4816 786.932,-18.543"/>
<polygon fill="midnightblue" stroke="midnightblue" points="787.5,-15.0884 777.021,-16.6522 786.188,-21.9643 787.5,-15.0884"/>
</g>
<!-- Node13 -->
<g id="node30" class="node"><title>Node13</title>
<a xlink:href="../../d7/def/_component_name_8h.html" target="_top" xlink:title="gaia/core/ComponentName.h">
<polygon fill="white" stroke="black" points="943,-116.5 943,-137.5 1087,-137.5 1087,-116.5 943,-116.5"/>
<text text-anchor="middle" x="1015" y="-124.5" font-family="Helvetica,sans-Serif" font-size="10.00">gaia/core/ComponentName.h</text>
</a>
</g>
<!-- Node6&#45;&gt;Node13 -->
<g id="edge34" class="edge"><title>Node6&#45;&gt;Node13</title>
<path fill="none" stroke="midnightblue" d="M795.254,-175.095C839.831,-165.339 908.125,-150.391 956.736,-139.752"/>
<polygon fill="midnightblue" stroke="midnightblue" points="957.775,-143.108 966.795,-137.551 956.278,-136.27 957.775,-143.108"/>
</g>
<!-- Node14 -->
<g id="node32" class="node"><title>Node14</title>
<a xlink:href="../../db/dbd/_export_8h.html" target="_top" xlink:title="gaia/core/Export.h">
<polygon fill="white" stroke="black" points="587,-116.5 587,-137.5 683,-137.5 683,-116.5 587,-116.5"/>
<text text-anchor="middle" x="635" y="-124.5" font-family="Helvetica,sans-Serif" font-size="10.00">gaia/core/Export.h</text>
</a>
</g>
<!-- Node6&#45;&gt;Node14 -->
<g id="edge36" class="edge"><title>Node6&#45;&gt;Node14</title>
<path fill="none" stroke="midnightblue" d="M729.174,-174.497C711.294,-165.479 685.293,-152.365 665.139,-142.201"/>
<polygon fill="midnightblue" stroke="midnightblue" points="666.564,-138.999 656.059,-137.621 663.412,-145.249 666.564,-138.999"/>
</g>
<!-- Node8 -->
<g id="node17" class="node"><title>Node8</title>
<a xlink:href="../../d1/d86/_type_helpers_8h.html" target="_top" xlink:title="gaia/base/TypeHelpers.h">
<polygon fill="white" stroke="black" points="426.5,-58.5 426.5,-79.5 551.5,-79.5 551.5,-58.5 426.5,-58.5"/>
<text text-anchor="middle" x="489" y="-66.5" font-family="Helvetica,sans-Serif" font-size="10.00">gaia/base/TypeHelpers.h</text>
</a>
</g>
<!-- Node7&#45;&gt;Node8 -->
<g id="edge18" class="edge"><title>Node7&#45;&gt;Node8</title>
<path fill="none" stroke="midnightblue" d="M702.735,-116.497C658.803,-106.734 593.273,-92.1718 546.363,-81.7474"/>
<polygon fill="midnightblue" stroke="midnightblue" points="546.875,-78.2758 536.354,-79.5231 545.356,-85.1091 546.875,-78.2758"/>
</g>
<!-- Node7&#45;&gt;Node10 -->
<g id="edge32" class="edge"><title>Node7&#45;&gt;Node10</title>
<path fill="none" stroke="midnightblue" d="M749.354,-116.295C748.198,-97.1314 745.755,-56.654 744.258,-31.8434"/>
<polygon fill="midnightblue" stroke="midnightblue" points="747.741,-31.4502 743.644,-21.6792 740.753,-31.8719 747.741,-31.4502"/>
</g>
<!-- Node12 -->
<g id="node26" class="node"><title>Node12</title>
<a xlink:href="../../dc/da9/_vector_impl_8h.html" target="_top" xlink:title="gaia/base/VectorImpl.h">
<polygon fill="white" stroke="black" points="770.5,-58.5 770.5,-79.5 887.5,-79.5 887.5,-58.5 770.5,-58.5"/>
<text text-anchor="middle" x="829" y="-66.5" font-family="Helvetica,sans-Serif" font-size="10.00">gaia/base/VectorImpl.h</text>
</a>
</g>
<!-- Node7&#45;&gt;Node12 -->
<g id="edge28" class="edge"><title>Node7&#45;&gt;Node12</title>
<path fill="none" stroke="midnightblue" d="M764.49,-116.362C776.183,-107.777 792.843,-95.5459 806.303,-85.6636"/>
<polygon fill="midnightblue" stroke="midnightblue" points="808.613,-88.31 814.602,-79.5707 804.47,-82.6675 808.613,-88.31"/>
</g>
<!-- Node8&#45;&gt;Node4 -->
<g id="edge20" class="edge"><title>Node8&#45;&gt;Node4</title>
<path fill="none" stroke="midnightblue" d="M456.947,-58.4966C425.754,-48.2752 378.504,-32.7922 346.502,-22.3058"/>
<polygon fill="midnightblue" stroke="midnightblue" points="347.28,-18.8777 336.687,-19.0897 345.1,-25.5297 347.28,-18.8777"/>
</g>
<!-- Node9 -->
<g id="node20" class="node"><title>Node9</title>
<polygon fill="white" stroke="#bfbfbf" points="434.5,-0.5 434.5,-21.5 483.5,-21.5 483.5,-0.5 434.5,-0.5"/>
<text text-anchor="middle" x="459" y="-8.5" font-family="Helvetica,sans-Serif" font-size="10.00">string.h</text>
</g>
<!-- Node8&#45;&gt;Node9 -->
<g id="edge22" class="edge"><title>Node8&#45;&gt;Node9</title>
<path fill="none" stroke="midnightblue" d="M483.498,-58.3619C479.48,-50.5949 473.919,-39.8426 469.11,-30.5458"/>
<polygon fill="midnightblue" stroke="midnightblue" points="472.171,-28.8448 464.468,-21.5707 465.953,-32.0608 472.171,-28.8448"/>
</g>
<!-- Node8&#45;&gt;Node10 -->
<g id="edge24" class="edge"><title>Node8&#45;&gt;Node10</title>
<path fill="none" stroke="midnightblue" d="M534.997,-58.4966C581.516,-47.8744 652.918,-31.5699 698.787,-21.0959"/>
<polygon fill="midnightblue" stroke="midnightblue" points="699.764,-24.4629 708.734,-18.8245 698.206,-17.6386 699.764,-24.4629"/>
</g>
<!-- Node11 -->
<g id="node24" class="node"><title>Node11</title>
<polygon fill="white" stroke="#bfbfbf" points="500.5,-0.5 500.5,-21.5 535.5,-21.5 535.5,-0.5 500.5,-0.5"/>
<text text-anchor="middle" x="518" y="-8.5" font-family="Helvetica,sans-Serif" font-size="10.00">new</text>
</g>
<!-- Node8&#45;&gt;Node11 -->
<g id="edge26" class="edge"><title>Node8&#45;&gt;Node11</title>
<path fill="none" stroke="midnightblue" d="M494.319,-58.3619C498.203,-50.5949 503.579,-39.8426 508.227,-30.5458"/>
<polygon fill="midnightblue" stroke="midnightblue" points="511.373,-32.0802 512.715,-21.5707 505.112,-28.9497 511.373,-32.0802"/>
</g>
<!-- Node12&#45;&gt;Node10 -->
<g id="edge30" class="edge"><title>Node12&#45;&gt;Node10</title>
<path fill="none" stroke="midnightblue" d="M813.226,-58.3619C800.376,-49.6955 782.015,-37.3126 767.29,-27.3819"/>
<polygon fill="midnightblue" stroke="midnightblue" points="768.921,-24.2604 758.674,-21.5707 765.007,-30.0639 768.921,-24.2604"/>
</g>
<!-- Node15 -->
<g id="node34" class="node"><title>Node15</title>
<a xlink:href="../../de/d8c/_component_loader_8h.html" target="_top" xlink:title="gaia/core/ComponentLoader.h">
<polygon fill="white" stroke="black" points="568.5,-58.5 568.5,-79.5 715.5,-79.5 715.5,-58.5 568.5,-58.5"/>
<text text-anchor="middle" x="642" y="-66.5" font-family="Helvetica,sans-Serif" font-size="10.00">gaia/core/ComponentLoader.h</text>
</a>
</g>
<!-- Node14&#45;&gt;Node15 -->
<g id="edge38" class="edge"><title>Node14&#45;&gt;Node15</title>
<path fill="none" stroke="midnightblue" d="M636.284,-116.362C637.182,-108.922 638.41,-98.7427 639.498,-89.7276"/>
<polygon fill="midnightblue" stroke="midnightblue" points="643.001,-89.918 640.724,-79.5707 636.051,-89.0792 643.001,-89.918"/>
</g>
<!-- Node16 -->
<g id="node37" class="node"><title>Node16</title>
<polygon fill="white" stroke="#bfbfbf" points="358.5,-58.5 358.5,-79.5 409.5,-79.5 409.5,-58.5 358.5,-58.5"/>
<text text-anchor="middle" x="384" y="-66.5" font-family="Helvetica,sans-Serif" font-size="10.00">typeinfo</text>
</g>
<!-- Node14&#45;&gt;Node16 -->
<g id="edge42" class="edge"><title>Node14&#45;&gt;Node16</title>
<path fill="none" stroke="midnightblue" d="M586.833,-117.998C544.797,-109.821 482.007,-96.8347 419.207,-80.1607"/>
<polygon fill="midnightblue" stroke="midnightblue" points="420.104,-76.7776 409.538,-77.5638 418.288,-83.538 420.104,-76.7776"/>
</g>
<!-- Node15&#45;&gt;Node10 -->
<g id="edge40" class="edge"><title>Node15&#45;&gt;Node10</title>
<path fill="none" stroke="midnightblue" d="M660.525,-58.3619C675.901,-49.532 697.996,-36.844 715.447,-26.8224"/>
<polygon fill="midnightblue" stroke="midnightblue" points="717.664,-29.5857 724.592,-21.5707 714.178,-23.5154 717.664,-29.5857"/>
</g>
</g>
</svg>
