<?xml version="1.0" encoding="UTF-8" standalone="no"?>
<!DOCTYPE svg PUBLIC "-//W3C//DTD SVG 1.1//EN"
 "http://www.w3.org/Graphics/SVG/1.1/DTD/svg11.dtd">
<!-- Generated by graphviz version 2.26.3 (20100126.1600)
 -->
<!-- Title: G Pages: 1 -->
<svg width="328pt" height="146pt"
 viewBox="0.00 0.00 328.00 146.00" xmlns="http://www.w3.org/2000/svg" xmlns:xlink="http://www.w3.org/1999/xlink">
<g id="graph1" class="graph" transform="scale(1 1) rotate(0) translate(4 142)">
<title>G</title>
<polygon fill="white" stroke="white" points="-4,5 -4,-142 325,-142 325,5 -4,5"/>
<!-- Node1 -->
<g id="node1" class="node"><title>Node1</title>
<polygon fill="#bfbfbf" stroke="black" points="0,-116.5 0,-137.5 320,-137.5 320,-116.5 0,-116.5"/>
<text text-anchor="middle" x="160" y="-124.5" font-family="Helvetica,sans-Serif" font-size="10.00">/home/vilon_tao/gaia/sdk/include/gaia/media/videoeditor/EffectColor.h</text>
</g>
<!-- Node2 -->
<g id="node3" class="node"><title>Node2</title>
<polygon fill="white" stroke="#bfbfbf" points="35.5,-0.5 35.5,-21.5 84.5,-21.5 84.5,-0.5 35.5,-0.5"/>
<text text-anchor="middle" x="60" y="-8.5" font-family="Helvetica,sans-Serif" font-size="10.00">stdint.h</text>
</g>
<!-- Node1&#45;&gt;Node2 -->
<g id="edge2" class="edge"><title>Node1&#45;&gt;Node2</title>
<path fill="none" stroke="midnightblue" d="M127.166,-116.486C109.138,-109.064 87.8879,-97.3141 75,-80 64.734,-66.2082 61.2143,-46.8183 60.1303,-32.1038"/>
<polygon fill="midnightblue" stroke="midnightblue" points="63.6198,-31.7778 59.7047,-21.9329 56.626,-32.0705 63.6198,-31.7778"/>
</g>
<!-- Node3 -->
<g id="node5" class="node"><title>Node3</title>
<a xlink:href="../../d1/dd0/gmacros_8h.html" target="_top" xlink:title="gaia/base/gmacros.h">
<polygon fill="white" stroke="black" points="158.5,-0.5 158.5,-21.5 265.5,-21.5 265.5,-0.5 158.5,-0.5"/>
<text text-anchor="middle" x="212" y="-8.5" font-family="Helvetica,sans-Serif" font-size="10.00">gaia/base/gmacros.h</text>
</a>
</g>
<!-- Node1&#45;&gt;Node3 -->
<g id="edge4" class="edge"><title>Node1&#45;&gt;Node3</title>
<path fill="none" stroke="midnightblue" d="M196.896,-116.414C214.755,-109.225 234.549,-97.7203 245,-80 254.811,-63.3634 242.82,-43.357 230.635,-29.1807"/>
<polygon fill="midnightblue" stroke="midnightblue" points="232.961,-26.5412 223.601,-21.5772 227.823,-31.2947 232.961,-26.5412"/>
</g>
<!-- Node4 -->
<g id="node7" class="node"><title>Node4</title>
<a xlink:href="../../dd/d44/_effect_8h.html" target="_top" xlink:title="gaia/media/videoeditor/Effect.h">
<polygon fill="white" stroke="black" points="84,-58.5 84,-79.5 236,-79.5 236,-58.5 84,-58.5"/>
<text text-anchor="middle" x="160" y="-66.5" font-family="Helvetica,sans-Serif" font-size="10.00">gaia/media/videoeditor/Effect.h</text>
</a>
</g>
<!-- Node1&#45;&gt;Node4 -->
<g id="edge6" class="edge"><title>Node1&#45;&gt;Node4</title>
<path fill="none" stroke="midnightblue" d="M160,-116.362C160,-108.922 160,-98.7427 160,-89.7276"/>
<polygon fill="midnightblue" stroke="midnightblue" points="163.5,-89.5706 160,-79.5707 156.5,-89.5707 163.5,-89.5706"/>
</g>
<!-- Node4&#45;&gt;Node2 -->
<g id="edge8" class="edge"><title>Node4&#45;&gt;Node2</title>
<path fill="none" stroke="midnightblue" d="M141.658,-58.3619C126.434,-49.532 104.559,-36.844 87.28,-26.8224"/>
<polygon fill="midnightblue" stroke="midnightblue" points="88.6316,-23.5603 78.2253,-21.5707 85.1196,-29.6155 88.6316,-23.5603"/>
</g>
<!-- Node4&#45;&gt;Node3 -->
<g id="edge10" class="edge"><title>Node4&#45;&gt;Node3</title>
<path fill="none" stroke="midnightblue" d="M169.538,-58.3619C176.868,-50.1861 187.163,-38.7025 195.781,-29.0907"/>
<polygon fill="midnightblue" stroke="midnightblue" points="198.453,-31.3528 202.523,-21.5707 193.241,-26.68 198.453,-31.3528"/>
</g>
</g>
</svg>
