<?xml version="1.0" encoding="UTF-8" standalone="no"?>
<!DOCTYPE svg PUBLIC "-//W3C//DTD SVG 1.1//EN"
 "http://www.w3.org/Graphics/SVG/1.1/DTD/svg11.dtd">
<!-- Generated by graphviz version 2.26.3 (20100126.1600)
 -->
<!-- Title: G Pages: 1 -->
<svg width="276pt" height="146pt"
 viewBox="0.00 0.00 276.00 146.00" xmlns="http://www.w3.org/2000/svg" xmlns:xlink="http://www.w3.org/1999/xlink">
<g id="graph1" class="graph" transform="scale(1 1) rotate(0) translate(4 142)">
<title>G</title>
<polygon fill="white" stroke="white" points="-4,5 -4,-142 273,-142 273,5 -4,5"/>
<!-- Node1 -->
<g id="node1" class="node"><title>Node1</title>
<polygon fill="#bfbfbf" stroke="black" points="0,-116.5 0,-137.5 268,-137.5 268,-116.5 0,-116.5"/>
<text text-anchor="middle" x="134" y="-124.5" font-family="Helvetica,sans-Serif" font-size="10.00">/home/vilon_tao/gaia/sdk/include/gaia/ui/dialog/AlertBox.h</text>
</g>
<!-- Node2 -->
<g id="node3" class="node"><title>Node2</title>
<a xlink:href="../../dc/de0/_dialog_box_8h.html" target="_top" xlink:title="gaia/ui/dialog/DialogBox.h">
<polygon fill="white" stroke="black" points="23,-58.5 23,-79.5 153,-79.5 153,-58.5 23,-58.5"/>
<text text-anchor="middle" x="88" y="-66.5" font-family="Helvetica,sans-Serif" font-size="10.00">gaia/ui/dialog/DialogBox.h</text>
</a>
</g>
<!-- Node1&#45;&gt;Node2 -->
<g id="edge2" class="edge"><title>Node1&#45;&gt;Node2</title>
<path fill="none" stroke="midnightblue" d="M125.563,-116.362C119.208,-108.35 110.334,-97.1605 102.807,-87.6696"/>
<polygon fill="midnightblue" stroke="midnightblue" points="105.34,-85.2308 96.3836,-79.5707 99.8554,-89.5805 105.34,-85.2308"/>
</g>
<!-- Node3 -->
<g id="node5" class="node"><title>Node3</title>
<polygon fill="white" stroke="#bfbfbf" points="100,-0.5 100,-21.5 168,-21.5 168,-0.5 100,-0.5"/>
<text text-anchor="middle" x="134" y="-8.5" font-family="Helvetica,sans-Serif" font-size="10.00">sys/types.h</text>
</g>
<!-- Node1&#45;&gt;Node3 -->
<g id="edge6" class="edge"><title>Node1&#45;&gt;Node3</title>
<path fill="none" stroke="midnightblue" d="M142.753,-116.199C149.494,-107.144 158.269,-93.5528 162,-80 164.595,-70.5729 164.595,-67.4271 162,-58 159.289,-48.153 153.915,-38.2859 148.594,-30.1528"/>
<polygon fill="midnightblue" stroke="midnightblue" points="151.352,-27.9898 142.753,-21.8007 145.616,-32.0015 151.352,-27.9898"/>
</g>
<!-- Node2&#45;&gt;Node3 -->
<g id="edge4" class="edge"><title>Node2&#45;&gt;Node3</title>
<path fill="none" stroke="midnightblue" d="M96.4371,-58.3619C102.792,-50.3496 111.666,-39.1605 119.193,-29.6696"/>
<polygon fill="midnightblue" stroke="midnightblue" points="122.145,-31.5805 125.616,-21.5707 116.66,-27.2308 122.145,-31.5805"/>
</g>
</g>
</svg>
