<?xml version="1.0" encoding="UTF-8" standalone="no"?>
<!DOCTYPE svg PUBLIC "-//W3C//DTD SVG 1.1//EN"
 "http://www.w3.org/Graphics/SVG/1.1/DTD/svg11.dtd">
<!-- Generated by graphviz version 2.26.3 (20100126.1600)
 -->
<!-- Title: G Pages: 1 -->
<svg width="394pt" height="204pt"
 viewBox="0.00 0.00 394.00 204.00" xmlns="http://www.w3.org/2000/svg" xmlns:xlink="http://www.w3.org/1999/xlink">
<g id="graph1" class="graph" transform="scale(1 1) rotate(0) translate(4 200)">
<title>G</title>
<polygon fill="white" stroke="white" points="-4,5 -4,-200 391,-200 391,5 -4,5"/>
<!-- Node1 -->
<g id="node1" class="node"><title>Node1</title>
<polygon fill="#bfbfbf" stroke="black" points="-0.5,-174.5 -0.5,-195.5 386.5,-195.5 386.5,-174.5 -0.5,-174.5"/>
<text text-anchor="middle" x="193" y="-182.5" font-family="Helvetica,sans-Serif" font-size="10.00">/home/vilon_tao/gaia/sdk/include/gaia/text/method/PasswordTransformationMethod.h</text>
</g>
<!-- Node2 -->
<g id="node3" class="node"><title>Node2</title>
<a xlink:href="../../df/d3d/_transformation_method_8h.html" target="_top" xlink:title="gaia/text/method/TransformationMethod.h">
<polygon fill="white" stroke="black" points="31,-116.5 31,-137.5 229,-137.5 229,-116.5 31,-116.5"/>
<text text-anchor="middle" x="130" y="-124.5" font-family="Helvetica,sans-Serif" font-size="10.00">gaia/text/method/TransformationMethod.h</text>
</a>
</g>
<!-- Node1&#45;&gt;Node2 -->
<g id="edge2" class="edge"><title>Node1&#45;&gt;Node2</title>
<path fill="none" stroke="midnightblue" d="M181.445,-174.362C172.387,-166.023 159.59,-154.242 149.026,-144.516"/>
<polygon fill="midnightblue" stroke="midnightblue" points="151.21,-141.769 141.482,-137.571 146.468,-146.919 151.21,-141.769"/>
</g>
<!-- Node5 -->
<g id="node9" class="node"><title>Node5</title>
<a xlink:href="../../d1/dd0/gmacros_8h.html" target="_top" xlink:title="gaia/base/gmacros.h">
<polygon fill="white" stroke="black" points="203.5,-58.5 203.5,-79.5 310.5,-79.5 310.5,-58.5 203.5,-58.5"/>
<text text-anchor="middle" x="257" y="-66.5" font-family="Helvetica,sans-Serif" font-size="10.00">gaia/base/gmacros.h</text>
</a>
</g>
<!-- Node1&#45;&gt;Node5 -->
<g id="edge10" class="edge"><title>Node1&#45;&gt;Node5</title>
<path fill="none" stroke="midnightblue" d="M206.276,-174.37C216.368,-165.614 229.86,-152.344 238,-138 246.42,-123.163 251.273,-104.394 253.964,-90.1782"/>
<polygon fill="midnightblue" stroke="midnightblue" points="257.483,-90.3567 255.685,-79.9155 250.579,-89.1989 257.483,-90.3567"/>
</g>
<!-- Node3 -->
<g id="node5" class="node"><title>Node3</title>
<a xlink:href="../../d7/d97/_char_sequence_8h.html" target="_top" xlink:title="gaia/base/CharSequence.h">
<polygon fill="white" stroke="black" points="52,-58.5 52,-79.5 186,-79.5 186,-58.5 52,-58.5"/>
<text text-anchor="middle" x="119" y="-66.5" font-family="Helvetica,sans-Serif" font-size="10.00">gaia/base/CharSequence.h</text>
</a>
</g>
<!-- Node2&#45;&gt;Node3 -->
<g id="edge4" class="edge"><title>Node2&#45;&gt;Node3</title>
<path fill="none" stroke="midnightblue" d="M127.982,-116.362C126.556,-108.84 124.598,-98.5187 122.875,-89.4308"/>
<polygon fill="midnightblue" stroke="midnightblue" points="126.307,-88.7433 121.005,-79.5707 119.429,-90.0477 126.307,-88.7433"/>
</g>
<!-- Node2&#45;&gt;Node5 -->
<g id="edge8" class="edge"><title>Node2&#45;&gt;Node5</title>
<path fill="none" stroke="midnightblue" d="M152.999,-116.497C173.013,-107.356 202.241,-94.0082 224.619,-83.7883"/>
<polygon fill="midnightblue" stroke="midnightblue" points="226.101,-86.9592 233.743,-79.6212 223.193,-80.5918 226.101,-86.9592"/>
</g>
<!-- Node4 -->
<g id="node7" class="node"><title>Node4</title>
<polygon fill="white" stroke="#bfbfbf" points="94.5,-0.5 94.5,-21.5 143.5,-21.5 143.5,-0.5 94.5,-0.5"/>
<text text-anchor="middle" x="119" y="-8.5" font-family="Helvetica,sans-Serif" font-size="10.00">stdint.h</text>
</g>
<!-- Node3&#45;&gt;Node4 -->
<g id="edge6" class="edge"><title>Node3&#45;&gt;Node4</title>
<path fill="none" stroke="midnightblue" d="M119,-58.3619C119,-50.9219 119,-40.7427 119,-31.7276"/>
<polygon fill="midnightblue" stroke="midnightblue" points="122.5,-31.5706 119,-21.5707 115.5,-31.5707 122.5,-31.5706"/>
</g>
</g>
</svg>
