<?xml version="1.0" encoding="UTF-8" standalone="no"?>
<!DOCTYPE svg PUBLIC "-//W3C//DTD SVG 1.1//EN"
 "http://www.w3.org/Graphics/SVG/1.1/DTD/svg11.dtd">
<!-- Generated by graphviz version 2.26.3 (20100126.1600)
 -->
<!-- Title: G Pages: 1 -->
<svg width="9881pt" height="262pt"
 viewBox="0.00 0.00 9881.00 262.00" xmlns="http://www.w3.org/2000/svg" xmlns:xlink="http://www.w3.org/1999/xlink">
<g id="graph1" class="graph" transform="scale(1 1) rotate(0) translate(4 258)">
<title>G</title>
<polygon fill="white" stroke="white" points="-4,5 -4,-258 9878,-258 9878,5 -4,5"/>
<!-- Node1 -->
<g id="node1" class="node"><title>Node1</title>
<polygon fill="#bfbfbf" stroke="black" points="6437,-232.5 6437,-253.5 6709,-253.5 6709,-232.5 6437,-232.5"/>
<text text-anchor="middle" x="6573" y="-240.5" font-family="Helvetica,sans-Serif" font-size="10.00">/home/vilon_tao/gaia/sdk/include/gaia/core/vision/Widget.h</text>
</g>
<!-- Node2 -->
<g id="node3" class="node"><title>Node2</title>
<a xlink:href="../../d9/d62/_surface_widget_8h.html" target="_top" xlink:title="/home/vilon_tao/gaia/sdk/include/gaia/core/SurfaceWidget.h">
<polygon fill="white" stroke="black" points="152,-174.5 152,-195.5 430,-195.5 430,-174.5 152,-174.5"/>
<text text-anchor="middle" x="291" y="-182.5" font-family="Helvetica,sans-Serif" font-size="10.00">/home/vilon_tao/gaia/sdk/include/gaia/core/SurfaceWidget.h</text>
</a>
</g>
<!-- Node1&#45;&gt;Node2 -->
<g id="edge2" class="edge"><title>Node1&#45;&gt;Node2</title>
<path fill="none" stroke="midnightblue" d="M6426.87,-242.464C5554.7,-239.188 1053.58,-221.166 439,-196 435.396,-195.852 431.743,-195.688 428.058,-195.509"/>
<polygon fill="midnightblue" stroke="midnightblue" points="6426.95,-245.964 6436.96,-242.502 6426.97,-238.964 6426.95,-245.964"/>
</g>
<!-- Node5 -->
<g id="node9" class="node"><title>Node5</title>
<a xlink:href="../../d0/d0a/_texture_widget_8h.html" target="_top" xlink:title="/home/vilon_tao/gaia/sdk/include/gaia/core/TextureWidget.h">
<polygon fill="white" stroke="black" points="447.5,-174.5 447.5,-195.5 724.5,-195.5 724.5,-174.5 447.5,-174.5"/>
<text text-anchor="middle" x="586" y="-182.5" font-family="Helvetica,sans-Serif" font-size="10.00">/home/vilon_tao/gaia/sdk/include/gaia/core/TextureWidget.h</text>
</a>
</g>
<!-- Node1&#45;&gt;Node5 -->
<g id="edge8" class="edge"><title>Node1&#45;&gt;Node5</title>
<path fill="none" stroke="midnightblue" d="M6426.56,-242.384C5579.1,-238.746 1320.92,-219.416 738,-196 733.638,-195.825 729.207,-195.626 724.733,-195.409"/>
<polygon fill="midnightblue" stroke="midnightblue" points="6426.66,-245.885 6436.67,-242.428 6426.69,-238.885 6426.66,-245.885"/>
</g>
<!-- Node6 -->
<g id="node11" class="node"><title>Node6</title>
<a xlink:href="../../dd/db5/_focus_detect_8h.html" target="_top" xlink:title="/home/vilon_tao/gaia/sdk/include/gaia/core/vision/FocusDetect.h">
<polygon fill="white" stroke="black" points="818,-116.5 818,-137.5 1116,-137.5 1116,-116.5 818,-116.5"/>
<text text-anchor="middle" x="967" y="-124.5" font-family="Helvetica,sans-Serif" font-size="10.00">/home/vilon_tao/gaia/sdk/include/gaia/core/vision/FocusDetect.h</text>
</a>
</g>
<!-- Node1&#45;&gt;Node6 -->
<g id="edge10" class="edge"><title>Node1&#45;&gt;Node6</title>
<path fill="none" stroke="midnightblue" d="M6426.69,-242.926C5639.51,-242.361 1924.38,-237.499 1414,-196 1269.99,-184.291 1102.07,-153.768 1019.01,-137.525"/>
<polygon fill="midnightblue" stroke="midnightblue" points="6426.94,-246.426 6436.95,-242.934 6426.95,-239.426 6426.94,-246.426"/>
</g>
<!-- Node7 -->
<g id="node13" class="node"><title>Node7</title>
<a xlink:href="../../d6/d52/_widget_controller_8h.html" target="_top" xlink:title="/home/vilon_tao/gaia/sdk/include/gaia/core/vision/WidgetController.h">
<polygon fill="white" stroke="black" points="3645,-174.5 3645,-195.5 3959,-195.5 3959,-174.5 3645,-174.5"/>
<text text-anchor="middle" x="3802" y="-182.5" font-family="Helvetica,sans-Serif" font-size="10.00">/home/vilon_tao/gaia/sdk/include/gaia/core/vision/WidgetController.h</text>
</a>
</g>
<!-- Node1&#45;&gt;Node7 -->
<g id="edge12" class="edge"><title>Node1&#45;&gt;Node7</title>
<path fill="none" stroke="midnightblue" d="M6426.51,-239.934C5950.63,-229.973 4450.64,-198.577 3959.43,-188.295"/>
<polygon fill="midnightblue" stroke="midnightblue" points="6426.46,-243.433 6436.53,-240.144 6426.61,-236.435 6426.46,-243.433"/>
</g>
<!-- Node11 -->
<g id="node22" class="node"><title>Node11</title>
<a xlink:href="../../dd/dc5/_i_gallery_on_item_click_listener_8h.html" target="_top" xlink:title="/home/vilon_tao/gaia/sdk/include/gaia/ui/IGalleryOnItemClickListener.h">
<polygon fill="white" stroke="black" points="570.5,-58.5 570.5,-79.5 895.5,-79.5 895.5,-58.5 570.5,-58.5"/>
<text text-anchor="middle" x="733" y="-66.5" font-family="Helvetica,sans-Serif" font-size="10.00">/home/vilon_tao/gaia/sdk/include/gaia/ui/IGalleryOnItemClickListener.h</text>
</a>
</g>
<!-- Node1&#45;&gt;Node11 -->
<g id="edge94" class="edge"><title>Node1&#45;&gt;Node11</title>
<path fill="none" stroke="midnightblue" d="M6426.66,-242.618C5538.68,-240.202 908.321,-226.164 843,-196 788.977,-171.053 751.202,-105.219 738.085,-79.5033"/>
<polygon fill="midnightblue" stroke="midnightblue" points="6426.93,-246.119 6436.94,-242.646 6426.95,-239.119 6426.93,-246.119"/>
</g>
<!-- Node12 -->
<g id="node24" class="node"><title>Node12</title>
<a xlink:href="../../dd/dca/_i_gallery_on_item_long_click_listener_8h.html" target="_top" xlink:title="/home/vilon_tao/gaia/sdk/include/gaia/ui/IGalleryOnItemLongClickListener.h">
<polygon fill="white" stroke="black" points="913,-58.5 913,-79.5 1259,-79.5 1259,-58.5 913,-58.5"/>
<text text-anchor="middle" x="1086" y="-66.5" font-family="Helvetica,sans-Serif" font-size="10.00">/home/vilon_tao/gaia/sdk/include/gaia/ui/IGalleryOnItemLongClickListener.h</text>
</a>
</g>
<!-- Node1&#45;&gt;Node12 -->
<g id="edge96" class="edge"><title>Node1&#45;&gt;Node12</title>
<path fill="none" stroke="midnightblue" d="M6426.63,-242.81C5623.33,-241.62 1767.25,-233.957 1238,-196 1046.09,-182.237 935.607,-282.876 809,-138 802.566,-130.637 802.691,-123.47 809,-116 820.704,-102.142 912.329,-88.5204 987.046,-79.539"/>
<polygon fill="midnightblue" stroke="midnightblue" points="6426.8,-246.31 6436.8,-242.825 6426.81,-239.31 6426.8,-246.31"/>
</g>
<!-- Node13 -->
<g id="node26" class="node"><title>Node13</title>
<a xlink:href="../../d5/da5/_i_gallery_on_item_selected_listener_8h.html" target="_top" xlink:title="/home/vilon_tao/gaia/sdk/include/gaia/ui/IGalleryOnItemSelectedListener.h">
<polygon fill="white" stroke="black" points="1276.5,-58.5 1276.5,-79.5 1617.5,-79.5 1617.5,-58.5 1276.5,-58.5"/>
<text text-anchor="middle" x="1447" y="-66.5" font-family="Helvetica,sans-Serif" font-size="10.00">/home/vilon_tao/gaia/sdk/include/gaia/ui/IGalleryOnItemSelectedListener.h</text>
</a>
</g>
<!-- Node1&#45;&gt;Node13 -->
<g id="edge98" class="edge"><title>Node1&#45;&gt;Node13</title>
<path fill="none" stroke="midnightblue" d="M6426.57,-241.2C5997.66,-235.81 4706.9,-218.755 3636,-196 3392.75,-190.831 1616.75,-312.308 1447,-138 1431.96,-122.552 1438.07,-94.7154 1443.02,-79.5487"/>
<polygon fill="midnightblue" stroke="midnightblue" points="6426.81,-244.703 6436.85,-241.329 6426.9,-237.704 6426.81,-244.703"/>
</g>
<!-- Node18 -->
<g id="node36" class="node"><title>Node18</title>
<a xlink:href="../../d6/d77/_list_item_panels_8h.html" target="_top" xlink:title="/home/vilon_tao/gaia/sdk/include/gaia/ui/ListItemPanels.h">
<polygon fill="white" stroke="black" points="5619.5,-58.5 5619.5,-79.5 5886.5,-79.5 5886.5,-58.5 5619.5,-58.5"/>
<text text-anchor="middle" x="5753" y="-66.5" font-family="Helvetica,sans-Serif" font-size="10.00">/home/vilon_tao/gaia/sdk/include/gaia/ui/ListItemPanels.h</text>
</a>
</g>
<!-- Node1&#45;&gt;Node18 -->
<g id="edge108" class="edge"><title>Node1&#45;&gt;Node18</title>
<path fill="none" stroke="midnightblue" d="M6426.54,-233.858C6293.98,-224.906 6108.83,-210.531 6037,-196 5954.62,-179.335 5932.73,-174.464 5857,-138 5838.84,-129.258 5792.17,-96.7944 5768,-79.6947"/>
<polygon fill="midnightblue" stroke="midnightblue" points="6426.58,-237.368 6436.79,-234.546 6427.05,-230.384 6426.58,-237.368"/>
</g>
<!-- Node20 -->
<g id="node40" class="node"><title>Node20</title>
<a xlink:href="../../d5/d80/_widget_animator_8h.html" target="_top" xlink:title="/home/vilon_tao/gaia/sdk/include/gaia/ui/WidgetAnimator.h">
<polygon fill="white" stroke="black" points="5904,-58.5 5904,-79.5 6176,-79.5 6176,-58.5 5904,-58.5"/>
<text text-anchor="middle" x="6040" y="-66.5" font-family="Helvetica,sans-Serif" font-size="10.00">/home/vilon_tao/gaia/sdk/include/gaia/ui/WidgetAnimator.h</text>
</a>
</g>
<!-- Node1&#45;&gt;Node20 -->
<g id="edge116" class="edge"><title>Node1&#45;&gt;Node20</title>
<path fill="none" stroke="midnightblue" d="M6426.93,-239.927C6279.64,-235.278 6070.45,-223.814 6045,-196 6038.4,-188.786 6039.35,-181.982 6045,-174 6072.77,-134.755 6119.23,-177.245 6147,-138 6166.85,-109.941 6123.11,-90.5111 6085.7,-79.5798"/>
<polygon fill="midnightblue" stroke="midnightblue" points="6426.88,-243.427 6436.98,-240.236 6427.09,-236.43 6426.88,-243.427"/>
</g>
<!-- Node21 -->
<g id="node42" class="node"><title>Node21</title>
<a xlink:href="../../dd/de8/_widget_switcher_8h.html" target="_top" xlink:title="/home/vilon_tao/gaia/sdk/include/gaia/ui/WidgetSwitcher.h">
<polygon fill="white" stroke="black" points="5986.5,-0.5 5986.5,-21.5 6257.5,-21.5 6257.5,-0.5 5986.5,-0.5"/>
<text text-anchor="middle" x="6122" y="-8.5" font-family="Helvetica,sans-Serif" font-size="10.00">/home/vilon_tao/gaia/sdk/include/gaia/ui/WidgetSwitcher.h</text>
</a>
</g>
<!-- Node1&#45;&gt;Node21 -->
<g id="edge120" class="edge"><title>Node1&#45;&gt;Node21</title>
<path fill="none" stroke="midnightblue" d="M6426.48,-238.917C6289.06,-233.535 6101.25,-221.563 6078,-196 6036.71,-150.599 6112.07,-190.908 6163,-138 6182.12,-118.138 6180.03,-107.118 6185,-80 6186.76,-70.3824 6189.38,-66.7399 6185,-58 6176.74,-41.5334 6159.67,-29.3636 6145.38,-21.5381"/>
<polygon fill="midnightblue" stroke="midnightblue" points="6426.58,-242.423 6436.7,-239.309 6426.85,-235.428 6426.58,-242.423"/>
</g>
<!-- Node33 -->
<g id="node68" class="node"><title>Node33</title>
<a xlink:href="../../d8/d0c/_widget_replacer_8h.html" target="_top" xlink:title="/home/vilon_tao/gaia/sdk/include/gaia/core/vision/WidgetReplacer.h">
<polygon fill="white" stroke="black" points="6086.5,-174.5 6086.5,-195.5 6397.5,-195.5 6397.5,-174.5 6086.5,-174.5"/>
<text text-anchor="middle" x="6242" y="-182.5" font-family="Helvetica,sans-Serif" font-size="10.00">/home/vilon_tao/gaia/sdk/include/gaia/core/vision/WidgetReplacer.h</text>
</a>
</g>
<!-- Node1&#45;&gt;Node33 -->
<g id="edge70" class="edge"><title>Node1&#45;&gt;Node33</title>
<path fill="none" stroke="midnightblue" d="M6502.97,-230.73C6443.36,-220.283 6358.62,-205.435 6302.05,-195.523"/>
<polygon fill="midnightblue" stroke="midnightblue" points="6502.6,-234.218 6513.06,-232.497 6503.81,-227.323 6502.6,-234.218"/>
</g>
<!-- Node34 -->
<g id="node70" class="node"><title>Node34</title>
<a xlink:href="../../de/de9/_i_m_e_keyboard_widget_8h.html" target="_top" xlink:title="/home/vilon_tao/gaia/sdk/include/gaia/service/IMEKeyboardWidget.h">
<polygon fill="white" stroke="black" points="6415,-174.5 6415,-195.5 6731,-195.5 6731,-174.5 6415,-174.5"/>
<text text-anchor="middle" x="6573" y="-182.5" font-family="Helvetica,sans-Serif" font-size="10.00">/home/vilon_tao/gaia/sdk/include/gaia/service/IMEKeyboardWidget.h</text>
</a>
</g>
<!-- Node1&#45;&gt;Node34 -->
<g id="edge72" class="edge"><title>Node1&#45;&gt;Node34</title>
<path fill="none" stroke="midnightblue" d="M6573,-222.191C6573,-213.168 6573,-202.994 6573,-195.571"/>
<polygon fill="midnightblue" stroke="midnightblue" points="6569.5,-222.362 6573,-232.362 6576.5,-222.362 6569.5,-222.362"/>
</g>
<!-- Node35 -->
<g id="node72" class="node"><title>Node35</title>
<a xlink:href="../../d9/d43/_clickable_span_8h.html" target="_top" xlink:title="/home/vilon_tao/gaia/sdk/include/gaia/text/style/ClickableSpan.h">
<polygon fill="white" stroke="black" points="6749,-174.5 6749,-195.5 7047,-195.5 7047,-174.5 6749,-174.5"/>
<text text-anchor="middle" x="6898" y="-182.5" font-family="Helvetica,sans-Serif" font-size="10.00">/home/vilon_tao/gaia/sdk/include/gaia/text/style/ClickableSpan.h</text>
</a>
</g>
<!-- Node1&#45;&gt;Node35 -->
<g id="edge74" class="edge"><title>Node1&#45;&gt;Node35</title>
<path fill="none" stroke="midnightblue" d="M6641.76,-230.73C6700.29,-220.283 6783.49,-205.435 6839.03,-195.523"/>
<polygon fill="midnightblue" stroke="midnightblue" points="6641.08,-227.294 6631.86,-232.497 6642.31,-234.185 6641.08,-227.294"/>
</g>
<!-- Node37 -->
<g id="node76" class="node"><title>Node37</title>
<a xlink:href="../../d8/d17/_action_bar_widget_8h.html" target="_top" xlink:title="/home/vilon_tao/gaia/sdk/include/gaia/ui/ActionBarWidget.h">
<polygon fill="white" stroke="black" points="7064.5,-174.5 7064.5,-195.5 7339.5,-195.5 7339.5,-174.5 7064.5,-174.5"/>
<text text-anchor="middle" x="7202" y="-182.5" font-family="Helvetica,sans-Serif" font-size="10.00">/home/vilon_tao/gaia/sdk/include/gaia/ui/ActionBarWidget.h</text>
</a>
</g>
<!-- Node1&#45;&gt;Node37 -->
<g id="edge78" class="edge"><title>Node1&#45;&gt;Node37</title>
<path fill="none" stroke="midnightblue" d="M6697.05,-231.562C6810.67,-221.084 6977.49,-205.702 7087.88,-195.523"/>
<polygon fill="midnightblue" stroke="midnightblue" points="6696.54,-228.093 6686.91,-232.497 6697.19,-235.064 6696.54,-228.093"/>
</g>
<!-- Node38 -->
<g id="node78" class="node"><title>Node38</title>
<a xlink:href="../../d8/d3d/_bubble_text_widget_8h.html" target="_top" xlink:title="/home/vilon_tao/gaia/sdk/include/gaia/ui/BubbleTextWidget.h">
<polygon fill="white" stroke="black" points="7357,-174.5 7357,-195.5 7639,-195.5 7639,-174.5 7357,-174.5"/>
<text text-anchor="middle" x="7498" y="-182.5" font-family="Helvetica,sans-Serif" font-size="10.00">/home/vilon_tao/gaia/sdk/include/gaia/ui/BubbleTextWidget.h</text>
</a>
</g>
<!-- Node1&#45;&gt;Node38 -->
<g id="edge80" class="edge"><title>Node1&#45;&gt;Node38</title>
<path fill="none" stroke="midnightblue" d="M6719.3,-234.68C6875.15,-225.687 7129.04,-210.667 7348,-196 7350.87,-195.808 7353.76,-195.612 7356.68,-195.413"/>
<polygon fill="midnightblue" stroke="midnightblue" points="6718.96,-231.193 6709.18,-235.263 6719.36,-238.182 6718.96,-231.193"/>
</g>
<!-- Node39 -->
<g id="node80" class="node"><title>Node39</title>
<a xlink:href="../../d5/dae/_chronometer_8h.html" target="_top" xlink:title="/home/vilon_tao/gaia/sdk/include/gaia/ui/Chronometer.h">
<polygon fill="white" stroke="black" points="7657,-174.5 7657,-195.5 7915,-195.5 7915,-174.5 7657,-174.5"/>
<text text-anchor="middle" x="7786" y="-182.5" font-family="Helvetica,sans-Serif" font-size="10.00">/home/vilon_tao/gaia/sdk/include/gaia/ui/Chronometer.h</text>
</a>
</g>
<!-- Node1&#45;&gt;Node39 -->
<g id="edge82" class="edge"><title>Node1&#45;&gt;Node39</title>
<path fill="none" stroke="midnightblue" d="M6719.28,-238.267C6926.21,-231.194 7316.18,-216.472 7648,-196 7650.88,-195.822 7653.79,-195.637 7656.73,-195.446"/>
<polygon fill="midnightblue" stroke="midnightblue" points="6719.14,-234.77 6709.26,-238.609 6719.38,-241.766 6719.14,-234.77"/>
</g>
<!-- Node40 -->
<g id="node82" class="node"><title>Node40</title>
<a xlink:href="../../d3/d9b/_combo_picker_8h.html" target="_top" xlink:title="/home/vilon_tao/gaia/sdk/include/gaia/ui/ComboPicker.h">
<polygon fill="white" stroke="black" points="7932.5,-174.5 7932.5,-195.5 8193.5,-195.5 8193.5,-174.5 7932.5,-174.5"/>
<text text-anchor="middle" x="8063" y="-182.5" font-family="Helvetica,sans-Serif" font-size="10.00">/home/vilon_tao/gaia/sdk/include/gaia/ui/ComboPicker.h</text>
</a>
</g>
<!-- Node1&#45;&gt;Node40 -->
<g id="edge84" class="edge"><title>Node1&#45;&gt;Node40</title>
<path fill="none" stroke="midnightblue" d="M6719.4,-240.026C6967.43,-234.513 7486.05,-220.935 7924,-196 7926.78,-195.842 7929.59,-195.676 7932.42,-195.502"/>
<polygon fill="midnightblue" stroke="midnightblue" points="6719.16,-236.531 6709.24,-240.251 6719.32,-243.529 6719.16,-236.531"/>
</g>
<!-- Node41 -->
<g id="node84" class="node"><title>Node41</title>
<a xlink:href="../../d7/d78/_cursor_list_item_provider_8h.html" target="_top" xlink:title="/home/vilon_tao/gaia/sdk/include/gaia/ui/CursorListItemProvider.h">
<polygon fill="white" stroke="black" points="8211,-174.5 8211,-195.5 8513,-195.5 8513,-174.5 8211,-174.5"/>
<text text-anchor="middle" x="8362" y="-182.5" font-family="Helvetica,sans-Serif" font-size="10.00">/home/vilon_tao/gaia/sdk/include/gaia/ui/CursorListItemProvider.h</text>
</a>
</g>
<!-- Node1&#45;&gt;Node41 -->
<g id="edge86" class="edge"><title>Node1&#45;&gt;Node41</title>
<path fill="none" stroke="midnightblue" d="M6719.44,-240.728C7004.84,-235.866 7655.4,-222.664 8202,-196 8205.2,-195.844 8208.43,-195.68 8211.69,-195.508"/>
<polygon fill="midnightblue" stroke="midnightblue" points="6718.97,-237.235 6709.03,-240.904 6719.09,-244.234 6718.97,-237.235"/>
</g>
<!-- Node44 -->
<g id="node90" class="node"><title>Node44</title>
<a xlink:href="../../d4/d1e/_hint_box_8h.html" target="_top" xlink:title="/home/vilon_tao/gaia/sdk/include/gaia/ui/HintBox.h">
<polygon fill="white" stroke="black" points="9078.5,-174.5 9078.5,-195.5 9315.5,-195.5 9315.5,-174.5 9078.5,-174.5"/>
<text text-anchor="middle" x="9197" y="-182.5" font-family="Helvetica,sans-Serif" font-size="10.00">/home/vilon_tao/gaia/sdk/include/gaia/ui/HintBox.h</text>
</a>
</g>
<!-- Node1&#45;&gt;Node44 -->
<g id="edge92" class="edge"><title>Node1&#45;&gt;Node44</title>
<path fill="none" stroke="midnightblue" d="M6719.28,-241.547C7181.62,-236.75 8608.09,-220.323 9070,-196 9072.87,-195.849 9075.78,-195.684 9078.72,-195.509"/>
<polygon fill="midnightblue" stroke="midnightblue" points="6719.17,-238.048 6709.21,-241.651 6719.24,-245.048 6719.17,-238.048"/>
</g>
<!-- Node45 -->
<g id="node95" class="node"><title>Node45</title>
<a xlink:href="../../d8/d37/_image_widget_8h.html" target="_top" xlink:title="/home/vilon_tao/gaia/sdk/include/gaia/ui/ImageWidget.h">
<polygon fill="white" stroke="black" points="8801,-174.5 8801,-195.5 9061,-195.5 9061,-174.5 8801,-174.5"/>
<text text-anchor="middle" x="8931" y="-182.5" font-family="Helvetica,sans-Serif" font-size="10.00">/home/vilon_tao/gaia/sdk/include/gaia/ui/ImageWidget.h</text>
</a>
</g>
<!-- Node1&#45;&gt;Node45 -->
<g id="edge100" class="edge"><title>Node1&#45;&gt;Node45</title>
<path fill="none" stroke="midnightblue" d="M6719.37,-241.006C7146.5,-235.012 8386.75,-216.31 8792,-196 8795.02,-195.849 8798.08,-195.686 8801.16,-195.513"/>
<polygon fill="midnightblue" stroke="midnightblue" points="6719.07,-237.51 6709.12,-241.15 6719.17,-244.509 6719.07,-237.51"/>
</g>
<!-- Node48 -->
<g id="node103" class="node"><title>Node48</title>
<a xlink:href="../../dd/d9c/_progress_bar_8h.html" target="_top" xlink:title="/home/vilon_tao/gaia/sdk/include/gaia/ui/ProgressBar.h">
<polygon fill="white" stroke="red" points="9333,-174.5 9333,-195.5 9589,-195.5 9589,-174.5 9333,-174.5"/>
<text text-anchor="middle" x="9461" y="-182.5" font-family="Helvetica,sans-Serif" font-size="10.00">/home/vilon_tao/gaia/sdk/include/gaia/ui/ProgressBar.h</text>
</a>
</g>
<!-- Node1&#45;&gt;Node48 -->
<g id="edge110" class="edge"><title>Node1&#45;&gt;Node48</title>
<path fill="none" stroke="midnightblue" d="M6719.06,-241.722C7211.67,-237.219 8809.87,-221.007 9324,-196 9327.1,-195.849 9330.24,-195.686 9333.4,-195.51"/>
<polygon fill="midnightblue" stroke="midnightblue" points="6719.01,-238.222 6709.04,-241.813 6719.08,-245.222 6719.01,-238.222"/>
</g>
<!-- Node49 -->
<g id="node105" class="node"><title>Node49</title>
<a xlink:href="../../d8/d13/_text_widget_8h.html" target="_top" xlink:title="/home/vilon_tao/gaia/sdk/include/gaia/ui/TextWidget.h">
<polygon fill="white" stroke="red" points="8531,-174.5 8531,-195.5 8783,-195.5 8783,-174.5 8531,-174.5"/>
<text text-anchor="middle" x="8657" y="-182.5" font-family="Helvetica,sans-Serif" font-size="10.00">/home/vilon_tao/gaia/sdk/include/gaia/ui/TextWidget.h</text>
</a>
</g>
<!-- Node1&#45;&gt;Node49 -->
<g id="edge112" class="edge"><title>Node1&#45;&gt;Node49</title>
<path fill="none" stroke="midnightblue" d="M6719.68,-242.326C7044.56,-240.204 7849.3,-231.488 8522,-196 8524.94,-195.845 8527.91,-195.679 8530.9,-195.504"/>
<polygon fill="midnightblue" stroke="midnightblue" points="6719.24,-238.828 6709.26,-242.392 6719.29,-245.828 6719.24,-238.828"/>
</g>
<!-- Node50 -->
<g id="node109" class="node"><title>Node50</title>
<a xlink:href="../../d1/d89/_widget_factory_8h.html" target="_top" xlink:title="/home/vilon_tao/gaia/sdk/include/gaia/ui/WidgetFactory.h">
<polygon fill="white" stroke="black" points="9607,-174.5 9607,-195.5 9873,-195.5 9873,-174.5 9607,-174.5"/>
<text text-anchor="middle" x="9740" y="-182.5" font-family="Helvetica,sans-Serif" font-size="10.00">/home/vilon_tao/gaia/sdk/include/gaia/ui/WidgetFactory.h</text>
</a>
</g>
<!-- Node1&#45;&gt;Node50 -->
<g id="edge118" class="edge"><title>Node1&#45;&gt;Node50</title>
<path fill="none" stroke="midnightblue" d="M6719.45,-241.925C7243.94,-237.89 9027.6,-222.499 9598,-196 9601.21,-195.851 9604.46,-195.688 9607.74,-195.515"/>
<polygon fill="midnightblue" stroke="midnightblue" points="6719.15,-238.428 6709.18,-242.004 6719.2,-245.427 6719.15,-238.428"/>
</g>
<!-- Node3 -->
<g id="node5" class="node"><title>Node3</title>
<a xlink:href="../../d0/d01/_g_l_surface_widget_8h.html" target="_top" xlink:title="/home/vilon_tao/gaia/sdk/include/gaia/core/GLSurfaceWidget.h">
<polygon fill="white" stroke="black" points="0,-116.5 0,-137.5 290,-137.5 290,-116.5 0,-116.5"/>
<text text-anchor="middle" x="145" y="-124.5" font-family="Helvetica,sans-Serif" font-size="10.00">/home/vilon_tao/gaia/sdk/include/gaia/core/GLSurfaceWidget.h</text>
</a>
</g>
<!-- Node2&#45;&gt;Node3 -->
<g id="edge4" class="edge"><title>Node2&#45;&gt;Node3</title>
<path fill="none" stroke="midnightblue" d="M255.132,-170.751C229.349,-160.509 195.145,-146.921 171.736,-137.621"/>
<polygon fill="midnightblue" stroke="midnightblue" points="253.975,-174.057 264.561,-174.497 256.559,-167.552 253.975,-174.057"/>
</g>
<!-- Node4 -->
<g id="node7" class="node"><title>Node4</title>
<a xlink:href="../../d4/db3/_video_widget_8h.html" target="_top" xlink:title="/home/vilon_tao/gaia/sdk/include/gaia/ui/VideoWidget.h">
<polygon fill="white" stroke="black" points="307.5,-116.5 307.5,-137.5 564.5,-137.5 564.5,-116.5 307.5,-116.5"/>
<text text-anchor="middle" x="436" y="-124.5" font-family="Helvetica,sans-Serif" font-size="10.00">/home/vilon_tao/gaia/sdk/include/gaia/ui/VideoWidget.h</text>
</a>
</g>
<!-- Node2&#45;&gt;Node4 -->
<g id="edge6" class="edge"><title>Node2&#45;&gt;Node4</title>
<path fill="none" stroke="midnightblue" d="M326.623,-170.751C352.229,-160.509 386.199,-146.921 409.447,-137.621"/>
<polygon fill="midnightblue" stroke="midnightblue" points="325.243,-167.533 317.258,-174.497 327.843,-174.032 325.243,-167.533"/>
</g>
<!-- Node7&#45;&gt;Node6 -->
<g id="edge18" class="edge"><title>Node7&#45;&gt;Node6</title>
<path fill="none" stroke="midnightblue" d="M3634.52,-183.201C3128,-177.578 1616.91,-159.427 1125,-138 1121.57,-137.85 1118.09,-137.689 1114.59,-137.518"/>
<polygon fill="midnightblue" stroke="midnightblue" points="3634.8,-186.704 3644.84,-183.315 3634.88,-179.704 3634.8,-186.704"/>
</g>
<!-- Node8 -->
<g id="node15" class="node"><title>Node8</title>
<a xlink:href="../../d7/ddb/_app_widget_host_widget_8h.html" target="_top" xlink:title="/home/vilon_tao/gaia/sdk/include/gaia/core/appwidget/AppWidgetHostWidget.h">
<polygon fill="white" stroke="black" points="3442,-116.5 3442,-137.5 3802,-137.5 3802,-116.5 3442,-116.5"/>
<text text-anchor="middle" x="3622" y="-124.5" font-family="Helvetica,sans-Serif" font-size="10.00">/home/vilon_tao/gaia/sdk/include/gaia/core/appwidget/AppWidgetHostWidget.h</text>
</a>
</g>
<!-- Node7&#45;&gt;Node8 -->
<g id="edge14" class="edge"><title>Node7&#45;&gt;Node8</title>
<path fill="none" stroke="midnightblue" d="M3759.83,-171.413C3727.72,-161.065 3684.15,-147.026 3654.66,-137.523"/>
<polygon fill="midnightblue" stroke="midnightblue" points="3758.81,-174.761 3769.4,-174.497 3760.96,-168.098 3758.81,-174.761"/>
</g>
<!-- Node9 -->
<g id="node17" class="node"><title>Node9</title>
<a xlink:href="../../db/d7b/_gesture_controller_8h.html" target="_top" xlink:title="/home/vilon_tao/gaia/sdk/include/gaia/core/gesture/GestureController.h">
<polygon fill="white" stroke="black" points="3819.5,-116.5 3819.5,-137.5 4144.5,-137.5 4144.5,-116.5 3819.5,-116.5"/>
<text text-anchor="middle" x="3982" y="-124.5" font-family="Helvetica,sans-Serif" font-size="10.00">/home/vilon_tao/gaia/sdk/include/gaia/core/gesture/GestureController.h</text>
</a>
</g>
<!-- Node7&#45;&gt;Node9 -->
<g id="edge16" class="edge"><title>Node7&#45;&gt;Node9</title>
<path fill="none" stroke="midnightblue" d="M3844.17,-171.413C3876.28,-161.065 3919.85,-147.026 3949.34,-137.523"/>
<polygon fill="midnightblue" stroke="midnightblue" points="3843.04,-168.098 3834.6,-174.497 3845.19,-174.761 3843.04,-168.098"/>
</g>
<!-- Node10 -->
<g id="node20" class="node"><title>Node10</title>
<a xlink:href="../../d1/d14/_abs_list_widget_8h.html" target="_top" xlink:title="/home/vilon_tao/gaia/sdk/include/gaia/ui/AbsListWidget.h">
<polygon fill="white" stroke="red" points="1134,-116.5 1134,-137.5 1400,-137.5 1400,-116.5 1134,-116.5"/>
<text text-anchor="middle" x="1267" y="-124.5" font-family="Helvetica,sans-Serif" font-size="10.00">/home/vilon_tao/gaia/sdk/include/gaia/ui/AbsListWidget.h</text>
</a>
</g>
<!-- Node7&#45;&gt;Node10 -->
<g id="edge20" class="edge"><title>Node7&#45;&gt;Node10</title>
<path fill="none" stroke="midnightblue" d="M3634.72,-184.02C3248.95,-181.245 2267.14,-171.23 1447,-138 1431.83,-137.385 1415.94,-136.609 1400.16,-135.754"/>
<polygon fill="midnightblue" stroke="midnightblue" points="3634.82,-187.521 3644.84,-184.092 3634.87,-180.521 3634.82,-187.521"/>
</g>
<!-- Node14 -->
<g id="node28" class="node"><title>Node14</title>
<a xlink:href="../../db/df1/_absolute_controller_8h.html" target="_top" xlink:title="/home/vilon_tao/gaia/sdk/include/gaia/ui/AbsoluteController.h">
<polygon fill="white" stroke="red" points="4162,-116.5 4162,-137.5 4444,-137.5 4444,-116.5 4162,-116.5"/>
<text text-anchor="middle" x="4303" y="-124.5" font-family="Helvetica,sans-Serif" font-size="10.00">/home/vilon_tao/gaia/sdk/include/gaia/ui/AbsoluteController.h</text>
</a>
</g>
<!-- Node7&#45;&gt;Node14 -->
<g id="edge28" class="edge"><title>Node7&#45;&gt;Node14</title>
<path fill="none" stroke="midnightblue" d="M3902.72,-173.34C3993.17,-162.868 4124.8,-147.63 4212.1,-137.523"/>
<polygon fill="midnightblue" stroke="midnightblue" points="3902.26,-169.87 3892.73,-174.497 3903.06,-176.823 3902.26,-169.87"/>
</g>
<!-- Node15 -->
<g id="node30" class="node"><title>Node15</title>
<a xlink:href="../../db/d8c/_date_picker_8h.html" target="_top" xlink:title="/home/vilon_tao/gaia/sdk/include/gaia/ui/DatePicker.h">
<polygon fill="white" stroke="black" points="4461.5,-116.5 4461.5,-137.5 4712.5,-137.5 4712.5,-116.5 4461.5,-116.5"/>
<text text-anchor="middle" x="4587" y="-124.5" font-family="Helvetica,sans-Serif" font-size="10.00">/home/vilon_tao/gaia/sdk/include/gaia/ui/DatePicker.h</text>
</a>
</g>
<!-- Node7&#45;&gt;Node15 -->
<g id="edge30" class="edge"><title>Node7&#45;&gt;Node15</title>
<path fill="none" stroke="midnightblue" d="M3963.48,-173.785C4095.23,-164.528 4286.18,-150.869 4453,-138 4455.79,-137.785 4458.62,-137.565 4461.47,-137.343"/>
<polygon fill="midnightblue" stroke="midnightblue" points="3963.03,-170.307 3953.3,-174.499 3963.53,-177.29 3963.03,-170.307"/>
</g>
<!-- Node16 -->
<g id="node32" class="node"><title>Node16</title>
<a xlink:href="../../d6/d61/_footer_8h.html" target="_top" xlink:title="/home/vilon_tao/gaia/sdk/include/gaia/ui/Footer.h">
<polygon fill="white" stroke="black" points="4730,-116.5 4730,-137.5 4960,-137.5 4960,-116.5 4730,-116.5"/>
<text text-anchor="middle" x="4845" y="-124.5" font-family="Helvetica,sans-Serif" font-size="10.00">/home/vilon_tao/gaia/sdk/include/gaia/ui/Footer.h</text>
</a>
</g>
<!-- Node7&#45;&gt;Node16 -->
<g id="edge32" class="edge"><title>Node7&#45;&gt;Node16</title>
<path fill="none" stroke="midnightblue" d="M3969.07,-178.334C4153.32,-170.544 4458.49,-156.35 4721,-138 4723.91,-137.797 4726.86,-137.584 4729.83,-137.364"/>
<polygon fill="midnightblue" stroke="midnightblue" points="3968.87,-174.839 3959.03,-178.757 3969.17,-181.833 3968.87,-174.839"/>
</g>
<!-- Node17 -->
<g id="node34" class="node"><title>Node17</title>
<a xlink:href="../../d1/d40/_frame_controller_8h.html" target="_top" xlink:title="/home/vilon_tao/gaia/sdk/include/gaia/ui/FrameController.h">
<polygon fill="white" stroke="red" points="5866,-116.5 5866,-137.5 6138,-137.5 6138,-116.5 5866,-116.5"/>
<text text-anchor="middle" x="6002" y="-124.5" font-family="Helvetica,sans-Serif" font-size="10.00">/home/vilon_tao/gaia/sdk/include/gaia/ui/FrameController.h</text>
</a>
</g>
<!-- Node7&#45;&gt;Node17 -->
<g id="edge34" class="edge"><title>Node7&#45;&gt;Node17</title>
<path fill="none" stroke="midnightblue" d="M3969.39,-183.178C4315.1,-178.956 5133.05,-166.598 5819,-138 5834.11,-137.37 5849.91,-136.595 5865.62,-135.751"/>
<polygon fill="midnightblue" stroke="midnightblue" points="3969.26,-179.679 3959.3,-183.3 3969.35,-186.679 3969.26,-179.679"/>
</g>
<!-- Node22 -->
<g id="node44" class="node"><title>Node22</title>
<a xlink:href="../../d7/d30/_gallery_8h.html" target="_top" xlink:title="/home/vilon_tao/gaia/sdk/include/gaia/ui/Gallery.h">
<polygon fill="white" stroke="black" points="5015.5,-116.5 5015.5,-137.5 5248.5,-137.5 5248.5,-116.5 5015.5,-116.5"/>
<text text-anchor="middle" x="5132" y="-124.5" font-family="Helvetica,sans-Serif" font-size="10.00">/home/vilon_tao/gaia/sdk/include/gaia/ui/Gallery.h</text>
</a>
</g>
<!-- Node7&#45;&gt;Node22 -->
<g id="edge44" class="edge"><title>Node7&#45;&gt;Node22</title>
<path fill="none" stroke="midnightblue" d="M3969.58,-180.83C4201.65,-174.51 4633.94,-160.768 5002,-138 5006.41,-137.727 5010.9,-137.432 5015.43,-137.12"/>
<polygon fill="midnightblue" stroke="midnightblue" points="3969.26,-177.338 3959.36,-181.107 3969.45,-184.335 3969.26,-177.338"/>
</g>
<!-- Node23 -->
<g id="node46" class="node"><title>Node23</title>
<a xlink:href="../../d5/db2/_grid_controller_8h.html" target="_top" xlink:title="/home/vilon_tao/gaia/sdk/include/gaia/ui/GridController.h">
<polygon fill="white" stroke="red" points="5266,-116.5 5266,-137.5 5528,-137.5 5528,-116.5 5266,-116.5"/>
<text text-anchor="middle" x="5397" y="-124.5" font-family="Helvetica,sans-Serif" font-size="10.00">/home/vilon_tao/gaia/sdk/include/gaia/ui/GridController.h</text>
</a>
</g>
<!-- Node7&#45;&gt;Node23 -->
<g id="edge46" class="edge"><title>Node7&#45;&gt;Node23</title>
<path fill="none" stroke="midnightblue" d="M3969.32,-182.102C4240.06,-176.849 4790.94,-163.823 5257,-138 5259.92,-137.838 5262.88,-137.667 5265.86,-137.489"/>
<polygon fill="midnightblue" stroke="midnightblue" points="3968.94,-178.608 3959.01,-182.301 3969.08,-185.607 3968.94,-178.608"/>
</g>
<!-- Node24 -->
<g id="node48" class="node"><title>Node24</title>
<a xlink:href="../../d7/d74/_linear_controller_8h.html" target="_top" xlink:title="/home/vilon_tao/gaia/sdk/include/gaia/ui/LinearController.h">
<polygon fill="white" stroke="red" points="2310,-116.5 2310,-137.5 2580,-137.5 2580,-116.5 2310,-116.5"/>
<text text-anchor="middle" x="2445" y="-124.5" font-family="Helvetica,sans-Serif" font-size="10.00">/home/vilon_tao/gaia/sdk/include/gaia/ui/LinearController.h</text>
</a>
</g>
<!-- Node7&#45;&gt;Node24 -->
<g id="edge48" class="edge"><title>Node7&#45;&gt;Node24</title>
<path fill="none" stroke="midnightblue" d="M3634.59,-180.499C3400.51,-173.754 2962.17,-159.475 2589,-138 2586.12,-137.834 2583.21,-137.661 2580.28,-137.482"/>
<polygon fill="midnightblue" stroke="midnightblue" points="3634.79,-184.006 3644.89,-180.795 3634.99,-177.009 3634.79,-184.006"/>
</g>
<!-- Node25 -->
<g id="node50" class="node"><title>Node25</title>
<a xlink:href="../../de/d15/_list_item_8h.html" target="_top" xlink:title="/home/vilon_tao/gaia/sdk/include/gaia/ui/ListItem.h">
<polygon fill="white" stroke="black" points="4270.5,-58.5 4270.5,-79.5 4507.5,-79.5 4507.5,-58.5 4270.5,-58.5"/>
<text text-anchor="middle" x="4389" y="-66.5" font-family="Helvetica,sans-Serif" font-size="10.00">/home/vilon_tao/gaia/sdk/include/gaia/ui/ListItem.h</text>
</a>
</g>
<!-- Node7&#45;&gt;Node25 -->
<g id="edge54" class="edge"><title>Node7&#45;&gt;Node25</title>
<path fill="none" stroke="midnightblue" d="M3969.32,-184.297C4283.86,-182.147 4934.98,-173.42 4969,-138 4975.77,-130.948 4975.63,-123.188 4969,-116 4953.58,-99.279 4672.72,-82.8199 4507.58,-74.5322"/>
<polygon fill="midnightblue" stroke="midnightblue" points="3969.17,-180.798 3959.19,-184.365 3969.21,-187.798 3969.17,-180.798"/>
</g>
<!-- Node26 -->
<g id="node54" class="node"><title>Node26</title>
<a xlink:href="../../df/d14/_number_picker_8h.html" target="_top" xlink:title="/home/vilon_tao/gaia/sdk/include/gaia/ui/NumberPicker.h">
<polygon fill="white" stroke="black" points="5546,-116.5 5546,-137.5 5810,-137.5 5810,-116.5 5546,-116.5"/>
<text text-anchor="middle" x="5678" y="-124.5" font-family="Helvetica,sans-Serif" font-size="10.00">/home/vilon_tao/gaia/sdk/include/gaia/ui/NumberPicker.h</text>
</a>
</g>
<!-- Node7&#45;&gt;Node26 -->
<g id="edge56" class="edge"><title>Node7&#45;&gt;Node26</title>
<path fill="none" stroke="midnightblue" d="M3969.51,-183.287C4279.21,-179.493 4962.21,-168.187 5537,-138 5539.94,-137.845 5542.92,-137.681 5545.92,-137.509"/>
<polygon fill="midnightblue" stroke="midnightblue" points="3969.06,-179.793 3959.11,-183.414 3969.15,-186.792 3969.06,-179.793"/>
</g>
<!-- Node27 -->
<g id="node56" class="node"><title>Node27</title>
<a xlink:href="../../d9/d1f/_pager_tab_strip_8h.html" target="_top" xlink:title="/home/vilon_tao/gaia/sdk/include/gaia/ui/PagerTabStrip.h">
<polygon fill="white" stroke="black" points="1456,-116.5 1456,-137.5 1720,-137.5 1720,-116.5 1456,-116.5"/>
<text text-anchor="middle" x="1588" y="-124.5" font-family="Helvetica,sans-Serif" font-size="10.00">/home/vilon_tao/gaia/sdk/include/gaia/ui/PagerTabStrip.h</text>
</a>
</g>
<!-- Node7&#45;&gt;Node27 -->
<g id="edge58" class="edge"><title>Node7&#45;&gt;Node27</title>
<path fill="none" stroke="midnightblue" d="M3634.86,-184.336C3282.37,-182.249 2436.99,-173.615 1729,-138 1725.93,-137.846 1722.83,-137.68 1719.7,-137.505"/>
<polygon fill="midnightblue" stroke="midnightblue" points="3634.86,-187.836 3644.89,-184.395 3634.91,-180.836 3634.86,-187.836"/>
</g>
<!-- Node28 -->
<g id="node58" class="node"><title>Node28</title>
<a xlink:href="../../d8/dc0/_relative_controller_8h.html" target="_top" xlink:title="/home/vilon_tao/gaia/sdk/include/gaia/ui/RelativeController.h">
<polygon fill="white" stroke="red" points="1738,-116.5 1738,-137.5 2018,-137.5 2018,-116.5 1738,-116.5"/>
<text text-anchor="middle" x="1878" y="-124.5" font-family="Helvetica,sans-Serif" font-size="10.00">/home/vilon_tao/gaia/sdk/include/gaia/ui/RelativeController.h</text>
</a>
</g>
<!-- Node7&#45;&gt;Node28 -->
<g id="edge60" class="edge"><title>Node7&#45;&gt;Node28</title>
<path fill="none" stroke="midnightblue" d="M3634.78,-183.203C3319.94,-179.235 2617.68,-167.607 2027,-138 2023.89,-137.844 2020.75,-137.679 2017.58,-137.505"/>
<polygon fill="midnightblue" stroke="midnightblue" points="3634.85,-186.704 3644.9,-183.329 3634.94,-179.705 3634.85,-186.704"/>
</g>
<!-- Node29 -->
<g id="node60" class="node"><title>Node29</title>
<a xlink:href="../../d8/d72/_scroll_widget_8h.html" target="_top" xlink:title="/home/vilon_tao/gaia/sdk/include/gaia/ui/ScrollWidget.h">
<polygon fill="white" stroke="black" points="2035.5,-116.5 2035.5,-137.5 2292.5,-137.5 2292.5,-116.5 2035.5,-116.5"/>
<text text-anchor="middle" x="2164" y="-124.5" font-family="Helvetica,sans-Serif" font-size="10.00">/home/vilon_tao/gaia/sdk/include/gaia/ui/ScrollWidget.h</text>
</a>
</g>
<!-- Node7&#45;&gt;Node29 -->
<g id="edge62" class="edge"><title>Node7&#45;&gt;Node29</title>
<path fill="none" stroke="midnightblue" d="M3634.81,-182.428C3357.48,-177.563 2784.9,-164.986 2301,-138 2298.26,-137.847 2295.49,-137.686 2292.7,-137.517"/>
<polygon fill="midnightblue" stroke="midnightblue" points="3634.89,-185.93 3644.95,-182.604 3635.02,-178.931 3634.89,-185.93"/>
</g>
<!-- Node30 -->
<g id="node62" class="node"><title>Node30</title>
<a xlink:href="../../df/db6/_tab_page_controller_8h.html" target="_top" xlink:title="/home/vilon_tao/gaia/sdk/include/gaia/ui/TabPageController.h">
<polygon fill="white" stroke="black" points="2597.5,-116.5 2597.5,-137.5 2880.5,-137.5 2880.5,-116.5 2597.5,-116.5"/>
<text text-anchor="middle" x="2739" y="-124.5" font-family="Helvetica,sans-Serif" font-size="10.00">/home/vilon_tao/gaia/sdk/include/gaia/ui/TabPageController.h</text>
</a>
</g>
<!-- Node7&#45;&gt;Node30 -->
<g id="edge64" class="edge"><title>Node7&#45;&gt;Node30</title>
<path fill="none" stroke="midnightblue" d="M3634.57,-177.475C3451.41,-168.989 3149.22,-154.237 2889,-138 2886.26,-137.829 2883.5,-137.654 2880.71,-137.475"/>
<polygon fill="midnightblue" stroke="midnightblue" points="3634.67,-180.984 3644.83,-177.95 3635,-173.991 3634.67,-180.984"/>
</g>
<!-- Node31 -->
<g id="node64" class="node"><title>Node31</title>
<a xlink:href="../../d5/d8f/_time_picker_8h.html" target="_top" xlink:title="/home/vilon_tao/gaia/sdk/include/gaia/ui/TimePicker.h">
<polygon fill="white" stroke="black" points="2897.5,-116.5 2897.5,-137.5 3148.5,-137.5 3148.5,-116.5 2897.5,-116.5"/>
<text text-anchor="middle" x="3023" y="-124.5" font-family="Helvetica,sans-Serif" font-size="10.00">/home/vilon_tao/gaia/sdk/include/gaia/ui/TimePicker.h</text>
</a>
</g>
<!-- Node7&#45;&gt;Node31 -->
<g id="edge66" class="edge"><title>Node7&#45;&gt;Node31</title>
<path fill="none" stroke="midnightblue" d="M3642.33,-173.774C3511.79,-164.497 3322.42,-150.816 3157,-138 3154.21,-137.784 3151.38,-137.563 3148.53,-137.34"/>
<polygon fill="midnightblue" stroke="midnightblue" points="3642.19,-177.273 3652.42,-174.49 3642.69,-170.29 3642.19,-177.273"/>
</g>
<!-- Node32 -->
<g id="node66" class="node"><title>Node32</title>
<a xlink:href="../../d4/da9/_widget_pager_8h.html" target="_top" xlink:title="/home/vilon_tao/gaia/sdk/include/gaia/ui/WidgetPager.h">
<polygon fill="white" stroke="black" points="3166,-116.5 3166,-137.5 3424,-137.5 3424,-116.5 3166,-116.5"/>
<text text-anchor="middle" x="3295" y="-124.5" font-family="Helvetica,sans-Serif" font-size="10.00">/home/vilon_tao/gaia/sdk/include/gaia/ui/WidgetPager.h</text>
</a>
</g>
<!-- Node7&#45;&gt;Node32 -->
<g id="edge68" class="edge"><title>Node7&#45;&gt;Node32</title>
<path fill="none" stroke="midnightblue" d="M3700.07,-173.34C3608.54,-162.868 3475.33,-147.63 3386.99,-137.523"/>
<polygon fill="midnightblue" stroke="midnightblue" points="3699.85,-176.837 3710.19,-174.497 3700.65,-169.883 3699.85,-176.837"/>
</g>
<!-- Node10&#45;&gt;Node11 -->
<g id="edge22" class="edge"><title>Node10&#45;&gt;Node11</title>
<path fill="none" stroke="midnightblue" d="M1160.23,-115.403C1063.8,-104.93 923.127,-89.6505 829.885,-79.5231"/>
<polygon fill="midnightblue" stroke="midnightblue" points="1159.98,-118.896 1170.3,-116.497 1160.73,-111.937 1159.98,-118.896"/>
</g>
<!-- Node10&#45;&gt;Node12 -->
<g id="edge24" class="edge"><title>Node10&#45;&gt;Node12</title>
<path fill="none" stroke="midnightblue" d="M1224.6,-113.413C1192.31,-103.065 1148.49,-89.0258 1118.84,-79.5231"/>
<polygon fill="midnightblue" stroke="midnightblue" points="1223.63,-116.778 1234.22,-116.497 1225.77,-110.112 1223.63,-116.778"/>
</g>
<!-- Node10&#45;&gt;Node13 -->
<g id="edge26" class="edge"><title>Node10&#45;&gt;Node13</title>
<path fill="none" stroke="midnightblue" d="M1309.17,-113.413C1341.28,-103.065 1384.85,-89.0258 1414.34,-79.5231"/>
<polygon fill="midnightblue" stroke="midnightblue" points="1308.04,-110.098 1299.6,-116.497 1310.19,-116.761 1308.04,-110.098"/>
</g>
<!-- Node17&#45;&gt;Node18 -->
<g id="edge36" class="edge"><title>Node17&#45;&gt;Node18</title>
<path fill="none" stroke="midnightblue" d="M5947.08,-114.208C5902.37,-103.794 5840.03,-89.2716 5798.18,-79.5231"/>
<polygon fill="midnightblue" stroke="midnightblue" points="5946.37,-117.637 5956.91,-116.497 5947.96,-110.819 5946.37,-117.637"/>
</g>
<!-- Node17&#45;&gt;Node20 -->
<g id="edge40" class="edge"><title>Node17&#45;&gt;Node20</title>
<path fill="none" stroke="midnightblue" d="M6014.48,-107.959C6020.66,-98.522 6027.89,-87.4835 6033.07,-79.5707"/>
<polygon fill="midnightblue" stroke="midnightblue" points="6011.52,-106.079 6008.97,-116.362 6017.38,-109.915 6011.52,-106.079"/>
</g>
<!-- Node19 -->
<g id="node38" class="node"><title>Node19</title>
<a xlink:href="../../d7/d59/_list_item_lite_8h.html" target="_top" xlink:title="/home/vilon_tao/gaia/sdk/include/gaia/ui/ListItemLite.h">
<polygon fill="white" stroke="black" points="4572.5,-0.5 4572.5,-21.5 4825.5,-21.5 4825.5,-0.5 4572.5,-0.5"/>
<text text-anchor="middle" x="4699" y="-8.5" font-family="Helvetica,sans-Serif" font-size="10.00">/home/vilon_tao/gaia/sdk/include/gaia/ui/ListItemLite.h</text>
</a>
</g>
<!-- Node18&#45;&gt;Node19 -->
<g id="edge38" class="edge"><title>Node18&#45;&gt;Node19</title>
<path fill="none" stroke="midnightblue" d="M5609.2,-61.087C5402,-49.6848 5022.74,-28.8152 4825.59,-17.9658"/>
<polygon fill="midnightblue" stroke="midnightblue" points="5609.07,-64.5847 5619.24,-61.6395 5609.45,-57.5953 5609.07,-64.5847"/>
</g>
<!-- Node20&#45;&gt;Node21 -->
<g id="edge42" class="edge"><title>Node20&#45;&gt;Node21</title>
<path fill="none" stroke="midnightblue" d="M6063.27,-52.5407C6077.33,-42.5973 6094.83,-30.2177 6107.06,-21.5707"/>
<polygon fill="midnightblue" stroke="midnightblue" points="6061.18,-49.7298 6055.04,-58.3619 6065.23,-55.4447 6061.18,-49.7298"/>
</g>
<!-- Node24&#45;&gt;Node19 -->
<g id="edge52" class="edge"><title>Node24&#45;&gt;Node19</title>
<path fill="none" stroke="midnightblue" d="M2590.31,-115.929C3348.7,-68.2484 4245.76,-29.6116 4572.29,-16.1324"/>
<polygon fill="midnightblue" stroke="midnightblue" points="2590.04,-112.44 2580.28,-116.561 2590.48,-119.426 2590.04,-112.44"/>
</g>
<!-- Node24&#45;&gt;Node25 -->
<g id="edge50" class="edge"><title>Node24&#45;&gt;Node25</title>
<path fill="none" stroke="midnightblue" d="M2590.25,-115.961C3230.52,-83.4472 3983.87,-73.003 4270.45,-70.041"/>
<polygon fill="midnightblue" stroke="midnightblue" points="2589.7,-112.485 2579.89,-116.49 2590.06,-119.476 2589.7,-112.485"/>
</g>
<!-- Node36 -->
<g id="node74" class="node"><title>Node36</title>
<a xlink:href="../../d3/d8d/_u_r_l_span_8h.html" target="_top" xlink:title="/home/vilon_tao/gaia/sdk/include/gaia/text/style/URLSpan.h">
<polygon fill="white" stroke="black" points="6759,-116.5 6759,-137.5 7037,-137.5 7037,-116.5 6759,-116.5"/>
<text text-anchor="middle" x="6898" y="-124.5" font-family="Helvetica,sans-Serif" font-size="10.00">/home/vilon_tao/gaia/sdk/include/gaia/text/style/URLSpan.h</text>
</a>
</g>
<!-- Node35&#45;&gt;Node36 -->
<g id="edge76" class="edge"><title>Node35&#45;&gt;Node36</title>
<path fill="none" stroke="midnightblue" d="M6898,-164.191C6898,-155.168 6898,-144.994 6898,-137.571"/>
<polygon fill="midnightblue" stroke="midnightblue" points="6894.5,-164.362 6898,-174.362 6901.5,-164.362 6894.5,-164.362"/>
</g>
<!-- Node42 -->
<g id="node86" class="node"><title>Node42</title>
<a xlink:href="../../db/d95/_resource_cursor_list_item_provider_8h.html" target="_top" xlink:title="/home/vilon_tao/gaia/sdk/include/gaia/ui/ResourceCursorListItemProvider.h">
<polygon fill="white" stroke="black" points="8238,-116.5 8238,-137.5 8582,-137.5 8582,-116.5 8238,-116.5"/>
<text text-anchor="middle" x="8410" y="-124.5" font-family="Helvetica,sans-Serif" font-size="10.00">/home/vilon_tao/gaia/sdk/include/gaia/ui/ResourceCursorListItemProvider.h</text>
</a>
</g>
<!-- Node41&#45;&gt;Node42 -->
<g id="edge88" class="edge"><title>Node41&#45;&gt;Node42</title>
<path fill="none" stroke="midnightblue" d="M8377.28,-166.541C8385.19,-156.979 8394.57,-145.647 8401.25,-137.571"/>
<polygon fill="midnightblue" stroke="midnightblue" points="8374.48,-164.426 8370.8,-174.362 8379.88,-168.889 8374.48,-164.426"/>
</g>
<!-- Node43 -->
<g id="node88" class="node"><title>Node43</title>
<a xlink:href="../../db/daf/_simple_cursor_list_item_provider_8h.html" target="_top" xlink:title="/home/vilon_tao/gaia/sdk/include/gaia/ui/SimpleCursorListItemProvider.h">
<polygon fill="white" stroke="black" points="8491,-58.5 8491,-79.5 8823,-79.5 8823,-58.5 8491,-58.5"/>
<text text-anchor="middle" x="8657" y="-66.5" font-family="Helvetica,sans-Serif" font-size="10.00">/home/vilon_tao/gaia/sdk/include/gaia/ui/SimpleCursorListItemProvider.h</text>
</a>
</g>
<!-- Node42&#45;&gt;Node43 -->
<g id="edge90" class="edge"><title>Node42&#45;&gt;Node43</title>
<path fill="none" stroke="midnightblue" d="M8464.48,-114.208C8508.83,-103.794 8570.67,-89.2716 8612.19,-79.5231"/>
<polygon fill="midnightblue" stroke="midnightblue" points="8463.66,-110.803 8454.73,-116.497 8465.27,-117.618 8463.66,-110.803"/>
</g>
<!-- Node45&#45;&gt;Node43 -->
<g id="edge106" class="edge"><title>Node45&#45;&gt;Node43</title>
<path fill="none" stroke="midnightblue" d="M8875.26,-171.836C8844.72,-163.755 8806.56,-152.224 8774,-138 8735.53,-121.197 8694,-94.4018 8672.25,-79.6336"/>
<polygon fill="midnightblue" stroke="midnightblue" points="8874.75,-175.319 8885.3,-174.443 8876.5,-168.543 8874.75,-175.319"/>
</g>
<!-- Node46 -->
<g id="node97" class="node"><title>Node46</title>
<a xlink:href="../../de/d70/_image_button_8h.html" target="_top" xlink:title="/home/vilon_tao/gaia/sdk/include/gaia/ui/ImageButton.h">
<polygon fill="white" stroke="black" points="8782.5,-116.5 8782.5,-137.5 9039.5,-137.5 9039.5,-116.5 8782.5,-116.5"/>
<text text-anchor="middle" x="8911" y="-124.5" font-family="Helvetica,sans-Serif" font-size="10.00">/home/vilon_tao/gaia/sdk/include/gaia/ui/ImageButton.h</text>
</a>
</g>
<!-- Node45&#45;&gt;Node46 -->
<g id="edge102" class="edge"><title>Node45&#45;&gt;Node46</title>
<path fill="none" stroke="midnightblue" d="M8924.03,-164.784C8920.87,-155.617 8917.26,-145.157 8914.65,-137.571"/>
<polygon fill="midnightblue" stroke="midnightblue" points="8920.76,-166.049 8927.33,-174.362 8927.38,-163.767 8920.76,-166.049"/>
</g>
<!-- Node47 -->
<g id="node99" class="node"><title>Node47</title>
<a xlink:href="../../d1/de8/_quick_contact_badge_8h.html" target="_top" xlink:title="/home/vilon_tao/gaia/sdk/include/gaia/ui/QuickContactBadge.h">
<polygon fill="white" stroke="black" points="9057,-116.5 9057,-137.5 9347,-137.5 9347,-116.5 9057,-116.5"/>
<text text-anchor="middle" x="9202" y="-124.5" font-family="Helvetica,sans-Serif" font-size="10.00">/home/vilon_tao/gaia/sdk/include/gaia/ui/QuickContactBadge.h</text>
</a>
</g>
<!-- Node45&#45;&gt;Node47 -->
<g id="edge104" class="edge"><title>Node45&#45;&gt;Node47</title>
<path fill="none" stroke="midnightblue" d="M8990.16,-172.339C9038.86,-161.916 9107.09,-147.313 9152.83,-137.523"/>
<polygon fill="midnightblue" stroke="midnightblue" points="8989.12,-168.981 8980.08,-174.497 8990.59,-175.826 8989.12,-168.981"/>
</g>
<!-- Node49&#45;&gt;Node43 -->
<g id="edge114" class="edge"><title>Node49&#45;&gt;Node43</title>
<path fill="none" stroke="midnightblue" d="M8657,-164.123C8657,-139.298 8657,-98.8235 8657,-79.6792"/>
<polygon fill="midnightblue" stroke="midnightblue" points="8653.5,-164.295 8657,-174.295 8660.5,-164.295 8653.5,-164.295"/>
</g>
</g>
</svg>
