<?xml version="1.0" encoding="UTF-8" standalone="no"?>
<!DOCTYPE svg PUBLIC "-//W3C//DTD SVG 1.1//EN"
 "http://www.w3.org/Graphics/SVG/1.1/DTD/svg11.dtd">
<!-- Generated by graphviz version 2.26.3 (20100126.1600)
 -->
<!-- Title: G Pages: 1 -->
<svg width="633pt" height="262pt"
 viewBox="0.00 0.00 633.00 262.00" xmlns="http://www.w3.org/2000/svg" xmlns:xlink="http://www.w3.org/1999/xlink">
<g id="graph1" class="graph" transform="scale(1 1) rotate(0) translate(4 258)">
<title>G</title>
<polygon fill="white" stroke="white" points="-4,5 -4,-258 630,-258 630,5 -4,5"/>
<!-- Node1 -->
<g id="node1" class="node"><title>Node1</title>
<polygon fill="#bfbfbf" stroke="black" points="-0.5,-232.5 -0.5,-253.5 288.5,-253.5 288.5,-232.5 -0.5,-232.5"/>
<text text-anchor="middle" x="144" y="-240.5" font-family="Helvetica,sans-Serif" font-size="10.00">/home/vilon_tao/gaia/sdk/include/gaia/core/DemandDelegate.h</text>
</g>
<!-- Node2 -->
<g id="node3" class="node"><title>Node2</title>
<polygon fill="white" stroke="#bfbfbf" points="128,-0.5 128,-21.5 196,-21.5 196,-0.5 128,-0.5"/>
<text text-anchor="middle" x="162" y="-8.5" font-family="Helvetica,sans-Serif" font-size="10.00">sys/types.h</text>
</g>
<!-- Node1&#45;&gt;Node2 -->
<g id="edge2" class="edge"><title>Node1&#45;&gt;Node2</title>
<path fill="none" stroke="midnightblue" d="M94.398,-232.481C74.5832,-225.585 53.7226,-214.309 42,-196 36.7277,-187.765 40.8844,-183.714 42,-174 48.0394,-121.412 36.3046,-99.6292 69,-58 81.3507,-42.2745 100.373,-31.3667 118.004,-24.0479"/>
<polygon fill="midnightblue" stroke="midnightblue" points="119.535,-27.2088 127.604,-20.3433 117.015,-20.6781 119.535,-27.2088"/>
</g>
<!-- Node3 -->
<g id="node5" class="node"><title>Node3</title>
<a xlink:href="../../d9/dfd/_delegate_8h.html" target="_top" xlink:title="gaia/core/Delegate.h">
<polygon fill="white" stroke="black" points="50.5,-174.5 50.5,-195.5 157.5,-195.5 157.5,-174.5 50.5,-174.5"/>
<text text-anchor="middle" x="104" y="-182.5" font-family="Helvetica,sans-Serif" font-size="10.00">gaia/core/Delegate.h</text>
</a>
</g>
<!-- Node1&#45;&gt;Node3 -->
<g id="edge4" class="edge"><title>Node1&#45;&gt;Node3</title>
<path fill="none" stroke="midnightblue" d="M136.663,-232.362C131.194,-224.431 123.578,-213.389 117.076,-203.961"/>
<polygon fill="midnightblue" stroke="midnightblue" points="119.849,-201.816 111.29,-195.571 114.086,-205.79 119.849,-201.816"/>
</g>
<!-- Node4 -->
<g id="node7" class="node"><title>Node4</title>
<a xlink:href="../../db/dbd/_export_8h.html" target="_top" xlink:title="gaia/core/Export.h">
<polygon fill="white" stroke="black" points="125,-116.5 125,-137.5 221,-137.5 221,-116.5 125,-116.5"/>
<text text-anchor="middle" x="173" y="-124.5" font-family="Helvetica,sans-Serif" font-size="10.00">gaia/core/Export.h</text>
</a>
</g>
<!-- Node1&#45;&gt;Node4 -->
<g id="edge16" class="edge"><title>Node1&#45;&gt;Node4</title>
<path fill="none" stroke="midnightblue" d="M150.342,-232.199C155.468,-222.924 162.403,-209.026 166,-196 170.307,-180.404 172.021,-162.17 172.678,-148.364"/>
<polygon fill="midnightblue" stroke="midnightblue" points="176.189,-148.072 173.014,-137.964 169.193,-147.845 176.189,-148.072"/>
</g>
<!-- Node7 -->
<g id="node16" class="node"><title>Node7</title>
<a xlink:href="../../db/db5/_string_8h.html" target="_top" xlink:title="gaia/base/String.h">
<polygon fill="white" stroke="black" points="325.5,-116.5 325.5,-137.5 420.5,-137.5 420.5,-116.5 325.5,-116.5"/>
<text text-anchor="middle" x="373" y="-124.5" font-family="Helvetica,sans-Serif" font-size="10.00">gaia/base/String.h</text>
</a>
</g>
<!-- Node1&#45;&gt;Node7 -->
<g id="edge18" class="edge"><title>Node1&#45;&gt;Node7</title>
<path fill="none" stroke="midnightblue" d="M165.133,-232.295C206.051,-211.568 296.188,-165.909 343.181,-142.105"/>
<polygon fill="midnightblue" stroke="midnightblue" points="344.909,-145.153 352.249,-137.512 341.746,-138.908 344.909,-145.153"/>
</g>
<!-- Node3&#45;&gt;Node2 -->
<g id="edge14" class="edge"><title>Node3&#45;&gt;Node2</title>
<path fill="none" stroke="midnightblue" d="M97.4323,-174.317C84.2636,-151.391 57.7251,-96.4417 80,-58 88.5159,-43.3034 103.552,-32.8074 118.444,-25.5179"/>
<polygon fill="midnightblue" stroke="midnightblue" points="119.952,-28.6774 127.637,-21.3846 117.081,-22.2929 119.952,-28.6774"/>
</g>
<!-- Node3&#45;&gt;Node4 -->
<g id="edge6" class="edge"><title>Node3&#45;&gt;Node4</title>
<path fill="none" stroke="midnightblue" d="M116.656,-174.362C126.674,-165.941 140.867,-154.011 152.501,-144.231"/>
<polygon fill="midnightblue" stroke="midnightblue" points="155.022,-146.684 160.425,-137.571 150.518,-141.326 155.022,-146.684"/>
</g>
<!-- Node5 -->
<g id="node9" class="node"><title>Node5</title>
<a xlink:href="../../de/d8c/_component_loader_8h.html" target="_top" xlink:title="gaia/core/ComponentLoader.h">
<polygon fill="white" stroke="black" points="88.5,-58.5 88.5,-79.5 235.5,-79.5 235.5,-58.5 88.5,-58.5"/>
<text text-anchor="middle" x="162" y="-66.5" font-family="Helvetica,sans-Serif" font-size="10.00">gaia/core/ComponentLoader.h</text>
</a>
</g>
<!-- Node4&#45;&gt;Node5 -->
<g id="edge8" class="edge"><title>Node4&#45;&gt;Node5</title>
<path fill="none" stroke="midnightblue" d="M170.982,-116.362C169.556,-108.84 167.598,-98.5187 165.875,-89.4308"/>
<polygon fill="midnightblue" stroke="midnightblue" points="169.307,-88.7433 164.005,-79.5707 162.429,-90.0477 169.307,-88.7433"/>
</g>
<!-- Node6 -->
<g id="node12" class="node"><title>Node6</title>
<polygon fill="white" stroke="#bfbfbf" points="252.5,-58.5 252.5,-79.5 303.5,-79.5 303.5,-58.5 252.5,-58.5"/>
<text text-anchor="middle" x="278" y="-66.5" font-family="Helvetica,sans-Serif" font-size="10.00">typeinfo</text>
</g>
<!-- Node4&#45;&gt;Node6 -->
<g id="edge12" class="edge"><title>Node4&#45;&gt;Node6</title>
<path fill="none" stroke="midnightblue" d="M192.259,-116.362C208.466,-107.409 231.853,-94.4908 250.109,-84.4064"/>
<polygon fill="midnightblue" stroke="midnightblue" points="251.802,-87.4696 258.863,-79.5707 248.418,-81.3422 251.802,-87.4696"/>
</g>
<!-- Node5&#45;&gt;Node2 -->
<g id="edge10" class="edge"><title>Node5&#45;&gt;Node2</title>
<path fill="none" stroke="midnightblue" d="M162,-58.3619C162,-50.9219 162,-40.7427 162,-31.7276"/>
<polygon fill="midnightblue" stroke="midnightblue" points="165.5,-31.5706 162,-21.5707 158.5,-31.5707 165.5,-31.5706"/>
</g>
<!-- Node7&#45;&gt;Node2 -->
<g id="edge28" class="edge"><title>Node7&#45;&gt;Node2</title>
<path fill="none" stroke="midnightblue" d="M366.282,-116.254C356.269,-101.101 336.014,-73.571 312,-58 279.804,-37.1242 237.725,-25.0018 206.332,-18.3149"/>
<polygon fill="midnightblue" stroke="midnightblue" points="206.62,-14.8024 196.125,-16.2507 205.232,-21.6635 206.62,-14.8024"/>
</g>
<!-- Node8 -->
<g id="node18" class="node"><title>Node8</title>
<a xlink:href="../../d7/d97/_char_sequence_8h.html" target="_top" xlink:title="gaia/base/CharSequence.h">
<polygon fill="white" stroke="black" points="491,-58.5 491,-79.5 625,-79.5 625,-58.5 491,-58.5"/>
<text text-anchor="middle" x="558" y="-66.5" font-family="Helvetica,sans-Serif" font-size="10.00">gaia/base/CharSequence.h</text>
</a>
</g>
<!-- Node7&#45;&gt;Node8 -->
<g id="edge20" class="edge"><title>Node7&#45;&gt;Node8</title>
<path fill="none" stroke="midnightblue" d="M406.502,-116.497C436.793,-107 481.57,-92.9619 514.593,-82.6087"/>
<polygon fill="midnightblue" stroke="midnightblue" points="515.94,-85.8544 524.435,-79.5231 513.846,-79.175 515.94,-85.8544"/>
</g>
<!-- Node10 -->
<g id="node22" class="node"><title>Node10</title>
<a xlink:href="../../d6/d83/_hash_func_8h.html" target="_top" xlink:title="gaia/base/HashFunc.h">
<polygon fill="white" stroke="black" points="358.5,-58.5 358.5,-79.5 473.5,-79.5 473.5,-58.5 358.5,-58.5"/>
<text text-anchor="middle" x="416" y="-66.5" font-family="Helvetica,sans-Serif" font-size="10.00">gaia/base/HashFunc.h</text>
</a>
</g>
<!-- Node7&#45;&gt;Node10 -->
<g id="edge24" class="edge"><title>Node7&#45;&gt;Node10</title>
<path fill="none" stroke="midnightblue" d="M380.887,-116.362C386.827,-108.35 395.122,-97.1605 402.159,-87.6696"/>
<polygon fill="midnightblue" stroke="midnightblue" points="405.019,-89.6883 408.163,-79.5707 399.396,-85.5193 405.019,-89.6883"/>
</g>
<!-- Node9 -->
<g id="node20" class="node"><title>Node9</title>
<polygon fill="white" stroke="#bfbfbf" points="533.5,-0.5 533.5,-21.5 582.5,-21.5 582.5,-0.5 533.5,-0.5"/>
<text text-anchor="middle" x="558" y="-8.5" font-family="Helvetica,sans-Serif" font-size="10.00">stdint.h</text>
</g>
<!-- Node8&#45;&gt;Node9 -->
<g id="edge22" class="edge"><title>Node8&#45;&gt;Node9</title>
<path fill="none" stroke="midnightblue" d="M558,-58.3619C558,-50.9219 558,-40.7427 558,-31.7276"/>
<polygon fill="midnightblue" stroke="midnightblue" points="561.5,-31.5706 558,-21.5707 554.5,-31.5707 561.5,-31.5706"/>
</g>
<!-- Node10&#45;&gt;Node2 -->
<g id="edge26" class="edge"><title>Node10&#45;&gt;Node2</title>
<path fill="none" stroke="midnightblue" d="M370.003,-58.4966C323.484,-47.8744 252.082,-31.5699 206.213,-21.0959"/>
<polygon fill="midnightblue" stroke="midnightblue" points="206.794,-17.6386 196.266,-18.8245 205.236,-24.4629 206.794,-17.6386"/>
</g>
</g>
</svg>
