<?xml version="1.0" encoding="UTF-8" standalone="no"?>
<!DOCTYPE svg PUBLIC "-//W3C//DTD SVG 1.1//EN"
 "http://www.w3.org/Graphics/SVG/1.1/DTD/svg11.dtd">
<!-- Generated by graphviz version 2.26.3 (20100126.1600)
 -->
<!-- Title: G Pages: 1 -->
<svg width="2180pt" height="146pt"
 viewBox="0.00 0.00 2180.00 146.00" xmlns="http://www.w3.org/2000/svg" xmlns:xlink="http://www.w3.org/1999/xlink">
<g id="graph1" class="graph" transform="scale(1 1) rotate(0) translate(4 142)">
<title>G</title>
<polygon fill="white" stroke="white" points="-4,5 -4,-142 2177,-142 2177,5 -4,5"/>
<!-- Node1 -->
<g id="node1" class="node"><title>Node1</title>
<polygon fill="#bfbfbf" stroke="black" points="262.5,-116.5 262.5,-137.5 639.5,-137.5 639.5,-116.5 262.5,-116.5"/>
<text text-anchor="middle" x="451" y="-124.5" font-family="Helvetica,sans-Serif" font-size="10.00">/home/vilon_tao/gaia/sdk/include/gaia/media/videoeditor/MediaArtistNativeHelper.h</text>
</g>
<!-- Node2 -->
<g id="node3" class="node"><title>Node2</title>
<a xlink:href="../../d6/d47/_media_image_item_8h.html" target="_top" xlink:title="/home/vilon_tao/gaia/sdk/include/gaia/media/videoeditor/MediaImageItem.h">
<polygon fill="white" stroke="black" points="0,-0.5 0,-21.5 344,-21.5 344,-0.5 0,-0.5"/>
<text text-anchor="middle" x="172" y="-8.5" font-family="Helvetica,sans-Serif" font-size="10.00">/home/vilon_tao/gaia/sdk/include/gaia/media/videoeditor/MediaImageItem.h</text>
</a>
</g>
<!-- Node1&#45;&gt;Node2 -->
<g id="edge2" class="edge"><title>Node1&#45;&gt;Node2</title>
<path fill="none" stroke="midnightblue" d="M311.812,-115.167C260.168,-108.074 209.609,-97.0071 191,-80 174.491,-64.9118 171.805,-36.9289 171.664,-21.6437"/>
<polygon fill="midnightblue" stroke="midnightblue" points="311.43,-118.647 321.802,-116.489 312.348,-111.707 311.43,-118.647"/>
</g>
<!-- Node3 -->
<g id="node5" class="node"><title>Node3</title>
<a xlink:href="../../de/d50/_media_item_8h.html" target="_top" xlink:title="/home/vilon_tao/gaia/sdk/include/gaia/media/videoeditor/MediaItem.h">
<polygon fill="white" stroke="black" points="199.5,-58.5 199.5,-79.5 516.5,-79.5 516.5,-58.5 199.5,-58.5"/>
<text text-anchor="middle" x="358" y="-66.5" font-family="Helvetica,sans-Serif" font-size="10.00">/home/vilon_tao/gaia/sdk/include/gaia/media/videoeditor/MediaItem.h</text>
</a>
</g>
<!-- Node1&#45;&gt;Node3 -->
<g id="edge4" class="edge"><title>Node1&#45;&gt;Node3</title>
<path fill="none" stroke="midnightblue" d="M425.059,-110.821C409.04,-100.831 388.945,-88.2993 374.949,-79.5707"/>
<polygon fill="midnightblue" stroke="midnightblue" points="423.605,-114.04 433.942,-116.362 427.309,-108.1 423.605,-114.04"/>
</g>
<!-- Node4 -->
<g id="node8" class="node"><title>Node4</title>
<a xlink:href="../../d2/dcf/_media_video_item_8h.html" target="_top" xlink:title="/home/vilon_tao/gaia/sdk/include/gaia/media/videoeditor/MediaVideoItem.h">
<polygon fill="white" stroke="black" points="361.5,-0.5 361.5,-21.5 702.5,-21.5 702.5,-0.5 361.5,-0.5"/>
<text text-anchor="middle" x="532" y="-8.5" font-family="Helvetica,sans-Serif" font-size="10.00">/home/vilon_tao/gaia/sdk/include/gaia/media/videoeditor/MediaVideoItem.h</text>
</a>
</g>
<!-- Node1&#45;&gt;Node4 -->
<g id="edge10" class="edge"><title>Node1&#45;&gt;Node4</title>
<path fill="none" stroke="midnightblue" d="M488.153,-111.949C501.992,-104.432 516.409,-93.9171 525,-80 536.131,-61.9672 535.266,-36.1162 533.638,-21.7204"/>
<polygon fill="midnightblue" stroke="midnightblue" points="486.561,-108.832 479.209,-116.461 489.714,-115.081 486.561,-108.832"/>
</g>
<!-- Node5 -->
<g id="node11" class="node"><title>Node5</title>
<a xlink:href="../../d5/d80/_transition_8h.html" target="_top" xlink:title="/home/vilon_tao/gaia/sdk/include/gaia/media/videoeditor/Transition.h">
<polygon fill="white" stroke="black" points="1098,-58.5 1098,-79.5 1412,-79.5 1412,-58.5 1098,-58.5"/>
<text text-anchor="middle" x="1255" y="-66.5" font-family="Helvetica,sans-Serif" font-size="10.00">/home/vilon_tao/gaia/sdk/include/gaia/media/videoeditor/Transition.h</text>
</a>
</g>
<!-- Node1&#45;&gt;Node5 -->
<g id="edge12" class="edge"><title>Node1&#45;&gt;Node5</title>
<path fill="none" stroke="midnightblue" d="M606.936,-115.751C752.218,-105.27 967.18,-89.7631 1109.13,-79.5231"/>
<polygon fill="midnightblue" stroke="midnightblue" points="606.321,-112.286 596.598,-116.497 606.824,-119.268 606.321,-112.286"/>
</g>
<!-- Node3&#45;&gt;Node2 -->
<g id="edge6" class="edge"><title>Node3&#45;&gt;Node2</title>
<path fill="none" stroke="midnightblue" d="M314.427,-55.4127C281.242,-45.0646 236.221,-31.0258 205.746,-21.5231"/>
<polygon fill="midnightblue" stroke="midnightblue" points="313.728,-58.861 324.317,-58.4966 315.812,-52.1783 313.728,-58.861"/>
</g>
<!-- Node3&#45;&gt;Node4 -->
<g id="edge8" class="edge"><title>Node3&#45;&gt;Node4</title>
<path fill="none" stroke="midnightblue" d="M399.164,-55.2787C430.169,-44.9437 472.045,-30.9849 500.431,-21.5231"/>
<polygon fill="midnightblue" stroke="midnightblue" points="397.89,-52.0139 389.51,-58.4966 400.104,-58.6547 397.89,-52.0139"/>
</g>
<!-- Node6 -->
<g id="node13" class="node"><title>Node6</title>
<a xlink:href="../../de/d7c/_transition_alpha_8h.html" target="_top" xlink:title="/home/vilon_tao/gaia/sdk/include/gaia/media/videoeditor/TransitionAlpha.h">
<polygon fill="white" stroke="black" points="720,-0.5 720,-21.5 1058,-21.5 1058,-0.5 720,-0.5"/>
<text text-anchor="middle" x="889" y="-8.5" font-family="Helvetica,sans-Serif" font-size="10.00">/home/vilon_tao/gaia/sdk/include/gaia/media/videoeditor/TransitionAlpha.h</text>
</a>
</g>
<!-- Node5&#45;&gt;Node6 -->
<g id="edge14" class="edge"><title>Node5&#45;&gt;Node6</title>
<path fill="none" stroke="midnightblue" d="M1178.79,-56.9234C1112.81,-46.4675 1018.34,-31.4969 955.404,-21.5231"/>
<polygon fill="midnightblue" stroke="midnightblue" points="1178.3,-60.3882 1188.72,-58.4966 1179.39,-53.4745 1178.3,-60.3882"/>
</g>
<!-- Node7 -->
<g id="node15" class="node"><title>Node7</title>
<a xlink:href="../../d7/d5d/_transition_crossfade_8h.html" target="_top" xlink:title="/home/vilon_tao/gaia/sdk/include/gaia/media/videoeditor/TransitionCrossfade.h">
<polygon fill="white" stroke="black" points="1075.5,-0.5 1075.5,-21.5 1434.5,-21.5 1434.5,-0.5 1075.5,-0.5"/>
<text text-anchor="middle" x="1255" y="-8.5" font-family="Helvetica,sans-Serif" font-size="10.00">/home/vilon_tao/gaia/sdk/include/gaia/media/videoeditor/TransitionCrossfade.h</text>
</a>
</g>
<!-- Node5&#45;&gt;Node7 -->
<g id="edge16" class="edge"><title>Node5&#45;&gt;Node7</title>
<path fill="none" stroke="midnightblue" d="M1255,-48.1906C1255,-39.1684 1255,-28.9941 1255,-21.5707"/>
<polygon fill="midnightblue" stroke="midnightblue" points="1251.5,-48.3619 1255,-58.3619 1258.5,-48.3619 1251.5,-48.3619"/>
</g>
<!-- Node8 -->
<g id="node17" class="node"><title>Node8</title>
<a xlink:href="../../d0/d68/_transition_fade_black_8h.html" target="_top" xlink:title="/home/vilon_tao/gaia/sdk/include/gaia/media/videoeditor/TransitionFadeBlack.h">
<polygon fill="white" stroke="black" points="1452,-0.5 1452,-21.5 1812,-21.5 1812,-0.5 1452,-0.5"/>
<text text-anchor="middle" x="1632" y="-8.5" font-family="Helvetica,sans-Serif" font-size="10.00">/home/vilon_tao/gaia/sdk/include/gaia/media/videoeditor/TransitionFadeBlack.h</text>
</a>
</g>
<!-- Node5&#45;&gt;Node8 -->
<g id="edge18" class="edge"><title>Node5&#45;&gt;Node8</title>
<path fill="none" stroke="midnightblue" d="M1333.5,-56.9234C1401.46,-46.4675 1498.77,-31.4969 1563.6,-21.5231"/>
<polygon fill="midnightblue" stroke="midnightblue" points="1332.62,-53.5167 1323.27,-58.4966 1333.69,-60.4353 1332.62,-53.5167"/>
</g>
<!-- Node9 -->
<g id="node19" class="node"><title>Node9</title>
<a xlink:href="../../d4/d21/_transition_sliding_8h.html" target="_top" xlink:title="/home/vilon_tao/gaia/sdk/include/gaia/media/videoeditor/TransitionSliding.h">
<polygon fill="white" stroke="black" points="1829.5,-0.5 1829.5,-21.5 2172.5,-21.5 2172.5,-0.5 1829.5,-0.5"/>
<text text-anchor="middle" x="2001" y="-8.5" font-family="Helvetica,sans-Serif" font-size="10.00">/home/vilon_tao/gaia/sdk/include/gaia/media/videoeditor/TransitionSliding.h</text>
</a>
</g>
<!-- Node5&#45;&gt;Node9 -->
<g id="edge20" class="edge"><title>Node5&#45;&gt;Node9</title>
<path fill="none" stroke="midnightblue" d="M1400.09,-57.7194C1534.89,-47.2393 1734.08,-31.7529 1865.65,-21.5231"/>
<polygon fill="midnightblue" stroke="midnightblue" points="1399.79,-54.2319 1390.09,-58.4966 1400.34,-61.2109 1399.79,-54.2319"/>
</g>
</g>
</svg>
