<?xml version="1.0" encoding="UTF-8" standalone="no"?>
<!DOCTYPE svg PUBLIC "-//W3C//DTD SVG 1.1//EN"
 "http://www.w3.org/Graphics/SVG/1.1/DTD/svg11.dtd">
<!-- Generated by graphviz version 2.26.3 (20100126.1600)
 -->
<!-- Title: G Pages: 1 -->
<svg width="364pt" height="88pt"
 viewBox="0.00 0.00 364.00 88.00" xmlns="http://www.w3.org/2000/svg" xmlns:xlink="http://www.w3.org/1999/xlink">
<g id="graph1" class="graph" transform="scale(1 1) rotate(0) translate(4 84)">
<title>G</title>
<polygon fill="white" stroke="white" points="-4,5 -4,-84 361,-84 361,5 -4,5"/>
<!-- Node1 -->
<g id="node1" class="node"><title>Node1</title>
<polygon fill="#bfbfbf" stroke="black" points="90,-58.5 90,-79.5 258,-79.5 258,-58.5 90,-58.5"/>
<text text-anchor="middle" x="174" y="-66.5" font-family="Helvetica,sans-Serif" font-size="10.00">gaia::connectivity::BluetoothProfile</text>
</g>
<!-- Node2 -->
<g id="node3" class="node"><title>Node2</title>
<a xlink:href="../../d9/de0/classgaia_1_1connectivity_1_1_bluetooth_a2dp.html" target="_top" xlink:title="This class provides the public APIs to control the Bluetooth A2DP profile.">
<polygon fill="white" stroke="black" points="-0.5,-0.5 -0.5,-21.5 162.5,-21.5 162.5,-0.5 -0.5,-0.5"/>
<text text-anchor="middle" x="81" y="-8.5" font-family="Helvetica,sans-Serif" font-size="10.00">gaia::connectivity::BluetoothA2dp</text>
</a>
</g>
<!-- Node1&#45;&gt;Node2 -->
<g id="edge2" class="edge"><title>Node1&#45;&gt;Node2</title>
<path fill="none" stroke="midnightblue" d="M148.059,-52.8215C132.04,-42.8312 111.945,-30.2993 97.9495,-21.5707"/>
<polygon fill="midnightblue" stroke="midnightblue" points="146.605,-56.0399 156.942,-58.3619 150.309,-50.1003 146.605,-56.0399"/>
</g>
<!-- Node3 -->
<g id="node5" class="node"><title>Node3</title>
<a xlink:href="../../df/d4e/classgaia_1_1connectivity_1_1_bluetooth_headset.html" target="_top" xlink:title="This class provides the public APIs to control the Bluetooth Headset profile.">
<polygon fill="white" stroke="black" points="179.5,-0.5 179.5,-21.5 356.5,-21.5 356.5,-0.5 179.5,-0.5"/>
<text text-anchor="middle" x="268" y="-8.5" font-family="Helvetica,sans-Serif" font-size="10.00">gaia::connectivity::BluetoothHeadset</text>
</a>
</g>
<!-- Node1&#45;&gt;Node3 -->
<g id="edge4" class="edge"><title>Node1&#45;&gt;Node3</title>
<path fill="none" stroke="midnightblue" d="M199.767,-53.1009C216.031,-43.0658 236.59,-30.3808 250.868,-21.5707"/>
<polygon fill="midnightblue" stroke="midnightblue" points="197.914,-50.1322 191.241,-58.3619 201.589,-56.0894 197.914,-50.1322"/>
</g>
</g>
</svg>
