<?xml version="1.0" encoding="UTF-8" standalone="no"?>
<!DOCTYPE svg PUBLIC "-//W3C//DTD SVG 1.1//EN"
 "http://www.w3.org/Graphics/SVG/1.1/DTD/svg11.dtd">
<!-- Generated by graphviz version 2.26.3 (20100126.1600)
 -->
<!-- Title: G Pages: 1 -->
<svg width="434pt" height="204pt"
 viewBox="0.00 0.00 434.00 204.00" xmlns="http://www.w3.org/2000/svg" xmlns:xlink="http://www.w3.org/1999/xlink">
<g id="graph1" class="graph" transform="scale(1 1) rotate(0) translate(4 200)">
<title>G</title>
<polygon fill="white" stroke="white" points="-4,5 -4,-200 431,-200 431,5 -4,5"/>
<!-- Node1 -->
<g id="node1" class="node"><title>Node1</title>
<polygon fill="#bfbfbf" stroke="black" points="61.5,-174.5 61.5,-195.5 356.5,-195.5 356.5,-174.5 61.5,-174.5"/>
<text text-anchor="middle" x="209" y="-182.5" font-family="Helvetica,sans-Serif" font-size="10.00">/home/vilon_tao/gaia/sdk/include/gaia/storage/StorageListener.h</text>
</g>
<!-- Node2 -->
<g id="node3" class="node"><title>Node2</title>
<a xlink:href="../../d7/d92/_file_directory_8h.html" target="_top" xlink:title="gaia/storage/FileDirectory.h">
<polygon fill="white" stroke="black" points="-0.5,-116.5 -0.5,-137.5 136.5,-137.5 136.5,-116.5 -0.5,-116.5"/>
<text text-anchor="middle" x="68" y="-124.5" font-family="Helvetica,sans-Serif" font-size="10.00">gaia/storage/FileDirectory.h</text>
</a>
</g>
<!-- Node1&#45;&gt;Node2 -->
<g id="edge2" class="edge"><title>Node1&#45;&gt;Node2</title>
<path fill="none" stroke="midnightblue" d="M183.466,-174.497C161.047,-165.275 128.215,-151.769 103.287,-141.515"/>
<polygon fill="midnightblue" stroke="midnightblue" points="104.4,-138.189 93.8206,-137.621 101.737,-144.662 104.4,-138.189"/>
</g>
<!-- Node5 -->
<g id="node9" class="node"><title>Node5</title>
<a xlink:href="../../db/db5/_string_8h.html" target="_top" xlink:title="gaia/base/String.h">
<polygon fill="white" stroke="black" points="161.5,-116.5 161.5,-137.5 256.5,-137.5 256.5,-116.5 161.5,-116.5"/>
<text text-anchor="middle" x="209" y="-124.5" font-family="Helvetica,sans-Serif" font-size="10.00">gaia/base/String.h</text>
</a>
</g>
<!-- Node1&#45;&gt;Node5 -->
<g id="edge8" class="edge"><title>Node1&#45;&gt;Node5</title>
<path fill="none" stroke="midnightblue" d="M209,-174.362C209,-166.922 209,-156.743 209,-147.728"/>
<polygon fill="midnightblue" stroke="midnightblue" points="212.5,-147.571 209,-137.571 205.5,-147.571 212.5,-147.571"/>
</g>
<!-- Node9 -->
<g id="node19" class="node"><title>Node9</title>
<a xlink:href="../../d1/dd0/gmacros_8h.html" target="_top" xlink:title="gaia/base/gmacros.h">
<polygon fill="white" stroke="black" points="273.5,-116.5 273.5,-137.5 380.5,-137.5 380.5,-116.5 273.5,-116.5"/>
<text text-anchor="middle" x="327" y="-124.5" font-family="Helvetica,sans-Serif" font-size="10.00">gaia/base/gmacros.h</text>
</a>
</g>
<!-- Node1&#45;&gt;Node9 -->
<g id="edge20" class="edge"><title>Node1&#45;&gt;Node9</title>
<path fill="none" stroke="midnightblue" d="M230.369,-174.497C248.799,-165.438 275.637,-152.246 296.355,-142.063"/>
<polygon fill="midnightblue" stroke="midnightblue" points="297.961,-145.174 305.391,-137.621 294.873,-138.891 297.961,-145.174"/>
</g>
<!-- Node3 -->
<g id="node5" class="node"><title>Node3</title>
<a xlink:href="../../d4/d98/_context_8h.html" target="_top" xlink:title="gaia/core/Context.h">
<polygon fill="white" stroke="black" points="2,-58.5 2,-79.5 104,-79.5 104,-58.5 2,-58.5"/>
<text text-anchor="middle" x="53" y="-66.5" font-family="Helvetica,sans-Serif" font-size="10.00">gaia/core/Context.h</text>
</a>
</g>
<!-- Node2&#45;&gt;Node3 -->
<g id="edge4" class="edge"><title>Node2&#45;&gt;Node3</title>
<path fill="none" stroke="midnightblue" d="M65.2488,-116.362C63.3035,-108.84 60.6341,-98.5187 58.2838,-89.4308"/>
<polygon fill="midnightblue" stroke="midnightblue" points="61.6262,-88.3758 55.7338,-79.5707 54.8492,-90.1285 61.6262,-88.3758"/>
</g>
<!-- Node4 -->
<g id="node7" class="node"><title>Node4</title>
<polygon fill="white" stroke="#bfbfbf" points="98,-0.5 98,-21.5 166,-21.5 166,-0.5 98,-0.5"/>
<text text-anchor="middle" x="132" y="-8.5" font-family="Helvetica,sans-Serif" font-size="10.00">sys/types.h</text>
</g>
<!-- Node3&#45;&gt;Node4 -->
<g id="edge6" class="edge"><title>Node3&#45;&gt;Node4</title>
<path fill="none" stroke="midnightblue" d="M67.4898,-58.3619C79.1827,-49.7773 95.8427,-37.5459 109.303,-27.6636"/>
<polygon fill="midnightblue" stroke="midnightblue" points="111.613,-30.31 117.602,-21.5707 107.47,-24.6675 111.613,-30.31"/>
</g>
<!-- Node5&#45;&gt;Node4 -->
<g id="edge18" class="edge"><title>Node5&#45;&gt;Node4</title>
<path fill="none" stroke="midnightblue" d="M190.459,-116.326C177.582,-107.998 161.003,-95.2934 151,-80 141.461,-65.4165 136.671,-46.1024 134.29,-31.6182"/>
<polygon fill="midnightblue" stroke="midnightblue" points="137.747,-31.063 132.9,-21.6418 130.814,-32.0292 137.747,-31.063"/>
</g>
<!-- Node6 -->
<g id="node11" class="node"><title>Node6</title>
<a xlink:href="../../d7/d97/_char_sequence_8h.html" target="_top" xlink:title="gaia/base/CharSequence.h">
<polygon fill="white" stroke="black" points="292,-58.5 292,-79.5 426,-79.5 426,-58.5 292,-58.5"/>
<text text-anchor="middle" x="359" y="-66.5" font-family="Helvetica,sans-Serif" font-size="10.00">gaia/base/CharSequence.h</text>
</a>
</g>
<!-- Node5&#45;&gt;Node6 -->
<g id="edge10" class="edge"><title>Node5&#45;&gt;Node6</title>
<path fill="none" stroke="midnightblue" d="M236.164,-116.497C260.3,-107.164 295.781,-93.4447 322.412,-83.1475"/>
<polygon fill="midnightblue" stroke="midnightblue" points="323.72,-86.394 331.785,-79.5231 321.196,-79.8651 323.72,-86.394"/>
</g>
<!-- Node8 -->
<g id="node15" class="node"><title>Node8</title>
<a xlink:href="../../d6/d83/_hash_func_8h.html" target="_top" xlink:title="gaia/base/HashFunc.h">
<polygon fill="white" stroke="black" points="159.5,-58.5 159.5,-79.5 274.5,-79.5 274.5,-58.5 159.5,-58.5"/>
<text text-anchor="middle" x="217" y="-66.5" font-family="Helvetica,sans-Serif" font-size="10.00">gaia/base/HashFunc.h</text>
</a>
</g>
<!-- Node5&#45;&gt;Node8 -->
<g id="edge14" class="edge"><title>Node5&#45;&gt;Node8</title>
<path fill="none" stroke="midnightblue" d="M210.467,-116.362C211.494,-108.922 212.898,-98.7427 214.141,-89.7276"/>
<polygon fill="midnightblue" stroke="midnightblue" points="217.643,-89.9551 215.542,-79.5707 210.708,-88.9986 217.643,-89.9551"/>
</g>
<!-- Node7 -->
<g id="node13" class="node"><title>Node7</title>
<polygon fill="white" stroke="#bfbfbf" points="334.5,-0.5 334.5,-21.5 383.5,-21.5 383.5,-0.5 334.5,-0.5"/>
<text text-anchor="middle" x="359" y="-8.5" font-family="Helvetica,sans-Serif" font-size="10.00">stdint.h</text>
</g>
<!-- Node6&#45;&gt;Node7 -->
<g id="edge12" class="edge"><title>Node6&#45;&gt;Node7</title>
<path fill="none" stroke="midnightblue" d="M359,-58.3619C359,-50.9219 359,-40.7427 359,-31.7276"/>
<polygon fill="midnightblue" stroke="midnightblue" points="362.5,-31.5706 359,-21.5707 355.5,-31.5707 362.5,-31.5706"/>
</g>
<!-- Node8&#45;&gt;Node4 -->
<g id="edge16" class="edge"><title>Node8&#45;&gt;Node4</title>
<path fill="none" stroke="midnightblue" d="M201.41,-58.3619C188.709,-49.6955 170.562,-37.3126 156.008,-27.3819"/>
<polygon fill="midnightblue" stroke="midnightblue" points="157.724,-24.316 147.491,-21.5707 153.779,-30.0982 157.724,-24.316"/>
</g>
</g>
</svg>
