<?xml version="1.0" encoding="UTF-8" standalone="no"?>
<!DOCTYPE svg PUBLIC "-//W3C//DTD SVG 1.1//EN"
 "http://www.w3.org/Graphics/SVG/1.1/DTD/svg11.dtd">
<!-- Generated by graphviz version 2.26.3 (20100126.1600)
 -->
<!-- Title: G Pages: 1 -->
<svg width="1122pt" height="311pt"
 viewBox="0.00 0.00 1122.00 311.00" xmlns="http://www.w3.org/2000/svg" xmlns:xlink="http://www.w3.org/1999/xlink">
<g id="graph1" class="graph" transform="scale(1 1) rotate(0) translate(4 307)">
<title>G</title>
<polygon fill="white" stroke="white" points="-4,5 -4,-307 1119,-307 1119,5 -4,5"/>
<!-- Node1 -->
<g id="node1" class="node"><title>Node1</title>
<polygon fill="#bfbfbf" stroke="black" points="1020,-264.5 1020,-285.5 1112,-285.5 1112,-264.5 1020,-264.5"/>
<text text-anchor="middle" x="1066" y="-272.5" font-family="Helvetica,sans-Serif" font-size="10.00">gaia::ui::AlertBox</text>
</g>
<!-- Node2 -->
<g id="node2" class="node"><title>Node2</title>
<a xlink:href="../../d7/dd4/classgaia_1_1ui_1_1_dialog_box.html" target="_top" xlink:title="Base class for showing dialog on screen.">
<polygon fill="white" stroke="black" points="772.5,-281.5 772.5,-302.5 871.5,-302.5 871.5,-281.5 772.5,-281.5"/>
<text text-anchor="middle" x="822" y="-289.5" font-family="Helvetica,sans-Serif" font-size="10.00">gaia::ui::DialogBox</text>
</a>
</g>
<!-- Node2&#45;&gt;Node1 -->
<g id="edge2" class="edge"><title>Node2&#45;&gt;Node1</title>
<path fill="none" stroke="midnightblue" d="M881.888,-287.827C924.394,-284.866 980.618,-280.949 1019.7,-278.226"/>
<polygon fill="midnightblue" stroke="midnightblue" points="881.404,-284.353 871.671,-288.539 881.89,-291.336 881.404,-284.353"/>
</g>
<!-- Node3 -->
<g id="node4" class="node"><title>Node3</title>
<a xlink:href="../../d6/d8d/classgaia_1_1ui_1_1_frame_controller.html" target="_top" xlink:title="FrameController is designed to block out an area on the screen to display a single item...">
<polygon fill="white" stroke="black" points="760,-241.5 760,-262.5 884,-262.5 884,-241.5 760,-241.5"/>
<text text-anchor="middle" x="822" y="-249.5" font-family="Helvetica,sans-Serif" font-size="10.00">gaia::ui::FrameController</text>
</a>
</g>
<!-- Node3&#45;&gt;Node1 -->
<g id="edge4" class="edge"><title>Node3&#45;&gt;Node1</title>
<path fill="none" stroke="#9a32cd" stroke-dasharray="5,2" d="M894.629,-254.545C926.968,-256.178 965.47,-258.809 1000,-263 1006.47,-263.786 1013.27,-264.802 1019.95,-265.91"/>
<polygon fill="#9a32cd" stroke="#9a32cd" points="894.516,-251.035 884.359,-254.049 894.178,-258.027 894.516,-251.035"/>
<text text-anchor="middle" x="958" y="-267" font-family="Helvetica,sans-Serif" font-size="10.00"> mpswallowcontain</text>
</g>
<!-- Node4 -->
<g id="node6" class="node"><title>Node4</title>
<a xlink:href="../../db/d6c/classgaia_1_1core_1_1_widget_controller.html" target="_top" xlink:title="Define the default widget layout to put sets of layout in it.">
<polygon fill="white" stroke="black" points="475,-148.5 475,-169.5 613,-169.5 613,-148.5 475,-148.5"/>
<text text-anchor="middle" x="544" y="-156.5" font-family="Helvetica,sans-Serif" font-size="10.00">gaia::core::WidgetController</text>
</a>
</g>
<!-- Node4&#45;&gt;Node3 -->
<g id="edge6" class="edge"><title>Node4&#45;&gt;Node3</title>
<path fill="none" stroke="midnightblue" d="M580.23,-173.204C620.402,-188.691 687.293,-213.708 746,-232 756.681,-235.328 768.318,-238.576 779.201,-241.454"/>
<polygon fill="midnightblue" stroke="midnightblue" points="581.447,-169.922 570.858,-169.576 578.92,-176.45 581.447,-169.922"/>
</g>
<!-- Node7 -->
<g id="node12" class="node"><title>Node7</title>
<a xlink:href="../../d5/dfb/classgaia_1_1core_1_1_scene.html" target="_top" xlink:title="A Scene is used to build a visual interface.">
<polygon fill="white" stroke="black" points="775.5,-67.5 775.5,-88.5 868.5,-88.5 868.5,-67.5 775.5,-67.5"/>
<text text-anchor="middle" x="822" y="-75.5" font-family="Helvetica,sans-Serif" font-size="10.00">gaia::core::Scene</text>
</a>
</g>
<!-- Node4&#45;&gt;Node7 -->
<g id="edge14" class="edge"><title>Node4&#45;&gt;Node7</title>
<path fill="none" stroke="#9a32cd" stroke-dasharray="5,2" d="M575.807,-144.094C599.657,-133.392 633.332,-119.277 664,-110 700.834,-98.8576 743.681,-90.453 775.456,-85.0596"/>
<polygon fill="#9a32cd" stroke="#9a32cd" points="574.2,-140.98 566.542,-148.302 577.095,-147.353 574.2,-140.98"/>
<text text-anchor="middle" x="696" y="-114" font-family="Helvetica,sans-Serif" font-size="10.00"> mpController</text>
</g>
<!-- Node5 -->
<g id="node8" class="node"><title>Node5</title>
<a xlink:href="../../d8/dac/classgaia_1_1core_1_1_widget.html" target="_top" xlink:title="The Widget class is the base class of all user interface component.">
<polygon fill="white" stroke="black" points="1018,-149.5 1018,-170.5 1114,-170.5 1114,-149.5 1018,-149.5"/>
<text text-anchor="middle" x="1066" y="-157.5" font-family="Helvetica,sans-Serif" font-size="10.00">gaia::core::Widget</text>
</a>
</g>
<!-- Node5&#45;&gt;Node4 -->
<g id="edge8" class="edge"><title>Node5&#45;&gt;Node4</title>
<path fill="none" stroke="midnightblue" d="M1007.51,-159.888C910.473,-159.702 716.646,-159.331 613.048,-159.132"/>
<polygon fill="midnightblue" stroke="midnightblue" points="1007.72,-163.388 1017.72,-159.908 1007.73,-156.388 1007.72,-163.388"/>
</g>
<!-- Node6 -->
<g id="node10" class="node"><title>Node6</title>
<a xlink:href="../../d0/db2/classgaia_1_1core_1_1_property_animatable.html" target="_top" xlink:title="Any animation object need to implement PropertyAnimatable because of setting value.">
<polygon fill="white" stroke="black" points="746.5,-123.5 746.5,-144.5 897.5,-144.5 897.5,-123.5 746.5,-123.5"/>
<text text-anchor="middle" x="822" y="-131.5" font-family="Helvetica,sans-Serif" font-size="10.00">gaia::core::PropertyAnimatable</text>
</a>
</g>
<!-- Node6&#45;&gt;Node5 -->
<g id="edge10" class="edge"><title>Node6&#45;&gt;Node5</title>
<path fill="none" stroke="midnightblue" d="M907.79,-143.142C944.658,-147.07 986.378,-151.516 1017.72,-154.855"/>
<polygon fill="midnightblue" stroke="midnightblue" points="907.847,-139.628 897.532,-142.049 907.105,-146.588 907.847,-139.628"/>
</g>
<!-- Node7&#45;&gt;Node4 -->
<g id="edge34" class="edge"><title>Node7&#45;&gt;Node4</title>
<path fill="none" stroke="#9a32cd" stroke-dasharray="5,2" d="M789.918,-93.0118C776.338,-99.4139 760.366,-107.007 746,-114 737.958,-117.915 736.466,-120.115 728,-123 691.028,-135.599 648.287,-144.297 613.31,-149.982"/>
<polygon fill="#9a32cd" stroke="#9a32cd" points="791.767,-96.0099 799.326,-88.5862 788.788,-89.6757 791.767,-96.0099"/>
<text text-anchor="middle" x="696" y="-143" font-family="Helvetica,sans-Serif" font-size="10.00"> mpScene</text>
</g>
<!-- Node7&#45;&gt;Node5 -->
<g id="edge12" class="edge"><title>Node7&#45;&gt;Node5</title>
<path fill="none" stroke="#9a32cd" stroke-dasharray="5,2" d="M878.68,-90.607C914.106,-99.2173 960.367,-111.804 1000,-127 1016.51,-133.329 1034.4,-142.424 1047.38,-149.464"/>
<polygon fill="#9a32cd" stroke="#9a32cd" points="879.063,-87.0997 868.523,-88.1747 877.433,-93.9073 879.063,-87.0997"/>
<text text-anchor="middle" x="958" y="-131" font-family="Helvetica,sans-Serif" font-size="10.00"> mpScene</text>
</g>
<!-- Node12 -->
<g id="node24" class="node"><title>Node12</title>
<a xlink:href="../../db/d3f/classgaia_1_1core_1_1_page.html" target="_top" xlink:title="An page is a single, focused thing that the user can do.">
<polygon fill="white" stroke="black" points="1022,-49.5 1022,-70.5 1110,-70.5 1110,-49.5 1022,-49.5"/>
<text text-anchor="middle" x="1066" y="-57.5" font-family="Helvetica,sans-Serif" font-size="10.00">gaia::core::Page</text>
</a>
</g>
<!-- Node7&#45;&gt;Node12 -->
<g id="edge28" class="edge"><title>Node7&#45;&gt;Node12</title>
<path fill="none" stroke="#9a32cd" stroke-dasharray="5,2" d="M878.924,-73.8007C922.529,-70.5839 981.814,-66.2104 1021.87,-63.2558"/>
<polygon fill="#9a32cd" stroke="#9a32cd" points="878.472,-70.3244 868.757,-74.5507 878.987,-77.3054 878.472,-70.3244"/>
<text text-anchor="middle" x="958" y="-75" font-family="Helvetica,sans-Serif" font-size="10.00"> mpScene</text>
</g>
<!-- Node8 -->
<g id="node15" class="node"><title>Node8</title>
<a xlink:href="../../de/dad/classgaia_1_1content_1_1_resources.html" target="_top" xlink:title="Class for accessing an application&#39;s resources.">
<polygon fill="white" stroke="black" points="481,-62.5 481,-83.5 607,-83.5 607,-62.5 481,-62.5"/>
<text text-anchor="middle" x="544" y="-70.5" font-family="Helvetica,sans-Serif" font-size="10.00">gaia::content::Resources</text>
</a>
</g>
<!-- Node8&#45;&gt;Node7 -->
<g id="edge16" class="edge"><title>Node8&#45;&gt;Node7</title>
<path fill="none" stroke="#9a32cd" stroke-dasharray="5,2" d="M617.263,-72.7754C650.99,-72.832 691.533,-73.1253 728,-74 743.35,-74.3682 760.101,-75.0053 775.154,-75.6642"/>
<polygon fill="#9a32cd" stroke="#9a32cd" points="617.03,-69.2753 607.026,-72.765 617.023,-76.2752 617.03,-69.2753"/>
<text text-anchor="middle" x="696" y="-78" font-family="Helvetica,sans-Serif" font-size="10.00"> mpResources</text>
</g>
<!-- Node9 -->
<g id="node17" class="node"><title>Node9</title>
<a xlink:href="../../df/d5d/classgaia_1_1base_1_1_vector.html" target="_top" xlink:title="gaia::base::Vector\&lt; gaia::ui::DialogBox * \&gt;">
<polygon fill="white" stroke="black" points="442.5,-22.5 442.5,-43.5 645.5,-43.5 645.5,-22.5 442.5,-22.5"/>
<text text-anchor="middle" x="544" y="-30.5" font-family="Helvetica,sans-Serif" font-size="10.00">gaia::base::Vector&lt; gaia::ui::DialogBox * &gt;</text>
</a>
</g>
<!-- Node9&#45;&gt;Node7 -->
<g id="edge18" class="edge"><title>Node9&#45;&gt;Node7</title>
<path fill="none" stroke="#9a32cd" stroke-dasharray="5,2" d="M647.385,-44.8223C673.744,-48.2922 701.979,-52.406 728,-57 744.632,-59.9363 762.772,-63.8245 778.641,-67.4563"/>
<polygon fill="#9a32cd" stroke="#9a32cd" points="647.75,-41.3404 637.382,-43.5243 646.849,-48.2822 647.75,-41.3404"/>
<text text-anchor="middle" x="696" y="-61" font-family="Helvetica,sans-Serif" font-size="10.00"> mDialogList</text>
</g>
<!-- Node10 -->
<g id="node19" class="node"><title>Node10</title>
<a xlink:href="../../d0/d21/classgaia_1_1base_1_1_vector_impl.html" target="_top" xlink:title="Implements vector data structure equipped with copy&#45;on&#45;write mechanism.">
<polygon fill="white" stroke="black" points="0.5,-23.5 0.5,-44.5 115.5,-44.5 115.5,-23.5 0.5,-23.5"/>
<text text-anchor="middle" x="58" y="-31.5" font-family="Helvetica,sans-Serif" font-size="10.00">gaia::base::VectorImpl</text>
</a>
</g>
<!-- Node10&#45;&gt;Node9 -->
<g id="edge20" class="edge"><title>Node10&#45;&gt;Node9</title>
<path fill="none" stroke="#8b1a1a" d="M125.792,-35.874C128.564,-35.9221 131.309,-35.9646 134,-36 262.878,-37.6955 295.121,-37.6107 424,-36 429.939,-35.9258 436.043,-35.8309 442.201,-35.7209"/>
<polygon fill="#8b1a1a" stroke="#8b1a1a" points="125.743,-32.3725 115.677,-35.6771 125.607,-39.3711 125.743,-32.3725"/>
</g>
<!-- Node11 -->
<g id="node21" class="node"><title>Node11</title>
<a xlink:href="../../df/d5d/classgaia_1_1base_1_1_vector.html" target="_top" xlink:title="This class implements the vector data structure.">
<polygon fill="white" stroke="black" points="154,-0.5 154,-21.5 294,-21.5 294,-0.5 154,-0.5"/>
<text text-anchor="middle" x="224" y="-8.5" font-family="Helvetica,sans-Serif" font-size="10.00">gaia::base::Vector&lt; TYPE &gt;</text>
</a>
</g>
<!-- Node10&#45;&gt;Node11 -->
<g id="edge24" class="edge"><title>Node10&#45;&gt;Node11</title>
<path fill="none" stroke="#8b1a1a" d="M125.596,-24.6344C134.933,-23.3406 144.54,-22.0096 153.921,-20.7098"/>
<polygon fill="#8b1a1a" stroke="#8b1a1a" points="125.018,-21.1809 115.593,-26.0203 125.979,-28.1146 125.018,-21.1809"/>
</g>
<!-- Node11&#45;&gt;Node9 -->
<g id="edge22" class="edge"><title>Node11&#45;&gt;Node9</title>
<path fill="none" stroke="orange" stroke-dasharray="5,2" d="M304.465,-15.4009C340.966,-17.5071 384.675,-20.1821 424,-23 429.943,-23.4258 436.05,-23.8808 442.211,-24.3531"/>
<polygon fill="orange" stroke="orange" points="304.555,-11.9003 294.371,-14.8222 304.154,-18.8889 304.555,-11.9003"/>
<text text-anchor="middle" x="368" y="-27" font-family="Helvetica,sans-Serif" font-size="10.00"> &lt; gaia::ui::DialogBox * &gt;</text>
</g>
<!-- Node12&#45;&gt;Node7 -->
<g id="edge26" class="edge"><title>Node12&#45;&gt;Node7</title>
<path fill="none" stroke="#9a32cd" stroke-dasharray="5,2" d="M1021.99,-47.0305C1014.7,-45.3564 1007.18,-43.9102 1000,-43 962.963,-38.3067 952.742,-36.3817 916,-43 890.293,-47.6306 862.439,-58.851 843.78,-67.349"/>
<polygon fill="#9a32cd" stroke="#9a32cd" points="1021.18,-50.4352 1031.72,-49.4256 1022.85,-43.6378 1021.18,-50.4352"/>
<text text-anchor="middle" x="958" y="-47" font-family="Helvetica,sans-Serif" font-size="10.00"> mpPage</text>
</g>
<!-- Node13 -->
<g id="node27" class="node"><title>Node13</title>
<a xlink:href="../../db/d88/classgaia_1_1core_1_1_widget_tag.html" target="_top" xlink:title="gaia::core::WidgetTag">
<polygon fill="white" stroke="black" points="765.5,-201.5 765.5,-222.5 878.5,-222.5 878.5,-201.5 765.5,-201.5"/>
<text text-anchor="middle" x="822" y="-209.5" font-family="Helvetica,sans-Serif" font-size="10.00">gaia::core::WidgetTag</text>
</a>
</g>
<!-- Node13&#45;&gt;Node5 -->
<g id="edge30" class="edge"><title>Node13&#45;&gt;Node5</title>
<path fill="none" stroke="#9a32cd" stroke-dasharray="5,2" d="M889.042,-206.566C922.737,-202.835 963.962,-196.739 1000,-187 1015.18,-182.898 1031.54,-176.221 1044.18,-170.534"/>
<polygon fill="#9a32cd" stroke="#9a32cd" points="888.415,-203.113 878.84,-207.649 889.154,-210.074 888.415,-203.113"/>
<text text-anchor="middle" x="958" y="-206" font-family="Helvetica,sans-Serif" font-size="10.00"> mpTag</text>
</g>
<!-- Node14 -->
<g id="node29" class="node"><title>Node14</title>
<a xlink:href="../../dd/de0/classgaia_1_1core_1_1_event_control.html" target="_top" xlink:title="EventControl is used to dispatch event and register listener.">
<polygon fill="white" stroke="black" points="163,-148.5 163,-169.5 285,-169.5 285,-148.5 163,-148.5"/>
<text text-anchor="middle" x="224" y="-156.5" font-family="Helvetica,sans-Serif" font-size="10.00">gaia::core::EventControl</text>
</a>
</g>
<!-- Node14&#45;&gt;Node4 -->
<g id="edge32" class="edge"><title>Node14&#45;&gt;Node4</title>
<path fill="none" stroke="midnightblue" d="M295.422,-159C348.968,-159 421.839,-159 474.831,-159"/>
<polygon fill="midnightblue" stroke="midnightblue" points="295.321,-155.5 285.321,-159 295.321,-162.5 295.321,-155.5"/>
</g>
</g>
</svg>
