<?xml version="1.0" encoding="UTF-8" standalone="no"?>
<!DOCTYPE svg PUBLIC "-//W3C//DTD SVG 1.1//EN"
 "http://www.w3.org/Graphics/SVG/1.1/DTD/svg11.dtd">
<!-- Generated by graphviz version 2.26.3 (20100126.1600)
 -->
<!-- Title: G Pages: 1 -->
<svg width="910pt" height="262pt"
 viewBox="0.00 0.00 910.00 262.00" xmlns="http://www.w3.org/2000/svg" xmlns:xlink="http://www.w3.org/1999/xlink">
<g id="graph1" class="graph" transform="scale(1 1) rotate(0) translate(4 258)">
<title>G</title>
<polygon fill="white" stroke="white" points="-4,5 -4,-258 907,-258 907,5 -4,5"/>
<!-- Node1 -->
<g id="node1" class="node"><title>Node1</title>
<polygon fill="#bfbfbf" stroke="black" points="21.5,-232.5 21.5,-253.5 304.5,-253.5 304.5,-232.5 21.5,-232.5"/>
<text text-anchor="middle" x="163" y="-240.5" font-family="Helvetica,sans-Serif" font-size="10.00">/home/vilon_tao/gaia/sdk/include/gaia/ui/TabPageController.h</text>
</g>
<!-- Node2 -->
<g id="node3" class="node"><title>Node2</title>
<a xlink:href="../../d6/d52/_widget_controller_8h.html" target="_top" xlink:title="gaia/core/vision/WidgetController.h">
<polygon fill="white" stroke="black" points="22.5,-174.5 22.5,-195.5 191.5,-195.5 191.5,-174.5 22.5,-174.5"/>
<text text-anchor="middle" x="107" y="-182.5" font-family="Helvetica,sans-Serif" font-size="10.00">gaia/core/vision/WidgetController.h</text>
</a>
</g>
<!-- Node1&#45;&gt;Node2 -->
<g id="edge2" class="edge"><title>Node1&#45;&gt;Node2</title>
<path fill="none" stroke="midnightblue" d="M152.729,-232.362C144.756,-224.104 133.525,-212.472 124.189,-202.803"/>
<polygon fill="midnightblue" stroke="midnightblue" points="126.67,-200.334 117.206,-195.571 121.634,-205.196 126.67,-200.334"/>
</g>
<!-- Node10 -->
<g id="node20" class="node"><title>Node10</title>
<a xlink:href="../../d4/d7f/_vector_8h.html" target="_top" xlink:title="gaia/base/Vector.h">
<polygon fill="white" stroke="black" points="170,-116.5 170,-137.5 268,-137.5 268,-116.5 170,-116.5"/>
<text text-anchor="middle" x="219" y="-124.5" font-family="Helvetica,sans-Serif" font-size="10.00">gaia/base/Vector.h</text>
</a>
</g>
<!-- Node1&#45;&gt;Node10 -->
<g id="edge20" class="edge"><title>Node1&#45;&gt;Node10</title>
<path fill="none" stroke="midnightblue" d="M173.499,-232.288C181.786,-223.283 193.069,-209.718 200,-196 207.692,-180.774 212.599,-162.033 215.495,-147.927"/>
<polygon fill="midnightblue" stroke="midnightblue" points="218.998,-148.237 217.401,-137.763 212.118,-146.947 218.998,-148.237"/>
</g>
<!-- Node3 -->
<g id="node5" class="node"><title>Node3</title>
<a xlink:href="../../d3/dd0/_event_control_8h.html" target="_top" xlink:title="gaia/core/event/EventControl.h">
<polygon fill="white" stroke="black" points="0,-116.5 0,-137.5 152,-137.5 152,-116.5 0,-116.5"/>
<text text-anchor="middle" x="76" y="-124.5" font-family="Helvetica,sans-Serif" font-size="10.00">gaia/core/event/EventControl.h</text>
</a>
</g>
<!-- Node2&#45;&gt;Node3 -->
<g id="edge4" class="edge"><title>Node2&#45;&gt;Node3</title>
<path fill="none" stroke="midnightblue" d="M101.314,-174.362C97.1628,-166.595 91.4159,-155.843 86.4469,-146.546"/>
<polygon fill="midnightblue" stroke="midnightblue" points="89.4504,-144.74 81.6498,-137.571 83.2769,-148.04 89.4504,-144.74"/>
</g>
<!-- Node5 -->
<g id="node9" class="node"><title>Node5</title>
<a xlink:href="../../d4/d75/_widget_8h.html" target="_top" xlink:title="gaia/core/vision/Widget.h">
<polygon fill="white" stroke="black" points="464.5,-116.5 464.5,-137.5 591.5,-137.5 591.5,-116.5 464.5,-116.5"/>
<text text-anchor="middle" x="528" y="-124.5" font-family="Helvetica,sans-Serif" font-size="10.00">gaia/core/vision/Widget.h</text>
</a>
</g>
<!-- Node2&#45;&gt;Node5 -->
<g id="edge8" class="edge"><title>Node2&#45;&gt;Node5</title>
<path fill="none" stroke="midnightblue" d="M183.24,-174.497C260.229,-163.89 378.343,-147.618 454.382,-137.142"/>
<polygon fill="midnightblue" stroke="midnightblue" points="454.933,-140.599 464.362,-135.767 453.978,-133.665 454.933,-140.599"/>
</g>
<!-- Node4 -->
<g id="node7" class="node"><title>Node4</title>
<polygon fill="white" stroke="#bfbfbf" points="166,-0.5 166,-21.5 234,-21.5 234,-0.5 166,-0.5"/>
<text text-anchor="middle" x="200" y="-8.5" font-family="Helvetica,sans-Serif" font-size="10.00">sys/types.h</text>
</g>
<!-- Node3&#45;&gt;Node4 -->
<g id="edge6" class="edge"><title>Node3&#45;&gt;Node4</title>
<path fill="none" stroke="midnightblue" d="M81.8555,-116.197C90.0869,-101.707 106.195,-75.7498 125,-58 138.108,-45.6271 154.951,-34.7248 169.354,-26.5433"/>
<polygon fill="midnightblue" stroke="midnightblue" points="171.323,-29.4547 178.402,-21.5717 167.952,-23.3198 171.323,-29.4547"/>
</g>
<!-- Node6 -->
<g id="node11" class="node"><title>Node6</title>
<a xlink:href="../../d1/dd0/gmacros_8h.html" target="_top" xlink:title="gaia/base/gmacros.h">
<polygon fill="white" stroke="black" points="629.5,-58.5 629.5,-79.5 736.5,-79.5 736.5,-58.5 629.5,-58.5"/>
<text text-anchor="middle" x="683" y="-66.5" font-family="Helvetica,sans-Serif" font-size="10.00">gaia/base/gmacros.h</text>
</a>
</g>
<!-- Node5&#45;&gt;Node6 -->
<g id="edge10" class="edge"><title>Node5&#45;&gt;Node6</title>
<path fill="none" stroke="midnightblue" d="M556.069,-116.497C581.01,-107.164 617.674,-93.4447 645.192,-83.1475"/>
<polygon fill="midnightblue" stroke="midnightblue" points="646.739,-86.3058 654.878,-79.5231 644.286,-79.7497 646.739,-86.3058"/>
</g>
<!-- Node7 -->
<g id="node13" class="node"><title>Node7</title>
<a xlink:href="../../d0/d92/_property_animatable_8h.html" target="_top" xlink:title="gaia/core/animator/PropertyAnimatable.h">
<polygon fill="white" stroke="black" points="276,-58.5 276,-79.5 470,-79.5 470,-58.5 276,-58.5"/>
<text text-anchor="middle" x="373" y="-66.5" font-family="Helvetica,sans-Serif" font-size="10.00">gaia/core/animator/PropertyAnimatable.h</text>
</a>
</g>
<!-- Node5&#45;&gt;Node7 -->
<g id="edge12" class="edge"><title>Node5&#45;&gt;Node7</title>
<path fill="none" stroke="midnightblue" d="M499.931,-116.497C474.99,-107.164 438.326,-93.4447 410.808,-83.1475"/>
<polygon fill="midnightblue" stroke="midnightblue" points="411.714,-79.7497 401.122,-79.5231 409.261,-86.3058 411.714,-79.7497"/>
</g>
<!-- Node8 -->
<g id="node16" class="node"><title>Node8</title>
<a xlink:href="../../d8/d50/_widget_core_8h.html" target="_top" xlink:title="gaia/core/vision/WidgetCore.h">
<polygon fill="white" stroke="black" points="754,-58.5 754,-79.5 902,-79.5 902,-58.5 754,-58.5"/>
<text text-anchor="middle" x="828" y="-66.5" font-family="Helvetica,sans-Serif" font-size="10.00">gaia/core/vision/WidgetCore.h</text>
</a>
</g>
<!-- Node5&#45;&gt;Node8 -->
<g id="edge16" class="edge"><title>Node5&#45;&gt;Node8</title>
<path fill="none" stroke="midnightblue" d="M582.328,-116.497C633.247,-106.652 709.411,-91.9272 763.417,-81.486"/>
<polygon fill="midnightblue" stroke="midnightblue" points="764.417,-84.8577 773.57,-79.5231 763.088,-77.985 764.417,-84.8577"/>
</g>
<!-- Node7&#45;&gt;Node4 -->
<g id="edge14" class="edge"><title>Node7&#45;&gt;Node4</title>
<path fill="none" stroke="midnightblue" d="M341.671,-58.4966C313.467,-49.0411 271.833,-35.0829 240.991,-24.7428"/>
<polygon fill="midnightblue" stroke="midnightblue" points="241.982,-21.3834 231.388,-21.5231 239.757,-28.0203 241.982,-21.3834"/>
</g>
<!-- Node9 -->
<g id="node18" class="node"><title>Node9</title>
<polygon fill="white" stroke="#bfbfbf" points="722.5,-0.5 722.5,-21.5 771.5,-21.5 771.5,-0.5 722.5,-0.5"/>
<text text-anchor="middle" x="747" y="-8.5" font-family="Helvetica,sans-Serif" font-size="10.00">stdint.h</text>
</g>
<!-- Node8&#45;&gt;Node9 -->
<g id="edge18" class="edge"><title>Node8&#45;&gt;Node9</title>
<path fill="none" stroke="midnightblue" d="M813.143,-58.3619C801.154,-49.7773 784.073,-37.5459 770.272,-27.6636"/>
<polygon fill="midnightblue" stroke="midnightblue" points="771.931,-24.5469 761.762,-21.5707 767.855,-30.2383 771.931,-24.5469"/>
</g>
<!-- Node10&#45;&gt;Node4 -->
<g id="edge36" class="edge"><title>Node10&#45;&gt;Node4</title>
<path fill="none" stroke="midnightblue" d="M181.238,-116.347C163.289,-109.176 143.502,-97.7078 133,-80 120.443,-58.8268 144.57,-39.1564 167.293,-26.2802"/>
<polygon fill="midnightblue" stroke="midnightblue" points="169.014,-29.3289 176.179,-21.524 165.711,-23.1573 169.014,-29.3289"/>
</g>
<!-- Node11 -->
<g id="node22" class="node"><title>Node11</title>
<a xlink:href="../../d1/d86/_type_helpers_8h.html" target="_top" xlink:title="gaia/base/TypeHelpers.h">
<polygon fill="white" stroke="black" points="487.5,-58.5 487.5,-79.5 612.5,-79.5 612.5,-58.5 487.5,-58.5"/>
<text text-anchor="middle" x="550" y="-66.5" font-family="Helvetica,sans-Serif" font-size="10.00">gaia/base/TypeHelpers.h</text>
</a>
</g>
<!-- Node10&#45;&gt;Node11 -->
<g id="edge22" class="edge"><title>Node10&#45;&gt;Node11</title>
<path fill="none" stroke="midnightblue" d="M268.197,-118.379C324.267,-108.554 416.35,-92.4191 479.914,-81.281"/>
<polygon fill="midnightblue" stroke="midnightblue" points="480.615,-84.7116 489.86,-79.538 479.406,-77.8166 480.615,-84.7116"/>
</g>
<!-- Node14 -->
<g id="node30" class="node"><title>Node14</title>
<a xlink:href="../../dc/da9/_vector_impl_8h.html" target="_top" xlink:title="gaia/base/VectorImpl.h">
<polygon fill="white" stroke="black" points="141.5,-58.5 141.5,-79.5 258.5,-79.5 258.5,-58.5 141.5,-58.5"/>
<text text-anchor="middle" x="200" y="-66.5" font-family="Helvetica,sans-Serif" font-size="10.00">gaia/base/VectorImpl.h</text>
</a>
</g>
<!-- Node10&#45;&gt;Node14 -->
<g id="edge32" class="edge"><title>Node10&#45;&gt;Node14</title>
<path fill="none" stroke="midnightblue" d="M215.515,-116.362C213.024,-108.758 209.596,-98.294 206.596,-89.1349"/>
<polygon fill="midnightblue" stroke="midnightblue" points="209.902,-87.9841 203.463,-79.5707 203.25,-90.1634 209.902,-87.9841"/>
</g>
<!-- Node11&#45;&gt;Node4 -->
<g id="edge28" class="edge"><title>Node11&#45;&gt;Node4</title>
<path fill="none" stroke="midnightblue" d="M487.427,-58.6308C417.539,-47.0493 306.165,-28.593 244.586,-18.3886"/>
<polygon fill="midnightblue" stroke="midnightblue" points="244.855,-14.8854 234.417,-16.7034 243.71,-21.7912 244.855,-14.8854"/>
</g>
<!-- Node11&#45;&gt;Node9 -->
<g id="edge24" class="edge"><title>Node11&#45;&gt;Node9</title>
<path fill="none" stroke="midnightblue" d="M585.675,-58.4966C621.703,-47.8896 676.975,-31.6165 712.556,-21.1408"/>
<polygon fill="midnightblue" stroke="midnightblue" points="713.876,-24.401 722.48,-18.2191 711.899,-17.686 713.876,-24.401"/>
</g>
<!-- Node12 -->
<g id="node25" class="node"><title>Node12</title>
<polygon fill="white" stroke="#bfbfbf" points="495.5,-0.5 495.5,-21.5 544.5,-21.5 544.5,-0.5 495.5,-0.5"/>
<text text-anchor="middle" x="520" y="-8.5" font-family="Helvetica,sans-Serif" font-size="10.00">string.h</text>
</g>
<!-- Node11&#45;&gt;Node12 -->
<g id="edge26" class="edge"><title>Node11&#45;&gt;Node12</title>
<path fill="none" stroke="midnightblue" d="M544.498,-58.3619C540.48,-50.5949 534.919,-39.8426 530.11,-30.5458"/>
<polygon fill="midnightblue" stroke="midnightblue" points="533.171,-28.8448 525.468,-21.5707 526.953,-32.0608 533.171,-28.8448"/>
</g>
<!-- Node13 -->
<g id="node28" class="node"><title>Node13</title>
<polygon fill="white" stroke="#bfbfbf" points="561.5,-0.5 561.5,-21.5 596.5,-21.5 596.5,-0.5 561.5,-0.5"/>
<text text-anchor="middle" x="579" y="-8.5" font-family="Helvetica,sans-Serif" font-size="10.00">new</text>
</g>
<!-- Node11&#45;&gt;Node13 -->
<g id="edge30" class="edge"><title>Node11&#45;&gt;Node13</title>
<path fill="none" stroke="midnightblue" d="M555.319,-58.3619C559.203,-50.5949 564.579,-39.8426 569.227,-30.5458"/>
<polygon fill="midnightblue" stroke="midnightblue" points="572.373,-32.0802 573.715,-21.5707 566.112,-28.9497 572.373,-32.0802"/>
</g>
<!-- Node14&#45;&gt;Node4 -->
<g id="edge34" class="edge"><title>Node14&#45;&gt;Node4</title>
<path fill="none" stroke="midnightblue" d="M200,-58.3619C200,-50.9219 200,-40.7427 200,-31.7276"/>
<polygon fill="midnightblue" stroke="midnightblue" points="203.5,-31.5706 200,-21.5707 196.5,-31.5707 203.5,-31.5706"/>
</g>
</g>
</svg>
