<?xml version="1.0" encoding="UTF-8" standalone="no"?>
<!DOCTYPE svg PUBLIC "-//W3C//DTD SVG 1.1//EN"
 "http://www.w3.org/Graphics/SVG/1.1/DTD/svg11.dtd">
<!-- Generated by graphviz version 2.26.3 (20100126.1600)
 -->
<!-- Title: G Pages: 1 -->
<svg width="1865pt" height="204pt"
 viewBox="0.00 0.00 1865.00 204.00" xmlns="http://www.w3.org/2000/svg" xmlns:xlink="http://www.w3.org/1999/xlink">
<g id="graph1" class="graph" transform="scale(1 1) rotate(0) translate(4 200)">
<title>G</title>
<polygon fill="white" stroke="white" points="-4,5 -4,-200 1862,-200 1862,5 -4,5"/>
<!-- Node1 -->
<g id="node1" class="node"><title>Node1</title>
<polygon fill="#bfbfbf" stroke="black" points="1116,-174.5 1116,-195.5 1368,-195.5 1368,-174.5 1116,-174.5"/>
<text text-anchor="middle" x="1242" y="-182.5" font-family="Helvetica,sans-Serif" font-size="10.00">/home/vilon_tao/gaia/sdk/include/gaia/ui/TextWidget.h</text>
</g>
<!-- Node2 -->
<g id="node3" class="node"><title>Node2</title>
<a xlink:href="../../d2/daa/_button_8h.html" target="_top" xlink:title="/home/vilon_tao/gaia/sdk/include/gaia/ui/Button.h">
<polygon fill="white" stroke="black" points="707,-116.5 707,-137.5 937,-137.5 937,-116.5 707,-116.5"/>
<text text-anchor="middle" x="822" y="-124.5" font-family="Helvetica,sans-Serif" font-size="10.00">/home/vilon_tao/gaia/sdk/include/gaia/ui/Button.h</text>
</a>
</g>
<!-- Node1&#45;&gt;Node2 -->
<g id="edge2" class="edge"><title>Node1&#45;&gt;Node2</title>
<path fill="none" stroke="midnightblue" d="M1155.94,-173.116C1080.17,-162.652 970.871,-147.558 898.201,-137.523"/>
<polygon fill="midnightblue" stroke="midnightblue" points="1155.56,-176.596 1165.94,-174.497 1156.51,-169.661 1155.56,-176.596"/>
</g>
<!-- Node9 -->
<g id="node17" class="node"><title>Node9</title>
<a xlink:href="../../d2/d98/_edit_widget_8h.html" target="_top" xlink:title="/home/vilon_tao/gaia/sdk/include/gaia/ui/EditWidget.h">
<polygon fill="white" stroke="black" points="981,-116.5 981,-137.5 1231,-137.5 1231,-116.5 981,-116.5"/>
<text text-anchor="middle" x="1106" y="-124.5" font-family="Helvetica,sans-Serif" font-size="10.00">/home/vilon_tao/gaia/sdk/include/gaia/ui/EditWidget.h</text>
</a>
</g>
<!-- Node1&#45;&gt;Node9 -->
<g id="edge16" class="edge"><title>Node1&#45;&gt;Node9</title>
<path fill="none" stroke="midnightblue" d="M1207.95,-170.479C1184.01,-160.269 1152.52,-146.839 1130.9,-137.621"/>
<polygon fill="midnightblue" stroke="midnightblue" points="1206.8,-173.793 1217.37,-174.497 1209.55,-167.354 1206.8,-173.793"/>
</g>
<!-- Node12 -->
<g id="node24" class="node"><title>Node12</title>
<a xlink:href="../../d2/d47/_footer_button_8h.html" target="_top" xlink:title="/home/vilon_tao/gaia/sdk/include/gaia/ui/FooterButton.h">
<polygon fill="white" stroke="black" points="1249,-116.5 1249,-137.5 1507,-137.5 1507,-116.5 1249,-116.5"/>
<text text-anchor="middle" x="1378" y="-124.5" font-family="Helvetica,sans-Serif" font-size="10.00">/home/vilon_tao/gaia/sdk/include/gaia/ui/FooterButton.h</text>
</a>
</g>
<!-- Node1&#45;&gt;Node12 -->
<g id="edge24" class="edge"><title>Node1&#45;&gt;Node12</title>
<path fill="none" stroke="midnightblue" d="M1276.05,-170.479C1299.99,-160.269 1331.48,-146.839 1353.1,-137.621"/>
<polygon fill="midnightblue" stroke="midnightblue" points="1274.45,-167.354 1266.63,-174.497 1277.2,-173.793 1274.45,-167.354"/>
</g>
<!-- Node13 -->
<g id="node26" class="node"><title>Node13</title>
<a xlink:href="../../db/daf/_simple_cursor_list_item_provider_8h.html" target="_top" xlink:title="/home/vilon_tao/gaia/sdk/include/gaia/ui/SimpleCursorListItemProvider.h">
<polygon fill="white" stroke="black" points="1525,-116.5 1525,-137.5 1857,-137.5 1857,-116.5 1525,-116.5"/>
<text text-anchor="middle" x="1691" y="-124.5" font-family="Helvetica,sans-Serif" font-size="10.00">/home/vilon_tao/gaia/sdk/include/gaia/ui/SimpleCursorListItemProvider.h</text>
</a>
</g>
<!-- Node1&#45;&gt;Node13 -->
<g id="edge26" class="edge"><title>Node1&#45;&gt;Node13</title>
<path fill="none" stroke="midnightblue" d="M1333.5,-173.18C1414.53,-162.714 1531.69,-147.579 1609.54,-137.523"/>
<polygon fill="midnightblue" stroke="midnightblue" points="1332.78,-169.744 1323.31,-174.497 1333.68,-176.687 1332.78,-169.744"/>
</g>
<!-- Node3 -->
<g id="node5" class="node"><title>Node3</title>
<a xlink:href="../../d8/db4/_compound_button_8h.html" target="_top" xlink:title="/home/vilon_tao/gaia/sdk/include/gaia/ui/CompoundButton.h">
<polygon fill="white" stroke="black" points="386,-58.5 386,-79.5 664,-79.5 664,-58.5 386,-58.5"/>
<text text-anchor="middle" x="525" y="-66.5" font-family="Helvetica,sans-Serif" font-size="10.00">/home/vilon_tao/gaia/sdk/include/gaia/ui/CompoundButton.h</text>
</a>
</g>
<!-- Node2&#45;&gt;Node3 -->
<g id="edge4" class="edge"><title>Node2&#45;&gt;Node3</title>
<path fill="none" stroke="midnightblue" d="M758.17,-114.535C704.733,-104.099 629.329,-89.374 578.885,-79.5231"/>
<polygon fill="midnightblue" stroke="midnightblue" points="757.73,-118.015 768.216,-116.497 759.072,-111.145 757.73,-118.015"/>
</g>
<!-- Node8 -->
<g id="node15" class="node"><title>Node8</title>
<a xlink:href="../../d5/db8/_search_edit_widget_8h.html" target="_top" xlink:title="/home/vilon_tao/gaia/sdk/include/gaia/ui/SearchEditWidget.h">
<polygon fill="white" stroke="black" points="681.5,-58.5 681.5,-79.5 962.5,-79.5 962.5,-58.5 681.5,-58.5"/>
<text text-anchor="middle" x="822" y="-66.5" font-family="Helvetica,sans-Serif" font-size="10.00">/home/vilon_tao/gaia/sdk/include/gaia/ui/SearchEditWidget.h</text>
</a>
</g>
<!-- Node2&#45;&gt;Node8 -->
<g id="edge14" class="edge"><title>Node2&#45;&gt;Node8</title>
<path fill="none" stroke="midnightblue" d="M822,-106.191C822,-97.1684 822,-86.9941 822,-79.5707"/>
<polygon fill="midnightblue" stroke="midnightblue" points="818.5,-106.362 822,-116.362 825.5,-106.362 818.5,-106.362"/>
</g>
<!-- Node4 -->
<g id="node7" class="node"><title>Node4</title>
<a xlink:href="../../d3/d23/_check_box_8h.html" target="_top" xlink:title="/home/vilon_tao/gaia/sdk/include/gaia/ui/CheckBox.h">
<polygon fill="white" stroke="black" points="0,-0.5 0,-21.5 248,-21.5 248,-0.5 0,-0.5"/>
<text text-anchor="middle" x="124" y="-8.5" font-family="Helvetica,sans-Serif" font-size="10.00">/home/vilon_tao/gaia/sdk/include/gaia/ui/CheckBox.h</text>
</a>
</g>
<!-- Node3&#45;&gt;Node4 -->
<g id="edge6" class="edge"><title>Node3&#45;&gt;Node4</title>
<path fill="none" stroke="midnightblue" d="M442.394,-57.052C370.066,-46.5906 265.994,-31.5378 196.754,-21.5231"/>
<polygon fill="midnightblue" stroke="midnightblue" points="441.984,-60.529 452.382,-58.4966 442.986,-53.6011 441.984,-60.529"/>
</g>
<!-- Node5 -->
<g id="node9" class="node"><title>Node5</title>
<a xlink:href="../../d0/d74/_radio_button_8h.html" target="_top" xlink:title="/home/vilon_tao/gaia/sdk/include/gaia/ui/RadioButton.h">
<polygon fill="white" stroke="black" points="266,-0.5 266,-21.5 522,-21.5 522,-0.5 266,-0.5"/>
<text text-anchor="middle" x="394" y="-8.5" font-family="Helvetica,sans-Serif" font-size="10.00">/home/vilon_tao/gaia/sdk/include/gaia/ui/RadioButton.h</text>
</a>
</g>
<!-- Node3&#45;&gt;Node5 -->
<g id="edge8" class="edge"><title>Node3&#45;&gt;Node5</title>
<path fill="none" stroke="midnightblue" d="M491.896,-54.3431C468.874,-44.1502 438.715,-30.7977 417.989,-21.6212"/>
<polygon fill="midnightblue" stroke="midnightblue" points="490.716,-57.6485 501.277,-58.4966 493.55,-51.2478 490.716,-57.6485"/>
</g>
<!-- Node6 -->
<g id="node11" class="node"><title>Node6</title>
<a xlink:href="../../d0/d26/_switch_8h.html" target="_top" xlink:title="/home/vilon_tao/gaia/sdk/include/gaia/ui/Switch.h">
<polygon fill="white" stroke="black" points="540,-0.5 540,-21.5 772,-21.5 772,-0.5 540,-0.5"/>
<text text-anchor="middle" x="656" y="-8.5" font-family="Helvetica,sans-Serif" font-size="10.00">/home/vilon_tao/gaia/sdk/include/gaia/ui/Switch.h</text>
</a>
</g>
<!-- Node3&#45;&gt;Node6 -->
<g id="edge10" class="edge"><title>Node3&#45;&gt;Node6</title>
<path fill="none" stroke="midnightblue" d="M558.104,-54.3431C581.126,-44.1502 611.285,-30.7977 632.011,-21.6212"/>
<polygon fill="midnightblue" stroke="midnightblue" points="556.45,-51.2478 548.723,-58.4966 559.284,-57.6485 556.45,-51.2478"/>
</g>
<!-- Node7 -->
<g id="node13" class="node"><title>Node7</title>
<a xlink:href="../../de/dd2/_toggle_button_8h.html" target="_top" xlink:title="/home/vilon_tao/gaia/sdk/include/gaia/ui/ToggleButton.h">
<polygon fill="white" stroke="black" points="790,-0.5 790,-21.5 1050,-21.5 1050,-0.5 790,-0.5"/>
<text text-anchor="middle" x="920" y="-8.5" font-family="Helvetica,sans-Serif" font-size="10.00">/home/vilon_tao/gaia/sdk/include/gaia/ui/ToggleButton.h</text>
</a>
</g>
<!-- Node3&#45;&gt;Node7 -->
<g id="edge12" class="edge"><title>Node3&#45;&gt;Node7</title>
<path fill="none" stroke="midnightblue" d="M606.808,-56.9877C678.035,-46.529 780.27,-31.5174 848.334,-21.5231"/>
<polygon fill="midnightblue" stroke="midnightblue" points="605.917,-53.5809 596.532,-58.4966 606.934,-60.5066 605.917,-53.5809"/>
</g>
<!-- Node9&#45;&gt;Node8 -->
<g id="edge22" class="edge"><title>Node9&#45;&gt;Node8</title>
<path fill="none" stroke="midnightblue" d="M1044.64,-114.47C993.566,-104.038 921.662,-89.3535 873.527,-79.5231"/>
<polygon fill="midnightblue" stroke="midnightblue" points="1044.07,-117.925 1054.57,-116.497 1045.47,-111.066 1044.07,-117.925"/>
</g>
<!-- Node10 -->
<g id="node19" class="node"><title>Node10</title>
<a xlink:href="../../da/d1a/_extract_edit_widget_8h.html" target="_top" xlink:title="/home/vilon_tao/gaia/sdk/include/gaia/service/ExtractEditWidget.h">
<polygon fill="white" stroke="black" points="979.5,-58.5 979.5,-79.5 1284.5,-79.5 1284.5,-58.5 979.5,-58.5"/>
<text text-anchor="middle" x="1132" y="-66.5" font-family="Helvetica,sans-Serif" font-size="10.00">/home/vilon_tao/gaia/sdk/include/gaia/service/ExtractEditWidget.h</text>
</a>
</g>
<!-- Node9&#45;&gt;Node10 -->
<g id="edge18" class="edge"><title>Node9&#45;&gt;Node10</title>
<path fill="none" stroke="midnightblue" d="M1114.93,-107.079C1119.07,-97.8422 1123.82,-87.2388 1127.26,-79.5707"/>
<polygon fill="midnightblue" stroke="midnightblue" points="1111.67,-105.805 1110.77,-116.362 1118.05,-108.669 1111.67,-105.805"/>
</g>
<!-- Node11 -->
<g id="node21" class="node"><title>Node11</title>
<a xlink:href="../../d4/da1/_auto_complete_edit_widget_8h.html" target="_top" xlink:title="/home/vilon_tao/gaia/sdk/include/gaia/ui/AutoCompleteEditWidget.h">
<polygon fill="white" stroke="black" points="1302,-58.5 1302,-79.5 1614,-79.5 1614,-58.5 1302,-58.5"/>
<text text-anchor="middle" x="1458" y="-66.5" font-family="Helvetica,sans-Serif" font-size="10.00">/home/vilon_tao/gaia/sdk/include/gaia/ui/AutoCompleteEditWidget.h</text>
</a>
</g>
<!-- Node9&#45;&gt;Node11 -->
<g id="edge20" class="edge"><title>Node9&#45;&gt;Node11</title>
<path fill="none" stroke="midnightblue" d="M1179.68,-114.859C1243.12,-104.406 1333.73,-89.4764 1394.14,-79.5231"/>
<polygon fill="midnightblue" stroke="midnightblue" points="1179.04,-111.417 1169.74,-116.497 1180.18,-118.324 1179.04,-111.417"/>
</g>
</g>
</svg>
