<?xml version="1.0" encoding="UTF-8" standalone="no"?>
<!DOCTYPE svg PUBLIC "-//W3C//DTD SVG 1.1//EN"
 "http://www.w3.org/Graphics/SVG/1.1/DTD/svg11.dtd">
<!-- Generated by graphviz version 2.26.3 (20100126.1600)
 -->
<!-- Title: G Pages: 1 -->
<svg width="2382pt" height="88pt"
 viewBox="0.00 0.00 2382.00 88.00" xmlns="http://www.w3.org/2000/svg" xmlns:xlink="http://www.w3.org/1999/xlink">
<g id="graph1" class="graph" transform="scale(1 1) rotate(0) translate(4 84)">
<title>G</title>
<polygon fill="white" stroke="white" points="-4,5 -4,-84 2379,-84 2379,5 -4,5"/>
<!-- Node1 -->
<g id="node1" class="node"><title>Node1</title>
<polygon fill="#bfbfbf" stroke="black" points="1081.5,-58.5 1081.5,-79.5 1358.5,-79.5 1358.5,-58.5 1081.5,-58.5"/>
<text text-anchor="middle" x="1220" y="-66.5" font-family="Helvetica,sans-Serif" font-size="10.00">/home/vilon_tao/gaia/sdk/include/gaia/media/AudioControl.h</text>
</g>
<!-- Node2 -->
<g id="node3" class="node"><title>Node2</title>
<a xlink:href="../../d0/d5f/_async_player_8h.html" target="_top" xlink:title="/home/vilon_tao/gaia/sdk/include/gaia/media/AsyncPlayer.h">
<polygon fill="white" stroke="black" points="0,-0.5 0,-21.5 276,-21.5 276,-0.5 0,-0.5"/>
<text text-anchor="middle" x="138" y="-8.5" font-family="Helvetica,sans-Serif" font-size="10.00">/home/vilon_tao/gaia/sdk/include/gaia/media/AsyncPlayer.h</text>
</a>
</g>
<!-- Node1&#45;&gt;Node2 -->
<g id="edge2" class="edge"><title>Node1&#45;&gt;Node2</title>
<path fill="none" stroke="midnightblue" d="M1071.29,-62.6483C886.769,-54.5085 562.552,-39.3579 285,-22 282.063,-21.8163 279.093,-21.6269 276.099,-21.4327"/>
<polygon fill="midnightblue" stroke="midnightblue" points="1071.18,-66.1471 1081.33,-63.0905 1071.49,-59.1539 1071.18,-66.1471"/>
</g>
<!-- Node3 -->
<g id="node5" class="node"><title>Node3</title>
<a xlink:href="../../db/d6d/_audio_control_listener_8h.html" target="_top" xlink:title="/home/vilon_tao/gaia/sdk/include/gaia/media/AudioControlListener.h">
<polygon fill="white" stroke="black" points="293.5,-0.5 293.5,-21.5 604.5,-21.5 604.5,-0.5 293.5,-0.5"/>
<text text-anchor="middle" x="449" y="-8.5" font-family="Helvetica,sans-Serif" font-size="10.00">/home/vilon_tao/gaia/sdk/include/gaia/media/AudioControlListener.h</text>
</a>
</g>
<!-- Node1&#45;&gt;Node3 -->
<g id="edge4" class="edge"><title>Node1&#45;&gt;Node3</title>
<path fill="none" stroke="midnightblue" d="M1070.94,-57.7866C931.617,-47.3058 725.169,-31.7753 588.892,-21.5236"/>
<polygon fill="midnightblue" stroke="midnightblue" points="1071.04,-61.3037 1081.27,-58.5638 1071.56,-54.3234 1071.04,-61.3037"/>
</g>
<!-- Node4 -->
<g id="node7" class="node"><title>Node4</title>
<a xlink:href="../../da/d64/_audio_stream_in_8h.html" target="_top" xlink:title="/home/vilon_tao/gaia/sdk/include/gaia/media/AudioStreamIn.h">
<polygon fill="white" stroke="black" points="621.5,-0.5 621.5,-21.5 906.5,-21.5 906.5,-0.5 621.5,-0.5"/>
<text text-anchor="middle" x="764" y="-8.5" font-family="Helvetica,sans-Serif" font-size="10.00">/home/vilon_tao/gaia/sdk/include/gaia/media/AudioStreamIn.h</text>
</a>
</g>
<!-- Node1&#45;&gt;Node4 -->
<g id="edge6" class="edge"><title>Node1&#45;&gt;Node4</title>
<path fill="none" stroke="midnightblue" d="M1127.32,-57.2121C1045.03,-46.7446 925.872,-31.589 846.733,-21.5231"/>
<polygon fill="midnightblue" stroke="midnightblue" points="1127.06,-60.7068 1137.42,-58.4966 1127.94,-53.7628 1127.06,-60.7068"/>
</g>
<!-- Node5 -->
<g id="node9" class="node"><title>Node5</title>
<a xlink:href="../../d0/de9/_audio_stream_out_8h.html" target="_top" xlink:title="/home/vilon_tao/gaia/sdk/include/gaia/media/AudioStreamOut.h">
<polygon fill="white" stroke="black" points="923.5,-0.5 923.5,-21.5 1216.5,-21.5 1216.5,-0.5 923.5,-0.5"/>
<text text-anchor="middle" x="1070" y="-8.5" font-family="Helvetica,sans-Serif" font-size="10.00">/home/vilon_tao/gaia/sdk/include/gaia/media/AudioStreamOut.h</text>
</a>
</g>
<!-- Node1&#45;&gt;Node5 -->
<g id="edge8" class="edge"><title>Node1&#45;&gt;Node5</title>
<path fill="none" stroke="midnightblue" d="M1183.47,-54.8742C1156.85,-44.5819 1121.37,-30.862 1097.21,-21.5231"/>
<polygon fill="midnightblue" stroke="midnightblue" points="1182.25,-58.1546 1192.84,-58.4966 1184.77,-51.6257 1182.25,-58.1546"/>
</g>
<!-- Node6 -->
<g id="node11" class="node"><title>Node6</title>
<a xlink:href="../../d9/dd7/_media_player_8h.html" target="_top" xlink:title="/home/vilon_tao/gaia/sdk/include/gaia/media/MediaPlayer.h">
<polygon fill="white" stroke="black" points="1233.5,-0.5 1233.5,-21.5 1508.5,-21.5 1508.5,-0.5 1233.5,-0.5"/>
<text text-anchor="middle" x="1371" y="-8.5" font-family="Helvetica,sans-Serif" font-size="10.00">/home/vilon_tao/gaia/sdk/include/gaia/media/MediaPlayer.h</text>
</a>
</g>
<!-- Node1&#45;&gt;Node6 -->
<g id="edge10" class="edge"><title>Node1&#45;&gt;Node6</title>
<path fill="none" stroke="midnightblue" d="M1256.78,-54.8742C1283.57,-44.5819 1319.29,-30.862 1343.6,-21.5231"/>
<polygon fill="midnightblue" stroke="midnightblue" points="1255.43,-51.6437 1247.34,-58.4966 1257.94,-58.1782 1255.43,-51.6437"/>
</g>
<!-- Node7 -->
<g id="node13" class="node"><title>Node7</title>
<a xlink:href="../../dd/d1d/_ringtone_8h.html" target="_top" xlink:title="/home/vilon_tao/gaia/sdk/include/gaia/media/Ringtone.h">
<polygon fill="white" stroke="black" points="1526,-0.5 1526,-21.5 1786,-21.5 1786,-0.5 1526,-0.5"/>
<text text-anchor="middle" x="1656" y="-8.5" font-family="Helvetica,sans-Serif" font-size="10.00">/home/vilon_tao/gaia/sdk/include/gaia/media/Ringtone.h</text>
</a>
</g>
<!-- Node1&#45;&gt;Node7 -->
<g id="edge12" class="edge"><title>Node1&#45;&gt;Node7</title>
<path fill="none" stroke="midnightblue" d="M1309.33,-57.1161C1387.99,-46.6522 1501.46,-31.5583 1576.9,-21.5231"/>
<polygon fill="midnightblue" stroke="midnightblue" points="1308.41,-53.7085 1298.96,-58.4966 1309.33,-60.6473 1308.41,-53.7085"/>
</g>
<!-- Node8 -->
<g id="node15" class="node"><title>Node8</title>
<a xlink:href="../../d7/d26/_sound_pool_8h.html" target="_top" xlink:title="/home/vilon_tao/gaia/sdk/include/gaia/media/SoundPool.h">
<polygon fill="white" stroke="black" points="1804,-0.5 1804,-21.5 2072,-21.5 2072,-0.5 1804,-0.5"/>
<text text-anchor="middle" x="1938" y="-8.5" font-family="Helvetica,sans-Serif" font-size="10.00">/home/vilon_tao/gaia/sdk/include/gaia/media/SoundPool.h</text>
</a>
</g>
<!-- Node1&#45;&gt;Node8 -->
<g id="edge14" class="edge"><title>Node1&#45;&gt;Node8</title>
<path fill="none" stroke="midnightblue" d="M1360.04,-57.6879C1489.77,-47.2083 1681.22,-31.7426 1807.73,-21.5231"/>
<polygon fill="midnightblue" stroke="midnightblue" points="1359.71,-54.2027 1350.02,-58.4966 1360.27,-61.18 1359.71,-54.2027"/>
</g>
<!-- Node9 -->
<g id="node17" class="node"><title>Node9</title>
<a xlink:href="../../db/d8a/_tone_generator_8h.html" target="_top" xlink:title="/home/vilon_tao/gaia/sdk/include/gaia/media/ToneGenerator.h">
<polygon fill="white" stroke="black" points="2089.5,-0.5 2089.5,-21.5 2374.5,-21.5 2374.5,-0.5 2089.5,-0.5"/>
<text text-anchor="middle" x="2232" y="-8.5" font-family="Helvetica,sans-Serif" font-size="10.00">/home/vilon_tao/gaia/sdk/include/gaia/media/ToneGenerator.h</text>
</a>
</g>
<!-- Node1&#45;&gt;Node9 -->
<g id="edge16" class="edge"><title>Node1&#45;&gt;Node9</title>
<path fill="none" stroke="midnightblue" d="M1368.85,-61.698C1540.53,-53.0845 1831.25,-37.9122 2081,-22 2083.75,-21.8245 2086.54,-21.6449 2089.34,-21.4619"/>
<polygon fill="midnightblue" stroke="midnightblue" points="1368.54,-58.2087 1358.73,-62.2049 1368.89,-65.2 1368.54,-58.2087"/>
</g>
</g>
</svg>
