<?xml version="1.0" encoding="UTF-8" standalone="no"?>
<!DOCTYPE svg PUBLIC "-//W3C//DTD SVG 1.1//EN"
 "http://www.w3.org/Graphics/SVG/1.1/DTD/svg11.dtd">
<!-- Generated by graphviz version 2.26.3 (20100126.1600)
 -->
<!-- Title: G Pages: 1 -->
<svg width="4141pt" height="320pt"
 viewBox="0.00 0.00 4141.00 320.00" xmlns="http://www.w3.org/2000/svg" xmlns:xlink="http://www.w3.org/1999/xlink">
<g id="graph1" class="graph" transform="scale(1 1) rotate(0) translate(4 316)">
<title>G</title>
<polygon fill="white" stroke="white" points="-4,5 -4,-316 4138,-316 4138,5 -4,5"/>
<!-- Node1 -->
<g id="node1" class="node"><title>Node1</title>
<polygon fill="#bfbfbf" stroke="black" points="2459.5,-290.5 2459.5,-311.5 2716.5,-311.5 2716.5,-290.5 2459.5,-290.5"/>
<text text-anchor="middle" x="2588" y="-298.5" font-family="Helvetica,sans-Serif" font-size="10.00">/home/vilon_tao/gaia/sdk/include/gaia/base/HashMap.h</text>
</g>
<!-- Node2 -->
<g id="node3" class="node"><title>Node2</title>
<a xlink:href="../../d1/ddd/_ad_view_8h.html" target="_top" xlink:title="/home/vilon_tao/gaia/sdk/include/gaia/ads/AdView.h">
<polygon fill="white" stroke="black" points="1208,-232.5 1208,-253.5 1452,-253.5 1452,-232.5 1208,-232.5"/>
<text text-anchor="middle" x="1330" y="-240.5" font-family="Helvetica,sans-Serif" font-size="10.00">/home/vilon_tao/gaia/sdk/include/gaia/ads/AdView.h</text>
</a>
</g>
<!-- Node1&#45;&gt;Node2 -->
<g id="edge2" class="edge"><title>Node1&#45;&gt;Node2</title>
<path fill="none" stroke="midnightblue" d="M2449.17,-297.091C2236.35,-290.675 1816.75,-276.344 1461,-254 1458.04,-253.814 1455.04,-253.619 1452.02,-253.415"/>
<polygon fill="midnightblue" stroke="midnightblue" points="2449.36,-300.598 2459.46,-297.4 2449.57,-293.602 2449.36,-300.598"/>
</g>
<!-- Node3 -->
<g id="node5" class="node"><title>Node3</title>
<a xlink:href="../../d2/dfc/_hash_set_8h.html" target="_top" xlink:title="/home/vilon_tao/gaia/sdk/include/gaia/base/HashSet.h">
<polygon fill="white" stroke="black" points="1470,-232.5 1470,-253.5 1724,-253.5 1724,-232.5 1470,-232.5"/>
<text text-anchor="middle" x="1597" y="-240.5" font-family="Helvetica,sans-Serif" font-size="10.00">/home/vilon_tao/gaia/sdk/include/gaia/base/HashSet.h</text>
</a>
</g>
<!-- Node1&#45;&gt;Node3 -->
<g id="edge4" class="edge"><title>Node1&#45;&gt;Node3</title>
<path fill="none" stroke="midnightblue" d="M2449.17,-294.471C2279.96,-286.258 1985.37,-271.139 1733,-254 1730.05,-253.799 1727.06,-253.592 1724.04,-253.379"/>
<polygon fill="midnightblue" stroke="midnightblue" points="2449.22,-297.977 2459.38,-294.965 2449.56,-290.985 2449.22,-297.977"/>
</g>
<!-- Node4 -->
<g id="node7" class="node"><title>Node4</title>
<a xlink:href="../../d6/d2c/_cloud_storage_manager_8h.html" target="_top" xlink:title="/home/vilon_tao/gaia/sdk/include/gaia/cloudstorage/CloudStorageManager.h">
<polygon fill="white" stroke="black" points="1741.5,-232.5 1741.5,-253.5 2088.5,-253.5 2088.5,-232.5 1741.5,-232.5"/>
<text text-anchor="middle" x="1915" y="-240.5" font-family="Helvetica,sans-Serif" font-size="10.00">/home/vilon_tao/gaia/sdk/include/gaia/cloudstorage/CloudStorageManager.h</text>
</a>
</g>
<!-- Node1&#45;&gt;Node4 -->
<g id="edge6" class="edge"><title>Node1&#45;&gt;Node4</title>
<path fill="none" stroke="midnightblue" d="M2456.01,-289.625C2334.42,-279.146 2155.45,-263.722 2037.1,-253.523"/>
<polygon fill="midnightblue" stroke="midnightblue" points="2455.86,-293.125 2466.12,-290.497 2456.46,-286.151 2455.86,-293.125"/>
</g>
<!-- Node5 -->
<g id="node9" class="node"><title>Node5</title>
<a xlink:href="../../dd/dec/_application_preferences_8h.html" target="_top" xlink:title="/home/vilon_tao/gaia/sdk/include/gaia/content/ApplicationPreferences.h">
<polygon fill="white" stroke="black" points="2105.5,-232.5 2105.5,-253.5 2432.5,-253.5 2432.5,-232.5 2105.5,-232.5"/>
<text text-anchor="middle" x="2269" y="-240.5" font-family="Helvetica,sans-Serif" font-size="10.00">/home/vilon_tao/gaia/sdk/include/gaia/content/ApplicationPreferences.h</text>
</a>
</g>
<!-- Node1&#45;&gt;Node5 -->
<g id="edge8" class="edge"><title>Node1&#45;&gt;Node5</title>
<path fill="none" stroke="midnightblue" d="M2520.16,-288.665C2462.72,-278.222 2381.28,-263.415 2326.88,-253.523"/>
<polygon fill="midnightblue" stroke="midnightblue" points="2519.77,-292.151 2530.23,-290.497 2521.02,-285.264 2519.77,-292.151"/>
</g>
<!-- Node6 -->
<g id="node11" class="node"><title>Node6</title>
<a xlink:href="../../d1/df6/_porter_duff_8h.html" target="_top" xlink:title="/home/vilon_tao/gaia/sdk/include/gaia/graphics/PorterDuff.h">
<polygon fill="white" stroke="black" points="2450,-232.5 2450,-253.5 2726,-253.5 2726,-232.5 2450,-232.5"/>
<text text-anchor="middle" x="2588" y="-240.5" font-family="Helvetica,sans-Serif" font-size="10.00">/home/vilon_tao/gaia/sdk/include/gaia/graphics/PorterDuff.h</text>
</a>
</g>
<!-- Node1&#45;&gt;Node6 -->
<g id="edge10" class="edge"><title>Node1&#45;&gt;Node6</title>
<path fill="none" stroke="midnightblue" d="M2588,-280.191C2588,-271.168 2588,-260.994 2588,-253.571"/>
<polygon fill="midnightblue" stroke="midnightblue" points="2584.5,-280.362 2588,-290.362 2591.5,-280.362 2584.5,-280.362"/>
</g>
<!-- Node35 -->
<g id="node72" class="node"><title>Node35</title>
<a xlink:href="../../de/dd1/_battery_stats_impl_8h.html" target="_top" xlink:title="/home/vilon_tao/gaia/sdk/include/gaia/system/BatteryStatsImpl.h">
<polygon fill="white" stroke="black" points="2744,-232.5 2744,-253.5 3044,-253.5 3044,-232.5 2744,-232.5"/>
<text text-anchor="middle" x="2894" y="-240.5" font-family="Helvetica,sans-Serif" font-size="10.00">/home/vilon_tao/gaia/sdk/include/gaia/system/BatteryStatsImpl.h</text>
</a>
</g>
<!-- Node1&#45;&gt;Node35 -->
<g id="edge74" class="edge"><title>Node1&#45;&gt;Node35</title>
<path fill="none" stroke="midnightblue" d="M2653.42,-288.6C2708.5,-278.161 2786.4,-263.394 2838.48,-253.523"/>
<polygon fill="midnightblue" stroke="midnightblue" points="2652.59,-285.196 2643.41,-290.497 2653.89,-292.073 2652.59,-285.196"/>
</g>
<!-- Node36 -->
<g id="node74" class="node"><title>Node36</title>
<a xlink:href="../../df/db5/_power_profile_8h.html" target="_top" xlink:title="/home/vilon_tao/gaia/sdk/include/gaia/system/PowerProfile.h">
<polygon fill="white" stroke="black" points="3062,-232.5 3062,-253.5 3344,-253.5 3344,-232.5 3062,-232.5"/>
<text text-anchor="middle" x="3203" y="-240.5" font-family="Helvetica,sans-Serif" font-size="10.00">/home/vilon_tao/gaia/sdk/include/gaia/system/PowerProfile.h</text>
</a>
</g>
<!-- Node1&#45;&gt;Node36 -->
<g id="edge76" class="edge"><title>Node1&#45;&gt;Node36</title>
<path fill="none" stroke="midnightblue" d="M2709.62,-289.53C2820.71,-279.054 2983.6,-263.691 3091.42,-253.523"/>
<polygon fill="midnightblue" stroke="midnightblue" points="2709,-286.073 2699.37,-290.497 2709.66,-293.042 2709,-286.073"/>
</g>
<!-- Node37 -->
<g id="node76" class="node"><title>Node37</title>
<a xlink:href="../../d8/de3/_i_simple_list_item_provider_8h.html" target="_top" xlink:title="/home/vilon_tao/gaia/sdk/include/gaia/ui/ISimpleListItemProvider.h">
<polygon fill="white" stroke="black" points="3362,-232.5 3362,-253.5 3668,-253.5 3668,-232.5 3362,-232.5"/>
<text text-anchor="middle" x="3515" y="-240.5" font-family="Helvetica,sans-Serif" font-size="10.00">/home/vilon_tao/gaia/sdk/include/gaia/ui/ISimpleListItemProvider.h</text>
</a>
</g>
<!-- Node1&#45;&gt;Node37 -->
<g id="edge78" class="edge"><title>Node1&#45;&gt;Node37</title>
<path fill="none" stroke="midnightblue" d="M2727.01,-292.729C2880.32,-283.545 3134.28,-268.144 3353,-254 3355.95,-253.809 3358.94,-253.615 3361.94,-253.419"/>
<polygon fill="midnightblue" stroke="midnightblue" points="2726.38,-289.261 2716.6,-293.352 2726.79,-296.248 2726.38,-289.261"/>
</g>
<!-- Node39 -->
<g id="node80" class="node"><title>Node39</title>
<a xlink:href="../../d3/d32/_usb_manager_8h.html" target="_top" xlink:title="/home/vilon_tao/gaia/sdk/include/gaia/usb/UsbManager.h">
<polygon fill="white" stroke="black" points="3686,-232.5 3686,-253.5 3952,-253.5 3952,-232.5 3686,-232.5"/>
<text text-anchor="middle" x="3819" y="-240.5" font-family="Helvetica,sans-Serif" font-size="10.00">/home/vilon_tao/gaia/sdk/include/gaia/usb/UsbManager.h</text>
</a>
</g>
<!-- Node1&#45;&gt;Node39 -->
<g id="edge82" class="edge"><title>Node1&#45;&gt;Node39</title>
<path fill="none" stroke="midnightblue" d="M2726.75,-296.531C2933.77,-289.519 3335.73,-274.577 3677,-254 3679.96,-253.821 3682.96,-253.635 3685.98,-253.443"/>
<polygon fill="midnightblue" stroke="midnightblue" points="2726.61,-293.033 2716.74,-296.869 2726.85,-300.029 2726.61,-293.033"/>
</g>
<!-- Node7 -->
<g id="node13" class="node"><title>Node7</title>
<a xlink:href="../../d5/d17/_canvas_8h.html" target="_top" xlink:title="/home/vilon_tao/gaia/sdk/include/gaia/graphics/Canvas.h">
<polygon fill="white" stroke="black" points="527.5,-174.5 527.5,-195.5 792.5,-195.5 792.5,-174.5 527.5,-174.5"/>
<text text-anchor="middle" x="660" y="-182.5" font-family="Helvetica,sans-Serif" font-size="10.00">/home/vilon_tao/gaia/sdk/include/gaia/graphics/Canvas.h</text>
</a>
</g>
<!-- Node6&#45;&gt;Node7 -->
<g id="edge12" class="edge"><title>Node6&#45;&gt;Node7</title>
<path fill="none" stroke="midnightblue" d="M2440.22,-231.985C1817.4,-200.738 1087.16,-189.7 792.741,-186.312"/>
<polygon fill="midnightblue" stroke="midnightblue" points="2440.13,-235.485 2450.3,-232.493 2440.49,-228.494 2440.13,-235.485"/>
</g>
<!-- Node14 -->
<g id="node28" class="node"><title>Node14</title>
<a xlink:href="../../d7/dc0/_drawer_8h.html" target="_top" xlink:title="/home/vilon_tao/gaia/sdk/include/gaia/graphics/Drawer.h">
<polygon fill="white" stroke="black" points="2109.5,-174.5 2109.5,-195.5 2372.5,-195.5 2372.5,-174.5 2109.5,-174.5"/>
<text text-anchor="middle" x="2241" y="-182.5" font-family="Helvetica,sans-Serif" font-size="10.00">/home/vilon_tao/gaia/sdk/include/gaia/graphics/Drawer.h</text>
</a>
</g>
<!-- Node6&#45;&gt;Node14 -->
<g id="edge28" class="edge"><title>Node6&#45;&gt;Node14</title>
<path fill="none" stroke="midnightblue" d="M2514.98,-230.794C2452.46,-220.345 2363.38,-205.456 2303.96,-195.523"/>
<polygon fill="midnightblue" stroke="midnightblue" points="2514.72,-234.3 2525.16,-232.497 2515.87,-227.396 2514.72,-234.3"/>
</g>
<!-- Node28 -->
<g id="node57" class="node"><title>Node28</title>
<a xlink:href="../../d8/d37/_image_widget_8h.html" target="_top" xlink:title="/home/vilon_tao/gaia/sdk/include/gaia/ui/ImageWidget.h">
<polygon fill="white" stroke="black" points="3508,-116.5 3508,-137.5 3768,-137.5 3768,-116.5 3508,-116.5"/>
<text text-anchor="middle" x="3638" y="-124.5" font-family="Helvetica,sans-Serif" font-size="10.00">/home/vilon_tao/gaia/sdk/include/gaia/ui/ImageWidget.h</text>
</a>
</g>
<!-- Node6&#45;&gt;Node28 -->
<g id="edge70" class="edge"><title>Node6&#45;&gt;Node28</title>
<path fill="none" stroke="midnightblue" d="M2483.4,-230.579C2433.65,-220.651 2390.6,-203.364 2419,-174 2460.74,-130.849 3439.06,-141.369 3499,-138 3501.9,-137.837 3504.83,-137.665 3507.79,-137.485"/>
<polygon fill="midnightblue" stroke="midnightblue" points="2482.94,-234.054 2493.42,-232.468 2484.24,-227.176 2482.94,-234.054"/>
</g>
<!-- Node32 -->
<g id="node65" class="node"><title>Node32</title>
<a xlink:href="../../db/d14/_porter_duff_color_filter_8h.html" target="_top" xlink:title="/home/vilon_tao/gaia/sdk/include/gaia/graphics/PorterDuffColorFilter.h">
<polygon fill="white" stroke="black" points="2427.5,-174.5 2427.5,-195.5 2748.5,-195.5 2748.5,-174.5 2427.5,-174.5"/>
<text text-anchor="middle" x="2588" y="-182.5" font-family="Helvetica,sans-Serif" font-size="10.00">/home/vilon_tao/gaia/sdk/include/gaia/graphics/PorterDuffColorFilter.h</text>
</a>
</g>
<!-- Node6&#45;&gt;Node32 -->
<g id="edge66" class="edge"><title>Node6&#45;&gt;Node32</title>
<path fill="none" stroke="midnightblue" d="M2588,-222.191C2588,-213.168 2588,-202.994 2588,-195.571"/>
<polygon fill="midnightblue" stroke="midnightblue" points="2584.5,-222.362 2588,-232.362 2591.5,-222.362 2584.5,-222.362"/>
</g>
<!-- Node33 -->
<g id="node67" class="node"><title>Node33</title>
<a xlink:href="../../db/d9f/_porter_duff_xfermode_8h.html" target="_top" xlink:title="/home/vilon_tao/gaia/sdk/include/gaia/graphics/PorterDuffXfermode.h">
<polygon fill="white" stroke="black" points="2766,-174.5 2766,-195.5 3084,-195.5 3084,-174.5 2766,-174.5"/>
<text text-anchor="middle" x="2925" y="-182.5" font-family="Helvetica,sans-Serif" font-size="10.00">/home/vilon_tao/gaia/sdk/include/gaia/graphics/PorterDuffXfermode.h</text>
</a>
</g>
<!-- Node6&#45;&gt;Node33 -->
<g id="edge68" class="edge"><title>Node6&#45;&gt;Node33</title>
<path fill="none" stroke="midnightblue" d="M2658.92,-230.794C2719.64,-220.345 2806.14,-205.456 2863.86,-195.523"/>
<polygon fill="midnightblue" stroke="midnightblue" points="2658.29,-227.351 2649.03,-232.497 2659.48,-234.25 2658.29,-227.351"/>
</g>
<!-- Node34 -->
<g id="node70" class="node"><title>Node34</title>
<a xlink:href="../../d7/d9d/_remote_widget_8h.html" target="_top" xlink:title="/home/vilon_tao/gaia/sdk/include/gaia/ui/RemoteWidget.h">
<polygon fill="white" stroke="black" points="3101.5,-174.5 3101.5,-195.5 3368.5,-195.5 3368.5,-174.5 3101.5,-174.5"/>
<text text-anchor="middle" x="3235" y="-182.5" font-family="Helvetica,sans-Serif" font-size="10.00">/home/vilon_tao/gaia/sdk/include/gaia/ui/RemoteWidget.h</text>
</a>
</g>
<!-- Node6&#45;&gt;Node34 -->
<g id="edge72" class="edge"><title>Node6&#45;&gt;Node34</title>
<path fill="none" stroke="midnightblue" d="M2715.24,-231.593C2832.13,-221.115 3003.95,-205.712 3117.61,-195.523"/>
<polygon fill="midnightblue" stroke="midnightblue" points="2714.81,-228.118 2705.17,-232.497 2715.44,-235.09 2714.81,-228.118"/>
</g>
<!-- Node8 -->
<g id="node15" class="node"><title>Node8</title>
<a xlink:href="../../d6/d48/_layout_8h.html" target="_top" xlink:title="/home/vilon_tao/gaia/sdk/include/gaia/text/Layout.h">
<polygon fill="white" stroke="black" points="300,-116.5 300,-137.5 540,-137.5 540,-116.5 300,-116.5"/>
<text text-anchor="middle" x="420" y="-124.5" font-family="Helvetica,sans-Serif" font-size="10.00">/home/vilon_tao/gaia/sdk/include/gaia/text/Layout.h</text>
</a>
</g>
<!-- Node7&#45;&gt;Node8 -->
<g id="edge14" class="edge"><title>Node7&#45;&gt;Node8</title>
<path fill="none" stroke="midnightblue" d="M606.796,-172.142C563.722,-161.733 503.798,-147.251 463.544,-137.523"/>
<polygon fill="midnightblue" stroke="midnightblue" points="605.995,-175.55 616.538,-174.497 607.64,-168.745 605.995,-175.55"/>
</g>
<!-- Node11 -->
<g id="node21" class="node"><title>Node11</title>
<a xlink:href="../../dd/d32/_dynamic_drawer_span_8h.html" target="_top" xlink:title="/home/vilon_tao/gaia/sdk/include/gaia/text/style/DynamicDrawerSpan.h">
<polygon fill="white" stroke="black" points="589,-58.5 589,-79.5 917,-79.5 917,-58.5 589,-58.5"/>
<text text-anchor="middle" x="753" y="-66.5" font-family="Helvetica,sans-Serif" font-size="10.00">/home/vilon_tao/gaia/sdk/include/gaia/text/style/DynamicDrawerSpan.h</text>
</a>
</g>
<!-- Node7&#45;&gt;Node11 -->
<g id="edge20" class="edge"><title>Node7&#45;&gt;Node11</title>
<path fill="none" stroke="midnightblue" d="M624.51,-169.94C598.858,-156.867 571.262,-136.813 587,-116 599.33,-99.6945 645.706,-87.4149 686.315,-79.5038"/>
<polygon fill="midnightblue" stroke="midnightblue" points="623.262,-173.225 633.788,-174.429 626.311,-166.924 623.262,-173.225"/>
</g>
<!-- Node13 -->
<g id="node25" class="node"><title>Node13</title>
<a xlink:href="../../d7/d25/_replacement_span_8h.html" target="_top" xlink:title="/home/vilon_tao/gaia/sdk/include/gaia/text/style/ReplacementSpan.h">
<polygon fill="white" stroke="black" points="595.5,-116.5 595.5,-137.5 910.5,-137.5 910.5,-116.5 595.5,-116.5"/>
<text text-anchor="middle" x="753" y="-124.5" font-family="Helvetica,sans-Serif" font-size="10.00">/home/vilon_tao/gaia/sdk/include/gaia/text/style/ReplacementSpan.h</text>
</a>
</g>
<!-- Node7&#45;&gt;Node13 -->
<g id="edge24" class="edge"><title>Node7&#45;&gt;Node13</title>
<path fill="none" stroke="midnightblue" d="M685.941,-168.821C701.96,-158.831 722.055,-146.299 736.051,-137.571"/>
<polygon fill="midnightblue" stroke="midnightblue" points="683.691,-166.1 677.058,-174.362 687.395,-172.04 683.691,-166.1"/>
</g>
<!-- Node9 -->
<g id="node17" class="node"><title>Node9</title>
<a xlink:href="../../d1/dc1/_dynamic_layout_8h.html" target="_top" xlink:title="/home/vilon_tao/gaia/sdk/include/gaia/text/DynamicLayout.h">
<polygon fill="white" stroke="black" points="-0.5,-58.5 -0.5,-79.5 278.5,-79.5 278.5,-58.5 -0.5,-58.5"/>
<text text-anchor="middle" x="139" y="-66.5" font-family="Helvetica,sans-Serif" font-size="10.00">/home/vilon_tao/gaia/sdk/include/gaia/text/DynamicLayout.h</text>
</a>
</g>
<!-- Node8&#45;&gt;Node9 -->
<g id="edge16" class="edge"><title>Node8&#45;&gt;Node9</title>
<path fill="none" stroke="midnightblue" d="M359.293,-114.47C308.754,-104.038 237.609,-89.3535 189.982,-79.5231"/>
<polygon fill="midnightblue" stroke="midnightblue" points="358.612,-117.903 369.113,-116.497 360.027,-111.047 358.612,-117.903"/>
</g>
<!-- Node10 -->
<g id="node19" class="node"><title>Node10</title>
<a xlink:href="../../df/d0d/_static_layout_8h.html" target="_top" xlink:title="/home/vilon_tao/gaia/sdk/include/gaia/text/StaticLayout.h">
<polygon fill="white" stroke="black" points="296,-58.5 296,-79.5 562,-79.5 562,-58.5 296,-58.5"/>
<text text-anchor="middle" x="429" y="-66.5" font-family="Helvetica,sans-Serif" font-size="10.00">/home/vilon_tao/gaia/sdk/include/gaia/text/StaticLayout.h</text>
</a>
</g>
<!-- Node8&#45;&gt;Node10 -->
<g id="edge18" class="edge"><title>Node8&#45;&gt;Node10</title>
<path fill="none" stroke="midnightblue" d="M423.229,-106.191C424.629,-97.1684 426.208,-86.9941 427.36,-79.5707"/>
<polygon fill="midnightblue" stroke="midnightblue" points="419.726,-105.943 421.651,-116.362 426.643,-107.017 419.726,-105.943"/>
</g>
<!-- Node12 -->
<g id="node23" class="node"><title>Node12</title>
<a xlink:href="../../da/d07/_image_span_8h.html" target="_top" xlink:title="/home/vilon_tao/gaia/sdk/include/gaia/text/style/ImageSpan.h">
<polygon fill="white" stroke="black" points="611,-0.5 611,-21.5 895,-21.5 895,-0.5 611,-0.5"/>
<text text-anchor="middle" x="753" y="-8.5" font-family="Helvetica,sans-Serif" font-size="10.00">/home/vilon_tao/gaia/sdk/include/gaia/text/style/ImageSpan.h</text>
</a>
</g>
<!-- Node11&#45;&gt;Node12 -->
<g id="edge22" class="edge"><title>Node11&#45;&gt;Node12</title>
<path fill="none" stroke="midnightblue" d="M753,-48.1906C753,-39.1684 753,-28.9941 753,-21.5707"/>
<polygon fill="midnightblue" stroke="midnightblue" points="749.5,-48.3619 753,-58.3619 756.5,-48.3619 749.5,-48.3619"/>
</g>
<!-- Node13&#45;&gt;Node11 -->
<g id="edge26" class="edge"><title>Node13&#45;&gt;Node11</title>
<path fill="none" stroke="midnightblue" d="M753,-106.191C753,-97.1684 753,-86.9941 753,-79.5707"/>
<polygon fill="midnightblue" stroke="midnightblue" points="749.5,-106.362 753,-116.362 756.5,-106.362 749.5,-106.362"/>
</g>
<!-- Node14&#45;&gt;Node11 -->
<g id="edge56" class="edge"><title>Node14&#45;&gt;Node11</title>
<path fill="none" stroke="midnightblue" d="M2098.84,-183.671C1787.42,-180.202 1064.16,-168.894 957,-138 938.249,-132.594 936.972,-123.606 919,-116 881.072,-99.9486 835.998,-87.5811 802.397,-79.5707"/>
<polygon fill="midnightblue" stroke="midnightblue" points="2099.25,-187.176 2109.29,-183.786 2099.33,-180.176 2099.25,-187.176"/>
</g>
<!-- Node15 -->
<g id="node30" class="node"><title>Node15</title>
<a xlink:href="../../de/d5a/_animated_rotate_drawer_8h.html" target="_top" xlink:title="/home/vilon_tao/gaia/sdk/include/gaia/graphics/AnimatedRotateDrawer.h">
<polygon fill="white" stroke="black" points="965.5,-116.5 965.5,-137.5 1298.5,-137.5 1298.5,-116.5 965.5,-116.5"/>
<text text-anchor="middle" x="1132" y="-124.5" font-family="Helvetica,sans-Serif" font-size="10.00">/home/vilon_tao/gaia/sdk/include/gaia/graphics/AnimatedRotateDrawer.h</text>
</a>
</g>
<!-- Node14&#45;&gt;Node15 -->
<g id="edge30" class="edge"><title>Node14&#45;&gt;Node15</title>
<path fill="none" stroke="midnightblue" d="M2099.27,-178.42C1916.23,-169.795 1587.8,-153.889 1307,-138 1304.11,-137.837 1301.2,-137.67 1298.26,-137.501"/>
<polygon fill="midnightblue" stroke="midnightblue" points="2099.34,-181.927 2109.5,-178.901 2099.67,-174.935 2099.34,-181.927"/>
</g>
<!-- Node16 -->
<g id="node32" class="node"><title>Node16</title>
<a xlink:href="../../d1/d72/_bitmap_drawer_8h.html" target="_top" xlink:title="/home/vilon_tao/gaia/sdk/include/gaia/graphics/BitmapDrawer.h">
<polygon fill="white" stroke="black" points="1315.5,-116.5 1315.5,-137.5 1608.5,-137.5 1608.5,-116.5 1315.5,-116.5"/>
<text text-anchor="middle" x="1462" y="-124.5" font-family="Helvetica,sans-Serif" font-size="10.00">/home/vilon_tao/gaia/sdk/include/gaia/graphics/BitmapDrawer.h</text>
</a>
</g>
<!-- Node14&#45;&gt;Node16 -->
<g id="edge32" class="edge"><title>Node14&#45;&gt;Node16</title>
<path fill="none" stroke="midnightblue" d="M2099.29,-174.449C1958.49,-163.966 1743.82,-147.983 1603.2,-137.513"/>
<polygon fill="midnightblue" stroke="midnightblue" points="2099.06,-177.942 2109.29,-175.194 2099.58,-170.961 2099.06,-177.942"/>
</g>
<!-- Node18 -->
<g id="node36" class="node"><title>Node18</title>
<a xlink:href="../../d3/d10/_color_drawer_8h.html" target="_top" xlink:title="/home/vilon_tao/gaia/sdk/include/gaia/graphics/ColorDrawer.h">
<polygon fill="white" stroke="black" points="1626,-116.5 1626,-137.5 1912,-137.5 1912,-116.5 1626,-116.5"/>
<text text-anchor="middle" x="1769" y="-124.5" font-family="Helvetica,sans-Serif" font-size="10.00">/home/vilon_tao/gaia/sdk/include/gaia/graphics/ColorDrawer.h</text>
</a>
</g>
<!-- Node14&#45;&gt;Node18 -->
<g id="edge36" class="edge"><title>Node14&#45;&gt;Node18</title>
<path fill="none" stroke="midnightblue" d="M2145.59,-173.276C2060.39,-162.806 1936.72,-147.61 1854.64,-137.523"/>
<polygon fill="midnightblue" stroke="midnightblue" points="2145.17,-176.751 2155.52,-174.497 2146.03,-169.803 2145.17,-176.751"/>
</g>
<!-- Node19 -->
<g id="node38" class="node"><title>Node19</title>
<a xlink:href="../../d5/d17/_drawer_container_8h.html" target="_top" xlink:title="/home/vilon_tao/gaia/sdk/include/gaia/graphics/DrawerContainer.h">
<polygon fill="white" stroke="black" points="1929.5,-116.5 1929.5,-137.5 2234.5,-137.5 2234.5,-116.5 1929.5,-116.5"/>
<text text-anchor="middle" x="2082" y="-124.5" font-family="Helvetica,sans-Serif" font-size="10.00">/home/vilon_tao/gaia/sdk/include/gaia/graphics/DrawerContainer.h</text>
</a>
</g>
<!-- Node14&#45;&gt;Node19 -->
<g id="edge38" class="edge"><title>Node14&#45;&gt;Node19</title>
<path fill="none" stroke="midnightblue" d="M2202.65,-171.009C2174.39,-160.702 2136.56,-146.903 2110.85,-137.523"/>
<polygon fill="midnightblue" stroke="midnightblue" points="2201.61,-174.358 2212.21,-174.497 2204.01,-167.782 2201.61,-174.358"/>
</g>
<!-- Node23 -->
<g id="node46" class="node"><title>Node23</title>
<a xlink:href="../../d6/d34/_gradient_drawer_8h.html" target="_top" xlink:title="/home/vilon_tao/gaia/sdk/include/gaia/graphics/GradientDrawer.h">
<polygon fill="white" stroke="black" points="2251.5,-116.5 2251.5,-137.5 2550.5,-137.5 2550.5,-116.5 2251.5,-116.5"/>
<text text-anchor="middle" x="2401" y="-124.5" font-family="Helvetica,sans-Serif" font-size="10.00">/home/vilon_tao/gaia/sdk/include/gaia/graphics/GradientDrawer.h</text>
</a>
</g>
<!-- Node14&#45;&gt;Node23 -->
<g id="edge46" class="edge"><title>Node14&#45;&gt;Node23</title>
<path fill="none" stroke="midnightblue" d="M2279.59,-171.009C2308.03,-160.702 2346.1,-146.903 2371.97,-137.523"/>
<polygon fill="midnightblue" stroke="midnightblue" points="2278.18,-167.798 2269.97,-174.497 2280.57,-174.379 2278.18,-167.798"/>
</g>
<!-- Node24 -->
<g id="node48" class="node"><title>Node24</title>
<a xlink:href="../../d7/d00/_layer_drawer_8h.html" target="_top" xlink:title="/home/vilon_tao/gaia/sdk/include/gaia/graphics/LayerDrawer.h">
<polygon fill="white" stroke="black" points="2567.5,-116.5 2567.5,-137.5 2854.5,-137.5 2854.5,-116.5 2567.5,-116.5"/>
<text text-anchor="middle" x="2711" y="-124.5" font-family="Helvetica,sans-Serif" font-size="10.00">/home/vilon_tao/gaia/sdk/include/gaia/graphics/LayerDrawer.h</text>
</a>
</g>
<!-- Node14&#45;&gt;Node24 -->
<g id="edge48" class="edge"><title>Node14&#45;&gt;Node24</title>
<path fill="none" stroke="midnightblue" d="M2336.26,-173.244C2421.1,-162.775 2544.07,-147.599 2625.73,-137.523"/>
<polygon fill="midnightblue" stroke="midnightblue" points="2335.61,-169.798 2326.11,-174.497 2336.47,-176.745 2335.61,-169.798"/>
</g>
<!-- Node25 -->
<g id="node50" class="node"><title>Node25</title>
<a xlink:href="../../d7/d6a/_nine_patch_drawer_8h.html" target="_top" xlink:title="/home/vilon_tao/gaia/sdk/include/gaia/graphics/NinePatchDrawer.h">
<polygon fill="white" stroke="black" points="2872,-116.5 2872,-137.5 3180,-137.5 3180,-116.5 2872,-116.5"/>
<text text-anchor="middle" x="3026" y="-124.5" font-family="Helvetica,sans-Serif" font-size="10.00">/home/vilon_tao/gaia/sdk/include/gaia/graphics/NinePatchDrawer.h</text>
</a>
</g>
<!-- Node14&#45;&gt;Node25 -->
<g id="edge50" class="edge"><title>Node14&#45;&gt;Node25</title>
<path fill="none" stroke="midnightblue" d="M2382.68,-174.248C2383.79,-174.165 2384.9,-174.082 2386,-174 2556.12,-161.3 2751.71,-146.978 2881.43,-137.517"/>
<polygon fill="midnightblue" stroke="midnightblue" points="2382.3,-170.767 2372.59,-175.004 2382.82,-177.747 2382.3,-170.767"/>
</g>
<!-- Node27 -->
<g id="node54" class="node"><title>Node27</title>
<a xlink:href="../../d5/deb/_rotate_drawer_8h.html" target="_top" xlink:title="/home/vilon_tao/gaia/sdk/include/gaia/graphics/RotateDrawer.h">
<polygon fill="white" stroke="black" points="3198,-116.5 3198,-137.5 3490,-137.5 3490,-116.5 3198,-116.5"/>
<text text-anchor="middle" x="3344" y="-124.5" font-family="Helvetica,sans-Serif" font-size="10.00">/home/vilon_tao/gaia/sdk/include/gaia/graphics/RotateDrawer.h</text>
</a>
</g>
<!-- Node14&#45;&gt;Node27 -->
<g id="edge54" class="edge"><title>Node14&#45;&gt;Node27</title>
<path fill="none" stroke="midnightblue" d="M2382.68,-174.202C2383.79,-174.134 2384.9,-174.067 2386,-174 2742.6,-152.485 2832.35,-158.646 3189,-138 3191.96,-137.828 3194.96,-137.651 3197.97,-137.47"/>
<polygon fill="midnightblue" stroke="midnightblue" points="2382.34,-170.717 2372.58,-174.84 2382.78,-177.703 2382.34,-170.717"/>
</g>
<!-- Node14&#45;&gt;Node28 -->
<g id="edge58" class="edge"><title>Node14&#45;&gt;Node28</title>
<path fill="none" stroke="midnightblue" d="M2382.68,-174.182C2383.79,-174.12 2384.9,-174.06 2386,-174 2880.2,-147.274 3004.84,-165.53 3499,-138 3501.9,-137.838 3504.83,-137.668 3507.79,-137.489"/>
<polygon fill="midnightblue" stroke="midnightblue" points="2382.35,-170.695 2372.57,-174.768 2382.76,-177.683 2382.35,-170.695"/>
</g>
<!-- Node17 -->
<g id="node34" class="node"><title>Node17</title>
<a xlink:href="../../db/d24/_bitmap_drawer_plus_8h.html" target="_top" xlink:title="/home/vilon_tao/gaia/sdk/include/gaia/graphics/BitmapDrawerPlus.h">
<polygon fill="white" stroke="black" points="1290.5,-58.5 1290.5,-79.5 1603.5,-79.5 1603.5,-58.5 1290.5,-58.5"/>
<text text-anchor="middle" x="1447" y="-66.5" font-family="Helvetica,sans-Serif" font-size="10.00">/home/vilon_tao/gaia/sdk/include/gaia/graphics/BitmapDrawerPlus.h</text>
</a>
</g>
<!-- Node16&#45;&gt;Node17 -->
<g id="edge34" class="edge"><title>Node16&#45;&gt;Node17</title>
<path fill="none" stroke="midnightblue" d="M1456.7,-106.488C1454.34,-97.3924 1451.67,-87.0756 1449.73,-79.5707"/>
<polygon fill="midnightblue" stroke="midnightblue" points="1453.36,-107.557 1459.25,-116.362 1460.13,-105.804 1453.36,-107.557"/>
</g>
<!-- Node20 -->
<g id="node40" class="node"><title>Node20</title>
<a xlink:href="../../d8/d2f/_animation_drawer_8h.html" target="_top" xlink:title="/home/vilon_tao/gaia/sdk/include/gaia/graphics/AnimationDrawer.h">
<polygon fill="white" stroke="black" points="1621,-58.5 1621,-79.5 1927,-79.5 1927,-58.5 1621,-58.5"/>
<text text-anchor="middle" x="1774" y="-66.5" font-family="Helvetica,sans-Serif" font-size="10.00">/home/vilon_tao/gaia/sdk/include/gaia/graphics/AnimationDrawer.h</text>
</a>
</g>
<!-- Node19&#45;&gt;Node20 -->
<g id="edge40" class="edge"><title>Node19&#45;&gt;Node20</title>
<path fill="none" stroke="midnightblue" d="M2016.15,-114.6C1960.72,-104.161 1882.3,-89.3945 1829.88,-79.5231"/>
<polygon fill="midnightblue" stroke="midnightblue" points="2015.75,-118.086 2026.22,-116.497 2017.04,-111.206 2015.75,-118.086"/>
</g>
<!-- Node21 -->
<g id="node42" class="node"><title>Node21</title>
<a xlink:href="../../d4/da1/_level_list_drawer_8h.html" target="_top" xlink:title="/home/vilon_tao/gaia/sdk/include/gaia/graphics/LevelListDrawer.h">
<polygon fill="white" stroke="black" points="1945,-58.5 1945,-79.5 2247,-79.5 2247,-58.5 1945,-58.5"/>
<text text-anchor="middle" x="2096" y="-66.5" font-family="Helvetica,sans-Serif" font-size="10.00">/home/vilon_tao/gaia/sdk/include/gaia/graphics/LevelListDrawer.h</text>
</a>
</g>
<!-- Node19&#45;&gt;Node21 -->
<g id="edge42" class="edge"><title>Node19&#45;&gt;Node21</title>
<path fill="none" stroke="midnightblue" d="M2086.95,-106.488C2089.15,-97.3924 2091.64,-87.0756 2093.45,-79.5707"/>
<polygon fill="midnightblue" stroke="midnightblue" points="2083.51,-105.82 2084.57,-116.362 2090.32,-107.462 2083.51,-105.82"/>
</g>
<!-- Node22 -->
<g id="node44" class="node"><title>Node22</title>
<a xlink:href="../../d2/d15/_state_list_drawer_8h.html" target="_top" xlink:title="/home/vilon_tao/gaia/sdk/include/gaia/graphics/StateListDrawer.h">
<polygon fill="white" stroke="black" points="2265,-58.5 2265,-79.5 2567,-79.5 2567,-58.5 2265,-58.5"/>
<text text-anchor="middle" x="2416" y="-66.5" font-family="Helvetica,sans-Serif" font-size="10.00">/home/vilon_tao/gaia/sdk/include/gaia/graphics/StateListDrawer.h</text>
</a>
</g>
<!-- Node19&#45;&gt;Node22 -->
<g id="edge44" class="edge"><title>Node19&#45;&gt;Node22</title>
<path fill="none" stroke="midnightblue" d="M2152.66,-114.73C2212.82,-104.283 2298.32,-89.4354 2355.4,-79.5231"/>
<polygon fill="midnightblue" stroke="midnightblue" points="2151.74,-111.337 2142.48,-116.497 2152.94,-118.234 2151.74,-111.337"/>
</g>
<!-- Node26 -->
<g id="node52" class="node"><title>Node26</title>
<a xlink:href="../../d5/d93/_nine_patch_drawer_plus_8h.html" target="_top" xlink:title="/home/vilon_tao/gaia/sdk/include/gaia/graphics/NinePatchDrawerPlus.h">
<polygon fill="white" stroke="black" points="2862,-58.5 2862,-79.5 3190,-79.5 3190,-58.5 2862,-58.5"/>
<text text-anchor="middle" x="3026" y="-66.5" font-family="Helvetica,sans-Serif" font-size="10.00">/home/vilon_tao/gaia/sdk/include/gaia/graphics/NinePatchDrawerPlus.h</text>
</a>
</g>
<!-- Node25&#45;&gt;Node26 -->
<g id="edge52" class="edge"><title>Node25&#45;&gt;Node26</title>
<path fill="none" stroke="midnightblue" d="M3026,-106.191C3026,-97.1684 3026,-86.9941 3026,-79.5707"/>
<polygon fill="midnightblue" stroke="midnightblue" points="3022.5,-106.362 3026,-116.362 3029.5,-106.362 3022.5,-106.362"/>
</g>
<!-- Node29 -->
<g id="node59" class="node"><title>Node29</title>
<a xlink:href="../../de/d70/_image_button_8h.html" target="_top" xlink:title="/home/vilon_tao/gaia/sdk/include/gaia/ui/ImageButton.h">
<polygon fill="white" stroke="black" points="3218.5,-58.5 3218.5,-79.5 3475.5,-79.5 3475.5,-58.5 3218.5,-58.5"/>
<text text-anchor="middle" x="3347" y="-66.5" font-family="Helvetica,sans-Serif" font-size="10.00">/home/vilon_tao/gaia/sdk/include/gaia/ui/ImageButton.h</text>
</a>
</g>
<!-- Node28&#45;&gt;Node29 -->
<g id="edge60" class="edge"><title>Node28&#45;&gt;Node29</title>
<path fill="none" stroke="midnightblue" d="M3575.46,-114.535C3523.1,-104.099 3449.22,-89.374 3399.8,-79.5231"/>
<polygon fill="midnightblue" stroke="midnightblue" points="3574.81,-117.974 3585.3,-116.497 3576.18,-111.109 3574.81,-117.974"/>
</g>
<!-- Node30 -->
<g id="node61" class="node"><title>Node30</title>
<a xlink:href="../../d1/de8/_quick_contact_badge_8h.html" target="_top" xlink:title="/home/vilon_tao/gaia/sdk/include/gaia/ui/QuickContactBadge.h">
<polygon fill="white" stroke="black" points="3493,-58.5 3493,-79.5 3783,-79.5 3783,-58.5 3493,-58.5"/>
<text text-anchor="middle" x="3638" y="-66.5" font-family="Helvetica,sans-Serif" font-size="10.00">/home/vilon_tao/gaia/sdk/include/gaia/ui/QuickContactBadge.h</text>
</a>
</g>
<!-- Node28&#45;&gt;Node30 -->
<g id="edge62" class="edge"><title>Node28&#45;&gt;Node30</title>
<path fill="none" stroke="midnightblue" d="M3638,-106.191C3638,-97.1684 3638,-86.9941 3638,-79.5707"/>
<polygon fill="midnightblue" stroke="midnightblue" points="3634.5,-106.362 3638,-116.362 3641.5,-106.362 3634.5,-106.362"/>
</g>
<!-- Node31 -->
<g id="node63" class="node"><title>Node31</title>
<a xlink:href="../../db/daf/_simple_cursor_list_item_provider_8h.html" target="_top" xlink:title="/home/vilon_tao/gaia/sdk/include/gaia/ui/SimpleCursorListItemProvider.h">
<polygon fill="white" stroke="black" points="3801,-58.5 3801,-79.5 4133,-79.5 4133,-58.5 3801,-58.5"/>
<text text-anchor="middle" x="3967" y="-66.5" font-family="Helvetica,sans-Serif" font-size="10.00">/home/vilon_tao/gaia/sdk/include/gaia/ui/SimpleCursorListItemProvider.h</text>
</a>
</g>
<!-- Node28&#45;&gt;Node31 -->
<g id="edge64" class="edge"><title>Node28&#45;&gt;Node31</title>
<path fill="none" stroke="midnightblue" d="M3707.6,-114.73C3766.86,-104.283 3851.08,-89.4354 3907.31,-79.5231"/>
<polygon fill="midnightblue" stroke="midnightblue" points="3706.82,-111.314 3697.58,-116.497 3708.04,-118.207 3706.82,-111.314"/>
</g>
<!-- Node38 -->
<g id="node78" class="node"><title>Node38</title>
<a xlink:href="../../d4/da1/_auto_complete_edit_widget_8h.html" target="_top" xlink:title="/home/vilon_tao/gaia/sdk/include/gaia/ui/AutoCompleteEditWidget.h">
<polygon fill="white" stroke="black" points="3386,-174.5 3386,-195.5 3698,-195.5 3698,-174.5 3386,-174.5"/>
<text text-anchor="middle" x="3542" y="-182.5" font-family="Helvetica,sans-Serif" font-size="10.00">/home/vilon_tao/gaia/sdk/include/gaia/ui/AutoCompleteEditWidget.h</text>
</a>
</g>
<!-- Node37&#45;&gt;Node38 -->
<g id="edge80" class="edge"><title>Node37&#45;&gt;Node38</title>
<path fill="none" stroke="midnightblue" d="M3524.27,-223.079C3528.57,-213.842 3533.51,-203.239 3537.08,-195.571"/>
<polygon fill="midnightblue" stroke="midnightblue" points="3521,-221.819 3519.95,-232.362 3527.35,-224.773 3521,-221.819"/>
</g>
</g>
</svg>
