<?xml version="1.0" encoding="UTF-8" standalone="no"?>
<!DOCTYPE svg PUBLIC "-//W3C//DTD SVG 1.1//EN"
 "http://www.w3.org/Graphics/SVG/1.1/DTD/svg11.dtd">
<!-- Generated by graphviz version 2.26.3 (20100126.1600)
 -->
<!-- Title: G Pages: 1 -->
<svg width="1566pt" height="262pt"
 viewBox="0.00 0.00 1566.00 262.00" xmlns="http://www.w3.org/2000/svg" xmlns:xlink="http://www.w3.org/1999/xlink">
<g id="graph1" class="graph" transform="scale(1 1) rotate(0) translate(4 258)">
<title>G</title>
<polygon fill="white" stroke="white" points="-4,5 -4,-258 1563,-258 1563,5 -4,5"/>
<!-- Node1 -->
<g id="node1" class="node"><title>Node1</title>
<polygon fill="#bfbfbf" stroke="black" points="780.5,-232.5 780.5,-253.5 1017.5,-253.5 1017.5,-232.5 780.5,-232.5"/>
<text text-anchor="middle" x="899" y="-240.5" font-family="Helvetica,sans-Serif" font-size="10.00">/home/vilon_tao/gaia/sdk/include/gaia/ui/HintBox.h</text>
</g>
<!-- Node2 -->
<g id="node3" class="node"><title>Node2</title>
<a xlink:href="../../db/db5/_string_8h.html" target="_top" xlink:title="gaia/base/String.h">
<polygon fill="white" stroke="black" points="465.5,-116.5 465.5,-137.5 560.5,-137.5 560.5,-116.5 465.5,-116.5"/>
<text text-anchor="middle" x="513" y="-124.5" font-family="Helvetica,sans-Serif" font-size="10.00">gaia/base/String.h</text>
</a>
</g>
<!-- Node1&#45;&gt;Node2 -->
<g id="edge2" class="edge"><title>Node1&#45;&gt;Node2</title>
<path fill="none" stroke="midnightblue" d="M844.909,-232.413C803.939,-223.914 746.457,-210.957 697,-196 644.017,-179.976 584.285,-156.548 547.641,-141.537"/>
<polygon fill="midnightblue" stroke="midnightblue" points="548.522,-138.115 537.942,-137.54 545.854,-144.587 548.522,-138.115"/>
</g>
<!-- Node7 -->
<g id="node14" class="node"><title>Node7</title>
<a xlink:href="../../db/ded/_page_8h.html" target="_top" xlink:title="gaia/core/Page.h">
<polygon fill="white" stroke="black" points="1103,-174.5 1103,-195.5 1193,-195.5 1193,-174.5 1103,-174.5"/>
<text text-anchor="middle" x="1148" y="-182.5" font-family="Helvetica,sans-Serif" font-size="10.00">gaia/core/Page.h</text>
</a>
</g>
<!-- Node1&#45;&gt;Node7 -->
<g id="edge14" class="edge"><title>Node1&#45;&gt;Node7</title>
<path fill="none" stroke="midnightblue" d="M944.092,-232.497C985.916,-222.755 1048.26,-208.233 1092.99,-197.813"/>
<polygon fill="midnightblue" stroke="midnightblue" points="1093.88,-201.2 1102.82,-195.523 1092.29,-194.383 1093.88,-201.2"/>
</g>
<!-- Node17 -->
<g id="node40" class="node"><title>Node17</title>
<a xlink:href="../../dd/d36/_gravity_8h.html" target="_top" xlink:title="gaia/core/vision/Gravity.h">
<polygon fill="white" stroke="black" points="1326,-174.5 1326,-195.5 1454,-195.5 1454,-174.5 1326,-174.5"/>
<text text-anchor="middle" x="1390" y="-182.5" font-family="Helvetica,sans-Serif" font-size="10.00">gaia/core/vision/Gravity.h</text>
</a>
</g>
<!-- Node1&#45;&gt;Node17 -->
<g id="edge46" class="edge"><title>Node1&#45;&gt;Node17</title>
<path fill="none" stroke="midnightblue" d="M987.916,-232.497C1081.75,-221.412 1227.97,-204.14 1315.82,-193.762"/>
<polygon fill="midnightblue" stroke="midnightblue" points="1316.46,-197.212 1325.98,-192.563 1315.64,-190.26 1316.46,-197.212"/>
</g>
<!-- Node19 -->
<g id="node45" class="node"><title>Node19</title>
<a xlink:href="../../de/d56/_scene_8h.html" target="_top" xlink:title="gaia/core/vision/Scene.h">
<polygon fill="white" stroke="black" points="706,-174.5 706,-195.5 830,-195.5 830,-174.5 706,-174.5"/>
<text text-anchor="middle" x="768" y="-182.5" font-family="Helvetica,sans-Serif" font-size="10.00">gaia/core/vision/Scene.h</text>
</a>
</g>
<!-- Node1&#45;&gt;Node19 -->
<g id="edge52" class="edge"><title>Node1&#45;&gt;Node19</title>
<path fill="none" stroke="midnightblue" d="M875.277,-232.497C854.632,-223.356 824.484,-210.008 801.401,-199.788"/>
<polygon fill="midnightblue" stroke="midnightblue" points="802.55,-196.469 791.989,-195.621 799.716,-202.87 802.55,-196.469"/>
</g>
<!-- Node20 -->
<g id="node48" class="node"><title>Node20</title>
<a xlink:href="../../d4/d75/_widget_8h.html" target="_top" xlink:title="gaia/core/vision/Widget.h">
<polygon fill="white" stroke="black" points="835.5,-116.5 835.5,-137.5 962.5,-137.5 962.5,-116.5 835.5,-116.5"/>
<text text-anchor="middle" x="899" y="-124.5" font-family="Helvetica,sans-Serif" font-size="10.00">gaia/core/vision/Widget.h</text>
</a>
</g>
<!-- Node1&#45;&gt;Node20 -->
<g id="edge56" class="edge"><title>Node1&#45;&gt;Node20</title>
<path fill="none" stroke="midnightblue" d="M899,-232.295C899,-213.131 899,-172.654 899,-147.843"/>
<polygon fill="midnightblue" stroke="midnightblue" points="902.5,-147.679 899,-137.679 895.5,-147.679 902.5,-147.679"/>
</g>
<!-- Node3 -->
<g id="node5" class="node"><title>Node3</title>
<a xlink:href="../../d7/d97/_char_sequence_8h.html" target="_top" xlink:title="gaia/base/CharSequence.h">
<polygon fill="white" stroke="black" points="0,-58.5 0,-79.5 134,-79.5 134,-58.5 0,-58.5"/>
<text text-anchor="middle" x="67" y="-66.5" font-family="Helvetica,sans-Serif" font-size="10.00">gaia/base/CharSequence.h</text>
</a>
</g>
<!-- Node2&#45;&gt;Node3 -->
<g id="edge4" class="edge"><title>Node2&#45;&gt;Node3</title>
<path fill="none" stroke="midnightblue" d="M465.363,-121.217C396.802,-112.836 266.054,-96.6313 144.367,-80.1693"/>
<polygon fill="midnightblue" stroke="midnightblue" points="144.508,-76.6563 134.128,-78.7805 143.567,-83.5928 144.508,-76.6563"/>
</g>
<!-- Node5 -->
<g id="node9" class="node"><title>Node5</title>
<a xlink:href="../../d6/d83/_hash_func_8h.html" target="_top" xlink:title="gaia/base/HashFunc.h">
<polygon fill="white" stroke="black" points="497.5,-58.5 497.5,-79.5 612.5,-79.5 612.5,-58.5 497.5,-58.5"/>
<text text-anchor="middle" x="555" y="-66.5" font-family="Helvetica,sans-Serif" font-size="10.00">gaia/base/HashFunc.h</text>
</a>
</g>
<!-- Node2&#45;&gt;Node5 -->
<g id="edge8" class="edge"><title>Node2&#45;&gt;Node5</title>
<path fill="none" stroke="midnightblue" d="M520.703,-116.362C526.446,-108.431 534.443,-97.3885 541.27,-87.9606"/>
<polygon fill="midnightblue" stroke="midnightblue" points="544.315,-89.7229 547.345,-79.5707 538.645,-85.6173 544.315,-89.7229"/>
</g>
<!-- Node6 -->
<g id="node11" class="node"><title>Node6</title>
<polygon fill="white" stroke="#bfbfbf" points="692,-0.5 692,-21.5 760,-21.5 760,-0.5 692,-0.5"/>
<text text-anchor="middle" x="726" y="-8.5" font-family="Helvetica,sans-Serif" font-size="10.00">sys/types.h</text>
</g>
<!-- Node2&#45;&gt;Node6 -->
<g id="edge12" class="edge"><title>Node2&#45;&gt;Node6</title>
<path fill="none" stroke="midnightblue" d="M503.283,-116.051C491.49,-101.395 474.834,-75.2513 489,-58 512.906,-28.8872 619.929,-17.4901 681.671,-13.2806"/>
<polygon fill="midnightblue" stroke="midnightblue" points="682.153,-16.7568 691.907,-12.6201 681.702,-9.77135 682.153,-16.7568"/>
</g>
<!-- Node4 -->
<g id="node7" class="node"><title>Node4</title>
<polygon fill="white" stroke="#bfbfbf" points="201.5,-0.5 201.5,-21.5 250.5,-21.5 250.5,-0.5 201.5,-0.5"/>
<text text-anchor="middle" x="226" y="-8.5" font-family="Helvetica,sans-Serif" font-size="10.00">stdint.h</text>
</g>
<!-- Node3&#45;&gt;Node4 -->
<g id="edge6" class="edge"><title>Node3&#45;&gt;Node4</title>
<path fill="none" stroke="midnightblue" d="M95.7937,-58.4966C122.771,-48.6557 163.119,-33.9377 191.741,-23.4972"/>
<polygon fill="midnightblue" stroke="midnightblue" points="193.139,-26.7127 201.334,-19.9976 190.74,-20.1365 193.139,-26.7127"/>
</g>
<!-- Node5&#45;&gt;Node6 -->
<g id="edge10" class="edge"><title>Node5&#45;&gt;Node6</title>
<path fill="none" stroke="midnightblue" d="M585.967,-58.4966C613.844,-49.0411 654.997,-35.0829 685.482,-24.7428"/>
<polygon fill="midnightblue" stroke="midnightblue" points="686.629,-28.0497 694.975,-21.5231 684.381,-21.4207 686.629,-28.0497"/>
</g>
<!-- Node7&#45;&gt;Node6 -->
<g id="edge44" class="edge"><title>Node7&#45;&gt;Node6</title>
<path fill="none" stroke="midnightblue" d="M1150.2,-174.249C1154.55,-149.684 1161.2,-89.1686 1129,-58 1103.55,-33.364 869.328,-18.4274 770.095,-13.1565"/>
<polygon fill="midnightblue" stroke="midnightblue" points="770.251,-9.65997 760.082,-12.6332 769.886,-16.6504 770.251,-9.65997"/>
</g>
<!-- Node8 -->
<g id="node16" class="node"><title>Node8</title>
<a xlink:href="../../d4/d7f/_vector_8h.html" target="_top" xlink:title="gaia/base/Vector.h">
<polygon fill="white" stroke="black" points="677,-116.5 677,-137.5 775,-137.5 775,-116.5 677,-116.5"/>
<text text-anchor="middle" x="726" y="-124.5" font-family="Helvetica,sans-Serif" font-size="10.00">gaia/base/Vector.h</text>
</a>
</g>
<!-- Node7&#45;&gt;Node8 -->
<g id="edge16" class="edge"><title>Node7&#45;&gt;Node8</title>
<path fill="none" stroke="midnightblue" d="M1102.84,-178.793C1026.12,-168.248 870.369,-146.842 785.088,-135.121"/>
<polygon fill="midnightblue" stroke="midnightblue" points="785.431,-131.635 775.047,-133.741 784.477,-138.57 785.431,-131.635"/>
</g>
<!-- Node13 -->
<g id="node30" class="node"><title>Node13</title>
<a xlink:href="../../d7/def/_component_name_8h.html" target="_top" xlink:title="gaia/core/ComponentName.h">
<polygon fill="white" stroke="black" points="1290,-116.5 1290,-137.5 1434,-137.5 1434,-116.5 1290,-116.5"/>
<text text-anchor="middle" x="1362" y="-124.5" font-family="Helvetica,sans-Serif" font-size="10.00">gaia/core/ComponentName.h</text>
</a>
</g>
<!-- Node7&#45;&gt;Node13 -->
<g id="edge34" class="edge"><title>Node7&#45;&gt;Node13</title>
<path fill="none" stroke="midnightblue" d="M1186.75,-174.497C1222.25,-164.877 1274.93,-150.598 1313.26,-140.209"/>
<polygon fill="midnightblue" stroke="midnightblue" points="1314.44,-143.517 1323.17,-137.523 1312.61,-136.761 1314.44,-143.517"/>
</g>
<!-- Node14 -->
<g id="node32" class="node"><title>Node14</title>
<a xlink:href="../../db/dbd/_export_8h.html" target="_top" xlink:title="gaia/core/Export.h">
<polygon fill="white" stroke="black" points="1176,-116.5 1176,-137.5 1272,-137.5 1272,-116.5 1176,-116.5"/>
<text text-anchor="middle" x="1224" y="-124.5" font-family="Helvetica,sans-Serif" font-size="10.00">gaia/core/Export.h</text>
</a>
</g>
<!-- Node7&#45;&gt;Node14 -->
<g id="edge36" class="edge"><title>Node7&#45;&gt;Node14</title>
<path fill="none" stroke="midnightblue" d="M1161.94,-174.362C1173.19,-165.777 1189.22,-153.546 1202.16,-143.664"/>
<polygon fill="midnightblue" stroke="midnightblue" points="1204.32,-146.42 1210.15,-137.571 1200.08,-140.855 1204.32,-146.42"/>
</g>
<!-- Node8&#45;&gt;Node6 -->
<g id="edge32" class="edge"><title>Node8&#45;&gt;Node6</title>
<path fill="none" stroke="midnightblue" d="M701.802,-116.308C677.796,-104.042 646.289,-82.4432 659,-58 666.016,-44.5087 678.875,-34.0833 691.467,-26.5183"/>
<polygon fill="midnightblue" stroke="midnightblue" points="693.45,-29.4209 700.5,-21.5125 690.057,-23.2982 693.45,-29.4209"/>
</g>
<!-- Node9 -->
<g id="node18" class="node"><title>Node9</title>
<a xlink:href="../../d1/d86/_type_helpers_8h.html" target="_top" xlink:title="gaia/base/TypeHelpers.h">
<polygon fill="white" stroke="black" points="317.5,-58.5 317.5,-79.5 442.5,-79.5 442.5,-58.5 317.5,-58.5"/>
<text text-anchor="middle" x="380" y="-66.5" font-family="Helvetica,sans-Serif" font-size="10.00">gaia/base/TypeHelpers.h</text>
</a>
</g>
<!-- Node8&#45;&gt;Node9 -->
<g id="edge18" class="edge"><title>Node8&#45;&gt;Node9</title>
<path fill="none" stroke="midnightblue" d="M676.794,-118.752C618.232,-108.935 519.926,-92.4558 452.617,-81.1728"/>
<polygon fill="midnightblue" stroke="midnightblue" points="452.947,-77.6794 442.506,-79.4779 451.79,-84.5831 452.947,-77.6794"/>
</g>
<!-- Node12 -->
<g id="node26" class="node"><title>Node12</title>
<a xlink:href="../../dc/da9/_vector_impl_8h.html" target="_top" xlink:title="gaia/base/VectorImpl.h">
<polygon fill="white" stroke="black" points="667.5,-58.5 667.5,-79.5 784.5,-79.5 784.5,-58.5 667.5,-58.5"/>
<text text-anchor="middle" x="726" y="-66.5" font-family="Helvetica,sans-Serif" font-size="10.00">gaia/base/VectorImpl.h</text>
</a>
</g>
<!-- Node8&#45;&gt;Node12 -->
<g id="edge28" class="edge"><title>Node8&#45;&gt;Node12</title>
<path fill="none" stroke="midnightblue" d="M726,-116.362C726,-108.922 726,-98.7427 726,-89.7276"/>
<polygon fill="midnightblue" stroke="midnightblue" points="729.5,-89.5706 726,-79.5707 722.5,-89.5707 729.5,-89.5706"/>
</g>
<!-- Node9&#45;&gt;Node4 -->
<g id="edge20" class="edge"><title>Node9&#45;&gt;Node4</title>
<path fill="none" stroke="midnightblue" d="M352.112,-58.4966C326.328,-48.7859 287.935,-34.3263 260.288,-23.9138"/>
<polygon fill="midnightblue" stroke="midnightblue" points="261.224,-20.5262 250.632,-20.277 258.757,-27.077 261.224,-20.5262"/>
</g>
<!-- Node9&#45;&gt;Node6 -->
<g id="edge24" class="edge"><title>Node9&#45;&gt;Node6</title>
<path fill="none" stroke="midnightblue" d="M442.658,-58.4966C511.692,-46.9244 620.959,-28.608 681.653,-18.4338"/>
<polygon fill="midnightblue" stroke="midnightblue" points="682.399,-21.8578 691.682,-16.7527 681.241,-14.9541 682.399,-21.8578"/>
</g>
<!-- Node10 -->
<g id="node21" class="node"><title>Node10</title>
<polygon fill="white" stroke="#bfbfbf" points="325.5,-0.5 325.5,-21.5 374.5,-21.5 374.5,-0.5 325.5,-0.5"/>
<text text-anchor="middle" x="350" y="-8.5" font-family="Helvetica,sans-Serif" font-size="10.00">string.h</text>
</g>
<!-- Node9&#45;&gt;Node10 -->
<g id="edge22" class="edge"><title>Node9&#45;&gt;Node10</title>
<path fill="none" stroke="midnightblue" d="M374.498,-58.3619C370.48,-50.5949 364.919,-39.8426 360.11,-30.5458"/>
<polygon fill="midnightblue" stroke="midnightblue" points="363.171,-28.8448 355.468,-21.5707 356.953,-32.0608 363.171,-28.8448"/>
</g>
<!-- Node11 -->
<g id="node24" class="node"><title>Node11</title>
<polygon fill="white" stroke="#bfbfbf" points="391.5,-0.5 391.5,-21.5 426.5,-21.5 426.5,-0.5 391.5,-0.5"/>
<text text-anchor="middle" x="409" y="-8.5" font-family="Helvetica,sans-Serif" font-size="10.00">new</text>
</g>
<!-- Node9&#45;&gt;Node11 -->
<g id="edge26" class="edge"><title>Node9&#45;&gt;Node11</title>
<path fill="none" stroke="midnightblue" d="M385.319,-58.3619C389.203,-50.5949 394.579,-39.8426 399.227,-30.5458"/>
<polygon fill="midnightblue" stroke="midnightblue" points="402.373,-32.0802 403.715,-21.5707 396.112,-28.9497 402.373,-32.0802"/>
</g>
<!-- Node12&#45;&gt;Node6 -->
<g id="edge30" class="edge"><title>Node12&#45;&gt;Node6</title>
<path fill="none" stroke="midnightblue" d="M726,-58.3619C726,-50.9219 726,-40.7427 726,-31.7276"/>
<polygon fill="midnightblue" stroke="midnightblue" points="729.5,-31.5706 726,-21.5707 722.5,-31.5707 729.5,-31.5706"/>
</g>
<!-- Node15 -->
<g id="node34" class="node"><title>Node15</title>
<a xlink:href="../../de/d8c/_component_loader_8h.html" target="_top" xlink:title="gaia/core/ComponentLoader.h">
<polygon fill="white" stroke="black" points="1175.5,-58.5 1175.5,-79.5 1322.5,-79.5 1322.5,-58.5 1175.5,-58.5"/>
<text text-anchor="middle" x="1249" y="-66.5" font-family="Helvetica,sans-Serif" font-size="10.00">gaia/core/ComponentLoader.h</text>
</a>
</g>
<!-- Node14&#45;&gt;Node15 -->
<g id="edge38" class="edge"><title>Node14&#45;&gt;Node15</title>
<path fill="none" stroke="midnightblue" d="M1228.59,-116.362C1231.9,-108.677 1236.47,-98.0686 1240.45,-88.8399"/>
<polygon fill="midnightblue" stroke="midnightblue" points="1243.7,-90.1393 1244.44,-79.5707 1237.27,-87.3685 1243.7,-90.1393"/>
</g>
<!-- Node16 -->
<g id="node37" class="node"><title>Node16</title>
<polygon fill="white" stroke="#bfbfbf" points="1339.5,-58.5 1339.5,-79.5 1390.5,-79.5 1390.5,-58.5 1339.5,-58.5"/>
<text text-anchor="middle" x="1365" y="-66.5" font-family="Helvetica,sans-Serif" font-size="10.00">typeinfo</text>
</g>
<!-- Node14&#45;&gt;Node16 -->
<g id="edge42" class="edge"><title>Node14&#45;&gt;Node16</title>
<path fill="none" stroke="midnightblue" d="M1249.53,-116.497C1271.95,-107.275 1304.78,-93.7695 1329.71,-83.5153"/>
<polygon fill="midnightblue" stroke="midnightblue" points="1331.26,-86.6623 1339.18,-79.6212 1328.6,-80.1886 1331.26,-86.6623"/>
</g>
<!-- Node15&#45;&gt;Node6 -->
<g id="edge40" class="edge"><title>Node15&#45;&gt;Node6</title>
<path fill="none" stroke="midnightblue" d="M1175.44,-59.6028C1170.89,-59.0519 1166.39,-58.5135 1162,-58 1018.89,-41.2412 849.093,-23.5746 770.277,-15.5013"/>
<polygon fill="midnightblue" stroke="midnightblue" points="770.527,-12.0086 760.222,-14.4729 769.814,-18.9723 770.527,-12.0086"/>
</g>
<!-- Node18 -->
<g id="node42" class="node"><title>Node18</title>
<a xlink:href="../../d3/d27/_rect_8h.html" target="_top" xlink:title="gaia/graphics/Rect.h">
<polygon fill="white" stroke="black" points="1451.5,-116.5 1451.5,-137.5 1558.5,-137.5 1558.5,-116.5 1451.5,-116.5"/>
<text text-anchor="middle" x="1505" y="-124.5" font-family="Helvetica,sans-Serif" font-size="10.00">gaia/graphics/Rect.h</text>
</a>
</g>
<!-- Node17&#45;&gt;Node18 -->
<g id="edge48" class="edge"><title>Node17&#45;&gt;Node18</title>
<path fill="none" stroke="midnightblue" d="M1410.83,-174.497C1428.71,-165.479 1454.71,-152.365 1474.86,-142.201"/>
<polygon fill="midnightblue" stroke="midnightblue" points="1476.59,-145.249 1483.94,-137.621 1473.44,-138.999 1476.59,-145.249"/>
</g>
<!-- Node18&#45;&gt;Node6 -->
<g id="edge50" class="edge"><title>Node18&#45;&gt;Node6</title>
<path fill="none" stroke="midnightblue" d="M1493.35,-116.483C1474.9,-100.542 1437.1,-70.7693 1399,-58 1339.74,-38.1399 911.47,-18.7251 770.706,-12.8185"/>
<polygon fill="midnightblue" stroke="midnightblue" points="770.439,-9.30437 760.301,-12.3846 770.147,-16.2983 770.439,-9.30437"/>
</g>
<!-- Node19&#45;&gt;Node8 -->
<g id="edge54" class="edge"><title>Node19&#45;&gt;Node8</title>
<path fill="none" stroke="midnightblue" d="M760.297,-174.362C754.554,-166.431 746.557,-155.389 739.73,-145.961"/>
<polygon fill="midnightblue" stroke="midnightblue" points="742.355,-143.617 733.655,-137.571 736.685,-147.723 742.355,-143.617"/>
</g>
<!-- Node21 -->
<g id="node50" class="node"><title>Node21</title>
<a xlink:href="../../d1/dd0/gmacros_8h.html" target="_top" xlink:title="gaia/base/gmacros.h">
<polygon fill="white" stroke="black" points="1013.5,-58.5 1013.5,-79.5 1120.5,-79.5 1120.5,-58.5 1013.5,-58.5"/>
<text text-anchor="middle" x="1067" y="-66.5" font-family="Helvetica,sans-Serif" font-size="10.00">gaia/base/gmacros.h</text>
</a>
</g>
<!-- Node20&#45;&gt;Node21 -->
<g id="edge58" class="edge"><title>Node20&#45;&gt;Node21</title>
<path fill="none" stroke="midnightblue" d="M929.424,-116.497C956.694,-107.082 996.893,-93.2036 1026.8,-82.8773"/>
<polygon fill="midnightblue" stroke="midnightblue" points="1028.21,-86.0949 1036.52,-79.5231 1025.92,-79.4781 1028.21,-86.0949"/>
</g>
<!-- Node22 -->
<g id="node52" class="node"><title>Node22</title>
<a xlink:href="../../d0/d92/_property_animatable_8h.html" target="_top" xlink:title="gaia/core/animator/PropertyAnimatable.h">
<polygon fill="white" stroke="black" points="802,-58.5 802,-79.5 996,-79.5 996,-58.5 802,-58.5"/>
<text text-anchor="middle" x="899" y="-66.5" font-family="Helvetica,sans-Serif" font-size="10.00">gaia/core/animator/PropertyAnimatable.h</text>
</a>
</g>
<!-- Node20&#45;&gt;Node22 -->
<g id="edge60" class="edge"><title>Node20&#45;&gt;Node22</title>
<path fill="none" stroke="midnightblue" d="M899,-116.362C899,-108.922 899,-98.7427 899,-89.7276"/>
<polygon fill="midnightblue" stroke="midnightblue" points="902.5,-89.5706 899,-79.5707 895.5,-89.5707 902.5,-89.5706"/>
</g>
<!-- Node23 -->
<g id="node55" class="node"><title>Node23</title>
<a xlink:href="../../d8/d50/_widget_core_8h.html" target="_top" xlink:title="gaia/core/vision/WidgetCore.h">
<polygon fill="white" stroke="black" points="152,-58.5 152,-79.5 300,-79.5 300,-58.5 152,-58.5"/>
<text text-anchor="middle" x="226" y="-66.5" font-family="Helvetica,sans-Serif" font-size="10.00">gaia/core/vision/WidgetCore.h</text>
</a>
</g>
<!-- Node20&#45;&gt;Node23 -->
<g id="edge64" class="edge"><title>Node20&#45;&gt;Node23</title>
<path fill="none" stroke="midnightblue" d="M835.451,-120.695C818.722,-119.098 800.686,-117.43 784,-116 576.353,-98.2021 521.289,-101.797 310.351,-80.0946"/>
<polygon fill="midnightblue" stroke="midnightblue" points="310.495,-76.5908 300.187,-79.0418 309.773,-83.5536 310.495,-76.5908"/>
</g>
<!-- Node22&#45;&gt;Node6 -->
<g id="edge62" class="edge"><title>Node22&#45;&gt;Node6</title>
<path fill="none" stroke="midnightblue" d="M867.671,-58.4966C839.467,-49.0411 797.833,-35.0829 766.991,-24.7428"/>
<polygon fill="midnightblue" stroke="midnightblue" points="767.982,-21.3834 757.388,-21.5231 765.757,-28.0203 767.982,-21.3834"/>
</g>
<!-- Node23&#45;&gt;Node4 -->
<g id="edge66" class="edge"><title>Node23&#45;&gt;Node4</title>
<path fill="none" stroke="midnightblue" d="M226,-58.3619C226,-50.9219 226,-40.7427 226,-31.7276"/>
<polygon fill="midnightblue" stroke="midnightblue" points="229.5,-31.5706 226,-21.5707 222.5,-31.5707 229.5,-31.5706"/>
</g>
</g>
</svg>
