<?xml version="1.0" encoding="UTF-8" standalone="no"?>
<!DOCTYPE svg PUBLIC "-//W3C//DTD SVG 1.1//EN"
 "http://www.w3.org/Graphics/SVG/1.1/DTD/svg11.dtd">
<!-- Generated by graphviz version 2.26.3 (20100126.1600)
 -->
<!-- Title: G Pages: 1 -->
<svg width="286pt" height="88pt"
 viewBox="0.00 0.00 286.00 88.00" xmlns="http://www.w3.org/2000/svg" xmlns:xlink="http://www.w3.org/1999/xlink">
<g id="graph1" class="graph" transform="scale(1 1) rotate(0) translate(4 84)">
<title>G</title>
<polygon fill="white" stroke="white" points="-4,5 -4,-84 283,-84 283,5 -4,5"/>
<!-- Node1 -->
<g id="node1" class="node"><title>Node1</title>
<polygon fill="#bfbfbf" stroke="black" points="0,-58.5 0,-79.5 278,-79.5 278,-58.5 0,-58.5"/>
<text text-anchor="middle" x="139" y="-66.5" font-family="Helvetica,sans-Serif" font-size="10.00">/home/vilon_tao/gaia/sdk/include/gaia/telephony/CallerInfo.h</text>
</g>
<!-- Node2 -->
<g id="node3" class="node"><title>Node2</title>
<polygon fill="white" stroke="#bfbfbf" points="69,-0.5 69,-21.5 115,-21.5 115,-0.5 69,-0.5"/>
<text text-anchor="middle" x="92" y="-8.5" font-family="Helvetica,sans-Serif" font-size="10.00">cstdint</text>
</g>
<!-- Node1&#45;&gt;Node2 -->
<g id="edge2" class="edge"><title>Node1&#45;&gt;Node2</title>
<path fill="none" stroke="midnightblue" d="M130.379,-58.3619C123.82,-50.2678 114.634,-38.9318 106.894,-29.3796"/>
<polygon fill="midnightblue" stroke="midnightblue" points="109.581,-27.1364 100.566,-21.5707 104.142,-31.5436 109.581,-27.1364"/>
</g>
<!-- Node3 -->
<g id="node5" class="node"><title>Node3</title>
<a xlink:href="../../d1/dd0/gmacros_8h.html" target="_top" xlink:title="gaia/base/gmacros.h">
<polygon fill="white" stroke="black" points="132.5,-0.5 132.5,-21.5 239.5,-21.5 239.5,-0.5 132.5,-0.5"/>
<text text-anchor="middle" x="186" y="-8.5" font-family="Helvetica,sans-Serif" font-size="10.00">gaia/base/gmacros.h</text>
</a>
</g>
<!-- Node1&#45;&gt;Node3 -->
<g id="edge4" class="edge"><title>Node1&#45;&gt;Node3</title>
<path fill="none" stroke="midnightblue" d="M147.621,-58.3619C154.18,-50.2678 163.366,-38.9318 171.106,-29.3796"/>
<polygon fill="midnightblue" stroke="midnightblue" points="173.858,-31.5436 177.434,-21.5707 168.419,-27.1364 173.858,-31.5436"/>
</g>
</g>
</svg>
