<?xml version="1.0" encoding="UTF-8" standalone="no"?>
<!DOCTYPE svg PUBLIC "-//W3C//DTD SVG 1.1//EN"
 "http://www.w3.org/Graphics/SVG/1.1/DTD/svg11.dtd">
<!-- Generated by graphviz version 2.26.3 (20100126.1600)
 -->
<!-- Title: G Pages: 1 -->
<svg width="932pt" height="88pt"
 viewBox="0.00 0.00 932.00 88.00" xmlns="http://www.w3.org/2000/svg" xmlns:xlink="http://www.w3.org/1999/xlink">
<g id="graph1" class="graph" transform="scale(1 1) rotate(0) translate(4 84)">
<title>G</title>
<polygon fill="white" stroke="white" points="-4,5 -4,-84 929,-84 929,5 -4,5"/>
<!-- Node1 -->
<g id="node1" class="node"><title>Node1</title>
<polygon fill="#bfbfbf" stroke="black" points="329,-58.5 329,-79.5 591,-79.5 591,-58.5 329,-58.5"/>
<text text-anchor="middle" x="460" y="-66.5" font-family="Helvetica,sans-Serif" font-size="10.00">/home/vilon_tao/gaia/sdk/include/gaia/graphics/Shader.h</text>
</g>
<!-- Node2 -->
<g id="node3" class="node"><title>Node2</title>
<a xlink:href="../../dc/db1/_linear_gradient_8h.html" target="_top" xlink:title="/home/vilon_tao/gaia/sdk/include/gaia/graphics/LinearGradient.h">
<polygon fill="white" stroke="black" points="0,-0.5 0,-21.5 294,-21.5 294,-0.5 0,-0.5"/>
<text text-anchor="middle" x="147" y="-8.5" font-family="Helvetica,sans-Serif" font-size="10.00">/home/vilon_tao/gaia/sdk/include/gaia/graphics/LinearGradient.h</text>
</a>
</g>
<!-- Node1&#45;&gt;Node2 -->
<g id="edge2" class="edge"><title>Node1&#45;&gt;Node2</title>
<path fill="none" stroke="midnightblue" d="M393.433,-56.6648C337.077,-46.222 257.17,-31.415 203.788,-21.5231"/>
<polygon fill="midnightblue" stroke="midnightblue" points="392.848,-60.116 403.318,-58.4966 394.123,-53.2331 392.848,-60.116"/>
</g>
<!-- Node3 -->
<g id="node5" class="node"><title>Node3</title>
<a xlink:href="../../de/d6d/_radial_gradient_8h.html" target="_top" xlink:title="/home/vilon_tao/gaia/sdk/include/gaia/graphics/RadialGradient.h">
<polygon fill="white" stroke="black" points="312,-0.5 312,-21.5 608,-21.5 608,-0.5 312,-0.5"/>
<text text-anchor="middle" x="460" y="-8.5" font-family="Helvetica,sans-Serif" font-size="10.00">/home/vilon_tao/gaia/sdk/include/gaia/graphics/RadialGradient.h</text>
</a>
</g>
<!-- Node1&#45;&gt;Node3 -->
<g id="edge4" class="edge"><title>Node1&#45;&gt;Node3</title>
<path fill="none" stroke="midnightblue" d="M460,-48.1906C460,-39.1684 460,-28.9941 460,-21.5707"/>
<polygon fill="midnightblue" stroke="midnightblue" points="456.5,-48.3619 460,-58.3619 463.5,-48.3619 456.5,-48.3619"/>
</g>
<!-- Node4 -->
<g id="node7" class="node"><title>Node4</title>
<a xlink:href="../../d7/d78/_sweep_gradient_8h.html" target="_top" xlink:title="/home/vilon_tao/gaia/sdk/include/gaia/graphics/SweepGradient.h">
<polygon fill="white" stroke="black" points="626,-0.5 626,-21.5 924,-21.5 924,-0.5 626,-0.5"/>
<text text-anchor="middle" x="775" y="-8.5" font-family="Helvetica,sans-Serif" font-size="10.00">/home/vilon_tao/gaia/sdk/include/gaia/graphics/SweepGradient.h</text>
</a>
</g>
<!-- Node1&#45;&gt;Node4 -->
<g id="edge6" class="edge"><title>Node1&#45;&gt;Node4</title>
<path fill="none" stroke="midnightblue" d="M526.993,-56.6648C583.708,-46.222 664.126,-31.415 717.849,-21.5231"/>
<polygon fill="midnightblue" stroke="midnightblue" points="526.245,-53.2436 517.044,-58.4966 527.513,-60.1279 526.245,-53.2436"/>
</g>
</g>
</svg>
