<?xml version="1.0" encoding="UTF-8" standalone="no"?>
<!DOCTYPE svg PUBLIC "-//W3C//DTD SVG 1.1//EN"
 "http://www.w3.org/Graphics/SVG/1.1/DTD/svg11.dtd">
<!-- Generated by graphviz version 2.26.3 (20100126.1600)
 -->
<!-- Title: G Pages: 1 -->
<svg width="590pt" height="146pt"
 viewBox="0.00 0.00 590.00 146.00" xmlns="http://www.w3.org/2000/svg" xmlns:xlink="http://www.w3.org/1999/xlink">
<g id="graph1" class="graph" transform="scale(1 1) rotate(0) translate(4 142)">
<title>G</title>
<polygon fill="white" stroke="white" points="-4,5 -4,-142 587,-142 587,5 -4,5"/>
<!-- Node1 -->
<g id="node1" class="node"><title>Node1</title>
<polygon fill="#bfbfbf" stroke="black" points="115.5,-116.5 115.5,-137.5 370.5,-137.5 370.5,-116.5 115.5,-116.5"/>
<text text-anchor="middle" x="243" y="-124.5" font-family="Helvetica,sans-Serif" font-size="10.00">/home/vilon_tao/gaia/sdk/include/gaia/media/Camera.h</text>
</g>
<!-- Node2 -->
<g id="node3" class="node"><title>Node2</title>
<polygon fill="white" stroke="#bfbfbf" points="-0.5,-58.5 -0.5,-79.5 48.5,-79.5 48.5,-58.5 -0.5,-58.5"/>
<text text-anchor="middle" x="24" y="-66.5" font-family="Helvetica,sans-Serif" font-size="10.00">stdint.h</text>
</g>
<!-- Node1&#45;&gt;Node2 -->
<g id="edge2" class="edge"><title>Node1&#45;&gt;Node2</title>
<path fill="none" stroke="midnightblue" d="M197.263,-116.444C161.67,-108.005 110.855,-95.4653 58.5788,-80.3411"/>
<polygon fill="midnightblue" stroke="midnightblue" points="59.3842,-76.9302 48.8041,-77.4874 57.4225,-83.6497 59.3842,-76.9302"/>
</g>
<!-- Node3 -->
<g id="node5" class="node"><title>Node3</title>
<a xlink:href="../../d1/dd0/gmacros_8h.html" target="_top" xlink:title="gaia/base/gmacros.h">
<polygon fill="white" stroke="black" points="65.5,-58.5 65.5,-79.5 172.5,-79.5 172.5,-58.5 65.5,-58.5"/>
<text text-anchor="middle" x="119" y="-66.5" font-family="Helvetica,sans-Serif" font-size="10.00">gaia/base/gmacros.h</text>
</a>
</g>
<!-- Node1&#45;&gt;Node3 -->
<g id="edge4" class="edge"><title>Node1&#45;&gt;Node3</title>
<path fill="none" stroke="midnightblue" d="M220.545,-116.497C201.09,-107.397 172.72,-94.1273 150.909,-83.9253"/>
<polygon fill="midnightblue" stroke="midnightblue" points="152.248,-80.6878 141.707,-79.6212 149.283,-87.0285 152.248,-80.6878"/>
</g>
<!-- Node4 -->
<g id="node7" class="node"><title>Node4</title>
<a xlink:href="../../d3/d27/_rect_8h.html" target="_top" xlink:title="gaia/graphics/Rect.h">
<polygon fill="white" stroke="black" points="189.5,-58.5 189.5,-79.5 296.5,-79.5 296.5,-58.5 189.5,-58.5"/>
<text text-anchor="middle" x="243" y="-66.5" font-family="Helvetica,sans-Serif" font-size="10.00">gaia/graphics/Rect.h</text>
</a>
</g>
<!-- Node1&#45;&gt;Node4 -->
<g id="edge6" class="edge"><title>Node1&#45;&gt;Node4</title>
<path fill="none" stroke="midnightblue" d="M243,-116.362C243,-108.922 243,-98.7427 243,-89.7276"/>
<polygon fill="midnightblue" stroke="midnightblue" points="246.5,-89.5706 243,-79.5707 239.5,-89.5707 246.5,-89.5706"/>
</g>
<!-- Node6 -->
<g id="node11" class="node"><title>Node6</title>
<a xlink:href="../../d1/d18/_point_8h.html" target="_top" xlink:title="gaia/graphics/Point.h">
<polygon fill="white" stroke="black" points="314,-58.5 314,-79.5 422,-79.5 422,-58.5 314,-58.5"/>
<text text-anchor="middle" x="368" y="-66.5" font-family="Helvetica,sans-Serif" font-size="10.00">gaia/graphics/Point.h</text>
</a>
</g>
<!-- Node1&#45;&gt;Node6 -->
<g id="edge10" class="edge"><title>Node1&#45;&gt;Node6</title>
<path fill="none" stroke="midnightblue" d="M265.637,-116.497C285.248,-107.397 313.846,-94.1273 335.833,-83.9253"/>
<polygon fill="midnightblue" stroke="midnightblue" points="337.512,-87.0051 345.109,-79.6212 334.565,-80.6554 337.512,-87.0051"/>
</g>
<!-- Node7 -->
<g id="node14" class="node"><title>Node7</title>
<a xlink:href="../../d3/d5d/_image_format_8h.html" target="_top" xlink:title="gaia/graphics/ImageFormat.h">
<polygon fill="white" stroke="black" points="439.5,-58.5 439.5,-79.5 582.5,-79.5 582.5,-58.5 439.5,-58.5"/>
<text text-anchor="middle" x="511" y="-66.5" font-family="Helvetica,sans-Serif" font-size="10.00">gaia/graphics/ImageFormat.h</text>
</a>
</g>
<!-- Node1&#45;&gt;Node7 -->
<g id="edge14" class="edge"><title>Node1&#45;&gt;Node7</title>
<path fill="none" stroke="midnightblue" d="M291.533,-116.497C336.737,-106.714 404.213,-92.1107 452.401,-81.6819"/>
<polygon fill="midnightblue" stroke="midnightblue" points="453.343,-85.0592 462.376,-79.5231 451.862,-78.2175 453.343,-85.0592"/>
</g>
<!-- Node5 -->
<g id="node9" class="node"><title>Node5</title>
<polygon fill="white" stroke="#bfbfbf" points="334,-0.5 334,-21.5 402,-21.5 402,-0.5 334,-0.5"/>
<text text-anchor="middle" x="368" y="-8.5" font-family="Helvetica,sans-Serif" font-size="10.00">sys/types.h</text>
</g>
<!-- Node4&#45;&gt;Node5 -->
<g id="edge8" class="edge"><title>Node4&#45;&gt;Node5</title>
<path fill="none" stroke="midnightblue" d="M265.637,-58.4966C285.248,-49.397 313.846,-36.1273 335.833,-25.9253"/>
<polygon fill="midnightblue" stroke="midnightblue" points="337.512,-29.0051 345.109,-21.6212 334.565,-22.6554 337.512,-29.0051"/>
</g>
<!-- Node6&#45;&gt;Node5 -->
<g id="edge12" class="edge"><title>Node6&#45;&gt;Node5</title>
<path fill="none" stroke="midnightblue" d="M368,-58.3619C368,-50.9219 368,-40.7427 368,-31.7276"/>
<polygon fill="midnightblue" stroke="midnightblue" points="371.5,-31.5706 368,-21.5707 364.5,-31.5707 371.5,-31.5706"/>
</g>
<!-- Node7&#45;&gt;Node5 -->
<g id="edge16" class="edge"><title>Node7&#45;&gt;Node5</title>
<path fill="none" stroke="midnightblue" d="M485.104,-58.4966C462.367,-49.2746 429.07,-35.7695 403.788,-25.5153"/>
<polygon fill="midnightblue" stroke="midnightblue" points="404.769,-22.1365 394.187,-21.6212 402.138,-28.6232 404.769,-22.1365"/>
</g>
</g>
</svg>
