<?xml version="1.0" encoding="UTF-8" standalone="no"?>
<!DOCTYPE svg PUBLIC "-//W3C//DTD SVG 1.1//EN"
 "http://www.w3.org/Graphics/SVG/1.1/DTD/svg11.dtd">
<!-- Generated by graphviz version 2.26.3 (20100126.1600)
 -->
<!-- Title: G Pages: 1 -->
<svg width="839pt" height="146pt"
 viewBox="0.00 0.00 839.00 146.00" xmlns="http://www.w3.org/2000/svg" xmlns:xlink="http://www.w3.org/1999/xlink">
<g id="graph1" class="graph" transform="scale(1 1) rotate(0) translate(4 142)">
<title>G</title>
<polygon fill="white" stroke="white" points="-4,5 -4,-142 836,-142 836,5 -4,5"/>
<!-- Node1 -->
<g id="node1" class="node"><title>Node1</title>
<polygon fill="#bfbfbf" stroke="black" points="353,-116.5 353,-137.5 651,-137.5 651,-116.5 353,-116.5"/>
<text text-anchor="middle" x="502" y="-124.5" font-family="Helvetica,sans-Serif" font-size="10.00">/home/vilon_tao/gaia/sdk/include/gaia/text/method/KeyListener.h</text>
</g>
<!-- Node2 -->
<g id="node3" class="node"><title>Node2</title>
<a xlink:href="../../d9/dc2/_number_key_listener_8h.html" target="_top" xlink:title="/home/vilon_tao/gaia/sdk/include/gaia/text/method/NumberKeyListener.h">
<polygon fill="white" stroke="black" points="165,-58.5 165,-79.5 497,-79.5 497,-58.5 165,-58.5"/>
<text text-anchor="middle" x="331" y="-66.5" font-family="Helvetica,sans-Serif" font-size="10.00">/home/vilon_tao/gaia/sdk/include/gaia/text/method/NumberKeyListener.h</text>
</a>
</g>
<!-- Node1&#45;&gt;Node2 -->
<g id="edge2" class="edge"><title>Node1&#45;&gt;Node2</title>
<path fill="none" stroke="midnightblue" d="M461.546,-113.279C431.075,-102.944 389.921,-88.9849 362.025,-79.5231"/>
<polygon fill="midnightblue" stroke="midnightblue" points="460.439,-116.599 471.033,-116.497 462.687,-109.97 460.439,-116.599"/>
</g>
<!-- Node5 -->
<g id="node9" class="node"><title>Node5</title>
<a xlink:href="../../dc/d40/_text_key_listener_8h.html" target="_top" xlink:title="/home/vilon_tao/gaia/sdk/include/gaia/text/method/TextKeyListener.h">
<polygon fill="white" stroke="black" points="514.5,-58.5 514.5,-79.5 831.5,-79.5 831.5,-58.5 514.5,-58.5"/>
<text text-anchor="middle" x="673" y="-66.5" font-family="Helvetica,sans-Serif" font-size="10.00">/home/vilon_tao/gaia/sdk/include/gaia/text/method/TextKeyListener.h</text>
</a>
</g>
<!-- Node1&#45;&gt;Node5 -->
<g id="edge8" class="edge"><title>Node1&#45;&gt;Node5</title>
<path fill="none" stroke="midnightblue" d="M542.454,-113.279C572.925,-102.944 614.079,-88.9849 641.975,-79.5231"/>
<polygon fill="midnightblue" stroke="midnightblue" points="541.313,-109.97 532.967,-116.497 543.561,-116.599 541.313,-109.97"/>
</g>
<!-- Node3 -->
<g id="node5" class="node"><title>Node3</title>
<a xlink:href="../../d1/dd7/_dialer_key_listener_8h.html" target="_top" xlink:title="/home/vilon_tao/gaia/sdk/include/gaia/text/method/DialerKeyListener.h">
<polygon fill="white" stroke="black" points="-0.5,-0.5 -0.5,-21.5 322.5,-21.5 322.5,-0.5 -0.5,-0.5"/>
<text text-anchor="middle" x="161" y="-8.5" font-family="Helvetica,sans-Serif" font-size="10.00">/home/vilon_tao/gaia/sdk/include/gaia/text/method/DialerKeyListener.h</text>
</a>
</g>
<!-- Node2&#45;&gt;Node3 -->
<g id="edge4" class="edge"><title>Node2&#45;&gt;Node3</title>
<path fill="none" stroke="midnightblue" d="M290.388,-55.1443C260.136,-44.8229 219.456,-30.9439 191.843,-21.5231"/>
<polygon fill="midnightblue" stroke="midnightblue" points="289.62,-58.5801 300.214,-58.4966 291.88,-51.955 289.62,-58.5801"/>
</g>
<!-- Node4 -->
<g id="node7" class="node"><title>Node4</title>
<a xlink:href="../../dc/da7/_digits_key_listener_8h.html" target="_top" xlink:title="/home/vilon_tao/gaia/sdk/include/gaia/text/method/DigitsKeyListener.h">
<polygon fill="white" stroke="black" points="339.5,-0.5 339.5,-21.5 662.5,-21.5 662.5,-0.5 339.5,-0.5"/>
<text text-anchor="middle" x="501" y="-8.5" font-family="Helvetica,sans-Serif" font-size="10.00">/home/vilon_tao/gaia/sdk/include/gaia/text/method/DigitsKeyListener.h</text>
</a>
</g>
<!-- Node2&#45;&gt;Node4 -->
<g id="edge6" class="edge"><title>Node2&#45;&gt;Node4</title>
<path fill="none" stroke="midnightblue" d="M371.612,-55.1443C401.864,-44.8229 442.544,-30.9439 470.157,-21.5231"/>
<polygon fill="midnightblue" stroke="midnightblue" points="370.12,-51.955 361.786,-58.4966 372.38,-58.5801 370.12,-51.955"/>
</g>
</g>
</svg>
