<?xml version="1.0" encoding="UTF-8" standalone="no"?>
<!DOCTYPE svg PUBLIC "-//W3C//DTD SVG 1.1//EN"
 "http://www.w3.org/Graphics/SVG/1.1/DTD/svg11.dtd">
<!-- Generated by graphviz version 2.26.3 (20100126.1600)
 -->
<!-- Title: G Pages: 1 -->
<svg width="942pt" height="320pt"
 viewBox="0.00 0.00 942.00 320.00" xmlns="http://www.w3.org/2000/svg" xmlns:xlink="http://www.w3.org/1999/xlink">
<g id="graph1" class="graph" transform="scale(1 1) rotate(0) translate(4 316)">
<title>G</title>
<polygon fill="white" stroke="white" points="-4,5 -4,-316 939,-316 939,5 -4,5"/>
<!-- Node1 -->
<g id="node1" class="node"><title>Node1</title>
<polygon fill="#bfbfbf" stroke="black" points="299,-290.5 299,-311.5 605,-311.5 605,-290.5 299,-290.5"/>
<text text-anchor="middle" x="452" y="-298.5" font-family="Helvetica,sans-Serif" font-size="10.00">/home/vilon_tao/gaia/sdk/include/gaia/ui/ISimpleListItemProvider.h</text>
</g>
<!-- Node2 -->
<g id="node3" class="node"><title>Node2</title>
<a xlink:href="../../d3/dc5/_array_8h.html" target="_top" xlink:title="gaia/base/Array.h">
<polygon fill="white" stroke="black" points="405.5,-116.5 405.5,-137.5 498.5,-137.5 498.5,-116.5 405.5,-116.5"/>
<text text-anchor="middle" x="452" y="-124.5" font-family="Helvetica,sans-Serif" font-size="10.00">gaia/base/Array.h</text>
</a>
</g>
<!-- Node1&#45;&gt;Node2 -->
<g id="edge2" class="edge"><title>Node1&#45;&gt;Node2</title>
<path fill="none" stroke="midnightblue" d="M452,-290.377C452,-262.293 452,-185.673 452,-148.203"/>
<polygon fill="midnightblue" stroke="midnightblue" points="455.5,-147.928 452,-137.928 448.5,-147.928 455.5,-147.928"/>
</g>
<!-- Node9 -->
<g id="node19" class="node"><title>Node9</title>
<a xlink:href="../../dd/d0b/_hash_map_8h.html" target="_top" xlink:title="gaia/base/HashMap.h">
<polygon fill="white" stroke="black" points="149,-116.5 149,-137.5 261,-137.5 261,-116.5 149,-116.5"/>
<text text-anchor="middle" x="205" y="-124.5" font-family="Helvetica,sans-Serif" font-size="10.00">gaia/base/HashMap.h</text>
</a>
</g>
<!-- Node1&#45;&gt;Node9 -->
<g id="edge20" class="edge"><title>Node1&#45;&gt;Node9</title>
<path fill="none" stroke="midnightblue" d="M436.921,-290.377C395.323,-261.073 278.713,-178.927 228.493,-143.55"/>
<polygon fill="midnightblue" stroke="midnightblue" points="230.387,-140.602 220.196,-137.705 226.355,-146.325 230.387,-140.602"/>
</g>
<!-- Node12 -->
<g id="node27" class="node"><title>Node12</title>
<a xlink:href="../../d4/d7f/_vector_8h.html" target="_top" xlink:title="gaia/base/Vector.h">
<polygon fill="white" stroke="black" points="516,-116.5 516,-137.5 614,-137.5 614,-116.5 516,-116.5"/>
<text text-anchor="middle" x="565" y="-124.5" font-family="Helvetica,sans-Serif" font-size="10.00">gaia/base/Vector.h</text>
</a>
</g>
<!-- Node1&#45;&gt;Node12 -->
<g id="edge30" class="edge"><title>Node1&#45;&gt;Node12</title>
<path fill="none" stroke="midnightblue" d="M457.11,-290.364C468.056,-267.984 495.13,-214.738 524,-174 531.117,-163.958 539.997,-153.567 547.672,-145.117"/>
<polygon fill="midnightblue" stroke="midnightblue" points="550.33,-147.398 554.564,-137.685 545.198,-142.638 550.33,-147.398"/>
</g>
<!-- Node14 -->
<g id="node34" class="node"><title>Node14</title>
<a xlink:href="../../db/db5/_string_8h.html" target="_top" xlink:title="gaia/base/String.h">
<polygon fill="white" stroke="black" points="288.5,-116.5 288.5,-137.5 383.5,-137.5 383.5,-116.5 288.5,-116.5"/>
<text text-anchor="middle" x="336" y="-124.5" font-family="Helvetica,sans-Serif" font-size="10.00">gaia/base/String.h</text>
</a>
</g>
<!-- Node1&#45;&gt;Node14 -->
<g id="edge40" class="edge"><title>Node1&#45;&gt;Node14</title>
<path fill="none" stroke="midnightblue" d="M444.918,-290.377C425.873,-261.809 373.345,-183.017 348.867,-146.3"/>
<polygon fill="midnightblue" stroke="midnightblue" points="351.744,-144.307 343.285,-137.928 345.92,-148.19 351.744,-144.307"/>
</g>
<!-- Node16 -->
<g id="node41" class="node"><title>Node16</title>
<a xlink:href="../../d4/d8b/_i_list_item_provider_8h.html" target="_top" xlink:title="gaia/ui/IListItemProvider.h">
<polygon fill="white" stroke="black" points="568.5,-232.5 568.5,-253.5 699.5,-253.5 699.5,-232.5 568.5,-232.5"/>
<text text-anchor="middle" x="634" y="-240.5" font-family="Helvetica,sans-Serif" font-size="10.00">gaia/ui/IListItemProvider.h</text>
</a>
</g>
<!-- Node1&#45;&gt;Node16 -->
<g id="edge50" class="edge"><title>Node1&#45;&gt;Node16</title>
<path fill="none" stroke="midnightblue" d="M484.959,-290.497C514.758,-281 558.809,-266.962 591.297,-256.609"/>
<polygon fill="midnightblue" stroke="midnightblue" points="592.514,-259.894 600.979,-253.523 590.389,-253.225 592.514,-259.894"/>
</g>
<!-- Node3 -->
<g id="node5" class="node"><title>Node3</title>
<a xlink:href="../../d8/dae/_array_impl_8h.html" target="_top" xlink:title="gaia/base/ArrayImpl.h">
<polygon fill="white" stroke="black" points="318,-58.5 318,-79.5 430,-79.5 430,-58.5 318,-58.5"/>
<text text-anchor="middle" x="374" y="-66.5" font-family="Helvetica,sans-Serif" font-size="10.00">gaia/base/ArrayImpl.h</text>
</a>
</g>
<!-- Node2&#45;&gt;Node3 -->
<g id="edge4" class="edge"><title>Node2&#45;&gt;Node3</title>
<path fill="none" stroke="midnightblue" d="M437.694,-116.362C426.149,-107.777 409.7,-95.5459 396.41,-85.6636"/>
<polygon fill="midnightblue" stroke="midnightblue" points="398.329,-82.7291 388.216,-79.5707 394.152,-88.3463 398.329,-82.7291"/>
</g>
<!-- Node4 -->
<g id="node7" class="node"><title>Node4</title>
<polygon fill="white" stroke="#bfbfbf" points="382,-0.5 382,-21.5 450,-21.5 450,-0.5 382,-0.5"/>
<text text-anchor="middle" x="416" y="-8.5" font-family="Helvetica,sans-Serif" font-size="10.00">sys/types.h</text>
</g>
<!-- Node2&#45;&gt;Node4 -->
<g id="edge18" class="edge"><title>Node2&#45;&gt;Node4</title>
<path fill="none" stroke="midnightblue" d="M450.911,-116.493C449.289,-102.772 445.685,-78.1293 439,-58 435.913,-48.7052 431.347,-38.9033 427.095,-30.6699"/>
<polygon fill="midnightblue" stroke="midnightblue" points="430.172,-29.0017 422.355,-21.8496 424.006,-32.3151 430.172,-29.0017"/>
</g>
<!-- Node5 -->
<g id="node9" class="node"><title>Node5</title>
<a xlink:href="../../d1/d86/_type_helpers_8h.html" target="_top" xlink:title="gaia/base/TypeHelpers.h">
<polygon fill="white" stroke="black" points="809.5,-58.5 809.5,-79.5 934.5,-79.5 934.5,-58.5 809.5,-58.5"/>
<text text-anchor="middle" x="872" y="-66.5" font-family="Helvetica,sans-Serif" font-size="10.00">gaia/base/TypeHelpers.h</text>
</a>
</g>
<!-- Node2&#45;&gt;Node5 -->
<g id="edge8" class="edge"><title>Node2&#45;&gt;Node5</title>
<path fill="none" stroke="midnightblue" d="M498.768,-117.417C501.55,-116.918 504.309,-116.442 507,-116 608.011,-99.416 725.549,-85.1812 799.365,-76.8506"/>
<polygon fill="midnightblue" stroke="midnightblue" points="799.937,-80.3085 809.484,-75.7147 799.156,-73.3521 799.937,-80.3085"/>
</g>
<!-- Node3&#45;&gt;Node4 -->
<g id="edge6" class="edge"><title>Node3&#45;&gt;Node4</title>
<path fill="none" stroke="midnightblue" d="M381.703,-58.3619C387.446,-50.4313 395.443,-39.3885 402.27,-29.9606"/>
<polygon fill="midnightblue" stroke="midnightblue" points="405.315,-31.7229 408.345,-21.5707 399.645,-27.6173 405.315,-31.7229"/>
</g>
<!-- Node5&#45;&gt;Node4 -->
<g id="edge14" class="edge"><title>Node5&#45;&gt;Node4</title>
<path fill="none" stroke="midnightblue" d="M809.389,-59.8333C804.86,-59.2022 800.36,-58.5852 796,-58 674.739,-41.7272 531.421,-24.5592 460.44,-16.1945"/>
<polygon fill="midnightblue" stroke="midnightblue" points="460.434,-12.6697 450.094,-14.9772 459.616,-19.6218 460.434,-12.6697"/>
</g>
<!-- Node6 -->
<g id="node11" class="node"><title>Node6</title>
<polygon fill="white" stroke="#bfbfbf" points="706.5,-0.5 706.5,-21.5 755.5,-21.5 755.5,-0.5 706.5,-0.5"/>
<text text-anchor="middle" x="731" y="-8.5" font-family="Helvetica,sans-Serif" font-size="10.00">stdint.h</text>
</g>
<!-- Node5&#45;&gt;Node6 -->
<g id="edge10" class="edge"><title>Node5&#45;&gt;Node6</title>
<path fill="none" stroke="midnightblue" d="M846.466,-58.4966C823.767,-49.1593 790.393,-35.4312 765.356,-25.1323"/>
<polygon fill="midnightblue" stroke="midnightblue" points="766.45,-21.7979 755.871,-21.2305 763.787,-28.2716 766.45,-21.7979"/>
</g>
<!-- Node7 -->
<g id="node13" class="node"><title>Node7</title>
<polygon fill="white" stroke="#bfbfbf" points="817.5,-0.5 817.5,-21.5 866.5,-21.5 866.5,-0.5 817.5,-0.5"/>
<text text-anchor="middle" x="842" y="-8.5" font-family="Helvetica,sans-Serif" font-size="10.00">string.h</text>
</g>
<!-- Node5&#45;&gt;Node7 -->
<g id="edge12" class="edge"><title>Node5&#45;&gt;Node7</title>
<path fill="none" stroke="midnightblue" d="M866.498,-58.3619C862.48,-50.5949 856.919,-39.8426 852.11,-30.5458"/>
<polygon fill="midnightblue" stroke="midnightblue" points="855.171,-28.8448 847.468,-21.5707 848.953,-32.0608 855.171,-28.8448"/>
</g>
<!-- Node8 -->
<g id="node16" class="node"><title>Node8</title>
<polygon fill="white" stroke="#bfbfbf" points="883.5,-0.5 883.5,-21.5 918.5,-21.5 918.5,-0.5 883.5,-0.5"/>
<text text-anchor="middle" x="901" y="-8.5" font-family="Helvetica,sans-Serif" font-size="10.00">new</text>
</g>
<!-- Node5&#45;&gt;Node8 -->
<g id="edge16" class="edge"><title>Node5&#45;&gt;Node8</title>
<path fill="none" stroke="midnightblue" d="M877.319,-58.3619C881.203,-50.5949 886.579,-39.8426 891.227,-30.5458"/>
<polygon fill="midnightblue" stroke="midnightblue" points="894.373,-32.0802 895.715,-21.5707 888.112,-28.9497 894.373,-32.0802"/>
</g>
<!-- Node10 -->
<g id="node21" class="node"><title>Node10</title>
<a xlink:href="../../d6/d83/_hash_func_8h.html" target="_top" xlink:title="gaia/base/HashFunc.h">
<polygon fill="white" stroke="black" points="147.5,-58.5 147.5,-79.5 262.5,-79.5 262.5,-58.5 147.5,-58.5"/>
<text text-anchor="middle" x="205" y="-66.5" font-family="Helvetica,sans-Serif" font-size="10.00">gaia/base/HashFunc.h</text>
</a>
</g>
<!-- Node9&#45;&gt;Node10 -->
<g id="edge22" class="edge"><title>Node9&#45;&gt;Node10</title>
<path fill="none" stroke="midnightblue" d="M205,-116.362C205,-108.922 205,-98.7427 205,-89.7276"/>
<polygon fill="midnightblue" stroke="midnightblue" points="208.5,-89.5706 205,-79.5707 201.5,-89.5707 208.5,-89.5706"/>
</g>
<!-- Node11 -->
<g id="node24" class="node"><title>Node11</title>
<a xlink:href="../../dc/d11/_hash_map_impl_8h.html" target="_top" xlink:title="gaia/base/HashMapImpl.h">
<polygon fill="white" stroke="black" points="-0.5,-58.5 -0.5,-79.5 130.5,-79.5 130.5,-58.5 -0.5,-58.5"/>
<text text-anchor="middle" x="65" y="-66.5" font-family="Helvetica,sans-Serif" font-size="10.00">gaia/base/HashMapImpl.h</text>
</a>
</g>
<!-- Node9&#45;&gt;Node11 -->
<g id="edge26" class="edge"><title>Node9&#45;&gt;Node11</title>
<path fill="none" stroke="midnightblue" d="M179.647,-116.497C157.387,-107.275 124.788,-93.7695 100.037,-83.5153"/>
<polygon fill="midnightblue" stroke="midnightblue" points="101.216,-80.2152 90.6374,-79.6212 98.5364,-86.6822 101.216,-80.2152"/>
</g>
<!-- Node10&#45;&gt;Node4 -->
<g id="edge24" class="edge"><title>Node10&#45;&gt;Node4</title>
<path fill="none" stroke="midnightblue" d="M243.211,-58.4966C279.513,-48.5177 334.059,-33.524 372.124,-23.0606"/>
<polygon fill="midnightblue" stroke="midnightblue" points="373.195,-26.3962 381.91,-20.3708 371.34,-19.6466 373.195,-26.3962"/>
</g>
<!-- Node11&#45;&gt;Node4 -->
<g id="edge28" class="edge"><title>Node11&#45;&gt;Node4</title>
<path fill="none" stroke="midnightblue" d="M128.563,-58.4966C198.782,-46.8935 310.032,-28.5103 371.504,-18.3526"/>
<polygon fill="midnightblue" stroke="midnightblue" points="372.36,-21.7587 381.655,-16.6752 371.219,-14.8524 372.36,-21.7587"/>
</g>
<!-- Node12&#45;&gt;Node4 -->
<g id="edge38" class="edge"><title>Node12&#45;&gt;Node4</title>
<path fill="none" stroke="midnightblue" d="M614.191,-116.908C671.292,-104.96 758.31,-85.9333 763,-80 769.063,-72.3291 769.433,-65.3633 763,-58 743.354,-35.5132 549.479,-19.859 460.376,-13.7946"/>
<polygon fill="midnightblue" stroke="midnightblue" points="460.514,-10.296 450.303,-13.1195 460.046,-17.2804 460.514,-10.296"/>
</g>
<!-- Node12&#45;&gt;Node5 -->
<g id="edge32" class="edge"><title>Node12&#45;&gt;Node5</title>
<path fill="none" stroke="midnightblue" d="M614.047,-117.695C617.077,-117.121 620.08,-116.553 623,-116 685.075,-104.255 755.861,-90.8972 806.052,-81.4318"/>
<polygon fill="midnightblue" stroke="midnightblue" points="806.945,-84.8253 816.123,-79.5327 805.647,-77.9466 806.945,-84.8253"/>
</g>
<!-- Node13 -->
<g id="node30" class="node"><title>Node13</title>
<a xlink:href="../../dc/da9/_vector_impl_8h.html" target="_top" xlink:title="gaia/base/VectorImpl.h">
<polygon fill="white" stroke="black" points="485.5,-58.5 485.5,-79.5 602.5,-79.5 602.5,-58.5 485.5,-58.5"/>
<text text-anchor="middle" x="544" y="-66.5" font-family="Helvetica,sans-Serif" font-size="10.00">gaia/base/VectorImpl.h</text>
</a>
</g>
<!-- Node12&#45;&gt;Node13 -->
<g id="edge34" class="edge"><title>Node12&#45;&gt;Node13</title>
<path fill="none" stroke="midnightblue" d="M561.148,-116.362C558.395,-108.758 554.606,-98.294 551.29,-89.1349"/>
<polygon fill="midnightblue" stroke="midnightblue" points="554.523,-87.7818 547.827,-79.5707 547.941,-90.1649 554.523,-87.7818"/>
</g>
<!-- Node13&#45;&gt;Node4 -->
<g id="edge36" class="edge"><title>Node13&#45;&gt;Node4</title>
<path fill="none" stroke="midnightblue" d="M520.82,-58.4966C500.648,-49.3562 471.19,-36.0082 448.636,-25.7883"/>
<polygon fill="midnightblue" stroke="midnightblue" points="449.993,-22.5606 439.44,-21.6212 447.104,-28.9366 449.993,-22.5606"/>
</g>
<!-- Node14&#45;&gt;Node4 -->
<g id="edge48" class="edge"><title>Node14&#45;&gt;Node4</title>
<path fill="none" stroke="midnightblue" d="M325.697,-116.066C313.634,-101.882 296.763,-76.7412 309,-58 322.963,-36.616 349.063,-24.8979 371.99,-18.5103"/>
<polygon fill="midnightblue" stroke="midnightblue" points="373.068,-21.8481 381.91,-16.0106 371.358,-15.0602 373.068,-21.8481"/>
</g>
<!-- Node14&#45;&gt;Node10 -->
<g id="edge46" class="edge"><title>Node14&#45;&gt;Node10</title>
<path fill="none" stroke="midnightblue" d="M312.277,-116.497C291.632,-107.356 261.484,-94.0082 238.401,-83.7883"/>
<polygon fill="midnightblue" stroke="midnightblue" points="239.55,-80.4694 228.989,-79.6212 236.716,-86.8701 239.55,-80.4694"/>
</g>
<!-- Node15 -->
<g id="node36" class="node"><title>Node15</title>
<a xlink:href="../../d7/d97/_char_sequence_8h.html" target="_top" xlink:title="gaia/base/CharSequence.h">
<polygon fill="white" stroke="black" points="620,-58.5 620,-79.5 754,-79.5 754,-58.5 620,-58.5"/>
<text text-anchor="middle" x="687" y="-66.5" font-family="Helvetica,sans-Serif" font-size="10.00">gaia/base/CharSequence.h</text>
</a>
</g>
<!-- Node14&#45;&gt;Node15 -->
<g id="edge42" class="edge"><title>Node14&#45;&gt;Node15</title>
<path fill="none" stroke="midnightblue" d="M383.605,-118.331C388.131,-117.533 392.651,-116.744 397,-116 469.117,-103.655 551.471,-90.387 609.945,-81.107"/>
<polygon fill="midnightblue" stroke="midnightblue" points="610.518,-84.5599 619.847,-79.5374 609.423,-77.6462 610.518,-84.5599"/>
</g>
<!-- Node15&#45;&gt;Node6 -->
<g id="edge44" class="edge"><title>Node15&#45;&gt;Node6</title>
<path fill="none" stroke="midnightblue" d="M695.07,-58.3619C701.149,-50.3496 709.637,-39.1605 716.837,-29.6696"/>
<polygon fill="midnightblue" stroke="midnightblue" points="719.725,-31.653 722.981,-21.5707 714.149,-27.4222 719.725,-31.653"/>
</g>
<!-- Node17 -->
<g id="node43" class="node"><title>Node17</title>
<polygon fill="white" stroke="#bfbfbf" points="632,-116.5 632,-137.5 680,-137.5 680,-116.5 632,-116.5"/>
<text text-anchor="middle" x="656" y="-124.5" font-family="Helvetica,sans-Serif" font-size="10.00">limits.h</text>
</g>
<!-- Node16&#45;&gt;Node17 -->
<g id="edge52" class="edge"><title>Node16&#45;&gt;Node17</title>
<path fill="none" stroke="midnightblue" d="M640.683,-232.284C646.017,-223.06 653.065,-209.192 656,-196 659.495,-180.287 659.321,-162.059 658.367,-148.285"/>
<polygon fill="midnightblue" stroke="midnightblue" points="661.817,-147.566 657.445,-137.915 654.844,-148.186 661.817,-147.566"/>
</g>
<!-- Node18 -->
<g id="node45" class="node"><title>Node18</title>
<a xlink:href="../../d9/d0a/_i_item_provider_8h.html" target="_top" xlink:title="gaia/ui/IItemProvider.h">
<polygon fill="white" stroke="black" points="532.5,-174.5 532.5,-195.5 647.5,-195.5 647.5,-174.5 532.5,-174.5"/>
<text text-anchor="middle" x="590" y="-182.5" font-family="Helvetica,sans-Serif" font-size="10.00">gaia/ui/IItemProvider.h</text>
</a>
</g>
<!-- Node16&#45;&gt;Node18 -->
<g id="edge54" class="edge"><title>Node16&#45;&gt;Node18</title>
<path fill="none" stroke="midnightblue" d="M625.93,-232.362C619.851,-224.35 611.363,-213.161 604.163,-203.67"/>
<polygon fill="midnightblue" stroke="midnightblue" points="606.851,-201.422 598.019,-195.571 601.275,-205.653 606.851,-201.422"/>
</g>
<!-- Node19 -->
<g id="node48" class="node"><title>Node19</title>
<a xlink:href="../../d1/dd0/gmacros_8h.html" target="_top" xlink:title="gaia/base/gmacros.h">
<polygon fill="white" stroke="black" points="697.5,-116.5 697.5,-137.5 804.5,-137.5 804.5,-116.5 697.5,-116.5"/>
<text text-anchor="middle" x="751" y="-124.5" font-family="Helvetica,sans-Serif" font-size="10.00">gaia/base/gmacros.h</text>
</a>
</g>
<!-- Node16&#45;&gt;Node19 -->
<g id="edge62" class="edge"><title>Node16&#45;&gt;Node19</title>
<path fill="none" stroke="midnightblue" d="M644.797,-232.295C664.91,-212.355 708.298,-169.337 732.94,-144.906"/>
<polygon fill="midnightblue" stroke="midnightblue" points="735.592,-147.205 740.229,-137.679 730.663,-142.234 735.592,-147.205"/>
</g>
<!-- Node18&#45;&gt;Node12 -->
<g id="edge60" class="edge"><title>Node18&#45;&gt;Node12</title>
<path fill="none" stroke="midnightblue" d="M585.415,-174.362C582.102,-166.677 577.53,-156.069 573.552,-146.84"/>
<polygon fill="midnightblue" stroke="midnightblue" points="576.729,-145.368 569.556,-137.571 570.301,-148.139 576.729,-145.368"/>
</g>
<!-- Node18&#45;&gt;Node17 -->
<g id="edge56" class="edge"><title>Node18&#45;&gt;Node17</title>
<path fill="none" stroke="midnightblue" d="M602.105,-174.362C611.688,-165.941 625.264,-154.011 636.393,-144.231"/>
<polygon fill="midnightblue" stroke="midnightblue" points="638.77,-146.801 643.971,-137.571 634.149,-141.543 638.77,-146.801"/>
</g>
<!-- Node18&#45;&gt;Node19 -->
<g id="edge58" class="edge"><title>Node18&#45;&gt;Node19</title>
<path fill="none" stroke="midnightblue" d="M619.156,-174.497C645.176,-165.123 683.479,-151.324 712.104,-141.012"/>
<polygon fill="midnightblue" stroke="midnightblue" points="713.568,-144.205 721.789,-137.523 711.195,-137.62 713.568,-144.205"/>
</g>
</g>
</svg>
