<?xml version="1.0" encoding="UTF-8" standalone="no"?>
<!DOCTYPE svg PUBLIC "-//W3C//DTD SVG 1.1//EN"
 "http://www.w3.org/Graphics/SVG/1.1/DTD/svg11.dtd">
<!-- Generated by graphviz version 2.26.3 (20100126.1600)
 -->
<!-- Title: G Pages: 1 -->
<svg width="623pt" height="146pt"
 viewBox="0.00 0.00 623.00 146.00" xmlns="http://www.w3.org/2000/svg" xmlns:xlink="http://www.w3.org/1999/xlink">
<g id="graph1" class="graph" transform="scale(1 1) rotate(0) translate(4 142)">
<title>G</title>
<polygon fill="white" stroke="white" points="-4,5 -4,-142 620,-142 620,5 -4,5"/>
<!-- Node1 -->
<g id="node1" class="node"><title>Node1</title>
<polygon fill="#bfbfbf" stroke="black" points="172.5,-116.5 172.5,-137.5 437.5,-137.5 437.5,-116.5 172.5,-116.5"/>
<text text-anchor="middle" x="305" y="-124.5" font-family="Helvetica,sans-Serif" font-size="10.00">/home/vilon_tao/gaia/sdk/include/gaia/webkit/WebView.h</text>
</g>
<!-- Node2 -->
<g id="node3" class="node"><title>Node2</title>
<a xlink:href="../../db/d4a/_web_chrome_client_8h.html" target="_top" xlink:title="/home/vilon_tao/gaia/sdk/include/gaia/webkit/WebChromeClient.h">
<polygon fill="white" stroke="black" points="-0.5,-58.5 -0.5,-79.5 302.5,-79.5 302.5,-58.5 -0.5,-58.5"/>
<text text-anchor="middle" x="151" y="-66.5" font-family="Helvetica,sans-Serif" font-size="10.00">/home/vilon_tao/gaia/sdk/include/gaia/webkit/WebChromeClient.h</text>
</a>
</g>
<!-- Node1&#45;&gt;Node2 -->
<g id="edge2" class="edge"><title>Node1&#45;&gt;Node2</title>
<path fill="none" stroke="midnightblue" d="M267.494,-112.874C240.166,-102.582 203.737,-88.862 178.941,-79.5231"/>
<polygon fill="midnightblue" stroke="midnightblue" points="266.52,-116.247 277.112,-116.497 268.987,-109.697 266.52,-116.247"/>
</g>
<!-- Node3 -->
<g id="node5" class="node"><title>Node3</title>
<a xlink:href="../../d2/dcb/_web_settings_8h.html" target="_top" xlink:title="/home/vilon_tao/gaia/sdk/include/gaia/webkit/WebSettings.h">
<polygon fill="white" stroke="black" points="319.5,-58.5 319.5,-79.5 598.5,-79.5 598.5,-58.5 319.5,-58.5"/>
<text text-anchor="middle" x="459" y="-66.5" font-family="Helvetica,sans-Serif" font-size="10.00">/home/vilon_tao/gaia/sdk/include/gaia/webkit/WebSettings.h</text>
</a>
</g>
<!-- Node1&#45;&gt;Node3 -->
<g id="edge4" class="edge"><title>Node1&#45;&gt;Node3</title>
<path fill="none" stroke="midnightblue" d="M342.506,-112.874C369.834,-102.582 406.263,-88.862 431.059,-79.5231"/>
<polygon fill="midnightblue" stroke="midnightblue" points="341.013,-109.697 332.888,-116.497 343.48,-116.247 341.013,-109.697"/>
</g>
<!-- Node4 -->
<g id="node7" class="node"><title>Node4</title>
<a xlink:href="../../d0/dd7/_web_settings_classic_8h.html" target="_top" xlink:title="/home/vilon_tao/gaia/sdk/include/gaia/webkit/WebSettingsClassic.h">
<polygon fill="white" stroke="black" points="303,-0.5 303,-21.5 615,-21.5 615,-0.5 303,-0.5"/>
<text text-anchor="middle" x="459" y="-8.5" font-family="Helvetica,sans-Serif" font-size="10.00">/home/vilon_tao/gaia/sdk/include/gaia/webkit/WebSettingsClassic.h</text>
</a>
</g>
<!-- Node3&#45;&gt;Node4 -->
<g id="edge6" class="edge"><title>Node3&#45;&gt;Node4</title>
<path fill="none" stroke="midnightblue" d="M459,-48.1906C459,-39.1684 459,-28.9941 459,-21.5707"/>
<polygon fill="midnightblue" stroke="midnightblue" points="455.5,-48.3619 459,-58.3619 462.5,-48.3619 455.5,-48.3619"/>
</g>
</g>
</svg>
