<?xml version="1.0" encoding="UTF-8" standalone="no"?>
<!DOCTYPE svg PUBLIC "-//W3C//DTD SVG 1.1//EN"
 "http://www.w3.org/Graphics/SVG/1.1/DTD/svg11.dtd">
<!-- Generated by graphviz version 2.26.3 (20100126.1600)
 -->
<!-- Title: G Pages: 1 -->
<svg width="423pt" height="204pt"
 viewBox="0.00 0.00 423.00 204.00" xmlns="http://www.w3.org/2000/svg" xmlns:xlink="http://www.w3.org/1999/xlink">
<g id="graph1" class="graph" transform="scale(1 1) rotate(0) translate(4 200)">
<title>G</title>
<polygon fill="white" stroke="white" points="-4,5 -4,-200 420,-200 420,5 -4,5"/>
<!-- Node1 -->
<g id="node1" class="node"><title>Node1</title>
<polygon fill="#bfbfbf" stroke="black" points="-0.5,-174.5 -0.5,-195.5 274.5,-195.5 274.5,-174.5 -0.5,-174.5"/>
<text text-anchor="middle" x="137" y="-182.5" font-family="Helvetica,sans-Serif" font-size="10.00">/home/vilon_tao/gaia/sdk/include/gaia/core/vision/Display.h</text>
</g>
<!-- Node2 -->
<g id="node3" class="node"><title>Node2</title>
<a xlink:href="../../d3/dc5/_array_8h.html" target="_top" xlink:title="gaia/base/Array.h">
<polygon fill="white" stroke="black" points="153.5,-116.5 153.5,-137.5 246.5,-137.5 246.5,-116.5 153.5,-116.5"/>
<text text-anchor="middle" x="200" y="-124.5" font-family="Helvetica,sans-Serif" font-size="10.00">gaia/base/Array.h</text>
</a>
</g>
<!-- Node1&#45;&gt;Node2 -->
<g id="edge2" class="edge"><title>Node1&#45;&gt;Node2</title>
<path fill="none" stroke="midnightblue" d="M148.555,-174.362C157.613,-166.023 170.41,-154.242 180.974,-144.516"/>
<polygon fill="midnightblue" stroke="midnightblue" points="183.532,-146.919 188.518,-137.571 178.79,-141.769 183.532,-146.919"/>
</g>
<!-- Node4 -->
<g id="node7" class="node"><title>Node4</title>
<polygon fill="white" stroke="#bfbfbf" points="143,-0.5 143,-21.5 211,-21.5 211,-0.5 143,-0.5"/>
<text text-anchor="middle" x="177" y="-8.5" font-family="Helvetica,sans-Serif" font-size="10.00">sys/types.h</text>
</g>
<!-- Node1&#45;&gt;Node4 -->
<g id="edge20" class="edge"><title>Node1&#45;&gt;Node4</title>
<path fill="none" stroke="midnightblue" d="M127.361,-174.191C108.338,-151.485 69.748,-97.6544 93,-58 101.89,-42.839 117.653,-32.2025 133.141,-24.9317"/>
<polygon fill="midnightblue" stroke="midnightblue" points="134.88,-27.9939 142.685,-20.8293 132.116,-21.5628 134.88,-27.9939"/>
</g>
<!-- Node3 -->
<g id="node5" class="node"><title>Node3</title>
<a xlink:href="../../d8/dae/_array_impl_8h.html" target="_top" xlink:title="gaia/base/ArrayImpl.h">
<polygon fill="white" stroke="black" points="102,-58.5 102,-79.5 214,-79.5 214,-58.5 102,-58.5"/>
<text text-anchor="middle" x="158" y="-66.5" font-family="Helvetica,sans-Serif" font-size="10.00">gaia/base/ArrayImpl.h</text>
</a>
</g>
<!-- Node2&#45;&gt;Node3 -->
<g id="edge4" class="edge"><title>Node2&#45;&gt;Node3</title>
<path fill="none" stroke="midnightblue" d="M192.297,-116.362C186.554,-108.431 178.557,-97.3885 171.73,-87.9606"/>
<polygon fill="midnightblue" stroke="midnightblue" points="174.355,-85.6173 165.655,-79.5707 168.685,-89.7229 174.355,-85.6173"/>
</g>
<!-- Node2&#45;&gt;Node4 -->
<g id="edge18" class="edge"><title>Node2&#45;&gt;Node4</title>
<path fill="none" stroke="midnightblue" d="M208.454,-116.084C218.001,-102.345 231.203,-78.1099 223,-58 218.311,-46.5066 209.309,-36.2985 200.502,-28.3571"/>
<polygon fill="midnightblue" stroke="midnightblue" points="202.51,-25.473 192.599,-21.7292 198.012,-30.8367 202.51,-25.473"/>
</g>
<!-- Node5 -->
<g id="node9" class="node"><title>Node5</title>
<a xlink:href="../../d1/d86/_type_helpers_8h.html" target="_top" xlink:title="gaia/base/TypeHelpers.h">
<polygon fill="white" stroke="black" points="269.5,-58.5 269.5,-79.5 394.5,-79.5 394.5,-58.5 269.5,-58.5"/>
<text text-anchor="middle" x="332" y="-66.5" font-family="Helvetica,sans-Serif" font-size="10.00">gaia/base/TypeHelpers.h</text>
</a>
</g>
<!-- Node2&#45;&gt;Node5 -->
<g id="edge8" class="edge"><title>Node2&#45;&gt;Node5</title>
<path fill="none" stroke="midnightblue" d="M223.904,-116.497C244.8,-107.315 275.356,-93.8889 298.655,-83.6516"/>
<polygon fill="midnightblue" stroke="midnightblue" points="300.08,-86.8483 307.828,-79.6212 297.264,-80.4397 300.08,-86.8483"/>
</g>
<!-- Node3&#45;&gt;Node4 -->
<g id="edge6" class="edge"><title>Node3&#45;&gt;Node4</title>
<path fill="none" stroke="midnightblue" d="M161.485,-58.3619C163.976,-50.7584 167.404,-40.294 170.404,-31.1349"/>
<polygon fill="midnightblue" stroke="midnightblue" points="173.75,-32.1634 173.537,-21.5707 167.098,-29.9841 173.75,-32.1634"/>
</g>
<!-- Node5&#45;&gt;Node4 -->
<g id="edge14" class="edge"><title>Node5&#45;&gt;Node4</title>
<path fill="none" stroke="midnightblue" d="M303.931,-58.4966C278.99,-49.1639 242.326,-35.4447 214.808,-25.1475"/>
<polygon fill="midnightblue" stroke="midnightblue" points="215.714,-21.7497 205.122,-21.5231 213.261,-28.3058 215.714,-21.7497"/>
</g>
<!-- Node6 -->
<g id="node11" class="node"><title>Node6</title>
<polygon fill="white" stroke="#bfbfbf" points="366.5,-0.5 366.5,-21.5 415.5,-21.5 415.5,-0.5 366.5,-0.5"/>
<text text-anchor="middle" x="391" y="-8.5" font-family="Helvetica,sans-Serif" font-size="10.00">stdint.h</text>
</g>
<!-- Node5&#45;&gt;Node6 -->
<g id="edge10" class="edge"><title>Node5&#45;&gt;Node6</title>
<path fill="none" stroke="midnightblue" d="M342.822,-58.3619C351.221,-50.1043 363.054,-38.4725 372.89,-28.8029"/>
<polygon fill="midnightblue" stroke="midnightblue" points="375.569,-31.077 380.247,-21.5707 370.662,-26.0851 375.569,-31.077"/>
</g>
<!-- Node7 -->
<g id="node13" class="node"><title>Node7</title>
<polygon fill="white" stroke="#bfbfbf" points="248.5,-0.5 248.5,-21.5 297.5,-21.5 297.5,-0.5 248.5,-0.5"/>
<text text-anchor="middle" x="273" y="-8.5" font-family="Helvetica,sans-Serif" font-size="10.00">string.h</text>
</g>
<!-- Node5&#45;&gt;Node7 -->
<g id="edge12" class="edge"><title>Node5&#45;&gt;Node7</title>
<path fill="none" stroke="midnightblue" d="M321.178,-58.3619C312.779,-50.1043 300.946,-38.4725 291.11,-28.8029"/>
<polygon fill="midnightblue" stroke="midnightblue" points="293.338,-26.0851 283.753,-21.5707 288.431,-31.077 293.338,-26.0851"/>
</g>
<!-- Node8 -->
<g id="node16" class="node"><title>Node8</title>
<polygon fill="white" stroke="#bfbfbf" points="314.5,-0.5 314.5,-21.5 349.5,-21.5 349.5,-0.5 314.5,-0.5"/>
<text text-anchor="middle" x="332" y="-8.5" font-family="Helvetica,sans-Serif" font-size="10.00">new</text>
</g>
<!-- Node5&#45;&gt;Node8 -->
<g id="edge16" class="edge"><title>Node5&#45;&gt;Node8</title>
<path fill="none" stroke="midnightblue" d="M332,-58.3619C332,-50.9219 332,-40.7427 332,-31.7276"/>
<polygon fill="midnightblue" stroke="midnightblue" points="335.5,-31.5706 332,-21.5707 328.5,-31.5707 335.5,-31.5706"/>
</g>
</g>
</svg>
