<?xml version="1.0" encoding="UTF-8" standalone="no"?>
<!DOCTYPE svg PUBLIC "-//W3C//DTD SVG 1.1//EN"
 "http://www.w3.org/Graphics/SVG/1.1/DTD/svg11.dtd">
<!-- Generated by graphviz version 2.26.3 (20100126.1600)
 -->
<!-- Title: G Pages: 1 -->
<svg width="314pt" height="146pt"
 viewBox="0.00 0.00 314.00 146.00" xmlns="http://www.w3.org/2000/svg" xmlns:xlink="http://www.w3.org/1999/xlink">
<g id="graph1" class="graph" transform="scale(1 1) rotate(0) translate(4 142)">
<title>G</title>
<polygon fill="white" stroke="white" points="-4,5 -4,-142 311,-142 311,5 -4,5"/>
<!-- Node1 -->
<g id="node1" class="node"><title>Node1</title>
<polygon fill="#bfbfbf" stroke="black" points="0,-116.5 0,-137.5 306,-137.5 306,-116.5 0,-116.5"/>
<text text-anchor="middle" x="153" y="-124.5" font-family="Helvetica,sans-Serif" font-size="10.00">/home/vilon_tao/gaia/sdk/include/gaia/media/AudioEffectListener.h</text>
</g>
<!-- Node2 -->
<g id="node3" class="node"><title>Node2</title>
<polygon fill="white" stroke="#bfbfbf" points="59.5,-0.5 59.5,-21.5 108.5,-21.5 108.5,-0.5 59.5,-0.5"/>
<text text-anchor="middle" x="84" y="-8.5" font-family="Helvetica,sans-Serif" font-size="10.00">stdint.h</text>
</g>
<!-- Node1&#45;&gt;Node2 -->
<g id="edge2" class="edge"><title>Node1&#45;&gt;Node2</title>
<path fill="none" stroke="midnightblue" d="M124.558,-116.453C108.662,-108.918 90.2395,-97.0651 81,-80 72.9933,-65.2118 74.66,-45.9173 77.804,-31.4926"/>
<polygon fill="midnightblue" stroke="midnightblue" points="81.2557,-32.1235 80.3606,-21.5666 74.4769,-30.3775 81.2557,-32.1235"/>
</g>
<!-- Node3 -->
<g id="node5" class="node"><title>Node3</title>
<a xlink:href="../../d1/dd0/gmacros_8h.html" target="_top" xlink:title="gaia/base/gmacros.h">
<polygon fill="white" stroke="black" points="168.5,-0.5 168.5,-21.5 275.5,-21.5 275.5,-0.5 168.5,-0.5"/>
<text text-anchor="middle" x="222" y="-8.5" font-family="Helvetica,sans-Serif" font-size="10.00">gaia/base/gmacros.h</text>
</a>
</g>
<!-- Node1&#45;&gt;Node3 -->
<g id="edge4" class="edge"><title>Node1&#45;&gt;Node3</title>
<path fill="none" stroke="midnightblue" d="M181.442,-116.453C197.338,-108.918 215.761,-97.0651 225,-80 233.007,-65.2118 231.34,-45.9173 228.196,-31.4926"/>
<polygon fill="midnightblue" stroke="midnightblue" points="231.523,-30.3775 225.639,-21.5666 224.744,-32.1235 231.523,-30.3775"/>
</g>
<!-- Node4 -->
<g id="node7" class="node"><title>Node4</title>
<a xlink:href="../../d6/db8/_audio_effect_8h.html" target="_top" xlink:title="gaia/media/AudioEffect.h">
<polygon fill="white" stroke="black" points="90,-58.5 90,-79.5 216,-79.5 216,-58.5 90,-58.5"/>
<text text-anchor="middle" x="153" y="-66.5" font-family="Helvetica,sans-Serif" font-size="10.00">gaia/media/AudioEffect.h</text>
</a>
</g>
<!-- Node1&#45;&gt;Node4 -->
<g id="edge6" class="edge"><title>Node1&#45;&gt;Node4</title>
<path fill="none" stroke="midnightblue" d="M153,-116.362C153,-108.922 153,-98.7427 153,-89.7276"/>
<polygon fill="midnightblue" stroke="midnightblue" points="156.5,-89.5706 153,-79.5707 149.5,-89.5707 156.5,-89.5706"/>
</g>
<!-- Node4&#45;&gt;Node2 -->
<g id="edge8" class="edge"><title>Node4&#45;&gt;Node2</title>
<path fill="none" stroke="midnightblue" d="M140.344,-58.3619C130.326,-49.9408 116.133,-38.0105 104.499,-28.2308"/>
<polygon fill="midnightblue" stroke="midnightblue" points="106.482,-25.326 96.5754,-21.5707 101.978,-30.6844 106.482,-25.326"/>
</g>
<!-- Node4&#45;&gt;Node3 -->
<g id="edge10" class="edge"><title>Node4&#45;&gt;Node3</title>
<path fill="none" stroke="midnightblue" d="M165.656,-58.3619C175.674,-49.9408 189.867,-38.0105 201.501,-28.2308"/>
<polygon fill="midnightblue" stroke="midnightblue" points="204.022,-30.6844 209.425,-21.5707 199.518,-25.326 204.022,-30.6844"/>
</g>
</g>
</svg>
