<?xml version="1.0" encoding="UTF-8" standalone="no"?>
<!DOCTYPE svg PUBLIC "-//W3C//DTD SVG 1.1//EN"
 "http://www.w3.org/Graphics/SVG/1.1/DTD/svg11.dtd">
<!-- Generated by graphviz version 2.26.3 (20100126.1600)
 -->
<!-- Title: G Pages: 1 -->
<svg width="922pt" height="262pt"
 viewBox="0.00 0.00 922.00 262.00" xmlns="http://www.w3.org/2000/svg" xmlns:xlink="http://www.w3.org/1999/xlink">
<g id="graph1" class="graph" transform="scale(1 1) rotate(0) translate(4 258)">
<title>G</title>
<polygon fill="white" stroke="white" points="-4,5 -4,-258 919,-258 919,5 -4,5"/>
<!-- Node1 -->
<g id="node1" class="node"><title>Node1</title>
<polygon fill="#bfbfbf" stroke="black" points="441,-232.5 441,-253.5 703,-253.5 703,-232.5 441,-232.5"/>
<text text-anchor="middle" x="572" y="-240.5" font-family="Helvetica,sans-Serif" font-size="10.00">/home/vilon_tao/gaia/sdk/include/gaia/graphics/Region.h</text>
</g>
<!-- Node2 -->
<g id="node3" class="node"><title>Node2</title>
<a xlink:href="../../d5/d17/_canvas_8h.html" target="_top" xlink:title="/home/vilon_tao/gaia/sdk/include/gaia/graphics/Canvas.h">
<polygon fill="white" stroke="black" points="439.5,-174.5 439.5,-195.5 704.5,-195.5 704.5,-174.5 439.5,-174.5"/>
<text text-anchor="middle" x="572" y="-182.5" font-family="Helvetica,sans-Serif" font-size="10.00">/home/vilon_tao/gaia/sdk/include/gaia/graphics/Canvas.h</text>
</a>
</g>
<!-- Node1&#45;&gt;Node2 -->
<g id="edge2" class="edge"><title>Node1&#45;&gt;Node2</title>
<path fill="none" stroke="midnightblue" d="M572,-222.191C572,-213.168 572,-202.994 572,-195.571"/>
<polygon fill="midnightblue" stroke="midnightblue" points="568.5,-222.362 572,-232.362 575.5,-222.362 568.5,-222.362"/>
</g>
<!-- Node3 -->
<g id="node5" class="node"><title>Node3</title>
<a xlink:href="../../d6/d48/_layout_8h.html" target="_top" xlink:title="/home/vilon_tao/gaia/sdk/include/gaia/text/Layout.h">
<polygon fill="white" stroke="black" points="304,-116.5 304,-137.5 544,-137.5 544,-116.5 304,-116.5"/>
<text text-anchor="middle" x="424" y="-124.5" font-family="Helvetica,sans-Serif" font-size="10.00">/home/vilon_tao/gaia/sdk/include/gaia/text/Layout.h</text>
</a>
</g>
<!-- Node2&#45;&gt;Node3 -->
<g id="edge4" class="edge"><title>Node2&#45;&gt;Node3</title>
<path fill="none" stroke="midnightblue" d="M535.64,-170.751C509.505,-160.509 474.832,-146.921 451.102,-137.621"/>
<polygon fill="midnightblue" stroke="midnightblue" points="534.611,-174.107 545.198,-174.497 537.165,-167.589 534.611,-174.107"/>
</g>
<!-- Node6 -->
<g id="node11" class="node"><title>Node6</title>
<a xlink:href="../../dd/d32/_dynamic_drawer_span_8h.html" target="_top" xlink:title="/home/vilon_tao/gaia/sdk/include/gaia/text/style/DynamicDrawerSpan.h">
<polygon fill="white" stroke="black" points="584,-58.5 584,-79.5 912,-79.5 912,-58.5 584,-58.5"/>
<text text-anchor="middle" x="748" y="-66.5" font-family="Helvetica,sans-Serif" font-size="10.00">/home/vilon_tao/gaia/sdk/include/gaia/text/style/DynamicDrawerSpan.h</text>
</a>
</g>
<!-- Node2&#45;&gt;Node6 -->
<g id="edge10" class="edge"><title>Node2&#45;&gt;Node6</title>
<path fill="none" stroke="midnightblue" d="M572.543,-164.292C574.039,-149.035 578.486,-128.795 591,-116 605.423,-101.253 653.876,-88.1334 693.182,-79.5285"/>
<polygon fill="midnightblue" stroke="midnightblue" points="569.046,-164.141 571.902,-174.343 576.031,-164.586 569.046,-164.141"/>
</g>
<!-- Node8 -->
<g id="node15" class="node"><title>Node8</title>
<a xlink:href="../../d7/d25/_replacement_span_8h.html" target="_top" xlink:title="/home/vilon_tao/gaia/sdk/include/gaia/text/style/ReplacementSpan.h">
<polygon fill="white" stroke="black" points="599.5,-116.5 599.5,-137.5 914.5,-137.5 914.5,-116.5 599.5,-116.5"/>
<text text-anchor="middle" x="757" y="-124.5" font-family="Helvetica,sans-Serif" font-size="10.00">/home/vilon_tao/gaia/sdk/include/gaia/text/style/ReplacementSpan.h</text>
</a>
</g>
<!-- Node2&#45;&gt;Node8 -->
<g id="edge14" class="edge"><title>Node2&#45;&gt;Node8</title>
<path fill="none" stroke="midnightblue" d="M615.339,-171.413C648.346,-161.065 693.124,-147.026 723.435,-137.523"/>
<polygon fill="midnightblue" stroke="midnightblue" points="613.997,-168.165 605.502,-174.497 616.091,-174.845 613.997,-168.165"/>
</g>
<!-- Node4 -->
<g id="node7" class="node"><title>Node4</title>
<a xlink:href="../../d1/dc1/_dynamic_layout_8h.html" target="_top" xlink:title="/home/vilon_tao/gaia/sdk/include/gaia/text/DynamicLayout.h">
<polygon fill="white" stroke="black" points="-0.5,-58.5 -0.5,-79.5 278.5,-79.5 278.5,-58.5 -0.5,-58.5"/>
<text text-anchor="middle" x="139" y="-66.5" font-family="Helvetica,sans-Serif" font-size="10.00">/home/vilon_tao/gaia/sdk/include/gaia/text/DynamicLayout.h</text>
</a>
</g>
<!-- Node3&#45;&gt;Node4 -->
<g id="edge6" class="edge"><title>Node3&#45;&gt;Node4</title>
<path fill="none" stroke="midnightblue" d="M362.429,-114.47C311.17,-104.038 239.013,-89.3535 190.708,-79.5231"/>
<polygon fill="midnightblue" stroke="midnightblue" points="361.892,-117.932 372.389,-116.497 363.288,-111.073 361.892,-117.932"/>
</g>
<!-- Node5 -->
<g id="node9" class="node"><title>Node5</title>
<a xlink:href="../../df/d0d/_static_layout_8h.html" target="_top" xlink:title="/home/vilon_tao/gaia/sdk/include/gaia/text/StaticLayout.h">
<polygon fill="white" stroke="black" points="296,-58.5 296,-79.5 562,-79.5 562,-58.5 296,-58.5"/>
<text text-anchor="middle" x="429" y="-66.5" font-family="Helvetica,sans-Serif" font-size="10.00">/home/vilon_tao/gaia/sdk/include/gaia/text/StaticLayout.h</text>
</a>
</g>
<!-- Node3&#45;&gt;Node5 -->
<g id="edge8" class="edge"><title>Node3&#45;&gt;Node5</title>
<path fill="none" stroke="midnightblue" d="M425.794,-106.191C426.572,-97.1684 427.449,-86.9941 428.089,-79.5707"/>
<polygon fill="midnightblue" stroke="midnightblue" points="422.289,-106.098 424.917,-116.362 429.263,-106.699 422.289,-106.098"/>
</g>
<!-- Node7 -->
<g id="node13" class="node"><title>Node7</title>
<a xlink:href="../../da/d07/_image_span_8h.html" target="_top" xlink:title="/home/vilon_tao/gaia/sdk/include/gaia/text/style/ImageSpan.h">
<polygon fill="white" stroke="black" points="606,-0.5 606,-21.5 890,-21.5 890,-0.5 606,-0.5"/>
<text text-anchor="middle" x="748" y="-8.5" font-family="Helvetica,sans-Serif" font-size="10.00">/home/vilon_tao/gaia/sdk/include/gaia/text/style/ImageSpan.h</text>
</a>
</g>
<!-- Node6&#45;&gt;Node7 -->
<g id="edge12" class="edge"><title>Node6&#45;&gt;Node7</title>
<path fill="none" stroke="midnightblue" d="M748,-48.1906C748,-39.1684 748,-28.9941 748,-21.5707"/>
<polygon fill="midnightblue" stroke="midnightblue" points="744.5,-48.3619 748,-58.3619 751.5,-48.3619 744.5,-48.3619"/>
</g>
<!-- Node8&#45;&gt;Node6 -->
<g id="edge16" class="edge"><title>Node8&#45;&gt;Node6</title>
<path fill="none" stroke="midnightblue" d="M753.771,-106.191C752.371,-97.1684 750.792,-86.9941 749.64,-79.5707"/>
<polygon fill="midnightblue" stroke="midnightblue" points="750.357,-107.017 755.349,-116.362 757.274,-105.943 750.357,-107.017"/>
</g>
</g>
</svg>
