<?xml version="1.0" encoding="UTF-8" standalone="no"?>
<!DOCTYPE svg PUBLIC "-//W3C//DTD SVG 1.1//EN"
 "http://www.w3.org/Graphics/SVG/1.1/DTD/svg11.dtd">
<!-- Generated by graphviz version 2.26.3 (20100126.1600)
 -->
<!-- Title: G Pages: 1 -->
<svg width="512pt" height="110pt"
 viewBox="0.00 0.00 512.00 110.00" xmlns="http://www.w3.org/2000/svg" xmlns:xlink="http://www.w3.org/1999/xlink">
<g id="graph1" class="graph" transform="scale(1 1) rotate(0) translate(4 106)">
<title>G</title>
<polygon fill="white" stroke="white" points="-4,5 -4,-106 509,-106 509,5 -4,5"/>
<!-- Node1 -->
<g id="node1" class="node"><title>Node1</title>
<polygon fill="#bfbfbf" stroke="black" points="152.5,-40.5 152.5,-61.5 309.5,-61.5 309.5,-40.5 152.5,-40.5"/>
<text text-anchor="middle" x="231" y="-48.5" font-family="Helvetica,sans-Serif" font-size="10.00">gaia::graphics::DrawerContainer</text>
</g>
<!-- Node3 -->
<g id="node5" class="node"><title>Node3</title>
<a xlink:href="../../d4/d9c/classgaia_1_1graphics_1_1_animation_drawer.html" target="_top" xlink:title="An object used to create frame&#45;by&#45;frame animations, defined by a series of Drawer objects...">
<polygon fill="white" stroke="black" points="346,-80.5 346,-101.5 504,-101.5 504,-80.5 346,-80.5"/>
<text text-anchor="middle" x="425" y="-88.5" font-family="Helvetica,sans-Serif" font-size="10.00">gaia::graphics::AnimationDrawer</text>
</a>
</g>
<!-- Node1&#45;&gt;Node3 -->
<g id="edge4" class="edge"><title>Node1&#45;&gt;Node3</title>
<path fill="none" stroke="midnightblue" d="M291.868,-63.55C318.274,-68.9946 348.848,-75.2986 374.033,-80.4913"/>
<polygon fill="midnightblue" stroke="midnightblue" points="292.472,-60.1011 281.971,-61.5095 291.058,-66.9569 292.472,-60.1011"/>
</g>
<!-- Node4 -->
<g id="node7" class="node"><title>Node4</title>
<a xlink:href="../../d2/dde/classgaia_1_1graphics_1_1_level_list_drawer.html" target="_top" xlink:title="A resource that manages a number of alternate Drawers, each assigned a maximum numerical value...">
<polygon fill="white" stroke="black" points="348,-40.5 348,-61.5 502,-61.5 502,-40.5 348,-40.5"/>
<text text-anchor="middle" x="425" y="-48.5" font-family="Helvetica,sans-Serif" font-size="10.00">gaia::graphics::LevelListDrawer</text>
</a>
</g>
<!-- Node1&#45;&gt;Node4 -->
<g id="edge6" class="edge"><title>Node1&#45;&gt;Node4</title>
<path fill="none" stroke="midnightblue" d="M319.745,-51C329.123,-51 338.603,-51 347.834,-51"/>
<polygon fill="midnightblue" stroke="midnightblue" points="319.628,-47.5001 309.628,-51 319.628,-54.5001 319.628,-47.5001"/>
</g>
<!-- Node5 -->
<g id="node9" class="node"><title>Node5</title>
<a xlink:href="../../da/dbc/classgaia_1_1graphics_1_1_state_list_drawer.html" target="_top" xlink:title="Lets you assign a number of graphic images to a single Drawer and swap out the visible item by a stri...">
<polygon fill="white" stroke="black" points="348,-0.5 348,-21.5 502,-21.5 502,-0.5 348,-0.5"/>
<text text-anchor="middle" x="425" y="-8.5" font-family="Helvetica,sans-Serif" font-size="10.00">gaia::graphics::StateListDrawer</text>
</a>
</g>
<!-- Node1&#45;&gt;Node5 -->
<g id="edge8" class="edge"><title>Node1&#45;&gt;Node5</title>
<path fill="none" stroke="midnightblue" d="M291.868,-38.45C318.274,-33.0054 348.848,-26.7014 374.033,-21.5087"/>
<polygon fill="midnightblue" stroke="midnightblue" points="291.058,-35.0431 281.971,-40.4905 292.472,-41.8989 291.058,-35.0431"/>
</g>
<!-- Node2 -->
<g id="node2" class="node"><title>Node2</title>
<a xlink:href="../../df/d4b/classgaia_1_1graphics_1_1_drawer.html" target="_top" xlink:title="A Drawer is a general abstraction for &quot;an object used to draw something.&quot; Most often you will deal wi...">
<polygon fill="white" stroke="black" points="0.5,-40.5 0.5,-61.5 115.5,-61.5 115.5,-40.5 0.5,-40.5"/>
<text text-anchor="middle" x="58" y="-48.5" font-family="Helvetica,sans-Serif" font-size="10.00">gaia::graphics::Drawer</text>
</a>
</g>
<!-- Node2&#45;&gt;Node1 -->
<g id="edge2" class="edge"><title>Node2&#45;&gt;Node1</title>
<path fill="none" stroke="midnightblue" d="M125.728,-51C134.475,-51 143.49,-51 152.394,-51"/>
<polygon fill="midnightblue" stroke="midnightblue" points="125.607,-47.5001 115.606,-51 125.606,-54.5001 125.607,-47.5001"/>
</g>
</g>
</svg>
