<?xml version="1.0" encoding="UTF-8" standalone="no"?>
<!DOCTYPE svg PUBLIC "-//W3C//DTD SVG 1.1//EN"
 "http://www.w3.org/Graphics/SVG/1.1/DTD/svg11.dtd">
<!-- Generated by graphviz version 2.26.3 (20100126.1600)
 -->
<!-- Title: G Pages: 1 -->
<svg width="331pt" height="234pt"
 viewBox="0.00 0.00 331.00 234.00" xmlns="http://www.w3.org/2000/svg" xmlns:xlink="http://www.w3.org/1999/xlink">
<g id="graph1" class="graph" transform="scale(1 1) rotate(0) translate(4 230)">
<title>G</title>
<polygon fill="white" stroke="white" points="-4,5 -4,-230 328,-230 328,5 -4,5"/>
<!-- Node1 -->
<g id="node1" class="node"><title>Node1</title>
<polygon fill="#bfbfbf" stroke="black" points="111,-0.5 111,-21.5 221,-21.5 221,-0.5 111,-0.5"/>
<text text-anchor="middle" x="166" y="-8.5" font-family="Helvetica,sans-Serif" font-size="10.00">gaia::webkit::Matcher</text>
</g>
<!-- Node2 -->
<g id="node2" class="node"><title>Node2</title>
<a xlink:href="../../dd/d77/classgaia_1_1webkit_1_1_match_result.html" target="_top" xlink:title="Holds the results of a successful match of a Pattern against a given string.">
<polygon fill="white" stroke="black" points="-0.5,-72.5 -0.5,-93.5 130.5,-93.5 130.5,-72.5 -0.5,-72.5"/>
<text text-anchor="middle" x="65" y="-80.5" font-family="Helvetica,sans-Serif" font-size="10.00">gaia::webkit::MatchResult</text>
</a>
</g>
<!-- Node2&#45;&gt;Node1 -->
<g id="edge2" class="edge"><title>Node2&#45;&gt;Node1</title>
<path fill="none" stroke="midnightblue" d="M88.1778,-66.4772C107.498,-52.7046 134.451,-33.4905 151.036,-21.6674"/>
<polygon fill="midnightblue" stroke="midnightblue" points="86.014,-63.7214 79.9029,-72.3762 90.0774,-69.4213 86.014,-63.7214"/>
</g>
<!-- Node3 -->
<g id="node4" class="node"><title>Node3</title>
<a xlink:href="../../d2/ddb/classgaia_1_1base_1_1_string.html" target="_top" xlink:title="A String is represented by array of UTF&#45;16 values, such that Unicode supplementary characters (code p...">
<polygon fill="white" stroke="black" points="135.5,-144.5 135.5,-165.5 228.5,-165.5 228.5,-144.5 135.5,-144.5"/>
<text text-anchor="middle" x="182" y="-152.5" font-family="Helvetica,sans-Serif" font-size="10.00">gaia::base::String</text>
</a>
</g>
<!-- Node3&#45;&gt;Node1 -->
<g id="edge4" class="edge"><title>Node3&#45;&gt;Node1</title>
<path fill="none" stroke="#9a32cd" stroke-dasharray="5,2" d="M179.564,-134.055C178.203,-122.286 176.487,-107.327 175,-94 172.107,-68.0714 168.833,-37.571 167.144,-21.7465"/>
<polygon fill="#9a32cd" stroke="#9a32cd" points="176.112,-134.673 180.74,-144.204 183.065,-133.867 176.112,-134.673"/>
<text text-anchor="middle" x="191.5" y="-80.5" font-family="Helvetica,sans-Serif" font-size="10.00"> minput</text>
</g>
<!-- Node5 -->
<g id="node8" class="node"><title>Node5</title>
<a xlink:href="../../da/d34/classgaia_1_1webkit_1_1_pattern.html" target="_top" xlink:title="Represents a pattern used for matching, searching, or replacing strings.">
<polygon fill="white" stroke="black" points="216.5,-72.5 216.5,-93.5 323.5,-93.5 323.5,-72.5 216.5,-72.5"/>
<text text-anchor="middle" x="270" y="-80.5" font-family="Helvetica,sans-Serif" font-size="10.00">gaia::webkit::Pattern</text>
</a>
</g>
<!-- Node3&#45;&gt;Node5 -->
<g id="edge10" class="edge"><title>Node3&#45;&gt;Node5</title>
<path fill="none" stroke="#9a32cd" stroke-dasharray="5,2" d="M203.111,-137.728C219.871,-124.015 242.772,-105.277 256.962,-93.6674"/>
<polygon fill="#9a32cd" stroke="#9a32cd" points="200.508,-135.335 194.985,-144.376 204.941,-140.753 200.508,-135.335"/>
<text text-anchor="middle" x="256.5" y="-116.5" font-family="Helvetica,sans-Serif" font-size="10.00"> m_pattern</text>
</g>
<!-- Node4 -->
<g id="node6" class="node"><title>Node4</title>
<a xlink:href="../../d1/d0f/classgaia_1_1base_1_1_char_sequence.html" target="_top" xlink:title="This interface represents an ordered set of characters and defines the methods to probe them...">
<polygon fill="white" stroke="black" points="116,-204.5 116,-225.5 248,-225.5 248,-204.5 116,-204.5"/>
<text text-anchor="middle" x="182" y="-212.5" font-family="Helvetica,sans-Serif" font-size="10.00">gaia::base::CharSequence</text>
</a>
</g>
<!-- Node4&#45;&gt;Node3 -->
<g id="edge6" class="edge"><title>Node4&#45;&gt;Node3</title>
<path fill="none" stroke="midnightblue" d="M182,-194.231C182,-184.592 182,-173.544 182,-165.634"/>
<polygon fill="midnightblue" stroke="midnightblue" points="178.5,-194.273 182,-204.273 185.5,-194.273 178.5,-194.273"/>
</g>
<!-- Node5&#45;&gt;Node1 -->
<g id="edge8" class="edge"><title>Node5&#45;&gt;Node1</title>
<path fill="none" stroke="#9a32cd" stroke-dasharray="5,2" d="M246.402,-66.663C226.49,-52.8778 198.563,-33.5437 181.409,-21.6674"/>
<polygon fill="#9a32cd" stroke="#9a32cd" points="244.44,-69.5617 254.654,-72.3762 248.425,-63.8063 244.44,-69.5617"/>
<text text-anchor="middle" x="253" y="-44.5" font-family="Helvetica,sans-Serif" font-size="10.00"> mp_pattern</text>
</g>
</g>
</svg>
