<?xml version="1.0" encoding="UTF-8" standalone="no"?>
<!DOCTYPE svg PUBLIC "-//W3C//DTD SVG 1.1//EN"
 "http://www.w3.org/Graphics/SVG/1.1/DTD/svg11.dtd">
<!-- Generated by graphviz version 2.26.3 (20100126.1600)
 -->
<!-- Title: G Pages: 1 -->
<svg width="268pt" height="162pt"
 viewBox="0.00 0.00 268.00 162.00" xmlns="http://www.w3.org/2000/svg" xmlns:xlink="http://www.w3.org/1999/xlink">
<g id="graph1" class="graph" transform="scale(1 1) rotate(0) translate(4 158)">
<title>G</title>
<polygon fill="white" stroke="white" points="-4,5 -4,-158 265,-158 265,5 -4,5"/>
<!-- Node1 -->
<g id="node1" class="node"><title>Node1</title>
<polygon fill="#bfbfbf" stroke="black" points="30.5,-0.5 30.5,-21.5 179.5,-21.5 179.5,-0.5 30.5,-0.5"/>
<text text-anchor="middle" x="105" y="-8.5" font-family="Helvetica,sans-Serif" font-size="10.00">gaia::webkit::MatchResultImpl</text>
</g>
<!-- Node2 -->
<g id="node2" class="node"><title>Node2</title>
<a xlink:href="../../dd/d77/classgaia_1_1webkit_1_1_match_result.html" target="_top" xlink:title="Holds the results of a successful match of a Pattern against a given string.">
<polygon fill="white" stroke="black" points="-0.5,-72.5 -0.5,-93.5 130.5,-93.5 130.5,-72.5 -0.5,-72.5"/>
<text text-anchor="middle" x="65" y="-80.5" font-family="Helvetica,sans-Serif" font-size="10.00">gaia::webkit::MatchResult</text>
</a>
</g>
<!-- Node2&#45;&gt;Node1 -->
<g id="edge2" class="edge"><title>Node2&#45;&gt;Node1</title>
<path fill="none" stroke="midnightblue" d="M75.8781,-63.4193C83.3481,-49.9734 92.9787,-32.6384 99.0736,-21.6674"/>
<polygon fill="midnightblue" stroke="midnightblue" points="72.6991,-61.9348 70.9021,-72.3762 78.8182,-65.3343 72.6991,-61.9348"/>
</g>
<!-- Node3 -->
<g id="node4" class="node"><title>Node3</title>
<a xlink:href="../../d2/ddb/classgaia_1_1base_1_1_string.html" target="_top" xlink:title="A String is represented by array of UTF&#45;16 values, such that Unicode supplementary characters (code p...">
<polygon fill="white" stroke="black" points="147.5,-72.5 147.5,-93.5 240.5,-93.5 240.5,-72.5 147.5,-72.5"/>
<text text-anchor="middle" x="194" y="-80.5" font-family="Helvetica,sans-Serif" font-size="10.00">gaia::base::String</text>
</a>
</g>
<!-- Node3&#45;&gt;Node1 -->
<g id="edge4" class="edge"><title>Node3&#45;&gt;Node1</title>
<path fill="none" stroke="#9a32cd" stroke-dasharray="5,2" d="M172.649,-65.7275C155.699,-52.0146 132.537,-33.2774 118.186,-21.6674"/>
<polygon fill="#9a32cd" stroke="#9a32cd" points="170.892,-68.8077 180.868,-72.3762 175.295,-63.3656 170.892,-68.8077"/>
<text text-anchor="middle" x="171" y="-44.5" font-family="Helvetica,sans-Serif" font-size="10.00"> mtext</text>
</g>
<!-- Node4 -->
<g id="node6" class="node"><title>Node4</title>
<a xlink:href="../../d1/d0f/classgaia_1_1base_1_1_char_sequence.html" target="_top" xlink:title="This interface represents an ordered set of characters and defines the methods to probe them...">
<polygon fill="white" stroke="black" points="128,-132.5 128,-153.5 260,-153.5 260,-132.5 128,-132.5"/>
<text text-anchor="middle" x="194" y="-140.5" font-family="Helvetica,sans-Serif" font-size="10.00">gaia::base::CharSequence</text>
</a>
</g>
<!-- Node4&#45;&gt;Node3 -->
<g id="edge6" class="edge"><title>Node4&#45;&gt;Node3</title>
<path fill="none" stroke="midnightblue" d="M194,-122.231C194,-112.592 194,-101.544 194,-93.6339"/>
<polygon fill="midnightblue" stroke="midnightblue" points="190.5,-122.273 194,-132.273 197.5,-122.273 190.5,-122.273"/>
</g>
</g>
</svg>
