<?xml version="1.0" encoding="UTF-8" standalone="no"?>
<!DOCTYPE svg PUBLIC "-//W3C//DTD SVG 1.1//EN"
 "http://www.w3.org/Graphics/SVG/1.1/DTD/svg11.dtd">
<!-- Generated by graphviz version 2.26.3 (20100126.1600)
 -->
<!-- Title: G Pages: 1 -->
<svg width="1336pt" height="309pt"
 viewBox="0.00 0.00 1336.00 308.65" xmlns="http://www.w3.org/2000/svg" xmlns:xlink="http://www.w3.org/1999/xlink">
<g id="graph1" class="graph" transform="scale(1 1) rotate(0) translate(4 304.645)">
<title>G</title>
<polygon fill="white" stroke="white" points="-4,5 -4,-304.645 1333,-304.645 1333,5 -4,5"/>
<!-- Node1 -->
<g id="node1" class="node"><title>Node1</title>
<polygon fill="#bfbfbf" stroke="black" points="1214.5,-203.145 1214.5,-224.145 1303.5,-224.145 1303.5,-203.145 1214.5,-203.145"/>
<text text-anchor="middle" x="1259" y="-211.145" font-family="Helvetica,sans-Serif" font-size="10.00">gaia::ui::HintBox</text>
</g>
<!-- Node2 -->
<g id="node2" class="node"><title>Node2</title>
<a xlink:href="../../d5/dfb/classgaia_1_1core_1_1_scene.html" target="_top" xlink:title="A Scene is used to build a visual interface.">
<polygon fill="white" stroke="black" points="775.5,-114.145 775.5,-135.145 868.5,-135.145 868.5,-114.145 775.5,-114.145"/>
<text text-anchor="middle" x="822" y="-122.145" font-family="Helvetica,sans-Serif" font-size="10.00">gaia::core::Scene</text>
</a>
</g>
<!-- Node2&#45;&gt;Node1 -->
<g id="edge2" class="edge"><title>Node2&#45;&gt;Node1</title>
<path fill="none" stroke="#9a32cd" stroke-dasharray="5,2" d="M879.253,-119.629C936.571,-116.24 1026.81,-115.371 1102,-134.645 1157.57,-148.89 1216.19,-184.818 1243.41,-202.9"/>
<polygon fill="#9a32cd" stroke="#9a32cd" points="878.702,-116.157 868.945,-120.286 879.147,-123.142 878.702,-116.157"/>
<text text-anchor="middle" x="1041" y="-138.645" font-family="Helvetica,sans-Serif" font-size="10.00"> mpScene</text>
</g>
<!-- Node3 -->
<g id="node4" class="node"><title>Node3</title>
<a xlink:href="../../db/d6c/classgaia_1_1core_1_1_widget_controller.html" target="_top" xlink:title="Define the default widget layout to put sets of layout in it.">
<polygon fill="white" stroke="black" points="1190,-36.1453 1190,-57.1453 1328,-57.1453 1328,-36.1453 1190,-36.1453"/>
<text text-anchor="middle" x="1259" y="-44.1453" font-family="Helvetica,sans-Serif" font-size="10.00">gaia::core::WidgetController</text>
</a>
</g>
<!-- Node2&#45;&gt;Node3 -->
<g id="edge16" class="edge"><title>Node2&#45;&gt;Node3</title>
<path fill="none" stroke="#9a32cd" stroke-dasharray="5,2" d="M837.173,-105.951C862.796,-76.3107 917.954,-20.4659 980,-6.64531 1070.75,13.5685 1180.48,-18.2562 1231.02,-36.0094"/>
<polygon fill="#9a32cd" stroke="#9a32cd" points="834.243,-103.996 830.471,-113.897 839.594,-108.51 834.243,-103.996"/>
<text text-anchor="middle" x="1041" y="-10.6453" font-family="Helvetica,sans-Serif" font-size="10.00"> mpScene</text>
</g>
<!-- Node4 -->
<g id="node6" class="node"><title>Node4</title>
<a xlink:href="../../d8/dac/classgaia_1_1core_1_1_widget.html" target="_top" xlink:title="The Widget class is the base class of all user interface component.">
<polygon fill="white" stroke="black" points="993,-203.145 993,-224.145 1089,-224.145 1089,-203.145 993,-203.145"/>
<text text-anchor="middle" x="1041" y="-211.145" font-family="Helvetica,sans-Serif" font-size="10.00">gaia::core::Widget</text>
</a>
</g>
<!-- Node2&#45;&gt;Node4 -->
<g id="edge10" class="edge"><title>Node2&#45;&gt;Node4</title>
<path fill="none" stroke="#9a32cd" stroke-dasharray="5,2" d="M846.323,-140.869C864.81,-152.634 891.206,-168.244 916,-178.645 940.626,-188.976 969.237,-197.243 992.867,-203.142"/>
<polygon fill="#9a32cd" stroke="#9a32cd" points="847.973,-137.768 837.675,-135.278 844.173,-143.647 847.973,-137.768"/>
<text text-anchor="middle" x="939" y="-197.645" font-family="Helvetica,sans-Serif" font-size="10.00"> mpScene</text>
</g>
<!-- Node12 -->
<g id="node25" class="node"><title>Node12</title>
<a xlink:href="../../db/d3f/classgaia_1_1core_1_1_page.html" target="_top" xlink:title="An page is a single, focused thing that the user can do.">
<polygon fill="white" stroke="black" points="997,-157.145 997,-178.145 1085,-178.145 1085,-157.145 997,-157.145"/>
<text text-anchor="middle" x="1041" y="-165.145" font-family="Helvetica,sans-Serif" font-size="10.00">gaia::core::Page</text>
</a>
</g>
<!-- Node2&#45;&gt;Node12 -->
<g id="edge30" class="edge"><title>Node2&#45;&gt;Node12</title>
<path fill="none" stroke="#9a32cd" stroke-dasharray="5,2" d="M858.374,-138.743C875.597,-144.871 896.6,-151.569 916,-155.645 942.562,-161.227 972.853,-164.218 996.963,-165.818"/>
<polygon fill="#9a32cd" stroke="#9a32cd" points="859.305,-135.357 848.711,-135.224 856.91,-141.934 859.305,-135.357"/>
<text text-anchor="middle" x="939" y="-165.645" font-family="Helvetica,sans-Serif" font-size="10.00"> mpScene</text>
</g>
<!-- Node3&#45;&gt;Node2 -->
<g id="edge4" class="edge"><title>Node3&#45;&gt;Node2</title>
<path fill="none" stroke="#9a32cd" stroke-dasharray="5,2" d="M1201.49,-34.3184C1144.31,-24.3418 1054.61,-14.8866 980,-34.6453 920.798,-50.3241 860.588,-93.9249 834.896,-114.124"/>
<polygon fill="#9a32cd" stroke="#9a32cd" points="1200.96,-37.7799 1211.43,-36.1149 1202.21,-30.8916 1200.96,-37.7799"/>
<text text-anchor="middle" x="1041" y="-38.6453" font-family="Helvetica,sans-Serif" font-size="10.00"> mpController</text>
</g>
<!-- Node4&#45;&gt;Node1 -->
<g id="edge32" class="edge"><title>Node4&#45;&gt;Node1</title>
<path fill="none" stroke="#9a32cd" stroke-dasharray="5,2" d="M1099.5,-213.645C1135.6,-213.645 1181.17,-213.645 1214.36,-213.645"/>
<polygon fill="#9a32cd" stroke="#9a32cd" points="1099.11,-210.145 1089.11,-213.645 1099.11,-217.145 1099.11,-210.145"/>
<text text-anchor="middle" x="1146" y="-217.645" font-family="Helvetica,sans-Serif" font-size="10.00"> mpWidget</text>
</g>
<!-- Node4&#45;&gt;Node3 -->
<g id="edge6" class="edge"><title>Node4&#45;&gt;Node3</title>
<path fill="none" stroke="midnightblue" d="M1080.4,-199.113C1087.8,-195.76 1095.31,-191.908 1102,-187.645 1164.41,-147.877 1226.08,-83.0785 1249.32,-57.5113"/>
<polygon fill="midnightblue" stroke="midnightblue" points="1078.96,-195.923 1071.15,-203.087 1081.72,-202.354 1078.96,-195.923"/>
</g>
<!-- Node5 -->
<g id="node8" class="node"><title>Node5</title>
<a xlink:href="../../d0/db2/classgaia_1_1core_1_1_property_animatable.html" target="_top" xlink:title="Any animation object need to implement PropertyAnimatable because of setting value.">
<polygon fill="white" stroke="black" points="746.5,-279.145 746.5,-300.145 897.5,-300.145 897.5,-279.145 746.5,-279.145"/>
<text text-anchor="middle" x="822" y="-287.145" font-family="Helvetica,sans-Serif" font-size="10.00">gaia::core::PropertyAnimatable</text>
</a>
</g>
<!-- Node5&#45;&gt;Node4 -->
<g id="edge8" class="edge"><title>Node5&#45;&gt;Node4</title>
<path fill="none" stroke="midnightblue" d="M872.828,-276.505C881.248,-274.26 889.879,-271.919 898,-269.645 926.573,-261.647 936.291,-265.458 962,-250.645 971.535,-245.152 970.544,-239.273 980,-233.645 986.225,-229.941 993.222,-226.828 1000.2,-224.245"/>
<polygon fill="midnightblue" stroke="midnightblue" points="871.855,-273.142 863.084,-279.085 873.647,-279.909 871.855,-273.142"/>
</g>
<!-- Node6 -->
<g id="node11" class="node"><title>Node6</title>
<a xlink:href="../../db/d88/classgaia_1_1core_1_1_widget_tag.html" target="_top" xlink:title="gaia::core::WidgetTag">
<polygon fill="white" stroke="black" points="765.5,-239.145 765.5,-260.145 878.5,-260.145 878.5,-239.145 765.5,-239.145"/>
<text text-anchor="middle" x="822" y="-247.145" font-family="Helvetica,sans-Serif" font-size="10.00">gaia::core::WidgetTag</text>
</a>
</g>
<!-- Node6&#45;&gt;Node4 -->
<g id="edge12" class="edge"><title>Node6&#45;&gt;Node4</title>
<path fill="none" stroke="#9a32cd" stroke-dasharray="5,2" d="M888.675,-239.44C911.897,-235.813 938.113,-231.638 962,-227.645 972.029,-225.969 982.762,-224.11 992.982,-222.309"/>
<polygon fill="#9a32cd" stroke="#9a32cd" points="887.922,-236.015 878.579,-241.011 888.999,-242.932 887.922,-236.015"/>
<text text-anchor="middle" x="939" y="-237.645" font-family="Helvetica,sans-Serif" font-size="10.00"> mpTag</text>
</g>
<!-- Node7 -->
<g id="node13" class="node"><title>Node7</title>
<a xlink:href="../../dd/de0/classgaia_1_1core_1_1_event_control.html" target="_top" xlink:title="EventControl is used to dispatch event and register listener.">
<polygon fill="white" stroke="black" points="980,-57.1453 980,-78.1453 1102,-78.1453 1102,-57.1453 980,-57.1453"/>
<text text-anchor="middle" x="1041" y="-65.1453" font-family="Helvetica,sans-Serif" font-size="10.00">gaia::core::EventControl</text>
</a>
</g>
<!-- Node7&#45;&gt;Node3 -->
<g id="edge14" class="edge"><title>Node7&#45;&gt;Node3</title>
<path fill="none" stroke="midnightblue" d="M1112.15,-60.7914C1137.13,-58.3855 1165.13,-55.6879 1189.93,-53.2987"/>
<polygon fill="midnightblue" stroke="midnightblue" points="1111.63,-57.3249 1102.02,-61.7677 1112.3,-64.2926 1111.63,-57.3249"/>
</g>
<!-- Node8 -->
<g id="node16" class="node"><title>Node8</title>
<a xlink:href="../../de/dad/classgaia_1_1content_1_1_resources.html" target="_top" xlink:title="Class for accessing an application&#39;s resources.">
<polygon fill="white" stroke="black" points="481,-132.145 481,-153.145 607,-153.145 607,-132.145 481,-132.145"/>
<text text-anchor="middle" x="544" y="-140.145" font-family="Helvetica,sans-Serif" font-size="10.00">gaia::content::Resources</text>
</a>
</g>
<!-- Node8&#45;&gt;Node2 -->
<g id="edge18" class="edge"><title>Node8&#45;&gt;Node2</title>
<path fill="none" stroke="#9a32cd" stroke-dasharray="5,2" d="M617.198,-137.906C667.217,-134.667 732.013,-130.472 775.192,-127.676"/>
<polygon fill="#9a32cd" stroke="#9a32cd" points="616.835,-134.422 607.083,-138.561 617.288,-141.407 616.835,-134.422"/>
<text text-anchor="middle" x="696" y="-138.645" font-family="Helvetica,sans-Serif" font-size="10.00"> mpResources</text>
</g>
<!-- Node9 -->
<g id="node18" class="node"><title>Node9</title>
<a xlink:href="../../df/d5d/classgaia_1_1base_1_1_vector.html" target="_top" xlink:title="gaia::base::Vector\&lt; gaia::ui::DialogBox * \&gt;">
<polygon fill="white" stroke="black" points="442.5,-92.1453 442.5,-113.145 645.5,-113.145 645.5,-92.1453 442.5,-92.1453"/>
<text text-anchor="middle" x="544" y="-100.145" font-family="Helvetica,sans-Serif" font-size="10.00">gaia::base::Vector&lt; gaia::ui::DialogBox * &gt;</text>
</a>
</g>
<!-- Node9&#45;&gt;Node2 -->
<g id="edge20" class="edge"><title>Node9&#45;&gt;Node2</title>
<path fill="none" stroke="#9a32cd" stroke-dasharray="5,2" d="M655.913,-108.317C679.726,-109.809 704.71,-111.588 728,-113.645 743.385,-115.004 760.145,-116.848 775.197,-118.638"/>
<polygon fill="#9a32cd" stroke="#9a32cd" points="655.983,-104.815 645.787,-107.695 655.554,-111.802 655.983,-104.815"/>
<text text-anchor="middle" x="696" y="-117.645" font-family="Helvetica,sans-Serif" font-size="10.00"> mDialogList</text>
</g>
<!-- Node10 -->
<g id="node20" class="node"><title>Node10</title>
<a xlink:href="../../d0/d21/classgaia_1_1base_1_1_vector_impl.html" target="_top" xlink:title="Implements vector data structure equipped with copy&#45;on&#45;write mechanism.">
<polygon fill="white" stroke="black" points="0.5,-91.1453 0.5,-112.145 115.5,-112.145 115.5,-91.1453 0.5,-91.1453"/>
<text text-anchor="middle" x="58" y="-99.1453" font-family="Helvetica,sans-Serif" font-size="10.00">gaia::base::VectorImpl</text>
</a>
</g>
<!-- Node10&#45;&gt;Node9 -->
<g id="edge22" class="edge"><title>Node10&#45;&gt;Node9</title>
<path fill="none" stroke="#8b1a1a" d="M125.792,-103.519C128.564,-103.567 131.309,-103.61 134,-103.645 262.878,-105.341 295.112,-104.182 424,-103.645 429.938,-103.621 436.041,-103.589 442.198,-103.552"/>
<polygon fill="#8b1a1a" stroke="#8b1a1a" points="125.743,-100.018 115.677,-103.322 125.607,-107.016 125.743,-100.018"/>
</g>
<!-- Node11 -->
<g id="node22" class="node"><title>Node11</title>
<a xlink:href="../../df/d5d/classgaia_1_1base_1_1_vector.html" target="_top" xlink:title="This class implements the vector data structure.">
<polygon fill="white" stroke="black" points="154,-68.1453 154,-89.1453 294,-89.1453 294,-68.1453 154,-68.1453"/>
<text text-anchor="middle" x="224" y="-76.1453" font-family="Helvetica,sans-Serif" font-size="10.00">gaia::base::Vector&lt; TYPE &gt;</text>
</a>
</g>
<!-- Node10&#45;&gt;Node11 -->
<g id="edge26" class="edge"><title>Node10&#45;&gt;Node11</title>
<path fill="none" stroke="#8b1a1a" d="M125.596,-92.2797C134.933,-90.9859 144.54,-89.6549 153.921,-88.3551"/>
<polygon fill="#8b1a1a" stroke="#8b1a1a" points="125.018,-88.8262 115.593,-93.6656 125.979,-95.7599 125.018,-88.8262"/>
</g>
<!-- Node11&#45;&gt;Node9 -->
<g id="edge24" class="edge"><title>Node11&#45;&gt;Node9</title>
<path fill="none" stroke="orange" stroke-dasharray="5,2" d="M304.488,-82.7435C340.994,-84.7903 384.699,-87.5025 424,-90.6453 429.948,-91.121 436.059,-91.6394 442.223,-92.1853"/>
<polygon fill="orange" stroke="orange" points="304.571,-79.2428 294.392,-82.1841 304.183,-86.2321 304.571,-79.2428"/>
<text text-anchor="middle" x="368" y="-94.6453" font-family="Helvetica,sans-Serif" font-size="10.00"> &lt; gaia::ui::DialogBox * &gt;</text>
</g>
<!-- Node12&#45;&gt;Node2 -->
<g id="edge28" class="edge"><title>Node12&#45;&gt;Node2</title>
<path fill="none" stroke="#9a32cd" stroke-dasharray="5,2" d="M1002.27,-153.872C989.571,-149.764 975.301,-145.58 962,-142.645 931.25,-135.86 896.096,-131.351 868.707,-128.543"/>
<polygon fill="#9a32cd" stroke="#9a32cd" points="1001.48,-157.297 1012.07,-157.124 1003.69,-150.653 1001.48,-157.297"/>
<text text-anchor="middle" x="939" y="-146.645" font-family="Helvetica,sans-Serif" font-size="10.00"> mpPage</text>
</g>
<!-- Node13 -->
<g id="node29" class="node"><title>Node13</title>
<a xlink:href="../../d0/d05/classgaia_1_1core_1_1_context.html" target="_top" xlink:title="Interface to global information about an application environment.">
<polygon fill="white" stroke="black" points="991,-243.145 991,-264.145 1091,-264.145 1091,-243.145 991,-243.145"/>
<text text-anchor="middle" x="1041" y="-251.145" font-family="Helvetica,sans-Serif" font-size="10.00">gaia::core::Context</text>
</a>
</g>
<!-- Node13&#45;&gt;Node1 -->
<g id="edge34" class="edge"><title>Node13&#45;&gt;Node1</title>
<path fill="none" stroke="#9a32cd" stroke-dasharray="5,2" d="M1101.11,-243.34C1123.39,-239.455 1148.87,-234.936 1172,-230.645 1185.77,-228.091 1200.74,-225.205 1214.32,-222.545"/>
<polygon fill="#9a32cd" stroke="#9a32cd" points="1100.37,-239.917 1091.12,-245.078 1101.57,-246.813 1100.37,-239.917"/>
<text text-anchor="middle" x="1146" y="-243.645" font-family="Helvetica,sans-Serif" font-size="10.00"> mpContext</text>
</g>
</g>
</svg>
