<?xml version="1.0" encoding="UTF-8" standalone="no"?>
<!DOCTYPE svg PUBLIC "-//W3C//DTD SVG 1.1//EN"
 "http://www.w3.org/Graphics/SVG/1.1/DTD/svg11.dtd">
<!-- Generated by graphviz version 2.26.3 (20100126.1600)
 -->
<!-- Title: G Pages: 1 -->
<svg width="13832pt" height="204pt"
 viewBox="0.00 0.00 13832.00 204.00" xmlns="http://www.w3.org/2000/svg" xmlns:xlink="http://www.w3.org/1999/xlink">
<g id="graph1" class="graph" transform="scale(1 1) rotate(0) translate(4 200)">
<title>G</title>
<polygon fill="white" stroke="white" points="-4,5 -4,-200 13829,-200 13829,5 -4,5"/>
<!-- Node1 -->
<g id="node1" class="node"><title>Node1</title>
<polygon fill="#bfbfbf" stroke="black" points="9661.5,-174.5 9661.5,-195.5 9932.5,-195.5 9932.5,-174.5 9661.5,-174.5"/>
<text text-anchor="middle" x="9797" y="-182.5" font-family="Helvetica,sans-Serif" font-size="10.00">/home/vilon_tao/gaia/sdk/include/gaia/base/TypeHelpers.h</text>
</g>
<!-- Node2 -->
<g id="node3" class="node"><title>Node2</title>
<a xlink:href="../../d3/dc5/_array_8h.html" target="_top" xlink:title="/home/vilon_tao/gaia/sdk/include/gaia/base/Array.h">
<polygon fill="white" stroke="black" points="9677.5,-116.5 9677.5,-137.5 9916.5,-137.5 9916.5,-116.5 9677.5,-116.5"/>
<text text-anchor="middle" x="9797" y="-124.5" font-family="Helvetica,sans-Serif" font-size="10.00">/home/vilon_tao/gaia/sdk/include/gaia/base/Array.h</text>
</a>
</g>
<!-- Node1&#45;&gt;Node2 -->
<g id="edge2" class="edge"><title>Node1&#45;&gt;Node2</title>
<path fill="none" stroke="midnightblue" d="M9797,-164.191C9797,-155.168 9797,-144.994 9797,-137.571"/>
<polygon fill="midnightblue" stroke="midnightblue" points="9793.5,-164.362 9797,-174.362 9800.5,-164.362 9793.5,-164.362"/>
</g>
<!-- Node31 -->
<g id="node61" class="node"><title>Node31</title>
<a xlink:href="../../dc/d1f/_list_8h.html" target="_top" xlink:title="/home/vilon_tao/gaia/sdk/include/gaia/base/List.h">
<polygon fill="white" stroke="black" points="9933.5,-116.5 9933.5,-137.5 10164.5,-137.5 10164.5,-116.5 9933.5,-116.5"/>
<text text-anchor="middle" x="10049" y="-124.5" font-family="Helvetica,sans-Serif" font-size="10.00">/home/vilon_tao/gaia/sdk/include/gaia/base/List.h</text>
</a>
</g>
<!-- Node1&#45;&gt;Node31 -->
<g id="edge60" class="edge"><title>Node1&#45;&gt;Node31</title>
<path fill="none" stroke="midnightblue" d="M9852.58,-172.208C9897.83,-161.794 9960.92,-147.272 10003.3,-137.523"/>
<polygon fill="midnightblue" stroke="midnightblue" points="9851.6,-168.843 9842.64,-174.497 9853.17,-175.664 9851.6,-168.843"/>
</g>
<!-- Node32 -->
<g id="node63" class="node"><title>Node32</title>
<a xlink:href="../../d4/d7f/_vector_8h.html" target="_top" xlink:title="/home/vilon_tao/gaia/sdk/include/gaia/base/Vector.h">
<polygon fill="white" stroke="red" points="3646,-116.5 3646,-137.5 3890,-137.5 3890,-116.5 3646,-116.5"/>
<text text-anchor="middle" x="3768" y="-124.5" font-family="Helvetica,sans-Serif" font-size="10.00">/home/vilon_tao/gaia/sdk/include/gaia/base/Vector.h</text>
</a>
</g>
<!-- Node1&#45;&gt;Node32 -->
<g id="edge62" class="edge"><title>Node1&#45;&gt;Node32</title>
<path fill="none" stroke="midnightblue" d="M9650.92,-183.595C8815.98,-175.562 4658.26,-135.564 3890.14,-128.175"/>
<polygon fill="midnightblue" stroke="midnightblue" points="9651.16,-187.097 9661.19,-183.693 9651.22,-180.097 9651.16,-187.097"/>
</g>
<!-- Node3 -->
<g id="node5" class="node"><title>Node3</title>
<a xlink:href="../../d7/d86/_app_widget_manager_8h.html" target="_top" xlink:title="/home/vilon_tao/gaia/sdk/include/gaia/core/appwidget/AppWidgetManager.h">
<polygon fill="white" stroke="black" points="6436,-58.5 6436,-79.5 6782,-79.5 6782,-58.5 6436,-58.5"/>
<text text-anchor="middle" x="6609" y="-66.5" font-family="Helvetica,sans-Serif" font-size="10.00">/home/vilon_tao/gaia/sdk/include/gaia/core/appwidget/AppWidgetManager.h</text>
</a>
</g>
<!-- Node2&#45;&gt;Node3 -->
<g id="edge4" class="edge"><title>Node2&#45;&gt;Node3</title>
<path fill="none" stroke="midnightblue" d="M9667.21,-125.745C9167.04,-120.789 7363.87,-101.78 6791,-80 6787.05,-79.8497 6783.04,-79.6878 6779.01,-79.5159"/>
<polygon fill="midnightblue" stroke="midnightblue" points="9667.32,-129.246 9677.35,-125.846 9667.39,-122.247 9667.32,-129.246"/>
</g>
<!-- Node4 -->
<g id="node7" class="node"><title>Node4</title>
<a xlink:href="../../db/df1/_app_widget_provider_8h.html" target="_top" xlink:title="/home/vilon_tao/gaia/sdk/include/gaia/core/appwidget/AppWidgetProvider.h">
<polygon fill="white" stroke="black" points="6800,-58.5 6800,-79.5 7144,-79.5 7144,-58.5 6800,-58.5"/>
<text text-anchor="middle" x="6972" y="-66.5" font-family="Helvetica,sans-Serif" font-size="10.00">/home/vilon_tao/gaia/sdk/include/gaia/core/appwidget/AppWidgetProvider.h</text>
</a>
</g>
<!-- Node2&#45;&gt;Node4 -->
<g id="edge6" class="edge"><title>Node2&#45;&gt;Node4</title>
<path fill="none" stroke="midnightblue" d="M9667.34,-126.665C9283.33,-125.249 8118.42,-117.899 7153,-80 7149.07,-79.8456 7145.09,-79.6801 7141.07,-79.5049"/>
<polygon fill="midnightblue" stroke="midnightblue" points="9667.36,-130.165 9677.37,-126.701 9667.39,-123.165 9667.36,-130.165"/>
</g>
<!-- Node5 -->
<g id="node9" class="node"><title>Node5</title>
<a xlink:href="../../dc/d63/_demand_8h.html" target="_top" xlink:title="/home/vilon_tao/gaia/sdk/include/gaia/core/Demand.h">
<polygon fill="white" stroke="red" points="12450,-58.5 12450,-79.5 12700,-79.5 12700,-58.5 12450,-58.5"/>
<text text-anchor="middle" x="12575" y="-66.5" font-family="Helvetica,sans-Serif" font-size="10.00">/home/vilon_tao/gaia/sdk/include/gaia/core/Demand.h</text>
</a>
</g>
<!-- Node2&#45;&gt;Node5 -->
<g id="edge8" class="edge"><title>Node2&#45;&gt;Node5</title>
<path fill="none" stroke="midnightblue" d="M9926.14,-115.982C11041.4,-60.62 11324.5,-131.893 12436,-80 12440.6,-79.7855 12445.3,-79.5422 12450,-79.2757"/>
<polygon fill="midnightblue" stroke="midnightblue" points="9925.69,-112.5 9915.87,-116.494 9926.04,-119.491 9925.69,-112.5"/>
</g>
<!-- Node6 -->
<g id="node11" class="node"><title>Node6</title>
<a xlink:href="../../d7/d7e/_g_l10_8h.html" target="_top" xlink:title="/home/vilon_tao/gaia/sdk/include/gaia/core/GL10.h">
<polygon fill="white" stroke="red" points="12718,-58.5 12718,-79.5 12954,-79.5 12954,-58.5 12718,-58.5"/>
<text text-anchor="middle" x="12836" y="-66.5" font-family="Helvetica,sans-Serif" font-size="10.00">/home/vilon_tao/gaia/sdk/include/gaia/core/GL10.h</text>
</a>
</g>
<!-- Node2&#45;&gt;Node6 -->
<g id="edge10" class="edge"><title>Node2&#45;&gt;Node6</title>
<path fill="none" stroke="midnightblue" d="M9925.88,-115.996C11162.6,-55.447 11476.4,-141.266 12709,-80 12712,-79.8517 12715,-79.6884 12718.1,-79.5122"/>
<polygon fill="midnightblue" stroke="midnightblue" points="9925.69,-112.501 9915.87,-116.488 9926.03,-119.493 9925.69,-112.501"/>
</g>
<!-- Node7 -->
<g id="node13" class="node"><title>Node7</title>
<a xlink:href="../../d6/d78/_g_l11_ext_8h.html" target="_top" xlink:title="/home/vilon_tao/gaia/sdk/include/gaia/core/GL11Ext.h">
<polygon fill="white" stroke="black" points="12971.5,-58.5 12971.5,-79.5 13222.5,-79.5 13222.5,-58.5 12971.5,-58.5"/>
<text text-anchor="middle" x="13097" y="-66.5" font-family="Helvetica,sans-Serif" font-size="10.00">/home/vilon_tao/gaia/sdk/include/gaia/core/GL11Ext.h</text>
</a>
</g>
<!-- Node2&#45;&gt;Node7 -->
<g id="edge12" class="edge"><title>Node2&#45;&gt;Node7</title>
<path fill="none" stroke="midnightblue" d="M9926.3,-115.977C11275.5,-50.6232 11617.6,-143.114 12963,-80 12966.1,-79.8523 12969.3,-79.6897 12972.6,-79.5139"/>
<polygon fill="midnightblue" stroke="midnightblue" points="9925.69,-112.502 9915.87,-116.484 9926.03,-119.494 9925.69,-112.502"/>
</g>
<!-- Node8 -->
<g id="node15" class="node"><title>Node8</title>
<a xlink:href="../../df/dcf/_g_l11_extension_pack_8h.html" target="_top" xlink:title="/home/vilon_tao/gaia/sdk/include/gaia/core/GL11ExtensionPack.h">
<polygon fill="white" stroke="black" points="13240,-58.5 13240,-79.5 13542,-79.5 13542,-58.5 13240,-58.5"/>
<text text-anchor="middle" x="13391" y="-66.5" font-family="Helvetica,sans-Serif" font-size="10.00">/home/vilon_tao/gaia/sdk/include/gaia/core/GL11ExtensionPack.h</text>
</a>
</g>
<!-- Node2&#45;&gt;Node8 -->
<g id="edge14" class="edge"><title>Node2&#45;&gt;Node8</title>
<path fill="none" stroke="midnightblue" d="M9925.52,-116.018C11394.4,-45.464 11766.1,-138.285 13231,-80 13234.8,-79.8506 13238.6,-79.6863 13242.4,-79.5092"/>
<polygon fill="midnightblue" stroke="midnightblue" points="9925.35,-112.522 9915.53,-116.499 9925.69,-119.514 9925.35,-112.522"/>
</g>
<!-- Node9 -->
<g id="node17" class="node"><title>Node9</title>
<a xlink:href="../../d5/de8/_page_manager_8h.html" target="_top" xlink:title="/home/vilon_tao/gaia/sdk/include/gaia/core/PageManager.h">
<polygon fill="white" stroke="black" points="5821.5,-58.5 5821.5,-79.5 6094.5,-79.5 6094.5,-58.5 5821.5,-58.5"/>
<text text-anchor="middle" x="5958" y="-66.5" font-family="Helvetica,sans-Serif" font-size="10.00">/home/vilon_tao/gaia/sdk/include/gaia/core/PageManager.h</text>
</a>
</g>
<!-- Node2&#45;&gt;Node9 -->
<g id="edge16" class="edge"><title>Node2&#45;&gt;Node9</title>
<path fill="none" stroke="midnightblue" d="M9667.2,-126.448C9097.93,-123.855 6818.64,-111.666 6103,-80 6099.6,-79.8493 6096.15,-79.684 6092.67,-79.5059"/>
<polygon fill="midnightblue" stroke="midnightblue" points="9667.48,-129.949 9677.49,-126.494 9667.51,-122.949 9667.48,-129.949"/>
</g>
<!-- Node10 -->
<g id="node19" class="node"><title>Node10</title>
<a xlink:href="../../df/d57/_parcel_8h.html" target="_top" xlink:title="/home/vilon_tao/gaia/sdk/include/gaia/core/Parcel.h">
<polygon fill="white" stroke="red" points="7161.5,-58.5 7161.5,-79.5 7402.5,-79.5 7402.5,-58.5 7161.5,-58.5"/>
<text text-anchor="middle" x="7282" y="-66.5" font-family="Helvetica,sans-Serif" font-size="10.00">/home/vilon_tao/gaia/sdk/include/gaia/core/Parcel.h</text>
</a>
</g>
<!-- Node2&#45;&gt;Node10 -->
<g id="edge18" class="edge"><title>Node2&#45;&gt;Node10</title>
<path fill="none" stroke="midnightblue" d="M9667.19,-125.564C9236.33,-120.619 7855.77,-103.319 7411,-80 7408.08,-79.847 7405.13,-79.6812 7402.15,-79.5043"/>
<polygon fill="midnightblue" stroke="midnightblue" points="9667.15,-129.063 9677.19,-125.678 9667.24,-122.064 9667.15,-129.063"/>
</g>
<!-- Node12 -->
<g id="node23" class="node"><title>Node12</title>
<a xlink:href="../../d5/d54/_persistence_8h.html" target="_top" xlink:title="/home/vilon_tao/gaia/sdk/include/gaia/core/Persistence.h">
<polygon fill="white" stroke="red" points="13559.5,-58.5 13559.5,-79.5 13824.5,-79.5 13824.5,-58.5 13559.5,-58.5"/>
<text text-anchor="middle" x="13692" y="-66.5" font-family="Helvetica,sans-Serif" font-size="10.00">/home/vilon_tao/gaia/sdk/include/gaia/core/Persistence.h</text>
</a>
</g>
<!-- Node2&#45;&gt;Node12 -->
<g id="edge22" class="edge"><title>Node2&#45;&gt;Node12</title>
<path fill="none" stroke="midnightblue" d="M9925.6,-116.015C11536.5,-39.4121 11944.3,-150.569 13551,-80 13554.4,-79.8492 13557.9,-79.6819 13561.4,-79.5005"/>
<polygon fill="midnightblue" stroke="midnightblue" points="9925.35,-112.523 9915.53,-116.495 9925.69,-119.515 9925.35,-112.523"/>
</g>
<!-- Node13 -->
<g id="node25" class="node"><title>Node13</title>
<a xlink:href="../../de/db2/_anim_scale_8h.html" target="_top" xlink:title="/home/vilon_tao/gaia/sdk/include/gaia/core/vision/AnimScale.h">
<polygon fill="white" stroke="black" points="7419.5,-58.5 7419.5,-79.5 7708.5,-79.5 7708.5,-58.5 7419.5,-58.5"/>
<text text-anchor="middle" x="7564" y="-66.5" font-family="Helvetica,sans-Serif" font-size="10.00">/home/vilon_tao/gaia/sdk/include/gaia/core/vision/AnimScale.h</text>
</a>
</g>
<!-- Node2&#45;&gt;Node13 -->
<g id="edge24" class="edge"><title>Node2&#45;&gt;Node13</title>
<path fill="none" stroke="midnightblue" d="M9666.87,-126.281C9339.28,-123.989 8454.05,-114.801 7717,-80 7713.81,-79.8493 7710.58,-79.6885 7707.32,-79.519"/>
<polygon fill="midnightblue" stroke="midnightblue" points="9667.32,-129.785 9677.34,-126.354 9667.37,-122.785 9667.32,-129.785"/>
</g>
<!-- Node14 -->
<g id="node27" class="node"><title>Node14</title>
<a xlink:href="../../df/dde/_display_8h.html" target="_top" xlink:title="/home/vilon_tao/gaia/sdk/include/gaia/core/vision/Display.h">
<polygon fill="white" stroke="black" points="7725.5,-58.5 7725.5,-79.5 8000.5,-79.5 8000.5,-58.5 7725.5,-58.5"/>
<text text-anchor="middle" x="7863" y="-66.5" font-family="Helvetica,sans-Serif" font-size="10.00">/home/vilon_tao/gaia/sdk/include/gaia/core/vision/Display.h</text>
</a>
</g>
<!-- Node2&#45;&gt;Node14 -->
<g id="edge26" class="edge"><title>Node2&#45;&gt;Node14</title>
<path fill="none" stroke="midnightblue" d="M9667.08,-125.762C9372.15,-122.474 8629.45,-111.509 8009,-80 8005.95,-79.8453 8002.87,-79.6809 7999.77,-79.5081"/>
<polygon fill="midnightblue" stroke="midnightblue" points="9667.35,-129.265 9677.39,-125.876 9667.43,-122.265 9667.35,-129.265"/>
</g>
<!-- Node15 -->
<g id="node29" class="node"><title>Node15</title>
<a xlink:href="../../d6/d9e/_i_media_container_delegate_8h.html" target="_top" xlink:title="/home/vilon_tao/gaia/sdk/include/gaia/defcontainer/IMediaContainerDelegate.h">
<polygon fill="white" stroke="black" points="8018,-58.5 8018,-79.5 8376,-79.5 8376,-58.5 8018,-58.5"/>
<text text-anchor="middle" x="8197" y="-66.5" font-family="Helvetica,sans-Serif" font-size="10.00">/home/vilon_tao/gaia/sdk/include/gaia/defcontainer/IMediaContainerDelegate.h</text>
</a>
</g>
<!-- Node2&#45;&gt;Node15 -->
<g id="edge28" class="edge"><title>Node2&#45;&gt;Node15</title>
<path fill="none" stroke="midnightblue" d="M9667.32,-123.775C9418.57,-117.346 8857.16,-101.668 8385,-80 8381.57,-79.8426 8378.11,-79.6797 8374.62,-79.5118"/>
<polygon fill="midnightblue" stroke="midnightblue" points="9667.4,-127.278 9677.48,-124.037 9667.58,-120.28 9667.4,-127.278"/>
</g>
<!-- Node16 -->
<g id="node31" class="node"><title>Node16</title>
<a xlink:href="../../d4/db7/_d_n_s_8h.html" target="_top" xlink:title="/home/vilon_tao/gaia/sdk/include/gaia/net/DNS.h">
<polygon fill="white" stroke="black" points="8394,-58.5 8394,-79.5 8624,-79.5 8624,-58.5 8394,-58.5"/>
<text text-anchor="middle" x="8509" y="-66.5" font-family="Helvetica,sans-Serif" font-size="10.00">/home/vilon_tao/gaia/sdk/include/gaia/net/DNS.h</text>
</a>
</g>
<!-- Node2&#45;&gt;Node16 -->
<g id="edge30" class="edge"><title>Node2&#45;&gt;Node16</title>
<path fill="none" stroke="midnightblue" d="M9667.02,-123.793C9451.81,-118.024 9008,-104.19 8633,-80 8630.09,-79.8122 8627.14,-79.6136 8624.16,-79.4059"/>
<polygon fill="midnightblue" stroke="midnightblue" points="9667,-127.293 9677.09,-124.061 9667.19,-120.296 9667,-127.293"/>
</g>
<!-- Node17 -->
<g id="node33" class="node"><title>Node17</title>
<a xlink:href="../../d5/d28/_i_p_host_entry_8h.html" target="_top" xlink:title="/home/vilon_tao/gaia/sdk/include/gaia/net/IPHostEntry.h">
<polygon fill="white" stroke="black" points="8642,-58.5 8642,-79.5 8904,-79.5 8904,-58.5 8642,-58.5"/>
<text text-anchor="middle" x="8773" y="-66.5" font-family="Helvetica,sans-Serif" font-size="10.00">/home/vilon_tao/gaia/sdk/include/gaia/net/IPHostEntry.h</text>
</a>
</g>
<!-- Node2&#45;&gt;Node17 -->
<g id="edge32" class="edge"><title>Node2&#45;&gt;Node17</title>
<path fill="none" stroke="midnightblue" d="M9667.06,-121.121C9494.65,-113.085 9180.83,-97.6391 8913,-80 8910.08,-79.8077 8907.13,-79.6093 8904.15,-79.4058"/>
<polygon fill="midnightblue" stroke="midnightblue" points="9667.04,-124.624 9677.19,-121.593 9667.37,-117.632 9667.04,-124.624"/>
</g>
<!-- Node18 -->
<g id="node35" class="node"><title>Node18</title>
<a xlink:href="../../d9/d38/_s_s_l_info_8h.html" target="_top" xlink:title="/home/vilon_tao/gaia/sdk/include/gaia/net/SSLInfo.h">
<polygon fill="white" stroke="black" points="8921.5,-58.5 8921.5,-79.5 9164.5,-79.5 9164.5,-58.5 8921.5,-58.5"/>
<text text-anchor="middle" x="9043" y="-66.5" font-family="Helvetica,sans-Serif" font-size="10.00">/home/vilon_tao/gaia/sdk/include/gaia/net/SSLInfo.h</text>
</a>
</g>
<!-- Node2&#45;&gt;Node18 -->
<g id="edge34" class="edge"><title>Node2&#45;&gt;Node18</title>
<path fill="none" stroke="midnightblue" d="M9667.25,-117.578C9541.02,-108.329 9343.81,-93.6591 9173,-80 9170.29,-79.7833 9167.55,-79.5628 9164.79,-79.3393"/>
<polygon fill="midnightblue" stroke="midnightblue" points="9667.12,-121.078 9677.35,-118.318 9667.63,-114.096 9667.12,-121.078"/>
</g>
<!-- Node19 -->
<g id="node37" class="node"><title>Node19</title>
<a xlink:href="../../d3/d02/_s_s_l_request_info_8h.html" target="_top" xlink:title="/home/vilon_tao/gaia/sdk/include/gaia/net/SSLRequestInfo.h">
<polygon fill="white" stroke="black" points="9182,-58.5 9182,-79.5 9462,-79.5 9462,-58.5 9182,-58.5"/>
<text text-anchor="middle" x="9322" y="-66.5" font-family="Helvetica,sans-Serif" font-size="10.00">/home/vilon_tao/gaia/sdk/include/gaia/net/SSLRequestInfo.h</text>
</a>
</g>
<!-- Node2&#45;&gt;Node19 -->
<g id="edge36" class="edge"><title>Node2&#45;&gt;Node19</title>
<path fill="none" stroke="midnightblue" d="M9700.98,-115.276C9615.24,-104.806 9490.78,-89.6095 9408.18,-79.5231"/>
<polygon fill="midnightblue" stroke="midnightblue" points="9700.63,-118.759 9710.98,-116.497 9701.48,-111.81 9700.63,-118.759"/>
</g>
<!-- Node20 -->
<g id="node39" class="node"><title>Node20</title>
<a xlink:href="../../d6/d00/_s_q_lite_query_builder_8h.html" target="_top" xlink:title="/home/vilon_tao/gaia/sdk/include/gaia/storage/SQLiteQueryBuilder.h">
<polygon fill="white" stroke="black" points="9479.5,-58.5 9479.5,-79.5 9792.5,-79.5 9792.5,-58.5 9479.5,-58.5"/>
<text text-anchor="middle" x="9636" y="-66.5" font-family="Helvetica,sans-Serif" font-size="10.00">/home/vilon_tao/gaia/sdk/include/gaia/storage/SQLiteQueryBuilder.h</text>
</a>
</g>
<!-- Node2&#45;&gt;Node20 -->
<g id="edge38" class="edge"><title>Node2&#45;&gt;Node20</title>
<path fill="none" stroke="midnightblue" d="M9758.16,-113.009C9729.55,-102.702 9691.25,-88.903 9665.21,-79.5231"/>
<polygon fill="midnightblue" stroke="midnightblue" points="9757.25,-116.4 9767.84,-116.497 9759.62,-109.814 9757.25,-116.4"/>
</g>
<!-- Node21 -->
<g id="node41" class="node"><title>Node21</title>
<a xlink:href="../../df/d25/_storage_manager_8h.html" target="_top" xlink:title="/home/vilon_tao/gaia/sdk/include/gaia/storage/StorageManager.h">
<polygon fill="white" stroke="black" points="9810,-58.5 9810,-79.5 10108,-79.5 10108,-58.5 9810,-58.5"/>
<text text-anchor="middle" x="9959" y="-66.5" font-family="Helvetica,sans-Serif" font-size="10.00">/home/vilon_tao/gaia/sdk/include/gaia/storage/StorageManager.h</text>
</a>
</g>
<!-- Node2&#45;&gt;Node21 -->
<g id="edge40" class="edge"><title>Node2&#45;&gt;Node21</title>
<path fill="none" stroke="midnightblue" d="M9836.08,-113.009C9864.87,-102.702 9903.41,-88.903 9929.61,-79.5231"/>
<polygon fill="midnightblue" stroke="midnightblue" points="9834.57,-109.831 9826.34,-116.497 9836.93,-116.421 9834.57,-109.831"/>
</g>
<!-- Node22 -->
<g id="node43" class="node"><title>Node22</title>
<a xlink:href="../../d4/d31/_sensor_data_8h.html" target="_top" xlink:title="/home/vilon_tao/gaia/sdk/include/gaia/system/SensorData.h">
<polygon fill="white" stroke="black" points="8900,-0.5 8900,-21.5 9178,-21.5 9178,-0.5 8900,-0.5"/>
<text text-anchor="middle" x="9039" y="-8.5" font-family="Helvetica,sans-Serif" font-size="10.00">/home/vilon_tao/gaia/sdk/include/gaia/system/SensorData.h</text>
</a>
</g>
<!-- Node2&#45;&gt;Node22 -->
<g id="edge42" class="edge"><title>Node2&#45;&gt;Node22</title>
<path fill="none" stroke="midnightblue" d="M9925.96,-116.276C10101.4,-113.681 12379.6,-103.785 12403,-80 12409.9,-73.036 12409.9,-64.9621 12403,-58 12374.2,-28.8271 9809.56,-14.6785 9178.22,-11.6357"/>
<polygon fill="midnightblue" stroke="midnightblue" points="9925.8,-112.779 9915.87,-116.495 9925.95,-119.777 9925.8,-112.779"/>
</g>
<!-- Node23 -->
<g id="node45" class="node"><title>Node23</title>
<a xlink:href="../../d9/dc2/_number_key_listener_8h.html" target="_top" xlink:title="/home/vilon_tao/gaia/sdk/include/gaia/text/method/NumberKeyListener.h">
<polygon fill="white" stroke="red" points="10126,-58.5 10126,-79.5 10458,-79.5 10458,-58.5 10126,-58.5"/>
<text text-anchor="middle" x="10292" y="-66.5" font-family="Helvetica,sans-Serif" font-size="10.00">/home/vilon_tao/gaia/sdk/include/gaia/text/method/NumberKeyListener.h</text>
</a>
</g>
<!-- Node2&#45;&gt;Node23 -->
<g id="edge44" class="edge"><title>Node2&#45;&gt;Node23</title>
<path fill="none" stroke="midnightblue" d="M9896.79,-115.308C9986.15,-104.837 10116,-89.6198 10202.2,-79.5231"/>
<polygon fill="midnightblue" stroke="midnightblue" points="9896.17,-111.857 9886.64,-116.497 9896.98,-118.809 9896.17,-111.857"/>
</g>
<!-- Node24 -->
<g id="node47" class="node"><title>Node24</title>
<a xlink:href="../../dd/d89/_replacement_transformation_method_8h.html" target="_top" xlink:title="/home/vilon_tao/gaia/sdk/include/gaia/text/method/ReplacementTransformationMethod.h">
<polygon fill="white" stroke="red" points="10475.5,-58.5 10475.5,-79.5 10876.5,-79.5 10876.5,-58.5 10475.5,-58.5"/>
<text text-anchor="middle" x="10676" y="-66.5" font-family="Helvetica,sans-Serif" font-size="10.00">/home/vilon_tao/gaia/sdk/include/gaia/text/method/ReplacementTransformationMethod.h</text>
</a>
</g>
<!-- Node2&#45;&gt;Node24 -->
<g id="edge46" class="edge"><title>Node2&#45;&gt;Node24</title>
<path fill="none" stroke="midnightblue" d="M9926.57,-115.896C10124.3,-101.3 10339.3,-88.1792 10488.8,-79.505"/>
<polygon fill="midnightblue" stroke="midnightblue" points="9926.28,-112.407 9916.57,-116.636 9926.8,-119.388 9926.28,-112.407"/>
</g>
<!-- Node25 -->
<g id="node49" class="node"><title>Node25</title>
<a xlink:href="../../dc/d40/_text_key_listener_8h.html" target="_top" xlink:title="/home/vilon_tao/gaia/sdk/include/gaia/text/method/TextKeyListener.h">
<polygon fill="white" stroke="black" points="10893.5,-58.5 10893.5,-79.5 11210.5,-79.5 11210.5,-58.5 10893.5,-58.5"/>
<text text-anchor="middle" x="11052" y="-66.5" font-family="Helvetica,sans-Serif" font-size="10.00">/home/vilon_tao/gaia/sdk/include/gaia/text/method/TextKeyListener.h</text>
</a>
</g>
<!-- Node2&#45;&gt;Node25 -->
<g id="edge48" class="edge"><title>Node2&#45;&gt;Node25</title>
<path fill="none" stroke="midnightblue" d="M9926.69,-115.92C10352.9,-89.9039 10461.9,-101.861 10885,-80 10888,-79.8426 10891.1,-79.6795 10894.2,-79.5116"/>
<polygon fill="midnightblue" stroke="midnightblue" points="9926.33,-112.436 9916.56,-116.542 9926.76,-119.423 9926.33,-112.436"/>
</g>
<!-- Node26 -->
<g id="node51" class="node"><title>Node26</title>
<a xlink:href="../../d7/dc2/_spanned_8h.html" target="_top" xlink:title="/home/vilon_tao/gaia/sdk/include/gaia/text/Spanned.h">
<polygon fill="white" stroke="red" points="11227.5,-58.5 11227.5,-79.5 11476.5,-79.5 11476.5,-58.5 11227.5,-58.5"/>
<text text-anchor="middle" x="11352" y="-66.5" font-family="Helvetica,sans-Serif" font-size="10.00">/home/vilon_tao/gaia/sdk/include/gaia/text/Spanned.h</text>
</a>
</g>
<!-- Node2&#45;&gt;Node26 -->
<g id="edge50" class="edge"><title>Node2&#45;&gt;Node26</title>
<path fill="none" stroke="midnightblue" d="M9926.76,-115.929C10501.1,-83.6861 10647.9,-111.537 11219,-80 11221.8,-79.8467 11224.6,-79.6836 11227.4,-79.512"/>
<polygon fill="midnightblue" stroke="midnightblue" points="9926.35,-112.447 9916.56,-116.505 9926.74,-119.436 9926.35,-112.447"/>
</g>
<!-- Node27 -->
<g id="node53" class="node"><title>Node27</title>
<a xlink:href="../../d0/db9/_linkify_8h.html" target="_top" xlink:title="/home/vilon_tao/gaia/sdk/include/gaia/text/util/Linkify.h">
<polygon fill="white" stroke="black" points="11493.5,-58.5 11493.5,-79.5 11748.5,-79.5 11748.5,-58.5 11493.5,-58.5"/>
<text text-anchor="middle" x="11621" y="-66.5" font-family="Helvetica,sans-Serif" font-size="10.00">/home/vilon_tao/gaia/sdk/include/gaia/text/util/Linkify.h</text>
</a>
</g>
<!-- Node2&#45;&gt;Node27 -->
<g id="edge52" class="edge"><title>Node2&#45;&gt;Node27</title>
<path fill="none" stroke="midnightblue" d="M9926.79,-115.933C10619.2,-78.6575 10795.8,-115.795 11485,-80 11488,-79.8464 11490.9,-79.6816 11494,-79.507"/>
<polygon fill="midnightblue" stroke="midnightblue" points="9926.35,-112.452 9916.56,-116.488 9926.73,-119.442 9926.35,-112.452"/>
</g>
<!-- Node28 -->
<g id="node55" class="node"><title>Node28</title>
<a xlink:href="../../d8/db4/_compound_button_8h.html" target="_top" xlink:title="/home/vilon_tao/gaia/sdk/include/gaia/ui/CompoundButton.h">
<polygon fill="white" stroke="red" points="11766,-58.5 11766,-79.5 12044,-79.5 12044,-58.5 11766,-58.5"/>
<text text-anchor="middle" x="11905" y="-66.5" font-family="Helvetica,sans-Serif" font-size="10.00">/home/vilon_tao/gaia/sdk/include/gaia/ui/CompoundButton.h</text>
</a>
</g>
<!-- Node2&#45;&gt;Node28 -->
<g id="edge54" class="edge"><title>Node2&#45;&gt;Node28</title>
<path fill="none" stroke="midnightblue" d="M9926.42,-115.959C10740,-73.485 10946.9,-118.037 11757,-80 11760.2,-79.8489 11763.5,-79.6864 11766.8,-79.5139"/>
<polygon fill="midnightblue" stroke="midnightblue" points="9926.02,-112.475 9916.22,-116.495 9926.39,-119.466 9926.02,-112.475"/>
</g>
<!-- Node29 -->
<g id="node57" class="node"><title>Node29</title>
<a xlink:href="../../d8/de3/_i_simple_list_item_provider_8h.html" target="_top" xlink:title="/home/vilon_tao/gaia/sdk/include/gaia/ui/ISimpleListItemProvider.h">
<polygon fill="white" stroke="red" points="6112,-58.5 6112,-79.5 6418,-79.5 6418,-58.5 6112,-58.5"/>
<text text-anchor="middle" x="6265" y="-66.5" font-family="Helvetica,sans-Serif" font-size="10.00">/home/vilon_tao/gaia/sdk/include/gaia/ui/ISimpleListItemProvider.h</text>
</a>
</g>
<!-- Node2&#45;&gt;Node29 -->
<g id="edge56" class="edge"><title>Node2&#45;&gt;Node29</title>
<path fill="none" stroke="midnightblue" d="M9667.14,-126.126C9129.42,-122.361 7075.28,-106.511 6427,-80 6423.34,-79.8503 6419.63,-79.6874 6415.89,-79.513"/>
<polygon fill="midnightblue" stroke="midnightblue" points="9667.23,-129.626 9677.25,-126.196 9667.28,-122.627 9667.23,-129.626"/>
</g>
<!-- Node30 -->
<g id="node59" class="node"><title>Node30</title>
<a xlink:href="../../db/daf/_simple_cursor_list_item_provider_8h.html" target="_top" xlink:title="/home/vilon_tao/gaia/sdk/include/gaia/ui/SimpleCursorListItemProvider.h">
<polygon fill="white" stroke="black" points="12062,-58.5 12062,-79.5 12394,-79.5 12394,-58.5 12062,-58.5"/>
<text text-anchor="middle" x="12228" y="-66.5" font-family="Helvetica,sans-Serif" font-size="10.00">/home/vilon_tao/gaia/sdk/include/gaia/ui/SimpleCursorListItemProvider.h</text>
</a>
</g>
<!-- Node2&#45;&gt;Node30 -->
<g id="edge58" class="edge"><title>Node2&#45;&gt;Node30</title>
<path fill="none" stroke="midnightblue" d="M9926.31,-115.968C10871.4,-67.8302 11111.2,-117.547 12053,-80 12056.8,-79.8484 12060.7,-79.6854 12064.5,-79.5125"/>
<polygon fill="midnightblue" stroke="midnightblue" points="9926.02,-112.478 9916.22,-116.484 9926.38,-119.469 9926.02,-112.478"/>
</g>
<!-- Node11 -->
<g id="node21" class="node"><title>Node11</title>
<a xlink:href="../../d1/dbb/_i_binder_8h.html" target="_top" xlink:title="/home/vilon_tao/gaia/sdk/include/gaia/core/ipc/IBinder.h">
<polygon fill="white" stroke="red" points="4026,-0.5 4026,-21.5 4286,-21.5 4286,-0.5 4026,-0.5"/>
<text text-anchor="middle" x="4156" y="-8.5" font-family="Helvetica,sans-Serif" font-size="10.00">/home/vilon_tao/gaia/sdk/include/gaia/core/ipc/IBinder.h</text>
</a>
</g>
<!-- Node10&#45;&gt;Node11 -->
<g id="edge20" class="edge"><title>Node10&#45;&gt;Node11</title>
<path fill="none" stroke="midnightblue" d="M7151.88,-57.987C6561.44,-29.0715 4783.09,-15.2189 4286.19,-11.8372"/>
<polygon fill="midnightblue" stroke="midnightblue" points="7152.03,-61.4989 7162.2,-58.4998 7152.38,-54.5075 7152.03,-61.4989"/>
</g>
<!-- Node32&#45;&gt;Node3 -->
<g id="edge68" class="edge"><title>Node32&#45;&gt;Node3</title>
<path fill="none" stroke="midnightblue" d="M3900.45,-126.658C4288.72,-125.225 5457.81,-117.837 6427,-80 6430.95,-79.8456 6434.96,-79.6801 6438.99,-79.5049"/>
<polygon fill="midnightblue" stroke="midnightblue" points="3900.29,-123.158 3890.3,-126.695 3900.31,-130.158 3900.29,-123.158"/>
</g>
<!-- Node32&#45;&gt;Node4 -->
<g id="edge70" class="edge"><title>Node32&#45;&gt;Node4</title>
<path fill="none" stroke="midnightblue" d="M3900.66,-125.736C4406.65,-120.791 6215.71,-101.942 6791,-80 6794.93,-79.85 6798.91,-79.6885 6802.93,-79.5168"/>
<polygon fill="midnightblue" stroke="midnightblue" points="3900.36,-122.239 3890.4,-125.836 3900.43,-129.238 3900.36,-122.239"/>
</g>
<!-- Node32&#45;&gt;Node9 -->
<g id="edge82" class="edge"><title>Node32&#45;&gt;Node9</title>
<path fill="none" stroke="midnightblue" d="M3900.67,-126.372C4226.48,-124.303 5091.93,-115.612 5813,-80 5816.15,-79.8443 5819.34,-79.6776 5822.56,-79.5014"/>
<polygon fill="midnightblue" stroke="midnightblue" points="3900.22,-122.875 3890.25,-126.437 3900.27,-129.875 3900.22,-122.875"/>
</g>
<!-- Node32&#45;&gt;Node10 -->
<g id="edge84" class="edge"><title>Node32&#45;&gt;Node10</title>
<path fill="none" stroke="midnightblue" d="M3900.28,-126.424C4443.24,-123.864 6502.82,-112.194 7153,-80 7156.03,-79.8499 7159.1,-79.6851 7162.2,-79.5075"/>
<polygon fill="midnightblue" stroke="midnightblue" points="3900.04,-122.925 3890.06,-126.472 3900.07,-129.925 3900.04,-122.925"/>
</g>
<!-- Node32&#45;&gt;Node11 -->
<g id="edge78" class="edge"><title>Node32&#45;&gt;Node11</title>
<path fill="none" stroke="midnightblue" d="M3635.68,-123.98C3412.64,-118.237 2983.75,-104.113 2961,-80 2954.29,-72.8879 2954.22,-65.0485 2961,-58 2979.26,-39.0105 3719.97,-20.5836 4025.9,-13.7676"/>
<polygon fill="midnightblue" stroke="midnightblue" points="3635.72,-127.482 3645.81,-124.239 3635.9,-120.485 3635.72,-127.482"/>
</g>
<!-- Node32&#45;&gt;Node29 -->
<g id="edge112" class="edge"><title>Node32&#45;&gt;Node29</title>
<path fill="none" stroke="midnightblue" d="M3900.32,-126.545C4256.44,-124.841 5264.96,-116.865 6103,-80 6106.52,-79.8451 6110.08,-79.6792 6113.68,-79.5036"/>
<polygon fill="midnightblue" stroke="midnightblue" points="3900.21,-123.045 3890.23,-126.592 3900.25,-130.045 3900.21,-123.045"/>
</g>
<!-- Node33 -->
<g id="node65" class="node"><title>Node33</title>
<a xlink:href="../../d1/dae/_vector2_d_8h.html" target="_top" xlink:title="/home/vilon_tao/gaia/sdk/include/gaia/base/Vector2D.h">
<polygon fill="white" stroke="black" points="3639.5,-58.5 3639.5,-79.5 3896.5,-79.5 3896.5,-58.5 3639.5,-58.5"/>
<text text-anchor="middle" x="3768" y="-66.5" font-family="Helvetica,sans-Serif" font-size="10.00">/home/vilon_tao/gaia/sdk/include/gaia/base/Vector2D.h</text>
</a>
</g>
<!-- Node32&#45;&gt;Node33 -->
<g id="edge64" class="edge"><title>Node32&#45;&gt;Node33</title>
<path fill="none" stroke="midnightblue" d="M3768,-106.191C3768,-97.1684 3768,-86.9941 3768,-79.5707"/>
<polygon fill="midnightblue" stroke="midnightblue" points="3764.5,-106.362 3768,-116.362 3771.5,-106.362 3764.5,-106.362"/>
</g>
<!-- Node34 -->
<g id="node67" class="node"><title>Node34</title>
<a xlink:href="../../d6/d2c/_cloud_storage_manager_8h.html" target="_top" xlink:title="/home/vilon_tao/gaia/sdk/include/gaia/cloudstorage/CloudStorageManager.h">
<polygon fill="white" stroke="black" points="3913.5,-58.5 3913.5,-79.5 4260.5,-79.5 4260.5,-58.5 3913.5,-58.5"/>
<text text-anchor="middle" x="4087" y="-66.5" font-family="Helvetica,sans-Serif" font-size="10.00">/home/vilon_tao/gaia/sdk/include/gaia/cloudstorage/CloudStorageManager.h</text>
</a>
</g>
<!-- Node32&#45;&gt;Node34 -->
<g id="edge66" class="edge"><title>Node32&#45;&gt;Node34</title>
<path fill="none" stroke="midnightblue" d="M3835.84,-114.665C3893.28,-104.222 3974.72,-89.415 4029.12,-79.5231"/>
<polygon fill="midnightblue" stroke="midnightblue" points="3834.98,-111.264 3825.77,-116.497 3836.23,-118.151 3834.98,-111.264"/>
</g>
<!-- Node35 -->
<g id="node71" class="node"><title>Node35</title>
<a xlink:href="../../d7/d03/_gesture_8h.html" target="_top" xlink:title="/home/vilon_tao/gaia/sdk/include/gaia/core/gesture/Gesture.h">
<polygon fill="white" stroke="black" points="4277.5,-58.5 4277.5,-79.5 4560.5,-79.5 4560.5,-58.5 4277.5,-58.5"/>
<text text-anchor="middle" x="4419" y="-66.5" font-family="Helvetica,sans-Serif" font-size="10.00">/home/vilon_tao/gaia/sdk/include/gaia/core/gesture/Gesture.h</text>
</a>
</g>
<!-- Node32&#45;&gt;Node35 -->
<g id="edge72" class="edge"><title>Node32&#45;&gt;Node35</title>
<path fill="none" stroke="midnightblue" d="M3896.03,-115.593C4013.64,-105.115 4186.53,-89.7119 4300.89,-79.5231"/>
<polygon fill="midnightblue" stroke="midnightblue" points="3895.54,-112.123 3885.89,-116.497 3896.16,-119.095 3895.54,-112.123"/>
</g>
<!-- Node36 -->
<g id="node73" class="node"><title>Node36</title>
<a xlink:href="../../d6/dee/_gesture_recognizer_8h.html" target="_top" xlink:title="/home/vilon_tao/gaia/sdk/include/gaia/core/gesture/GestureRecognizer.h">
<polygon fill="white" stroke="black" points="4578,-58.5 4578,-79.5 4910,-79.5 4910,-58.5 4578,-58.5"/>
<text text-anchor="middle" x="4744" y="-66.5" font-family="Helvetica,sans-Serif" font-size="10.00">/home/vilon_tao/gaia/sdk/include/gaia/core/gesture/GestureRecognizer.h</text>
</a>
</g>
<!-- Node32&#45;&gt;Node36 -->
<g id="edge74" class="edge"><title>Node32&#45;&gt;Node36</title>
<path fill="none" stroke="midnightblue" d="M3900.44,-119.398C4059.28,-110.242 4333.62,-94.3033 4569,-80 4571.89,-79.8246 4574.8,-79.647 4577.73,-79.4678"/>
<polygon fill="midnightblue" stroke="midnightblue" points="3899.92,-115.922 3890.14,-119.992 3900.33,-122.91 3899.92,-115.922"/>
</g>
<!-- Node37 -->
<g id="node75" class="node"><title>Node37</title>
<a xlink:href="../../dd/d8e/_gesture_stroke_8h.html" target="_top" xlink:title="/home/vilon_tao/gaia/sdk/include/gaia/core/gesture/GestureStroke.h">
<polygon fill="white" stroke="black" points="4927.5,-58.5 4927.5,-79.5 5238.5,-79.5 5238.5,-58.5 4927.5,-58.5"/>
<text text-anchor="middle" x="5083" y="-66.5" font-family="Helvetica,sans-Serif" font-size="10.00">/home/vilon_tao/gaia/sdk/include/gaia/core/gesture/GestureStroke.h</text>
</a>
</g>
<!-- Node32&#45;&gt;Node37 -->
<g id="edge76" class="edge"><title>Node32&#45;&gt;Node37</title>
<path fill="none" stroke="midnightblue" d="M3900.31,-122.723C4114.43,-115.548 4550.16,-99.8967 4919,-80 4921.99,-79.8386 4925.01,-79.6719 4928.06,-79.5007"/>
<polygon fill="midnightblue" stroke="midnightblue" points="3900.15,-119.226 3890.28,-123.058 3900.39,-126.222 3900.15,-119.226"/>
</g>
<!-- Node38 -->
<g id="node78" class="node"><title>Node38</title>
<a xlink:href="../../db/ded/_page_8h.html" target="_top" xlink:title="/home/vilon_tao/gaia/sdk/include/gaia/core/Page.h">
<polygon fill="white" stroke="red" points="5256,-58.5 5256,-79.5 5492,-79.5 5492,-58.5 5256,-58.5"/>
<text text-anchor="middle" x="5374" y="-66.5" font-family="Helvetica,sans-Serif" font-size="10.00">/home/vilon_tao/gaia/sdk/include/gaia/core/Page.h</text>
</a>
</g>
<!-- Node32&#45;&gt;Node38 -->
<g id="edge80" class="edge"><title>Node32&#45;&gt;Node38</title>
<path fill="none" stroke="midnightblue" d="M3900.53,-125.215C4159.47,-121.19 4750.66,-109.359 5247,-80 5249.87,-79.8301 5252.78,-79.6491 5255.71,-79.4586"/>
<polygon fill="midnightblue" stroke="midnightblue" points="3900.28,-121.718 3890.33,-125.372 3900.38,-128.717 3900.28,-121.718"/>
</g>
<!-- Node39 -->
<g id="node82" class="node"><title>Node39</title>
<a xlink:href="../../d3/d70/_package_info_8h.html" target="_top" xlink:title="/home/vilon_tao/gaia/sdk/include/gaia/core/pm/PackageInfo.h">
<polygon fill="white" stroke="black" points="0,-58.5 0,-79.5 284,-79.5 284,-58.5 0,-58.5"/>
<text text-anchor="middle" x="142" y="-66.5" font-family="Helvetica,sans-Serif" font-size="10.00">/home/vilon_tao/gaia/sdk/include/gaia/core/pm/PackageInfo.h</text>
</a>
</g>
<!-- Node32&#45;&gt;Node39 -->
<g id="edge86" class="edge"><title>Node32&#45;&gt;Node39</title>
<path fill="none" stroke="midnightblue" d="M3635.48,-126.259C3083.16,-123.008 961.971,-108.865 293,-80 289.586,-79.8527 286.13,-79.692 282.644,-79.5196"/>
<polygon fill="midnightblue" stroke="midnightblue" points="3635.85,-129.761 3645.87,-126.32 3635.89,-122.761 3635.85,-129.761"/>
</g>
<!-- Node40 -->
<g id="node84" class="node"><title>Node40</title>
<a xlink:href="../../d2/d9d/_package_manager_8h.html" target="_top" xlink:title="/home/vilon_tao/gaia/sdk/include/gaia/core/pm/PackageManager.h">
<polygon fill="white" stroke="red" points="301.5,-58.5 301.5,-79.5 606.5,-79.5 606.5,-58.5 301.5,-58.5"/>
<text text-anchor="middle" x="454" y="-66.5" font-family="Helvetica,sans-Serif" font-size="10.00">/home/vilon_tao/gaia/sdk/include/gaia/core/pm/PackageManager.h</text>
</a>
</g>
<!-- Node32&#45;&gt;Node40 -->
<g id="edge88" class="edge"><title>Node32&#45;&gt;Node40</title>
<path fill="none" stroke="midnightblue" d="M3635.78,-125.97C3116.69,-121.782 1217.3,-105.047 615,-80 611.361,-79.8487 607.676,-79.6843 603.96,-79.5087"/>
<polygon fill="midnightblue" stroke="midnightblue" points="3635.9,-129.471 3645.93,-126.052 3635.96,-122.472 3635.9,-129.471"/>
</g>
<!-- Node41 -->
<g id="node86" class="node"><title>Node41</title>
<a xlink:href="../../da/d11/_package_manager_priv_8h.html" target="_top" xlink:title="/home/vilon_tao/gaia/sdk/include/gaia/core/pm/PackageManagerPriv.h">
<polygon fill="white" stroke="black" points="623.5,-58.5 623.5,-79.5 946.5,-79.5 946.5,-58.5 623.5,-58.5"/>
<text text-anchor="middle" x="785" y="-66.5" font-family="Helvetica,sans-Serif" font-size="10.00">/home/vilon_tao/gaia/sdk/include/gaia/core/pm/PackageManagerPriv.h</text>
</a>
</g>
<!-- Node32&#45;&gt;Node41 -->
<g id="edge90" class="edge"><title>Node32&#45;&gt;Node41</title>
<path fill="none" stroke="midnightblue" d="M3635.67,-125.632C3152.92,-120.509 1486.97,-101.643 955,-80 951.306,-79.8497 947.568,-79.6879 943.798,-79.516"/>
<polygon fill="midnightblue" stroke="midnightblue" points="3635.78,-129.133 3645.82,-125.739 3635.86,-122.133 3635.78,-129.133"/>
</g>
<!-- Node42 -->
<g id="node88" class="node"><title>Node42</title>
<a xlink:href="../../df/d6a/_wrt_description_info_8h.html" target="_top" xlink:title="/home/vilon_tao/gaia/sdk/include/gaia/core/pm/wrt/WrtDescriptionInfo.h">
<polygon fill="white" stroke="black" points="964,-58.5 964,-79.5 1292,-79.5 1292,-58.5 964,-58.5"/>
<text text-anchor="middle" x="1128" y="-66.5" font-family="Helvetica,sans-Serif" font-size="10.00">/home/vilon_tao/gaia/sdk/include/gaia/core/pm/wrt/WrtDescriptionInfo.h</text>
</a>
</g>
<!-- Node32&#45;&gt;Node42 -->
<g id="edge92" class="edge"><title>Node32&#45;&gt;Node42</title>
<path fill="none" stroke="midnightblue" d="M3635.49,-126.546C3265.9,-124.833 2192.28,-116.807 1301,-80 1297.24,-79.8448 1293.44,-79.6785 1289.6,-79.5026"/>
<polygon fill="midnightblue" stroke="midnightblue" points="3635.68,-130.047 3645.69,-126.593 3635.71,-123.047 3635.68,-130.047"/>
</g>
<!-- Node43 -->
<g id="node90" class="node"><title>Node43</title>
<a xlink:href="../../d2/dad/_wrt_feature_info_8h.html" target="_top" xlink:title="/home/vilon_tao/gaia/sdk/include/gaia/core/pm/wrt/WrtFeatureInfo.h">
<polygon fill="white" stroke="black" points="1309.5,-58.5 1309.5,-79.5 1620.5,-79.5 1620.5,-58.5 1309.5,-58.5"/>
<text text-anchor="middle" x="1465" y="-66.5" font-family="Helvetica,sans-Serif" font-size="10.00">/home/vilon_tao/gaia/sdk/include/gaia/core/pm/wrt/WrtFeatureInfo.h</text>
</a>
</g>
<!-- Node32&#45;&gt;Node43 -->
<g id="edge94" class="edge"><title>Node32&#45;&gt;Node43</title>
<path fill="none" stroke="midnightblue" d="M3635.6,-126.162C3299.88,-123.585 2388.1,-113.78 1629,-80 1625.58,-79.8478 1622.12,-79.6856 1618.63,-79.5149"/>
<polygon fill="midnightblue" stroke="midnightblue" points="3635.82,-129.663 3645.85,-126.239 3635.88,-122.663 3635.82,-129.663"/>
</g>
<!-- Node44 -->
<g id="node92" class="node"><title>Node44</title>
<a xlink:href="../../d0/d20/_wrt_license_info_8h.html" target="_top" xlink:title="/home/vilon_tao/gaia/sdk/include/gaia/core/pm/wrt/WrtLicenseInfo.h">
<polygon fill="white" stroke="black" points="1638,-58.5 1638,-79.5 1950,-79.5 1950,-58.5 1638,-58.5"/>
<text text-anchor="middle" x="1794" y="-66.5" font-family="Helvetica,sans-Serif" font-size="10.00">/home/vilon_tao/gaia/sdk/include/gaia/core/pm/wrt/WrtLicenseInfo.h</text>
</a>
</g>
<!-- Node32&#45;&gt;Node44 -->
<g id="edge96" class="edge"><title>Node32&#45;&gt;Node44</title>
<path fill="none" stroke="midnightblue" d="M3635.91,-125.404C3337.1,-121.392 2586.4,-109.052 1959,-80 1955.7,-79.8473 1952.37,-79.6861 1949.01,-79.5175"/>
<polygon fill="midnightblue" stroke="midnightblue" points="3635.87,-128.904 3645.92,-125.538 3635.97,-121.904 3635.87,-128.904"/>
</g>
<!-- Node45 -->
<g id="node94" class="node"><title>Node45</title>
<a xlink:href="../../d1/d11/_wrt_package_info_8h.html" target="_top" xlink:title="/home/vilon_tao/gaia/sdk/include/gaia/core/pm/wrt/WrtPackageInfo.h">
<polygon fill="white" stroke="black" points="1967.5,-58.5 1967.5,-79.5 2284.5,-79.5 2284.5,-58.5 1967.5,-58.5"/>
<text text-anchor="middle" x="2126" y="-66.5" font-family="Helvetica,sans-Serif" font-size="10.00">/home/vilon_tao/gaia/sdk/include/gaia/core/pm/wrt/WrtPackageInfo.h</text>
</a>
</g>
<!-- Node32&#45;&gt;Node45 -->
<g id="edge98" class="edge"><title>Node32&#45;&gt;Node45</title>
<path fill="none" stroke="midnightblue" d="M3635.38,-124.282C3376.97,-118.651 2787.95,-104.18 2293,-80 2289.81,-79.844 2286.58,-79.6812 2283.33,-79.5123"/>
<polygon fill="midnightblue" stroke="midnightblue" points="3635.49,-127.785 3645.56,-124.503 3635.64,-120.786 3635.49,-127.785"/>
</g>
<!-- Node46 -->
<g id="node96" class="node"><title>Node46</title>
<a xlink:href="../../dd/dfa/_wrt_package_name_8h.html" target="_top" xlink:title="/home/vilon_tao/gaia/sdk/include/gaia/core/pm/wrt/WrtPackageName.h">
<polygon fill="white" stroke="black" points="2302,-58.5 2302,-79.5 2628,-79.5 2628,-58.5 2302,-58.5"/>
<text text-anchor="middle" x="2465" y="-66.5" font-family="Helvetica,sans-Serif" font-size="10.00">/home/vilon_tao/gaia/sdk/include/gaia/core/pm/wrt/WrtPackageName.h</text>
</a>
</g>
<!-- Node32&#45;&gt;Node46 -->
<g id="edge100" class="edge"><title>Node32&#45;&gt;Node46</title>
<path fill="none" stroke="midnightblue" d="M3635.58,-122.456C3424.33,-114.992 2998.08,-99.0461 2637,-80 2634.01,-79.8424 2630.99,-79.6803 2627.96,-79.5143"/>
<polygon fill="midnightblue" stroke="midnightblue" points="3635.66,-125.962 3645.78,-122.816 3635.91,-118.966 3635.66,-125.962"/>
</g>
<!-- Node47 -->
<g id="node98" class="node"><title>Node47</title>
<a xlink:href="../../de/d56/_scene_8h.html" target="_top" xlink:title="/home/vilon_tao/gaia/sdk/include/gaia/core/vision/Scene.h">
<polygon fill="white" stroke="red" points="2645.5,-58.5 2645.5,-79.5 2914.5,-79.5 2914.5,-58.5 2645.5,-58.5"/>
<text text-anchor="middle" x="2780" y="-66.5" font-family="Helvetica,sans-Serif" font-size="10.00">/home/vilon_tao/gaia/sdk/include/gaia/core/vision/Scene.h</text>
</a>
</g>
<!-- Node32&#45;&gt;Node47 -->
<g id="edge102" class="edge"><title>Node32&#45;&gt;Node47</title>
<path fill="none" stroke="midnightblue" d="M3635.66,-120.345C3470.12,-111.847 3178.01,-96.2842 2928,-80 2923.63,-79.7153 2919.19,-79.4199 2914.7,-79.1165"/>
<polygon fill="midnightblue" stroke="midnightblue" points="3635.72,-123.853 3645.89,-120.869 3636.08,-116.862 3635.72,-123.853"/>
</g>
<!-- Node48 -->
<g id="node100" class="node"><title>Node48</title>
<a xlink:href="../../d8/d17/_media_codec_info_8h.html" target="_top" xlink:title="/home/vilon_tao/gaia/sdk/include/gaia/media/MediaCodecInfo.h">
<polygon fill="white" stroke="black" points="2970,-58.5 2970,-79.5 3262,-79.5 3262,-58.5 2970,-58.5"/>
<text text-anchor="middle" x="3116" y="-66.5" font-family="Helvetica,sans-Serif" font-size="10.00">/home/vilon_tao/gaia/sdk/include/gaia/media/MediaCodecInfo.h</text>
</a>
</g>
<!-- Node32&#45;&gt;Node48 -->
<g id="edge104" class="edge"><title>Node32&#45;&gt;Node48</title>
<path fill="none" stroke="midnightblue" d="M3639.77,-115.593C3521.99,-105.115 3348.83,-89.7119 3234.29,-79.5231"/>
<polygon fill="midnightblue" stroke="midnightblue" points="3639.66,-119.097 3649.93,-116.497 3640.28,-112.124 3639.66,-119.097"/>
</g>
<!-- Node49 -->
<g id="node102" class="node"><title>Node49</title>
<a xlink:href="../../da/dd0/_on_keyboard_action_listener_8h.html" target="_top" xlink:title="/home/vilon_tao/gaia/sdk/include/gaia/service/OnKeyboardActionListener.h">
<polygon fill="white" stroke="black" points="3280,-58.5 3280,-79.5 3622,-79.5 3622,-58.5 3280,-58.5"/>
<text text-anchor="middle" x="3451" y="-66.5" font-family="Helvetica,sans-Serif" font-size="10.00">/home/vilon_tao/gaia/sdk/include/gaia/service/OnKeyboardActionListener.h</text>
</a>
</g>
<!-- Node32&#45;&gt;Node49 -->
<g id="edge106" class="edge"><title>Node32&#45;&gt;Node49</title>
<path fill="none" stroke="midnightblue" d="M3700.58,-114.665C3643.51,-104.222 3562.58,-89.415 3508.51,-79.5231"/>
<polygon fill="midnightblue" stroke="midnightblue" points="3700.13,-118.14 3710.59,-116.497 3701.39,-111.254 3700.13,-118.14"/>
</g>
<!-- Node50 -->
<g id="node104" class="node"><title>Node50</title>
<a xlink:href="../../df/d0e/_sensor_manager_8h.html" target="_top" xlink:title="/home/vilon_tao/gaia/sdk/include/gaia/system/SensorManager.h">
<polygon fill="white" stroke="red" points="5509.5,-58.5 5509.5,-79.5 5804.5,-79.5 5804.5,-58.5 5509.5,-58.5"/>
<text text-anchor="middle" x="5657" y="-66.5" font-family="Helvetica,sans-Serif" font-size="10.00">/home/vilon_tao/gaia/sdk/include/gaia/system/SensorManager.h</text>
</a>
</g>
<!-- Node32&#45;&gt;Node50 -->
<g id="edge108" class="edge"><title>Node32&#45;&gt;Node50</title>
<path fill="none" stroke="midnightblue" d="M3900.33,-125.364C4190.41,-121.348 4904.02,-109.129 5501,-80 5504.12,-79.8478 5507.27,-79.6871 5510.45,-79.519"/>
<polygon fill="midnightblue" stroke="midnightblue" points="3900.15,-121.866 3890.2,-125.503 3900.24,-128.865 3900.15,-121.866"/>
</g>
<!-- Node50&#45;&gt;Node22 -->
<g id="edge110" class="edge"><title>Node50&#45;&gt;Node22</title>
<path fill="none" stroke="midnightblue" d="M5812.34,-58.0283C5812.56,-58.0188 5812.78,-58.0094 5813,-58 6427.71,-31.87 8363.11,-15.975 8899.79,-11.9915"/>
<polygon fill="midnightblue" stroke="midnightblue" points="5812.13,-54.534 5802.3,-58.4874 5812.45,-61.5266 5812.13,-54.534"/>
</g>
</g>
</svg>
