<?xml version="1.0" encoding="UTF-8" standalone="no"?>
<!DOCTYPE svg PUBLIC "-//W3C//DTD SVG 1.1//EN"
 "http://www.w3.org/Graphics/SVG/1.1/DTD/svg11.dtd">
<!-- Generated by graphviz version 2.26.3 (20100126.1600)
 -->
<!-- Title: G Pages: 1 -->
<svg width="276pt" height="146pt"
 viewBox="0.00 0.00 276.00 146.00" xmlns="http://www.w3.org/2000/svg" xmlns:xlink="http://www.w3.org/1999/xlink">
<g id="graph1" class="graph" transform="scale(1 1) rotate(0) translate(4 142)">
<title>G</title>
<polygon fill="white" stroke="white" points="-4,5 -4,-142 273,-142 273,5 -4,5"/>
<!-- Node1 -->
<g id="node1" class="node"><title>Node1</title>
<polygon fill="#bfbfbf" stroke="black" points="-0.5,-116.5 -0.5,-137.5 268.5,-137.5 268.5,-116.5 -0.5,-116.5"/>
<text text-anchor="middle" x="134" y="-124.5" font-family="Helvetica,sans-Serif" font-size="10.00">/home/vilon_tao/gaia/sdk/include/gaia/media/BassBoost.h</text>
</g>
<!-- Node2 -->
<g id="node3" class="node"><title>Node2</title>
<polygon fill="white" stroke="#bfbfbf" points="40.5,-0.5 40.5,-21.5 89.5,-21.5 89.5,-0.5 40.5,-0.5"/>
<text text-anchor="middle" x="65" y="-8.5" font-family="Helvetica,sans-Serif" font-size="10.00">stdint.h</text>
</g>
<!-- Node1&#45;&gt;Node2 -->
<g id="edge2" class="edge"><title>Node1&#45;&gt;Node2</title>
<path fill="none" stroke="midnightblue" d="M105.558,-116.453C89.662,-108.918 71.2395,-97.0651 62,-80 53.9933,-65.2118 55.66,-45.9173 58.804,-31.4926"/>
<polygon fill="midnightblue" stroke="midnightblue" points="62.2557,-32.1235 61.3606,-21.5666 55.4769,-30.3775 62.2557,-32.1235"/>
</g>
<!-- Node3 -->
<g id="node5" class="node"><title>Node3</title>
<a xlink:href="../../d1/dd0/gmacros_8h.html" target="_top" xlink:title="gaia/base/gmacros.h">
<polygon fill="white" stroke="black" points="149.5,-0.5 149.5,-21.5 256.5,-21.5 256.5,-0.5 149.5,-0.5"/>
<text text-anchor="middle" x="203" y="-8.5" font-family="Helvetica,sans-Serif" font-size="10.00">gaia/base/gmacros.h</text>
</a>
</g>
<!-- Node1&#45;&gt;Node3 -->
<g id="edge4" class="edge"><title>Node1&#45;&gt;Node3</title>
<path fill="none" stroke="midnightblue" d="M162.442,-116.453C178.338,-108.918 196.761,-97.0651 206,-80 214.007,-65.2118 212.34,-45.9173 209.196,-31.4926"/>
<polygon fill="midnightblue" stroke="midnightblue" points="212.523,-30.3775 206.639,-21.5666 205.744,-32.1235 212.523,-30.3775"/>
</g>
<!-- Node4 -->
<g id="node7" class="node"><title>Node4</title>
<a xlink:href="../../d6/db8/_audio_effect_8h.html" target="_top" xlink:title="gaia/media/AudioEffect.h">
<polygon fill="white" stroke="black" points="71,-58.5 71,-79.5 197,-79.5 197,-58.5 71,-58.5"/>
<text text-anchor="middle" x="134" y="-66.5" font-family="Helvetica,sans-Serif" font-size="10.00">gaia/media/AudioEffect.h</text>
</a>
</g>
<!-- Node1&#45;&gt;Node4 -->
<g id="edge6" class="edge"><title>Node1&#45;&gt;Node4</title>
<path fill="none" stroke="midnightblue" d="M134,-116.362C134,-108.922 134,-98.7427 134,-89.7276"/>
<polygon fill="midnightblue" stroke="midnightblue" points="137.5,-89.5706 134,-79.5707 130.5,-89.5707 137.5,-89.5706"/>
</g>
<!-- Node4&#45;&gt;Node2 -->
<g id="edge8" class="edge"><title>Node4&#45;&gt;Node2</title>
<path fill="none" stroke="midnightblue" d="M121.344,-58.3619C111.326,-49.9408 97.1332,-38.0105 85.4987,-28.2308"/>
<polygon fill="midnightblue" stroke="midnightblue" points="87.4824,-25.326 77.5754,-21.5707 82.9782,-30.6844 87.4824,-25.326"/>
</g>
<!-- Node4&#45;&gt;Node3 -->
<g id="edge10" class="edge"><title>Node4&#45;&gt;Node3</title>
<path fill="none" stroke="midnightblue" d="M146.656,-58.3619C156.674,-49.9408 170.867,-38.0105 182.501,-28.2308"/>
<polygon fill="midnightblue" stroke="midnightblue" points="185.022,-30.6844 190.425,-21.5707 180.518,-25.326 185.022,-30.6844"/>
</g>
</g>
</svg>
