<?xml version="1.0" encoding="UTF-8" standalone="no"?>
<!DOCTYPE svg PUBLIC "-//W3C//DTD SVG 1.1//EN"
 "http://www.w3.org/Graphics/SVG/1.1/DTD/svg11.dtd">
<!-- Generated by graphviz version 2.26.3 (20100126.1600)
 -->
<!-- Title: G Pages: 1 -->
<svg width="352pt" height="88pt"
 viewBox="0.00 0.00 352.00 88.00" xmlns="http://www.w3.org/2000/svg" xmlns:xlink="http://www.w3.org/1999/xlink">
<g id="graph1" class="graph" transform="scale(1 1) rotate(0) translate(4 84)">
<title>G</title>
<polygon fill="white" stroke="white" points="-4,5 -4,-84 349,-84 349,5 -4,5"/>
<!-- Node1 -->
<g id="node1" class="node"><title>Node1</title>
<polygon fill="#bfbfbf" stroke="black" points="147,-58.5 147,-79.5 235,-79.5 235,-58.5 147,-58.5"/>
<text text-anchor="middle" x="191" y="-66.5" font-family="Helvetica,sans-Serif" font-size="10.00">gaia::core::Page</text>
</g>
<!-- Node2 -->
<g id="node3" class="node"><title>Node2</title>
<a xlink:href="../../d7/d3c/classgaia_1_1accounts_1_1_account_authenticator_page.html" target="_top" xlink:title="Base class for implementing an Page that is used to help implement an AbstractAccountAuthenticator.">
<polygon fill="white" stroke="black" points="-0.5,-0.5 -0.5,-21.5 202.5,-21.5 202.5,-0.5 -0.5,-0.5"/>
<text text-anchor="middle" x="101" y="-8.5" font-family="Helvetica,sans-Serif" font-size="10.00">gaia::accounts::AccountAuthenticatorPage</text>
</a>
</g>
<!-- Node1&#45;&gt;Node2 -->
<g id="edge2" class="edge"><title>Node1&#45;&gt;Node2</title>
<path fill="none" stroke="midnightblue" d="M165.895,-52.8215C150.393,-42.8312 130.947,-30.2993 117.403,-21.5707"/>
<polygon fill="midnightblue" stroke="midnightblue" points="164.191,-55.8869 174.493,-58.3619 167.983,-50.0028 164.191,-55.8869"/>
</g>
<!-- Node3 -->
<g id="node5" class="node"><title>Node3</title>
<a xlink:href="../../d0/d5a/classgaia_1_1ui_1_1_preference_page.html" target="_top" xlink:title="This is the base class for a page to show a hierarchy of preferences to the user.">
<polygon fill="white" stroke="black" points="220,-0.5 220,-21.5 344,-21.5 344,-0.5 220,-0.5"/>
<text text-anchor="middle" x="282" y="-8.5" font-family="Helvetica,sans-Serif" font-size="10.00">gaia::ui::PreferencePage</text>
</a>
</g>
<!-- Node1&#45;&gt;Node3 -->
<g id="edge4" class="edge"><title>Node1&#45;&gt;Node3</title>
<path fill="none" stroke="midnightblue" d="M216.384,-52.8215C232.058,-42.8312 251.72,-30.2993 265.415,-21.5707"/>
<polygon fill="midnightblue" stroke="midnightblue" points="214.242,-50.0356 207.691,-58.3619 218.005,-55.9386 214.242,-50.0356"/>
</g>
</g>
</svg>
