<?xml version="1.0" encoding="UTF-8" standalone="no"?>
<!DOCTYPE svg PUBLIC "-//W3C//DTD SVG 1.1//EN"
 "http://www.w3.org/Graphics/SVG/1.1/DTD/svg11.dtd">
<!-- Generated by graphviz version 2.26.3 (20100126.1600)
 -->
<!-- Title: G Pages: 1 -->
<svg width="1460pt" height="88pt"
 viewBox="0.00 0.00 1460.00 88.00" xmlns="http://www.w3.org/2000/svg" xmlns:xlink="http://www.w3.org/1999/xlink">
<g id="graph1" class="graph" transform="scale(1 1) rotate(0) translate(4 84)">
<title>G</title>
<polygon fill="white" stroke="white" points="-4,5 -4,-84 1457,-84 1457,5 -4,5"/>
<!-- Node1 -->
<g id="node1" class="node"><title>Node1</title>
<polygon fill="#bfbfbf" stroke="black" points="566,-58.5 566,-79.5 880,-79.5 880,-58.5 566,-58.5"/>
<text text-anchor="middle" x="723" y="-66.5" font-family="Helvetica,sans-Serif" font-size="10.00">/home/vilon_tao/gaia/sdk/include/gaia/media/videoeditor/Transition.h</text>
</g>
<!-- Node2 -->
<g id="node3" class="node"><title>Node2</title>
<a xlink:href="../../de/d7c/_transition_alpha_8h.html" target="_top" xlink:title="/home/vilon_tao/gaia/sdk/include/gaia/media/videoeditor/TransitionAlpha.h">
<polygon fill="white" stroke="black" points="0,-0.5 0,-21.5 338,-21.5 338,-0.5 0,-0.5"/>
<text text-anchor="middle" x="169" y="-8.5" font-family="Helvetica,sans-Serif" font-size="10.00">/home/vilon_tao/gaia/sdk/include/gaia/media/videoeditor/TransitionAlpha.h</text>
</a>
</g>
<!-- Node1&#45;&gt;Node2 -->
<g id="edge2" class="edge"><title>Node1&#45;&gt;Node2</title>
<path fill="none" stroke="midnightblue" d="M612.534,-57.435C512.487,-46.9607 366.346,-31.6607 269.513,-21.5231"/>
<polygon fill="midnightblue" stroke="midnightblue" points="612.365,-60.9363 622.675,-58.4966 613.094,-53.9743 612.365,-60.9363"/>
</g>
<!-- Node3 -->
<g id="node5" class="node"><title>Node3</title>
<a xlink:href="../../d7/d5d/_transition_crossfade_8h.html" target="_top" xlink:title="/home/vilon_tao/gaia/sdk/include/gaia/media/videoeditor/TransitionCrossfade.h">
<polygon fill="white" stroke="black" points="355.5,-0.5 355.5,-21.5 714.5,-21.5 714.5,-0.5 355.5,-0.5"/>
<text text-anchor="middle" x="535" y="-8.5" font-family="Helvetica,sans-Serif" font-size="10.00">/home/vilon_tao/gaia/sdk/include/gaia/media/videoeditor/TransitionCrossfade.h</text>
</a>
</g>
<!-- Node1&#45;&gt;Node3 -->
<g id="edge4" class="edge"><title>Node1&#45;&gt;Node3</title>
<path fill="none" stroke="midnightblue" d="M679.392,-55.5464C645.809,-45.1857 600.044,-31.0668 569.109,-21.5231"/>
<polygon fill="midnightblue" stroke="midnightblue" points="678.367,-58.893 688.955,-58.4966 680.431,-52.2041 678.367,-58.893"/>
</g>
<!-- Node4 -->
<g id="node7" class="node"><title>Node4</title>
<a xlink:href="../../d0/d68/_transition_fade_black_8h.html" target="_top" xlink:title="/home/vilon_tao/gaia/sdk/include/gaia/media/videoeditor/TransitionFadeBlack.h">
<polygon fill="white" stroke="black" points="732,-0.5 732,-21.5 1092,-21.5 1092,-0.5 732,-0.5"/>
<text text-anchor="middle" x="912" y="-8.5" font-family="Helvetica,sans-Serif" font-size="10.00">/home/vilon_tao/gaia/sdk/include/gaia/media/videoeditor/TransitionFadeBlack.h</text>
</a>
</g>
<!-- Node1&#45;&gt;Node4 -->
<g id="edge6" class="edge"><title>Node1&#45;&gt;Node4</title>
<path fill="none" stroke="midnightblue" d="M766.84,-55.5464C800.602,-45.1857 846.61,-31.0668 877.709,-21.5231"/>
<polygon fill="midnightblue" stroke="midnightblue" points="765.76,-52.2168 757.226,-58.4966 767.813,-58.9088 765.76,-52.2168"/>
</g>
<!-- Node5 -->
<g id="node9" class="node"><title>Node5</title>
<a xlink:href="../../d4/d21/_transition_sliding_8h.html" target="_top" xlink:title="/home/vilon_tao/gaia/sdk/include/gaia/media/videoeditor/TransitionSliding.h">
<polygon fill="white" stroke="black" points="1109.5,-0.5 1109.5,-21.5 1452.5,-21.5 1452.5,-0.5 1109.5,-0.5"/>
<text text-anchor="middle" x="1281" y="-8.5" font-family="Helvetica,sans-Serif" font-size="10.00">/home/vilon_tao/gaia/sdk/include/gaia/media/videoeditor/TransitionSliding.h</text>
</a>
</g>
<!-- Node1&#45;&gt;Node5 -->
<g id="edge8" class="edge"><title>Node1&#45;&gt;Node5</title>
<path fill="none" stroke="midnightblue" d="M834.264,-57.435C935.033,-46.9607 1082.23,-31.6607 1179.76,-21.5231"/>
<polygon fill="midnightblue" stroke="midnightblue" points="833.634,-53.9814 824.05,-58.4966 834.358,-60.9439 833.634,-53.9814"/>
</g>
</g>
</svg>
