<?xml version="1.0" encoding="UTF-8" standalone="no"?>
<!DOCTYPE svg PUBLIC "-//W3C//DTD SVG 1.1//EN"
 "http://www.w3.org/Graphics/SVG/1.1/DTD/svg11.dtd">
<!-- Generated by graphviz version 2.26.3 (20100126.1600)
 -->
<!-- Title: G Pages: 1 -->
<svg width="278pt" height="204pt"
 viewBox="0.00 0.00 278.00 204.00" xmlns="http://www.w3.org/2000/svg" xmlns:xlink="http://www.w3.org/1999/xlink">
<g id="graph1" class="graph" transform="scale(1 1) rotate(0) translate(4 200)">
<title>G</title>
<polygon fill="white" stroke="white" points="-4,5 -4,-200 275,-200 275,5 -4,5"/>
<!-- Node1 -->
<g id="node1" class="node"><title>Node1</title>
<polygon fill="#bfbfbf" stroke="black" points="78,-58.5 78,-79.5 208,-79.5 208,-58.5 78,-58.5"/>
<text text-anchor="middle" x="143" y="-66.5" font-family="Helvetica,sans-Serif" font-size="10.00">gaia::core::SurfaceWidget</text>
</g>
<!-- Node5 -->
<g id="node9" class="node"><title>Node5</title>
<a xlink:href="../../d1/de7/classgaia_1_1core_1_1_g_l_surface_widget.html" target="_top" xlink:title="gaia::core::GLSurfaceWidget">
<polygon fill="white" stroke="black" points="-0.5,-0.5 -0.5,-21.5 142.5,-21.5 142.5,-0.5 -0.5,-0.5"/>
<text text-anchor="middle" x="71" y="-8.5" font-family="Helvetica,sans-Serif" font-size="10.00">gaia::core::GLSurfaceWidget</text>
</a>
</g>
<!-- Node1&#45;&gt;Node5 -->
<g id="edge8" class="edge"><title>Node1&#45;&gt;Node5</title>
<path fill="none" stroke="midnightblue" d="M121.866,-51.9753C109.646,-42.1315 94.6539,-30.0545 84.1222,-21.5707"/>
<polygon fill="midnightblue" stroke="midnightblue" points="119.811,-54.8142 129.794,-58.3619 124.202,-49.3629 119.811,-54.8142"/>
</g>
<!-- Node6 -->
<g id="node11" class="node"><title>Node6</title>
<a xlink:href="../../da/de0/classgaia_1_1ui_1_1_video_widget.html" target="_top" xlink:title="Displays a video file.">
<polygon fill="white" stroke="black" points="160,-0.5 160,-21.5 270,-21.5 270,-0.5 160,-0.5"/>
<text text-anchor="middle" x="215" y="-8.5" font-family="Helvetica,sans-Serif" font-size="10.00">gaia::ui::VideoWidget</text>
</a>
</g>
<!-- Node1&#45;&gt;Node6 -->
<g id="edge10" class="edge"><title>Node1&#45;&gt;Node6</title>
<path fill="none" stroke="midnightblue" d="M164.134,-51.9753C176.354,-42.1315 191.346,-30.0545 201.878,-21.5707"/>
<polygon fill="midnightblue" stroke="midnightblue" points="161.798,-49.3629 156.206,-58.3619 166.189,-54.8142 161.798,-49.3629"/>
</g>
<!-- Node2 -->
<g id="node2" class="node"><title>Node2</title>
<a xlink:href="../../d8/dac/classgaia_1_1core_1_1_widget.html" target="_top" xlink:title="The Widget class is the base class of all user interface component.">
<polygon fill="white" stroke="black" points="32,-116.5 32,-137.5 128,-137.5 128,-116.5 32,-116.5"/>
<text text-anchor="middle" x="80" y="-124.5" font-family="Helvetica,sans-Serif" font-size="10.00">gaia::core::Widget</text>
</a>
</g>
<!-- Node2&#45;&gt;Node1 -->
<g id="edge2" class="edge"><title>Node2&#45;&gt;Node1</title>
<path fill="none" stroke="midnightblue" d="M99.1118,-109.405C109.688,-99.6683 122.48,-87.8914 131.518,-79.5707"/>
<polygon fill="midnightblue" stroke="midnightblue" points="96.5416,-107.014 91.5552,-116.362 101.283,-112.164 96.5416,-107.014"/>
</g>
<!-- Node3 -->
<g id="node4" class="node"><title>Node3</title>
<a xlink:href="../../d0/db2/classgaia_1_1core_1_1_property_animatable.html" target="_top" xlink:title="Any animation object need to implement PropertyAnimatable because of setting value.">
<polygon fill="white" stroke="black" points="4.5,-174.5 4.5,-195.5 155.5,-195.5 155.5,-174.5 4.5,-174.5"/>
<text text-anchor="middle" x="80" y="-182.5" font-family="Helvetica,sans-Serif" font-size="10.00">gaia::core::PropertyAnimatable</text>
</a>
</g>
<!-- Node3&#45;&gt;Node2 -->
<g id="edge4" class="edge"><title>Node3&#45;&gt;Node2</title>
<path fill="none" stroke="midnightblue" d="M80,-164.191C80,-155.168 80,-144.994 80,-137.571"/>
<polygon fill="midnightblue" stroke="midnightblue" points="76.5001,-164.362 80,-174.362 83.5001,-164.362 76.5001,-164.362"/>
</g>
<!-- Node4 -->
<g id="node6" class="node"><title>Node4</title>
<a xlink:href="../../dd/de0/classgaia_1_1core_1_1_event_control.html" target="_top" xlink:title="EventControl is used to dispatch event and register listener.">
<polygon fill="white" stroke="black" points="146,-116.5 146,-137.5 268,-137.5 268,-116.5 146,-116.5"/>
<text text-anchor="middle" x="207" y="-124.5" font-family="Helvetica,sans-Serif" font-size="10.00">gaia::core::EventControl</text>
</a>
</g>
<!-- Node4&#45;&gt;Node1 -->
<g id="edge6" class="edge"><title>Node4&#45;&gt;Node1</title>
<path fill="none" stroke="midnightblue" d="M187.585,-109.405C176.841,-99.6683 163.846,-87.8914 154.664,-79.5707"/>
<polygon fill="midnightblue" stroke="midnightblue" points="185.501,-112.24 195.261,-116.362 190.202,-107.053 185.501,-112.24"/>
</g>
</g>
</svg>
