<?xml version="1.0" encoding="UTF-8" standalone="no"?>
<!DOCTYPE svg PUBLIC "-//W3C//DTD SVG 1.1//EN"
 "http://www.w3.org/Graphics/SVG/1.1/DTD/svg11.dtd">
<!-- Generated by graphviz version 2.26.3 (20100126.1600)
 -->
<!-- Title: G Pages: 1 -->
<svg width="402pt" height="146pt"
 viewBox="0.00 0.00 402.00 146.00" xmlns="http://www.w3.org/2000/svg" xmlns:xlink="http://www.w3.org/1999/xlink">
<g id="graph1" class="graph" transform="scale(1 1) rotate(0) translate(4 142)">
<title>G</title>
<polygon fill="white" stroke="white" points="-4,5 -4,-142 399,-142 399,5 -4,5"/>
<!-- Node1 -->
<g id="node1" class="node"><title>Node1</title>
<polygon fill="#bfbfbf" stroke="black" points="-0.5,-116.5 -0.5,-137.5 394.5,-137.5 394.5,-116.5 -0.5,-116.5"/>
<text text-anchor="middle" x="197" y="-124.5" font-family="Helvetica,sans-Serif" font-size="10.00">/home/vilon_tao/gaia/sdk/include/gaia/media/videoeditor/VideoEditorProgressListener.h</text>
</g>
<!-- Node2 -->
<g id="node3" class="node"><title>Node2</title>
<polygon fill="white" stroke="#bfbfbf" points="66.5,-0.5 66.5,-21.5 115.5,-21.5 115.5,-0.5 66.5,-0.5"/>
<text text-anchor="middle" x="91" y="-8.5" font-family="Helvetica,sans-Serif" font-size="10.00">stdint.h</text>
</g>
<!-- Node1&#45;&gt;Node2 -->
<g id="edge2" class="edge"><title>Node1&#45;&gt;Node2</title>
<path fill="none" stroke="midnightblue" d="M154.085,-116.366C134.531,-109.297 112.913,-97.9117 100,-80 90.0915,-66.2563 88.3385,-46.8619 88.7789,-32.1333"/>
<polygon fill="midnightblue" stroke="midnightblue" points="92.2847,-32.1576 89.4446,-21.9506 85.2996,-31.701 92.2847,-32.1576"/>
</g>
<!-- Node3 -->
<g id="node5" class="node"><title>Node3</title>
<a xlink:href="../../d1/dd0/gmacros_8h.html" target="_top" xlink:title="gaia/base/gmacros.h">
<polygon fill="white" stroke="black" points="201.5,-0.5 201.5,-21.5 308.5,-21.5 308.5,-0.5 201.5,-0.5"/>
<text text-anchor="middle" x="255" y="-8.5" font-family="Helvetica,sans-Serif" font-size="10.00">gaia/base/gmacros.h</text>
</a>
</g>
<!-- Node1&#45;&gt;Node3 -->
<g id="edge4" class="edge"><title>Node1&#45;&gt;Node3</title>
<path fill="none" stroke="midnightblue" d="M242.716,-116.437C262.018,-109.473 282.622,-98.1559 294,-80 304.666,-62.9802 290.489,-42.9363 276.332,-28.8505"/>
<polygon fill="midnightblue" stroke="midnightblue" points="278.336,-25.9352 268.627,-21.695 273.573,-31.0646 278.336,-25.9352"/>
</g>
<!-- Node4 -->
<g id="node7" class="node"><title>Node4</title>
<a xlink:href="../../d4/dc2/_video_editor_8h.html" target="_top" xlink:title="gaia/media/videoeditor/VideoEditor.h">
<polygon fill="white" stroke="black" points="109,-58.5 109,-79.5 285,-79.5 285,-58.5 109,-58.5"/>
<text text-anchor="middle" x="197" y="-66.5" font-family="Helvetica,sans-Serif" font-size="10.00">gaia/media/videoeditor/VideoEditor.h</text>
</a>
</g>
<!-- Node1&#45;&gt;Node4 -->
<g id="edge6" class="edge"><title>Node1&#45;&gt;Node4</title>
<path fill="none" stroke="midnightblue" d="M197,-116.362C197,-108.922 197,-98.7427 197,-89.7276"/>
<polygon fill="midnightblue" stroke="midnightblue" points="200.5,-89.5706 197,-79.5707 193.5,-89.5707 200.5,-89.5706"/>
</g>
<!-- Node4&#45;&gt;Node2 -->
<g id="edge8" class="edge"><title>Node4&#45;&gt;Node2</title>
<path fill="none" stroke="midnightblue" d="M177.558,-58.3619C161.196,-49.4094 137.587,-36.4908 119.157,-26.4064"/>
<polygon fill="midnightblue" stroke="midnightblue" points="120.771,-23.3004 110.319,-21.5707 117.411,-29.4412 120.771,-23.3004"/>
</g>
<!-- Node4&#45;&gt;Node3 -->
<g id="edge10" class="edge"><title>Node4&#45;&gt;Node3</title>
<path fill="none" stroke="midnightblue" d="M207.638,-58.3619C215.896,-50.1043 227.528,-38.4725 237.197,-28.8029"/>
<polygon fill="midnightblue" stroke="midnightblue" points="239.833,-31.1166 244.429,-21.5707 234.883,-26.1669 239.833,-31.1166"/>
</g>
</g>
</svg>
