<?xml version="1.0" encoding="UTF-8" standalone="no"?>
<!DOCTYPE svg PUBLIC "-//W3C//DTD SVG 1.1//EN"
 "http://www.w3.org/Graphics/SVG/1.1/DTD/svg11.dtd">
<!-- Generated by graphviz version 2.26.3 (20100126.1600)
 -->
<!-- Title: G Pages: 1 -->
<svg width="849pt" height="320pt"
 viewBox="0.00 0.00 848.73 320.00" xmlns="http://www.w3.org/2000/svg" xmlns:xlink="http://www.w3.org/1999/xlink">
<g id="graph1" class="graph" transform="scale(1 1) rotate(0) translate(4 316)">
<title>G</title>
<polygon fill="white" stroke="white" points="-4,5 -4,-316 845.726,-316 845.726,5 -4,5"/>
<!-- Node1 -->
<g id="node1" class="node"><title>Node1</title>
<polygon fill="#bfbfbf" stroke="black" points="108.499,-290.5 108.499,-311.5 375.499,-311.5 375.499,-290.5 108.499,-290.5"/>
<text text-anchor="middle" x="241.999" y="-298.5" font-family="Helvetica,sans-Serif" font-size="10.00">/home/vilon_tao/gaia/sdk/include/gaia/ui/ListItemPanels.h</text>
</g>
<!-- Node2 -->
<g id="node3" class="node"><title>Node2</title>
<polygon fill="white" stroke="#bfbfbf" points="202.499,-0.5 202.499,-21.5 251.499,-21.5 251.499,-0.5 202.499,-0.5"/>
<text text-anchor="middle" x="226.999" y="-8.5" font-family="Helvetica,sans-Serif" font-size="10.00">stdint.h</text>
</g>
<!-- Node1&#45;&gt;Node2 -->
<g id="edge2" class="edge"><title>Node1&#45;&gt;Node2</title>
<path fill="none" stroke="midnightblue" d="M201.661,-290.491C133.054,-271.42 0.999202,-228.997 0.999202,-185 0.999202,-185 0.999202,-185 0.999202,-127 0.999202,-95.1919 -2.99761,-79.975 19.9992,-58 44.3647,-34.7171 139.575,-20.7125 191.963,-14.6129"/>
<polygon fill="midnightblue" stroke="midnightblue" points="192.599,-18.0635 202.144,-13.4644 191.815,-11.1076 192.599,-18.0635"/>
</g>
<!-- Node3 -->
<g id="node5" class="node"><title>Node3</title>
<a xlink:href="../../d4/d75/_widget_8h.html" target="_top" xlink:title="gaia/core/vision/Widget.h">
<polygon fill="white" stroke="black" points="163.499,-116.5 163.499,-137.5 290.499,-137.5 290.499,-116.5 163.499,-116.5"/>
<text text-anchor="middle" x="226.999" y="-124.5" font-family="Helvetica,sans-Serif" font-size="10.00">gaia/core/vision/Widget.h</text>
</a>
</g>
<!-- Node1&#45;&gt;Node3 -->
<g id="edge4" class="edge"><title>Node1&#45;&gt;Node3</title>
<path fill="none" stroke="midnightblue" d="M213.558,-290.453C197.661,-282.918 179.239,-271.065 169.999,-254 153.071,-222.733 154.834,-206.159 169.999,-174 175.956,-161.368 187.158,-150.978 198.066,-143.209"/>
<polygon fill="midnightblue" stroke="midnightblue" points="200.226,-145.977 206.644,-137.547 196.37,-140.135 200.226,-145.977"/>
</g>
<!-- Node4 -->
<g id="node7" class="node"><title>Node4</title>
<a xlink:href="../../d1/dd0/gmacros_8h.html" target="_top" xlink:title="gaia/base/gmacros.h">
<polygon fill="white" stroke="black" points="28.4992,-58.5 28.4992,-79.5 135.499,-79.5 135.499,-58.5 28.4992,-58.5"/>
<text text-anchor="middle" x="81.9992" y="-66.5" font-family="Helvetica,sans-Serif" font-size="10.00">gaia/base/gmacros.h</text>
</a>
</g>
<!-- Node1&#45;&gt;Node4 -->
<g id="edge34" class="edge"><title>Node1&#45;&gt;Node4</title>
<path fill="none" stroke="midnightblue" d="M211.504,-290.428C193.302,-282.773 170.902,-270.802 155.999,-254 112.315,-204.749 92.6845,-126.484 85.4868,-89.5621"/>
<polygon fill="midnightblue" stroke="midnightblue" points="88.8892,-88.7115 83.6393,-79.5089 82.0044,-89.9768 88.8892,-88.7115"/>
</g>
<!-- Node8 -->
<g id="node16" class="node"><title>Node8</title>
<a xlink:href="../../d4/d7f/_vector_8h.html" target="_top" xlink:title="gaia/base/Vector.h">
<polygon fill="white" stroke="black" points="712.999,-116.5 712.999,-137.5 810.999,-137.5 810.999,-116.5 712.999,-116.5"/>
<text text-anchor="middle" x="761.999" y="-124.5" font-family="Helvetica,sans-Serif" font-size="10.00">gaia/base/Vector.h</text>
</a>
</g>
<!-- Node1&#45;&gt;Node8 -->
<g id="edge16" class="edge"><title>Node1&#45;&gt;Node8</title>
<path fill="none" stroke="midnightblue" d="M375.606,-292.609C495.446,-284.129 656.311,-270.018 681.999,-254 721.78,-229.195 745.158,-176.533 755.541,-147.417"/>
<polygon fill="midnightblue" stroke="midnightblue" points="758.888,-148.445 758.784,-137.851 752.259,-146.197 758.888,-148.445"/>
</g>
<!-- Node13 -->
<g id="node31" class="node"><title>Node13</title>
<a xlink:href="../../de/d9c/_on_click_listener_8h.html" target="_top" xlink:title="gaia/core/event/OnClickListener.h">
<polygon fill="white" stroke="black" points="322.999,-232.5 322.999,-253.5 486.999,-253.5 486.999,-232.5 322.999,-232.5"/>
<text text-anchor="middle" x="404.999" y="-240.5" font-family="Helvetica,sans-Serif" font-size="10.00">gaia/core/event/OnClickListener.h</text>
</a>
</g>
<!-- Node1&#45;&gt;Node13 -->
<g id="edge36" class="edge"><title>Node1&#45;&gt;Node13</title>
<path fill="none" stroke="midnightblue" d="M271.517,-290.497C297.976,-281.082 336.979,-267.204 365.999,-256.877"/>
<polygon fill="midnightblue" stroke="midnightblue" points="367.178,-260.173 375.426,-253.523 364.831,-253.578 367.178,-260.173"/>
</g>
<!-- Node14 -->
<g id="node33" class="node"><title>Node14</title>
<a xlink:href="../../d0/d73/_on_touch_listener_8h.html" target="_top" xlink:title="gaia/core/event/OnTouchListener.h">
<polygon fill="white" stroke="black" points="504.499,-232.5 504.499,-253.5 673.499,-253.5 673.499,-232.5 504.499,-232.5"/>
<text text-anchor="middle" x="588.999" y="-240.5" font-family="Helvetica,sans-Serif" font-size="10.00">gaia/core/event/OnTouchListener.h</text>
</a>
</g>
<!-- Node1&#45;&gt;Node14 -->
<g id="edge38" class="edge"><title>Node1&#45;&gt;Node14</title>
<path fill="none" stroke="midnightblue" d="M304.838,-290.497C364.225,-280.57 453.299,-265.682 515.852,-255.226"/>
<polygon fill="midnightblue" stroke="midnightblue" points="516.756,-258.624 526.042,-253.523 515.602,-251.72 516.756,-258.624"/>
</g>
<!-- Node15 -->
<g id="node35" class="node"><title>Node15</title>
<a xlink:href="../../d1/d40/_frame_controller_8h.html" target="_top" xlink:title="gaia/ui/FrameController.h">
<polygon fill="white" stroke="black" points="178.999,-232.5 178.999,-253.5 304.999,-253.5 304.999,-232.5 178.999,-232.5"/>
<text text-anchor="middle" x="241.999" y="-240.5" font-family="Helvetica,sans-Serif" font-size="10.00">gaia/ui/FrameController.h</text>
</a>
</g>
<!-- Node1&#45;&gt;Node15 -->
<g id="edge40" class="edge"><title>Node1&#45;&gt;Node15</title>
<path fill="none" stroke="midnightblue" d="M241.999,-290.362C241.999,-282.922 241.999,-272.743 241.999,-263.728"/>
<polygon fill="midnightblue" stroke="midnightblue" points="245.499,-263.571 241.999,-253.571 238.499,-263.571 245.499,-263.571"/>
</g>
<!-- Node3&#45;&gt;Node4 -->
<g id="edge6" class="edge"><title>Node3&#45;&gt;Node4</title>
<path fill="none" stroke="midnightblue" d="M200.741,-116.497C177.584,-107.234 143.624,-93.6499 117.948,-83.3793"/>
<polygon fill="midnightblue" stroke="midnightblue" points="119.137,-80.0855 108.552,-79.6212 116.537,-86.5849 119.137,-80.0855"/>
</g>
<!-- Node5 -->
<g id="node9" class="node"><title>Node5</title>
<a xlink:href="../../d0/d92/_property_animatable_8h.html" target="_top" xlink:title="gaia/core/animator/PropertyAnimatable.h">
<polygon fill="white" stroke="black" points="460.999,-58.5 460.999,-79.5 654.999,-79.5 654.999,-58.5 460.999,-58.5"/>
<text text-anchor="middle" x="557.999" y="-66.5" font-family="Helvetica,sans-Serif" font-size="10.00">gaia/core/animator/PropertyAnimatable.h</text>
</a>
</g>
<!-- Node3&#45;&gt;Node5 -->
<g id="edge8" class="edge"><title>Node3&#45;&gt;Node5</title>
<path fill="none" stroke="midnightblue" d="M286.941,-116.497C343.472,-106.591 428.205,-91.7433 487.855,-81.2911"/>
<polygon fill="midnightblue" stroke="midnightblue" points="488.699,-84.6966 497.945,-79.5231 487.491,-77.8016 488.699,-84.6966"/>
</g>
<!-- Node7 -->
<g id="node13" class="node"><title>Node7</title>
<a xlink:href="../../d8/d50/_widget_core_8h.html" target="_top" xlink:title="gaia/core/vision/WidgetCore.h">
<polygon fill="white" stroke="black" points="152.999,-58.5 152.999,-79.5 300.999,-79.5 300.999,-58.5 152.999,-58.5"/>
<text text-anchor="middle" x="226.999" y="-66.5" font-family="Helvetica,sans-Serif" font-size="10.00">gaia/core/vision/WidgetCore.h</text>
</a>
</g>
<!-- Node3&#45;&gt;Node7 -->
<g id="edge12" class="edge"><title>Node3&#45;&gt;Node7</title>
<path fill="none" stroke="midnightblue" d="M226.999,-116.362C226.999,-108.922 226.999,-98.7427 226.999,-89.7276"/>
<polygon fill="midnightblue" stroke="midnightblue" points="230.499,-89.5706 226.999,-79.5707 223.499,-89.5707 230.499,-89.5706"/>
</g>
<!-- Node6 -->
<g id="node11" class="node"><title>Node6</title>
<polygon fill="white" stroke="#bfbfbf" points="648.999,-0.5 648.999,-21.5 716.999,-21.5 716.999,-0.5 648.999,-0.5"/>
<text text-anchor="middle" x="682.999" y="-8.5" font-family="Helvetica,sans-Serif" font-size="10.00">sys/types.h</text>
</g>
<!-- Node5&#45;&gt;Node6 -->
<g id="edge10" class="edge"><title>Node5&#45;&gt;Node6</title>
<path fill="none" stroke="midnightblue" d="M580.636,-58.4966C600.247,-49.397 628.846,-36.1273 650.833,-25.9253"/>
<polygon fill="midnightblue" stroke="midnightblue" points="652.511,-29.0051 660.109,-21.6212 649.564,-22.6554 652.511,-29.0051"/>
</g>
<!-- Node7&#45;&gt;Node2 -->
<g id="edge14" class="edge"><title>Node7&#45;&gt;Node2</title>
<path fill="none" stroke="midnightblue" d="M226.999,-58.3619C226.999,-50.9219 226.999,-40.7427 226.999,-31.7276"/>
<polygon fill="midnightblue" stroke="midnightblue" points="230.499,-31.5706 226.999,-21.5707 223.499,-31.5707 230.499,-31.5706"/>
</g>
<!-- Node8&#45;&gt;Node6 -->
<g id="edge32" class="edge"><title>Node8&#45;&gt;Node6</title>
<path fill="none" stroke="midnightblue" d="M788.934,-116.334C816.63,-103.767 853.432,-81.5925 835.999,-58 822.907,-40.282 767.336,-26.4816 726.931,-18.543"/>
<polygon fill="midnightblue" stroke="midnightblue" points="727.499,-15.0884 717.02,-16.6522 726.187,-21.9643 727.499,-15.0884"/>
</g>
<!-- Node9 -->
<g id="node18" class="node"><title>Node9</title>
<a xlink:href="../../d1/d86/_type_helpers_8h.html" target="_top" xlink:title="gaia/base/TypeHelpers.h">
<polygon fill="white" stroke="black" points="318.499,-58.5 318.499,-79.5 443.499,-79.5 443.499,-58.5 318.499,-58.5"/>
<text text-anchor="middle" x="380.999" y="-66.5" font-family="Helvetica,sans-Serif" font-size="10.00">gaia/base/TypeHelpers.h</text>
</a>
</g>
<!-- Node8&#45;&gt;Node9 -->
<g id="edge18" class="edge"><title>Node8&#45;&gt;Node9</title>
<path fill="none" stroke="midnightblue" d="M712.865,-119.601C653.759,-110.689 551.235,-95.1948 453.742,-80.2642"/>
<polygon fill="midnightblue" stroke="midnightblue" points="454.132,-76.7832 443.717,-78.7282 453.072,-83.7024 454.132,-76.7832"/>
</g>
<!-- Node12 -->
<g id="node26" class="node"><title>Node12</title>
<a xlink:href="../../dc/da9/_vector_impl_8h.html" target="_top" xlink:title="gaia/base/VectorImpl.h">
<polygon fill="white" stroke="black" points="710.499,-58.5 710.499,-79.5 827.499,-79.5 827.499,-58.5 710.499,-58.5"/>
<text text-anchor="middle" x="768.999" y="-66.5" font-family="Helvetica,sans-Serif" font-size="10.00">gaia/base/VectorImpl.h</text>
</a>
</g>
<!-- Node8&#45;&gt;Node12 -->
<g id="edge28" class="edge"><title>Node8&#45;&gt;Node12</title>
<path fill="none" stroke="midnightblue" d="M763.283,-116.362C764.181,-108.922 765.41,-98.7427 766.498,-89.7276"/>
<polygon fill="midnightblue" stroke="midnightblue" points="770,-89.918 767.723,-79.5707 763.05,-89.0792 770,-89.918"/>
</g>
<!-- Node9&#45;&gt;Node2 -->
<g id="edge20" class="edge"><title>Node9&#45;&gt;Node2</title>
<path fill="none" stroke="midnightblue" d="M353.111,-58.4966C327.327,-48.7859 288.934,-34.3263 261.287,-23.9138"/>
<polygon fill="midnightblue" stroke="midnightblue" points="262.223,-20.5262 251.631,-20.277 259.756,-27.077 262.223,-20.5262"/>
</g>
<!-- Node9&#45;&gt;Node6 -->
<g id="edge24" class="edge"><title>Node9&#45;&gt;Node6</title>
<path fill="none" stroke="midnightblue" d="M435.689,-58.4966C493.974,-47.3028 585.116,-29.7987 638.962,-19.4575"/>
<polygon fill="midnightblue" stroke="midnightblue" points="639.729,-22.8742 648.889,-17.5509 638.409,-15.9999 639.729,-22.8742"/>
</g>
<!-- Node10 -->
<g id="node21" class="node"><title>Node10</title>
<polygon fill="white" stroke="#bfbfbf" points="385.499,-0.5 385.499,-21.5 434.499,-21.5 434.499,-0.5 385.499,-0.5"/>
<text text-anchor="middle" x="409.999" y="-8.5" font-family="Helvetica,sans-Serif" font-size="10.00">string.h</text>
</g>
<!-- Node9&#45;&gt;Node10 -->
<g id="edge22" class="edge"><title>Node9&#45;&gt;Node10</title>
<path fill="none" stroke="midnightblue" d="M386.318,-58.3619C390.202,-50.5949 395.578,-39.8426 400.226,-30.5458"/>
<polygon fill="midnightblue" stroke="midnightblue" points="403.372,-32.0802 404.714,-21.5707 397.111,-28.9497 403.372,-32.0802"/>
</g>
<!-- Node11 -->
<g id="node24" class="node"><title>Node11</title>
<polygon fill="white" stroke="#bfbfbf" points="333.499,-0.5 333.499,-21.5 368.499,-21.5 368.499,-0.5 333.499,-0.5"/>
<text text-anchor="middle" x="350.999" y="-8.5" font-family="Helvetica,sans-Serif" font-size="10.00">new</text>
</g>
<!-- Node9&#45;&gt;Node11 -->
<g id="edge26" class="edge"><title>Node9&#45;&gt;Node11</title>
<path fill="none" stroke="midnightblue" d="M375.497,-58.3619C371.479,-50.5949 365.918,-39.8426 361.109,-30.5458"/>
<polygon fill="midnightblue" stroke="midnightblue" points="364.17,-28.8448 356.467,-21.5707 357.952,-32.0608 364.17,-28.8448"/>
</g>
<!-- Node12&#45;&gt;Node6 -->
<g id="edge30" class="edge"><title>Node12&#45;&gt;Node6</title>
<path fill="none" stroke="midnightblue" d="M753.225,-58.3619C740.375,-49.6955 722.014,-37.3126 707.29,-27.3819"/>
<polygon fill="midnightblue" stroke="midnightblue" points="708.921,-24.2604 698.673,-21.5707 705.007,-30.0639 708.921,-24.2604"/>
</g>
<!-- Node16 -->
<g id="node37" class="node"><title>Node16</title>
<a xlink:href="../../d6/d52/_widget_controller_8h.html" target="_top" xlink:title="gaia/core/vision/WidgetController.h">
<polygon fill="white" stroke="black" points="178.499,-174.5 178.499,-195.5 347.499,-195.5 347.499,-174.5 178.499,-174.5"/>
<text text-anchor="middle" x="262.999" y="-182.5" font-family="Helvetica,sans-Serif" font-size="10.00">gaia/core/vision/WidgetController.h</text>
</a>
</g>
<!-- Node15&#45;&gt;Node16 -->
<g id="edge42" class="edge"><title>Node15&#45;&gt;Node16</title>
<path fill="none" stroke="midnightblue" d="M245.851,-232.362C248.604,-224.758 252.393,-214.294 255.709,-205.135"/>
<polygon fill="midnightblue" stroke="midnightblue" points="259.058,-206.165 259.172,-195.571 252.476,-203.782 259.058,-206.165"/>
</g>
<!-- Node16&#45;&gt;Node3 -->
<g id="edge48" class="edge"><title>Node16&#45;&gt;Node3</title>
<path fill="none" stroke="midnightblue" d="M256.396,-174.362C251.525,-166.513 244.761,-155.616 238.949,-146.253"/>
<polygon fill="midnightblue" stroke="midnightblue" points="241.808,-144.221 233.56,-137.571 235.86,-147.913 241.808,-144.221"/>
</g>
<!-- Node17 -->
<g id="node39" class="node"><title>Node17</title>
<a xlink:href="../../d3/dd0/_event_control_8h.html" target="_top" xlink:title="gaia/core/event/EventControl.h">
<polygon fill="white" stroke="black" points="428.999,-116.5 428.999,-137.5 580.999,-137.5 580.999,-116.5 428.999,-116.5"/>
<text text-anchor="middle" x="504.999" y="-124.5" font-family="Helvetica,sans-Serif" font-size="10.00">gaia/core/event/EventControl.h</text>
</a>
</g>
<!-- Node16&#45;&gt;Node17 -->
<g id="edge44" class="edge"><title>Node16&#45;&gt;Node17</title>
<path fill="none" stroke="midnightblue" d="M306.824,-174.497C347.386,-164.775 407.808,-150.294 451.264,-139.879"/>
<polygon fill="midnightblue" stroke="midnightblue" points="452.184,-143.257 461.093,-137.523 450.552,-136.45 452.184,-143.257"/>
</g>
<!-- Node17&#45;&gt;Node6 -->
<g id="edge46" class="edge"><title>Node17&#45;&gt;Node6</title>
<path fill="none" stroke="midnightblue" d="M560.922,-116.466C600.651,-107.904 649.432,-94.8427 663.999,-80 676.535,-67.2272 680.979,-46.9838 682.469,-31.7201"/>
<polygon fill="midnightblue" stroke="midnightblue" points="685.967,-31.8649 683.105,-21.6639 678.981,-31.4231 685.967,-31.8649"/>
</g>
</g>
</svg>
