<?xml version="1.0" encoding="UTF-8" standalone="no"?>
<!DOCTYPE svg PUBLIC "-//W3C//DTD SVG 1.1//EN"
 "http://www.w3.org/Graphics/SVG/1.1/DTD/svg11.dtd">
<!-- Generated by graphviz version 2.26.3 (20100126.1600)
 -->
<!-- Title: G Pages: 1 -->
<svg width="266pt" height="88pt"
 viewBox="0.00 0.00 266.00 88.00" xmlns="http://www.w3.org/2000/svg" xmlns:xlink="http://www.w3.org/1999/xlink">
<g id="graph1" class="graph" transform="scale(1 1) rotate(0) translate(4 84)">
<title>G</title>
<polygon fill="white" stroke="white" points="-4,5 -4,-84 263,-84 263,5 -4,5"/>
<!-- Node1 -->
<g id="node1" class="node"><title>Node1</title>
<polygon fill="#bfbfbf" stroke="black" points="-0.5,-58.5 -0.5,-79.5 258.5,-79.5 258.5,-58.5 -0.5,-58.5"/>
<text text-anchor="middle" x="129" y="-66.5" font-family="Helvetica,sans-Serif" font-size="10.00">/home/vilon_tao/gaia/sdk/include/gaia/core/Parcelable.h</text>
</g>
<!-- Node2 -->
<g id="node3" class="node"><title>Node2</title>
<polygon fill="white" stroke="#bfbfbf" points="65.5,-0.5 65.5,-21.5 116.5,-21.5 116.5,-0.5 65.5,-0.5"/>
<text text-anchor="middle" x="91" y="-8.5" font-family="Helvetica,sans-Serif" font-size="10.00">typeinfo</text>
</g>
<!-- Node1&#45;&gt;Node2 -->
<g id="edge2" class="edge"><title>Node1&#45;&gt;Node2</title>
<path fill="none" stroke="midnightblue" d="M122.03,-58.3619C116.834,-50.4313 109.599,-39.3885 103.422,-29.9606"/>
<polygon fill="midnightblue" stroke="midnightblue" points="106.334,-28.0172 97.9256,-21.5707 100.478,-31.8534 106.334,-28.0172"/>
</g>
<!-- Node3 -->
<g id="node5" class="node"><title>Node3</title>
<polygon fill="white" stroke="#bfbfbf" points="134,-0.5 134,-21.5 202,-21.5 202,-0.5 134,-0.5"/>
<text text-anchor="middle" x="168" y="-8.5" font-family="Helvetica,sans-Serif" font-size="10.00">sys/types.h</text>
</g>
<!-- Node1&#45;&gt;Node3 -->
<g id="edge4" class="edge"><title>Node1&#45;&gt;Node3</title>
<path fill="none" stroke="midnightblue" d="M136.153,-58.3619C141.486,-50.4313 148.911,-39.3885 155.251,-29.9606"/>
<polygon fill="midnightblue" stroke="midnightblue" points="158.217,-31.8221 160.892,-21.5707 152.408,-27.9161 158.217,-31.8221"/>
</g>
</g>
</svg>
