<?xml version="1.0" encoding="UTF-8" standalone="no"?>
<!DOCTYPE svg PUBLIC "-//W3C//DTD SVG 1.1//EN"
 "http://www.w3.org/Graphics/SVG/1.1/DTD/svg11.dtd">
<!-- Generated by graphviz version 2.26.3 (20100126.1600)
 -->
<!-- Title: G Pages: 1 -->
<svg width="1548pt" height="378pt"
 viewBox="0.00 0.00 1548.00 378.00" xmlns="http://www.w3.org/2000/svg" xmlns:xlink="http://www.w3.org/1999/xlink">
<g id="graph1" class="graph" transform="scale(1 1) rotate(0) translate(4 374)">
<title>G</title>
<polygon fill="white" stroke="white" points="-4,5 -4,-374 1545,-374 1545,5 -4,5"/>
<!-- Node1 -->
<g id="node1" class="node"><title>Node1</title>
<polygon fill="#bfbfbf" stroke="black" points="379,-348.5 379,-369.5 691,-369.5 691,-348.5 379,-348.5"/>
<text text-anchor="middle" x="535" y="-356.5" font-family="Helvetica,sans-Serif" font-size="10.00">/home/vilon_tao/gaia/sdk/include/gaia/ui/AutoCompleteEditWidget.h</text>
</g>
<!-- Node2 -->
<g id="node3" class="node"><title>Node2</title>
<a xlink:href="../../d1/d14/_abs_list_widget_8h.html" target="_top" xlink:title="gaia/ui/AbsListWidget.h">
<polygon fill="white" stroke="black" points="475,-232.5 475,-253.5 595,-253.5 595,-232.5 475,-232.5"/>
<text text-anchor="middle" x="535" y="-240.5" font-family="Helvetica,sans-Serif" font-size="10.00">gaia/ui/AbsListWidget.h</text>
</a>
</g>
<!-- Node1&#45;&gt;Node2 -->
<g id="edge2" class="edge"><title>Node1&#45;&gt;Node2</title>
<path fill="none" stroke="midnightblue" d="M535,-348.295C535,-329.131 535,-288.654 535,-263.843"/>
<polygon fill="midnightblue" stroke="midnightblue" points="538.5,-263.679 535,-253.679 531.5,-263.679 538.5,-263.679"/>
</g>
<!-- Node10 -->
<g id="node20" class="node"><title>Node10</title>
<polygon fill="white" stroke="#bfbfbf" points="115.5,-0.5 115.5,-21.5 164.5,-21.5 164.5,-0.5 115.5,-0.5"/>
<text text-anchor="middle" x="140" y="-8.5" font-family="Helvetica,sans-Serif" font-size="10.00">stdint.h</text>
</g>
<!-- Node1&#45;&gt;Node10 -->
<g id="edge106" class="edge"><title>Node1&#45;&gt;Node10</title>
<path fill="none" stroke="midnightblue" d="M443.638,-348.475C290.836,-329.622 0,-287.847 0,-243 0,-243 0,-243 0,-127 0,-72.2086 64.3676,-38.388 105.812,-22.2906"/>
<polygon fill="midnightblue" stroke="midnightblue" points="107.144,-25.5296 115.293,-18.7591 104.7,-18.9699 107.144,-25.5296"/>
</g>
<!-- Node12 -->
<g id="node25" class="node"><title>Node12</title>
<a xlink:href="../../d2/d98/_edit_widget_8h.html" target="_top" xlink:title="gaia/ui/EditWidget.h">
<polygon fill="white" stroke="black" points="216,-232.5 216,-253.5 320,-253.5 320,-232.5 216,-232.5"/>
<text text-anchor="middle" x="268" y="-240.5" font-family="Helvetica,sans-Serif" font-size="10.00">gaia/ui/EditWidget.h</text>
</a>
</g>
<!-- Node1&#45;&gt;Node12 -->
<g id="edge26" class="edge"><title>Node1&#45;&gt;Node12</title>
<path fill="none" stroke="midnightblue" d="M510.36,-348.295C462.254,-327.395 355.798,-281.145 301.405,-257.513"/>
<polygon fill="midnightblue" stroke="midnightblue" points="302.761,-254.286 292.195,-253.512 299.972,-260.707 302.761,-254.286"/>
</g>
<!-- Node14 -->
<g id="node32" class="node"><title>Node14</title>
<a xlink:href="../../d9/d41/_i_filterable_list_item_provider_8h.html" target="_top" xlink:title="gaia/ui/IFilterableListItemProvider.h">
<polygon fill="white" stroke="black" points="638,-290.5 638,-311.5 808,-311.5 808,-290.5 638,-290.5"/>
<text text-anchor="middle" x="723" y="-298.5" font-family="Helvetica,sans-Serif" font-size="10.00">gaia/ui/IFilterableListItemProvider.h</text>
</a>
</g>
<!-- Node1&#45;&gt;Node14 -->
<g id="edge36" class="edge"><title>Node1&#45;&gt;Node14</title>
<path fill="none" stroke="midnightblue" d="M569.045,-348.497C599.96,-338.959 645.723,-324.841 679.322,-314.475"/>
<polygon fill="midnightblue" stroke="midnightblue" points="680.367,-317.816 688.891,-311.523 678.303,-311.127 680.367,-317.816"/>
</g>
<!-- Node25 -->
<g id="node65" class="node"><title>Node25</title>
<a xlink:href="../../d8/de3/_i_simple_list_item_provider_8h.html" target="_top" xlink:title="gaia/ui/ISimpleListItemProvider.h">
<polygon fill="white" stroke="black" points="833.5,-290.5 833.5,-311.5 994.5,-311.5 994.5,-290.5 833.5,-290.5"/>
<text text-anchor="middle" x="914" y="-298.5" font-family="Helvetica,sans-Serif" font-size="10.00">gaia/ui/ISimpleListItemProvider.h</text>
</a>
</g>
<!-- Node1&#45;&gt;Node25 -->
<g id="edge80" class="edge"><title>Node1&#45;&gt;Node25</title>
<path fill="none" stroke="midnightblue" d="M603.634,-348.497C668.765,-338.529 766.588,-323.559 834.95,-313.097"/>
<polygon fill="midnightblue" stroke="midnightblue" points="835.882,-316.496 845.237,-311.523 834.823,-309.576 835.882,-316.496"/>
</g>
<!-- Node3 -->
<g id="node5" class="node"><title>Node3</title>
<a xlink:href="../../d6/d52/_widget_controller_8h.html" target="_top" xlink:title="gaia/core/vision/WidgetController.h">
<polygon fill="white" stroke="black" points="338.5,-174.5 338.5,-195.5 507.5,-195.5 507.5,-174.5 338.5,-174.5"/>
<text text-anchor="middle" x="423" y="-182.5" font-family="Helvetica,sans-Serif" font-size="10.00">gaia/core/vision/WidgetController.h</text>
</a>
</g>
<!-- Node2&#45;&gt;Node3 -->
<g id="edge4" class="edge"><title>Node2&#45;&gt;Node3</title>
<path fill="none" stroke="midnightblue" d="M514.718,-232.497C497.382,-223.519 472.21,-210.484 452.62,-200.339"/>
<polygon fill="midnightblue" stroke="midnightblue" points="453.999,-197.112 443.51,-195.621 450.78,-203.328 453.999,-197.112"/>
</g>
<!-- Node7 -->
<g id="node13" class="node"><title>Node7</title>
<a xlink:href="../../d1/dd0/gmacros_8h.html" target="_top" xlink:title="gaia/base/gmacros.h">
<polygon fill="white" stroke="black" points="481.5,-58.5 481.5,-79.5 588.5,-79.5 588.5,-58.5 481.5,-58.5"/>
<text text-anchor="middle" x="535" y="-66.5" font-family="Helvetica,sans-Serif" font-size="10.00">gaia/base/gmacros.h</text>
</a>
</g>
<!-- Node2&#45;&gt;Node7 -->
<g id="edge22" class="edge"><title>Node2&#45;&gt;Node7</title>
<path fill="none" stroke="midnightblue" d="M535,-232.377C535,-204.293 535,-127.673 535,-90.2027"/>
<polygon fill="midnightblue" stroke="midnightblue" points="538.5,-89.9277 535,-79.9277 531.5,-89.9278 538.5,-89.9277"/>
</g>
<!-- Node11 -->
<g id="node23" class="node"><title>Node11</title>
<polygon fill="white" stroke="#bfbfbf" points="625,-116.5 625,-137.5 673,-137.5 673,-116.5 625,-116.5"/>
<text text-anchor="middle" x="649" y="-124.5" font-family="Helvetica,sans-Serif" font-size="10.00">limits.h</text>
</g>
<!-- Node2&#45;&gt;Node11 -->
<g id="edge24" class="edge"><title>Node2&#45;&gt;Node11</title>
<path fill="none" stroke="midnightblue" d="M545.521,-232.295C565.117,-212.355 607.393,-169.337 631.403,-144.906"/>
<polygon fill="midnightblue" stroke="midnightblue" points="633.992,-147.265 638.505,-137.679 628.999,-142.358 633.992,-147.265"/>
</g>
<!-- Node4 -->
<g id="node7" class="node"><title>Node4</title>
<a xlink:href="../../d3/dd0/_event_control_8h.html" target="_top" xlink:title="gaia/core/event/EventControl.h">
<polygon fill="white" stroke="black" points="352,-116.5 352,-137.5 504,-137.5 504,-116.5 352,-116.5"/>
<text text-anchor="middle" x="428" y="-124.5" font-family="Helvetica,sans-Serif" font-size="10.00">gaia/core/event/EventControl.h</text>
</a>
</g>
<!-- Node3&#45;&gt;Node4 -->
<g id="edge6" class="edge"><title>Node3&#45;&gt;Node4</title>
<path fill="none" stroke="midnightblue" d="M423.917,-174.362C424.558,-166.922 425.436,-156.743 426.213,-147.728"/>
<polygon fill="midnightblue" stroke="midnightblue" points="429.717,-147.834 427.089,-137.571 422.743,-147.233 429.717,-147.834"/>
</g>
<!-- Node6 -->
<g id="node11" class="node"><title>Node6</title>
<a xlink:href="../../d4/d75/_widget_8h.html" target="_top" xlink:title="gaia/core/vision/Widget.h">
<polygon fill="white" stroke="black" points="207.5,-116.5 207.5,-137.5 334.5,-137.5 334.5,-116.5 207.5,-116.5"/>
<text text-anchor="middle" x="271" y="-124.5" font-family="Helvetica,sans-Serif" font-size="10.00">gaia/core/vision/Widget.h</text>
</a>
</g>
<!-- Node3&#45;&gt;Node6 -->
<g id="edge10" class="edge"><title>Node3&#45;&gt;Node6</title>
<path fill="none" stroke="midnightblue" d="M395.474,-174.497C371.016,-165.164 335.062,-151.445 308.076,-141.147"/>
<polygon fill="midnightblue" stroke="midnightblue" points="309.168,-137.818 298.578,-137.523 306.673,-144.358 309.168,-137.818"/>
</g>
<!-- Node5 -->
<g id="node9" class="node"><title>Node5</title>
<polygon fill="white" stroke="#bfbfbf" points="1006,-0.5 1006,-21.5 1074,-21.5 1074,-0.5 1006,-0.5"/>
<text text-anchor="middle" x="1040" y="-8.5" font-family="Helvetica,sans-Serif" font-size="10.00">sys/types.h</text>
</g>
<!-- Node4&#45;&gt;Node5 -->
<g id="edge8" class="edge"><title>Node4&#45;&gt;Node5</title>
<path fill="none" stroke="midnightblue" d="M431.503,-116.379C437.332,-100.583 450.645,-71.3332 473,-58 517.505,-31.4554 870.045,-16.8476 995.704,-12.4436"/>
<polygon fill="midnightblue" stroke="midnightblue" points="995.879,-15.9397 1005.75,-12.0963 995.637,-8.94389 995.879,-15.9397"/>
</g>
<!-- Node6&#45;&gt;Node7 -->
<g id="edge12" class="edge"><title>Node6&#45;&gt;Node7</title>
<path fill="none" stroke="midnightblue" d="M318.808,-116.497C363.338,-106.714 429.807,-92.1107 477.276,-81.6819"/>
<polygon fill="midnightblue" stroke="midnightblue" points="478.086,-85.0874 487.102,-79.5231 476.584,-78.2505 478.086,-85.0874"/>
</g>
<!-- Node8 -->
<g id="node15" class="node"><title>Node8</title>
<a xlink:href="../../d0/d92/_property_animatable_8h.html" target="_top" xlink:title="gaia/core/animator/PropertyAnimatable.h">
<polygon fill="white" stroke="black" points="232,-58.5 232,-79.5 426,-79.5 426,-58.5 232,-58.5"/>
<text text-anchor="middle" x="329" y="-66.5" font-family="Helvetica,sans-Serif" font-size="10.00">gaia/core/animator/PropertyAnimatable.h</text>
</a>
</g>
<!-- Node6&#45;&gt;Node8 -->
<g id="edge14" class="edge"><title>Node6&#45;&gt;Node8</title>
<path fill="none" stroke="midnightblue" d="M281.638,-116.362C289.896,-108.104 301.528,-96.4725 311.197,-86.8029"/>
<polygon fill="midnightblue" stroke="midnightblue" points="313.833,-89.1166 318.429,-79.5707 308.883,-84.1669 313.833,-89.1166"/>
</g>
<!-- Node9 -->
<g id="node18" class="node"><title>Node9</title>
<a xlink:href="../../d8/d50/_widget_core_8h.html" target="_top" xlink:title="gaia/core/vision/WidgetCore.h">
<polygon fill="white" stroke="black" points="66,-58.5 66,-79.5 214,-79.5 214,-58.5 66,-58.5"/>
<text text-anchor="middle" x="140" y="-66.5" font-family="Helvetica,sans-Serif" font-size="10.00">gaia/core/vision/WidgetCore.h</text>
</a>
</g>
<!-- Node6&#45;&gt;Node9 -->
<g id="edge18" class="edge"><title>Node6&#45;&gt;Node9</title>
<path fill="none" stroke="midnightblue" d="M247.277,-116.497C226.632,-107.356 196.484,-94.0082 173.401,-83.7883"/>
<polygon fill="midnightblue" stroke="midnightblue" points="174.55,-80.4694 163.989,-79.6212 171.716,-86.8701 174.55,-80.4694"/>
</g>
<!-- Node8&#45;&gt;Node5 -->
<g id="edge16" class="edge"><title>Node8&#45;&gt;Node5</title>
<path fill="none" stroke="midnightblue" d="M426.149,-59.2561C430.831,-58.8231 435.467,-58.4021 440,-58 647.825,-39.5646 896.49,-21.2931 995.838,-14.1463"/>
<polygon fill="midnightblue" stroke="midnightblue" points="996.093,-17.6372 1005.82,-13.4299 995.591,-10.6552 996.093,-17.6372"/>
</g>
<!-- Node9&#45;&gt;Node10 -->
<g id="edge20" class="edge"><title>Node9&#45;&gt;Node10</title>
<path fill="none" stroke="midnightblue" d="M140,-58.3619C140,-50.9219 140,-40.7427 140,-31.7276"/>
<polygon fill="midnightblue" stroke="midnightblue" points="143.5,-31.5706 140,-21.5707 136.5,-31.5707 143.5,-31.5706"/>
</g>
<!-- Node12&#45;&gt;Node10 -->
<g id="edge34" class="edge"><title>Node12&#45;&gt;Node10</title>
<path fill="none" stroke="midnightblue" d="M241.98,-232.339C194.686,-211.341 95.9275,-159.64 57,-80 44.2285,-53.8716 77.4488,-34.0635 105.589,-22.5157"/>
<polygon fill="midnightblue" stroke="midnightblue" points="107.184,-25.6515 115.248,-18.7788 104.658,-19.1231 107.184,-25.6515"/>
</g>
<!-- Node13 -->
<g id="node27" class="node"><title>Node13</title>
<a xlink:href="../../d8/d13/_text_widget_8h.html" target="_top" xlink:title="gaia/ui/TextWidget.h">
<polygon fill="white" stroke="black" points="214.5,-174.5 214.5,-195.5 321.5,-195.5 321.5,-174.5 214.5,-174.5"/>
<text text-anchor="middle" x="268" y="-182.5" font-family="Helvetica,sans-Serif" font-size="10.00">gaia/ui/TextWidget.h</text>
</a>
</g>
<!-- Node12&#45;&gt;Node13 -->
<g id="edge28" class="edge"><title>Node12&#45;&gt;Node13</title>
<path fill="none" stroke="midnightblue" d="M268,-232.362C268,-224.922 268,-214.743 268,-205.728"/>
<polygon fill="midnightblue" stroke="midnightblue" points="271.5,-205.571 268,-195.571 264.5,-205.571 271.5,-205.571"/>
</g>
<!-- Node13&#45;&gt;Node4 -->
<g id="edge30" class="edge"><title>Node13&#45;&gt;Node4</title>
<path fill="none" stroke="midnightblue" d="M296.975,-174.497C322.833,-165.123 360.899,-151.324 389.346,-141.012"/>
<polygon fill="midnightblue" stroke="midnightblue" points="390.762,-144.222 398.971,-137.523 388.377,-137.641 390.762,-144.222"/>
</g>
<!-- Node13&#45;&gt;Node6 -->
<g id="edge32" class="edge"><title>Node13&#45;&gt;Node6</title>
<path fill="none" stroke="midnightblue" d="M268.55,-174.362C268.935,-166.922 269.462,-156.743 269.928,-147.728"/>
<polygon fill="midnightblue" stroke="midnightblue" points="273.432,-147.738 270.453,-137.571 266.441,-147.376 273.432,-147.738"/>
</g>
<!-- Node15 -->
<g id="node34" class="node"><title>Node15</title>
<a xlink:href="../../db/db5/_string_8h.html" target="_top" xlink:title="gaia/base/String.h">
<polygon fill="white" stroke="black" points="753.5,-116.5 753.5,-137.5 848.5,-137.5 848.5,-116.5 753.5,-116.5"/>
<text text-anchor="middle" x="801" y="-124.5" font-family="Helvetica,sans-Serif" font-size="10.00">gaia/base/String.h</text>
</a>
</g>
<!-- Node14&#45;&gt;Node15 -->
<g id="edge38" class="edge"><title>Node14&#45;&gt;Node15</title>
<path fill="none" stroke="midnightblue" d="M751.885,-290.469C768.1,-282.941 787.027,-271.088 797,-254 816.265,-220.992 811.286,-174.495 806.055,-147.884"/>
<polygon fill="midnightblue" stroke="midnightblue" points="809.407,-146.825 803.867,-137.794 802.566,-148.309 809.407,-146.825"/>
</g>
<!-- Node18 -->
<g id="node43" class="node"><title>Node18</title>
<a xlink:href="../../d4/d8b/_i_list_item_provider_8h.html" target="_top" xlink:title="gaia/ui/IListItemProvider.h">
<polygon fill="white" stroke="black" points="657.5,-232.5 657.5,-253.5 788.5,-253.5 788.5,-232.5 657.5,-232.5"/>
<text text-anchor="middle" x="723" y="-240.5" font-family="Helvetica,sans-Serif" font-size="10.00">gaia/ui/IListItemProvider.h</text>
</a>
</g>
<!-- Node14&#45;&gt;Node18 -->
<g id="edge50" class="edge"><title>Node14&#45;&gt;Node18</title>
<path fill="none" stroke="midnightblue" d="M723,-290.362C723,-282.922 723,-272.743 723,-263.728"/>
<polygon fill="midnightblue" stroke="midnightblue" points="726.5,-263.571 723,-253.571 719.5,-263.571 726.5,-263.571"/>
</g>
<!-- Node15&#45;&gt;Node5 -->
<g id="edge48" class="edge"><title>Node15&#45;&gt;Node5</title>
<path fill="none" stroke="midnightblue" d="M794.019,-116.346C785.293,-101.554 773.091,-74.7309 787,-58 813.025,-26.6949 930.221,-16.1423 995.586,-12.6602"/>
<polygon fill="midnightblue" stroke="midnightblue" points="995.796,-16.1542 1005.61,-12.16 995.447,-9.16289 995.796,-16.1542"/>
</g>
<!-- Node16 -->
<g id="node36" class="node"><title>Node16</title>
<a xlink:href="../../d7/d97/_char_sequence_8h.html" target="_top" xlink:title="gaia/base/CharSequence.h">
<polygon fill="white" stroke="black" points="606,-58.5 606,-79.5 740,-79.5 740,-58.5 606,-58.5"/>
<text text-anchor="middle" x="673" y="-66.5" font-family="Helvetica,sans-Serif" font-size="10.00">gaia/base/CharSequence.h</text>
</a>
</g>
<!-- Node15&#45;&gt;Node16 -->
<g id="edge40" class="edge"><title>Node15&#45;&gt;Node16</title>
<path fill="none" stroke="midnightblue" d="M777.82,-116.497C757.648,-107.356 728.19,-94.0082 705.636,-83.7883"/>
<polygon fill="midnightblue" stroke="midnightblue" points="706.993,-80.5606 696.44,-79.6212 704.104,-86.9366 706.993,-80.5606"/>
</g>
<!-- Node17 -->
<g id="node39" class="node"><title>Node17</title>
<a xlink:href="../../d6/d83/_hash_func_8h.html" target="_top" xlink:title="gaia/base/HashFunc.h">
<polygon fill="white" stroke="black" points="795.5,-58.5 795.5,-79.5 910.5,-79.5 910.5,-58.5 795.5,-58.5"/>
<text text-anchor="middle" x="853" y="-66.5" font-family="Helvetica,sans-Serif" font-size="10.00">gaia/base/HashFunc.h</text>
</a>
</g>
<!-- Node15&#45;&gt;Node17 -->
<g id="edge44" class="edge"><title>Node15&#45;&gt;Node17</title>
<path fill="none" stroke="midnightblue" d="M810.538,-116.362C817.868,-108.186 828.163,-96.7025 836.781,-87.0907"/>
<polygon fill="midnightblue" stroke="midnightblue" points="839.453,-89.3528 843.523,-79.5707 834.241,-84.68 839.453,-89.3528"/>
</g>
<!-- Node16&#45;&gt;Node10 -->
<g id="edge42" class="edge"><title>Node16&#45;&gt;Node10</title>
<path fill="none" stroke="midnightblue" d="M605.883,-59.1325C602.883,-58.7397 599.911,-58.3602 597,-58 439.753,-38.5427 251.359,-20.9808 174.848,-14.0894"/>
<polygon fill="midnightblue" stroke="midnightblue" points="175.082,-10.5965 164.81,-13.1887 174.457,-17.5685 175.082,-10.5965"/>
</g>
<!-- Node17&#45;&gt;Node5 -->
<g id="edge46" class="edge"><title>Node17&#45;&gt;Node5</title>
<path fill="none" stroke="midnightblue" d="M886.864,-58.4966C917.482,-49.0001 962.743,-34.9619 996.124,-24.6087"/>
<polygon fill="midnightblue" stroke="midnightblue" points="997.558,-27.8284 1006.07,-21.5231 995.484,-21.1426 997.558,-27.8284"/>
</g>
<!-- Node18&#45;&gt;Node7 -->
<g id="edge78" class="edge"><title>Node18&#45;&gt;Node7</title>
<path fill="none" stroke="midnightblue" d="M705.51,-232.349C691.327,-223.38 671.118,-209.833 655,-196 614.051,-160.856 572.068,-113.23 550.261,-87.4393"/>
<polygon fill="midnightblue" stroke="midnightblue" points="552.777,-84.9927 543.669,-79.5794 547.413,-89.4907 552.777,-84.9927"/>
</g>
<!-- Node18&#45;&gt;Node11 -->
<g id="edge52" class="edge"><title>Node18&#45;&gt;Node11</title>
<path fill="none" stroke="midnightblue" d="M705.943,-232.472C693.667,-224.047 677.635,-211.158 668,-196 658.652,-181.293 653.844,-161.991 651.407,-147.543"/>
<polygon fill="midnightblue" stroke="midnightblue" points="654.864,-146.993 649.97,-137.597 647.936,-147.994 654.864,-146.993"/>
</g>
<!-- Node19 -->
<g id="node46" class="node"><title>Node19</title>
<a xlink:href="../../d9/d0a/_i_item_provider_8h.html" target="_top" xlink:title="gaia/ui/IItemProvider.h">
<polygon fill="white" stroke="black" points="676.5,-174.5 676.5,-195.5 791.5,-195.5 791.5,-174.5 676.5,-174.5"/>
<text text-anchor="middle" x="734" y="-182.5" font-family="Helvetica,sans-Serif" font-size="10.00">gaia/ui/IItemProvider.h</text>
</a>
</g>
<!-- Node18&#45;&gt;Node19 -->
<g id="edge54" class="edge"><title>Node18&#45;&gt;Node19</title>
<path fill="none" stroke="midnightblue" d="M725.018,-232.362C726.444,-224.84 728.402,-214.519 730.125,-205.431"/>
<polygon fill="midnightblue" stroke="midnightblue" points="733.571,-206.048 731.995,-195.571 726.693,-204.743 733.571,-206.048"/>
</g>
<!-- Node19&#45;&gt;Node7 -->
<g id="edge58" class="edge"><title>Node19&#45;&gt;Node7</title>
<path fill="none" stroke="midnightblue" d="M728.794,-174.499C720.781,-159.391 704.018,-131.627 682,-116 666.522,-105.015 623.151,-91.793 587.502,-82.175"/>
<polygon fill="midnightblue" stroke="midnightblue" points="588.245,-78.7511 577.682,-79.5627 586.446,-85.5158 588.245,-78.7511"/>
</g>
<!-- Node19&#45;&gt;Node11 -->
<g id="edge56" class="edge"><title>Node19&#45;&gt;Node11</title>
<path fill="none" stroke="midnightblue" d="M718.41,-174.362C705.709,-165.696 687.562,-153.313 673.008,-143.382"/>
<polygon fill="midnightblue" stroke="midnightblue" points="674.724,-140.316 664.491,-137.571 670.779,-146.098 674.724,-140.316"/>
</g>
<!-- Node20 -->
<g id="node50" class="node"><title>Node20</title>
<a xlink:href="../../d4/d7f/_vector_8h.html" target="_top" xlink:title="gaia/base/Vector.h">
<polygon fill="white" stroke="black" points="1037,-116.5 1037,-137.5 1135,-137.5 1135,-116.5 1037,-116.5"/>
<text text-anchor="middle" x="1086" y="-124.5" font-family="Helvetica,sans-Serif" font-size="10.00">gaia/base/Vector.h</text>
</a>
</g>
<!-- Node19&#45;&gt;Node20 -->
<g id="edge60" class="edge"><title>Node19&#45;&gt;Node20</title>
<path fill="none" stroke="midnightblue" d="M791.731,-175.487C856.53,-164.81 961.136,-147.574 1026.61,-136.787"/>
<polygon fill="midnightblue" stroke="midnightblue" points="1027.47,-140.192 1036.76,-135.113 1026.33,-133.285 1027.47,-140.192"/>
</g>
<!-- Node20&#45;&gt;Node5 -->
<g id="edge76" class="edge"><title>Node20&#45;&gt;Node5</title>
<path fill="none" stroke="midnightblue" d="M1083.96,-116.439C1081.11,-102.659 1075.32,-77.9542 1067,-58 1063.05,-48.5342 1057.57,-38.6098 1052.58,-30.3329"/>
<polygon fill="midnightblue" stroke="midnightblue" points="1055.52,-28.4332 1047.26,-21.8001 1049.58,-32.1374 1055.52,-28.4332"/>
</g>
<!-- Node21 -->
<g id="node52" class="node"><title>Node21</title>
<a xlink:href="../../d1/d86/_type_helpers_8h.html" target="_top" xlink:title="gaia/base/TypeHelpers.h">
<polygon fill="white" stroke="black" points="1247.5,-58.5 1247.5,-79.5 1372.5,-79.5 1372.5,-58.5 1247.5,-58.5"/>
<text text-anchor="middle" x="1310" y="-66.5" font-family="Helvetica,sans-Serif" font-size="10.00">gaia/base/TypeHelpers.h</text>
</a>
</g>
<!-- Node20&#45;&gt;Node21 -->
<g id="edge62" class="edge"><title>Node20&#45;&gt;Node21</title>
<path fill="none" stroke="midnightblue" d="M1126.56,-116.497C1163.87,-106.836 1219.33,-92.4765 1259.5,-82.0765"/>
<polygon fill="midnightblue" stroke="midnightblue" points="1260.56,-85.418 1269.36,-79.5231 1258.8,-78.6415 1260.56,-85.418"/>
</g>
<!-- Node24 -->
<g id="node60" class="node"><title>Node24</title>
<a xlink:href="../../dc/da9/_vector_impl_8h.html" target="_top" xlink:title="gaia/base/VectorImpl.h">
<polygon fill="white" stroke="black" points="1113.5,-58.5 1113.5,-79.5 1230.5,-79.5 1230.5,-58.5 1113.5,-58.5"/>
<text text-anchor="middle" x="1172" y="-66.5" font-family="Helvetica,sans-Serif" font-size="10.00">gaia/base/VectorImpl.h</text>
</a>
</g>
<!-- Node20&#45;&gt;Node24 -->
<g id="edge72" class="edge"><title>Node20&#45;&gt;Node24</title>
<path fill="none" stroke="midnightblue" d="M1101.77,-116.362C1114.62,-107.696 1132.98,-95.3126 1147.71,-85.3819"/>
<polygon fill="midnightblue" stroke="midnightblue" points="1149.99,-88.0639 1156.33,-79.5707 1146.08,-82.2604 1149.99,-88.0639"/>
</g>
<!-- Node21&#45;&gt;Node5 -->
<g id="edge68" class="edge"><title>Node21&#45;&gt;Node5</title>
<path fill="none" stroke="midnightblue" d="M1261.11,-58.4966C1210.6,-47.6469 1132.49,-30.8689 1083.9,-20.4311"/>
<polygon fill="midnightblue" stroke="midnightblue" points="1084.52,-16.9828 1074,-18.3044 1083.05,-23.8267 1084.52,-16.9828"/>
</g>
<!-- Node21&#45;&gt;Node10 -->
<g id="edge64" class="edge"><title>Node21&#45;&gt;Node10</title>
<path fill="none" stroke="midnightblue" d="M1247.33,-58.9043C1244.52,-58.5732 1241.73,-58.2691 1239,-58 1025.35,-36.9466 339.28,-16.621 175.4,-11.9841"/>
<polygon fill="midnightblue" stroke="midnightblue" points="175.037,-8.47255 164.942,-11.6895 174.84,-15.4698 175.037,-8.47255"/>
</g>
<!-- Node22 -->
<g id="node55" class="node"><title>Node22</title>
<polygon fill="white" stroke="#bfbfbf" points="1314.5,-0.5 1314.5,-21.5 1363.5,-21.5 1363.5,-0.5 1314.5,-0.5"/>
<text text-anchor="middle" x="1339" y="-8.5" font-family="Helvetica,sans-Serif" font-size="10.00">string.h</text>
</g>
<!-- Node21&#45;&gt;Node22 -->
<g id="edge66" class="edge"><title>Node21&#45;&gt;Node22</title>
<path fill="none" stroke="midnightblue" d="M1315.32,-58.3619C1319.2,-50.5949 1324.58,-39.8426 1329.23,-30.5458"/>
<polygon fill="midnightblue" stroke="midnightblue" points="1332.37,-32.0802 1333.71,-21.5707 1326.11,-28.9497 1332.37,-32.0802"/>
</g>
<!-- Node23 -->
<g id="node58" class="node"><title>Node23</title>
<polygon fill="white" stroke="#bfbfbf" points="1262.5,-0.5 1262.5,-21.5 1297.5,-21.5 1297.5,-0.5 1262.5,-0.5"/>
<text text-anchor="middle" x="1280" y="-8.5" font-family="Helvetica,sans-Serif" font-size="10.00">new</text>
</g>
<!-- Node21&#45;&gt;Node23 -->
<g id="edge70" class="edge"><title>Node21&#45;&gt;Node23</title>
<path fill="none" stroke="midnightblue" d="M1304.5,-58.3619C1300.48,-50.5949 1294.92,-39.8426 1290.11,-30.5458"/>
<polygon fill="midnightblue" stroke="midnightblue" points="1293.17,-28.8448 1285.47,-21.5707 1286.95,-32.0608 1293.17,-28.8448"/>
</g>
<!-- Node24&#45;&gt;Node5 -->
<g id="edge74" class="edge"><title>Node24&#45;&gt;Node5</title>
<path fill="none" stroke="midnightblue" d="M1148.1,-58.4966C1127.2,-49.3154 1096.64,-35.8889 1073.34,-25.6516"/>
<polygon fill="midnightblue" stroke="midnightblue" points="1074.74,-22.4397 1064.17,-21.6212 1071.92,-28.8483 1074.74,-22.4397"/>
</g>
<!-- Node25&#45;&gt;Node15 -->
<g id="edge102" class="edge"><title>Node25&#45;&gt;Node15</title>
<path fill="none" stroke="midnightblue" d="M907.101,-290.377C888.627,-261.93 837.812,-183.684 813.838,-146.769"/>
<polygon fill="midnightblue" stroke="midnightblue" points="816.479,-144.408 808.097,-137.928 810.608,-148.221 816.479,-144.408"/>
</g>
<!-- Node25&#45;&gt;Node18 -->
<g id="edge104" class="edge"><title>Node25&#45;&gt;Node18</title>
<path fill="none" stroke="midnightblue" d="M879.411,-290.497C848.004,-280.959 801.51,-266.841 767.375,-256.475"/>
<polygon fill="midnightblue" stroke="midnightblue" points="768.239,-253.08 757.654,-253.523 766.205,-259.778 768.239,-253.08"/>
</g>
<!-- Node25&#45;&gt;Node20 -->
<g id="edge100" class="edge"><title>Node25&#45;&gt;Node20</title>
<path fill="none" stroke="midnightblue" d="M924.5,-290.377C952.98,-261.567 1031.95,-181.678 1067.84,-145.376"/>
<polygon fill="midnightblue" stroke="midnightblue" points="1070.66,-147.5 1075.2,-137.928 1065.68,-142.579 1070.66,-147.5"/>
</g>
<!-- Node26 -->
<g id="node67" class="node"><title>Node26</title>
<a xlink:href="../../d3/dc5/_array_8h.html" target="_top" xlink:title="gaia/base/Array.h">
<polygon fill="white" stroke="black" points="1308.5,-116.5 1308.5,-137.5 1401.5,-137.5 1401.5,-116.5 1308.5,-116.5"/>
<text text-anchor="middle" x="1355" y="-124.5" font-family="Helvetica,sans-Serif" font-size="10.00">gaia/base/Array.h</text>
</a>
</g>
<!-- Node25&#45;&gt;Node26 -->
<g id="edge82" class="edge"><title>Node25&#45;&gt;Node26</title>
<path fill="none" stroke="midnightblue" d="M940.923,-290.377C1016.82,-260.431 1232.58,-175.301 1318.78,-141.292"/>
<polygon fill="midnightblue" stroke="midnightblue" points="1320.13,-144.52 1328.15,-137.594 1317.56,-138.008 1320.13,-144.52"/>
</g>
<!-- Node28 -->
<g id="node74" class="node"><title>Node28</title>
<a xlink:href="../../dd/d0b/_hash_map_8h.html" target="_top" xlink:title="gaia/base/HashMap.h">
<polygon fill="white" stroke="black" points="866,-116.5 866,-137.5 978,-137.5 978,-116.5 866,-116.5"/>
<text text-anchor="middle" x="922" y="-124.5" font-family="Helvetica,sans-Serif" font-size="10.00">gaia/base/HashMap.h</text>
</a>
</g>
<!-- Node25&#45;&gt;Node28 -->
<g id="edge92" class="edge"><title>Node25&#45;&gt;Node28</title>
<path fill="none" stroke="midnightblue" d="M914.488,-290.377C915.78,-262.293 919.302,-185.673 921.025,-148.203"/>
<polygon fill="midnightblue" stroke="midnightblue" points="924.535,-148.078 921.498,-137.928 917.542,-147.756 924.535,-148.078"/>
</g>
<!-- Node26&#45;&gt;Node5 -->
<g id="edge90" class="edge"><title>Node26&#45;&gt;Node5</title>
<path fill="none" stroke="midnightblue" d="M1364.94,-116.471C1377.55,-101.826 1395.97,-75.1773 1381,-58 1361.76,-35.9219 1172.03,-20.097 1084.2,-13.8944"/>
<polygon fill="midnightblue" stroke="midnightblue" points="1084.23,-10.3882 1074.01,-13.1859 1083.75,-17.3713 1084.23,-10.3882"/>
</g>
<!-- Node26&#45;&gt;Node21 -->
<g id="edge88" class="edge"><title>Node26&#45;&gt;Node21</title>
<path fill="none" stroke="midnightblue" d="M1346.75,-116.362C1340.53,-108.35 1331.85,-97.1605 1324.49,-87.6696"/>
<polygon fill="midnightblue" stroke="midnightblue" points="1327.1,-85.326 1318.2,-79.5707 1321.57,-89.617 1327.1,-85.326"/>
</g>
<!-- Node27 -->
<g id="node69" class="node"><title>Node27</title>
<a xlink:href="../../d8/dae/_array_impl_8h.html" target="_top" xlink:title="gaia/base/ArrayImpl.h">
<polygon fill="white" stroke="black" points="1428,-58.5 1428,-79.5 1540,-79.5 1540,-58.5 1428,-58.5"/>
<text text-anchor="middle" x="1484" y="-66.5" font-family="Helvetica,sans-Serif" font-size="10.00">gaia/base/ArrayImpl.h</text>
</a>
</g>
<!-- Node26&#45;&gt;Node27 -->
<g id="edge84" class="edge"><title>Node26&#45;&gt;Node27</title>
<path fill="none" stroke="midnightblue" d="M1378.36,-116.497C1398.69,-107.356 1428.38,-94.0082 1451.11,-83.7883"/>
<polygon fill="midnightblue" stroke="midnightblue" points="1452.69,-86.9142 1460.38,-79.6212 1449.82,-80.5298 1452.69,-86.9142"/>
</g>
<!-- Node27&#45;&gt;Node5 -->
<g id="edge86" class="edge"><title>Node27&#45;&gt;Node5</title>
<path fill="none" stroke="midnightblue" d="M1427.86,-60.0218C1423.17,-59.3199 1418.51,-58.6371 1414,-58 1295.05,-41.1836 1154.38,-24.3166 1084.3,-16.1189"/>
<polygon fill="midnightblue" stroke="midnightblue" points="1084.42,-12.6089 1074.08,-14.9261 1083.61,-19.5617 1084.42,-12.6089"/>
</g>
<!-- Node28&#45;&gt;Node17 -->
<g id="edge94" class="edge"><title>Node28&#45;&gt;Node17</title>
<path fill="none" stroke="midnightblue" d="M909.344,-116.362C899.326,-107.941 885.133,-96.0105 873.499,-86.2308"/>
<polygon fill="midnightblue" stroke="midnightblue" points="875.482,-83.326 865.575,-79.5707 870.978,-88.6844 875.482,-83.326"/>
</g>
<!-- Node29 -->
<g id="node77" class="node"><title>Node29</title>
<a xlink:href="../../dc/d11/_hash_map_impl_8h.html" target="_top" xlink:title="gaia/base/HashMapImpl.h">
<polygon fill="white" stroke="black" points="927.5,-58.5 927.5,-79.5 1058.5,-79.5 1058.5,-58.5 927.5,-58.5"/>
<text text-anchor="middle" x="993" y="-66.5" font-family="Helvetica,sans-Serif" font-size="10.00">gaia/base/HashMapImpl.h</text>
</a>
</g>
<!-- Node28&#45;&gt;Node29 -->
<g id="edge96" class="edge"><title>Node28&#45;&gt;Node29</title>
<path fill="none" stroke="midnightblue" d="M935.022,-116.362C945.431,-107.859 960.219,-95.7785 972.255,-85.9466"/>
<polygon fill="midnightblue" stroke="midnightblue" points="974.53,-88.6077 980.06,-79.5707 970.101,-83.1866 974.53,-88.6077"/>
</g>
<!-- Node29&#45;&gt;Node5 -->
<g id="edge98" class="edge"><title>Node29&#45;&gt;Node5</title>
<path fill="none" stroke="midnightblue" d="M1001.62,-58.3619C1008.18,-50.2678 1017.37,-38.9318 1025.11,-29.3796"/>
<polygon fill="midnightblue" stroke="midnightblue" points="1027.86,-31.5436 1031.43,-21.5707 1022.42,-27.1364 1027.86,-31.5436"/>
</g>
</g>
</svg>
