<?xml version="1.0" encoding="UTF-8" standalone="no"?>
<!DOCTYPE svg PUBLIC "-//W3C//DTD SVG 1.1//EN"
 "http://www.w3.org/Graphics/SVG/1.1/DTD/svg11.dtd">
<!-- Generated by graphviz version 2.26.3 (20100126.1600)
 -->
<!-- Title: G Pages: 1 -->
<svg width="1930pt" height="146pt"
 viewBox="0.00 0.00 1930.00 146.00" xmlns="http://www.w3.org/2000/svg" xmlns:xlink="http://www.w3.org/1999/xlink">
<g id="graph1" class="graph" transform="scale(1 1) rotate(0) translate(4 142)">
<title>G</title>
<polygon fill="white" stroke="white" points="-4,5 -4,-142 1927,-142 1927,5 -4,5"/>
<!-- Node1 -->
<g id="node1" class="node"><title>Node1</title>
<polygon fill="#bfbfbf" stroke="black" points="843,-116.5 843,-137.5 1105,-137.5 1105,-116.5 843,-116.5"/>
<text text-anchor="middle" x="974" y="-124.5" font-family="Helvetica,sans-Serif" font-size="10.00">/home/vilon_tao/gaia/sdk/include/gaia/graphics/Bitmap.h</text>
</g>
<!-- Node2 -->
<g id="node3" class="node"><title>Node2</title>
<a xlink:href="../../d1/d57/_bitmap_factory_8h.html" target="_top" xlink:title="/home/vilon_tao/gaia/sdk/include/gaia/graphics/BitmapFactory.h">
<polygon fill="white" stroke="black" points="502.5,-58.5 502.5,-79.5 797.5,-79.5 797.5,-58.5 502.5,-58.5"/>
<text text-anchor="middle" x="650" y="-66.5" font-family="Helvetica,sans-Serif" font-size="10.00">/home/vilon_tao/gaia/sdk/include/gaia/graphics/BitmapFactory.h</text>
</a>
</g>
<!-- Node1&#45;&gt;Node2 -->
<g id="edge2" class="edge"><title>Node1&#45;&gt;Node2</title>
<path fill="none" stroke="midnightblue" d="M905.455,-114.73C847.1,-104.283 764.157,-89.4354 708.784,-79.5231"/>
<polygon fill="midnightblue" stroke="midnightblue" points="904.866,-118.18 915.326,-116.497 906.099,-111.289 904.866,-118.18"/>
</g>
<!-- Node6 -->
<g id="node11" class="node"><title>Node6</title>
<a xlink:href="../../d8/d37/_image_widget_8h.html" target="_top" xlink:title="/home/vilon_tao/gaia/sdk/include/gaia/ui/ImageWidget.h">
<polygon fill="white" stroke="black" points="1151,-58.5 1151,-79.5 1411,-79.5 1411,-58.5 1151,-58.5"/>
<text text-anchor="middle" x="1281" y="-66.5" font-family="Helvetica,sans-Serif" font-size="10.00">/home/vilon_tao/gaia/sdk/include/gaia/ui/ImageWidget.h</text>
</a>
</g>
<!-- Node1&#45;&gt;Node6 -->
<g id="edge10" class="edge"><title>Node1&#45;&gt;Node6</title>
<path fill="none" stroke="midnightblue" d="M1039.63,-114.6C1094.89,-104.161 1173.05,-89.3945 1225.3,-79.5231"/>
<polygon fill="midnightblue" stroke="midnightblue" points="1038.77,-111.201 1029.6,-116.497 1040.07,-118.079 1038.77,-111.201"/>
</g>
<!-- Node3 -->
<g id="node5" class="node"><title>Node3</title>
<a xlink:href="../../d8/d65/_image_store_8h.html" target="_top" xlink:title="/home/vilon_tao/gaia/sdk/include/gaia/content/provider/ImageStore.h">
<polygon fill="white" stroke="black" points="0,-0.5 0,-21.5 314,-21.5 314,-0.5 0,-0.5"/>
<text text-anchor="middle" x="157" y="-8.5" font-family="Helvetica,sans-Serif" font-size="10.00">/home/vilon_tao/gaia/sdk/include/gaia/content/provider/ImageStore.h</text>
</a>
</g>
<!-- Node2&#45;&gt;Node3 -->
<g id="edge4" class="edge"><title>Node2&#45;&gt;Node3</title>
<path fill="none" stroke="midnightblue" d="M550.616,-57.3078C461.616,-46.8372 332.268,-31.6198 246.446,-21.5231"/>
<polygon fill="midnightblue" stroke="midnightblue" points="550.381,-60.8042 560.721,-58.4966 551.199,-53.8521 550.381,-60.8042"/>
</g>
<!-- Node4 -->
<g id="node7" class="node"><title>Node4</title>
<a xlink:href="../../da/dd5/_video_store_8h.html" target="_top" xlink:title="/home/vilon_tao/gaia/sdk/include/gaia/content/provider/VideoStore.h">
<polygon fill="white" stroke="black" points="332,-0.5 332,-21.5 644,-21.5 644,-0.5 332,-0.5"/>
<text text-anchor="middle" x="488" y="-8.5" font-family="Helvetica,sans-Serif" font-size="10.00">/home/vilon_tao/gaia/sdk/include/gaia/content/provider/VideoStore.h</text>
</a>
</g>
<!-- Node2&#45;&gt;Node4 -->
<g id="edge6" class="edge"><title>Node2&#45;&gt;Node4</title>
<path fill="none" stroke="midnightblue" d="M610.923,-55.0095C582.134,-44.7023 543.591,-30.903 517.392,-21.5231"/>
<polygon fill="midnightblue" stroke="midnightblue" points="610.068,-58.421 620.663,-58.4966 612.428,-51.8307 610.068,-58.421"/>
</g>
<!-- Node5 -->
<g id="node9" class="node"><title>Node5</title>
<a xlink:href="../../d5/dda/_bitmap_region_decoder_8h.html" target="_top" xlink:title="/home/vilon_tao/gaia/sdk/include/gaia/graphics/BitmapRegionDecoder.h">
<polygon fill="white" stroke="black" points="661.5,-0.5 661.5,-21.5 990.5,-21.5 990.5,-0.5 661.5,-0.5"/>
<text text-anchor="middle" x="826" y="-8.5" font-family="Helvetica,sans-Serif" font-size="10.00">/home/vilon_tao/gaia/sdk/include/gaia/graphics/BitmapRegionDecoder.h</text>
</a>
</g>
<!-- Node2&#45;&gt;Node5 -->
<g id="edge8" class="edge"><title>Node2&#45;&gt;Node5</title>
<path fill="none" stroke="midnightblue" d="M691.637,-55.2787C722.998,-44.9437 765.356,-30.9849 794.068,-21.5231"/>
<polygon fill="midnightblue" stroke="midnightblue" points="690.274,-52.0425 681.872,-58.4966 692.465,-58.6908 690.274,-52.0425"/>
</g>
<!-- Node7 -->
<g id="node13" class="node"><title>Node7</title>
<a xlink:href="../../de/d70/_image_button_8h.html" target="_top" xlink:title="/home/vilon_tao/gaia/sdk/include/gaia/ui/ImageButton.h">
<polygon fill="white" stroke="black" points="1007.5,-0.5 1007.5,-21.5 1264.5,-21.5 1264.5,-0.5 1007.5,-0.5"/>
<text text-anchor="middle" x="1136" y="-8.5" font-family="Helvetica,sans-Serif" font-size="10.00">/home/vilon_tao/gaia/sdk/include/gaia/ui/ImageButton.h</text>
</a>
</g>
<!-- Node6&#45;&gt;Node7 -->
<g id="edge12" class="edge"><title>Node6&#45;&gt;Node7</title>
<path fill="none" stroke="midnightblue" d="M1245.38,-54.7509C1219.77,-44.5086 1185.8,-30.9206 1162.55,-21.6212"/>
<polygon fill="midnightblue" stroke="midnightblue" points="1244.16,-58.0323 1254.74,-58.4966 1246.76,-51.533 1244.16,-58.0323"/>
</g>
<!-- Node8 -->
<g id="node15" class="node"><title>Node8</title>
<a xlink:href="../../d1/de8/_quick_contact_badge_8h.html" target="_top" xlink:title="/home/vilon_tao/gaia/sdk/include/gaia/ui/QuickContactBadge.h">
<polygon fill="white" stroke="black" points="1282,-0.5 1282,-21.5 1572,-21.5 1572,-0.5 1282,-0.5"/>
<text text-anchor="middle" x="1427" y="-8.5" font-family="Helvetica,sans-Serif" font-size="10.00">/home/vilon_tao/gaia/sdk/include/gaia/ui/QuickContactBadge.h</text>
</a>
</g>
<!-- Node6&#45;&gt;Node8 -->
<g id="edge14" class="edge"><title>Node6&#45;&gt;Node8</title>
<path fill="none" stroke="midnightblue" d="M1316.87,-54.7509C1342.65,-44.5086 1376.86,-30.9206 1400.26,-21.6212"/>
<polygon fill="midnightblue" stroke="midnightblue" points="1315.44,-51.5519 1307.44,-58.4966 1318.03,-58.0574 1315.44,-51.5519"/>
</g>
<!-- Node9 -->
<g id="node17" class="node"><title>Node9</title>
<a xlink:href="../../db/daf/_simple_cursor_list_item_provider_8h.html" target="_top" xlink:title="/home/vilon_tao/gaia/sdk/include/gaia/ui/SimpleCursorListItemProvider.h">
<polygon fill="white" stroke="black" points="1590,-0.5 1590,-21.5 1922,-21.5 1922,-0.5 1590,-0.5"/>
<text text-anchor="middle" x="1756" y="-8.5" font-family="Helvetica,sans-Serif" font-size="10.00">/home/vilon_tao/gaia/sdk/include/gaia/ui/SimpleCursorListItemProvider.h</text>
</a>
</g>
<!-- Node6&#45;&gt;Node9 -->
<g id="edge16" class="edge"><title>Node6&#45;&gt;Node9</title>
<path fill="none" stroke="midnightblue" d="M1377.02,-57.2759C1462.76,-46.8063 1587.22,-31.6095 1669.82,-21.5231"/>
<polygon fill="midnightblue" stroke="midnightblue" points="1376.52,-53.8103 1367.02,-58.4966 1377.37,-60.7587 1376.52,-53.8103"/>
</g>
</g>
</svg>
