<?xml version="1.0" encoding="UTF-8" standalone="no"?>
<!DOCTYPE svg PUBLIC "-//W3C//DTD SVG 1.1//EN"
 "http://www.w3.org/Graphics/SVG/1.1/DTD/svg11.dtd">
<!-- Generated by graphviz version 2.26.3 (20100126.1600)
 -->
<!-- Title: G Pages: 1 -->
<svg width="356pt" height="204pt"
 viewBox="0.00 0.00 356.00 204.00" xmlns="http://www.w3.org/2000/svg" xmlns:xlink="http://www.w3.org/1999/xlink">
<g id="graph1" class="graph" transform="scale(1 1) rotate(0) translate(4 200)">
<title>G</title>
<polygon fill="white" stroke="white" points="-4,5 -4,-200 353,-200 353,5 -4,5"/>
<!-- Node1 -->
<g id="node1" class="node"><title>Node1</title>
<polygon fill="#bfbfbf" stroke="black" points="13,-174.5 13,-195.5 305,-195.5 305,-174.5 13,-174.5"/>
<text text-anchor="middle" x="159" y="-182.5" font-family="Helvetica,sans-Serif" font-size="10.00">/home/vilon_tao/gaia/sdk/include/gaia/media/MediaCodecInfo.h</text>
</g>
<!-- Node2 -->
<g id="node3" class="node"><title>Node2</title>
<polygon fill="white" stroke="#bfbfbf" points="-0.5,-0.5 -0.5,-21.5 48.5,-21.5 48.5,-0.5 -0.5,-0.5"/>
<text text-anchor="middle" x="24" y="-8.5" font-family="Helvetica,sans-Serif" font-size="10.00">stdint.h</text>
</g>
<!-- Node1&#45;&gt;Node2 -->
<g id="edge2" class="edge"><title>Node1&#45;&gt;Node2</title>
<path fill="none" stroke="midnightblue" d="M141.759,-174.463C116.006,-157.773 67.8668,-122.729 43,-80 34.4195,-65.2559 29.5776,-46.4799 26.9323,-32.2378"/>
<polygon fill="midnightblue" stroke="midnightblue" points="30.3185,-31.2566 25.2522,-21.9515 23.41,-32.385 30.3185,-31.2566"/>
</g>
<!-- Node3 -->
<g id="node5" class="node"><title>Node3</title>
<a xlink:href="../../d4/d7f/_vector_8h.html" target="_top" xlink:title="gaia/base/Vector.h">
<polygon fill="white" stroke="black" points="110,-116.5 110,-137.5 208,-137.5 208,-116.5 110,-116.5"/>
<text text-anchor="middle" x="159" y="-124.5" font-family="Helvetica,sans-Serif" font-size="10.00">gaia/base/Vector.h</text>
</a>
</g>
<!-- Node1&#45;&gt;Node3 -->
<g id="edge4" class="edge"><title>Node1&#45;&gt;Node3</title>
<path fill="none" stroke="midnightblue" d="M159,-174.362C159,-166.922 159,-156.743 159,-147.728"/>
<polygon fill="midnightblue" stroke="midnightblue" points="162.5,-147.571 159,-137.571 155.5,-147.571 162.5,-147.571"/>
</g>
<!-- Node9 -->
<g id="node20" class="node"><title>Node9</title>
<a xlink:href="../../d1/dd0/gmacros_8h.html" target="_top" xlink:title="gaia/base/gmacros.h">
<polygon fill="white" stroke="black" points="225.5,-116.5 225.5,-137.5 332.5,-137.5 332.5,-116.5 225.5,-116.5"/>
<text text-anchor="middle" x="279" y="-124.5" font-family="Helvetica,sans-Serif" font-size="10.00">gaia/base/gmacros.h</text>
</a>
</g>
<!-- Node1&#45;&gt;Node9 -->
<g id="edge22" class="edge"><title>Node1&#45;&gt;Node9</title>
<path fill="none" stroke="midnightblue" d="M180.731,-174.497C199.474,-165.438 226.767,-152.246 247.836,-142.063"/>
<polygon fill="midnightblue" stroke="midnightblue" points="249.545,-145.124 257.025,-137.621 246.498,-138.822 249.545,-145.124"/>
</g>
<!-- Node4 -->
<g id="node7" class="node"><title>Node4</title>
<a xlink:href="../../d1/d86/_type_helpers_8h.html" target="_top" xlink:title="gaia/base/TypeHelpers.h">
<polygon fill="white" stroke="black" points="51.5,-58.5 51.5,-79.5 176.5,-79.5 176.5,-58.5 51.5,-58.5"/>
<text text-anchor="middle" x="114" y="-66.5" font-family="Helvetica,sans-Serif" font-size="10.00">gaia/base/TypeHelpers.h</text>
</a>
</g>
<!-- Node3&#45;&gt;Node4 -->
<g id="edge6" class="edge"><title>Node3&#45;&gt;Node4</title>
<path fill="none" stroke="midnightblue" d="M150.746,-116.362C144.53,-108.35 135.849,-97.1605 128.485,-87.6696"/>
<polygon fill="midnightblue" stroke="midnightblue" points="131.097,-85.326 122.201,-79.5707 125.566,-89.617 131.097,-85.326"/>
</g>
<!-- Node6 -->
<g id="node12" class="node"><title>Node6</title>
<polygon fill="white" stroke="#bfbfbf" points="184,-0.5 184,-21.5 252,-21.5 252,-0.5 184,-0.5"/>
<text text-anchor="middle" x="218" y="-8.5" font-family="Helvetica,sans-Serif" font-size="10.00">sys/types.h</text>
</g>
<!-- Node3&#45;&gt;Node6 -->
<g id="edge20" class="edge"><title>Node3&#45;&gt;Node6</title>
<path fill="none" stroke="midnightblue" d="M165.173,-116.271C170.56,-106.807 178.509,-92.6004 185,-80 193.417,-63.662 202.378,-44.8214 208.836,-30.9599"/>
<polygon fill="midnightblue" stroke="midnightblue" points="212.026,-32.3988 213.051,-21.8536 205.674,-29.458 212.026,-32.3988"/>
</g>
<!-- Node8 -->
<g id="node16" class="node"><title>Node8</title>
<a xlink:href="../../dc/da9/_vector_impl_8h.html" target="_top" xlink:title="gaia/base/VectorImpl.h">
<polygon fill="white" stroke="black" points="231.5,-58.5 231.5,-79.5 348.5,-79.5 348.5,-58.5 231.5,-58.5"/>
<text text-anchor="middle" x="290" y="-66.5" font-family="Helvetica,sans-Serif" font-size="10.00">gaia/base/VectorImpl.h</text>
</a>
</g>
<!-- Node3&#45;&gt;Node8 -->
<g id="edge16" class="edge"><title>Node3&#45;&gt;Node8</title>
<path fill="none" stroke="midnightblue" d="M182.723,-116.497C203.368,-107.356 233.516,-94.0082 256.599,-83.7883"/>
<polygon fill="midnightblue" stroke="midnightblue" points="258.284,-86.8701 266.011,-79.6212 255.45,-80.4694 258.284,-86.8701"/>
</g>
<!-- Node4&#45;&gt;Node2 -->
<g id="edge8" class="edge"><title>Node4&#45;&gt;Node2</title>
<path fill="none" stroke="midnightblue" d="M97.4926,-58.3619C83.9179,-49.6138 64.4668,-37.0786 48.985,-27.1015"/>
<polygon fill="midnightblue" stroke="midnightblue" points="50.7044,-24.0457 40.4027,-21.5707 46.9125,-29.9297 50.7044,-24.0457"/>
</g>
<!-- Node5 -->
<g id="node10" class="node"><title>Node5</title>
<polygon fill="white" stroke="#bfbfbf" points="65.5,-0.5 65.5,-21.5 114.5,-21.5 114.5,-0.5 65.5,-0.5"/>
<text text-anchor="middle" x="90" y="-8.5" font-family="Helvetica,sans-Serif" font-size="10.00">string.h</text>
</g>
<!-- Node4&#45;&gt;Node5 -->
<g id="edge10" class="edge"><title>Node4&#45;&gt;Node5</title>
<path fill="none" stroke="midnightblue" d="M109.598,-58.3619C106.418,-50.6766 102.028,-40.0686 98.2096,-30.8399"/>
<polygon fill="midnightblue" stroke="midnightblue" points="101.432,-29.4726 94.3741,-21.5707 94.9636,-32.1491 101.432,-29.4726"/>
</g>
<!-- Node4&#45;&gt;Node6 -->
<g id="edge12" class="edge"><title>Node4&#45;&gt;Node6</title>
<path fill="none" stroke="midnightblue" d="M133.075,-58.3619C149.055,-49.4502 172.081,-36.6087 190.127,-26.5447"/>
<polygon fill="midnightblue" stroke="midnightblue" points="192.017,-29.4982 199.046,-21.5707 188.607,-23.3846 192.017,-29.4982"/>
</g>
<!-- Node7 -->
<g id="node14" class="node"><title>Node7</title>
<polygon fill="white" stroke="#bfbfbf" points="131.5,-0.5 131.5,-21.5 166.5,-21.5 166.5,-0.5 131.5,-0.5"/>
<text text-anchor="middle" x="149" y="-8.5" font-family="Helvetica,sans-Serif" font-size="10.00">new</text>
</g>
<!-- Node4&#45;&gt;Node7 -->
<g id="edge14" class="edge"><title>Node4&#45;&gt;Node7</title>
<path fill="none" stroke="midnightblue" d="M120.42,-58.3619C125.156,-50.5131 131.732,-39.6159 137.382,-30.2527"/>
<polygon fill="midnightblue" stroke="midnightblue" points="140.451,-31.9409 142.621,-21.5707 134.458,-28.3242 140.451,-31.9409"/>
</g>
<!-- Node8&#45;&gt;Node6 -->
<g id="edge18" class="edge"><title>Node8&#45;&gt;Node6</title>
<path fill="none" stroke="midnightblue" d="M276.794,-58.3619C266.239,-49.859 251.242,-37.7785 239.037,-27.9466"/>
<polygon fill="midnightblue" stroke="midnightblue" points="241.105,-25.1183 231.122,-21.5707 236.714,-30.5696 241.105,-25.1183"/>
</g>
</g>
</svg>
