<?xml version="1.0" encoding="UTF-8" standalone="no"?>
<!DOCTYPE svg PUBLIC "-//W3C//DTD SVG 1.1//EN"
 "http://www.w3.org/Graphics/SVG/1.1/DTD/svg11.dtd">
<!-- Generated by graphviz version 2.26.3 (20100126.1600)
 -->
<!-- Title: G Pages: 1 -->
<svg width="310pt" height="146pt"
 viewBox="0.00 0.00 310.00 146.00" xmlns="http://www.w3.org/2000/svg" xmlns:xlink="http://www.w3.org/1999/xlink">
<g id="graph1" class="graph" transform="scale(1 1) rotate(0) translate(4 142)">
<title>G</title>
<polygon fill="white" stroke="white" points="-4,5 -4,-142 307,-142 307,5 -4,5"/>
<!-- Node1 -->
<g id="node1" class="node"><title>Node1</title>
<polygon fill="#bfbfbf" stroke="black" points="0,-116.5 0,-137.5 302,-137.5 302,-116.5 0,-116.5"/>
<text text-anchor="middle" x="151" y="-124.5" font-family="Helvetica,sans-Serif" font-size="10.00">/home/vilon_tao/gaia/sdk/include/gaia/text/style/ParagraphStyle.h</text>
</g>
<!-- Node2 -->
<g id="node3" class="node"><title>Node2</title>
<a xlink:href="../../d1/d81/_object_style_8h.html" target="_top" xlink:title="gaia/text/style/ObjectStyle.h">
<polygon fill="white" stroke="black" points="81,-58.5 81,-79.5 221,-79.5 221,-58.5 81,-58.5"/>
<text text-anchor="middle" x="151" y="-66.5" font-family="Helvetica,sans-Serif" font-size="10.00">gaia/text/style/ObjectStyle.h</text>
</a>
</g>
<!-- Node1&#45;&gt;Node2 -->
<g id="edge2" class="edge"><title>Node1&#45;&gt;Node2</title>
<path fill="none" stroke="midnightblue" d="M151,-116.362C151,-108.922 151,-98.7427 151,-89.7276"/>
<polygon fill="midnightblue" stroke="midnightblue" points="154.5,-89.5706 151,-79.5707 147.5,-89.5707 154.5,-89.5706"/>
</g>
<!-- Node3 -->
<g id="node5" class="node"><title>Node3</title>
<polygon fill="white" stroke="#bfbfbf" points="79.5,-0.5 79.5,-21.5 128.5,-21.5 128.5,-0.5 79.5,-0.5"/>
<text text-anchor="middle" x="104" y="-8.5" font-family="Helvetica,sans-Serif" font-size="10.00">stdint.h</text>
</g>
<!-- Node2&#45;&gt;Node3 -->
<g id="edge4" class="edge"><title>Node2&#45;&gt;Node3</title>
<path fill="none" stroke="midnightblue" d="M142.379,-58.3619C135.82,-50.2678 126.634,-38.9318 118.894,-29.3796"/>
<polygon fill="midnightblue" stroke="midnightblue" points="121.581,-27.1364 112.566,-21.5707 116.142,-31.5436 121.581,-27.1364"/>
</g>
<!-- Node4 -->
<g id="node7" class="node"><title>Node4</title>
<a xlink:href="../../d1/dd0/gmacros_8h.html" target="_top" xlink:title="gaia/base/gmacros.h">
<polygon fill="white" stroke="black" points="145.5,-0.5 145.5,-21.5 252.5,-21.5 252.5,-0.5 145.5,-0.5"/>
<text text-anchor="middle" x="199" y="-8.5" font-family="Helvetica,sans-Serif" font-size="10.00">gaia/base/gmacros.h</text>
</a>
</g>
<!-- Node2&#45;&gt;Node4 -->
<g id="edge6" class="edge"><title>Node2&#45;&gt;Node4</title>
<path fill="none" stroke="midnightblue" d="M159.804,-58.3619C166.502,-50.2678 175.884,-38.9318 183.789,-29.3796"/>
<polygon fill="midnightblue" stroke="midnightblue" points="186.573,-31.5061 190.252,-21.5707 181.18,-27.0431 186.573,-31.5061"/>
</g>
</g>
</svg>
