<?xml version="1.0" encoding="UTF-8" standalone="no"?>
<!DOCTYPE svg PUBLIC "-//W3C//DTD SVG 1.1//EN"
 "http://www.w3.org/Graphics/SVG/1.1/DTD/svg11.dtd">
<!-- Generated by graphviz version 2.26.3 (20100126.1600)
 -->
<!-- Title: G Pages: 1 -->
<svg width="1104pt" height="204pt"
 viewBox="0.00 0.00 1104.00 204.00" xmlns="http://www.w3.org/2000/svg" xmlns:xlink="http://www.w3.org/1999/xlink">
<g id="graph1" class="graph" transform="scale(1 1) rotate(0) translate(4 200)">
<title>G</title>
<polygon fill="white" stroke="white" points="-4,5 -4,-200 1101,-200 1101,5 -4,5"/>
<!-- Node1 -->
<g id="node1" class="node"><title>Node1</title>
<polygon fill="#bfbfbf" stroke="black" points="340.5,-174.5 340.5,-195.5 621.5,-195.5 621.5,-174.5 340.5,-174.5"/>
<text text-anchor="middle" x="481" y="-182.5" font-family="Helvetica,sans-Serif" font-size="10.00">/home/vilon_tao/gaia/sdk/include/gaia/core/Instrumentation.h</text>
</g>
<!-- Node2 -->
<g id="node3" class="node"><title>Node2</title>
<a xlink:href="../../d0/d54/_instrumentation_test_case_8h.html" target="_top" xlink:title="/home/vilon_tao/gaia/sdk/include/gaia/testing/InstrumentationTestCase.h">
<polygon fill="white" stroke="black" points="314,-116.5 314,-137.5 648,-137.5 648,-116.5 314,-116.5"/>
<text text-anchor="middle" x="481" y="-124.5" font-family="Helvetica,sans-Serif" font-size="10.00">/home/vilon_tao/gaia/sdk/include/gaia/testing/InstrumentationTestCase.h</text>
</a>
</g>
<!-- Node1&#45;&gt;Node2 -->
<g id="edge2" class="edge"><title>Node1&#45;&gt;Node2</title>
<path fill="none" stroke="midnightblue" d="M481,-164.191C481,-155.168 481,-144.994 481,-137.571"/>
<polygon fill="midnightblue" stroke="midnightblue" points="477.5,-164.362 481,-174.362 484.5,-164.362 477.5,-164.362"/>
</g>
<!-- Node4 -->
<g id="node7" class="node"><title>Node4</title>
<a xlink:href="../../d2/d74/_page_instrumentation_test_case_8h.html" target="_top" xlink:title="/home/vilon_tao/gaia/sdk/include/gaia/testing/PageInstrumentationTestCase.h">
<polygon fill="white" stroke="black" points="0,-0.5 0,-21.5 356,-21.5 356,-0.5 0,-0.5"/>
<text text-anchor="middle" x="178" y="-8.5" font-family="Helvetica,sans-Serif" font-size="10.00">/home/vilon_tao/gaia/sdk/include/gaia/testing/PageInstrumentationTestCase.h</text>
</a>
</g>
<!-- Node1&#45;&gt;Node4 -->
<g id="edge16" class="edge"><title>Node1&#45;&gt;Node4</title>
<path fill="none" stroke="midnightblue" d="M348.964,-173.357C226.662,-159.5 57.7082,-131.47 17,-80 -8.08983,-48.2771 36.3462,-30.8923 84.8384,-21.5098"/>
<polygon fill="midnightblue" stroke="midnightblue" points="348.838,-176.864 359.164,-174.492 349.613,-169.907 348.838,-176.864"/>
</g>
<!-- Node5 -->
<g id="node9" class="node"><title>Node5</title>
<a xlink:href="../../db/deb/_page_unit_test_case_8h.html" target="_top" xlink:title="/home/vilon_tao/gaia/sdk/include/gaia/testing/PageUnitTestCase.h">
<polygon fill="white" stroke="black" points="466.5,-0.5 466.5,-21.5 773.5,-21.5 773.5,-0.5 466.5,-0.5"/>
<text text-anchor="middle" x="620" y="-8.5" font-family="Helvetica,sans-Serif" font-size="10.00">/home/vilon_tao/gaia/sdk/include/gaia/testing/PageUnitTestCase.h</text>
</a>
</g>
<!-- Node1&#45;&gt;Node5 -->
<g id="edge18" class="edge"><title>Node1&#45;&gt;Node5</title>
<path fill="none" stroke="midnightblue" d="M550.486,-172.423C592.212,-163.746 640.343,-151.393 657,-138 686.594,-114.205 704.52,-91.6903 687,-58 678.281,-41.2341 660.538,-29.2031 645.5,-21.5125"/>
<polygon fill="midnightblue" stroke="midnightblue" points="549.694,-169.012 540.594,-174.437 551.091,-175.871 549.694,-169.012"/>
</g>
<!-- Node6 -->
<g id="node11" class="node"><title>Node6</title>
<a xlink:href="../../d2/dc6/_single_launch_page_test_case_8h.html" target="_top" xlink:title="/home/vilon_tao/gaia/sdk/include/gaia/testing/SingleLaunchPageTestCase.h">
<polygon fill="white" stroke="black" points="25.5,-58.5 25.5,-79.5 372.5,-79.5 372.5,-58.5 25.5,-58.5"/>
<text text-anchor="middle" x="199" y="-66.5" font-family="Helvetica,sans-Serif" font-size="10.00">/home/vilon_tao/gaia/sdk/include/gaia/testing/SingleLaunchPageTestCase.h</text>
</a>
</g>
<!-- Node1&#45;&gt;Node6 -->
<g id="edge20" class="edge"><title>Node1&#45;&gt;Node6</title>
<path fill="none" stroke="midnightblue" d="M413.417,-172.214C379.944,-164.577 339.429,-153.334 305,-138 269.095,-122.009 231.577,-94.6458 212.255,-79.6319"/>
<polygon fill="midnightblue" stroke="midnightblue" points="413.044,-175.716 423.565,-174.469 414.562,-168.883 413.044,-175.716"/>
</g>
<!-- Node7 -->
<g id="node13" class="node"><title>Node7</title>
<a xlink:href="../../d6/d7d/_instrumentation_test_runner_8h.html" target="_top" xlink:title="/home/vilon_tao/gaia/sdk/include/gaia/testing/InstrumentationTestRunner.h">
<polygon fill="white" stroke="black" points="739,-116.5 739,-137.5 1081,-137.5 1081,-116.5 739,-116.5"/>
<text text-anchor="middle" x="910" y="-124.5" font-family="Helvetica,sans-Serif" font-size="10.00">/home/vilon_tao/gaia/sdk/include/gaia/testing/InstrumentationTestRunner.h</text>
</a>
</g>
<!-- Node1&#45;&gt;Node7 -->
<g id="edge12" class="edge"><title>Node1&#45;&gt;Node7</title>
<path fill="none" stroke="midnightblue" d="M568.9,-173.116C646.297,-162.652 757.939,-147.558 832.166,-137.523"/>
<polygon fill="midnightblue" stroke="midnightblue" points="568.13,-169.688 558.689,-174.497 569.067,-176.625 568.13,-169.688"/>
</g>
<!-- Node3 -->
<g id="node5" class="node"><title>Node3</title>
<a xlink:href="../../d5/db9/_page_test_case_8h.html" target="_top" xlink:title="/home/vilon_tao/gaia/sdk/include/gaia/testing/PageTestCase.h">
<polygon fill="white" stroke="black" points="389.5,-58.5 389.5,-79.5 678.5,-79.5 678.5,-58.5 389.5,-58.5"/>
<text text-anchor="middle" x="534" y="-66.5" font-family="Helvetica,sans-Serif" font-size="10.00">/home/vilon_tao/gaia/sdk/include/gaia/testing/PageTestCase.h</text>
</a>
</g>
<!-- Node2&#45;&gt;Node3 -->
<g id="edge4" class="edge"><title>Node2&#45;&gt;Node3</title>
<path fill="none" stroke="midnightblue" d="M497.604,-108.83C506.396,-99.2078 516.886,-87.7282 524.341,-79.5707"/>
<polygon fill="midnightblue" stroke="midnightblue" points="494.883,-106.619 490.721,-116.362 500.051,-111.341 494.883,-106.619"/>
</g>
<!-- Node2&#45;&gt;Node6 -->
<g id="edge10" class="edge"><title>Node2&#45;&gt;Node6</title>
<path fill="none" stroke="midnightblue" d="M420.077,-114.47C369.358,-104.038 297.96,-89.3535 250.164,-79.5231"/>
<polygon fill="midnightblue" stroke="midnightblue" points="419.432,-117.91 429.932,-116.497 420.842,-111.054 419.432,-117.91"/>
</g>
<!-- Node3&#45;&gt;Node4 -->
<g id="edge6" class="edge"><title>Node3&#45;&gt;Node4</title>
<path fill="none" stroke="midnightblue" d="M459.479,-56.8589C395.32,-46.4061 303.683,-31.4764 242.59,-21.5231"/>
<polygon fill="midnightblue" stroke="midnightblue" points="459.098,-60.343 469.531,-58.4966 460.224,-53.4341 459.098,-60.343"/>
</g>
<!-- Node3&#45;&gt;Node5 -->
<g id="edge8" class="edge"><title>Node3&#45;&gt;Node5</title>
<path fill="none" stroke="midnightblue" d="M558.405,-52.5407C573.149,-42.5973 591.505,-30.2177 604.326,-21.5707"/>
<polygon fill="midnightblue" stroke="midnightblue" points="556.107,-49.8687 549.774,-58.3619 560.021,-55.6722 556.107,-49.8687"/>
</g>
<!-- Node8 -->
<g id="node15" class="node"><title>Node8</title>
<a xlink:href="../../dd/db1/_instrumentation_core_test_runner_8h.html" target="_top" xlink:title="/home/vilon_tao/gaia/sdk/include/gaia/testing/InstrumentationCoreTestRunner.h">
<polygon fill="white" stroke="black" points="733.5,-58.5 733.5,-79.5 1096.5,-79.5 1096.5,-58.5 733.5,-58.5"/>
<text text-anchor="middle" x="915" y="-66.5" font-family="Helvetica,sans-Serif" font-size="10.00">/home/vilon_tao/gaia/sdk/include/gaia/testing/InstrumentationCoreTestRunner.h</text>
</a>
</g>
<!-- Node7&#45;&gt;Node8 -->
<g id="edge14" class="edge"><title>Node7&#45;&gt;Node8</title>
<path fill="none" stroke="midnightblue" d="M911.794,-106.191C912.572,-97.1684 913.449,-86.9941 914.089,-79.5707"/>
<polygon fill="midnightblue" stroke="midnightblue" points="908.289,-106.098 910.917,-116.362 915.263,-106.699 908.289,-106.098"/>
</g>
</g>
</svg>
