<?xml version="1.0" encoding="UTF-8" standalone="no"?>
<!DOCTYPE svg PUBLIC "-//W3C//DTD SVG 1.1//EN"
 "http://www.w3.org/Graphics/SVG/1.1/DTD/svg11.dtd">
<!-- Generated by graphviz version 2.26.3 (20100126.1600)
 -->
<!-- Title: G Pages: 1 -->
<svg width="2905pt" height="378pt"
 viewBox="0.00 0.00 2905.44 378.00" xmlns="http://www.w3.org/2000/svg" xmlns:xlink="http://www.w3.org/1999/xlink">
<g id="graph1" class="graph" transform="scale(1 1) rotate(0) translate(4 374)">
<title>G</title>
<polygon fill="white" stroke="white" points="-4,5 -4,-374 2902.44,-374 2902.44,5 -4,5"/>
<!-- Node1 -->
<g id="node1" class="node"><title>Node1</title>
<polygon fill="#bfbfbf" stroke="black" points="519,-348.5 519,-369.5 773,-369.5 773,-348.5 519,-348.5"/>
<text text-anchor="middle" x="646" y="-356.5" font-family="Helvetica,sans-Serif" font-size="10.00">/home/vilon_tao/gaia/sdk/include/gaia/graphics/Paint.h</text>
</g>
<!-- Node2 -->
<g id="node3" class="node"><title>Node2</title>
<a xlink:href="../../dd/d32/_dynamic_drawer_span_8h.html" target="_top" xlink:title="/home/vilon_tao/gaia/sdk/include/gaia/text/style/DynamicDrawerSpan.h">
<polygon fill="white" stroke="black" points="1321,-58.5 1321,-79.5 1649,-79.5 1649,-58.5 1321,-58.5"/>
<text text-anchor="middle" x="1485" y="-66.5" font-family="Helvetica,sans-Serif" font-size="10.00">/home/vilon_tao/gaia/sdk/include/gaia/text/style/DynamicDrawerSpan.h</text>
</a>
</g>
<!-- Node1&#45;&gt;Node2 -->
<g id="edge2" class="edge"><title>Node1&#45;&gt;Node2</title>
<path fill="none" stroke="midnightblue" d="M783.089,-355.258C1259.31,-341.814 2813,-294.042 2813,-243 2813,-243 2813,-243 2813,-185 2813,-157.938 3127.79,-195.018 2535,-116 2368.88,-93.8561 1900.56,-79.2921 1649.24,-72.8312"/>
<polygon fill="midnightblue" stroke="midnightblue" points="782.964,-351.76 773.067,-355.54 783.161,-358.757 782.964,-351.76"/>
</g>
<!-- Node4 -->
<g id="node7" class="node"><title>Node4</title>
<a xlink:href="../../d7/d25/_replacement_span_8h.html" target="_top" xlink:title="/home/vilon_tao/gaia/sdk/include/gaia/text/style/ReplacementSpan.h">
<polygon fill="white" stroke="black" points="-0.5,-116.5 -0.5,-137.5 314.5,-137.5 314.5,-116.5 -0.5,-116.5"/>
<text text-anchor="middle" x="157" y="-124.5" font-family="Helvetica,sans-Serif" font-size="10.00">/home/vilon_tao/gaia/sdk/include/gaia/text/style/ReplacementSpan.h</text>
</a>
</g>
<!-- Node1&#45;&gt;Node4 -->
<g id="edge6" class="edge"><title>Node1&#45;&gt;Node4</title>
<path fill="none" stroke="midnightblue" d="M568.344,-346.803C460.466,-328.74 272.067,-292.808 215,-254 174.312,-226.33 161.682,-162.685 158.197,-137.518"/>
<polygon fill="midnightblue" stroke="midnightblue" points="568.087,-350.308 578.526,-348.495 569.235,-343.403 568.087,-350.308"/>
</g>
<!-- Node5 -->
<g id="node10" class="node"><title>Node5</title>
<a xlink:href="../../d5/d4f/_text_paint_8h.html" target="_top" xlink:title="/home/vilon_tao/gaia/sdk/include/gaia/text/TextPaint.h">
<polygon fill="white" stroke="black" points="519.5,-290.5 519.5,-311.5 772.5,-311.5 772.5,-290.5 519.5,-290.5"/>
<text text-anchor="middle" x="646" y="-298.5" font-family="Helvetica,sans-Serif" font-size="10.00">/home/vilon_tao/gaia/sdk/include/gaia/text/TextPaint.h</text>
</a>
</g>
<!-- Node1&#45;&gt;Node5 -->
<g id="edge10" class="edge"><title>Node1&#45;&gt;Node5</title>
<path fill="none" stroke="midnightblue" d="M646,-338.191C646,-329.168 646,-318.994 646,-311.571"/>
<polygon fill="midnightblue" stroke="midnightblue" points="642.5,-338.362 646,-348.362 649.5,-338.362 642.5,-338.362"/>
</g>
<!-- Node3 -->
<g id="node5" class="node"><title>Node3</title>
<a xlink:href="../../da/d07/_image_span_8h.html" target="_top" xlink:title="/home/vilon_tao/gaia/sdk/include/gaia/text/style/ImageSpan.h">
<polygon fill="white" stroke="black" points="1343,-0.5 1343,-21.5 1627,-21.5 1627,-0.5 1343,-0.5"/>
<text text-anchor="middle" x="1485" y="-8.5" font-family="Helvetica,sans-Serif" font-size="10.00">/home/vilon_tao/gaia/sdk/include/gaia/text/style/ImageSpan.h</text>
</a>
</g>
<!-- Node2&#45;&gt;Node3 -->
<g id="edge4" class="edge"><title>Node2&#45;&gt;Node3</title>
<path fill="none" stroke="midnightblue" d="M1485,-48.1906C1485,-39.1684 1485,-28.9941 1485,-21.5707"/>
<polygon fill="midnightblue" stroke="midnightblue" points="1481.5,-48.3619 1485,-58.3619 1488.5,-48.3619 1481.5,-48.3619"/>
</g>
<!-- Node4&#45;&gt;Node2 -->
<g id="edge8" class="edge"><title>Node4&#45;&gt;Node2</title>
<path fill="none" stroke="midnightblue" d="M323.996,-115.959C686.321,-96.7495 1097.86,-81.8192 1320.89,-74.3065"/>
<polygon fill="midnightblue" stroke="midnightblue" points="323.63,-112.473 313.83,-116.5 324.002,-119.463 323.63,-112.473"/>
</g>
<!-- Node5&#45;&gt;Node4 -->
<g id="edge52" class="edge"><title>Node5&#45;&gt;Node4</title>
<path fill="none" stroke="midnightblue" d="M509.196,-296.997C410.613,-291.9 287.578,-280.317 244,-254 197.787,-226.092 170.336,-163.153 160.811,-137.843"/>
<polygon fill="midnightblue" stroke="midnightblue" points="509.101,-300.496 519.263,-297.499 509.45,-293.505 509.101,-300.496"/>
</g>
<!-- Node6 -->
<g id="node12" class="node"><title>Node6</title>
<a xlink:href="../../d1/dc1/_dynamic_layout_8h.html" target="_top" xlink:title="/home/vilon_tao/gaia/sdk/include/gaia/text/DynamicLayout.h">
<polygon fill="white" stroke="black" points="506.5,-174.5 506.5,-195.5 785.5,-195.5 785.5,-174.5 506.5,-174.5"/>
<text text-anchor="middle" x="646" y="-182.5" font-family="Helvetica,sans-Serif" font-size="10.00">/home/vilon_tao/gaia/sdk/include/gaia/text/DynamicLayout.h</text>
</a>
</g>
<!-- Node5&#45;&gt;Node6 -->
<g id="edge12" class="edge"><title>Node5&#45;&gt;Node6</title>
<path fill="none" stroke="midnightblue" d="M703.339,-287.917C735.332,-279.329 770.599,-267.26 780,-254 801.718,-223.368 756.983,-205.397 713.472,-195.517"/>
<polygon fill="midnightblue" stroke="midnightblue" points="702.342,-284.559 693.547,-290.467 704.107,-291.333 702.342,-284.559"/>
</g>
<!-- Node7 -->
<g id="node14" class="node"><title>Node7</title>
<a xlink:href="../../d6/d48/_layout_8h.html" target="_top" xlink:title="/home/vilon_tao/gaia/sdk/include/gaia/text/Layout.h">
<polygon fill="white" stroke="black" points="263,-232.5 263,-253.5 503,-253.5 503,-232.5 263,-232.5"/>
<text text-anchor="middle" x="383" y="-240.5" font-family="Helvetica,sans-Serif" font-size="10.00">/home/vilon_tao/gaia/sdk/include/gaia/text/Layout.h</text>
</a>
</g>
<!-- Node5&#45;&gt;Node7 -->
<g id="edge14" class="edge"><title>Node5&#45;&gt;Node7</title>
<path fill="none" stroke="midnightblue" d="M588.589,-288.339C541.326,-277.916 475.107,-263.313 430.717,-253.523"/>
<polygon fill="midnightblue" stroke="midnightblue" points="587.854,-291.761 598.373,-290.497 589.361,-284.925 587.854,-291.761"/>
</g>
<!-- Node8 -->
<g id="node17" class="node"><title>Node8</title>
<a xlink:href="../../df/d0d/_static_layout_8h.html" target="_top" xlink:title="/home/vilon_tao/gaia/sdk/include/gaia/text/StaticLayout.h">
<polygon fill="white" stroke="black" points="223,-174.5 223,-195.5 489,-195.5 489,-174.5 223,-174.5"/>
<text text-anchor="middle" x="356" y="-182.5" font-family="Helvetica,sans-Serif" font-size="10.00">/home/vilon_tao/gaia/sdk/include/gaia/text/StaticLayout.h</text>
</a>
</g>
<!-- Node5&#45;&gt;Node8 -->
<g id="edge20" class="edge"><title>Node5&#45;&gt;Node8</title>
<path fill="none" stroke="midnightblue" d="M509.139,-293.411C402.984,-286.085 271.077,-273.247 254,-254 231.013,-228.093 277.965,-207.343 315.545,-195.598"/>
<polygon fill="midnightblue" stroke="midnightblue" points="509.113,-296.917 519.327,-294.103 509.587,-289.933 509.113,-296.917"/>
</g>
<!-- Node9 -->
<g id="node20" class="node"><title>Node9</title>
<a xlink:href="../../d5/dc5/_character_style_8h.html" target="_top" xlink:title="/home/vilon_tao/gaia/sdk/include/gaia/text/style/CharacterStyle.h">
<polygon fill="white" stroke="black" points="1507,-232.5 1507,-253.5 1807,-253.5 1807,-232.5 1507,-232.5"/>
<text text-anchor="middle" x="1657" y="-240.5" font-family="Helvetica,sans-Serif" font-size="10.00">/home/vilon_tao/gaia/sdk/include/gaia/text/style/CharacterStyle.h</text>
</a>
</g>
<!-- Node5&#45;&gt;Node9 -->
<g id="edge22" class="edge"><title>Node5&#45;&gt;Node9</title>
<path fill="none" stroke="midnightblue" d="M782.5,-293.169C971.349,-282.335 1311.13,-262.842 1506.92,-251.61"/>
<polygon fill="midnightblue" stroke="midnightblue" points="782.293,-289.675 772.51,-293.742 782.694,-296.664 782.293,-289.675"/>
</g>
<!-- Node21 -->
<g id="node45" class="node"><title>Node21</title>
<a xlink:href="../../dd/df5/_strikethrough_span_8h.html" target="_top" xlink:title="/home/vilon_tao/gaia/sdk/include/gaia/text/style/StrikethroughSpan.h">
<polygon fill="white" stroke="black" points="2470.5,-174.5 2470.5,-195.5 2785.5,-195.5 2785.5,-174.5 2470.5,-174.5"/>
<text text-anchor="middle" x="2628" y="-182.5" font-family="Helvetica,sans-Serif" font-size="10.00">/home/vilon_tao/gaia/sdk/include/gaia/text/style/StrikethroughSpan.h</text>
</a>
</g>
<!-- Node5&#45;&gt;Node21 -->
<g id="edge54" class="edge"><title>Node5&#45;&gt;Node21</title>
<path fill="none" stroke="midnightblue" d="M783.157,-297.474C1001.8,-291.407 1442.77,-277.343 1816,-254 2069.64,-238.137 2367.11,-210.564 2522.03,-195.524"/>
<polygon fill="midnightblue" stroke="midnightblue" points="782.814,-293.982 772.915,-297.757 783.007,-300.98 782.814,-293.982"/>
</g>
<!-- Node23 -->
<g id="node51" class="node"><title>Node23</title>
<a xlink:href="../../d5/d6d/_text_utils_8h.html" target="_top" xlink:title="/home/vilon_tao/gaia/sdk/include/gaia/text/TextUtils.h">
<polygon fill="white" stroke="black" points="520.5,-232.5 520.5,-253.5 771.5,-253.5 771.5,-232.5 520.5,-232.5"/>
<text text-anchor="middle" x="646" y="-240.5" font-family="Helvetica,sans-Serif" font-size="10.00">/home/vilon_tao/gaia/sdk/include/gaia/text/TextUtils.h</text>
</a>
</g>
<!-- Node5&#45;&gt;Node23 -->
<g id="edge56" class="edge"><title>Node5&#45;&gt;Node23</title>
<path fill="none" stroke="midnightblue" d="M646,-280.191C646,-271.168 646,-260.994 646,-253.571"/>
<polygon fill="midnightblue" stroke="midnightblue" points="642.5,-280.362 646,-290.362 649.5,-280.362 642.5,-280.362"/>
</g>
<!-- Node7&#45;&gt;Node6 -->
<g id="edge16" class="edge"><title>Node7&#45;&gt;Node6</title>
<path fill="none" stroke="midnightblue" d="M440.411,-230.339C487.674,-219.916 553.893,-205.313 598.283,-195.523"/>
<polygon fill="midnightblue" stroke="midnightblue" points="439.639,-226.925 430.627,-232.497 441.146,-233.761 439.639,-226.925"/>
</g>
<!-- Node7&#45;&gt;Node8 -->
<g id="edge18" class="edge"><title>Node7&#45;&gt;Node8</title>
<path fill="none" stroke="midnightblue" d="M373.726,-223.079C369.427,-213.842 364.49,-203.239 360.921,-195.571"/>
<polygon fill="midnightblue" stroke="midnightblue" points="370.654,-224.773 378.048,-232.362 377,-221.819 370.654,-224.773"/>
</g>
<!-- Node10 -->
<g id="node22" class="node"><title>Node10</title>
<a xlink:href="../../d6/da2/_background_color_span_8h.html" target="_top" xlink:title="/home/vilon_tao/gaia/sdk/include/gaia/text/style/BackgroundColorSpan.h">
<polygon fill="white" stroke="black" points="1143,-174.5 1143,-195.5 1475,-195.5 1475,-174.5 1143,-174.5"/>
<text text-anchor="middle" x="1309" y="-182.5" font-family="Helvetica,sans-Serif" font-size="10.00">/home/vilon_tao/gaia/sdk/include/gaia/text/style/BackgroundColorSpan.h</text>
</a>
</g>
<!-- Node9&#45;&gt;Node10 -->
<g id="edge24" class="edge"><title>Node9&#45;&gt;Node10</title>
<path fill="none" stroke="midnightblue" d="M1583.77,-230.794C1521.07,-220.345 1431.74,-205.456 1372.14,-195.523"/>
<polygon fill="midnightblue" stroke="midnightblue" points="1583.54,-234.305 1593.98,-232.497 1584.69,-227.4 1583.54,-234.305"/>
</g>
<!-- Node11 -->
<g id="node24" class="node"><title>Node11</title>
<a xlink:href="../../d9/d43/_clickable_span_8h.html" target="_top" xlink:title="/home/vilon_tao/gaia/sdk/include/gaia/text/style/ClickableSpan.h">
<polygon fill="white" stroke="black" points="2155,-174.5 2155,-195.5 2453,-195.5 2453,-174.5 2155,-174.5"/>
<text text-anchor="middle" x="2304" y="-182.5" font-family="Helvetica,sans-Serif" font-size="10.00">/home/vilon_tao/gaia/sdk/include/gaia/text/style/ClickableSpan.h</text>
</a>
</g>
<!-- Node9&#45;&gt;Node11 -->
<g id="edge26" class="edge"><title>Node9&#45;&gt;Node11</title>
<path fill="none" stroke="midnightblue" d="M1784.24,-231.593C1901.13,-221.115 2072.95,-205.712 2186.61,-195.523"/>
<polygon fill="midnightblue" stroke="midnightblue" points="1783.81,-228.118 1774.17,-232.497 1784.44,-235.09 1783.81,-228.118"/>
</g>
<!-- Node13 -->
<g id="node28" class="node"><title>Node13</title>
<a xlink:href="../../d0/dbb/_foreground_color_span_8h.html" target="_top" xlink:title="/home/vilon_tao/gaia/sdk/include/gaia/text/style/ForegroundColorSpan.h">
<polygon fill="white" stroke="black" points="1492.5,-174.5 1492.5,-195.5 1821.5,-195.5 1821.5,-174.5 1492.5,-174.5"/>
<text text-anchor="middle" x="1657" y="-182.5" font-family="Helvetica,sans-Serif" font-size="10.00">/home/vilon_tao/gaia/sdk/include/gaia/text/style/ForegroundColorSpan.h</text>
</a>
</g>
<!-- Node9&#45;&gt;Node13 -->
<g id="edge30" class="edge"><title>Node9&#45;&gt;Node13</title>
<path fill="none" stroke="midnightblue" d="M1657,-222.191C1657,-213.168 1657,-202.994 1657,-195.571"/>
<polygon fill="midnightblue" stroke="midnightblue" points="1653.5,-222.362 1657,-232.362 1660.5,-222.362 1653.5,-222.362"/>
</g>
<!-- Node14 -->
<g id="node30" class="node"><title>Node14</title>
<a xlink:href="../../d6/d5c/_metric_affecting_span_8h.html" target="_top" xlink:title="/home/vilon_tao/gaia/sdk/include/gaia/text/style/MetricAffectingSpan.h">
<polygon fill="white" stroke="black" points="802.5,-174.5 802.5,-195.5 1125.5,-195.5 1125.5,-174.5 802.5,-174.5"/>
<text text-anchor="middle" x="964" y="-182.5" font-family="Helvetica,sans-Serif" font-size="10.00">/home/vilon_tao/gaia/sdk/include/gaia/text/style/MetricAffectingSpan.h</text>
</a>
</g>
<!-- Node9&#45;&gt;Node14 -->
<g id="edge32" class="edge"><title>Node9&#45;&gt;Node14</title>
<path fill="none" stroke="midnightblue" d="M1521.46,-231.656C1396.26,-221.177 1211.72,-205.732 1089.73,-195.523"/>
<polygon fill="midnightblue" stroke="midnightblue" points="1521.25,-235.15 1531.5,-232.497 1521.83,-228.175 1521.25,-235.15"/>
</g>
<!-- Node9&#45;&gt;Node21 -->
<g id="edge48" class="edge"><title>Node9&#45;&gt;Node21</title>
<path fill="none" stroke="midnightblue" d="M1817.32,-234.011C1979.8,-224.814 2238.41,-209.935 2462,-196 2464.74,-195.829 2467.5,-195.656 2470.29,-195.481"/>
<polygon fill="midnightblue" stroke="midnightblue" points="1817.03,-230.522 1807.24,-234.581 1817.42,-237.511 1817.03,-230.522"/>
</g>
<!-- Node22 -->
<g id="node47" class="node"><title>Node22</title>
<a xlink:href="../../d9/d28/_underline_span_8h.html" target="_top" xlink:title="/home/vilon_tao/gaia/sdk/include/gaia/text/style/UnderlineSpan.h">
<polygon fill="white" stroke="black" points="1838.5,-174.5 1838.5,-195.5 2137.5,-195.5 2137.5,-174.5 1838.5,-174.5"/>
<text text-anchor="middle" x="1988" y="-182.5" font-family="Helvetica,sans-Serif" font-size="10.00">/home/vilon_tao/gaia/sdk/include/gaia/text/style/UnderlineSpan.h</text>
</a>
</g>
<!-- Node9&#45;&gt;Node22 -->
<g id="edge50" class="edge"><title>Node9&#45;&gt;Node22</title>
<path fill="none" stroke="midnightblue" d="M1727.03,-230.73C1786.64,-220.283 1871.38,-205.435 1927.95,-195.523"/>
<polygon fill="midnightblue" stroke="midnightblue" points="1726.19,-227.323 1716.94,-232.497 1727.4,-234.218 1726.19,-227.323"/>
</g>
<!-- Node12 -->
<g id="node26" class="node"><title>Node12</title>
<a xlink:href="../../d3/d8d/_u_r_l_span_8h.html" target="_top" xlink:title="/home/vilon_tao/gaia/sdk/include/gaia/text/style/URLSpan.h">
<polygon fill="white" stroke="black" points="2248,-116.5 2248,-137.5 2526,-137.5 2526,-116.5 2248,-116.5"/>
<text text-anchor="middle" x="2387" y="-124.5" font-family="Helvetica,sans-Serif" font-size="10.00">/home/vilon_tao/gaia/sdk/include/gaia/text/style/URLSpan.h</text>
</a>
</g>
<!-- Node11&#45;&gt;Node12 -->
<g id="edge28" class="edge"><title>Node11&#45;&gt;Node12</title>
<path fill="none" stroke="midnightblue" d="M2327.55,-168.541C2341.78,-158.597 2359.5,-146.218 2371.87,-137.571"/>
<polygon fill="midnightblue" stroke="midnightblue" points="2325.42,-165.765 2319.22,-174.362 2329.43,-171.503 2325.42,-165.765"/>
</g>
<!-- Node14&#45;&gt;Node4 -->
<g id="edge38" class="edge"><title>Node14&#45;&gt;Node4</title>
<path fill="none" stroke="midnightblue" d="M807.482,-173.751C661.658,-163.27 445.894,-147.763 303.416,-137.523"/>
<polygon fill="midnightblue" stroke="midnightblue" points="807.633,-177.271 817.858,-174.497 808.135,-170.289 807.633,-177.271"/>
</g>
<!-- Node15 -->
<g id="node32" class="node"><title>Node15</title>
<a xlink:href="../../dc/dd0/_absolute_size_span_8h.html" target="_top" xlink:title="/home/vilon_tao/gaia/sdk/include/gaia/text/style/AbsoluteSizeSpan.h">
<polygon fill="white" stroke="black" points="1915.5,-116.5 1915.5,-137.5 2230.5,-137.5 2230.5,-116.5 1915.5,-116.5"/>
<text text-anchor="middle" x="2073" y="-124.5" font-family="Helvetica,sans-Serif" font-size="10.00">/home/vilon_tao/gaia/sdk/include/gaia/text/style/AbsoluteSizeSpan.h</text>
</a>
</g>
<!-- Node14&#45;&gt;Node15 -->
<g id="edge34" class="edge"><title>Node14&#45;&gt;Node15</title>
<path fill="none" stroke="midnightblue" d="M1135.75,-173.911C1479.11,-154.942 1566.97,-157.182 1907,-138 1909.88,-137.837 1912.8,-137.671 1915.73,-137.5"/>
<polygon fill="midnightblue" stroke="midnightblue" points="1135.3,-170.43 1125.51,-174.478 1135.69,-177.419 1135.3,-170.43"/>
</g>
<!-- Node16 -->
<g id="node34" class="node"><title>Node16</title>
<a xlink:href="../../d5/de5/_relative_size_span_8h.html" target="_top" xlink:title="/home/vilon_tao/gaia/sdk/include/gaia/text/style/RelativeSizeSpan.h">
<polygon fill="white" stroke="black" points="331.5,-116.5 331.5,-137.5 644.5,-137.5 644.5,-116.5 331.5,-116.5"/>
<text text-anchor="middle" x="488" y="-124.5" font-family="Helvetica,sans-Serif" font-size="10.00">/home/vilon_tao/gaia/sdk/include/gaia/text/style/RelativeSizeSpan.h</text>
</a>
</g>
<!-- Node14&#45;&gt;Node16 -->
<g id="edge36" class="edge"><title>Node14&#45;&gt;Node16</title>
<path fill="none" stroke="midnightblue" d="M867.781,-173.276C781.859,-162.806 657.14,-147.61 574.362,-137.523"/>
<polygon fill="midnightblue" stroke="midnightblue" points="867.45,-176.761 877.8,-174.497 868.297,-169.813 867.45,-176.761"/>
</g>
<!-- Node17 -->
<g id="node37" class="node"><title>Node17</title>
<a xlink:href="../../d2/def/_style_span_8h.html" target="_top" xlink:title="/home/vilon_tao/gaia/sdk/include/gaia/text/style/StyleSpan.h">
<polygon fill="white" stroke="black" points="662,-116.5 662,-137.5 942,-137.5 942,-116.5 662,-116.5"/>
<text text-anchor="middle" x="802" y="-124.5" font-family="Helvetica,sans-Serif" font-size="10.00">/home/vilon_tao/gaia/sdk/include/gaia/text/style/StyleSpan.h</text>
</a>
</g>
<!-- Node14&#45;&gt;Node17 -->
<g id="edge40" class="edge"><title>Node14&#45;&gt;Node17</title>
<path fill="none" stroke="midnightblue" d="M924.923,-171.009C896.134,-160.702 857.591,-146.903 831.392,-137.523"/>
<polygon fill="midnightblue" stroke="midnightblue" points="924.068,-174.421 934.663,-174.497 926.428,-167.831 924.068,-174.421"/>
</g>
<!-- Node18 -->
<g id="node39" class="node"><title>Node18</title>
<a xlink:href="../../d2/d7b/_subscript_span_8h.html" target="_top" xlink:title="/home/vilon_tao/gaia/sdk/include/gaia/text/style/SubscriptSpan.h">
<polygon fill="white" stroke="black" points="959.5,-116.5 959.5,-137.5 1258.5,-137.5 1258.5,-116.5 959.5,-116.5"/>
<text text-anchor="middle" x="1109" y="-124.5" font-family="Helvetica,sans-Serif" font-size="10.00">/home/vilon_tao/gaia/sdk/include/gaia/text/style/SubscriptSpan.h</text>
</a>
</g>
<!-- Node14&#45;&gt;Node18 -->
<g id="edge42" class="edge"><title>Node14&#45;&gt;Node18</title>
<path fill="none" stroke="midnightblue" d="M999.623,-170.751C1025.23,-160.509 1059.2,-146.921 1082.45,-137.621"/>
<polygon fill="midnightblue" stroke="midnightblue" points="998.243,-167.533 990.258,-174.497 1000.84,-174.032 998.243,-167.533"/>
</g>
<!-- Node19 -->
<g id="node41" class="node"><title>Node19</title>
<a xlink:href="../../d4/dbd/_superscript_span_8h.html" target="_top" xlink:title="/home/vilon_tao/gaia/sdk/include/gaia/text/style/SuperscriptSpan.h">
<polygon fill="white" stroke="black" points="1275.5,-116.5 1275.5,-137.5 1582.5,-137.5 1582.5,-116.5 1275.5,-116.5"/>
<text text-anchor="middle" x="1429" y="-124.5" font-family="Helvetica,sans-Serif" font-size="10.00">/home/vilon_tao/gaia/sdk/include/gaia/text/style/SuperscriptSpan.h</text>
</a>
</g>
<!-- Node14&#45;&gt;Node19 -->
<g id="edge44" class="edge"><title>Node14&#45;&gt;Node19</title>
<path fill="none" stroke="midnightblue" d="M1058.25,-173.244C1142.18,-162.775 1263.85,-147.599 1344.63,-137.523"/>
<polygon fill="midnightblue" stroke="midnightblue" points="1057.7,-169.786 1048.21,-174.497 1058.56,-176.732 1057.7,-169.786"/>
</g>
<!-- Node20 -->
<g id="node43" class="node"><title>Node20</title>
<a xlink:href="../../da/d19/_typeface_span_8h.html" target="_top" xlink:title="/home/vilon_tao/gaia/sdk/include/gaia/text/style/TypefaceSpan.h">
<polygon fill="white" stroke="black" points="1600,-116.5 1600,-137.5 1898,-137.5 1898,-116.5 1600,-116.5"/>
<text text-anchor="middle" x="1749" y="-124.5" font-family="Helvetica,sans-Serif" font-size="10.00">/home/vilon_tao/gaia/sdk/include/gaia/text/style/TypefaceSpan.h</text>
</a>
</g>
<!-- Node14&#45;&gt;Node20 -->
<g id="edge46" class="edge"><title>Node14&#45;&gt;Node20</title>
<path fill="none" stroke="midnightblue" d="M1116.25,-173.751C1258.1,-163.27 1467.98,-147.763 1606.58,-137.523"/>
<polygon fill="midnightblue" stroke="midnightblue" points="1115.87,-170.269 1106.16,-174.497 1116.39,-177.25 1115.87,-170.269"/>
</g>
<!-- Node23&#45;&gt;Node6 -->
<g id="edge58" class="edge"><title>Node23&#45;&gt;Node6</title>
<path fill="none" stroke="midnightblue" d="M646,-222.191C646,-213.168 646,-202.994 646,-195.571"/>
<polygon fill="midnightblue" stroke="midnightblue" points="642.5,-222.362 646,-232.362 649.5,-222.362 642.5,-222.362"/>
</g>
<!-- Node23&#45;&gt;Node8 -->
<g id="edge60" class="edge"><title>Node23&#45;&gt;Node8</title>
<path fill="none" stroke="midnightblue" d="M583.674,-230.535C531.497,-220.099 457.87,-205.374 408.615,-195.523"/>
<polygon fill="midnightblue" stroke="midnightblue" points="582.991,-233.967 593.483,-232.497 584.364,-227.103 582.991,-233.967"/>
</g>
</g>
</svg>
