<?xml version="1.0" encoding="UTF-8" standalone="no"?>
<!DOCTYPE svg PUBLIC "-//W3C//DTD SVG 1.1//EN"
 "http://www.w3.org/Graphics/SVG/1.1/DTD/svg11.dtd">
<!-- Generated by graphviz version 2.26.3 (20100126.1600)
 -->
<!-- Title: G Pages: 1 -->
<svg width="323pt" height="378pt"
 viewBox="0.00 0.00 323.00 378.00" xmlns="http://www.w3.org/2000/svg" xmlns:xlink="http://www.w3.org/1999/xlink">
<g id="graph1" class="graph" transform="scale(1 1) rotate(0) translate(4 374)">
<title>G</title>
<polygon fill="white" stroke="white" points="-4,5 -4,-374 320,-374 320,5 -4,5"/>
<!-- Node1 -->
<g id="node1" class="node"><title>Node1</title>
<polygon fill="#bfbfbf" stroke="black" points="-0.5,-348.5 -0.5,-369.5 314.5,-369.5 314.5,-348.5 -0.5,-348.5"/>
<text text-anchor="middle" x="157" y="-356.5" font-family="Helvetica,sans-Serif" font-size="10.00">/home/vilon_tao/gaia/sdk/include/gaia/text/style/AbsoluteSizeSpan.h</text>
</g>
<!-- Node2 -->
<g id="node3" class="node"><title>Node2</title>
<a xlink:href="../../d6/d5c/_metric_affecting_span_8h.html" target="_top" xlink:title="gaia/text/style/MetricAffectingSpan.h">
<polygon fill="white" stroke="black" points="68,-290.5 68,-311.5 246,-311.5 246,-290.5 68,-290.5"/>
<text text-anchor="middle" x="157" y="-298.5" font-family="Helvetica,sans-Serif" font-size="10.00">gaia/text/style/MetricAffectingSpan.h</text>
</a>
</g>
<!-- Node1&#45;&gt;Node2 -->
<g id="edge2" class="edge"><title>Node1&#45;&gt;Node2</title>
<path fill="none" stroke="midnightblue" d="M157,-348.362C157,-340.922 157,-330.743 157,-321.728"/>
<polygon fill="midnightblue" stroke="midnightblue" points="160.5,-321.571 157,-311.571 153.5,-321.571 160.5,-321.571"/>
</g>
<!-- Node3 -->
<g id="node5" class="node"><title>Node3</title>
<a xlink:href="../../d5/dc5/_character_style_8h.html" target="_top" xlink:title="gaia/text/style/CharacterStyle.h">
<polygon fill="white" stroke="black" points="79.5,-232.5 79.5,-253.5 234.5,-253.5 234.5,-232.5 79.5,-232.5"/>
<text text-anchor="middle" x="157" y="-240.5" font-family="Helvetica,sans-Serif" font-size="10.00">gaia/text/style/CharacterStyle.h</text>
</a>
</g>
<!-- Node2&#45;&gt;Node3 -->
<g id="edge4" class="edge"><title>Node2&#45;&gt;Node3</title>
<path fill="none" stroke="midnightblue" d="M157,-290.362C157,-282.922 157,-272.743 157,-263.728"/>
<polygon fill="midnightblue" stroke="midnightblue" points="160.5,-263.571 157,-253.571 153.5,-263.571 160.5,-263.571"/>
</g>
<!-- Node4 -->
<g id="node7" class="node"><title>Node4</title>
<a xlink:href="../../d1/d81/_object_style_8h.html" target="_top" xlink:title="gaia/text/style/ObjectStyle.h">
<polygon fill="white" stroke="black" points="17,-174.5 17,-195.5 157,-195.5 157,-174.5 17,-174.5"/>
<text text-anchor="middle" x="87" y="-182.5" font-family="Helvetica,sans-Serif" font-size="10.00">gaia/text/style/ObjectStyle.h</text>
</a>
</g>
<!-- Node3&#45;&gt;Node4 -->
<g id="edge6" class="edge"><title>Node3&#45;&gt;Node4</title>
<path fill="none" stroke="midnightblue" d="M144.161,-232.362C133.998,-223.941 119.599,-212.011 107.796,-202.231"/>
<polygon fill="midnightblue" stroke="midnightblue" points="109.691,-199.256 99.7577,-195.571 105.225,-204.646 109.691,-199.256"/>
</g>
<!-- Node7 -->
<g id="node13" class="node"><title>Node7</title>
<a xlink:href="../../d5/d4f/_text_paint_8h.html" target="_top" xlink:title="gaia/text/TextPaint.h">
<polygon fill="white" stroke="black" points="174.5,-174.5 174.5,-195.5 281.5,-195.5 281.5,-174.5 174.5,-174.5"/>
<text text-anchor="middle" x="228" y="-182.5" font-family="Helvetica,sans-Serif" font-size="10.00">gaia/text/TextPaint.h</text>
</a>
</g>
<!-- Node3&#45;&gt;Node7 -->
<g id="edge12" class="edge"><title>Node3&#45;&gt;Node7</title>
<path fill="none" stroke="midnightblue" d="M170.022,-232.362C180.431,-223.859 195.219,-211.779 207.255,-201.947"/>
<polygon fill="midnightblue" stroke="midnightblue" points="209.53,-204.608 215.06,-195.571 205.101,-199.187 209.53,-204.608"/>
</g>
<!-- Node5 -->
<g id="node9" class="node"><title>Node5</title>
<polygon fill="white" stroke="#bfbfbf" points="105.5,-0.5 105.5,-21.5 154.5,-21.5 154.5,-0.5 105.5,-0.5"/>
<text text-anchor="middle" x="130" y="-8.5" font-family="Helvetica,sans-Serif" font-size="10.00">stdint.h</text>
</g>
<!-- Node4&#45;&gt;Node5 -->
<g id="edge8" class="edge"><title>Node4&#45;&gt;Node5</title>
<path fill="none" stroke="midnightblue" d="M82.0771,-174.158C76.5313,-160.496 68.9148,-136.341 74,-116 82.1256,-83.4977 102.428,-50.0401 116.219,-29.8795"/>
<polygon fill="midnightblue" stroke="midnightblue" points="119.148,-31.7987 122.03,-21.6034 113.419,-27.776 119.148,-31.7987"/>
</g>
<!-- Node6 -->
<g id="node11" class="node"><title>Node6</title>
<a xlink:href="../../d1/dd0/gmacros_8h.html" target="_top" xlink:title="gaia/base/gmacros.h">
<polygon fill="white" stroke="black" points="82.5,-116.5 82.5,-137.5 189.5,-137.5 189.5,-116.5 82.5,-116.5"/>
<text text-anchor="middle" x="136" y="-124.5" font-family="Helvetica,sans-Serif" font-size="10.00">gaia/base/gmacros.h</text>
</a>
</g>
<!-- Node4&#45;&gt;Node6 -->
<g id="edge10" class="edge"><title>Node4&#45;&gt;Node6</title>
<path fill="none" stroke="midnightblue" d="M95.9874,-174.362C102.825,-166.268 112.402,-154.932 120.472,-145.38"/>
<polygon fill="midnightblue" stroke="midnightblue" points="123.29,-147.468 127.07,-137.571 117.942,-142.951 123.29,-147.468"/>
</g>
<!-- Node7&#45;&gt;Node6 -->
<g id="edge20" class="edge"><title>Node7&#45;&gt;Node6</title>
<path fill="none" stroke="midnightblue" d="M211.126,-174.362C197.249,-165.614 177.366,-153.079 161.54,-143.101"/>
<polygon fill="midnightblue" stroke="midnightblue" points="163.093,-139.943 152.767,-137.571 159.36,-145.864 163.093,-139.943"/>
</g>
<!-- Node8 -->
<g id="node15" class="node"><title>Node8</title>
<a xlink:href="../../db/d7d/_paint_8h.html" target="_top" xlink:title="gaia/graphics/Paint.h">
<polygon fill="white" stroke="black" points="207,-116.5 207,-137.5 315,-137.5 315,-116.5 207,-116.5"/>
<text text-anchor="middle" x="261" y="-124.5" font-family="Helvetica,sans-Serif" font-size="10.00">gaia/graphics/Paint.h</text>
</a>
</g>
<!-- Node7&#45;&gt;Node8 -->
<g id="edge14" class="edge"><title>Node7&#45;&gt;Node8</title>
<path fill="none" stroke="midnightblue" d="M234.053,-174.362C238.472,-166.595 244.59,-155.843 249.879,-146.546"/>
<polygon fill="midnightblue" stroke="midnightblue" points="253.082,-147.993 254.986,-137.571 246.998,-144.531 253.082,-147.993"/>
</g>
<!-- Node9 -->
<g id="node17" class="node"><title>Node9</title>
<a xlink:href="../../d7/d97/_char_sequence_8h.html" target="_top" xlink:title="gaia/base/CharSequence.h">
<polygon fill="white" stroke="black" points="138,-58.5 138,-79.5 272,-79.5 272,-58.5 138,-58.5"/>
<text text-anchor="middle" x="205" y="-66.5" font-family="Helvetica,sans-Serif" font-size="10.00">gaia/base/CharSequence.h</text>
</a>
</g>
<!-- Node8&#45;&gt;Node9 -->
<g id="edge16" class="edge"><title>Node8&#45;&gt;Node9</title>
<path fill="none" stroke="midnightblue" d="M250.729,-116.362C242.756,-108.104 231.525,-96.4725 222.189,-86.8029"/>
<polygon fill="midnightblue" stroke="midnightblue" points="224.67,-84.3336 215.206,-79.5707 219.634,-89.1958 224.67,-84.3336"/>
</g>
<!-- Node9&#45;&gt;Node5 -->
<g id="edge18" class="edge"><title>Node9&#45;&gt;Node5</title>
<path fill="none" stroke="midnightblue" d="M191.244,-58.3619C180.249,-49.859 164.627,-37.7785 151.914,-27.9466"/>
<polygon fill="midnightblue" stroke="midnightblue" points="153.721,-24.9195 143.669,-21.5707 149.438,-30.4569 153.721,-24.9195"/>
</g>
</g>
</svg>
