<?xml version="1.0" encoding="UTF-8" standalone="no"?>
<!DOCTYPE svg PUBLIC "-//W3C//DTD SVG 1.1//EN"
 "http://www.w3.org/Graphics/SVG/1.1/DTD/svg11.dtd">
<!-- Generated by graphviz version 2.26.3 (20100126.1600)
 -->
<!-- Title: G Pages: 1 -->
<svg width="346pt" height="204pt"
 viewBox="0.00 0.00 346.00 204.00" xmlns="http://www.w3.org/2000/svg" xmlns:xlink="http://www.w3.org/1999/xlink">
<g id="graph1" class="graph" transform="scale(1 1) rotate(0) translate(4 200)">
<title>G</title>
<polygon fill="white" stroke="white" points="-4,5 -4,-200 343,-200 343,5 -4,5"/>
<!-- Node1 -->
<g id="node1" class="node"><title>Node1</title>
<polygon fill="#bfbfbf" stroke="black" points="0,-174.5 0,-195.5 338,-195.5 338,-174.5 0,-174.5"/>
<text text-anchor="middle" x="169" y="-182.5" font-family="Helvetica,sans-Serif" font-size="10.00">/home/vilon_tao/gaia/sdk/include/gaia/ui/preference/PreferenceCategory.h</text>
</g>
<!-- Node2 -->
<g id="node3" class="node"><title>Node2</title>
<a xlink:href="../../d9/dd9/_preference_group_8h.html" target="_top" xlink:title="gaia/ui/preference/PreferenceGroup.h">
<polygon fill="white" stroke="black" points="21.5,-116.5 21.5,-137.5 200.5,-137.5 200.5,-116.5 21.5,-116.5"/>
<text text-anchor="middle" x="111" y="-124.5" font-family="Helvetica,sans-Serif" font-size="10.00">gaia/ui/preference/PreferenceGroup.h</text>
</a>
</g>
<!-- Node1&#45;&gt;Node2 -->
<g id="edge2" class="edge"><title>Node1&#45;&gt;Node2</title>
<path fill="none" stroke="midnightblue" d="M158.362,-174.362C150.104,-166.104 138.472,-154.472 128.803,-144.803"/>
<polygon fill="midnightblue" stroke="midnightblue" points="131.117,-142.167 121.571,-137.571 126.167,-147.117 131.117,-142.167"/>
</g>
<!-- Node5 -->
<g id="node9" class="node"><title>Node5</title>
<a xlink:href="../../d1/dd0/gmacros_8h.html" target="_top" xlink:title="gaia/base/gmacros.h">
<polygon fill="white" stroke="black" points="136.5,-0.5 136.5,-21.5 243.5,-21.5 243.5,-0.5 136.5,-0.5"/>
<text text-anchor="middle" x="190" y="-8.5" font-family="Helvetica,sans-Serif" font-size="10.00">gaia/base/gmacros.h</text>
</a>
</g>
<!-- Node1&#45;&gt;Node5 -->
<g id="edge12" class="edge"><title>Node1&#45;&gt;Node5</title>
<path fill="none" stroke="midnightblue" d="M182.21,-174.198C191.682,-165.541 203.672,-152.48 209,-138 222.329,-101.773 208.936,-56.4549 198.871,-30.9146"/>
<polygon fill="midnightblue" stroke="midnightblue" points="202.052,-29.448 194.979,-21.5598 195.589,-32.1371 202.052,-29.448"/>
</g>
<!-- Node3 -->
<g id="node5" class="node"><title>Node3</title>
<a xlink:href="../../d4/dd7/_preference_8h.html" target="_top" xlink:title="gaia/ui/preference/Preference.h">
<polygon fill="white" stroke="black" points="10,-58.5 10,-79.5 162,-79.5 162,-58.5 10,-58.5"/>
<text text-anchor="middle" x="86" y="-66.5" font-family="Helvetica,sans-Serif" font-size="10.00">gaia/ui/preference/Preference.h</text>
</a>
</g>
<!-- Node2&#45;&gt;Node3 -->
<g id="edge4" class="edge"><title>Node2&#45;&gt;Node3</title>
<path fill="none" stroke="midnightblue" d="M106.415,-116.362C103.102,-108.677 98.5296,-98.0686 94.5517,-88.8399"/>
<polygon fill="midnightblue" stroke="midnightblue" points="97.7288,-87.3685 90.5563,-79.5707 91.3005,-90.1393 97.7288,-87.3685"/>
</g>
<!-- Node2&#45;&gt;Node5 -->
<g id="edge10" class="edge"><title>Node2&#45;&gt;Node5</title>
<path fill="none" stroke="midnightblue" d="M130.185,-116.469C143.507,-108.21 160.659,-95.5289 171,-80 180.659,-65.4958 185.437,-46.1741 187.784,-31.6668"/>
<polygon fill="midnightblue" stroke="midnightblue" points="191.263,-32.0517 189.144,-21.671 184.327,-31.1075 191.263,-32.0517"/>
</g>
<!-- Node4 -->
<g id="node7" class="node"><title>Node4</title>
<polygon fill="white" stroke="#bfbfbf" points="61.5,-0.5 61.5,-21.5 110.5,-21.5 110.5,-0.5 61.5,-0.5"/>
<text text-anchor="middle" x="86" y="-8.5" font-family="Helvetica,sans-Serif" font-size="10.00">stdint.h</text>
</g>
<!-- Node3&#45;&gt;Node4 -->
<g id="edge6" class="edge"><title>Node3&#45;&gt;Node4</title>
<path fill="none" stroke="midnightblue" d="M86,-58.3619C86,-50.9219 86,-40.7427 86,-31.7276"/>
<polygon fill="midnightblue" stroke="midnightblue" points="89.5001,-31.5706 86,-21.5707 82.5001,-31.5707 89.5001,-31.5706"/>
</g>
<!-- Node3&#45;&gt;Node5 -->
<g id="edge8" class="edge"><title>Node3&#45;&gt;Node5</title>
<path fill="none" stroke="midnightblue" d="M105.075,-58.3619C121.055,-49.4502 144.081,-36.6087 162.127,-26.5447"/>
<polygon fill="midnightblue" stroke="midnightblue" points="164.017,-29.4982 171.046,-21.5707 160.607,-23.3846 164.017,-29.4982"/>
</g>
</g>
</svg>
