<?xml version="1.0" encoding="UTF-8" standalone="no"?>
<!DOCTYPE svg PUBLIC "-//W3C//DTD SVG 1.1//EN"
 "http://www.w3.org/Graphics/SVG/1.1/DTD/svg11.dtd">
<!-- Generated by graphviz version 2.26.3 (20100126.1600)
 -->
<!-- Title: G Pages: 1 -->
<svg width="255pt" height="294pt"
 viewBox="0.00 0.00 255.00 294.00" xmlns="http://www.w3.org/2000/svg" xmlns:xlink="http://www.w3.org/1999/xlink">
<g id="graph1" class="graph" transform="scale(1 1) rotate(0) translate(4 290)">
<title>G</title>
<polygon fill="white" stroke="white" points="-4,5 -4,-290 252,-290 252,5 -4,5"/>
<!-- Node1 -->
<g id="node1" class="node"><title>Node1</title>
<polygon fill="#bfbfbf" stroke="black" points="31,-0.5 31,-21.5 159,-21.5 159,-0.5 31,-0.5"/>
<text text-anchor="middle" x="95" y="-8.5" font-family="Helvetica,sans-Serif" font-size="10.00">gaia::ui::IListItemProvider</text>
</g>
<!-- Node2 -->
<g id="node2" class="node"><title>Node2</title>
<a xlink:href="../../d3/df2/classgaia_1_1ui_1_1_i_item_provider.html" target="_top" xlink:title="An IItemProvider object acts as a bridge between an ListWidget and the underlying data for that widge...">
<polygon fill="white" stroke="black" points="38.5,-60.5 38.5,-81.5 151.5,-81.5 151.5,-60.5 38.5,-60.5"/>
<text text-anchor="middle" x="95" y="-68.5" font-family="Helvetica,sans-Serif" font-size="10.00">gaia::ui::IItemProvider</text>
</a>
</g>
<!-- Node2&#45;&gt;Node1 -->
<g id="edge2" class="edge"><title>Node2&#45;&gt;Node1</title>
<path fill="none" stroke="midnightblue" d="M95,-50.2312C95,-40.5922 95,-29.5444 95,-21.6339"/>
<polygon fill="midnightblue" stroke="midnightblue" points="91.5001,-50.2732 95,-60.2732 98.5001,-50.2732 91.5001,-50.2732"/>
</g>
<!-- Node3 -->
<g id="node4" class="node"><title>Node3</title>
<a xlink:href="../../df/d5d/classgaia_1_1base_1_1_vector.html" target="_top" xlink:title="gaia::base::Vector\&lt; RemovedObject * \&gt;">
<polygon fill="white" stroke="black" points="-0.5,-132.5 -0.5,-153.5 190.5,-153.5 190.5,-132.5 -0.5,-132.5"/>
<text text-anchor="middle" x="95" y="-140.5" font-family="Helvetica,sans-Serif" font-size="10.00">gaia::base::Vector&lt; RemovedObject * &gt;</text>
</a>
</g>
<!-- Node3&#45;&gt;Node2 -->
<g id="edge4" class="edge"><title>Node3&#45;&gt;Node2</title>
<path fill="none" stroke="#9a32cd" stroke-dasharray="5,2" d="M95,-122.235C95,-108.969 95,-92.3188 95,-81.6674"/>
<polygon fill="#9a32cd" stroke="#9a32cd" points="91.5001,-122.376 95,-132.376 98.5001,-122.376 91.5001,-122.376"/>
<text text-anchor="middle" x="120.5" y="-104.5" font-family="Helvetica,sans-Serif" font-size="10.00"> mRecycler</text>
</g>
<!-- Node4 -->
<g id="node6" class="node"><title>Node4</title>
<a xlink:href="../../d0/d21/classgaia_1_1base_1_1_vector_impl.html" target="_top" xlink:title="Implements vector data structure equipped with copy&#45;on&#45;write mechanism.">
<polygon fill="white" stroke="black" points="51.5,-264.5 51.5,-285.5 166.5,-285.5 166.5,-264.5 51.5,-264.5"/>
<text text-anchor="middle" x="109" y="-272.5" font-family="Helvetica,sans-Serif" font-size="10.00">gaia::base::VectorImpl</text>
</a>
</g>
<!-- Node4&#45;&gt;Node3 -->
<g id="edge6" class="edge"><title>Node4&#45;&gt;Node3</title>
<path fill="none" stroke="#8b1a1a" d="M103.447,-254.236C101.364,-245.572 99.2096,-235.363 98,-226 94.6561,-200.116 94.541,-169.343 94.7606,-153.533"/>
<polygon fill="#8b1a1a" stroke="#8b1a1a" points="100.124,-255.369 105.972,-264.204 106.91,-253.651 100.124,-255.369"/>
</g>
<!-- Node5 -->
<g id="node8" class="node"><title>Node5</title>
<a xlink:href="../../df/d5d/classgaia_1_1base_1_1_vector.html" target="_top" xlink:title="This class implements the vector data structure.">
<polygon fill="white" stroke="black" points="107,-204.5 107,-225.5 247,-225.5 247,-204.5 107,-204.5"/>
<text text-anchor="middle" x="177" y="-212.5" font-family="Helvetica,sans-Serif" font-size="10.00">gaia::base::Vector&lt; TYPE &gt;</text>
</a>
</g>
<!-- Node4&#45;&gt;Node5 -->
<g id="edge10" class="edge"><title>Node4&#45;&gt;Node5</title>
<path fill="none" stroke="#8b1a1a" d="M128.737,-257.585C140.451,-247.25 154.923,-234.48 164.948,-225.634"/>
<polygon fill="#8b1a1a" stroke="#8b1a1a" points="126.34,-255.033 121.157,-264.273 130.971,-260.281 126.34,-255.033"/>
</g>
<!-- Node5&#45;&gt;Node3 -->
<g id="edge8" class="edge"><title>Node5&#45;&gt;Node3</title>
<path fill="none" stroke="orange" stroke-dasharray="5,2" d="M157.329,-197.728C141.711,-184.015 120.372,-165.277 107.149,-153.667"/>
<polygon fill="orange" stroke="orange" points="155.077,-200.408 164.901,-204.376 159.696,-195.148 155.077,-200.408"/>
<text text-anchor="middle" x="192.5" y="-176.5" font-family="Helvetica,sans-Serif" font-size="10.00"> &lt; RemovedObject * &gt;</text>
</g>
</g>
</svg>
