<?xml version="1.0" encoding="UTF-8" standalone="no"?>
<!DOCTYPE svg PUBLIC "-//W3C//DTD SVG 1.1//EN"
 "http://www.w3.org/Graphics/SVG/1.1/DTD/svg11.dtd">
<!-- Generated by graphviz version 2.26.3 (20100126.1600)
 -->
<!-- Title: G Pages: 1 -->
<svg width="194pt" height="200pt"
 viewBox="0.00 0.00 194.00 200.00" xmlns="http://www.w3.org/2000/svg" xmlns:xlink="http://www.w3.org/1999/xlink">
<g id="graph1" class="graph" transform="scale(1 1) rotate(0) translate(4 196)">
<title>G</title>
<polygon fill="white" stroke="white" points="-4,5 -4,-196 191,-196 191,5 -4,5"/>
<!-- Node1 -->
<g id="node1" class="node"><title>Node1</title>
<polygon fill="#bfbfbf" stroke="black" points="0,-0.5 0,-21.5 186,-21.5 186,-0.5 0,-0.5"/>
<text text-anchor="middle" x="93" y="-8.5" font-family="Helvetica,sans-Serif" font-size="10.00">gaia::net::CookieManager::CookieData</text>
</g>
<!-- Node2 -->
<g id="node2" class="node"><title>Node2</title>
<a xlink:href="../../d2/ddb/classgaia_1_1base_1_1_string.html" target="_top" xlink:title="A String is represented by array of UTF&#45;16 values, such that Unicode supplementary characters (code p...">
<polygon fill="white" stroke="black" points="46.5,-110.5 46.5,-131.5 139.5,-131.5 139.5,-110.5 46.5,-110.5"/>
<text text-anchor="middle" x="93" y="-118.5" font-family="Helvetica,sans-Serif" font-size="10.00">gaia::base::String</text>
</a>
</g>
<!-- Node2&#45;&gt;Node1 -->
<g id="edge2" class="edge"><title>Node2&#45;&gt;Node1</title>
<path fill="none" stroke="#9a32cd" stroke-dasharray="5,2" d="M93,-100.22C93,-76.8464 93,-39.7904 93,-21.677"/>
<polygon fill="#9a32cd" stroke="#9a32cd" points="89.5001,-100.453 93,-110.453 96.5001,-100.453 89.5001,-100.453"/>
<text text-anchor="middle" x="114.5" y="-83" font-family="Helvetica,sans-Serif" font-size="10.00"> mName</text>
<text text-anchor="middle" x="114.5" y="-70" font-family="Helvetica,sans-Serif" font-size="10.00">mDomain</text>
<text text-anchor="middle" x="114.5" y="-57" font-family="Helvetica,sans-Serif" font-size="10.00">mValue</text>
<text text-anchor="middle" x="114.5" y="-44" font-family="Helvetica,sans-Serif" font-size="10.00">mPath</text>
</g>
<!-- Node3 -->
<g id="node4" class="node"><title>Node3</title>
<a xlink:href="../../d1/d0f/classgaia_1_1base_1_1_char_sequence.html" target="_top" xlink:title="This interface represents an ordered set of characters and defines the methods to probe them...">
<polygon fill="white" stroke="black" points="27,-170.5 27,-191.5 159,-191.5 159,-170.5 27,-170.5"/>
<text text-anchor="middle" x="93" y="-178.5" font-family="Helvetica,sans-Serif" font-size="10.00">gaia::base::CharSequence</text>
</a>
</g>
<!-- Node3&#45;&gt;Node2 -->
<g id="edge4" class="edge"><title>Node3&#45;&gt;Node2</title>
<path fill="none" stroke="midnightblue" d="M93,-160.231C93,-150.592 93,-139.544 93,-131.634"/>
<polygon fill="midnightblue" stroke="midnightblue" points="89.5001,-160.273 93,-170.273 96.5001,-160.273 89.5001,-160.273"/>
</g>
</g>
</svg>
