<?xml version="1.0" encoding="UTF-8" standalone="no"?>
<!DOCTYPE svg PUBLIC "-//W3C//DTD SVG 1.1//EN"
 "http://www.w3.org/Graphics/SVG/1.1/DTD/svg11.dtd">
<!-- Generated by graphviz version 2.26.3 (20100126.1600)
 -->
<!-- Title: G Pages: 1 -->
<svg width="219pt" height="234pt"
 viewBox="0.00 0.00 219.00 234.00" xmlns="http://www.w3.org/2000/svg" xmlns:xlink="http://www.w3.org/1999/xlink">
<g id="graph1" class="graph" transform="scale(1 1) rotate(0) translate(4 230)">
<title>G</title>
<polygon fill="white" stroke="white" points="-4,5 -4,-230 216,-230 216,5 -4,5"/>
<!-- Node1 -->
<g id="node1" class="node"><title>Node1</title>
<polygon fill="#bfbfbf" stroke="black" points="-0.5,-0.5 -0.5,-21.5 130.5,-21.5 130.5,-0.5 -0.5,-0.5"/>
<text text-anchor="middle" x="65" y="-8.5" font-family="Helvetica,sans-Serif" font-size="10.00">gaia::system::SensorData</text>
</g>
<!-- Node2 -->
<g id="node2" class="node"><title>Node2</title>
<a xlink:href="../../d2/db0/classgaia_1_1base_1_1_array.html" target="_top" xlink:title="gaia::base::Array\&lt; float \&gt;">
<polygon fill="white" stroke="black" points="1,-72.5 1,-93.5 129,-93.5 129,-72.5 1,-72.5"/>
<text text-anchor="middle" x="65" y="-80.5" font-family="Helvetica,sans-Serif" font-size="10.00">gaia::base::Array&lt; float &gt;</text>
</a>
</g>
<!-- Node2&#45;&gt;Node1 -->
<g id="edge2" class="edge"><title>Node2&#45;&gt;Node1</title>
<path fill="none" stroke="#9a32cd" stroke-dasharray="5,2" d="M65,-62.2348C65,-48.969 65,-32.3188 65,-21.6674"/>
<polygon fill="#9a32cd" stroke="#9a32cd" points="61.5001,-62.3761 65,-72.3762 68.5001,-62.3762 61.5001,-62.3761"/>
<text text-anchor="middle" x="86" y="-44.5" font-family="Helvetica,sans-Serif" font-size="10.00"> mValues</text>
</g>
<!-- Node3 -->
<g id="node4" class="node"><title>Node3</title>
<a xlink:href="../../d2/d80/classgaia_1_1base_1_1_array_impl.html" target="_top" xlink:title="Implements array data structure and its operation methods.">
<polygon fill="white" stroke="black" points="24,-204.5 24,-225.5 134,-225.5 134,-204.5 24,-204.5"/>
<text text-anchor="middle" x="79" y="-212.5" font-family="Helvetica,sans-Serif" font-size="10.00">gaia::base::ArrayImpl</text>
</a>
</g>
<!-- Node3&#45;&gt;Node2 -->
<g id="edge4" class="edge"><title>Node3&#45;&gt;Node2</title>
<path fill="none" stroke="#8b1a1a" d="M73.4474,-194.236C71.3639,-185.572 69.2096,-175.363 68,-166 64.6561,-140.116 64.541,-109.343 64.7606,-93.5329"/>
<polygon fill="#8b1a1a" stroke="#8b1a1a" points="70.1239,-195.369 75.972,-204.204 76.9097,-193.651 70.1239,-195.369"/>
</g>
<!-- Node4 -->
<g id="node6" class="node"><title>Node4</title>
<a xlink:href="../../d2/db0/classgaia_1_1base_1_1_array.html" target="_top" xlink:title="Implements array to replace C&#45;style array.">
<polygon fill="white" stroke="black" points="76.5,-144.5 76.5,-165.5 211.5,-165.5 211.5,-144.5 76.5,-144.5"/>
<text text-anchor="middle" x="144" y="-152.5" font-family="Helvetica,sans-Serif" font-size="10.00">gaia::base::Array&lt; TYPE &gt;</text>
</a>
</g>
<!-- Node3&#45;&gt;Node4 -->
<g id="edge8" class="edge"><title>Node3&#45;&gt;Node4</title>
<path fill="none" stroke="#8b1a1a" d="M98.19,-197.286C109.329,-187.004 122.989,-174.395 132.48,-165.634"/>
<polygon fill="#8b1a1a" stroke="#8b1a1a" points="95.5948,-194.919 90.6207,-204.273 100.343,-200.062 95.5948,-194.919"/>
</g>
<!-- Node4&#45;&gt;Node2 -->
<g id="edge6" class="edge"><title>Node4&#45;&gt;Node2</title>
<path fill="none" stroke="orange" stroke-dasharray="5,2" d="M124.633,-137.349C109.626,-123.671 89.3264,-105.171 76.7045,-93.6674"/>
<polygon fill="orange" stroke="orange" points="122.595,-140.227 132.343,-144.376 127.31,-135.053 122.595,-140.227"/>
<text text-anchor="middle" x="131" y="-116.5" font-family="Helvetica,sans-Serif" font-size="10.00"> &lt; float &gt;</text>
</g>
</g>
</svg>
