<?xml version="1.0" encoding="UTF-8" standalone="no"?>
<!DOCTYPE svg PUBLIC "-//W3C//DTD SVG 1.1//EN"
 "http://www.w3.org/Graphics/SVG/1.1/DTD/svg11.dtd">
<!-- Generated by graphviz version 2.26.3 (20100126.1600)
 -->
<!-- Title: G Pages: 1 -->
<svg width="984pt" height="1030pt"
 viewBox="0.00 0.00 984.00 1030.00" xmlns="http://www.w3.org/2000/svg" xmlns:xlink="http://www.w3.org/1999/xlink">
<g id="graph1" class="graph" transform="scale(1 1) rotate(0) translate(4 1026)">
<title>G</title>
<polygon fill="white" stroke="white" points="-4,5 -4,-1026 981,-1026 981,5 -4,5"/>
<!-- Node1 -->
<g id="node1" class="node"><title>Node1</title>
<polygon fill="#bfbfbf" stroke="black" points="0,-540.5 0,-561.5 122,-561.5 122,-540.5 0,-540.5"/>
<text text-anchor="middle" x="61" y="-548.5" font-family="Helvetica,sans-Serif" font-size="10.00">gaia::core::EventControl</text>
</g>
<!-- Node2 -->
<g id="node3" class="node"><title>Node2</title>
<a xlink:href="../../d2/de8/classgaia_1_1core_1_1_surface_widget.html" target="_top" xlink:title="gaia::core::SurfaceWidget">
<polygon fill="white" stroke="black" points="162,-960.5 162,-981.5 292,-981.5 292,-960.5 162,-960.5"/>
<text text-anchor="middle" x="227" y="-968.5" font-family="Helvetica,sans-Serif" font-size="10.00">gaia::core::SurfaceWidget</text>
</a>
</g>
<!-- Node1&#45;&gt;Node2 -->
<g id="edge2" class="edge"><title>Node1&#45;&gt;Node2</title>
<path fill="none" stroke="midnightblue" d="M69.0995,-571.493C98.7327,-646.468 200.673,-904.39 222.758,-960.267"/>
<polygon fill="midnightblue" stroke="midnightblue" points="72.201,-569.818 65.2702,-561.804 65.691,-572.391 72.201,-569.818"/>
</g>
<!-- Node5 -->
<g id="node9" class="node"><title>Node5</title>
<a xlink:href="../../de/db6/classgaia_1_1core_1_1_texture_widget.html" target="_top" xlink:title="gaia::core::TextureWidget">
<polygon fill="white" stroke="black" points="162.5,-640.5 162.5,-661.5 291.5,-661.5 291.5,-640.5 162.5,-640.5"/>
<text text-anchor="middle" x="227" y="-648.5" font-family="Helvetica,sans-Serif" font-size="10.00">gaia::core::TextureWidget</text>
</a>
</g>
<!-- Node1&#45;&gt;Node5 -->
<g id="edge8" class="edge"><title>Node1&#45;&gt;Node5</title>
<path fill="none" stroke="midnightblue" d="M78.5153,-569.286C96.7845,-587.371 127.033,-614.646 158,-631 165.058,-634.728 172.9,-637.841 180.692,-640.415"/>
<polygon fill="midnightblue" stroke="midnightblue" points="80.5262,-566.342 71.0047,-561.696 75.5503,-571.266 80.5262,-566.342"/>
</g>
<!-- Node6 -->
<g id="node11" class="node"><title>Node6</title>
<a xlink:href="../../dd/dcc/classgaia_1_1core_1_1_touch_helper.html" target="_top" xlink:title="Helper class to handle touch area if you want a widget to have a larger touch area than its actual bo...">
<polygon fill="white" stroke="black" points="166.5,-600.5 166.5,-621.5 287.5,-621.5 287.5,-600.5 166.5,-600.5"/>
<text text-anchor="middle" x="227" y="-608.5" font-family="Helvetica,sans-Serif" font-size="10.00">gaia::core::TouchHelper</text>
</a>
</g>
<!-- Node1&#45;&gt;Node6 -->
<g id="edge10" class="edge"><title>Node1&#45;&gt;Node6</title>
<path fill="none" stroke="midnightblue" d="M93.8631,-565.598C112.488,-573.606 136.331,-583.417 158,-591 167.536,-594.337 177.945,-597.564 187.72,-600.418"/>
<polygon fill="midnightblue" stroke="midnightblue" points="95.2054,-562.365 84.6385,-561.596 92.4195,-568.787 95.2054,-562.365"/>
</g>
<!-- Node7 -->
<g id="node13" class="node"><title>Node7</title>
<a xlink:href="../../db/d6c/classgaia_1_1core_1_1_widget_controller.html" target="_top" xlink:title="Define the default widget layout to put sets of layout in it.">
<polygon fill="white" stroke="black" points="158,-560.5 158,-581.5 296,-581.5 296,-560.5 158,-560.5"/>
<text text-anchor="middle" x="227" y="-568.5" font-family="Helvetica,sans-Serif" font-size="10.00">gaia::core::WidgetController</text>
</a>
</g>
<!-- Node1&#45;&gt;Node7 -->
<g id="edge12" class="edge"><title>Node1&#45;&gt;Node7</title>
<path fill="none" stroke="midnightblue" d="M132.479,-559.612C140.875,-560.624 149.432,-561.654 157.797,-562.662"/>
<polygon fill="midnightblue" stroke="midnightblue" points="132.688,-556.112 122.341,-558.39 131.85,-563.062 132.688,-556.112"/>
</g>
<!-- Node34 -->
<g id="node67" class="node"><title>Node34</title>
<a xlink:href="../../d3/daf/classgaia_1_1ui_1_1_combo_picker.html" target="_top" xlink:title="A widget that displays one child at a time and lets the user pick among them.">
<polygon fill="white" stroke="black" points="170.5,-520.5 170.5,-541.5 283.5,-541.5 283.5,-520.5 170.5,-520.5"/>
<text text-anchor="middle" x="227" y="-528.5" font-family="Helvetica,sans-Serif" font-size="10.00">gaia::ui::ComboPicker</text>
</a>
</g>
<!-- Node1&#45;&gt;Node34 -->
<g id="edge66" class="edge"><title>Node1&#45;&gt;Node34</title>
<path fill="none" stroke="midnightblue" d="M132.402,-542.397C145.074,-540.871 158.114,-539.299 170.309,-537.83"/>
<polygon fill="midnightblue" stroke="midnightblue" points="131.85,-538.938 122.341,-543.61 132.688,-545.888 131.85,-538.938"/>
</g>
<!-- Node35 -->
<g id="node69" class="node"><title>Node35</title>
<a xlink:href="../../df/d77/classgaia_1_1ui_1_1_image_widget.html" target="_top" xlink:title="Displays an arbitrary image, such as an icon.">
<polygon fill="white" stroke="black" points="171,-240.5 171,-261.5 283,-261.5 283,-240.5 171,-240.5"/>
<text text-anchor="middle" x="227" y="-248.5" font-family="Helvetica,sans-Serif" font-size="10.00">gaia::ui::ImageWidget</text>
</a>
</g>
<!-- Node1&#45;&gt;Node35 -->
<g id="edge68" class="edge"><title>Node1&#45;&gt;Node35</title>
<path fill="none" stroke="midnightblue" d="M71.8088,-531.466C103.734,-473.77 196.891,-305.414 221.163,-261.549"/>
<polygon fill="midnightblue" stroke="midnightblue" points="68.6872,-529.878 66.908,-540.323 74.8121,-533.268 68.6872,-529.878"/>
</g>
<!-- Node38 -->
<g id="node75" class="node"><title>Node38</title>
<a xlink:href="../../db/d7a/classgaia_1_1ui_1_1_progress_bar.html" target="_top" xlink:title="Visual indicator of progress in some operation.">
<polygon fill="white" stroke="black" points="173,-180.5 173,-201.5 281,-201.5 281,-180.5 173,-180.5"/>
<text text-anchor="middle" x="227" y="-188.5" font-family="Helvetica,sans-Serif" font-size="10.00">gaia::ui::ProgressBar</text>
</a>
</g>
<!-- Node1&#45;&gt;Node38 -->
<g id="edge74" class="edge"><title>Node1&#45;&gt;Node38</title>
<path fill="none" stroke="midnightblue" d="M62.1392,-530.135C66.1313,-475.298 83.6331,-324.891 158,-231 168.489,-217.758 184.651,-208.053 198.697,-201.521"/>
<polygon fill="midnightblue" stroke="midnightblue" points="58.6325,-530.125 61.4768,-540.331 65.6178,-530.579 58.6325,-530.125"/>
</g>
<!-- Node42 -->
<g id="node83" class="node"><title>Node42</title>
<a xlink:href="../../d9/d0f/classgaia_1_1ui_1_1_text_widget.html" target="_top" xlink:title="Displays text to the user and optionally allows them to edit it.">
<polygon fill="white" stroke="black" points="175,-80.5 175,-101.5 279,-101.5 279,-80.5 175,-80.5"/>
<text text-anchor="middle" x="227" y="-88.5" font-family="Helvetica,sans-Serif" font-size="10.00">gaia::ui::TextWidget</text>
</a>
</g>
<!-- Node1&#45;&gt;Node42 -->
<g id="edge82" class="edge"><title>Node1&#45;&gt;Node42</title>
<path fill="none" stroke="midnightblue" d="M62.9472,-530.089C69.1672,-470.709 92.1647,-297.206 158,-171 172.76,-142.705 199.332,-115.915 214.84,-101.656"/>
<polygon fill="midnightblue" stroke="midnightblue" points="59.4291,-530.098 61.9192,-540.396 66.3945,-530.792 59.4291,-530.098"/>
</g>
<!-- Node3 -->
<g id="node5" class="node"><title>Node3</title>
<a xlink:href="../../d1/de7/classgaia_1_1core_1_1_g_l_surface_widget.html" target="_top" xlink:title="gaia::core::GLSurfaceWidget">
<polygon fill="white" stroke="black" points="343.5,-1000.5 343.5,-1021.5 486.5,-1021.5 486.5,-1000.5 343.5,-1000.5"/>
<text text-anchor="middle" x="415" y="-1008.5" font-family="Helvetica,sans-Serif" font-size="10.00">gaia::core::GLSurfaceWidget</text>
</a>
</g>
<!-- Node2&#45;&gt;Node3 -->
<g id="edge4" class="edge"><title>Node2&#45;&gt;Node3</title>
<path fill="none" stroke="midnightblue" d="M286.324,-983.622C311.836,-989.05 341.311,-995.321 365.609,-1000.49"/>
<polygon fill="midnightblue" stroke="midnightblue" points="286.904,-980.167 276.395,-981.51 285.447,-987.014 286.904,-980.167"/>
</g>
<!-- Node4 -->
<g id="node7" class="node"><title>Node4</title>
<a xlink:href="../../da/de0/classgaia_1_1ui_1_1_video_widget.html" target="_top" xlink:title="Displays a video file.">
<polygon fill="white" stroke="black" points="360,-960.5 360,-981.5 470,-981.5 470,-960.5 360,-960.5"/>
<text text-anchor="middle" x="415" y="-968.5" font-family="Helvetica,sans-Serif" font-size="10.00">gaia::ui::VideoWidget</text>
</a>
</g>
<!-- Node2&#45;&gt;Node4 -->
<g id="edge6" class="edge"><title>Node2&#45;&gt;Node4</title>
<path fill="none" stroke="midnightblue" d="M302.451,-971C321.644,-971 341.912,-971 359.88,-971"/>
<polygon fill="midnightblue" stroke="midnightblue" points="302.226,-967.5 292.226,-971 302.226,-974.5 302.226,-967.5"/>
</g>
<!-- Node8 -->
<g id="node15" class="node"><title>Node8</title>
<a xlink:href="../../d2/dc3/classgaia_1_1core_1_1_app_widget_host_widget.html" target="_top" xlink:title="Provides the glue to show AppWidget widgets.">
<polygon fill="white" stroke="black" points="332.5,-920.5 332.5,-941.5 497.5,-941.5 497.5,-920.5 332.5,-920.5"/>
<text text-anchor="middle" x="415" y="-928.5" font-family="Helvetica,sans-Serif" font-size="10.00">gaia::core::AppWidgetHostWidget</text>
</a>
</g>
<!-- Node7&#45;&gt;Node8 -->
<g id="edge14" class="edge"><title>Node7&#45;&gt;Node8</title>
<path fill="none" stroke="midnightblue" d="M292.795,-587.626C293.924,-588.685 294.995,-589.808 296,-591 388.238,-700.431 237.287,-803.703 332,-911 335.335,-914.778 339.248,-917.906 343.527,-920.488"/>
<polygon fill="midnightblue" stroke="midnightblue" points="294.72,-584.696 284.606,-581.541 290.545,-590.314 294.72,-584.696"/>
</g>
<!-- Node9 -->
<g id="node17" class="node"><title>Node9</title>
<a xlink:href="../../db/d13/classgaia_1_1core_1_1_gesture_controller.html" target="_top" xlink:title="A transparent overlay for gesture input that can be placed on top of other widgets or contain other w...">
<polygon fill="white" stroke="black" points="344,-880.5 344,-901.5 486,-901.5 486,-880.5 344,-880.5"/>
<text text-anchor="middle" x="415" y="-888.5" font-family="Helvetica,sans-Serif" font-size="10.00">gaia::core::GestureController</text>
</a>
</g>
<!-- Node7&#45;&gt;Node9 -->
<g id="edge16" class="edge"><title>Node7&#45;&gt;Node9</title>
<path fill="none" stroke="midnightblue" d="M292.77,-587.648C293.906,-588.7 294.986,-589.816 296,-591 377.62,-686.292 248.225,-777.596 332,-871 335.464,-874.862 339.532,-878.042 343.974,-880.654"/>
<polygon fill="midnightblue" stroke="midnightblue" points="294.671,-584.701 284.541,-581.595 290.523,-590.34 294.671,-584.701"/>
</g>
<!-- Node10 -->
<g id="node19" class="node"><title>Node10</title>
<a xlink:href="../../d9/d1a/classgaia_1_1ui_1_1_abs_list_widget.html" target="_top" xlink:title="This is an abstract class for List/Grid ui components.">
<polygon fill="white" stroke="black" points="356,-840.5 356,-861.5 474,-861.5 474,-840.5 356,-840.5"/>
<text text-anchor="middle" x="415" y="-848.5" font-family="Helvetica,sans-Serif" font-size="10.00">gaia::ui::AbsListWidget</text>
</a>
</g>
<!-- Node7&#45;&gt;Node10 -->
<g id="edge18" class="edge"><title>Node7&#45;&gt;Node10</title>
<path fill="none" stroke="midnightblue" d="M292.736,-587.677C293.883,-588.72 294.973,-589.827 296,-591 367.022,-672.176 259.143,-751.466 332,-831 338.408,-837.995 346.799,-842.742 355.782,-845.929"/>
<polygon fill="midnightblue" stroke="midnightblue" points="294.606,-584.709 284.457,-581.669 290.495,-590.375 294.606,-584.709"/>
</g>
<!-- Node12 -->
<g id="node23" class="node"><title>Node12</title>
<a xlink:href="../../df/d55/classgaia_1_1ui_1_1_absolute_controller.html" target="_top" xlink:title="A layout that lets you specify exact locations (x/y coordinates) of its children.">
<polygon fill="white" stroke="black" points="348,-800.5 348,-821.5 482,-821.5 482,-800.5 348,-800.5"/>
<text text-anchor="middle" x="415" y="-808.5" font-family="Helvetica,sans-Serif" font-size="10.00">gaia::ui::AbsoluteController</text>
</a>
</g>
<!-- Node7&#45;&gt;Node12 -->
<g id="edge22" class="edge"><title>Node7&#45;&gt;Node12</title>
<path fill="none" stroke="midnightblue" d="M292.244,-587.327C293.567,-588.471 294.823,-589.694 296,-591 356.457,-658.098 270.027,-725.3 332,-791 336.475,-795.744 341.864,-799.448 347.72,-802.33"/>
<polygon fill="midnightblue" stroke="midnightblue" points="294.219,-584.437 284.014,-581.587 290.214,-590.178 294.219,-584.437"/>
</g>
<!-- Node14 -->
<g id="node27" class="node"><title>Node14</title>
<a xlink:href="../../d1/d9e/classgaia_1_1ui_1_1_date_picker.html" target="_top" xlink:title="This class is a widget for selecting a date.">
<polygon fill="white" stroke="black" points="363.5,-760.5 363.5,-781.5 466.5,-781.5 466.5,-760.5 363.5,-760.5"/>
<text text-anchor="middle" x="415" y="-768.5" font-family="Helvetica,sans-Serif" font-size="10.00">gaia::ui::DatePicker</text>
</a>
</g>
<!-- Node7&#45;&gt;Node14 -->
<g id="edge26" class="edge"><title>Node7&#45;&gt;Node14</title>
<path fill="none" stroke="midnightblue" d="M292.07,-587.313C293.452,-588.462 294.766,-589.689 296,-591 345.95,-644.083 280.851,-699.071 332,-751 340.425,-759.554 351.828,-764.697 363.481,-767.731"/>
<polygon fill="midnightblue" stroke="midnightblue" points="293.765,-584.235 283.512,-581.564 289.861,-590.046 293.765,-584.235"/>
</g>
<!-- Node15 -->
<g id="node29" class="node"><title>Node15</title>
<a xlink:href="../../d5/d48/classgaia_1_1ui_1_1_footer.html" target="_top" xlink:title="From your page, you can retrieve an instance of Footer by calling ActionBar.getFooter().">
<polygon fill="white" stroke="black" points="374,-720.5 374,-741.5 456,-741.5 456,-720.5 374,-720.5"/>
<text text-anchor="middle" x="415" y="-728.5" font-family="Helvetica,sans-Serif" font-size="10.00">gaia::ui::Footer</text>
</a>
</g>
<!-- Node7&#45;&gt;Node15 -->
<g id="edge28" class="edge"><title>Node7&#45;&gt;Node15</title>
<path fill="none" stroke="midnightblue" d="M291.45,-587.044C293.049,-588.268 294.571,-589.585 296,-591 335.556,-630.189 291.559,-672.725 332,-711 343.196,-721.596 358.993,-726.884 373.806,-729.427"/>
<polygon fill="midnightblue" stroke="midnightblue" points="293.228,-584.027 282.901,-581.658 289.496,-589.95 293.228,-584.027"/>
</g>
<!-- Node16 -->
<g id="node31" class="node"><title>Node16</title>
<a xlink:href="../../d6/d8d/classgaia_1_1ui_1_1_frame_controller.html" target="_top" xlink:title="FrameController is designed to block out an area on the screen to display a single item...">
<polygon fill="white" stroke="black" points="353,-680.5 353,-701.5 477,-701.5 477,-680.5 353,-680.5"/>
<text text-anchor="middle" x="415" y="-688.5" font-family="Helvetica,sans-Serif" font-size="10.00">gaia::ui::FrameController</text>
</a>
</g>
<!-- Node7&#45;&gt;Node16 -->
<g id="edge30" class="edge"><title>Node7&#45;&gt;Node16</title>
<path fill="none" stroke="midnightblue" d="M289.822,-586.367C291.993,-587.778 294.064,-589.319 296,-591 325.44,-616.563 301.984,-646.116 332,-671 338.048,-676.014 345.149,-679.809 352.608,-682.675"/>
<polygon fill="midnightblue" stroke="midnightblue" points="291.477,-583.283 281.026,-581.54 288.109,-589.419 291.477,-583.283"/>
</g>
<!-- Node20 -->
<g id="node39" class="node"><title>Node20</title>
<a xlink:href="../../d1/dfa/classgaia_1_1ui_1_1_gallery.html" target="_top" xlink:title="A class that shows items in a center&#45;locked, horizontally scrolling list.">
<polygon fill="white" stroke="black" points="372.5,-640.5 372.5,-661.5 457.5,-661.5 457.5,-640.5 372.5,-640.5"/>
<text text-anchor="middle" x="415" y="-648.5" font-family="Helvetica,sans-Serif" font-size="10.00">gaia::ui::Gallery</text>
</a>
</g>
<!-- Node7&#45;&gt;Node20 -->
<g id="edge38" class="edge"><title>Node7&#45;&gt;Node20</title>
<path fill="none" stroke="midnightblue" d="M285.869,-585.547C289.392,-587.182 292.8,-588.994 296,-591 316.264,-603.706 311.452,-618.76 332,-631 344.098,-638.206 358.646,-642.818 372.161,-645.769"/>
<polygon fill="midnightblue" stroke="midnightblue" points="286.922,-582.196 276.343,-581.621 284.254,-588.667 286.922,-582.196"/>
</g>
<!-- Node21 -->
<g id="node41" class="node"><title>Node21</title>
<a xlink:href="../../d1/d7c/classgaia_1_1ui_1_1_grid_controller.html" target="_top" xlink:title="A layout that places its children in a rectangular grid.">
<polygon fill="white" stroke="black" points="358,-600.5 358,-621.5 472,-621.5 472,-600.5 358,-600.5"/>
<text text-anchor="middle" x="415" y="-608.5" font-family="Helvetica,sans-Serif" font-size="10.00">gaia::ui::GridController</text>
</a>
</g>
<!-- Node7&#45;&gt;Node21 -->
<g id="edge40" class="edge"><title>Node7&#45;&gt;Node21</title>
<path fill="none" stroke="midnightblue" d="M286.324,-583.622C311.836,-589.05 341.311,-595.321 365.609,-600.491"/>
<polygon fill="midnightblue" stroke="midnightblue" points="286.904,-580.167 276.395,-581.51 285.447,-587.014 286.904,-580.167"/>
</g>
<!-- Node22 -->
<g id="node43" class="node"><title>Node22</title>
<a xlink:href="../../da/d1d/classgaia_1_1ui_1_1_linear_controller.html" target="_top" xlink:title="A Layout that arranges its children in a single column or a single row.">
<polygon fill="white" stroke="black" points="354,-560.5 354,-581.5 476,-581.5 476,-560.5 354,-560.5"/>
<text text-anchor="middle" x="415" y="-568.5" font-family="Helvetica,sans-Serif" font-size="10.00">gaia::ui::LinearController</text>
</a>
</g>
<!-- Node7&#45;&gt;Node22 -->
<g id="edge42" class="edge"><title>Node7&#45;&gt;Node22</title>
<path fill="none" stroke="midnightblue" d="M306.482,-571C322.275,-571 338.628,-571 353.7,-571"/>
<polygon fill="midnightblue" stroke="midnightblue" points="306.203,-567.5 296.203,-571 306.203,-574.5 306.203,-567.5"/>
</g>
<!-- Node26 -->
<g id="node51" class="node"><title>Node26</title>
<a xlink:href="../../da/d3a/classgaia_1_1ui_1_1_number_picker.html" target="_top" xlink:title="A widget that enables the user to select a number form a predefined range.">
<polygon fill="white" stroke="black" points="357,-520.5 357,-541.5 473,-541.5 473,-520.5 357,-520.5"/>
<text text-anchor="middle" x="415" y="-528.5" font-family="Helvetica,sans-Serif" font-size="10.00">gaia::ui::NumberPicker</text>
</a>
</g>
<!-- Node7&#45;&gt;Node26 -->
<g id="edge50" class="edge"><title>Node7&#45;&gt;Node26</title>
<path fill="none" stroke="midnightblue" d="M286.324,-558.378C311.836,-552.95 341.311,-546.679 365.609,-541.509"/>
<polygon fill="midnightblue" stroke="midnightblue" points="285.447,-554.986 276.395,-560.49 286.904,-561.833 285.447,-554.986"/>
</g>
<!-- Node27 -->
<g id="node53" class="node"><title>Node27</title>
<a xlink:href="../../d7/d42/classgaia_1_1ui_1_1_pager_tab_strip.html" target="_top" xlink:title="PagerTabStrip is an interactive indicator of the current, next, and previous pages of a WidgetPager...">
<polygon fill="white" stroke="black" points="357,-480.5 357,-501.5 473,-501.5 473,-480.5 357,-480.5"/>
<text text-anchor="middle" x="415" y="-488.5" font-family="Helvetica,sans-Serif" font-size="10.00">gaia::ui::PagerTabStrip</text>
</a>
</g>
<!-- Node7&#45;&gt;Node27 -->
<g id="edge52" class="edge"><title>Node7&#45;&gt;Node27</title>
<path fill="none" stroke="midnightblue" d="M285.869,-556.453C289.392,-554.818 292.8,-553.006 296,-551 316.264,-538.294 311.452,-523.24 332,-511 339.641,-506.449 348.259,-502.932 356.977,-500.216"/>
<polygon fill="midnightblue" stroke="midnightblue" points="284.254,-553.333 276.343,-560.379 286.922,-559.804 284.254,-553.333"/>
</g>
<!-- Node28 -->
<g id="node55" class="node"><title>Node28</title>
<a xlink:href="../../d8/d8a/classgaia_1_1ui_1_1_relative_controller.html" target="_top" xlink:title="A Layout where the positions of the children can be described in relation to each other or to the par...">
<polygon fill="white" stroke="black" points="349,-440.5 349,-461.5 481,-461.5 481,-440.5 349,-440.5"/>
<text text-anchor="middle" x="415" y="-448.5" font-family="Helvetica,sans-Serif" font-size="10.00">gaia::ui::RelativeController</text>
</a>
</g>
<!-- Node7&#45;&gt;Node28 -->
<g id="edge54" class="edge"><title>Node7&#45;&gt;Node28</title>
<path fill="none" stroke="midnightblue" d="M289.822,-555.633C291.993,-554.222 294.064,-552.681 296,-551 325.44,-525.437 301.984,-495.884 332,-471 337.021,-466.838 342.767,-463.515 348.842,-460.867"/>
<polygon fill="midnightblue" stroke="midnightblue" points="288.109,-552.581 281.026,-560.46 291.477,-558.717 288.109,-552.581"/>
</g>
<!-- Node30 -->
<g id="node59" class="node"><title>Node30</title>
<a xlink:href="../../da/d88/classgaia_1_1ui_1_1_scroll_widget.html" target="_top" xlink:title="Layout container for a view hierarchy that can be scrolled by the user, allowing it to be larger than...">
<polygon fill="white" stroke="black" points="360,-400.5 360,-421.5 470,-421.5 470,-400.5 360,-400.5"/>
<text text-anchor="middle" x="415" y="-408.5" font-family="Helvetica,sans-Serif" font-size="10.00">gaia::ui::ScrollWidget</text>
</a>
</g>
<!-- Node7&#45;&gt;Node30 -->
<g id="edge58" class="edge"><title>Node7&#45;&gt;Node30</title>
<path fill="none" stroke="midnightblue" d="M291.45,-554.956C293.049,-553.732 294.571,-552.415 296,-551 335.556,-511.811 291.559,-469.275 332,-431 339.643,-423.766 349.431,-419.006 359.586,-415.905"/>
<polygon fill="midnightblue" stroke="midnightblue" points="289.496,-552.05 282.901,-560.342 293.228,-557.973 289.496,-552.05"/>
</g>
<!-- Node31 -->
<g id="node61" class="node"><title>Node31</title>
<a xlink:href="../../d3/d8a/classgaia_1_1ui_1_1_tab_page_controller.html" target="_top" xlink:title="A layout that associates with fragments.">
<polygon fill="white" stroke="black" points="347.5,-360.5 347.5,-381.5 482.5,-381.5 482.5,-360.5 347.5,-360.5"/>
<text text-anchor="middle" x="415" y="-368.5" font-family="Helvetica,sans-Serif" font-size="10.00">gaia::ui::TabPageController</text>
</a>
</g>
<!-- Node7&#45;&gt;Node31 -->
<g id="edge60" class="edge"><title>Node7&#45;&gt;Node31</title>
<path fill="none" stroke="midnightblue" d="M292.07,-554.687C293.452,-553.538 294.766,-552.311 296,-551 345.95,-497.917 280.851,-442.929 332,-391 336.369,-386.565 341.538,-383.047 347.127,-380.264"/>
<polygon fill="midnightblue" stroke="midnightblue" points="289.861,-551.954 283.512,-560.436 293.765,-557.765 289.861,-551.954"/>
</g>
<!-- Node32 -->
<g id="node63" class="node"><title>Node32</title>
<a xlink:href="../../db/d31/classgaia_1_1ui_1_1_time_picker.html" target="_top" xlink:title="A view for selecting the time of day, in either 24 hour or AM/PM mode.">
<polygon fill="white" stroke="black" points="363,-320.5 363,-341.5 467,-341.5 467,-320.5 363,-320.5"/>
<text text-anchor="middle" x="415" y="-328.5" font-family="Helvetica,sans-Serif" font-size="10.00">gaia::ui::TimePicker</text>
</a>
</g>
<!-- Node7&#45;&gt;Node32 -->
<g id="edge62" class="edge"><title>Node7&#45;&gt;Node32</title>
<path fill="none" stroke="midnightblue" d="M292.244,-554.673C293.567,-553.529 294.823,-552.306 296,-551 356.457,-483.902 270.027,-416.7 332,-351 340.136,-342.374 351.293,-337.186 362.788,-334.13"/>
<polygon fill="midnightblue" stroke="midnightblue" points="290.214,-551.822 284.014,-560.413 294.219,-557.563 290.214,-551.822"/>
</g>
<!-- Node33 -->
<g id="node65" class="node"><title>Node33</title>
<a xlink:href="../../d5/d3c/classgaia_1_1ui_1_1_widget_pager.html" target="_top" xlink:title="WidgetPager that allows the user to flip left and right through pages of data.">
<polygon fill="white" stroke="black" points="360,-280.5 360,-301.5 470,-301.5 470,-280.5 360,-280.5"/>
<text text-anchor="middle" x="415" y="-288.5" font-family="Helvetica,sans-Serif" font-size="10.00">gaia::ui::WidgetPager</text>
</a>
</g>
<!-- Node7&#45;&gt;Node33 -->
<g id="edge64" class="edge"><title>Node7&#45;&gt;Node33</title>
<path fill="none" stroke="midnightblue" d="M292.736,-554.323C293.883,-553.28 294.973,-552.173 296,-551 367.022,-469.824 259.143,-390.534 332,-311 339.309,-303.021 349.198,-297.967 359.603,-294.817"/>
<polygon fill="midnightblue" stroke="midnightblue" points="290.495,-551.625 284.457,-560.331 294.606,-557.291 290.495,-551.625"/>
</g>
<!-- Node11 -->
<g id="node21" class="node"><title>Node11</title>
<a xlink:href="../../d7/df3/classgaia_1_1ui_1_1_grid_widget.html" target="_top" xlink:title="It has implements the drawing of a special list item separator for Rosie style list view...">
<polygon fill="white" stroke="black" points="623.5,-840.5 623.5,-861.5 726.5,-861.5 726.5,-840.5 623.5,-840.5"/>
<text text-anchor="middle" x="675" y="-848.5" font-family="Helvetica,sans-Serif" font-size="10.00">gaia::ui::GridWidget</text>
</a>
</g>
<!-- Node10&#45;&gt;Node11 -->
<g id="edge20" class="edge"><title>Node10&#45;&gt;Node11</title>
<path fill="none" stroke="midnightblue" d="M484.588,-851C528.265,-851 583.642,-851 623.402,-851"/>
<polygon fill="midnightblue" stroke="midnightblue" points="484.323,-847.5 474.323,-851 484.323,-854.5 484.323,-847.5"/>
</g>
<!-- Node13 -->
<g id="node25" class="node"><title>Node13</title>
<a xlink:href="../../d7/d73/classgaia_1_1webkit_1_1_web_view.html" target="_top" xlink:title="gaia::webkit::WebView">
<polygon fill="white" stroke="black" points="616.5,-800.5 616.5,-821.5 733.5,-821.5 733.5,-800.5 616.5,-800.5"/>
<text text-anchor="middle" x="675" y="-808.5" font-family="Helvetica,sans-Serif" font-size="10.00">gaia::webkit::WebView</text>
</a>
</g>
<!-- Node12&#45;&gt;Node13 -->
<g id="edge24" class="edge"><title>Node12&#45;&gt;Node13</title>
<path fill="none" stroke="midnightblue" d="M492.475,-811C532.188,-811 579.764,-811 616.385,-811"/>
<polygon fill="midnightblue" stroke="midnightblue" points="492.295,-807.5 482.295,-811 492.295,-814.5 492.295,-807.5"/>
</g>
<!-- Node17 -->
<g id="node33" class="node"><title>Node17</title>
<a xlink:href="../../df/d4c/classgaia_1_1ui_1_1_media_control.html" target="_top" xlink:title="A view containing controls for a MediaPlayer.">
<polygon fill="white" stroke="black" points="619,-700.5 619,-721.5 731,-721.5 731,-700.5 619,-700.5"/>
<text text-anchor="middle" x="675" y="-708.5" font-family="Helvetica,sans-Serif" font-size="10.00">gaia::ui::MediaControl</text>
</a>
</g>
<!-- Node16&#45;&gt;Node17 -->
<g id="edge32" class="edge"><title>Node16&#45;&gt;Node17</title>
<path fill="none" stroke="midnightblue" d="M487.356,-696.566C528.974,-699.767 580.475,-703.729 618.988,-706.691"/>
<polygon fill="midnightblue" stroke="midnightblue" points="487.515,-693.068 477.276,-695.79 486.979,-700.047 487.515,-693.068"/>
</g>
<!-- Node18 -->
<g id="node35" class="node"><title>Node18</title>
<a xlink:href="../../d4/d9a/classgaia_1_1ui_1_1_widget_animator.html" target="_top" xlink:title="Base class for a FrameController container that will perform animations when switching between its vi...">
<polygon fill="white" stroke="black" points="613,-660.5 613,-681.5 737,-681.5 737,-660.5 613,-660.5"/>
<text text-anchor="middle" x="675" y="-668.5" font-family="Helvetica,sans-Serif" font-size="10.00">gaia::ui::WidgetAnimator</text>
</a>
</g>
<!-- Node16&#45;&gt;Node18 -->
<g id="edge34" class="edge"><title>Node16&#45;&gt;Node18</title>
<path fill="none" stroke="midnightblue" d="M487.356,-685.434C526.776,-682.402 575.063,-678.687 612.782,-675.786"/>
<polygon fill="midnightblue" stroke="midnightblue" points="486.979,-681.953 477.276,-686.21 487.515,-688.932 486.979,-681.953"/>
</g>
<!-- Node19 -->
<g id="node37" class="node"><title>Node19</title>
<a xlink:href="../../d8/d67/classgaia_1_1ui_1_1_widget_switcher.html" target="_top" xlink:title="WidgetSwitcher that switches between two views, and has a factory from which these widgets are create...">
<polygon fill="white" stroke="black" points="852.5,-660.5 852.5,-681.5 975.5,-681.5 975.5,-660.5 852.5,-660.5"/>
<text text-anchor="middle" x="914" y="-668.5" font-family="Helvetica,sans-Serif" font-size="10.00">gaia::ui::WidgetSwitcher</text>
</a>
</g>
<!-- Node18&#45;&gt;Node19 -->
<g id="edge36" class="edge"><title>Node18&#45;&gt;Node19</title>
<path fill="none" stroke="midnightblue" d="M747.346,-671C780.789,-671 820.1,-671 852.141,-671"/>
<polygon fill="midnightblue" stroke="midnightblue" points="747.171,-667.5 737.171,-671 747.17,-674.5 747.171,-667.5"/>
</g>
<!-- Node23 -->
<g id="node45" class="node"><title>Node23</title>
<a xlink:href="../../de/d48/classgaia_1_1ui_1_1_action_drop_down_widget.html" target="_top" xlink:title="The ActionDropDownWidget includes a title, a subtitle, an arrow and contents.">
<polygon fill="white" stroke="black" points="595.5,-600.5 595.5,-621.5 754.5,-621.5 754.5,-600.5 595.5,-600.5"/>
<text text-anchor="middle" x="675" y="-608.5" font-family="Helvetica,sans-Serif" font-size="10.00">gaia::ui::ActionDropDownWidget</text>
</a>
</g>
<!-- Node22&#45;&gt;Node23 -->
<g id="edge44" class="edge"><title>Node22&#45;&gt;Node23</title>
<path fill="none" stroke="midnightblue" d="M486.021,-583.242C501.804,-585.878 518.461,-588.593 534,-591 554.768,-594.218 577.289,-597.503 598.11,-600.457"/>
<polygon fill="midnightblue" stroke="midnightblue" points="486.237,-579.73 475.796,-581.526 485.078,-586.633 486.237,-579.73"/>
</g>
<!-- Node24 -->
<g id="node47" class="node"><title>Node24</title>
<a xlink:href="../../d1/d6d/classgaia_1_1ui_1_1_list_item.html" target="_top" xlink:title="gaia::ui::ListItem\&lt; Panel1, Panel2, Panel3, Panel4, Panel5 \&gt;">
<polygon fill="white" stroke="black" points="534.5,-560.5 534.5,-581.5 815.5,-581.5 815.5,-560.5 534.5,-560.5"/>
<text text-anchor="middle" x="675" y="-568.5" font-family="Helvetica,sans-Serif" font-size="10.00">gaia::ui::ListItem&lt; Panel1, Panel2, Panel3, Panel4, Panel5 &gt;</text>
</a>
</g>
<!-- Node22&#45;&gt;Node24 -->
<g id="edge46" class="edge"><title>Node22&#45;&gt;Node24</title>
<path fill="none" stroke="midnightblue" d="M486.446,-571C501.443,-571 517.755,-571 534.299,-571"/>
<polygon fill="midnightblue" stroke="midnightblue" points="486.287,-567.5 476.287,-571 486.287,-574.5 486.287,-567.5"/>
</g>
<!-- Node25 -->
<g id="node49" class="node"><title>Node25</title>
<a xlink:href="../../d1/d87/classgaia_1_1ui_1_1_radio_group.html" target="_top" xlink:title="This class is used to create a multiple&#45;exclusion scope for a set of radio buttons.">
<polygon fill="white" stroke="black" points="622,-520.5 622,-541.5 728,-541.5 728,-520.5 622,-520.5"/>
<text text-anchor="middle" x="675" y="-528.5" font-family="Helvetica,sans-Serif" font-size="10.00">gaia::ui::RadioGroup</text>
</a>
</g>
<!-- Node22&#45;&gt;Node25 -->
<g id="edge48" class="edge"><title>Node22&#45;&gt;Node25</title>
<path fill="none" stroke="midnightblue" d="M486.021,-558.758C501.804,-556.122 518.461,-553.407 534,-551 562.953,-546.514 595.313,-541.896 621.723,-538.229"/>
<polygon fill="midnightblue" stroke="midnightblue" points="485.078,-555.367 475.796,-560.474 486.237,-562.27 485.078,-555.367"/>
</g>
<!-- Node29 -->
<g id="node57" class="node"><title>Node29</title>
<a xlink:href="../../d5/d21/classgaia_1_1ui_1_1_search_edit_widget.html" target="_top" xlink:title="A special EditWidget&#45;like widget with a clear button on its right side.">
<polygon fill="white" stroke="black" points="608.5,-440.5 608.5,-461.5 741.5,-461.5 741.5,-440.5 608.5,-440.5"/>
<text text-anchor="middle" x="675" y="-448.5" font-family="Helvetica,sans-Serif" font-size="10.00">gaia::ui::SearchEditWidget</text>
</a>
</g>
<!-- Node28&#45;&gt;Node29 -->
<g id="edge56" class="edge"><title>Node28&#45;&gt;Node29</title>
<path fill="none" stroke="midnightblue" d="M491.54,-451C528.616,-451 572.717,-451 608.388,-451"/>
<polygon fill="midnightblue" stroke="midnightblue" points="491.282,-447.5 481.282,-451 491.282,-454.5 491.282,-447.5"/>
</g>
<!-- Node36 -->
<g id="node71" class="node"><title>Node36</title>
<a xlink:href="../../dc/dad/classgaia_1_1ui_1_1_image_button.html" target="_top" xlink:title="Displays a button with an image (instead of text) that can be pressed or clicked by the user...">
<polygon fill="white" stroke="black" points="360,-240.5 360,-261.5 470,-261.5 470,-240.5 360,-240.5"/>
<text text-anchor="middle" x="415" y="-248.5" font-family="Helvetica,sans-Serif" font-size="10.00">gaia::ui::ImageButton</text>
</a>
</g>
<!-- Node35&#45;&gt;Node36 -->
<g id="edge70" class="edge"><title>Node35&#45;&gt;Node36</title>
<path fill="none" stroke="midnightblue" d="M293.297,-251C315.04,-251 338.953,-251 359.785,-251"/>
<polygon fill="midnightblue" stroke="midnightblue" points="293.152,-247.5 283.152,-251 293.152,-254.5 293.152,-247.5"/>
</g>
<!-- Node37 -->
<g id="node73" class="node"><title>Node37</title>
<a xlink:href="../../df/d92/classgaia_1_1ui_1_1_quick_contact_badge.html" target="_top" xlink:title="Displays a button with an image (instead of text) that can be pressed or clicked by the user...">
<polygon fill="white" stroke="black" points="344,-200.5 344,-221.5 486,-221.5 486,-200.5 344,-200.5"/>
<text text-anchor="middle" x="415" y="-208.5" font-family="Helvetica,sans-Serif" font-size="10.00">gaia::ui::QuickContactBadge</text>
</a>
</g>
<!-- Node35&#45;&gt;Node37 -->
<g id="edge72" class="edge"><title>Node35&#45;&gt;Node37</title>
<path fill="none" stroke="midnightblue" d="M286.324,-238.378C311.836,-232.95 341.311,-226.679 365.609,-221.509"/>
<polygon fill="midnightblue" stroke="midnightblue" points="285.447,-234.986 276.395,-240.49 286.904,-241.833 285.447,-234.986"/>
</g>
<!-- Node39 -->
<g id="node77" class="node"><title>Node39</title>
<a xlink:href="../../da/d52/classgaia_1_1ui_1_1_abs_seek_bar.html" target="_top" xlink:title="An AbsSeekBar is an extension of ProgressBar.">
<polygon fill="white" stroke="black" points="360.5,-160.5 360.5,-181.5 469.5,-181.5 469.5,-160.5 360.5,-160.5"/>
<text text-anchor="middle" x="415" y="-168.5" font-family="Helvetica,sans-Serif" font-size="10.00">gaia::ui::AbsSeekBar</text>
</a>
</g>
<!-- Node38&#45;&gt;Node39 -->
<g id="edge76" class="edge"><title>Node38&#45;&gt;Node39</title>
<path fill="none" stroke="midnightblue" d="M291.243,-184.166C313.696,-181.777 338.676,-179.12 360.28,-176.821"/>
<polygon fill="midnightblue" stroke="midnightblue" points="290.699,-180.704 281.125,-185.242 291.439,-187.664 290.699,-180.704"/>
</g>
<!-- Node40 -->
<g id="node79" class="node"><title>Node40</title>
<a xlink:href="../../dc/d5a/classgaia_1_1ui_1_1_rating_bar.html" target="_top" xlink:title="A RatingBar is an extension of SeekBar and ProgressBar that shows a rating in stars.">
<polygon fill="white" stroke="black" points="626,-180.5 626,-201.5 724,-201.5 724,-180.5 626,-180.5"/>
<text text-anchor="middle" x="675" y="-188.5" font-family="Helvetica,sans-Serif" font-size="10.00">gaia::ui::RatingBar</text>
</a>
</g>
<!-- Node39&#45;&gt;Node40 -->
<g id="edge78" class="edge"><title>Node39&#45;&gt;Node40</title>
<path fill="none" stroke="midnightblue" d="M479.516,-175.963C524.786,-179.445 584.396,-184.03 625.836,-187.218"/>
<polygon fill="midnightblue" stroke="midnightblue" points="479.744,-172.47 469.505,-175.193 479.207,-179.449 479.744,-172.47"/>
</g>
<!-- Node41 -->
<g id="node81" class="node"><title>Node41</title>
<a xlink:href="../../d0/dfe/classgaia_1_1ui_1_1_seek_bar.html" target="_top" xlink:title="A SeekBar is an extension of ProgressBar that adds a draggable thumb.">
<polygon fill="white" stroke="black" points="629,-140.5 629,-161.5 721,-161.5 721,-140.5 629,-140.5"/>
<text text-anchor="middle" x="675" y="-148.5" font-family="Helvetica,sans-Serif" font-size="10.00">gaia::ui::SeekBar</text>
</a>
</g>
<!-- Node39&#45;&gt;Node41 -->
<g id="edge80" class="edge"><title>Node39&#45;&gt;Node41</title>
<path fill="none" stroke="midnightblue" d="M479.748,-166.019C526.09,-162.455 587.369,-157.741 628.823,-154.552"/>
<polygon fill="midnightblue" stroke="midnightblue" points="479.207,-162.551 469.505,-166.807 479.744,-169.53 479.207,-162.551"/>
</g>
<!-- Node43 -->
<g id="node85" class="node"><title>Node43</title>
<a xlink:href="../../d8/ddd/classgaia_1_1ui_1_1_bubble_text_widget.html" target="_top" xlink:title="Represents a BubbleText widget.">
<polygon fill="white" stroke="black" points="348,-120.5 348,-141.5 482,-141.5 482,-120.5 348,-120.5"/>
<text text-anchor="middle" x="415" y="-128.5" font-family="Helvetica,sans-Serif" font-size="10.00">gaia::ui::BubbleTextWidget</text>
</a>
</g>
<!-- Node42&#45;&gt;Node43 -->
<g id="edge84" class="edge"><title>Node42&#45;&gt;Node43</title>
<path fill="none" stroke="midnightblue" d="M286.324,-103.622C311.836,-109.05 341.311,-115.321 365.609,-120.491"/>
<polygon fill="midnightblue" stroke="midnightblue" points="286.904,-100.167 276.395,-101.51 285.447,-107.014 286.904,-100.167"/>
</g>
<!-- Node44 -->
<g id="node87" class="node"><title>Node44</title>
<a xlink:href="../../dc/d51/classgaia_1_1ui_1_1_button.html" target="_top" xlink:title="Represents a push&#45;button widget.">
<polygon fill="white" stroke="black" points="373.5,-80.5 373.5,-101.5 456.5,-101.5 456.5,-80.5 373.5,-80.5"/>
<text text-anchor="middle" x="415" y="-88.5" font-family="Helvetica,sans-Serif" font-size="10.00">gaia::ui::Button</text>
</a>
</g>
<!-- Node42&#45;&gt;Node44 -->
<g id="edge86" class="edge"><title>Node42&#45;&gt;Node44</title>
<path fill="none" stroke="midnightblue" d="M289.692,-91C317.205,-91 348.758,-91 373.319,-91"/>
<polygon fill="midnightblue" stroke="midnightblue" points="289.369,-87.5001 279.368,-91 289.368,-94.5001 289.369,-87.5001"/>
</g>
<!-- Node46 -->
<g id="node91" class="node"><title>Node46</title>
<a xlink:href="../../d3/d9c/classgaia_1_1ui_1_1_edit_widget.html" target="_top" xlink:title="EditWidget is a thin veneer over TextWidget that configures itself to be editable.">
<polygon fill="white" stroke="black" points="364,-40.5 364,-61.5 466,-61.5 466,-40.5 364,-40.5"/>
<text text-anchor="middle" x="415" y="-48.5" font-family="Helvetica,sans-Serif" font-size="10.00">gaia::ui::EditWidget</text>
</a>
</g>
<!-- Node42&#45;&gt;Node46 -->
<g id="edge90" class="edge"><title>Node42&#45;&gt;Node46</title>
<path fill="none" stroke="midnightblue" d="M286.324,-78.378C311.836,-72.9499 341.311,-66.6785 365.609,-61.5087"/>
<polygon fill="midnightblue" stroke="midnightblue" points="285.447,-74.9859 276.395,-80.4905 286.904,-81.8327 285.447,-74.9859"/>
</g>
<!-- Node49 -->
<g id="node97" class="node"><title>Node49</title>
<a xlink:href="../../da/d2c/classgaia_1_1ui_1_1_footer_button.html" target="_top" xlink:title="The FooterButton can be pressed, or clicked, by the user to perform an action.">
<polygon fill="white" stroke="black" points="360,-0.5 360,-21.5 470,-21.5 470,-0.5 360,-0.5"/>
<text text-anchor="middle" x="415" y="-8.5" font-family="Helvetica,sans-Serif" font-size="10.00">gaia::ui::FooterButton</text>
</a>
</g>
<!-- Node42&#45;&gt;Node49 -->
<g id="edge96" class="edge"><title>Node42&#45;&gt;Node49</title>
<path fill="none" stroke="midnightblue" d="M250.754,-74.8206C271.421,-61.3934 302.591,-42.6713 332,-31 341.368,-27.2821 351.616,-24.1281 361.615,-21.5009"/>
<polygon fill="midnightblue" stroke="midnightblue" points="248.727,-71.9646 242.309,-80.3938 252.583,-77.8071 248.727,-71.9646"/>
</g>
<!-- Node45 -->
<g id="node89" class="node"><title>Node45</title>
<a xlink:href="../../de/d6f/classgaia_1_1ui_1_1_compound_button.html" target="_top" xlink:title="A button with two states, checked and unchecked.">
<polygon fill="white" stroke="red" points="610,-80.5 610,-101.5 740,-101.5 740,-80.5 610,-80.5"/>
<text text-anchor="middle" x="675" y="-88.5" font-family="Helvetica,sans-Serif" font-size="10.00">gaia::ui::CompoundButton</text>
</a>
</g>
<!-- Node44&#45;&gt;Node45 -->
<g id="edge88" class="edge"><title>Node44&#45;&gt;Node45</title>
<path fill="none" stroke="midnightblue" d="M466.857,-91C507.999,-91 565.744,-91 609.978,-91"/>
<polygon fill="midnightblue" stroke="midnightblue" points="466.774,-87.5001 456.773,-91 466.773,-94.5001 466.774,-87.5001"/>
</g>
<!-- Node47 -->
<g id="node93" class="node"><title>Node47</title>
<a xlink:href="../../d8/d8f/classgaia_1_1service_1_1_extract_edit_widget.html" target="_top" xlink:title="Specialization of EditWidget for showing and interacting with the extracted text in a full&#45;screen inp...">
<polygon fill="white" stroke="black" points="596,-40.5 596,-61.5 754,-61.5 754,-40.5 596,-40.5"/>
<text text-anchor="middle" x="675" y="-48.5" font-family="Helvetica,sans-Serif" font-size="10.00">gaia::service::ExtractEditWidget</text>
</a>
</g>
<!-- Node46&#45;&gt;Node47 -->
<g id="edge92" class="edge"><title>Node46&#45;&gt;Node47</title>
<path fill="none" stroke="midnightblue" d="M476.338,-51C512.068,-51 557.502,-51 595.901,-51"/>
<polygon fill="midnightblue" stroke="midnightblue" points="476.057,-47.5001 466.057,-51 476.057,-54.5001 476.057,-47.5001"/>
</g>
<!-- Node48 -->
<g id="node95" class="node"><title>Node48</title>
<a xlink:href="../../d5/d45/classgaia_1_1ui_1_1_auto_complete_edit_widget.html" target="_top" xlink:title="An editable TextView that shows completion suggestions automatically while the user is typing...">
<polygon fill="white" stroke="black" points="593,-0.5 593,-21.5 757,-21.5 757,-0.5 593,-0.5"/>
<text text-anchor="middle" x="675" y="-8.5" font-family="Helvetica,sans-Serif" font-size="10.00">gaia::ui::AutoCompleteEditWidget</text>
</a>
</g>
<!-- Node46&#45;&gt;Node48 -->
<g id="edge94" class="edge"><title>Node46&#45;&gt;Node48</title>
<path fill="none" stroke="midnightblue" d="M476.283,-40.3917C494.812,-37.2676 515.222,-33.9092 534,-31 554.768,-27.7825 577.289,-24.4967 598.11,-21.5427"/>
<polygon fill="midnightblue" stroke="midnightblue" points="475.481,-36.9777 466.206,-42.0988 476.65,-43.8794 475.481,-36.9777"/>
</g>
</g>
</svg>
