<?xml version="1.0" encoding="UTF-8" standalone="no"?>
<!DOCTYPE svg PUBLIC "-//W3C//DTD SVG 1.1//EN"
 "http://www.w3.org/Graphics/SVG/1.1/DTD/svg11.dtd">
<!-- Generated by graphviz version 2.26.3 (20100126.1600)
 -->
<!-- Title: G Pages: 1 -->
<svg width="463pt" height="204pt"
 viewBox="0.00 0.00 462.58 204.00" xmlns="http://www.w3.org/2000/svg" xmlns:xlink="http://www.w3.org/1999/xlink">
<g id="graph1" class="graph" transform="scale(1 1) rotate(0) translate(4 200)">
<title>G</title>
<polygon fill="white" stroke="white" points="-4,5 -4,-200 459.585,-200 459.585,5 -4,5"/>
<!-- Node1 -->
<g id="node1" class="node"><title>Node1</title>
<polygon fill="#bfbfbf" stroke="black" points="16.585,-174.5 16.585,-195.5 362.585,-195.5 362.585,-174.5 16.585,-174.5"/>
<text text-anchor="middle" x="189.585" y="-182.5" font-family="Helvetica,sans-Serif" font-size="10.00">/home/vilon_tao/gaia/sdk/include/gaia/core/appwidget/AppWidgetManager.h</text>
</g>
<!-- Node2 -->
<g id="node3" class="node"><title>Node2</title>
<a xlink:href="../../d3/dc5/_array_8h.html" target="_top" xlink:title="gaia/base/Array.h">
<polygon fill="white" stroke="black" points="200.085,-116.5 200.085,-137.5 293.085,-137.5 293.085,-116.5 200.085,-116.5"/>
<text text-anchor="middle" x="246.585" y="-124.5" font-family="Helvetica,sans-Serif" font-size="10.00">gaia/base/Array.h</text>
</a>
</g>
<!-- Node1&#45;&gt;Node2 -->
<g id="edge2" class="edge"><title>Node1&#45;&gt;Node2</title>
<path fill="none" stroke="midnightblue" d="M200.04,-174.362C208.155,-166.104 219.586,-154.472 229.089,-144.803"/>
<polygon fill="midnightblue" stroke="midnightblue" points="231.684,-147.156 236.197,-137.571 226.691,-142.25 231.684,-147.156"/>
</g>
<!-- Node9 -->
<g id="node19" class="node"><title>Node9</title>
<a xlink:href="../../d4/d7f/_vector_8h.html" target="_top" xlink:title="gaia/base/Vector.h">
<polygon fill="white" stroke="black" points="53.585,-116.5 53.585,-137.5 151.585,-137.5 151.585,-116.5 53.585,-116.5"/>
<text text-anchor="middle" x="102.585" y="-124.5" font-family="Helvetica,sans-Serif" font-size="10.00">gaia/base/Vector.h</text>
</a>
</g>
<!-- Node1&#45;&gt;Node9 -->
<g id="edge20" class="edge"><title>Node1&#45;&gt;Node9</title>
<path fill="none" stroke="midnightblue" d="M173.628,-174.362C160.628,-165.696 142.054,-153.313 127.158,-143.382"/>
<polygon fill="midnightblue" stroke="midnightblue" points="128.703,-140.206 118.441,-137.571 124.82,-146.03 128.703,-140.206"/>
</g>
<!-- Node3 -->
<g id="node5" class="node"><title>Node3</title>
<a xlink:href="../../d8/dae/_array_impl_8h.html" target="_top" xlink:title="gaia/base/ArrayImpl.h">
<polygon fill="white" stroke="black" points="148.585,-58.5 148.585,-79.5 260.585,-79.5 260.585,-58.5 148.585,-58.5"/>
<text text-anchor="middle" x="204.585" y="-66.5" font-family="Helvetica,sans-Serif" font-size="10.00">gaia/base/ArrayImpl.h</text>
</a>
</g>
<!-- Node2&#45;&gt;Node3 -->
<g id="edge4" class="edge"><title>Node2&#45;&gt;Node3</title>
<path fill="none" stroke="midnightblue" d="M238.882,-116.362C233.139,-108.431 225.142,-97.3885 218.315,-87.9606"/>
<polygon fill="midnightblue" stroke="midnightblue" points="220.94,-85.6173 212.24,-79.5707 215.27,-89.7229 220.94,-85.6173"/>
</g>
<!-- Node4 -->
<g id="node7" class="node"><title>Node4</title>
<polygon fill="white" stroke="#bfbfbf" points="170.585,-0.5 170.585,-21.5 238.585,-21.5 238.585,-0.5 170.585,-0.5"/>
<text text-anchor="middle" x="204.585" y="-8.5" font-family="Helvetica,sans-Serif" font-size="10.00">sys/types.h</text>
</g>
<!-- Node2&#45;&gt;Node4 -->
<g id="edge18" class="edge"><title>Node2&#45;&gt;Node4</title>
<path fill="none" stroke="midnightblue" d="M255.23,-116.319C265.364,-102.41 279.582,-77.5652 269.585,-58 262.753,-44.6285 250.144,-34.1829 237.837,-26.5706"/>
<polygon fill="midnightblue" stroke="midnightblue" points="239.435,-23.4523 229.017,-21.5271 235.96,-29.5292 239.435,-23.4523"/>
</g>
<!-- Node5 -->
<g id="node9" class="node"><title>Node5</title>
<a xlink:href="../../d1/d86/_type_helpers_8h.html" target="_top" xlink:title="gaia/base/TypeHelpers.h">
<polygon fill="white" stroke="black" points="316.085,-58.5 316.085,-79.5 441.085,-79.5 441.085,-58.5 316.085,-58.5"/>
<text text-anchor="middle" x="378.585" y="-66.5" font-family="Helvetica,sans-Serif" font-size="10.00">gaia/base/TypeHelpers.h</text>
</a>
</g>
<!-- Node2&#45;&gt;Node5 -->
<g id="edge8" class="edge"><title>Node2&#45;&gt;Node5</title>
<path fill="none" stroke="midnightblue" d="M270.489,-116.497C291.384,-107.315 321.941,-93.8889 345.24,-83.6516"/>
<polygon fill="midnightblue" stroke="midnightblue" points="346.665,-86.8483 354.413,-79.6212 343.849,-80.4397 346.665,-86.8483"/>
</g>
<!-- Node3&#45;&gt;Node4 -->
<g id="edge6" class="edge"><title>Node3&#45;&gt;Node4</title>
<path fill="none" stroke="midnightblue" d="M204.585,-58.3619C204.585,-50.9219 204.585,-40.7427 204.585,-31.7276"/>
<polygon fill="midnightblue" stroke="midnightblue" points="208.085,-31.5706 204.585,-21.5707 201.085,-31.5707 208.085,-31.5706"/>
</g>
<!-- Node5&#45;&gt;Node4 -->
<g id="edge14" class="edge"><title>Node5&#45;&gt;Node4</title>
<path fill="none" stroke="midnightblue" d="M347.075,-58.4966C318.708,-49.0411 276.834,-35.0829 245.813,-24.7428"/>
<polygon fill="midnightblue" stroke="midnightblue" points="246.748,-21.365 236.154,-21.5231 244.534,-28.0058 246.748,-21.365"/>
</g>
<!-- Node6 -->
<g id="node11" class="node"><title>Node6</title>
<polygon fill="white" stroke="#bfbfbf" points="288.085,-0.5 288.085,-21.5 337.085,-21.5 337.085,-0.5 288.085,-0.5"/>
<text text-anchor="middle" x="312.585" y="-8.5" font-family="Helvetica,sans-Serif" font-size="10.00">stdint.h</text>
</g>
<!-- Node5&#45;&gt;Node6 -->
<g id="edge10" class="edge"><title>Node5&#45;&gt;Node6</title>
<path fill="none" stroke="midnightblue" d="M366.48,-58.3619C356.897,-49.9408 343.321,-38.0105 332.192,-28.2308"/>
<polygon fill="midnightblue" stroke="midnightblue" points="334.436,-25.5427 324.614,-21.5707 329.815,-30.8009 334.436,-25.5427"/>
</g>
<!-- Node7 -->
<g id="node13" class="node"><title>Node7</title>
<polygon fill="white" stroke="#bfbfbf" points="354.085,-0.5 354.085,-21.5 403.085,-21.5 403.085,-0.5 354.085,-0.5"/>
<text text-anchor="middle" x="378.585" y="-8.5" font-family="Helvetica,sans-Serif" font-size="10.00">string.h</text>
</g>
<!-- Node5&#45;&gt;Node7 -->
<g id="edge12" class="edge"><title>Node5&#45;&gt;Node7</title>
<path fill="none" stroke="midnightblue" d="M378.585,-58.3619C378.585,-50.9219 378.585,-40.7427 378.585,-31.7276"/>
<polygon fill="midnightblue" stroke="midnightblue" points="382.085,-31.5706 378.585,-21.5707 375.085,-31.5707 382.085,-31.5706"/>
</g>
<!-- Node8 -->
<g id="node16" class="node"><title>Node8</title>
<polygon fill="white" stroke="#bfbfbf" points="420.085,-0.5 420.085,-21.5 455.085,-21.5 455.085,-0.5 420.085,-0.5"/>
<text text-anchor="middle" x="437.585" y="-8.5" font-family="Helvetica,sans-Serif" font-size="10.00">new</text>
</g>
<!-- Node5&#45;&gt;Node8 -->
<g id="edge16" class="edge"><title>Node5&#45;&gt;Node8</title>
<path fill="none" stroke="midnightblue" d="M389.406,-58.3619C397.806,-50.1043 409.639,-38.4725 419.475,-28.8029"/>
<polygon fill="midnightblue" stroke="midnightblue" points="422.154,-31.077 426.832,-21.5707 417.247,-26.0851 422.154,-31.077"/>
</g>
<!-- Node9&#45;&gt;Node4 -->
<g id="edge28" class="edge"><title>Node9&#45;&gt;Node4</title>
<path fill="none" stroke="midnightblue" d="M64.2236,-116.434C28.8987,-104.784 -15.1263,-84.1726 5.58496,-58 24.4814,-34.1207 107.426,-21.1388 160.086,-15.1729"/>
<polygon fill="midnightblue" stroke="midnightblue" points="160.624,-18.6351 170.186,-14.0722 159.866,-11.6763 160.624,-18.6351"/>
</g>
<!-- Node9&#45;&gt;Node5 -->
<g id="edge22" class="edge"><title>Node9&#45;&gt;Node5</title>
<path fill="none" stroke="midnightblue" d="M151.61,-116.698C198.13,-106.922 268.165,-92.2042 318.125,-81.7053"/>
<polygon fill="midnightblue" stroke="midnightblue" points="319.085,-85.0802 328.151,-79.5984 317.645,-78.2298 319.085,-85.0802"/>
</g>
<!-- Node10 -->
<g id="node22" class="node"><title>Node10</title>
<a xlink:href="../../dc/da9/_vector_impl_8h.html" target="_top" xlink:title="gaia/base/VectorImpl.h">
<polygon fill="white" stroke="black" points="14.085,-58.5 14.085,-79.5 131.085,-79.5 131.085,-58.5 14.085,-58.5"/>
<text text-anchor="middle" x="72.585" y="-66.5" font-family="Helvetica,sans-Serif" font-size="10.00">gaia/base/VectorImpl.h</text>
</a>
</g>
<!-- Node9&#45;&gt;Node10 -->
<g id="edge24" class="edge"><title>Node9&#45;&gt;Node10</title>
<path fill="none" stroke="midnightblue" d="M97.0825,-116.362C93.0651,-108.595 87.5035,-97.8426 82.6949,-88.5458"/>
<polygon fill="midnightblue" stroke="midnightblue" points="85.7556,-86.8448 78.0525,-79.5707 79.5381,-90.0608 85.7556,-86.8448"/>
</g>
<!-- Node10&#45;&gt;Node4 -->
<g id="edge26" class="edge"><title>Node10&#45;&gt;Node4</title>
<path fill="none" stroke="midnightblue" d="M96.4892,-58.4966C117.384,-49.3154 147.941,-35.8889 171.24,-25.6516"/>
<polygon fill="midnightblue" stroke="midnightblue" points="172.665,-28.8483 180.413,-21.6212 169.849,-22.4397 172.665,-28.8483"/>
</g>
</g>
</svg>
