<?xml version="1.0" encoding="UTF-8" standalone="no"?>
<!DOCTYPE svg PUBLIC "-//W3C//DTD SVG 1.1//EN"
 "http://www.w3.org/Graphics/SVG/1.1/DTD/svg11.dtd">
<!-- Generated by graphviz version 2.26.3 (20100126.1600)
 -->
<!-- Title: G Pages: 1 -->
<svg width="140pt" height="146pt"
 viewBox="0.00 0.00 140.00 146.00" xmlns="http://www.w3.org/2000/svg" xmlns:xlink="http://www.w3.org/1999/xlink">
<g id="graph1" class="graph" transform="scale(1 1) rotate(0) translate(4 142)">
<title>G</title>
<polygon fill="white" stroke="white" points="-4,5 -4,-142 137,-142 137,5 -4,5"/>
<!-- Node1 -->
<g id="node1" class="node"><title>Node1</title>
<polygon fill="#bfbfbf" stroke="black" points="2.5,-0.5 2.5,-21.5 129.5,-21.5 129.5,-0.5 2.5,-0.5"/>
<text text-anchor="middle" x="66" y="-8.5" font-family="Helvetica,sans-Serif" font-size="10.00">gaia::text::SpannedString</text>
</g>
<!-- Node2 -->
<g id="node2" class="node"><title>Node2</title>
<a xlink:href="../../d3/d76/classgaia_1_1text_1_1_spanned.html" target="_top" xlink:title="This is the interface for text that has markup objects attached to ranges of it.">
<polygon fill="white" stroke="black" points="15.5,-58.5 15.5,-79.5 116.5,-79.5 116.5,-58.5 15.5,-58.5"/>
<text text-anchor="middle" x="66" y="-66.5" font-family="Helvetica,sans-Serif" font-size="10.00">gaia::text::Spanned</text>
</a>
</g>
<!-- Node2&#45;&gt;Node1 -->
<g id="edge2" class="edge"><title>Node2&#45;&gt;Node1</title>
<path fill="none" stroke="midnightblue" d="M66,-48.1906C66,-39.1684 66,-28.9941 66,-21.5707"/>
<polygon fill="midnightblue" stroke="midnightblue" points="62.5001,-48.3619 66,-58.3619 69.5001,-48.3619 62.5001,-48.3619"/>
</g>
<!-- Node3 -->
<g id="node4" class="node"><title>Node3</title>
<a xlink:href="../../d1/d0f/classgaia_1_1base_1_1_char_sequence.html" target="_top" xlink:title="This interface represents an ordered set of characters and defines the methods to probe them...">
<polygon fill="white" stroke="black" points="0,-116.5 0,-137.5 132,-137.5 132,-116.5 0,-116.5"/>
<text text-anchor="middle" x="66" y="-124.5" font-family="Helvetica,sans-Serif" font-size="10.00">gaia::base::CharSequence</text>
</a>
</g>
<!-- Node3&#45;&gt;Node2 -->
<g id="edge4" class="edge"><title>Node3&#45;&gt;Node2</title>
<path fill="none" stroke="midnightblue" d="M66,-106.191C66,-97.1684 66,-86.9941 66,-79.5707"/>
<polygon fill="midnightblue" stroke="midnightblue" points="62.5001,-106.362 66,-116.362 69.5001,-106.362 62.5001,-106.362"/>
</g>
</g>
</svg>
