<?xml version="1.0" encoding="UTF-8" standalone="no"?>
<!DOCTYPE svg PUBLIC "-//W3C//DTD SVG 1.1//EN"
 "http://www.w3.org/Graphics/SVG/1.1/DTD/svg11.dtd">
<!-- Generated by graphviz version 2.26.3 (20100126.1600)
 -->
<!-- Title: G Pages: 1 -->
<svg width="2306pt" height="88pt"
 viewBox="0.00 0.00 2306.00 88.00" xmlns="http://www.w3.org/2000/svg" xmlns:xlink="http://www.w3.org/1999/xlink">
<g id="graph1" class="graph" transform="scale(1 1) rotate(0) translate(4 84)">
<title>G</title>
<polygon fill="white" stroke="white" points="-4,5 -4,-84 2303,-84 2303,5 -4,5"/>
<!-- Node1 -->
<g id="node1" class="node"><title>Node1</title>
<polygon fill="#bfbfbf" stroke="black" points="952.5,-58.5 952.5,-79.5 1311.5,-79.5 1311.5,-58.5 952.5,-58.5"/>
<text text-anchor="middle" x="1132" y="-66.5" font-family="Helvetica,sans-Serif" font-size="10.00">/home/vilon_tao/gaia/sdk/include/gaia/connectivity/bluetooth/BluetoothProfile.h</text>
</g>
<!-- Node2 -->
<g id="node3" class="node"><title>Node2</title>
<a xlink:href="../../db/ded/_bluetooth_a2dp_8h.html" target="_top" xlink:title="/home/vilon_tao/gaia/sdk/include/gaia/connectivity/bluetooth/BluetoothA2dp.h">
<polygon fill="white" stroke="black" points="-0.5,-0.5 -0.5,-21.5 352.5,-21.5 352.5,-0.5 -0.5,-0.5"/>
<text text-anchor="middle" x="176" y="-8.5" font-family="Helvetica,sans-Serif" font-size="10.00">/home/vilon_tao/gaia/sdk/include/gaia/connectivity/bluetooth/BluetoothA2dp.h</text>
</a>
</g>
<!-- Node1&#45;&gt;Node2 -->
<g id="edge2" class="edge"><title>Node1&#45;&gt;Node2</title>
<path fill="none" stroke="midnightblue" d="M948.652,-57.8764C775.882,-47.3945 518.909,-31.8041 349.449,-21.5231"/>
<polygon fill="midnightblue" stroke="midnightblue" points="948.682,-61.3845 958.876,-58.4966 949.106,-54.3974 948.682,-61.3845"/>
</g>
<!-- Node3 -->
<g id="node5" class="node"><title>Node3</title>
<a xlink:href="../../d0/df7/_bluetooth_adapter_8h.html" target="_top" xlink:title="/home/vilon_tao/gaia/sdk/include/gaia/connectivity/bluetooth/BluetoothAdapter.h">
<polygon fill="white" stroke="black" points="369.5,-0.5 369.5,-21.5 734.5,-21.5 734.5,-0.5 369.5,-0.5"/>
<text text-anchor="middle" x="552" y="-8.5" font-family="Helvetica,sans-Serif" font-size="10.00">/home/vilon_tao/gaia/sdk/include/gaia/connectivity/bluetooth/BluetoothAdapter.h</text>
</a>
</g>
<!-- Node1&#45;&gt;Node3 -->
<g id="edge4" class="edge"><title>Node1&#45;&gt;Node3</title>
<path fill="none" stroke="midnightblue" d="M1016.98,-57.4984C912.226,-47.0226 758.812,-31.6812 657.231,-21.5231"/>
<polygon fill="midnightblue" stroke="midnightblue" points="1016.67,-60.9841 1026.97,-58.4966 1017.36,-54.0189 1016.67,-60.9841"/>
</g>
<!-- Node4 -->
<g id="node7" class="node"><title>Node4</title>
<a xlink:href="../../d8/d98/_bluetooth_headset_8h.html" target="_top" xlink:title="/home/vilon_tao/gaia/sdk/include/gaia/connectivity/bluetooth/BluetoothHeadset.h">
<polygon fill="white" stroke="black" points="752,-0.5 752,-21.5 1120,-21.5 1120,-0.5 752,-0.5"/>
<text text-anchor="middle" x="936" y="-8.5" font-family="Helvetica,sans-Serif" font-size="10.00">/home/vilon_tao/gaia/sdk/include/gaia/connectivity/bluetooth/BluetoothHeadset.h</text>
</a>
</g>
<!-- Node1&#45;&gt;Node4 -->
<g id="edge6" class="edge"><title>Node1&#45;&gt;Node4</title>
<path fill="none" stroke="midnightblue" d="M1086.54,-55.5464C1051.52,-45.1857 1003.81,-31.0668 971.561,-21.5231"/>
<polygon fill="midnightblue" stroke="midnightblue" points="1085.92,-59.0152 1096.51,-58.4966 1087.91,-52.3029 1085.92,-59.0152"/>
</g>
<!-- Node5 -->
<g id="node9" class="node"><title>Node5</title>
<a xlink:href="../../d8/da0/_bluetooth_input_device_8h.html" target="_top" xlink:title="/home/vilon_tao/gaia/sdk/include/gaia/connectivity/bluetooth/BluetoothInputDevice.h">
<polygon fill="white" stroke="black" points="1137.5,-0.5 1137.5,-21.5 1520.5,-21.5 1520.5,-0.5 1137.5,-0.5"/>
<text text-anchor="middle" x="1329" y="-8.5" font-family="Helvetica,sans-Serif" font-size="10.00">/home/vilon_tao/gaia/sdk/include/gaia/connectivity/bluetooth/BluetoothInputDevice.h</text>
</a>
</g>
<!-- Node1&#45;&gt;Node5 -->
<g id="edge8" class="edge"><title>Node1&#45;&gt;Node5</title>
<path fill="none" stroke="midnightblue" d="M1177.7,-55.5464C1212.89,-45.1857 1260.84,-31.0668 1293.26,-21.5231"/>
<polygon fill="midnightblue" stroke="midnightblue" points="1176.28,-52.3148 1167.68,-58.4966 1178.26,-59.0298 1176.28,-52.3148"/>
</g>
<!-- Node6 -->
<g id="node11" class="node"><title>Node6</title>
<a xlink:href="../../d1/de4/_bluetooth_pan_8h.html" target="_top" xlink:title="/home/vilon_tao/gaia/sdk/include/gaia/connectivity/bluetooth/BluetoothPan.h">
<polygon fill="white" stroke="black" points="1538,-0.5 1538,-21.5 1886,-21.5 1886,-0.5 1538,-0.5"/>
<text text-anchor="middle" x="1712" y="-8.5" font-family="Helvetica,sans-Serif" font-size="10.00">/home/vilon_tao/gaia/sdk/include/gaia/connectivity/bluetooth/BluetoothPan.h</text>
</a>
</g>
<!-- Node1&#45;&gt;Node6 -->
<g id="edge10" class="edge"><title>Node1&#45;&gt;Node6</title>
<path fill="none" stroke="midnightblue" d="M1247.02,-57.4984C1351.77,-47.0226 1505.19,-31.6812 1606.77,-21.5231"/>
<polygon fill="midnightblue" stroke="midnightblue" points="1246.64,-54.0189 1237.03,-58.4966 1247.33,-60.9841 1246.64,-54.0189"/>
</g>
<!-- Node7 -->
<g id="node13" class="node"><title>Node7</title>
<a xlink:href="../../dc/dcf/_bt_profile_service_listener_8h.html" target="_top" xlink:title="/home/vilon_tao/gaia/sdk/include/gaia/connectivity/bluetooth/BtProfileServiceListener.h">
<polygon fill="white" stroke="black" points="1903.5,-0.5 1903.5,-21.5 2298.5,-21.5 2298.5,-0.5 1903.5,-0.5"/>
<text text-anchor="middle" x="2101" y="-8.5" font-family="Helvetica,sans-Serif" font-size="10.00">/home/vilon_tao/gaia/sdk/include/gaia/connectivity/bluetooth/BtProfileServiceListener.h</text>
</a>
</g>
<!-- Node1&#45;&gt;Node7 -->
<g id="edge12" class="edge"><title>Node1&#45;&gt;Node7</title>
<path fill="none" stroke="midnightblue" d="M1317.58,-57.892C1492.7,-47.41 1753.34,-31.8092 1925.19,-21.5231"/>
<polygon fill="midnightblue" stroke="midnightblue" points="1317.25,-54.4053 1307.48,-58.4966 1317.67,-61.3928 1317.25,-54.4053"/>
</g>
</g>
</svg>
