<?xml version="1.0" encoding="UTF-8" standalone="no"?>
<!DOCTYPE svg PUBLIC "-//W3C//DTD SVG 1.1//EN"
 "http://www.w3.org/Graphics/SVG/1.1/DTD/svg11.dtd">
<!-- Generated by graphviz version 2.26.3 (20100126.1600)
 -->
<!-- Title: G Pages: 1 -->
<svg width="314pt" height="146pt"
 viewBox="0.00 0.00 314.00 146.00" xmlns="http://www.w3.org/2000/svg" xmlns:xlink="http://www.w3.org/1999/xlink">
<g id="graph1" class="graph" transform="scale(1 1) rotate(0) translate(4 142)">
<title>G</title>
<polygon fill="white" stroke="white" points="-4,5 -4,-142 311,-142 311,5 -4,5"/>
<!-- Node1 -->
<g id="node1" class="node"><title>Node1</title>
<polygon fill="#bfbfbf" stroke="black" points="-0.5,-116.5 -0.5,-137.5 306.5,-137.5 306.5,-116.5 -0.5,-116.5"/>
<text text-anchor="middle" x="153" y="-124.5" font-family="Helvetica,sans-Serif" font-size="10.00">/home/vilon_tao/gaia/sdk/include/gaia/telephony/GsmCellIdentity.h</text>
</g>
<!-- Node2 -->
<g id="node3" class="node"><title>Node2</title>
<a xlink:href="../../d7/dd2/_cell_identity_8h.html" target="_top" xlink:title="gaia/telephony/CellIdentity.h">
<polygon fill="white" stroke="black" points="83,-58.5 83,-79.5 223,-79.5 223,-58.5 83,-58.5"/>
<text text-anchor="middle" x="153" y="-66.5" font-family="Helvetica,sans-Serif" font-size="10.00">gaia/telephony/CellIdentity.h</text>
</a>
</g>
<!-- Node1&#45;&gt;Node2 -->
<g id="edge2" class="edge"><title>Node1&#45;&gt;Node2</title>
<path fill="none" stroke="midnightblue" d="M153,-116.362C153,-108.922 153,-98.7427 153,-89.7276"/>
<polygon fill="midnightblue" stroke="midnightblue" points="156.5,-89.5706 153,-79.5707 149.5,-89.5707 156.5,-89.5706"/>
</g>
<!-- Node3 -->
<g id="node5" class="node"><title>Node3</title>
<polygon fill="white" stroke="#bfbfbf" points="83,-0.5 83,-21.5 129,-21.5 129,-0.5 83,-0.5"/>
<text text-anchor="middle" x="106" y="-8.5" font-family="Helvetica,sans-Serif" font-size="10.00">cstdint</text>
</g>
<!-- Node2&#45;&gt;Node3 -->
<g id="edge4" class="edge"><title>Node2&#45;&gt;Node3</title>
<path fill="none" stroke="midnightblue" d="M144.379,-58.3619C137.82,-50.2678 128.634,-38.9318 120.894,-29.3796"/>
<polygon fill="midnightblue" stroke="midnightblue" points="123.581,-27.1364 114.566,-21.5707 118.142,-31.5436 123.581,-27.1364"/>
</g>
<!-- Node4 -->
<g id="node7" class="node"><title>Node4</title>
<a xlink:href="../../d1/dd0/gmacros_8h.html" target="_top" xlink:title="gaia/base/gmacros.h">
<polygon fill="white" stroke="black" points="146.5,-0.5 146.5,-21.5 253.5,-21.5 253.5,-0.5 146.5,-0.5"/>
<text text-anchor="middle" x="200" y="-8.5" font-family="Helvetica,sans-Serif" font-size="10.00">gaia/base/gmacros.h</text>
</a>
</g>
<!-- Node2&#45;&gt;Node4 -->
<g id="edge6" class="edge"><title>Node2&#45;&gt;Node4</title>
<path fill="none" stroke="midnightblue" d="M161.621,-58.3619C168.18,-50.2678 177.366,-38.9318 185.106,-29.3796"/>
<polygon fill="midnightblue" stroke="midnightblue" points="187.858,-31.5436 191.434,-21.5707 182.419,-27.1364 187.858,-31.5436"/>
</g>
</g>
</svg>
