<?xml version="1.0" encoding="UTF-8" standalone="no"?>
<!DOCTYPE svg PUBLIC "-//W3C//DTD SVG 1.1//EN"
 "http://www.w3.org/Graphics/SVG/1.1/DTD/svg11.dtd">
<!-- Generated by graphviz version 2.26.3 (20100126.1600)
 -->
<!-- Title: G Pages: 1 -->
<svg width="352pt" height="146pt"
 viewBox="0.00 0.00 352.00 146.00" xmlns="http://www.w3.org/2000/svg" xmlns:xlink="http://www.w3.org/1999/xlink">
<g id="graph1" class="graph" transform="scale(1 1) rotate(0) translate(4 142)">
<title>G</title>
<polygon fill="white" stroke="white" points="-4,5 -4,-142 349,-142 349,5 -4,5"/>
<!-- Node1 -->
<g id="node1" class="node"><title>Node1</title>
<polygon fill="#bfbfbf" stroke="black" points="-0.5,-116.5 -0.5,-137.5 344.5,-137.5 344.5,-116.5 -0.5,-116.5"/>
<text text-anchor="middle" x="172" y="-124.5" font-family="Helvetica,sans-Serif" font-size="10.00">/home/vilon_tao/gaia/sdk/include/gaia/ui/preference/PreferenceHeaderList.h</text>
</g>
<!-- Node2 -->
<g id="node3" class="node"><title>Node2</title>
<a xlink:href="../../db/d91/_preference_header_8h.html" target="_top" xlink:title="gaia/ui/preference/PreferenceHeader.h">
<polygon fill="white" stroke="black" points="80,-58.5 80,-79.5 264,-79.5 264,-58.5 80,-58.5"/>
<text text-anchor="middle" x="172" y="-66.5" font-family="Helvetica,sans-Serif" font-size="10.00">gaia/ui/preference/PreferenceHeader.h</text>
</a>
</g>
<!-- Node1&#45;&gt;Node2 -->
<g id="edge2" class="edge"><title>Node1&#45;&gt;Node2</title>
<path fill="none" stroke="midnightblue" d="M172,-116.362C172,-108.922 172,-98.7427 172,-89.7276"/>
<polygon fill="midnightblue" stroke="midnightblue" points="175.5,-89.5706 172,-79.5707 168.5,-89.5707 175.5,-89.5706"/>
</g>
<!-- Node3 -->
<g id="node5" class="node"><title>Node3</title>
<polygon fill="white" stroke="#bfbfbf" points="39.5,-0.5 39.5,-21.5 88.5,-21.5 88.5,-0.5 39.5,-0.5"/>
<text text-anchor="middle" x="64" y="-8.5" font-family="Helvetica,sans-Serif" font-size="10.00">stdint.h</text>
</g>
<!-- Node1&#45;&gt;Node3 -->
<g id="edge10" class="edge"><title>Node1&#45;&gt;Node3</title>
<path fill="none" stroke="midnightblue" d="M125.564,-116.428C105.581,-109.451 83.89,-98.1253 71,-80 61.2131,-66.2382 60.0487,-46.8455 60.9966,-32.1222"/>
<polygon fill="midnightblue" stroke="midnightblue" points="64.502,-32.2452 62.0254,-21.9439 57.5374,-31.5412 64.502,-32.2452"/>
</g>
<!-- Node4 -->
<g id="node7" class="node"><title>Node4</title>
<a xlink:href="../../d1/dd0/gmacros_8h.html" target="_top" xlink:title="gaia/base/gmacros.h">
<polygon fill="white" stroke="black" points="178.5,-0.5 178.5,-21.5 285.5,-21.5 285.5,-0.5 178.5,-0.5"/>
<text text-anchor="middle" x="232" y="-8.5" font-family="Helvetica,sans-Serif" font-size="10.00">gaia/base/gmacros.h</text>
</a>
</g>
<!-- Node1&#45;&gt;Node4 -->
<g id="edge8" class="edge"><title>Node1&#45;&gt;Node4</title>
<path fill="none" stroke="midnightblue" d="M220.865,-116.453C240.567,-109.543 261.354,-98.2642 273,-80 284.037,-62.6911 268.793,-42.4532 253.861,-28.3896"/>
<polygon fill="midnightblue" stroke="midnightblue" points="256.035,-25.6402 246.222,-21.6463 251.403,-30.8881 256.035,-25.6402"/>
</g>
<!-- Node2&#45;&gt;Node3 -->
<g id="edge4" class="edge"><title>Node2&#45;&gt;Node3</title>
<path fill="none" stroke="midnightblue" d="M152.442,-58.4966C135.802,-49.5602 111.673,-36.602 92.8197,-26.4772"/>
<polygon fill="midnightblue" stroke="midnightblue" points="94.2434,-23.2691 83.7774,-21.6212 90.9314,-29.436 94.2434,-23.2691"/>
</g>
<!-- Node2&#45;&gt;Node4 -->
<g id="edge6" class="edge"><title>Node2&#45;&gt;Node4</title>
<path fill="none" stroke="midnightblue" d="M183.005,-58.3619C191.547,-50.1043 203.58,-38.4725 213.583,-28.8029"/>
<polygon fill="midnightblue" stroke="midnightblue" points="216.308,-31.0374 221.065,-21.5707 211.442,-26.0044 216.308,-31.0374"/>
</g>
</g>
</svg>
