<?xml version="1.0" encoding="UTF-8" standalone="no"?>
<!DOCTYPE svg PUBLIC "-//W3C//DTD SVG 1.1//EN"
 "http://www.w3.org/Graphics/SVG/1.1/DTD/svg11.dtd">
<!-- Generated by graphviz version 2.26.3 (20100126.1600)
 -->
<!-- Title: G Pages: 1 -->
<svg width="260pt" height="204pt"
 viewBox="0.00 0.00 260.00 204.00" xmlns="http://www.w3.org/2000/svg" xmlns:xlink="http://www.w3.org/1999/xlink">
<g id="graph1" class="graph" transform="scale(1 1) rotate(0) translate(4 200)">
<title>G</title>
<polygon fill="white" stroke="white" points="-4,5 -4,-200 257,-200 257,5 -4,5"/>
<!-- Node1 -->
<g id="node1" class="node"><title>Node1</title>
<polygon fill="#bfbfbf" stroke="black" points="0,-174.5 0,-195.5 252,-195.5 252,-174.5 0,-174.5"/>
<text text-anchor="middle" x="126" y="-182.5" font-family="Helvetica,sans-Serif" font-size="10.00">/home/vilon_tao/gaia/sdk/include/gaia/net/HttpEntity.h</text>
</g>
<!-- Node2 -->
<g id="node3" class="node"><title>Node2</title>
<a xlink:href="../../df/d29/_http_types_8h.html" target="_top" xlink:title="gaia/net/HttpTypes.h">
<polygon fill="white" stroke="black" points="72,-116.5 72,-137.5 180,-137.5 180,-116.5 72,-116.5"/>
<text text-anchor="middle" x="126" y="-124.5" font-family="Helvetica,sans-Serif" font-size="10.00">gaia/net/HttpTypes.h</text>
</a>
</g>
<!-- Node1&#45;&gt;Node2 -->
<g id="edge2" class="edge"><title>Node1&#45;&gt;Node2</title>
<path fill="none" stroke="midnightblue" d="M126,-174.362C126,-166.922 126,-156.743 126,-147.728"/>
<polygon fill="midnightblue" stroke="midnightblue" points="129.5,-147.571 126,-137.571 122.5,-147.571 129.5,-147.571"/>
</g>
<!-- Node3 -->
<g id="node5" class="node"><title>Node3</title>
<a xlink:href="../../d1/d88/_net_types_8h.html" target="_top" xlink:title="gaia/net/NetTypes.h">
<polygon fill="white" stroke="black" points="73.5,-58.5 73.5,-79.5 178.5,-79.5 178.5,-58.5 73.5,-58.5"/>
<text text-anchor="middle" x="126" y="-66.5" font-family="Helvetica,sans-Serif" font-size="10.00">gaia/net/NetTypes.h</text>
</a>
</g>
<!-- Node2&#45;&gt;Node3 -->
<g id="edge4" class="edge"><title>Node2&#45;&gt;Node3</title>
<path fill="none" stroke="midnightblue" d="M126,-116.362C126,-108.922 126,-98.7427 126,-89.7276"/>
<polygon fill="midnightblue" stroke="midnightblue" points="129.5,-89.5706 126,-79.5707 122.5,-89.5707 129.5,-89.5706"/>
</g>
<!-- Node4 -->
<g id="node7" class="node"><title>Node4</title>
<polygon fill="white" stroke="#bfbfbf" points="92,-0.5 92,-21.5 160,-21.5 160,-0.5 92,-0.5"/>
<text text-anchor="middle" x="126" y="-8.5" font-family="Helvetica,sans-Serif" font-size="10.00">sys/types.h</text>
</g>
<!-- Node3&#45;&gt;Node4 -->
<g id="edge6" class="edge"><title>Node3&#45;&gt;Node4</title>
<path fill="none" stroke="midnightblue" d="M126,-58.3619C126,-50.9219 126,-40.7427 126,-31.7276"/>
<polygon fill="midnightblue" stroke="midnightblue" points="129.5,-31.5706 126,-21.5707 122.5,-31.5707 129.5,-31.5706"/>
</g>
</g>
</svg>
