<?xml version="1.0" encoding="UTF-8" standalone="no"?>
<!DOCTYPE svg PUBLIC "-//W3C//DTD SVG 1.1//EN"
 "http://www.w3.org/Graphics/SVG/1.1/DTD/svg11.dtd">
<!-- Generated by graphviz version 2.26.3 (20100126.1600)
 -->
<!-- Title: G Pages: 1 -->
<svg width="372pt" height="146pt"
 viewBox="0.00 0.00 372.00 146.00" xmlns="http://www.w3.org/2000/svg" xmlns:xlink="http://www.w3.org/1999/xlink">
<g id="graph1" class="graph" transform="scale(1 1) rotate(0) translate(4 142)">
<title>G</title>
<polygon fill="white" stroke="white" points="-4,5 -4,-142 369,-142 369,5 -4,5"/>
<!-- Node1 -->
<g id="node1" class="node"><title>Node1</title>
<polygon fill="#bfbfbf" stroke="black" points="-0.5,-116.5 -0.5,-137.5 364.5,-137.5 364.5,-116.5 -0.5,-116.5"/>
<text text-anchor="middle" x="182" y="-124.5" font-family="Helvetica,sans-Serif" font-size="10.00">/home/vilon_tao/gaia/sdk/include/gaia/connectivity/bluetooth/BluetoothAdapter.h</text>
</g>
<!-- Node2 -->
<g id="node3" class="node"><title>Node2</title>
<polygon fill="white" stroke="#bfbfbf" points="42.5,-0.5 42.5,-21.5 91.5,-21.5 91.5,-0.5 42.5,-0.5"/>
<text text-anchor="middle" x="67" y="-8.5" font-family="Helvetica,sans-Serif" font-size="10.00">stdint.h</text>
</g>
<!-- Node1&#45;&gt;Node2 -->
<g id="edge2" class="edge"><title>Node1&#45;&gt;Node2</title>
<path fill="none" stroke="midnightblue" d="M121.141,-116.465C100.421,-109.653 79.3858,-98.4423 67,-80 57.6331,-66.0527 58.5295,-46.6778 61.2551,-32.0084"/>
<polygon fill="midnightblue" stroke="midnightblue" points="64.7547,-32.4026 63.5563,-21.8757 57.9285,-30.8523 64.7547,-32.4026"/>
</g>
<!-- Node3 -->
<g id="node5" class="node"><title>Node3</title>
<a xlink:href="../../d1/dd0/gmacros_8h.html" target="_top" xlink:title="gaia/base/gmacros.h">
<polygon fill="white" stroke="black" points="195.5,-0.5 195.5,-21.5 302.5,-21.5 302.5,-0.5 195.5,-0.5"/>
<text text-anchor="middle" x="249" y="-8.5" font-family="Helvetica,sans-Serif" font-size="10.00">gaia/base/gmacros.h</text>
</a>
</g>
<!-- Node1&#45;&gt;Node3 -->
<g id="edge4" class="edge"><title>Node1&#45;&gt;Node3</title>
<path fill="none" stroke="midnightblue" d="M242.859,-116.465C263.579,-109.653 284.614,-98.4423 297,-80 309.026,-62.0937 291.162,-41.862 273.916,-27.9598"/>
<polygon fill="midnightblue" stroke="midnightblue" points="275.716,-24.9327 265.632,-21.6815 271.488,-30.5114 275.716,-24.9327"/>
</g>
<!-- Node4 -->
<g id="node7" class="node"><title>Node4</title>
<a xlink:href="../../d6/dcc/_bluetooth_profile_8h.html" target="_top" xlink:title="gaia/connectivity/bluetooth/BluetoothProfile.h">
<polygon fill="white" stroke="black" points="75.5,-58.5 75.5,-79.5 288.5,-79.5 288.5,-58.5 75.5,-58.5"/>
<text text-anchor="middle" x="182" y="-66.5" font-family="Helvetica,sans-Serif" font-size="10.00">gaia/connectivity/bluetooth/BluetoothProfile.h</text>
</a>
</g>
<!-- Node1&#45;&gt;Node4 -->
<g id="edge6" class="edge"><title>Node1&#45;&gt;Node4</title>
<path fill="none" stroke="midnightblue" d="M182,-116.362C182,-108.922 182,-98.7427 182,-89.7276"/>
<polygon fill="midnightblue" stroke="midnightblue" points="185.5,-89.5706 182,-79.5707 178.5,-89.5707 185.5,-89.5706"/>
</g>
<!-- Node4&#45;&gt;Node2 -->
<g id="edge8" class="edge"><title>Node4&#45;&gt;Node2</title>
<path fill="none" stroke="midnightblue" d="M161.174,-58.4966C143.294,-49.4786 117.293,-36.3649 97.139,-26.2006"/>
<polygon fill="midnightblue" stroke="midnightblue" points="98.5641,-22.9994 88.0593,-21.6212 95.4119,-29.2495 98.5641,-22.9994"/>
</g>
<!-- Node4&#45;&gt;Node3 -->
<g id="edge10" class="edge"><title>Node4&#45;&gt;Node3</title>
<path fill="none" stroke="midnightblue" d="M194.289,-58.3619C204.017,-49.9408 217.798,-38.0105 229.095,-28.2308"/>
<polygon fill="midnightblue" stroke="midnightblue" points="231.519,-30.7619 236.789,-21.5707 226.938,-25.4695 231.519,-30.7619"/>
</g>
</g>
</svg>
