<?xml version="1.0" encoding="UTF-8" standalone="no"?>
<!DOCTYPE svg PUBLIC "-//W3C//DTD SVG 1.1//EN"
 "http://www.w3.org/Graphics/SVG/1.1/DTD/svg11.dtd">
<!-- Generated by graphviz version 2.26.3 (20100126.1600)
 -->
<!-- Title: G Pages: 1 -->
<svg width="2269pt" height="204pt"
 viewBox="0.00 0.00 2269.00 204.00" xmlns="http://www.w3.org/2000/svg" xmlns:xlink="http://www.w3.org/1999/xlink">
<g id="graph1" class="graph" transform="scale(1 1) rotate(0) translate(4 200)">
<title>G</title>
<polygon fill="white" stroke="white" points="-4,5 -4,-200 2266,-200 2266,5 -4,5"/>
<!-- Node1 -->
<g id="node1" class="node"><title>Node1</title>
<polygon fill="#bfbfbf" stroke="black" points="182.5,-174.5 182.5,-195.5 523.5,-195.5 523.5,-174.5 182.5,-174.5"/>
<text text-anchor="middle" x="353" y="-182.5" font-family="Helvetica,sans-Serif" font-size="10.00">/home/vilon_tao/gaia/sdk/include/gaia/media/videoeditor/MediaProperties.h</text>
</g>
<!-- Node2 -->
<g id="node3" class="node"><title>Node2</title>
<a xlink:href="../../d5/d7e/_audio_track_v_e_8h.html" target="_top" xlink:title="/home/vilon_tao/gaia/sdk/include/gaia/media/videoeditor/AudioTrackVE.h">
<polygon fill="white" stroke="black" points="0,-116.5 0,-137.5 334,-137.5 334,-116.5 0,-116.5"/>
<text text-anchor="middle" x="167" y="-124.5" font-family="Helvetica,sans-Serif" font-size="10.00">/home/vilon_tao/gaia/sdk/include/gaia/media/videoeditor/AudioTrackVE.h</text>
</a>
</g>
<!-- Node1&#45;&gt;Node2 -->
<g id="edge2" class="edge"><title>Node1&#45;&gt;Node2</title>
<path fill="none" stroke="midnightblue" d="M309.427,-171.413C276.242,-161.065 231.221,-147.026 200.746,-137.523"/>
<polygon fill="midnightblue" stroke="midnightblue" points="308.728,-174.861 319.317,-174.497 310.812,-168.178 308.728,-174.861"/>
</g>
<!-- Node3 -->
<g id="node5" class="node"><title>Node3</title>
<a xlink:href="../../de/de6/_media_artist_native_helper_8h.html" target="_top" xlink:title="/home/vilon_tao/gaia/sdk/include/gaia/media/videoeditor/MediaArtistNativeHelper.h">
<polygon fill="white" stroke="black" points="351.5,-116.5 351.5,-137.5 728.5,-137.5 728.5,-116.5 351.5,-116.5"/>
<text text-anchor="middle" x="540" y="-124.5" font-family="Helvetica,sans-Serif" font-size="10.00">/home/vilon_tao/gaia/sdk/include/gaia/media/videoeditor/MediaArtistNativeHelper.h</text>
</a>
</g>
<!-- Node1&#45;&gt;Node3 -->
<g id="edge4" class="edge"><title>Node1&#45;&gt;Node3</title>
<path fill="none" stroke="midnightblue" d="M396.807,-171.413C430.171,-161.065 475.434,-147.026 506.072,-137.523"/>
<polygon fill="midnightblue" stroke="midnightblue" points="395.379,-168.191 386.864,-174.497 397.452,-174.877 395.379,-168.191"/>
</g>
<!-- Node4 -->
<g id="node7" class="node"><title>Node4</title>
<a xlink:href="../../d6/d47/_media_image_item_8h.html" target="_top" xlink:title="/home/vilon_tao/gaia/sdk/include/gaia/media/videoeditor/MediaImageItem.h">
<polygon fill="white" stroke="black" points="89,-0.5 89,-21.5 433,-21.5 433,-0.5 89,-0.5"/>
<text text-anchor="middle" x="261" y="-8.5" font-family="Helvetica,sans-Serif" font-size="10.00">/home/vilon_tao/gaia/sdk/include/gaia/media/videoeditor/MediaImageItem.h</text>
</a>
</g>
<!-- Node3&#45;&gt;Node4 -->
<g id="edge6" class="edge"><title>Node3&#45;&gt;Node4</title>
<path fill="none" stroke="midnightblue" d="M400.812,-115.167C349.168,-108.074 298.609,-97.0071 280,-80 263.491,-64.9118 260.805,-36.9289 260.664,-21.6437"/>
<polygon fill="midnightblue" stroke="midnightblue" points="400.43,-118.647 410.802,-116.489 401.348,-111.707 400.43,-118.647"/>
</g>
<!-- Node5 -->
<g id="node9" class="node"><title>Node5</title>
<a xlink:href="../../de/d50/_media_item_8h.html" target="_top" xlink:title="/home/vilon_tao/gaia/sdk/include/gaia/media/videoeditor/MediaItem.h">
<polygon fill="white" stroke="black" points="288.5,-58.5 288.5,-79.5 605.5,-79.5 605.5,-58.5 288.5,-58.5"/>
<text text-anchor="middle" x="447" y="-66.5" font-family="Helvetica,sans-Serif" font-size="10.00">/home/vilon_tao/gaia/sdk/include/gaia/media/videoeditor/MediaItem.h</text>
</a>
</g>
<!-- Node3&#45;&gt;Node5 -->
<g id="edge8" class="edge"><title>Node3&#45;&gt;Node5</title>
<path fill="none" stroke="midnightblue" d="M514.059,-110.821C498.04,-100.831 477.945,-88.2993 463.949,-79.5707"/>
<polygon fill="midnightblue" stroke="midnightblue" points="512.605,-114.04 522.942,-116.362 516.309,-108.1 512.605,-114.04"/>
</g>
<!-- Node6 -->
<g id="node12" class="node"><title>Node6</title>
<a xlink:href="../../d2/dcf/_media_video_item_8h.html" target="_top" xlink:title="/home/vilon_tao/gaia/sdk/include/gaia/media/videoeditor/MediaVideoItem.h">
<polygon fill="white" stroke="black" points="450.5,-0.5 450.5,-21.5 791.5,-21.5 791.5,-0.5 450.5,-0.5"/>
<text text-anchor="middle" x="621" y="-8.5" font-family="Helvetica,sans-Serif" font-size="10.00">/home/vilon_tao/gaia/sdk/include/gaia/media/videoeditor/MediaVideoItem.h</text>
</a>
</g>
<!-- Node3&#45;&gt;Node6 -->
<g id="edge14" class="edge"><title>Node3&#45;&gt;Node6</title>
<path fill="none" stroke="midnightblue" d="M577.153,-111.949C590.992,-104.432 605.409,-93.9171 614,-80 625.131,-61.9672 624.266,-36.1162 622.638,-21.7204"/>
<polygon fill="midnightblue" stroke="midnightblue" points="575.561,-108.832 568.209,-116.461 578.714,-115.081 575.561,-108.832"/>
</g>
<!-- Node7 -->
<g id="node15" class="node"><title>Node7</title>
<a xlink:href="../../d5/d80/_transition_8h.html" target="_top" xlink:title="/home/vilon_tao/gaia/sdk/include/gaia/media/videoeditor/Transition.h">
<polygon fill="white" stroke="black" points="1187,-58.5 1187,-79.5 1501,-79.5 1501,-58.5 1187,-58.5"/>
<text text-anchor="middle" x="1344" y="-66.5" font-family="Helvetica,sans-Serif" font-size="10.00">/home/vilon_tao/gaia/sdk/include/gaia/media/videoeditor/Transition.h</text>
</a>
</g>
<!-- Node3&#45;&gt;Node7 -->
<g id="edge16" class="edge"><title>Node3&#45;&gt;Node7</title>
<path fill="none" stroke="midnightblue" d="M695.936,-115.751C841.218,-105.27 1056.18,-89.7631 1198.13,-79.5231"/>
<polygon fill="midnightblue" stroke="midnightblue" points="695.321,-112.286 685.598,-116.497 695.824,-119.268 695.321,-112.286"/>
</g>
<!-- Node5&#45;&gt;Node4 -->
<g id="edge10" class="edge"><title>Node5&#45;&gt;Node4</title>
<path fill="none" stroke="midnightblue" d="M403.427,-55.4127C370.242,-45.0646 325.221,-31.0258 294.746,-21.5231"/>
<polygon fill="midnightblue" stroke="midnightblue" points="402.728,-58.861 413.317,-58.4966 404.812,-52.1783 402.728,-58.861"/>
</g>
<!-- Node5&#45;&gt;Node6 -->
<g id="edge12" class="edge"><title>Node5&#45;&gt;Node6</title>
<path fill="none" stroke="midnightblue" d="M488.164,-55.2787C519.169,-44.9437 561.045,-30.9849 589.431,-21.5231"/>
<polygon fill="midnightblue" stroke="midnightblue" points="486.89,-52.0139 478.51,-58.4966 489.104,-58.6547 486.89,-52.0139"/>
</g>
<!-- Node8 -->
<g id="node17" class="node"><title>Node8</title>
<a xlink:href="../../de/d7c/_transition_alpha_8h.html" target="_top" xlink:title="/home/vilon_tao/gaia/sdk/include/gaia/media/videoeditor/TransitionAlpha.h">
<polygon fill="white" stroke="black" points="809,-0.5 809,-21.5 1147,-21.5 1147,-0.5 809,-0.5"/>
<text text-anchor="middle" x="978" y="-8.5" font-family="Helvetica,sans-Serif" font-size="10.00">/home/vilon_tao/gaia/sdk/include/gaia/media/videoeditor/TransitionAlpha.h</text>
</a>
</g>
<!-- Node7&#45;&gt;Node8 -->
<g id="edge18" class="edge"><title>Node7&#45;&gt;Node8</title>
<path fill="none" stroke="midnightblue" d="M1267.79,-56.9234C1201.81,-46.4675 1107.34,-31.4969 1044.4,-21.5231"/>
<polygon fill="midnightblue" stroke="midnightblue" points="1267.3,-60.3882 1277.72,-58.4966 1268.39,-53.4745 1267.3,-60.3882"/>
</g>
<!-- Node9 -->
<g id="node19" class="node"><title>Node9</title>
<a xlink:href="../../d7/d5d/_transition_crossfade_8h.html" target="_top" xlink:title="/home/vilon_tao/gaia/sdk/include/gaia/media/videoeditor/TransitionCrossfade.h">
<polygon fill="white" stroke="black" points="1164.5,-0.5 1164.5,-21.5 1523.5,-21.5 1523.5,-0.5 1164.5,-0.5"/>
<text text-anchor="middle" x="1344" y="-8.5" font-family="Helvetica,sans-Serif" font-size="10.00">/home/vilon_tao/gaia/sdk/include/gaia/media/videoeditor/TransitionCrossfade.h</text>
</a>
</g>
<!-- Node7&#45;&gt;Node9 -->
<g id="edge20" class="edge"><title>Node7&#45;&gt;Node9</title>
<path fill="none" stroke="midnightblue" d="M1344,-48.1906C1344,-39.1684 1344,-28.9941 1344,-21.5707"/>
<polygon fill="midnightblue" stroke="midnightblue" points="1340.5,-48.3619 1344,-58.3619 1347.5,-48.3619 1340.5,-48.3619"/>
</g>
<!-- Node10 -->
<g id="node21" class="node"><title>Node10</title>
<a xlink:href="../../d0/d68/_transition_fade_black_8h.html" target="_top" xlink:title="/home/vilon_tao/gaia/sdk/include/gaia/media/videoeditor/TransitionFadeBlack.h">
<polygon fill="white" stroke="black" points="1541,-0.5 1541,-21.5 1901,-21.5 1901,-0.5 1541,-0.5"/>
<text text-anchor="middle" x="1721" y="-8.5" font-family="Helvetica,sans-Serif" font-size="10.00">/home/vilon_tao/gaia/sdk/include/gaia/media/videoeditor/TransitionFadeBlack.h</text>
</a>
</g>
<!-- Node7&#45;&gt;Node10 -->
<g id="edge22" class="edge"><title>Node7&#45;&gt;Node10</title>
<path fill="none" stroke="midnightblue" d="M1422.5,-56.9234C1490.46,-46.4675 1587.77,-31.4969 1652.6,-21.5231"/>
<polygon fill="midnightblue" stroke="midnightblue" points="1421.62,-53.5167 1412.27,-58.4966 1422.69,-60.4353 1421.62,-53.5167"/>
</g>
<!-- Node11 -->
<g id="node23" class="node"><title>Node11</title>
<a xlink:href="../../d4/d21/_transition_sliding_8h.html" target="_top" xlink:title="/home/vilon_tao/gaia/sdk/include/gaia/media/videoeditor/TransitionSliding.h">
<polygon fill="white" stroke="black" points="1918.5,-0.5 1918.5,-21.5 2261.5,-21.5 2261.5,-0.5 1918.5,-0.5"/>
<text text-anchor="middle" x="2090" y="-8.5" font-family="Helvetica,sans-Serif" font-size="10.00">/home/vilon_tao/gaia/sdk/include/gaia/media/videoeditor/TransitionSliding.h</text>
</a>
</g>
<!-- Node7&#45;&gt;Node11 -->
<g id="edge24" class="edge"><title>Node7&#45;&gt;Node11</title>
<path fill="none" stroke="midnightblue" d="M1489.09,-57.7194C1623.89,-47.2393 1823.08,-31.7529 1954.65,-21.5231"/>
<polygon fill="midnightblue" stroke="midnightblue" points="1488.79,-54.2319 1479.09,-58.4966 1489.34,-61.2109 1488.79,-54.2319"/>
</g>
</g>
</svg>
