<?xml version="1.0" encoding="UTF-8" standalone="no"?>
<!DOCTYPE svg PUBLIC "-//W3C//DTD SVG 1.1//EN"
 "http://www.w3.org/Graphics/SVG/1.1/DTD/svg11.dtd">
<!-- Generated by graphviz version 2.26.3 (20100126.1600)
 -->
<!-- Title: G Pages: 1 -->
<svg width="842pt" height="146pt"
 viewBox="0.00 0.00 842.00 146.00" xmlns="http://www.w3.org/2000/svg" xmlns:xlink="http://www.w3.org/1999/xlink">
<g id="graph1" class="graph" transform="scale(1 1) rotate(0) translate(4 142)">
<title>G</title>
<polygon fill="white" stroke="white" points="-4,5 -4,-142 839,-142 839,5 -4,5"/>
<!-- Node1 -->
<g id="node1" class="node"><title>Node1</title>
<polygon fill="#bfbfbf" stroke="black" points="278,-116.5 278,-137.5 550,-137.5 550,-116.5 278,-116.5"/>
<text text-anchor="middle" x="414" y="-124.5" font-family="Helvetica,sans-Serif" font-size="10.00">/home/vilon_tao/gaia/sdk/include/gaia/ui/FrameController.h</text>
</g>
<!-- Node2 -->
<g id="node3" class="node"><title>Node2</title>
<a xlink:href="../../d6/d77/_list_item_panels_8h.html" target="_top" xlink:title="/home/vilon_tao/gaia/sdk/include/gaia/ui/ListItemPanels.h">
<polygon fill="white" stroke="black" points="-0.5,-58.5 -0.5,-79.5 266.5,-79.5 266.5,-58.5 -0.5,-58.5"/>
<text text-anchor="middle" x="133" y="-66.5" font-family="Helvetica,sans-Serif" font-size="10.00">/home/vilon_tao/gaia/sdk/include/gaia/ui/ListItemPanels.h</text>
</a>
</g>
<!-- Node1&#45;&gt;Node2 -->
<g id="edge2" class="edge"><title>Node1&#45;&gt;Node2</title>
<path fill="none" stroke="midnightblue" d="M353.293,-114.47C302.754,-104.038 231.609,-89.3535 183.982,-79.5231"/>
<polygon fill="midnightblue" stroke="midnightblue" points="352.612,-117.903 363.113,-116.497 354.027,-111.047 352.612,-117.903"/>
</g>
<!-- Node4 -->
<g id="node7" class="node"><title>Node4</title>
<a xlink:href="../../d0/d59/_media_control_8h.html" target="_top" xlink:title="/home/vilon_tao/gaia/sdk/include/gaia/ui/MediaControl.h">
<polygon fill="white" stroke="black" points="284,-58.5 284,-79.5 544,-79.5 544,-58.5 284,-58.5"/>
<text text-anchor="middle" x="414" y="-66.5" font-family="Helvetica,sans-Serif" font-size="10.00">/home/vilon_tao/gaia/sdk/include/gaia/ui/MediaControl.h</text>
</a>
</g>
<!-- Node1&#45;&gt;Node4 -->
<g id="edge6" class="edge"><title>Node1&#45;&gt;Node4</title>
<path fill="none" stroke="midnightblue" d="M414,-106.191C414,-97.1684 414,-86.9941 414,-79.5707"/>
<polygon fill="midnightblue" stroke="midnightblue" points="410.5,-106.362 414,-116.362 417.5,-106.362 410.5,-106.362"/>
</g>
<!-- Node5 -->
<g id="node9" class="node"><title>Node5</title>
<a xlink:href="../../d5/d80/_widget_animator_8h.html" target="_top" xlink:title="/home/vilon_tao/gaia/sdk/include/gaia/ui/WidgetAnimator.h">
<polygon fill="white" stroke="black" points="562,-58.5 562,-79.5 834,-79.5 834,-58.5 562,-58.5"/>
<text text-anchor="middle" x="698" y="-66.5" font-family="Helvetica,sans-Serif" font-size="10.00">/home/vilon_tao/gaia/sdk/include/gaia/ui/WidgetAnimator.h</text>
</a>
</g>
<!-- Node1&#45;&gt;Node5 -->
<g id="edge8" class="edge"><title>Node1&#45;&gt;Node5</title>
<path fill="none" stroke="midnightblue" d="M475.355,-114.47C526.434,-104.038 598.338,-89.3535 646.473,-79.5231"/>
<polygon fill="midnightblue" stroke="midnightblue" points="474.528,-111.066 465.43,-116.497 475.928,-117.925 474.528,-111.066"/>
</g>
<!-- Node3 -->
<g id="node5" class="node"><title>Node3</title>
<a xlink:href="../../d7/d59/_list_item_lite_8h.html" target="_top" xlink:title="/home/vilon_tao/gaia/sdk/include/gaia/ui/ListItemLite.h">
<polygon fill="white" stroke="black" points="6.5,-0.5 6.5,-21.5 259.5,-21.5 259.5,-0.5 6.5,-0.5"/>
<text text-anchor="middle" x="133" y="-8.5" font-family="Helvetica,sans-Serif" font-size="10.00">/home/vilon_tao/gaia/sdk/include/gaia/ui/ListItemLite.h</text>
</a>
</g>
<!-- Node2&#45;&gt;Node3 -->
<g id="edge4" class="edge"><title>Node2&#45;&gt;Node3</title>
<path fill="none" stroke="midnightblue" d="M133,-48.1906C133,-39.1684 133,-28.9941 133,-21.5707"/>
<polygon fill="midnightblue" stroke="midnightblue" points="129.5,-48.3619 133,-58.3619 136.5,-48.3619 129.5,-48.3619"/>
</g>
<!-- Node6 -->
<g id="node11" class="node"><title>Node6</title>
<a xlink:href="../../dd/de8/_widget_switcher_8h.html" target="_top" xlink:title="/home/vilon_tao/gaia/sdk/include/gaia/ui/WidgetSwitcher.h">
<polygon fill="white" stroke="black" points="562.5,-0.5 562.5,-21.5 833.5,-21.5 833.5,-0.5 562.5,-0.5"/>
<text text-anchor="middle" x="698" y="-8.5" font-family="Helvetica,sans-Serif" font-size="10.00">/home/vilon_tao/gaia/sdk/include/gaia/ui/WidgetSwitcher.h</text>
</a>
</g>
<!-- Node5&#45;&gt;Node6 -->
<g id="edge10" class="edge"><title>Node5&#45;&gt;Node6</title>
<path fill="none" stroke="midnightblue" d="M698,-48.1906C698,-39.1684 698,-28.9941 698,-21.5707"/>
<polygon fill="midnightblue" stroke="midnightblue" points="694.5,-48.3619 698,-58.3619 701.5,-48.3619 694.5,-48.3619"/>
</g>
</g>
</svg>
