<?xml version="1.0" encoding="UTF-8" standalone="no"?>
<!DOCTYPE svg PUBLIC "-//W3C//DTD SVG 1.1//EN"
 "http://www.w3.org/Graphics/SVG/1.1/DTD/svg11.dtd">
<!-- Generated by graphviz version 2.26.3 (20100126.1600)
 -->
<!-- Title: G Pages: 1 -->
<svg width="332pt" height="146pt"
 viewBox="0.00 0.00 332.00 146.00" xmlns="http://www.w3.org/2000/svg" xmlns:xlink="http://www.w3.org/1999/xlink">
<g id="graph1" class="graph" transform="scale(1 1) rotate(0) translate(4 142)">
<title>G</title>
<polygon fill="white" stroke="white" points="-4,5 -4,-142 329,-142 329,5 -4,5"/>
<!-- Node1 -->
<g id="node1" class="node"><title>Node1</title>
<polygon fill="#bfbfbf" stroke="black" points="-0.5,-116.5 -0.5,-137.5 324.5,-137.5 324.5,-116.5 -0.5,-116.5"/>
<text text-anchor="middle" x="162" y="-124.5" font-family="Helvetica,sans-Serif" font-size="10.00">/home/vilon_tao/gaia/sdk/include/gaia/cloudstorage/CloudStorageFile.h</text>
</g>
<!-- Node2 -->
<g id="node3" class="node"><title>Node2</title>
<polygon fill="white" stroke="#bfbfbf" points="137.5,-0.5 137.5,-21.5 186.5,-21.5 186.5,-0.5 137.5,-0.5"/>
<text text-anchor="middle" x="162" y="-8.5" font-family="Helvetica,sans-Serif" font-size="10.00">stdint.h</text>
</g>
<!-- Node1&#45;&gt;Node2 -->
<g id="edge2" class="edge"><title>Node1&#45;&gt;Node2</title>
<path fill="none" stroke="midnightblue" d="M147.821,-116.408C137.651,-107.861 124.766,-94.845 119,-80 115.46,-70.8856 115.46,-67.1144 119,-58 123.415,-46.6343 132.002,-36.341 140.35,-28.3045"/>
<polygon fill="midnightblue" stroke="midnightblue" points="142.721,-30.8789 147.821,-21.5924 138.043,-25.6715 142.721,-30.8789"/>
</g>
<!-- Node3 -->
<g id="node5" class="node"><title>Node3</title>
<a xlink:href="../../d1/de4/_cloud_storage_header_8h.html" target="_top" xlink:title="gaia/cloudstorage/CloudStorageHeader.h">
<polygon fill="white" stroke="black" points="127.5,-58.5 127.5,-79.5 322.5,-79.5 322.5,-58.5 127.5,-58.5"/>
<text text-anchor="middle" x="225" y="-66.5" font-family="Helvetica,sans-Serif" font-size="10.00">gaia/cloudstorage/CloudStorageHeader.h</text>
</a>
</g>
<!-- Node1&#45;&gt;Node3 -->
<g id="edge4" class="edge"><title>Node1&#45;&gt;Node3</title>
<path fill="none" stroke="midnightblue" d="M173.555,-116.362C182.613,-108.023 195.41,-96.2418 205.974,-86.5162"/>
<polygon fill="midnightblue" stroke="midnightblue" points="208.532,-88.9187 213.518,-79.5707 203.79,-83.7688 208.532,-88.9187"/>
</g>
<!-- Node3&#45;&gt;Node2 -->
<g id="edge6" class="edge"><title>Node3&#45;&gt;Node2</title>
<path fill="none" stroke="midnightblue" d="M213.445,-58.3619C204.387,-50.0226 191.59,-38.2418 181.026,-28.5162"/>
<polygon fill="midnightblue" stroke="midnightblue" points="183.21,-25.7688 173.482,-21.5707 178.468,-30.9187 183.21,-25.7688"/>
</g>
</g>
</svg>
