<?xml version="1.0" encoding="UTF-8" standalone="no"?>
<!DOCTYPE svg PUBLIC "-//W3C//DTD SVG 1.1//EN"
 "http://www.w3.org/Graphics/SVG/1.1/DTD/svg11.dtd">
<!-- Generated by graphviz version 2.26.3 (20100126.1600)
 -->
<!-- Title: G Pages: 1 -->
<svg width="268pt" height="146pt"
 viewBox="0.00 0.00 268.00 146.00" xmlns="http://www.w3.org/2000/svg" xmlns:xlink="http://www.w3.org/1999/xlink">
<g id="graph1" class="graph" transform="scale(1 1) rotate(0) translate(4 142)">
<title>G</title>
<polygon fill="white" stroke="white" points="-4,5 -4,-142 265,-142 265,5 -4,5"/>
<!-- Node1 -->
<g id="node1" class="node"><title>Node1</title>
<polygon fill="#bfbfbf" stroke="black" points="0,-116.5 0,-137.5 260,-137.5 260,-116.5 0,-116.5"/>
<text text-anchor="middle" x="130" y="-124.5" font-family="Helvetica,sans-Serif" font-size="10.00">/home/vilon_tao/gaia/sdk/include/gaia/media/Ringtone.h</text>
</g>
<!-- Node2 -->
<g id="node3" class="node"><title>Node2</title>
<polygon fill="white" stroke="#bfbfbf" points="35.5,-0.5 35.5,-21.5 84.5,-21.5 84.5,-0.5 35.5,-0.5"/>
<text text-anchor="middle" x="60" y="-8.5" font-family="Helvetica,sans-Serif" font-size="10.00">stdint.h</text>
</g>
<!-- Node1&#45;&gt;Node2 -->
<g id="edge2" class="edge"><title>Node1&#45;&gt;Node2</title>
<path fill="none" stroke="midnightblue" d="M100.415,-116.479C84.1715,-109.006 65.4552,-97.2064 56,-80 47.8953,-65.2512 49.8715,-45.9529 53.3155,-31.5168"/>
<polygon fill="midnightblue" stroke="midnightblue" points="56.7714,-32.1541 56.0926,-21.581 50.0298,-30.2697 56.7714,-32.1541"/>
</g>
<!-- Node3 -->
<g id="node5" class="node"><title>Node3</title>
<a xlink:href="../../d1/dd0/gmacros_8h.html" target="_top" xlink:title="gaia/base/gmacros.h">
<polygon fill="white" stroke="black" points="146.5,-0.5 146.5,-21.5 253.5,-21.5 253.5,-0.5 146.5,-0.5"/>
<text text-anchor="middle" x="200" y="-8.5" font-family="Helvetica,sans-Serif" font-size="10.00">gaia/base/gmacros.h</text>
</a>
</g>
<!-- Node1&#45;&gt;Node3 -->
<g id="edge4" class="edge"><title>Node1&#45;&gt;Node3</title>
<path fill="none" stroke="midnightblue" d="M159.585,-116.479C175.829,-109.006 194.545,-97.2064 204,-80 212.105,-65.2512 210.129,-45.9529 206.685,-31.5168"/>
<polygon fill="midnightblue" stroke="midnightblue" points="209.97,-30.2697 203.907,-21.581 203.229,-32.1541 209.97,-30.2697"/>
</g>
<!-- Node4 -->
<g id="node7" class="node"><title>Node4</title>
<a xlink:href="../../d9/d66/_audio_control_8h.html" target="_top" xlink:title="gaia/media/AudioControl.h">
<polygon fill="white" stroke="black" points="64.5,-58.5 64.5,-79.5 195.5,-79.5 195.5,-58.5 64.5,-58.5"/>
<text text-anchor="middle" x="130" y="-66.5" font-family="Helvetica,sans-Serif" font-size="10.00">gaia/media/AudioControl.h</text>
</a>
</g>
<!-- Node1&#45;&gt;Node4 -->
<g id="edge6" class="edge"><title>Node1&#45;&gt;Node4</title>
<path fill="none" stroke="midnightblue" d="M130,-116.362C130,-108.922 130,-98.7427 130,-89.7276"/>
<polygon fill="midnightblue" stroke="midnightblue" points="133.5,-89.5706 130,-79.5707 126.5,-89.5707 133.5,-89.5706"/>
</g>
<!-- Node4&#45;&gt;Node2 -->
<g id="edge8" class="edge"><title>Node4&#45;&gt;Node2</title>
<path fill="none" stroke="midnightblue" d="M117.161,-58.3619C106.998,-49.9408 92.5989,-38.0105 80.7958,-28.2308"/>
<polygon fill="midnightblue" stroke="midnightblue" points="82.691,-25.2558 72.7577,-21.5707 78.2248,-30.6459 82.691,-25.2558"/>
</g>
<!-- Node4&#45;&gt;Node3 -->
<g id="edge10" class="edge"><title>Node4&#45;&gt;Node3</title>
<path fill="none" stroke="midnightblue" d="M142.839,-58.3619C153.002,-49.9408 167.401,-38.0105 179.204,-28.2308"/>
<polygon fill="midnightblue" stroke="midnightblue" points="181.775,-30.6459 187.242,-21.5707 177.309,-25.2558 181.775,-30.6459"/>
</g>
</g>
</svg>
