<?xml version="1.0" encoding="UTF-8" standalone="no"?>
<!DOCTYPE svg PUBLIC "-//W3C//DTD SVG 1.1//EN"
 "http://www.w3.org/Graphics/SVG/1.1/DTD/svg11.dtd">
<!-- Generated by graphviz version 2.26.3 (20100126.1600)
 -->
<!-- Title: G Pages: 1 -->
<svg width="575pt" height="320pt"
 viewBox="0.00 0.00 575.00 320.00" xmlns="http://www.w3.org/2000/svg" xmlns:xlink="http://www.w3.org/1999/xlink">
<g id="graph1" class="graph" transform="scale(1 1) rotate(0) translate(4 316)">
<title>G</title>
<polygon fill="white" stroke="white" points="-4,5 -4,-316 572,-316 572,5 -4,5"/>
<!-- Node1 -->
<g id="node1" class="node"><title>Node1</title>
<polygon fill="#bfbfbf" stroke="black" points="147,-290.5 147,-311.5 445,-311.5 445,-290.5 147,-290.5"/>
<text text-anchor="middle" x="296" y="-298.5" font-family="Helvetica,sans-Serif" font-size="10.00">/home/vilon_tao/gaia/sdk/include/gaia/text/style/ClickableSpan.h</text>
</g>
<!-- Node2 -->
<g id="node3" class="node"><title>Node2</title>
<a xlink:href="../../d4/d75/_widget_8h.html" target="_top" xlink:title="gaia/core/vision/Widget.h">
<polygon fill="white" stroke="black" points="158.5,-174.5 158.5,-195.5 285.5,-195.5 285.5,-174.5 158.5,-174.5"/>
<text text-anchor="middle" x="222" y="-182.5" font-family="Helvetica,sans-Serif" font-size="10.00">gaia/core/vision/Widget.h</text>
</a>
</g>
<!-- Node1&#45;&gt;Node2 -->
<g id="edge2" class="edge"><title>Node1&#45;&gt;Node2</title>
<path fill="none" stroke="midnightblue" d="M289.171,-290.295C276.671,-270.7 249.954,-228.82 234.243,-204.191"/>
<polygon fill="midnightblue" stroke="midnightblue" points="237.142,-202.227 228.813,-195.679 231.24,-205.992 237.142,-202.227"/>
</g>
<!-- Node8 -->
<g id="node15" class="node"><title>Node8</title>
<a xlink:href="../../d5/dc5/_character_style_8h.html" target="_top" xlink:title="gaia/text/style/CharacterStyle.h">
<polygon fill="white" stroke="black" points="278.5,-232.5 278.5,-253.5 433.5,-253.5 433.5,-232.5 278.5,-232.5"/>
<text text-anchor="middle" x="356" y="-240.5" font-family="Helvetica,sans-Serif" font-size="10.00">gaia/text/style/CharacterStyle.h</text>
</a>
</g>
<!-- Node1&#45;&gt;Node8 -->
<g id="edge14" class="edge"><title>Node1&#45;&gt;Node8</title>
<path fill="none" stroke="midnightblue" d="M307.005,-290.362C315.547,-282.104 327.58,-270.472 337.583,-260.803"/>
<polygon fill="midnightblue" stroke="midnightblue" points="340.308,-263.037 345.065,-253.571 335.442,-258.004 340.308,-263.037"/>
</g>
<!-- Node3 -->
<g id="node5" class="node"><title>Node3</title>
<a xlink:href="../../d1/dd0/gmacros_8h.html" target="_top" xlink:title="gaia/base/gmacros.h">
<polygon fill="white" stroke="black" points="375.5,-116.5 375.5,-137.5 482.5,-137.5 482.5,-116.5 375.5,-116.5"/>
<text text-anchor="middle" x="429" y="-124.5" font-family="Helvetica,sans-Serif" font-size="10.00">gaia/base/gmacros.h</text>
</a>
</g>
<!-- Node2&#45;&gt;Node3 -->
<g id="edge4" class="edge"><title>Node2&#45;&gt;Node3</title>
<path fill="none" stroke="midnightblue" d="M259.486,-174.497C293.671,-164.918 344.346,-150.72 381.384,-140.342"/>
<polygon fill="midnightblue" stroke="midnightblue" points="382.759,-143.591 391.444,-137.523 380.87,-136.851 382.759,-143.591"/>
</g>
<!-- Node4 -->
<g id="node7" class="node"><title>Node4</title>
<a xlink:href="../../d0/d92/_property_animatable_8h.html" target="_top" xlink:title="gaia/core/animator/PropertyAnimatable.h">
<polygon fill="white" stroke="black" points="0,-116.5 0,-137.5 194,-137.5 194,-116.5 0,-116.5"/>
<text text-anchor="middle" x="97" y="-124.5" font-family="Helvetica,sans-Serif" font-size="10.00">gaia/core/animator/PropertyAnimatable.h</text>
</a>
</g>
<!-- Node2&#45;&gt;Node4 -->
<g id="edge6" class="edge"><title>Node2&#45;&gt;Node4</title>
<path fill="none" stroke="midnightblue" d="M199.363,-174.497C179.752,-165.397 151.154,-152.127 129.167,-141.925"/>
<polygon fill="midnightblue" stroke="midnightblue" points="130.435,-138.655 119.891,-137.621 127.488,-145.005 130.435,-138.655"/>
</g>
<!-- Node6 -->
<g id="node11" class="node"><title>Node6</title>
<a xlink:href="../../d8/d50/_widget_core_8h.html" target="_top" xlink:title="gaia/core/vision/WidgetCore.h">
<polygon fill="white" stroke="black" points="149,-58.5 149,-79.5 297,-79.5 297,-58.5 149,-58.5"/>
<text text-anchor="middle" x="223" y="-66.5" font-family="Helvetica,sans-Serif" font-size="10.00">gaia/core/vision/WidgetCore.h</text>
</a>
</g>
<!-- Node2&#45;&gt;Node6 -->
<g id="edge10" class="edge"><title>Node2&#45;&gt;Node6</title>
<path fill="none" stroke="midnightblue" d="M222.092,-174.295C222.257,-155.131 222.606,-114.654 222.82,-89.8434"/>
<polygon fill="midnightblue" stroke="midnightblue" points="226.322,-89.709 222.908,-79.6792 219.322,-89.6486 226.322,-89.709"/>
</g>
<!-- Node5 -->
<g id="node9" class="node"><title>Node5</title>
<polygon fill="white" stroke="#bfbfbf" points="63,-58.5 63,-79.5 131,-79.5 131,-58.5 63,-58.5"/>
<text text-anchor="middle" x="97" y="-66.5" font-family="Helvetica,sans-Serif" font-size="10.00">sys/types.h</text>
</g>
<!-- Node4&#45;&gt;Node5 -->
<g id="edge8" class="edge"><title>Node4&#45;&gt;Node5</title>
<path fill="none" stroke="midnightblue" d="M97,-116.362C97,-108.922 97,-98.7427 97,-89.7276"/>
<polygon fill="midnightblue" stroke="midnightblue" points="100.5,-89.5706 97,-79.5707 93.5001,-89.5707 100.5,-89.5706"/>
</g>
<!-- Node7 -->
<g id="node13" class="node"><title>Node7</title>
<polygon fill="white" stroke="#bfbfbf" points="357.5,-0.5 357.5,-21.5 406.5,-21.5 406.5,-0.5 357.5,-0.5"/>
<text text-anchor="middle" x="382" y="-8.5" font-family="Helvetica,sans-Serif" font-size="10.00">stdint.h</text>
</g>
<!-- Node6&#45;&gt;Node7 -->
<g id="edge12" class="edge"><title>Node6&#45;&gt;Node7</title>
<path fill="none" stroke="midnightblue" d="M251.794,-58.4966C278.771,-48.6557 319.119,-33.9377 347.741,-23.4972"/>
<polygon fill="midnightblue" stroke="midnightblue" points="349.139,-26.7127 357.334,-19.9976 346.74,-20.1365 349.139,-26.7127"/>
</g>
<!-- Node9 -->
<g id="node17" class="node"><title>Node9</title>
<a xlink:href="../../d1/d81/_object_style_8h.html" target="_top" xlink:title="gaia/text/style/ObjectStyle.h">
<polygon fill="white" stroke="black" points="427,-174.5 427,-195.5 567,-195.5 567,-174.5 427,-174.5"/>
<text text-anchor="middle" x="497" y="-182.5" font-family="Helvetica,sans-Serif" font-size="10.00">gaia/text/style/ObjectStyle.h</text>
</a>
</g>
<!-- Node8&#45;&gt;Node9 -->
<g id="edge16" class="edge"><title>Node8&#45;&gt;Node9</title>
<path fill="none" stroke="midnightblue" d="M381.534,-232.497C403.953,-223.275 436.785,-209.769 461.713,-199.515"/>
<polygon fill="midnightblue" stroke="midnightblue" points="463.263,-202.662 471.179,-195.621 460.6,-196.189 463.263,-202.662"/>
</g>
<!-- Node10 -->
<g id="node21" class="node"><title>Node10</title>
<a xlink:href="../../d5/d4f/_text_paint_8h.html" target="_top" xlink:title="gaia/text/TextPaint.h">
<polygon fill="white" stroke="black" points="302.5,-174.5 302.5,-195.5 409.5,-195.5 409.5,-174.5 302.5,-174.5"/>
<text text-anchor="middle" x="356" y="-182.5" font-family="Helvetica,sans-Serif" font-size="10.00">gaia/text/TextPaint.h</text>
</a>
</g>
<!-- Node8&#45;&gt;Node10 -->
<g id="edge22" class="edge"><title>Node8&#45;&gt;Node10</title>
<path fill="none" stroke="midnightblue" d="M356,-232.362C356,-224.922 356,-214.743 356,-205.728"/>
<polygon fill="midnightblue" stroke="midnightblue" points="359.5,-205.571 356,-195.571 352.5,-205.571 359.5,-205.571"/>
</g>
<!-- Node9&#45;&gt;Node3 -->
<g id="edge20" class="edge"><title>Node9&#45;&gt;Node3</title>
<path fill="none" stroke="midnightblue" d="M484.528,-174.362C474.655,-165.941 460.667,-154.011 449.202,-144.231"/>
<polygon fill="midnightblue" stroke="midnightblue" points="451.273,-141.397 441.393,-137.571 446.73,-146.723 451.273,-141.397"/>
</g>
<!-- Node9&#45;&gt;Node7 -->
<g id="edge18" class="edge"><title>Node9&#45;&gt;Node7</title>
<path fill="none" stroke="midnightblue" d="M497.463,-174.445C497.759,-160.673 497.223,-135.975 491,-116 482.178,-87.6842 478.585,-79.3514 458,-58 445.634,-45.1736 429.068,-34.3965 414.559,-26.4114"/>
<polygon fill="midnightblue" stroke="midnightblue" points="415.865,-23.1429 405.387,-21.5738 412.599,-29.3346 415.865,-23.1429"/>
</g>
<!-- Node10&#45;&gt;Node3 -->
<g id="edge30" class="edge"><title>Node10&#45;&gt;Node3</title>
<path fill="none" stroke="midnightblue" d="M369.389,-174.362C380.091,-165.859 395.296,-153.779 407.671,-143.947"/>
<polygon fill="midnightblue" stroke="midnightblue" points="410.043,-146.532 415.696,-137.571 405.689,-141.051 410.043,-146.532"/>
</g>
<!-- Node11 -->
<g id="node23" class="node"><title>Node11</title>
<a xlink:href="../../db/d7d/_paint_8h.html" target="_top" xlink:title="gaia/graphics/Paint.h">
<polygon fill="white" stroke="black" points="250,-116.5 250,-137.5 358,-137.5 358,-116.5 250,-116.5"/>
<text text-anchor="middle" x="304" y="-124.5" font-family="Helvetica,sans-Serif" font-size="10.00">gaia/graphics/Paint.h</text>
</a>
</g>
<!-- Node10&#45;&gt;Node11 -->
<g id="edge24" class="edge"><title>Node10&#45;&gt;Node11</title>
<path fill="none" stroke="midnightblue" d="M346.462,-174.362C339.132,-166.186 328.837,-154.702 320.219,-145.091"/>
<polygon fill="midnightblue" stroke="midnightblue" points="322.759,-142.68 313.477,-137.571 317.547,-147.353 322.759,-142.68"/>
</g>
<!-- Node12 -->
<g id="node25" class="node"><title>Node12</title>
<a xlink:href="../../d7/d97/_char_sequence_8h.html" target="_top" xlink:title="gaia/base/CharSequence.h">
<polygon fill="white" stroke="black" points="315,-58.5 315,-79.5 449,-79.5 449,-58.5 315,-58.5"/>
<text text-anchor="middle" x="382" y="-66.5" font-family="Helvetica,sans-Serif" font-size="10.00">gaia/base/CharSequence.h</text>
</a>
</g>
<!-- Node11&#45;&gt;Node12 -->
<g id="edge26" class="edge"><title>Node11&#45;&gt;Node12</title>
<path fill="none" stroke="midnightblue" d="M318.306,-116.362C329.851,-107.777 346.3,-95.5459 359.59,-85.6636"/>
<polygon fill="midnightblue" stroke="midnightblue" points="361.848,-88.3463 367.784,-79.5707 357.671,-82.7291 361.848,-88.3463"/>
</g>
<!-- Node12&#45;&gt;Node7 -->
<g id="edge28" class="edge"><title>Node12&#45;&gt;Node7</title>
<path fill="none" stroke="midnightblue" d="M382,-58.3619C382,-50.9219 382,-40.7427 382,-31.7276"/>
<polygon fill="midnightblue" stroke="midnightblue" points="385.5,-31.5706 382,-21.5707 378.5,-31.5707 385.5,-31.5706"/>
</g>
</g>
</svg>
