<?xml version="1.0" encoding="UTF-8" standalone="no"?>
<!DOCTYPE svg PUBLIC "-//W3C//DTD SVG 1.1//EN"
 "http://www.w3.org/Graphics/SVG/1.1/DTD/svg11.dtd">
<!-- Generated by graphviz version 2.26.3 (20100126.1600)
 -->
<!-- Title: G Pages: 1 -->
<svg width="692pt" height="88pt"
 viewBox="0.00 0.00 692.00 88.00" xmlns="http://www.w3.org/2000/svg" xmlns:xlink="http://www.w3.org/1999/xlink">
<g id="graph1" class="graph" transform="scale(1 1) rotate(0) translate(4 84)">
<title>G</title>
<polygon fill="white" stroke="white" points="-4,5 -4,-84 689,-84 689,5 -4,5"/>
<!-- Node1 -->
<g id="node1" class="node"><title>Node1</title>
<polygon fill="#bfbfbf" stroke="black" points="182,-58.5 182,-79.5 506,-79.5 506,-58.5 182,-58.5"/>
<text text-anchor="middle" x="344" y="-66.5" font-family="Helvetica,sans-Serif" font-size="10.00">/home/vilon_tao/gaia/sdk/include/gaia/ui/preference/PreferenceGroup.h</text>
</g>
<!-- Node2 -->
<g id="node3" class="node"><title>Node2</title>
<a xlink:href="../../d5/dc4/_preference_category_8h.html" target="_top" xlink:title="/home/vilon_tao/gaia/sdk/include/gaia/ui/preference/PreferenceCategory.h">
<polygon fill="white" stroke="black" points="0,-0.5 0,-21.5 338,-21.5 338,-0.5 0,-0.5"/>
<text text-anchor="middle" x="169" y="-8.5" font-family="Helvetica,sans-Serif" font-size="10.00">/home/vilon_tao/gaia/sdk/include/gaia/ui/preference/PreferenceCategory.h</text>
</a>
</g>
<!-- Node1&#45;&gt;Node2 -->
<g id="edge2" class="edge"><title>Node1&#45;&gt;Node2</title>
<path fill="none" stroke="midnightblue" d="M302.6,-55.2787C271.416,-44.9437 229.299,-30.9849 200.751,-21.5231"/>
<polygon fill="midnightblue" stroke="midnightblue" points="301.715,-58.6729 312.309,-58.4966 303.918,-52.0283 301.715,-58.6729"/>
</g>
<!-- Node3 -->
<g id="node5" class="node"><title>Node3</title>
<a xlink:href="../../de/d22/_preference_screen_8h.html" target="_top" xlink:title="/home/vilon_tao/gaia/sdk/include/gaia/ui/preference/PreferenceScreen.h">
<polygon fill="white" stroke="black" points="355.5,-0.5 355.5,-21.5 684.5,-21.5 684.5,-0.5 355.5,-0.5"/>
<text text-anchor="middle" x="520" y="-8.5" font-family="Helvetica,sans-Serif" font-size="10.00">/home/vilon_tao/gaia/sdk/include/gaia/ui/preference/PreferenceScreen.h</text>
</a>
</g>
<!-- Node1&#45;&gt;Node3 -->
<g id="edge4" class="edge"><title>Node1&#45;&gt;Node3</title>
<path fill="none" stroke="midnightblue" d="M385.637,-55.2787C416.998,-44.9437 459.356,-30.9849 488.068,-21.5231"/>
<polygon fill="midnightblue" stroke="midnightblue" points="384.274,-52.0425 375.872,-58.4966 386.465,-58.6908 384.274,-52.0425"/>
</g>
</g>
</svg>
