<?xml version="1.0" encoding="UTF-8" standalone="no"?>
<!DOCTYPE svg PUBLIC "-//W3C//DTD SVG 1.1//EN"
 "http://www.w3.org/Graphics/SVG/1.1/DTD/svg11.dtd">
<!-- Generated by graphviz version 2.26.3 (20100126.1600)
 -->
<!-- Title: G Pages: 1 -->
<svg width="554pt" height="262pt"
 viewBox="0.00 0.00 554.00 262.00" xmlns="http://www.w3.org/2000/svg" xmlns:xlink="http://www.w3.org/1999/xlink">
<g id="graph1" class="graph" transform="scale(1 1) rotate(0) translate(4 258)">
<title>G</title>
<polygon fill="white" stroke="white" points="-4,5 -4,-258 551,-258 551,5 -4,5"/>
<!-- Node1 -->
<g id="node1" class="node"><title>Node1</title>
<polygon fill="#bfbfbf" stroke="black" points="164.5,-232.5 164.5,-253.5 489.5,-253.5 489.5,-232.5 164.5,-232.5"/>
<text text-anchor="middle" x="327" y="-240.5" font-family="Helvetica,sans-Serif" font-size="10.00">/home/vilon_tao/gaia/sdk/include/gaia/core/gesture/GestureController.h</text>
</g>
<!-- Node2 -->
<g id="node3" class="node"><title>Node2</title>
<a xlink:href="../../d1/dd0/gmacros_8h.html" target="_top" xlink:title="gaia/base/gmacros.h">
<polygon fill="white" stroke="black" points="-0.5,-58.5 -0.5,-79.5 106.5,-79.5 106.5,-58.5 -0.5,-58.5"/>
<text text-anchor="middle" x="53" y="-66.5" font-family="Helvetica,sans-Serif" font-size="10.00">gaia/base/gmacros.h</text>
</a>
</g>
<!-- Node1&#45;&gt;Node2 -->
<g id="edge2" class="edge"><title>Node1&#45;&gt;Node2</title>
<path fill="none" stroke="midnightblue" d="M304.005,-232.414C284.908,-223.378 257.211,-209.705 234,-196 173.919,-160.526 107.912,-111.405 74.6801,-85.898"/>
<polygon fill="midnightblue" stroke="midnightblue" points="76.6395,-82.9891 66.5839,-79.6521 72.3638,-88.5315 76.6395,-82.9891"/>
</g>
<!-- Node3 -->
<g id="node5" class="node"><title>Node3</title>
<a xlink:href="../../d6/d52/_widget_controller_8h.html" target="_top" xlink:title="gaia/core/vision/WidgetController.h">
<polygon fill="white" stroke="black" points="242.5,-174.5 242.5,-195.5 411.5,-195.5 411.5,-174.5 242.5,-174.5"/>
<text text-anchor="middle" x="327" y="-182.5" font-family="Helvetica,sans-Serif" font-size="10.00">gaia/core/vision/WidgetController.h</text>
</a>
</g>
<!-- Node1&#45;&gt;Node3 -->
<g id="edge4" class="edge"><title>Node1&#45;&gt;Node3</title>
<path fill="none" stroke="midnightblue" d="M327,-232.362C327,-224.922 327,-214.743 327,-205.728"/>
<polygon fill="midnightblue" stroke="midnightblue" points="330.5,-205.571 327,-195.571 323.5,-205.571 330.5,-205.571"/>
</g>
<!-- Node5 -->
<g id="node9" class="node"><title>Node5</title>
<polygon fill="white" stroke="#bfbfbf" points="478,-0.5 478,-21.5 546,-21.5 546,-0.5 478,-0.5"/>
<text text-anchor="middle" x="512" y="-8.5" font-family="Helvetica,sans-Serif" font-size="10.00">sys/types.h</text>
</g>
<!-- Node1&#45;&gt;Node5 -->
<g id="edge22" class="edge"><title>Node1&#45;&gt;Node5</title>
<path fill="none" stroke="midnightblue" d="M367.502,-232.378C410.919,-218.594 477.686,-189.922 508,-138 527.27,-104.995 522.29,-58.4968 517.057,-31.8848"/>
<polygon fill="midnightblue" stroke="midnightblue" points="520.408,-30.8256 514.868,-21.7945 513.567,-32.3092 520.408,-30.8256"/>
</g>
<!-- Node4 -->
<g id="node7" class="node"><title>Node4</title>
<a xlink:href="../../d3/dd0/_event_control_8h.html" target="_top" xlink:title="gaia/core/event/EventControl.h">
<polygon fill="white" stroke="black" points="347,-116.5 347,-137.5 499,-137.5 499,-116.5 347,-116.5"/>
<text text-anchor="middle" x="423" y="-124.5" font-family="Helvetica,sans-Serif" font-size="10.00">gaia/core/event/EventControl.h</text>
</a>
</g>
<!-- Node3&#45;&gt;Node4 -->
<g id="edge6" class="edge"><title>Node3&#45;&gt;Node4</title>
<path fill="none" stroke="midnightblue" d="M344.608,-174.362C359.223,-165.532 380.224,-152.844 396.811,-142.822"/>
<polygon fill="midnightblue" stroke="midnightblue" points="398.754,-145.738 405.504,-137.571 395.135,-139.746 398.754,-145.738"/>
</g>
<!-- Node6 -->
<g id="node11" class="node"><title>Node6</title>
<a xlink:href="../../d4/d75/_widget_8h.html" target="_top" xlink:title="gaia/core/vision/Widget.h">
<polygon fill="white" stroke="black" points="157.5,-116.5 157.5,-137.5 284.5,-137.5 284.5,-116.5 157.5,-116.5"/>
<text text-anchor="middle" x="221" y="-124.5" font-family="Helvetica,sans-Serif" font-size="10.00">gaia/core/vision/Widget.h</text>
</a>
</g>
<!-- Node3&#45;&gt;Node6 -->
<g id="edge10" class="edge"><title>Node3&#45;&gt;Node6</title>
<path fill="none" stroke="midnightblue" d="M307.558,-174.362C291.196,-165.409 267.587,-152.491 249.157,-142.406"/>
<polygon fill="midnightblue" stroke="midnightblue" points="250.771,-139.3 240.319,-137.571 247.411,-145.441 250.771,-139.3"/>
</g>
<!-- Node4&#45;&gt;Node5 -->
<g id="edge8" class="edge"><title>Node4&#45;&gt;Node5</title>
<path fill="none" stroke="midnightblue" d="M447.054,-116.349C462.338,-108.41 481.367,-96.1548 493,-80 503.183,-65.8589 507.911,-46.5025 510.105,-31.8896"/>
<polygon fill="midnightblue" stroke="midnightblue" points="513.599,-32.1551 511.337,-21.8045 506.65,-31.3063 513.599,-32.1551"/>
</g>
<!-- Node6&#45;&gt;Node2 -->
<g id="edge12" class="edge"><title>Node6&#45;&gt;Node2</title>
<path fill="none" stroke="midnightblue" d="M190.576,-116.497C163.306,-107.082 123.107,-93.2036 93.1963,-82.8773"/>
<polygon fill="midnightblue" stroke="midnightblue" points="94.0753,-79.4781 83.4806,-79.5231 91.7909,-86.0949 94.0753,-79.4781"/>
</g>
<!-- Node7 -->
<g id="node14" class="node"><title>Node7</title>
<a xlink:href="../../d0/d92/_property_animatable_8h.html" target="_top" xlink:title="gaia/core/animator/PropertyAnimatable.h">
<polygon fill="white" stroke="black" points="290,-58.5 290,-79.5 484,-79.5 484,-58.5 290,-58.5"/>
<text text-anchor="middle" x="387" y="-66.5" font-family="Helvetica,sans-Serif" font-size="10.00">gaia/core/animator/PropertyAnimatable.h</text>
</a>
</g>
<!-- Node6&#45;&gt;Node7 -->
<g id="edge14" class="edge"><title>Node6&#45;&gt;Node7</title>
<path fill="none" stroke="midnightblue" d="M251.061,-116.497C278.007,-107.082 317.728,-93.2036 347.282,-82.8773"/>
<polygon fill="midnightblue" stroke="midnightblue" points="348.596,-86.1257 356.882,-79.5231 346.287,-79.5174 348.596,-86.1257"/>
</g>
<!-- Node8 -->
<g id="node17" class="node"><title>Node8</title>
<a xlink:href="../../d8/d50/_widget_core_8h.html" target="_top" xlink:title="gaia/core/vision/WidgetCore.h">
<polygon fill="white" stroke="black" points="124,-58.5 124,-79.5 272,-79.5 272,-58.5 124,-58.5"/>
<text text-anchor="middle" x="198" y="-66.5" font-family="Helvetica,sans-Serif" font-size="10.00">gaia/core/vision/WidgetCore.h</text>
</a>
</g>
<!-- Node6&#45;&gt;Node8 -->
<g id="edge18" class="edge"><title>Node6&#45;&gt;Node8</title>
<path fill="none" stroke="midnightblue" d="M216.781,-116.362C213.766,-108.758 209.617,-98.294 205.985,-89.1349"/>
<polygon fill="midnightblue" stroke="midnightblue" points="209.132,-87.5762 202.192,-79.5707 202.625,-90.1567 209.132,-87.5762"/>
</g>
<!-- Node7&#45;&gt;Node5 -->
<g id="edge16" class="edge"><title>Node7&#45;&gt;Node5</title>
<path fill="none" stroke="midnightblue" d="M409.637,-58.4966C429.248,-49.397 457.846,-36.1273 479.833,-25.9253"/>
<polygon fill="midnightblue" stroke="midnightblue" points="481.512,-29.0051 489.109,-21.6212 478.565,-22.6554 481.512,-29.0051"/>
</g>
<!-- Node9 -->
<g id="node19" class="node"><title>Node9</title>
<polygon fill="white" stroke="#bfbfbf" points="173.5,-0.5 173.5,-21.5 222.5,-21.5 222.5,-0.5 173.5,-0.5"/>
<text text-anchor="middle" x="198" y="-8.5" font-family="Helvetica,sans-Serif" font-size="10.00">stdint.h</text>
</g>
<!-- Node8&#45;&gt;Node9 -->
<g id="edge20" class="edge"><title>Node8&#45;&gt;Node9</title>
<path fill="none" stroke="midnightblue" d="M198,-58.3619C198,-50.9219 198,-40.7427 198,-31.7276"/>
<polygon fill="midnightblue" stroke="midnightblue" points="201.5,-31.5706 198,-21.5707 194.5,-31.5707 201.5,-31.5706"/>
</g>
</g>
</svg>
