<?xml version="1.0" encoding="UTF-8" standalone="no"?>
<!DOCTYPE svg PUBLIC "-//W3C//DTD SVG 1.1//EN"
 "http://www.w3.org/Graphics/SVG/1.1/DTD/svg11.dtd">
<!-- Generated by graphviz version 2.26.3 (20100126.1600)
 -->
<!-- Title: G Pages: 1 -->
<svg width="1006pt" height="310pt"
 viewBox="0.00 0.00 1006.00 310.00" xmlns="http://www.w3.org/2000/svg" xmlns:xlink="http://www.w3.org/1999/xlink">
<g id="graph1" class="graph" transform="scale(1 1) rotate(0) translate(4 306)">
<title>G</title>
<polygon fill="white" stroke="white" points="-4,5 -4,-306 1003,-306 1003,5 -4,5"/>
<!-- Node1 -->
<g id="node1" class="node"><title>Node1</title>
<polygon fill="#bfbfbf" stroke="black" points="150,-160.5 150,-181.5 278,-181.5 278,-160.5 150,-160.5"/>
<text text-anchor="middle" x="214" y="-168.5" font-family="Helvetica,sans-Serif" font-size="10.00">gaia::text::CharacterStyle</text>
</g>
<!-- Node3 -->
<g id="node5" class="node"><title>Node3</title>
<a xlink:href="../../d5/d25/classgaia_1_1text_1_1_background_color_span.html" target="_top" xlink:title="Describes a background color in a span.">
<polygon fill="white" stroke="black" points="314.5,-260.5 314.5,-281.5 475.5,-281.5 475.5,-260.5 314.5,-260.5"/>
<text text-anchor="middle" x="395" y="-268.5" font-family="Helvetica,sans-Serif" font-size="10.00">gaia::text::BackgroundColorSpan</text>
</a>
</g>
<!-- Node1&#45;&gt;Node3 -->
<g id="edge4" class="edge"><title>Node1&#45;&gt;Node3</title>
<path fill="none" stroke="midnightblue" d="M231.223,-188.737C249.944,-207.001 281.551,-234.988 314,-251 321.664,-254.782 330.097,-257.883 338.539,-260.416"/>
<polygon fill="midnightblue" stroke="midnightblue" points="233.579,-186.145 224.023,-181.569 228.64,-191.105 233.579,-186.145"/>
</g>
<!-- Node4 -->
<g id="node7" class="node"><title>Node4</title>
<a xlink:href="../../d1/d56/classgaia_1_1text_1_1_clickable_span.html" target="_top" xlink:title="If an object of this type is attached to the text of a TextView with a movement method of LinkMovemen...">
<polygon fill="white" stroke="black" points="332,-220.5 332,-241.5 458,-241.5 458,-220.5 332,-220.5"/>
<text text-anchor="middle" x="395" y="-228.5" font-family="Helvetica,sans-Serif" font-size="10.00">gaia::text::ClickableSpan</text>
</a>
</g>
<!-- Node1&#45;&gt;Node4 -->
<g id="edge6" class="edge"><title>Node1&#45;&gt;Node4</title>
<path fill="none" stroke="midnightblue" d="M247.155,-185.605C266.425,-193.753 291.311,-203.7 314,-211 324.755,-214.46 336.476,-217.669 347.576,-220.458"/>
<polygon fill="midnightblue" stroke="midnightblue" points="248.477,-182.363 237.906,-181.65 245.725,-188.8 248.477,-182.363"/>
</g>
<!-- Node6 -->
<g id="node11" class="node"><title>Node6</title>
<a xlink:href="../../d4/d7b/classgaia_1_1text_1_1_foreground_color_span.html" target="_top" xlink:title="Describes a foreground color in a span.">
<polygon fill="white" stroke="black" points="316,-180.5 316,-201.5 474,-201.5 474,-180.5 316,-180.5"/>
<text text-anchor="middle" x="395" y="-188.5" font-family="Helvetica,sans-Serif" font-size="10.00">gaia::text::ForegroundColorSpan</text>
</a>
</g>
<!-- Node1&#45;&gt;Node6 -->
<g id="edge10" class="edge"><title>Node1&#45;&gt;Node6</title>
<path fill="none" stroke="midnightblue" d="M288.216,-179.201C297.308,-180.205 306.626,-181.235 315.788,-182.247"/>
<polygon fill="midnightblue" stroke="midnightblue" points="288.392,-175.699 278.069,-178.079 287.624,-182.657 288.392,-175.699"/>
</g>
<!-- Node7 -->
<g id="node13" class="node"><title>Node7</title>
<a xlink:href="../../d2/dff/classgaia_1_1text_1_1_metric_affecting_span.html" target="_top" xlink:title="The classes that affect character&#45;level text formatting in a way that changes the width or height of ...">
<polygon fill="white" stroke="black" points="319,-140.5 319,-161.5 471,-161.5 471,-140.5 319,-140.5"/>
<text text-anchor="middle" x="395" y="-148.5" font-family="Helvetica,sans-Serif" font-size="10.00">gaia::text::MetricAffectingSpan</text>
</a>
</g>
<!-- Node1&#45;&gt;Node7 -->
<g id="edge12" class="edge"><title>Node1&#45;&gt;Node7</title>
<path fill="none" stroke="midnightblue" d="M288.119,-162.81C298.284,-161.687 308.734,-160.532 318.933,-159.405"/>
<polygon fill="midnightblue" stroke="midnightblue" points="287.624,-159.343 278.069,-163.921 288.392,-166.301 287.624,-159.343"/>
</g>
<!-- Node17 -->
<g id="node33" class="node"><title>Node17</title>
<a xlink:href="../../db/dbd/classgaia_1_1text_1_1_strikethrough_span.html" target="_top" xlink:title="Describes a strikethrough in a span.">
<polygon fill="white" stroke="black" points="323.5,-100.5 323.5,-121.5 466.5,-121.5 466.5,-100.5 323.5,-100.5"/>
<text text-anchor="middle" x="395" y="-108.5" font-family="Helvetica,sans-Serif" font-size="10.00">gaia::text::StrikethroughSpan</text>
</a>
</g>
<!-- Node1&#45;&gt;Node17 -->
<g id="edge32" class="edge"><title>Node1&#45;&gt;Node17</title>
<path fill="none" stroke="midnightblue" d="M247.155,-156.395C266.425,-148.247 291.311,-138.3 314,-131 324.755,-127.54 336.476,-124.331 347.576,-121.542"/>
<polygon fill="midnightblue" stroke="midnightblue" points="245.725,-153.2 237.906,-160.35 248.477,-159.637 245.725,-153.2"/>
</g>
<!-- Node18 -->
<g id="node35" class="node"><title>Node18</title>
<a xlink:href="../../d7/d7d/classgaia_1_1text_1_1_underline_span.html" target="_top" xlink:title="Describes a underline in a span.">
<polygon fill="white" stroke="black" points="331.5,-60.5 331.5,-81.5 458.5,-81.5 458.5,-60.5 331.5,-60.5"/>
<text text-anchor="middle" x="395" y="-68.5" font-family="Helvetica,sans-Serif" font-size="10.00">gaia::text::UnderlineSpan</text>
</a>
</g>
<!-- Node1&#45;&gt;Node18 -->
<g id="edge34" class="edge"><title>Node1&#45;&gt;Node18</title>
<path fill="none" stroke="midnightblue" d="M231.223,-153.263C249.944,-134.999 281.551,-107.012 314,-91 321.664,-87.2182 330.097,-84.1173 338.539,-81.5842"/>
<polygon fill="midnightblue" stroke="midnightblue" points="228.64,-150.895 224.023,-160.431 233.579,-155.855 228.64,-150.895"/>
</g>
<!-- Node2 -->
<g id="node2" class="node"><title>Node2</title>
<a xlink:href="../../d7/d55/classgaia_1_1text_1_1_object_style.html" target="_top" xlink:title="ObjectStyle is interface for spannable class.">
<polygon fill="white" stroke="black" points="0,-160.5 0,-181.5 114,-181.5 114,-160.5 0,-160.5"/>
<text text-anchor="middle" x="57" y="-168.5" font-family="Helvetica,sans-Serif" font-size="10.00">gaia::text::ObjectStyle</text>
</a>
</g>
<!-- Node2&#45;&gt;Node1 -->
<g id="edge2" class="edge"><title>Node2&#45;&gt;Node1</title>
<path fill="none" stroke="midnightblue" d="M124.302,-171C132.74,-171 141.353,-171 149.742,-171"/>
<polygon fill="midnightblue" stroke="midnightblue" points="124.125,-167.5 114.125,-171 124.125,-174.5 124.125,-167.5"/>
</g>
<!-- Node5 -->
<g id="node9" class="node"><title>Node5</title>
<a xlink:href="../../d9/ddd/classgaia_1_1text_1_1_u_r_l_span.html" target="_top" xlink:title="Describes a URL in a span.">
<polygon fill="white" stroke="black" points="531,-280.5 531,-301.5 637,-301.5 637,-280.5 531,-280.5"/>
<text text-anchor="middle" x="584" y="-288.5" font-family="Helvetica,sans-Serif" font-size="10.00">gaia::text::URLSpan</text>
</a>
</g>
<!-- Node4&#45;&gt;Node5 -->
<g id="edge8" class="edge"><title>Node4&#45;&gt;Node5</title>
<path fill="none" stroke="midnightblue" d="M456.42,-244.327C463.108,-246.32 469.751,-248.543 476,-251 493.034,-257.697 495.064,-264.058 512,-271 520.763,-274.592 530.383,-277.762 539.658,-280.458"/>
<polygon fill="midnightblue" stroke="midnightblue" points="457.204,-240.911 446.629,-241.571 455.307,-247.65 457.204,-240.911"/>
</g>
<!-- Node8 -->
<g id="node15" class="node"><title>Node8</title>
<a xlink:href="../../d8/dd1/classgaia_1_1text_1_1_absolute_size_span.html" target="_top" xlink:title="Describes a style in a span.">
<polygon fill="white" stroke="black" points="512.5,-240.5 512.5,-261.5 655.5,-261.5 655.5,-240.5 512.5,-240.5"/>
<text text-anchor="middle" x="584" y="-248.5" font-family="Helvetica,sans-Serif" font-size="10.00">gaia::text::AbsoluteSizeSpan</text>
</a>
</g>
<!-- Node7&#45;&gt;Node8 -->
<g id="edge14" class="edge"><title>Node7&#45;&gt;Node8</title>
<path fill="none" stroke="midnightblue" d="M468.149,-165.983C470.886,-167.498 473.517,-169.166 476,-171 501.014,-189.478 487.256,-212.163 512,-231 517.058,-234.85 522.818,-237.96 528.825,-240.47"/>
<polygon fill="midnightblue" stroke="midnightblue" points="469.627,-162.81 459.097,-161.64 466.599,-169.121 469.627,-162.81"/>
</g>
<!-- Node9 -->
<g id="node17" class="node"><title>Node9</title>
<a xlink:href="../../dc/d37/classgaia_1_1text_1_1_relative_size_span.html" target="_top" xlink:title="Describes a style in a span.">
<polygon fill="white" stroke="black" points="513.5,-200.5 513.5,-221.5 654.5,-221.5 654.5,-200.5 513.5,-200.5"/>
<text text-anchor="middle" x="584" y="-208.5" font-family="Helvetica,sans-Serif" font-size="10.00">gaia::text::RelativeSizeSpan</text>
</a>
</g>
<!-- Node7&#45;&gt;Node9 -->
<g id="edge16" class="edge"><title>Node7&#45;&gt;Node9</title>
<path fill="none" stroke="midnightblue" d="M456.42,-164.327C463.108,-166.32 469.751,-168.543 476,-171 493.034,-177.697 495.064,-184.058 512,-191 520.763,-194.592 530.383,-197.762 539.658,-200.458"/>
<polygon fill="midnightblue" stroke="midnightblue" points="457.204,-160.911 446.629,-161.571 455.307,-167.65 457.204,-160.911"/>
</g>
<!-- Node10 -->
<g id="node19" class="node"><title>Node10</title>
<a xlink:href="../../da/d2b/classgaia_1_1text_1_1_replacement_span.html" target="_top" xlink:title="gaia::text::ReplacementSpan">
<polygon fill="white" stroke="black" points="512.5,-160.5 512.5,-181.5 655.5,-181.5 655.5,-160.5 512.5,-160.5"/>
<text text-anchor="middle" x="584" y="-168.5" font-family="Helvetica,sans-Serif" font-size="10.00">gaia::text::ReplacementSpan</text>
</a>
</g>
<!-- Node7&#45;&gt;Node10 -->
<g id="edge18" class="edge"><title>Node7&#45;&gt;Node10</title>
<path fill="none" stroke="midnightblue" d="M481.045,-160.105C491.526,-161.214 502.147,-162.338 512.387,-163.422"/>
<polygon fill="midnightblue" stroke="midnightblue" points="481.369,-156.62 471.057,-159.048 480.633,-163.581 481.369,-156.62"/>
</g>
<!-- Node13 -->
<g id="node25" class="node"><title>Node13</title>
<a xlink:href="../../d7/d38/classgaia_1_1text_1_1_style_span.html" target="_top" xlink:title="Describes a style in a span.">
<polygon fill="white" stroke="black" points="530,-120.5 530,-141.5 638,-141.5 638,-120.5 530,-120.5"/>
<text text-anchor="middle" x="584" y="-128.5" font-family="Helvetica,sans-Serif" font-size="10.00">gaia::text::StyleSpan</text>
</a>
</g>
<!-- Node7&#45;&gt;Node13 -->
<g id="edge24" class="edge"><title>Node7&#45;&gt;Node13</title>
<path fill="none" stroke="midnightblue" d="M481.292,-141.869C497.829,-140.119 514.705,-138.333 529.872,-136.728"/>
<polygon fill="midnightblue" stroke="midnightblue" points="480.633,-138.419 471.057,-142.952 481.369,-145.38 480.633,-138.419"/>
</g>
<!-- Node14 -->
<g id="node27" class="node"><title>Node14</title>
<a xlink:href="../../d8/da6/classgaia_1_1text_1_1_subscript_span.html" target="_top" xlink:title="Describes a subscript style in a span.">
<polygon fill="white" stroke="black" points="520.5,-80.5 520.5,-101.5 647.5,-101.5 647.5,-80.5 520.5,-80.5"/>
<text text-anchor="middle" x="584" y="-88.5" font-family="Helvetica,sans-Serif" font-size="10.00">gaia::text::SubscriptSpan</text>
</a>
</g>
<!-- Node7&#45;&gt;Node14 -->
<g id="edge26" class="edge"><title>Node7&#45;&gt;Node14</title>
<path fill="none" stroke="midnightblue" d="M456.42,-137.673C463.108,-135.68 469.751,-133.457 476,-131 493.034,-124.303 495.064,-117.942 512,-111 520.763,-107.408 530.383,-104.238 539.658,-101.542"/>
<polygon fill="midnightblue" stroke="midnightblue" points="455.307,-134.35 446.629,-140.429 457.204,-141.089 455.307,-134.35"/>
</g>
<!-- Node15 -->
<g id="node29" class="node"><title>Node15</title>
<a xlink:href="../../d4/d36/classgaia_1_1text_1_1_superscript_span.html" target="_top" xlink:title="Describes a superscript style in a span.">
<polygon fill="white" stroke="black" points="516.5,-40.5 516.5,-61.5 651.5,-61.5 651.5,-40.5 516.5,-40.5"/>
<text text-anchor="middle" x="584" y="-48.5" font-family="Helvetica,sans-Serif" font-size="10.00">gaia::text::SuperscriptSpan</text>
</a>
</g>
<!-- Node7&#45;&gt;Node15 -->
<g id="edge28" class="edge"><title>Node7&#45;&gt;Node15</title>
<path fill="none" stroke="midnightblue" d="M468.149,-136.017C470.886,-134.502 473.517,-132.834 476,-131 501.014,-112.522 487.256,-89.8367 512,-71 517.058,-67.1495 522.818,-64.0403 528.825,-61.5297"/>
<polygon fill="midnightblue" stroke="midnightblue" points="466.599,-132.879 459.097,-140.36 469.627,-139.19 466.599,-132.879"/>
</g>
<!-- Node16 -->
<g id="node31" class="node"><title>Node16</title>
<a xlink:href="../../de/d21/classgaia_1_1text_1_1_typeface_span.html" target="_top" xlink:title="Describes a typeface in a span.">
<polygon fill="white" stroke="black" points="521,-0.5 521,-21.5 647,-21.5 647,-0.5 521,-0.5"/>
<text text-anchor="middle" x="584" y="-8.5" font-family="Helvetica,sans-Serif" font-size="10.00">gaia::text::TypefaceSpan</text>
</a>
</g>
<!-- Node7&#45;&gt;Node16 -->
<g id="edge30" class="edge"><title>Node7&#45;&gt;Node16</title>
<path fill="none" stroke="midnightblue" d="M470.607,-135.277C472.492,-133.96 474.295,-132.537 476,-131 511.084,-99.3708 477.376,-63.1324 512,-31 516.089,-27.2053 520.836,-24.121 525.904,-21.6157"/>
<polygon fill="midnightblue" stroke="midnightblue" points="468.735,-132.318 461.889,-140.405 472.283,-138.352 468.735,-132.318"/>
</g>
<!-- Node11 -->
<g id="node21" class="node"><title>Node11</title>
<a xlink:href="../../de/d02/classgaia_1_1text_1_1_dynamic_drawer_span.html" target="_top" xlink:title="gaia::text::DynamicDrawerSpan">
<polygon fill="white" stroke="black" points="692,-160.5 692,-181.5 848,-181.5 848,-160.5 692,-160.5"/>
<text text-anchor="middle" x="770" y="-168.5" font-family="Helvetica,sans-Serif" font-size="10.00">gaia::text::DynamicDrawerSpan</text>
</a>
</g>
<!-- Node10&#45;&gt;Node11 -->
<g id="edge20" class="edge"><title>Node10&#45;&gt;Node11</title>
<path fill="none" stroke="midnightblue" d="M665.761,-171C674.444,-171 683.26,-171 691.9,-171"/>
<polygon fill="midnightblue" stroke="midnightblue" points="665.646,-167.5 655.646,-171 665.646,-174.5 665.646,-167.5"/>
</g>
<!-- Node12 -->
<g id="node23" class="node"><title>Node12</title>
<a xlink:href="../../d2/d21/classgaia_1_1text_1_1_image_span.html" target="_top" xlink:title="gaia::text::ImageSpan">
<polygon fill="white" stroke="black" points="884.5,-160.5 884.5,-181.5 997.5,-181.5 997.5,-160.5 884.5,-160.5"/>
<text text-anchor="middle" x="941" y="-168.5" font-family="Helvetica,sans-Serif" font-size="10.00">gaia::text::ImageSpan</text>
</a>
</g>
<!-- Node11&#45;&gt;Node12 -->
<g id="edge22" class="edge"><title>Node11&#45;&gt;Node12</title>
<path fill="none" stroke="midnightblue" d="M858.739,-171C867.468,-171 876.153,-171 884.427,-171"/>
<polygon fill="midnightblue" stroke="midnightblue" points="858.493,-167.5 848.493,-171 858.493,-174.5 858.493,-167.5"/>
</g>
</g>
</svg>
