<?xml version="1.0" encoding="UTF-8" standalone="no"?>
<!DOCTYPE svg PUBLIC "-//W3C//DTD SVG 1.1//EN"
 "http://www.w3.org/Graphics/SVG/1.1/DTD/svg11.dtd">
<!-- Generated by graphviz version 2.26.3 (20100126.1600)
 -->
<!-- Title: G Pages: 1 -->
<svg width="258pt" height="146pt"
 viewBox="0.00 0.00 258.00 146.00" xmlns="http://www.w3.org/2000/svg" xmlns:xlink="http://www.w3.org/1999/xlink">
<g id="graph1" class="graph" transform="scale(1 1) rotate(0) translate(4 142)">
<title>G</title>
<polygon fill="white" stroke="white" points="-4,5 -4,-142 255,-142 255,5 -4,5"/>
<!-- Node1 -->
<g id="node1" class="node"><title>Node1</title>
<polygon fill="#bfbfbf" stroke="black" points="-0.5,-116.5 -0.5,-137.5 250.5,-137.5 250.5,-116.5 -0.5,-116.5"/>
<text text-anchor="middle" x="125" y="-124.5" font-family="Helvetica,sans-Serif" font-size="10.00">/home/vilon_tao/gaia/sdk/include/gaia/core/GL10Ext.h</text>
</g>
<!-- Node2 -->
<g id="node3" class="node"><title>Node2</title>
<polygon fill="white" stroke="#bfbfbf" points="59.5,-58.5 59.5,-79.5 108.5,-79.5 108.5,-58.5 59.5,-58.5"/>
<text text-anchor="middle" x="84" y="-66.5" font-family="Helvetica,sans-Serif" font-size="10.00">stdint.h</text>
</g>
<!-- Node1&#45;&gt;Node2 -->
<g id="edge2" class="edge"><title>Node1&#45;&gt;Node2</title>
<path fill="none" stroke="midnightblue" d="M117.48,-116.362C111.874,-108.431 104.068,-97.3885 97.4032,-87.9606"/>
<polygon fill="midnightblue" stroke="midnightblue" points="100.103,-85.7161 91.4724,-79.5707 94.3867,-89.7568 100.103,-85.7161"/>
</g>
<!-- Node3 -->
<g id="node5" class="node"><title>Node3</title>
<a xlink:href="../../d9/dd7/_g_l_8h.html" target="_top" xlink:title="gaia/core/GL.h">
<polygon fill="white" stroke="black" points="126,-58.5 126,-79.5 206,-79.5 206,-58.5 126,-58.5"/>
<text text-anchor="middle" x="166" y="-66.5" font-family="Helvetica,sans-Serif" font-size="10.00">gaia/core/GL.h</text>
</a>
</g>
<!-- Node1&#45;&gt;Node3 -->
<g id="edge4" class="edge"><title>Node1&#45;&gt;Node3</title>
<path fill="none" stroke="midnightblue" d="M132.52,-116.362C138.126,-108.431 145.932,-97.3885 152.597,-87.9606"/>
<polygon fill="midnightblue" stroke="midnightblue" points="155.613,-89.7568 158.528,-79.5707 149.897,-85.7161 155.613,-89.7568"/>
</g>
<!-- Node4 -->
<g id="node7" class="node"><title>Node4</title>
<a xlink:href="../../d1/dd0/gmacros_8h.html" target="_top" xlink:title="gaia/base/gmacros.h">
<polygon fill="white" stroke="black" points="112.5,-0.5 112.5,-21.5 219.5,-21.5 219.5,-0.5 112.5,-0.5"/>
<text text-anchor="middle" x="166" y="-8.5" font-family="Helvetica,sans-Serif" font-size="10.00">gaia/base/gmacros.h</text>
</a>
</g>
<!-- Node3&#45;&gt;Node4 -->
<g id="edge6" class="edge"><title>Node3&#45;&gt;Node4</title>
<path fill="none" stroke="midnightblue" d="M166,-58.3619C166,-50.9219 166,-40.7427 166,-31.7276"/>
<polygon fill="midnightblue" stroke="midnightblue" points="169.5,-31.5706 166,-21.5707 162.5,-31.5707 169.5,-31.5706"/>
</g>
</g>
</svg>
