<?xml version="1.0" encoding="UTF-8" standalone="no"?>
<!DOCTYPE svg PUBLIC "-//W3C//DTD SVG 1.1//EN"
 "http://www.w3.org/Graphics/SVG/1.1/DTD/svg11.dtd">
<!-- Generated by graphviz version 2.26.3 (20100126.1600)
 -->
<!-- Title: G Pages: 1 -->
<svg width="342pt" height="146pt"
 viewBox="0.00 0.00 342.00 146.00" xmlns="http://www.w3.org/2000/svg" xmlns:xlink="http://www.w3.org/1999/xlink">
<g id="graph1" class="graph" transform="scale(1 1) rotate(0) translate(4 142)">
<title>G</title>
<polygon fill="white" stroke="white" points="-4,5 -4,-142 339,-142 339,5 -4,5"/>
<!-- Node1 -->
<g id="node1" class="node"><title>Node1</title>
<polygon fill="#bfbfbf" stroke="black" points="-0.5,-116.5 -0.5,-137.5 334.5,-137.5 334.5,-116.5 -0.5,-116.5"/>
<text text-anchor="middle" x="167" y="-124.5" font-family="Helvetica,sans-Serif" font-size="10.00">/home/vilon_tao/gaia/sdk/include/gaia/ui/preference/SeekBarPreference.h</text>
</g>
<!-- Node2 -->
<g id="node3" class="node"><title>Node2</title>
<a xlink:href="../../d4/dd7/_preference_8h.html" target="_top" xlink:title="gaia/ui/preference/Preference.h">
<polygon fill="white" stroke="black" points="39,-58.5 39,-79.5 191,-79.5 191,-58.5 39,-58.5"/>
<text text-anchor="middle" x="115" y="-66.5" font-family="Helvetica,sans-Serif" font-size="10.00">gaia/ui/preference/Preference.h</text>
</a>
</g>
<!-- Node1&#45;&gt;Node2 -->
<g id="edge2" class="edge"><title>Node1&#45;&gt;Node2</title>
<path fill="none" stroke="midnightblue" d="M157.462,-116.362C150.132,-108.186 139.837,-96.7025 131.219,-87.0907"/>
<polygon fill="midnightblue" stroke="midnightblue" points="133.759,-84.68 124.477,-79.5707 128.547,-89.3528 133.759,-84.68"/>
</g>
<!-- Node4 -->
<g id="node7" class="node"><title>Node4</title>
<a xlink:href="../../d1/dd0/gmacros_8h.html" target="_top" xlink:title="gaia/base/gmacros.h">
<polygon fill="white" stroke="black" points="160.5,-0.5 160.5,-21.5 267.5,-21.5 267.5,-0.5 160.5,-0.5"/>
<text text-anchor="middle" x="214" y="-8.5" font-family="Helvetica,sans-Serif" font-size="10.00">gaia/base/gmacros.h</text>
</a>
</g>
<!-- Node1&#45;&gt;Node4 -->
<g id="edge8" class="edge"><title>Node1&#45;&gt;Node4</title>
<path fill="none" stroke="midnightblue" d="M176.551,-116.201C184.051,-107.146 194.17,-93.5554 200,-80 206.63,-64.5832 210.176,-45.8562 212.038,-31.8039"/>
<polygon fill="midnightblue" stroke="midnightblue" points="215.536,-32.0227 213.197,-21.6891 208.581,-31.2255 215.536,-32.0227"/>
</g>
<!-- Node3 -->
<g id="node5" class="node"><title>Node3</title>
<polygon fill="white" stroke="#bfbfbf" points="90.5,-0.5 90.5,-21.5 139.5,-21.5 139.5,-0.5 90.5,-0.5"/>
<text text-anchor="middle" x="115" y="-8.5" font-family="Helvetica,sans-Serif" font-size="10.00">stdint.h</text>
</g>
<!-- Node2&#45;&gt;Node3 -->
<g id="edge4" class="edge"><title>Node2&#45;&gt;Node3</title>
<path fill="none" stroke="midnightblue" d="M115,-58.3619C115,-50.9219 115,-40.7427 115,-31.7276"/>
<polygon fill="midnightblue" stroke="midnightblue" points="118.5,-31.5706 115,-21.5707 111.5,-31.5707 118.5,-31.5706"/>
</g>
<!-- Node2&#45;&gt;Node4 -->
<g id="edge6" class="edge"><title>Node2&#45;&gt;Node4</title>
<path fill="none" stroke="midnightblue" d="M133.158,-58.3619C148.23,-49.532 169.887,-36.844 186.993,-26.8224"/>
<polygon fill="midnightblue" stroke="midnightblue" points="189.098,-29.6456 195.957,-21.5707 185.559,-23.6058 189.098,-29.6456"/>
</g>
</g>
</svg>
