<?xml version="1.0" encoding="UTF-8" standalone="no"?>
<!DOCTYPE svg PUBLIC "-//W3C//DTD SVG 1.1//EN"
 "http://www.w3.org/Graphics/SVG/1.1/DTD/svg11.dtd">
<!-- Generated by graphviz version 2.26.3 (20100126.1600)
 -->
<!-- Title: G Pages: 1 -->
<svg width="390pt" height="262pt"
 viewBox="0.00 0.00 390.00 262.00" xmlns="http://www.w3.org/2000/svg" xmlns:xlink="http://www.w3.org/1999/xlink">
<g id="graph1" class="graph" transform="scale(1 1) rotate(0) translate(4 258)">
<title>G</title>
<polygon fill="white" stroke="white" points="-4,5 -4,-258 387,-258 387,5 -4,5"/>
<!-- Node1 -->
<g id="node1" class="node"><title>Node1</title>
<polygon fill="#bfbfbf" stroke="black" points="34.5,-232.5 34.5,-253.5 373.5,-253.5 373.5,-232.5 34.5,-232.5"/>
<text text-anchor="middle" x="204" y="-240.5" font-family="Helvetica,sans-Serif" font-size="10.00">/home/vilon_tao/gaia/sdk/include/gaia/ui/preference/PreferenceFragment.h</text>
</g>
<!-- Node2 -->
<g id="node3" class="node"><title>Node2</title>
<polygon fill="white" stroke="#bfbfbf" points="83.5,-174.5 83.5,-195.5 132.5,-195.5 132.5,-174.5 83.5,-174.5"/>
<text text-anchor="middle" x="108" y="-182.5" font-family="Helvetica,sans-Serif" font-size="10.00">stdint.h</text>
</g>
<!-- Node1&#45;&gt;Node2 -->
<g id="edge2" class="edge"><title>Node1&#45;&gt;Node2</title>
<path fill="none" stroke="midnightblue" d="M186.392,-232.362C171.777,-223.532 150.776,-210.844 134.189,-200.822"/>
<polygon fill="midnightblue" stroke="midnightblue" points="135.865,-197.746 125.496,-195.571 132.246,-203.738 135.865,-197.746"/>
</g>
<!-- Node3 -->
<g id="node5" class="node"><title>Node3</title>
<a xlink:href="../../dc/ddc/_fragment_8h.html" target="_top" xlink:title="gaia/core/Fragment.h">
<polygon fill="white" stroke="black" points="149.5,-174.5 149.5,-195.5 258.5,-195.5 258.5,-174.5 149.5,-174.5"/>
<text text-anchor="middle" x="204" y="-182.5" font-family="Helvetica,sans-Serif" font-size="10.00">gaia/core/Fragment.h</text>
</a>
</g>
<!-- Node1&#45;&gt;Node3 -->
<g id="edge4" class="edge"><title>Node1&#45;&gt;Node3</title>
<path fill="none" stroke="midnightblue" d="M204,-232.362C204,-224.922 204,-214.743 204,-205.728"/>
<polygon fill="midnightblue" stroke="midnightblue" points="207.5,-205.571 204,-195.571 200.5,-205.571 207.5,-205.571"/>
</g>
<!-- Node8 -->
<g id="node16" class="node"><title>Node8</title>
<a xlink:href="../../d1/dd0/gmacros_8h.html" target="_top" xlink:title="gaia/base/gmacros.h">
<polygon fill="white" stroke="black" points="275.5,-174.5 275.5,-195.5 382.5,-195.5 382.5,-174.5 275.5,-174.5"/>
<text text-anchor="middle" x="329" y="-182.5" font-family="Helvetica,sans-Serif" font-size="10.00">gaia/base/gmacros.h</text>
</a>
</g>
<!-- Node1&#45;&gt;Node8 -->
<g id="edge16" class="edge"><title>Node1&#45;&gt;Node8</title>
<path fill="none" stroke="midnightblue" d="M226.637,-232.497C246.248,-223.397 274.846,-210.127 296.833,-199.925"/>
<polygon fill="midnightblue" stroke="midnightblue" points="298.512,-203.005 306.109,-195.621 295.565,-196.655 298.512,-203.005"/>
</g>
<!-- Node4 -->
<g id="node7" class="node"><title>Node4</title>
<a xlink:href="../../db/dbd/_export_8h.html" target="_top" xlink:title="gaia/core/Export.h">
<polygon fill="white" stroke="black" points="118,-116.5 118,-137.5 214,-137.5 214,-116.5 118,-116.5"/>
<text text-anchor="middle" x="166" y="-124.5" font-family="Helvetica,sans-Serif" font-size="10.00">gaia/core/Export.h</text>
</a>
</g>
<!-- Node3&#45;&gt;Node4 -->
<g id="edge6" class="edge"><title>Node3&#45;&gt;Node4</title>
<path fill="none" stroke="midnightblue" d="M197.03,-174.362C191.834,-166.431 184.599,-155.389 178.422,-145.961"/>
<polygon fill="midnightblue" stroke="midnightblue" points="181.334,-144.017 172.926,-137.571 175.478,-147.853 181.334,-144.017"/>
</g>
<!-- Node6 -->
<g id="node11" class="node"><title>Node6</title>
<polygon fill="white" stroke="#bfbfbf" points="123,-0.5 123,-21.5 191,-21.5 191,-0.5 123,-0.5"/>
<text text-anchor="middle" x="157" y="-8.5" font-family="Helvetica,sans-Serif" font-size="10.00">sys/types.h</text>
</g>
<!-- Node3&#45;&gt;Node6 -->
<g id="edge14" class="edge"><title>Node3&#45;&gt;Node6</title>
<path fill="none" stroke="midnightblue" d="M209.599,-174.439C220.799,-151.751 243.227,-97.2352 223,-58 216.102,-44.6187 203.436,-34.2114 191.031,-26.6302"/>
<polygon fill="midnightblue" stroke="midnightblue" points="192.559,-23.4739 182.13,-21.6072 189.119,-29.5702 192.559,-23.4739"/>
</g>
<!-- Node5 -->
<g id="node9" class="node"><title>Node5</title>
<a xlink:href="../../de/d8c/_component_loader_8h.html" target="_top" xlink:title="gaia/core/ComponentLoader.h">
<polygon fill="white" stroke="black" points="-0.5,-58.5 -0.5,-79.5 146.5,-79.5 146.5,-58.5 -0.5,-58.5"/>
<text text-anchor="middle" x="73" y="-66.5" font-family="Helvetica,sans-Serif" font-size="10.00">gaia/core/ComponentLoader.h</text>
</a>
</g>
<!-- Node4&#45;&gt;Node5 -->
<g id="edge8" class="edge"><title>Node4&#45;&gt;Node5</title>
<path fill="none" stroke="midnightblue" d="M148.942,-116.362C134.915,-107.614 114.816,-95.0786 98.8179,-85.1015"/>
<polygon fill="midnightblue" stroke="midnightblue" points="100.287,-81.8927 89.9495,-79.5707 96.5825,-87.8323 100.287,-81.8927"/>
</g>
<!-- Node7 -->
<g id="node13" class="node"><title>Node7</title>
<polygon fill="white" stroke="#bfbfbf" points="163.5,-58.5 163.5,-79.5 214.5,-79.5 214.5,-58.5 163.5,-58.5"/>
<text text-anchor="middle" x="189" y="-66.5" font-family="Helvetica,sans-Serif" font-size="10.00">typeinfo</text>
</g>
<!-- Node4&#45;&gt;Node7 -->
<g id="edge12" class="edge"><title>Node4&#45;&gt;Node7</title>
<path fill="none" stroke="midnightblue" d="M170.219,-116.362C173.234,-108.758 177.383,-98.294 181.015,-89.1349"/>
<polygon fill="midnightblue" stroke="midnightblue" points="184.375,-90.1567 184.808,-79.5707 177.868,-87.5762 184.375,-90.1567"/>
</g>
<!-- Node5&#45;&gt;Node6 -->
<g id="edge10" class="edge"><title>Node5&#45;&gt;Node6</title>
<path fill="none" stroke="midnightblue" d="M88.4069,-58.3619C100.958,-49.6955 118.892,-37.3126 133.275,-27.3819"/>
<polygon fill="midnightblue" stroke="midnightblue" points="135.45,-30.1327 141.691,-21.5707 131.473,-24.3725 135.45,-30.1327"/>
</g>
</g>
</svg>
