<?xml version="1.0" encoding="UTF-8" standalone="no"?>
<!DOCTYPE svg PUBLIC "-//W3C//DTD SVG 1.1//EN"
 "http://www.w3.org/Graphics/SVG/1.1/DTD/svg11.dtd">
<!-- Generated by graphviz version 2.26.3 (20100126.1600)
 -->
<!-- Title: G Pages: 1 -->
<svg width="1192pt" height="320pt"
 viewBox="0.00 0.00 1192.00 320.00" xmlns="http://www.w3.org/2000/svg" xmlns:xlink="http://www.w3.org/1999/xlink">
<g id="graph1" class="graph" transform="scale(1 1) rotate(0) translate(4 316)">
<title>G</title>
<polygon fill="white" stroke="white" points="-4,5 -4,-316 1189,-316 1189,5 -4,5"/>
<!-- Node1 -->
<g id="node1" class="node"><title>Node1</title>
<polygon fill="#bfbfbf" stroke="black" points="610,-290.5 610,-311.5 870,-311.5 870,-290.5 610,-290.5"/>
<text text-anchor="middle" x="740" y="-298.5" font-family="Helvetica,sans-Serif" font-size="10.00">/home/vilon_tao/gaia/sdk/include/gaia/ui/ImageWidget.h</text>
</g>
<!-- Node2 -->
<g id="node3" class="node"><title>Node2</title>
<a xlink:href="../../d4/d98/_context_8h.html" target="_top" xlink:title="gaia/core/Context.h">
<polygon fill="white" stroke="black" points="912,-116.5 912,-137.5 1014,-137.5 1014,-116.5 912,-116.5"/>
<text text-anchor="middle" x="963" y="-124.5" font-family="Helvetica,sans-Serif" font-size="10.00">gaia/core/Context.h</text>
</a>
</g>
<!-- Node1&#45;&gt;Node2 -->
<g id="edge2" class="edge"><title>Node1&#45;&gt;Node2</title>
<path fill="none" stroke="midnightblue" d="M783.877,-290.425C830.882,-276.744 904.091,-248.22 944,-196 954.581,-182.154 959.271,-162.77 961.349,-148.071"/>
<polygon fill="midnightblue" stroke="midnightblue" points="964.852,-148.24 962.483,-137.913 957.895,-147.463 964.852,-148.24"/>
</g>
<!-- Node4 -->
<g id="node7" class="node"><title>Node4</title>
<a xlink:href="../../d3/dd0/_event_control_8h.html" target="_top" xlink:title="gaia/core/event/EventControl.h">
<polygon fill="white" stroke="black" points="1032,-116.5 1032,-137.5 1184,-137.5 1184,-116.5 1032,-116.5"/>
<text text-anchor="middle" x="1108" y="-124.5" font-family="Helvetica,sans-Serif" font-size="10.00">gaia/core/event/EventControl.h</text>
</a>
</g>
<!-- Node1&#45;&gt;Node4 -->
<g id="edge6" class="edge"><title>Node1&#45;&gt;Node4</title>
<path fill="none" stroke="midnightblue" d="M790.744,-290.459C824.055,-282.6 868.12,-270.393 905,-254 975.04,-222.867 1049.49,-170.703 1085.67,-143.95"/>
<polygon fill="midnightblue" stroke="midnightblue" points="1088.09,-146.509 1094.01,-137.725 1083.91,-140.898 1088.09,-146.509"/>
</g>
<!-- Node5 -->
<g id="node10" class="node"><title>Node5</title>
<a xlink:href="../../de/d56/_scene_8h.html" target="_top" xlink:title="gaia/core/vision/Scene.h">
<polygon fill="white" stroke="black" points="59,-174.5 59,-195.5 183,-195.5 183,-174.5 59,-174.5"/>
<text text-anchor="middle" x="121" y="-182.5" font-family="Helvetica,sans-Serif" font-size="10.00">gaia/core/vision/Scene.h</text>
</a>
</g>
<!-- Node1&#45;&gt;Node5 -->
<g id="edge10" class="edge"><title>Node1&#45;&gt;Node5</title>
<path fill="none" stroke="midnightblue" d="M609.73,-294.532C486.968,-287.361 312.391,-274.087 247,-254 208.525,-242.181 168.486,-217.843 144.146,-201.466"/>
<polygon fill="midnightblue" stroke="midnightblue" points="145.848,-198.39 135.621,-195.622 141.89,-204.163 145.848,-198.39"/>
</g>
<!-- Node12 -->
<g id="node27" class="node"><title>Node12</title>
<a xlink:href="../../d4/d75/_widget_8h.html" target="_top" xlink:title="gaia/core/vision/Widget.h">
<polygon fill="white" stroke="black" points="255.5,-232.5 255.5,-253.5 382.5,-253.5 382.5,-232.5 255.5,-232.5"/>
<text text-anchor="middle" x="319" y="-240.5" font-family="Helvetica,sans-Serif" font-size="10.00">gaia/core/vision/Widget.h</text>
</a>
</g>
<!-- Node1&#45;&gt;Node12 -->
<g id="edge30" class="edge"><title>Node1&#45;&gt;Node12</title>
<path fill="none" stroke="midnightblue" d="M658.846,-290.485C590.427,-281.525 489.642,-268.103 392.58,-254.211"/>
<polygon fill="midnightblue" stroke="midnightblue" points="392.99,-250.734 382.594,-252.778 391.996,-257.663 392.99,-250.734"/>
</g>
<!-- Node16 -->
<g id="node37" class="node"><title>Node16</title>
<a xlink:href="../../dd/df1/_bitmap_8h.html" target="_top" xlink:title="gaia/graphics/Bitmap.h">
<polygon fill="white" stroke="black" points="400,-232.5 400,-253.5 516,-253.5 516,-232.5 400,-232.5"/>
<text text-anchor="middle" x="458" y="-240.5" font-family="Helvetica,sans-Serif" font-size="10.00">gaia/graphics/Bitmap.h</text>
</a>
</g>
<!-- Node1&#45;&gt;Node16 -->
<g id="edge42" class="edge"><title>Node1&#45;&gt;Node16</title>
<path fill="none" stroke="midnightblue" d="M688.932,-290.497C641.167,-280.673 569.771,-265.988 519.025,-255.551"/>
<polygon fill="midnightblue" stroke="midnightblue" points="519.664,-252.109 509.164,-253.523 518.254,-258.966 519.664,-252.109"/>
</g>
<!-- Node20 -->
<g id="node48" class="node"><title>Node20</title>
<a xlink:href="../../d7/dcf/_color_filter_8h.html" target="_top" xlink:title="gaia/graphics/ColorFilter.h">
<polygon fill="white" stroke="black" points="533.5,-232.5 533.5,-253.5 664.5,-253.5 664.5,-232.5 533.5,-232.5"/>
<text text-anchor="middle" x="599" y="-240.5" font-family="Helvetica,sans-Serif" font-size="10.00">gaia/graphics/ColorFilter.h</text>
</a>
</g>
<!-- Node1&#45;&gt;Node20 -->
<g id="edge56" class="edge"><title>Node1&#45;&gt;Node20</title>
<path fill="none" stroke="midnightblue" d="M714.466,-290.497C692.047,-281.275 659.215,-267.769 634.287,-257.515"/>
<polygon fill="midnightblue" stroke="midnightblue" points="635.4,-254.189 624.821,-253.621 632.737,-260.662 635.4,-254.189"/>
</g>
<!-- Node21 -->
<g id="node51" class="node"><title>Node21</title>
<a xlink:href="../../d7/dc0/_drawer_8h.html" target="_top" xlink:title="gaia/graphics/Drawer.h">
<polygon fill="white" stroke="black" points="681.5,-232.5 681.5,-253.5 798.5,-253.5 798.5,-232.5 681.5,-232.5"/>
<text text-anchor="middle" x="740" y="-240.5" font-family="Helvetica,sans-Serif" font-size="10.00">gaia/graphics/Drawer.h</text>
</a>
</g>
<!-- Node1&#45;&gt;Node21 -->
<g id="edge60" class="edge"><title>Node1&#45;&gt;Node21</title>
<path fill="none" stroke="midnightblue" d="M740,-290.362C740,-282.922 740,-272.743 740,-263.728"/>
<polygon fill="midnightblue" stroke="midnightblue" points="743.5,-263.571 740,-253.571 736.5,-263.571 743.5,-263.571"/>
</g>
<!-- Node22 -->
<g id="node54" class="node"><title>Node22</title>
<a xlink:href="../../d1/df6/_porter_duff_8h.html" target="_top" xlink:title="gaia/graphics/PorterDuff.h">
<polygon fill="white" stroke="black" points="674.5,-174.5 674.5,-195.5 805.5,-195.5 805.5,-174.5 674.5,-174.5"/>
<text text-anchor="middle" x="740" y="-182.5" font-family="Helvetica,sans-Serif" font-size="10.00">gaia/graphics/PorterDuff.h</text>
</a>
</g>
<!-- Node1&#45;&gt;Node22 -->
<g id="edge80" class="edge"><title>Node1&#45;&gt;Node22</title>
<path fill="none" stroke="midnightblue" d="M764.198,-290.308C788.204,-278.042 819.711,-256.443 807,-232 799.984,-218.509 787.125,-208.083 774.533,-200.518"/>
<polygon fill="midnightblue" stroke="midnightblue" points="775.943,-197.298 765.5,-195.512 772.55,-203.421 775.943,-197.298"/>
</g>
<!-- Node25 -->
<g id="node63" class="node"><title>Node25</title>
<a xlink:href="../../d0/d45/_matrix_8h.html" target="_top" xlink:title="gaia/graphics/Matrix.h">
<polygon fill="white" stroke="black" points="822.5,-174.5 822.5,-195.5 935.5,-195.5 935.5,-174.5 822.5,-174.5"/>
<text text-anchor="middle" x="879" y="-182.5" font-family="Helvetica,sans-Serif" font-size="10.00">gaia/graphics/Matrix.h</text>
</a>
</g>
<!-- Node1&#45;&gt;Node25 -->
<g id="edge76" class="edge"><title>Node1&#45;&gt;Node25</title>
<path fill="none" stroke="midnightblue" d="M763.339,-290.452C780.576,-282.017 804.059,-269.124 822,-254 839.315,-239.404 855.39,-219.062 866.025,-204.248"/>
<polygon fill="midnightblue" stroke="midnightblue" points="869.042,-206.04 871.905,-195.84 863.306,-202.028 869.042,-206.04"/>
</g>
<!-- Node3 -->
<g id="node5" class="node"><title>Node3</title>
<polygon fill="white" stroke="#bfbfbf" points="556,-0.5 556,-21.5 624,-21.5 624,-0.5 556,-0.5"/>
<text text-anchor="middle" x="590" y="-8.5" font-family="Helvetica,sans-Serif" font-size="10.00">sys/types.h</text>
</g>
<!-- Node2&#45;&gt;Node3 -->
<g id="edge4" class="edge"><title>Node2&#45;&gt;Node3</title>
<path fill="none" stroke="midnightblue" d="M959.91,-116.304C954.795,-100.686 942.99,-71.9826 922,-58 875.691,-27.1518 713.411,-16.1665 634.185,-12.581"/>
<polygon fill="midnightblue" stroke="midnightblue" points="634.176,-9.07739 624.034,-12.1416 633.874,-16.0708 634.176,-9.07739"/>
</g>
<!-- Node4&#45;&gt;Node3 -->
<g id="edge8" class="edge"><title>Node4&#45;&gt;Node3</title>
<path fill="none" stroke="midnightblue" d="M1088.18,-116.462C1058.26,-101.045 999.371,-72.5964 946,-58 836.549,-28.0667 702.776,-16.9391 634.593,-13.0074"/>
<polygon fill="midnightblue" stroke="midnightblue" points="634.405,-9.49182 624.227,-12.4364 634.02,-16.4812 634.405,-9.49182"/>
</g>
<!-- Node6 -->
<g id="node12" class="node"><title>Node6</title>
<a xlink:href="../../d4/d7f/_vector_8h.html" target="_top" xlink:title="gaia/base/Vector.h">
<polygon fill="white" stroke="black" points="70,-116.5 70,-137.5 168,-137.5 168,-116.5 70,-116.5"/>
<text text-anchor="middle" x="119" y="-124.5" font-family="Helvetica,sans-Serif" font-size="10.00">gaia/base/Vector.h</text>
</a>
</g>
<!-- Node5&#45;&gt;Node6 -->
<g id="edge12" class="edge"><title>Node5&#45;&gt;Node6</title>
<path fill="none" stroke="midnightblue" d="M120.633,-174.362C120.377,-166.922 120.026,-156.743 119.715,-147.728"/>
<polygon fill="midnightblue" stroke="midnightblue" points="123.207,-147.444 119.365,-137.571 116.211,-147.685 123.207,-147.444"/>
</g>
<!-- Node6&#45;&gt;Node3 -->
<g id="edge28" class="edge"><title>Node6&#45;&gt;Node3</title>
<path fill="none" stroke="midnightblue" d="M123.579,-116.427C131.008,-100.694 147.286,-71.5256 171,-58 203.049,-39.7206 444.501,-21.0817 545.644,-13.9874"/>
<polygon fill="midnightblue" stroke="midnightblue" points="546.106,-17.4637 555.839,-13.2781 545.62,-10.4806 546.106,-17.4637"/>
</g>
<!-- Node7 -->
<g id="node14" class="node"><title>Node7</title>
<a xlink:href="../../d1/d86/_type_helpers_8h.html" target="_top" xlink:title="gaia/base/TypeHelpers.h">
<polygon fill="white" stroke="black" points="-0.5,-58.5 -0.5,-79.5 124.5,-79.5 124.5,-58.5 -0.5,-58.5"/>
<text text-anchor="middle" x="62" y="-66.5" font-family="Helvetica,sans-Serif" font-size="10.00">gaia/base/TypeHelpers.h</text>
</a>
</g>
<!-- Node6&#45;&gt;Node7 -->
<g id="edge14" class="edge"><title>Node6&#45;&gt;Node7</title>
<path fill="none" stroke="midnightblue" d="M108.545,-116.362C100.43,-108.104 88.9988,-96.4725 79.4959,-86.8029"/>
<polygon fill="midnightblue" stroke="midnightblue" points="81.8941,-84.2497 72.3884,-79.5707 76.9014,-89.1562 81.8941,-84.2497"/>
</g>
<!-- Node11 -->
<g id="node23" class="node"><title>Node11</title>
<a xlink:href="../../dc/da9/_vector_impl_8h.html" target="_top" xlink:title="gaia/base/VectorImpl.h">
<polygon fill="white" stroke="black" points="179.5,-58.5 179.5,-79.5 296.5,-79.5 296.5,-58.5 179.5,-58.5"/>
<text text-anchor="middle" x="238" y="-66.5" font-family="Helvetica,sans-Serif" font-size="10.00">gaia/base/VectorImpl.h</text>
</a>
</g>
<!-- Node6&#45;&gt;Node11 -->
<g id="edge24" class="edge"><title>Node6&#45;&gt;Node11</title>
<path fill="none" stroke="midnightblue" d="M140.55,-116.497C159.136,-107.438 186.202,-94.2462 207.095,-84.0628"/>
<polygon fill="midnightblue" stroke="midnightblue" points="208.753,-87.1487 216.208,-79.6212 205.686,-80.8563 208.753,-87.1487"/>
</g>
<!-- Node7&#45;&gt;Node3 -->
<g id="edge20" class="edge"><title>Node7&#45;&gt;Node3</title>
<path fill="none" stroke="midnightblue" d="M124.598,-59.7367C129.131,-59.1283 133.634,-58.5427 138,-58 287.108,-39.4646 464.52,-22.4956 545.599,-15.0208"/>
<polygon fill="midnightblue" stroke="midnightblue" points="546.288,-18.4723 555.926,-14.0721 545.648,-11.5016 546.288,-18.4723"/>
</g>
<!-- Node8 -->
<g id="node16" class="node"><title>Node8</title>
<polygon fill="white" stroke="#bfbfbf" points="299.5,-0.5 299.5,-21.5 348.5,-21.5 348.5,-0.5 299.5,-0.5"/>
<text text-anchor="middle" x="324" y="-8.5" font-family="Helvetica,sans-Serif" font-size="10.00">stdint.h</text>
</g>
<!-- Node7&#45;&gt;Node8 -->
<g id="edge16" class="edge"><title>Node7&#45;&gt;Node8</title>
<path fill="none" stroke="midnightblue" d="M109.446,-58.4966C161.405,-46.9943 243.462,-28.829 289.583,-18.619"/>
<polygon fill="midnightblue" stroke="midnightblue" points="290.395,-22.0241 299.402,-16.4453 288.882,-15.1895 290.395,-22.0241"/>
</g>
<!-- Node9 -->
<g id="node18" class="node"><title>Node9</title>
<polygon fill="white" stroke="#bfbfbf" points="67.5,-0.5 67.5,-21.5 116.5,-21.5 116.5,-0.5 67.5,-0.5"/>
<text text-anchor="middle" x="92" y="-8.5" font-family="Helvetica,sans-Serif" font-size="10.00">string.h</text>
</g>
<!-- Node7&#45;&gt;Node9 -->
<g id="edge18" class="edge"><title>Node7&#45;&gt;Node9</title>
<path fill="none" stroke="midnightblue" d="M67.5025,-58.3619C71.5199,-50.5949 77.0814,-39.8426 81.8901,-30.5458"/>
<polygon fill="midnightblue" stroke="midnightblue" points="85.0469,-32.0608 86.5324,-21.5707 78.8294,-28.8448 85.0469,-32.0608"/>
</g>
<!-- Node10 -->
<g id="node21" class="node"><title>Node10</title>
<polygon fill="white" stroke="#bfbfbf" points="15.5,-0.5 15.5,-21.5 50.5,-21.5 50.5,-0.5 15.5,-0.5"/>
<text text-anchor="middle" x="33" y="-8.5" font-family="Helvetica,sans-Serif" font-size="10.00">new</text>
</g>
<!-- Node7&#45;&gt;Node10 -->
<g id="edge22" class="edge"><title>Node7&#45;&gt;Node10</title>
<path fill="none" stroke="midnightblue" d="M56.681,-58.3619C52.7974,-50.5949 47.4213,-39.8426 42.7729,-30.5458"/>
<polygon fill="midnightblue" stroke="midnightblue" points="45.888,-28.9497 38.2853,-21.5707 39.627,-32.0802 45.888,-28.9497"/>
</g>
<!-- Node11&#45;&gt;Node3 -->
<g id="edge26" class="edge"><title>Node11&#45;&gt;Node3</title>
<path fill="none" stroke="midnightblue" d="M296.521,-59.3574C366.706,-47.7928 482.761,-28.67 545.85,-18.2747"/>
<polygon fill="midnightblue" stroke="midnightblue" points="546.579,-21.7019 555.877,-16.6225 545.441,-14.795 546.579,-21.7019"/>
</g>
<!-- Node13 -->
<g id="node29" class="node"><title>Node13</title>
<a xlink:href="../../d1/dd0/gmacros_8h.html" target="_top" xlink:title="gaia/base/gmacros.h">
<polygon fill="white" stroke="black" points="508.5,-174.5 508.5,-195.5 615.5,-195.5 615.5,-174.5 508.5,-174.5"/>
<text text-anchor="middle" x="562" y="-182.5" font-family="Helvetica,sans-Serif" font-size="10.00">gaia/base/gmacros.h</text>
</a>
</g>
<!-- Node12&#45;&gt;Node13 -->
<g id="edge32" class="edge"><title>Node12&#45;&gt;Node13</title>
<path fill="none" stroke="midnightblue" d="M363.005,-232.497C403.736,-222.775 464.407,-208.294 508.043,-197.879"/>
<polygon fill="midnightblue" stroke="midnightblue" points="508.998,-201.249 517.912,-195.523 507.373,-194.44 508.998,-201.249"/>
</g>
<!-- Node14 -->
<g id="node31" class="node"><title>Node14</title>
<a xlink:href="../../d0/d92/_property_animatable_8h.html" target="_top" xlink:title="gaia/core/animator/PropertyAnimatable.h">
<polygon fill="white" stroke="black" points="259,-174.5 259,-195.5 453,-195.5 453,-174.5 259,-174.5"/>
<text text-anchor="middle" x="356" y="-182.5" font-family="Helvetica,sans-Serif" font-size="10.00">gaia/core/animator/PropertyAnimatable.h</text>
</a>
</g>
<!-- Node12&#45;&gt;Node14 -->
<g id="edge34" class="edge"><title>Node12&#45;&gt;Node14</title>
<path fill="none" stroke="midnightblue" d="M325.786,-232.362C330.793,-224.513 337.745,-213.616 343.718,-204.253"/>
<polygon fill="midnightblue" stroke="midnightblue" points="346.829,-205.884 349.257,-195.571 340.928,-202.119 346.829,-205.884"/>
</g>
<!-- Node15 -->
<g id="node34" class="node"><title>Node15</title>
<a xlink:href="../../d8/d50/_widget_core_8h.html" target="_top" xlink:title="gaia/core/vision/WidgetCore.h">
<polygon fill="white" stroke="black" points="186,-116.5 186,-137.5 334,-137.5 334,-116.5 186,-116.5"/>
<text text-anchor="middle" x="260" y="-124.5" font-family="Helvetica,sans-Serif" font-size="10.00">gaia/core/vision/WidgetCore.h</text>
</a>
</g>
<!-- Node12&#45;&gt;Node15 -->
<g id="edge38" class="edge"><title>Node12&#45;&gt;Node15</title>
<path fill="none" stroke="midnightblue" d="M292.061,-232.332C276.736,-224.699 258.876,-212.785 250,-196 242.078,-181.018 245.813,-161.784 250.823,-147.43"/>
<polygon fill="midnightblue" stroke="midnightblue" points="254.14,-148.559 254.549,-137.972 247.627,-145.994 254.14,-148.559"/>
</g>
<!-- Node14&#45;&gt;Node3 -->
<g id="edge36" class="edge"><title>Node14&#45;&gt;Node3</title>
<path fill="none" stroke="midnightblue" d="M354.603,-174.414C352.05,-150.198 349.493,-90.3644 381,-58 403.483,-34.9053 491.331,-21.5382 545.724,-15.3133"/>
<polygon fill="midnightblue" stroke="midnightblue" points="546.243,-18.7773 555.797,-14.198 545.473,-11.8198 546.243,-18.7773"/>
</g>
<!-- Node15&#45;&gt;Node8 -->
<g id="edge40" class="edge"><title>Node15&#45;&gt;Node8</title>
<path fill="none" stroke="midnightblue" d="M273.276,-116.37C283.368,-107.614 296.86,-94.3443 305,-80 313.42,-65.1635 318.273,-46.3943 320.964,-32.1782"/>
<polygon fill="midnightblue" stroke="midnightblue" points="324.483,-32.3567 322.685,-21.9155 317.579,-31.1989 324.483,-32.3567"/>
</g>
<!-- Node17 -->
<g id="node39" class="node"><title>Node17</title>
<a xlink:href="../../db/db5/_string_8h.html" target="_top" xlink:title="gaia/base/String.h">
<polygon fill="white" stroke="black" points="458.5,-116.5 458.5,-137.5 553.5,-137.5 553.5,-116.5 458.5,-116.5"/>
<text text-anchor="middle" x="506" y="-124.5" font-family="Helvetica,sans-Serif" font-size="10.00">gaia/base/String.h</text>
</a>
</g>
<!-- Node16&#45;&gt;Node17 -->
<g id="edge44" class="edge"><title>Node16&#45;&gt;Node17</title>
<path fill="none" stroke="midnightblue" d="M462.43,-232.295C470.431,-212.959 487.411,-171.923 497.651,-147.177"/>
<polygon fill="midnightblue" stroke="midnightblue" points="500.992,-148.258 501.581,-137.679 494.523,-145.581 500.992,-148.258"/>
</g>
<!-- Node17&#45;&gt;Node3 -->
<g id="edge54" class="edge"><title>Node17&#45;&gt;Node3</title>
<path fill="none" stroke="midnightblue" d="M513.752,-116.295C528.004,-96.6135 558.536,-54.4504 576.338,-29.8668"/>
<polygon fill="midnightblue" stroke="midnightblue" points="579.236,-31.8314 582.267,-21.6792 573.567,-27.7258 579.236,-31.8314"/>
</g>
<!-- Node18 -->
<g id="node41" class="node"><title>Node18</title>
<a xlink:href="../../d7/d97/_char_sequence_8h.html" target="_top" xlink:title="gaia/base/CharSequence.h">
<polygon fill="white" stroke="black" points="390,-58.5 390,-79.5 524,-79.5 524,-58.5 390,-58.5"/>
<text text-anchor="middle" x="457" y="-66.5" font-family="Helvetica,sans-Serif" font-size="10.00">gaia/base/CharSequence.h</text>
</a>
</g>
<!-- Node17&#45;&gt;Node18 -->
<g id="edge46" class="edge"><title>Node17&#45;&gt;Node18</title>
<path fill="none" stroke="midnightblue" d="M497.013,-116.362C490.175,-108.268 480.598,-96.9318 472.528,-87.3796"/>
<polygon fill="midnightblue" stroke="midnightblue" points="475.058,-84.9508 465.93,-79.5707 469.71,-89.4683 475.058,-84.9508"/>
</g>
<!-- Node19 -->
<g id="node44" class="node"><title>Node19</title>
<a xlink:href="../../d6/d83/_hash_func_8h.html" target="_top" xlink:title="gaia/base/HashFunc.h">
<polygon fill="white" stroke="black" points="617.5,-58.5 617.5,-79.5 732.5,-79.5 732.5,-58.5 617.5,-58.5"/>
<text text-anchor="middle" x="675" y="-66.5" font-family="Helvetica,sans-Serif" font-size="10.00">gaia/base/HashFunc.h</text>
</a>
</g>
<!-- Node17&#45;&gt;Node19 -->
<g id="edge50" class="edge"><title>Node17&#45;&gt;Node19</title>
<path fill="none" stroke="midnightblue" d="M536.605,-116.497C564.037,-107.082 604.476,-93.2036 634.564,-82.8773"/>
<polygon fill="midnightblue" stroke="midnightblue" points="636.016,-86.0797 644.338,-79.5231 633.743,-79.4588 636.016,-86.0797"/>
</g>
<!-- Node18&#45;&gt;Node8 -->
<g id="edge48" class="edge"><title>Node18&#45;&gt;Node8</title>
<path fill="none" stroke="midnightblue" d="M432.915,-58.4966C411.861,-49.3154 381.073,-35.8889 357.598,-25.6516"/>
<polygon fill="midnightblue" stroke="midnightblue" points="358.921,-22.4104 348.356,-21.6212 356.123,-28.8268 358.921,-22.4104"/>
</g>
<!-- Node19&#45;&gt;Node3 -->
<g id="edge52" class="edge"><title>Node19&#45;&gt;Node3</title>
<path fill="none" stroke="midnightblue" d="M659.41,-58.3619C646.709,-49.6955 628.562,-37.3126 614.008,-27.3819"/>
<polygon fill="midnightblue" stroke="midnightblue" points="615.724,-24.316 605.491,-21.5707 611.779,-30.0982 615.724,-24.316"/>
</g>
<!-- Node20&#45;&gt;Node13 -->
<g id="edge58" class="edge"><title>Node20&#45;&gt;Node13</title>
<path fill="none" stroke="midnightblue" d="M592.214,-232.362C587.207,-224.513 580.255,-213.616 574.282,-204.253"/>
<polygon fill="midnightblue" stroke="midnightblue" points="577.072,-202.119 568.743,-195.571 571.171,-205.884 577.072,-202.119"/>
</g>
<!-- Node21&#45;&gt;Node3 -->
<g id="edge74" class="edge"><title>Node21&#45;&gt;Node3</title>
<path fill="none" stroke="midnightblue" d="M716.606,-232.393C700.724,-224.255 680.121,-211.752 666,-196 621.891,-146.795 601.362,-68.5072 593.731,-31.5711"/>
<polygon fill="midnightblue" stroke="midnightblue" points="597.119,-30.6565 591.765,-21.5138 590.249,-31.9995 597.119,-30.6565"/>
</g>
<!-- Node21&#45;&gt;Node13 -->
<g id="edge62" class="edge"><title>Node21&#45;&gt;Node13</title>
<path fill="none" stroke="midnightblue" d="M707.766,-232.497C678.747,-223.041 635.91,-209.083 604.176,-198.743"/>
<polygon fill="midnightblue" stroke="midnightblue" points="604.887,-195.293 594.295,-195.523 602.719,-201.949 604.887,-195.293"/>
</g>
<!-- Node21&#45;&gt;Node22 -->
<g id="edge64" class="edge"><title>Node21&#45;&gt;Node22</title>
<path fill="none" stroke="midnightblue" d="M740,-232.362C740,-224.922 740,-214.743 740,-205.728"/>
<polygon fill="midnightblue" stroke="midnightblue" points="743.5,-205.571 740,-195.571 736.5,-205.571 743.5,-205.571"/>
</g>
<!-- Node23 -->
<g id="node56" class="node"><title>Node23</title>
<a xlink:href="../../dd/d0b/_hash_map_8h.html" target="_top" xlink:title="gaia/base/HashMap.h">
<polygon fill="white" stroke="black" points="684,-116.5 684,-137.5 796,-137.5 796,-116.5 684,-116.5"/>
<text text-anchor="middle" x="740" y="-124.5" font-family="Helvetica,sans-Serif" font-size="10.00">gaia/base/HashMap.h</text>
</a>
</g>
<!-- Node22&#45;&gt;Node23 -->
<g id="edge66" class="edge"><title>Node22&#45;&gt;Node23</title>
<path fill="none" stroke="midnightblue" d="M740,-174.362C740,-166.922 740,-156.743 740,-147.728"/>
<polygon fill="midnightblue" stroke="midnightblue" points="743.5,-147.571 740,-137.571 736.5,-147.571 743.5,-147.571"/>
</g>
<!-- Node23&#45;&gt;Node19 -->
<g id="edge68" class="edge"><title>Node23&#45;&gt;Node19</title>
<path fill="none" stroke="midnightblue" d="M728.078,-116.362C718.641,-107.941 705.27,-96.0105 694.31,-86.2308"/>
<polygon fill="midnightblue" stroke="midnightblue" points="696.638,-83.6171 686.846,-79.5707 691.978,-88.8401 696.638,-83.6171"/>
</g>
<!-- Node24 -->
<g id="node59" class="node"><title>Node24</title>
<a xlink:href="../../dc/d11/_hash_map_impl_8h.html" target="_top" xlink:title="gaia/base/HashMapImpl.h">
<polygon fill="white" stroke="black" points="749.5,-58.5 749.5,-79.5 880.5,-79.5 880.5,-58.5 749.5,-58.5"/>
<text text-anchor="middle" x="815" y="-66.5" font-family="Helvetica,sans-Serif" font-size="10.00">gaia/base/HashMapImpl.h</text>
</a>
</g>
<!-- Node23&#45;&gt;Node24 -->
<g id="edge70" class="edge"><title>Node23&#45;&gt;Node24</title>
<path fill="none" stroke="midnightblue" d="M753.756,-116.362C764.751,-107.859 780.373,-95.7785 793.086,-85.9466"/>
<polygon fill="midnightblue" stroke="midnightblue" points="795.562,-88.4569 801.331,-79.5707 791.279,-82.9195 795.562,-88.4569"/>
</g>
<!-- Node24&#45;&gt;Node3 -->
<g id="edge72" class="edge"><title>Node24&#45;&gt;Node3</title>
<path fill="none" stroke="midnightblue" d="M774.254,-58.4966C734.678,-48.2947 674.768,-32.8513 634.092,-22.3659"/>
<polygon fill="midnightblue" stroke="midnightblue" points="634.746,-18.9202 624.189,-19.8131 632.999,-25.6986 634.746,-18.9202"/>
</g>
<!-- Node25&#45;&gt;Node3 -->
<g id="edge78" class="edge"><title>Node25&#45;&gt;Node3</title>
<path fill="none" stroke="midnightblue" d="M884.353,-174.253C895.473,-150.223 917.747,-91.6188 889,-58 872.659,-38.8894 713.605,-22.0818 634.38,-14.8167"/>
<polygon fill="midnightblue" stroke="midnightblue" points="634.487,-11.3122 624.212,-13.8965 633.856,-18.2837 634.487,-11.3122"/>
</g>
</g>
</svg>
