<?xml version="1.0" encoding="UTF-8" standalone="no"?>
<!DOCTYPE svg PUBLIC "-//W3C//DTD SVG 1.1//EN"
 "http://www.w3.org/Graphics/SVG/1.1/DTD/svg11.dtd">
<!-- Generated by graphviz version 2.26.3 (20100126.1600)
 -->
<!-- Title: G Pages: 1 -->
<svg width="430pt" height="204pt"
 viewBox="0.00 0.00 430.00 204.00" xmlns="http://www.w3.org/2000/svg" xmlns:xlink="http://www.w3.org/1999/xlink">
<g id="graph1" class="graph" transform="scale(1 1) rotate(0) translate(4 200)">
<title>G</title>
<polygon fill="white" stroke="white" points="-4,5 -4,-200 427,-200 427,5 -4,5"/>
<!-- Node1 -->
<g id="node1" class="node"><title>Node1</title>
<polygon fill="#bfbfbf" stroke="black" points="-0.5,-174.5 -0.5,-195.5 288.5,-195.5 288.5,-174.5 -0.5,-174.5"/>
<text text-anchor="middle" x="144" y="-182.5" font-family="Helvetica,sans-Serif" font-size="10.00">/home/vilon_tao/gaia/sdk/include/gaia/core/vision/AnimScale.h</text>
</g>
<!-- Node2 -->
<g id="node3" class="node"><title>Node2</title>
<a xlink:href="../../d3/dc5/_array_8h.html" target="_top" xlink:title="gaia/base/Array.h">
<polygon fill="white" stroke="black" points="160.5,-116.5 160.5,-137.5 253.5,-137.5 253.5,-116.5 160.5,-116.5"/>
<text text-anchor="middle" x="207" y="-124.5" font-family="Helvetica,sans-Serif" font-size="10.00">gaia/base/Array.h</text>
</a>
</g>
<!-- Node1&#45;&gt;Node2 -->
<g id="edge2" class="edge"><title>Node1&#45;&gt;Node2</title>
<path fill="none" stroke="midnightblue" d="M155.555,-174.362C164.613,-166.023 177.41,-154.242 187.974,-144.516"/>
<polygon fill="midnightblue" stroke="midnightblue" points="190.532,-146.919 195.518,-137.571 185.79,-141.769 190.532,-146.919"/>
</g>
<!-- Node4 -->
<g id="node7" class="node"><title>Node4</title>
<polygon fill="white" stroke="#bfbfbf" points="150,-0.5 150,-21.5 218,-21.5 218,-0.5 150,-0.5"/>
<text text-anchor="middle" x="184" y="-8.5" font-family="Helvetica,sans-Serif" font-size="10.00">sys/types.h</text>
</g>
<!-- Node1&#45;&gt;Node4 -->
<g id="edge20" class="edge"><title>Node1&#45;&gt;Node4</title>
<path fill="none" stroke="midnightblue" d="M134.361,-174.191C115.338,-151.485 76.748,-97.6544 100,-58 108.89,-42.839 124.653,-32.2025 140.141,-24.9317"/>
<polygon fill="midnightblue" stroke="midnightblue" points="141.88,-27.9939 149.685,-20.8293 139.116,-21.5628 141.88,-27.9939"/>
</g>
<!-- Node3 -->
<g id="node5" class="node"><title>Node3</title>
<a xlink:href="../../d8/dae/_array_impl_8h.html" target="_top" xlink:title="gaia/base/ArrayImpl.h">
<polygon fill="white" stroke="black" points="109,-58.5 109,-79.5 221,-79.5 221,-58.5 109,-58.5"/>
<text text-anchor="middle" x="165" y="-66.5" font-family="Helvetica,sans-Serif" font-size="10.00">gaia/base/ArrayImpl.h</text>
</a>
</g>
<!-- Node2&#45;&gt;Node3 -->
<g id="edge4" class="edge"><title>Node2&#45;&gt;Node3</title>
<path fill="none" stroke="midnightblue" d="M199.297,-116.362C193.554,-108.431 185.557,-97.3885 178.73,-87.9606"/>
<polygon fill="midnightblue" stroke="midnightblue" points="181.355,-85.6173 172.655,-79.5707 175.685,-89.7229 181.355,-85.6173"/>
</g>
<!-- Node2&#45;&gt;Node4 -->
<g id="edge18" class="edge"><title>Node2&#45;&gt;Node4</title>
<path fill="none" stroke="midnightblue" d="M215.454,-116.084C225.001,-102.345 238.203,-78.1099 230,-58 225.311,-46.5066 216.309,-36.2985 207.502,-28.3571"/>
<polygon fill="midnightblue" stroke="midnightblue" points="209.51,-25.473 199.599,-21.7292 205.012,-30.8367 209.51,-25.473"/>
</g>
<!-- Node5 -->
<g id="node9" class="node"><title>Node5</title>
<a xlink:href="../../d1/d86/_type_helpers_8h.html" target="_top" xlink:title="gaia/base/TypeHelpers.h">
<polygon fill="white" stroke="black" points="276.5,-58.5 276.5,-79.5 401.5,-79.5 401.5,-58.5 276.5,-58.5"/>
<text text-anchor="middle" x="339" y="-66.5" font-family="Helvetica,sans-Serif" font-size="10.00">gaia/base/TypeHelpers.h</text>
</a>
</g>
<!-- Node2&#45;&gt;Node5 -->
<g id="edge8" class="edge"><title>Node2&#45;&gt;Node5</title>
<path fill="none" stroke="midnightblue" d="M230.904,-116.497C251.8,-107.315 282.356,-93.8889 305.655,-83.6516"/>
<polygon fill="midnightblue" stroke="midnightblue" points="307.08,-86.8483 314.828,-79.6212 304.264,-80.4397 307.08,-86.8483"/>
</g>
<!-- Node3&#45;&gt;Node4 -->
<g id="edge6" class="edge"><title>Node3&#45;&gt;Node4</title>
<path fill="none" stroke="midnightblue" d="M168.485,-58.3619C170.976,-50.7584 174.404,-40.294 177.404,-31.1349"/>
<polygon fill="midnightblue" stroke="midnightblue" points="180.75,-32.1634 180.537,-21.5707 174.098,-29.9841 180.75,-32.1634"/>
</g>
<!-- Node5&#45;&gt;Node4 -->
<g id="edge14" class="edge"><title>Node5&#45;&gt;Node4</title>
<path fill="none" stroke="midnightblue" d="M310.931,-58.4966C285.99,-49.1639 249.326,-35.4447 221.808,-25.1475"/>
<polygon fill="midnightblue" stroke="midnightblue" points="222.714,-21.7497 212.122,-21.5231 220.261,-28.3058 222.714,-21.7497"/>
</g>
<!-- Node6 -->
<g id="node11" class="node"><title>Node6</title>
<polygon fill="white" stroke="#bfbfbf" points="373.5,-0.5 373.5,-21.5 422.5,-21.5 422.5,-0.5 373.5,-0.5"/>
<text text-anchor="middle" x="398" y="-8.5" font-family="Helvetica,sans-Serif" font-size="10.00">stdint.h</text>
</g>
<!-- Node5&#45;&gt;Node6 -->
<g id="edge10" class="edge"><title>Node5&#45;&gt;Node6</title>
<path fill="none" stroke="midnightblue" d="M349.822,-58.3619C358.221,-50.1043 370.054,-38.4725 379.89,-28.8029"/>
<polygon fill="midnightblue" stroke="midnightblue" points="382.569,-31.077 387.247,-21.5707 377.662,-26.0851 382.569,-31.077"/>
</g>
<!-- Node7 -->
<g id="node13" class="node"><title>Node7</title>
<polygon fill="white" stroke="#bfbfbf" points="255.5,-0.5 255.5,-21.5 304.5,-21.5 304.5,-0.5 255.5,-0.5"/>
<text text-anchor="middle" x="280" y="-8.5" font-family="Helvetica,sans-Serif" font-size="10.00">string.h</text>
</g>
<!-- Node5&#45;&gt;Node7 -->
<g id="edge12" class="edge"><title>Node5&#45;&gt;Node7</title>
<path fill="none" stroke="midnightblue" d="M328.178,-58.3619C319.779,-50.1043 307.946,-38.4725 298.11,-28.8029"/>
<polygon fill="midnightblue" stroke="midnightblue" points="300.338,-26.0851 290.753,-21.5707 295.431,-31.077 300.338,-26.0851"/>
</g>
<!-- Node8 -->
<g id="node16" class="node"><title>Node8</title>
<polygon fill="white" stroke="#bfbfbf" points="321.5,-0.5 321.5,-21.5 356.5,-21.5 356.5,-0.5 321.5,-0.5"/>
<text text-anchor="middle" x="339" y="-8.5" font-family="Helvetica,sans-Serif" font-size="10.00">new</text>
</g>
<!-- Node5&#45;&gt;Node8 -->
<g id="edge16" class="edge"><title>Node5&#45;&gt;Node8</title>
<path fill="none" stroke="midnightblue" d="M339,-58.3619C339,-50.9219 339,-40.7427 339,-31.7276"/>
<polygon fill="midnightblue" stroke="midnightblue" points="342.5,-31.5706 339,-21.5707 335.5,-31.5707 342.5,-31.5706"/>
</g>
</g>
</svg>
