<?xml version="1.0" encoding="UTF-8" standalone="no"?>
<!DOCTYPE svg PUBLIC "-//W3C//DTD SVG 1.1//EN"
 "http://www.w3.org/Graphics/SVG/1.1/DTD/svg11.dtd">
<!-- Generated by graphviz version 2.26.3 (20100126.1600)
 -->
<!-- Title: G Pages: 1 -->
<svg width="264pt" height="150pt"
 viewBox="0.00 0.00 264.00 150.00" xmlns="http://www.w3.org/2000/svg" xmlns:xlink="http://www.w3.org/1999/xlink">
<g id="graph1" class="graph" transform="scale(1 1) rotate(0) translate(4 146)">
<title>G</title>
<polygon fill="white" stroke="white" points="-4,5 -4,-146 261,-146 261,5 -4,5"/>
<!-- Node1 -->
<g id="node1" class="node"><title>Node1</title>
<polygon fill="#bfbfbf" stroke="black" points="9.5,-0.5 9.5,-21.5 168.5,-21.5 168.5,-0.5 9.5,-0.5"/>
<text text-anchor="middle" x="89" y="-8.5" font-family="Helvetica,sans-Serif" font-size="10.00">gaia::text::LinkMovementMethod</text>
</g>
<!-- Node1&#45;&gt;Node1 -->
<g id="edge8" class="edge"><title>Node1&#45;&gt;Node1</title>
<path fill="none" stroke="#9a32cd" stroke-dasharray="5,2" d="M178.678,-14.668C183.28,-13.7607 186,-12.5381 186,-11 186,-8.53906 179.038,-6.88562 168.54,-6.03967"/>
<polygon fill="#9a32cd" stroke="#9a32cd" points="178.017,-11.2238 168.54,-15.9603 178.902,-18.1676 178.017,-11.2238"/>
<text text-anchor="middle" x="216" y="-8.5" font-family="Helvetica,sans-Serif" font-size="10.00"> mspInstance</text>
</g>
<!-- Node2 -->
<g id="node2" class="node"><title>Node2</title>
<a xlink:href="../../d8/da4/classgaia_1_1text_1_1_scrolling_movement_method.html" target="_top" xlink:title="A movement method that interprets movement keys by scrolling the text buffer.">
<polygon fill="white" stroke="black" points="-0.5,-60.5 -0.5,-81.5 178.5,-81.5 178.5,-60.5 -0.5,-60.5"/>
<text text-anchor="middle" x="89" y="-68.5" font-family="Helvetica,sans-Serif" font-size="10.00">gaia::text::ScrollingMovementMethod</text>
</a>
</g>
<!-- Node2&#45;&gt;Node1 -->
<g id="edge2" class="edge"><title>Node2&#45;&gt;Node1</title>
<path fill="none" stroke="midnightblue" d="M89,-50.2312C89,-40.5922 89,-29.5444 89,-21.6339"/>
<polygon fill="midnightblue" stroke="midnightblue" points="85.5001,-50.2732 89,-60.2732 92.5001,-50.2732 85.5001,-50.2732"/>
</g>
<!-- Node2&#45;&gt;Node2 -->
<g id="edge6" class="edge"><title>Node2&#45;&gt;Node2</title>
<path fill="none" stroke="#9a32cd" stroke-dasharray="5,2" d="M188.807,-74.5026C193.346,-73.6141 196,-72.4465 196,-71 196,-68.6855 189.207,-67.0853 178.765,-66.1993"/>
<polygon fill="#9a32cd" stroke="#9a32cd" points="188.234,-71.0475 178.765,-75.8007 189.131,-77.9897 188.234,-71.0475"/>
<text text-anchor="middle" x="226" y="-68.5" font-family="Helvetica,sans-Serif" font-size="10.00"> mspInstance</text>
</g>
<!-- Node3 -->
<g id="node4" class="node"><title>Node3</title>
<a xlink:href="../../d7/d0c/classgaia_1_1text_1_1_movement_method.html" target="_top" xlink:title="Provides cursor positioning, scrolling and text selection functionality in a TextView.">
<polygon fill="white" stroke="black" points="18.5,-120.5 18.5,-141.5 159.5,-141.5 159.5,-120.5 18.5,-120.5"/>
<text text-anchor="middle" x="89" y="-128.5" font-family="Helvetica,sans-Serif" font-size="10.00">gaia::text::MovementMethod</text>
</a>
</g>
<!-- Node3&#45;&gt;Node2 -->
<g id="edge4" class="edge"><title>Node3&#45;&gt;Node2</title>
<path fill="none" stroke="midnightblue" d="M89,-110.231C89,-100.592 89,-89.5444 89,-81.6339"/>
<polygon fill="midnightblue" stroke="midnightblue" points="85.5001,-110.273 89,-120.273 92.5001,-110.273 85.5001,-110.273"/>
</g>
</g>
</svg>
