<?xml version="1.0" encoding="UTF-8" standalone="no"?>
<!DOCTYPE svg PUBLIC "-//W3C//DTD SVG 1.1//EN"
 "http://www.w3.org/Graphics/SVG/1.1/DTD/svg11.dtd">
<!-- Generated by graphviz version 2.26.3 (20100126.1600)
 -->
<!-- Title: G Pages: 1 -->
<svg width="366pt" height="146pt"
 viewBox="0.00 0.00 366.00 146.00" xmlns="http://www.w3.org/2000/svg" xmlns:xlink="http://www.w3.org/1999/xlink">
<g id="graph1" class="graph" transform="scale(1 1) rotate(0) translate(4 142)">
<title>G</title>
<polygon fill="white" stroke="white" points="-4,5 -4,-142 363,-142 363,5 -4,5"/>
<!-- Node1 -->
<g id="node1" class="node"><title>Node1</title>
<polygon fill="#bfbfbf" stroke="black" points="-0.5,-116.5 -0.5,-137.5 274.5,-137.5 274.5,-116.5 -0.5,-116.5"/>
<text text-anchor="middle" x="137" y="-124.5" font-family="Helvetica,sans-Serif" font-size="10.00">/home/vilon_tao/gaia/sdk/include/gaia/media/MediaPlayer.h</text>
</g>
<!-- Node2 -->
<g id="node3" class="node"><title>Node2</title>
<polygon fill="white" stroke="#bfbfbf" points="18.5,-0.5 18.5,-21.5 67.5,-21.5 67.5,-0.5 18.5,-0.5"/>
<text text-anchor="middle" x="43" y="-8.5" font-family="Helvetica,sans-Serif" font-size="10.00">stdint.h</text>
</g>
<!-- Node1&#45;&gt;Node2 -->
<g id="edge2" class="edge"><title>Node1&#45;&gt;Node2</title>
<path fill="none" stroke="midnightblue" d="M96.5568,-116.448C65.5046,-107.432 26.3947,-93.7692 17,-80 6.48418,-64.5877 16.3702,-44.359 26.8356,-29.7941"/>
<polygon fill="midnightblue" stroke="midnightblue" points="29.8709,-31.5926 33.2495,-21.5509 24.3462,-27.294 29.8709,-31.5926"/>
</g>
<!-- Node3 -->
<g id="node5" class="node"><title>Node3</title>
<a xlink:href="../../d1/dd0/gmacros_8h.html" target="_top" xlink:title="gaia/base/gmacros.h">
<polygon fill="white" stroke="black" points="130.5,-0.5 130.5,-21.5 237.5,-21.5 237.5,-0.5 130.5,-0.5"/>
<text text-anchor="middle" x="184" y="-8.5" font-family="Helvetica,sans-Serif" font-size="10.00">gaia/base/gmacros.h</text>
</a>
</g>
<!-- Node1&#45;&gt;Node3 -->
<g id="edge4" class="edge"><title>Node1&#45;&gt;Node3</title>
<path fill="none" stroke="midnightblue" d="M144.552,-116.24C150.76,-106.989 159.413,-93.1056 165,-80 171.69,-64.3074 176.669,-45.6004 179.848,-31.6261"/>
<polygon fill="midnightblue" stroke="midnightblue" points="183.328,-32.0942 182.01,-21.5816 176.484,-30.6212 183.328,-32.0942"/>
</g>
<!-- Node4 -->
<g id="node7" class="node"><title>Node4</title>
<a xlink:href="../../d9/d66/_audio_control_8h.html" target="_top" xlink:title="gaia/media/AudioControl.h">
<polygon fill="white" stroke="black" points="25.5,-58.5 25.5,-79.5 156.5,-79.5 156.5,-58.5 25.5,-58.5"/>
<text text-anchor="middle" x="91" y="-66.5" font-family="Helvetica,sans-Serif" font-size="10.00">gaia/media/AudioControl.h</text>
</a>
</g>
<!-- Node1&#45;&gt;Node4 -->
<g id="edge6" class="edge"><title>Node1&#45;&gt;Node4</title>
<path fill="none" stroke="midnightblue" d="M128.563,-116.362C122.208,-108.35 113.334,-97.1605 105.807,-87.6696"/>
<polygon fill="midnightblue" stroke="midnightblue" points="108.34,-85.2308 99.3836,-79.5707 102.855,-89.5805 108.34,-85.2308"/>
</g>
<!-- Node5 -->
<g id="node11" class="node"><title>Node5</title>
<a xlink:href="../../d8/d02/_power_manager_8h.html" target="_top" xlink:title="gaia/system/PowerManager.h">
<polygon fill="white" stroke="black" points="212,-58.5 212,-79.5 358,-79.5 358,-58.5 212,-58.5"/>
<text text-anchor="middle" x="285" y="-66.5" font-family="Helvetica,sans-Serif" font-size="10.00">gaia/system/PowerManager.h</text>
</a>
</g>
<!-- Node1&#45;&gt;Node5 -->
<g id="edge12" class="edge"><title>Node1&#45;&gt;Node5</title>
<path fill="none" stroke="midnightblue" d="M163.802,-116.497C187.438,-107.234 222.1,-93.6499 248.308,-83.3793"/>
<polygon fill="midnightblue" stroke="midnightblue" points="249.864,-86.5287 257.898,-79.6212 247.31,-80.0113 249.864,-86.5287"/>
</g>
<!-- Node4&#45;&gt;Node2 -->
<g id="edge8" class="edge"><title>Node4&#45;&gt;Node2</title>
<path fill="none" stroke="midnightblue" d="M82.1961,-58.3619C75.4975,-50.2678 66.116,-38.9318 58.2107,-29.3796"/>
<polygon fill="midnightblue" stroke="midnightblue" points="60.8202,-27.0431 51.7481,-21.5707 55.4275,-31.5061 60.8202,-27.0431"/>
</g>
<!-- Node4&#45;&gt;Node3 -->
<g id="edge10" class="edge"><title>Node4&#45;&gt;Node3</title>
<path fill="none" stroke="midnightblue" d="M108.058,-58.3619C122.085,-49.6138 142.184,-37.0786 158.182,-27.1015"/>
<polygon fill="midnightblue" stroke="midnightblue" points="160.418,-29.8323 167.051,-21.5707 156.713,-23.8927 160.418,-29.8323"/>
</g>
<!-- Node5&#45;&gt;Node3 -->
<g id="edge14" class="edge"><title>Node5&#45;&gt;Node3</title>
<path fill="none" stroke="midnightblue" d="M266.475,-58.3619C251.099,-49.532 229.004,-36.844 211.553,-26.8224"/>
<polygon fill="midnightblue" stroke="midnightblue" points="212.822,-23.5154 202.408,-21.5707 209.336,-29.5857 212.822,-23.5154"/>
</g>
</g>
</svg>
