<?xml version="1.0" encoding="UTF-8" standalone="no"?>
<!DOCTYPE svg PUBLIC "-//W3C//DTD SVG 1.1//EN"
 "http://www.w3.org/Graphics/SVG/1.1/DTD/svg11.dtd">
<!-- Generated by graphviz version 2.26.3 (20100126.1600)
 -->
<!-- Title: G Pages: 1 -->
<svg width="172pt" height="262pt"
 viewBox="0.00 0.00 172.00 262.00" xmlns="http://www.w3.org/2000/svg" xmlns:xlink="http://www.w3.org/1999/xlink">
<g id="graph1" class="graph" transform="scale(1 1) rotate(0) translate(4 258)">
<title>G</title>
<polygon fill="white" stroke="white" points="-4,5 -4,-258 169,-258 169,5 -4,5"/>
<!-- Node1 -->
<g id="node1" class="node"><title>Node1</title>
<polygon fill="#bfbfbf" stroke="black" points="0,-0.5 0,-21.5 164,-21.5 164,-0.5 0,-0.5"/>
<text text-anchor="middle" x="82" y="-8.5" font-family="Helvetica,sans-Serif" font-size="10.00">gaia::text::SpannableStringBuilder</text>
</g>
<!-- Node2 -->
<g id="node2" class="node"><title>Node2</title>
<a xlink:href="../../d6/d89/classgaia_1_1text_1_1_editable.html" target="_top" xlink:title="This is the interface for text whose content and markup can be changed (as opposed to immutable text ...">
<polygon fill="white" stroke="black" points="33,-58.5 33,-79.5 131,-79.5 131,-58.5 33,-58.5"/>
<text text-anchor="middle" x="82" y="-66.5" font-family="Helvetica,sans-Serif" font-size="10.00">gaia::text::Editable</text>
</a>
</g>
<!-- Node2&#45;&gt;Node1 -->
<g id="edge2" class="edge"><title>Node2&#45;&gt;Node1</title>
<path fill="none" stroke="midnightblue" d="M82,-48.1906C82,-39.1684 82,-28.9941 82,-21.5707"/>
<polygon fill="midnightblue" stroke="midnightblue" points="78.5001,-48.3619 82,-58.3619 85.5001,-48.3619 78.5001,-48.3619"/>
</g>
<!-- Node3 -->
<g id="node4" class="node"><title>Node3</title>
<a xlink:href="../../dc/d83/classgaia_1_1text_1_1_spannable.html" target="_top" xlink:title="This is the interface for text to which markup objects can be attached and detached.">
<polygon fill="white" stroke="black" points="27.5,-116.5 27.5,-137.5 136.5,-137.5 136.5,-116.5 27.5,-116.5"/>
<text text-anchor="middle" x="82" y="-124.5" font-family="Helvetica,sans-Serif" font-size="10.00">gaia::text::Spannable</text>
</a>
</g>
<!-- Node3&#45;&gt;Node2 -->
<g id="edge4" class="edge"><title>Node3&#45;&gt;Node2</title>
<path fill="none" stroke="midnightblue" d="M82,-106.191C82,-97.1684 82,-86.9941 82,-79.5707"/>
<polygon fill="midnightblue" stroke="midnightblue" points="78.5001,-106.362 82,-116.362 85.5001,-106.362 78.5001,-106.362"/>
</g>
<!-- Node4 -->
<g id="node6" class="node"><title>Node4</title>
<a xlink:href="../../d3/d76/classgaia_1_1text_1_1_spanned.html" target="_top" xlink:title="This is the interface for text that has markup objects attached to ranges of it.">
<polygon fill="white" stroke="black" points="31.5,-174.5 31.5,-195.5 132.5,-195.5 132.5,-174.5 31.5,-174.5"/>
<text text-anchor="middle" x="82" y="-182.5" font-family="Helvetica,sans-Serif" font-size="10.00">gaia::text::Spanned</text>
</a>
</g>
<!-- Node4&#45;&gt;Node3 -->
<g id="edge6" class="edge"><title>Node4&#45;&gt;Node3</title>
<path fill="none" stroke="midnightblue" d="M82,-164.191C82,-155.168 82,-144.994 82,-137.571"/>
<polygon fill="midnightblue" stroke="midnightblue" points="78.5001,-164.362 82,-174.362 85.5001,-164.362 78.5001,-164.362"/>
</g>
<!-- Node5 -->
<g id="node8" class="node"><title>Node5</title>
<a xlink:href="../../d1/d0f/classgaia_1_1base_1_1_char_sequence.html" target="_top" xlink:title="This interface represents an ordered set of characters and defines the methods to probe them...">
<polygon fill="white" stroke="black" points="16,-232.5 16,-253.5 148,-253.5 148,-232.5 16,-232.5"/>
<text text-anchor="middle" x="82" y="-240.5" font-family="Helvetica,sans-Serif" font-size="10.00">gaia::base::CharSequence</text>
</a>
</g>
<!-- Node5&#45;&gt;Node4 -->
<g id="edge8" class="edge"><title>Node5&#45;&gt;Node4</title>
<path fill="none" stroke="midnightblue" d="M82,-222.191C82,-213.168 82,-202.994 82,-195.571"/>
<polygon fill="midnightblue" stroke="midnightblue" points="78.5001,-222.362 82,-232.362 85.5001,-222.362 78.5001,-222.362"/>
</g>
</g>
</svg>
