<?xml version="1.0" encoding="UTF-8" standalone="no"?>
<!DOCTYPE svg PUBLIC "-//W3C//DTD SVG 1.1//EN"
 "http://www.w3.org/Graphics/SVG/1.1/DTD/svg11.dtd">
<!-- Generated by graphviz version 2.26.3 (20100126.1600)
 -->
<!-- Title: G Pages: 1 -->
<svg width="322pt" height="146pt"
 viewBox="0.00 0.00 322.00 146.00" xmlns="http://www.w3.org/2000/svg" xmlns:xlink="http://www.w3.org/1999/xlink">
<g id="graph1" class="graph" transform="scale(1 1) rotate(0) translate(4 142)">
<title>G</title>
<polygon fill="white" stroke="white" points="-4,5 -4,-142 319,-142 319,5 -4,5"/>
<!-- Node1 -->
<g id="node1" class="node"><title>Node1</title>
<polygon fill="#bfbfbf" stroke="black" points="0,-116.5 0,-137.5 314,-137.5 314,-116.5 0,-116.5"/>
<text text-anchor="middle" x="157" y="-124.5" font-family="Helvetica,sans-Serif" font-size="10.00">/home/vilon_tao/gaia/sdk/include/gaia/media/EnvironmentalReverb.h</text>
</g>
<!-- Node2 -->
<g id="node3" class="node"><title>Node2</title>
<polygon fill="white" stroke="#bfbfbf" points="63.5,-0.5 63.5,-21.5 112.5,-21.5 112.5,-0.5 63.5,-0.5"/>
<text text-anchor="middle" x="88" y="-8.5" font-family="Helvetica,sans-Serif" font-size="10.00">stdint.h</text>
</g>
<!-- Node1&#45;&gt;Node2 -->
<g id="edge2" class="edge"><title>Node1&#45;&gt;Node2</title>
<path fill="none" stroke="midnightblue" d="M128.558,-116.453C112.662,-108.918 94.2395,-97.0651 85,-80 76.9933,-65.2118 78.66,-45.9173 81.804,-31.4926"/>
<polygon fill="midnightblue" stroke="midnightblue" points="85.2557,-32.1235 84.3606,-21.5666 78.4769,-30.3775 85.2557,-32.1235"/>
</g>
<!-- Node3 -->
<g id="node5" class="node"><title>Node3</title>
<a xlink:href="../../d1/dd0/gmacros_8h.html" target="_top" xlink:title="gaia/base/gmacros.h">
<polygon fill="white" stroke="black" points="172.5,-0.5 172.5,-21.5 279.5,-21.5 279.5,-0.5 172.5,-0.5"/>
<text text-anchor="middle" x="226" y="-8.5" font-family="Helvetica,sans-Serif" font-size="10.00">gaia/base/gmacros.h</text>
</a>
</g>
<!-- Node1&#45;&gt;Node3 -->
<g id="edge4" class="edge"><title>Node1&#45;&gt;Node3</title>
<path fill="none" stroke="midnightblue" d="M185.442,-116.453C201.338,-108.918 219.761,-97.0651 229,-80 237.007,-65.2118 235.34,-45.9173 232.196,-31.4926"/>
<polygon fill="midnightblue" stroke="midnightblue" points="235.523,-30.3775 229.639,-21.5666 228.744,-32.1235 235.523,-30.3775"/>
</g>
<!-- Node4 -->
<g id="node7" class="node"><title>Node4</title>
<a xlink:href="../../d6/db8/_audio_effect_8h.html" target="_top" xlink:title="gaia/media/AudioEffect.h">
<polygon fill="white" stroke="black" points="94,-58.5 94,-79.5 220,-79.5 220,-58.5 94,-58.5"/>
<text text-anchor="middle" x="157" y="-66.5" font-family="Helvetica,sans-Serif" font-size="10.00">gaia/media/AudioEffect.h</text>
</a>
</g>
<!-- Node1&#45;&gt;Node4 -->
<g id="edge6" class="edge"><title>Node1&#45;&gt;Node4</title>
<path fill="none" stroke="midnightblue" d="M157,-116.362C157,-108.922 157,-98.7427 157,-89.7276"/>
<polygon fill="midnightblue" stroke="midnightblue" points="160.5,-89.5706 157,-79.5707 153.5,-89.5707 160.5,-89.5706"/>
</g>
<!-- Node4&#45;&gt;Node2 -->
<g id="edge8" class="edge"><title>Node4&#45;&gt;Node2</title>
<path fill="none" stroke="midnightblue" d="M144.344,-58.3619C134.326,-49.9408 120.133,-38.0105 108.499,-28.2308"/>
<polygon fill="midnightblue" stroke="midnightblue" points="110.482,-25.326 100.575,-21.5707 105.978,-30.6844 110.482,-25.326"/>
</g>
<!-- Node4&#45;&gt;Node3 -->
<g id="edge10" class="edge"><title>Node4&#45;&gt;Node3</title>
<path fill="none" stroke="midnightblue" d="M169.656,-58.3619C179.674,-49.9408 193.867,-38.0105 205.501,-28.2308"/>
<polygon fill="midnightblue" stroke="midnightblue" points="208.022,-30.6844 213.425,-21.5707 203.518,-25.326 208.022,-30.6844"/>
</g>
</g>
</svg>
