<?xml version="1.0" encoding="UTF-8" standalone="no"?>
<!DOCTYPE svg PUBLIC "-//W3C//DTD SVG 1.1//EN"
 "http://www.w3.org/Graphics/SVG/1.1/DTD/svg11.dtd">
<!-- Generated by graphviz version 2.26.3 (20100126.1600)
 -->
<!-- Title: G Pages: 1 -->
<svg width="560pt" height="88pt"
 viewBox="0.00 0.00 560.00 88.00" xmlns="http://www.w3.org/2000/svg" xmlns:xlink="http://www.w3.org/1999/xlink">
<g id="graph1" class="graph" transform="scale(1 1) rotate(0) translate(4 84)">
<title>G</title>
<polygon fill="white" stroke="white" points="-4,5 -4,-84 557,-84 557,5 -4,5"/>
<!-- Node1 -->
<g id="node1" class="node"><title>Node1</title>
<polygon fill="#bfbfbf" stroke="black" points="122.5,-58.5 122.5,-79.5 417.5,-79.5 417.5,-58.5 122.5,-58.5"/>
<text text-anchor="middle" x="270" y="-66.5" font-family="Helvetica,sans-Serif" font-size="10.00">/home/vilon_tao/gaia/sdk/include/gaia/system/SensorManager.h</text>
</g>
<!-- Node2 -->
<g id="node3" class="node"><title>Node2</title>
<a xlink:href="../../da/dbb/_sensor_8h.html" target="_top" xlink:title="/home/vilon_tao/gaia/sdk/include/gaia/system/Sensor.h">
<polygon fill="white" stroke="black" points="-0.5,-0.5 -0.5,-21.5 256.5,-21.5 256.5,-0.5 -0.5,-0.5"/>
<text text-anchor="middle" x="128" y="-8.5" font-family="Helvetica,sans-Serif" font-size="10.00">/home/vilon_tao/gaia/sdk/include/gaia/system/Sensor.h</text>
</a>
</g>
<!-- Node1&#45;&gt;Node2 -->
<g id="edge2" class="edge"><title>Node1&#45;&gt;Node2</title>
<path fill="none" stroke="midnightblue" d="M234.782,-54.6153C209.745,-44.3889 176.671,-30.8796 154.004,-21.6212"/>
<polygon fill="midnightblue" stroke="midnightblue" points="233.704,-57.9555 244.285,-58.4966 236.351,-51.4752 233.704,-57.9555"/>
</g>
<!-- Node3 -->
<g id="node5" class="node"><title>Node3</title>
<a xlink:href="../../d4/d31/_sensor_data_8h.html" target="_top" xlink:title="/home/vilon_tao/gaia/sdk/include/gaia/system/SensorData.h">
<polygon fill="white" stroke="black" points="274,-0.5 274,-21.5 552,-21.5 552,-0.5 274,-0.5"/>
<text text-anchor="middle" x="413" y="-8.5" font-family="Helvetica,sans-Serif" font-size="10.00">/home/vilon_tao/gaia/sdk/include/gaia/system/SensorData.h</text>
</a>
</g>
<!-- Node1&#45;&gt;Node3 -->
<g id="edge4" class="edge"><title>Node1&#45;&gt;Node3</title>
<path fill="none" stroke="midnightblue" d="M305.466,-54.6153C330.679,-44.3889 363.987,-30.8796 386.813,-21.6212"/>
<polygon fill="midnightblue" stroke="midnightblue" points="303.847,-51.4946 295.896,-58.4966 306.479,-57.9814 303.847,-51.4946"/>
</g>
</g>
</svg>
