<?xml version="1.0" encoding="UTF-8" standalone="no"?>
<!DOCTYPE svg PUBLIC "-//W3C//DTD SVG 1.1//EN"
 "http://www.w3.org/Graphics/SVG/1.1/DTD/svg11.dtd">
<!-- Generated by graphviz version 2.26.3 (20100126.1600)
 -->
<!-- Title: G Pages: 1 -->
<svg width="530pt" height="262pt"
 viewBox="0.00 0.00 530.00 262.00" xmlns="http://www.w3.org/2000/svg" xmlns:xlink="http://www.w3.org/1999/xlink">
<g id="graph1" class="graph" transform="scale(1 1) rotate(0) translate(4 258)">
<title>G</title>
<polygon fill="white" stroke="white" points="-4,5 -4,-258 527,-258 527,5 -4,5"/>
<!-- Node1 -->
<g id="node1" class="node"><title>Node1</title>
<polygon fill="#bfbfbf" stroke="black" points="-0.5,-232.5 -0.5,-253.5 296.5,-253.5 296.5,-232.5 -0.5,-232.5"/>
<text text-anchor="middle" x="148" y="-240.5" font-family="Helvetica,sans-Serif" font-size="10.00">/home/vilon_tao/gaia/sdk/include/gaia/webkit/MatchResultImpl.h</text>
</g>
<!-- Node2 -->
<g id="node3" class="node"><title>Node2</title>
<polygon fill="white" stroke="#bfbfbf" points="95.5,-0.5 95.5,-21.5 144.5,-21.5 144.5,-0.5 95.5,-0.5"/>
<text text-anchor="middle" x="120" y="-8.5" font-family="Helvetica,sans-Serif" font-size="10.00">stdint.h</text>
</g>
<!-- Node1&#45;&gt;Node2 -->
<g id="edge2" class="edge"><title>Node1&#45;&gt;Node2</title>
<path fill="none" stroke="midnightblue" d="M145.982,-232.2C144.248,-222.691 141.757,-208.458 140,-196 131.651,-136.796 124.92,-66.5019 121.832,-32.0974"/>
<polygon fill="midnightblue" stroke="midnightblue" points="125.295,-31.5261 120.927,-21.8736 118.323,-32.1432 125.295,-31.5261"/>
</g>
<!-- Node3 -->
<g id="node5" class="node"><title>Node3</title>
<a xlink:href="../../d3/dcc/_match_result_8h.html" target="_top" xlink:title="gaia/webkit/MatchResult.h">
<polygon fill="white" stroke="black" points="148.5,-174.5 148.5,-195.5 281.5,-195.5 281.5,-174.5 148.5,-174.5"/>
<text text-anchor="middle" x="215" y="-182.5" font-family="Helvetica,sans-Serif" font-size="10.00">gaia/webkit/MatchResult.h</text>
</a>
</g>
<!-- Node1&#45;&gt;Node3 -->
<g id="edge4" class="edge"><title>Node1&#45;&gt;Node3</title>
<path fill="none" stroke="midnightblue" d="M160.289,-232.362C170.017,-223.941 183.798,-212.011 195.095,-202.231"/>
<polygon fill="midnightblue" stroke="midnightblue" points="197.519,-204.762 202.789,-195.571 192.938,-199.469 197.519,-204.762"/>
</g>
<!-- Node3&#45;&gt;Node2 -->
<g id="edge6" class="edge"><title>Node3&#45;&gt;Node2</title>
<path fill="none" stroke="midnightblue" d="M205.382,-174.496C189.371,-156.476 157.213,-117.935 139,-80 131.617,-64.6215 126.688,-45.8916 123.704,-31.8286"/>
<polygon fill="midnightblue" stroke="midnightblue" points="127.078,-30.8437 121.719,-21.7041 120.209,-32.1907 127.078,-30.8437"/>
</g>
<!-- Node4 -->
<g id="node8" class="node"><title>Node4</title>
<a xlink:href="../../db/db5/_string_8h.html" target="_top" xlink:title="gaia/base/String.h">
<polygon fill="white" stroke="black" points="258.5,-116.5 258.5,-137.5 353.5,-137.5 353.5,-116.5 258.5,-116.5"/>
<text text-anchor="middle" x="306" y="-124.5" font-family="Helvetica,sans-Serif" font-size="10.00">gaia/base/String.h</text>
</a>
</g>
<!-- Node3&#45;&gt;Node4 -->
<g id="edge8" class="edge"><title>Node3&#45;&gt;Node4</title>
<path fill="none" stroke="midnightblue" d="M231.691,-174.362C245.416,-165.614 265.084,-153.079 280.737,-143.101"/>
<polygon fill="midnightblue" stroke="midnightblue" points="282.863,-145.897 289.415,-137.571 279.101,-139.994 282.863,-145.897"/>
</g>
<!-- Node5 -->
<g id="node10" class="node"><title>Node5</title>
<a xlink:href="../../d7/d97/_char_sequence_8h.html" target="_top" xlink:title="gaia/base/CharSequence.h">
<polygon fill="white" stroke="black" points="148,-58.5 148,-79.5 282,-79.5 282,-58.5 148,-58.5"/>
<text text-anchor="middle" x="215" y="-66.5" font-family="Helvetica,sans-Serif" font-size="10.00">gaia/base/CharSequence.h</text>
</a>
</g>
<!-- Node3&#45;&gt;Node5 -->
<g id="edge20" class="edge"><title>Node3&#45;&gt;Node5</title>
<path fill="none" stroke="midnightblue" d="M215,-174.295C215,-155.131 215,-114.654 215,-89.8434"/>
<polygon fill="midnightblue" stroke="midnightblue" points="218.5,-89.6792 215,-79.6792 211.5,-89.6792 218.5,-89.6792"/>
</g>
<!-- Node8 -->
<g id="node19" class="node"><title>Node8</title>
<a xlink:href="../../db/d53/_string_array_8h.html" target="_top" xlink:title="gaia/base/StringArray.h">
<polygon fill="white" stroke="black" points="403.5,-116.5 403.5,-137.5 522.5,-137.5 522.5,-116.5 403.5,-116.5"/>
<text text-anchor="middle" x="463" y="-124.5" font-family="Helvetica,sans-Serif" font-size="10.00">gaia/base/StringArray.h</text>
</a>
</g>
<!-- Node3&#45;&gt;Node8 -->
<g id="edge22" class="edge"><title>Node3&#45;&gt;Node8</title>
<path fill="none" stroke="midnightblue" d="M259.911,-174.497C301.567,-164.755 363.66,-150.233 408.213,-139.813"/>
<polygon fill="midnightblue" stroke="midnightblue" points="409.065,-143.208 418.005,-137.523 407.471,-136.392 409.065,-143.208"/>
</g>
<!-- Node4&#45;&gt;Node5 -->
<g id="edge10" class="edge"><title>Node4&#45;&gt;Node5</title>
<path fill="none" stroke="midnightblue" d="M289.309,-116.362C275.584,-107.614 255.916,-95.0786 240.263,-85.1015"/>
<polygon fill="midnightblue" stroke="midnightblue" points="241.899,-81.994 231.585,-79.5707 238.137,-87.8969 241.899,-81.994"/>
</g>
<!-- Node6 -->
<g id="node13" class="node"><title>Node6</title>
<a xlink:href="../../d6/d83/_hash_func_8h.html" target="_top" xlink:title="gaia/base/HashFunc.h">
<polygon fill="white" stroke="black" points="299.5,-58.5 299.5,-79.5 414.5,-79.5 414.5,-58.5 299.5,-58.5"/>
<text text-anchor="middle" x="357" y="-66.5" font-family="Helvetica,sans-Serif" font-size="10.00">gaia/base/HashFunc.h</text>
</a>
</g>
<!-- Node4&#45;&gt;Node6 -->
<g id="edge14" class="edge"><title>Node4&#45;&gt;Node6</title>
<path fill="none" stroke="midnightblue" d="M315.354,-116.362C322.543,-108.186 332.641,-96.7025 341.093,-87.0907"/>
<polygon fill="midnightblue" stroke="midnightblue" points="343.73,-89.3916 347.705,-79.5707 338.473,-84.7692 343.73,-89.3916"/>
</g>
<!-- Node7 -->
<g id="node15" class="node"><title>Node7</title>
<polygon fill="white" stroke="#bfbfbf" points="408,-0.5 408,-21.5 476,-21.5 476,-0.5 408,-0.5"/>
<text text-anchor="middle" x="442" y="-8.5" font-family="Helvetica,sans-Serif" font-size="10.00">sys/types.h</text>
</g>
<!-- Node4&#45;&gt;Node7 -->
<g id="edge18" class="edge"><title>Node4&#45;&gt;Node7</title>
<path fill="none" stroke="midnightblue" d="M353.699,-118.307C377.585,-111.626 405.142,-100.004 423,-80 434.737,-66.8524 439.3,-47.0913 441.037,-32.0817"/>
<polygon fill="midnightblue" stroke="midnightblue" points="444.557,-31.9706 441.885,-21.7183 437.581,-31.3993 444.557,-31.9706"/>
</g>
<!-- Node5&#45;&gt;Node2 -->
<g id="edge12" class="edge"><title>Node5&#45;&gt;Node2</title>
<path fill="none" stroke="midnightblue" d="M197.576,-58.3619C183.113,-49.532 162.331,-36.844 145.916,-26.8224"/>
<polygon fill="midnightblue" stroke="midnightblue" points="147.673,-23.7943 137.314,-21.5707 144.025,-29.7688 147.673,-23.7943"/>
</g>
<!-- Node6&#45;&gt;Node7 -->
<g id="edge16" class="edge"><title>Node6&#45;&gt;Node7</title>
<path fill="none" stroke="midnightblue" d="M372.59,-58.3619C385.291,-49.6955 403.438,-37.3126 417.992,-27.3819"/>
<polygon fill="midnightblue" stroke="midnightblue" points="420.221,-30.0982 426.509,-21.5707 416.276,-24.316 420.221,-30.0982"/>
</g>
<!-- Node8&#45;&gt;Node7 -->
<g id="edge24" class="edge"><title>Node8&#45;&gt;Node7</title>
<path fill="none" stroke="midnightblue" d="M462.532,-116.15C461.797,-102.48 460.019,-78.3162 456,-58 454.254,-49.1728 451.563,-39.6235 449.006,-31.4528"/>
<polygon fill="midnightblue" stroke="midnightblue" points="452.246,-30.0994 445.811,-21.6824 445.592,-32.275 452.246,-30.0994"/>
</g>
</g>
</svg>
