<?xml version="1.0" encoding="UTF-8" standalone="no"?>
<!DOCTYPE svg PUBLIC "-//W3C//DTD SVG 1.1//EN"
 "http://www.w3.org/Graphics/SVG/1.1/DTD/svg11.dtd">
<!-- Generated by graphviz version 2.26.3 (20100126.1600)
 -->
<!-- Title: G Pages: 1 -->
<svg width="362pt" height="146pt"
 viewBox="0.00 0.00 362.00 146.00" xmlns="http://www.w3.org/2000/svg" xmlns:xlink="http://www.w3.org/1999/xlink">
<g id="graph1" class="graph" transform="scale(1 1) rotate(0) translate(4 142)">
<title>G</title>
<polygon fill="white" stroke="white" points="-4,5 -4,-142 359,-142 359,5 -4,5"/>
<!-- Node1 -->
<g id="node1" class="node"><title>Node1</title>
<polygon fill="#bfbfbf" stroke="black" points="0,-116.5 0,-137.5 354,-137.5 354,-116.5 0,-116.5"/>
<text text-anchor="middle" x="177" y="-124.5" font-family="Helvetica,sans-Serif" font-size="10.00">/home/vilon_tao/gaia/sdk/include/gaia/core/animation/DecelerateInterpolator.h</text>
</g>
<!-- Node2 -->
<g id="node3" class="node"><title>Node2</title>
<a xlink:href="../../da/d25/_i_interpolator_8h.html" target="_top" xlink:title="gaia/core/animation/IInterpolator.h">
<polygon fill="white" stroke="black" points="95,-58.5 95,-79.5 259,-79.5 259,-58.5 95,-58.5"/>
<text text-anchor="middle" x="177" y="-66.5" font-family="Helvetica,sans-Serif" font-size="10.00">gaia/core/animation/IInterpolator.h</text>
</a>
</g>
<!-- Node1&#45;&gt;Node2 -->
<g id="edge2" class="edge"><title>Node1&#45;&gt;Node2</title>
<path fill="none" stroke="midnightblue" d="M177,-116.362C177,-108.922 177,-98.7427 177,-89.7276"/>
<polygon fill="midnightblue" stroke="midnightblue" points="180.5,-89.5706 177,-79.5707 173.5,-89.5707 180.5,-89.5706"/>
</g>
<!-- Node3 -->
<g id="node5" class="node"><title>Node3</title>
<polygon fill="white" stroke="#bfbfbf" points="72,-0.5 72,-21.5 140,-21.5 140,-0.5 72,-0.5"/>
<text text-anchor="middle" x="106" y="-8.5" font-family="Helvetica,sans-Serif" font-size="10.00">sys/types.h</text>
</g>
<!-- Node2&#45;&gt;Node3 -->
<g id="edge4" class="edge"><title>Node2&#45;&gt;Node3</title>
<path fill="none" stroke="midnightblue" d="M163.978,-58.3619C153.569,-49.859 138.781,-37.7785 126.745,-27.9466"/>
<polygon fill="midnightblue" stroke="midnightblue" points="128.899,-25.1866 118.94,-21.5707 124.47,-30.6077 128.899,-25.1866"/>
</g>
<!-- Node4 -->
<g id="node7" class="node"><title>Node4</title>
<a xlink:href="../../d7/dba/_i_time_interpolator_8h.html" target="_top" xlink:title="gaia/core/animator/ITimeInterpolator.h">
<polygon fill="white" stroke="black" points="158,-0.5 158,-21.5 340,-21.5 340,-0.5 158,-0.5"/>
<text text-anchor="middle" x="249" y="-8.5" font-family="Helvetica,sans-Serif" font-size="10.00">gaia/core/animator/ITimeInterpolator.h</text>
</a>
</g>
<!-- Node2&#45;&gt;Node4 -->
<g id="edge6" class="edge"><title>Node2&#45;&gt;Node4</title>
<path fill="none" stroke="midnightblue" d="M190.206,-58.3619C200.761,-49.859 215.758,-37.7785 227.963,-27.9466"/>
<polygon fill="midnightblue" stroke="midnightblue" points="230.286,-30.5696 235.878,-21.5707 225.895,-25.1183 230.286,-30.5696"/>
</g>
</g>
</svg>
