<?xml version="1.0" encoding="UTF-8" standalone="no"?>
<!DOCTYPE svg PUBLIC "-//W3C//DTD SVG 1.1//EN"
 "http://www.w3.org/Graphics/SVG/1.1/DTD/svg11.dtd">
<!-- Generated by graphviz version 2.26.3 (20100126.1600)
 -->
<!-- Title: G Pages: 1 -->
<svg width="322pt" height="146pt"
 viewBox="0.00 0.00 322.00 146.00" xmlns="http://www.w3.org/2000/svg" xmlns:xlink="http://www.w3.org/1999/xlink">
<g id="graph1" class="graph" transform="scale(1 1) rotate(0) translate(4 142)">
<title>G</title>
<polygon fill="white" stroke="white" points="-4,5 -4,-142 319,-142 319,5 -4,5"/>
<!-- Node1 -->
<g id="node1" class="node"><title>Node1</title>
<polygon fill="#bfbfbf" stroke="black" points="-0.5,-116.5 -0.5,-137.5 314.5,-137.5 314.5,-116.5 -0.5,-116.5"/>
<text text-anchor="middle" x="157" y="-124.5" font-family="Helvetica,sans-Serif" font-size="10.00">/home/vilon_tao/gaia/sdk/include/gaia/webkit/glue/CppBoundClass.h</text>
</g>
<!-- Node2 -->
<g id="node3" class="node"><title>Node2</title>
<polygon fill="white" stroke="#bfbfbf" points="119.5,-0.5 119.5,-21.5 160.5,-21.5 160.5,-0.5 119.5,-0.5"/>
<text text-anchor="middle" x="140" y="-8.5" font-family="Helvetica,sans-Serif" font-size="10.00">string</text>
</g>
<!-- Node1&#45;&gt;Node2 -->
<g id="edge2" class="edge"><title>Node1&#45;&gt;Node2</title>
<path fill="none" stroke="midnightblue" d="M149.117,-116.465C142.822,-107.352 134.496,-93.5435 131,-80 126.902,-64.1248 129.678,-45.6889 133.192,-31.8694"/>
<polygon fill="midnightblue" stroke="midnightblue" points="136.655,-32.4908 136.051,-21.9132 129.927,-30.5587 136.655,-32.4908"/>
</g>
<!-- Node3 -->
<g id="node5" class="node"><title>Node3</title>
<polygon fill="white" stroke="#bfbfbf" points="139.5,-58.5 139.5,-79.5 174.5,-79.5 174.5,-58.5 139.5,-58.5"/>
<text text-anchor="middle" x="157" y="-66.5" font-family="Helvetica,sans-Serif" font-size="10.00">map</text>
</g>
<!-- Node1&#45;&gt;Node3 -->
<g id="edge4" class="edge"><title>Node1&#45;&gt;Node3</title>
<path fill="none" stroke="midnightblue" d="M157,-116.362C157,-108.922 157,-98.7427 157,-89.7276"/>
<polygon fill="midnightblue" stroke="midnightblue" points="160.5,-89.5706 157,-79.5707 153.5,-89.5707 160.5,-89.5706"/>
</g>
<!-- Node4 -->
<g id="node7" class="node"><title>Node4</title>
<a xlink:href="../../df/d8d/_cpp_variant_8h.html" target="_top" xlink:title="CppVariant.h">
<polygon fill="white" stroke="black" points="192,-58.5 192,-79.5 266,-79.5 266,-58.5 192,-58.5"/>
<text text-anchor="middle" x="229" y="-66.5" font-family="Helvetica,sans-Serif" font-size="10.00">CppVariant.h</text>
</a>
</g>
<!-- Node1&#45;&gt;Node4 -->
<g id="edge6" class="edge"><title>Node1&#45;&gt;Node4</title>
<path fill="none" stroke="midnightblue" d="M170.206,-116.362C180.761,-107.859 195.758,-95.7785 207.963,-85.9466"/>
<polygon fill="midnightblue" stroke="midnightblue" points="210.286,-88.5696 215.878,-79.5707 205.895,-83.1183 210.286,-88.5696"/>
</g>
<!-- Node4&#45;&gt;Node2 -->
<g id="edge8" class="edge"><title>Node4&#45;&gt;Node2</title>
<path fill="none" stroke="midnightblue" d="M212.676,-58.3619C199.252,-49.6138 180.017,-37.0786 164.707,-27.1015"/>
<polygon fill="midnightblue" stroke="midnightblue" points="166.509,-24.0982 156.22,-21.5707 162.688,-29.9628 166.509,-24.0982"/>
</g>
<!-- Node5 -->
<g id="node10" class="node"><title>Node5</title>
<polygon fill="white" stroke="#bfbfbf" points="207,-0.5 207,-21.5 251,-21.5 251,-0.5 207,-0.5"/>
<text text-anchor="middle" x="229" y="-8.5" font-family="Helvetica,sans-Serif" font-size="10.00">vector</text>
</g>
<!-- Node4&#45;&gt;Node5 -->
<g id="edge10" class="edge"><title>Node4&#45;&gt;Node5</title>
<path fill="none" stroke="midnightblue" d="M229,-58.3619C229,-50.9219 229,-40.7427 229,-31.7276"/>
<polygon fill="midnightblue" stroke="midnightblue" points="232.5,-31.5706 229,-21.5707 225.5,-31.5707 232.5,-31.5706"/>
</g>
</g>
</svg>
