<?xml version="1.0" encoding="UTF-8" standalone="no"?>
<!DOCTYPE svg PUBLIC "-//W3C//DTD SVG 1.1//EN"
 "http://www.w3.org/Graphics/SVG/1.1/DTD/svg11.dtd">
<!-- Generated by graphviz version 2.26.3 (20100126.1600)
 -->
<!-- Title: G Pages: 1 -->
<svg width="300pt" height="88pt"
 viewBox="0.00 0.00 300.00 88.00" xmlns="http://www.w3.org/2000/svg" xmlns:xlink="http://www.w3.org/1999/xlink">
<g id="graph1" class="graph" transform="scale(1 1) rotate(0) translate(4 84)">
<title>G</title>
<polygon fill="white" stroke="white" points="-4,5 -4,-84 297,-84 297,5 -4,5"/>
<!-- Node1 -->
<g id="node1" class="node"><title>Node1</title>
<polygon fill="#bfbfbf" stroke="black" points="-0.5,-58.5 -0.5,-79.5 292.5,-79.5 292.5,-58.5 -0.5,-58.5"/>
<text text-anchor="middle" x="146" y="-66.5" font-family="Helvetica,sans-Serif" font-size="10.00">/home/vilon_tao/gaia/sdk/include/gaia/webkit/glue/CppVariant.h</text>
</g>
<!-- Node2 -->
<g id="node3" class="node"><title>Node2</title>
<polygon fill="white" stroke="#bfbfbf" points="95.5,-0.5 95.5,-21.5 136.5,-21.5 136.5,-0.5 95.5,-0.5"/>
<text text-anchor="middle" x="116" y="-8.5" font-family="Helvetica,sans-Serif" font-size="10.00">string</text>
</g>
<!-- Node1&#45;&gt;Node2 -->
<g id="edge2" class="edge"><title>Node1&#45;&gt;Node2</title>
<path fill="none" stroke="midnightblue" d="M140.498,-58.3619C136.48,-50.5949 130.919,-39.8426 126.11,-30.5458"/>
<polygon fill="midnightblue" stroke="midnightblue" points="129.171,-28.8448 121.468,-21.5707 122.953,-32.0608 129.171,-28.8448"/>
</g>
<!-- Node3 -->
<g id="node5" class="node"><title>Node3</title>
<polygon fill="white" stroke="#bfbfbf" points="154,-0.5 154,-21.5 198,-21.5 198,-0.5 154,-0.5"/>
<text text-anchor="middle" x="176" y="-8.5" font-family="Helvetica,sans-Serif" font-size="10.00">vector</text>
</g>
<!-- Node1&#45;&gt;Node3 -->
<g id="edge4" class="edge"><title>Node1&#45;&gt;Node3</title>
<path fill="none" stroke="midnightblue" d="M151.502,-58.3619C155.52,-50.5949 161.081,-39.8426 165.89,-30.5458"/>
<polygon fill="midnightblue" stroke="midnightblue" points="169.047,-32.0608 170.532,-21.5707 162.829,-28.8448 169.047,-32.0608"/>
</g>
</g>
</svg>
