<?xml version="1.0" encoding="UTF-8" standalone="no"?>
<!DOCTYPE svg PUBLIC "-//W3C//DTD SVG 1.1//EN"
 "http://www.w3.org/Graphics/SVG/1.1/DTD/svg11.dtd">
<!-- Generated by graphviz version 2.26.3 (20100126.1600)
 -->
<!-- Title: G Pages: 1 -->
<svg width="383pt" height="146pt"
 viewBox="0.00 0.00 383.00 146.00" xmlns="http://www.w3.org/2000/svg" xmlns:xlink="http://www.w3.org/1999/xlink">
<g id="graph1" class="graph" transform="scale(1 1) rotate(0) translate(4 142)">
<title>G</title>
<polygon fill="white" stroke="white" points="-4,5 -4,-142 380,-142 380,5 -4,5"/>
<!-- Node1 -->
<g id="node1" class="node"><title>Node1</title>
<polygon fill="#bfbfbf" stroke="black" points="170.5,-116.5 170.5,-137.5 285.5,-137.5 285.5,-116.5 170.5,-116.5"/>
<text text-anchor="middle" x="228" y="-124.5" font-family="Helvetica,sans-Serif" font-size="10.00">gaia::text::KeyListener</text>
</g>
<!-- Node2 -->
<g id="node3" class="node"><title>Node2</title>
<a xlink:href="../../da/d8a/classgaia_1_1text_1_1_number_key_listener.html" target="_top" xlink:title="For numeric text entry.">
<polygon fill="white" stroke="black" points="74.5,-58.5 74.5,-79.5 223.5,-79.5 223.5,-58.5 74.5,-58.5"/>
<text text-anchor="middle" x="149" y="-66.5" font-family="Helvetica,sans-Serif" font-size="10.00">gaia::text::NumberKeyListener</text>
</a>
</g>
<!-- Node1&#45;&gt;Node2 -->
<g id="edge2" class="edge"><title>Node1&#45;&gt;Node2</title>
<path fill="none" stroke="midnightblue" d="M205.197,-110.259C191.72,-100.364 175.065,-88.1361 163.398,-79.5707"/>
<polygon fill="midnightblue" stroke="midnightblue" points="203.378,-113.265 213.51,-116.362 207.521,-107.623 203.378,-113.265"/>
</g>
<!-- Node5 -->
<g id="node9" class="node"><title>Node5</title>
<a xlink:href="../../df/d3f/classgaia_1_1text_1_1_text_key_listener.html" target="_top" xlink:title="This is the key listener for typing normal text.">
<polygon fill="white" stroke="black" points="241,-58.5 241,-79.5 375,-79.5 375,-58.5 241,-58.5"/>
<text text-anchor="middle" x="308" y="-66.5" font-family="Helvetica,sans-Serif" font-size="10.00">gaia::text::TextKeyListener</text>
</a>
</g>
<!-- Node1&#45;&gt;Node5 -->
<g id="edge8" class="edge"><title>Node1&#45;&gt;Node5</title>
<path fill="none" stroke="midnightblue" d="M251.092,-110.259C264.739,-100.364 281.605,-88.1361 293.42,-79.5707"/>
<polygon fill="midnightblue" stroke="midnightblue" points="248.715,-107.659 242.673,-116.362 252.824,-113.326 248.715,-107.659"/>
</g>
<!-- Node3 -->
<g id="node5" class="node"><title>Node3</title>
<a xlink:href="../../d3/dec/classgaia_1_1text_1_1_dialer_key_listener.html" target="_top" xlink:title="For dialing&#45;only text entry.">
<polygon fill="white" stroke="black" points="0,-0.5 0,-21.5 140,-21.5 140,-0.5 0,-0.5"/>
<text text-anchor="middle" x="70" y="-8.5" font-family="Helvetica,sans-Serif" font-size="10.00">gaia::text::DialerKeyListener</text>
</a>
</g>
<!-- Node2&#45;&gt;Node3 -->
<g id="edge4" class="edge"><title>Node2&#45;&gt;Node3</title>
<path fill="none" stroke="midnightblue" d="M126.197,-52.2587C112.72,-42.3641 96.0647,-30.1361 84.398,-21.5707"/>
<polygon fill="midnightblue" stroke="midnightblue" points="124.378,-55.2651 134.51,-58.3619 128.521,-49.6225 124.378,-55.2651"/>
</g>
<!-- Node4 -->
<g id="node7" class="node"><title>Node4</title>
<a xlink:href="../../d6/de9/classgaia_1_1text_1_1_digits_key_listener.html" target="_top" xlink:title="For digits&#45;only text entry.">
<polygon fill="white" stroke="black" points="158,-0.5 158,-21.5 298,-21.5 298,-0.5 158,-0.5"/>
<text text-anchor="middle" x="228" y="-8.5" font-family="Helvetica,sans-Serif" font-size="10.00">gaia::text::DigitsKeyListener</text>
</a>
</g>
<!-- Node2&#45;&gt;Node4 -->
<g id="edge6" class="edge"><title>Node2&#45;&gt;Node4</title>
<path fill="none" stroke="midnightblue" d="M171.803,-52.2587C185.28,-42.3641 201.935,-30.1361 213.602,-21.5707"/>
<polygon fill="midnightblue" stroke="midnightblue" points="169.479,-49.6225 163.49,-58.3619 173.622,-55.2651 169.479,-49.6225"/>
</g>
</g>
</svg>
