<?xml version="1.0" encoding="UTF-8" standalone="no"?>
<!DOCTYPE svg PUBLIC "-//W3C//DTD SVG 1.1//EN"
 "http://www.w3.org/Graphics/SVG/1.1/DTD/svg11.dtd">
<!-- Generated by graphviz version 2.26.3 (20100126.1600)
 -->
<!-- Title: G Pages: 1 -->
<svg width="394pt" height="146pt"
 viewBox="0.00 0.00 394.00 146.00" xmlns="http://www.w3.org/2000/svg" xmlns:xlink="http://www.w3.org/1999/xlink">
<g id="graph1" class="graph" transform="scale(1 1) rotate(0) translate(4 142)">
<title>G</title>
<polygon fill="white" stroke="white" points="-4,5 -4,-142 391,-142 391,5 -4,5"/>
<!-- Node1 -->
<g id="node1" class="node"><title>Node1</title>
<polygon fill="#bfbfbf" stroke="black" points="9.5,-116.5 9.5,-137.5 386.5,-137.5 386.5,-116.5 9.5,-116.5"/>
<text text-anchor="middle" x="198" y="-124.5" font-family="Helvetica,sans-Serif" font-size="10.00">/home/vilon_tao/gaia/sdk/include/gaia/media/videoeditor/MediaArtistNativeHelper.h</text>
</g>
<!-- Node2 -->
<g id="node3" class="node"><title>Node2</title>
<polygon fill="white" stroke="#bfbfbf" points="-0.5,-0.5 -0.5,-21.5 48.5,-21.5 48.5,-0.5 -0.5,-0.5"/>
<text text-anchor="middle" x="24" y="-8.5" font-family="Helvetica,sans-Serif" font-size="10.00">stdint.h</text>
</g>
<!-- Node1&#45;&gt;Node2 -->
<g id="edge2" class="edge"><title>Node1&#45;&gt;Node2</title>
<path fill="none" stroke="midnightblue" d="M130.039,-116.465C88.5926,-108.54 41.1327,-96.2572 28,-80 17.1998,-66.6302 17.233,-46.621 19.3579,-31.5874"/>
<polygon fill="midnightblue" stroke="midnightblue" points="22.8129,-32.1495 21.1498,-21.686 15.9248,-30.9029 22.8129,-32.1495"/>
</g>
<!-- Node3 -->
<g id="node5" class="node"><title>Node3</title>
<a xlink:href="../../d1/dd0/gmacros_8h.html" target="_top" xlink:title="gaia/base/gmacros.h">
<polygon fill="white" stroke="black" points="144.5,-0.5 144.5,-21.5 251.5,-21.5 251.5,-0.5 144.5,-0.5"/>
<text text-anchor="middle" x="198" y="-8.5" font-family="Helvetica,sans-Serif" font-size="10.00">gaia/base/gmacros.h</text>
</a>
</g>
<!-- Node1&#45;&gt;Node3 -->
<g id="edge4" class="edge"><title>Node1&#45;&gt;Node3</title>
<path fill="none" stroke="midnightblue" d="M212.501,-116.479C222.904,-107.97 236.086,-94.9697 242,-80 245.592,-70.9061 245.592,-67.0939 242,-58 237.472,-46.5388 228.684,-36.2323 220.144,-28.2117"/>
<polygon fill="midnightblue" stroke="midnightblue" points="222.33,-25.474 212.501,-21.5208 217.72,-30.7411 222.33,-25.474"/>
</g>
<!-- Node4 -->
<g id="node7" class="node"><title>Node4</title>
<a xlink:href="../../dd/de8/_media_properties_8h.html" target="_top" xlink:title="gaia/media/videoeditor/MediaProperties.h">
<polygon fill="white" stroke="black" points="37,-58.5 37,-79.5 233,-79.5 233,-58.5 37,-58.5"/>
<text text-anchor="middle" x="135" y="-66.5" font-family="Helvetica,sans-Serif" font-size="10.00">gaia/media/videoeditor/MediaProperties.h</text>
</a>
</g>
<!-- Node1&#45;&gt;Node4 -->
<g id="edge6" class="edge"><title>Node1&#45;&gt;Node4</title>
<path fill="none" stroke="midnightblue" d="M186.445,-116.362C177.387,-108.023 164.59,-96.2418 154.026,-86.5162"/>
<polygon fill="midnightblue" stroke="midnightblue" points="156.21,-83.7688 146.482,-79.5707 151.468,-88.9187 156.21,-83.7688"/>
</g>
<!-- Node5 -->
<g id="node11" class="node"><title>Node5</title>
<polygon fill="white" stroke="#bfbfbf" points="288.5,-58.5 288.5,-79.5 345.5,-79.5 345.5,-58.5 288.5,-58.5"/>
<text text-anchor="middle" x="317" y="-66.5" font-family="Helvetica,sans-Serif" font-size="10.00">pthread.h</text>
</g>
<!-- Node1&#45;&gt;Node5 -->
<g id="edge12" class="edge"><title>Node1&#45;&gt;Node5</title>
<path fill="none" stroke="midnightblue" d="M219.55,-116.497C238.136,-107.438 265.202,-94.2462 286.095,-84.0628"/>
<polygon fill="midnightblue" stroke="midnightblue" points="287.753,-87.1487 295.208,-79.6212 284.686,-80.8563 287.753,-87.1487"/>
</g>
<!-- Node4&#45;&gt;Node2 -->
<g id="edge8" class="edge"><title>Node4&#45;&gt;Node2</title>
<path fill="none" stroke="midnightblue" d="M114.899,-58.4966C97.7181,-49.5194 72.7702,-36.4835 53.3551,-26.3387"/>
<polygon fill="midnightblue" stroke="midnightblue" points="54.8107,-23.1503 44.3268,-21.6212 51.5689,-29.3544 54.8107,-23.1503"/>
</g>
<!-- Node4&#45;&gt;Node3 -->
<g id="edge10" class="edge"><title>Node4&#45;&gt;Node3</title>
<path fill="none" stroke="midnightblue" d="M146.555,-58.3619C155.613,-50.0226 168.41,-38.2418 178.974,-28.5162"/>
<polygon fill="midnightblue" stroke="midnightblue" points="181.532,-30.9187 186.518,-21.5707 176.79,-25.7688 181.532,-30.9187"/>
</g>
</g>
</svg>
