<?xml version="1.0" encoding="UTF-8" standalone="no"?>
<!DOCTYPE svg PUBLIC "-//W3C//DTD SVG 1.1//EN"
 "http://www.w3.org/Graphics/SVG/1.1/DTD/svg11.dtd">
<!-- Generated by graphviz version 2.26.3 (20100126.1600)
 -->
<!-- Title: G Pages: 1 -->
<svg width="360pt" height="88pt"
 viewBox="0.00 0.00 360.00 88.00" xmlns="http://www.w3.org/2000/svg" xmlns:xlink="http://www.w3.org/1999/xlink">
<g id="graph1" class="graph" transform="scale(1 1) rotate(0) translate(4 84)">
<title>G</title>
<polygon fill="white" stroke="white" points="-4,5 -4,-84 357,-84 357,5 -4,5"/>
<!-- Node1 -->
<g id="node1" class="node"><title>Node1</title>
<polygon fill="#bfbfbf" stroke="black" points="0,-58.5 0,-79.5 352,-79.5 352,-58.5 0,-58.5"/>
<text text-anchor="middle" x="176" y="-66.5" font-family="Helvetica,sans-Serif" font-size="10.00">/home/vilon_tao/gaia/sdk/include/gaia/telephony/OnQueryCompleteListener.h</text>
</g>
<!-- Node2 -->
<g id="node3" class="node"><title>Node2</title>
<polygon fill="white" stroke="#bfbfbf" points="106,-0.5 106,-21.5 152,-21.5 152,-0.5 106,-0.5"/>
<text text-anchor="middle" x="129" y="-8.5" font-family="Helvetica,sans-Serif" font-size="10.00">cstdint</text>
</g>
<!-- Node1&#45;&gt;Node2 -->
<g id="edge2" class="edge"><title>Node1&#45;&gt;Node2</title>
<path fill="none" stroke="midnightblue" d="M167.379,-58.3619C160.82,-50.2678 151.634,-38.9318 143.894,-29.3796"/>
<polygon fill="midnightblue" stroke="midnightblue" points="146.581,-27.1364 137.566,-21.5707 141.142,-31.5436 146.581,-27.1364"/>
</g>
<!-- Node3 -->
<g id="node5" class="node"><title>Node3</title>
<a xlink:href="../../d1/dd0/gmacros_8h.html" target="_top" xlink:title="gaia/base/gmacros.h">
<polygon fill="white" stroke="black" points="169.5,-0.5 169.5,-21.5 276.5,-21.5 276.5,-0.5 169.5,-0.5"/>
<text text-anchor="middle" x="223" y="-8.5" font-family="Helvetica,sans-Serif" font-size="10.00">gaia/base/gmacros.h</text>
</a>
</g>
<!-- Node1&#45;&gt;Node3 -->
<g id="edge4" class="edge"><title>Node1&#45;&gt;Node3</title>
<path fill="none" stroke="midnightblue" d="M184.621,-58.3619C191.18,-50.2678 200.366,-38.9318 208.106,-29.3796"/>
<polygon fill="midnightblue" stroke="midnightblue" points="210.858,-31.5436 214.434,-21.5707 205.419,-27.1364 210.858,-31.5436"/>
</g>
</g>
</svg>
