<?xml version="1.0" encoding="UTF-8" standalone="no"?>
<!DOCTYPE svg PUBLIC "-//W3C//DTD SVG 1.1//EN"
 "http://www.w3.org/Graphics/SVG/1.1/DTD/svg11.dtd">
<!-- Generated by graphviz version 2.26.3 (20100126.1600)
 -->
<!-- Title: G Pages: 1 -->
<svg width="367pt" height="262pt"
 viewBox="0.00 0.00 367.00 262.00" xmlns="http://www.w3.org/2000/svg" xmlns:xlink="http://www.w3.org/1999/xlink">
<g id="graph1" class="graph" transform="scale(1 1) rotate(0) translate(4 258)">
<title>G</title>
<polygon fill="white" stroke="white" points="-4,5 -4,-258 364,-258 364,5 -4,5"/>
<!-- Node1 -->
<g id="node1" class="node"><title>Node1</title>
<polygon fill="#bfbfbf" stroke="black" points="-0.5,-232.5 -0.5,-253.5 334.5,-253.5 334.5,-232.5 -0.5,-232.5"/>
<text text-anchor="middle" x="167" y="-240.5" font-family="Helvetica,sans-Serif" font-size="10.00">/home/vilon_tao/gaia/sdk/include/gaia/accounts/AccountManagerFuture.h</text>
</g>
<!-- Node2 -->
<g id="node3" class="node"><title>Node2</title>
<a xlink:href="../../d5/d54/_persistence_8h.html" target="_top" xlink:title="gaia/core/Persistence.h">
<polygon fill="white" stroke="black" points="107.5,-174.5 107.5,-195.5 226.5,-195.5 226.5,-174.5 107.5,-174.5"/>
<text text-anchor="middle" x="167" y="-182.5" font-family="Helvetica,sans-Serif" font-size="10.00">gaia/core/Persistence.h</text>
</a>
</g>
<!-- Node1&#45;&gt;Node2 -->
<g id="edge2" class="edge"><title>Node1&#45;&gt;Node2</title>
<path fill="none" stroke="midnightblue" d="M167,-232.362C167,-224.922 167,-214.743 167,-205.728"/>
<polygon fill="midnightblue" stroke="midnightblue" points="170.5,-205.571 167,-195.571 163.5,-205.571 170.5,-205.571"/>
</g>
<!-- Node3 -->
<g id="node5" class="node"><title>Node3</title>
<a xlink:href="../../d3/dc5/_array_8h.html" target="_top" xlink:title="gaia/base/Array.h">
<polygon fill="white" stroke="black" points="120.5,-116.5 120.5,-137.5 213.5,-137.5 213.5,-116.5 120.5,-116.5"/>
<text text-anchor="middle" x="167" y="-124.5" font-family="Helvetica,sans-Serif" font-size="10.00">gaia/base/Array.h</text>
</a>
</g>
<!-- Node2&#45;&gt;Node3 -->
<g id="edge4" class="edge"><title>Node2&#45;&gt;Node3</title>
<path fill="none" stroke="midnightblue" d="M167,-174.362C167,-166.922 167,-156.743 167,-147.728"/>
<polygon fill="midnightblue" stroke="midnightblue" points="170.5,-147.571 167,-137.571 163.5,-147.571 170.5,-147.571"/>
</g>
<!-- Node4 -->
<g id="node7" class="node"><title>Node4</title>
<a xlink:href="../../d8/dae/_array_impl_8h.html" target="_top" xlink:title="gaia/base/ArrayImpl.h">
<polygon fill="white" stroke="black" points="27,-58.5 27,-79.5 139,-79.5 139,-58.5 27,-58.5"/>
<text text-anchor="middle" x="83" y="-66.5" font-family="Helvetica,sans-Serif" font-size="10.00">gaia/base/ArrayImpl.h</text>
</a>
</g>
<!-- Node3&#45;&gt;Node4 -->
<g id="edge6" class="edge"><title>Node3&#45;&gt;Node4</title>
<path fill="none" stroke="midnightblue" d="M151.593,-116.362C139.042,-107.696 121.108,-95.3126 106.725,-85.3819"/>
<polygon fill="midnightblue" stroke="midnightblue" points="108.527,-82.3725 98.3092,-79.5707 104.55,-88.1327 108.527,-82.3725"/>
</g>
<!-- Node5 -->
<g id="node9" class="node"><title>Node5</title>
<polygon fill="white" stroke="#bfbfbf" points="107,-0.5 107,-21.5 175,-21.5 175,-0.5 107,-0.5"/>
<text text-anchor="middle" x="141" y="-8.5" font-family="Helvetica,sans-Serif" font-size="10.00">sys/types.h</text>
</g>
<!-- Node3&#45;&gt;Node5 -->
<g id="edge20" class="edge"><title>Node3&#45;&gt;Node5</title>
<path fill="none" stroke="midnightblue" d="M164.601,-116.295C160.286,-97.0451 151.151,-56.2889 145.597,-31.5091"/>
<polygon fill="midnightblue" stroke="midnightblue" points="148.996,-30.6716 143.394,-21.6792 142.166,-32.2026 148.996,-30.6716"/>
</g>
<!-- Node6 -->
<g id="node11" class="node"><title>Node6</title>
<a xlink:href="../../d1/d86/_type_helpers_8h.html" target="_top" xlink:title="gaia/base/TypeHelpers.h">
<polygon fill="white" stroke="black" points="194.5,-58.5 194.5,-79.5 319.5,-79.5 319.5,-58.5 194.5,-58.5"/>
<text text-anchor="middle" x="257" y="-66.5" font-family="Helvetica,sans-Serif" font-size="10.00">gaia/base/TypeHelpers.h</text>
</a>
</g>
<!-- Node3&#45;&gt;Node6 -->
<g id="edge10" class="edge"><title>Node3&#45;&gt;Node6</title>
<path fill="none" stroke="midnightblue" d="M183.507,-116.362C197.082,-107.614 216.533,-95.0786 232.015,-85.1015"/>
<polygon fill="midnightblue" stroke="midnightblue" points="234.088,-87.9297 240.597,-79.5707 230.296,-82.0457 234.088,-87.9297"/>
</g>
<!-- Node4&#45;&gt;Node5 -->
<g id="edge8" class="edge"><title>Node4&#45;&gt;Node5</title>
<path fill="none" stroke="midnightblue" d="M93.6381,-58.3619C101.896,-50.1043 113.528,-38.4725 123.197,-28.8029"/>
<polygon fill="midnightblue" stroke="midnightblue" points="125.833,-31.1166 130.429,-21.5707 120.883,-26.1669 125.833,-31.1166"/>
</g>
<!-- Node6&#45;&gt;Node5 -->
<g id="edge16" class="edge"><title>Node6&#45;&gt;Node5</title>
<path fill="none" stroke="midnightblue" d="M235.993,-58.4966C217.957,-49.4786 191.73,-36.3649 171.401,-26.2006"/>
<polygon fill="midnightblue" stroke="midnightblue" points="172.752,-22.9629 162.242,-21.6212 169.621,-29.2239 172.752,-22.9629"/>
</g>
<!-- Node7 -->
<g id="node13" class="node"><title>Node7</title>
<polygon fill="white" stroke="#bfbfbf" points="192.5,-0.5 192.5,-21.5 241.5,-21.5 241.5,-0.5 192.5,-0.5"/>
<text text-anchor="middle" x="217" y="-8.5" font-family="Helvetica,sans-Serif" font-size="10.00">stdint.h</text>
</g>
<!-- Node6&#45;&gt;Node7 -->
<g id="edge12" class="edge"><title>Node6&#45;&gt;Node7</title>
<path fill="none" stroke="midnightblue" d="M249.663,-58.3619C244.194,-50.4313 236.578,-39.3885 230.076,-29.9606"/>
<polygon fill="midnightblue" stroke="midnightblue" points="232.849,-27.8157 224.29,-21.5707 227.086,-31.7899 232.849,-27.8157"/>
</g>
<!-- Node8 -->
<g id="node15" class="node"><title>Node8</title>
<polygon fill="white" stroke="#bfbfbf" points="258.5,-0.5 258.5,-21.5 307.5,-21.5 307.5,-0.5 258.5,-0.5"/>
<text text-anchor="middle" x="283" y="-8.5" font-family="Helvetica,sans-Serif" font-size="10.00">string.h</text>
</g>
<!-- Node6&#45;&gt;Node8 -->
<g id="edge14" class="edge"><title>Node6&#45;&gt;Node8</title>
<path fill="none" stroke="midnightblue" d="M261.769,-58.3619C265.214,-50.6766 269.969,-40.0686 274.106,-30.8399"/>
<polygon fill="midnightblue" stroke="midnightblue" points="277.365,-32.1275 278.261,-21.5707 270.977,-29.264 277.365,-32.1275"/>
</g>
<!-- Node9 -->
<g id="node18" class="node"><title>Node9</title>
<polygon fill="white" stroke="#bfbfbf" points="324.5,-0.5 324.5,-21.5 359.5,-21.5 359.5,-0.5 324.5,-0.5"/>
<text text-anchor="middle" x="342" y="-8.5" font-family="Helvetica,sans-Serif" font-size="10.00">new</text>
</g>
<!-- Node6&#45;&gt;Node9 -->
<g id="edge18" class="edge"><title>Node6&#45;&gt;Node9</title>
<path fill="none" stroke="midnightblue" d="M272.59,-58.3619C285.291,-49.6955 303.438,-37.3126 317.992,-27.3819"/>
<polygon fill="midnightblue" stroke="midnightblue" points="320.221,-30.0982 326.509,-21.5707 316.276,-24.316 320.221,-30.0982"/>
</g>
</g>
</svg>
