<?xml version="1.0" encoding="UTF-8" standalone="no"?>
<!DOCTYPE svg PUBLIC "-//W3C//DTD SVG 1.1//EN"
 "http://www.w3.org/Graphics/SVG/1.1/DTD/svg11.dtd">
<!-- Generated by graphviz version 2.26.3 (20100126.1600)
 -->
<!-- Title: G Pages: 1 -->
<svg width="328pt" height="146pt"
 viewBox="0.00 0.00 328.00 146.00" xmlns="http://www.w3.org/2000/svg" xmlns:xlink="http://www.w3.org/1999/xlink">
<g id="graph1" class="graph" transform="scale(1 1) rotate(0) translate(4 142)">
<title>G</title>
<polygon fill="white" stroke="white" points="-4,5 -4,-142 325,-142 325,5 -4,5"/>
<!-- Node1 -->
<g id="node1" class="node"><title>Node1</title>
<polygon fill="#bfbfbf" stroke="black" points="-0.5,-116.5 -0.5,-137.5 320.5,-137.5 320.5,-116.5 -0.5,-116.5"/>
<text text-anchor="middle" x="160" y="-124.5" font-family="Helvetica,sans-Serif" font-size="10.00">/home/vilon_tao/gaia/sdk/include/gaia/media/MediaRecorderListener.h</text>
</g>
<!-- Node2 -->
<g id="node3" class="node"><title>Node2</title>
<polygon fill="white" stroke="#bfbfbf" points="38.5,-0.5 38.5,-21.5 87.5,-21.5 87.5,-0.5 38.5,-0.5"/>
<text text-anchor="middle" x="63" y="-8.5" font-family="Helvetica,sans-Serif" font-size="10.00">stdint.h</text>
</g>
<!-- Node1&#45;&gt;Node2 -->
<g id="edge2" class="edge"><title>Node1&#45;&gt;Node2</title>
<path fill="none" stroke="midnightblue" d="M131.261,-116.453C114.267,-108.808 93.6588,-96.8382 81,-80 70.5663,-66.1215 66.1623,-46.74 64.3128,-32.0506"/>
<polygon fill="midnightblue" stroke="midnightblue" points="67.7782,-31.521 63.3389,-21.901 60.8102,-32.1896 67.7782,-31.521"/>
</g>
<!-- Node3 -->
<g id="node5" class="node"><title>Node3</title>
<a xlink:href="../../d1/dd0/gmacros_8h.html" target="_top" xlink:title="gaia/base/gmacros.h">
<polygon fill="white" stroke="black" points="155.5,-0.5 155.5,-21.5 262.5,-21.5 262.5,-0.5 155.5,-0.5"/>
<text text-anchor="middle" x="209" y="-8.5" font-family="Helvetica,sans-Serif" font-size="10.00">gaia/base/gmacros.h</text>
</a>
</g>
<!-- Node1&#45;&gt;Node3 -->
<g id="edge4" class="edge"><title>Node1&#45;&gt;Node3</title>
<path fill="none" stroke="midnightblue" d="M192.736,-116.472C209.767,-109.139 229.06,-97.4798 239,-80 248.392,-63.4839 237.427,-43.4611 226.205,-29.2482"/>
<polygon fill="midnightblue" stroke="midnightblue" points="228.865,-26.9727 219.72,-21.6216 223.532,-31.5072 228.865,-26.9727"/>
</g>
<!-- Node4 -->
<g id="node7" class="node"><title>Node4</title>
<a xlink:href="../../d0/d81/_media_recorder_8h.html" target="_top" xlink:title="gaia/media/MediaRecorder.h">
<polygon fill="white" stroke="black" points="89.5,-58.5 89.5,-79.5 230.5,-79.5 230.5,-58.5 89.5,-58.5"/>
<text text-anchor="middle" x="160" y="-66.5" font-family="Helvetica,sans-Serif" font-size="10.00">gaia/media/MediaRecorder.h</text>
</a>
</g>
<!-- Node1&#45;&gt;Node4 -->
<g id="edge6" class="edge"><title>Node1&#45;&gt;Node4</title>
<path fill="none" stroke="midnightblue" d="M160,-116.362C160,-108.922 160,-98.7427 160,-89.7276"/>
<polygon fill="midnightblue" stroke="midnightblue" points="163.5,-89.5706 160,-79.5707 156.5,-89.5707 163.5,-89.5706"/>
</g>
<!-- Node4&#45;&gt;Node2 -->
<g id="edge8" class="edge"><title>Node4&#45;&gt;Node2</title>
<path fill="none" stroke="midnightblue" d="M142.209,-58.3619C127.441,-49.532 106.222,-36.844 89.4616,-26.8224"/>
<polygon fill="midnightblue" stroke="midnightblue" points="91.0574,-23.6987 80.6785,-21.5707 87.4651,-29.7066 91.0574,-23.6987"/>
</g>
<!-- Node4&#45;&gt;Node3 -->
<g id="edge10" class="edge"><title>Node4&#45;&gt;Node3</title>
<path fill="none" stroke="midnightblue" d="M168.987,-58.3619C175.825,-50.2678 185.402,-38.9318 193.472,-29.3796"/>
<polygon fill="midnightblue" stroke="midnightblue" points="196.29,-31.4683 200.07,-21.5707 190.942,-26.9508 196.29,-31.4683"/>
</g>
</g>
</svg>
