<?xml version="1.0" encoding="UTF-8" standalone="no"?>
<!DOCTYPE svg PUBLIC "-//W3C//DTD SVG 1.1//EN"
 "http://www.w3.org/Graphics/SVG/1.1/DTD/svg11.dtd">
<!-- Generated by graphviz version 2.26.3 (20100126.1600)
 -->
<!-- Title: G Pages: 1 -->
<svg width="446pt" height="204pt"
 viewBox="0.00 0.00 446.00 204.00" xmlns="http://www.w3.org/2000/svg" xmlns:xlink="http://www.w3.org/1999/xlink">
<g id="graph1" class="graph" transform="scale(1 1) rotate(0) translate(4 200)">
<title>G</title>
<polygon fill="white" stroke="white" points="-4,5 -4,-200 443,-200 443,5 -4,5"/>
<!-- Node1 -->
<g id="node1" class="node"><title>Node1</title>
<polygon fill="#bfbfbf" stroke="black" points="-0.5,-174.5 -0.5,-195.5 364.5,-195.5 364.5,-174.5 -0.5,-174.5"/>
<text text-anchor="middle" x="182" y="-182.5" font-family="Helvetica,sans-Serif" font-size="10.00">/home/vilon_tao/gaia/sdk/include/gaia/telephony/mms/MultimediaMessagePdu.h</text>
</g>
<!-- Node2 -->
<g id="node3" class="node"><title>Node2</title>
<a xlink:href="../../d1/dd0/gmacros_8h.html" target="_top" xlink:title="gaia/base/gmacros.h">
<polygon fill="white" stroke="black" points="122.5,-0.5 122.5,-21.5 229.5,-21.5 229.5,-0.5 122.5,-0.5"/>
<text text-anchor="middle" x="176" y="-8.5" font-family="Helvetica,sans-Serif" font-size="10.00">gaia/base/gmacros.h</text>
</a>
</g>
<!-- Node1&#45;&gt;Node2 -->
<g id="edge2" class="edge"><title>Node1&#45;&gt;Node2</title>
<path fill="none" stroke="midnightblue" d="M170.44,-174.296C161.849,-165.501 150.817,-152.212 146,-138 133.415,-100.874 151.548,-55.9158 164.623,-30.6739"/>
<polygon fill="midnightblue" stroke="midnightblue" points="167.785,-32.1869 169.479,-21.7285 161.633,-28.8472 167.785,-32.1869"/>
</g>
<!-- Node3 -->
<g id="node5" class="node"><title>Node3</title>
<a xlink:href="../../d9/d1b/_generic_pdu_8h.html" target="_top" xlink:title="gaia/telephony/mms/GenericPdu.h">
<polygon fill="white" stroke="black" points="154.5,-116.5 154.5,-137.5 321.5,-137.5 321.5,-116.5 154.5,-116.5"/>
<text text-anchor="middle" x="238" y="-124.5" font-family="Helvetica,sans-Serif" font-size="10.00">gaia/telephony/mms/GenericPdu.h</text>
</a>
</g>
<!-- Node1&#45;&gt;Node3 -->
<g id="edge4" class="edge"><title>Node1&#45;&gt;Node3</title>
<path fill="none" stroke="midnightblue" d="M192.271,-174.362C200.244,-166.104 211.475,-154.472 220.811,-144.803"/>
<polygon fill="midnightblue" stroke="midnightblue" points="223.366,-147.196 227.794,-137.571 218.33,-142.334 223.366,-147.196"/>
</g>
<!-- Node3&#45;&gt;Node2 -->
<g id="edge8" class="edge"><title>Node3&#45;&gt;Node2</title>
<path fill="none" stroke="midnightblue" d="M225.331,-116.252C215.698,-107.432 202.81,-94.1325 195,-80 186.749,-65.069 181.883,-46.3066 179.145,-32.1173"/>
<polygon fill="midnightblue" stroke="midnightblue" points="182.528,-31.1391 177.381,-21.8786 175.63,-32.3277 182.528,-31.1391"/>
</g>
<!-- Node4 -->
<g id="node7" class="node"><title>Node4</title>
<polygon fill="white" stroke="#bfbfbf" points="204,-58.5 204,-79.5 250,-79.5 250,-58.5 204,-58.5"/>
<text text-anchor="middle" x="227" y="-66.5" font-family="Helvetica,sans-Serif" font-size="10.00">cstdint</text>
</g>
<!-- Node3&#45;&gt;Node4 -->
<g id="edge6" class="edge"><title>Node3&#45;&gt;Node4</title>
<path fill="none" stroke="midnightblue" d="M235.982,-116.362C234.556,-108.84 232.598,-98.5187 230.875,-89.4308"/>
<polygon fill="midnightblue" stroke="midnightblue" points="234.307,-88.7433 229.005,-79.5707 227.429,-90.0477 234.307,-88.7433"/>
</g>
<!-- Node5 -->
<g id="node10" class="node"><title>Node5</title>
<a xlink:href="../../d5/d48/_pdu_headers_8h.html" target="_top" xlink:title="gaia/telephony/mms/PduHeaders.h">
<polygon fill="white" stroke="black" points="268,-58.5 268,-79.5 438,-79.5 438,-58.5 268,-58.5"/>
<text text-anchor="middle" x="353" y="-66.5" font-family="Helvetica,sans-Serif" font-size="10.00">gaia/telephony/mms/PduHeaders.h</text>
</a>
</g>
<!-- Node3&#45;&gt;Node5 -->
<g id="edge10" class="edge"><title>Node3&#45;&gt;Node5</title>
<path fill="none" stroke="midnightblue" d="M258.826,-116.497C276.706,-107.479 302.707,-94.3649 322.861,-84.2006"/>
<polygon fill="midnightblue" stroke="midnightblue" points="324.588,-87.2495 331.941,-79.6212 321.436,-80.9994 324.588,-87.2495"/>
</g>
<!-- Node5&#45;&gt;Node2 -->
<g id="edge12" class="edge"><title>Node5&#45;&gt;Node2</title>
<path fill="none" stroke="midnightblue" d="M320.947,-58.4966C292.091,-49.0411 249.494,-35.0829 217.939,-24.7428"/>
<polygon fill="midnightblue" stroke="midnightblue" points="218.706,-21.3111 208.113,-21.5231 216.526,-27.963 218.706,-21.3111"/>
</g>
</g>
</svg>
