<?xml version="1.0" encoding="UTF-8" standalone="no"?>
<!DOCTYPE svg PUBLIC "-//W3C//DTD SVG 1.1//EN"
 "http://www.w3.org/Graphics/SVG/1.1/DTD/svg11.dtd">
<!-- Generated by graphviz version 2.26.3 (20100126.1600)
 -->
<!-- Title: G Pages: 1 -->
<svg width="380pt" height="262pt"
 viewBox="0.00 0.00 380.00 262.00" xmlns="http://www.w3.org/2000/svg" xmlns:xlink="http://www.w3.org/1999/xlink">
<g id="graph1" class="graph" transform="scale(1 1) rotate(0) translate(4 258)">
<title>G</title>
<polygon fill="white" stroke="white" points="-4,5 -4,-258 377,-258 377,5 -4,5"/>
<!-- Node1 -->
<g id="node1" class="node"><title>Node1</title>
<polygon fill="#bfbfbf" stroke="black" points="-0.5,-232.5 -0.5,-253.5 264.5,-253.5 264.5,-232.5 -0.5,-232.5"/>
<text text-anchor="middle" x="132" y="-240.5" font-family="Helvetica,sans-Serif" font-size="10.00">/home/vilon_tao/gaia/sdk/include/gaia/graphics/Canvas.h</text>
</g>
<!-- Node2 -->
<g id="node3" class="node"><title>Node2</title>
<polygon fill="white" stroke="#bfbfbf" points="90,-0.5 90,-21.5 158,-21.5 158,-0.5 90,-0.5"/>
<text text-anchor="middle" x="124" y="-8.5" font-family="Helvetica,sans-Serif" font-size="10.00">sys/types.h</text>
</g>
<!-- Node1&#45;&gt;Node2 -->
<g id="edge2" class="edge"><title>Node1&#45;&gt;Node2</title>
<path fill="none" stroke="midnightblue" d="M82.398,-232.481C62.5832,-225.585 41.7226,-214.309 30,-196 -7.4746,-137.471 64.9067,-62.1001 102.859,-28.5055"/>
<polygon fill="midnightblue" stroke="midnightblue" points="105.541,-30.8134 110.816,-21.6254 100.963,-25.5181 105.541,-30.8134"/>
</g>
<!-- Node3 -->
<g id="node5" class="node"><title>Node3</title>
<a xlink:href="../../d1/dd0/gmacros_8h.html" target="_top" xlink:title="gaia/base/gmacros.h">
<polygon fill="white" stroke="black" points="38.5,-174.5 38.5,-195.5 145.5,-195.5 145.5,-174.5 38.5,-174.5"/>
<text text-anchor="middle" x="92" y="-182.5" font-family="Helvetica,sans-Serif" font-size="10.00">gaia/base/gmacros.h</text>
</a>
</g>
<!-- Node1&#45;&gt;Node3 -->
<g id="edge4" class="edge"><title>Node1&#45;&gt;Node3</title>
<path fill="none" stroke="midnightblue" d="M124.663,-232.362C119.194,-224.431 111.578,-213.389 105.076,-203.961"/>
<polygon fill="midnightblue" stroke="midnightblue" points="107.849,-201.816 99.2901,-195.571 102.086,-205.79 107.849,-201.816"/>
</g>
<!-- Node4 -->
<g id="node7" class="node"><title>Node4</title>
<a xlink:href="../../d0/db4/_region_8h.html" target="_top" xlink:title="gaia/graphics/Region.h">
<polygon fill="white" stroke="black" points="57,-116.5 57,-137.5 173,-137.5 173,-116.5 57,-116.5"/>
<text text-anchor="middle" x="115" y="-124.5" font-family="Helvetica,sans-Serif" font-size="10.00">gaia/graphics/Region.h</text>
</a>
</g>
<!-- Node1&#45;&gt;Node4 -->
<g id="edge6" class="edge"><title>Node1&#45;&gt;Node4</title>
<path fill="none" stroke="midnightblue" d="M139.923,-232.159C148.886,-218.497 161.341,-194.342 154,-174 150.059,-163.079 142.354,-152.902 134.826,-144.83"/>
<polygon fill="midnightblue" stroke="midnightblue" points="137.05,-142.104 127.503,-137.51 132.102,-147.055 137.05,-142.104"/>
</g>
<!-- Node5 -->
<g id="node10" class="node"><title>Node5</title>
<a xlink:href="../../d1/df6/_porter_duff_8h.html" target="_top" xlink:title="gaia/graphics/PorterDuff.h">
<polygon fill="white" stroke="black" points="200.5,-174.5 200.5,-195.5 331.5,-195.5 331.5,-174.5 200.5,-174.5"/>
<text text-anchor="middle" x="266" y="-182.5" font-family="Helvetica,sans-Serif" font-size="10.00">gaia/graphics/PorterDuff.h</text>
</a>
</g>
<!-- Node1&#45;&gt;Node5 -->
<g id="edge10" class="edge"><title>Node1&#45;&gt;Node5</title>
<path fill="none" stroke="midnightblue" d="M156.266,-232.497C177.478,-223.315 208.498,-209.889 232.15,-199.652"/>
<polygon fill="midnightblue" stroke="midnightblue" points="233.674,-202.806 241.461,-195.621 230.894,-196.381 233.674,-202.806"/>
</g>
<!-- Node4&#45;&gt;Node2 -->
<g id="edge8" class="edge"><title>Node4&#45;&gt;Node2</title>
<path fill="none" stroke="midnightblue" d="M109.935,-116.204C104.207,-102.589 96.2572,-78.482 101,-58 103.209,-48.4584 107.637,-38.6176 112.023,-30.4219"/>
<polygon fill="midnightblue" stroke="midnightblue" points="115.099,-32.0929 117.017,-21.673 109.02,-28.6228 115.099,-32.0929"/>
</g>
<!-- Node6 -->
<g id="node12" class="node"><title>Node6</title>
<a xlink:href="../../dd/d0b/_hash_map_8h.html" target="_top" xlink:title="gaia/base/HashMap.h">
<polygon fill="white" stroke="black" points="210,-116.5 210,-137.5 322,-137.5 322,-116.5 210,-116.5"/>
<text text-anchor="middle" x="266" y="-124.5" font-family="Helvetica,sans-Serif" font-size="10.00">gaia/base/HashMap.h</text>
</a>
</g>
<!-- Node5&#45;&gt;Node6 -->
<g id="edge12" class="edge"><title>Node5&#45;&gt;Node6</title>
<path fill="none" stroke="midnightblue" d="M266,-174.362C266,-166.922 266,-156.743 266,-147.728"/>
<polygon fill="midnightblue" stroke="midnightblue" points="269.5,-147.571 266,-137.571 262.5,-147.571 269.5,-147.571"/>
</g>
<!-- Node7 -->
<g id="node14" class="node"><title>Node7</title>
<a xlink:href="../../d6/d83/_hash_func_8h.html" target="_top" xlink:title="gaia/base/HashFunc.h">
<polygon fill="white" stroke="black" points="109.5,-58.5 109.5,-79.5 224.5,-79.5 224.5,-58.5 109.5,-58.5"/>
<text text-anchor="middle" x="167" y="-66.5" font-family="Helvetica,sans-Serif" font-size="10.00">gaia/base/HashFunc.h</text>
</a>
</g>
<!-- Node6&#45;&gt;Node7 -->
<g id="edge14" class="edge"><title>Node6&#45;&gt;Node7</title>
<path fill="none" stroke="midnightblue" d="M247.842,-116.362C232.77,-107.532 211.113,-94.844 194.007,-84.8224"/>
<polygon fill="midnightblue" stroke="midnightblue" points="195.441,-81.6058 185.043,-79.5707 191.902,-87.6456 195.441,-81.6058"/>
</g>
<!-- Node8 -->
<g id="node17" class="node"><title>Node8</title>
<a xlink:href="../../dc/d11/_hash_map_impl_8h.html" target="_top" xlink:title="gaia/base/HashMapImpl.h">
<polygon fill="white" stroke="black" points="241.5,-58.5 241.5,-79.5 372.5,-79.5 372.5,-58.5 241.5,-58.5"/>
<text text-anchor="middle" x="307" y="-66.5" font-family="Helvetica,sans-Serif" font-size="10.00">gaia/base/HashMapImpl.h</text>
</a>
</g>
<!-- Node6&#45;&gt;Node8 -->
<g id="edge18" class="edge"><title>Node6&#45;&gt;Node8</title>
<path fill="none" stroke="midnightblue" d="M273.52,-116.362C279.126,-108.431 286.932,-97.3885 293.597,-87.9606"/>
<polygon fill="midnightblue" stroke="midnightblue" points="296.613,-89.7568 299.528,-79.5707 290.897,-85.7161 296.613,-89.7568"/>
</g>
<!-- Node7&#45;&gt;Node2 -->
<g id="edge16" class="edge"><title>Node7&#45;&gt;Node2</title>
<path fill="none" stroke="midnightblue" d="M159.113,-58.3619C153.173,-50.3496 144.878,-39.1605 137.841,-29.6696"/>
<polygon fill="midnightblue" stroke="midnightblue" points="140.604,-27.5193 131.837,-21.5707 134.981,-31.6883 140.604,-27.5193"/>
</g>
<!-- Node8&#45;&gt;Node2 -->
<g id="edge20" class="edge"><title>Node8&#45;&gt;Node2</title>
<path fill="none" stroke="midnightblue" d="M273.86,-58.4966C243.897,-49.0001 199.604,-34.9619 166.938,-24.6087"/>
<polygon fill="midnightblue" stroke="midnightblue" points="167.792,-21.208 157.202,-21.5231 165.677,-27.8809 167.792,-21.208"/>
</g>
</g>
</svg>
