<?xml version="1.0" encoding="UTF-8" standalone="no"?>
<!DOCTYPE svg PUBLIC "-//W3C//DTD SVG 1.1//EN"
 "http://www.w3.org/Graphics/SVG/1.1/DTD/svg11.dtd">
<!-- Generated by graphviz version 2.26.3 (20100126.1600)
 -->
<!-- Title: G Pages: 1 -->
<svg width="336pt" height="146pt"
 viewBox="0.00 0.00 336.00 146.00" xmlns="http://www.w3.org/2000/svg" xmlns:xlink="http://www.w3.org/1999/xlink">
<g id="graph1" class="graph" transform="scale(1 1) rotate(0) translate(4 142)">
<title>G</title>
<polygon fill="white" stroke="white" points="-4,5 -4,-142 333,-142 333,5 -4,5"/>
<!-- Node1 -->
<g id="node1" class="node"><title>Node1</title>
<polygon fill="#bfbfbf" stroke="black" points="0,-116.5 0,-137.5 290,-137.5 290,-116.5 0,-116.5"/>
<text text-anchor="middle" x="145" y="-124.5" font-family="Helvetica,sans-Serif" font-size="10.00">/home/vilon_tao/gaia/sdk/include/gaia/telephony/cat/Duration.h</text>
</g>
<!-- Node2 -->
<g id="node3" class="node"><title>Node2</title>
<polygon fill="white" stroke="#bfbfbf" points="19.5,-58.5 19.5,-79.5 68.5,-79.5 68.5,-58.5 19.5,-58.5"/>
<text text-anchor="middle" x="44" y="-66.5" font-family="Helvetica,sans-Serif" font-size="10.00">stdint.h</text>
</g>
<!-- Node1&#45;&gt;Node2 -->
<g id="edge2" class="edge"><title>Node1&#45;&gt;Node2</title>
<path fill="none" stroke="midnightblue" d="M126.475,-116.362C111.099,-107.532 89.0041,-94.844 71.5528,-84.8224"/>
<polygon fill="midnightblue" stroke="midnightblue" points="72.8223,-81.5154 62.4075,-79.5707 69.3364,-87.5857 72.8223,-81.5154"/>
</g>
<!-- Node3 -->
<g id="node5" class="node"><title>Node3</title>
<a xlink:href="../../d9/d28/_enum_base_8h.html" target="_top" xlink:title="gaia/base/EnumBase.h">
<polygon fill="white" stroke="black" points="86,-58.5 86,-79.5 204,-79.5 204,-58.5 86,-58.5"/>
<text text-anchor="middle" x="145" y="-66.5" font-family="Helvetica,sans-Serif" font-size="10.00">gaia/base/EnumBase.h</text>
</a>
</g>
<!-- Node1&#45;&gt;Node3 -->
<g id="edge4" class="edge"><title>Node1&#45;&gt;Node3</title>
<path fill="none" stroke="midnightblue" d="M145,-116.362C145,-108.922 145,-98.7427 145,-89.7276"/>
<polygon fill="midnightblue" stroke="midnightblue" points="148.5,-89.5706 145,-79.5707 141.5,-89.5707 148.5,-89.5706"/>
</g>
<!-- Node5 -->
<g id="node9" class="node"><title>Node5</title>
<a xlink:href="../../d1/dd0/gmacros_8h.html" target="_top" xlink:title="gaia/base/gmacros.h">
<polygon fill="white" stroke="black" points="221.5,-58.5 221.5,-79.5 328.5,-79.5 328.5,-58.5 221.5,-58.5"/>
<text text-anchor="middle" x="275" y="-66.5" font-family="Helvetica,sans-Serif" font-size="10.00">gaia/base/gmacros.h</text>
</a>
</g>
<!-- Node1&#45;&gt;Node5 -->
<g id="edge8" class="edge"><title>Node1&#45;&gt;Node5</title>
<path fill="none" stroke="midnightblue" d="M168.542,-116.497C189.029,-107.356 218.947,-94.0082 241.854,-83.7883"/>
<polygon fill="midnightblue" stroke="midnightblue" points="243.488,-86.892 251.194,-79.6212 240.635,-80.4994 243.488,-86.892"/>
</g>
<!-- Node4 -->
<g id="node7" class="node"><title>Node4</title>
<polygon fill="white" stroke="#bfbfbf" points="122,-0.5 122,-21.5 168,-21.5 168,-0.5 122,-0.5"/>
<text text-anchor="middle" x="145" y="-8.5" font-family="Helvetica,sans-Serif" font-size="10.00">cstdint</text>
</g>
<!-- Node3&#45;&gt;Node4 -->
<g id="edge6" class="edge"><title>Node3&#45;&gt;Node4</title>
<path fill="none" stroke="midnightblue" d="M145,-58.3619C145,-50.9219 145,-40.7427 145,-31.7276"/>
<polygon fill="midnightblue" stroke="midnightblue" points="148.5,-31.5706 145,-21.5707 141.5,-31.5707 148.5,-31.5706"/>
</g>
</g>
</svg>
