<?xml version="1.0" encoding="UTF-8" standalone="no"?>
<!DOCTYPE svg PUBLIC "-//W3C//DTD SVG 1.1//EN"
 "http://www.w3.org/Graphics/SVG/1.1/DTD/svg11.dtd">
<!-- Generated by graphviz version 2.26.3 (20100126.1600)
 -->
<!-- Title: G Pages: 1 -->
<svg width="479pt" height="146pt"
 viewBox="0.00 0.00 479.00 146.00" xmlns="http://www.w3.org/2000/svg" xmlns:xlink="http://www.w3.org/1999/xlink">
<g id="graph1" class="graph" transform="scale(1 1) rotate(0) translate(4 142)">
<title>G</title>
<polygon fill="white" stroke="white" points="-4,5 -4,-142 476,-142 476,5 -4,5"/>
<!-- Node1 -->
<g id="node1" class="node"><title>Node1</title>
<polygon fill="#bfbfbf" stroke="black" points="119.5,-116.5 119.5,-137.5 226.5,-137.5 226.5,-116.5 119.5,-116.5"/>
<text text-anchor="middle" x="173" y="-124.5" font-family="Helvetica,sans-Serif" font-size="10.00">gaia::text::InputFilter</text>
</g>
<!-- Node2 -->
<g id="node3" class="node"><title>Node2</title>
<a xlink:href="../../da/d09/classgaia_1_1text_1_1_all_caps.html" target="_top" xlink:title="This filter will capitalize all the lower case letters that are added through edits.">
<polygon fill="white" stroke="black" points="0,-58.5 0,-79.5 98,-79.5 98,-58.5 0,-58.5"/>
<text text-anchor="middle" x="49" y="-66.5" font-family="Helvetica,sans-Serif" font-size="10.00">gaia::text::AllCaps</text>
</a>
</g>
<!-- Node1&#45;&gt;Node2 -->
<g id="edge2" class="edge"><title>Node1&#45;&gt;Node2</title>
<path fill="none" stroke="midnightblue" d="M141.372,-112.206C119.618,-102.031 91.2384,-88.7567 71.7074,-79.6212"/>
<polygon fill="midnightblue" stroke="midnightblue" points="140.004,-115.43 150.545,-116.497 142.969,-109.089 140.004,-115.43"/>
</g>
<!-- Node3 -->
<g id="node5" class="node"><title>Node3</title>
<a xlink:href="../../dc/da0/classgaia_1_1text_1_1_length_filter.html" target="_top" xlink:title="This filter will constrain edits not to make the length of the text greater than the specified length...">
<polygon fill="white" stroke="black" points="116,-58.5 116,-79.5 230,-79.5 230,-58.5 116,-58.5"/>
<text text-anchor="middle" x="173" y="-66.5" font-family="Helvetica,sans-Serif" font-size="10.00">gaia::text::LengthFilter</text>
</a>
</g>
<!-- Node1&#45;&gt;Node3 -->
<g id="edge4" class="edge"><title>Node1&#45;&gt;Node3</title>
<path fill="none" stroke="midnightblue" d="M173,-106.191C173,-97.1684 173,-86.9941 173,-79.5707"/>
<polygon fill="midnightblue" stroke="midnightblue" points="169.5,-106.362 173,-116.362 176.5,-106.362 169.5,-106.362"/>
</g>
<!-- Node4 -->
<g id="node7" class="node"><title>Node4</title>
<a xlink:href="../../da/d8a/classgaia_1_1text_1_1_number_key_listener.html" target="_top" xlink:title="For numeric text entry.">
<polygon fill="white" stroke="black" points="247.5,-58.5 247.5,-79.5 396.5,-79.5 396.5,-58.5 247.5,-58.5"/>
<text text-anchor="middle" x="322" y="-66.5" font-family="Helvetica,sans-Serif" font-size="10.00">gaia::text::NumberKeyListener</text>
</a>
</g>
<!-- Node1&#45;&gt;Node4 -->
<g id="edge6" class="edge"><title>Node1&#45;&gt;Node4</title>
<path fill="none" stroke="midnightblue" d="M209.637,-112.739C236.038,-102.462 271.08,-88.821 294.967,-79.5231"/>
<polygon fill="midnightblue" stroke="midnightblue" points="208.032,-109.607 199.983,-116.497 210.571,-116.131 208.032,-109.607"/>
</g>
<!-- Node5 -->
<g id="node9" class="node"><title>Node5</title>
<a xlink:href="../../d3/dec/classgaia_1_1text_1_1_dialer_key_listener.html" target="_top" xlink:title="For dialing&#45;only text entry.">
<polygon fill="white" stroke="black" points="173,-0.5 173,-21.5 313,-21.5 313,-0.5 173,-0.5"/>
<text text-anchor="middle" x="243" y="-8.5" font-family="Helvetica,sans-Serif" font-size="10.00">gaia::text::DialerKeyListener</text>
</a>
</g>
<!-- Node4&#45;&gt;Node5 -->
<g id="edge8" class="edge"><title>Node4&#45;&gt;Node5</title>
<path fill="none" stroke="midnightblue" d="M299.197,-52.2587C285.72,-42.3641 269.065,-30.1361 257.398,-21.5707"/>
<polygon fill="midnightblue" stroke="midnightblue" points="297.378,-55.2651 307.51,-58.3619 301.521,-49.6225 297.378,-55.2651"/>
</g>
<!-- Node6 -->
<g id="node11" class="node"><title>Node6</title>
<a xlink:href="../../d6/de9/classgaia_1_1text_1_1_digits_key_listener.html" target="_top" xlink:title="For digits&#45;only text entry.">
<polygon fill="white" stroke="black" points="331,-0.5 331,-21.5 471,-21.5 471,-0.5 331,-0.5"/>
<text text-anchor="middle" x="401" y="-8.5" font-family="Helvetica,sans-Serif" font-size="10.00">gaia::text::DigitsKeyListener</text>
</a>
</g>
<!-- Node4&#45;&gt;Node6 -->
<g id="edge10" class="edge"><title>Node4&#45;&gt;Node6</title>
<path fill="none" stroke="midnightblue" d="M344.803,-52.2587C358.28,-42.3641 374.935,-30.1361 386.602,-21.5707"/>
<polygon fill="midnightblue" stroke="midnightblue" points="342.479,-49.6225 336.49,-58.3619 346.622,-55.2651 342.479,-49.6225"/>
</g>
</g>
</svg>
