<?xml version="1.0" encoding="UTF-8" standalone="no"?>
<!DOCTYPE svg PUBLIC "-//W3C//DTD SVG 1.1//EN"
 "http://www.w3.org/Graphics/SVG/1.1/DTD/svg11.dtd">
<!-- Generated by graphviz version 2.26.3 (20100126.1600)
 -->
<!-- Title: G Pages: 1 -->
<svg width="337pt" height="200pt"
 viewBox="0.00 0.00 337.00 200.00" xmlns="http://www.w3.org/2000/svg" xmlns:xlink="http://www.w3.org/1999/xlink">
<g id="graph1" class="graph" transform="scale(1 1) rotate(0) translate(4 196)">
<title>G</title>
<polygon fill="white" stroke="white" points="-4,5 -4,-196 334,-196 334,5 -4,5"/>
<!-- Node1 -->
<g id="node1" class="node"><title>Node1</title>
<polygon fill="#bfbfbf" stroke="black" points="38.5,-0.5 38.5,-21.5 329.5,-21.5 329.5,-0.5 38.5,-0.5"/>
<text text-anchor="middle" x="184" y="-8.5" font-family="Helvetica,sans-Serif" font-size="10.00">gaia::cloudstorage::CloudStorageManager::PluginMetaDataInfo</text>
</g>
<!-- Node2 -->
<g id="node2" class="node"><title>Node2</title>
<a xlink:href="../../d2/ddb/classgaia_1_1base_1_1_string.html" target="_top" xlink:title="A String is represented by array of UTF&#45;16 values, such that Unicode supplementary characters (code p...">
<polygon fill="white" stroke="black" points="19.5,-110.5 19.5,-131.5 112.5,-131.5 112.5,-110.5 19.5,-110.5"/>
<text text-anchor="middle" x="66" y="-118.5" font-family="Helvetica,sans-Serif" font-size="10.00">gaia::base::String</text>
</a>
</g>
<!-- Node2&#45;&gt;Node1 -->
<g id="edge2" class="edge"><title>Node2&#45;&gt;Node1</title>
<path fill="none" stroke="#9a32cd" stroke-dasharray="5,2" d="M84.6443,-103.62C109.339,-80.5993 152.144,-40.696 172.547,-21.677"/>
<polygon fill="#9a32cd" stroke="#9a32cd" points="82.2425,-101.074 77.3143,-110.453 87.0156,-106.194 82.2425,-101.074"/>
<text text-anchor="middle" x="170" y="-83" font-family="Helvetica,sans-Serif" font-size="10.00"> libPath</text>
<text text-anchor="middle" x="170" y="-70" font-family="Helvetica,sans-Serif" font-size="10.00">type</text>
<text text-anchor="middle" x="170" y="-57" font-family="Helvetica,sans-Serif" font-size="10.00">version</text>
<text text-anchor="middle" x="170" y="-44" font-family="Helvetica,sans-Serif" font-size="10.00">name</text>
</g>
<!-- Node3 -->
<g id="node4" class="node"><title>Node3</title>
<a xlink:href="../../d1/d0f/classgaia_1_1base_1_1_char_sequence.html" target="_top" xlink:title="This interface represents an ordered set of characters and defines the methods to probe them...">
<polygon fill="white" stroke="black" points="0,-170.5 0,-191.5 132,-191.5 132,-170.5 0,-170.5"/>
<text text-anchor="middle" x="66" y="-178.5" font-family="Helvetica,sans-Serif" font-size="10.00">gaia::base::CharSequence</text>
</a>
</g>
<!-- Node3&#45;&gt;Node2 -->
<g id="edge4" class="edge"><title>Node3&#45;&gt;Node2</title>
<path fill="none" stroke="midnightblue" d="M66,-160.231C66,-150.592 66,-139.544 66,-131.634"/>
<polygon fill="midnightblue" stroke="midnightblue" points="62.5001,-160.273 66,-170.273 69.5001,-160.273 62.5001,-160.273"/>
</g>
<!-- Node4 -->
<g id="node6" class="node"><title>Node4</title>
<a xlink:href="../../d4/df5/classgaia_1_1cloudstorage_1_1_cloud_storage_plugin.html" target="_top" xlink:title="gaia::cloudstorage::CloudStoragePlugin">
<polygon fill="white" stroke="black" points="130,-110.5 130,-131.5 318,-131.5 318,-110.5 130,-110.5"/>
<text text-anchor="middle" x="224" y="-118.5" font-family="Helvetica,sans-Serif" font-size="10.00">gaia::cloudstorage::CloudStoragePlugin</text>
</a>
</g>
<!-- Node4&#45;&gt;Node1 -->
<g id="edge6" class="edge"><title>Node4&#45;&gt;Node1</title>
<path fill="none" stroke="#9a32cd" stroke-dasharray="5,2" d="M216.674,-100.854C208.19,-77.5217 194.529,-39.955 187.883,-21.677"/>
<polygon fill="#9a32cd" stroke="#9a32cd" points="213.458,-102.251 220.165,-110.453 220.036,-99.8587 213.458,-102.251"/>
<text text-anchor="middle" x="235" y="-63.5" font-family="Helvetica,sans-Serif" font-size="10.00"> regPlugin</text>
</g>
</g>
</svg>
