<?xml version="1.0" encoding="UTF-8" standalone="no"?>
<!DOCTYPE svg PUBLIC "-//W3C//DTD SVG 1.1//EN"
 "http://www.w3.org/Graphics/SVG/1.1/DTD/svg11.dtd">
<!-- Generated by graphviz version 2.26.3 (20100126.1600)
 -->
<!-- Title: G Pages: 1 -->
<svg width="330pt" height="146pt"
 viewBox="0.00 0.00 330.00 146.00" xmlns="http://www.w3.org/2000/svg" xmlns:xlink="http://www.w3.org/1999/xlink">
<g id="graph1" class="graph" transform="scale(1 1) rotate(0) translate(4 142)">
<title>G</title>
<polygon fill="white" stroke="white" points="-4,5 -4,-142 327,-142 327,5 -4,5"/>
<!-- Node1 -->
<g id="node1" class="node"><title>Node1</title>
<polygon fill="#bfbfbf" stroke="black" points="0,-116.5 0,-137.5 322,-137.5 322,-116.5 0,-116.5"/>
<text text-anchor="middle" x="161" y="-124.5" font-family="Helvetica,sans-Serif" font-size="10.00">/home/vilon_tao/gaia/sdk/include/gaia/telephony/PhoneStateListener.h</text>
</g>
<!-- Node2 -->
<g id="node3" class="node"><title>Node2</title>
<polygon fill="white" stroke="#bfbfbf" points="34,-0.5 34,-21.5 80,-21.5 80,-0.5 34,-0.5"/>
<text text-anchor="middle" x="57" y="-8.5" font-family="Helvetica,sans-Serif" font-size="10.00">cstdint</text>
</g>
<!-- Node1&#45;&gt;Node2 -->
<g id="edge2" class="edge"><title>Node1&#45;&gt;Node2</title>
<path fill="none" stroke="midnightblue" d="M119.438,-116.332C100.156,-109.223 78.7327,-97.815 66,-80 56.1481,-66.2157 54.3897,-46.8251 54.8137,-32.1083"/>
<polygon fill="midnightblue" stroke="midnightblue" points="58.3188,-32.139 55.4654,-21.9356 51.3331,-31.6914 58.3188,-32.139"/>
</g>
<!-- Node3 -->
<g id="node5" class="node"><title>Node3</title>
<a xlink:href="../../d1/dd0/gmacros_8h.html" target="_top" xlink:title="gaia/base/gmacros.h">
<polygon fill="white" stroke="black" points="164.5,-0.5 164.5,-21.5 271.5,-21.5 271.5,-0.5 164.5,-0.5"/>
<text text-anchor="middle" x="218" y="-8.5" font-family="Helvetica,sans-Serif" font-size="10.00">gaia/base/gmacros.h</text>
</a>
</g>
<!-- Node1&#45;&gt;Node3 -->
<g id="edge4" class="edge"><title>Node1&#45;&gt;Node3</title>
<path fill="none" stroke="midnightblue" d="M205.057,-116.475C224.179,-109.484 244.74,-98.1337 256,-80 266.531,-63.0413 252.698,-42.9889 238.862,-28.8844"/>
<polygon fill="midnightblue" stroke="midnightblue" points="240.986,-26.075 231.329,-21.7178 236.161,-31.1465 240.986,-26.075"/>
</g>
<!-- Node4 -->
<g id="node7" class="node"><title>Node4</title>
<a xlink:href="../../de/d2b/_telephony_manager_8h.html" target="_top" xlink:title="gaia/telephony/TelephonyManager.h">
<polygon fill="white" stroke="black" points="74.5,-58.5 74.5,-79.5 247.5,-79.5 247.5,-58.5 74.5,-58.5"/>
<text text-anchor="middle" x="161" y="-66.5" font-family="Helvetica,sans-Serif" font-size="10.00">gaia/telephony/TelephonyManager.h</text>
</a>
</g>
<!-- Node1&#45;&gt;Node4 -->
<g id="edge6" class="edge"><title>Node1&#45;&gt;Node4</title>
<path fill="none" stroke="midnightblue" d="M161,-116.362C161,-108.922 161,-98.7427 161,-89.7276"/>
<polygon fill="midnightblue" stroke="midnightblue" points="164.5,-89.5706 161,-79.5707 157.5,-89.5707 164.5,-89.5706"/>
</g>
<!-- Node4&#45;&gt;Node2 -->
<g id="edge8" class="edge"><title>Node4&#45;&gt;Node2</title>
<path fill="none" stroke="midnightblue" d="M141.925,-58.3619C125.945,-49.4502 102.919,-36.6087 84.8733,-26.5447"/>
<polygon fill="midnightblue" stroke="midnightblue" points="86.3927,-23.3846 75.9543,-21.5707 82.9832,-29.4982 86.3927,-23.3846"/>
</g>
<!-- Node4&#45;&gt;Node3 -->
<g id="edge10" class="edge"><title>Node4&#45;&gt;Node3</title>
<path fill="none" stroke="midnightblue" d="M171.455,-58.3619C179.57,-50.1043 191.001,-38.4725 200.504,-28.8029"/>
<polygon fill="midnightblue" stroke="midnightblue" points="203.099,-31.1562 207.612,-21.5707 198.106,-26.2497 203.099,-31.1562"/>
</g>
</g>
</svg>
