<?xml version="1.0" encoding="UTF-8" standalone="no"?>
<!DOCTYPE svg PUBLIC "-//W3C//DTD SVG 1.1//EN"
 "http://www.w3.org/Graphics/SVG/1.1/DTD/svg11.dtd">
<!-- Generated by graphviz version 2.26.3 (20100126.1600)
 -->
<!-- Title: G Pages: 1 -->
<svg width="943pt" height="436pt"
 viewBox="0.00 0.00 943.11 436.00" xmlns="http://www.w3.org/2000/svg" xmlns:xlink="http://www.w3.org/1999/xlink">
<g id="graph1" class="graph" transform="scale(1 1) rotate(0) translate(4 432)">
<title>G</title>
<polygon fill="white" stroke="white" points="-4,5 -4,-432 940.108,-432 940.108,5 -4,5"/>
<!-- Node1 -->
<g id="node1" class="node"><title>Node1</title>
<polygon fill="#bfbfbf" stroke="black" points="277.802,-406.5 277.802,-427.5 635.802,-427.5 635.802,-406.5 277.802,-406.5"/>
<text text-anchor="middle" x="456.802" y="-414.5" font-family="Helvetica,sans-Serif" font-size="10.00">/home/vilon_tao/gaia/sdk/include/gaia/defcontainer/IMediaContainerDelegate.h</text>
</g>
<!-- Node2 -->
<g id="node3" class="node"><title>Node2</title>
<a xlink:href="../../d3/dc5/_array_8h.html" target="_top" xlink:title="gaia/base/Array.h">
<polygon fill="white" stroke="black" points="159.302,-116.5 159.302,-137.5 252.302,-137.5 252.302,-116.5 159.302,-116.5"/>
<text text-anchor="middle" x="205.802" y="-124.5" font-family="Helvetica,sans-Serif" font-size="10.00">gaia/base/Array.h</text>
</a>
</g>
<!-- Node1&#45;&gt;Node2 -->
<g id="edge2" class="edge"><title>Node1&#45;&gt;Node2</title>
<path fill="none" stroke="midnightblue" d="M440.479,-406.314C414.785,-388.055 367.802,-348.213 367.802,-301 367.802,-301 367.802,-301 367.802,-243 367.802,-187.984 305.276,-156.555 257.914,-140.639"/>
<polygon fill="midnightblue" stroke="midnightblue" points="258.957,-137.299 248.366,-137.568 256.814,-143.962 258.957,-137.299"/>
</g>
<!-- Node9 -->
<g id="node19" class="node"><title>Node9</title>
<a xlink:href="../../d1/dd0/gmacros_8h.html" target="_top" xlink:title="gaia/base/gmacros.h">
<polygon fill="white" stroke="black" points="581.302,-348.5 581.302,-369.5 688.302,-369.5 688.302,-348.5 581.302,-348.5"/>
<text text-anchor="middle" x="634.802" y="-356.5" font-family="Helvetica,sans-Serif" font-size="10.00">gaia/base/gmacros.h</text>
</a>
</g>
<!-- Node1&#45;&gt;Node9 -->
<g id="edge20" class="edge"><title>Node1&#45;&gt;Node9</title>
<path fill="none" stroke="midnightblue" d="M489.037,-406.497C518.056,-397.041 560.893,-383.083 592.626,-372.743"/>
<polygon fill="midnightblue" stroke="midnightblue" points="594.084,-375.949 602.508,-369.523 591.915,-369.293 594.084,-375.949"/>
</g>
<!-- Node10 -->
<g id="node21" class="node"><title>Node10</title>
<a xlink:href="../../da/d82/_i_interface_8h.html" target="_top" xlink:title="gaia/core/ipc/IInterface.h">
<polygon fill="white" stroke="black" points="439.302,-348.5 439.302,-369.5 564.302,-369.5 564.302,-348.5 439.302,-348.5"/>
<text text-anchor="middle" x="501.802" y="-356.5" font-family="Helvetica,sans-Serif" font-size="10.00">gaia/core/ipc/IInterface.h</text>
</a>
</g>
<!-- Node1&#45;&gt;Node10 -->
<g id="edge22" class="edge"><title>Node1&#45;&gt;Node10</title>
<path fill="none" stroke="midnightblue" d="M465.056,-406.362C471.273,-398.35 479.954,-387.161 487.317,-377.67"/>
<polygon fill="midnightblue" stroke="midnightblue" points="490.236,-379.617 493.601,-369.571 484.706,-375.326 490.236,-379.617"/>
</g>
<!-- Node11 -->
<g id="node23" class="node"><title>Node11</title>
<a xlink:href="../../da/de3/_binder_8h.html" target="_top" xlink:title="gaia/core/ipc/Binder.h">
<polygon fill="white" stroke="black" points="446.302,-290.5 446.302,-311.5 557.302,-311.5 557.302,-290.5 446.302,-290.5"/>
<text text-anchor="middle" x="501.802" y="-298.5" font-family="Helvetica,sans-Serif" font-size="10.00">gaia/core/ipc/Binder.h</text>
</a>
</g>
<!-- Node1&#45;&gt;Node11 -->
<g id="edge70" class="edge"><title>Node1&#45;&gt;Node11</title>
<path fill="none" stroke="midnightblue" d="M447.264,-406.337C436.06,-392.446 420.26,-367.622 430.802,-348 438.192,-334.246 451.571,-323.84 464.739,-316.362"/>
<polygon fill="midnightblue" stroke="midnightblue" points="466.509,-319.386 473.744,-311.647 463.262,-313.184 466.509,-319.386"/>
</g>
<!-- Node3 -->
<g id="node5" class="node"><title>Node3</title>
<a xlink:href="../../d8/dae/_array_impl_8h.html" target="_top" xlink:title="gaia/base/ArrayImpl.h">
<polygon fill="white" stroke="black" points="13.8025,-58.5 13.8025,-79.5 125.802,-79.5 125.802,-58.5 13.8025,-58.5"/>
<text text-anchor="middle" x="69.8025" y="-66.5" font-family="Helvetica,sans-Serif" font-size="10.00">gaia/base/ArrayImpl.h</text>
</a>
</g>
<!-- Node2&#45;&gt;Node3 -->
<g id="edge4" class="edge"><title>Node2&#45;&gt;Node3</title>
<path fill="none" stroke="midnightblue" d="M181.174,-116.497C159.645,-107.315 128.163,-93.8889 104.158,-83.6516"/>
<polygon fill="midnightblue" stroke="midnightblue" points="105.279,-80.3247 94.7074,-79.6212 102.533,-86.7636 105.279,-80.3247"/>
</g>
<!-- Node4 -->
<g id="node7" class="node"><title>Node4</title>
<polygon fill="white" stroke="#bfbfbf" points="448.802,-0.5 448.802,-21.5 516.802,-21.5 516.802,-0.5 448.802,-0.5"/>
<text text-anchor="middle" x="482.802" y="-8.5" font-family="Helvetica,sans-Serif" font-size="10.00">sys/types.h</text>
</g>
<!-- Node2&#45;&gt;Node4 -->
<g id="edge18" class="edge"><title>Node2&#45;&gt;Node4</title>
<path fill="none" stroke="midnightblue" d="M158.93,-122.679C105.673,-116.685 23.6761,-103.796 4.80249,-80 -1.27356,-72.3393 -1.76446,-65.2443 4.80249,-58 19.2791,-42.0302 322.274,-21.1922 438.217,-13.7717"/>
<polygon fill="midnightblue" stroke="midnightblue" points="438.757,-17.2445 448.514,-13.1165 438.312,-10.2586 438.757,-17.2445"/>
</g>
<!-- Node5 -->
<g id="node9" class="node"><title>Node5</title>
<a xlink:href="../../d1/d86/_type_helpers_8h.html" target="_top" xlink:title="gaia/base/TypeHelpers.h">
<polygon fill="white" stroke="black" points="143.302,-58.5 143.302,-79.5 268.302,-79.5 268.302,-58.5 143.302,-58.5"/>
<text text-anchor="middle" x="205.802" y="-66.5" font-family="Helvetica,sans-Serif" font-size="10.00">gaia/base/TypeHelpers.h</text>
</a>
</g>
<!-- Node2&#45;&gt;Node5 -->
<g id="edge8" class="edge"><title>Node2&#45;&gt;Node5</title>
<path fill="none" stroke="midnightblue" d="M205.802,-116.362C205.802,-108.922 205.802,-98.7427 205.802,-89.7276"/>
<polygon fill="midnightblue" stroke="midnightblue" points="209.303,-89.5706 205.802,-79.5707 202.303,-89.5707 209.303,-89.5706"/>
</g>
<!-- Node3&#45;&gt;Node4 -->
<g id="edge6" class="edge"><title>Node3&#45;&gt;Node4</title>
<path fill="none" stroke="midnightblue" d="M125.803,-59.4009C128.846,-58.9175 131.861,-58.4475 134.802,-58 243.79,-41.4229 372.439,-24.8145 438.596,-16.4898"/>
<polygon fill="midnightblue" stroke="midnightblue" points="439.179,-19.9443 448.665,-15.2262 438.307,-12.9988 439.179,-19.9443"/>
</g>
<!-- Node5&#45;&gt;Node4 -->
<g id="edge14" class="edge"><title>Node5&#45;&gt;Node4</title>
<path fill="none" stroke="midnightblue" d="M255.965,-58.4966C308.182,-47.5631 389.15,-30.6095 438.91,-20.1904"/>
<polygon fill="midnightblue" stroke="midnightblue" points="439.66,-23.6094 448.731,-18.1342 438.226,-16.758 439.66,-23.6094"/>
</g>
<!-- Node6 -->
<g id="node11" class="node"><title>Node6</title>
<polygon fill="white" stroke="#bfbfbf" points="700.302,-0.5 700.302,-21.5 749.302,-21.5 749.302,-0.5 700.302,-0.5"/>
<text text-anchor="middle" x="724.802" y="-8.5" font-family="Helvetica,sans-Serif" font-size="10.00">stdint.h</text>
</g>
<!-- Node5&#45;&gt;Node6 -->
<g id="edge10" class="edge"><title>Node5&#45;&gt;Node6</title>
<path fill="none" stroke="midnightblue" d="M268.498,-59.1154C271.303,-58.7272 274.081,-58.3533 276.802,-58 430.183,-38.085 613.958,-20.8894 689.621,-14.0975"/>
<polygon fill="midnightblue" stroke="midnightblue" points="690.335,-17.5478 699.984,-13.1718 689.712,-10.5755 690.335,-17.5478"/>
</g>
<!-- Node7 -->
<g id="node13" class="node"><title>Node7</title>
<polygon fill="white" stroke="#bfbfbf" points="210.302,-0.5 210.302,-21.5 259.302,-21.5 259.302,-0.5 210.302,-0.5"/>
<text text-anchor="middle" x="234.802" y="-8.5" font-family="Helvetica,sans-Serif" font-size="10.00">string.h</text>
</g>
<!-- Node5&#45;&gt;Node7 -->
<g id="edge12" class="edge"><title>Node5&#45;&gt;Node7</title>
<path fill="none" stroke="midnightblue" d="M211.122,-58.3619C215.005,-50.5949 220.381,-39.8426 225.03,-30.5458"/>
<polygon fill="midnightblue" stroke="midnightblue" points="228.175,-32.0802 229.517,-21.5707 221.914,-28.9497 228.175,-32.0802"/>
</g>
<!-- Node8 -->
<g id="node16" class="node"><title>Node8</title>
<polygon fill="white" stroke="#bfbfbf" points="158.302,-0.5 158.302,-21.5 193.302,-21.5 193.302,-0.5 158.302,-0.5"/>
<text text-anchor="middle" x="175.802" y="-8.5" font-family="Helvetica,sans-Serif" font-size="10.00">new</text>
</g>
<!-- Node5&#45;&gt;Node8 -->
<g id="edge16" class="edge"><title>Node5&#45;&gt;Node8</title>
<path fill="none" stroke="midnightblue" d="M200.3,-58.3619C196.283,-50.5949 190.721,-39.8426 185.912,-30.5458"/>
<polygon fill="midnightblue" stroke="midnightblue" points="188.973,-28.8448 181.27,-21.5707 182.756,-32.0608 188.973,-28.8448"/>
</g>
<!-- Node10&#45;&gt;Node11 -->
<g id="edge24" class="edge"><title>Node10&#45;&gt;Node11</title>
<path fill="none" stroke="midnightblue" d="M501.802,-348.362C501.802,-340.922 501.802,-330.743 501.802,-321.728"/>
<polygon fill="midnightblue" stroke="midnightblue" points="505.303,-321.571 501.802,-311.571 498.303,-321.571 505.303,-321.571"/>
</g>
<!-- Node11&#45;&gt;Node4 -->
<g id="edge68" class="edge"><title>Node11&#45;&gt;Node4</title>
<path fill="none" stroke="midnightblue" d="M557.395,-297.738C674.071,-289.366 933.802,-262.074 933.802,-185 933.802,-185 933.802,-185 933.802,-127 933.802,-95.1919 939.023,-78.6183 914.802,-58 900.157,-45.5324 634.636,-23.0977 527.287,-14.4916"/>
<polygon fill="midnightblue" stroke="midnightblue" points="527.351,-10.9856 517.104,-13.6787 526.794,-17.9634 527.351,-10.9856"/>
</g>
<!-- Node12 -->
<g id="node25" class="node"><title>Node12</title>
<a xlink:href="../../d1/dbb/_i_binder_8h.html" target="_top" xlink:title="gaia/core/ipc/IBinder.h">
<polygon fill="white" stroke="black" points="441.802,-232.5 441.802,-253.5 555.802,-253.5 555.802,-232.5 441.802,-232.5"/>
<text text-anchor="middle" x="498.802" y="-240.5" font-family="Helvetica,sans-Serif" font-size="10.00">gaia/core/ipc/IBinder.h</text>
</a>
</g>
<!-- Node11&#45;&gt;Node12 -->
<g id="edge26" class="edge"><title>Node11&#45;&gt;Node12</title>
<path fill="none" stroke="midnightblue" d="M501.252,-290.362C500.867,-282.922 500.341,-272.743 499.875,-263.728"/>
<polygon fill="midnightblue" stroke="midnightblue" points="503.361,-263.376 499.349,-253.571 496.371,-263.738 503.361,-263.376"/>
</g>
<!-- Node15 -->
<g id="node34" class="node"><title>Node15</title>
<a xlink:href="../../db/db5/_string_8h.html" target="_top" xlink:title="gaia/base/String.h">
<polygon fill="white" stroke="black" points="601.302,-116.5 601.302,-137.5 696.302,-137.5 696.302,-116.5 601.302,-116.5"/>
<text text-anchor="middle" x="648.802" y="-124.5" font-family="Helvetica,sans-Serif" font-size="10.00">gaia/base/String.h</text>
</a>
</g>
<!-- Node11&#45;&gt;Node15 -->
<g id="edge66" class="edge"><title>Node11&#45;&gt;Node15</title>
<path fill="none" stroke="midnightblue" d="M519.123,-290.445C532.552,-281.731 551.119,-268.481 564.802,-254 596.679,-220.266 624.342,-173.069 638.578,-146.741"/>
<polygon fill="midnightblue" stroke="midnightblue" points="641.756,-148.218 643.357,-137.745 635.574,-144.934 641.756,-148.218"/>
</g>
<!-- Node13 -->
<g id="node27" class="node"><title>Node13</title>
<a xlink:href="../../d4/d7f/_vector_8h.html" target="_top" xlink:title="gaia/base/Vector.h">
<polygon fill="white" stroke="black" points="317.802,-116.5 317.802,-137.5 415.802,-137.5 415.802,-116.5 317.802,-116.5"/>
<text text-anchor="middle" x="366.802" y="-124.5" font-family="Helvetica,sans-Serif" font-size="10.00">gaia/base/Vector.h</text>
</a>
</g>
<!-- Node12&#45;&gt;Node13 -->
<g id="edge28" class="edge"><title>Node12&#45;&gt;Node13</title>
<path fill="none" stroke="midnightblue" d="M484.944,-232.493C472.815,-223.172 454.834,-209.05 439.802,-196 420.469,-179.215 399.302,-158.989 384.763,-144.789"/>
<polygon fill="midnightblue" stroke="midnightblue" points="387.009,-142.089 377.421,-137.58 382.104,-147.084 387.009,-142.089"/>
</g>
<!-- Node12&#45;&gt;Node15 -->
<g id="edge38" class="edge"><title>Node12&#45;&gt;Node15</title>
<path fill="none" stroke="midnightblue" d="M512.645,-232.295C538.765,-212.096 595.506,-168.216 626.867,-143.963"/>
<polygon fill="midnightblue" stroke="midnightblue" points="629.224,-146.565 634.993,-137.679 624.941,-141.028 629.224,-146.565"/>
</g>
<!-- Node18 -->
<g id="node43" class="node"><title>Node18</title>
<a xlink:href="../../df/d57/_parcel_8h.html" target="_top" xlink:title="gaia/core/Parcel.h">
<polygon fill="white" stroke="black" points="448.302,-174.5 448.302,-195.5 543.302,-195.5 543.302,-174.5 448.302,-174.5"/>
<text text-anchor="middle" x="495.802" y="-182.5" font-family="Helvetica,sans-Serif" font-size="10.00">gaia/core/Parcel.h</text>
</a>
</g>
<!-- Node12&#45;&gt;Node18 -->
<g id="edge50" class="edge"><title>Node12&#45;&gt;Node18</title>
<path fill="none" stroke="midnightblue" d="M498.252,-232.362C497.867,-224.922 497.341,-214.743 496.875,-205.728"/>
<polygon fill="midnightblue" stroke="midnightblue" points="500.361,-205.376 496.349,-195.571 493.371,-205.738 500.361,-205.376"/>
</g>
<!-- Node13&#45;&gt;Node4 -->
<g id="edge36" class="edge"><title>Node13&#45;&gt;Node4</title>
<path fill="none" stroke="midnightblue" d="M377.508,-116.295C397.448,-96.3545 440.466,-53.337 464.897,-28.9056"/>
<polygon fill="midnightblue" stroke="midnightblue" points="467.527,-31.2252 472.123,-21.6792 462.577,-26.2754 467.527,-31.2252"/>
</g>
<!-- Node13&#45;&gt;Node5 -->
<g id="edge30" class="edge"><title>Node13&#45;&gt;Node5</title>
<path fill="none" stroke="midnightblue" d="M337.647,-116.497C311.626,-107.123 273.323,-93.3242 244.698,-83.0122"/>
<polygon fill="midnightblue" stroke="midnightblue" points="245.607,-79.6195 235.013,-79.5231 243.235,-86.2052 245.607,-79.6195"/>
</g>
<!-- Node14 -->
<g id="node30" class="node"><title>Node14</title>
<a xlink:href="../../dc/da9/_vector_impl_8h.html" target="_top" xlink:title="gaia/base/VectorImpl.h">
<polygon fill="white" stroke="black" points="285.302,-58.5 285.302,-79.5 402.302,-79.5 402.302,-58.5 285.302,-58.5"/>
<text text-anchor="middle" x="343.802" y="-66.5" font-family="Helvetica,sans-Serif" font-size="10.00">gaia/base/VectorImpl.h</text>
</a>
</g>
<!-- Node13&#45;&gt;Node14 -->
<g id="edge32" class="edge"><title>Node13&#45;&gt;Node14</title>
<path fill="none" stroke="midnightblue" d="M362.584,-116.362C359.569,-108.758 355.419,-98.294 351.787,-89.1349"/>
<polygon fill="midnightblue" stroke="midnightblue" points="354.934,-87.5762 347.994,-79.5707 348.427,-90.1567 354.934,-87.5762"/>
</g>
<!-- Node14&#45;&gt;Node4 -->
<g id="edge34" class="edge"><title>Node14&#45;&gt;Node4</title>
<path fill="none" stroke="midnightblue" d="M368.974,-58.4966C391.076,-49.2746 423.441,-35.7695 448.016,-25.5153"/>
<polygon fill="midnightblue" stroke="midnightblue" points="449.467,-28.7022 457.348,-21.6212 446.772,-22.2421 449.467,-28.7022"/>
</g>
<!-- Node15&#45;&gt;Node4 -->
<g id="edge48" class="edge"><title>Node15&#45;&gt;Node4</title>
<path fill="none" stroke="midnightblue" d="M641.651,-116.381C631.268,-101.631 610.735,-74.8563 587.802,-58 568.856,-44.0735 545.128,-33.0157 525.024,-25.1336"/>
<polygon fill="midnightblue" stroke="midnightblue" points="526.075,-21.7888 515.483,-21.5206 523.596,-28.3351 526.075,-21.7888"/>
</g>
<!-- Node16 -->
<g id="node36" class="node"><title>Node16</title>
<a xlink:href="../../d7/d97/_char_sequence_8h.html" target="_top" xlink:title="gaia/base/CharSequence.h">
<polygon fill="white" stroke="black" points="771.802,-58.5 771.802,-79.5 905.802,-79.5 905.802,-58.5 771.802,-58.5"/>
<text text-anchor="middle" x="838.802" y="-66.5" font-family="Helvetica,sans-Serif" font-size="10.00">gaia/base/CharSequence.h</text>
</a>
</g>
<!-- Node15&#45;&gt;Node16 -->
<g id="edge40" class="edge"><title>Node15&#45;&gt;Node16</title>
<path fill="none" stroke="midnightblue" d="M683.21,-116.497C714.453,-106.959 760.703,-92.8408 794.66,-82.475"/>
<polygon fill="midnightblue" stroke="midnightblue" points="795.788,-85.7903 804.33,-79.5231 793.744,-79.0953 795.788,-85.7903"/>
</g>
<!-- Node17 -->
<g id="node39" class="node"><title>Node17</title>
<a xlink:href="../../d6/d83/_hash_func_8h.html" target="_top" xlink:title="gaia/base/HashFunc.h">
<polygon fill="white" stroke="black" points="639.302,-58.5 639.302,-79.5 754.302,-79.5 754.302,-58.5 639.302,-58.5"/>
<text text-anchor="middle" x="696.802" y="-66.5" font-family="Helvetica,sans-Serif" font-size="10.00">gaia/base/HashFunc.h</text>
</a>
</g>
<!-- Node15&#45;&gt;Node17 -->
<g id="edge44" class="edge"><title>Node15&#45;&gt;Node17</title>
<path fill="none" stroke="midnightblue" d="M657.606,-116.362C664.305,-108.268 673.686,-96.9318 681.592,-87.3796"/>
<polygon fill="midnightblue" stroke="midnightblue" points="684.375,-89.5061 688.054,-79.5707 678.982,-85.0431 684.375,-89.5061"/>
</g>
<!-- Node16&#45;&gt;Node6 -->
<g id="edge42" class="edge"><title>Node16&#45;&gt;Node6</title>
<path fill="none" stroke="midnightblue" d="M818.158,-58.4966C800.433,-49.4786 774.658,-36.3649 754.679,-26.2006"/>
<polygon fill="midnightblue" stroke="midnightblue" points="756.179,-23.0364 745.679,-21.6212 753.004,-29.2753 756.179,-23.0364"/>
</g>
<!-- Node17&#45;&gt;Node4 -->
<g id="edge46" class="edge"><title>Node17&#45;&gt;Node4</title>
<path fill="none" stroke="midnightblue" d="M658.049,-58.4966C621.119,-48.4878 565.576,-33.4339 526.954,-22.9664"/>
<polygon fill="midnightblue" stroke="midnightblue" points="527.599,-19.5148 517.031,-20.277 525.768,-26.2711 527.599,-19.5148"/>
</g>
<!-- Node18&#45;&gt;Node2 -->
<g id="edge54" class="edge"><title>Node18&#45;&gt;Node2</title>
<path fill="none" stroke="midnightblue" d="M448.24,-175.487C397.367,-165.313 316.711,-149.182 262.556,-138.351"/>
<polygon fill="midnightblue" stroke="midnightblue" points="262.923,-134.855 252.431,-136.326 261.55,-141.719 262.923,-134.855"/>
</g>
<!-- Node18&#45;&gt;Node4 -->
<g id="edge52" class="edge"><title>Node18&#45;&gt;Node4</title>
<path fill="none" stroke="midnightblue" d="M517.147,-174.452C530.664,-166.487 547.014,-154.163 554.802,-138 559.047,-129.192 556.708,-125.59 554.802,-116 549.365,-88.6375 546.419,-81.1169 530.802,-58 523.43,-47.0868 513.222,-36.6565 504.115,-28.4064"/>
<polygon fill="midnightblue" stroke="midnightblue" points="506.331,-25.6949 496.494,-21.7602 501.73,-30.9706 506.331,-25.6949"/>
</g>
<!-- Node18&#45;&gt;Node13 -->
<g id="edge56" class="edge"><title>Node18&#45;&gt;Node13</title>
<path fill="none" stroke="midnightblue" d="M472.442,-174.497C452.112,-165.356 422.424,-152.008 399.694,-141.788"/>
<polygon fill="midnightblue" stroke="midnightblue" points="400.981,-138.53 390.426,-137.621 398.111,-144.914 400.981,-138.53"/>
</g>
<!-- Node18&#45;&gt;Node15 -->
<g id="edge58" class="edge"><title>Node18&#45;&gt;Node15</title>
<path fill="none" stroke="midnightblue" d="M523.51,-174.497C548.129,-165.164 584.319,-151.445 611.482,-141.147"/>
<polygon fill="midnightblue" stroke="midnightblue" points="612.933,-144.341 621.043,-137.523 610.452,-137.795 612.933,-144.341"/>
</g>
<!-- Node19 -->
<g id="node49" class="node"><title>Node19</title>
<a xlink:href="../../d8/d4d/_parcelable_8h.html" target="_top" xlink:title="gaia/core/Parcelable.h">
<polygon fill="white" stroke="black" points="433.302,-116.5 433.302,-137.5 546.302,-137.5 546.302,-116.5 433.302,-116.5"/>
<text text-anchor="middle" x="489.802" y="-124.5" font-family="Helvetica,sans-Serif" font-size="10.00">gaia/core/Parcelable.h</text>
</a>
</g>
<!-- Node18&#45;&gt;Node19 -->
<g id="edge60" class="edge"><title>Node18&#45;&gt;Node19</title>
<path fill="none" stroke="midnightblue" d="M494.702,-174.362C493.932,-166.922 492.879,-156.743 491.947,-147.728"/>
<polygon fill="midnightblue" stroke="midnightblue" points="495.407,-147.157 490.896,-137.571 488.444,-147.878 495.407,-147.157"/>
</g>
<!-- Node19&#45;&gt;Node4 -->
<g id="edge64" class="edge"><title>Node19&#45;&gt;Node4</title>
<path fill="none" stroke="midnightblue" d="M498.817,-116.387C509.087,-102.961 523.618,-79.0496 516.802,-58 513.441,-47.6178 506.834,-37.604 500.33,-29.5068"/>
<polygon fill="midnightblue" stroke="midnightblue" points="502.903,-27.1309 493.731,-21.8274 497.594,-31.693 502.903,-27.1309"/>
</g>
<!-- Node20 -->
<g id="node51" class="node"><title>Node20</title>
<polygon fill="white" stroke="#bfbfbf" points="457.302,-58.5 457.302,-79.5 508.302,-79.5 508.302,-58.5 457.302,-58.5"/>
<text text-anchor="middle" x="482.802" y="-66.5" font-family="Helvetica,sans-Serif" font-size="10.00">typeinfo</text>
</g>
<!-- Node19&#45;&gt;Node20 -->
<g id="edge62" class="edge"><title>Node19&#45;&gt;Node20</title>
<path fill="none" stroke="midnightblue" d="M488.519,-116.362C487.621,-108.922 486.392,-98.7427 485.304,-89.7276"/>
<polygon fill="midnightblue" stroke="midnightblue" points="488.751,-89.0792 484.078,-79.5707 481.802,-89.918 488.751,-89.0792"/>
</g>
</g>
</svg>
