<?xml version="1.0" encoding="UTF-8" standalone="no"?>
<!DOCTYPE svg PUBLIC "-//W3C//DTD SVG 1.1//EN"
 "http://www.w3.org/Graphics/SVG/1.1/DTD/svg11.dtd">
<!-- Generated by graphviz version 2.26.3 (20100126.1600)
 -->
<!-- Title: G Pages: 1 -->
<svg width="360pt" height="146pt"
 viewBox="0.00 0.00 360.00 146.00" xmlns="http://www.w3.org/2000/svg" xmlns:xlink="http://www.w3.org/1999/xlink">
<g id="graph1" class="graph" transform="scale(1 1) rotate(0) translate(4 142)">
<title>G</title>
<polygon fill="white" stroke="white" points="-4,5 -4,-142 357,-142 357,5 -4,5"/>
<!-- Node1 -->
<g id="node1" class="node"><title>Node1</title>
<polygon fill="#bfbfbf" stroke="black" points="-0.5,-116.5 -0.5,-137.5 352.5,-137.5 352.5,-116.5 -0.5,-116.5"/>
<text text-anchor="middle" x="176" y="-124.5" font-family="Helvetica,sans-Serif" font-size="10.00">/home/vilon_tao/gaia/sdk/include/gaia/connectivity/bluetooth/BluetoothA2dp.h</text>
</g>
<!-- Node2 -->
<g id="node3" class="node"><title>Node2</title>
<polygon fill="white" stroke="#bfbfbf" points="90.5,-0.5 90.5,-21.5 139.5,-21.5 139.5,-0.5 90.5,-0.5"/>
<text text-anchor="middle" x="115" y="-8.5" font-family="Helvetica,sans-Serif" font-size="10.00">stdint.h</text>
</g>
<!-- Node1&#45;&gt;Node2 -->
<g id="edge2" class="edge"><title>Node1&#45;&gt;Node2</title>
<path fill="none" stroke="midnightblue" d="M156.631,-116.366C143.848,-108.216 128.029,-95.7101 120,-80 112.496,-65.3162 111.603,-46.5359 112.388,-32.2767"/>
<polygon fill="midnightblue" stroke="midnightblue" points="115.904,-32.2406 113.283,-21.9751 108.93,-31.6345 115.904,-32.2406"/>
</g>
<!-- Node3 -->
<g id="node5" class="node"><title>Node3</title>
<a xlink:href="../../d1/dd0/gmacros_8h.html" target="_top" xlink:title="gaia/base/gmacros.h">
<polygon fill="white" stroke="black" points="183.5,-0.5 183.5,-21.5 290.5,-21.5 290.5,-0.5 183.5,-0.5"/>
<text text-anchor="middle" x="237" y="-8.5" font-family="Helvetica,sans-Serif" font-size="10.00">gaia/base/gmacros.h</text>
</a>
</g>
<!-- Node1&#45;&gt;Node3 -->
<g id="edge4" class="edge"><title>Node1&#45;&gt;Node3</title>
<path fill="none" stroke="midnightblue" d="M195.369,-116.366C208.152,-108.216 223.971,-95.7101 232,-80 239.504,-65.3162 240.397,-46.5359 239.612,-32.2767"/>
<polygon fill="midnightblue" stroke="midnightblue" points="243.07,-31.6345 238.717,-21.9751 236.096,-32.2406 243.07,-31.6345"/>
</g>
<!-- Node4 -->
<g id="node7" class="node"><title>Node4</title>
<a xlink:href="../../d6/dcc/_bluetooth_profile_8h.html" target="_top" xlink:title="BluetoothProfile.h">
<polygon fill="white" stroke="black" points="129,-58.5 129,-79.5 223,-79.5 223,-58.5 129,-58.5"/>
<text text-anchor="middle" x="176" y="-66.5" font-family="Helvetica,sans-Serif" font-size="10.00">BluetoothProfile.h</text>
</a>
</g>
<!-- Node1&#45;&gt;Node4 -->
<g id="edge6" class="edge"><title>Node1&#45;&gt;Node4</title>
<path fill="none" stroke="midnightblue" d="M176,-116.362C176,-108.922 176,-98.7427 176,-89.7276"/>
<polygon fill="midnightblue" stroke="midnightblue" points="179.5,-89.5706 176,-79.5707 172.5,-89.5707 179.5,-89.5706"/>
</g>
<!-- Node4&#45;&gt;Node2 -->
<g id="edge8" class="edge"><title>Node4&#45;&gt;Node2</title>
<path fill="none" stroke="midnightblue" d="M164.812,-58.3619C156.041,-50.0226 143.651,-38.2418 133.422,-28.5162"/>
<polygon fill="midnightblue" stroke="midnightblue" points="135.776,-25.9248 126.117,-21.5707 130.953,-30.9978 135.776,-25.9248"/>
</g>
<!-- Node4&#45;&gt;Node3 -->
<g id="edge10" class="edge"><title>Node4&#45;&gt;Node3</title>
<path fill="none" stroke="midnightblue" d="M187.188,-58.3619C195.959,-50.0226 208.349,-38.2418 218.578,-28.5162"/>
<polygon fill="midnightblue" stroke="midnightblue" points="221.047,-30.9978 225.883,-21.5707 216.224,-25.9248 221.047,-30.9978"/>
</g>
</g>
</svg>
