<?xml version="1.0" encoding="UTF-8" standalone="no"?>
<!DOCTYPE svg PUBLIC "-//W3C//DTD SVG 1.1//EN"
 "http://www.w3.org/Graphics/SVG/1.1/DTD/svg11.dtd">
<!-- Generated by graphviz version 2.26.3 (20100126.1600)
 -->
<!-- Title: G Pages: 1 -->
<svg width="846pt" height="149pt"
 viewBox="0.00 0.00 846.00 149.00" xmlns="http://www.w3.org/2000/svg" xmlns:xlink="http://www.w3.org/1999/xlink">
<g id="graph1" class="graph" transform="scale(1 1) rotate(0) translate(4 145)">
<title>G</title>
<polygon fill="white" stroke="white" points="-4,5 -4,-145 843,-145 843,5 -4,5"/>
<!-- Node1 -->
<g id="node1" class="node"><title>Node1</title>
<polygon fill="#bfbfbf" stroke="black" points="742.5,-58.5 742.5,-79.5 837.5,-79.5 837.5,-58.5 742.5,-58.5"/>
<text text-anchor="middle" x="790" y="-66.5" font-family="Helvetica,sans-Serif" font-size="10.00">gaia::net::SSLInfo</text>
</g>
<!-- Node2 -->
<g id="node2" class="node"><title>Node2</title>
<a xlink:href="../../d8/da9/classgaia_1_1security_1_1_x509_certificate.html" target="_top" xlink:title="The class describes a X509 certificate , it is inherit base class Certificate, we can use it constrac...">
<polygon fill="white" stroke="black" points="454.5,-78.5 454.5,-99.5 603.5,-99.5 603.5,-78.5 454.5,-78.5"/>
<text text-anchor="middle" x="529" y="-86.5" font-family="Helvetica,sans-Serif" font-size="10.00">gaia::security::X509Certificate</text>
</a>
</g>
<!-- Node2&#45;&gt;Node1 -->
<g id="edge2" class="edge"><title>Node2&#45;&gt;Node1</title>
<path fill="none" stroke="#9a32cd" stroke-dasharray="5,2" d="M613.885,-82.4954C656.493,-79.2304 706.521,-75.3968 742.347,-72.6516"/>
<polygon fill="#9a32cd" stroke="#9a32cd" points="613.495,-79.0149 603.792,-83.2688 614.03,-85.9944 613.495,-79.0149"/>
<text text-anchor="middle" x="681" y="-84" font-family="Helvetica,sans-Serif" font-size="10.00"> mpCertificate</text>
</g>
<!-- Node3 -->
<g id="node4" class="node"><title>Node3</title>
<a xlink:href="../../d9/dd9/classgaia_1_1security_1_1_certificate.html" target="_top" xlink:title="The class describes a certificate , it is a abstract base class, we can not use it constractor a obje...">
<polygon fill="white" stroke="black" points="175,-119.5 175,-140.5 301,-140.5 301,-119.5 175,-119.5"/>
<text text-anchor="middle" x="238" y="-127.5" font-family="Helvetica,sans-Serif" font-size="10.00">gaia::security::Certificate</text>
</a>
</g>
<!-- Node3&#45;&gt;Node2 -->
<g id="edge4" class="edge"><title>Node3&#45;&gt;Node2</title>
<path fill="none" stroke="midnightblue" d="M311.182,-127.148C344.527,-125.138 384.416,-121.735 420,-116 444.636,-112.029 471.886,-105.279 492.977,-99.522"/>
<polygon fill="midnightblue" stroke="midnightblue" points="310.839,-123.662 301.055,-127.728 311.239,-130.65 310.839,-123.662"/>
</g>
<!-- Node4 -->
<g id="node6" class="node"><title>Node4</title>
<a xlink:href="../../d2/ddb/classgaia_1_1base_1_1_string.html" target="_top" xlink:title="A String is represented by array of UTF&#45;16 values, such that Unicode supplementary characters (code p...">
<polygon fill="white" stroke="black" points="191.5,-78.5 191.5,-99.5 284.5,-99.5 284.5,-78.5 191.5,-78.5"/>
<text text-anchor="middle" x="238" y="-86.5" font-family="Helvetica,sans-Serif" font-size="10.00">gaia::base::String</text>
</a>
</g>
<!-- Node4&#45;&gt;Node2 -->
<g id="edge6" class="edge"><title>Node4&#45;&gt;Node2</title>
<path fill="none" stroke="#9a32cd" stroke-dasharray="5,2" d="M295.034,-89C340.539,-89 404.652,-89 454.26,-89"/>
<polygon fill="#9a32cd" stroke="#9a32cd" points="294.754,-85.5001 284.754,-89 294.754,-92.5001 294.754,-85.5001"/>
<text text-anchor="middle" x="372" y="-106" font-family="Helvetica,sans-Serif" font-size="10.00"> _subjectName</text>
<text text-anchor="middle" x="372" y="-93" font-family="Helvetica,sans-Serif" font-size="10.00">_issuerName</text>
</g>
<!-- Node5 -->
<g id="node8" class="node"><title>Node5</title>
<a xlink:href="../../d1/d0f/classgaia_1_1base_1_1_char_sequence.html" target="_top" xlink:title="This interface represents an ordered set of characters and defines the methods to probe them...">
<polygon fill="white" stroke="black" points="0,-78.5 0,-99.5 132,-99.5 132,-78.5 0,-78.5"/>
<text text-anchor="middle" x="66" y="-86.5" font-family="Helvetica,sans-Serif" font-size="10.00">gaia::base::CharSequence</text>
</a>
</g>
<!-- Node5&#45;&gt;Node4 -->
<g id="edge8" class="edge"><title>Node5&#45;&gt;Node4</title>
<path fill="none" stroke="midnightblue" d="M142.327,-89C159.039,-89 176.245,-89 191.376,-89"/>
<polygon fill="midnightblue" stroke="midnightblue" points="142.008,-85.5001 132.008,-89 142.008,-92.5001 142.008,-85.5001"/>
</g>
<!-- Node6 -->
<g id="node10" class="node"><title>Node6</title>
<a xlink:href="../../d2/db0/classgaia_1_1base_1_1_array.html" target="_top" xlink:title="gaia::base::Array\&lt; SHA1FingerPrint \&gt;">
<polygon fill="white" stroke="black" points="438,-38.5 438,-59.5 620,-59.5 620,-38.5 438,-38.5"/>
<text text-anchor="middle" x="529" y="-46.5" font-family="Helvetica,sans-Serif" font-size="10.00">gaia::base::Array&lt; SHA1FingerPrint &gt;</text>
</a>
</g>
<!-- Node6&#45;&gt;Node1 -->
<g id="edge10" class="edge"><title>Node6&#45;&gt;Node1</title>
<path fill="none" stroke="#9a32cd" stroke-dasharray="5,2" d="M630.568,-50.4959C660.707,-51.6599 693.744,-53.6452 724,-57 729.903,-57.6546 736.074,-58.5246 742.171,-59.4982"/>
<polygon fill="#9a32cd" stroke="#9a32cd" points="630.586,-46.9943 620.466,-50.1318 630.334,-53.9898 630.586,-46.9943"/>
<text text-anchor="middle" x="681" y="-61" font-family="Helvetica,sans-Serif" font-size="10.00"> mPublishKeyHash</text>
</g>
<!-- Node7 -->
<g id="node12" class="node"><title>Node7</title>
<a xlink:href="../../d2/d80/classgaia_1_1base_1_1_array_impl.html" target="_top" xlink:title="Implements array data structure and its operation methods.">
<polygon fill="white" stroke="black" points="11,-23.5 11,-44.5 121,-44.5 121,-23.5 11,-23.5"/>
<text text-anchor="middle" x="66" y="-31.5" font-family="Helvetica,sans-Serif" font-size="10.00">gaia::base::ArrayImpl</text>
</a>
</g>
<!-- Node7&#45;&gt;Node6 -->
<g id="edge12" class="edge"><title>Node7&#45;&gt;Node6</title>
<path fill="none" stroke="#8b1a1a" d="M131.83,-36.1327C211.909,-38.7271 347.539,-43.1211 437.684,-46.0416"/>
<polygon fill="#8b1a1a" stroke="#8b1a1a" points="131.497,-32.6202 121.389,-35.7945 131.27,-39.6165 131.497,-32.6202"/>
</g>
<!-- Node8 -->
<g id="node14" class="node"><title>Node8</title>
<a xlink:href="../../d2/db0/classgaia_1_1base_1_1_array.html" target="_top" xlink:title="Implements array to replace C&#45;style array.">
<polygon fill="white" stroke="black" points="170.5,-0.5 170.5,-21.5 305.5,-21.5 305.5,-0.5 170.5,-0.5"/>
<text text-anchor="middle" x="238" y="-8.5" font-family="Helvetica,sans-Serif" font-size="10.00">gaia::base::Array&lt; TYPE &gt;</text>
</a>
</g>
<!-- Node7&#45;&gt;Node8 -->
<g id="edge16" class="edge"><title>Node7&#45;&gt;Node8</title>
<path fill="none" stroke="#8b1a1a" d="M131.433,-25.2502C144.184,-23.5452 157.574,-21.7546 170.393,-20.0404"/>
<polygon fill="#8b1a1a" stroke="#8b1a1a" points="130.816,-21.8014 121.369,-26.5961 131.744,-28.7397 130.816,-21.8014"/>
</g>
<!-- Node8&#45;&gt;Node6 -->
<g id="edge14" class="edge"><title>Node8&#45;&gt;Node6</title>
<path fill="none" stroke="orange" stroke-dasharray="5,2" d="M315.997,-13.2574C348.313,-14.9399 386.097,-17.8761 420,-23 444.045,-26.634 470.596,-32.9181 491.473,-38.3978"/>
<polygon fill="orange" stroke="orange" points="315.868,-9.74696 305.708,-12.754 315.525,-16.7386 315.868,-9.74696"/>
<text text-anchor="middle" x="372" y="-27" font-family="Helvetica,sans-Serif" font-size="10.00"> &lt; SHA1FingerPrint &gt;</text>
</g>
</g>
</svg>
