<?xml version="1.0" encoding="UTF-8" standalone="no"?>
<!DOCTYPE svg PUBLIC "-//W3C//DTD SVG 1.1//EN"
 "http://www.w3.org/Graphics/SVG/1.1/DTD/svg11.dtd">
<!-- Generated by graphviz version 2.26.3 (20100126.1600)
 -->
<!-- Title: G Pages: 1 -->
<svg width="348pt" height="146pt"
 viewBox="0.00 0.00 348.00 146.00" xmlns="http://www.w3.org/2000/svg" xmlns:xlink="http://www.w3.org/1999/xlink">
<g id="graph1" class="graph" transform="scale(1 1) rotate(0) translate(4 142)">
<title>G</title>
<polygon fill="white" stroke="white" points="-4,5 -4,-142 345,-142 345,5 -4,5"/>
<!-- Node1 -->
<g id="node1" class="node"><title>Node1</title>
<polygon fill="#bfbfbf" stroke="black" points="0,-116.5 0,-137.5 340,-137.5 340,-116.5 0,-116.5"/>
<text text-anchor="middle" x="170" y="-124.5" font-family="Helvetica,sans-Serif" font-size="10.00">/home/vilon_tao/gaia/sdk/include/gaia/media/videoeditor/EffectKenBurns.h</text>
</g>
<!-- Node2 -->
<g id="node3" class="node"><title>Node2</title>
<polygon fill="white" stroke="#bfbfbf" points="45.5,-0.5 45.5,-21.5 94.5,-21.5 94.5,-0.5 45.5,-0.5"/>
<text text-anchor="middle" x="70" y="-8.5" font-family="Helvetica,sans-Serif" font-size="10.00">stdint.h</text>
</g>
<!-- Node1&#45;&gt;Node2 -->
<g id="edge2" class="edge"><title>Node1&#45;&gt;Node2</title>
<path fill="none" stroke="midnightblue" d="M137.166,-116.486C119.138,-109.064 97.8879,-97.3141 85,-80 74.734,-66.2082 71.2143,-46.8183 70.1303,-32.1038"/>
<polygon fill="midnightblue" stroke="midnightblue" points="73.6198,-31.7778 69.7047,-21.9329 66.626,-32.0705 73.6198,-31.7778"/>
</g>
<!-- Node3 -->
<g id="node5" class="node"><title>Node3</title>
<a xlink:href="../../d1/dd0/gmacros_8h.html" target="_top" xlink:title="gaia/base/gmacros.h">
<polygon fill="white" stroke="black" points="168.5,-0.5 168.5,-21.5 275.5,-21.5 275.5,-0.5 168.5,-0.5"/>
<text text-anchor="middle" x="222" y="-8.5" font-family="Helvetica,sans-Serif" font-size="10.00">gaia/base/gmacros.h</text>
</a>
</g>
<!-- Node1&#45;&gt;Node3 -->
<g id="edge4" class="edge"><title>Node1&#45;&gt;Node3</title>
<path fill="none" stroke="midnightblue" d="M206.896,-116.414C224.755,-109.225 244.549,-97.7203 255,-80 264.811,-63.3634 252.82,-43.357 240.635,-29.1807"/>
<polygon fill="midnightblue" stroke="midnightblue" points="242.961,-26.5412 233.601,-21.5772 237.823,-31.2947 242.961,-26.5412"/>
</g>
<!-- Node4 -->
<g id="node7" class="node"><title>Node4</title>
<a xlink:href="../../dd/d44/_effect_8h.html" target="_top" xlink:title="gaia/media/videoeditor/Effect.h">
<polygon fill="white" stroke="black" points="94,-58.5 94,-79.5 246,-79.5 246,-58.5 94,-58.5"/>
<text text-anchor="middle" x="170" y="-66.5" font-family="Helvetica,sans-Serif" font-size="10.00">gaia/media/videoeditor/Effect.h</text>
</a>
</g>
<!-- Node1&#45;&gt;Node4 -->
<g id="edge6" class="edge"><title>Node1&#45;&gt;Node4</title>
<path fill="none" stroke="midnightblue" d="M170,-116.362C170,-108.922 170,-98.7427 170,-89.7276"/>
<polygon fill="midnightblue" stroke="midnightblue" points="173.5,-89.5706 170,-79.5707 166.5,-89.5707 173.5,-89.5706"/>
</g>
<!-- Node4&#45;&gt;Node2 -->
<g id="edge8" class="edge"><title>Node4&#45;&gt;Node2</title>
<path fill="none" stroke="midnightblue" d="M151.658,-58.3619C136.434,-49.532 114.559,-36.844 97.28,-26.8224"/>
<polygon fill="midnightblue" stroke="midnightblue" points="98.6316,-23.5603 88.2253,-21.5707 95.1196,-29.6155 98.6316,-23.5603"/>
</g>
<!-- Node4&#45;&gt;Node3 -->
<g id="edge10" class="edge"><title>Node4&#45;&gt;Node3</title>
<path fill="none" stroke="midnightblue" d="M179.538,-58.3619C186.868,-50.1861 197.163,-38.7025 205.781,-29.0907"/>
<polygon fill="midnightblue" stroke="midnightblue" points="208.453,-31.3528 212.523,-21.5707 203.241,-26.68 208.453,-31.3528"/>
</g>
</g>
</svg>
