<?xml version="1.0" encoding="UTF-8" standalone="no"?>
<!DOCTYPE svg PUBLIC "-//W3C//DTD SVG 1.1//EN"
 "http://www.w3.org/Graphics/SVG/1.1/DTD/svg11.dtd">
<!-- Generated by graphviz version 2.26.3 (20100126.1600)
 -->
<!-- Title: G Pages: 1 -->
<svg width="109pt" height="225pt"
 viewBox="0.00 0.00 109.00 225.00" xmlns="http://www.w3.org/2000/svg" xmlns:xlink="http://www.w3.org/1999/xlink">
<g id="graph1" class="graph" transform="scale(1 1) rotate(0) translate(4 221)">
<title>G</title>
<polygon fill="white" stroke="white" points="-4,5 -4,-221 106,-221 106,5 -4,5"/>
<g id="graph2" class="cluster"><title>clusterdir_f7b85038ab7aa457c95f185be9326487</title>
<a xlink:href="dir_f7b85038ab7aa457c95f185be9326487.html" target="_top" xlink:title="core">
<polygon fill="#ddddee" stroke="black" points="8,-136 8,-209 84,-209 84,-136 8,-136"/>
<text text-anchor="middle" x="46" y="-196" font-family="Helvetica,sans-Serif" font-size="10.00">core</text>
</a>
</g>
<!-- dir_15a8bfcd91cdeb8ba2e402bca3216c9f -->
<g id="node2" class="node"><title>dir_15a8bfcd91cdeb8ba2e402bca3216c9f</title>
<a xlink:href="dir_15a8bfcd91cdeb8ba2e402bca3216c9f.html" target="_top" xlink:title="appwidget">
<polygon fill="#eeeeff" stroke="black" points="76,-180 16,-180 16,-144 76,-144 76,-180"/>
<text text-anchor="middle" x="46" y="-159.5" font-family="Helvetica,sans-Serif" font-size="10.00">appwidget</text>
</a>
</g>
<!-- dir_a7bc868a07a00fb60430363f39b25690 -->
<g id="node3" class="node"><title>dir_a7bc868a07a00fb60430363f39b25690</title>
<a xlink:href="dir_a7bc868a07a00fb60430363f39b25690.html" target="_top" xlink:title="base">
<polygon fill="none" stroke="black" points="73,-36 19,-36 19,-1.77636e-14 73,-3.55271e-15 73,-36"/>
<text text-anchor="middle" x="46" y="-15.5" font-family="Helvetica,sans-Serif" font-size="10.00">base</text>
</a>
</g>
<!-- dir_15a8bfcd91cdeb8ba2e402bca3216c9f&#45;&gt;dir_a7bc868a07a00fb60430363f39b25690 -->
<g id="edge5" class="edge"><title>dir_15a8bfcd91cdeb8ba2e402bca3216c9f&#45;&gt;dir_a7bc868a07a00fb60430363f39b25690</title>
<path fill="none" stroke="black" d="M42.585,-143.58C40.8291,-133.177 38.8774,-119.909 38,-108 36.8244,-92.0432 36.8244,-87.9568 38,-72 38.6169,-63.6264 39.7649,-54.5812 41.0026,-46.3322"/>
<polygon fill="black" stroke="black" points="44.4648,-46.8463 42.585,-36.4196 37.5523,-45.7428 44.4648,-46.8463"/>
<a xlink:href="dir_000022_000005.html" target="_top" xlink:title="4">
<text text-anchor="middle" x="46.702" y="-48.3436" font-family="Helvetica,sans-Serif" font-size="10.00">4</text>
</a>
</g>
<!-- dir_67f7c8f8d832371c400e5a5bfb84bbd2 -->
<g id="node4" class="node"><title>dir_67f7c8f8d832371c400e5a5bfb84bbd2</title>
<a xlink:href="dir_67f7c8f8d832371c400e5a5bfb84bbd2.html" target="_top" xlink:title="vision">
<polygon fill="none" stroke="black" points="101,-108 47,-108 47,-72 101,-72 101,-108"/>
<text text-anchor="middle" x="74" y="-87.5" font-family="Helvetica,sans-Serif" font-size="10.00">vision</text>
</a>
</g>
<!-- dir_15a8bfcd91cdeb8ba2e402bca3216c9f&#45;&gt;dir_67f7c8f8d832371c400e5a5bfb84bbd2 -->
<g id="edge7" class="edge"><title>dir_15a8bfcd91cdeb8ba2e402bca3216c9f&#45;&gt;dir_67f7c8f8d832371c400e5a5bfb84bbd2</title>
<path fill="none" stroke="black" d="M53.0656,-143.831C56.126,-135.962 59.7779,-126.571 63.1682,-117.853"/>
<polygon fill="black" stroke="black" points="66.4768,-119.002 66.8393,-108.413 59.9527,-116.465 66.4768,-119.002"/>
<a xlink:href="dir_000022_000032.html" target="_top" xlink:title="1">
<text text-anchor="middle" x="67.8202" y="-120.881" font-family="Helvetica,sans-Serif" font-size="10.00">1</text>
</a>
</g>
<!-- dir_67f7c8f8d832371c400e5a5bfb84bbd2&#45;&gt;dir_a7bc868a07a00fb60430363f39b25690 -->
<g id="edge3" class="edge"><title>dir_67f7c8f8d832371c400e5a5bfb84bbd2&#45;&gt;dir_a7bc868a07a00fb60430363f39b25690</title>
<path fill="none" stroke="black" d="M66.9344,-71.8314C63.874,-63.9617 60.2221,-54.5712 56.8318,-45.8533"/>
<polygon fill="black" stroke="black" points="60.0473,-44.4647 53.1607,-36.4133 53.5232,-47.0019 60.0473,-44.4647"/>
<a xlink:href="dir_000032_000005.html" target="_top" xlink:title="4">
<text text-anchor="middle" x="63.9963" y="-44.2859" font-family="Helvetica,sans-Serif" font-size="10.00">4</text>
</a>
</g>
</g>
</svg>
