<?xml version="1.0" encoding="UTF-8" standalone="no"?>
<!DOCTYPE svg PUBLIC "-//W3C//DTD SVG 1.1//EN"
 "http://www.w3.org/Graphics/SVG/1.1/DTD/svg11.dtd">
<!-- Generated by graphviz version 2.26.3 (20100126.1600)
 -->
<!-- Title: G Pages: 1 -->
<svg width="572pt" height="305pt"
 viewBox="0.00 0.00 572.41 305.00" xmlns="http://www.w3.org/2000/svg" xmlns:xlink="http://www.w3.org/1999/xlink">
<g id="graph1" class="graph" transform="scale(1 1) rotate(0) translate(4 301)">
<title>G</title>
<polygon fill="white" stroke="white" points="-4,5 -4,-301 569.409,-301 569.409,5 -4,5"/>
<g id="graph2" class="cluster"><title>clusterdir_18fe6922e29c45285b63ff54cf62344c</title>
<a xlink:href="dir_18fe6922e29c45285b63ff54cf62344c.html" target="_top" xlink:title="gaia">
<polygon fill="#ddddee" stroke="black" points="8,-56 8,-289 476,-289 476,-56 8,-56"/>
<text text-anchor="middle" x="242" y="-276" font-family="Helvetica,sans-Serif" font-size="10.00">gaia</text>
</a>
</g>
<g id="graph3" class="cluster"><title>clusterdir_f7b85038ab7aa457c95f185be9326487</title>
<a xlink:href="dir_f7b85038ab7aa457c95f185be9326487.html" target="_top">
<polygon fill="#eeeeff" stroke="black" points="16,-64 16,-260 468,-260 468,-64 16,-64"/>
</a>
</g>
<!-- dir_f7b85038ab7aa457c95f185be9326487 -->
<g id="node3" class="node"><title>dir_f7b85038ab7aa457c95f185be9326487</title>
<text text-anchor="middle" x="433" y="-159.5" font-family="Helvetica,sans-Serif" font-size="10.00">core</text>
</g>
<!-- dir_cdb9a105f3f934c87d63405aa4d1140a -->
<g id="node8" class="node"><title>dir_cdb9a105f3f934c87d63405aa4d1140a</title>
<a xlink:href="dir_cdb9a105f3f934c87d63405aa4d1140a.html" target="_top" xlink:title="event">
<polygon fill="white" stroke="black" points="388,-108 334,-108 334,-72 388,-72 388,-108"/>
<text text-anchor="middle" x="361" y="-87.5" font-family="Helvetica,sans-Serif" font-size="10.00">event</text>
</a>
</g>
<!-- dir_f7b85038ab7aa457c95f185be9326487&#45;&gt;dir_cdb9a105f3f934c87d63405aa4d1140a -->
<g id="edge44" class="edge"><title>dir_f7b85038ab7aa457c95f185be9326487&#45;&gt;dir_cdb9a105f3f934c87d63405aa4d1140a</title>
<path fill="none" stroke="black" d="M414.831,-143.831C406.285,-135.285 395.944,-124.944 386.62,-115.62"/>
<polygon fill="black" stroke="black" points="388.959,-113.009 379.413,-108.413 384.009,-117.959 388.959,-113.009"/>
<a xlink:href="dir_000019_000024.html" target="_top" xlink:title="5">
<text text-anchor="middle" x="393.509" y="-111.044" font-family="Helvetica,sans-Serif" font-size="10.00">5</text>
</a>
</g>
<!-- dir_813a5a742cb5cda34d5965f334e5d12f -->
<g id="node10" class="node"><title>dir_813a5a742cb5cda34d5965f334e5d12f</title>
<a xlink:href="dir_813a5a742cb5cda34d5965f334e5d12f.html" target="_top" xlink:title="ipc">
<polygon fill="white" stroke="black" points="460,-108 406,-108 406,-72 460,-72 460,-108"/>
<text text-anchor="middle" x="433" y="-87.5" font-family="Helvetica,sans-Serif" font-size="10.00">ipc</text>
</a>
</g>
<!-- dir_f7b85038ab7aa457c95f185be9326487&#45;&gt;dir_813a5a742cb5cda34d5965f334e5d12f -->
<g id="edge48" class="edge"><title>dir_f7b85038ab7aa457c95f185be9326487&#45;&gt;dir_813a5a742cb5cda34d5965f334e5d12f</title>
<path fill="none" stroke="black" d="M433,-143.831C433,-136.131 433,-126.974 433,-118.417"/>
<polygon fill="black" stroke="black" points="436.5,-118.413 433,-108.413 429.5,-118.413 436.5,-118.413"/>
<a xlink:href="dir_000019_000026.html" target="_top" xlink:title="1">
<text text-anchor="middle" x="439.339" y="-119.508" font-family="Helvetica,sans-Serif" font-size="10.00">1</text>
</a>
</g>
<!-- dir_7b469e3992a467f4fffb7e78111bf18a -->
<g id="node16" class="node"><title>dir_7b469e3992a467f4fffb7e78111bf18a</title>
<a xlink:href="dir_7b469e3992a467f4fffb7e78111bf18a.html" target="_top" xlink:title="ui">
<polygon fill="white" stroke="red" points="538,-252 484,-252 484,-216 538,-216 538,-252"/>
<text text-anchor="middle" x="511" y="-231.5" font-family="Helvetica,sans-Serif" font-size="10.00">ui</text>
</a>
</g>
<!-- dir_f7b85038ab7aa457c95f185be9326487&#45;&gt;dir_7b469e3992a467f4fffb7e78111bf18a -->
<g id="edge46" class="edge"><title>dir_f7b85038ab7aa457c95f185be9326487&#45;&gt;dir_7b469e3992a467f4fffb7e78111bf18a</title>
<path fill="none" stroke="black" d="M452.676,-180.163C462.098,-188.86 473.533,-199.415 483.773,-208.867"/>
<polygon fill="black" stroke="black" points="481.595,-211.62 491.317,-215.831 486.343,-206.477 481.595,-211.62"/>
<a xlink:href="dir_000019_000055.html" target="_top" xlink:title="1">
<text text-anchor="middle" x="477.028" y="-208.769" font-family="Helvetica,sans-Serif" font-size="10.00">1</text>
</a>
</g>
<!-- dir_8b4d5a991ae7b4a5030d88c7be6acac9 -->
<g id="node17" class="node"><title>dir_8b4d5a991ae7b4a5030d88c7be6acac9</title>
<a xlink:href="dir_8b4d5a991ae7b4a5030d88c7be6acac9.html" target="_top" xlink:title="graphics">
<polygon fill="none" stroke="black" points="538,-108 484,-108 484,-72 538,-72 538,-108"/>
<text text-anchor="middle" x="511" y="-87.5" font-family="Helvetica,sans-Serif" font-size="10.00">graphics</text>
</a>
</g>
<!-- dir_f7b85038ab7aa457c95f185be9326487&#45;&gt;dir_8b4d5a991ae7b4a5030d88c7be6acac9 -->
<g id="edge50" class="edge"><title>dir_f7b85038ab7aa457c95f185be9326487&#45;&gt;dir_8b4d5a991ae7b4a5030d88c7be6acac9</title>
<path fill="none" stroke="black" d="M452.683,-143.831C462.105,-135.134 473.54,-124.578 483.78,-115.127"/>
<polygon fill="black" stroke="black" points="486.35,-117.517 491.324,-108.163 481.602,-112.374 486.35,-117.517"/>
<a xlink:href="dir_000019_000036.html" target="_top" xlink:title="2">
<text text-anchor="middle" x="485.634" y="-119.542" font-family="Helvetica,sans-Serif" font-size="10.00">2</text>
</a>
</g>
<!-- dir_569cdb8306b6b6f9a9d8cbeac2ac23f5 -->
<g id="node4" class="node"><title>dir_569cdb8306b6b6f9a9d8cbeac2ac23f5</title>
<a xlink:href="dir_569cdb8306b6b6f9a9d8cbeac2ac23f5.html" target="_top" xlink:title="animation">
<polygon fill="white" stroke="black" points="388,-180 330,-180 330,-144 388,-144 388,-180"/>
<text text-anchor="middle" x="359" y="-159.5" font-family="Helvetica,sans-Serif" font-size="10.00">animation</text>
</a>
</g>
<!-- dir_4c9a53a1ebd686896279347772212745 -->
<g id="node5" class="node"><title>dir_4c9a53a1ebd686896279347772212745</title>
<a xlink:href="dir_4c9a53a1ebd686896279347772212745.html" target="_top" xlink:title="animator">
<polygon fill="white" stroke="black" points="316,-108 262,-108 262,-72 316,-72 316,-108"/>
<text text-anchor="middle" x="289" y="-87.5" font-family="Helvetica,sans-Serif" font-size="10.00">animator</text>
</a>
</g>
<!-- dir_569cdb8306b6b6f9a9d8cbeac2ac23f5&#45;&gt;dir_4c9a53a1ebd686896279347772212745 -->
<g id="edge4" class="edge"><title>dir_569cdb8306b6b6f9a9d8cbeac2ac23f5&#45;&gt;dir_4c9a53a1ebd686896279347772212745</title>
<path fill="none" stroke="black" d="M341.336,-143.831C333.027,-135.285 322.974,-124.944 313.908,-115.62"/>
<polygon fill="black" stroke="black" points="316.382,-113.143 306.902,-108.413 311.363,-118.023 316.382,-113.143"/>
<a xlink:href="dir_000020_000021.html" target="_top" xlink:title="1">
<text text-anchor="middle" x="320.924" y="-111.242" font-family="Helvetica,sans-Serif" font-size="10.00">1</text>
</a>
</g>
<!-- dir_15a8bfcd91cdeb8ba2e402bca3216c9f -->
<g id="node6" class="node"><title>dir_15a8bfcd91cdeb8ba2e402bca3216c9f</title>
<a xlink:href="dir_15a8bfcd91cdeb8ba2e402bca3216c9f.html" target="_top" xlink:title="appwidget">
<polygon fill="white" stroke="black" points="244,-252 184,-252 184,-216 244,-216 244,-252"/>
<text text-anchor="middle" x="214" y="-231.5" font-family="Helvetica,sans-Serif" font-size="10.00">appwidget</text>
</a>
</g>
<!-- dir_67f7c8f8d832371c400e5a5bfb84bbd2 -->
<g id="node14" class="node"><title>dir_67f7c8f8d832371c400e5a5bfb84bbd2</title>
<a xlink:href="dir_67f7c8f8d832371c400e5a5bfb84bbd2.html" target="_top" xlink:title="vision">
<polygon fill="white" stroke="black" points="312,-180 258,-180 258,-144 312,-144 312,-180"/>
<text text-anchor="middle" x="285" y="-159.5" font-family="Helvetica,sans-Serif" font-size="10.00">vision</text>
</a>
</g>
<!-- dir_15a8bfcd91cdeb8ba2e402bca3216c9f&#45;&gt;dir_67f7c8f8d832371c400e5a5bfb84bbd2 -->
<g id="edge22" class="edge"><title>dir_15a8bfcd91cdeb8ba2e402bca3216c9f&#45;&gt;dir_67f7c8f8d832371c400e5a5bfb84bbd2</title>
<path fill="none" stroke="black" d="M231.916,-215.831C240.344,-207.285 250.541,-196.944 259.736,-187.62"/>
<polygon fill="black" stroke="black" points="262.313,-189.991 266.842,-180.413 257.329,-185.076 262.313,-189.991"/>
<a xlink:href="dir_000022_000032.html" target="_top" xlink:title="1">
<text text-anchor="middle" x="261.811" y="-192.044" font-family="Helvetica,sans-Serif" font-size="10.00">1</text>
</a>
</g>
<!-- dir_a7bc868a07a00fb60430363f39b25690 -->
<g id="node15" class="node"><title>dir_a7bc868a07a00fb60430363f39b25690</title>
<a xlink:href="dir_a7bc868a07a00fb60430363f39b25690.html" target="_top" xlink:title="base">
<polygon fill="none" stroke="black" points="242,-36 188,-36 188,-1.77636e-14 242,-3.55271e-15 242,-36"/>
<text text-anchor="middle" x="215" y="-15.5" font-family="Helvetica,sans-Serif" font-size="10.00">base</text>
</a>
</g>
<!-- dir_15a8bfcd91cdeb8ba2e402bca3216c9f&#45;&gt;dir_a7bc868a07a00fb60430363f39b25690 -->
<g id="edge20" class="edge"><title>dir_15a8bfcd91cdeb8ba2e402bca3216c9f&#45;&gt;dir_a7bc868a07a00fb60430363f39b25690</title>
<path fill="none" stroke="black" d="M183.694,-219.138C168.813,-210.07 152.328,-196.943 144,-180 119.689,-130.541 115.68,-103.278 144,-56 151.631,-43.2604 165.153,-34.5507 178.363,-28.7198"/>
<polygon fill="black" stroke="black" points="179.83,-31.9033 187.838,-24.9664 177.252,-25.3953 179.83,-31.9033"/>
<a xlink:href="dir_000022_000005.html" target="_top" xlink:title="4">
<text text-anchor="middle" x="177.534" y="-33.3667" font-family="Helvetica,sans-Serif" font-size="10.00">4</text>
</a>
</g>
<!-- dir_6ce878e51dbd9f6a3e2dffc0317307d4 -->
<g id="node7" class="node"><title>dir_6ce878e51dbd9f6a3e2dffc0317307d4</title>
<a xlink:href="dir_6ce878e51dbd9f6a3e2dffc0317307d4.html" target="_top" xlink:title="bm">
<polygon fill="white" stroke="black" points="388,-252 334,-252 334,-216 388,-216 388,-252"/>
<text text-anchor="middle" x="361" y="-231.5" font-family="Helvetica,sans-Serif" font-size="10.00">bm</text>
</a>
</g>
<!-- dir_cdb9a105f3f934c87d63405aa4d1140a&#45;&gt;dir_a7bc868a07a00fb60430363f39b25690 -->
<g id="edge6" class="edge"><title>dir_cdb9a105f3f934c87d63405aa4d1140a&#45;&gt;dir_a7bc868a07a00fb60430363f39b25690</title>
<path fill="none" stroke="black" d="M344.662,-71.7694C338.886,-66.1269 332.058,-60.2766 325,-56 302.372,-42.2904 274.113,-32.6636 251.903,-26.5299"/>
<polygon fill="black" stroke="black" points="252.729,-23.128 242.166,-23.9553 250.939,-29.8954 252.729,-23.128"/>
<a xlink:href="dir_000024_000005.html" target="_top" xlink:title="1">
<text text-anchor="middle" x="256.93" y="-18.8019" font-family="Helvetica,sans-Serif" font-size="10.00">1</text>
</a>
</g>
<!-- dir_be3466a2e74cc1bf08c7a16689e6e117 -->
<g id="node9" class="node"><title>dir_be3466a2e74cc1bf08c7a16689e6e117</title>
<a xlink:href="dir_be3466a2e74cc1bf08c7a16689e6e117.html" target="_top" xlink:title="gesture">
<polygon fill="white" stroke="black" points="316,-252 262,-252 262,-216 316,-216 316,-252"/>
<text text-anchor="middle" x="289" y="-231.5" font-family="Helvetica,sans-Serif" font-size="10.00">gesture</text>
</a>
</g>
<!-- dir_be3466a2e74cc1bf08c7a16689e6e117&#45;&gt;dir_67f7c8f8d832371c400e5a5bfb84bbd2 -->
<g id="edge40" class="edge"><title>dir_be3466a2e74cc1bf08c7a16689e6e117&#45;&gt;dir_67f7c8f8d832371c400e5a5bfb84bbd2</title>
<path fill="none" stroke="black" d="M287.991,-215.831C287.563,-208.131 287.054,-198.974 286.579,-190.417"/>
<polygon fill="black" stroke="black" points="290.072,-190.204 286.023,-180.413 283.083,-190.592 290.072,-190.204"/>
<a xlink:href="dir_000025_000032.html" target="_top" xlink:title="1">
<text text-anchor="middle" x="293.107" y="-191.135" font-family="Helvetica,sans-Serif" font-size="10.00">1</text>
</a>
</g>
<!-- dir_be3466a2e74cc1bf08c7a16689e6e117&#45;&gt;dir_a7bc868a07a00fb60430363f39b25690 -->
<g id="edge38" class="edge"><title>dir_be3466a2e74cc1bf08c7a16689e6e117&#45;&gt;dir_a7bc868a07a00fb60430363f39b25690</title>
<path fill="none" stroke="black" d="M261.818,-220.389C230.214,-204.548 182.292,-180.475 182,-180 153.114,-133.066 162.712,-107.626 182,-56 183.514,-51.9484 185.676,-48.0429 188.179,-44.3784"/>
<polygon fill="black" stroke="black" points="191.087,-46.3422 194.494,-36.3103 185.574,-42.0276 191.087,-46.3422"/>
<a xlink:href="dir_000025_000005.html" target="_top" xlink:title="8">
<text text-anchor="middle" x="191.107" y="-48.4228" font-family="Helvetica,sans-Serif" font-size="10.00">8</text>
</a>
</g>
<!-- dir_813a5a742cb5cda34d5965f334e5d12f&#45;&gt;dir_a7bc868a07a00fb60430363f39b25690 -->
<g id="edge36" class="edge"><title>dir_813a5a742cb5cda34d5965f334e5d12f&#45;&gt;dir_a7bc868a07a00fb60430363f39b25690</title>
<path fill="none" stroke="black" d="M417.677,-71.9446C411.78,-66.0386 404.62,-59.98 397,-56 372.248,-43.072 297.817,-30.2609 252.166,-23.3142"/>
<polygon fill="black" stroke="black" points="252.468,-19.8204 242.06,-21.8003 251.431,-26.7431 252.468,-19.8204"/>
<a xlink:href="dir_000026_000005.html" target="_top" xlink:title="3">
<text text-anchor="middle" x="256.443" y="-15.0448" font-family="Helvetica,sans-Serif" font-size="10.00">3</text>
</a>
</g>
<!-- dir_fbe5d1855939a683a66aa062f860c2e9 -->
<g id="node11" class="node"><title>dir_fbe5d1855939a683a66aa062f860c2e9</title>
<a xlink:href="dir_fbe5d1855939a683a66aa062f860c2e9.html" target="_top" xlink:title="multiwindow">
<polygon fill="white" stroke="black" points="94,-252 24,-252 24,-216 94,-216 94,-252"/>
<text text-anchor="middle" x="59" y="-231.5" font-family="Helvetica,sans-Serif" font-size="10.00">multiwindow</text>
</a>
</g>
<!-- dir_fbe5d1855939a683a66aa062f860c2e9&#45;&gt;dir_a7bc868a07a00fb60430363f39b25690 -->
<g id="edge24" class="edge"><title>dir_fbe5d1855939a683a66aa062f860c2e9&#45;&gt;dir_a7bc868a07a00fb60430363f39b25690</title>
<path fill="none" stroke="black" d="M58.0132,-215.737C57.1244,-180.248 60.3348,-101.474 102,-56 112.444,-44.6013 149.178,-33.5661 177.963,-26.3516"/>
<polygon fill="black" stroke="black" points="178.87,-29.733 187.757,-23.9647 177.212,-22.9321 178.87,-29.733"/>
<a xlink:href="dir_000027_000005.html" target="_top" xlink:title="1">
<text text-anchor="middle" x="176.05" y="-30.8426" font-family="Helvetica,sans-Serif" font-size="10.00">1</text>
</a>
</g>
<!-- dir_32f3599c5b4b55acf6cca99915ea2442 -->
<g id="node12" class="node"><title>dir_32f3599c5b4b55acf6cca99915ea2442</title>
<a xlink:href="dir_32f3599c5b4b55acf6cca99915ea2442.html" target="_top" xlink:title="pm">
<polygon fill="white" stroke="red" points="166,-252 112,-252 112,-216 166,-216 166,-252"/>
<text text-anchor="middle" x="139" y="-231.5" font-family="Helvetica,sans-Serif" font-size="10.00">pm</text>
</a>
</g>
<!-- dir_32f3599c5b4b55acf6cca99915ea2442&#45;&gt;dir_a7bc868a07a00fb60430363f39b25690 -->
<g id="edge16" class="edge"><title>dir_32f3599c5b4b55acf6cca99915ea2442&#45;&gt;dir_a7bc868a07a00fb60430363f39b25690</title>
<path fill="none" stroke="black" d="M130.177,-215.996C114.734,-181.633 87.4832,-105.701 121,-56 133.629,-37.2728 157.215,-27.7721 177.601,-22.9535"/>
<polygon fill="black" stroke="black" points="178.506,-26.3406 187.591,-20.8902 177.09,-19.4853 178.506,-26.3406"/>
<a xlink:href="dir_000028_000005.html" target="_top" xlink:title="14">
<text text-anchor="middle" x="175.559" y="-27.3482" font-family="Helvetica,sans-Serif" font-size="10.00">14</text>
</a>
</g>
<!-- dir_02fa67b54126a3f6270035608e38a450 -->
<g id="node13" class="node"><title>dir_02fa67b54126a3f6270035608e38a450</title>
<a xlink:href="dir_02fa67b54126a3f6270035608e38a450.html" target="_top" xlink:title="util">
<polygon fill="white" stroke="black" points="460,-252 406,-252 406,-216 460,-216 460,-252"/>
<text text-anchor="middle" x="433" y="-231.5" font-family="Helvetica,sans-Serif" font-size="10.00">util</text>
</a>
</g>
<!-- dir_02fa67b54126a3f6270035608e38a450&#45;&gt;dir_a7bc868a07a00fb60430363f39b25690 -->
<g id="edge18" class="edge"><title>dir_02fa67b54126a3f6270035608e38a450&#45;&gt;dir_a7bc868a07a00fb60430363f39b25690</title>
<path fill="none" stroke="black" d="M405.764,-219.588C402.845,-218.283 399.887,-217.058 397,-216 333.435,-192.716 298.235,-226.462 249,-180 212.633,-145.681 209.995,-83.1744 212.037,-46.6523"/>
<polygon fill="black" stroke="black" points="215.561,-46.4376 212.788,-36.212 208.579,-45.9348 215.561,-46.4376"/>
<a xlink:href="dir_000030_000005.html" target="_top" xlink:title="1">
<text text-anchor="middle" x="218.135" y="-47.7268" font-family="Helvetica,sans-Serif" font-size="10.00">1</text>
</a>
</g>
<!-- dir_67f7c8f8d832371c400e5a5bfb84bbd2&#45;&gt;dir_4c9a53a1ebd686896279347772212745 -->
<g id="edge12" class="edge"><title>dir_67f7c8f8d832371c400e5a5bfb84bbd2&#45;&gt;dir_4c9a53a1ebd686896279347772212745</title>
<path fill="none" stroke="black" d="M286.009,-143.831C286.437,-136.131 286.946,-126.974 287.421,-118.417"/>
<polygon fill="black" stroke="black" points="290.917,-118.592 287.977,-108.413 283.928,-118.204 290.917,-118.592"/>
<a xlink:href="dir_000032_000021.html" target="_top" xlink:title="1">
<text text-anchor="middle" x="293.552" y="-119.839" font-family="Helvetica,sans-Serif" font-size="10.00">1</text>
</a>
</g>
<!-- dir_67f7c8f8d832371c400e5a5bfb84bbd2&#45;&gt;dir_cdb9a105f3f934c87d63405aa4d1140a -->
<g id="edge10" class="edge"><title>dir_67f7c8f8d832371c400e5a5bfb84bbd2&#45;&gt;dir_cdb9a105f3f934c87d63405aa4d1140a</title>
<path fill="none" stroke="black" d="M304.178,-143.831C313.359,-135.134 324.501,-124.578 334.478,-115.127"/>
<polygon fill="black" stroke="black" points="336.976,-117.581 341.828,-108.163 332.161,-112.499 336.976,-117.581"/>
<a xlink:href="dir_000032_000024.html" target="_top" xlink:title="3">
<text text-anchor="middle" x="336.319" y="-119.614" font-family="Helvetica,sans-Serif" font-size="10.00">3</text>
</a>
</g>
<!-- dir_67f7c8f8d832371c400e5a5bfb84bbd2&#45;&gt;dir_a7bc868a07a00fb60430363f39b25690 -->
<g id="edge8" class="edge"><title>dir_67f7c8f8d832371c400e5a5bfb84bbd2&#45;&gt;dir_a7bc868a07a00fb60430363f39b25690</title>
<path fill="none" stroke="black" d="M273.41,-143.851C267.033,-133.532 259.185,-120.259 253,-108 242.687,-87.5573 232.683,-63.647 225.531,-45.6113"/>
<polygon fill="black" stroke="black" points="228.772,-44.2903 221.867,-36.2552 222.254,-46.8429 228.772,-44.2903"/>
<a xlink:href="dir_000032_000005.html" target="_top" xlink:title="4">
<text text-anchor="middle" x="232.727" y="-44.102" font-family="Helvetica,sans-Serif" font-size="10.00">4</text>
</a>
</g>
<!-- dir_67f7c8f8d832371c400e5a5bfb84bbd2&#45;&gt;dir_8b4d5a991ae7b4a5030d88c7be6acac9 -->
<g id="edge14" class="edge"><title>dir_67f7c8f8d832371c400e5a5bfb84bbd2&#45;&gt;dir_8b4d5a991ae7b4a5030d88c7be6acac9</title>
<path fill="none" stroke="black" d="M312.231,-147.575C315.151,-146.272 318.111,-145.051 321,-144 385.837,-120.418 406.803,-130.567 472,-108 472.714,-107.753 473.432,-107.497 474.153,-107.234"/>
<polygon fill="black" stroke="black" points="475.589,-110.43 483.582,-103.475 472.997,-103.927 475.589,-110.43"/>
<a xlink:href="dir_000032_000036.html" target="_top" xlink:title="1">
<text text-anchor="middle" x="473.302" y="-111.898" font-family="Helvetica,sans-Serif" font-size="10.00">1</text>
</a>
</g>
<!-- dir_7b469e3992a467f4fffb7e78111bf18a&#45;&gt;dir_569cdb8306b6b6f9a9d8cbeac2ac23f5 -->
<g id="edge28" class="edge"><title>dir_7b469e3992a467f4fffb7e78111bf18a&#45;&gt;dir_569cdb8306b6b6f9a9d8cbeac2ac23f5</title>
<path fill="none" stroke="black" d="M483.825,-221.128C459.688,-209.694 424.155,-192.863 397.166,-180.079"/>
<polygon fill="black" stroke="black" points="398.545,-176.859 388.009,-175.741 395.549,-183.185 398.545,-176.859"/>
<a xlink:href="dir_000055_000020.html" target="_top" xlink:title="2">
<text text-anchor="middle" x="403.009" y="-173.332" font-family="Helvetica,sans-Serif" font-size="10.00">2</text>
</a>
</g>
<!-- dir_7b469e3992a467f4fffb7e78111bf18a&#45;&gt;dir_cdb9a105f3f934c87d63405aa4d1140a -->
<g id="edge30" class="edge"><title>dir_7b469e3992a467f4fffb7e78111bf18a&#45;&gt;dir_cdb9a105f3f934c87d63405aa4d1140a</title>
<path fill="none" stroke="black" d="M506.374,-215.697C500.555,-195.882 488.844,-164.387 469,-144 468.955,-143.954 428.579,-123.771 397.214,-108.097"/>
<polygon fill="black" stroke="black" points="398.747,-104.95 388.237,-103.61 395.618,-111.211 398.747,-104.95"/>
<a xlink:href="dir_000055_000024.html" target="_top" xlink:title="8">
<text text-anchor="middle" x="403.232" y="-101.517" font-family="Helvetica,sans-Serif" font-size="10.00">8</text>
</a>
</g>
<!-- dir_7b469e3992a467f4fffb7e78111bf18a&#45;&gt;dir_67f7c8f8d832371c400e5a5bfb84bbd2 -->
<g id="edge32" class="edge"><title>dir_7b469e3992a467f4fffb7e78111bf18a&#45;&gt;dir_67f7c8f8d832371c400e5a5bfb84bbd2</title>
<path fill="none" stroke="black" d="M483.582,-220.525C479.741,-218.88 475.805,-217.317 472,-216 409.732,-194.447 387.809,-202.737 321.84,-179.866"/>
<polygon fill="black" stroke="black" points="322.825,-176.501 312.231,-176.425 320.466,-183.091 322.825,-176.501"/>
<a xlink:href="dir_000055_000032.html" target="_top" xlink:title="38">
<text text-anchor="middle" x="327.166" y="-172.539" font-family="Helvetica,sans-Serif" font-size="10.00">38</text>
</a>
</g>
<!-- dir_7b469e3992a467f4fffb7e78111bf18a&#45;&gt;dir_a7bc868a07a00fb60430363f39b25690 -->
<g id="edge26" class="edge"><title>dir_7b469e3992a467f4fffb7e78111bf18a&#45;&gt;dir_a7bc868a07a00fb60430363f39b25690</title>
<path fill="none" stroke="black" d="M523.477,-215.767C546.048,-180.33 587.717,-101.643 547,-56 527.645,-34.3036 335.026,-23.2854 252.363,-19.5259"/>
<polygon fill="black" stroke="black" points="252.296,-16.0196 242.151,-19.0731 251.986,-23.0127 252.296,-16.0196"/>
<a xlink:href="dir_000055_000005.html" target="_top" xlink:title="62">
<text text-anchor="middle" x="256.013" y="-10.8423" font-family="Helvetica,sans-Serif" font-size="10.00">62</text>
</a>
</g>
<!-- dir_7b469e3992a467f4fffb7e78111bf18a&#45;&gt;dir_8b4d5a991ae7b4a5030d88c7be6acac9 -->
<g id="edge34" class="edge"><title>dir_7b469e3992a467f4fffb7e78111bf18a&#45;&gt;dir_8b4d5a991ae7b4a5030d88c7be6acac9</title>
<path fill="none" stroke="black" d="M511,-215.762C511,-191.201 511,-147.247 511,-118.354"/>
<polygon fill="black" stroke="black" points="514.5,-118.09 511,-108.09 507.5,-118.09 514.5,-118.09"/>
<a xlink:href="dir_000055_000036.html" target="_top" xlink:title="6">
<text text-anchor="middle" x="517.339" y="-119.184" font-family="Helvetica,sans-Serif" font-size="10.00">6</text>
</a>
</g>
<!-- dir_8b4d5a991ae7b4a5030d88c7be6acac9&#45;&gt;dir_a7bc868a07a00fb60430363f39b25690 -->
<g id="edge42" class="edge"><title>dir_8b4d5a991ae7b4a5030d88c7be6acac9&#45;&gt;dir_a7bc868a07a00fb60430363f39b25690</title>
<path fill="none" stroke="black" d="M494.291,-71.6997C487.893,-65.7706 480.158,-59.7601 472,-56 433.666,-38.3308 314.004,-26.1854 252.43,-20.9318"/>
<polygon fill="black" stroke="black" points="252.61,-17.4348 242.354,-20.0895 252.027,-24.4105 252.61,-17.4348"/>
<a xlink:href="dir_000036_000005.html" target="_top" xlink:title="13">
<text text-anchor="middle" x="256.429" y="-12.4048" font-family="Helvetica,sans-Serif" font-size="10.00">13</text>
</a>
</g>
</g>
</svg>
