<?xml version="1.0" encoding="UTF-8" standalone="no"?>
<!DOCTYPE svg PUBLIC "-//W3C//DTD SVG 1.1//EN"
 "http://www.w3.org/Graphics/SVG/1.1/DTD/svg11.dtd">
<!-- Generated by graphviz version 2.26.3 (20100126.1600)
 -->
<!-- Title: G Pages: 1 -->
<svg width="98pt" height="153pt"
 viewBox="0.00 0.00 98.00 153.00" xmlns="http://www.w3.org/2000/svg" xmlns:xlink="http://www.w3.org/1999/xlink">
<g id="graph1" class="graph" transform="scale(1 1) rotate(0) translate(4 149)">
<title>G</title>
<polygon fill="white" stroke="white" points="-4,5 -4,-149 95,-149 95,5 -4,5"/>
<g id="graph2" class="cluster"><title>clusterdir_f7b85038ab7aa457c95f185be9326487</title>
<a xlink:href="dir_f7b85038ab7aa457c95f185be9326487.html" target="_top" xlink:title="core">
<polygon fill="#ddddee" stroke="black" points="8,-64 8,-137 82,-137 82,-64 8,-64"/>
<text text-anchor="middle" x="45" y="-124" font-family="Helvetica,sans-Serif" font-size="10.00">core</text>
</a>
</g>
<!-- dir_569cdb8306b6b6f9a9d8cbeac2ac23f5 -->
<g id="node2" class="node"><title>dir_569cdb8306b6b6f9a9d8cbeac2ac23f5</title>
<a xlink:href="dir_569cdb8306b6b6f9a9d8cbeac2ac23f5.html" target="_top" xlink:title="animation">
<polygon fill="#eeeeff" stroke="black" points="74,-108 16,-108 16,-72 74,-72 74,-108"/>
<text text-anchor="middle" x="45" y="-87.5" font-family="Helvetica,sans-Serif" font-size="10.00">animation</text>
</a>
</g>
<!-- dir_4c9a53a1ebd686896279347772212745 -->
<g id="node3" class="node"><title>dir_4c9a53a1ebd686896279347772212745</title>
<a xlink:href="dir_4c9a53a1ebd686896279347772212745.html" target="_top" xlink:title="animator">
<polygon fill="none" stroke="black" points="72,-36 18,-36 18,-1.77636e-14 72,-3.55271e-15 72,-36"/>
<text text-anchor="middle" x="45" y="-15.5" font-family="Helvetica,sans-Serif" font-size="10.00">animator</text>
</a>
</g>
<!-- dir_569cdb8306b6b6f9a9d8cbeac2ac23f5&#45;&gt;dir_4c9a53a1ebd686896279347772212745 -->
<g id="edge3" class="edge"><title>dir_569cdb8306b6b6f9a9d8cbeac2ac23f5&#45;&gt;dir_4c9a53a1ebd686896279347772212745</title>
<path fill="none" stroke="black" d="M45,-71.8314C45,-64.131 45,-54.9743 45,-46.4166"/>
<polygon fill="black" stroke="black" points="48.5001,-46.4132 45,-36.4133 41.5001,-46.4133 48.5001,-46.4132"/>
<a xlink:href="dir_000020_000021.html" target="_top" xlink:title="1">
<text text-anchor="middle" x="51.3393" y="-47.5079" font-family="Helvetica,sans-Serif" font-size="10.00">1</text>
</a>
</g>
</g>
</svg>
