<?xml version="1.0" encoding="UTF-8" standalone="no"?>
<!DOCTYPE svg PUBLIC "-//W3C//DTD SVG 1.1//EN"
 "http://www.w3.org/Graphics/SVG/1.1/DTD/svg11.dtd">
<!-- Generated by graphviz version 2.26.3 (20100126.1600)
 -->
<!-- Title: G Pages: 1 -->
<svg width="104pt" height="153pt"
 viewBox="0.00 0.00 104.00 153.00" xmlns="http://www.w3.org/2000/svg" xmlns:xlink="http://www.w3.org/1999/xlink">
<g id="graph1" class="graph" transform="scale(1 1) rotate(0) translate(4 149)">
<title>G</title>
<polygon fill="white" stroke="white" points="-4,5 -4,-149 101,-149 101,5 -4,5"/>
<g id="graph2" class="cluster"><title>clusterdir_a3509e446681fa01bb0c9626fadbbb79</title>
<a xlink:href="dir_a3509e446681fa01bb0c9626fadbbb79.html" target="_top" xlink:title="media">
<polygon fill="#ddddee" stroke="black" points="8,-64 8,-137 88,-137 88,-64 8,-64"/>
<text text-anchor="middle" x="48" y="-124" font-family="Helvetica,sans-Serif" font-size="10.00">media</text>
</a>
</g>
<!-- dir_698ae63958eeac9db7183095c6cc479b -->
<g id="node2" class="node"><title>dir_698ae63958eeac9db7183095c6cc479b</title>
<a xlink:href="dir_698ae63958eeac9db7183095c6cc479b.html" target="_top" xlink:title="videoeditor">
<polygon fill="#eeeeff" stroke="black" points="80,-108 16,-108 16,-72 80,-72 80,-108"/>
<text text-anchor="middle" x="48" y="-87.5" font-family="Helvetica,sans-Serif" font-size="10.00">videoeditor</text>
</a>
</g>
<!-- dir_a7bc868a07a00fb60430363f39b25690 -->
<g id="node3" class="node"><title>dir_a7bc868a07a00fb60430363f39b25690</title>
<a xlink:href="dir_a7bc868a07a00fb60430363f39b25690.html" target="_top" xlink:title="base">
<polygon fill="none" stroke="black" points="75,-36 21,-36 21,-1.77636e-14 75,-3.55271e-15 75,-36"/>
<text text-anchor="middle" x="48" y="-15.5" font-family="Helvetica,sans-Serif" font-size="10.00">base</text>
</a>
</g>
<!-- dir_698ae63958eeac9db7183095c6cc479b&#45;&gt;dir_a7bc868a07a00fb60430363f39b25690 -->
<g id="edge3" class="edge"><title>dir_698ae63958eeac9db7183095c6cc479b&#45;&gt;dir_a7bc868a07a00fb60430363f39b25690</title>
<path fill="none" stroke="black" d="M48,-71.8314C48,-64.131 48,-54.9743 48,-46.4166"/>
<polygon fill="black" stroke="black" points="51.5001,-46.4132 48,-36.4133 44.5001,-46.4133 51.5001,-46.4132"/>
<a xlink:href="dir_000042_000005.html" target="_top" xlink:title="23">
<text text-anchor="middle" x="54.3393" y="-47.5079" font-family="Helvetica,sans-Serif" font-size="10.00">23</text>
</a>
</g>
</g>
</svg>
