<?xml version="1.0" encoding="UTF-8" standalone="no"?>
<!DOCTYPE svg PUBLIC "-//W3C//DTD SVG 1.1//EN"
 "http://www.w3.org/Graphics/SVG/1.1/DTD/svg11.dtd">
<!-- Generated by graphviz version 2.26.3 (20100126.1600)
 -->
<!-- Title: G Pages: 1 -->
<svg width="110pt" height="153pt"
 viewBox="0.00 0.00 110.00 153.00" xmlns="http://www.w3.org/2000/svg" xmlns:xlink="http://www.w3.org/1999/xlink">
<g id="graph1" class="graph" transform="scale(1 1) rotate(0) translate(4 149)">
<title>G</title>
<polygon fill="white" stroke="white" points="-4,5 -4,-149 107,-149 107,5 -4,5"/>
<g id="graph2" class="cluster"><title>clusterdir_f7b85038ab7aa457c95f185be9326487</title>
<a xlink:href="dir_f7b85038ab7aa457c95f185be9326487.html" target="_top" xlink:title="core">
<polygon fill="#ddddee" stroke="black" points="8,-64 8,-137 94,-137 94,-64 8,-64"/>
<text text-anchor="middle" x="51" y="-124" font-family="Helvetica,sans-Serif" font-size="10.00">core</text>
</a>
</g>
<!-- dir_fbe5d1855939a683a66aa062f860c2e9 -->
<g id="node2" class="node"><title>dir_fbe5d1855939a683a66aa062f860c2e9</title>
<a xlink:href="dir_fbe5d1855939a683a66aa062f860c2e9.html" target="_top" xlink:title="multiwindow">
<polygon fill="#eeeeff" stroke="black" points="86,-108 16,-108 16,-72 86,-72 86,-108"/>
<text text-anchor="middle" x="51" y="-87.5" font-family="Helvetica,sans-Serif" font-size="10.00">multiwindow</text>
</a>
</g>
<!-- dir_a7bc868a07a00fb60430363f39b25690 -->
<g id="node3" class="node"><title>dir_a7bc868a07a00fb60430363f39b25690</title>
<a xlink:href="dir_a7bc868a07a00fb60430363f39b25690.html" target="_top" xlink:title="base">
<polygon fill="none" stroke="black" points="78,-36 24,-36 24,-1.77636e-14 78,-3.55271e-15 78,-36"/>
<text text-anchor="middle" x="51" y="-15.5" font-family="Helvetica,sans-Serif" font-size="10.00">base</text>
</a>
</g>
<!-- dir_fbe5d1855939a683a66aa062f860c2e9&#45;&gt;dir_a7bc868a07a00fb60430363f39b25690 -->
<g id="edge3" class="edge"><title>dir_fbe5d1855939a683a66aa062f860c2e9&#45;&gt;dir_a7bc868a07a00fb60430363f39b25690</title>
<path fill="none" stroke="black" d="M51,-71.8314C51,-64.131 51,-54.9743 51,-46.4166"/>
<polygon fill="black" stroke="black" points="54.5001,-46.4132 51,-36.4133 47.5001,-46.4133 54.5001,-46.4132"/>
<a xlink:href="dir_000027_000005.html" target="_top" xlink:title="1">
<text text-anchor="middle" x="57.3393" y="-47.5079" font-family="Helvetica,sans-Serif" font-size="10.00">1</text>
</a>
</g>
</g>
</svg>
