<?xml version="1.0" encoding="UTF-8" standalone="no"?>
<!DOCTYPE svg PUBLIC "-//W3C//DTD SVG 1.1//EN"
 "http://www.w3.org/Graphics/SVG/1.1/DTD/svg11.dtd">
<!-- Generated by graphviz version 2.26.3 (20100126.1600)
 -->
<!-- Title: G Pages: 1 -->
<svg width="182pt" height="161pt"
 viewBox="0.00 0.00 182.00 161.00" xmlns="http://www.w3.org/2000/svg" xmlns:xlink="http://www.w3.org/1999/xlink">
<g id="graph1" class="graph" transform="scale(1 1) rotate(0) translate(4 157)">
<title>G</title>
<polygon fill="white" stroke="white" points="-4,5 -4,-157 179,-157 179,5 -4,5"/>
<g id="graph2" class="cluster"><title>clusterdir_f7b85038ab7aa457c95f185be9326487</title>
<a xlink:href="dir_f7b85038ab7aa457c95f185be9326487.html" target="_top" xlink:title="core">
<polygon fill="#ddddee" stroke="black" points="8,-56 8,-145 166,-145 166,-56 8,-56"/>
<text text-anchor="middle" x="87" y="-132" font-family="Helvetica,sans-Serif" font-size="10.00">core</text>
</a>
</g>
<g id="graph3" class="cluster"><title>clusterdir_32f3599c5b4b55acf6cca99915ea2442</title>
<a xlink:href="dir_32f3599c5b4b55acf6cca99915ea2442.html" target="_top">
<polygon fill="#eeeeff" stroke="black" points="16,-64 16,-116 158,-116 158,-64 16,-64"/>
</a>
</g>
<!-- dir_32f3599c5b4b55acf6cca99915ea2442 -->
<g id="node3" class="node"><title>dir_32f3599c5b4b55acf6cca99915ea2442</title>
<text text-anchor="middle" x="123" y="-87.5" font-family="Helvetica,sans-Serif" font-size="10.00">pm</text>
</g>
<!-- dir_a7bc868a07a00fb60430363f39b25690 -->
<g id="node5" class="node"><title>dir_a7bc868a07a00fb60430363f39b25690</title>
<a xlink:href="dir_a7bc868a07a00fb60430363f39b25690.html" target="_top" xlink:title="base">
<polygon fill="none" stroke="black" points="114,-36 60,-36 60,-1.77636e-14 114,-3.55271e-15 114,-36"/>
<text text-anchor="middle" x="87" y="-15.5" font-family="Helvetica,sans-Serif" font-size="10.00">base</text>
</a>
</g>
<!-- dir_32f3599c5b4b55acf6cca99915ea2442&#45;&gt;dir_a7bc868a07a00fb60430363f39b25690 -->
<g id="edge4" class="edge"><title>dir_32f3599c5b4b55acf6cca99915ea2442&#45;&gt;dir_a7bc868a07a00fb60430363f39b25690</title>
<path fill="none" stroke="black" d="M113.916,-71.8314C109.939,-63.8771 105.185,-54.369 100.786,-45.5723"/>
<polygon fill="black" stroke="black" points="103.809,-43.7923 96.2066,-36.4133 97.5483,-46.9228 103.809,-43.7923"/>
<a xlink:href="dir_000028_000005.html" target="_top" xlink:title="14">
<text text-anchor="middle" x="107.956" y="-43.2377" font-family="Helvetica,sans-Serif" font-size="10.00">14</text>
</a>
</g>
<!-- dir_f9fe90d0b71c9fd983439e4e9a07c5c2 -->
<g id="node4" class="node"><title>dir_f9fe90d0b71c9fd983439e4e9a07c5c2</title>
<a xlink:href="dir_f9fe90d0b71c9fd983439e4e9a07c5c2.html" target="_top" xlink:title="wrt">
<polygon fill="white" stroke="black" points="78,-108 24,-108 24,-72 78,-72 78,-108"/>
<text text-anchor="middle" x="51" y="-87.5" font-family="Helvetica,sans-Serif" font-size="10.00">wrt</text>
</a>
</g>
<!-- dir_f9fe90d0b71c9fd983439e4e9a07c5c2&#45;&gt;dir_a7bc868a07a00fb60430363f39b25690 -->
<g id="edge6" class="edge"><title>dir_f9fe90d0b71c9fd983439e4e9a07c5c2&#45;&gt;dir_a7bc868a07a00fb60430363f39b25690</title>
<path fill="none" stroke="black" d="M60.0843,-71.8314C64.0615,-63.8771 68.8155,-54.369 73.2139,-45.5723"/>
<polygon fill="black" stroke="black" points="76.4517,-46.9228 77.7934,-36.4133 70.1907,-43.7923 76.4517,-46.9228"/>
<a xlink:href="dir_000029_000005.html" target="_top" xlink:title="5">
<text text-anchor="middle" x="77.3837" y="-48.9077" font-family="Helvetica,sans-Serif" font-size="10.00">5</text>
</a>
</g>
</g>
</svg>
