<?xml version="1.0" encoding="UTF-8" standalone="no"?>
<!DOCTYPE svg PUBLIC "-//W3C//DTD SVG 1.1//EN"
 "http://www.w3.org/Graphics/SVG/1.1/DTD/svg11.dtd">
<!-- Generated by graphviz version 2.26.3 (20100126.1600)
 -->
<!-- Title: G Pages: 1 -->
<svg width="96pt" height="153pt"
 viewBox="0.00 0.00 96.00 153.00" xmlns="http://www.w3.org/2000/svg" xmlns:xlink="http://www.w3.org/1999/xlink">
<g id="graph1" class="graph" transform="scale(1 1) rotate(0) translate(4 149)">
<title>G</title>
<polygon fill="white" stroke="white" points="-4,5 -4,-149 93,-149 93,5 -4,5"/>
<g id="graph2" class="cluster"><title>clusterdir_18fe6922e29c45285b63ff54cf62344c</title>
<a xlink:href="dir_18fe6922e29c45285b63ff54cf62344c.html" target="_top" xlink:title="gaia">
<polygon fill="#ddddee" stroke="black" points="8,-64 8,-137 80,-137 80,-64 8,-64"/>
<text text-anchor="middle" x="44" y="-124" font-family="Helvetica,sans-Serif" font-size="10.00">gaia</text>
</a>
</g>
<!-- dir_e7a42b22ddc17b0fea3f792a380b034e -->
<g id="node2" class="node"><title>dir_e7a42b22ddc17b0fea3f792a380b034e</title>
<a xlink:href="dir_e7a42b22ddc17b0fea3f792a380b034e.html" target="_top" xlink:title="accounts">
<polygon fill="#eeeeff" stroke="black" points="72,-108 16,-108 16,-72 72,-72 72,-108"/>
<text text-anchor="middle" x="44" y="-87.5" font-family="Helvetica,sans-Serif" font-size="10.00">accounts</text>
</a>
</g>
<!-- dir_f7b85038ab7aa457c95f185be9326487 -->
<g id="node3" class="node"><title>dir_f7b85038ab7aa457c95f185be9326487</title>
<a xlink:href="dir_f7b85038ab7aa457c95f185be9326487.html" target="_top" xlink:title="core">
<polygon fill="white" stroke="red" points="71,-36 17,-36 17,-1.77636e-14 71,-3.55271e-15 71,-36"/>
<text text-anchor="middle" x="44" y="-15.5" font-family="Helvetica,sans-Serif" font-size="10.00">core</text>
</a>
</g>
<!-- dir_e7a42b22ddc17b0fea3f792a380b034e&#45;&gt;dir_f7b85038ab7aa457c95f185be9326487 -->
<g id="edge3" class="edge"><title>dir_e7a42b22ddc17b0fea3f792a380b034e&#45;&gt;dir_f7b85038ab7aa457c95f185be9326487</title>
<path fill="none" stroke="black" d="M44,-71.8314C44,-64.131 44,-54.9743 44,-46.4166"/>
<polygon fill="black" stroke="black" points="47.5001,-46.4132 44,-36.4133 40.5001,-46.4133 47.5001,-46.4132"/>
<a xlink:href="dir_000002_000019.html" target="_top" xlink:title="2">
<text text-anchor="middle" x="50.3393" y="-47.5079" font-family="Helvetica,sans-Serif" font-size="10.00">2</text>
</a>
</g>
</g>
</svg>
