<?xml version="1.0" encoding="UTF-8" standalone="no"?>
<!DOCTYPE svg PUBLIC "-//W3C//DTD SVG 1.1//EN"
 "http://www.w3.org/Graphics/SVG/1.1/DTD/svg11.dtd">
<!-- Generated by graphviz version 2.26.3 (20100126.1600)
 -->
<!-- Title: G Pages: 1 -->
<svg width="114pt" height="225pt"
 viewBox="0.00 0.00 114.00 225.00" xmlns="http://www.w3.org/2000/svg" xmlns:xlink="http://www.w3.org/1999/xlink">
<g id="graph1" class="graph" transform="scale(1 1) rotate(0) translate(4 221)">
<title>G</title>
<polygon fill="white" stroke="white" points="-4,5 -4,-221 111,-221 111,5 -4,5"/>
<g id="graph2" class="cluster"><title>clusterdir_18fe6922e29c45285b63ff54cf62344c</title>
<a xlink:href="dir_18fe6922e29c45285b63ff54cf62344c.html" target="_top" xlink:title="gaia">
<polygon fill="#ddddee" stroke="black" points="8,-136 8,-209 94,-209 94,-136 8,-136"/>
<text text-anchor="middle" x="51" y="-196" font-family="Helvetica,sans-Serif" font-size="10.00">gaia</text>
</a>
</g>
<!-- dir_00f090a5459b9b7ea01d2d4a107ce2c6 -->
<g id="node2" class="node"><title>dir_00f090a5459b9b7ea01d2d4a107ce2c6</title>
<a xlink:href="dir_00f090a5459b9b7ea01d2d4a107ce2c6.html" target="_top" xlink:title="defcontainer">
<polygon fill="#eeeeff" stroke="black" points="86,-180 16,-180 16,-144 86,-144 86,-180"/>
<text text-anchor="middle" x="51" y="-159.5" font-family="Helvetica,sans-Serif" font-size="10.00">defcontainer</text>
</a>
</g>
<!-- dir_a7bc868a07a00fb60430363f39b25690 -->
<g id="node3" class="node"><title>dir_a7bc868a07a00fb60430363f39b25690</title>
<a xlink:href="dir_a7bc868a07a00fb60430363f39b25690.html" target="_top" xlink:title="base">
<polygon fill="none" stroke="black" points="78,-36 24,-36 24,-1.77636e-14 78,-3.55271e-15 78,-36"/>
<text text-anchor="middle" x="51" y="-15.5" font-family="Helvetica,sans-Serif" font-size="10.00">base</text>
</a>
</g>
<!-- dir_00f090a5459b9b7ea01d2d4a107ce2c6&#45;&gt;dir_a7bc868a07a00fb60430363f39b25690 -->
<g id="edge3" class="edge"><title>dir_00f090a5459b9b7ea01d2d4a107ce2c6&#45;&gt;dir_a7bc868a07a00fb60430363f39b25690</title>
<path fill="none" stroke="black" d="M47.585,-143.58C45.8291,-133.177 43.8774,-119.909 43,-108 41.8244,-92.0432 41.8244,-87.9568 43,-72 43.6169,-63.6264 44.7649,-54.5812 46.0026,-46.3322"/>
<polygon fill="black" stroke="black" points="49.4648,-46.8463 47.585,-36.4196 42.5523,-45.7428 49.4648,-46.8463"/>
<a xlink:href="dir_000035_000005.html" target="_top" xlink:title="2">
<text text-anchor="middle" x="51.702" y="-48.3436" font-family="Helvetica,sans-Serif" font-size="10.00">2</text>
</a>
</g>
<!-- dir_f7b85038ab7aa457c95f185be9326487 -->
<g id="node4" class="node"><title>dir_f7b85038ab7aa457c95f185be9326487</title>
<a xlink:href="dir_f7b85038ab7aa457c95f185be9326487.html" target="_top" xlink:title="core">
<polygon fill="white" stroke="red" points="106,-108 52,-108 52,-72 106,-72 106,-108"/>
<text text-anchor="middle" x="79" y="-87.5" font-family="Helvetica,sans-Serif" font-size="10.00">core</text>
</a>
</g>
<!-- dir_00f090a5459b9b7ea01d2d4a107ce2c6&#45;&gt;dir_f7b85038ab7aa457c95f185be9326487 -->
<g id="edge5" class="edge"><title>dir_00f090a5459b9b7ea01d2d4a107ce2c6&#45;&gt;dir_f7b85038ab7aa457c95f185be9326487</title>
<path fill="none" stroke="black" d="M58.0656,-143.831C61.126,-135.962 64.7779,-126.571 68.1682,-117.853"/>
<polygon fill="black" stroke="black" points="71.4768,-119.002 71.8393,-108.413 64.9527,-116.465 71.4768,-119.002"/>
<a xlink:href="dir_000035_000019.html" target="_top" xlink:title="2">
<text text-anchor="middle" x="72.8202" y="-120.881" font-family="Helvetica,sans-Serif" font-size="10.00">2</text>
</a>
</g>
<!-- dir_f7b85038ab7aa457c95f185be9326487&#45;&gt;dir_a7bc868a07a00fb60430363f39b25690 -->
<g id="edge7" class="edge"><title>dir_f7b85038ab7aa457c95f185be9326487&#45;&gt;dir_a7bc868a07a00fb60430363f39b25690</title>
<path fill="none" stroke="black" d="M71.9344,-71.8314C68.874,-63.9617 65.2221,-54.5712 61.8318,-45.8533"/>
<polygon fill="black" stroke="black" points="65.0473,-44.4647 58.1607,-36.4133 58.5232,-47.0019 65.0473,-44.4647"/>
<a xlink:href="dir_000019_000005.html" target="_top" xlink:title="85">
<text text-anchor="middle" x="68.9963" y="-44.2859" font-family="Helvetica,sans-Serif" font-size="10.00">85</text>
</a>
</g>
</g>
</svg>
