<?xml version="1.0" encoding="UTF-8" standalone="no"?>
<!DOCTYPE svg PUBLIC "-//W3C//DTD SVG 1.1//EN"
 "http://www.w3.org/Graphics/SVG/1.1/DTD/svg11.dtd">
<!-- Generated by graphviz version 2.26.3 (20100126.1600)
 -->
<!-- Title: G Pages: 1 -->
<svg width="160pt" height="369pt"
 viewBox="0.00 0.00 160.22 369.00" xmlns="http://www.w3.org/2000/svg" xmlns:xlink="http://www.w3.org/1999/xlink">
<g id="graph1" class="graph" transform="scale(1 1) rotate(0) translate(4 365)">
<title>G</title>
<polygon fill="white" stroke="white" points="-4,5 -4,-365 157.224,-365 157.224,5 -4,5"/>
<g id="graph2" class="cluster"><title>clusterdir_18fe6922e29c45285b63ff54cf62344c</title>
<a xlink:href="dir_18fe6922e29c45285b63ff54cf62344c.html" target="_top" xlink:title="gaia">
<polygon fill="#ddddee" stroke="black" points="41.2241,-280 41.2241,-353 111.224,-353 111.224,-280 41.2241,-280"/>
<text text-anchor="middle" x="76.2241" y="-340" font-family="Helvetica,sans-Serif" font-size="10.00">gaia</text>
</a>
</g>
<!-- dir_49f0f02d814b5e2369819d582db009ee -->
<g id="node2" class="node"><title>dir_49f0f02d814b5e2369819d582db009ee</title>
<a xlink:href="dir_49f0f02d814b5e2369819d582db009ee.html" target="_top" xlink:title="service">
<polygon fill="#eeeeff" stroke="black" points="103.224,-324 49.2241,-324 49.2241,-288 103.224,-288 103.224,-324"/>
<text text-anchor="middle" x="76.2241" y="-303.5" font-family="Helvetica,sans-Serif" font-size="10.00">service</text>
</a>
</g>
<!-- dir_a7bc868a07a00fb60430363f39b25690 -->
<g id="node3" class="node"><title>dir_a7bc868a07a00fb60430363f39b25690</title>
<a xlink:href="dir_a7bc868a07a00fb60430363f39b25690.html" target="_top" xlink:title="base">
<polygon fill="none" stroke="black" points="78.2241,-36 24.2241,-36 24.2241,-1.77636e-14 78.2241,-3.55271e-15 78.2241,-36"/>
<text text-anchor="middle" x="51.2241" y="-15.5" font-family="Helvetica,sans-Serif" font-size="10.00">base</text>
</a>
</g>
<!-- dir_49f0f02d814b5e2369819d582db009ee&#45;&gt;dir_a7bc868a07a00fb60430363f39b25690 -->
<g id="edge7" class="edge"><title>dir_49f0f02d814b5e2369819d582db009ee&#45;&gt;dir_a7bc868a07a00fb60430363f39b25690</title>
<path fill="none" stroke="black" d="M49.2014,-290.679C35.7025,-281.405 20.6882,-268.229 13.2241,-252 -18.7402,-182.503 15.7395,-90.5747 37.032,-45.4194"/>
<polygon fill="black" stroke="black" points="40.2585,-46.7872 41.4745,-36.2623 33.9606,-43.7317 40.2585,-46.7872"/>
<a xlink:href="dir_000047_000005.html" target="_top" xlink:title="13">
<text text-anchor="middle" x="41.2441" y="-48.7606" font-family="Helvetica,sans-Serif" font-size="10.00">13</text>
</a>
</g>
<!-- dir_63b7357f9450ad7acaa914fca67749bb -->
<g id="node4" class="node"><title>dir_63b7357f9450ad7acaa914fca67749bb</title>
<a xlink:href="dir_63b7357f9450ad7acaa914fca67749bb.html" target="_top" xlink:title="text">
<polygon fill="white" stroke="red" points="76.2241,-252 22.2241,-252 22.2241,-216 76.2241,-216 76.2241,-252"/>
<text text-anchor="middle" x="49.2241" y="-231.5" font-family="Helvetica,sans-Serif" font-size="10.00">text</text>
</a>
</g>
<!-- dir_49f0f02d814b5e2369819d582db009ee&#45;&gt;dir_63b7357f9450ad7acaa914fca67749bb -->
<g id="edge9" class="edge"><title>dir_49f0f02d814b5e2369819d582db009ee&#45;&gt;dir_63b7357f9450ad7acaa914fca67749bb</title>
<path fill="none" stroke="black" d="M69.4109,-287.831C66.4597,-279.962 62.9383,-270.571 59.6691,-261.853"/>
<polygon fill="black" stroke="black" points="62.9175,-260.548 56.1291,-252.413 56.3632,-263.006 62.9175,-260.548"/>
<a xlink:href="dir_000047_000040.html" target="_top" xlink:title="1">
<text text-anchor="middle" x="66.8381" y="-260.416" font-family="Helvetica,sans-Serif" font-size="10.00">1</text>
</a>
</g>
<!-- dir_7b469e3992a467f4fffb7e78111bf18a -->
<g id="node5" class="node"><title>dir_7b469e3992a467f4fffb7e78111bf18a</title>
<a xlink:href="dir_7b469e3992a467f4fffb7e78111bf18a.html" target="_top" xlink:title="ui">
<polygon fill="white" stroke="red" points="152.224,-108 98.2241,-108 98.2241,-72 152.224,-72 152.224,-108"/>
<text text-anchor="middle" x="125.224" y="-87.5" font-family="Helvetica,sans-Serif" font-size="10.00">ui</text>
</a>
</g>
<!-- dir_49f0f02d814b5e2369819d582db009ee&#45;&gt;dir_7b469e3992a467f4fffb7e78111bf18a -->
<g id="edge11" class="edge"><title>dir_49f0f02d814b5e2369819d582db009ee&#45;&gt;dir_7b469e3992a467f4fffb7e78111bf18a</title>
<path fill="none" stroke="black" d="M85.4219,-287.774C90.4481,-277.431 96.5769,-264.159 101.224,-252 113.17,-220.745 117.914,-213.036 123.224,-180 126.526,-159.458 126.935,-135.942 126.566,-118.101"/>
<polygon fill="black" stroke="black" points="130.064,-117.951 126.266,-108.061 123.067,-118.161 130.064,-117.951"/>
<a xlink:href="dir_000047_000055.html" target="_top" xlink:title="1">
<text text-anchor="middle" x="133.009" y="-118.96" font-family="Helvetica,sans-Serif" font-size="10.00">1</text>
</a>
</g>
<!-- dir_f7b85038ab7aa457c95f185be9326487 -->
<g id="node6" class="node"><title>dir_f7b85038ab7aa457c95f185be9326487</title>
<a xlink:href="dir_f7b85038ab7aa457c95f185be9326487.html" target="_top" xlink:title="core">
<polygon fill="white" stroke="red" points="114.224,-180 60.2241,-180 60.2241,-144 114.224,-144 114.224,-180"/>
<text text-anchor="middle" x="87.2241" y="-159.5" font-family="Helvetica,sans-Serif" font-size="10.00">core</text>
</a>
</g>
<!-- dir_49f0f02d814b5e2369819d582db009ee&#45;&gt;dir_f7b85038ab7aa457c95f185be9326487 -->
<g id="edge13" class="edge"><title>dir_49f0f02d814b5e2369819d582db009ee&#45;&gt;dir_f7b85038ab7aa457c95f185be9326487</title>
<path fill="none" stroke="black" d="M79.9629,-287.591C81.9061,-277.191 84.1038,-263.923 85.2241,-252 87.1583,-231.415 87.6275,-208.071 87.6293,-190.316"/>
<polygon fill="black" stroke="black" points="91.1294,-190.299 87.5815,-180.316 84.1295,-190.332 91.1294,-190.299"/>
<a xlink:href="dir_000047_000019.html" target="_top" xlink:title="4">
<text text-anchor="middle" x="93.9857" y="-191.38" font-family="Helvetica,sans-Serif" font-size="10.00">4</text>
</a>
</g>
<!-- dir_63b7357f9450ad7acaa914fca67749bb&#45;&gt;dir_a7bc868a07a00fb60430363f39b25690 -->
<g id="edge3" class="edge"><title>dir_63b7357f9450ad7acaa914fca67749bb&#45;&gt;dir_a7bc868a07a00fb60430363f39b25690</title>
<path fill="none" stroke="black" d="M49.3912,-215.955C49.739,-178.394 50.543,-91.5541 50.961,-46.4103"/>
<polygon fill="black" stroke="black" points="54.4632,-46.1771 51.0561,-36.1451 47.4635,-46.1122 54.4632,-46.1771"/>
<a xlink:href="dir_000040_000005.html" target="_top" xlink:title="29">
<text text-anchor="middle" x="57.2692" y="-47.2978" font-family="Helvetica,sans-Serif" font-size="10.00">29</text>
</a>
</g>
<!-- dir_63b7357f9450ad7acaa914fca67749bb&#45;&gt;dir_f7b85038ab7aa457c95f185be9326487 -->
<g id="edge5" class="edge"><title>dir_63b7357f9450ad7acaa914fca67749bb&#45;&gt;dir_f7b85038ab7aa457c95f185be9326487</title>
<path fill="none" stroke="black" d="M58.8131,-215.831C63.0558,-207.792 68.1362,-198.167 72.8201,-189.292"/>
<polygon fill="black" stroke="black" points="75.9337,-190.891 77.506,-180.413 69.743,-187.623 75.9337,-190.891"/>
<a xlink:href="dir_000040_000019.html" target="_top" xlink:title="4">
<text text-anchor="middle" x="76.7669" y="-192.895" font-family="Helvetica,sans-Serif" font-size="10.00">4</text>
</a>
</g>
<!-- dir_7b469e3992a467f4fffb7e78111bf18a&#45;&gt;dir_a7bc868a07a00fb60430363f39b25690 -->
<g id="edge15" class="edge"><title>dir_7b469e3992a467f4fffb7e78111bf18a&#45;&gt;dir_a7bc868a07a00fb60430363f39b25690</title>
<path fill="none" stroke="black" d="M106.551,-71.8314C97.6992,-63.219 86.9755,-52.7851 77.3346,-43.4048"/>
<polygon fill="black" stroke="black" points="79.4995,-40.6279 69.8914,-36.1628 74.618,-45.645 79.4995,-40.6279"/>
<a xlink:href="dir_000055_000005.html" target="_top" xlink:title="62">
<text text-anchor="middle" x="84.0558" y="-38.5996" font-family="Helvetica,sans-Serif" font-size="10.00">62</text>
</a>
</g>
<!-- dir_7b469e3992a467f4fffb7e78111bf18a&#45;&gt;dir_f7b85038ab7aa457c95f185be9326487 -->
<g id="edge17" class="edge"><title>dir_7b469e3992a467f4fffb7e78111bf18a&#45;&gt;dir_f7b85038ab7aa457c95f185be9326487</title>
<path fill="none" stroke="black" d="M121.482,-108.413C117.994,-116.484 113.104,-126.118 108.046,-134.978"/>
<polygon fill="black" stroke="black" points="104.882,-133.45 102.765,-143.831 110.894,-137.036 104.882,-133.45"/>
<a xlink:href="dir_000055_000019.html" target="_top" xlink:title="60">
<text text-anchor="middle" x="104.284" y="-126.408" font-family="Helvetica,sans-Serif" font-size="10.00">60</text>
</a>
</g>
<!-- dir_f7b85038ab7aa457c95f185be9326487&#45;&gt;dir_a7bc868a07a00fb60430363f39b25690 -->
<g id="edge19" class="edge"><title>dir_f7b85038ab7aa457c95f185be9326487&#45;&gt;dir_a7bc868a07a00fb60430363f39b25690</title>
<path fill="none" stroke="black" d="M82.6647,-143.762C76.4973,-119.093 65.439,-74.8598 58.2174,-45.9731"/>
<polygon fill="black" stroke="black" points="61.5674,-44.9421 55.7465,-36.0896 54.7764,-46.6399 61.5674,-44.9421"/>
<a xlink:href="dir_000019_000005.html" target="_top" xlink:title="85">
<text text-anchor="middle" x="65.1937" y="-45.2408" font-family="Helvetica,sans-Serif" font-size="10.00">85</text>
</a>
</g>
<!-- dir_f7b85038ab7aa457c95f185be9326487&#45;&gt;dir_7b469e3992a467f4fffb7e78111bf18a -->
<g id="edge21" class="edge"><title>dir_f7b85038ab7aa457c95f185be9326487&#45;&gt;dir_7b469e3992a467f4fffb7e78111bf18a</title>
<path fill="none" stroke="black" d="M90.8607,-143.831C94.3565,-135.708 99.2968,-125.964 104.408,-117.012"/>
<polygon fill="black" stroke="black" points="107.42,-118.796 109.53,-108.413 101.406,-115.214 107.42,-118.796"/>
<a xlink:href="dir_000019_000055.html" target="_top" xlink:title="1">
<text text-anchor="middle" x="108.02" y="-120.837" font-family="Helvetica,sans-Serif" font-size="10.00">1</text>
</a>
</g>
</g>
</svg>
