<?xml version="1.0" encoding="UTF-8" standalone="no"?>
<!DOCTYPE svg PUBLIC "-//W3C//DTD SVG 1.1//EN"
 "http://www.w3.org/Graphics/SVG/1.1/DTD/svg11.dtd">
<!-- Generated by graphviz version 2.26.3 (20100126.1600)
 -->
<!-- Title: G Pages: 1 -->
<svg width="326pt" height="233pt"
 viewBox="0.00 0.00 326.00 233.00" xmlns="http://www.w3.org/2000/svg" xmlns:xlink="http://www.w3.org/1999/xlink">
<g id="graph1" class="graph" transform="scale(1 1) rotate(0) translate(4 229)">
<title>G</title>
<polygon fill="white" stroke="white" points="-4,5 -4,-229 323,-229 323,5 -4,5"/>
<g id="graph2" class="cluster"><title>clusterdir_18fe6922e29c45285b63ff54cf62344c</title>
<a xlink:href="dir_18fe6922e29c45285b63ff54cf62344c.html" target="_top" xlink:title="gaia">
<polygon fill="#ddddee" stroke="black" points="8,-128 8,-217 310,-217 310,-128 8,-128"/>
<text text-anchor="middle" x="159" y="-204" font-family="Helvetica,sans-Serif" font-size="10.00">gaia</text>
</a>
</g>
<g id="graph3" class="cluster"><title>clusterdir_bb8f9943d16588809e0083b2e37e388f</title>
<a xlink:href="dir_bb8f9943d16588809e0083b2e37e388f.html" target="_top">
<polygon fill="#eeeeff" stroke="black" points="16,-136 16,-188 302,-188 302,-136 16,-136"/>
</a>
</g>
<!-- dir_bb8f9943d16588809e0083b2e37e388f -->
<g id="node3" class="node"><title>dir_bb8f9943d16588809e0083b2e37e388f</title>
<text text-anchor="middle" x="51" y="-159.5" font-family="Helvetica,sans-Serif" font-size="10.00">content</text>
</g>
<!-- dir_a7bc868a07a00fb60430363f39b25690 -->
<g id="node7" class="node"><title>dir_a7bc868a07a00fb60430363f39b25690</title>
<a xlink:href="dir_a7bc868a07a00fb60430363f39b25690.html" target="_top" xlink:title="base">
<polygon fill="none" stroke="black" points="188,-36 134,-36 134,-1.77636e-14 188,-3.55271e-15 188,-36"/>
<text text-anchor="middle" x="161" y="-15.5" font-family="Helvetica,sans-Serif" font-size="10.00">base</text>
</a>
</g>
<!-- dir_bb8f9943d16588809e0083b2e37e388f&#45;&gt;dir_a7bc868a07a00fb60430363f39b25690 -->
<g id="edge16" class="edge"><title>dir_bb8f9943d16588809e0083b2e37e388f&#45;&gt;dir_a7bc868a07a00fb60430363f39b25690</title>
<path fill="none" stroke="black" d="M50.6883,-143.733C51.2398,-124.238 54.7477,-93.2902 70,-72 83.3625,-53.3477 105.347,-40.042 124.36,-31.3058"/>
<polygon fill="black" stroke="black" points="125.902,-34.4522 133.686,-27.2653 123.119,-28.0291 125.902,-34.4522"/>
<a xlink:href="dir_000015_000005.html" target="_top" xlink:title="11">
<text text-anchor="middle" x="123.732" y="-35.9864" font-family="Helvetica,sans-Serif" font-size="10.00">11</text>
</a>
</g>
<!-- dir_dd83fb52e6a685a19b4f292c46afae48 -->
<g id="node4" class="node"><title>dir_dd83fb52e6a685a19b4f292c46afae48</title>
<a xlink:href="dir_dd83fb52e6a685a19b4f292c46afae48.html" target="_top" xlink:title="provider">
<polygon fill="white" stroke="black" points="150,-180 96,-180 96,-144 150,-144 150,-180"/>
<text text-anchor="middle" x="123" y="-159.5" font-family="Helvetica,sans-Serif" font-size="10.00">provider</text>
</a>
</g>
<!-- dir_8b4d5a991ae7b4a5030d88c7be6acac9 -->
<g id="node9" class="node"><title>dir_8b4d5a991ae7b4a5030d88c7be6acac9</title>
<a xlink:href="dir_8b4d5a991ae7b4a5030d88c7be6acac9.html" target="_top" xlink:title="graphics">
<polygon fill="none" stroke="black" points="133,-108 79,-108 79,-72 133,-72 133,-108"/>
<text text-anchor="middle" x="106" y="-87.5" font-family="Helvetica,sans-Serif" font-size="10.00">graphics</text>
</a>
</g>
<!-- dir_dd83fb52e6a685a19b4f292c46afae48&#45;&gt;dir_8b4d5a991ae7b4a5030d88c7be6acac9 -->
<g id="edge4" class="edge"><title>dir_dd83fb52e6a685a19b4f292c46afae48&#45;&gt;dir_8b4d5a991ae7b4a5030d88c7be6acac9</title>
<path fill="none" stroke="black" d="M118.71,-143.831C116.892,-136.131 114.73,-126.974 112.709,-118.417"/>
<polygon fill="black" stroke="black" points="116.052,-117.341 110.348,-108.413 109.239,-118.95 116.052,-117.341"/>
<a xlink:href="dir_000016_000036.html" target="_top" xlink:title="2">
<text text-anchor="middle" x="119.641" y="-117.687" font-family="Helvetica,sans-Serif" font-size="10.00">2</text>
</a>
</g>
<!-- dir_a40bfec2c24d6a38a8fcf07d2c9621b7 -->
<g id="node5" class="node"><title>dir_a40bfec2c24d6a38a8fcf07d2c9621b7</title>
<a xlink:href="dir_a40bfec2c24d6a38a8fcf07d2c9621b7.html" target="_top" xlink:title="res">
<polygon fill="white" stroke="black" points="222,-180 168,-180 168,-144 222,-144 222,-180"/>
<text text-anchor="middle" x="195" y="-159.5" font-family="Helvetica,sans-Serif" font-size="10.00">res</text>
</a>
</g>
<!-- dir_a40bfec2c24d6a38a8fcf07d2c9621b7&#45;&gt;dir_a7bc868a07a00fb60430363f39b25690 -->
<g id="edge8" class="edge"><title>dir_a40bfec2c24d6a38a8fcf07d2c9621b7&#45;&gt;dir_a7bc868a07a00fb60430363f39b25690</title>
<path fill="none" stroke="black" d="M189.574,-143.581C186.587,-133.177 182.908,-119.91 180,-108 174.957,-87.3476 170.021,-63.8366 166.444,-46.025"/>
<polygon fill="black" stroke="black" points="169.835,-45.1317 164.455,-36.0049 162.969,-46.4951 169.835,-45.1317"/>
<a xlink:href="dir_000017_000005.html" target="_top" xlink:title="7">
<text text-anchor="middle" x="173.32" y="-45.6046" font-family="Helvetica,sans-Serif" font-size="10.00">7</text>
</a>
</g>
<!-- dir_3f294fe57dd4b169cf6323a211c2c0d4 -->
<g id="node8" class="node"><title>dir_3f294fe57dd4b169cf6323a211c2c0d4</title>
<a xlink:href="dir_3f294fe57dd4b169cf6323a211c2c0d4.html" target="_top" xlink:title="storage">
<polygon fill="none" stroke="black" points="243,-108 189,-108 189,-72 243,-72 243,-108"/>
<text text-anchor="middle" x="216" y="-87.5" font-family="Helvetica,sans-Serif" font-size="10.00">storage</text>
</a>
</g>
<!-- dir_a40bfec2c24d6a38a8fcf07d2c9621b7&#45;&gt;dir_3f294fe57dd4b169cf6323a211c2c0d4 -->
<g id="edge10" class="edge"><title>dir_a40bfec2c24d6a38a8fcf07d2c9621b7&#45;&gt;dir_3f294fe57dd4b169cf6323a211c2c0d4</title>
<path fill="none" stroke="black" d="M200.299,-143.831C202.57,-136.046 205.275,-126.773 207.794,-118.135"/>
<polygon fill="black" stroke="black" points="211.189,-118.993 210.629,-108.413 204.469,-117.033 211.189,-118.993"/>
<a xlink:href="dir_000017_000048.html" target="_top" xlink:title="1">
<text text-anchor="middle" x="212.909" y="-120.739" font-family="Helvetica,sans-Serif" font-size="10.00">1</text>
</a>
</g>
<!-- dir_4eb0c27064e418c88fd5b94b897a41c0 -->
<g id="node6" class="node"><title>dir_4eb0c27064e418c88fd5b94b897a41c0</title>
<a xlink:href="dir_4eb0c27064e418c88fd5b94b897a41c0.html" target="_top" xlink:title="sync">
<polygon fill="white" stroke="black" points="294,-180 240,-180 240,-144 294,-144 294,-180"/>
<text text-anchor="middle" x="267" y="-159.5" font-family="Helvetica,sans-Serif" font-size="10.00">sync</text>
</a>
</g>
<!-- dir_4eb0c27064e418c88fd5b94b897a41c0&#45;&gt;dir_a7bc868a07a00fb60430363f39b25690 -->
<g id="edge6" class="edge"><title>dir_4eb0c27064e418c88fd5b94b897a41c0&#45;&gt;dir_a7bc868a07a00fb60430363f39b25690</title>
<path fill="none" stroke="black" d="M268.266,-143.79C268.702,-124.345 266.673,-93.4381 252,-72 238.952,-52.9356 216.764,-39.5707 197.565,-30.9061"/>
<polygon fill="black" stroke="black" points="198.721,-27.5947 188.148,-26.9121 195.988,-34.039 198.721,-27.5947"/>
<a xlink:href="dir_000018_000005.html" target="_top" xlink:title="3">
<text text-anchor="middle" x="203.139" y="-23.8843" font-family="Helvetica,sans-Serif" font-size="10.00">3</text>
</a>
</g>
<!-- dir_3f294fe57dd4b169cf6323a211c2c0d4&#45;&gt;dir_a7bc868a07a00fb60430363f39b25690 -->
<g id="edge12" class="edge"><title>dir_3f294fe57dd4b169cf6323a211c2c0d4&#45;&gt;dir_a7bc868a07a00fb60430363f39b25690</title>
<path fill="none" stroke="black" d="M202.121,-71.8314C195.786,-63.5386 188.162,-53.557 181.207,-44.4533"/>
<polygon fill="black" stroke="black" points="183.917,-42.2353 175.066,-36.4133 178.355,-46.4847 183.917,-42.2353"/>
<a xlink:href="dir_000048_000005.html" target="_top" xlink:title="10">
<text text-anchor="middle" x="188.356" y="-40.8683" font-family="Helvetica,sans-Serif" font-size="10.00">10</text>
</a>
</g>
<!-- dir_8b4d5a991ae7b4a5030d88c7be6acac9&#45;&gt;dir_a7bc868a07a00fb60430363f39b25690 -->
<g id="edge14" class="edge"><title>dir_8b4d5a991ae7b4a5030d88c7be6acac9&#45;&gt;dir_a7bc868a07a00fb60430363f39b25690</title>
<path fill="none" stroke="black" d="M119.879,-71.8314C126.214,-63.5386 133.838,-53.557 140.793,-44.4533"/>
<polygon fill="black" stroke="black" points="143.645,-46.4847 146.934,-36.4133 138.083,-42.2353 143.645,-46.4847"/>
<a xlink:href="dir_000036_000005.html" target="_top" xlink:title="13">
<text text-anchor="middle" x="143.719" y="-48.5647" font-family="Helvetica,sans-Serif" font-size="10.00">13</text>
</a>
</g>
</g>
</svg>
