<?xml version="1.0" encoding="UTF-8" standalone="no"?>
<!DOCTYPE svg PUBLIC "-//W3C//DTD SVG 1.1//EN"
 "http://www.w3.org/Graphics/SVG/1.1/DTD/svg11.dtd">
<!-- Generated by graphviz version 2.26.3 (20100126.1600)
 -->
<!-- Title: G Pages: 1 -->
<svg width="219pt" height="225pt"
 viewBox="0.00 0.00 219.26 225.00" xmlns="http://www.w3.org/2000/svg" xmlns:xlink="http://www.w3.org/1999/xlink">
<g id="graph1" class="graph" transform="scale(1 1) rotate(0) translate(4 221)">
<title>G</title>
<polygon fill="white" stroke="white" points="-4,5 -4,-221 216.257,-221 216.257,5 -4,5"/>
<g id="graph2" class="cluster"><title>clusterdir_f7b85038ab7aa457c95f185be9326487</title>
<a xlink:href="dir_f7b85038ab7aa457c95f185be9326487.html" target="_top" xlink:title="core">
<polygon fill="#ddddee" stroke="black" points="41.2574,-136 41.2574,-209 111.257,-209 111.257,-136 41.2574,-136"/>
<text text-anchor="middle" x="76.2574" y="-196" font-family="Helvetica,sans-Serif" font-size="10.00">core</text>
</a>
</g>
<!-- dir_67f7c8f8d832371c400e5a5bfb84bbd2 -->
<g id="node2" class="node"><title>dir_67f7c8f8d832371c400e5a5bfb84bbd2</title>
<a xlink:href="dir_67f7c8f8d832371c400e5a5bfb84bbd2.html" target="_top" xlink:title="vision">
<polygon fill="#eeeeff" stroke="black" points="103.257,-180 49.2574,-180 49.2574,-144 103.257,-144 103.257,-180"/>
<text text-anchor="middle" x="76.2574" y="-159.5" font-family="Helvetica,sans-Serif" font-size="10.00">vision</text>
</a>
</g>
<!-- dir_a7bc868a07a00fb60430363f39b25690 -->
<g id="node3" class="node"><title>dir_a7bc868a07a00fb60430363f39b25690</title>
<a xlink:href="dir_a7bc868a07a00fb60430363f39b25690.html" target="_top" xlink:title="base">
<polygon fill="none" stroke="black" points="67.2574,-36 13.2574,-36 13.2574,-1.77636e-14 67.2574,-3.55271e-15 67.2574,-36"/>
<text text-anchor="middle" x="40.2574" y="-15.5" font-family="Helvetica,sans-Serif" font-size="10.00">base</text>
</a>
</g>
<!-- dir_67f7c8f8d832371c400e5a5bfb84bbd2&#45;&gt;dir_a7bc868a07a00fb60430363f39b25690 -->
<g id="edge5" class="edge"><title>dir_67f7c8f8d832371c400e5a5bfb84bbd2&#45;&gt;dir_a7bc868a07a00fb60430363f39b25690</title>
<path fill="none" stroke="black" d="M49.1665,-149.656C32.9091,-140.645 13.621,-126.727 4.25744,-108 -6.0908,-87.3035 5.06275,-62.8758 17.6058,-44.6957"/>
<polygon fill="black" stroke="black" points="20.6671,-46.4416 23.7868,-36.3165 15.0339,-42.2862 20.6671,-46.4416"/>
<a xlink:href="dir_000032_000005.html" target="_top" xlink:title="4">
<text text-anchor="middle" x="20.8181" y="-48.5198" font-family="Helvetica,sans-Serif" font-size="10.00">4</text>
</a>
</g>
<!-- dir_cdb9a105f3f934c87d63405aa4d1140a -->
<g id="node4" class="node"><title>dir_cdb9a105f3f934c87d63405aa4d1140a</title>
<a xlink:href="dir_cdb9a105f3f934c87d63405aa4d1140a.html" target="_top" xlink:title="event">
<polygon fill="none" stroke="black" points="67.2574,-108 13.2574,-108 13.2574,-72 67.2574,-72 67.2574,-108"/>
<text text-anchor="middle" x="40.2574" y="-87.5" font-family="Helvetica,sans-Serif" font-size="10.00">event</text>
</a>
</g>
<!-- dir_67f7c8f8d832371c400e5a5bfb84bbd2&#45;&gt;dir_cdb9a105f3f934c87d63405aa4d1140a -->
<g id="edge7" class="edge"><title>dir_67f7c8f8d832371c400e5a5bfb84bbd2&#45;&gt;dir_cdb9a105f3f934c87d63405aa4d1140a</title>
<path fill="none" stroke="black" d="M67.1731,-143.831C63.196,-135.877 58.442,-126.369 54.0436,-117.572"/>
<polygon fill="black" stroke="black" points="57.0668,-115.792 49.4641,-108.413 50.8058,-118.923 57.0668,-115.792"/>
<a xlink:href="dir_000032_000024.html" target="_top" xlink:title="3">
<text text-anchor="middle" x="61.2138" y="-115.238" font-family="Helvetica,sans-Serif" font-size="10.00">3</text>
</a>
</g>
<!-- dir_4c9a53a1ebd686896279347772212745 -->
<g id="node5" class="node"><title>dir_4c9a53a1ebd686896279347772212745</title>
<a xlink:href="dir_4c9a53a1ebd686896279347772212745.html" target="_top" xlink:title="animator">
<polygon fill="none" stroke="black" points="139.257,-108 85.2574,-108 85.2574,-72 139.257,-72 139.257,-108"/>
<text text-anchor="middle" x="112.257" y="-87.5" font-family="Helvetica,sans-Serif" font-size="10.00">animator</text>
</a>
</g>
<!-- dir_67f7c8f8d832371c400e5a5bfb84bbd2&#45;&gt;dir_4c9a53a1ebd686896279347772212745 -->
<g id="edge9" class="edge"><title>dir_67f7c8f8d832371c400e5a5bfb84bbd2&#45;&gt;dir_4c9a53a1ebd686896279347772212745</title>
<path fill="none" stroke="black" d="M85.3418,-143.831C89.3189,-135.877 94.0729,-126.369 98.4713,-117.572"/>
<polygon fill="black" stroke="black" points="101.709,-118.923 103.051,-108.413 95.4481,-115.792 101.709,-118.923"/>
<a xlink:href="dir_000032_000021.html" target="_top" xlink:title="1">
<text text-anchor="middle" x="102.641" y="-120.908" font-family="Helvetica,sans-Serif" font-size="10.00">1</text>
</a>
</g>
<!-- dir_8b4d5a991ae7b4a5030d88c7be6acac9 -->
<g id="node6" class="node"><title>dir_8b4d5a991ae7b4a5030d88c7be6acac9</title>
<a xlink:href="dir_8b4d5a991ae7b4a5030d88c7be6acac9.html" target="_top" xlink:title="graphics">
<polygon fill="none" stroke="black" points="211.257,-108 157.257,-108 157.257,-72 211.257,-72 211.257,-108"/>
<text text-anchor="middle" x="184.257" y="-87.5" font-family="Helvetica,sans-Serif" font-size="10.00">graphics</text>
</a>
</g>
<!-- dir_67f7c8f8d832371c400e5a5bfb84bbd2&#45;&gt;dir_8b4d5a991ae7b4a5030d88c7be6acac9 -->
<g id="edge11" class="edge"><title>dir_67f7c8f8d832371c400e5a5bfb84bbd2&#45;&gt;dir_8b4d5a991ae7b4a5030d88c7be6acac9</title>
<path fill="none" stroke="black" d="M103.51,-143.831C117.196,-134.707 133.949,-123.539 148.64,-113.745"/>
<polygon fill="black" stroke="black" points="150.634,-116.622 157.013,-108.163 146.751,-110.798 150.634,-116.622"/>
<a xlink:href="dir_000032_000036.html" target="_top" xlink:title="1">
<text text-anchor="middle" x="149.218" y="-118.478" font-family="Helvetica,sans-Serif" font-size="10.00">1</text>
</a>
</g>
<!-- dir_cdb9a105f3f934c87d63405aa4d1140a&#45;&gt;dir_a7bc868a07a00fb60430363f39b25690 -->
<g id="edge3" class="edge"><title>dir_cdb9a105f3f934c87d63405aa4d1140a&#45;&gt;dir_a7bc868a07a00fb60430363f39b25690</title>
<path fill="none" stroke="black" d="M40.2574,-71.8314C40.2574,-64.131 40.2574,-54.9743 40.2574,-46.4166"/>
<polygon fill="black" stroke="black" points="43.7575,-46.4132 40.2574,-36.4133 36.7575,-46.4133 43.7575,-46.4132"/>
<a xlink:href="dir_000024_000005.html" target="_top" xlink:title="1">
<text text-anchor="middle" x="46.5967" y="-47.5079" font-family="Helvetica,sans-Serif" font-size="10.00">1</text>
</a>
</g>
<!-- dir_8b4d5a991ae7b4a5030d88c7be6acac9&#45;&gt;dir_a7bc868a07a00fb60430363f39b25690 -->
<g id="edge13" class="edge"><title>dir_8b4d5a991ae7b4a5030d88c7be6acac9&#45;&gt;dir_a7bc868a07a00fb60430363f39b25690</title>
<path fill="none" stroke="black" d="M157.172,-76.4574C134.488,-65.1153 101.901,-48.8217 76.8894,-36.316"/>
<polygon fill="black" stroke="black" points="78.2204,-33.0684 67.7109,-31.7267 75.0899,-39.3294 78.2204,-33.0684"/>
<a xlink:href="dir_000036_000005.html" target="_top" xlink:title="13">
<text text-anchor="middle" x="82.7053" y="-29.6364" font-family="Helvetica,sans-Serif" font-size="10.00">13</text>
</a>
</g>
</g>
</svg>
