<?xml version="1.0" encoding="UTF-8" standalone="no"?>
<!DOCTYPE svg PUBLIC "-//W3C//DTD SVG 1.1//EN"
 "http://www.w3.org/Graphics/SVG/1.1/DTD/svg11.dtd">
<!-- Generated by graphviz version 2.26.3 (20100126.1600)
 -->
<!-- Title: G Pages: 1 -->
<svg width="912pt" height="545pt"
 viewBox="0.00 0.00 912.00 545.00" xmlns="http://www.w3.org/2000/svg" xmlns:xlink="http://www.w3.org/1999/xlink">
<g id="graph1" class="graph" transform="scale(1 1) rotate(0) translate(4 541)">
<title>G</title>
<polygon fill="white" stroke="white" points="-4,5 -4,-541 909,-541 909,5 -4,5"/>
<g id="graph2" class="cluster"><title>clusterdir_0a2191738eaf1a89d8dba65a5e0e62dd</title>
<a xlink:href="dir_0a2191738eaf1a89d8dba65a5e0e62dd.html" target="_top" xlink:title="include">
<polygon fill="#ddddee" stroke="black" points="8,-8 8,-529 896,-529 896,-8 8,-8"/>
<text text-anchor="middle" x="452" y="-516" font-family="Helvetica,sans-Serif" font-size="10.00">include</text>
</a>
</g>
<g id="graph3" class="cluster"><title>clusterdir_18fe6922e29c45285b63ff54cf62344c</title>
<a xlink:href="dir_18fe6922e29c45285b63ff54cf62344c.html" target="_top">
<polygon fill="#eeeeff" stroke="black" points="16,-16 16,-500 888,-500 888,-16 16,-16"/>
</a>
</g>
<!-- dir_18fe6922e29c45285b63ff54cf62344c -->
<g id="node3" class="node"><title>dir_18fe6922e29c45285b63ff54cf62344c</title>
<text text-anchor="middle" x="619" y="-471.5" font-family="Helvetica,sans-Serif" font-size="10.00">gaia</text>
</g>
<!-- dir_e7a42b22ddc17b0fea3f792a380b034e -->
<g id="node4" class="node"><title>dir_e7a42b22ddc17b0fea3f792a380b034e</title>
<a xlink:href="dir_e7a42b22ddc17b0fea3f792a380b034e.html" target="_top" xlink:title="accounts">
<polygon fill="white" stroke="black" points="364,-348 308,-348 308,-312 364,-312 364,-348"/>
<text text-anchor="middle" x="336" y="-327.5" font-family="Helvetica,sans-Serif" font-size="10.00">accounts</text>
</a>
</g>
<!-- dir_f7b85038ab7aa457c95f185be9326487 -->
<g id="node11" class="node"><title>dir_f7b85038ab7aa457c95f185be9326487</title>
<a xlink:href="dir_f7b85038ab7aa457c95f185be9326487.html" target="_top" xlink:title="core">
<polygon fill="white" stroke="red" points="440,-276 386,-276 386,-240 440,-240 440,-276"/>
<text text-anchor="middle" x="413" y="-255.5" font-family="Helvetica,sans-Serif" font-size="10.00">core</text>
</a>
</g>
<!-- dir_e7a42b22ddc17b0fea3f792a380b034e&#45;&gt;dir_f7b85038ab7aa457c95f185be9326487 -->
<g id="edge98" class="edge"><title>dir_e7a42b22ddc17b0fea3f792a380b034e&#45;&gt;dir_f7b85038ab7aa457c95f185be9326487</title>
<path fill="none" stroke="black" d="M355.43,-311.831C364.732,-303.134 376.02,-292.578 386.129,-283.127"/>
<polygon fill="black" stroke="black" points="388.662,-285.549 393.576,-276.163 383.881,-280.436 388.662,-285.549"/>
<a xlink:href="dir_000002_000019.html" target="_top" xlink:title="2">
<text text-anchor="middle" x="387.976" y="-287.578" font-family="Helvetica,sans-Serif" font-size="10.00">2</text>
</a>
</g>
<!-- dir_10582cf0d42059542d28ad8c29079d16 -->
<g id="node5" class="node"><title>dir_10582cf0d42059542d28ad8c29079d16</title>
<a xlink:href="dir_10582cf0d42059542d28ad8c29079d16.html" target="_top" xlink:title="admin">
<polygon fill="white" stroke="black" points="868,-348 814,-348 814,-312 868,-312 868,-348"/>
<text text-anchor="middle" x="841" y="-327.5" font-family="Helvetica,sans-Serif" font-size="10.00">admin</text>
</a>
</g>
<!-- dir_a7bc868a07a00fb60430363f39b25690 -->
<g id="node7" class="node"><title>dir_a7bc868a07a00fb60430363f39b25690</title>
<a xlink:href="dir_a7bc868a07a00fb60430363f39b25690.html" target="_top" xlink:title="base">
<polygon fill="white" stroke="black" points="418,-60 364,-60 364,-24 418,-24 418,-60"/>
<text text-anchor="middle" x="391" y="-39.5" font-family="Helvetica,sans-Serif" font-size="10.00">base</text>
</a>
</g>
<!-- dir_10582cf0d42059542d28ad8c29079d16&#45;&gt;dir_a7bc868a07a00fb60430363f39b25690 -->
<g id="edge66" class="edge"><title>dir_10582cf0d42059542d28ad8c29079d16&#45;&gt;dir_a7bc868a07a00fb60430363f39b25690</title>
<path fill="none" stroke="black" d="M850.455,-311.686C871.453,-268.172 915.95,-157.625 861,-96 832.297,-63.8106 534.314,-48.0912 428.237,-43.4842"/>
<polygon fill="black" stroke="black" points="428.145,-39.9772 418.005,-43.0486 427.847,-46.9709 428.145,-39.9772"/>
<a xlink:href="dir_000003_000005.html" target="_top" xlink:title="1">
<text text-anchor="middle" x="431.857" y="-34.7933" font-family="Helvetica,sans-Serif" font-size="10.00">1</text>
</a>
</g>
<!-- dir_10582cf0d42059542d28ad8c29079d16&#45;&gt;dir_f7b85038ab7aa457c95f185be9326487 -->
<g id="edge68" class="edge"><title>dir_10582cf0d42059542d28ad8c29079d16&#45;&gt;dir_f7b85038ab7aa457c95f185be9326487</title>
<path fill="none" stroke="black" d="M813.811,-325.307C792.615,-321.657 762.442,-316.477 736,-312 632.616,-294.497 510.554,-274.187 450.382,-264.198"/>
<polygon fill="black" stroke="black" points="450.669,-260.698 440.231,-262.514 449.523,-267.604 450.669,-260.698"/>
<a xlink:href="dir_000003_000019.html" target="_top" xlink:title="1">
<text text-anchor="middle" x="454.68" y="-255.985" font-family="Helvetica,sans-Serif" font-size="10.00">1</text>
</a>
</g>
<!-- dir_353e9b2aafc8820588e893ba109878df -->
<g id="node6" class="node"><title>dir_353e9b2aafc8820588e893ba109878df</title>
<a xlink:href="dir_353e9b2aafc8820588e893ba109878df.html" target="_top" xlink:title="ads">
<polygon fill="white" stroke="black" points="566,-204 512,-204 512,-168 566,-168 566,-204"/>
<text text-anchor="middle" x="539" y="-183.5" font-family="Helvetica,sans-Serif" font-size="10.00">ads</text>
</a>
</g>
<!-- dir_353e9b2aafc8820588e893ba109878df&#45;&gt;dir_a7bc868a07a00fb60430363f39b25690 -->
<g id="edge6" class="edge"><title>dir_353e9b2aafc8820588e893ba109878df&#45;&gt;dir_a7bc868a07a00fb60430363f39b25690</title>
<path fill="none" stroke="black" d="M543.592,-167.883C547.444,-148.232 550.167,-116.88 535,-96 522.072,-78.2024 466.128,-60.9441 427.9,-50.9042"/>
<polygon fill="black" stroke="black" points="428.675,-47.4899 418.119,-48.3904 426.933,-54.2696 428.675,-47.4899"/>
<a xlink:href="dir_000004_000005.html" target="_top" xlink:title="4">
<text text-anchor="middle" x="432.863" y="-43.1347" font-family="Helvetica,sans-Serif" font-size="10.00">4</text>
</a>
</g>
<!-- dir_8b4d5a991ae7b4a5030d88c7be6acac9 -->
<g id="node13" class="node"><title>dir_8b4d5a991ae7b4a5030d88c7be6acac9</title>
<a xlink:href="dir_8b4d5a991ae7b4a5030d88c7be6acac9.html" target="_top" xlink:title="graphics">
<polygon fill="white" stroke="black" points="382,-132 328,-132 328,-96 382,-96 382,-132"/>
<text text-anchor="middle" x="355" y="-111.5" font-family="Helvetica,sans-Serif" font-size="10.00">graphics</text>
</a>
</g>
<!-- dir_353e9b2aafc8820588e893ba109878df&#45;&gt;dir_8b4d5a991ae7b4a5030d88c7be6acac9 -->
<g id="edge8" class="edge"><title>dir_353e9b2aafc8820588e893ba109878df&#45;&gt;dir_8b4d5a991ae7b4a5030d88c7be6acac9</title>
<path fill="none" stroke="black" d="M511.794,-173.652C507.218,-171.691 502.495,-169.739 498,-168 453.946,-150.958 439.068,-151.172 391.593,-131.977"/>
<polygon fill="black" stroke="black" points="392.914,-128.736 382.334,-128.159 390.244,-135.207 392.914,-128.736"/>
<a xlink:href="dir_000004_000036.html" target="_top" xlink:title="1">
<text text-anchor="middle" x="397.319" y="-124.982" font-family="Helvetica,sans-Serif" font-size="10.00">1</text>
</a>
</g>
<!-- dir_99a710a9224aa909723084f3225a2a90 -->
<g id="node8" class="node"><title>dir_99a710a9224aa909723084f3225a2a90</title>
<a xlink:href="dir_99a710a9224aa909723084f3225a2a90.html" target="_top" xlink:title="cloudstorage">
<polygon fill="white" stroke="black" points="840,-132 768,-132 768,-96 840,-96 840,-132"/>
<text text-anchor="middle" x="804" y="-111.5" font-family="Helvetica,sans-Serif" font-size="10.00">cloudstorage</text>
</a>
</g>
<!-- dir_99a710a9224aa909723084f3225a2a90&#45;&gt;dir_a7bc868a07a00fb60430363f39b25690 -->
<g id="edge100" class="edge"><title>dir_99a710a9224aa909723084f3225a2a90&#45;&gt;dir_a7bc868a07a00fb60430363f39b25690</title>
<path fill="none" stroke="black" d="M767.94,-100.068C763.292,-98.554 758.563,-97.1487 754,-96 636.995,-66.5451 494.463,-51.1189 428.193,-45.0841"/>
<polygon fill="black" stroke="black" points="428.499,-41.5976 418.228,-44.1955 427.877,-48.5699 428.499,-41.5976"/>
<a xlink:href="dir_000006_000005.html" target="_top" xlink:title="4">
<text text-anchor="middle" x="432.332" y="-36.5887" font-family="Helvetica,sans-Serif" font-size="10.00">4</text>
</a>
</g>
<!-- dir_e19b89b0bcebf892823e240a4c131c64 -->
<g id="node9" class="node"><title>dir_e19b89b0bcebf892823e240a4c131c64</title>
<a xlink:href="dir_e19b89b0bcebf892823e240a4c131c64.html" target="_top" xlink:title="connectivity">
<polygon fill="white" stroke="red" points="727,-348 659,-348 659,-312 727,-312 727,-348"/>
<text text-anchor="middle" x="693" y="-327.5" font-family="Helvetica,sans-Serif" font-size="10.00">connectivity</text>
</a>
</g>
<!-- dir_e19b89b0bcebf892823e240a4c131c64&#45;&gt;dir_a7bc868a07a00fb60430363f39b25690 -->
<g id="edge76" class="edge"><title>dir_e19b89b0bcebf892823e240a4c131c64&#45;&gt;dir_a7bc868a07a00fb60430363f39b25690</title>
<path fill="none" stroke="black" d="M705.335,-311.954C733.018,-269.026 793.55,-159.667 739,-96 718.904,-72.5452 513.708,-52.4728 428.147,-45.0568"/>
<polygon fill="black" stroke="black" points="428.35,-41.5615 418.088,-44.1956 427.753,-48.536 428.35,-41.5615"/>
<a xlink:href="dir_000007_000005.html" target="_top" xlink:title="102">
<text text-anchor="middle" x="432.174" y="-36.5391" font-family="Helvetica,sans-Serif" font-size="10.00">102</text>
</a>
</g>
<!-- dir_e19b89b0bcebf892823e240a4c131c64&#45;&gt;dir_f7b85038ab7aa457c95f185be9326487 -->
<g id="edge82" class="edge"><title>dir_e19b89b0bcebf892823e240a4c131c64&#45;&gt;dir_f7b85038ab7aa457c95f185be9326487</title>
<path fill="none" stroke="black" d="M658.946,-321.243C606.096,-307.653 504.735,-281.589 450.091,-267.538"/>
<polygon fill="black" stroke="black" points="450.689,-264.078 440.133,-264.977 448.946,-270.857 450.689,-264.078"/>
<a xlink:href="dir_000007_000019.html" target="_top" xlink:title="2">
<text text-anchor="middle" x="454.878" y="-259.723" font-family="Helvetica,sans-Serif" font-size="10.00">2</text>
</a>
</g>
<!-- dir_3f294fe57dd4b169cf6323a211c2c0d4 -->
<g id="node21" class="node"><title>dir_3f294fe57dd4b169cf6323a211c2c0d4</title>
<a xlink:href="dir_3f294fe57dd4b169cf6323a211c2c0d4.html" target="_top" xlink:title="storage">
<polygon fill="white" stroke="black" points="290,-132 236,-132 236,-96 290,-96 290,-132"/>
<text text-anchor="middle" x="263" y="-111.5" font-family="Helvetica,sans-Serif" font-size="10.00">storage</text>
</a>
</g>
<!-- dir_e19b89b0bcebf892823e240a4c131c64&#45;&gt;dir_3f294fe57dd4b169cf6323a211c2c0d4 -->
<g id="edge78" class="edge"><title>dir_e19b89b0bcebf892823e240a4c131c64&#45;&gt;dir_3f294fe57dd4b169cf6323a211c2c0d4</title>
<path fill="none" stroke="black" d="M665.907,-311.905C617.215,-279.918 511.02,-212.56 415,-168 394.188,-158.342 337.746,-138.924 299.811,-126.198"/>
<polygon fill="black" stroke="black" points="300.717,-122.81 290.124,-122.958 298.497,-129.449 300.717,-122.81"/>
<a xlink:href="dir_000007_000048.html" target="_top" xlink:title="4">
<text text-anchor="middle" x="305.027" y="-118.757" font-family="Helvetica,sans-Serif" font-size="10.00">4</text>
</a>
</g>
<!-- dir_1f2958ab8ee59f169a9a7c7f68479f4e -->
<g id="node23" class="node"><title>dir_1f2958ab8ee59f169a9a7c7f68479f4e</title>
<a xlink:href="dir_1f2958ab8ee59f169a9a7c7f68479f4e.html" target="_top" xlink:title="telephony">
<polygon fill="white" stroke="red" points="843,-276 785,-276 785,-240 843,-240 843,-276"/>
<text text-anchor="middle" x="814" y="-255.5" font-family="Helvetica,sans-Serif" font-size="10.00">telephony</text>
</a>
</g>
<!-- dir_e19b89b0bcebf892823e240a4c131c64&#45;&gt;dir_1f2958ab8ee59f169a9a7c7f68479f4e -->
<g id="edge80" class="edge"><title>dir_e19b89b0bcebf892823e240a4c131c64&#45;&gt;dir_1f2958ab8ee59f169a9a7c7f68479f4e</title>
<path fill="none" stroke="black" d="M723.533,-311.831C739.364,-302.411 758.858,-290.812 775.691,-280.796"/>
<polygon fill="black" stroke="black" points="777.925,-283.539 784.729,-275.418 774.345,-277.524 777.925,-283.539"/>
<a xlink:href="dir_000007_000033.html" target="_top" xlink:title="1">
<text text-anchor="middle" x="776.287" y="-285.317" font-family="Helvetica,sans-Serif" font-size="10.00">1</text>
</a>
</g>
<!-- dir_bb8f9943d16588809e0083b2e37e388f -->
<g id="node10" class="node"><title>dir_bb8f9943d16588809e0083b2e37e388f</title>
<a xlink:href="dir_bb8f9943d16588809e0083b2e37e388f.html" target="_top" xlink:title="content">
<polygon fill="white" stroke="red" points="322,-204 268,-204 268,-168 322,-168 322,-204"/>
<text text-anchor="middle" x="295" y="-183.5" font-family="Helvetica,sans-Serif" font-size="10.00">content</text>
</a>
</g>
<!-- dir_bb8f9943d16588809e0083b2e37e388f&#45;&gt;dir_a7bc868a07a00fb60430363f39b25690 -->
<g id="edge102" class="edge"><title>dir_bb8f9943d16588809e0083b2e37e388f&#45;&gt;dir_a7bc868a07a00fb60430363f39b25690</title>
<path fill="none" stroke="black" d="M267.675,-170.799C247.503,-158.936 222.618,-142.723 217,-132 209.574,-117.828 207.51,-108.882 217,-96 233.308,-73.8641 307.713,-56.8894 353.785,-48.2747"/>
<polygon fill="black" stroke="black" points="354.505,-51.7013 363.715,-46.4649 353.25,-44.8147 354.505,-51.7013"/>
<a xlink:href="dir_000015_000005.html" target="_top" xlink:title="11">
<text text-anchor="middle" x="351.478" y="-52.639" font-family="Helvetica,sans-Serif" font-size="10.00">11</text>
</a>
</g>
<!-- dir_bb8f9943d16588809e0083b2e37e388f&#45;&gt;dir_8b4d5a991ae7b4a5030d88c7be6acac9 -->
<g id="edge106" class="edge"><title>dir_bb8f9943d16588809e0083b2e37e388f&#45;&gt;dir_8b4d5a991ae7b4a5030d88c7be6acac9</title>
<path fill="none" stroke="black" d="M310.141,-167.831C317.122,-159.454 325.539,-149.353 333.188,-140.175"/>
<polygon fill="black" stroke="black" points="335.943,-142.336 339.656,-132.413 330.565,-137.855 335.943,-142.336"/>
<a xlink:href="dir_000015_000036.html" target="_top" xlink:title="2">
<text text-anchor="middle" x="335.823" y="-144.415" font-family="Helvetica,sans-Serif" font-size="10.00">2</text>
</a>
</g>
<!-- dir_bb8f9943d16588809e0083b2e37e388f&#45;&gt;dir_3f294fe57dd4b169cf6323a211c2c0d4 -->
<g id="edge104" class="edge"><title>dir_bb8f9943d16588809e0083b2e37e388f&#45;&gt;dir_3f294fe57dd4b169cf6323a211c2c0d4</title>
<path fill="none" stroke="black" d="M286.925,-167.831C283.39,-159.877 279.164,-150.369 275.254,-141.572"/>
<polygon fill="black" stroke="black" points="278.443,-140.13 271.184,-132.413 272.047,-142.973 278.443,-140.13"/>
<a xlink:href="dir_000015_000048.html" target="_top" xlink:title="1">
<text text-anchor="middle" x="282.498" y="-139.762" font-family="Helvetica,sans-Serif" font-size="10.00">1</text>
</a>
</g>
<!-- dir_f7b85038ab7aa457c95f185be9326487&#45;&gt;dir_a7bc868a07a00fb60430363f39b25690 -->
<g id="edge90" class="edge"><title>dir_f7b85038ab7aa457c95f185be9326487&#45;&gt;dir_a7bc868a07a00fb60430363f39b25690</title>
<path fill="none" stroke="black" d="M419.246,-239.646C424.673,-220.078 429.599,-189.067 415,-168 389.045,-130.546 344.955,-169.454 319,-132 309.886,-118.849 311.845,-110.311 319,-96 326.681,-80.638 341.04,-68.5124 354.927,-59.6761"/>
<polygon fill="black" stroke="black" points="357.097,-62.4582 363.909,-54.3435 353.524,-56.439 357.097,-62.4582"/>
<a xlink:href="dir_000019_000005.html" target="_top" xlink:title="85">
<text text-anchor="middle" x="355.456" y="-64.2346" font-family="Helvetica,sans-Serif" font-size="10.00">85</text>
</a>
</g>
<!-- dir_f7b85038ab7aa457c95f185be9326487&#45;&gt;dir_8b4d5a991ae7b4a5030d88c7be6acac9 -->
<g id="edge94" class="edge"><title>dir_f7b85038ab7aa457c95f185be9326487&#45;&gt;dir_8b4d5a991ae7b4a5030d88c7be6acac9</title>
<path fill="none" stroke="black" d="M425.703,-239.848C437.187,-220.999 450.526,-191.093 438,-168 432.634,-158.106 411.041,-144.206 391.226,-132.986"/>
<polygon fill="black" stroke="black" points="392.755,-129.831 382.312,-128.043 389.36,-135.953 392.755,-129.831"/>
<a xlink:href="dir_000019_000036.html" target="_top" xlink:title="2">
<text text-anchor="middle" x="397.275" y="-126.591" font-family="Helvetica,sans-Serif" font-size="10.00">2</text>
</a>
</g>
<!-- dir_7b469e3992a467f4fffb7e78111bf18a -->
<g id="node26" class="node"><title>dir_7b469e3992a467f4fffb7e78111bf18a</title>
<a xlink:href="dir_7b469e3992a467f4fffb7e78111bf18a.html" target="_top" xlink:title="ui">
<polygon fill="white" stroke="red" points="394,-204 340,-204 340,-168 394,-168 394,-204"/>
<text text-anchor="middle" x="367" y="-183.5" font-family="Helvetica,sans-Serif" font-size="10.00">ui</text>
</a>
</g>
<!-- dir_f7b85038ab7aa457c95f185be9326487&#45;&gt;dir_7b469e3992a467f4fffb7e78111bf18a -->
<g id="edge92" class="edge"><title>dir_f7b85038ab7aa457c95f185be9326487&#45;&gt;dir_7b469e3992a467f4fffb7e78111bf18a</title>
<path fill="none" stroke="black" d="M395.44,-239.831C389.52,-231.792 383.164,-222.167 377.865,-213.292"/>
<polygon fill="black" stroke="black" points="380.79,-211.357 372.788,-204.413 374.714,-214.832 380.79,-211.357"/>
<a xlink:href="dir_000019_000055.html" target="_top" xlink:title="1">
<text text-anchor="middle" x="385.04" y="-210.568" font-family="Helvetica,sans-Serif" font-size="10.00">1</text>
</a>
</g>
<!-- dir_00f090a5459b9b7ea01d2d4a107ce2c6 -->
<g id="node12" class="node"><title>dir_00f090a5459b9b7ea01d2d4a107ce2c6</title>
<a xlink:href="dir_00f090a5459b9b7ea01d2d4a107ce2c6.html" target="_top" xlink:title="defcontainer">
<polygon fill="white" stroke="black" points="564,-348 494,-348 494,-312 564,-312 564,-348"/>
<text text-anchor="middle" x="529" y="-327.5" font-family="Helvetica,sans-Serif" font-size="10.00">defcontainer</text>
</a>
</g>
<!-- dir_00f090a5459b9b7ea01d2d4a107ce2c6&#45;&gt;dir_a7bc868a07a00fb60430363f39b25690 -->
<g id="edge72" class="edge"><title>dir_00f090a5459b9b7ea01d2d4a107ce2c6&#45;&gt;dir_a7bc868a07a00fb60430363f39b25690</title>
<path fill="none" stroke="black" d="M537.964,-311.78C549.229,-287.77 567.944,-243.901 575,-204 583.654,-155.059 581.971,-130.296 546,-96 513.665,-65.1707 462.8,-51.8492 428.23,-46.154"/>
<polygon fill="black" stroke="black" points="428.473,-42.6512 418.063,-44.6205 427.429,-49.5729 428.473,-42.6512"/>
<a xlink:href="dir_000035_000005.html" target="_top" xlink:title="2">
<text text-anchor="middle" x="432.451" y="-37.8797" font-family="Helvetica,sans-Serif" font-size="10.00">2</text>
</a>
</g>
<!-- dir_00f090a5459b9b7ea01d2d4a107ce2c6&#45;&gt;dir_f7b85038ab7aa457c95f185be9326487 -->
<g id="edge74" class="edge"><title>dir_00f090a5459b9b7ea01d2d4a107ce2c6&#45;&gt;dir_f7b85038ab7aa457c95f185be9326487</title>
<path fill="none" stroke="black" d="M499.728,-311.831C484.325,-302.271 465.305,-290.465 449.005,-280.348"/>
<polygon fill="black" stroke="black" points="450.612,-277.226 440.27,-274.926 446.921,-283.174 450.612,-277.226"/>
<a xlink:href="dir_000035_000019.html" target="_top" xlink:title="2">
<text text-anchor="middle" x="455.164" y="-274.209" font-family="Helvetica,sans-Serif" font-size="10.00">2</text>
</a>
</g>
<!-- dir_8b4d5a991ae7b4a5030d88c7be6acac9&#45;&gt;dir_a7bc868a07a00fb60430363f39b25690 -->
<g id="edge70" class="edge"><title>dir_8b4d5a991ae7b4a5030d88c7be6acac9&#45;&gt;dir_a7bc868a07a00fb60430363f39b25690</title>
<path fill="none" stroke="black" d="M364.084,-95.8314C368.061,-87.8771 372.815,-78.369 377.214,-69.5723"/>
<polygon fill="black" stroke="black" points="380.452,-70.9228 381.793,-60.4133 374.191,-67.7923 380.452,-70.9228"/>
<a xlink:href="dir_000036_000005.html" target="_top" xlink:title="13">
<text text-anchor="middle" x="381.384" y="-72.9077" font-family="Helvetica,sans-Serif" font-size="10.00">13</text>
</a>
</g>
<!-- dir_bb1383725203c1ec6cdfbde7c0b128b9 -->
<g id="node14" class="node"><title>dir_bb1383725203c1ec6cdfbde7c0b128b9</title>
<a xlink:href="dir_bb1383725203c1ec6cdfbde7c0b128b9.html" target="_top" xlink:title="input">
<polygon fill="white" stroke="black" points="638,-132 584,-132 584,-96 638,-96 638,-132"/>
<text text-anchor="middle" x="611" y="-111.5" font-family="Helvetica,sans-Serif" font-size="10.00">input</text>
</a>
</g>
<!-- dir_bb1383725203c1ec6cdfbde7c0b128b9&#45;&gt;dir_a7bc868a07a00fb60430363f39b25690 -->
<g id="edge84" class="edge"><title>dir_bb1383725203c1ec6cdfbde7c0b128b9&#45;&gt;dir_a7bc868a07a00fb60430363f39b25690</title>
<path fill="none" stroke="black" d="M583.84,-101.529C579.259,-99.5836 574.522,-97.6678 570,-96 521.563,-78.1356 464.22,-61.6255 427.734,-51.6823"/>
<polygon fill="black" stroke="black" points="428.587,-48.2874 418.02,-49.0562 426.76,-55.0448 428.587,-48.2874"/>
<a xlink:href="dir_000038_000005.html" target="_top" xlink:title="2">
<text text-anchor="middle" x="432.798" y="-43.9846" font-family="Helvetica,sans-Serif" font-size="10.00">2</text>
</a>
</g>
<!-- dir_7ac7ee3ab64c06fbccdf430359c4f809 -->
<g id="node15" class="node"><title>dir_7ac7ee3ab64c06fbccdf430359c4f809</title>
<a xlink:href="dir_7ac7ee3ab64c06fbccdf430359c4f809.html" target="_top" xlink:title="locale">
<polygon fill="white" stroke="black" points="456,-348 402,-348 402,-312 456,-312 456,-348"/>
<text text-anchor="middle" x="429" y="-327.5" font-family="Helvetica,sans-Serif" font-size="10.00">locale</text>
</a>
</g>
<!-- dir_a3509e446681fa01bb0c9626fadbbb79 -->
<g id="node16" class="node"><title>dir_a3509e446681fa01bb0c9626fadbbb79</title>
<a xlink:href="dir_a3509e446681fa01bb0c9626fadbbb79.html" target="_top" xlink:title="media">
<polygon fill="white" stroke="red" points="684,-204 630,-204 630,-168 684,-168 684,-204"/>
<text text-anchor="middle" x="657" y="-183.5" font-family="Helvetica,sans-Serif" font-size="10.00">media</text>
</a>
</g>
<!-- dir_a3509e446681fa01bb0c9626fadbbb79&#45;&gt;dir_a7bc868a07a00fb60430363f39b25690 -->
<g id="edge14" class="edge"><title>dir_a3509e446681fa01bb0c9626fadbbb79&#45;&gt;dir_a7bc868a07a00fb60430363f39b25690</title>
<path fill="none" stroke="black" d="M660.611,-167.981C663.521,-147.82 664.64,-115.445 647,-96 618.09,-64.1326 491.765,-49.8577 428.042,-44.5896"/>
<polygon fill="black" stroke="black" points="428.255,-41.0956 418.009,-43.7921 427.701,-48.0736 428.255,-41.0956"/>
<a xlink:href="dir_000037_000005.html" target="_top" xlink:title="66">
<text text-anchor="middle" x="432.064" y="-36.0501" font-family="Helvetica,sans-Serif" font-size="10.00">66</text>
</a>
</g>
<!-- dir_a3509e446681fa01bb0c9626fadbbb79&#45;&gt;dir_8b4d5a991ae7b4a5030d88c7be6acac9 -->
<g id="edge18" class="edge"><title>dir_a3509e446681fa01bb0c9626fadbbb79&#45;&gt;dir_8b4d5a991ae7b4a5030d88c7be6acac9</title>
<path fill="none" stroke="black" d="M629.7,-179.844C613.767,-176.291 593.267,-171.791 575,-168 496.438,-151.694 471.701,-158.332 391.691,-131.77"/>
<polygon fill="black" stroke="black" points="392.782,-128.444 382.188,-128.547 390.534,-135.073 392.782,-128.444"/>
<a xlink:href="dir_000037_000036.html" target="_top" xlink:title="3">
<text text-anchor="middle" x="397.098" y="-124.409" font-family="Helvetica,sans-Serif" font-size="10.00">3</text>
</a>
</g>
<!-- dir_860197fd86524a16fea77a36b630e2cf -->
<g id="node22" class="node"><title>dir_860197fd86524a16fea77a36b630e2cf</title>
<a xlink:href="dir_860197fd86524a16fea77a36b630e2cf.html" target="_top" xlink:title="system">
<polygon fill="white" stroke="black" points="730,-132 676,-132 676,-96 730,-96 730,-132"/>
<text text-anchor="middle" x="703" y="-111.5" font-family="Helvetica,sans-Serif" font-size="10.00">system</text>
</a>
</g>
<!-- dir_a3509e446681fa01bb0c9626fadbbb79&#45;&gt;dir_860197fd86524a16fea77a36b630e2cf -->
<g id="edge16" class="edge"><title>dir_a3509e446681fa01bb0c9626fadbbb79&#45;&gt;dir_860197fd86524a16fea77a36b630e2cf</title>
<path fill="none" stroke="black" d="M668.608,-167.831C673.798,-159.708 680.023,-149.964 685.742,-141.012"/>
<polygon fill="black" stroke="black" points="688.801,-142.725 691.236,-132.413 682.903,-138.956 688.801,-142.725"/>
<a xlink:href="dir_000037_000031.html" target="_top" xlink:title="1">
<text text-anchor="middle" x="689.259" y="-144.782" font-family="Helvetica,sans-Serif" font-size="10.00">1</text>
</a>
</g>
<!-- dir_d6fe907751e690e237044bb7a0c6646a -->
<g id="node17" class="node"><title>dir_d6fe907751e690e237044bb7a0c6646a</title>
<a xlink:href="dir_d6fe907751e690e237044bb7a0c6646a.html" target="_top" xlink:title="mtp">
<polygon fill="white" stroke="black" points="526,-132 472,-132 472,-96 526,-96 526,-132"/>
<text text-anchor="middle" x="499" y="-111.5" font-family="Helvetica,sans-Serif" font-size="10.00">mtp</text>
</a>
</g>
<!-- dir_d6fe907751e690e237044bb7a0c6646a&#45;&gt;dir_a7bc868a07a00fb60430363f39b25690 -->
<g id="edge96" class="edge"><title>dir_d6fe907751e690e237044bb7a0c6646a&#45;&gt;dir_a7bc868a07a00fb60430363f39b25690</title>
<path fill="none" stroke="black" d="M471.747,-95.8314C458.061,-86.7074 441.309,-75.539 426.617,-65.7449"/>
<polygon fill="black" stroke="black" points="428.506,-62.7977 418.244,-60.1628 424.623,-68.6221 428.506,-62.7977"/>
<a xlink:href="dir_000043_000005.html" target="_top" xlink:title="6">
<text text-anchor="middle" x="433.072" y="-59.9292" font-family="Helvetica,sans-Serif" font-size="10.00">6</text>
</a>
</g>
<!-- dir_cee7a6990ad1189ecb0d51807df25e86 -->
<g id="node18" class="node"><title>dir_cee7a6990ad1189ecb0d51807df25e86</title>
<a xlink:href="dir_cee7a6990ad1189ecb0d51807df25e86.html" target="_top" xlink:title="net">
<polygon fill="white" stroke="black" points="454,-132 400,-132 400,-96 454,-96 454,-132"/>
<text text-anchor="middle" x="427" y="-111.5" font-family="Helvetica,sans-Serif" font-size="10.00">net</text>
</a>
</g>
<!-- dir_cee7a6990ad1189ecb0d51807df25e86&#45;&gt;dir_a7bc868a07a00fb60430363f39b25690 -->
<g id="edge54" class="edge"><title>dir_cee7a6990ad1189ecb0d51807df25e86&#45;&gt;dir_a7bc868a07a00fb60430363f39b25690</title>
<path fill="none" stroke="black" d="M417.916,-95.8314C413.939,-87.8771 409.185,-78.369 404.786,-69.5723"/>
<polygon fill="black" stroke="black" points="407.809,-67.7923 400.207,-60.4133 401.548,-70.9228 407.809,-67.7923"/>
<a xlink:href="dir_000044_000005.html" target="_top" xlink:title="18">
<text text-anchor="middle" x="411.956" y="-67.2377" font-family="Helvetica,sans-Serif" font-size="10.00">18</text>
</a>
</g>
<!-- dir_e9c836f2d1525a28491ed583344eba89 -->
<g id="node19" class="node"><title>dir_e9c836f2d1525a28491ed583344eba89</title>
<a xlink:href="dir_e9c836f2d1525a28491ed583344eba89.html" target="_top" xlink:title="security">
<polygon fill="white" stroke="black" points="250,-204 196,-204 196,-168 250,-168 250,-204"/>
<text text-anchor="middle" x="223" y="-183.5" font-family="Helvetica,sans-Serif" font-size="10.00">security</text>
</a>
</g>
<!-- dir_e9c836f2d1525a28491ed583344eba89&#45;&gt;dir_3f294fe57dd4b169cf6323a211c2c0d4 -->
<g id="edge4" class="edge"><title>dir_e9c836f2d1525a28491ed583344eba89&#45;&gt;dir_3f294fe57dd4b169cf6323a211c2c0d4</title>
<path fill="none" stroke="black" d="M233.094,-167.831C237.56,-159.792 242.907,-150.167 247.838,-141.292"/>
<polygon fill="black" stroke="black" points="250.973,-142.855 252.77,-132.413 244.854,-139.455 250.973,-142.855"/>
<a xlink:href="dir_000046_000048.html" target="_top" xlink:title="2">
<text text-anchor="middle" x="251.71" y="-144.876" font-family="Helvetica,sans-Serif" font-size="10.00">2</text>
</a>
</g>
<!-- dir_49f0f02d814b5e2369819d582db009ee -->
<g id="node20" class="node"><title>dir_49f0f02d814b5e2369819d582db009ee</title>
<a xlink:href="dir_49f0f02d814b5e2369819d582db009ee.html" target="_top" xlink:title="service">
<polygon fill="white" stroke="black" points="375,-492 321,-492 321,-456 375,-456 375,-492"/>
<text text-anchor="middle" x="348" y="-471.5" font-family="Helvetica,sans-Serif" font-size="10.00">service</text>
</a>
</g>
<!-- dir_49f0f02d814b5e2369819d582db009ee&#45;&gt;dir_a7bc868a07a00fb60430363f39b25690 -->
<g id="edge34" class="edge"><title>dir_49f0f02d814b5e2369819d582db009ee&#45;&gt;dir_a7bc868a07a00fb60430363f39b25690</title>
<path fill="none" stroke="black" d="M320.661,-464.765C255.607,-441.96 97,-381.118 97,-330 97,-330 97,-330 97,-186 97,-145.373 84.5018,-124.955 113,-96 146.064,-62.4057 285.554,-48.8417 353.497,-44.149"/>
<polygon fill="black" stroke="black" points="354.012,-47.6226 363.759,-43.4703 353.55,-40.6379 354.012,-47.6226"/>
<a xlink:href="dir_000047_000005.html" target="_top" xlink:title="13">
<text text-anchor="middle" x="350.613" y="-48.1928" font-family="Helvetica,sans-Serif" font-size="10.00">13</text>
</a>
</g>
<!-- dir_49f0f02d814b5e2369819d582db009ee&#45;&gt;dir_f7b85038ab7aa457c95f185be9326487 -->
<g id="edge40" class="edge"><title>dir_49f0f02d814b5e2369819d582db009ee&#45;&gt;dir_f7b85038ab7aa457c95f185be9326487</title>
<path fill="none" stroke="black" d="M373.728,-455.923C402.275,-434.12 446.724,-394.541 465,-348 470.848,-333.107 470.983,-326.839 465,-312 460.677,-301.28 453.096,-291.498 445.036,-283.295"/>
<polygon fill="black" stroke="black" points="447.244,-280.565 437.58,-276.223 442.427,-285.644 447.244,-280.565"/>
<a xlink:href="dir_000047_000019.html" target="_top" xlink:title="4">
<text text-anchor="middle" x="451.806" y="-278.479" font-family="Helvetica,sans-Serif" font-size="10.00">4</text>
</a>
</g>
<!-- dir_63b7357f9450ad7acaa914fca67749bb -->
<g id="node25" class="node"><title>dir_63b7357f9450ad7acaa914fca67749bb</title>
<a xlink:href="dir_63b7357f9450ad7acaa914fca67749bb.html" target="_top" xlink:title="text">
<polygon fill="white" stroke="red" points="387,-420 333,-420 333,-384 387,-384 387,-420"/>
<text text-anchor="middle" x="360" y="-399.5" font-family="Helvetica,sans-Serif" font-size="10.00">text</text>
</a>
</g>
<!-- dir_49f0f02d814b5e2369819d582db009ee&#45;&gt;dir_63b7357f9450ad7acaa914fca67749bb -->
<g id="edge36" class="edge"><title>dir_49f0f02d814b5e2369819d582db009ee&#45;&gt;dir_63b7357f9450ad7acaa914fca67749bb</title>
<path fill="none" stroke="black" d="M351.028,-455.831C352.312,-448.131 353.838,-438.974 355.264,-430.417"/>
<polygon fill="black" stroke="black" points="358.739,-430.853 356.931,-420.413 351.835,-429.702 358.739,-430.853"/>
<a xlink:href="dir_000047_000040.html" target="_top" xlink:title="1">
<text text-anchor="middle" x="360.949" y="-432.365" font-family="Helvetica,sans-Serif" font-size="10.00">1</text>
</a>
</g>
<!-- dir_49f0f02d814b5e2369819d582db009ee&#45;&gt;dir_7b469e3992a467f4fffb7e78111bf18a -->
<g id="edge38" class="edge"><title>dir_49f0f02d814b5e2369819d582db009ee&#45;&gt;dir_7b469e3992a467f4fffb7e78111bf18a</title>
<path fill="none" stroke="black" d="M335.711,-455.691C317.204,-425.836 285.686,-364.704 299,-312 308.326,-275.081 330.84,-237.23 347.419,-212.781"/>
<polygon fill="black" stroke="black" points="350.403,-214.619 353.223,-204.406 344.65,-210.631 350.403,-214.619"/>
<a xlink:href="dir_000047_000055.html" target="_top" xlink:title="1">
<text text-anchor="middle" x="350.689" y="-216.691" font-family="Helvetica,sans-Serif" font-size="10.00">1</text>
</a>
</g>
<!-- dir_3f294fe57dd4b169cf6323a211c2c0d4&#45;&gt;dir_a7bc868a07a00fb60430363f39b25690 -->
<g id="edge50" class="edge"><title>dir_3f294fe57dd4b169cf6323a211c2c0d4&#45;&gt;dir_a7bc868a07a00fb60430363f39b25690</title>
<path fill="none" stroke="black" d="M290.146,-98.7307C309.067,-88.0871 334.509,-73.776 355.105,-62.1908"/>
<polygon fill="black" stroke="black" points="356.894,-65.2005 363.894,-57.2473 353.462,-59.0995 356.894,-65.2005"/>
<a xlink:href="dir_000048_000005.html" target="_top" xlink:title="10">
<text text-anchor="middle" x="355.153" y="-66.9374" font-family="Helvetica,sans-Serif" font-size="10.00">10</text>
</a>
</g>
<!-- dir_3f294fe57dd4b169cf6323a211c2c0d4&#45;&gt;dir_f7b85038ab7aa457c95f185be9326487 -->
<g id="edge52" class="edge"><title>dir_3f294fe57dd4b169cf6323a211c2c0d4&#45;&gt;dir_f7b85038ab7aa457c95f185be9326487</title>
<path fill="none" stroke="black" d="M290.243,-126.255C294.815,-128.226 299.526,-130.207 304,-132 347.458,-149.42 374.061,-131.196 403,-168 416.529,-185.205 418.3,-210.314 417.101,-229.642"/>
<polygon fill="black" stroke="black" points="413.607,-229.422 416.186,-239.698 420.578,-230.057 413.607,-229.422"/>
<a xlink:href="dir_000048_000019.html" target="_top" xlink:title="1">
<text text-anchor="middle" x="411.105" y="-223.084" font-family="Helvetica,sans-Serif" font-size="10.00">1</text>
</a>
</g>
<!-- dir_860197fd86524a16fea77a36b630e2cf&#45;&gt;dir_a7bc868a07a00fb60430363f39b25690 -->
<g id="edge10" class="edge"><title>dir_860197fd86524a16fea77a36b630e2cf&#45;&gt;dir_a7bc868a07a00fb60430363f39b25690</title>
<path fill="none" stroke="black" d="M675.97,-101.151C671.372,-99.2507 666.597,-97.4482 662,-96 580.281,-70.2562 480.689,-54.1505 427.933,-46.7645"/>
<polygon fill="black" stroke="black" points="428.409,-43.2971 418.025,-45.4033 427.456,-50.2319 428.409,-43.2971"/>
<a xlink:href="dir_000031_000005.html" target="_top" xlink:title="19">
<text text-anchor="middle" x="432.356" y="-38.4734" font-family="Helvetica,sans-Serif" font-size="10.00">19</text>
</a>
</g>
<!-- dir_1f2958ab8ee59f169a9a7c7f68479f4e&#45;&gt;dir_a7bc868a07a00fb60430363f39b25690 -->
<g id="edge64" class="edge"><title>dir_1f2958ab8ee59f169a9a7c7f68479f4e&#45;&gt;dir_a7bc868a07a00fb60430363f39b25690</title>
<path fill="none" stroke="black" d="M826.686,-239.916C848.06,-207.036 885.515,-137.074 849,-96 821.163,-64.6885 532.67,-48.4796 428.367,-43.6088"/>
<polygon fill="black" stroke="black" points="428.44,-40.1086 418.29,-43.1469 428.119,-47.1012 428.44,-40.1086"/>
<a xlink:href="dir_000033_000005.html" target="_top" xlink:title="83">
<text text-anchor="middle" x="432.161" y="-34.9368" font-family="Helvetica,sans-Serif" font-size="10.00">83</text>
</a>
</g>
<!-- dir_bb96b555c2bd4b71e7c597ab3688cb72 -->
<g id="node24" class="node"><title>dir_bb96b555c2bd4b71e7c597ab3688cb72</title>
<a xlink:href="dir_bb96b555c2bd4b71e7c597ab3688cb72.html" target="_top" xlink:title="testing">
<polygon fill="white" stroke="black" points="194,-348 140,-348 140,-312 194,-312 194,-348"/>
<text text-anchor="middle" x="167" y="-327.5" font-family="Helvetica,sans-Serif" font-size="10.00">testing</text>
</a>
</g>
<!-- dir_bb96b555c2bd4b71e7c597ab3688cb72&#45;&gt;dir_a7bc868a07a00fb60430363f39b25690 -->
<g id="edge30" class="edge"><title>dir_bb96b555c2bd4b71e7c597ab3688cb72&#45;&gt;dir_a7bc868a07a00fb60430363f39b25690</title>
<path fill="none" stroke="black" d="M159.225,-311.729C142.112,-268.307 106.827,-157.946 161,-96 186.026,-67.3831 295.404,-51.8958 353.853,-45.5283"/>
<polygon fill="black" stroke="black" points="354.223,-49.0088 363.801,-44.4791 353.489,-42.0474 354.223,-49.0088"/>
<a xlink:href="dir_000051_000005.html" target="_top" xlink:title="13">
<text text-anchor="middle" x="350.946" y="-49.7093" font-family="Helvetica,sans-Serif" font-size="10.00">13</text>
</a>
</g>
<!-- dir_bb96b555c2bd4b71e7c597ab3688cb72&#45;&gt;dir_f7b85038ab7aa457c95f185be9326487 -->
<g id="edge32" class="edge"><title>dir_bb96b555c2bd4b71e7c597ab3688cb72&#45;&gt;dir_f7b85038ab7aa457c95f185be9326487</title>
<path fill="none" stroke="black" d="M194.297,-316.994C198.505,-315.2 202.835,-313.471 207,-312 264.847,-291.563 334.254,-274.932 375.93,-265.759"/>
<polygon fill="black" stroke="black" points="376.876,-269.136 385.904,-263.59 375.388,-262.295 376.876,-269.136"/>
<a xlink:href="dir_000051_000019.html" target="_top" xlink:title="29">
<text text-anchor="middle" x="373.967" y="-270.174" font-family="Helvetica,sans-Serif" font-size="10.00">29</text>
</a>
</g>
<!-- dir_63b7357f9450ad7acaa914fca67749bb&#45;&gt;dir_a7bc868a07a00fb60430363f39b25690 -->
<g id="edge22" class="edge"><title>dir_63b7357f9450ad7acaa914fca67749bb&#45;&gt;dir_a7bc868a07a00fb60430363f39b25690</title>
<path fill="none" stroke="black" d="M332.64,-399.333C277.982,-393.425 158.191,-377.378 131,-348 103.502,-318.291 117,-298.481 117,-258 117,-258 117,-258 117,-186 117,-145.024 107.893,-124.841 137,-96 167.122,-66.1538 290.129,-51.0126 353.247,-45.0814"/>
<polygon fill="black" stroke="black" points="353.928,-48.534 363.57,-44.1434 353.294,-41.5627 353.928,-48.534"/>
<a xlink:href="dir_000040_000005.html" target="_top" xlink:title="29">
<text text-anchor="middle" x="350.605" y="-49.1868" font-family="Helvetica,sans-Serif" font-size="10.00">29</text>
</a>
</g>
<!-- dir_63b7357f9450ad7acaa914fca67749bb&#45;&gt;dir_f7b85038ab7aa457c95f185be9326487 -->
<g id="edge28" class="edge"><title>dir_63b7357f9450ad7acaa914fca67749bb&#45;&gt;dir_f7b85038ab7aa457c95f185be9326487</title>
<path fill="none" stroke="black" d="M366.682,-383.722C373.336,-365.534 383.85,-336.829 393,-312 396.097,-303.597 399.475,-294.463 402.559,-286.138"/>
<polygon fill="black" stroke="black" points="405.942,-287.082 406.135,-276.489 399.378,-284.649 405.942,-287.082"/>
<a xlink:href="dir_000040_000019.html" target="_top" xlink:title="4">
<text text-anchor="middle" x="407.355" y="-288.939" font-family="Helvetica,sans-Serif" font-size="10.00">4</text>
</a>
</g>
<!-- dir_63b7357f9450ad7acaa914fca67749bb&#45;&gt;dir_8b4d5a991ae7b4a5030d88c7be6acac9 -->
<g id="edge26" class="edge"><title>dir_63b7357f9450ad7acaa914fca67749bb&#45;&gt;dir_8b4d5a991ae7b4a5030d88c7be6acac9</title>
<path fill="none" stroke="black" d="M387.027,-399.217C439.1,-393.239 550.217,-377.28 573,-348 631.21,-273.191 576.543,-276.138 446,-168 436.53,-160.155 412.078,-145.748 390.904,-133.787"/>
<polygon fill="black" stroke="black" points="392.517,-130.678 382.083,-128.837 389.091,-136.783 392.517,-130.678"/>
<a xlink:href="dir_000040_000036.html" target="_top" xlink:title="8">
<text text-anchor="middle" x="397.041" y="-127.461" font-family="Helvetica,sans-Serif" font-size="10.00">8</text>
</a>
</g>
<!-- dir_63b7357f9450ad7acaa914fca67749bb&#45;&gt;dir_7ac7ee3ab64c06fbccdf430359c4f809 -->
<g id="edge20" class="edge"><title>dir_63b7357f9450ad7acaa914fca67749bb&#45;&gt;dir_7ac7ee3ab64c06fbccdf430359c4f809</title>
<path fill="none" stroke="black" d="M377.412,-383.831C385.521,-375.369 395.316,-365.149 404.182,-355.897"/>
<polygon fill="black" stroke="black" points="406.962,-358.055 411.354,-348.413 401.908,-353.211 406.962,-358.055"/>
<a xlink:href="dir_000040_000039.html" target="_top" xlink:title="1">
<text text-anchor="middle" x="406.525" y="-360.115" font-family="Helvetica,sans-Serif" font-size="10.00">1</text>
</a>
</g>
<!-- dir_46bf64fa76133813ba7c7c9f43a86143 -->
<g id="node31" class="node"><title>dir_46bf64fa76133813ba7c7c9f43a86143</title>
<a xlink:href="dir_46bf64fa76133813ba7c7c9f43a86143.html" target="_top" xlink:title="webkit">
<polygon fill="white" stroke="red" points="270,-348 216,-348 216,-312 270,-312 270,-348"/>
<text text-anchor="middle" x="243" y="-327.5" font-family="Helvetica,sans-Serif" font-size="10.00">webkit</text>
</a>
</g>
<!-- dir_63b7357f9450ad7acaa914fca67749bb&#45;&gt;dir_46bf64fa76133813ba7c7c9f43a86143 -->
<g id="edge24" class="edge"><title>dir_63b7357f9450ad7acaa914fca67749bb&#45;&gt;dir_46bf64fa76133813ba7c7c9f43a86143</title>
<path fill="none" stroke="black" d="M332.864,-385.301C316.883,-375.466 296.468,-362.904 279.137,-352.238"/>
<polygon fill="black" stroke="black" points="280.745,-349.118 270.394,-346.858 277.077,-355.08 280.745,-349.118"/>
<a xlink:href="dir_000040_000045.html" target="_top" xlink:title="1">
<text text-anchor="middle" x="285.295" y="-346.084" font-family="Helvetica,sans-Serif" font-size="10.00">1</text>
</a>
</g>
<!-- dir_7b469e3992a467f4fffb7e78111bf18a&#45;&gt;dir_a7bc868a07a00fb60430363f39b25690 -->
<g id="edge56" class="edge"><title>dir_7b469e3992a467f4fffb7e78111bf18a&#45;&gt;dir_a7bc868a07a00fb60430363f39b25690</title>
<path fill="none" stroke="black" d="M339.655,-171.867C336.757,-170.507 333.834,-169.193 331,-168 285.918,-149.022 255.371,-171.844 227,-132 217.719,-118.967 217.621,-108.963 227,-96 242.048,-75.2031 310.366,-58.0635 353.941,-48.996"/>
<polygon fill="black" stroke="black" points="354.8,-52.3931 363.904,-46.9732 353.407,-45.533 354.8,-52.3931"/>
<a xlink:href="dir_000055_000005.html" target="_top" xlink:title="62">
<text text-anchor="middle" x="351.842" y="-53.3908" font-family="Helvetica,sans-Serif" font-size="10.00">62</text>
</a>
</g>
<!-- dir_7b469e3992a467f4fffb7e78111bf18a&#45;&gt;dir_f7b85038ab7aa457c95f185be9326487 -->
<g id="edge62" class="edge"><title>dir_7b469e3992a467f4fffb7e78111bf18a&#45;&gt;dir_f7b85038ab7aa457c95f185be9326487</title>
<path fill="none" stroke="black" d="M384.74,-204.413C390.668,-212.484 397.018,-222.118 402.296,-230.978"/>
<polygon fill="black" stroke="black" points="399.35,-232.878 407.345,-239.831 405.431,-229.411 399.35,-232.878"/>
<a xlink:href="dir_000055_000019.html" target="_top" xlink:title="60">
<text text-anchor="middle" x="395.103" y="-228.662" font-family="Helvetica,sans-Serif" font-size="10.00">60</text>
</a>
</g>
<!-- dir_7b469e3992a467f4fffb7e78111bf18a&#45;&gt;dir_8b4d5a991ae7b4a5030d88c7be6acac9 -->
<g id="edge60" class="edge"><title>dir_7b469e3992a467f4fffb7e78111bf18a&#45;&gt;dir_8b4d5a991ae7b4a5030d88c7be6acac9</title>
<path fill="none" stroke="black" d="M363.972,-167.831C362.688,-160.131 361.162,-150.974 359.736,-142.417"/>
<polygon fill="black" stroke="black" points="363.165,-141.702 358.069,-132.413 356.261,-142.853 363.165,-141.702"/>
<a xlink:href="dir_000055_000036.html" target="_top" xlink:title="6">
<text text-anchor="middle" x="366.557" y="-142.281" font-family="Helvetica,sans-Serif" font-size="10.00">6</text>
</a>
</g>
<!-- dir_7b469e3992a467f4fffb7e78111bf18a&#45;&gt;dir_3f294fe57dd4b169cf6323a211c2c0d4 -->
<g id="edge58" class="edge"><title>dir_7b469e3992a467f4fffb7e78111bf18a&#45;&gt;dir_3f294fe57dd4b169cf6323a211c2c0d4</title>
<path fill="none" stroke="black" d="M340.756,-167.831C327.701,-158.793 311.747,-147.748 297.695,-138.02"/>
<polygon fill="black" stroke="black" points="299.449,-134.977 289.235,-132.163 295.465,-140.733 299.449,-134.977"/>
<a xlink:href="dir_000055_000048.html" target="_top" xlink:title="3">
<text text-anchor="middle" x="304.021" y="-132.189" font-family="Helvetica,sans-Serif" font-size="10.00">3</text>
</a>
</g>
<!-- dir_294e780b1e18d3350a8d44fea7eb23a7 -->
<g id="node27" class="node"><title>dir_294e780b1e18d3350a8d44fea7eb23a7</title>
<a xlink:href="dir_294e780b1e18d3350a8d44fea7eb23a7.html" target="_top" xlink:title="uimode">
<polygon fill="white" stroke="black" points="230,-276 176,-276 176,-240 230,-240 230,-276"/>
<text text-anchor="middle" x="203" y="-255.5" font-family="Helvetica,sans-Serif" font-size="10.00">uimode</text>
</a>
</g>
<!-- dir_294e780b1e18d3350a8d44fea7eb23a7&#45;&gt;dir_a7bc868a07a00fb60430363f39b25690 -->
<g id="edge86" class="edge"><title>dir_294e780b1e18d3350a8d44fea7eb23a7&#45;&gt;dir_a7bc868a07a00fb60430363f39b25690</title>
<path fill="none" stroke="black" d="M196.181,-239.8C192.672,-229.464 188.768,-216.193 187,-204 179.993,-155.689 172.733,-130.768 207,-96 227.52,-75.18 306.475,-57.5131 354.036,-48.4709"/>
<polygon fill="black" stroke="black" points="354.773,-51.8939 363.963,-46.6219 353.491,-45.0122 354.773,-51.8939"/>
<a xlink:href="dir_000058_000005.html" target="_top" xlink:title="1">
<text text-anchor="middle" x="351.759" y="-52.8433" font-family="Helvetica,sans-Serif" font-size="10.00">1</text>
</a>
</g>
<!-- dir_294e780b1e18d3350a8d44fea7eb23a7&#45;&gt;dir_bb8f9943d16588809e0083b2e37e388f -->
<g id="edge88" class="edge"><title>dir_294e780b1e18d3350a8d44fea7eb23a7&#45;&gt;dir_bb8f9943d16588809e0083b2e37e388f</title>
<path fill="none" stroke="black" d="M226.215,-239.831C237.547,-230.963 251.346,-220.164 263.603,-210.572"/>
<polygon fill="black" stroke="black" points="266.074,-213.082 271.792,-204.163 261.76,-207.57 266.074,-213.082"/>
<a xlink:href="dir_000058_000015.html" target="_top" xlink:title="1">
<text text-anchor="middle" x="264.993" y="-215.034" font-family="Helvetica,sans-Serif" font-size="10.00">1</text>
</a>
</g>
<!-- dir_2ab5ba7e0bb6b31d94242c269b931afa -->
<g id="node28" class="node"><title>dir_2ab5ba7e0bb6b31d94242c269b931afa</title>
<a xlink:href="dir_2ab5ba7e0bb6b31d94242c269b931afa.html" target="_top" xlink:title="usb">
<polygon fill="white" stroke="black" points="78,-132 24,-132 24,-96 78,-96 78,-132"/>
<text text-anchor="middle" x="51" y="-111.5" font-family="Helvetica,sans-Serif" font-size="10.00">usb</text>
</a>
</g>
<!-- dir_2ab5ba7e0bb6b31d94242c269b931afa&#45;&gt;dir_a7bc868a07a00fb60430363f39b25690 -->
<g id="edge12" class="edge"><title>dir_2ab5ba7e0bb6b31d94242c269b931afa&#45;&gt;dir_a7bc868a07a00fb60430363f39b25690</title>
<path fill="none" stroke="black" d="M78.0082,-101.08C82.6083,-99.1879 87.3901,-97.4068 92,-96 183.906,-67.9542 296.41,-52.4796 353.663,-45.8861"/>
<polygon fill="black" stroke="black" points="354.148,-49.3537 363.694,-44.7572 353.365,-42.3977 354.148,-49.3537"/>
<a xlink:href="dir_000059_000005.html" target="_top" xlink:title="16">
<text text-anchor="middle" x="350.893" y="-50.0771" font-family="Helvetica,sans-Serif" font-size="10.00">16</text>
</a>
</g>
<!-- dir_6bd3e9899514504ee70a8940f0b846bc -->
<g id="node29" class="node"><title>dir_6bd3e9899514504ee70a8940f0b846bc</title>
<a xlink:href="dir_6bd3e9899514504ee70a8940f0b846bc.html" target="_top" xlink:title="utility">
<polygon fill="white" stroke="black" points="256,-492 202,-492 202,-456 256,-456 256,-492"/>
<text text-anchor="middle" x="229" y="-471.5" font-family="Helvetica,sans-Serif" font-size="10.00">utility</text>
</a>
</g>
<!-- dir_94033e762f745bb7c4b3976087210a91 -->
<g id="node30" class="node"><title>dir_94033e762f745bb7c4b3976087210a91</title>
<a xlink:href="dir_94033e762f745bb7c4b3976087210a91.html" target="_top" xlink:title="vcard">
<polygon fill="white" stroke="black" points="90,-492 36,-492 36,-456 90,-456 90,-492"/>
<text text-anchor="middle" x="63" y="-471.5" font-family="Helvetica,sans-Serif" font-size="10.00">vcard</text>
</a>
</g>
<!-- dir_46bf64fa76133813ba7c7c9f43a86143&#45;&gt;dir_a7bc868a07a00fb60430363f39b25690 -->
<g id="edge42" class="edge"><title>dir_46bf64fa76133813ba7c7c9f43a86143&#45;&gt;dir_a7bc868a07a00fb60430363f39b25690</title>
<path fill="none" stroke="black" d="M215.974,-318.809C198.53,-309.989 177.246,-295.848 167,-276 156.302,-255.276 148.115,-134.413 181,-96 203.205,-70.0618 299.39,-53.7686 353.557,-46.4758"/>
<polygon fill="black" stroke="black" points="354.334,-49.9041 363.796,-45.137 353.427,-42.9631 354.334,-49.9041"/>
<a xlink:href="dir_000045_000005.html" target="_top" xlink:title="20">
<text text-anchor="middle" x="351.138" y="-50.6853" font-family="Helvetica,sans-Serif" font-size="10.00">20</text>
</a>
</g>
<!-- dir_46bf64fa76133813ba7c7c9f43a86143&#45;&gt;dir_bb8f9943d16588809e0083b2e37e388f -->
<g id="edge48" class="edge"><title>dir_46bf64fa76133813ba7c7c9f43a86143&#45;&gt;dir_bb8f9943d16588809e0083b2e37e388f</title>
<path fill="none" stroke="black" d="M245.619,-311.946C248.668,-293.436 254.534,-264.035 264,-240 267.607,-230.841 272.571,-221.365 277.469,-212.957"/>
<polygon fill="black" stroke="black" points="280.513,-214.686 282.691,-204.317 274.523,-211.065 280.513,-214.686"/>
<a xlink:href="dir_000045_000015.html" target="_top" xlink:title="1">
<text text-anchor="middle" x="281.084" y="-216.731" font-family="Helvetica,sans-Serif" font-size="10.00">1</text>
</a>
</g>
<!-- dir_46bf64fa76133813ba7c7c9f43a86143&#45;&gt;dir_f7b85038ab7aa457c95f185be9326487 -->
<g id="edge46" class="edge"><title>dir_46bf64fa76133813ba7c7c9f43a86143&#45;&gt;dir_f7b85038ab7aa457c95f185be9326487</title>
<path fill="none" stroke="black" d="M270.313,-318.432C299.063,-306.256 344.484,-287.019 376.338,-273.528"/>
<polygon fill="black" stroke="black" points="377.911,-276.662 385.754,-269.539 375.181,-270.216 377.911,-276.662"/>
<a xlink:href="dir_000045_000019.html" target="_top" xlink:title="8">
<text text-anchor="middle" x="375.708" y="-278.178" font-family="Helvetica,sans-Serif" font-size="10.00">8</text>
</a>
</g>
<!-- dir_46bf64fa76133813ba7c7c9f43a86143&#45;&gt;dir_7b469e3992a467f4fffb7e78111bf18a -->
<g id="edge44" class="edge"><title>dir_46bf64fa76133813ba7c7c9f43a86143&#45;&gt;dir_7b469e3992a467f4fffb7e78111bf18a</title>
<path fill="none" stroke="black" d="M249.925,-311.698C258.816,-288.83 274.255,-251.321 284,-240 291.165,-231.677 311.852,-218.211 330.779,-206.809"/>
<polygon fill="black" stroke="black" points="332.773,-209.695 339.579,-201.576 329.195,-203.679 332.773,-209.695"/>
<a xlink:href="dir_000045_000055.html" target="_top" xlink:title="2">
<text text-anchor="middle" x="331.135" y="-211.473" font-family="Helvetica,sans-Serif" font-size="10.00">2</text>
</a>
</g>
</g>
</svg>
