<?xml version="1.0" encoding="UTF-8" standalone="no"?>
<!DOCTYPE svg PUBLIC "-//W3C//DTD SVG 1.1//EN"
 "http://www.w3.org/Graphics/SVG/1.1/DTD/svg11.dtd">
<!-- Generated by graphviz version 2.26.3 (20100126.1600)
 -->
<!-- Title: G Pages: 1 -->
<svg width="330pt" height="161pt"
 viewBox="0.00 0.00 330.00 161.00" xmlns="http://www.w3.org/2000/svg" xmlns:xlink="http://www.w3.org/1999/xlink">
<g id="graph1" class="graph" transform="scale(1 1) rotate(0) translate(4 157)">
<title>G</title>
<polygon fill="white" stroke="white" points="-4,5 -4,-157 327,-157 327,5 -4,5"/>
<g id="graph2" class="cluster"><title>clusterdir_18fe6922e29c45285b63ff54cf62344c</title>
<a xlink:href="dir_18fe6922e29c45285b63ff54cf62344c.html" target="_top" xlink:title="gaia">
<polygon fill="#ddddee" stroke="black" points="8,-56 8,-145 314,-145 314,-56 8,-56"/>
<text text-anchor="middle" x="161" y="-132" font-family="Helvetica,sans-Serif" font-size="10.00">gaia</text>
</a>
</g>
<g id="graph3" class="cluster"><title>clusterdir_1f2958ab8ee59f169a9a7c7f68479f4e</title>
<a xlink:href="dir_1f2958ab8ee59f169a9a7c7f68479f4e.html" target="_top">
<polygon fill="#eeeeff" stroke="black" points="16,-64 16,-116 306,-116 306,-64 16,-64"/>
</a>
</g>
<!-- dir_1f2958ab8ee59f169a9a7c7f68479f4e -->
<g id="node3" class="node"><title>dir_1f2958ab8ee59f169a9a7c7f68479f4e</title>
<text text-anchor="middle" x="269" y="-87.5" font-family="Helvetica,sans-Serif" font-size="10.00">telephony</text>
</g>
<!-- dir_c3042fc023dd5f0e958d8e3721c1c080 -->
<g id="node4" class="node"><title>dir_c3042fc023dd5f0e958d8e3721c1c080</title>
<a xlink:href="dir_c3042fc023dd5f0e958d8e3721c1c080.html" target="_top" xlink:title="cat">
<polygon fill="white" stroke="black" points="222,-108 168,-108 168,-72 222,-72 222,-108"/>
<text text-anchor="middle" x="195" y="-87.5" font-family="Helvetica,sans-Serif" font-size="10.00">cat</text>
</a>
</g>
<!-- dir_a7bc868a07a00fb60430363f39b25690 -->
<g id="node7" class="node"><title>dir_a7bc868a07a00fb60430363f39b25690</title>
<a xlink:href="dir_a7bc868a07a00fb60430363f39b25690.html" target="_top" xlink:title="base">
<polygon fill="none" stroke="black" points="150,-36 96,-36 96,-1.77636e-14 150,-3.55271e-15 150,-36"/>
<text text-anchor="middle" x="123" y="-15.5" font-family="Helvetica,sans-Serif" font-size="10.00">base</text>
</a>
</g>
<!-- dir_c3042fc023dd5f0e958d8e3721c1c080&#45;&gt;dir_a7bc868a07a00fb60430363f39b25690 -->
<g id="edge8" class="edge"><title>dir_c3042fc023dd5f0e958d8e3721c1c080&#45;&gt;dir_a7bc868a07a00fb60430363f39b25690</title>
<path fill="none" stroke="black" d="M176.831,-71.8314C168.285,-63.2848 157.944,-52.9443 148.62,-43.6198"/>
<polygon fill="black" stroke="black" points="150.959,-41.0095 141.413,-36.4133 146.009,-45.9592 150.959,-41.0095"/>
<a xlink:href="dir_000034_000005.html" target="_top" xlink:title="15">
<text text-anchor="middle" x="155.509" y="-39.0436" font-family="Helvetica,sans-Serif" font-size="10.00">15</text>
</a>
</g>
<!-- dir_8b7f481e77c4ca86a3cf36a1664024be -->
<g id="node5" class="node"><title>dir_8b7f481e77c4ca86a3cf36a1664024be</title>
<a xlink:href="dir_8b7f481e77c4ca86a3cf36a1664024be.html" target="_top" xlink:title="gsm">
<polygon fill="white" stroke="black" points="150,-108 96,-108 96,-72 150,-72 150,-108"/>
<text text-anchor="middle" x="123" y="-87.5" font-family="Helvetica,sans-Serif" font-size="10.00">gsm</text>
</a>
</g>
<!-- dir_8b7f481e77c4ca86a3cf36a1664024be&#45;&gt;dir_a7bc868a07a00fb60430363f39b25690 -->
<g id="edge6" class="edge"><title>dir_8b7f481e77c4ca86a3cf36a1664024be&#45;&gt;dir_a7bc868a07a00fb60430363f39b25690</title>
<path fill="none" stroke="black" d="M123,-71.8314C123,-64.131 123,-54.9743 123,-46.4166"/>
<polygon fill="black" stroke="black" points="126.5,-46.4132 123,-36.4133 119.5,-46.4133 126.5,-46.4132"/>
<a xlink:href="dir_000049_000005.html" target="_top" xlink:title="3">
<text text-anchor="middle" x="129.339" y="-47.5079" font-family="Helvetica,sans-Serif" font-size="10.00">3</text>
</a>
</g>
<!-- dir_8d627d4b0cd2feee52f2262a54d4f31b -->
<g id="node6" class="node"><title>dir_8d627d4b0cd2feee52f2262a54d4f31b</title>
<a xlink:href="dir_8d627d4b0cd2feee52f2262a54d4f31b.html" target="_top" xlink:title="mms">
<polygon fill="white" stroke="black" points="78,-108 24,-108 24,-72 78,-72 78,-108"/>
<text text-anchor="middle" x="51" y="-87.5" font-family="Helvetica,sans-Serif" font-size="10.00">mms</text>
</a>
</g>
<!-- dir_8d627d4b0cd2feee52f2262a54d4f31b&#45;&gt;dir_a7bc868a07a00fb60430363f39b25690 -->
<g id="edge4" class="edge"><title>dir_8d627d4b0cd2feee52f2262a54d4f31b&#45;&gt;dir_a7bc868a07a00fb60430363f39b25690</title>
<path fill="none" stroke="black" d="M69.1686,-71.8314C77.7152,-63.2848 88.0557,-52.9443 97.3802,-43.6198"/>
<polygon fill="black" stroke="black" points="99.9905,-45.9592 104.587,-36.4133 95.0408,-41.0095 99.9905,-45.9592"/>
<a xlink:href="dir_000050_000005.html" target="_top" xlink:title="23">
<text text-anchor="middle" x="99.4564" y="-48.0087" font-family="Helvetica,sans-Serif" font-size="10.00">23</text>
</a>
</g>
</g>
</svg>
