<?xml version="1.0" encoding="UTF-8" standalone="no"?>
<!DOCTYPE svg PUBLIC "-//W3C//DTD SVG 1.1//EN"
 "http://www.w3.org/Graphics/SVG/1.1/DTD/svg11.dtd">
<!-- Generated by graphviz version 2.26.3 (20100126.1600)
 -->
<!-- Title: G Pages: 1 -->
<svg width="125pt" height="297pt"
 viewBox="0.00 0.00 125.00 297.00" xmlns="http://www.w3.org/2000/svg" xmlns:xlink="http://www.w3.org/1999/xlink">
<g id="graph1" class="graph" transform="scale(1 1) rotate(0) translate(4 293)">
<title>G</title>
<polygon fill="white" stroke="white" points="-4,5 -4,-293 122,-293 122,5 -4,5"/>
<g id="graph2" class="cluster"><title>clusterdir_e19b89b0bcebf892823e240a4c131c64</title>
<a xlink:href="dir_e19b89b0bcebf892823e240a4c131c64.html" target="_top" xlink:title="connectivity">
<polygon fill="#ddddee" stroke="black" points="8,-208 8,-281 80,-281 80,-208 8,-208"/>
<text text-anchor="middle" x="44" y="-268" font-family="Helvetica,sans-Serif" font-size="10.00">connectivity</text>
</a>
</g>
<!-- dir_0468784d18fbee50dd0c502b94621098 -->
<g id="node2" class="node"><title>dir_0468784d18fbee50dd0c502b94621098</title>
<a xlink:href="dir_0468784d18fbee50dd0c502b94621098.html" target="_top" xlink:title="bluetooth">
<polygon fill="#eeeeff" stroke="black" points="72,-252 16,-252 16,-216 72,-216 72,-252"/>
<text text-anchor="middle" x="44" y="-231.5" font-family="Helvetica,sans-Serif" font-size="10.00">bluetooth</text>
</a>
</g>
<!-- dir_a7bc868a07a00fb60430363f39b25690 -->
<g id="node3" class="node"><title>dir_a7bc868a07a00fb60430363f39b25690</title>
<a xlink:href="dir_a7bc868a07a00fb60430363f39b25690.html" target="_top" xlink:title="base">
<polygon fill="none" stroke="black" points="62,-36 8,-36 8,-1.77636e-14 62,-3.55271e-15 62,-36"/>
<text text-anchor="middle" x="35" y="-15.5" font-family="Helvetica,sans-Serif" font-size="10.00">base</text>
</a>
</g>
<!-- dir_0468784d18fbee50dd0c502b94621098&#45;&gt;dir_a7bc868a07a00fb60430363f39b25690 -->
<g id="edge7" class="edge"><title>dir_0468784d18fbee50dd0c502b94621098&#45;&gt;dir_a7bc868a07a00fb60430363f39b25690</title>
<path fill="none" stroke="black" d="M28.0095,-215.917C20.3462,-206.037 11.9834,-193.156 8,-180 -5.92765,-134 10.1919,-78.3417 22.828,-45.6874"/>
<polygon fill="black" stroke="black" points="26.1082,-46.9113 26.6006,-36.328 19.6158,-44.2943 26.1082,-46.9113"/>
<a xlink:href="dir_000008_000005.html" target="_top" xlink:title="27">
<text text-anchor="middle" x="27.3978" y="-48.8068" font-family="Helvetica,sans-Serif" font-size="10.00">27</text>
</a>
</g>
<!-- dir_3f294fe57dd4b169cf6323a211c2c0d4 -->
<g id="node4" class="node"><title>dir_3f294fe57dd4b169cf6323a211c2c0d4</title>
<a xlink:href="dir_3f294fe57dd4b169cf6323a211c2c0d4.html" target="_top" xlink:title="storage">
<polygon fill="none" stroke="black" points="71,-180 17,-180 17,-144 71,-144 71,-180"/>
<text text-anchor="middle" x="44" y="-159.5" font-family="Helvetica,sans-Serif" font-size="10.00">storage</text>
</a>
</g>
<!-- dir_0468784d18fbee50dd0c502b94621098&#45;&gt;dir_3f294fe57dd4b169cf6323a211c2c0d4 -->
<g id="edge9" class="edge"><title>dir_0468784d18fbee50dd0c502b94621098&#45;&gt;dir_3f294fe57dd4b169cf6323a211c2c0d4</title>
<path fill="none" stroke="black" d="M44,-215.831C44,-208.131 44,-198.974 44,-190.417"/>
<polygon fill="black" stroke="black" points="47.5001,-190.413 44,-180.413 40.5001,-190.413 47.5001,-190.413"/>
<a xlink:href="dir_000008_000048.html" target="_top" xlink:title="2">
<text text-anchor="middle" x="50.3393" y="-191.508" font-family="Helvetica,sans-Serif" font-size="10.00">2</text>
</a>
</g>
<!-- dir_f7b85038ab7aa457c95f185be9326487 -->
<g id="node5" class="node"><title>dir_f7b85038ab7aa457c95f185be9326487</title>
<a xlink:href="dir_f7b85038ab7aa457c95f185be9326487.html" target="_top" xlink:title="core">
<polygon fill="white" stroke="red" points="117,-108 63,-108 63,-72 117,-72 117,-108"/>
<text text-anchor="middle" x="90" y="-87.5" font-family="Helvetica,sans-Serif" font-size="10.00">core</text>
</a>
</g>
<!-- dir_0468784d18fbee50dd0c502b94621098&#45;&gt;dir_f7b85038ab7aa457c95f185be9326487 -->
<g id="edge11" class="edge"><title>dir_0468784d18fbee50dd0c502b94621098&#45;&gt;dir_f7b85038ab7aa457c95f185be9326487</title>
<path fill="none" stroke="black" d="M59.3975,-215.719C66.8986,-205.785 75.2951,-192.916 80,-180 87.208,-160.212 89.6107,-136.49 90.2633,-118.369"/>
<polygon fill="black" stroke="black" points="93.7668,-118.227 90.4698,-108.158 86.7683,-118.085 93.7668,-118.227"/>
<a xlink:href="dir_000008_000019.html" target="_top" xlink:title="2">
<text text-anchor="middle" x="96.533" y="-119.378" font-family="Helvetica,sans-Serif" font-size="10.00">2</text>
</a>
</g>
<!-- dir_3f294fe57dd4b169cf6323a211c2c0d4&#45;&gt;dir_a7bc868a07a00fb60430363f39b25690 -->
<g id="edge3" class="edge"><title>dir_3f294fe57dd4b169cf6323a211c2c0d4&#45;&gt;dir_a7bc868a07a00fb60430363f39b25690</title>
<path fill="none" stroke="black" d="M42.8601,-143.762C41.3251,-119.201 38.578,-75.2474 36.7721,-46.3541"/>
<polygon fill="black" stroke="black" points="40.2477,-45.8518 36.1306,-36.0896 33.2613,-46.2885 40.2477,-45.8518"/>
<a xlink:href="dir_000048_000005.html" target="_top" xlink:title="10">
<text text-anchor="middle" x="43.3055" y="-46.7623" font-family="Helvetica,sans-Serif" font-size="10.00">10</text>
</a>
</g>
<!-- dir_3f294fe57dd4b169cf6323a211c2c0d4&#45;&gt;dir_f7b85038ab7aa457c95f185be9326487 -->
<g id="edge5" class="edge"><title>dir_3f294fe57dd4b169cf6323a211c2c0d4&#45;&gt;dir_f7b85038ab7aa457c95f185be9326487</title>
<path fill="none" stroke="black" d="M55.6077,-143.831C60.7978,-135.708 67.0232,-125.964 72.7425,-117.012"/>
<polygon fill="black" stroke="black" points="75.8015,-118.725 78.236,-108.413 69.9026,-114.956 75.8015,-118.725"/>
<a xlink:href="dir_000048_000019.html" target="_top" xlink:title="1">
<text text-anchor="middle" x="76.2589" y="-120.782" font-family="Helvetica,sans-Serif" font-size="10.00">1</text>
</a>
</g>
<!-- dir_f7b85038ab7aa457c95f185be9326487&#45;&gt;dir_a7bc868a07a00fb60430363f39b25690 -->
<g id="edge13" class="edge"><title>dir_f7b85038ab7aa457c95f185be9326487&#45;&gt;dir_a7bc868a07a00fb60430363f39b25690</title>
<path fill="none" stroke="black" d="M76.1212,-71.8314C69.7864,-63.5386 62.1616,-53.557 55.2074,-44.4533"/>
<polygon fill="black" stroke="black" points="57.9175,-42.2353 49.0657,-36.4133 52.3548,-46.4847 57.9175,-42.2353"/>
<a xlink:href="dir_000019_000005.html" target="_top" xlink:title="85">
<text text-anchor="middle" x="62.3558" y="-40.8683" font-family="Helvetica,sans-Serif" font-size="10.00">85</text>
</a>
</g>
</g>
</svg>
