<?xml version="1.0" encoding="UTF-8" standalone="no"?>
<!DOCTYPE svg PUBLIC "-//W3C//DTD SVG 1.1//EN"
 "http://www.w3.org/Graphics/SVG/1.1/DTD/svg11.dtd">
<!-- Generated by graphviz version 2.26.3 (20100126.1600)
 -->
<!-- Title: G Pages: 1 -->
<svg width="112pt" height="153pt"
 viewBox="0.00 0.00 112.00 153.00" xmlns="http://www.w3.org/2000/svg" xmlns:xlink="http://www.w3.org/1999/xlink">
<g id="graph1" class="graph" transform="scale(1 1) rotate(0) translate(4 149)">
<title>G</title>
<polygon fill="white" stroke="white" points="-4,5 -4,-149 109,-149 109,5 -4,5"/>
<g id="graph2" class="cluster"><title>clusterdir_18fe6922e29c45285b63ff54cf62344c</title>
<a xlink:href="dir_18fe6922e29c45285b63ff54cf62344c.html" target="_top" xlink:title="gaia">
<polygon fill="#ddddee" stroke="black" points="8,-64 8,-137 96,-137 96,-64 8,-64"/>
<text text-anchor="middle" x="52" y="-124" font-family="Helvetica,sans-Serif" font-size="10.00">gaia</text>
</a>
</g>
<!-- dir_99a710a9224aa909723084f3225a2a90 -->
<g id="node2" class="node"><title>dir_99a710a9224aa909723084f3225a2a90</title>
<a xlink:href="dir_99a710a9224aa909723084f3225a2a90.html" target="_top" xlink:title="cloudstorage">
<polygon fill="#eeeeff" stroke="black" points="88,-108 16,-108 16,-72 88,-72 88,-108"/>
<text text-anchor="middle" x="52" y="-87.5" font-family="Helvetica,sans-Serif" font-size="10.00">cloudstorage</text>
</a>
</g>
<!-- dir_a7bc868a07a00fb60430363f39b25690 -->
<g id="node3" class="node"><title>dir_a7bc868a07a00fb60430363f39b25690</title>
<a xlink:href="dir_a7bc868a07a00fb60430363f39b25690.html" target="_top" xlink:title="base">
<polygon fill="none" stroke="black" points="79,-36 25,-36 25,-1.77636e-14 79,-3.55271e-15 79,-36"/>
<text text-anchor="middle" x="52" y="-15.5" font-family="Helvetica,sans-Serif" font-size="10.00">base</text>
</a>
</g>
<!-- dir_99a710a9224aa909723084f3225a2a90&#45;&gt;dir_a7bc868a07a00fb60430363f39b25690 -->
<g id="edge3" class="edge"><title>dir_99a710a9224aa909723084f3225a2a90&#45;&gt;dir_a7bc868a07a00fb60430363f39b25690</title>
<path fill="none" stroke="black" d="M52,-71.8314C52,-64.131 52,-54.9743 52,-46.4166"/>
<polygon fill="black" stroke="black" points="55.5001,-46.4132 52,-36.4133 48.5001,-46.4133 55.5001,-46.4132"/>
<a xlink:href="dir_000006_000005.html" target="_top" xlink:title="4">
<text text-anchor="middle" x="58.3393" y="-47.5079" font-family="Helvetica,sans-Serif" font-size="10.00">4</text>
</a>
</g>
</g>
</svg>
