<?xml version="1.0" encoding="UTF-8" standalone="no"?>
<!DOCTYPE svg PUBLIC "-//W3C//DTD SVG 1.1//EN"
 "http://www.w3.org/Graphics/SVG/1.1/DTD/svg11.dtd">
<!-- Generated by graphviz version 2.26.3 (20100126.1600)
 -->
<!-- Title: G Pages: 1 -->
<svg width="133pt" height="297pt"
 viewBox="0.00 0.00 133.00 297.00" xmlns="http://www.w3.org/2000/svg" xmlns:xlink="http://www.w3.org/1999/xlink">
<g id="graph1" class="graph" transform="scale(1 1) rotate(0) translate(4 293)">
<title>G</title>
<polygon fill="white" stroke="white" points="-4,5 -4,-293 130,-293 130,5 -4,5"/>
<g id="graph2" class="cluster"><title>clusterdir_63b7357f9450ad7acaa914fca67749bb</title>
<a xlink:href="dir_63b7357f9450ad7acaa914fca67749bb.html" target="_top" xlink:title="text">
<polygon fill="#ddddee" stroke="black" points="8,-208 8,-281 78,-281 78,-208 8,-208"/>
<text text-anchor="middle" x="43" y="-268" font-family="Helvetica,sans-Serif" font-size="10.00">text</text>
</a>
</g>
<!-- dir_9c70f2d429aee3f6728684f07a70490c -->
<g id="node2" class="node"><title>dir_9c70f2d429aee3f6728684f07a70490c</title>
<a xlink:href="dir_9c70f2d429aee3f6728684f07a70490c.html" target="_top" xlink:title="style">
<polygon fill="#eeeeff" stroke="black" points="70,-252 16,-252 16,-216 70,-216 70,-252"/>
<text text-anchor="middle" x="43" y="-231.5" font-family="Helvetica,sans-Serif" font-size="10.00">style</text>
</a>
</g>
<!-- dir_a7bc868a07a00fb60430363f39b25690 -->
<g id="node3" class="node"><title>dir_a7bc868a07a00fb60430363f39b25690</title>
<a xlink:href="dir_a7bc868a07a00fb60430363f39b25690.html" target="_top" xlink:title="base">
<polygon fill="none" stroke="black" points="79,-36 25,-36 25,-1.77636e-14 79,-3.55271e-15 79,-36"/>
<text text-anchor="middle" x="52" y="-15.5" font-family="Helvetica,sans-Serif" font-size="10.00">base</text>
</a>
</g>
<!-- dir_9c70f2d429aee3f6728684f07a70490c&#45;&gt;dir_a7bc868a07a00fb60430363f39b25690 -->
<g id="edge3" class="edge"><title>dir_9c70f2d429aee3f6728684f07a70490c&#45;&gt;dir_a7bc868a07a00fb60430363f39b25690</title>
<path fill="none" stroke="black" d="M34.6006,-215.672C21.8485,-185.277 0.631563,-122.759 16,-72 18.9564,-62.2355 24.3252,-52.6229 30.03,-44.2762"/>
<polygon fill="black" stroke="black" points="32.9414,-46.2239 36.0095,-36.0831 27.2871,-42.0973 32.9414,-46.2239"/>
<a xlink:href="dir_000053_000005.html" target="_top" xlink:title="3">
<text text-anchor="middle" x="33.1158" y="-48.3013" font-family="Helvetica,sans-Serif" font-size="10.00">3</text>
</a>
</g>
<!-- dir_8b4d5a991ae7b4a5030d88c7be6acac9 -->
<g id="node4" class="node"><title>dir_8b4d5a991ae7b4a5030d88c7be6acac9</title>
<a xlink:href="dir_8b4d5a991ae7b4a5030d88c7be6acac9.html" target="_top" xlink:title="graphics">
<polygon fill="none" stroke="black" points="79,-108 25,-108 25,-72 79,-72 79,-108"/>
<text text-anchor="middle" x="52" y="-87.5" font-family="Helvetica,sans-Serif" font-size="10.00">graphics</text>
</a>
</g>
<!-- dir_9c70f2d429aee3f6728684f07a70490c&#45;&gt;dir_8b4d5a991ae7b4a5030d88c7be6acac9 -->
<g id="edge5" class="edge"><title>dir_9c70f2d429aee3f6728684f07a70490c&#45;&gt;dir_8b4d5a991ae7b4a5030d88c7be6acac9</title>
<path fill="none" stroke="black" d="M44.1399,-215.762C45.6749,-191.201 48.422,-147.247 50.2279,-118.354"/>
<polygon fill="black" stroke="black" points="53.7387,-118.288 50.8694,-108.09 46.7523,-117.852 53.7387,-118.288"/>
<a xlink:href="dir_000053_000036.html" target="_top" xlink:title="6">
<text text-anchor="middle" x="56.3483" y="-119.553" font-family="Helvetica,sans-Serif" font-size="10.00">6</text>
</a>
</g>
<!-- dir_f7b85038ab7aa457c95f185be9326487 -->
<g id="node5" class="node"><title>dir_f7b85038ab7aa457c95f185be9326487</title>
<a xlink:href="dir_f7b85038ab7aa457c95f185be9326487.html" target="_top" xlink:title="core">
<polygon fill="white" stroke="red" points="125,-180 71,-180 71,-144 125,-144 125,-180"/>
<text text-anchor="middle" x="98" y="-159.5" font-family="Helvetica,sans-Serif" font-size="10.00">core</text>
</a>
</g>
<!-- dir_9c70f2d429aee3f6728684f07a70490c&#45;&gt;dir_f7b85038ab7aa457c95f185be9326487 -->
<g id="edge7" class="edge"><title>dir_9c70f2d429aee3f6728684f07a70490c&#45;&gt;dir_f7b85038ab7aa457c95f185be9326487</title>
<path fill="none" stroke="black" d="M56.8788,-215.831C63.2136,-207.539 70.8384,-197.557 77.7926,-188.453"/>
<polygon fill="black" stroke="black" points="80.6452,-190.485 83.9343,-180.413 75.0825,-186.235 80.6452,-190.485"/>
<a xlink:href="dir_000053_000019.html" target="_top" xlink:title="1">
<text text-anchor="middle" x="80.7195" y="-192.565" font-family="Helvetica,sans-Serif" font-size="10.00">1</text>
</a>
</g>
<!-- dir_8b4d5a991ae7b4a5030d88c7be6acac9&#45;&gt;dir_a7bc868a07a00fb60430363f39b25690 -->
<g id="edge9" class="edge"><title>dir_8b4d5a991ae7b4a5030d88c7be6acac9&#45;&gt;dir_a7bc868a07a00fb60430363f39b25690</title>
<path fill="none" stroke="black" d="M52,-71.8314C52,-64.131 52,-54.9743 52,-46.4166"/>
<polygon fill="black" stroke="black" points="55.5001,-46.4132 52,-36.4133 48.5001,-46.4133 55.5001,-46.4132"/>
<a xlink:href="dir_000036_000005.html" target="_top" xlink:title="13">
<text text-anchor="middle" x="58.3393" y="-47.5079" font-family="Helvetica,sans-Serif" font-size="10.00">13</text>
</a>
</g>
<!-- dir_f7b85038ab7aa457c95f185be9326487&#45;&gt;dir_a7bc868a07a00fb60430363f39b25690 -->
<g id="edge11" class="edge"><title>dir_f7b85038ab7aa457c95f185be9326487&#45;&gt;dir_a7bc868a07a00fb60430363f39b25690</title>
<path fill="none" stroke="black" d="M98.4698,-143.842C98.3849,-125.248 96.6632,-95.7823 88,-72 84.5081,-62.414 78.9827,-52.8535 73.299,-44.4998"/>
<polygon fill="black" stroke="black" points="76.073,-42.3622 67.3975,-36.2807 70.387,-46.445 76.073,-42.3622"/>
<a xlink:href="dir_000019_000005.html" target="_top" xlink:title="85">
<text text-anchor="middle" x="80.4759" y="-41.1261" font-family="Helvetica,sans-Serif" font-size="10.00">85</text>
</a>
</g>
<!-- dir_f7b85038ab7aa457c95f185be9326487&#45;&gt;dir_8b4d5a991ae7b4a5030d88c7be6acac9 -->
<g id="edge13" class="edge"><title>dir_f7b85038ab7aa457c95f185be9326487&#45;&gt;dir_8b4d5a991ae7b4a5030d88c7be6acac9</title>
<path fill="none" stroke="black" d="M86.3923,-143.831C81.2022,-135.708 74.9768,-125.964 69.2575,-117.012"/>
<polygon fill="black" stroke="black" points="72.0974,-114.956 63.764,-108.413 66.1985,-118.725 72.0974,-114.956"/>
<a xlink:href="dir_000019_000036.html" target="_top" xlink:title="2">
<text text-anchor="middle" x="76.4253" y="-113.956" font-family="Helvetica,sans-Serif" font-size="10.00">2</text>
</a>
</g>
</g>
</svg>
