<?xml version="1.0" encoding="UTF-8" standalone="no"?>
<!DOCTYPE svg PUBLIC "-//W3C//DTD SVG 1.1//EN"
 "http://www.w3.org/Graphics/SVG/1.1/DTD/svg11.dtd">
<!-- Generated by graphviz version 2.26.3 (20100126.1600)
 -->
<!-- Title: G Pages: 1 -->
<svg width="207pt" height="233pt"
 viewBox="0.00 0.00 207.22 233.00" xmlns="http://www.w3.org/2000/svg" xmlns:xlink="http://www.w3.org/1999/xlink">
<g id="graph1" class="graph" transform="scale(1 1) rotate(0) translate(4 229)">
<title>G</title>
<polygon fill="white" stroke="white" points="-4,5 -4,-229 204.22,-229 204.22,5 -4,5"/>
<g id="graph2" class="cluster"><title>clusterdir_18fe6922e29c45285b63ff54cf62344c</title>
<a xlink:href="dir_18fe6922e29c45285b63ff54cf62344c.html" target="_top" xlink:title="gaia">
<polygon fill="#ddddee" stroke="black" points="23.2201,-128 23.2201,-217 191.22,-217 191.22,-128 23.2201,-128"/>
<text text-anchor="middle" x="107.22" y="-204" font-family="Helvetica,sans-Serif" font-size="10.00">gaia</text>
</a>
</g>
<g id="graph3" class="cluster"><title>clusterdir_a3509e446681fa01bb0c9626fadbbb79</title>
<a xlink:href="dir_a3509e446681fa01bb0c9626fadbbb79.html" target="_top">
<polygon fill="#eeeeff" stroke="black" points="31.2201,-136 31.2201,-188 183.22,-188 183.22,-136 31.2201,-136"/>
</a>
</g>
<!-- dir_a3509e446681fa01bb0c9626fadbbb79 -->
<g id="node3" class="node"><title>dir_a3509e446681fa01bb0c9626fadbbb79</title>
<text text-anchor="middle" x="66.2201" y="-159.5" font-family="Helvetica,sans-Serif" font-size="10.00">media</text>
</g>
<!-- dir_a7bc868a07a00fb60430363f39b25690 -->
<g id="node5" class="node"><title>dir_a7bc868a07a00fb60430363f39b25690</title>
<a xlink:href="dir_a7bc868a07a00fb60430363f39b25690.html" target="_top" xlink:title="base">
<polygon fill="none" stroke="black" points="104.22,-36 50.2201,-36 50.2201,-1.77636e-14 104.22,-3.55271e-15 104.22,-36"/>
<text text-anchor="middle" x="77.2201" y="-15.5" font-family="Helvetica,sans-Serif" font-size="10.00">base</text>
</a>
</g>
<!-- dir_a3509e446681fa01bb0c9626fadbbb79&#45;&gt;dir_a7bc868a07a00fb60430363f39b25690 -->
<g id="edge6" class="edge"><title>dir_a3509e446681fa01bb0c9626fadbbb79&#45;&gt;dir_a7bc868a07a00fb60430363f39b25690</title>
<path fill="none" stroke="black" d="M39.0828,-145.806C26.2587,-136.522 12.2468,-123.605 5.22005,-108 -1.34932,-93.4108 -1.93537,-86.3108 5.22005,-72 12.9011,-56.638 27.2605,-44.5124 41.147,-35.6761"/>
<polygon fill="black" stroke="black" points="43.3171,-38.4582 50.1292,-30.3435 39.7436,-32.439 43.3171,-38.4582"/>
<a xlink:href="dir_000037_000005.html" target="_top" xlink:title="66">
<text text-anchor="middle" x="41.6756" y="-40.2346" font-family="Helvetica,sans-Serif" font-size="10.00">66</text>
</a>
</g>
<!-- dir_860197fd86524a16fea77a36b630e2cf -->
<g id="node6" class="node"><title>dir_860197fd86524a16fea77a36b630e2cf</title>
<a xlink:href="dir_860197fd86524a16fea77a36b630e2cf.html" target="_top" xlink:title="system">
<polygon fill="none" stroke="black" points="68.2201,-108 14.2201,-108 14.2201,-72 68.2201,-72 68.2201,-108"/>
<text text-anchor="middle" x="41.2201" y="-87.5" font-family="Helvetica,sans-Serif" font-size="10.00">system</text>
</a>
</g>
<!-- dir_a3509e446681fa01bb0c9626fadbbb79&#45;&gt;dir_860197fd86524a16fea77a36b630e2cf -->
<g id="edge8" class="edge"><title>dir_a3509e446681fa01bb0c9626fadbbb79&#45;&gt;dir_860197fd86524a16fea77a36b630e2cf</title>
<path fill="none" stroke="black" d="M59.9115,-143.831C57.2084,-136.046 53.9884,-126.773 50.9891,-118.135"/>
<polygon fill="black" stroke="black" points="54.2001,-116.712 47.6135,-108.413 47.5874,-119.008 54.2001,-116.712"/>
<a xlink:href="dir_000037_000031.html" target="_top" xlink:title="1">
<text text-anchor="middle" x="58.0613" y="-116.676" font-family="Helvetica,sans-Serif" font-size="10.00">1</text>
</a>
</g>
<!-- dir_8b4d5a991ae7b4a5030d88c7be6acac9 -->
<g id="node7" class="node"><title>dir_8b4d5a991ae7b4a5030d88c7be6acac9</title>
<a xlink:href="dir_8b4d5a991ae7b4a5030d88c7be6acac9.html" target="_top" xlink:title="graphics">
<polygon fill="none" stroke="black" points="140.22,-108 86.2201,-108 86.2201,-72 140.22,-72 140.22,-108"/>
<text text-anchor="middle" x="113.22" y="-87.5" font-family="Helvetica,sans-Serif" font-size="10.00">graphics</text>
</a>
</g>
<!-- dir_a3509e446681fa01bb0c9626fadbbb79&#45;&gt;dir_8b4d5a991ae7b4a5030d88c7be6acac9 -->
<g id="edge10" class="edge"><title>dir_a3509e446681fa01bb0c9626fadbbb79&#45;&gt;dir_8b4d5a991ae7b4a5030d88c7be6acac9</title>
<path fill="none" stroke="black" d="M78.0801,-143.831C83.383,-135.708 89.7437,-125.964 95.5874,-117.012"/>
<polygon fill="black" stroke="black" points="98.6648,-118.7 101.2,-108.413 92.8032,-114.874 98.6648,-118.7"/>
<a xlink:href="dir_000037_000036.html" target="_top" xlink:title="3">
<text text-anchor="middle" x="99.0775" y="-120.762" font-family="Helvetica,sans-Serif" font-size="10.00">3</text>
</a>
</g>
<!-- dir_698ae63958eeac9db7183095c6cc479b -->
<g id="node4" class="node"><title>dir_698ae63958eeac9db7183095c6cc479b</title>
<a xlink:href="dir_698ae63958eeac9db7183095c6cc479b.html" target="_top" xlink:title="videoeditor">
<polygon fill="white" stroke="black" points="175.22,-180 111.22,-180 111.22,-144 175.22,-144 175.22,-180"/>
<text text-anchor="middle" x="143.22" y="-159.5" font-family="Helvetica,sans-Serif" font-size="10.00">videoeditor</text>
</a>
</g>
<!-- dir_698ae63958eeac9db7183095c6cc479b&#45;&gt;dir_a7bc868a07a00fb60430363f39b25690 -->
<g id="edge12" class="edge"><title>dir_698ae63958eeac9db7183095c6cc479b&#45;&gt;dir_a7bc868a07a00fb60430363f39b25690</title>
<path fill="none" stroke="black" d="M149.642,-143.686C155.149,-124.704 160.565,-94.6904 149.22,-72 141.539,-56.638 127.18,-44.5124 113.293,-35.6761"/>
<polygon fill="black" stroke="black" points="114.697,-32.439 104.311,-30.3435 111.123,-38.4582 114.697,-32.439"/>
<a xlink:href="dir_000042_000005.html" target="_top" xlink:title="23">
<text text-anchor="middle" x="119.237" y="-29.3326" font-family="Helvetica,sans-Serif" font-size="10.00">23</text>
</a>
</g>
<!-- dir_860197fd86524a16fea77a36b630e2cf&#45;&gt;dir_a7bc868a07a00fb60430363f39b25690 -->
<g id="edge4" class="edge"><title>dir_860197fd86524a16fea77a36b630e2cf&#45;&gt;dir_a7bc868a07a00fb60430363f39b25690</title>
<path fill="none" stroke="black" d="M50.3044,-71.8314C54.2815,-63.8771 59.0355,-54.369 63.4339,-45.5723"/>
<polygon fill="black" stroke="black" points="66.6717,-46.9228 68.0134,-36.4133 60.4107,-43.7923 66.6717,-46.9228"/>
<a xlink:href="dir_000031_000005.html" target="_top" xlink:title="19">
<text text-anchor="middle" x="67.6037" y="-48.9077" font-family="Helvetica,sans-Serif" font-size="10.00">19</text>
</a>
</g>
<!-- dir_8b4d5a991ae7b4a5030d88c7be6acac9&#45;&gt;dir_a7bc868a07a00fb60430363f39b25690 -->
<g id="edge14" class="edge"><title>dir_8b4d5a991ae7b4a5030d88c7be6acac9&#45;&gt;dir_a7bc868a07a00fb60430363f39b25690</title>
<path fill="none" stroke="black" d="M104.136,-71.8314C100.159,-63.8771 95.4046,-54.369 91.0062,-45.5723"/>
<polygon fill="black" stroke="black" points="94.0294,-43.7923 86.4267,-36.4133 87.7684,-46.9228 94.0294,-43.7923"/>
<a xlink:href="dir_000036_000005.html" target="_top" xlink:title="13">
<text text-anchor="middle" x="98.1764" y="-43.2377" font-family="Helvetica,sans-Serif" font-size="10.00">13</text>
</a>
</g>
</g>
</svg>
