<?xml version="1.0" encoding="UTF-8" standalone="no"?>
<!DOCTYPE svg PUBLIC "-//W3C//DTD SVG 1.1//EN"
 "http://www.w3.org/Graphics/SVG/1.1/DTD/svg11.dtd">
<!-- Generated by graphviz version 2.26.3 (20100126.1600)
 -->
<!-- Title: G Pages: 1 -->
<svg width="394pt" height="110pt"
 viewBox="0.00 0.00 394.00 110.00" xmlns="http://www.w3.org/2000/svg" xmlns:xlink="http://www.w3.org/1999/xlink">
<g id="graph1" class="graph" transform="scale(1 1) rotate(0) translate(4 106)">
<title>G</title>
<polygon fill="white" stroke="white" points="-4,5 -4,-106 391,-106 391,5 -4,5"/>
<!-- Node1 -->
<g id="node1" class="node"><title>Node1</title>
<a xlink:href="d7/dd4/classgaia_1_1ui_1_1_dialog_box.html" target="_top" xlink:title="Base class for showing dialog on screen.">
<polygon fill="white" stroke="black" points="0.5,-40.5 0.5,-61.5 99.5,-61.5 99.5,-40.5 0.5,-40.5"/>
<text text-anchor="middle" x="50" y="-48.5" font-family="Helvetica,sans-Serif" font-size="10.00">gaia::ui::DialogBox</text>
</a>
</g>
<!-- Node2 -->
<g id="node3" class="node"><title>Node2</title>
<a xlink:href="de/d28/classgaia_1_1ui_1_1_alert_box.html" target="_top" xlink:title="A subclass of DialogBox that can display one, two or three buttons.">
<polygon fill="white" stroke="black" points="136,-40.5 136,-61.5 228,-61.5 228,-40.5 136,-40.5"/>
<text text-anchor="middle" x="182" y="-48.5" font-family="Helvetica,sans-Serif" font-size="10.00">gaia::ui::AlertBox</text>
</a>
</g>
<!-- Node1&#45;&gt;Node2 -->
<g id="edge2" class="edge"><title>Node1&#45;&gt;Node2</title>
<path fill="none" stroke="midnightblue" d="M109.669,-51C118.399,-51 127.277,-51 135.686,-51"/>
<polygon fill="midnightblue" stroke="midnightblue" points="109.528,-47.5001 99.5275,-51 109.527,-54.5001 109.528,-47.5001"/>
</g>
<!-- Node3 -->
<g id="node5" class="node"><title>Node3</title>
<a xlink:href="d2/dd5/classgaia_1_1ui_1_1_date_picker_box.html" target="_top" xlink:title="A subclass of AlertBox that can display a date picker area.">
<polygon fill="white" stroke="black" points="265,-80.5 265,-101.5 385,-101.5 385,-80.5 265,-80.5"/>
<text text-anchor="middle" x="325" y="-88.5" font-family="Helvetica,sans-Serif" font-size="10.00">gaia::ui::DatePickerBox</text>
</a>
</g>
<!-- Node2&#45;&gt;Node3 -->
<g id="edge4" class="edge"><title>Node2&#45;&gt;Node3</title>
<path fill="none" stroke="midnightblue" d="M229.416,-64.2632C248.19,-69.5148 269.473,-75.4681 287.183,-80.4218"/>
<polygon fill="midnightblue" stroke="midnightblue" points="230.145,-60.8328 219.572,-61.5095 228.259,-67.574 230.145,-60.8328"/>
</g>
<!-- Node4 -->
<g id="node7" class="node"><title>Node4</title>
<a xlink:href="d3/d23/classgaia_1_1ui_1_1_progress_box.html" target="_top" xlink:title="A subclass of AlertBox that can display a progress bar.">
<polygon fill="white" stroke="black" points="270,-40.5 270,-61.5 380,-61.5 380,-40.5 270,-40.5"/>
<text text-anchor="middle" x="325" y="-48.5" font-family="Helvetica,sans-Serif" font-size="10.00">gaia::ui::ProgressBox</text>
</a>
</g>
<!-- Node2&#45;&gt;Node4 -->
<g id="edge6" class="edge"><title>Node2&#45;&gt;Node4</title>
<path fill="none" stroke="midnightblue" d="M238.234,-51C248.619,-51 259.456,-51 269.81,-51"/>
<polygon fill="midnightblue" stroke="midnightblue" points="238.033,-47.5001 228.033,-51 238.033,-54.5001 238.033,-47.5001"/>
</g>
<!-- Node5 -->
<g id="node9" class="node"><title>Node5</title>
<a xlink:href="d9/d5b/classgaia_1_1ui_1_1_time_picker_box.html" target="_top" xlink:title="A subclass of AlertBox that can display a time picker area.">
<polygon fill="white" stroke="black" points="264.5,-0.5 264.5,-21.5 385.5,-21.5 385.5,-0.5 264.5,-0.5"/>
<text text-anchor="middle" x="325" y="-8.5" font-family="Helvetica,sans-Serif" font-size="10.00">gaia::ui::TimePickerBox</text>
</a>
</g>
<!-- Node2&#45;&gt;Node5 -->
<g id="edge8" class="edge"><title>Node2&#45;&gt;Node5</title>
<path fill="none" stroke="midnightblue" d="M229.416,-37.7368C248.19,-32.4852 269.473,-26.5319 287.183,-21.5782"/>
<polygon fill="midnightblue" stroke="midnightblue" points="228.259,-34.426 219.572,-40.4905 230.145,-41.1672 228.259,-34.426"/>
</g>
</g>
</svg>
