<?xml version="1.0" encoding="UTF-8" standalone="no"?>
<!DOCTYPE svg PUBLIC "-//W3C//DTD SVG 1.1//EN"
 "http://www.w3.org/Graphics/SVG/1.1/DTD/svg11.dtd">
<!-- Generated by graphviz version 2.26.3 (20100126.1600)
 -->
<!-- Title: G Pages: 1 -->
<svg width="448pt" height="70pt"
 viewBox="0.00 0.00 448.00 70.00" xmlns="http://www.w3.org/2000/svg" xmlns:xlink="http://www.w3.org/1999/xlink">
<g id="graph1" class="graph" transform="scale(1 1) rotate(0) translate(4 66)">
<title>G</title>
<polygon fill="white" stroke="white" points="-4,5 -4,-66 445,-66 445,5 -4,5"/>
<!-- Node1 -->
<g id="node1" class="node"><title>Node1</title>
<a xlink:href="d8/d36/classgaia_1_1core_1_1_animator.html" target="_top" xlink:title="This is the superclass for classes which provide basic support for animations which can be started...">
<polygon fill="white" stroke="black" points="0,-20.5 0,-41.5 104,-41.5 104,-20.5 0,-20.5"/>
<text text-anchor="middle" x="52" y="-28.5" font-family="Helvetica,sans-Serif" font-size="10.00">gaia::core::Animator</text>
</a>
</g>
<!-- Node2 -->
<g id="node3" class="node"><title>Node2</title>
<a xlink:href="db/dff/classgaia_1_1core_1_1_animator_set.html" target="_top" xlink:title="This class plays a set of Animator objects in the specified order.">
<polygon fill="white" stroke="black" points="145.5,-40.5 145.5,-61.5 264.5,-61.5 264.5,-40.5 145.5,-40.5"/>
<text text-anchor="middle" x="205" y="-48.5" font-family="Helvetica,sans-Serif" font-size="10.00">gaia::core::AnimatorSet</text>
</a>
</g>
<!-- Node1&#45;&gt;Node2 -->
<g id="edge2" class="edge"><title>Node1&#45;&gt;Node2</title>
<path fill="none" stroke="midnightblue" d="M114.334,-39.1483C124.588,-40.4887 135.194,-41.875 145.38,-43.2065"/>
<polygon fill="midnightblue" stroke="midnightblue" points="114.595,-35.6527 104.226,-37.8269 113.688,-42.5937 114.595,-35.6527"/>
</g>
<!-- Node3 -->
<g id="node5" class="node"><title>Node3</title>
<a xlink:href="da/ddd/classgaia_1_1core_1_1_value_animator.html" target="_top" xlink:title="This class provides a simple timing engine for running animations which calculate animated values and...">
<polygon fill="white" stroke="black" points="140.5,-0.5 140.5,-21.5 269.5,-21.5 269.5,-0.5 140.5,-0.5"/>
<text text-anchor="middle" x="205" y="-8.5" font-family="Helvetica,sans-Serif" font-size="10.00">gaia::core::ValueAnimator</text>
</a>
</g>
<!-- Node1&#45;&gt;Node3 -->
<g id="edge4" class="edge"><title>Node1&#45;&gt;Node3</title>
<path fill="none" stroke="midnightblue" d="M114.183,-22.8715C122.787,-21.7468 131.641,-20.5894 140.289,-19.4589"/>
<polygon fill="midnightblue" stroke="midnightblue" points="113.688,-19.4063 104.226,-24.1731 114.595,-26.3473 113.688,-19.4063"/>
</g>
<!-- Node4 -->
<g id="node7" class="node"><title>Node4</title>
<a xlink:href="dc/dc3/classgaia_1_1core_1_1_object_animator.html" target="_top" xlink:title="This subclass of ValueAnimator provides support for animating properties on target objects...">
<polygon fill="white" stroke="black" points="306.5,-0.5 306.5,-21.5 439.5,-21.5 439.5,-0.5 306.5,-0.5"/>
<text text-anchor="middle" x="373" y="-8.5" font-family="Helvetica,sans-Serif" font-size="10.00">gaia::core::ObjectAnimator</text>
</a>
</g>
<!-- Node3&#45;&gt;Node4 -->
<g id="edge6" class="edge"><title>Node3&#45;&gt;Node4</title>
<path fill="none" stroke="midnightblue" d="M280.108,-11C288.829,-11 297.679,-11 306.277,-11"/>
<polygon fill="midnightblue" stroke="midnightblue" points="279.953,-7.5001 269.953,-11 279.953,-14.5001 279.953,-7.5001"/>
</g>
</g>
</svg>
