<?xml version="1.0" encoding="UTF-8" standalone="no"?>
<!DOCTYPE svg PUBLIC "-//W3C//DTD SVG 1.1//EN"
 "http://www.w3.org/Graphics/SVG/1.1/DTD/svg11.dtd">
<!-- Generated by graphviz version 2.26.3 (20100126.1600)
 -->
<!-- Title: G Pages: 1 -->
<svg width="812pt" height="90pt"
 viewBox="0.00 0.00 812.00 90.00" xmlns="http://www.w3.org/2000/svg" xmlns:xlink="http://www.w3.org/1999/xlink">
<g id="graph1" class="graph" transform="scale(1 1) rotate(0) translate(4 86)">
<title>G</title>
<polygon fill="white" stroke="white" points="-4,5 -4,-86 809,-86 809,5 -4,5"/>
<!-- Node1 -->
<g id="node1" class="node"><title>Node1</title>
<a xlink:href="d1/d0f/classgaia_1_1base_1_1_char_sequence.html" target="_top" xlink:title="This interface represents an ordered set of characters and defines the methods to probe them...">
<polygon fill="white" stroke="black" points="0,-40.5 0,-61.5 132,-61.5 132,-40.5 0,-40.5"/>
<text text-anchor="middle" x="66" y="-48.5" font-family="Helvetica,sans-Serif" font-size="10.00">gaia::base::CharSequence</text>
</a>
</g>
<!-- Node2 -->
<g id="node3" class="node"><title>Node2</title>
<a xlink:href="d2/ddb/classgaia_1_1base_1_1_string.html" target="_top" xlink:title="A String is represented by array of UTF&#45;16 values, such that Unicode supplementary characters (code p...">
<polygon fill="white" stroke="black" points="172.5,-60.5 172.5,-81.5 265.5,-81.5 265.5,-60.5 172.5,-60.5"/>
<text text-anchor="middle" x="219" y="-68.5" font-family="Helvetica,sans-Serif" font-size="10.00">gaia::base::String</text>
</a>
</g>
<!-- Node1&#45;&gt;Node2 -->
<g id="edge2" class="edge"><title>Node1&#45;&gt;Node2</title>
<path fill="none" stroke="midnightblue" d="M142.449,-60.9934C152.708,-62.3344 162.968,-63.6756 172.491,-64.9204"/>
<polygon fill="midnightblue" stroke="midnightblue" points="142.587,-57.4817 132.218,-59.656 141.68,-64.4227 142.587,-57.4817"/>
</g>
<!-- Node3 -->
<g id="node5" class="node"><title>Node3</title>
<a xlink:href="d3/d76/classgaia_1_1text_1_1_spanned.html" target="_top" xlink:title="This is the interface for text that has markup objects attached to ranges of it.">
<polygon fill="white" stroke="black" points="168.5,-20.5 168.5,-41.5 269.5,-41.5 269.5,-20.5 168.5,-20.5"/>
<text text-anchor="middle" x="219" y="-28.5" font-family="Helvetica,sans-Serif" font-size="10.00">gaia::text::Spanned</text>
</a>
</g>
<!-- Node1&#45;&gt;Node3 -->
<g id="edge4" class="edge"><title>Node1&#45;&gt;Node3</title>
<path fill="none" stroke="midnightblue" d="M142.209,-41.0381C151.082,-39.8782 159.961,-38.7176 168.367,-37.6187"/>
<polygon fill="midnightblue" stroke="midnightblue" points="141.68,-37.5773 132.218,-42.344 142.587,-44.5183 141.68,-37.5773"/>
</g>
<!-- Node4 -->
<g id="node7" class="node"><title>Node4</title>
<a xlink:href="dc/d83/classgaia_1_1text_1_1_spannable.html" target="_top" xlink:title="This is the interface for text to which markup objects can be attached and detached.">
<polygon fill="white" stroke="black" points="315.5,-40.5 315.5,-61.5 424.5,-61.5 424.5,-40.5 315.5,-40.5"/>
<text text-anchor="middle" x="370" y="-48.5" font-family="Helvetica,sans-Serif" font-size="10.00">gaia::text::Spannable</text>
</a>
</g>
<!-- Node3&#45;&gt;Node4 -->
<g id="edge6" class="edge"><title>Node3&#45;&gt;Node4</title>
<path fill="none" stroke="midnightblue" d="M279.845,-39.0589C291.566,-40.6113 303.776,-42.2287 315.288,-43.7534"/>
<polygon fill="midnightblue" stroke="midnightblue" points="280.074,-35.5588 269.701,-37.7153 279.155,-42.4982 280.074,-35.5588"/>
</g>
<!-- Node8 -->
<g id="node15" class="node"><title>Node8</title>
<a xlink:href="d0/dd8/classgaia_1_1text_1_1_spanned_string.html" target="_top" xlink:title="This is the class for text whose content and markup are immutable.">
<polygon fill="white" stroke="black" points="306.5,-0.5 306.5,-21.5 433.5,-21.5 433.5,-0.5 306.5,-0.5"/>
<text text-anchor="middle" x="370" y="-8.5" font-family="Helvetica,sans-Serif" font-size="10.00">gaia::text::SpannedString</text>
</a>
</g>
<!-- Node3&#45;&gt;Node8 -->
<g id="edge14" class="edge"><title>Node3&#45;&gt;Node8</title>
<path fill="none" stroke="midnightblue" d="M279.789,-22.9485C288.514,-21.7929 297.512,-20.6011 306.292,-19.4382"/>
<polygon fill="midnightblue" stroke="midnightblue" points="279.155,-19.5018 269.701,-24.2847 280.074,-26.4412 279.155,-19.5018"/>
</g>
<!-- Node5 -->
<g id="node9" class="node"><title>Node5</title>
<a xlink:href="d6/d89/classgaia_1_1text_1_1_editable.html" target="_top" xlink:title="This is the interface for text whose content and markup can be changed (as opposed to immutable text ...">
<polygon fill="white" stroke="black" points="488,-60.5 488,-81.5 586,-81.5 586,-60.5 488,-60.5"/>
<text text-anchor="middle" x="537" y="-68.5" font-family="Helvetica,sans-Serif" font-size="10.00">gaia::text::Editable</text>
</a>
</g>
<!-- Node4&#45;&gt;Node5 -->
<g id="edge8" class="edge"><title>Node4&#45;&gt;Node5</title>
<path fill="none" stroke="midnightblue" d="M434.886,-58.7708C452.489,-60.8789 471.254,-63.1262 487.833,-65.1117"/>
<polygon fill="midnightblue" stroke="midnightblue" points="435.027,-55.2628 424.682,-57.5487 434.195,-62.2131 435.027,-55.2628"/>
</g>
<!-- Node7 -->
<g id="node13" class="node"><title>Node7</title>
<a xlink:href="d0/de6/classgaia_1_1text_1_1_spannable_string.html" target="_top" xlink:title="This is the class for text whose content is immutable but to which markup objects can be attached and...">
<polygon fill="white" stroke="black" points="470,-20.5 470,-41.5 604,-41.5 604,-20.5 470,-20.5"/>
<text text-anchor="middle" x="537" y="-28.5" font-family="Helvetica,sans-Serif" font-size="10.00">gaia::text::SpannableString</text>
</a>
</g>
<!-- Node4&#45;&gt;Node7 -->
<g id="edge12" class="edge"><title>Node4&#45;&gt;Node7</title>
<path fill="none" stroke="midnightblue" d="M434.688,-43.2529C446.25,-41.8682 458.32,-40.4227 469.947,-39.0303"/>
<polygon fill="midnightblue" stroke="midnightblue" points="434.195,-39.7869 424.682,-44.4513 435.027,-46.7372 434.195,-39.7869"/>
</g>
<!-- Node6 -->
<g id="node11" class="node"><title>Node6</title>
<a xlink:href="da/dfe/classgaia_1_1text_1_1_spannable_string_builder.html" target="_top" xlink:title="This is the class for text whose content and markup can both be changed.">
<polygon fill="white" stroke="black" points="640,-60.5 640,-81.5 804,-81.5 804,-60.5 640,-60.5"/>
<text text-anchor="middle" x="722" y="-68.5" font-family="Helvetica,sans-Serif" font-size="10.00">gaia::text::SpannableStringBuilder</text>
</a>
</g>
<!-- Node5&#45;&gt;Node6 -->
<g id="edge10" class="edge"><title>Node5&#45;&gt;Node6</title>
<path fill="none" stroke="midnightblue" d="M596.406,-71C610.217,-71 625.161,-71 639.76,-71"/>
<polygon fill="midnightblue" stroke="midnightblue" points="596.091,-67.5001 586.091,-71 596.091,-74.5001 596.091,-67.5001"/>
</g>
</g>
</svg>
