<?xml version="1.0" encoding="UTF-8" standalone="no"?>
<!DOCTYPE svg PUBLIC "-//W3C//DTD SVG 1.1//EN"
 "http://www.w3.org/Graphics/SVG/1.1/DTD/svg11.dtd">
<!-- Generated by graphviz version 2.26.3 (20100126.1600)
 -->
<!-- Title: G Pages: 1 -->
<svg width="280pt" height="70pt"
 viewBox="0.00 0.00 280.00 70.00" xmlns="http://www.w3.org/2000/svg" xmlns:xlink="http://www.w3.org/1999/xlink">
<g id="graph1" class="graph" transform="scale(1 1) rotate(0) translate(4 66)">
<title>G</title>
<polygon fill="white" stroke="white" points="-4,5 -4,-66 277,-66 277,5 -4,5"/>
<!-- Node1 -->
<g id="node1" class="node"><title>Node1</title>
<a xlink:href="d0/d47/classgaia_1_1core_1_1_i_binder.html" target="_top" xlink:title="Base class and low&#45;level protocol for a remotable object.">
<polygon fill="white" stroke="black" points="0,-20.5 0,-41.5 96,-41.5 96,-20.5 0,-20.5"/>
<text text-anchor="middle" x="48" y="-28.5" font-family="Helvetica,sans-Serif" font-size="10.00">gaia::core::IBinder</text>
</a>
</g>
<!-- Node2 -->
<g id="node3" class="node"><title>Node2</title>
<a xlink:href="df/ded/classgaia_1_1core_1_1_binder.html" target="_top" xlink:title="Base class for a remotable object, the core part of a lightweight remote procedure call mechanism def...">
<polygon fill="white" stroke="black" points="155.5,-40.5 155.5,-61.5 248.5,-61.5 248.5,-40.5 155.5,-40.5"/>
<text text-anchor="middle" x="202" y="-48.5" font-family="Helvetica,sans-Serif" font-size="10.00">gaia::core::Binder</text>
</a>
</g>
<!-- Node1&#45;&gt;Node2 -->
<g id="edge2" class="edge"><title>Node1&#45;&gt;Node2</title>
<path fill="none" stroke="midnightblue" d="M106.247,-38.5646C122.508,-40.6764 139.958,-42.9425 155.447,-44.9542"/>
<polygon fill="midnightblue" stroke="midnightblue" points="106.672,-35.0904 96.304,-37.2733 105.77,-42.0321 106.672,-35.0904"/>
</g>
<!-- Node3 -->
<g id="node5" class="node"><title>Node3</title>
<a xlink:href="d5/de4/classgaia_1_1core_1_1_binder_s_d_k_proxy.html" target="_top" xlink:title="Base class for a remotable object, this class is an implementation of Binder Proxy side that provides...">
<polygon fill="white" stroke="black" points="132,-0.5 132,-21.5 272,-21.5 272,-0.5 132,-0.5"/>
<text text-anchor="middle" x="202" y="-8.5" font-family="Helvetica,sans-Serif" font-size="10.00">gaia::core::BinderSDKProxy</text>
</a>
</g>
<!-- Node1&#45;&gt;Node3 -->
<g id="edge4" class="edge"><title>Node1&#45;&gt;Node3</title>
<path fill="none" stroke="midnightblue" d="M106.307,-23.4276C114.659,-22.343 123.322,-21.2179 131.872,-20.1075"/>
<polygon fill="midnightblue" stroke="midnightblue" points="105.77,-19.9679 96.304,-24.7267 106.672,-26.9096 105.77,-19.9679"/>
</g>
</g>
</svg>
