<?xml version="1.0" encoding="UTF-8" standalone="no"?>
<!DOCTYPE svg PUBLIC "-//W3C//DTD SVG 1.1//EN"
 "http://www.w3.org/Graphics/SVG/1.1/DTD/svg11.dtd">
<!-- Generated by graphviz version 2.26.3 (20100126.1600)
 -->
<!-- Title: G Pages: 1 -->
<svg width="348pt" height="230pt"
 viewBox="0.00 0.00 348.00 230.00" xmlns="http://www.w3.org/2000/svg" xmlns:xlink="http://www.w3.org/1999/xlink">
<g id="graph1" class="graph" transform="scale(1 1) rotate(0) translate(4 226)">
<title>G</title>
<polygon fill="white" stroke="white" points="-4,5 -4,-226 345,-226 345,5 -4,5"/>
<!-- Node1 -->
<g id="node1" class="node"><title>Node1</title>
<a xlink:href="d0/d36/classgaia_1_1graphics_1_1_path_effect.html" target="_top" xlink:title="PathEffect is the base class for objects in the Paint that affect the geometry of a drawing primitive...">
<polygon fill="white" stroke="black" points="0,-100.5 0,-121.5 130,-121.5 130,-100.5 0,-100.5"/>
<text text-anchor="middle" x="65" y="-108.5" font-family="Helvetica,sans-Serif" font-size="10.00">gaia::graphics::PathEffect</text>
</a>
</g>
<!-- Node2 -->
<g id="node3" class="node"><title>Node2</title>
<a xlink:href="da/d84/classgaia_1_1graphics_1_1_compose_path_effect.html" target="_top" xlink:title="Construct a PathEffect whose effect is to apply first the inner effect and the the outer pathEffect (...">
<polygon fill="white" stroke="black" points="167,-200.5 167,-221.5 339,-221.5 339,-200.5 167,-200.5"/>
<text text-anchor="middle" x="253" y="-208.5" font-family="Helvetica,sans-Serif" font-size="10.00">gaia::graphics::ComposePathEffect</text>
</a>
</g>
<!-- Node1&#45;&gt;Node2 -->
<g id="edge2" class="edge"><title>Node1&#45;&gt;Node2</title>
<path fill="none" stroke="midnightblue" d="M82.3787,-128.835C101.274,-147.18 133.186,-175.233 166,-191 173.962,-194.826 182.692,-197.94 191.453,-200.469"/>
<polygon fill="midnightblue" stroke="midnightblue" points="84.6787,-126.187 75.1132,-121.631 79.7502,-131.158 84.6787,-126.187"/>
</g>
<!-- Node3 -->
<g id="node5" class="node"><title>Node3</title>
<a xlink:href="d7/d0f/classgaia_1_1graphics_1_1_corner_path_effect.html" target="_top" xlink:title="Transforms geometries that are drawn (either STROKE or FILL styles) by replacing any sharp angles bet...">
<polygon fill="white" stroke="black" points="173.5,-160.5 173.5,-181.5 332.5,-181.5 332.5,-160.5 173.5,-160.5"/>
<text text-anchor="middle" x="253" y="-168.5" font-family="Helvetica,sans-Serif" font-size="10.00">gaia::graphics::CornerPathEffect</text>
</a>
</g>
<!-- Node1&#45;&gt;Node3 -->
<g id="edge4" class="edge"><title>Node1&#45;&gt;Node3</title>
<path fill="none" stroke="midnightblue" d="M98.0652,-125.562C117.572,-133.781 142.891,-143.813 166,-151 177.247,-154.498 189.484,-157.682 201.132,-160.429"/>
<polygon fill="midnightblue" stroke="midnightblue" points="99.2859,-122.277 88.7145,-121.573 96.5397,-128.716 99.2859,-122.277"/>
</g>
<!-- Node4 -->
<g id="node7" class="node"><title>Node4</title>
<a xlink:href="d1/d0a/classgaia_1_1graphics_1_1_dash_path_effect.html" target="_top" xlink:title="The intervals array must contain an even number of entries (&gt;=2), with the even indices specifying th...">
<polygon fill="white" stroke="black" points="176.5,-120.5 176.5,-141.5 329.5,-141.5 329.5,-120.5 176.5,-120.5"/>
<text text-anchor="middle" x="253" y="-128.5" font-family="Helvetica,sans-Serif" font-size="10.00">gaia::graphics::DashPathEffect</text>
</a>
</g>
<!-- Node1&#45;&gt;Node4 -->
<g id="edge6" class="edge"><title>Node1&#45;&gt;Node4</title>
<path fill="none" stroke="midnightblue" d="M140.461,-119.028C152.249,-120.282 164.442,-121.579 176.258,-122.836"/>
<polygon fill="midnightblue" stroke="midnightblue" points="140.54,-115.516 130.226,-117.939 139.799,-122.477 140.54,-115.516"/>
</g>
<!-- Node5 -->
<g id="node9" class="node"><title>Node5</title>
<a xlink:href="df/d15/classgaia_1_1graphics_1_1_discrete_path_effect.html" target="_top" xlink:title="Chop the path into lines of segmentLength, randomly deviating from the original path by deviation...">
<polygon fill="white" stroke="black" points="169.5,-80.5 169.5,-101.5 336.5,-101.5 336.5,-80.5 169.5,-80.5"/>
<text text-anchor="middle" x="253" y="-88.5" font-family="Helvetica,sans-Serif" font-size="10.00">gaia::graphics::DiscretePathEffect</text>
</a>
</g>
<!-- Node1&#45;&gt;Node5 -->
<g id="edge8" class="edge"><title>Node1&#45;&gt;Node5</title>
<path fill="none" stroke="midnightblue" d="M140.425,-102.976C149.938,-101.964 159.715,-100.924 169.346,-99.8993"/>
<polygon fill="midnightblue" stroke="midnightblue" points="139.799,-99.5228 130.226,-104.061 140.54,-106.484 139.799,-99.5228"/>
</g>
<!-- Node6 -->
<g id="node11" class="node"><title>Node6</title>
<a xlink:href="d7/dcb/classgaia_1_1graphics_1_1_path_dash_path_effect.html" target="_top" xlink:title="Dash the drawn path by stamping it with the specified shape.">
<polygon fill="white" stroke="black" points="166.5,-40.5 166.5,-61.5 339.5,-61.5 339.5,-40.5 166.5,-40.5"/>
<text text-anchor="middle" x="253" y="-48.5" font-family="Helvetica,sans-Serif" font-size="10.00">gaia::graphics::PathDashPathEffect</text>
</a>
</g>
<!-- Node1&#45;&gt;Node6 -->
<g id="edge10" class="edge"><title>Node1&#45;&gt;Node6</title>
<path fill="none" stroke="midnightblue" d="M98.0652,-96.4384C117.572,-88.2192 142.891,-78.1871 166,-71 177.247,-67.5021 189.484,-64.3183 201.132,-61.5705"/>
<polygon fill="midnightblue" stroke="midnightblue" points="96.5397,-93.284 88.7145,-100.427 99.2859,-99.7228 96.5397,-93.284"/>
</g>
<!-- Node7 -->
<g id="node13" class="node"><title>Node7</title>
<a xlink:href="d3/d91/classgaia_1_1graphics_1_1_sum_path_effect.html" target="_top" xlink:title="Construct a PathEffect whose effect is to apply two effects, in sequence.">
<polygon fill="white" stroke="black" points="178,-0.5 178,-21.5 328,-21.5 328,-0.5 178,-0.5"/>
<text text-anchor="middle" x="253" y="-8.5" font-family="Helvetica,sans-Serif" font-size="10.00">gaia::graphics::SumPathEffect</text>
</a>
</g>
<!-- Node1&#45;&gt;Node7 -->
<g id="edge12" class="edge"><title>Node1&#45;&gt;Node7</title>
<path fill="none" stroke="midnightblue" d="M82.3787,-93.165C101.274,-74.82 133.186,-46.7671 166,-31 173.962,-27.174 182.692,-24.0603 191.453,-21.5313"/>
<polygon fill="midnightblue" stroke="midnightblue" points="79.7502,-90.8424 75.1132,-100.369 84.6787,-95.8132 79.7502,-90.8424"/>
</g>
</g>
</svg>
