<?xml version="1.0" encoding="UTF-8" standalone="no"?>
<!DOCTYPE svg PUBLIC "-//W3C//DTD SVG 1.1//EN"
 "http://www.w3.org/Graphics/SVG/1.1/DTD/svg11.dtd">
<!-- Generated by graphviz version 2.26.3 (20100126.1600)
 -->
<!-- Title: G Pages: 1 -->
<svg width="346pt" height="70pt"
 viewBox="0.00 0.00 346.00 70.00" xmlns="http://www.w3.org/2000/svg" xmlns:xlink="http://www.w3.org/1999/xlink">
<g id="graph1" class="graph" transform="scale(1 1) rotate(0) translate(4 66)">
<title>G</title>
<polygon fill="white" stroke="white" points="-4,5 -4,-66 343,-66 343,5 -4,5"/>
<!-- Node1 -->
<g id="node1" class="node"><title>Node1</title>
<a xlink:href="de/d4d/classgaia_1_1telephony_1_1_cell_identity.html" target="_top" xlink:title="CellIdentity is to represent ONE unique cell in the world it contains all levels of info to identity ...">
<polygon fill="white" stroke="black" points="0,-20.5 0,-41.5 138,-41.5 138,-20.5 0,-20.5"/>
<text text-anchor="middle" x="69" y="-28.5" font-family="Helvetica,sans-Serif" font-size="10.00">gaia::telephony::CellIdentity</text>
</a>
</g>
<!-- Node2 -->
<g id="node3" class="node"><title>Node2</title>
<a xlink:href="d4/d32/classgaia_1_1telephony_1_1_cdma_cell_identity.html" target="_top" xlink:title="CellIdentity is to represent a unique CDMA cell.">
<polygon fill="white" stroke="black" points="174,-40.5 174,-61.5 338,-61.5 338,-40.5 174,-40.5"/>
<text text-anchor="middle" x="256" y="-48.5" font-family="Helvetica,sans-Serif" font-size="10.00">gaia::telephony::CdmaCellIdentity</text>
</a>
</g>
<!-- Node1&#45;&gt;Node2 -->
<g id="edge2" class="edge"><title>Node1&#45;&gt;Node2</title>
<path fill="none" stroke="midnightblue" d="M148.323,-39.4837C156.783,-40.3886 165.402,-41.3104 173.894,-42.2186"/>
<polygon fill="midnightblue" stroke="midnightblue" points="148.416,-35.9738 138.101,-38.3904 147.672,-42.9341 148.416,-35.9738"/>
</g>
<!-- Node3 -->
<g id="node5" class="node"><title>Node3</title>
<a xlink:href="dc/d07/classgaia_1_1telephony_1_1_gsm_cell_identity.html" target="_top" xlink:title="CellIdentity to represent a unique GSM or UMTS cell.">
<polygon fill="white" stroke="black" points="176.5,-0.5 176.5,-21.5 335.5,-21.5 335.5,-0.5 176.5,-0.5"/>
<text text-anchor="middle" x="256" y="-8.5" font-family="Helvetica,sans-Serif" font-size="10.00">gaia::telephony::GsmCellIdentity</text>
</a>
</g>
<!-- Node1&#45;&gt;Node3 -->
<g id="edge4" class="edge"><title>Node1&#45;&gt;Node3</title>
<path fill="none" stroke="midnightblue" d="M148.163,-22.5333C157.525,-21.5321 167.083,-20.5099 176.449,-19.5081"/>
<polygon fill="midnightblue" stroke="midnightblue" points="147.672,-19.0659 138.101,-23.6096 148.416,-26.0262 147.672,-19.0659"/>
</g>
</g>
</svg>
