<?xml version="1.0" encoding="UTF-8" standalone="no"?>
<!DOCTYPE svg PUBLIC "-//W3C//DTD SVG 1.1//EN"
 "http://www.w3.org/Graphics/SVG/1.1/DTD/svg11.dtd">
<!-- Generated by graphviz version 2.26.3 (20100126.1600)
 -->
<!-- Title: G Pages: 1 -->
<svg width="624pt" height="30pt"
 viewBox="0.00 0.00 624.00 30.00" xmlns="http://www.w3.org/2000/svg" xmlns:xlink="http://www.w3.org/1999/xlink">
<g id="graph1" class="graph" transform="scale(1 1) rotate(0) translate(4 26)">
<title>G</title>
<polygon fill="white" stroke="white" points="-4,5 -4,-26 621,-26 621,5 -4,5"/>
<!-- Node1 -->
<g id="node1" class="node"><title>Node1</title>
<a xlink:href="d2/d5f/classgaia_1_1core_1_1_instrumentation.html" target="_top" xlink:title="Base class for implementing application Instrumentation.">
<polygon fill="white" stroke="black" points="0.5,-0.5 0.5,-21.5 133.5,-21.5 133.5,-0.5 0.5,-0.5"/>
<text text-anchor="middle" x="67" y="-8.5" font-family="Helvetica,sans-Serif" font-size="10.00">gaia::core::Instrumentation</text>
</a>
</g>
<!-- Node2 -->
<g id="node3" class="node"><title>Node2</title>
<a xlink:href="d6/d4d/classgaia_1_1testing_1_1_instrumentation_test_runner.html" target="_top" xlink:title="An gaia::core::Instrumentation that runs various types of gtest::TestCases against an Gaia package (a...">
<polygon fill="white" stroke="black" points="170,-0.5 170,-21.5 364,-21.5 364,-0.5 170,-0.5"/>
<text text-anchor="middle" x="267" y="-8.5" font-family="Helvetica,sans-Serif" font-size="10.00">gaia::testing::InstrumentationTestRunner</text>
</a>
</g>
<!-- Node1&#45;&gt;Node2 -->
<g id="edge2" class="edge"><title>Node1&#45;&gt;Node2</title>
<path fill="none" stroke="midnightblue" d="M143.8,-11C152.275,-11 160.985,-11 169.668,-11"/>
<polygon fill="midnightblue" stroke="midnightblue" points="143.597,-7.5001 133.597,-11 143.597,-14.5001 143.597,-7.5001"/>
</g>
<!-- Node3 -->
<g id="node5" class="node"><title>Node3</title>
<a xlink:href="d4/d1d/classgaia_1_1testing_1_1_instrumentation_core_test_runner.html" target="_top" xlink:title="This TestRunner can help you dump .leak and .status file in /data/memeleak after gtest run over...">
<polygon fill="white" stroke="black" points="400.5,-0.5 400.5,-21.5 615.5,-21.5 615.5,-0.5 400.5,-0.5"/>
<text text-anchor="middle" x="508" y="-8.5" font-family="Helvetica,sans-Serif" font-size="10.00">gaia::testing::InstrumentationCoreTestRunner</text>
</a>
</g>
<!-- Node2&#45;&gt;Node3 -->
<g id="edge4" class="edge"><title>Node2&#45;&gt;Node3</title>
<path fill="none" stroke="midnightblue" d="M374.423,-11C383.066,-11 391.8,-11 400.445,-11"/>
<polygon fill="midnightblue" stroke="midnightblue" points="374.329,-7.5001 364.329,-11 374.329,-14.5001 374.329,-7.5001"/>
</g>
</g>
</svg>
