<?xml version="1.0" encoding="UTF-8" standalone="no"?>
<!DOCTYPE svg PUBLIC "-//W3C//DTD SVG 1.1//EN"
 "http://www.w3.org/Graphics/SVG/1.1/DTD/svg11.dtd">
<!-- Generated by graphviz version 2.26.3 (20100126.1600)
 -->
<!-- Title: G Pages: 1 -->
<svg width="358pt" height="70pt"
 viewBox="0.00 0.00 358.00 70.00" xmlns="http://www.w3.org/2000/svg" xmlns:xlink="http://www.w3.org/1999/xlink">
<g id="graph1" class="graph" transform="scale(1 1) rotate(0) translate(4 66)">
<title>G</title>
<polygon fill="white" stroke="white" points="-4,5 -4,-66 355,-66 355,5 -4,5"/>
<!-- Node1 -->
<g id="node1" class="node"><title>Node1</title>
<a xlink:href="dc/d20/classgaia_1_1telephony_1_1_cell_location.html" target="_top" xlink:title="CellLocation represents the location of the device.">
<polygon fill="white" stroke="black" points="0.5,-20.5 0.5,-41.5 143.5,-41.5 143.5,-20.5 0.5,-20.5"/>
<text text-anchor="middle" x="72" y="-28.5" font-family="Helvetica,sans-Serif" font-size="10.00">gaia::telephony::CellLocation</text>
</a>
</g>
<!-- Node2 -->
<g id="node3" class="node"><title>Node2</title>
<a xlink:href="da/d61/classgaia_1_1telephony_1_1_cdma_cell_location.html" target="_top" xlink:title="gaia::telephony::CdmaCellLocation">
<polygon fill="white" stroke="black" points="180.5,-40.5 180.5,-61.5 349.5,-61.5 349.5,-40.5 180.5,-40.5"/>
<text text-anchor="middle" x="265" y="-48.5" font-family="Helvetica,sans-Serif" font-size="10.00">gaia::telephony::CdmaCellLocation</text>
</a>
</g>
<!-- Node1&#45;&gt;Node2 -->
<g id="edge2" class="edge"><title>Node1&#45;&gt;Node2</title>
<path fill="none" stroke="midnightblue" d="M153.555,-39.4513C162.46,-40.3741 171.539,-41.315 180.479,-42.2413"/>
<polygon fill="midnightblue" stroke="midnightblue" points="153.899,-35.9683 143.592,-38.4188 153.178,-42.931 153.899,-35.9683"/>
</g>
<!-- Node3 -->
<g id="node5" class="node"><title>Node3</title>
<a xlink:href="dd/da4/classgaia_1_1telephony_1_1_gsm_cell_location.html" target="_top" xlink:title="Represents the cell location on a GSM phone.">
<polygon fill="white" stroke="black" points="183,-0.5 183,-21.5 347,-21.5 347,-0.5 183,-0.5"/>
<text text-anchor="middle" x="265" y="-8.5" font-family="Helvetica,sans-Serif" font-size="10.00">gaia::telephony::GsmCellLocation</text>
</a>
</g>
<!-- Node1&#45;&gt;Node3 -->
<g id="edge4" class="edge"><title>Node1&#45;&gt;Node3</title>
<path fill="none" stroke="midnightblue" d="M153.573,-22.5468C163.238,-21.5452 173.109,-20.5224 182.783,-19.5199"/>
<polygon fill="midnightblue" stroke="midnightblue" points="153.178,-19.069 143.592,-23.5812 153.899,-26.0317 153.178,-19.069"/>
</g>
</g>
</svg>
