<?xml version="1.0" encoding="UTF-8" standalone="no"?>
<!DOCTYPE svg PUBLIC "-//W3C//DTD SVG 1.1//EN"
 "http://www.w3.org/Graphics/SVG/1.1/DTD/svg11.dtd">
<!-- Generated by graphviz version 2.26.3 (20100126.1600)
 -->
<!-- Title: G Pages: 1 -->
<svg width="486pt" height="150pt"
 viewBox="0.00 0.00 486.00 150.00" xmlns="http://www.w3.org/2000/svg" xmlns:xlink="http://www.w3.org/1999/xlink">
<g id="graph1" class="graph" transform="scale(1 1) rotate(0) translate(4 146)">
<title>G</title>
<polygon fill="white" stroke="white" points="-4,5 -4,-146 483,-146 483,5 -4,5"/>
<!-- Node1 -->
<g id="node1" class="node"><title>Node1</title>
<a xlink:href="d8/d3e/classgaia_1_1text_1_1_input_filter.html" target="_top" xlink:title="InputFilters can be attached to Editables to constrain the changes that can be made to them...">
<polygon fill="white" stroke="black" points="4.5,-80.5 4.5,-101.5 111.5,-101.5 111.5,-80.5 4.5,-80.5"/>
<text text-anchor="middle" x="58" y="-88.5" font-family="Helvetica,sans-Serif" font-size="10.00">gaia::text::InputFilter</text>
</a>
</g>
<!-- Node2 -->
<g id="node3" class="node"><title>Node2</title>
<a xlink:href="da/d09/classgaia_1_1text_1_1_all_caps.html" target="_top" xlink:title="This filter will capitalize all the lower case letters that are added through edits.">
<polygon fill="white" stroke="black" points="178,-120.5 178,-141.5 276,-141.5 276,-120.5 178,-120.5"/>
<text text-anchor="middle" x="227" y="-128.5" font-family="Helvetica,sans-Serif" font-size="10.00">gaia::text::AllCaps</text>
</a>
</g>
<!-- Node1&#45;&gt;Node2 -->
<g id="edge2" class="edge"><title>Node1&#45;&gt;Node2</title>
<path fill="none" stroke="midnightblue" d="M112.243,-103.839C134.964,-109.216 161.048,-115.39 182.601,-120.491"/>
<polygon fill="midnightblue" stroke="midnightblue" points="112.94,-100.407 102.403,-101.51 111.328,-107.219 112.94,-100.407"/>
</g>
<!-- Node3 -->
<g id="node5" class="node"><title>Node3</title>
<a xlink:href="dc/da0/classgaia_1_1text_1_1_length_filter.html" target="_top" xlink:title="This filter will constrain edits not to make the length of the text greater than the specified length...">
<polygon fill="white" stroke="black" points="170,-80.5 170,-101.5 284,-101.5 284,-80.5 170,-80.5"/>
<text text-anchor="middle" x="227" y="-88.5" font-family="Helvetica,sans-Serif" font-size="10.00">gaia::text::LengthFilter</text>
</a>
</g>
<!-- Node1&#45;&gt;Node3 -->
<g id="edge4" class="edge"><title>Node1&#45;&gt;Node3</title>
<path fill="none" stroke="midnightblue" d="M122.076,-91C137.761,-91 154.445,-91 169.785,-91"/>
<polygon fill="midnightblue" stroke="midnightblue" points="121.937,-87.5001 111.937,-91 121.937,-94.5001 121.937,-87.5001"/>
</g>
<!-- Node4 -->
<g id="node7" class="node"><title>Node4</title>
<a xlink:href="da/d8a/classgaia_1_1text_1_1_number_key_listener.html" target="_top" xlink:title="For numeric text entry.">
<polygon fill="white" stroke="black" points="152.5,-40.5 152.5,-61.5 301.5,-61.5 301.5,-40.5 152.5,-40.5"/>
<text text-anchor="middle" x="227" y="-48.5" font-family="Helvetica,sans-Serif" font-size="10.00">gaia::text::NumberKeyListener</text>
</a>
</g>
<!-- Node1&#45;&gt;Node4 -->
<g id="edge6" class="edge"><title>Node1&#45;&gt;Node4</title>
<path fill="none" stroke="midnightblue" d="M112.243,-78.1614C134.964,-72.7836 161.048,-66.6099 182.601,-61.5087"/>
<polygon fill="midnightblue" stroke="midnightblue" points="111.328,-74.7813 102.403,-80.4905 112.94,-81.5931 111.328,-74.7813"/>
</g>
<!-- Node5 -->
<g id="node9" class="node"><title>Node5</title>
<a xlink:href="d3/dec/classgaia_1_1text_1_1_dialer_key_listener.html" target="_top" xlink:title="For dialing&#45;only text entry.">
<polygon fill="white" stroke="black" points="338,-60.5 338,-81.5 478,-81.5 478,-60.5 338,-60.5"/>
<text text-anchor="middle" x="408" y="-68.5" font-family="Helvetica,sans-Serif" font-size="10.00">gaia::text::DialerKeyListener</text>
</a>
</g>
<!-- Node4&#45;&gt;Node5 -->
<g id="edge8" class="edge"><title>Node4&#45;&gt;Node5</title>
<path fill="none" stroke="midnightblue" d="M311.842,-60.3748C320.556,-61.3376 329.34,-62.3082 337.869,-63.2507"/>
<polygon fill="midnightblue" stroke="midnightblue" points="311.989,-56.8698 301.665,-59.2502 311.22,-63.8274 311.989,-56.8698"/>
</g>
<!-- Node6 -->
<g id="node11" class="node"><title>Node6</title>
<a xlink:href="d6/de9/classgaia_1_1text_1_1_digits_key_listener.html" target="_top" xlink:title="For digits&#45;only text entry.">
<polygon fill="white" stroke="black" points="338,-20.5 338,-41.5 478,-41.5 478,-20.5 338,-20.5"/>
<text text-anchor="middle" x="408" y="-28.5" font-family="Helvetica,sans-Serif" font-size="10.00">gaia::text::DigitsKeyListener</text>
</a>
</g>
<!-- Node4&#45;&gt;Node6 -->
<g id="edge10" class="edge"><title>Node4&#45;&gt;Node6</title>
<path fill="none" stroke="midnightblue" d="M311.842,-41.6252C320.556,-40.6624 329.34,-39.6918 337.869,-38.7493"/>
<polygon fill="midnightblue" stroke="midnightblue" points="311.22,-38.1726 301.665,-42.7498 311.989,-45.1302 311.22,-38.1726"/>
</g>
<!-- Node7 -->
<g id="node12" class="node"><title>Node7</title>
<a xlink:href="d7/d60/classgaia_1_1text_1_1_key_listener.html" target="_top" xlink:title="Interface for converting text key events into edit operations on an Editable class.">
<polygon fill="white" stroke="black" points="0.5,-20.5 0.5,-41.5 115.5,-41.5 115.5,-20.5 0.5,-20.5"/>
<text text-anchor="middle" x="58" y="-28.5" font-family="Helvetica,sans-Serif" font-size="10.00">gaia::text::KeyListener</text>
</a>
</g>
<!-- Node7&#45;&gt;Node4 -->
<g id="edge12" class="edge"><title>Node7&#45;&gt;Node4</title>
<path fill="none" stroke="midnightblue" d="M125.771,-39.0203C134.478,-40.0506 143.431,-41.1102 152.241,-42.1528"/>
<polygon fill="midnightblue" stroke="midnightblue" points="126.03,-35.5265 115.688,-37.8269 125.207,-42.478 126.03,-35.5265"/>
</g>
<!-- Node8 -->
<g id="node15" class="node"><title>Node8</title>
<a xlink:href="df/d3f/classgaia_1_1text_1_1_text_key_listener.html" target="_top" xlink:title="This is the key listener for typing normal text.">
<polygon fill="white" stroke="black" points="160,-0.5 160,-21.5 294,-21.5 294,-0.5 160,-0.5"/>
<text text-anchor="middle" x="227" y="-8.5" font-family="Helvetica,sans-Serif" font-size="10.00">gaia::text::TextKeyListener</text>
</a>
</g>
<!-- Node7&#45;&gt;Node8 -->
<g id="edge14" class="edge"><title>Node7&#45;&gt;Node8</title>
<path fill="none" stroke="midnightblue" d="M125.868,-22.9683C137.105,-21.6384 148.751,-20.2603 159.967,-18.9329"/>
<polygon fill="midnightblue" stroke="midnightblue" points="125.207,-19.522 115.688,-24.1731 126.03,-26.4735 125.207,-19.522"/>
</g>
</g>
</svg>
