<?xml version="1.0" encoding="UTF-8" standalone="no"?>
<!DOCTYPE svg PUBLIC "-//W3C//DTD SVG 1.1//EN"
 "http://www.w3.org/Graphics/SVG/1.1/DTD/svg11.dtd">
<!-- Generated by graphviz version 2.26.3 (20100126.1600)
 -->
<!-- Title: G Pages: 1 -->
<svg width="340pt" height="70pt"
 viewBox="0.00 0.00 340.00 70.00" xmlns="http://www.w3.org/2000/svg" xmlns:xlink="http://www.w3.org/1999/xlink">
<g id="graph1" class="graph" transform="scale(1 1) rotate(0) translate(4 66)">
<title>G</title>
<polygon fill="white" stroke="white" points="-4,5 -4,-66 337,-66 337,5 -4,5"/>
<!-- Node1 -->
<g id="node1" class="node"><title>Node1</title>
<a xlink:href="dc/d45/classgaia_1_1graphics_1_1_mask_filter.html" target="_top" xlink:title="MaskFilter is the base class for object that perform transformations on an alpha&#45;channel mask before ...">
<polygon fill="white" stroke="black" points="0.5,-20.5 0.5,-41.5 129.5,-41.5 129.5,-20.5 0.5,-20.5"/>
<text text-anchor="middle" x="65" y="-28.5" font-family="Helvetica,sans-Serif" font-size="10.00">gaia::graphics::MaskFilter</text>
</a>
</g>
<!-- Node2 -->
<g id="node3" class="node"><title>Node2</title>
<a xlink:href="df/d97/classgaia_1_1graphics_1_1_blur_mask_filter.html" target="_top" xlink:title="This takes a mask, and blurs its edge by the specified radius.">
<polygon fill="white" stroke="black" points="176,-40.5 176,-61.5 322,-61.5 322,-40.5 176,-40.5"/>
<text text-anchor="middle" x="249" y="-48.5" font-family="Helvetica,sans-Serif" font-size="10.00">gaia::graphics::BlurMaskFilter</text>
</a>
</g>
<!-- Node1&#45;&gt;Node2 -->
<g id="edge2" class="edge"><title>Node1&#45;&gt;Node2</title>
<path fill="none" stroke="midnightblue" d="M139.89,-39.1402C151.722,-40.4264 163.946,-41.7551 175.741,-43.0371"/>
<polygon fill="midnightblue" stroke="midnightblue" points="139.932,-35.6243 129.613,-38.0231 139.176,-42.5833 139.932,-35.6243"/>
</g>
<!-- Node3 -->
<g id="node5" class="node"><title>Node3</title>
<a xlink:href="de/d6f/classgaia_1_1graphics_1_1_emboss_mask_filter.html" target="_top" xlink:title="Create an emboss maskfilter to apply to drawing style.">
<polygon fill="white" stroke="black" points="166.5,-0.5 166.5,-21.5 331.5,-21.5 331.5,-0.5 166.5,-0.5"/>
<text text-anchor="middle" x="249" y="-8.5" font-family="Helvetica,sans-Serif" font-size="10.00">gaia::graphics::EmbossMaskFilter</text>
</a>
</g>
<!-- Node1&#45;&gt;Node3 -->
<g id="edge4" class="edge"><title>Node1&#45;&gt;Node3</title>
<path fill="none" stroke="midnightblue" d="M139.8,-22.8695C148.58,-21.9152 157.577,-20.9373 166.455,-19.9723"/>
<polygon fill="midnightblue" stroke="midnightblue" points="139.176,-19.4167 129.613,-23.9769 139.932,-26.3757 139.176,-19.4167"/>
</g>
</g>
</svg>
