<?xml version="1.0" encoding="UTF-8" standalone="no"?>
<!DOCTYPE svg PUBLIC "-//W3C//DTD SVG 1.1//EN"
 "http://www.w3.org/Graphics/SVG/1.1/DTD/svg11.dtd">
<!-- Generated by graphviz version 2.26.3 (20100126.1600)
 -->
<!-- Title: G Pages: 1 -->
<svg width="346pt" height="70pt"
 viewBox="0.00 0.00 346.00 70.00" xmlns="http://www.w3.org/2000/svg" xmlns:xlink="http://www.w3.org/1999/xlink">
<g id="graph1" class="graph" transform="scale(1 1) rotate(0) translate(4 66)">
<title>G</title>
<polygon fill="white" stroke="white" points="-4,5 -4,-66 343,-66 343,5 -4,5"/>
<!-- Node1 -->
<g id="node1" class="node"><title>Node1</title>
<a xlink:href="db/d01/classgaia_1_1graphics_1_1_color_filter.html" target="_top" xlink:title="The base class for ColorFilters.">
<polygon fill="white" stroke="black" points="0,-20.5 0,-41.5 128,-41.5 128,-20.5 0,-20.5"/>
<text text-anchor="middle" x="64" y="-28.5" font-family="Helvetica,sans-Serif" font-size="10.00">gaia::graphics::ColorFilter</text>
</a>
</g>
<!-- Node2 -->
<g id="node3" class="node"><title>Node2</title>
<a xlink:href="d2/dc7/classgaia_1_1graphics_1_1_lighting_color_filter.html" target="_top" xlink:title="Subclass of ColorFilter for lighting colors.">
<polygon fill="white" stroke="black" points="170,-40.5 170,-61.5 332,-61.5 332,-40.5 170,-40.5"/>
<text text-anchor="middle" x="251" y="-48.5" font-family="Helvetica,sans-Serif" font-size="10.00">gaia::graphics::LightingColorFilter</text>
</a>
</g>
<!-- Node1&#45;&gt;Node2 -->
<g id="edge2" class="edge"><title>Node1&#45;&gt;Node2</title>
<path fill="none" stroke="midnightblue" d="M138.313,-38.9479C148.662,-40.0547 159.338,-41.1966 169.805,-42.316"/>
<polygon fill="midnightblue" stroke="midnightblue" points="138.409,-35.4383 128.093,-37.8549 137.664,-42.3986 138.409,-35.4383"/>
</g>
<!-- Node3 -->
<g id="node5" class="node"><title>Node3</title>
<a xlink:href="db/d52/classgaia_1_1graphics_1_1_porter_duff_color_filter.html" target="_top" xlink:title="Subclass of ColorFilter for filtering colors with Porter&#45;Duff modes.">
<polygon fill="white" stroke="black" points="164.5,-0.5 164.5,-21.5 337.5,-21.5 337.5,-0.5 164.5,-0.5"/>
<text text-anchor="middle" x="251" y="-8.5" font-family="Helvetica,sans-Serif" font-size="10.00">gaia::graphics::PorterDuffColorFilter</text>
</a>
</g>
<!-- Node1&#45;&gt;Node3 -->
<g id="edge4" class="edge"><title>Node1&#45;&gt;Node3</title>
<path fill="none" stroke="midnightblue" d="M138.048,-23.0804C146.633,-22.1622 155.448,-21.2195 164.184,-20.2852"/>
<polygon fill="midnightblue" stroke="midnightblue" points="137.664,-19.6014 128.093,-24.1451 138.409,-26.5617 137.664,-19.6014"/>
</g>
</g>
</svg>
