<?xml version="1.0" encoding="UTF-8" standalone="no"?>
<!DOCTYPE svg PUBLIC "-//W3C//DTD SVG 1.1//EN"
 "http://www.w3.org/Graphics/SVG/1.1/DTD/svg11.dtd">
<!-- Generated by graphviz version 2.26.3 (20100126.1600)
 -->
<!-- Title: G Pages: 1 -->
<svg width="500pt" height="150pt"
 viewBox="0.00 0.00 500.00 150.00" xmlns="http://www.w3.org/2000/svg" xmlns:xlink="http://www.w3.org/1999/xlink">
<g id="graph1" class="graph" transform="scale(1 1) rotate(0) translate(4 146)">
<title>G</title>
<polygon fill="white" stroke="white" points="-4,5 -4,-146 497,-146 497,5 -4,5"/>
<!-- Node1 -->
<g id="node1" class="node"><title>Node1</title>
<a xlink:href="da/d5c/classgaia_1_1core_1_1_package_item_info.html" target="_top" xlink:title="Base class containing information common to all package items held by the package manager...">
<polygon fill="white" stroke="black" points="0,-60.5 0,-81.5 140,-81.5 140,-60.5 0,-60.5"/>
<text text-anchor="middle" x="70" y="-68.5" font-family="Helvetica,sans-Serif" font-size="10.00">gaia::core::PackageItemInfo</text>
</a>
</g>
<!-- Node2 -->
<g id="node3" class="node"><title>Node2</title>
<a xlink:href="d0/d33/classgaia_1_1core_1_1_application_info.html" target="_top" xlink:title="Information you can retrieve about a particular application.">
<polygon fill="white" stroke="black" points="190,-120.5 190,-141.5 320,-141.5 320,-120.5 190,-120.5"/>
<text text-anchor="middle" x="255" y="-128.5" font-family="Helvetica,sans-Serif" font-size="10.00">gaia::core::ApplicationInfo</text>
</a>
</g>
<!-- Node1&#45;&gt;Node2 -->
<g id="edge2" class="edge"><title>Node1&#45;&gt;Node2</title>
<path fill="none" stroke="midnightblue" d="M104.963,-85.3316C125.461,-93.4467 151.972,-103.451 176,-111 186.798,-114.392 198.562,-117.618 209.634,-120.449"/>
<polygon fill="midnightblue" stroke="midnightblue" points="106.005,-81.9791 95.4203,-81.5187 103.408,-88.4794 106.005,-81.9791"/>
</g>
<!-- Node3 -->
<g id="node5" class="node"><title>Node3</title>
<a xlink:href="d1/dc3/classgaia_1_1core_1_1_component_info.html" target="_top" xlink:title="Base class containing information common to all application components (PageInfo, DelegateInfo)...">
<polygon fill="white" stroke="black" points="189,-80.5 189,-101.5 321,-101.5 321,-80.5 189,-80.5"/>
<text text-anchor="middle" x="255" y="-88.5" font-family="Helvetica,sans-Serif" font-size="10.00">gaia::core::ComponentInfo</text>
</a>
</g>
<!-- Node1&#45;&gt;Node3 -->
<g id="edge4" class="edge"><title>Node1&#45;&gt;Node3</title>
<path fill="none" stroke="midnightblue" d="M150.401,-79.692C163.224,-81.0783 176.363,-82.4987 188.809,-83.8442"/>
<polygon fill="midnightblue" stroke="midnightblue" points="150.523,-76.1848 140.204,-78.5897 149.77,-83.1443 150.523,-76.1848"/>
</g>
<!-- Node7 -->
<g id="node13" class="node"><title>Node7</title>
<a xlink:href="df/d73/classgaia_1_1core_1_1_permission_group_info.html" target="_top" xlink:title="Information you can retrieve about a permission&#45;group.">
<polygon fill="white" stroke="black" points="176.5,-40.5 176.5,-61.5 333.5,-61.5 333.5,-40.5 176.5,-40.5"/>
<text text-anchor="middle" x="255" y="-48.5" font-family="Helvetica,sans-Serif" font-size="10.00">gaia::core::PermissionGroupInfo</text>
</a>
</g>
<!-- Node1&#45;&gt;Node7 -->
<g id="edge12" class="edge"><title>Node1&#45;&gt;Node7</title>
<path fill="none" stroke="midnightblue" d="M150.313,-62.3175C158.998,-61.3786 167.828,-60.424 176.491,-59.4875"/>
<polygon fill="midnightblue" stroke="midnightblue" points="149.77,-58.8557 140.204,-63.4103 150.523,-65.8152 149.77,-58.8557"/>
</g>
<!-- Node8 -->
<g id="node15" class="node"><title>Node8</title>
<a xlink:href="df/d1d/classgaia_1_1core_1_1_permission_info.html" target="_top" xlink:title="Information you can retrieve about a particular security permission known to the system.">
<polygon fill="white" stroke="black" points="189.5,-0.5 189.5,-21.5 320.5,-21.5 320.5,-0.5 189.5,-0.5"/>
<text text-anchor="middle" x="255" y="-8.5" font-family="Helvetica,sans-Serif" font-size="10.00">gaia::core::PermissionInfo</text>
</a>
</g>
<!-- Node1&#45;&gt;Node8 -->
<g id="edge14" class="edge"><title>Node1&#45;&gt;Node8</title>
<path fill="none" stroke="midnightblue" d="M104.963,-56.6684C125.461,-48.5533 151.972,-38.5487 176,-31 186.798,-27.6077 198.562,-24.3825 209.634,-21.5511"/>
<polygon fill="midnightblue" stroke="midnightblue" points="103.408,-53.5206 95.4203,-60.4813 106.005,-60.0209 103.408,-53.5206"/>
</g>
<!-- Node4 -->
<g id="node7" class="node"><title>Node4</title>
<a xlink:href="d8/d12/classgaia_1_1core_1_1_delegate_info.html" target="_top" xlink:title="Information you can retrieve about a particular application delegate.">
<polygon fill="white" stroke="black" points="370.5,-120.5 370.5,-141.5 491.5,-141.5 491.5,-120.5 370.5,-120.5"/>
<text text-anchor="middle" x="431" y="-128.5" font-family="Helvetica,sans-Serif" font-size="10.00">gaia::core::DelegateInfo</text>
</a>
</g>
<!-- Node3&#45;&gt;Node4 -->
<g id="edge6" class="edge"><title>Node3&#45;&gt;Node4</title>
<path fill="none" stroke="midnightblue" d="M311.172,-103.766C334.909,-109.161 362.216,-115.367 384.762,-120.491"/>
<polygon fill="midnightblue" stroke="midnightblue" points="311.769,-100.313 301.242,-101.51 310.218,-107.139 311.769,-100.313"/>
</g>
<!-- Node5 -->
<g id="node9" class="node"><title>Node5</title>
<a xlink:href="d3/d16/classgaia_1_1core_1_1_page_info.html" target="_top" xlink:title="Information you can retrieve about a particular application page or receiver.">
<polygon fill="white" stroke="black" points="379,-80.5 379,-101.5 483,-101.5 483,-80.5 379,-80.5"/>
<text text-anchor="middle" x="431" y="-88.5" font-family="Helvetica,sans-Serif" font-size="10.00">gaia::core::PageInfo</text>
</a>
</g>
<!-- Node3&#45;&gt;Node5 -->
<g id="edge8" class="edge"><title>Node3&#45;&gt;Node5</title>
<path fill="none" stroke="midnightblue" d="M331.463,-91C347.477,-91 364.009,-91 378.89,-91"/>
<polygon fill="midnightblue" stroke="midnightblue" points="331.037,-87.5001 321.037,-91 331.037,-94.5001 331.037,-87.5001"/>
</g>
<!-- Node6 -->
<g id="node11" class="node"><title>Node6</title>
<a xlink:href="da/da5/classgaia_1_1core_1_1_provider_info.html" target="_top" xlink:title="Holds information about a specific content provider.">
<polygon fill="white" stroke="black" points="372,-40.5 372,-61.5 490,-61.5 490,-40.5 372,-40.5"/>
<text text-anchor="middle" x="431" y="-48.5" font-family="Helvetica,sans-Serif" font-size="10.00">gaia::core::ProviderInfo</text>
</a>
</g>
<!-- Node3&#45;&gt;Node6 -->
<g id="edge10" class="edge"><title>Node3&#45;&gt;Node6</title>
<path fill="none" stroke="midnightblue" d="M311.172,-78.2337C334.909,-72.839 362.216,-66.6328 384.762,-61.5087"/>
<polygon fill="midnightblue" stroke="midnightblue" points="310.218,-74.8612 301.242,-80.4905 311.769,-81.6871 310.218,-74.8612"/>
</g>
</g>
</svg>
