<?xml version="1.0" encoding="UTF-8" standalone="no"?>
<!DOCTYPE svg PUBLIC "-//W3C//DTD SVG 1.1//EN"
 "http://www.w3.org/Graphics/SVG/1.1/DTD/svg11.dtd">
<!-- Generated by graphviz version 2.26.3 (20100126.1600)
 -->
<!-- Title: G Pages: 1 -->
<svg width="326pt" height="70pt"
 viewBox="0.00 0.00 326.00 70.00" xmlns="http://www.w3.org/2000/svg" xmlns:xlink="http://www.w3.org/1999/xlink">
<g id="graph1" class="graph" transform="scale(1 1) rotate(0) translate(4 66)">
<title>G</title>
<polygon fill="white" stroke="white" points="-4,5 -4,-66 323,-66 323,5 -4,5"/>
<!-- Node1 -->
<g id="node1" class="node"><title>Node1</title>
<a xlink:href="d6/db4/classgaia_1_1storage_1_1_data_set_observer.html" target="_top" xlink:title="Receives call backs when a data set has been changed, or made invalid.">
<polygon fill="white" stroke="black" points="0.5,-40.5 0.5,-61.5 155.5,-61.5 155.5,-40.5 0.5,-40.5"/>
<text text-anchor="middle" x="78" y="-48.5" font-family="Helvetica,sans-Serif" font-size="10.00">gaia::storage::DataSetObserver</text>
</a>
</g>
<!-- Node2 -->
<g id="node3" class="node"><title>Node2</title>
<a xlink:href="d0/d21/classgaia_1_1ui_1_1_alphabet_indexer.html" target="_top" xlink:title="A helper class for adapters that implement the SectionIndexer interface.">
<polygon fill="white" stroke="black" points="192.5,-20.5 192.5,-41.5 317.5,-41.5 317.5,-20.5 192.5,-20.5"/>
<text text-anchor="middle" x="255" y="-28.5" font-family="Helvetica,sans-Serif" font-size="10.00">gaia::ui::AlphabetIndexer</text>
</a>
</g>
<!-- Node1&#45;&gt;Node2 -->
<g id="edge2" class="edge"><title>Node1&#45;&gt;Node2</title>
<path fill="none" stroke="midnightblue" d="M165.736,-41.0863C174.705,-40.0729 183.684,-39.0583 192.305,-38.0842"/>
<polygon fill="midnightblue" stroke="midnightblue" points="165.179,-37.627 155.635,-42.2277 165.965,-44.5827 165.179,-37.627"/>
</g>
<!-- Node3 -->
<g id="node4" class="node"><title>Node3</title>
<a xlink:href="d8/ded/classgaia_1_1ui_1_1_i_section_indexer.html" target="_top" xlink:title="Interface that should be implemented on IItemProviders to enable fast scrolling in an AbsListWidget b...">
<polygon fill="white" stroke="black" points="17,-0.5 17,-21.5 139,-21.5 139,-0.5 17,-0.5"/>
<text text-anchor="middle" x="78" y="-8.5" font-family="Helvetica,sans-Serif" font-size="10.00">gaia::ui::ISectionIndexer</text>
</a>
</g>
<!-- Node3&#45;&gt;Node2 -->
<g id="edge4" class="edge"><title>Node3&#45;&gt;Node2</title>
<path fill="none" stroke="midnightblue" d="M149.622,-19.0929C163.825,-20.6977 178.629,-22.3706 192.499,-23.9378"/>
<polygon fill="midnightblue" stroke="midnightblue" points="149.739,-15.5839 139.409,-17.9389 148.953,-22.5397 149.739,-15.5839"/>
</g>
</g>
</svg>
