<?xml version="1.0" encoding="UTF-8" standalone="no"?>
<!DOCTYPE svg PUBLIC "-//W3C//DTD SVG 1.1//EN"
 "http://www.w3.org/Graphics/SVG/1.1/DTD/svg11.dtd">
<!-- Generated by graphviz version 2.26.3 (20100126.1600)
 -->
<!-- Title: G Pages: 1 -->
<svg width="390pt" height="70pt"
 viewBox="0.00 0.00 390.00 70.00" xmlns="http://www.w3.org/2000/svg" xmlns:xlink="http://www.w3.org/1999/xlink">
<g id="graph1" class="graph" transform="scale(1 1) rotate(0) translate(4 66)">
<title>G</title>
<polygon fill="white" stroke="white" points="-4,5 -4,-66 387,-66 387,5 -4,5"/>
<!-- Node1 -->
<g id="node1" class="node"><title>Node1</title>
<a xlink:href="d4/d26/classgaia_1_1connectivity_1_1_bluetooth_profile.html" target="_top" xlink:title="Each public profile implements this interface.">
<polygon fill="white" stroke="black" points="0,-20.5 0,-41.5 168,-41.5 168,-20.5 0,-20.5"/>
<text text-anchor="middle" x="84" y="-28.5" font-family="Helvetica,sans-Serif" font-size="10.00">gaia::connectivity::BluetoothProfile</text>
</a>
</g>
<!-- Node2 -->
<g id="node3" class="node"><title>Node2</title>
<a xlink:href="d9/de0/classgaia_1_1connectivity_1_1_bluetooth_a2dp.html" target="_top" xlink:title="This class provides the public APIs to control the Bluetooth A2DP profile.">
<polygon fill="white" stroke="black" points="211.5,-40.5 211.5,-61.5 374.5,-61.5 374.5,-40.5 211.5,-40.5"/>
<text text-anchor="middle" x="293" y="-48.5" font-family="Helvetica,sans-Serif" font-size="10.00">gaia::connectivity::BluetoothA2dp</text>
</a>
</g>
<!-- Node1&#45;&gt;Node2 -->
<g id="edge2" class="edge"><title>Node1&#45;&gt;Node2</title>
<path fill="none" stroke="midnightblue" d="M178.227,-40.0169C189.312,-41.0777 200.552,-42.1533 211.443,-43.1955"/>
<polygon fill="midnightblue" stroke="midnightblue" points="178.393,-36.5169 168.105,-39.0483 177.726,-43.4851 178.393,-36.5169"/>
</g>
<!-- Node3 -->
<g id="node5" class="node"><title>Node3</title>
<a xlink:href="df/d4e/classgaia_1_1connectivity_1_1_bluetooth_headset.html" target="_top" xlink:title="This class provides the public APIs to control the Bluetooth Headset profile.">
<polygon fill="white" stroke="black" points="204.5,-0.5 204.5,-21.5 381.5,-21.5 381.5,-0.5 204.5,-0.5"/>
<text text-anchor="middle" x="293" y="-8.5" font-family="Helvetica,sans-Serif" font-size="10.00">gaia::connectivity::BluetoothHeadset</text>
</a>
</g>
<!-- Node1&#45;&gt;Node3 -->
<g id="edge4" class="edge"><title>Node1&#45;&gt;Node3</title>
<path fill="none" stroke="midnightblue" d="M178.227,-21.9831C186.899,-21.1532 195.666,-20.3143 204.286,-19.4893"/>
<polygon fill="midnightblue" stroke="midnightblue" points="177.726,-18.5149 168.105,-22.9517 178.393,-25.4831 177.726,-18.5149"/>
</g>
</g>
</svg>
