<?xml version="1.0" encoding="UTF-8" standalone="no"?>
<!DOCTYPE svg PUBLIC "-//W3C//DTD SVG 1.1//EN"
 "http://www.w3.org/Graphics/SVG/1.1/DTD/svg11.dtd">
<!-- Generated by graphviz version 2.26.3 (20100126.1600)
 -->
<!-- Title: G Pages: 1 -->
<svg width="492pt" height="270pt"
 viewBox="0.00 0.00 492.00 270.00" xmlns="http://www.w3.org/2000/svg" xmlns:xlink="http://www.w3.org/1999/xlink">
<g id="graph1" class="graph" transform="scale(1 1) rotate(0) translate(4 266)">
<title>G</title>
<polygon fill="white" stroke="white" points="-4,5 -4,-266 489,-266 489,5 -4,5"/>
<!-- Node1 -->
<g id="node1" class="node"><title>Node1</title>
<a xlink:href="dd/d14/classgaia_1_1ui_1_1_preference.html" target="_top" xlink:title="Interface definition for a callback to be invoked when the value of this Preference has been changed ...">
<polygon fill="white" stroke="black" points="0.5,-100.5 0.5,-121.5 101.5,-121.5 101.5,-100.5 0.5,-100.5"/>
<text text-anchor="middle" x="51" y="-108.5" font-family="Helvetica,sans-Serif" font-size="10.00">gaia::ui::Preference</text>
</a>
</g>
<!-- Node2 -->
<g id="node3" class="node"><title>Node2</title>
<a xlink:href="d8/dd3/classgaia_1_1ui_1_1_dialog_preference.html" target="_top" xlink:title="A base class for Preference objects that are dialog&#45;based.">
<polygon fill="white" stroke="black" points="145.5,-180.5 145.5,-201.5 274.5,-201.5 274.5,-180.5 145.5,-180.5"/>
<text text-anchor="middle" x="210" y="-188.5" font-family="Helvetica,sans-Serif" font-size="10.00">gaia::ui::DialogPreference</text>
</a>
</g>
<!-- Node1&#45;&gt;Node2 -->
<g id="edge2" class="edge"><title>Node1&#45;&gt;Node2</title>
<path fill="none" stroke="midnightblue" d="M81.3222,-126.256C112.892,-142.14 161.5,-166.597 189.052,-180.46"/>
<polygon fill="midnightblue" stroke="midnightblue" points="82.6201,-122.991 72.114,-121.623 79.4739,-129.245 82.6201,-122.991"/>
</g>
<!-- Node6 -->
<g id="node11" class="node"><title>Node6</title>
<a xlink:href="dd/d52/classgaia_1_1ui_1_1_preference_group.html" target="_top" xlink:title="Interface definition for a callback to be invoked when the value of this Preference has been changed ...">
<polygon fill="white" stroke="black" points="146,-120.5 146,-141.5 274,-141.5 274,-120.5 146,-120.5"/>
<text text-anchor="middle" x="210" y="-128.5" font-family="Helvetica,sans-Serif" font-size="10.00">gaia::ui::PreferenceGroup</text>
</a>
</g>
<!-- Node1&#45;&gt;Node6 -->
<g id="edge10" class="edge"><title>Node1&#45;&gt;Node6</title>
<path fill="none" stroke="midnightblue" d="M111.786,-118.646C122.907,-120.045 134.546,-121.509 145.764,-122.92"/>
<polygon fill="midnightblue" stroke="midnightblue" points="112.104,-115.159 101.746,-117.383 111.231,-122.104 112.104,-115.159"/>
</g>
<!-- Node9 -->
<g id="node17" class="node"><title>Node9</title>
<a xlink:href="d7/dc2/classgaia_1_1ui_1_1_seek_bar_preference.html" target="_top" xlink:title="Common base class for preferences that have two selectable states, persist a bool value in Applicatio...">
<polygon fill="white" stroke="black" points="140.5,-80.5 140.5,-101.5 279.5,-101.5 279.5,-80.5 140.5,-80.5"/>
<text text-anchor="middle" x="210" y="-88.5" font-family="Helvetica,sans-Serif" font-size="10.00">gaia::ui::SeekBarPreference</text>
</a>
</g>
<!-- Node1&#45;&gt;Node9 -->
<g id="edge16" class="edge"><title>Node1&#45;&gt;Node9</title>
<path fill="none" stroke="midnightblue" d="M111.72,-103.362C121.069,-102.186 130.786,-100.964 140.312,-99.7658"/>
<polygon fill="midnightblue" stroke="midnightblue" points="111.231,-99.8961 101.746,-104.617 112.104,-106.841 111.231,-99.8961"/>
</g>
<!-- Node10 -->
<g id="node19" class="node"><title>Node10</title>
<a xlink:href="df/d07/classgaia_1_1ui_1_1_two_state_preference.html" target="_top" xlink:title="Common base class for preferences that have two selectable states, persist a bool value in Applicatio...">
<polygon fill="white" stroke="black" points="138.5,-40.5 138.5,-61.5 281.5,-61.5 281.5,-40.5 138.5,-40.5"/>
<text text-anchor="middle" x="210" y="-48.5" font-family="Helvetica,sans-Serif" font-size="10.00">gaia::ui::TwoStatePreference</text>
</a>
</g>
<!-- Node1&#45;&gt;Node10 -->
<g id="edge18" class="edge"><title>Node1&#45;&gt;Node10</title>
<path fill="none" stroke="midnightblue" d="M80.8773,-95.8229C97.4377,-87.779 118.556,-78.1185 138,-71 147.502,-67.5212 157.898,-64.3055 167.761,-61.5157"/>
<polygon fill="midnightblue" stroke="midnightblue" points="79.1263,-92.7837 71.7005,-100.341 82.2181,-99.0639 79.1263,-92.7837"/>
</g>
<!-- Node3 -->
<g id="node5" class="node"><title>Node3</title>
<a xlink:href="df/d6d/classgaia_1_1ui_1_1_edit_text_preference.html" target="_top" xlink:title="A Preference that allows for string input.">
<polygon fill="white" stroke="black" points="332,-240.5 332,-261.5 470,-261.5 470,-240.5 332,-240.5"/>
<text text-anchor="middle" x="401" y="-248.5" font-family="Helvetica,sans-Serif" font-size="10.00">gaia::ui::EditTextPreference</text>
</a>
</g>
<!-- Node2&#45;&gt;Node3 -->
<g id="edge4" class="edge"><title>Node2&#45;&gt;Node3</title>
<path fill="none" stroke="midnightblue" d="M245.33,-205.289C266.251,-213.446 293.396,-223.508 318,-231 329.202,-234.411 341.394,-237.621 352.899,-240.43"/>
<polygon fill="midnightblue" stroke="midnightblue" points="246.48,-201.98 235.893,-201.574 243.916,-208.494 246.48,-201.98"/>
</g>
<!-- Node4 -->
<g id="node7" class="node"><title>Node4</title>
<a xlink:href="d4/df3/classgaia_1_1ui_1_1_list_preference.html" target="_top" xlink:title="A Preference that displays a list of entries as a dialog.">
<polygon fill="white" stroke="black" points="342.5,-200.5 342.5,-221.5 459.5,-221.5 459.5,-200.5 342.5,-200.5"/>
<text text-anchor="middle" x="401" y="-208.5" font-family="Helvetica,sans-Serif" font-size="10.00">gaia::ui::ListPreference</text>
</a>
</g>
<!-- Node2&#45;&gt;Node4 -->
<g id="edge6" class="edge"><title>Node2&#45;&gt;Node4</title>
<path fill="none" stroke="midnightblue" d="M284.805,-198.833C303.855,-200.828 324.059,-202.943 342.184,-204.841"/>
<polygon fill="midnightblue" stroke="midnightblue" points="284.974,-195.332 274.664,-197.771 284.245,-202.294 284.974,-195.332"/>
</g>
<!-- Node5 -->
<g id="node9" class="node"><title>Node5</title>
<a xlink:href="d7/dc7/classgaia_1_1ui_1_1_multi_select_list_preference.html" target="_top" xlink:title="A Preference that displays a list of entries as a dialog.">
<polygon fill="white" stroke="black" points="318,-160.5 318,-181.5 484,-181.5 484,-160.5 318,-160.5"/>
<text text-anchor="middle" x="401" y="-168.5" font-family="Helvetica,sans-Serif" font-size="10.00">gaia::ui::MultiSelectListPreference</text>
</a>
</g>
<!-- Node2&#45;&gt;Node5 -->
<g id="edge8" class="edge"><title>Node2&#45;&gt;Node5</title>
<path fill="none" stroke="midnightblue" d="M284.88,-183.159C295.674,-182.029 306.836,-180.86 317.78,-179.714"/>
<polygon fill="midnightblue" stroke="midnightblue" points="284.245,-179.706 274.664,-184.229 284.974,-186.668 284.245,-179.706"/>
</g>
<!-- Node7 -->
<g id="node13" class="node"><title>Node7</title>
<a xlink:href="d7/d01/classgaia_1_1ui_1_1_preference_category.html" target="_top" xlink:title="Used to group Preference objects and provide a disabled title above the group.">
<polygon fill="white" stroke="black" points="330.5,-120.5 330.5,-141.5 471.5,-141.5 471.5,-120.5 330.5,-120.5"/>
<text text-anchor="middle" x="401" y="-128.5" font-family="Helvetica,sans-Serif" font-size="10.00">gaia::ui::PreferenceCategory</text>
</a>
</g>
<!-- Node6&#45;&gt;Node7 -->
<g id="edge12" class="edge"><title>Node6&#45;&gt;Node7</title>
<path fill="none" stroke="midnightblue" d="M284.47,-131C299.604,-131 315.479,-131 330.471,-131"/>
<polygon fill="midnightblue" stroke="midnightblue" points="284.132,-127.5 274.132,-131 284.132,-134.5 284.132,-127.5"/>
</g>
<!-- Node8 -->
<g id="node15" class="node"><title>Node8</title>
<a xlink:href="d3/d53/classgaia_1_1ui_1_1_preference_screen.html" target="_top" xlink:title="Used to group Preference objects and provide a disabled title above the group.">
<polygon fill="white" stroke="black" points="335,-80.5 335,-101.5 467,-101.5 467,-80.5 335,-80.5"/>
<text text-anchor="middle" x="401" y="-88.5" font-family="Helvetica,sans-Serif" font-size="10.00">gaia::ui::PreferenceScreen</text>
</a>
</g>
<!-- Node6&#45;&gt;Node8 -->
<g id="edge14" class="edge"><title>Node6&#45;&gt;Node8</title>
<path fill="none" stroke="midnightblue" d="M270.27,-118.378C296.189,-112.95 326.135,-106.679 350.821,-101.509"/>
<polygon fill="midnightblue" stroke="midnightblue" points="269.253,-115.015 260.183,-120.49 270.688,-121.866 269.253,-115.015"/>
</g>
<!-- Node11 -->
<g id="node21" class="node"><title>Node11</title>
<a xlink:href="da/db2/classgaia_1_1ui_1_1_check_box_preference.html" target="_top" xlink:title="A Preference that provides checkbox widget functionality.">
<polygon fill="white" stroke="black" points="327.5,-40.5 327.5,-61.5 474.5,-61.5 474.5,-40.5 327.5,-40.5"/>
<text text-anchor="middle" x="401" y="-48.5" font-family="Helvetica,sans-Serif" font-size="10.00">gaia::ui::CheckBoxPreference</text>
</a>
</g>
<!-- Node10&#45;&gt;Node11 -->
<g id="edge20" class="edge"><title>Node10&#45;&gt;Node11</title>
<path fill="none" stroke="midnightblue" d="M291.919,-51C303.69,-51 315.743,-51 327.341,-51"/>
<polygon fill="midnightblue" stroke="midnightblue" points="291.665,-47.5001 281.665,-51 291.665,-54.5001 291.665,-47.5001"/>
</g>
<!-- Node12 -->
<g id="node23" class="node"><title>Node12</title>
<a xlink:href="dc/dc7/classgaia_1_1ui_1_1_toggle_preference.html" target="_top" xlink:title="A Preference that provides checkbox widget functionality.">
<polygon fill="white" stroke="black" points="335.5,-0.5 335.5,-21.5 466.5,-21.5 466.5,-0.5 335.5,-0.5"/>
<text text-anchor="middle" x="401" y="-8.5" font-family="Helvetica,sans-Serif" font-size="10.00">gaia::ui::TogglePreference</text>
</a>
</g>
<!-- Node10&#45;&gt;Node12 -->
<g id="edge22" class="edge"><title>Node10&#45;&gt;Node12</title>
<path fill="none" stroke="midnightblue" d="M270.27,-38.378C296.189,-32.9499 326.135,-26.6785 350.821,-21.5087"/>
<polygon fill="midnightblue" stroke="midnightblue" points="269.253,-35.0149 260.183,-40.4905 270.688,-41.8663 269.253,-35.0149"/>
</g>
</g>
</svg>
