<?xml version="1.0" encoding="UTF-8" standalone="no"?>
<!DOCTYPE svg PUBLIC "-//W3C//DTD SVG 1.1//EN"
 "http://www.w3.org/Graphics/SVG/1.1/DTD/svg11.dtd">
<!-- Generated by graphviz version 2.26.3 (20100126.1600)
 -->
<!-- Title: G Pages: 1 -->
<svg width="1008pt" height="310pt"
 viewBox="0.00 0.00 1008.00 310.00" xmlns="http://www.w3.org/2000/svg" xmlns:xlink="http://www.w3.org/1999/xlink">
<g id="graph1" class="graph" transform="scale(1 1) rotate(0) translate(4 306)">
<title>G</title>
<polygon fill="white" stroke="white" points="-4,5 -4,-306 1005,-306 1005,5 -4,5"/>
<!-- Node1 -->
<g id="node1" class="node"><title>Node1</title>
<a xlink:href="d7/d55/classgaia_1_1text_1_1_object_style.html" target="_top" xlink:title="ObjectStyle is interface for spannable class.">
<polygon fill="white" stroke="black" points="0,-100.5 0,-121.5 114,-121.5 114,-100.5 0,-100.5"/>
<text text-anchor="middle" x="57" y="-108.5" font-family="Helvetica,sans-Serif" font-size="10.00">gaia::text::ObjectStyle</text>
</a>
</g>
<!-- Node2 -->
<g id="node3" class="node"><title>Node2</title>
<a xlink:href="d9/d29/classgaia_1_1text_1_1_character_style.html" target="_top" xlink:title="The classes that affect character&#45;level text formatting extend this class.">
<polygon fill="white" stroke="black" points="151,-140.5 151,-161.5 279,-161.5 279,-140.5 151,-140.5"/>
<text text-anchor="middle" x="215" y="-148.5" font-family="Helvetica,sans-Serif" font-size="10.00">gaia::text::CharacterStyle</text>
</a>
</g>
<!-- Node1&#45;&gt;Node2 -->
<g id="edge2" class="edge"><title>Node1&#45;&gt;Node2</title>
<path fill="none" stroke="midnightblue" d="M108.285,-123.984C129.392,-129.327 153.522,-135.436 173.491,-140.491"/>
<polygon fill="midnightblue" stroke="midnightblue" points="109.066,-120.571 98.5126,-121.51 107.348,-127.357 109.066,-120.571"/>
</g>
<!-- Node19 -->
<g id="node37" class="node"><title>Node19</title>
<a xlink:href="d4/d70/classgaia_1_1text_1_1_paragraph_style.html" target="_top" xlink:title="The classes that affect paragraph&#45;level text formatting implement this interface.">
<polygon fill="white" stroke="black" points="150,-60.5 150,-81.5 280,-81.5 280,-60.5 150,-60.5"/>
<text text-anchor="middle" x="215" y="-68.5" font-family="Helvetica,sans-Serif" font-size="10.00">gaia::text::ParagraphStyle</text>
</a>
</g>
<!-- Node1&#45;&gt;Node19 -->
<g id="edge36" class="edge"><title>Node1&#45;&gt;Node19</title>
<path fill="none" stroke="midnightblue" d="M108.285,-98.0165C129.392,-92.6729 153.522,-86.5642 173.491,-81.5087"/>
<polygon fill="midnightblue" stroke="midnightblue" points="107.348,-94.6432 98.5126,-100.49 109.066,-101.429 107.348,-94.6432"/>
</g>
<!-- Node3 -->
<g id="node5" class="node"><title>Node3</title>
<a xlink:href="d5/d25/classgaia_1_1text_1_1_background_color_span.html" target="_top" xlink:title="Describes a background color in a span.">
<polygon fill="white" stroke="black" points="316.5,-260.5 316.5,-281.5 477.5,-281.5 477.5,-260.5 316.5,-260.5"/>
<text text-anchor="middle" x="397" y="-268.5" font-family="Helvetica,sans-Serif" font-size="10.00">gaia::text::BackgroundColorSpan</text>
</a>
</g>
<!-- Node2&#45;&gt;Node3 -->
<g id="edge4" class="edge"><title>Node2&#45;&gt;Node3</title>
<path fill="none" stroke="midnightblue" d="M228.757,-169.819C246.397,-192.555 279.143,-230.323 316,-251 322.822,-254.827 330.37,-257.929 338.034,-260.442"/>
<polygon fill="midnightblue" stroke="midnightblue" points="231.385,-167.492 222.557,-161.634 225.805,-171.719 231.385,-167.492"/>
</g>
<!-- Node4 -->
<g id="node7" class="node"><title>Node4</title>
<a xlink:href="d1/d56/classgaia_1_1text_1_1_clickable_span.html" target="_top" xlink:title="If an object of this type is attached to the text of a TextView with a movement method of LinkMovemen...">
<polygon fill="white" stroke="black" points="334,-220.5 334,-241.5 460,-241.5 460,-220.5 334,-220.5"/>
<text text-anchor="middle" x="397" y="-228.5" font-family="Helvetica,sans-Serif" font-size="10.00">gaia::text::ClickableSpan</text>
</a>
</g>
<!-- Node2&#45;&gt;Node4 -->
<g id="edge6" class="edge"><title>Node2&#45;&gt;Node4</title>
<path fill="none" stroke="midnightblue" d="M238.04,-167.367C257.873,-180.785 287.689,-199.394 316,-211 324.98,-214.681 334.807,-217.805 344.424,-220.412"/>
<polygon fill="midnightblue" stroke="midnightblue" points="239.894,-164.394 229.671,-161.611 235.927,-170.161 239.894,-164.394"/>
</g>
<!-- Node6 -->
<g id="node11" class="node"><title>Node6</title>
<a xlink:href="d4/d7b/classgaia_1_1text_1_1_foreground_color_span.html" target="_top" xlink:title="Describes a foreground color in a span.">
<polygon fill="white" stroke="black" points="318,-180.5 318,-201.5 476,-201.5 476,-180.5 318,-180.5"/>
<text text-anchor="middle" x="397" y="-188.5" font-family="Helvetica,sans-Serif" font-size="10.00">gaia::text::ForegroundColorSpan</text>
</a>
</g>
<!-- Node2&#45;&gt;Node6 -->
<g id="edge10" class="edge"><title>Node2&#45;&gt;Node6</title>
<path fill="none" stroke="midnightblue" d="M272.758,-163.694C297.38,-169.106 325.767,-175.344 349.185,-180.491"/>
<polygon fill="midnightblue" stroke="midnightblue" points="273.337,-160.238 262.818,-161.51 271.834,-167.075 273.337,-160.238"/>
</g>
<!-- Node7 -->
<g id="node13" class="node"><title>Node7</title>
<a xlink:href="d2/dff/classgaia_1_1text_1_1_metric_affecting_span.html" target="_top" xlink:title="The classes that affect character&#45;level text formatting in a way that changes the width or height of ...">
<polygon fill="white" stroke="black" points="321,-140.5 321,-161.5 473,-161.5 473,-140.5 321,-140.5"/>
<text text-anchor="middle" x="397" y="-148.5" font-family="Helvetica,sans-Serif" font-size="10.00">gaia::text::MetricAffectingSpan</text>
</a>
</g>
<!-- Node2&#45;&gt;Node7 -->
<g id="edge12" class="edge"><title>Node2&#45;&gt;Node7</title>
<path fill="none" stroke="midnightblue" d="M289.44,-151C299.833,-151 310.525,-151 320.948,-151"/>
<polygon fill="midnightblue" stroke="midnightblue" points="289.166,-147.5 279.166,-151 289.166,-154.5 289.166,-147.5"/>
</g>
<!-- Node17 -->
<g id="node33" class="node"><title>Node17</title>
<a xlink:href="db/dbd/classgaia_1_1text_1_1_strikethrough_span.html" target="_top" xlink:title="Describes a strikethrough in a span.">
<polygon fill="white" stroke="black" points="325.5,-100.5 325.5,-121.5 468.5,-121.5 468.5,-100.5 325.5,-100.5"/>
<text text-anchor="middle" x="397" y="-108.5" font-family="Helvetica,sans-Serif" font-size="10.00">gaia::text::StrikethroughSpan</text>
</a>
</g>
<!-- Node2&#45;&gt;Node17 -->
<g id="edge32" class="edge"><title>Node2&#45;&gt;Node17</title>
<path fill="none" stroke="midnightblue" d="M272.758,-138.306C297.38,-132.894 325.767,-126.656 349.185,-121.509"/>
<polygon fill="midnightblue" stroke="midnightblue" points="271.834,-134.925 262.818,-140.49 273.337,-141.762 271.834,-134.925"/>
</g>
<!-- Node18 -->
<g id="node35" class="node"><title>Node18</title>
<a xlink:href="d7/d7d/classgaia_1_1text_1_1_underline_span.html" target="_top" xlink:title="Describes a underline in a span.">
<polygon fill="white" stroke="black" points="333.5,-60.5 333.5,-81.5 460.5,-81.5 460.5,-60.5 333.5,-60.5"/>
<text text-anchor="middle" x="397" y="-68.5" font-family="Helvetica,sans-Serif" font-size="10.00">gaia::text::UnderlineSpan</text>
</a>
</g>
<!-- Node2&#45;&gt;Node18 -->
<g id="edge34" class="edge"><title>Node2&#45;&gt;Node18</title>
<path fill="none" stroke="midnightblue" d="M238.04,-134.633C257.873,-121.215 287.689,-102.606 316,-91 324.98,-87.3188 334.807,-84.1946 344.424,-81.5879"/>
<polygon fill="midnightblue" stroke="midnightblue" points="235.927,-131.839 229.671,-140.389 239.894,-137.606 235.927,-131.839"/>
</g>
<!-- Node5 -->
<g id="node9" class="node"><title>Node5</title>
<a xlink:href="d9/ddd/classgaia_1_1text_1_1_u_r_l_span.html" target="_top" xlink:title="Describes a URL in a span.">
<polygon fill="white" stroke="black" points="533,-280.5 533,-301.5 639,-301.5 639,-280.5 533,-280.5"/>
<text text-anchor="middle" x="586" y="-288.5" font-family="Helvetica,sans-Serif" font-size="10.00">gaia::text::URLSpan</text>
</a>
</g>
<!-- Node4&#45;&gt;Node5 -->
<g id="edge8" class="edge"><title>Node4&#45;&gt;Node5</title>
<path fill="none" stroke="midnightblue" d="M458.42,-244.327C465.108,-246.32 471.751,-248.543 478,-251 495.034,-257.697 497.064,-264.058 514,-271 522.763,-274.592 532.383,-277.762 541.658,-280.458"/>
<polygon fill="midnightblue" stroke="midnightblue" points="459.204,-240.911 448.629,-241.571 457.307,-247.65 459.204,-240.911"/>
</g>
<!-- Node8 -->
<g id="node15" class="node"><title>Node8</title>
<a xlink:href="d8/dd1/classgaia_1_1text_1_1_absolute_size_span.html" target="_top" xlink:title="Describes a style in a span.">
<polygon fill="white" stroke="black" points="514.5,-240.5 514.5,-261.5 657.5,-261.5 657.5,-240.5 514.5,-240.5"/>
<text text-anchor="middle" x="586" y="-248.5" font-family="Helvetica,sans-Serif" font-size="10.00">gaia::text::AbsoluteSizeSpan</text>
</a>
</g>
<!-- Node7&#45;&gt;Node8 -->
<g id="edge14" class="edge"><title>Node7&#45;&gt;Node8</title>
<path fill="none" stroke="midnightblue" d="M470.149,-165.983C472.886,-167.498 475.517,-169.166 478,-171 503.014,-189.478 489.256,-212.163 514,-231 519.058,-234.85 524.818,-237.96 530.825,-240.47"/>
<polygon fill="midnightblue" stroke="midnightblue" points="471.627,-162.81 461.097,-161.64 468.599,-169.121 471.627,-162.81"/>
</g>
<!-- Node9 -->
<g id="node17" class="node"><title>Node9</title>
<a xlink:href="dc/d37/classgaia_1_1text_1_1_relative_size_span.html" target="_top" xlink:title="Describes a style in a span.">
<polygon fill="white" stroke="black" points="515.5,-200.5 515.5,-221.5 656.5,-221.5 656.5,-200.5 515.5,-200.5"/>
<text text-anchor="middle" x="586" y="-208.5" font-family="Helvetica,sans-Serif" font-size="10.00">gaia::text::RelativeSizeSpan</text>
</a>
</g>
<!-- Node7&#45;&gt;Node9 -->
<g id="edge16" class="edge"><title>Node7&#45;&gt;Node9</title>
<path fill="none" stroke="midnightblue" d="M458.42,-164.327C465.108,-166.32 471.751,-168.543 478,-171 495.034,-177.697 497.064,-184.058 514,-191 522.763,-194.592 532.383,-197.762 541.658,-200.458"/>
<polygon fill="midnightblue" stroke="midnightblue" points="459.204,-160.911 448.629,-161.571 457.307,-167.65 459.204,-160.911"/>
</g>
<!-- Node10 -->
<g id="node19" class="node"><title>Node10</title>
<a xlink:href="da/d2b/classgaia_1_1text_1_1_replacement_span.html" target="_top" xlink:title="gaia::text::ReplacementSpan">
<polygon fill="white" stroke="black" points="514.5,-160.5 514.5,-181.5 657.5,-181.5 657.5,-160.5 514.5,-160.5"/>
<text text-anchor="middle" x="586" y="-168.5" font-family="Helvetica,sans-Serif" font-size="10.00">gaia::text::ReplacementSpan</text>
</a>
</g>
<!-- Node7&#45;&gt;Node10 -->
<g id="edge18" class="edge"><title>Node7&#45;&gt;Node10</title>
<path fill="none" stroke="midnightblue" d="M483.045,-160.105C493.526,-161.214 504.147,-162.338 514.387,-163.422"/>
<polygon fill="midnightblue" stroke="midnightblue" points="483.369,-156.62 473.057,-159.048 482.633,-163.581 483.369,-156.62"/>
</g>
<!-- Node13 -->
<g id="node25" class="node"><title>Node13</title>
<a xlink:href="d7/d38/classgaia_1_1text_1_1_style_span.html" target="_top" xlink:title="Describes a style in a span.">
<polygon fill="white" stroke="black" points="532,-120.5 532,-141.5 640,-141.5 640,-120.5 532,-120.5"/>
<text text-anchor="middle" x="586" y="-128.5" font-family="Helvetica,sans-Serif" font-size="10.00">gaia::text::StyleSpan</text>
</a>
</g>
<!-- Node7&#45;&gt;Node13 -->
<g id="edge24" class="edge"><title>Node7&#45;&gt;Node13</title>
<path fill="none" stroke="midnightblue" d="M483.292,-141.869C499.829,-140.119 516.705,-138.333 531.872,-136.728"/>
<polygon fill="midnightblue" stroke="midnightblue" points="482.633,-138.419 473.057,-142.952 483.369,-145.38 482.633,-138.419"/>
</g>
<!-- Node14 -->
<g id="node27" class="node"><title>Node14</title>
<a xlink:href="d8/da6/classgaia_1_1text_1_1_subscript_span.html" target="_top" xlink:title="Describes a subscript style in a span.">
<polygon fill="white" stroke="black" points="522.5,-80.5 522.5,-101.5 649.5,-101.5 649.5,-80.5 522.5,-80.5"/>
<text text-anchor="middle" x="586" y="-88.5" font-family="Helvetica,sans-Serif" font-size="10.00">gaia::text::SubscriptSpan</text>
</a>
</g>
<!-- Node7&#45;&gt;Node14 -->
<g id="edge26" class="edge"><title>Node7&#45;&gt;Node14</title>
<path fill="none" stroke="midnightblue" d="M458.42,-137.673C465.108,-135.68 471.751,-133.457 478,-131 495.034,-124.303 497.064,-117.942 514,-111 522.763,-107.408 532.383,-104.238 541.658,-101.542"/>
<polygon fill="midnightblue" stroke="midnightblue" points="457.307,-134.35 448.629,-140.429 459.204,-141.089 457.307,-134.35"/>
</g>
<!-- Node15 -->
<g id="node29" class="node"><title>Node15</title>
<a xlink:href="d4/d36/classgaia_1_1text_1_1_superscript_span.html" target="_top" xlink:title="Describes a superscript style in a span.">
<polygon fill="white" stroke="black" points="518.5,-40.5 518.5,-61.5 653.5,-61.5 653.5,-40.5 518.5,-40.5"/>
<text text-anchor="middle" x="586" y="-48.5" font-family="Helvetica,sans-Serif" font-size="10.00">gaia::text::SuperscriptSpan</text>
</a>
</g>
<!-- Node7&#45;&gt;Node15 -->
<g id="edge28" class="edge"><title>Node7&#45;&gt;Node15</title>
<path fill="none" stroke="midnightblue" d="M470.149,-136.017C472.886,-134.502 475.517,-132.834 478,-131 503.014,-112.522 489.256,-89.8367 514,-71 519.058,-67.1495 524.818,-64.0403 530.825,-61.5297"/>
<polygon fill="midnightblue" stroke="midnightblue" points="468.599,-132.879 461.097,-140.36 471.627,-139.19 468.599,-132.879"/>
</g>
<!-- Node16 -->
<g id="node31" class="node"><title>Node16</title>
<a xlink:href="de/d21/classgaia_1_1text_1_1_typeface_span.html" target="_top" xlink:title="Describes a typeface in a span.">
<polygon fill="white" stroke="black" points="523,-0.5 523,-21.5 649,-21.5 649,-0.5 523,-0.5"/>
<text text-anchor="middle" x="586" y="-8.5" font-family="Helvetica,sans-Serif" font-size="10.00">gaia::text::TypefaceSpan</text>
</a>
</g>
<!-- Node7&#45;&gt;Node16 -->
<g id="edge30" class="edge"><title>Node7&#45;&gt;Node16</title>
<path fill="none" stroke="midnightblue" d="M472.607,-135.277C474.492,-133.96 476.295,-132.537 478,-131 513.084,-99.3708 479.376,-63.1324 514,-31 518.089,-27.2053 522.836,-24.121 527.904,-21.6157"/>
<polygon fill="midnightblue" stroke="midnightblue" points="470.735,-132.318 463.889,-140.405 474.283,-138.352 470.735,-132.318"/>
</g>
<!-- Node11 -->
<g id="node21" class="node"><title>Node11</title>
<a xlink:href="de/d02/classgaia_1_1text_1_1_dynamic_drawer_span.html" target="_top" xlink:title="gaia::text::DynamicDrawerSpan">
<polygon fill="white" stroke="black" points="694,-160.5 694,-181.5 850,-181.5 850,-160.5 694,-160.5"/>
<text text-anchor="middle" x="772" y="-168.5" font-family="Helvetica,sans-Serif" font-size="10.00">gaia::text::DynamicDrawerSpan</text>
</a>
</g>
<!-- Node10&#45;&gt;Node11 -->
<g id="edge20" class="edge"><title>Node10&#45;&gt;Node11</title>
<path fill="none" stroke="midnightblue" d="M667.761,-171C676.444,-171 685.26,-171 693.9,-171"/>
<polygon fill="midnightblue" stroke="midnightblue" points="667.646,-167.5 657.646,-171 667.646,-174.5 667.646,-167.5"/>
</g>
<!-- Node12 -->
<g id="node23" class="node"><title>Node12</title>
<a xlink:href="d2/d21/classgaia_1_1text_1_1_image_span.html" target="_top" xlink:title="gaia::text::ImageSpan">
<polygon fill="white" stroke="black" points="886.5,-160.5 886.5,-181.5 999.5,-181.5 999.5,-160.5 886.5,-160.5"/>
<text text-anchor="middle" x="943" y="-168.5" font-family="Helvetica,sans-Serif" font-size="10.00">gaia::text::ImageSpan</text>
</a>
</g>
<!-- Node11&#45;&gt;Node12 -->
<g id="edge22" class="edge"><title>Node11&#45;&gt;Node12</title>
<path fill="none" stroke="midnightblue" d="M860.739,-171C869.468,-171 878.153,-171 886.427,-171"/>
<polygon fill="midnightblue" stroke="midnightblue" points="860.493,-167.5 850.493,-171 860.493,-174.5 860.493,-167.5"/>
</g>
<!-- Node20 -->
<g id="node39" class="node"><title>Node20</title>
<a xlink:href="d6/de7/classgaia_1_1text_1_1_alignment_span.html" target="_top" xlink:title="Describes a alignment in a span.">
<polygon fill="white" stroke="black" points="332.5,-20.5 332.5,-41.5 461.5,-41.5 461.5,-20.5 332.5,-20.5"/>
<text text-anchor="middle" x="397" y="-28.5" font-family="Helvetica,sans-Serif" font-size="10.00">gaia::text::AlignmentSpan</text>
</a>
</g>
<!-- Node19&#45;&gt;Node20 -->
<g id="edge38" class="edge"><title>Node19&#45;&gt;Node20</title>
<path fill="none" stroke="midnightblue" d="M272.758,-58.3059C297.38,-52.8944 325.767,-46.6557 349.185,-41.5087"/>
<polygon fill="midnightblue" stroke="midnightblue" points="271.834,-54.9254 262.818,-60.4905 273.337,-61.7622 271.834,-54.9254"/>
</g>
</g>
</svg>
