<?xml version="1.0" encoding="UTF-8" standalone="no"?>
<!DOCTYPE svg PUBLIC "-//W3C//DTD SVG 1.1//EN"
 "http://www.w3.org/Graphics/SVG/1.1/DTD/svg11.dtd">
<!-- Generated by graphviz version 2.26.3 (20100126.1600)
 -->
<!-- Title: G Pages: 1 -->
<svg width="310pt" height="110pt"
 viewBox="0.00 0.00 310.00 110.00" xmlns="http://www.w3.org/2000/svg" xmlns:xlink="http://www.w3.org/1999/xlink">
<g id="graph1" class="graph" transform="scale(1 1) rotate(0) translate(4 106)">
<title>G</title>
<polygon fill="white" stroke="white" points="-4,5 -4,-106 307,-106 307,5 -4,5"/>
<!-- Node1 -->
<g id="node1" class="node"><title>Node1</title>
<a xlink:href="d7/dc0/classgaia_1_1core_1_1_fragment.html" target="_top" xlink:title="A Fragment is a piece of an application&#39;s user interface or behavior that can be placed in an Page...">
<polygon fill="white" stroke="black" points="0.5,-40.5 0.5,-61.5 107.5,-61.5 107.5,-40.5 0.5,-40.5"/>
<text text-anchor="middle" x="54" y="-48.5" font-family="Helvetica,sans-Serif" font-size="10.00">gaia::core::Fragment</text>
</a>
</g>
<!-- Node2 -->
<g id="node3" class="node"><title>Node2</title>
<a xlink:href="d7/d81/classgaia_1_1core_1_1_list_fragment.html" target="_top" xlink:title="A Fragment that dispalys a list od items.">
<polygon fill="white" stroke="black" points="162,-80.5 162,-101.5 284,-101.5 284,-80.5 162,-80.5"/>
<text text-anchor="middle" x="223" y="-88.5" font-family="Helvetica,sans-Serif" font-size="10.00">gaia::core::ListFragment</text>
</a>
</g>
<!-- Node1&#45;&gt;Node2 -->
<g id="edge2" class="edge"><title>Node1&#45;&gt;Node2</title>
<path fill="none" stroke="midnightblue" d="M108.243,-63.8386C130.964,-69.2164 157.048,-75.3901 178.601,-80.4913"/>
<polygon fill="midnightblue" stroke="midnightblue" points="108.94,-60.4069 98.4028,-61.5095 107.328,-67.2187 108.94,-60.4069"/>
</g>
<!-- Node3 -->
<g id="node5" class="node"><title>Node3</title>
<a xlink:href="db/d12/classgaia_1_1ui_1_1_preference_fragment.html" target="_top" xlink:title="Shows a hierarchy of Preference objects as lists.">
<polygon fill="white" stroke="black" points="151.5,-40.5 151.5,-61.5 294.5,-61.5 294.5,-40.5 151.5,-40.5"/>
<text text-anchor="middle" x="223" y="-48.5" font-family="Helvetica,sans-Serif" font-size="10.00">gaia::ui::PreferenceFragment</text>
</a>
</g>
<!-- Node1&#45;&gt;Node3 -->
<g id="edge4" class="edge"><title>Node1&#45;&gt;Node3</title>
<path fill="none" stroke="midnightblue" d="M118.17,-51C129.022,-51 140.348,-51 151.376,-51"/>
<polygon fill="midnightblue" stroke="midnightblue" points="117.937,-47.5001 107.937,-51 117.937,-54.5001 117.937,-47.5001"/>
</g>
<!-- Node4 -->
<g id="node7" class="node"><title>Node4</title>
<a xlink:href="d1/d50/classgaia_1_1webkit_1_1_web_view_fragment.html" target="_top" xlink:title="gaia::webkit::WebViewFragment">
<polygon fill="white" stroke="black" points="144,-0.5 144,-21.5 302,-21.5 302,-0.5 144,-0.5"/>
<text text-anchor="middle" x="223" y="-8.5" font-family="Helvetica,sans-Serif" font-size="10.00">gaia::webkit::WebViewFragment</text>
</a>
</g>
<!-- Node1&#45;&gt;Node4 -->
<g id="edge6" class="edge"><title>Node1&#45;&gt;Node4</title>
<path fill="none" stroke="midnightblue" d="M108.243,-38.1614C130.964,-32.7836 157.048,-26.6099 178.601,-21.5087"/>
<polygon fill="midnightblue" stroke="midnightblue" points="107.328,-34.7813 98.4028,-40.4905 108.94,-41.5931 107.328,-34.7813"/>
</g>
</g>
</svg>
