<?xml version="1.0" encoding="UTF-8" standalone="no"?>
<!DOCTYPE svg PUBLIC "-//W3C//DTD SVG 1.1//EN"
 "http://www.w3.org/Graphics/SVG/1.1/DTD/svg11.dtd">
<!-- Generated by graphviz version 2.26.3 (20100126.1600)
 -->
<!-- Title: G Pages: 1 -->
<svg width="286pt" height="70pt"
 viewBox="0.00 0.00 286.00 70.00" xmlns="http://www.w3.org/2000/svg" xmlns:xlink="http://www.w3.org/1999/xlink">
<g id="graph1" class="graph" transform="scale(1 1) rotate(0) translate(4 66)">
<title>G</title>
<polygon fill="white" stroke="white" points="-4,5 -4,-66 283,-66 283,5 -4,5"/>
<!-- Node1 -->
<g id="node1" class="node"><title>Node1</title>
<a xlink:href="df/d26/classgaia_1_1media_1_1_effect.html" target="_top" xlink:title="This is the super class for all effects.">
<polygon fill="white" stroke="black" points="0.5,-20.5 0.5,-41.5 99.5,-41.5 99.5,-20.5 0.5,-20.5"/>
<text text-anchor="middle" x="50" y="-28.5" font-family="Helvetica,sans-Serif" font-size="10.00">gaia::media::Effect</text>
</a>
</g>
<!-- Node2 -->
<g id="node3" class="node"><title>Node2</title>
<a xlink:href="d5/d6e/classgaia_1_1media_1_1_effect_color.html" target="_top" xlink:title="This class allows to apply color effect on a media item.">
<polygon fill="white" stroke="black" points="146,-40.5 146,-61.5 268,-61.5 268,-40.5 146,-40.5"/>
<text text-anchor="middle" x="207" y="-48.5" font-family="Helvetica,sans-Serif" font-size="10.00">gaia::media::EffectColor</text>
</a>
</g>
<!-- Node1&#45;&gt;Node2 -->
<g id="edge2" class="edge"><title>Node1&#45;&gt;Node2</title>
<path fill="none" stroke="midnightblue" d="M109.839,-38.6228C121.611,-40.1225 133.978,-41.6978 145.794,-43.203"/>
<polygon fill="midnightblue" stroke="midnightblue" points="110.038,-35.1199 99.6758,-37.3281 109.153,-42.0638 110.038,-35.1199"/>
</g>
<!-- Node3 -->
<g id="node5" class="node"><title>Node3</title>
<a xlink:href="dd/d51/classgaia_1_1media_1_1_effect_ken_burns.html" target="_top" xlink:title="This class represents a Ken Burns effect.">
<polygon fill="white" stroke="black" points="136,-0.5 136,-21.5 278,-21.5 278,-0.5 136,-0.5"/>
<text text-anchor="middle" x="207" y="-8.5" font-family="Helvetica,sans-Serif" font-size="10.00">gaia::media::EffectKenBurns</text>
</a>
</g>
<!-- Node1&#45;&gt;Node3 -->
<g id="edge4" class="edge"><title>Node1&#45;&gt;Node3</title>
<path fill="none" stroke="midnightblue" d="M109.859,-23.3747C118.357,-22.2921 127.164,-21.1702 135.85,-20.0637"/>
<polygon fill="midnightblue" stroke="midnightblue" points="109.153,-19.9362 99.6758,-24.6719 110.038,-26.8801 109.153,-19.9362"/>
</g>
</g>
</svg>
