<?xml version="1.0" encoding="UTF-8" standalone="no"?>
<!DOCTYPE svg PUBLIC "-//W3C//DTD SVG 1.1//EN"
 "http://www.w3.org/Graphics/SVG/1.1/DTD/svg11.dtd">
<!-- Generated by graphviz version 2.26.3 (20100126.1600)
 -->
<!-- Title: G Pages: 1 -->
<svg width="291pt" height="262pt"
 viewBox="0.00 0.00 291.00 262.00" xmlns="http://www.w3.org/2000/svg" xmlns:xlink="http://www.w3.org/1999/xlink">
<g id="graph1" class="graph" transform="scale(1 1) rotate(0) translate(4 258)">
<title>G</title>
<polygon fill="white" stroke="white" points="-4,5 -4,-258 288,-258 288,5 -4,5"/>
<!-- Node1 -->
<g id="node1" class="node"><title>Node1</title>
<polygon fill="#bfbfbf" stroke="black" points="94.5,-116.5 94.5,-137.5 203.5,-137.5 203.5,-116.5 94.5,-116.5"/>
<text text-anchor="middle" x="149" y="-124.5" font-family="Helvetica,sans-Serif" font-size="10.00">gaia::text::Spannable</text>
</g>
<!-- Node4 -->
<g id="node7" class="node"><title>Node4</title>
<a xlink:href="../../d6/d89/classgaia_1_1text_1_1_editable.html" target="_top" xlink:title="This is the interface for text whose content and markup can be changed (as opposed to immutable text ...">
<polygon fill="white" stroke="black" points="33,-58.5 33,-79.5 131,-79.5 131,-58.5 33,-58.5"/>
<text text-anchor="middle" x="82" y="-66.5" font-family="Helvetica,sans-Serif" font-size="10.00">gaia::text::Editable</text>
</a>
</g>
<!-- Node1&#45;&gt;Node4 -->
<g id="edge6" class="edge"><title>Node1&#45;&gt;Node4</title>
<path fill="none" stroke="midnightblue" d="M129.005,-109.691C117.694,-99.8996 103.917,-87.973 94.2109,-79.5707"/>
<polygon fill="midnightblue" stroke="midnightblue" points="126.86,-112.463 136.711,-116.362 131.441,-107.171 126.86,-112.463"/>
</g>
<!-- Node6 -->
<g id="node11" class="node"><title>Node6</title>
<a xlink:href="../../d0/de6/classgaia_1_1text_1_1_spannable_string.html" target="_top" xlink:title="This is the class for text whose content is immutable but to which markup objects can be attached and...">
<polygon fill="white" stroke="black" points="149,-58.5 149,-79.5 283,-79.5 283,-58.5 149,-58.5"/>
<text text-anchor="middle" x="216" y="-66.5" font-family="Helvetica,sans-Serif" font-size="10.00">gaia::text::SpannableString</text>
</a>
</g>
<!-- Node1&#45;&gt;Node6 -->
<g id="edge10" class="edge"><title>Node1&#45;&gt;Node6</title>
<path fill="none" stroke="midnightblue" d="M168.995,-109.691C180.306,-99.8996 194.083,-87.973 203.789,-79.5707"/>
<polygon fill="midnightblue" stroke="midnightblue" points="166.559,-107.171 161.289,-116.362 171.14,-112.463 166.559,-107.171"/>
</g>
<!-- Node2 -->
<g id="node2" class="node"><title>Node2</title>
<a xlink:href="../../d3/d76/classgaia_1_1text_1_1_spanned.html" target="_top" xlink:title="This is the interface for text that has markup objects attached to ranges of it.">
<polygon fill="white" stroke="black" points="98.5,-174.5 98.5,-195.5 199.5,-195.5 199.5,-174.5 98.5,-174.5"/>
<text text-anchor="middle" x="149" y="-182.5" font-family="Helvetica,sans-Serif" font-size="10.00">gaia::text::Spanned</text>
</a>
</g>
<!-- Node2&#45;&gt;Node1 -->
<g id="edge2" class="edge"><title>Node2&#45;&gt;Node1</title>
<path fill="none" stroke="midnightblue" d="M149,-164.191C149,-155.168 149,-144.994 149,-137.571"/>
<polygon fill="midnightblue" stroke="midnightblue" points="145.5,-164.362 149,-174.362 152.5,-164.362 145.5,-164.362"/>
</g>
<!-- Node3 -->
<g id="node4" class="node"><title>Node3</title>
<a xlink:href="../../d1/d0f/classgaia_1_1base_1_1_char_sequence.html" target="_top" xlink:title="This interface represents an ordered set of characters and defines the methods to probe them...">
<polygon fill="white" stroke="black" points="83,-232.5 83,-253.5 215,-253.5 215,-232.5 83,-232.5"/>
<text text-anchor="middle" x="149" y="-240.5" font-family="Helvetica,sans-Serif" font-size="10.00">gaia::base::CharSequence</text>
</a>
</g>
<!-- Node3&#45;&gt;Node2 -->
<g id="edge4" class="edge"><title>Node3&#45;&gt;Node2</title>
<path fill="none" stroke="midnightblue" d="M149,-222.191C149,-213.168 149,-202.994 149,-195.571"/>
<polygon fill="midnightblue" stroke="midnightblue" points="145.5,-222.362 149,-232.362 152.5,-222.362 145.5,-222.362"/>
</g>
<!-- Node5 -->
<g id="node9" class="node"><title>Node5</title>
<a xlink:href="../../da/dfe/classgaia_1_1text_1_1_spannable_string_builder.html" target="_top" xlink:title="This is the class for text whose content and markup can both be changed.">
<polygon fill="white" stroke="black" points="0,-0.5 0,-21.5 164,-21.5 164,-0.5 0,-0.5"/>
<text text-anchor="middle" x="82" y="-8.5" font-family="Helvetica,sans-Serif" font-size="10.00">gaia::text::SpannableStringBuilder</text>
</a>
</g>
<!-- Node4&#45;&gt;Node5 -->
<g id="edge8" class="edge"><title>Node4&#45;&gt;Node5</title>
<path fill="none" stroke="midnightblue" d="M82,-48.1906C82,-39.1684 82,-28.9941 82,-21.5707"/>
<polygon fill="midnightblue" stroke="midnightblue" points="78.5001,-48.3619 82,-58.3619 85.5001,-48.3619 78.5001,-48.3619"/>
</g>
</g>
</svg>
