<?xml version="1.0" encoding="UTF-8" standalone="no"?>
<!DOCTYPE svg PUBLIC "-//W3C//DTD SVG 1.1//EN"
 "http://www.w3.org/Graphics/SVG/1.1/DTD/svg11.dtd">
<!-- Generated by graphviz version 2.26.3 (20100126.1600)
 -->
<!-- Title: G Pages: 1 -->
<svg width="411pt" height="204pt"
 viewBox="0.00 0.00 411.00 204.00" xmlns="http://www.w3.org/2000/svg" xmlns:xlink="http://www.w3.org/1999/xlink">
<g id="graph1" class="graph" transform="scale(1 1) rotate(0) translate(4 200)">
<title>G</title>
<polygon fill="white" stroke="white" points="-4,5 -4,-200 408,-200 408,5 -4,5"/>
<!-- Node1 -->
<g id="node1" class="node"><title>Node1</title>
<polygon fill="#bfbfbf" stroke="black" points="69,-174.5 69,-195.5 383,-195.5 383,-174.5 69,-174.5"/>
<text text-anchor="middle" x="226" y="-182.5" font-family="Helvetica,sans-Serif" font-size="10.00">/home/vilon_tao/gaia/sdk/include/gaia/media/videoeditor/Transition.h</text>
</g>
<!-- Node2 -->
<g id="node3" class="node"><title>Node2</title>
<polygon fill="white" stroke="#bfbfbf" points="354.5,-0.5 354.5,-21.5 403.5,-21.5 403.5,-0.5 354.5,-0.5"/>
<text text-anchor="middle" x="379" y="-8.5" font-family="Helvetica,sans-Serif" font-size="10.00">stdint.h</text>
</g>
<!-- Node1&#45;&gt;Node2 -->
<g id="edge2" class="edge"><title>Node1&#45;&gt;Node2</title>
<path fill="none" stroke="midnightblue" d="M279.025,-174.448C303.244,-167.439 330.934,-156.081 351,-138 372.411,-118.708 373.378,-108.049 380,-80 382.246,-70.4838 380.104,-67.7772 380,-58 379.909,-49.4716 379.726,-40.0743 379.541,-31.9385"/>
<polygon fill="midnightblue" stroke="midnightblue" points="383.037,-31.7384 379.296,-21.8262 376.039,-31.9081 383.037,-31.7384"/>
</g>
<!-- Node3 -->
<g id="node5" class="node"><title>Node3</title>
<a xlink:href="../../d1/dd0/gmacros_8h.html" target="_top" xlink:title="gaia/base/gmacros.h">
<polygon fill="white" stroke="black" points="-0.5,-0.5 -0.5,-21.5 106.5,-21.5 106.5,-0.5 -0.5,-0.5"/>
<text text-anchor="middle" x="53" y="-8.5" font-family="Helvetica,sans-Serif" font-size="10.00">gaia/base/gmacros.h</text>
</a>
</g>
<!-- Node1&#45;&gt;Node3 -->
<g id="edge4" class="edge"><title>Node1&#45;&gt;Node3</title>
<path fill="none" stroke="midnightblue" d="M180.892,-174.438C155.742,-167.049 124.793,-155.346 101,-138 74.4144,-118.618 66.2739,-110.909 55,-80 49.3619,-64.5422 49.1961,-45.8181 50.2546,-31.7775"/>
<polygon fill="midnightblue" stroke="midnightblue" points="53.7524,-31.9766 51.2848,-21.6731 46.7885,-31.2665 53.7524,-31.9766"/>
</g>
<!-- Node4 -->
<g id="node7" class="node"><title>Node4</title>
<a xlink:href="../../de/de6/_media_artist_native_helper_8h.html" target="_top" xlink:title="gaia/media/videoeditor/MediaArtistNativeHelper.h">
<polygon fill="white" stroke="black" points="110,-116.5 110,-137.5 342,-137.5 342,-116.5 110,-116.5"/>
<text text-anchor="middle" x="226" y="-124.5" font-family="Helvetica,sans-Serif" font-size="10.00">gaia/media/videoeditor/MediaArtistNativeHelper.h</text>
</a>
</g>
<!-- Node1&#45;&gt;Node4 -->
<g id="edge6" class="edge"><title>Node1&#45;&gt;Node4</title>
<path fill="none" stroke="midnightblue" d="M226,-174.362C226,-166.922 226,-156.743 226,-147.728"/>
<polygon fill="midnightblue" stroke="midnightblue" points="229.5,-147.571 226,-137.571 222.5,-147.571 229.5,-147.571"/>
</g>
<!-- Node4&#45;&gt;Node2 -->
<g id="edge8" class="edge"><title>Node4&#45;&gt;Node2</title>
<path fill="none" stroke="midnightblue" d="M294.156,-116.493C317.838,-109.685 342.755,-98.471 360,-80 372.213,-66.9182 376.698,-46.7136 378.284,-31.5428"/>
<polygon fill="midnightblue" stroke="midnightblue" points="381.776,-31.7834 378.997,-21.5597 374.794,-31.2853 381.776,-31.7834"/>
</g>
<!-- Node4&#45;&gt;Node3 -->
<g id="edge10" class="edge"><title>Node4&#45;&gt;Node3</title>
<path fill="none" stroke="midnightblue" d="M172.619,-116.437C133.989,-107.766 86.1807,-94.5763 72,-80 59.5203,-67.1721 55.0691,-46.9356 53.5626,-31.6885"/>
<polygon fill="midnightblue" stroke="midnightblue" points="57.0513,-31.3987 52.9135,-21.6453 50.0659,-31.8503 57.0513,-31.3987"/>
</g>
<!-- Node5 -->
<g id="node11" class="node"><title>Node5</title>
<a xlink:href="../../dd/de8/_media_properties_8h.html" target="_top" xlink:title="gaia/media/videoeditor/MediaProperties.h">
<polygon fill="white" stroke="black" points="81,-58.5 81,-79.5 277,-79.5 277,-58.5 81,-58.5"/>
<text text-anchor="middle" x="179" y="-66.5" font-family="Helvetica,sans-Serif" font-size="10.00">gaia/media/videoeditor/MediaProperties.h</text>
</a>
</g>
<!-- Node4&#45;&gt;Node5 -->
<g id="edge12" class="edge"><title>Node4&#45;&gt;Node5</title>
<path fill="none" stroke="midnightblue" d="M217.379,-116.362C210.82,-108.268 201.634,-96.9318 193.894,-87.3796"/>
<polygon fill="midnightblue" stroke="midnightblue" points="196.581,-85.1364 187.566,-79.5707 191.142,-89.5436 196.581,-85.1364"/>
</g>
<!-- Node6 -->
<g id="node15" class="node"><title>Node6</title>
<polygon fill="white" stroke="#bfbfbf" points="294.5,-58.5 294.5,-79.5 351.5,-79.5 351.5,-58.5 294.5,-58.5"/>
<text text-anchor="middle" x="323" y="-66.5" font-family="Helvetica,sans-Serif" font-size="10.00">pthread.h</text>
</g>
<!-- Node4&#45;&gt;Node6 -->
<g id="edge18" class="edge"><title>Node4&#45;&gt;Node6</title>
<path fill="none" stroke="midnightblue" d="M243.791,-116.362C258.559,-107.532 279.778,-94.844 296.538,-84.8224"/>
<polygon fill="midnightblue" stroke="midnightblue" points="298.535,-87.7066 305.321,-79.5707 294.943,-81.6987 298.535,-87.7066"/>
</g>
<!-- Node5&#45;&gt;Node2 -->
<g id="edge14" class="edge"><title>Node5&#45;&gt;Node2</title>
<path fill="none" stroke="midnightblue" d="M215.218,-58.4966C251.897,-47.8599 308.223,-31.5253 344.335,-21.0529"/>
<polygon fill="midnightblue" stroke="midnightblue" points="345.77,-24.281 354.399,-18.1342 343.82,-17.558 345.77,-24.281"/>
</g>
<!-- Node5&#45;&gt;Node3 -->
<g id="edge16" class="edge"><title>Node5&#45;&gt;Node3</title>
<path fill="none" stroke="midnightblue" d="M156.182,-58.4966C136.414,-49.397 107.587,-36.1273 85.424,-25.9253"/>
<polygon fill="midnightblue" stroke="midnightblue" points="86.621,-22.6234 76.0737,-21.6212 83.694,-28.982 86.621,-22.6234"/>
</g>
</g>
</svg>
