<?xml version="1.0" encoding="UTF-8" standalone="no"?>
<!DOCTYPE svg PUBLIC "-//W3C//DTD SVG 1.1//EN"
 "http://www.w3.org/Graphics/SVG/1.1/DTD/svg11.dtd">
<!-- Generated by graphviz version 2.26.3 (20100126.1600)
 -->
<!-- Title: G Pages: 1 -->
<svg width="342pt" height="146pt"
 viewBox="0.00 0.00 342.00 146.00" xmlns="http://www.w3.org/2000/svg" xmlns:xlink="http://www.w3.org/1999/xlink">
<g id="graph1" class="graph" transform="scale(1 1) rotate(0) translate(4 142)">
<title>G</title>
<polygon fill="white" stroke="white" points="-4,5 -4,-142 339,-142 339,5 -4,5"/>
<!-- Node1 -->
<g id="node1" class="node"><title>Node1</title>
<polygon fill="#bfbfbf" stroke="black" points="0,-116.5 0,-137.5 334,-137.5 334,-116.5 0,-116.5"/>
<text text-anchor="middle" x="167" y="-124.5" font-family="Helvetica,sans-Serif" font-size="10.00">/home/vilon_tao/gaia/sdk/include/gaia/media/videoeditor/AudioTrackVE.h</text>
</g>
<!-- Node2 -->
<g id="node3" class="node"><title>Node2</title>
<polygon fill="white" stroke="#bfbfbf" points="31.5,-0.5 31.5,-21.5 80.5,-21.5 80.5,-0.5 31.5,-0.5"/>
<text text-anchor="middle" x="56" y="-8.5" font-family="Helvetica,sans-Serif" font-size="10.00">stdint.h</text>
</g>
<!-- Node1&#45;&gt;Node2 -->
<g id="edge2" class="edge"><title>Node1&#45;&gt;Node2</title>
<path fill="none" stroke="midnightblue" d="M114.719,-116.458C94.285,-109.581 72.7381,-98.3263 60,-80 50.395,-66.1812 50.1136,-46.794 51.8229,-32.0872"/>
<polygon fill="midnightblue" stroke="midnightblue" points="55.3252,-32.3408 53.3965,-21.923 48.4076,-31.2697 55.3252,-32.3408"/>
</g>
<!-- Node3 -->
<g id="node5" class="node"><title>Node3</title>
<a xlink:href="../../d1/dd0/gmacros_8h.html" target="_top" xlink:title="gaia/base/gmacros.h">
<polygon fill="white" stroke="black" points="176.5,-0.5 176.5,-21.5 283.5,-21.5 283.5,-0.5 176.5,-0.5"/>
<text text-anchor="middle" x="230" y="-8.5" font-family="Helvetica,sans-Serif" font-size="10.00">gaia/base/gmacros.h</text>
</a>
</g>
<!-- Node1&#45;&gt;Node3 -->
<g id="edge4" class="edge"><title>Node1&#45;&gt;Node3</title>
<path fill="none" stroke="midnightblue" d="M220.924,-116.434C241.104,-109.579 262.02,-98.3476 274,-80 285.443,-62.4747 269.145,-42.2696 253.244,-28.2727"/>
<polygon fill="midnightblue" stroke="midnightblue" points="255.055,-25.2298 245.114,-21.5662 250.601,-30.6296 255.055,-25.2298"/>
</g>
<!-- Node4 -->
<g id="node7" class="node"><title>Node4</title>
<a xlink:href="../../dd/de8/_media_properties_8h.html" target="_top" xlink:title="gaia/media/videoeditor/MediaProperties.h">
<polygon fill="white" stroke="black" points="69,-58.5 69,-79.5 265,-79.5 265,-58.5 69,-58.5"/>
<text text-anchor="middle" x="167" y="-66.5" font-family="Helvetica,sans-Serif" font-size="10.00">gaia/media/videoeditor/MediaProperties.h</text>
</a>
</g>
<!-- Node1&#45;&gt;Node4 -->
<g id="edge6" class="edge"><title>Node1&#45;&gt;Node4</title>
<path fill="none" stroke="midnightblue" d="M167,-116.362C167,-108.922 167,-98.7427 167,-89.7276"/>
<polygon fill="midnightblue" stroke="midnightblue" points="170.5,-89.5706 167,-79.5707 163.5,-89.5707 170.5,-89.5706"/>
</g>
<!-- Node4&#45;&gt;Node2 -->
<g id="edge8" class="edge"><title>Node4&#45;&gt;Node2</title>
<path fill="none" stroke="midnightblue" d="M146.899,-58.4966C129.718,-49.5194 104.77,-36.4835 85.3551,-26.3387"/>
<polygon fill="midnightblue" stroke="midnightblue" points="86.8107,-23.1503 76.3268,-21.6212 83.5689,-29.3544 86.8107,-23.1503"/>
</g>
<!-- Node4&#45;&gt;Node3 -->
<g id="edge10" class="edge"><title>Node4&#45;&gt;Node3</title>
<path fill="none" stroke="midnightblue" d="M178.555,-58.3619C187.613,-50.0226 200.41,-38.2418 210.974,-28.5162"/>
<polygon fill="midnightblue" stroke="midnightblue" points="213.532,-30.9187 218.518,-21.5707 208.79,-25.7688 213.532,-30.9187"/>
</g>
</g>
</svg>
