<?xml version="1.0" encoding="UTF-8" standalone="no"?>
<!DOCTYPE svg PUBLIC "-//W3C//DTD SVG 1.1//EN"
 "http://www.w3.org/Graphics/SVG/1.1/DTD/svg11.dtd">
<!-- Generated by graphviz version 2.26.3 (20100126.1600)
 -->
<!-- Title: G Pages: 1 -->
<svg width="403pt" height="146pt"
 viewBox="0.00 0.00 403.00 146.00" xmlns="http://www.w3.org/2000/svg" xmlns:xlink="http://www.w3.org/1999/xlink">
<g id="graph1" class="graph" transform="scale(1 1) rotate(0) translate(4 142)">
<title>G</title>
<polygon fill="white" stroke="white" points="-4,5 -4,-142 400,-142 400,5 -4,5"/>
<!-- Node1 -->
<g id="node1" class="node"><title>Node1</title>
<polygon fill="#bfbfbf" stroke="black" points="87.5,-116.5 87.5,-137.5 344.5,-137.5 344.5,-116.5 87.5,-116.5"/>
<text text-anchor="middle" x="216" y="-124.5" font-family="Helvetica,sans-Serif" font-size="10.00">/home/vilon_tao/gaia/sdk/include/gaia/core/ipc/Binder.h</text>
</g>
<!-- Node2 -->
<g id="node3" class="node"><title>Node2</title>
<a xlink:href="../../da/d82/_i_interface_8h.html" target="_top" xlink:title="/home/vilon_tao/gaia/sdk/include/gaia/core/ipc/IInterface.h">
<polygon fill="white" stroke="black" points="0,-58.5 0,-79.5 270,-79.5 270,-58.5 0,-58.5"/>
<text text-anchor="middle" x="135" y="-66.5" font-family="Helvetica,sans-Serif" font-size="10.00">/home/vilon_tao/gaia/sdk/include/gaia/core/ipc/IInterface.h</text>
</a>
</g>
<!-- Node1&#45;&gt;Node2 -->
<g id="edge2" class="edge"><title>Node1&#45;&gt;Node2</title>
<path fill="none" stroke="midnightblue" d="M192.62,-110.259C178.802,-100.364 161.725,-88.1361 149.762,-79.5707"/>
<polygon fill="midnightblue" stroke="midnightblue" points="190.975,-113.386 201.143,-116.362 195.05,-107.694 190.975,-113.386"/>
</g>
<!-- Node3 -->
<g id="node5" class="node"><title>Node3</title>
<a xlink:href="../../d6/d9e/_i_media_container_delegate_8h.html" target="_top" xlink:title="/home/vilon_tao/gaia/sdk/include/gaia/defcontainer/IMediaContainerDelegate.h">
<polygon fill="white" stroke="black" points="37,-0.5 37,-21.5 395,-21.5 395,-0.5 37,-0.5"/>
<text text-anchor="middle" x="216" y="-8.5" font-family="Helvetica,sans-Serif" font-size="10.00">/home/vilon_tao/gaia/sdk/include/gaia/defcontainer/IMediaContainerDelegate.h</text>
</a>
</g>
<!-- Node1&#45;&gt;Node3 -->
<g id="edge6" class="edge"><title>Node1&#45;&gt;Node3</title>
<path fill="none" stroke="midnightblue" d="M248.337,-111.156C260.243,-103.515 272.418,-93.1218 279,-80 291.073,-55.9308 260.999,-34.0639 238.361,-21.6635"/>
<polygon fill="midnightblue" stroke="midnightblue" points="246.202,-108.353 239.383,-116.462 249.77,-114.375 246.202,-108.353"/>
</g>
<!-- Node2&#45;&gt;Node3 -->
<g id="edge4" class="edge"><title>Node2&#45;&gt;Node3</title>
<path fill="none" stroke="midnightblue" d="M158.38,-52.2587C172.198,-42.3641 189.275,-30.1361 201.238,-21.5707"/>
<polygon fill="midnightblue" stroke="midnightblue" points="155.95,-49.6943 149.857,-58.3619 160.025,-55.3857 155.95,-49.6943"/>
</g>
</g>
</svg>
