<?xml version="1.0" encoding="UTF-8" standalone="no"?>
<!DOCTYPE svg PUBLIC "-//W3C//DTD SVG 1.1//EN"
 "http://www.w3.org/Graphics/SVG/1.1/DTD/svg11.dtd">
<!-- Generated by graphviz version 2.26.3 (20100126.1600)
 -->
<!-- Title: G Pages: 1 -->
<svg width="292pt" height="146pt"
 viewBox="0.00 0.00 292.00 146.00" xmlns="http://www.w3.org/2000/svg" xmlns:xlink="http://www.w3.org/1999/xlink">
<g id="graph1" class="graph" transform="scale(1 1) rotate(0) translate(4 142)">
<title>G</title>
<polygon fill="white" stroke="white" points="-4,5 -4,-142 289,-142 289,5 -4,5"/>
<!-- Node1 -->
<g id="node1" class="node"><title>Node1</title>
<polygon fill="#bfbfbf" stroke="black" points="-0.5,-116.5 -0.5,-137.5 284.5,-137.5 284.5,-116.5 -0.5,-116.5"/>
<text text-anchor="middle" x="142" y="-124.5" font-family="Helvetica,sans-Serif" font-size="10.00">/home/vilon_tao/gaia/sdk/include/gaia/media/ToneGenerator.h</text>
</g>
<!-- Node2 -->
<g id="node3" class="node"><title>Node2</title>
<polygon fill="white" stroke="#bfbfbf" points="47.5,-0.5 47.5,-21.5 96.5,-21.5 96.5,-0.5 47.5,-0.5"/>
<text text-anchor="middle" x="72" y="-8.5" font-family="Helvetica,sans-Serif" font-size="10.00">stdint.h</text>
</g>
<!-- Node1&#45;&gt;Node2 -->
<g id="edge2" class="edge"><title>Node1&#45;&gt;Node2</title>
<path fill="none" stroke="midnightblue" d="M112.415,-116.479C96.1715,-109.006 77.4552,-97.2064 68,-80 59.8953,-65.2512 61.8715,-45.9529 65.3155,-31.5168"/>
<polygon fill="midnightblue" stroke="midnightblue" points="68.7714,-32.1541 68.0926,-21.581 62.0298,-30.2697 68.7714,-32.1541"/>
</g>
<!-- Node3 -->
<g id="node5" class="node"><title>Node3</title>
<a xlink:href="../../d1/dd0/gmacros_8h.html" target="_top" xlink:title="gaia/base/gmacros.h">
<polygon fill="white" stroke="black" points="158.5,-0.5 158.5,-21.5 265.5,-21.5 265.5,-0.5 158.5,-0.5"/>
<text text-anchor="middle" x="212" y="-8.5" font-family="Helvetica,sans-Serif" font-size="10.00">gaia/base/gmacros.h</text>
</a>
</g>
<!-- Node1&#45;&gt;Node3 -->
<g id="edge4" class="edge"><title>Node1&#45;&gt;Node3</title>
<path fill="none" stroke="midnightblue" d="M171.585,-116.479C187.829,-109.006 206.545,-97.2064 216,-80 224.105,-65.2512 222.129,-45.9529 218.685,-31.5168"/>
<polygon fill="midnightblue" stroke="midnightblue" points="221.97,-30.2697 215.907,-21.581 215.229,-32.1541 221.97,-30.2697"/>
</g>
<!-- Node4 -->
<g id="node7" class="node"><title>Node4</title>
<a xlink:href="../../d9/d66/_audio_control_8h.html" target="_top" xlink:title="gaia/media/AudioControl.h">
<polygon fill="white" stroke="black" points="76.5,-58.5 76.5,-79.5 207.5,-79.5 207.5,-58.5 76.5,-58.5"/>
<text text-anchor="middle" x="142" y="-66.5" font-family="Helvetica,sans-Serif" font-size="10.00">gaia/media/AudioControl.h</text>
</a>
</g>
<!-- Node1&#45;&gt;Node4 -->
<g id="edge6" class="edge"><title>Node1&#45;&gt;Node4</title>
<path fill="none" stroke="midnightblue" d="M142,-116.362C142,-108.922 142,-98.7427 142,-89.7276"/>
<polygon fill="midnightblue" stroke="midnightblue" points="145.5,-89.5706 142,-79.5707 138.5,-89.5707 145.5,-89.5706"/>
</g>
<!-- Node4&#45;&gt;Node2 -->
<g id="edge8" class="edge"><title>Node4&#45;&gt;Node2</title>
<path fill="none" stroke="midnightblue" d="M129.161,-58.3619C118.998,-49.9408 104.599,-38.0105 92.7958,-28.2308"/>
<polygon fill="midnightblue" stroke="midnightblue" points="94.691,-25.2558 84.7577,-21.5707 90.2248,-30.6459 94.691,-25.2558"/>
</g>
<!-- Node4&#45;&gt;Node3 -->
<g id="edge10" class="edge"><title>Node4&#45;&gt;Node3</title>
<path fill="none" stroke="midnightblue" d="M154.839,-58.3619C165.002,-49.9408 179.401,-38.0105 191.204,-28.2308"/>
<polygon fill="midnightblue" stroke="midnightblue" points="193.775,-30.6459 199.242,-21.5707 189.309,-25.2558 193.775,-30.6459"/>
</g>
</g>
</svg>
