<?xml version="1.0" encoding="UTF-8" standalone="no"?>
<!DOCTYPE svg PUBLIC "-//W3C//DTD SVG 1.1//EN"
 "http://www.w3.org/Graphics/SVG/1.1/DTD/svg11.dtd">
<!-- Generated by graphviz version 2.26.3 (20100126.1600)
 -->
<!-- Title: G Pages: 1 -->
<svg width="1102pt" height="210pt"
 viewBox="0.00 0.00 1102.00 210.00" xmlns="http://www.w3.org/2000/svg" xmlns:xlink="http://www.w3.org/1999/xlink">
<g id="graph1" class="graph" transform="scale(1 1) rotate(0) translate(4 206)">
<title>G</title>
<polygon fill="white" stroke="white" points="-4,5 -4,-206 1099,-206 1099,5 -4,5"/>
<!-- Node1 -->
<g id="node1" class="node"><title>Node1</title>
<polygon fill="#bfbfbf" stroke="black" points="814,-0.5 814,-21.5 924,-21.5 924,-0.5 814,-0.5"/>
<text text-anchor="middle" x="869" y="-8.5" font-family="Helvetica,sans-Serif" font-size="10.00">gaia::ui::VideoWidget</text>
</g>
<!-- Node2 -->
<g id="node2" class="node"><title>Node2</title>
<a xlink:href="../../d2/de8/classgaia_1_1core_1_1_surface_widget.html" target="_top" xlink:title="gaia::core::SurfaceWidget">
<polygon fill="white" stroke="black" points="547,-0.5 547,-21.5 677,-21.5 677,-0.5 547,-0.5"/>
<text text-anchor="middle" x="612" y="-8.5" font-family="Helvetica,sans-Serif" font-size="10.00">gaia::core::SurfaceWidget</text>
</a>
</g>
<!-- Node2&#45;&gt;Node1 -->
<g id="edge2" class="edge"><title>Node2&#45;&gt;Node1</title>
<path fill="none" stroke="midnightblue" d="M687.293,-11C727.83,-11 776.947,-11 813.889,-11"/>
<polygon fill="midnightblue" stroke="midnightblue" points="687.184,-7.5001 677.184,-11 687.184,-14.5001 687.184,-7.5001"/>
</g>
<!-- Node3 -->
<g id="node4" class="node"><title>Node3</title>
<a xlink:href="../../d8/dac/classgaia_1_1core_1_1_widget.html" target="_top" xlink:title="The Widget class is the base class of all user interface component.">
<polygon fill="white" stroke="black" points="244,-73.5 244,-94.5 340,-94.5 340,-73.5 244,-73.5"/>
<text text-anchor="middle" x="292" y="-81.5" font-family="Helvetica,sans-Serif" font-size="10.00">gaia::core::Widget</text>
</a>
</g>
<!-- Node3&#45;&gt;Node2 -->
<g id="edge4" class="edge"><title>Node3&#45;&gt;Node2</title>
<path fill="none" stroke="midnightblue" d="M348.165,-71.1873C410.009,-57.0792 508.284,-34.6603 565.825,-21.5337"/>
<polygon fill="midnightblue" stroke="midnightblue" points="347.16,-67.8266 338.189,-73.4631 348.717,-74.6513 347.16,-67.8266"/>
</g>
<!-- Node6 -->
<g id="node10" class="node"><title>Node6</title>
<a xlink:href="../../db/d6c/classgaia_1_1core_1_1_widget_controller.html" target="_top" xlink:title="Define the default widget layout to put sets of layout in it.">
<polygon fill="white" stroke="black" points="543,-46.5 543,-67.5 681,-67.5 681,-46.5 543,-46.5"/>
<text text-anchor="middle" x="612" y="-54.5" font-family="Helvetica,sans-Serif" font-size="10.00">gaia::core::WidgetController</text>
</a>
</g>
<!-- Node3&#45;&gt;Node6 -->
<g id="edge12" class="edge"><title>Node3&#45;&gt;Node6</title>
<path fill="none" stroke="midnightblue" d="M350.22,-80.5108C390.148,-77.9741 444.319,-74.25 492,-70 508.489,-68.5302 526.229,-66.7296 542.878,-64.9423"/>
<polygon fill="midnightblue" stroke="midnightblue" points="349.891,-77.0245 340.13,-81.1458 350.331,-84.0106 349.891,-77.0245"/>
</g>
<!-- Node4 -->
<g id="node6" class="node"><title>Node4</title>
<a xlink:href="../../d0/db2/classgaia_1_1core_1_1_property_animatable.html" target="_top" xlink:title="Any animation object need to implement PropertyAnimatable because of setting value.">
<polygon fill="white" stroke="black" points="0.5,-85.5 0.5,-106.5 151.5,-106.5 151.5,-85.5 0.5,-85.5"/>
<text text-anchor="middle" x="76" y="-93.5" font-family="Helvetica,sans-Serif" font-size="10.00">gaia::core::PropertyAnimatable</text>
</a>
</g>
<!-- Node4&#45;&gt;Node3 -->
<g id="edge6" class="edge"><title>Node4&#45;&gt;Node3</title>
<path fill="none" stroke="midnightblue" d="M161.729,-91.2373C189.663,-89.6854 219.676,-88.018 243.845,-86.6753"/>
<polygon fill="midnightblue" stroke="midnightblue" points="161.337,-87.7536 151.546,-91.803 161.725,-94.7428 161.337,-87.7536"/>
</g>
<!-- Node5 -->
<g id="node8" class="node"><title>Node5</title>
<a xlink:href="../../d5/dfb/classgaia_1_1core_1_1_scene.html" target="_top" xlink:title="A Scene is used to build a visual interface.">
<polygon fill="white" stroke="black" points="822.5,-98.5 822.5,-119.5 915.5,-119.5 915.5,-98.5 822.5,-98.5"/>
<text text-anchor="middle" x="869" y="-106.5" font-family="Helvetica,sans-Serif" font-size="10.00">gaia::core::Scene</text>
</a>
</g>
<!-- Node5&#45;&gt;Node3 -->
<g id="edge8" class="edge"><title>Node5&#45;&gt;Node3</title>
<path fill="none" stroke="#9a32cd" stroke-dasharray="5,2" d="M812.367,-106.614C721.269,-102.766 536.534,-94.9187 380,-88 367.166,-87.4327 353.28,-86.8071 340.413,-86.2224"/>
<polygon fill="#9a32cd" stroke="#9a32cd" points="812.337,-110.116 822.476,-107.041 812.632,-103.122 812.337,-110.116"/>
<text text-anchor="middle" x="612" y="-106" font-family="Helvetica,sans-Serif" font-size="10.00"> mpScene</text>
</g>
<!-- Node5&#45;&gt;Node6 -->
<g id="edge16" class="edge"><title>Node5&#45;&gt;Node6</title>
<path fill="none" stroke="#9a32cd" stroke-dasharray="5,2" d="M835.108,-94.706C822.955,-90.053 809.035,-85.2541 796,-82 758.623,-72.6687 716.047,-66.6016 681.271,-62.7845"/>
<polygon fill="#9a32cd" stroke="#9a32cd" points="833.837,-97.9672 844.424,-98.374 836.402,-91.4538 833.837,-97.9672"/>
<text text-anchor="middle" x="764" y="-86" font-family="Helvetica,sans-Serif" font-size="10.00"> mpScene</text>
</g>
<!-- Node12 -->
<g id="node25" class="node"><title>Node12</title>
<a xlink:href="../../db/d3f/classgaia_1_1core_1_1_page.html" target="_top" xlink:title="An page is a single, focused thing that the user can do.">
<polygon fill="white" stroke="black" points="1006,-98.5 1006,-119.5 1094,-119.5 1094,-98.5 1006,-98.5"/>
<text text-anchor="middle" x="1050" y="-106.5" font-family="Helvetica,sans-Serif" font-size="10.00">gaia::core::Page</text>
</a>
</g>
<!-- Node5&#45;&gt;Node12 -->
<g id="edge30" class="edge"><title>Node5&#45;&gt;Node12</title>
<path fill="none" stroke="#9a32cd" stroke-dasharray="5,2" d="M925.646,-109C951.473,-109 981.597,-109 1005.73,-109"/>
<polygon fill="#9a32cd" stroke="#9a32cd" points="925.612,-105.5 915.612,-109 925.612,-112.5 925.612,-105.5"/>
<text text-anchor="middle" x="965" y="-113" font-family="Helvetica,sans-Serif" font-size="10.00"> mpScene</text>
</g>
<!-- Node6&#45;&gt;Node5 -->
<g id="edge10" class="edge"><title>Node6&#45;&gt;Node5</title>
<path fill="none" stroke="#9a32cd" stroke-dasharray="5,2" d="M658.009,-44.1601C696.183,-35.849 751.257,-29.3625 796,-46 824.244,-56.5023 848.86,-83.382 860.986,-98.4162"/>
<polygon fill="#9a32cd" stroke="#9a32cd" points="657.16,-40.7638 648.2,-46.4166 658.73,-47.5856 657.16,-40.7638"/>
<text text-anchor="middle" x="764" y="-50" font-family="Helvetica,sans-Serif" font-size="10.00"> mpController</text>
</g>
<!-- Node7 -->
<g id="node13" class="node"><title>Node7</title>
<a xlink:href="../../dd/de0/classgaia_1_1core_1_1_event_control.html" target="_top" xlink:title="EventControl is used to dispatch event and register listener.">
<polygon fill="white" stroke="black" points="231,-10.5 231,-31.5 353,-31.5 353,-10.5 231,-10.5"/>
<text text-anchor="middle" x="292" y="-18.5" font-family="Helvetica,sans-Serif" font-size="10.00">gaia::core::EventControl</text>
</a>
</g>
<!-- Node7&#45;&gt;Node2 -->
<g id="edge34" class="edge"><title>Node7&#45;&gt;Node2</title>
<path fill="none" stroke="midnightblue" d="M363.323,-18.7712C418.214,-17.0558 493.457,-14.7045 546.762,-13.0387"/>
<polygon fill="midnightblue" stroke="midnightblue" points="363.206,-15.273 353.321,-19.0837 363.425,-22.2696 363.206,-15.273"/>
</g>
<!-- Node7&#45;&gt;Node6 -->
<g id="edge14" class="edge"><title>Node7&#45;&gt;Node6</title>
<path fill="none" stroke="midnightblue" d="M363.422,-29.035C416.968,-35.0589 489.839,-43.2569 542.831,-49.2185"/>
<polygon fill="midnightblue" stroke="midnightblue" points="363.649,-25.5385 353.321,-27.8986 362.867,-32.4947 363.649,-25.5385"/>
</g>
<!-- Node8 -->
<g id="node16" class="node"><title>Node8</title>
<a xlink:href="../../de/dad/classgaia_1_1content_1_1_resources.html" target="_top" xlink:title="Class for accessing an application&#39;s resources.">
<polygon fill="white" stroke="black" points="549,-180.5 549,-201.5 675,-201.5 675,-180.5 549,-180.5"/>
<text text-anchor="middle" x="612" y="-188.5" font-family="Helvetica,sans-Serif" font-size="10.00">gaia::content::Resources</text>
</a>
</g>
<!-- Node8&#45;&gt;Node5 -->
<g id="edge18" class="edge"><title>Node8&#45;&gt;Node5</title>
<path fill="none" stroke="#9a32cd" stroke-dasharray="5,2" d="M685.212,-179.766C719.609,-173.116 760.713,-163.163 796,-149 816.251,-140.872 838.01,-128.416 852.453,-119.565"/>
<polygon fill="#9a32cd" stroke="#9a32cd" points="684.416,-176.354 675.234,-181.639 685.708,-183.234 684.416,-176.354"/>
<text text-anchor="middle" x="764" y="-172" font-family="Helvetica,sans-Serif" font-size="10.00"> mpResources</text>
</g>
<!-- Node9 -->
<g id="node18" class="node"><title>Node9</title>
<a xlink:href="../../df/d5d/classgaia_1_1base_1_1_vector.html" target="_top" xlink:title="gaia::base::Vector\&lt; gaia::ui::DialogBox * \&gt;">
<polygon fill="white" stroke="black" points="510.5,-140.5 510.5,-161.5 713.5,-161.5 713.5,-140.5 510.5,-140.5"/>
<text text-anchor="middle" x="612" y="-148.5" font-family="Helvetica,sans-Serif" font-size="10.00">gaia::base::Vector&lt; gaia::ui::DialogBox * &gt;</text>
</a>
</g>
<!-- Node9&#45;&gt;Node5 -->
<g id="edge20" class="edge"><title>Node9&#45;&gt;Node5</title>
<path fill="none" stroke="#9a32cd" stroke-dasharray="5,2" d="M695.584,-138.975C727.101,-134.258 763.242,-128.632 796,-123 804.521,-121.535 813.582,-119.878 822.317,-118.23"/>
<polygon fill="#9a32cd" stroke="#9a32cd" points="694.9,-135.538 685.524,-140.473 695.931,-142.462 694.9,-135.538"/>
<text text-anchor="middle" x="764" y="-136" font-family="Helvetica,sans-Serif" font-size="10.00"> mDialogList</text>
</g>
<!-- Node10 -->
<g id="node20" class="node"><title>Node10</title>
<a xlink:href="../../d0/d21/classgaia_1_1base_1_1_vector_impl.html" target="_top" xlink:title="Implements vector data structure equipped with copy&#45;on&#45;write mechanism.">
<polygon fill="white" stroke="black" points="18.5,-147.5 18.5,-168.5 133.5,-168.5 133.5,-147.5 18.5,-147.5"/>
<text text-anchor="middle" x="76" y="-155.5" font-family="Helvetica,sans-Serif" font-size="10.00">gaia::base::VectorImpl</text>
</a>
</g>
<!-- Node10&#45;&gt;Node9 -->
<g id="edge22" class="edge"><title>Node10&#45;&gt;Node9</title>
<path fill="none" stroke="#8b1a1a" d="M143.703,-157.116C236.237,-155.907 402.963,-153.73 510.485,-152.326"/>
<polygon fill="#8b1a1a" stroke="#8b1a1a" points="143.569,-153.617 133.616,-157.248 143.661,-160.617 143.569,-153.617"/>
</g>
<!-- Node11 -->
<g id="node22" class="node"><title>Node11</title>
<a xlink:href="../../df/d5d/classgaia_1_1base_1_1_vector.html" target="_top" xlink:title="This class implements the vector data structure.">
<polygon fill="white" stroke="black" points="222,-170.5 222,-191.5 362,-191.5 362,-170.5 222,-170.5"/>
<text text-anchor="middle" x="292" y="-178.5" font-family="Helvetica,sans-Serif" font-size="10.00">gaia::base::Vector&lt; TYPE &gt;</text>
</a>
</g>
<!-- Node10&#45;&gt;Node11 -->
<g id="edge26" class="edge"><title>Node10&#45;&gt;Node11</title>
<path fill="none" stroke="#8b1a1a" d="M143.676,-165.206C168.552,-167.855 196.761,-170.859 221.851,-173.53"/>
<polygon fill="#8b1a1a" stroke="#8b1a1a" points="143.915,-161.712 133.6,-164.133 143.173,-168.673 143.915,-161.712"/>
</g>
<!-- Node11&#45;&gt;Node9 -->
<g id="edge24" class="edge"><title>Node11&#45;&gt;Node9</title>
<path fill="none" stroke="orange" stroke-dasharray="5,2" d="M372.365,-173.466C414.198,-169.544 465.78,-164.708 510.358,-160.529"/>
<polygon fill="orange" stroke="orange" points="371.855,-169.998 362.225,-174.416 372.508,-176.968 371.855,-169.998"/>
<text text-anchor="middle" x="436" y="-176" font-family="Helvetica,sans-Serif" font-size="10.00"> &lt; gaia::ui::DialogBox * &gt;</text>
</g>
<!-- Node12&#45;&gt;Node5 -->
<g id="edge28" class="edge"><title>Node12&#45;&gt;Node5</title>
<path fill="none" stroke="#9a32cd" stroke-dasharray="5,2" d="M1007.76,-95.8052C1001.2,-94.2274 994.461,-92.8697 988,-92 967.738,-89.2725 962.311,-89.6663 942,-92 930.494,-93.322 918.166,-95.7795 906.977,-98.4232"/>
<polygon fill="#9a32cd" stroke="#9a32cd" points="1007.28,-99.2977 1017.84,-98.4273 1009.04,-92.5231 1007.28,-99.2977"/>
<text text-anchor="middle" x="965" y="-96" font-family="Helvetica,sans-Serif" font-size="10.00"> mpPage</text>
</g>
<!-- Node13 -->
<g id="node28" class="node"><title>Node13</title>
<a xlink:href="../../db/d88/classgaia_1_1core_1_1_widget_tag.html" target="_top" xlink:title="gaia::core::WidgetTag">
<polygon fill="white" stroke="black" points="19.5,-45.5 19.5,-66.5 132.5,-66.5 132.5,-45.5 19.5,-45.5"/>
<text text-anchor="middle" x="76" y="-53.5" font-family="Helvetica,sans-Serif" font-size="10.00">gaia::core::WidgetTag</text>
</a>
</g>
<!-- Node13&#45;&gt;Node3 -->
<g id="edge32" class="edge"><title>Node13&#45;&gt;Node3</title>
<path fill="none" stroke="#9a32cd" stroke-dasharray="5,2" d="M142.869,-63.4522C162.574,-65.752 184.167,-68.3736 204,-71 216.86,-72.7031 230.756,-74.6881 243.622,-76.5868"/>
<polygon fill="#9a32cd" stroke="#9a32cd" points="143.092,-59.9548 132.756,-62.2806 142.287,-66.9083 143.092,-59.9548"/>
<text text-anchor="middle" x="187" y="-75" font-family="Helvetica,sans-Serif" font-size="10.00"> mpTag</text>
</g>
</g>
</svg>
