<?xml version="1.0" encoding="UTF-8" standalone="no"?>
<!DOCTYPE svg PUBLIC "-//W3C//DTD SVG 1.1//EN"
 "http://www.w3.org/Graphics/SVG/1.1/DTD/svg11.dtd">
<!-- Generated by graphviz version 2.26.3 (20100126.1600)
 -->
<!-- Title: G Pages: 1 -->
<svg width="362pt" height="88pt"
 viewBox="0.00 0.00 362.00 88.00" xmlns="http://www.w3.org/2000/svg" xmlns:xlink="http://www.w3.org/1999/xlink">
<g id="graph1" class="graph" transform="scale(1 1) rotate(0) translate(4 84)">
<title>G</title>
<polygon fill="white" stroke="white" points="-4,5 -4,-84 359,-84 359,5 -4,5"/>
<!-- Node1 -->
<g id="node1" class="node"><title>Node1</title>
<polygon fill="#bfbfbf" stroke="black" points="50.5,-58.5 50.5,-79.5 327.5,-79.5 327.5,-58.5 50.5,-58.5"/>
<text text-anchor="middle" x="189" y="-66.5" font-family="Helvetica,sans-Serif" font-size="10.00">/home/vilon_tao/gaia/sdk/include/gaia/security/PrivateKey.h</text>
</g>
<!-- Node2 -->
<g id="node3" class="node"><title>Node2</title>
<polygon fill="white" stroke="#bfbfbf" points="-0.5,-0.5 -0.5,-21.5 76.5,-21.5 76.5,-0.5 -0.5,-0.5"/>
<text text-anchor="middle" x="38" y="-8.5" font-family="Helvetica,sans-Serif" font-size="10.00">openssl/evp.h</text>
</g>
<!-- Node1&#45;&gt;Node2 -->
<g id="edge2" class="edge"><title>Node1&#45;&gt;Node2</title>
<path fill="none" stroke="midnightblue" d="M161.655,-58.4966C137.358,-49.1639 101.64,-35.4447 74.8322,-25.1475"/>
<polygon fill="midnightblue" stroke="midnightblue" points="75.9863,-21.8415 65.3962,-21.5231 73.4763,-28.376 75.9863,-21.8415"/>
</g>
<!-- Node3 -->
<g id="node5" class="node"><title>Node3</title>
<a xlink:href="../../d8/d47/_security_common_header_8h.html" target="_top" xlink:title="gaia/security/SecurityCommonHeader.h">
<polygon fill="white" stroke="black" points="93.5,-0.5 93.5,-21.5 284.5,-21.5 284.5,-0.5 93.5,-0.5"/>
<text text-anchor="middle" x="189" y="-8.5" font-family="Helvetica,sans-Serif" font-size="10.00">gaia/security/SecurityCommonHeader.h</text>
</a>
</g>
<!-- Node1&#45;&gt;Node3 -->
<g id="edge4" class="edge"><title>Node1&#45;&gt;Node3</title>
<path fill="none" stroke="midnightblue" d="M189,-58.3619C189,-50.9219 189,-40.7427 189,-31.7276"/>
<polygon fill="midnightblue" stroke="midnightblue" points="192.5,-31.5706 189,-21.5707 185.5,-31.5707 192.5,-31.5706"/>
</g>
<!-- Node4 -->
<g id="node7" class="node"><title>Node4</title>
<polygon fill="white" stroke="#bfbfbf" points="302,-0.5 302,-21.5 354,-21.5 354,-0.5 302,-0.5"/>
<text text-anchor="middle" x="328" y="-8.5" font-family="Helvetica,sans-Serif" font-size="10.00">sstream</text>
</g>
<!-- Node1&#45;&gt;Node4 -->
<g id="edge6" class="edge"><title>Node1&#45;&gt;Node4</title>
<path fill="none" stroke="midnightblue" d="M214.172,-58.4966C236.273,-49.2746 268.639,-35.7695 293.213,-25.5153"/>
<polygon fill="midnightblue" stroke="midnightblue" points="294.665,-28.7022 302.546,-21.6212 291.969,-22.2421 294.665,-28.7022"/>
</g>
</g>
</svg>
