<?xml version="1.0" encoding="UTF-8" standalone="no"?>
<!DOCTYPE svg PUBLIC "-//W3C//DTD SVG 1.1//EN"
 "http://www.w3.org/Graphics/SVG/1.1/DTD/svg11.dtd">
<!-- Generated by graphviz version 2.26.3 (20100126.1600)
 -->
<!-- Title: G Pages: 1 -->
<svg width="264pt" height="90pt"
 viewBox="0.00 0.00 264.00 90.00" xmlns="http://www.w3.org/2000/svg" xmlns:xlink="http://www.w3.org/1999/xlink">
<g id="graph1" class="graph" transform="scale(1 1) rotate(0) translate(4 86)">
<title>G</title>
<polygon fill="white" stroke="white" points="-4,5 -4,-86 261,-86 261,5 -4,5"/>
<!-- Node1 -->
<g id="node1" class="node"><title>Node1</title>
<polygon fill="#bfbfbf" stroke="black" points="-0.5,-0.5 -0.5,-21.5 178.5,-21.5 178.5,-0.5 -0.5,-0.5"/>
<text text-anchor="middle" x="89" y="-8.5" font-family="Helvetica,sans-Serif" font-size="10.00">gaia::text::ScrollingMovementMethod</text>
</g>
<!-- Node1&#45;&gt;Node1 -->
<g id="edge4" class="edge"><title>Node1&#45;&gt;Node1</title>
<path fill="none" stroke="#9a32cd" stroke-dasharray="5,2" d="M188.807,-14.5026C193.346,-13.6141 196,-12.4465 196,-11 196,-8.68555 189.207,-7.08532 178.765,-6.19932"/>
<polygon fill="#9a32cd" stroke="#9a32cd" points="188.234,-11.0475 178.765,-15.8007 189.131,-17.9897 188.234,-11.0475"/>
<text text-anchor="middle" x="226" y="-8.5" font-family="Helvetica,sans-Serif" font-size="10.00"> mspInstance</text>
</g>
<!-- Node2 -->
<g id="node2" class="node"><title>Node2</title>
<a xlink:href="../../d7/d0c/classgaia_1_1text_1_1_movement_method.html" target="_top" xlink:title="Provides cursor positioning, scrolling and text selection functionality in a TextView.">
<polygon fill="white" stroke="black" points="18.5,-60.5 18.5,-81.5 159.5,-81.5 159.5,-60.5 18.5,-60.5"/>
<text text-anchor="middle" x="89" y="-68.5" font-family="Helvetica,sans-Serif" font-size="10.00">gaia::text::MovementMethod</text>
</a>
</g>
<!-- Node2&#45;&gt;Node1 -->
<g id="edge2" class="edge"><title>Node2&#45;&gt;Node1</title>
<path fill="none" stroke="midnightblue" d="M89,-50.2312C89,-40.5922 89,-29.5444 89,-21.6339"/>
<polygon fill="midnightblue" stroke="midnightblue" points="85.5001,-50.2732 89,-60.2732 92.5001,-50.2732 85.5001,-50.2732"/>
</g>
</g>
</svg>
