<?xml version="1.0" encoding="UTF-8" standalone="no"?>
<!DOCTYPE svg PUBLIC "-//W3C//DTD SVG 1.1//EN"
 "http://www.w3.org/Graphics/SVG/1.1/DTD/svg11.dtd">
<!-- Generated by graphviz version 2.26.3 (20100126.1600)
 -->
<!-- Title: G Pages: 1 -->
<svg width="800pt" height="378pt"
 viewBox="0.00 0.00 800.00 378.00" xmlns="http://www.w3.org/2000/svg" xmlns:xlink="http://www.w3.org/1999/xlink">
<g id="graph1" class="graph" transform="scale(1 1) rotate(0) translate(4 374)">
<title>G</title>
<polygon fill="white" stroke="white" points="-4,5 -4,-374 797,-374 797,5 -4,5"/>
<!-- Node1 -->
<g id="node1" class="node"><title>Node1</title>
<polygon fill="#bfbfbf" stroke="black" points="420.5,-348.5 420.5,-369.5 675.5,-369.5 675.5,-348.5 420.5,-348.5"/>
<text text-anchor="middle" x="548" y="-356.5" font-family="Helvetica,sans-Serif" font-size="10.00">/home/vilon_tao/gaia/sdk/include/gaia/text/util/Linkify.h</text>
</g>
<!-- Node2 -->
<g id="node3" class="node"><title>Node2</title>
<a xlink:href="../../d3/dc5/_array_8h.html" target="_top" xlink:title="gaia/base/Array.h">
<polygon fill="white" stroke="black" points="193.5,-116.5 193.5,-137.5 286.5,-137.5 286.5,-116.5 193.5,-116.5"/>
<text text-anchor="middle" x="240" y="-124.5" font-family="Helvetica,sans-Serif" font-size="10.00">gaia/base/Array.h</text>
</a>
</g>
<!-- Node1&#45;&gt;Node2 -->
<g id="edge2" class="edge"><title>Node1&#45;&gt;Node2</title>
<path fill="none" stroke="midnightblue" d="M527.209,-348.319C510.281,-339.333 485.999,-325.777 466,-312 385.253,-256.376 297.542,-179.227 259.46,-144.81"/>
<polygon fill="midnightblue" stroke="midnightblue" points="261.453,-141.892 251.696,-137.762 256.748,-147.075 261.453,-141.892"/>
</g>
<!-- Node9 -->
<g id="node19" class="node"><title>Node9</title>
<a xlink:href="../../db/db5/_string_8h.html" target="_top" xlink:title="gaia/base/String.h">
<polygon fill="white" stroke="black" points="357.5,-116.5 357.5,-137.5 452.5,-137.5 452.5,-116.5 357.5,-116.5"/>
<text text-anchor="middle" x="405" y="-124.5" font-family="Helvetica,sans-Serif" font-size="10.00">gaia/base/String.h</text>
</a>
</g>
<!-- Node1&#45;&gt;Node9 -->
<g id="edge20" class="edge"><title>Node1&#45;&gt;Node9</title>
<path fill="none" stroke="midnightblue" d="M528.797,-348.383C515.087,-339.999 497.018,-327.2 485,-312 443.895,-260.009 419.822,-183.681 410.079,-147.488"/>
<polygon fill="midnightblue" stroke="midnightblue" points="413.416,-146.414 407.513,-137.616 406.642,-148.175 413.416,-146.414"/>
</g>
<!-- Node12 -->
<g id="node28" class="node"><title>Node12</title>
<a xlink:href="../../d1/dd0/gmacros_8h.html" target="_top" xlink:title="gaia/base/gmacros.h">
<polygon fill="white" stroke="black" points="619.5,-290.5 619.5,-311.5 726.5,-311.5 726.5,-290.5 619.5,-290.5"/>
<text text-anchor="middle" x="673" y="-298.5" font-family="Helvetica,sans-Serif" font-size="10.00">gaia/base/gmacros.h</text>
</a>
</g>
<!-- Node1&#45;&gt;Node12 -->
<g id="edge32" class="edge"><title>Node1&#45;&gt;Node12</title>
<path fill="none" stroke="midnightblue" d="M570.637,-348.497C590.248,-339.397 618.846,-326.127 640.833,-315.925"/>
<polygon fill="midnightblue" stroke="midnightblue" points="642.512,-319.005 650.109,-311.621 639.565,-312.655 642.512,-319.005"/>
</g>
<!-- Node13 -->
<g id="node30" class="node"><title>Node13</title>
<a xlink:href="../../d9/dbb/_pattern_8h.html" target="_top" xlink:title="gaia/webkit/Pattern.h">
<polygon fill="white" stroke="black" points="493.5,-290.5 493.5,-311.5 602.5,-311.5 602.5,-290.5 493.5,-290.5"/>
<text text-anchor="middle" x="548" y="-298.5" font-family="Helvetica,sans-Serif" font-size="10.00">gaia/webkit/Pattern.h</text>
</a>
</g>
<!-- Node1&#45;&gt;Node13 -->
<g id="edge34" class="edge"><title>Node1&#45;&gt;Node13</title>
<path fill="none" stroke="midnightblue" d="M548,-348.362C548,-340.922 548,-330.743 548,-321.728"/>
<polygon fill="midnightblue" stroke="midnightblue" points="551.5,-321.571 548,-311.571 544.5,-321.571 551.5,-321.571"/>
</g>
<!-- Node17 -->
<g id="node44" class="node"><title>Node17</title>
<polygon fill="white" stroke="#bfbfbf" points="744,-290.5 744,-311.5 792,-311.5 792,-290.5 744,-290.5"/>
<text text-anchor="middle" x="768" y="-298.5" font-family="Helvetica,sans-Serif" font-size="10.00">limits.h</text>
</g>
<!-- Node1&#45;&gt;Node17 -->
<g id="edge54" class="edge"><title>Node1&#45;&gt;Node17</title>
<path fill="none" stroke="midnightblue" d="M593.987,-348.465C629.847,-340.02 681.074,-327.452 734.308,-312.064"/>
<polygon fill="midnightblue" stroke="midnightblue" points="735.295,-315.422 743.916,-309.262 733.335,-308.702 735.295,-315.422"/>
</g>
<!-- Node3 -->
<g id="node5" class="node"><title>Node3</title>
<a xlink:href="../../d8/dae/_array_impl_8h.html" target="_top" xlink:title="gaia/base/ArrayImpl.h">
<polygon fill="white" stroke="black" points="142,-58.5 142,-79.5 254,-79.5 254,-58.5 142,-58.5"/>
<text text-anchor="middle" x="198" y="-66.5" font-family="Helvetica,sans-Serif" font-size="10.00">gaia/base/ArrayImpl.h</text>
</a>
</g>
<!-- Node2&#45;&gt;Node3 -->
<g id="edge4" class="edge"><title>Node2&#45;&gt;Node3</title>
<path fill="none" stroke="midnightblue" d="M232.297,-116.362C226.554,-108.431 218.557,-97.3885 211.73,-87.9606"/>
<polygon fill="midnightblue" stroke="midnightblue" points="214.355,-85.6173 205.655,-79.5707 208.685,-89.7229 214.355,-85.6173"/>
</g>
<!-- Node4 -->
<g id="node7" class="node"><title>Node4</title>
<polygon fill="white" stroke="#bfbfbf" points="267,-0.5 267,-21.5 335,-21.5 335,-0.5 267,-0.5"/>
<text text-anchor="middle" x="301" y="-8.5" font-family="Helvetica,sans-Serif" font-size="10.00">sys/types.h</text>
</g>
<!-- Node2&#45;&gt;Node4 -->
<g id="edge18" class="edge"><title>Node2&#45;&gt;Node4</title>
<path fill="none" stroke="midnightblue" d="M245.629,-116.295C255.843,-96.8724 277.57,-55.5561 290.564,-30.8462"/>
<polygon fill="midnightblue" stroke="midnightblue" points="293.828,-32.1591 295.384,-21.6792 287.632,-28.901 293.828,-32.1591"/>
</g>
<!-- Node5 -->
<g id="node9" class="node"><title>Node5</title>
<a xlink:href="../../d1/d86/_type_helpers_8h.html" target="_top" xlink:title="gaia/base/TypeHelpers.h">
<polygon fill="white" stroke="black" points="-0.5,-58.5 -0.5,-79.5 124.5,-79.5 124.5,-58.5 -0.5,-58.5"/>
<text text-anchor="middle" x="62" y="-66.5" font-family="Helvetica,sans-Serif" font-size="10.00">gaia/base/TypeHelpers.h</text>
</a>
</g>
<!-- Node2&#45;&gt;Node5 -->
<g id="edge8" class="edge"><title>Node2&#45;&gt;Node5</title>
<path fill="none" stroke="midnightblue" d="M207.766,-116.497C178.747,-107.041 135.91,-93.0829 104.176,-82.7428"/>
<polygon fill="midnightblue" stroke="midnightblue" points="104.887,-79.2934 94.2949,-79.5231 102.719,-85.949 104.887,-79.2934"/>
</g>
<!-- Node3&#45;&gt;Node4 -->
<g id="edge6" class="edge"><title>Node3&#45;&gt;Node4</title>
<path fill="none" stroke="midnightblue" d="M216.892,-58.3619C232.718,-49.4502 255.523,-36.6087 273.395,-26.5447"/>
<polygon fill="midnightblue" stroke="midnightblue" points="275.232,-29.5271 282.228,-21.5707 271.797,-23.4276 275.232,-29.5271"/>
</g>
<!-- Node5&#45;&gt;Node4 -->
<g id="edge14" class="edge"><title>Node5&#45;&gt;Node4</title>
<path fill="none" stroke="midnightblue" d="M105.281,-58.4966C148.245,-48.0701 213.77,-32.1689 256.988,-21.6808"/>
<polygon fill="midnightblue" stroke="midnightblue" points="258.036,-25.028 266.929,-19.2683 256.385,-18.2255 258.036,-25.028"/>
</g>
<!-- Node6 -->
<g id="node11" class="node"><title>Node6</title>
<polygon fill="white" stroke="#bfbfbf" points="655.5,-0.5 655.5,-21.5 704.5,-21.5 704.5,-0.5 655.5,-0.5"/>
<text text-anchor="middle" x="680" y="-8.5" font-family="Helvetica,sans-Serif" font-size="10.00">stdint.h</text>
</g>
<!-- Node5&#45;&gt;Node6 -->
<g id="edge10" class="edge"><title>Node5&#45;&gt;Node6</title>
<path fill="none" stroke="midnightblue" d="M124.688,-59.0512C127.495,-58.6803 130.275,-58.3277 133,-58 326.044,-34.7797 558.759,-18.7222 645.347,-13.1562"/>
<polygon fill="midnightblue" stroke="midnightblue" points="645.648,-16.6442 655.405,-12.5147 645.203,-9.65836 645.648,-16.6442"/>
</g>
<!-- Node7 -->
<g id="node13" class="node"><title>Node7</title>
<polygon fill="white" stroke="#bfbfbf" points="67.5,-0.5 67.5,-21.5 116.5,-21.5 116.5,-0.5 67.5,-0.5"/>
<text text-anchor="middle" x="92" y="-8.5" font-family="Helvetica,sans-Serif" font-size="10.00">string.h</text>
</g>
<!-- Node5&#45;&gt;Node7 -->
<g id="edge12" class="edge"><title>Node5&#45;&gt;Node7</title>
<path fill="none" stroke="midnightblue" d="M67.5025,-58.3619C71.5199,-50.5949 77.0814,-39.8426 81.8901,-30.5458"/>
<polygon fill="midnightblue" stroke="midnightblue" points="85.0469,-32.0608 86.5324,-21.5707 78.8294,-28.8448 85.0469,-32.0608"/>
</g>
<!-- Node8 -->
<g id="node16" class="node"><title>Node8</title>
<polygon fill="white" stroke="#bfbfbf" points="15.5,-0.5 15.5,-21.5 50.5,-21.5 50.5,-0.5 15.5,-0.5"/>
<text text-anchor="middle" x="33" y="-8.5" font-family="Helvetica,sans-Serif" font-size="10.00">new</text>
</g>
<!-- Node5&#45;&gt;Node8 -->
<g id="edge16" class="edge"><title>Node5&#45;&gt;Node8</title>
<path fill="none" stroke="midnightblue" d="M56.681,-58.3619C52.7974,-50.5949 47.4213,-39.8426 42.7729,-30.5458"/>
<polygon fill="midnightblue" stroke="midnightblue" points="45.888,-28.9497 38.2853,-21.5707 39.627,-32.0802 45.888,-28.9497"/>
</g>
<!-- Node9&#45;&gt;Node4 -->
<g id="edge30" class="edge"><title>Node9&#45;&gt;Node4</title>
<path fill="none" stroke="midnightblue" d="M385.595,-116.392C371.406,-107.926 352.38,-95.0205 339,-80 325.992,-65.3971 315.66,-45.5786 309.072,-30.9277"/>
<polygon fill="midnightblue" stroke="midnightblue" points="312.287,-29.5437 305.123,-21.738 305.856,-32.3075 312.287,-29.5437"/>
</g>
<!-- Node10 -->
<g id="node21" class="node"><title>Node10</title>
<a xlink:href="../../d7/d97/_char_sequence_8h.html" target="_top" xlink:title="gaia/base/CharSequence.h">
<polygon fill="white" stroke="black" points="518,-58.5 518,-79.5 652,-79.5 652,-58.5 518,-58.5"/>
<text text-anchor="middle" x="585" y="-66.5" font-family="Helvetica,sans-Serif" font-size="10.00">gaia/base/CharSequence.h</text>
</a>
</g>
<!-- Node9&#45;&gt;Node10 -->
<g id="edge22" class="edge"><title>Node9&#45;&gt;Node10</title>
<path fill="none" stroke="midnightblue" d="M437.597,-116.497C467.069,-107 510.635,-92.9619 542.766,-82.6087"/>
<polygon fill="midnightblue" stroke="midnightblue" points="543.898,-85.9214 552.342,-79.5231 541.751,-79.2587 543.898,-85.9214"/>
</g>
<!-- Node11 -->
<g id="node24" class="node"><title>Node11</title>
<a xlink:href="../../d6/d83/_hash_func_8h.html" target="_top" xlink:title="gaia/base/HashFunc.h">
<polygon fill="white" stroke="black" points="347.5,-58.5 347.5,-79.5 462.5,-79.5 462.5,-58.5 347.5,-58.5"/>
<text text-anchor="middle" x="405" y="-66.5" font-family="Helvetica,sans-Serif" font-size="10.00">gaia/base/HashFunc.h</text>
</a>
</g>
<!-- Node9&#45;&gt;Node11 -->
<g id="edge26" class="edge"><title>Node9&#45;&gt;Node11</title>
<path fill="none" stroke="midnightblue" d="M405,-116.362C405,-108.922 405,-98.7427 405,-89.7276"/>
<polygon fill="midnightblue" stroke="midnightblue" points="408.5,-89.5706 405,-79.5707 401.5,-89.5707 408.5,-89.5706"/>
</g>
<!-- Node10&#45;&gt;Node6 -->
<g id="edge24" class="edge"><title>Node10&#45;&gt;Node6</title>
<path fill="none" stroke="midnightblue" d="M602.424,-58.3619C616.887,-49.532 637.669,-36.844 654.084,-26.8224"/>
<polygon fill="midnightblue" stroke="midnightblue" points="655.975,-29.7688 662.686,-21.5707 652.327,-23.7943 655.975,-29.7688"/>
</g>
<!-- Node11&#45;&gt;Node4 -->
<g id="edge28" class="edge"><title>Node11&#45;&gt;Node4</title>
<path fill="none" stroke="midnightblue" d="M385.925,-58.3619C369.945,-49.4502 346.919,-36.6087 328.873,-26.5447"/>
<polygon fill="midnightblue" stroke="midnightblue" points="330.393,-23.3846 319.954,-21.5707 326.983,-29.4982 330.393,-23.3846"/>
</g>
<!-- Node13&#45;&gt;Node6 -->
<g id="edge36" class="edge"><title>Node13&#45;&gt;Node6</title>
<path fill="none" stroke="midnightblue" d="M580.044,-290.475C638.39,-270.333 756,-224.797 756,-185 756,-185 756,-185 756,-127 756,-86.5104 723.203,-49.1585 700.698,-28.2949"/>
<polygon fill="midnightblue" stroke="midnightblue" points="703.026,-25.681 693.238,-21.6247 698.36,-30.8993 703.026,-25.681"/>
</g>
<!-- Node14 -->
<g id="node33" class="node"><title>Node14</title>
<a xlink:href="../../da/d86/_matcher_8h.html" target="_top" xlink:title="gaia/webkit/Matcher.h">
<polygon fill="white" stroke="black" points="516.5,-232.5 516.5,-253.5 629.5,-253.5 629.5,-232.5 516.5,-232.5"/>
<text text-anchor="middle" x="573" y="-240.5" font-family="Helvetica,sans-Serif" font-size="10.00">gaia/webkit/Matcher.h</text>
</a>
</g>
<!-- Node13&#45;&gt;Node14 -->
<g id="edge38" class="edge"><title>Node13&#45;&gt;Node14</title>
<path fill="none" stroke="midnightblue" d="M552.585,-290.362C555.898,-282.677 560.47,-272.069 564.448,-262.84"/>
<polygon fill="midnightblue" stroke="midnightblue" points="567.699,-264.139 568.444,-253.571 561.271,-261.368 567.699,-264.139"/>
</g>
<!-- Node14&#45;&gt;Node6 -->
<g id="edge40" class="edge"><title>Node14&#45;&gt;Node6</title>
<path fill="none" stroke="midnightblue" d="M599.531,-232.437C615.793,-224.665 635.768,-212.564 648,-196 684.674,-146.337 684.597,-68.892 682.075,-31.9611"/>
<polygon fill="midnightblue" stroke="midnightblue" points="685.554,-31.5581 681.252,-21.876 678.577,-32.1276 685.554,-31.5581"/>
</g>
<!-- Node15 -->
<g id="node36" class="node"><title>Node15</title>
<a xlink:href="../../d3/dcc/_match_result_8h.html" target="_top" xlink:title="gaia/webkit/MatchResult.h">
<polygon fill="white" stroke="black" points="506.5,-174.5 506.5,-195.5 639.5,-195.5 639.5,-174.5 506.5,-174.5"/>
<text text-anchor="middle" x="573" y="-182.5" font-family="Helvetica,sans-Serif" font-size="10.00">gaia/webkit/MatchResult.h</text>
</a>
</g>
<!-- Node14&#45;&gt;Node15 -->
<g id="edge42" class="edge"><title>Node14&#45;&gt;Node15</title>
<path fill="none" stroke="midnightblue" d="M573,-232.362C573,-224.922 573,-214.743 573,-205.728"/>
<polygon fill="midnightblue" stroke="midnightblue" points="576.5,-205.571 573,-195.571 569.5,-205.571 576.5,-205.571"/>
</g>
<!-- Node15&#45;&gt;Node6 -->
<g id="edge44" class="edge"><title>Node15&#45;&gt;Node6</title>
<path fill="none" stroke="midnightblue" d="M584.835,-174.242C603.705,-156.448 640.559,-118.966 661,-80 668.925,-64.8933 673.814,-46.1437 676.645,-32.0039"/>
<polygon fill="midnightblue" stroke="midnightblue" points="680.153,-32.2739 678.492,-21.8101 673.265,-31.0257 680.153,-32.2739"/>
</g>
<!-- Node15&#45;&gt;Node9 -->
<g id="edge46" class="edge"><title>Node15&#45;&gt;Node9</title>
<path fill="none" stroke="midnightblue" d="M542.576,-174.497C515.306,-165.082 475.107,-151.204 445.196,-140.877"/>
<polygon fill="midnightblue" stroke="midnightblue" points="446.075,-137.478 435.481,-137.523 443.791,-144.095 446.075,-137.478"/>
</g>
<!-- Node15&#45;&gt;Node10 -->
<g id="edge48" class="edge"><title>Node15&#45;&gt;Node10</title>
<path fill="none" stroke="midnightblue" d="M580.284,-174.372C586.099,-165.201 593.786,-151.362 597,-138 600.898,-121.797 597.182,-103.165 592.888,-89.3497"/>
<polygon fill="midnightblue" stroke="midnightblue" points="596.178,-88.1554 589.608,-79.844 589.561,-90.4387 596.178,-88.1554"/>
</g>
<!-- Node16 -->
<g id="node41" class="node"><title>Node16</title>
<a xlink:href="../../db/d53/_string_array_8h.html" target="_top" xlink:title="gaia/base/StringArray.h">
<polygon fill="white" stroke="black" points="469.5,-116.5 469.5,-137.5 588.5,-137.5 588.5,-116.5 469.5,-116.5"/>
<text text-anchor="middle" x="529" y="-124.5" font-family="Helvetica,sans-Serif" font-size="10.00">gaia/base/StringArray.h</text>
</a>
</g>
<!-- Node15&#45;&gt;Node16 -->
<g id="edge50" class="edge"><title>Node15&#45;&gt;Node16</title>
<path fill="none" stroke="midnightblue" d="M564.93,-174.362C558.851,-166.35 550.363,-155.161 543.163,-145.67"/>
<polygon fill="midnightblue" stroke="midnightblue" points="545.851,-143.422 537.019,-137.571 540.275,-147.653 545.851,-143.422"/>
</g>
<!-- Node16&#45;&gt;Node4 -->
<g id="edge52" class="edge"><title>Node16&#45;&gt;Node4</title>
<path fill="none" stroke="midnightblue" d="M522.967,-116.391C513.748,-101.149 494.703,-73.2187 471,-58 432.656,-33.381 381.447,-21.5024 345.286,-15.8711"/>
<polygon fill="midnightblue" stroke="midnightblue" points="345.444,-12.3573 335.044,-14.3798 344.436,-19.2843 345.444,-12.3573"/>
</g>
</g>
</svg>
