<?xml version="1.0" encoding="UTF-8" standalone="no"?>
<!DOCTYPE svg PUBLIC "-//W3C//DTD SVG 1.1//EN"
 "http://www.w3.org/Graphics/SVG/1.1/DTD/svg11.dtd">
<!-- Generated by graphviz version 2.26.3 (20100126.1600)
 -->
<!-- Title: G Pages: 1 -->
<svg width="348pt" height="146pt"
 viewBox="0.00 0.00 348.00 146.00" xmlns="http://www.w3.org/2000/svg" xmlns:xlink="http://www.w3.org/1999/xlink">
<g id="graph1" class="graph" transform="scale(1 1) rotate(0) translate(4 142)">
<title>G</title>
<polygon fill="white" stroke="white" points="-4,5 -4,-142 345,-142 345,5 -4,5"/>
<!-- Node1 -->
<g id="node1" class="node"><title>Node1</title>
<polygon fill="#bfbfbf" stroke="black" points="0,-116.5 0,-137.5 340,-137.5 340,-116.5 0,-116.5"/>
<text text-anchor="middle" x="170" y="-124.5" font-family="Helvetica,sans-Serif" font-size="10.00">/home/vilon_tao/gaia/sdk/include/gaia/ui/preference/TwoStatePreference.h</text>
</g>
<!-- Node2 -->
<g id="node3" class="node"><title>Node2</title>
<a xlink:href="../../d4/dd7/_preference_8h.html" target="_top" xlink:title="gaia/ui/preference/Preference.h">
<polygon fill="white" stroke="black" points="42,-58.5 42,-79.5 194,-79.5 194,-58.5 42,-58.5"/>
<text text-anchor="middle" x="118" y="-66.5" font-family="Helvetica,sans-Serif" font-size="10.00">gaia/ui/preference/Preference.h</text>
</a>
</g>
<!-- Node1&#45;&gt;Node2 -->
<g id="edge2" class="edge"><title>Node1&#45;&gt;Node2</title>
<path fill="none" stroke="midnightblue" d="M160.462,-116.362C153.132,-108.186 142.837,-96.7025 134.219,-87.0907"/>
<polygon fill="midnightblue" stroke="midnightblue" points="136.759,-84.68 127.477,-79.5707 131.547,-89.3528 136.759,-84.68"/>
</g>
<!-- Node4 -->
<g id="node7" class="node"><title>Node4</title>
<a xlink:href="../../d1/dd0/gmacros_8h.html" target="_top" xlink:title="gaia/base/gmacros.h">
<polygon fill="white" stroke="black" points="163.5,-0.5 163.5,-21.5 270.5,-21.5 270.5,-0.5 163.5,-0.5"/>
<text text-anchor="middle" x="217" y="-8.5" font-family="Helvetica,sans-Serif" font-size="10.00">gaia/base/gmacros.h</text>
</a>
</g>
<!-- Node1&#45;&gt;Node4 -->
<g id="edge8" class="edge"><title>Node1&#45;&gt;Node4</title>
<path fill="none" stroke="midnightblue" d="M179.551,-116.201C187.051,-107.146 197.17,-93.5554 203,-80 209.63,-64.5832 213.176,-45.8562 215.038,-31.8039"/>
<polygon fill="midnightblue" stroke="midnightblue" points="218.536,-32.0227 216.197,-21.6891 211.581,-31.2255 218.536,-32.0227"/>
</g>
<!-- Node3 -->
<g id="node5" class="node"><title>Node3</title>
<polygon fill="white" stroke="#bfbfbf" points="93.5,-0.5 93.5,-21.5 142.5,-21.5 142.5,-0.5 93.5,-0.5"/>
<text text-anchor="middle" x="118" y="-8.5" font-family="Helvetica,sans-Serif" font-size="10.00">stdint.h</text>
</g>
<!-- Node2&#45;&gt;Node3 -->
<g id="edge4" class="edge"><title>Node2&#45;&gt;Node3</title>
<path fill="none" stroke="midnightblue" d="M118,-58.3619C118,-50.9219 118,-40.7427 118,-31.7276"/>
<polygon fill="midnightblue" stroke="midnightblue" points="121.5,-31.5706 118,-21.5707 114.5,-31.5707 121.5,-31.5706"/>
</g>
<!-- Node2&#45;&gt;Node4 -->
<g id="edge6" class="edge"><title>Node2&#45;&gt;Node4</title>
<path fill="none" stroke="midnightblue" d="M136.158,-58.3619C151.23,-49.532 172.887,-36.844 189.993,-26.8224"/>
<polygon fill="midnightblue" stroke="midnightblue" points="192.098,-29.6456 198.957,-21.5707 188.559,-23.6058 192.098,-29.6456"/>
</g>
</g>
</svg>
