<?xml version="1.0" encoding="UTF-8" standalone="no"?>
<!DOCTYPE svg PUBLIC "-//W3C//DTD SVG 1.1//EN"
 "http://www.w3.org/Graphics/SVG/1.1/DTD/svg11.dtd">
<!-- Generated by graphviz version 2.26.3 (20100126.1600)
 -->
<!-- Title: G Pages: 1 -->
<svg width="624pt" height="262pt"
 viewBox="0.00 0.00 624.45 262.00" xmlns="http://www.w3.org/2000/svg" xmlns:xlink="http://www.w3.org/1999/xlink">
<g id="graph1" class="graph" transform="scale(1 1) rotate(0) translate(4 258)">
<title>G</title>
<polygon fill="white" stroke="white" points="-4,5 -4,-258 621.45,-258 621.45,5 -4,5"/>
<!-- Node1 -->
<g id="node1" class="node"><title>Node1</title>
<polygon fill="#bfbfbf" stroke="black" points="174.174,-232.5 174.174,-253.5 431.174,-253.5 431.174,-232.5 174.174,-232.5"/>
<text text-anchor="middle" x="302.674" y="-240.5" font-family="Helvetica,sans-Serif" font-size="10.00">/home/vilon_tao/gaia/sdk/include/gaia/system/Sensor.h</text>
</g>
<!-- Node2 -->
<g id="node3" class="node"><title>Node2</title>
<polygon fill="white" stroke="#bfbfbf" points="14.1741,-0.5 14.1741,-21.5 63.1741,-21.5 63.1741,-0.5 14.1741,-0.5"/>
<text text-anchor="middle" x="38.6741" y="-8.5" font-family="Helvetica,sans-Serif" font-size="10.00">stdint.h</text>
</g>
<!-- Node1&#45;&gt;Node2 -->
<g id="edge2" class="edge"><title>Node1&#45;&gt;Node2</title>
<path fill="none" stroke="midnightblue" d="M270.507,-232.383C223.506,-216.073 134.307,-182.063 66.6741,-138 34.5108,-117.045 18.2311,-115.094 2.67408,-80 -5.19907,-62.2397 7.12767,-42.6637 19.4475,-28.9139"/>
<polygon fill="midnightblue" stroke="midnightblue" points="22.1267,-31.1776 26.5477,-21.5492 17.0873,-26.3192 22.1267,-31.1776"/>
</g>
<!-- Node3 -->
<g id="node5" class="node"><title>Node3</title>
<a xlink:href="../../d1/dd0/gmacros_8h.html" target="_top" xlink:title="gaia/base/gmacros.h">
<polygon fill="white" stroke="black" points="425.174,-116.5 425.174,-137.5 532.174,-137.5 532.174,-116.5 425.174,-116.5"/>
<text text-anchor="middle" x="478.674" y="-124.5" font-family="Helvetica,sans-Serif" font-size="10.00">gaia/base/gmacros.h</text>
</a>
</g>
<!-- Node1&#45;&gt;Node3 -->
<g id="edge4" class="edge"><title>Node1&#45;&gt;Node3</title>
<path fill="none" stroke="midnightblue" d="M361.157,-232.465C387.062,-225.507 416.597,-214.187 438.674,-196 454.217,-183.196 465.01,-162.67 471.433,-147.329"/>
<polygon fill="midnightblue" stroke="midnightblue" points="474.818,-148.283 475.187,-137.695 468.295,-145.742 474.818,-148.283"/>
</g>
<!-- Node4 -->
<g id="node7" class="node"><title>Node4</title>
<a xlink:href="../../db/db5/_string_8h.html" target="_top" xlink:title="gaia/base/String.h">
<polygon fill="white" stroke="black" points="197.174,-116.5 197.174,-137.5 292.174,-137.5 292.174,-116.5 197.174,-116.5"/>
<text text-anchor="middle" x="244.674" y="-124.5" font-family="Helvetica,sans-Serif" font-size="10.00">gaia/base/String.h</text>
</a>
</g>
<!-- Node1&#45;&gt;Node4 -->
<g id="edge6" class="edge"><title>Node1&#45;&gt;Node4</title>
<path fill="none" stroke="midnightblue" d="M294.931,-232.134C288.492,-222.82 279.338,-208.901 272.674,-196 264.447,-180.074 256.918,-161.158 251.744,-147.163"/>
<polygon fill="midnightblue" stroke="midnightblue" points="254.962,-145.769 248.274,-137.551 248.378,-148.146 254.962,-145.769"/>
</g>
<!-- Node8 -->
<g id="node17" class="node"><title>Node8</title>
<a xlink:href="../../df/d0e/_sensor_manager_8h.html" target="_top" xlink:title="gaia/system/SensorManager.h">
<polygon fill="white" stroke="black" points="281.174,-174.5 281.174,-195.5 430.174,-195.5 430.174,-174.5 281.174,-174.5"/>
<text text-anchor="middle" x="355.674" y="-182.5" font-family="Helvetica,sans-Serif" font-size="10.00">gaia/system/SensorManager.h</text>
</a>
</g>
<!-- Node1&#45;&gt;Node8 -->
<g id="edge18" class="edge"><title>Node1&#45;&gt;Node8</title>
<path fill="none" stroke="midnightblue" d="M312.395,-232.362C319.866,-224.186 330.36,-212.702 339.143,-203.091"/>
<polygon fill="midnightblue" stroke="midnightblue" points="341.853,-205.314 346.015,-195.571 336.685,-200.592 341.853,-205.314"/>
</g>
<!-- Node5 -->
<g id="node9" class="node"><title>Node5</title>
<a xlink:href="../../d7/d97/_char_sequence_8h.html" target="_top" xlink:title="gaia/base/CharSequence.h">
<polygon fill="white" stroke="black" points="19.6741,-58.5 19.6741,-79.5 153.674,-79.5 153.674,-58.5 19.6741,-58.5"/>
<text text-anchor="middle" x="86.6741" y="-66.5" font-family="Helvetica,sans-Serif" font-size="10.00">gaia/base/CharSequence.h</text>
</a>
</g>
<!-- Node4&#45;&gt;Node5 -->
<g id="edge8" class="edge"><title>Node4&#45;&gt;Node5</title>
<path fill="none" stroke="midnightblue" d="M216.061,-116.497C190.526,-107.123 152.937,-93.3242 124.845,-83.0122"/>
<polygon fill="midnightblue" stroke="midnightblue" points="125.934,-79.6835 115.34,-79.5231 123.522,-86.2548 125.934,-79.6835"/>
</g>
<!-- Node6 -->
<g id="node12" class="node"><title>Node6</title>
<a xlink:href="../../d6/d83/_hash_func_8h.html" target="_top" xlink:title="gaia/base/HashFunc.h">
<polygon fill="white" stroke="black" points="313.174,-58.5 313.174,-79.5 428.174,-79.5 428.174,-58.5 313.174,-58.5"/>
<text text-anchor="middle" x="370.674" y="-66.5" font-family="Helvetica,sans-Serif" font-size="10.00">gaia/base/HashFunc.h</text>
</a>
</g>
<!-- Node4&#45;&gt;Node6 -->
<g id="edge12" class="edge"><title>Node4&#45;&gt;Node6</title>
<path fill="none" stroke="midnightblue" d="M267.492,-116.497C287.26,-107.397 316.087,-94.1273 338.25,-83.9253"/>
<polygon fill="midnightblue" stroke="midnightblue" points="339.98,-86.982 347.6,-79.6212 337.053,-80.6234 339.98,-86.982"/>
</g>
<!-- Node7 -->
<g id="node14" class="node"><title>Node7</title>
<polygon fill="white" stroke="#bfbfbf" points="421.674,-0.5 421.674,-21.5 489.674,-21.5 489.674,-0.5 421.674,-0.5"/>
<text text-anchor="middle" x="455.674" y="-8.5" font-family="Helvetica,sans-Serif" font-size="10.00">sys/types.h</text>
</g>
<!-- Node4&#45;&gt;Node7 -->
<g id="edge16" class="edge"><title>Node4&#45;&gt;Node7</title>
<path fill="none" stroke="midnightblue" d="M292.379,-116.587C347.514,-104.365 431.413,-85.1121 436.674,-80 449.581,-67.4578 453.965,-47.0196 455.338,-31.6356"/>
<polygon fill="midnightblue" stroke="midnightblue" points="458.841,-31.6863 455.886,-21.512 451.851,-31.3085 458.841,-31.6863"/>
</g>
<!-- Node5&#45;&gt;Node2 -->
<g id="edge10" class="edge"><title>Node5&#45;&gt;Node2</title>
<path fill="none" stroke="midnightblue" d="M77.8701,-58.3619C71.1716,-50.2678 61.7901,-38.9318 53.8848,-29.3796"/>
<polygon fill="midnightblue" stroke="midnightblue" points="56.4943,-27.0431 47.4222,-21.5707 51.1015,-31.5061 56.4943,-27.0431"/>
</g>
<!-- Node6&#45;&gt;Node7 -->
<g id="edge14" class="edge"><title>Node6&#45;&gt;Node7</title>
<path fill="none" stroke="midnightblue" d="M386.264,-58.3619C398.965,-49.6955 417.113,-37.3126 431.666,-27.3819"/>
<polygon fill="midnightblue" stroke="midnightblue" points="433.895,-30.0982 440.183,-21.5707 429.95,-24.316 433.895,-30.0982"/>
</g>
<!-- Node8&#45;&gt;Node2 -->
<g id="edge20" class="edge"><title>Node8&#45;&gt;Node2</title>
<path fill="none" stroke="midnightblue" d="M289.368,-174.457C198.715,-158.521 43.5455,-125.283 10.6741,-80 -0.499281,-64.6077 10.4182,-44.1176 21.7255,-29.4731"/>
<polygon fill="midnightblue" stroke="midnightblue" points="24.5621,-31.536 28.264,-21.6089 19.1795,-27.0607 24.5621,-31.536"/>
</g>
<!-- Node8&#45;&gt;Node3 -->
<g id="edge22" class="edge"><title>Node8&#45;&gt;Node3</title>
<path fill="none" stroke="midnightblue" d="M377.948,-174.497C397.246,-165.397 425.387,-152.127 447.022,-141.925"/>
<polygon fill="midnightblue" stroke="midnightblue" points="448.598,-145.052 456.15,-137.621 445.612,-138.721 448.598,-145.052"/>
</g>
<!-- Node9 -->
<g id="node21" class="node"><title>Node9</title>
<a xlink:href="../../d4/d7f/_vector_8h.html" target="_top" xlink:title="gaia/base/Vector.h">
<polygon fill="white" stroke="black" points="309.674,-116.5 309.674,-137.5 407.674,-137.5 407.674,-116.5 309.674,-116.5"/>
<text text-anchor="middle" x="358.674" y="-124.5" font-family="Helvetica,sans-Serif" font-size="10.00">gaia/base/Vector.h</text>
</a>
</g>
<!-- Node8&#45;&gt;Node9 -->
<g id="edge24" class="edge"><title>Node8&#45;&gt;Node9</title>
<path fill="none" stroke="midnightblue" d="M356.224,-174.362C356.609,-166.922 357.136,-156.743 357.602,-147.728"/>
<polygon fill="midnightblue" stroke="midnightblue" points="361.106,-147.738 358.127,-137.571 354.115,-147.376 361.106,-147.738"/>
</g>
<!-- Node9&#45;&gt;Node7 -->
<g id="edge40" class="edge"><title>Node9&#45;&gt;Node7</title>
<path fill="none" stroke="midnightblue" d="M407.72,-117.691C410.75,-117.118 413.753,-116.551 416.674,-116 459.332,-107.956 580.951,-113.405 608.674,-80 641.609,-40.3156 555.878,-22.5233 499.817,-15.3206"/>
<polygon fill="midnightblue" stroke="midnightblue" points="500.079,-11.8268 489.73,-14.0961 499.235,-18.7758 500.079,-11.8268"/>
</g>
<!-- Node10 -->
<g id="node23" class="node"><title>Node10</title>
<a xlink:href="../../d1/d86/_type_helpers_8h.html" target="_top" xlink:title="gaia/base/TypeHelpers.h">
<polygon fill="white" stroke="black" points="171.174,-58.5 171.174,-79.5 296.174,-79.5 296.174,-58.5 171.174,-58.5"/>
<text text-anchor="middle" x="233.674" y="-66.5" font-family="Helvetica,sans-Serif" font-size="10.00">gaia/base/TypeHelpers.h</text>
</a>
</g>
<!-- Node9&#45;&gt;Node10 -->
<g id="edge26" class="edge"><title>Node9&#45;&gt;Node10</title>
<path fill="none" stroke="midnightblue" d="M336.038,-116.497C316.426,-107.397 287.828,-94.1273 265.841,-83.9253"/>
<polygon fill="midnightblue" stroke="midnightblue" points="267.109,-80.6554 256.565,-79.6212 264.163,-87.0051 267.109,-80.6554"/>
</g>
<!-- Node13 -->
<g id="node31" class="node"><title>Node13</title>
<a xlink:href="../../dc/da9/_vector_impl_8h.html" target="_top" xlink:title="gaia/base/VectorImpl.h">
<polygon fill="white" stroke="black" points="483.174,-58.5 483.174,-79.5 600.174,-79.5 600.174,-58.5 483.174,-58.5"/>
<text text-anchor="middle" x="541.674" y="-66.5" font-family="Helvetica,sans-Serif" font-size="10.00">gaia/base/VectorImpl.h</text>
</a>
</g>
<!-- Node9&#45;&gt;Node13 -->
<g id="edge36" class="edge"><title>Node9&#45;&gt;Node13</title>
<path fill="none" stroke="midnightblue" d="M391.814,-116.497C421.777,-107 466.07,-92.9619 498.736,-82.6087"/>
<polygon fill="midnightblue" stroke="midnightblue" points="499.997,-85.8809 508.472,-79.5231 497.882,-79.208 499.997,-85.8809"/>
</g>
<!-- Node10&#45;&gt;Node2 -->
<g id="edge28" class="edge"><title>Node10&#45;&gt;Node2</title>
<path fill="none" stroke="midnightblue" d="M198.361,-58.4966C162.799,-47.9193 108.294,-31.7076 73.0647,-21.229"/>
<polygon fill="midnightblue" stroke="midnightblue" points="73.8149,-17.8007 63.2321,-18.3044 71.8192,-24.5102 73.8149,-17.8007"/>
</g>
<!-- Node10&#45;&gt;Node7 -->
<g id="edge32" class="edge"><title>Node10&#45;&gt;Node7</title>
<path fill="none" stroke="midnightblue" d="M273.877,-58.4966C312.81,-48.3248 371.688,-32.9423 411.815,-22.4588"/>
<polygon fill="midnightblue" stroke="midnightblue" points="412.798,-25.8194 421.589,-19.9052 411.029,-19.0467 412.798,-25.8194"/>
</g>
<!-- Node11 -->
<g id="node26" class="node"><title>Node11</title>
<polygon fill="white" stroke="#bfbfbf" points="179.174,-0.5 179.174,-21.5 228.174,-21.5 228.174,-0.5 179.174,-0.5"/>
<text text-anchor="middle" x="203.674" y="-8.5" font-family="Helvetica,sans-Serif" font-size="10.00">string.h</text>
</g>
<!-- Node10&#45;&gt;Node11 -->
<g id="edge30" class="edge"><title>Node10&#45;&gt;Node11</title>
<path fill="none" stroke="midnightblue" d="M228.172,-58.3619C224.154,-50.5949 218.593,-39.8426 213.784,-30.5458"/>
<polygon fill="midnightblue" stroke="midnightblue" points="216.845,-28.8448 209.142,-21.5707 210.627,-32.0608 216.845,-28.8448"/>
</g>
<!-- Node12 -->
<g id="node29" class="node"><title>Node12</title>
<polygon fill="white" stroke="#bfbfbf" points="245.174,-0.5 245.174,-21.5 280.174,-21.5 280.174,-0.5 245.174,-0.5"/>
<text text-anchor="middle" x="262.674" y="-8.5" font-family="Helvetica,sans-Serif" font-size="10.00">new</text>
</g>
<!-- Node10&#45;&gt;Node12 -->
<g id="edge34" class="edge"><title>Node10&#45;&gt;Node12</title>
<path fill="none" stroke="midnightblue" d="M238.993,-58.3619C242.877,-50.5949 248.253,-39.8426 252.901,-30.5458"/>
<polygon fill="midnightblue" stroke="midnightblue" points="256.047,-32.0802 257.389,-21.5707 249.786,-28.9497 256.047,-32.0802"/>
</g>
<!-- Node13&#45;&gt;Node7 -->
<g id="edge38" class="edge"><title>Node13&#45;&gt;Node7</title>
<path fill="none" stroke="midnightblue" d="M525.9,-58.3619C513.05,-49.6955 494.689,-37.3126 479.964,-27.3819"/>
<polygon fill="midnightblue" stroke="midnightblue" points="481.596,-24.2604 471.348,-21.5707 477.682,-30.0639 481.596,-24.2604"/>
</g>
</g>
</svg>
