<?xml version="1.0" encoding="UTF-8" standalone="no"?>
<!DOCTYPE svg PUBLIC "-//W3C//DTD SVG 1.1//EN"
 "http://www.w3.org/Graphics/SVG/1.1/DTD/svg11.dtd">
<!-- Generated by graphviz version 2.26.3 (20100126.1600)
 -->
<!-- Title: G Pages: 1 -->
<svg width="656pt" height="378pt"
 viewBox="0.00 0.00 656.00 378.00" xmlns="http://www.w3.org/2000/svg" xmlns:xlink="http://www.w3.org/1999/xlink">
<g id="graph1" class="graph" transform="scale(1 1) rotate(0) translate(4 374)">
<title>G</title>
<polygon fill="white" stroke="white" points="-4,5 -4,-374 653,-374 653,5 -4,5"/>
<!-- Node1 -->
<g id="node1" class="node"><title>Node1</title>
<polygon fill="#bfbfbf" stroke="black" points="-0.5,-348.5 -0.5,-369.5 298.5,-369.5 298.5,-348.5 -0.5,-348.5"/>
<text text-anchor="middle" x="149" y="-356.5" font-family="Helvetica,sans-Serif" font-size="10.00">/home/vilon_tao/gaia/sdk/include/gaia/ui/ExpandableListWidget.h</text>
</g>
<!-- Node2 -->
<g id="node3" class="node"><title>Node2</title>
<polygon fill="white" stroke="#bfbfbf" points="190,-174.5 190,-195.5 238,-195.5 238,-174.5 190,-174.5"/>
<text text-anchor="middle" x="214" y="-182.5" font-family="Helvetica,sans-Serif" font-size="10.00">limits.h</text>
</g>
<!-- Node1&#45;&gt;Node2 -->
<g id="edge2" class="edge"><title>Node1&#45;&gt;Node2</title>
<path fill="none" stroke="midnightblue" d="M170.49,-348.436C184.141,-340.465 200.744,-328.139 209,-312 226.41,-277.965 222.545,-231.831 218.228,-205.562"/>
<polygon fill="midnightblue" stroke="midnightblue" points="221.65,-204.822 216.41,-195.613 214.764,-206.079 221.65,-204.822"/>
</g>
<!-- Node3 -->
<g id="node5" class="node"><title>Node3</title>
<a xlink:href="../../da/d6c/_list_widget_8h.html" target="_top" xlink:title="gaia/ui/ListWidget.h">
<polygon fill="white" stroke="black" points="97.5,-290.5 97.5,-311.5 200.5,-311.5 200.5,-290.5 97.5,-290.5"/>
<text text-anchor="middle" x="149" y="-298.5" font-family="Helvetica,sans-Serif" font-size="10.00">gaia/ui/ListWidget.h</text>
</a>
</g>
<!-- Node1&#45;&gt;Node3 -->
<g id="edge4" class="edge"><title>Node1&#45;&gt;Node3</title>
<path fill="none" stroke="midnightblue" d="M149,-348.362C149,-340.922 149,-330.743 149,-321.728"/>
<polygon fill="midnightblue" stroke="midnightblue" points="152.5,-321.571 149,-311.571 145.5,-321.571 152.5,-321.571"/>
</g>
<!-- Node4 -->
<g id="node8" class="node"><title>Node4</title>
<a xlink:href="../../d1/dd0/gmacros_8h.html" target="_top" xlink:title="gaia/base/gmacros.h">
<polygon fill="white" stroke="black" points="95.5,-58.5 95.5,-79.5 202.5,-79.5 202.5,-58.5 95.5,-58.5"/>
<text text-anchor="middle" x="149" y="-66.5" font-family="Helvetica,sans-Serif" font-size="10.00">gaia/base/gmacros.h</text>
</a>
</g>
<!-- Node1&#45;&gt;Node4 -->
<g id="edge34" class="edge"><title>Node1&#45;&gt;Node4</title>
<path fill="none" stroke="midnightblue" d="M129.815,-348.469C116.493,-340.21 99.3414,-327.529 89,-312 71.3693,-285.525 70,-274.808 70,-243 70,-243 70,-243 70,-185 70,-144.024 104.092,-106.825 127.485,-86.1231"/>
<polygon fill="midnightblue" stroke="midnightblue" points="129.902,-88.6618 135.239,-79.5096 125.359,-83.3357 129.902,-88.6618"/>
</g>
<!-- Node3&#45;&gt;Node2 -->
<g id="edge6" class="edge"><title>Node3&#45;&gt;Node2</title>
<path fill="none" stroke="midnightblue" d="M154.999,-290.295C165.93,-270.786 189.239,-229.188 203.063,-204.518"/>
<polygon fill="midnightblue" stroke="midnightblue" points="206.181,-206.114 208.016,-195.679 200.074,-202.692 206.181,-206.114"/>
</g>
<!-- Node3&#45;&gt;Node4 -->
<g id="edge8" class="edge"><title>Node3&#45;&gt;Node4</title>
<path fill="none" stroke="midnightblue" d="M149,-290.429C149,-254.648 149,-137.663 149,-89.7481"/>
<polygon fill="midnightblue" stroke="midnightblue" points="152.5,-89.6335 149,-79.6335 145.5,-89.6335 152.5,-89.6335"/>
</g>
<!-- Node5 -->
<g id="node10" class="node"><title>Node5</title>
<a xlink:href="../../d1/d14/_abs_list_widget_8h.html" target="_top" xlink:title="gaia/ui/AbsListWidget.h">
<polygon fill="white" stroke="black" points="256,-232.5 256,-253.5 376,-253.5 376,-232.5 256,-232.5"/>
<text text-anchor="middle" x="316" y="-240.5" font-family="Helvetica,sans-Serif" font-size="10.00">gaia/ui/AbsListWidget.h</text>
</a>
</g>
<!-- Node3&#45;&gt;Node5 -->
<g id="edge10" class="edge"><title>Node3&#45;&gt;Node5</title>
<path fill="none" stroke="midnightblue" d="M179.242,-290.497C206.35,-281.082 246.31,-267.204 276.043,-256.877"/>
<polygon fill="midnightblue" stroke="midnightblue" points="277.403,-260.11 285.701,-253.523 275.106,-253.498 277.403,-260.11"/>
</g>
<!-- Node5&#45;&gt;Node2 -->
<g id="edge32" class="edge"><title>Node5&#45;&gt;Node2</title>
<path fill="none" stroke="midnightblue" d="M297.292,-232.362C281.619,-223.45 259.036,-210.609 241.337,-200.545"/>
<polygon fill="midnightblue" stroke="midnightblue" points="243.013,-197.471 232.59,-195.571 239.553,-203.556 243.013,-197.471"/>
</g>
<!-- Node5&#45;&gt;Node4 -->
<g id="edge30" class="edge"><title>Node5&#45;&gt;Node4</title>
<path fill="none" stroke="midnightblue" d="M305.805,-232.377C278.153,-203.567 201.478,-123.678 166.636,-87.3755"/>
<polygon fill="midnightblue" stroke="midnightblue" points="168.938,-84.7189 159.488,-79.9277 163.887,-89.566 168.938,-84.7189"/>
</g>
<!-- Node6 -->
<g id="node12" class="node"><title>Node6</title>
<a xlink:href="../../d6/d52/_widget_controller_8h.html" target="_top" xlink:title="gaia/core/vision/WidgetController.h">
<polygon fill="white" stroke="black" points="293.5,-174.5 293.5,-195.5 462.5,-195.5 462.5,-174.5 293.5,-174.5"/>
<text text-anchor="middle" x="378" y="-182.5" font-family="Helvetica,sans-Serif" font-size="10.00">gaia/core/vision/WidgetController.h</text>
</a>
</g>
<!-- Node5&#45;&gt;Node6 -->
<g id="edge12" class="edge"><title>Node5&#45;&gt;Node6</title>
<path fill="none" stroke="midnightblue" d="M327.372,-232.362C336.286,-224.023 348.879,-212.242 359.276,-202.516"/>
<polygon fill="midnightblue" stroke="midnightblue" points="361.789,-204.958 366.7,-195.571 357.007,-199.846 361.789,-204.958"/>
</g>
<!-- Node7 -->
<g id="node14" class="node"><title>Node7</title>
<a xlink:href="../../d3/dd0/_event_control_8h.html" target="_top" xlink:title="gaia/core/event/EventControl.h">
<polygon fill="white" stroke="black" points="496,-116.5 496,-137.5 648,-137.5 648,-116.5 496,-116.5"/>
<text text-anchor="middle" x="572" y="-124.5" font-family="Helvetica,sans-Serif" font-size="10.00">gaia/core/event/EventControl.h</text>
</a>
</g>
<!-- Node6&#45;&gt;Node7 -->
<g id="edge14" class="edge"><title>Node6&#45;&gt;Node7</title>
<path fill="none" stroke="midnightblue" d="M413.132,-174.497C445.033,-164.959 492.257,-150.841 526.928,-140.475"/>
<polygon fill="midnightblue" stroke="midnightblue" points="528.224,-143.741 536.802,-137.523 526.219,-137.034 528.224,-143.741"/>
</g>
<!-- Node9 -->
<g id="node18" class="node"><title>Node9</title>
<a xlink:href="../../d4/d75/_widget_8h.html" target="_top" xlink:title="gaia/core/vision/Widget.h">
<polygon fill="white" stroke="black" points="303.5,-116.5 303.5,-137.5 430.5,-137.5 430.5,-116.5 303.5,-116.5"/>
<text text-anchor="middle" x="367" y="-124.5" font-family="Helvetica,sans-Serif" font-size="10.00">gaia/core/vision/Widget.h</text>
</a>
</g>
<!-- Node6&#45;&gt;Node9 -->
<g id="edge18" class="edge"><title>Node6&#45;&gt;Node9</title>
<path fill="none" stroke="midnightblue" d="M375.982,-174.362C374.556,-166.84 372.598,-156.519 370.875,-147.431"/>
<polygon fill="midnightblue" stroke="midnightblue" points="374.307,-146.743 369.005,-137.571 367.429,-148.048 374.307,-146.743"/>
</g>
<!-- Node8 -->
<g id="node16" class="node"><title>Node8</title>
<polygon fill="white" stroke="#bfbfbf" points="511,-0.5 511,-21.5 579,-21.5 579,-0.5 511,-0.5"/>
<text text-anchor="middle" x="545" y="-8.5" font-family="Helvetica,sans-Serif" font-size="10.00">sys/types.h</text>
</g>
<!-- Node7&#45;&gt;Node8 -->
<g id="edge16" class="edge"><title>Node7&#45;&gt;Node8</title>
<path fill="none" stroke="midnightblue" d="M578.543,-116.442C586.199,-102.667 596.887,-77.9656 589,-58 584.472,-46.5388 575.684,-36.2323 567.144,-28.2117"/>
<polygon fill="midnightblue" stroke="midnightblue" points="569.33,-25.474 559.501,-21.5208 564.72,-30.7411 569.33,-25.474"/>
</g>
<!-- Node9&#45;&gt;Node4 -->
<g id="edge20" class="edge"><title>Node9&#45;&gt;Node4</title>
<path fill="none" stroke="midnightblue" d="M327.522,-116.497C291.367,-106.877 237.696,-92.5981 198.647,-82.209"/>
<polygon fill="midnightblue" stroke="midnightblue" points="199.116,-78.7119 188.552,-79.5231 197.316,-85.4766 199.116,-78.7119"/>
</g>
<!-- Node10 -->
<g id="node21" class="node"><title>Node10</title>
<a xlink:href="../../d0/d92/_property_animatable_8h.html" target="_top" xlink:title="gaia/core/animator/PropertyAnimatable.h">
<polygon fill="white" stroke="black" points="386,-58.5 386,-79.5 580,-79.5 580,-58.5 386,-58.5"/>
<text text-anchor="middle" x="483" y="-66.5" font-family="Helvetica,sans-Serif" font-size="10.00">gaia/core/animator/PropertyAnimatable.h</text>
</a>
</g>
<!-- Node9&#45;&gt;Node10 -->
<g id="edge22" class="edge"><title>Node9&#45;&gt;Node10</title>
<path fill="none" stroke="midnightblue" d="M388.007,-116.497C406.043,-107.479 432.27,-94.3649 452.599,-84.2006"/>
<polygon fill="midnightblue" stroke="midnightblue" points="454.379,-87.2239 461.758,-79.6212 451.248,-80.9629 454.379,-87.2239"/>
</g>
<!-- Node11 -->
<g id="node24" class="node"><title>Node11</title>
<a xlink:href="../../d8/d50/_widget_core_8h.html" target="_top" xlink:title="gaia/core/vision/WidgetCore.h">
<polygon fill="white" stroke="black" points="220,-58.5 220,-79.5 368,-79.5 368,-58.5 220,-58.5"/>
<text text-anchor="middle" x="294" y="-66.5" font-family="Helvetica,sans-Serif" font-size="10.00">gaia/core/vision/WidgetCore.h</text>
</a>
</g>
<!-- Node9&#45;&gt;Node11 -->
<g id="edge26" class="edge"><title>Node9&#45;&gt;Node11</title>
<path fill="none" stroke="midnightblue" d="M353.611,-116.362C342.909,-107.859 327.704,-95.7785 315.329,-85.9466"/>
<polygon fill="midnightblue" stroke="midnightblue" points="317.311,-83.0511 307.304,-79.5707 312.957,-88.5318 317.311,-83.0511"/>
</g>
<!-- Node10&#45;&gt;Node8 -->
<g id="edge24" class="edge"><title>Node10&#45;&gt;Node8</title>
<path fill="none" stroke="midnightblue" d="M494.372,-58.3619C503.286,-50.0226 515.879,-38.2418 526.276,-28.5162"/>
<polygon fill="midnightblue" stroke="midnightblue" points="528.789,-30.9582 533.7,-21.5707 524.007,-25.8463 528.789,-30.9582"/>
</g>
<!-- Node12 -->
<g id="node26" class="node"><title>Node12</title>
<polygon fill="white" stroke="#bfbfbf" points="269.5,-0.5 269.5,-21.5 318.5,-21.5 318.5,-0.5 269.5,-0.5"/>
<text text-anchor="middle" x="294" y="-8.5" font-family="Helvetica,sans-Serif" font-size="10.00">stdint.h</text>
</g>
<!-- Node11&#45;&gt;Node12 -->
<g id="edge28" class="edge"><title>Node11&#45;&gt;Node12</title>
<path fill="none" stroke="midnightblue" d="M294,-58.3619C294,-50.9219 294,-40.7427 294,-31.7276"/>
<polygon fill="midnightblue" stroke="midnightblue" points="297.5,-31.5706 294,-21.5707 290.5,-31.5707 297.5,-31.5706"/>
</g>
</g>
</svg>
