<?xml version="1.0" encoding="UTF-8" standalone="no"?>
<!DOCTYPE svg PUBLIC "-//W3C//DTD SVG 1.1//EN"
 "http://www.w3.org/Graphics/SVG/1.1/DTD/svg11.dtd">
<!-- Generated by graphviz version 2.26.3 (20100126.1600)
 -->
<!-- Title: G Pages: 1 -->
<svg width="570pt" height="320pt"
 viewBox="0.00 0.00 570.00 320.00" xmlns="http://www.w3.org/2000/svg" xmlns:xlink="http://www.w3.org/1999/xlink">
<g id="graph1" class="graph" transform="scale(1 1) rotate(0) translate(4 316)">
<title>G</title>
<polygon fill="white" stroke="white" points="-4,5 -4,-316 567,-316 567,5 -4,5"/>
<!-- Node1 -->
<g id="node1" class="node"><title>Node1</title>
<polygon fill="#bfbfbf" stroke="black" points="-0.5,-290.5 -0.5,-311.5 340.5,-311.5 340.5,-290.5 -0.5,-290.5"/>
<text text-anchor="middle" x="170" y="-298.5" font-family="Helvetica,sans-Serif" font-size="10.00">/home/vilon_tao/gaia/sdk/include/gaia/ui/IGalleryOnItemSelectedListener.h</text>
</g>
<!-- Node2 -->
<g id="node3" class="node"><title>Node2</title>
<a xlink:href="../../d1/d14/_abs_list_widget_8h.html" target="_top" xlink:title="gaia/ui/AbsListWidget.h">
<polygon fill="white" stroke="black" points="170,-232.5 170,-253.5 290,-253.5 290,-232.5 170,-232.5"/>
<text text-anchor="middle" x="230" y="-240.5" font-family="Helvetica,sans-Serif" font-size="10.00">gaia/ui/AbsListWidget.h</text>
</a>
</g>
<!-- Node1&#45;&gt;Node2 -->
<g id="edge2" class="edge"><title>Node1&#45;&gt;Node2</title>
<path fill="none" stroke="midnightblue" d="M181.005,-290.362C189.547,-282.104 201.58,-270.472 211.583,-260.803"/>
<polygon fill="midnightblue" stroke="midnightblue" points="214.308,-263.037 219.065,-253.571 209.442,-258.004 214.308,-263.037"/>
</g>
<!-- Node6 -->
<g id="node11" class="node"><title>Node6</title>
<a xlink:href="../../d4/d75/_widget_8h.html" target="_top" xlink:title="gaia/core/vision/Widget.h">
<polygon fill="white" stroke="black" points="187.5,-116.5 187.5,-137.5 314.5,-137.5 314.5,-116.5 187.5,-116.5"/>
<text text-anchor="middle" x="251" y="-124.5" font-family="Helvetica,sans-Serif" font-size="10.00">gaia/core/vision/Widget.h</text>
</a>
</g>
<!-- Node1&#45;&gt;Node6 -->
<g id="edge26" class="edge"><title>Node1&#45;&gt;Node6</title>
<path fill="none" stroke="midnightblue" d="M166.127,-290.346C158.372,-267.003 143.665,-210.516 168,-174 177.582,-159.621 193.142,-149.156 208.215,-141.802"/>
<polygon fill="midnightblue" stroke="midnightblue" points="209.806,-144.924 217.479,-137.618 206.925,-138.545 209.806,-144.924"/>
</g>
<!-- Node3 -->
<g id="node5" class="node"><title>Node3</title>
<a xlink:href="../../d6/d52/_widget_controller_8h.html" target="_top" xlink:title="gaia/core/vision/WidgetController.h">
<polygon fill="white" stroke="black" points="176.5,-174.5 176.5,-195.5 345.5,-195.5 345.5,-174.5 176.5,-174.5"/>
<text text-anchor="middle" x="261" y="-182.5" font-family="Helvetica,sans-Serif" font-size="10.00">gaia/core/vision/WidgetController.h</text>
</a>
</g>
<!-- Node2&#45;&gt;Node3 -->
<g id="edge4" class="edge"><title>Node2&#45;&gt;Node3</title>
<path fill="none" stroke="midnightblue" d="M235.686,-232.362C239.837,-224.595 245.584,-213.843 250.553,-204.546"/>
<polygon fill="midnightblue" stroke="midnightblue" points="253.723,-206.04 255.35,-195.571 247.55,-202.74 253.723,-206.04"/>
</g>
<!-- Node7 -->
<g id="node13" class="node"><title>Node7</title>
<a xlink:href="../../d1/dd0/gmacros_8h.html" target="_top" xlink:title="gaia/base/gmacros.h">
<polygon fill="white" stroke="black" points="52.5,-58.5 52.5,-79.5 159.5,-79.5 159.5,-58.5 52.5,-58.5"/>
<text text-anchor="middle" x="106" y="-66.5" font-family="Helvetica,sans-Serif" font-size="10.00">gaia/base/gmacros.h</text>
</a>
</g>
<!-- Node2&#45;&gt;Node7 -->
<g id="edge22" class="edge"><title>Node2&#45;&gt;Node7</title>
<path fill="none" stroke="midnightblue" d="M211.595,-232.333C198.175,-223.836 180.267,-210.919 168,-196 140.882,-163.019 121.982,-116.191 112.659,-89.5823"/>
<polygon fill="midnightblue" stroke="midnightblue" points="115.877,-88.1733 109.354,-79.8245 109.247,-90.4188 115.877,-88.1733"/>
</g>
<!-- Node11 -->
<g id="node23" class="node"><title>Node11</title>
<polygon fill="white" stroke="#bfbfbf" points="363,-174.5 363,-195.5 411,-195.5 411,-174.5 363,-174.5"/>
<text text-anchor="middle" x="387" y="-182.5" font-family="Helvetica,sans-Serif" font-size="10.00">limits.h</text>
</g>
<!-- Node2&#45;&gt;Node11 -->
<g id="edge24" class="edge"><title>Node2&#45;&gt;Node11</title>
<path fill="none" stroke="midnightblue" d="M258.432,-232.497C285.149,-222.627 325.147,-207.85 353.423,-197.404"/>
<polygon fill="midnightblue" stroke="midnightblue" points="354.727,-200.654 362.895,-193.905 352.301,-194.087 354.727,-200.654"/>
</g>
<!-- Node4 -->
<g id="node7" class="node"><title>Node4</title>
<a xlink:href="../../d3/dd0/_event_control_8h.html" target="_top" xlink:title="gaia/core/event/EventControl.h">
<polygon fill="white" stroke="black" points="410,-116.5 410,-137.5 562,-137.5 562,-116.5 410,-116.5"/>
<text text-anchor="middle" x="486" y="-124.5" font-family="Helvetica,sans-Serif" font-size="10.00">gaia/core/event/EventControl.h</text>
</a>
</g>
<!-- Node3&#45;&gt;Node4 -->
<g id="edge6" class="edge"><title>Node3&#45;&gt;Node4</title>
<path fill="none" stroke="midnightblue" d="M301.746,-174.497C339.221,-164.836 394.927,-150.477 435.272,-140.077"/>
<polygon fill="midnightblue" stroke="midnightblue" points="436.368,-143.409 445.178,-137.523 434.621,-136.63 436.368,-143.409"/>
</g>
<!-- Node3&#45;&gt;Node6 -->
<g id="edge10" class="edge"><title>Node3&#45;&gt;Node6</title>
<path fill="none" stroke="midnightblue" d="M259.166,-174.362C257.869,-166.84 256.089,-156.519 254.523,-147.431"/>
<polygon fill="midnightblue" stroke="midnightblue" points="257.971,-146.831 252.823,-137.571 251.073,-148.02 257.971,-146.831"/>
</g>
<!-- Node5 -->
<g id="node9" class="node"><title>Node5</title>
<polygon fill="white" stroke="#bfbfbf" points="468,-0.5 468,-21.5 536,-21.5 536,-0.5 468,-0.5"/>
<text text-anchor="middle" x="502" y="-8.5" font-family="Helvetica,sans-Serif" font-size="10.00">sys/types.h</text>
</g>
<!-- Node4&#45;&gt;Node5 -->
<g id="edge8" class="edge"><title>Node4&#45;&gt;Node5</title>
<path fill="none" stroke="midnightblue" d="M507.998,-116.365C521.68,-108.433 538.122,-96.1794 546,-80 555.057,-61.3995 539.575,-41.6344 524.539,-28.0479"/>
<polygon fill="midnightblue" stroke="midnightblue" points="526.745,-25.3297 516.849,-21.5451 522.225,-30.6748 526.745,-25.3297"/>
</g>
<!-- Node6&#45;&gt;Node7 -->
<g id="edge12" class="edge"><title>Node6&#45;&gt;Node7</title>
<path fill="none" stroke="midnightblue" d="M224.742,-116.497C201.584,-107.234 167.625,-93.6499 141.948,-83.3793"/>
<polygon fill="midnightblue" stroke="midnightblue" points="143.138,-80.0855 132.553,-79.6212 140.538,-86.5849 143.138,-80.0855"/>
</g>
<!-- Node8 -->
<g id="node15" class="node"><title>Node8</title>
<a xlink:href="../../d0/d92/_property_animatable_8h.html" target="_top" xlink:title="gaia/core/animator/PropertyAnimatable.h">
<polygon fill="white" stroke="black" points="343,-58.5 343,-79.5 537,-79.5 537,-58.5 343,-58.5"/>
<text text-anchor="middle" x="440" y="-66.5" font-family="Helvetica,sans-Serif" font-size="10.00">gaia/core/animator/PropertyAnimatable.h</text>
</a>
</g>
<!-- Node6&#45;&gt;Node8 -->
<g id="edge14" class="edge"><title>Node6&#45;&gt;Node8</title>
<path fill="none" stroke="midnightblue" d="M285.226,-116.497C316.305,-106.959 362.312,-92.8408 396.09,-82.475"/>
<polygon fill="midnightblue" stroke="midnightblue" points="397.176,-85.8029 405.709,-79.5231 395.123,-79.1109 397.176,-85.8029"/>
</g>
<!-- Node9 -->
<g id="node18" class="node"><title>Node9</title>
<a xlink:href="../../d8/d50/_widget_core_8h.html" target="_top" xlink:title="gaia/core/vision/WidgetCore.h">
<polygon fill="white" stroke="black" points="177,-58.5 177,-79.5 325,-79.5 325,-58.5 177,-58.5"/>
<text text-anchor="middle" x="251" y="-66.5" font-family="Helvetica,sans-Serif" font-size="10.00">gaia/core/vision/WidgetCore.h</text>
</a>
</g>
<!-- Node6&#45;&gt;Node9 -->
<g id="edge18" class="edge"><title>Node6&#45;&gt;Node9</title>
<path fill="none" stroke="midnightblue" d="M251,-116.362C251,-108.922 251,-98.7427 251,-89.7276"/>
<polygon fill="midnightblue" stroke="midnightblue" points="254.5,-89.5706 251,-79.5707 247.5,-89.5707 254.5,-89.5706"/>
</g>
<!-- Node8&#45;&gt;Node5 -->
<g id="edge16" class="edge"><title>Node8&#45;&gt;Node5</title>
<path fill="none" stroke="midnightblue" d="M451.372,-58.3619C460.286,-50.0226 472.879,-38.2418 483.276,-28.5162"/>
<polygon fill="midnightblue" stroke="midnightblue" points="485.789,-30.9582 490.7,-21.5707 481.007,-25.8463 485.789,-30.9582"/>
</g>
<!-- Node10 -->
<g id="node20" class="node"><title>Node10</title>
<polygon fill="white" stroke="#bfbfbf" points="226.5,-0.5 226.5,-21.5 275.5,-21.5 275.5,-0.5 226.5,-0.5"/>
<text text-anchor="middle" x="251" y="-8.5" font-family="Helvetica,sans-Serif" font-size="10.00">stdint.h</text>
</g>
<!-- Node9&#45;&gt;Node10 -->
<g id="edge20" class="edge"><title>Node9&#45;&gt;Node10</title>
<path fill="none" stroke="midnightblue" d="M251,-58.3619C251,-50.9219 251,-40.7427 251,-31.7276"/>
<polygon fill="midnightblue" stroke="midnightblue" points="254.5,-31.5706 251,-21.5707 247.5,-31.5707 254.5,-31.5706"/>
</g>
</g>
</svg>
