<?xml version="1.0" encoding="UTF-8" standalone="no"?>
<!DOCTYPE svg PUBLIC "-//W3C//DTD SVG 1.1//EN"
 "http://www.w3.org/Graphics/SVG/1.1/DTD/svg11.dtd">
<!-- Generated by graphviz version 2.26.3 (20100126.1600)
 -->
<!-- Title: G Pages: 1 -->
<svg width="386pt" height="204pt"
 viewBox="0.00 0.00 386.00 204.00" xmlns="http://www.w3.org/2000/svg" xmlns:xlink="http://www.w3.org/1999/xlink">
<g id="graph1" class="graph" transform="scale(1 1) rotate(0) translate(4 200)">
<title>G</title>
<polygon fill="white" stroke="white" points="-4,5 -4,-200 383,-200 383,5 -4,5"/>
<!-- Node1 -->
<g id="node1" class="node"><title>Node1</title>
<polygon fill="#bfbfbf" stroke="black" points="0,-174.5 0,-195.5 296,-195.5 296,-174.5 0,-174.5"/>
<text text-anchor="middle" x="148" y="-182.5" font-family="Helvetica,sans-Serif" font-size="10.00">/home/vilon_tao/gaia/sdk/include/gaia/admin/DeviceAdminInfo.h</text>
</g>
<!-- Node2 -->
<g id="node3" class="node"><title>Node2</title>
<polygon fill="white" stroke="#bfbfbf" points="87.5,-0.5 87.5,-21.5 136.5,-21.5 136.5,-0.5 87.5,-0.5"/>
<text text-anchor="middle" x="112" y="-8.5" font-family="Helvetica,sans-Serif" font-size="10.00">stdint.h</text>
</g>
<!-- Node1&#45;&gt;Node2 -->
<g id="edge2" class="edge"><title>Node1&#45;&gt;Node2</title>
<path fill="none" stroke="midnightblue" d="M138.669,-174.317C123.655,-156.336 94.7328,-118.23 84,-80 81.3571,-70.5862 81.4048,-67.4271 84,-58 86.7108,-48.153 92.0846,-38.2859 97.4058,-30.1528"/>
<polygon fill="midnightblue" stroke="midnightblue" points="100.384,-32.0015 103.247,-21.8007 94.6475,-27.9898 100.384,-32.0015"/>
</g>
<!-- Node3 -->
<g id="node5" class="node"><title>Node3</title>
<a xlink:href="../../db/db5/_string_8h.html" target="_top" xlink:title="gaia/base/String.h">
<polygon fill="white" stroke="black" points="183.5,-116.5 183.5,-137.5 278.5,-137.5 278.5,-116.5 183.5,-116.5"/>
<text text-anchor="middle" x="231" y="-124.5" font-family="Helvetica,sans-Serif" font-size="10.00">gaia/base/String.h</text>
</a>
</g>
<!-- Node1&#45;&gt;Node3 -->
<g id="edge4" class="edge"><title>Node1&#45;&gt;Node3</title>
<path fill="none" stroke="midnightblue" d="M163.223,-174.362C175.625,-165.696 193.346,-153.313 207.557,-143.382"/>
<polygon fill="midnightblue" stroke="midnightblue" points="209.681,-146.168 215.873,-137.571 205.671,-140.43 209.681,-146.168"/>
</g>
<!-- Node4 -->
<g id="node7" class="node"><title>Node4</title>
<a xlink:href="../../d7/d97/_char_sequence_8h.html" target="_top" xlink:title="gaia/base/CharSequence.h">
<polygon fill="white" stroke="black" points="93,-58.5 93,-79.5 227,-79.5 227,-58.5 93,-58.5"/>
<text text-anchor="middle" x="160" y="-66.5" font-family="Helvetica,sans-Serif" font-size="10.00">gaia/base/CharSequence.h</text>
</a>
</g>
<!-- Node3&#45;&gt;Node4 -->
<g id="edge6" class="edge"><title>Node3&#45;&gt;Node4</title>
<path fill="none" stroke="midnightblue" d="M217.978,-116.362C207.569,-107.859 192.781,-95.7785 180.745,-85.9466"/>
<polygon fill="midnightblue" stroke="midnightblue" points="182.899,-83.1866 172.94,-79.5707 178.47,-88.6077 182.899,-83.1866"/>
</g>
<!-- Node5 -->
<g id="node10" class="node"><title>Node5</title>
<a xlink:href="../../d6/d83/_hash_func_8h.html" target="_top" xlink:title="gaia/base/HashFunc.h">
<polygon fill="white" stroke="black" points="244.5,-58.5 244.5,-79.5 359.5,-79.5 359.5,-58.5 244.5,-58.5"/>
<text text-anchor="middle" x="302" y="-66.5" font-family="Helvetica,sans-Serif" font-size="10.00">gaia/base/HashFunc.h</text>
</a>
</g>
<!-- Node3&#45;&gt;Node5 -->
<g id="edge10" class="edge"><title>Node3&#45;&gt;Node5</title>
<path fill="none" stroke="midnightblue" d="M244.022,-116.362C254.431,-107.859 269.219,-95.7785 281.255,-85.9466"/>
<polygon fill="midnightblue" stroke="midnightblue" points="283.53,-88.6077 289.06,-79.5707 279.101,-83.1866 283.53,-88.6077"/>
</g>
<!-- Node6 -->
<g id="node12" class="node"><title>Node6</title>
<polygon fill="white" stroke="#bfbfbf" points="310,-0.5 310,-21.5 378,-21.5 378,-0.5 310,-0.5"/>
<text text-anchor="middle" x="344" y="-8.5" font-family="Helvetica,sans-Serif" font-size="10.00">sys/types.h</text>
</g>
<!-- Node3&#45;&gt;Node6 -->
<g id="edge14" class="edge"><title>Node3&#45;&gt;Node6</title>
<path fill="none" stroke="midnightblue" d="M278.518,-116.874C313.681,-108.305 357.259,-95.0404 368,-80 378.743,-64.9566 369.474,-44.6768 359.498,-29.9994"/>
<polygon fill="midnightblue" stroke="midnightblue" points="362.117,-27.6548 353.367,-21.6815 356.483,-31.8079 362.117,-27.6548"/>
</g>
<!-- Node4&#45;&gt;Node2 -->
<g id="edge8" class="edge"><title>Node4&#45;&gt;Node2</title>
<path fill="none" stroke="midnightblue" d="M151.196,-58.3619C144.498,-50.2678 135.116,-38.9318 127.211,-29.3796"/>
<polygon fill="midnightblue" stroke="midnightblue" points="129.82,-27.0431 120.748,-21.5707 124.427,-31.5061 129.82,-27.0431"/>
</g>
<!-- Node5&#45;&gt;Node6 -->
<g id="edge12" class="edge"><title>Node5&#45;&gt;Node6</title>
<path fill="none" stroke="midnightblue" d="M309.703,-58.3619C315.446,-50.4313 323.443,-39.3885 330.27,-29.9606"/>
<polygon fill="midnightblue" stroke="midnightblue" points="333.315,-31.7229 336.345,-21.5707 327.645,-27.6173 333.315,-31.7229"/>
</g>
</g>
</svg>
