<?xml version="1.0" encoding="UTF-8" standalone="no"?>
<!DOCTYPE svg PUBLIC "-//W3C//DTD SVG 1.1//EN"
 "http://www.w3.org/Graphics/SVG/1.1/DTD/svg11.dtd">
<!-- Generated by graphviz version 2.26.3 (20100126.1600)
 -->
<!-- Title: G Pages: 1 -->
<svg width="271pt" height="146pt"
 viewBox="0.00 0.00 271.00 146.00" xmlns="http://www.w3.org/2000/svg" xmlns:xlink="http://www.w3.org/1999/xlink">
<g id="graph1" class="graph" transform="scale(1 1) rotate(0) translate(4 142)">
<title>G</title>
<polygon fill="white" stroke="white" points="-4,5 -4,-142 268,-142 268,5 -4,5"/>
<!-- Node1 -->
<g id="node1" class="node"><title>Node1</title>
<polygon fill="#bfbfbf" stroke="black" points="-0.5,-116.5 -0.5,-137.5 256.5,-137.5 256.5,-116.5 -0.5,-116.5"/>
<text text-anchor="middle" x="128" y="-124.5" font-family="Helvetica,sans-Serif" font-size="10.00">/home/vilon_tao/gaia/sdk/include/gaia/base/HashMap.h</text>
</g>
<!-- Node2 -->
<g id="node3" class="node"><title>Node2</title>
<a xlink:href="../../d6/d83/_hash_func_8h.html" target="_top" xlink:title="gaia/base/HashFunc.h">
<polygon fill="white" stroke="black" points="0.5,-58.5 0.5,-79.5 115.5,-79.5 115.5,-58.5 0.5,-58.5"/>
<text text-anchor="middle" x="58" y="-66.5" font-family="Helvetica,sans-Serif" font-size="10.00">gaia/base/HashFunc.h</text>
</a>
</g>
<!-- Node1&#45;&gt;Node2 -->
<g id="edge2" class="edge"><title>Node1&#45;&gt;Node2</title>
<path fill="none" stroke="midnightblue" d="M115.161,-116.362C104.998,-107.941 90.5989,-96.0105 78.7958,-86.2308"/>
<polygon fill="midnightblue" stroke="midnightblue" points="80.691,-83.2558 70.7577,-79.5707 76.2248,-88.6459 80.691,-83.2558"/>
</g>
<!-- Node4 -->
<g id="node7" class="node"><title>Node4</title>
<a xlink:href="../../dc/d11/_hash_map_impl_8h.html" target="_top" xlink:title="gaia/base/HashMapImpl.h">
<polygon fill="white" stroke="black" points="132.5,-58.5 132.5,-79.5 263.5,-79.5 263.5,-58.5 132.5,-58.5"/>
<text text-anchor="middle" x="198" y="-66.5" font-family="Helvetica,sans-Serif" font-size="10.00">gaia/base/HashMapImpl.h</text>
</a>
</g>
<!-- Node1&#45;&gt;Node4 -->
<g id="edge6" class="edge"><title>Node1&#45;&gt;Node4</title>
<path fill="none" stroke="midnightblue" d="M140.839,-116.362C151.002,-107.941 165.401,-96.0105 177.204,-86.2308"/>
<polygon fill="midnightblue" stroke="midnightblue" points="179.775,-88.6459 185.242,-79.5707 175.309,-83.2558 179.775,-88.6459"/>
</g>
<!-- Node3 -->
<g id="node5" class="node"><title>Node3</title>
<polygon fill="white" stroke="#bfbfbf" points="94,-0.5 94,-21.5 162,-21.5 162,-0.5 94,-0.5"/>
<text text-anchor="middle" x="128" y="-8.5" font-family="Helvetica,sans-Serif" font-size="10.00">sys/types.h</text>
</g>
<!-- Node2&#45;&gt;Node3 -->
<g id="edge4" class="edge"><title>Node2&#45;&gt;Node3</title>
<path fill="none" stroke="midnightblue" d="M70.8391,-58.3619C81.0025,-49.9408 95.4011,-38.0105 107.204,-28.2308"/>
<polygon fill="midnightblue" stroke="midnightblue" points="109.775,-30.6459 115.242,-21.5707 105.309,-25.2558 109.775,-30.6459"/>
</g>
<!-- Node4&#45;&gt;Node3 -->
<g id="edge8" class="edge"><title>Node4&#45;&gt;Node3</title>
<path fill="none" stroke="midnightblue" d="M185.161,-58.3619C174.998,-49.9408 160.599,-38.0105 148.796,-28.2308"/>
<polygon fill="midnightblue" stroke="midnightblue" points="150.691,-25.2558 140.758,-21.5707 146.225,-30.6459 150.691,-25.2558"/>
</g>
</g>
</svg>
