<?xml version="1.0" encoding="UTF-8" standalone="no"?>
<!DOCTYPE svg PUBLIC "-//W3C//DTD SVG 1.1//EN"
 "http://www.w3.org/Graphics/SVG/1.1/DTD/svg11.dtd">
<!-- Generated by graphviz version 2.26.3 (20100126.1600)
 -->
<!-- Title: G Pages: 1 -->
<svg width="2724pt" height="146pt"
 viewBox="0.00 0.00 2724.00 146.00" xmlns="http://www.w3.org/2000/svg" xmlns:xlink="http://www.w3.org/1999/xlink">
<g id="graph1" class="graph" transform="scale(1 1) rotate(0) translate(4 142)">
<title>G</title>
<polygon fill="white" stroke="white" points="-4,5 -4,-142 2721,-142 2721,5 -4,5"/>
<!-- Node1 -->
<g id="node1" class="node"><title>Node1</title>
<polygon fill="#bfbfbf" stroke="black" points="1298,-116.5 1298,-137.5 1550,-137.5 1550,-116.5 1298,-116.5"/>
<text text-anchor="middle" x="1424" y="-124.5" font-family="Helvetica,sans-Serif" font-size="10.00">/home/vilon_tao/gaia/sdk/include/gaia/core/Delegate.h</text>
</g>
<!-- Node2 -->
<g id="node3" class="node"><title>Node2</title>
<a xlink:href="../../d7/d00/_bluetooth_headset_service_8h.html" target="_top" xlink:title="/home/vilon_tao/gaia/sdk/include/gaia/connectivity/bluetooth/BluetoothHeadsetService.h">
<polygon fill="white" stroke="black" points="-0.5,-58.5 -0.5,-79.5 400.5,-79.5 400.5,-58.5 -0.5,-58.5"/>
<text text-anchor="middle" x="200" y="-66.5" font-family="Helvetica,sans-Serif" font-size="10.00">/home/vilon_tao/gaia/sdk/include/gaia/connectivity/bluetooth/BluetoothHeadsetService.h</text>
</a>
</g>
<!-- Node1&#45;&gt;Node2 -->
<g id="edge2" class="edge"><title>Node1&#45;&gt;Node2</title>
<path fill="none" stroke="midnightblue" d="M1287.79,-120.966C1092.98,-112.274 723.534,-95.5594 409,-80 405.734,-79.8384 402.439,-79.6746 399.122,-79.5089"/>
<polygon fill="midnightblue" stroke="midnightblue" points="1287.65,-124.463 1297.79,-121.412 1287.96,-117.47 1287.65,-124.463"/>
</g>
<!-- Node3 -->
<g id="node5" class="node"><title>Node3</title>
<a xlink:href="../../df/d24/_bluetooth_pbap_service_8h.html" target="_top" xlink:title="/home/vilon_tao/gaia/sdk/include/gaia/connectivity/bluetooth/BluetoothPbapService.h">
<polygon fill="white" stroke="black" points="418,-58.5 418,-79.5 804,-79.5 804,-58.5 418,-58.5"/>
<text text-anchor="middle" x="611" y="-66.5" font-family="Helvetica,sans-Serif" font-size="10.00">/home/vilon_tao/gaia/sdk/include/gaia/connectivity/bluetooth/BluetoothPbapService.h</text>
</a>
</g>
<!-- Node1&#45;&gt;Node3 -->
<g id="edge4" class="edge"><title>Node1&#45;&gt;Node3</title>
<path fill="none" stroke="midnightblue" d="M1287.46,-117.259C1140.95,-106.807 909.046,-90.2628 758.451,-79.5193"/>
<polygon fill="midnightblue" stroke="midnightblue" points="1287.64,-120.781 1297.86,-118.001 1288.14,-113.798 1287.64,-120.781"/>
</g>
<!-- Node4 -->
<g id="node7" class="node"><title>Node4</title>
<a xlink:href="../../d9/d05/_demand_delegate_8h.html" target="_top" xlink:title="/home/vilon_tao/gaia/sdk/include/gaia/core/DemandDelegate.h">
<polygon fill="white" stroke="black" points="821.5,-58.5 821.5,-79.5 1110.5,-79.5 1110.5,-58.5 821.5,-58.5"/>
<text text-anchor="middle" x="966" y="-66.5" font-family="Helvetica,sans-Serif" font-size="10.00">/home/vilon_tao/gaia/sdk/include/gaia/core/DemandDelegate.h</text>
</a>
</g>
<!-- Node1&#45;&gt;Node4 -->
<g id="edge6" class="edge"><title>Node1&#45;&gt;Node4</title>
<path fill="none" stroke="midnightblue" d="M1330.92,-115.212C1248.26,-104.745 1128.58,-89.589 1049.1,-79.5231"/>
<polygon fill="midnightblue" stroke="midnightblue" points="1330.7,-118.712 1341.06,-116.497 1331.58,-111.768 1330.7,-118.712"/>
</g>
<!-- Node5 -->
<g id="node9" class="node"><title>Node5</title>
<a xlink:href="../../d0/d0a/_i_m_e_service_8h.html" target="_top" xlink:title="/home/vilon_tao/gaia/sdk/include/gaia/service/IMEService.h">
<polygon fill="white" stroke="black" points="1127.5,-58.5 1127.5,-79.5 1404.5,-79.5 1404.5,-58.5 1127.5,-58.5"/>
<text text-anchor="middle" x="1266" y="-66.5" font-family="Helvetica,sans-Serif" font-size="10.00">/home/vilon_tao/gaia/sdk/include/gaia/service/IMEService.h</text>
</a>
</g>
<!-- Node1&#45;&gt;Node5 -->
<g id="edge8" class="edge"><title>Node1&#45;&gt;Node5</title>
<path fill="none" stroke="midnightblue" d="M1385.89,-113.009C1357.81,-102.702 1320.22,-88.903 1294.67,-79.5231"/>
<polygon fill="midnightblue" stroke="midnightblue" points="1384.79,-116.336 1395.39,-116.497 1387.21,-109.765 1384.79,-116.336"/>
</g>
<!-- Node6 -->
<g id="node11" class="node"><title>Node6</title>
<a xlink:href="../../d0/d01/_spell_checker_delegate_8h.html" target="_top" xlink:title="/home/vilon_tao/gaia/sdk/include/gaia/service/SpellCheckerDelegate.h">
<polygon fill="white" stroke="black" points="1421.5,-58.5 1421.5,-79.5 1744.5,-79.5 1744.5,-58.5 1421.5,-58.5"/>
<text text-anchor="middle" x="1583" y="-66.5" font-family="Helvetica,sans-Serif" font-size="10.00">/home/vilon_tao/gaia/sdk/include/gaia/service/SpellCheckerDelegate.h</text>
</a>
</g>
<!-- Node1&#45;&gt;Node6 -->
<g id="edge10" class="edge"><title>Node1&#45;&gt;Node6</title>
<path fill="none" stroke="midnightblue" d="M1462.35,-113.009C1490.61,-102.702 1528.44,-88.903 1554.15,-79.5231"/>
<polygon fill="midnightblue" stroke="midnightblue" points="1460.99,-109.782 1452.79,-116.497 1463.39,-116.358 1460.99,-109.782"/>
</g>
<!-- Node7 -->
<g id="node13" class="node"><title>Node7</title>
<a xlink:href="../../db/d42/_wallpaper_delegate_8h.html" target="_top" xlink:title="/home/vilon_tao/gaia/sdk/include/gaia/service/WallpaperDelegate.h">
<polygon fill="white" stroke="black" points="1762,-58.5 1762,-79.5 2070,-79.5 2070,-58.5 1762,-58.5"/>
<text text-anchor="middle" x="1916" y="-66.5" font-family="Helvetica,sans-Serif" font-size="10.00">/home/vilon_tao/gaia/sdk/include/gaia/service/WallpaperDelegate.h</text>
</a>
</g>
<!-- Node1&#45;&gt;Node7 -->
<g id="edge12" class="edge"><title>Node1&#45;&gt;Node7</title>
<path fill="none" stroke="midnightblue" d="M1523.18,-115.308C1612,-104.837 1741.09,-89.6198 1826.74,-79.5231"/>
<polygon fill="midnightblue" stroke="midnightblue" points="1522.62,-111.85 1513.1,-116.497 1523.44,-118.802 1522.62,-111.85"/>
</g>
<!-- Node9 -->
<g id="node17" class="node"><title>Node9</title>
<a xlink:href="../../d7/d9b/_delegate_test_case_8h.html" target="_top" xlink:title="/home/vilon_tao/gaia/sdk/include/gaia/testing/DelegateTestCase.h">
<polygon fill="white" stroke="black" points="2087.5,-58.5 2087.5,-79.5 2392.5,-79.5 2392.5,-58.5 2087.5,-58.5"/>
<text text-anchor="middle" x="2240" y="-66.5" font-family="Helvetica,sans-Serif" font-size="10.00">/home/vilon_tao/gaia/sdk/include/gaia/testing/DelegateTestCase.h</text>
</a>
</g>
<!-- Node1&#45;&gt;Node9 -->
<g id="edge16" class="edge"><title>Node1&#45;&gt;Node9</title>
<path fill="none" stroke="midnightblue" d="M1560.16,-117.322C1707.22,-106.869 1940.74,-90.2709 2092.19,-79.5062"/>
<polygon fill="midnightblue" stroke="midnightblue" points="1559.88,-113.833 1550.16,-118.033 1560.38,-120.815 1559.88,-113.833"/>
</g>
<!-- Node10 -->
<g id="node19" class="node"><title>Node10</title>
<a xlink:href="../../da/dbc/_remote_widget_delegate_8h.html" target="_top" xlink:title="/home/vilon_tao/gaia/sdk/include/gaia/ui/RemoteWidgetDelegate.h">
<polygon fill="white" stroke="black" points="2410,-58.5 2410,-79.5 2716,-79.5 2716,-58.5 2410,-58.5"/>
<text text-anchor="middle" x="2563" y="-66.5" font-family="Helvetica,sans-Serif" font-size="10.00">/home/vilon_tao/gaia/sdk/include/gaia/ui/RemoteWidgetDelegate.h</text>
</a>
</g>
<!-- Node1&#45;&gt;Node10 -->
<g id="edge18" class="edge"><title>Node1&#45;&gt;Node10</title>
<path fill="none" stroke="midnightblue" d="M1560.38,-121.289C1749.27,-113.186 2101.15,-97.3906 2401,-80 2403.95,-79.8286 2406.94,-79.6528 2409.95,-79.4732"/>
<polygon fill="midnightblue" stroke="midnightblue" points="1559.97,-117.804 1550.13,-121.729 1560.27,-124.797 1559.97,-117.804"/>
</g>
<!-- Node8 -->
<g id="node15" class="node"><title>Node8</title>
<a xlink:href="../../d3/d26/_g_l_wallpaper_engine_8h.html" target="_top" xlink:title="/home/vilon_tao/gaia/sdk/include/gaia/service/GLWallpaperEngine.h">
<polygon fill="white" stroke="black" points="1760,-0.5 1760,-21.5 2072,-21.5 2072,-0.5 1760,-0.5"/>
<text text-anchor="middle" x="1916" y="-8.5" font-family="Helvetica,sans-Serif" font-size="10.00">/home/vilon_tao/gaia/sdk/include/gaia/service/GLWallpaperEngine.h</text>
</a>
</g>
<!-- Node7&#45;&gt;Node8 -->
<g id="edge14" class="edge"><title>Node7&#45;&gt;Node8</title>
<path fill="none" stroke="midnightblue" d="M1916,-48.1906C1916,-39.1684 1916,-28.9941 1916,-21.5707"/>
<polygon fill="midnightblue" stroke="midnightblue" points="1912.5,-48.3619 1916,-58.3619 1919.5,-48.3619 1912.5,-48.3619"/>
</g>
</g>
</svg>
