<?xml version="1.0" encoding="UTF-8" standalone="no"?>
<!DOCTYPE svg PUBLIC "-//W3C//DTD SVG 1.1//EN"
 "http://www.w3.org/Graphics/SVG/1.1/DTD/svg11.dtd">
<!-- Generated by graphviz version 2.26.3 (20100126.1600)
 -->
<!-- Title: G Pages: 1 -->
<svg width="605pt" height="320pt"
 viewBox="0.00 0.00 604.95 320.00" xmlns="http://www.w3.org/2000/svg" xmlns:xlink="http://www.w3.org/1999/xlink">
<g id="graph1" class="graph" transform="scale(1 1) rotate(0) translate(4 316)">
<title>G</title>
<polygon fill="white" stroke="white" points="-4,5 -4,-316 601.946,-316 601.946,5 -4,5"/>
<!-- Node1 -->
<g id="node1" class="node"><title>Node1</title>
<polygon fill="#bfbfbf" stroke="black" points="-0.5,-290.5 -0.5,-311.5 366.5,-311.5 366.5,-290.5 -0.5,-290.5"/>
<text text-anchor="middle" x="183" y="-298.5" font-family="Helvetica,sans-Serif" font-size="10.00">/home/vilon_tao/gaia/sdk/include/gaia/text/method/ArrowKeyMovementMethod.h</text>
</g>
<!-- Node2 -->
<g id="node3" class="node"><title>Node2</title>
<a xlink:href="../../d5/d96/_movement_method_8h.html" target="_top" xlink:title="gaia/text/method/MovementMethod.h">
<polygon fill="white" stroke="black" points="152.5,-232.5 152.5,-253.5 331.5,-253.5 331.5,-232.5 152.5,-232.5"/>
<text text-anchor="middle" x="242" y="-240.5" font-family="Helvetica,sans-Serif" font-size="10.00">gaia/text/method/MovementMethod.h</text>
</a>
</g>
<!-- Node1&#45;&gt;Node2 -->
<g id="edge2" class="edge"><title>Node1&#45;&gt;Node2</title>
<path fill="none" stroke="midnightblue" d="M193.822,-290.362C202.221,-282.104 214.054,-270.472 223.89,-260.803"/>
<polygon fill="midnightblue" stroke="midnightblue" points="226.569,-263.077 231.247,-253.571 221.662,-258.085 226.569,-263.077"/>
</g>
<!-- Node3 -->
<g id="node5" class="node"><title>Node3</title>
<a xlink:href="../../d1/dd0/gmacros_8h.html" target="_top" xlink:title="gaia/base/gmacros.h">
<polygon fill="white" stroke="black" points="71.5,-174.5 71.5,-195.5 178.5,-195.5 178.5,-174.5 71.5,-174.5"/>
<text text-anchor="middle" x="125" y="-182.5" font-family="Helvetica,sans-Serif" font-size="10.00">gaia/base/gmacros.h</text>
</a>
</g>
<!-- Node1&#45;&gt;Node3 -->
<g id="edge28" class="edge"><title>Node1&#45;&gt;Node3</title>
<path fill="none" stroke="midnightblue" d="M171.907,-290.392C163.157,-281.449 151.256,-267.914 144,-254 136.112,-238.874 131.22,-220.126 128.379,-205.991"/>
<polygon fill="midnightblue" stroke="midnightblue" points="131.759,-205.013 126.522,-195.803 124.872,-206.268 131.759,-205.013"/>
</g>
<!-- Node2&#45;&gt;Node3 -->
<g id="edge4" class="edge"><title>Node2&#45;&gt;Node3</title>
<path fill="none" stroke="midnightblue" d="M220.812,-232.497C202.538,-223.438 175.928,-210.246 155.385,-200.063"/>
<polygon fill="midnightblue" stroke="midnightblue" points="156.94,-196.927 146.426,-195.621 153.831,-203.199 156.94,-196.927"/>
</g>
<!-- Node4 -->
<g id="node7" class="node"><title>Node4</title>
<a xlink:href="../../dc/de9/_motion_event_8h.html" target="_top" xlink:title="gaia/core/event/MotionEvent.h">
<polygon fill="white" stroke="black" points="75.5,-116.5 75.5,-137.5 224.5,-137.5 224.5,-116.5 75.5,-116.5"/>
<text text-anchor="middle" x="150" y="-124.5" font-family="Helvetica,sans-Serif" font-size="10.00">gaia/core/event/MotionEvent.h</text>
</a>
</g>
<!-- Node2&#45;&gt;Node4 -->
<g id="edge6" class="edge"><title>Node2&#45;&gt;Node4</title>
<path fill="none" stroke="midnightblue" d="M233.51,-232.295C217.832,-212.527 184.167,-170.08 164.708,-145.544"/>
<polygon fill="midnightblue" stroke="midnightblue" points="167.426,-143.339 158.47,-137.679 161.941,-147.689 167.426,-143.339"/>
</g>
<!-- Node6 -->
<g id="node11" class="node"><title>Node6</title>
<a xlink:href="../../dd/d79/_key_event_8h.html" target="_top" xlink:title="gaia/core/event/KeyEvent.h">
<polygon fill="white" stroke="black" points="233.5,-174.5 233.5,-195.5 370.5,-195.5 370.5,-174.5 233.5,-174.5"/>
<text text-anchor="middle" x="302" y="-182.5" font-family="Helvetica,sans-Serif" font-size="10.00">gaia/core/event/KeyEvent.h</text>
</a>
</g>
<!-- Node2&#45;&gt;Node6 -->
<g id="edge10" class="edge"><title>Node2&#45;&gt;Node6</title>
<path fill="none" stroke="midnightblue" d="M253.005,-232.362C261.547,-224.104 273.58,-212.472 283.583,-202.803"/>
<polygon fill="midnightblue" stroke="midnightblue" points="286.308,-205.037 291.065,-195.571 281.442,-200.004 286.308,-205.037"/>
</g>
<!-- Node9 -->
<g id="node17" class="node"><title>Node9</title>
<polygon fill="white" stroke="#bfbfbf" points="539.5,-0.5 539.5,-21.5 588.5,-21.5 588.5,-0.5 539.5,-0.5"/>
<text text-anchor="middle" x="564" y="-8.5" font-family="Helvetica,sans-Serif" font-size="10.00">stdint.h</text>
</g>
<!-- Node2&#45;&gt;Node9 -->
<g id="edge26" class="edge"><title>Node2&#45;&gt;Node9</title>
<path fill="none" stroke="midnightblue" d="M319.34,-232.48C404.113,-216.279 535.684,-176.264 593,-80 602.579,-63.912 592.187,-44.0743 581.271,-29.805"/>
<polygon fill="midnightblue" stroke="midnightblue" points="583.653,-27.1943 574.58,-21.7233 578.261,-31.6582 583.653,-27.1943"/>
</g>
<!-- Node5 -->
<g id="node9" class="node"><title>Node5</title>
<polygon fill="white" stroke="#bfbfbf" points="237,-0.5 237,-21.5 305,-21.5 305,-0.5 237,-0.5"/>
<text text-anchor="middle" x="271" y="-8.5" font-family="Helvetica,sans-Serif" font-size="10.00">sys/types.h</text>
</g>
<!-- Node4&#45;&gt;Node5 -->
<g id="edge8" class="edge"><title>Node4&#45;&gt;Node5</title>
<path fill="none" stroke="midnightblue" d="M161.167,-116.295C181.966,-96.3545 226.838,-53.337 252.323,-28.9056"/>
<polygon fill="midnightblue" stroke="midnightblue" points="255.064,-31.1261 259.86,-21.6792 250.22,-26.073 255.064,-31.1261"/>
</g>
<!-- Node6&#45;&gt;Node5 -->
<g id="edge24" class="edge"><title>Node6&#45;&gt;Node5</title>
<path fill="none" stroke="midnightblue" d="M300.107,-174.377C295.104,-146.293 281.453,-69.6735 274.777,-32.2027"/>
<polygon fill="midnightblue" stroke="midnightblue" points="278.147,-31.1588 272.947,-21.9277 271.255,-32.3866 278.147,-31.1588"/>
</g>
<!-- Node7 -->
<g id="node13" class="node"><title>Node7</title>
<a xlink:href="../../db/db5/_string_8h.html" target="_top" xlink:title="gaia/base/String.h">
<polygon fill="white" stroke="black" points="303.5,-116.5 303.5,-137.5 398.5,-137.5 398.5,-116.5 303.5,-116.5"/>
<text text-anchor="middle" x="351" y="-124.5" font-family="Helvetica,sans-Serif" font-size="10.00">gaia/base/String.h</text>
</a>
</g>
<!-- Node6&#45;&gt;Node7 -->
<g id="edge12" class="edge"><title>Node6&#45;&gt;Node7</title>
<path fill="none" stroke="midnightblue" d="M310.987,-174.362C317.825,-166.268 327.402,-154.932 335.472,-145.38"/>
<polygon fill="midnightblue" stroke="midnightblue" points="338.29,-147.468 342.07,-137.571 332.942,-142.951 338.29,-147.468"/>
</g>
<!-- Node7&#45;&gt;Node5 -->
<g id="edge22" class="edge"><title>Node7&#45;&gt;Node5</title>
<path fill="none" stroke="midnightblue" d="M340.241,-116.388C331.277,-107.228 318.488,-93.3943 309,-80 297.931,-64.3752 287.603,-45.2013 280.516,-31.0346"/>
<polygon fill="midnightblue" stroke="midnightblue" points="283.502,-29.1724 275.965,-21.7263 277.213,-32.2474 283.502,-29.1724"/>
</g>
<!-- Node8 -->
<g id="node15" class="node"><title>Node8</title>
<a xlink:href="../../d7/d97/_char_sequence_8h.html" target="_top" xlink:title="gaia/base/CharSequence.h">
<polygon fill="white" stroke="black" points="450,-58.5 450,-79.5 584,-79.5 584,-58.5 450,-58.5"/>
<text text-anchor="middle" x="517" y="-66.5" font-family="Helvetica,sans-Serif" font-size="10.00">gaia/base/CharSequence.h</text>
</a>
</g>
<!-- Node7&#45;&gt;Node8 -->
<g id="edge14" class="edge"><title>Node7&#45;&gt;Node8</title>
<path fill="none" stroke="midnightblue" d="M381.061,-116.497C408.007,-107.082 447.728,-93.2036 477.282,-82.8773"/>
<polygon fill="midnightblue" stroke="midnightblue" points="478.596,-86.1257 486.882,-79.5231 476.287,-79.5174 478.596,-86.1257"/>
</g>
<!-- Node10 -->
<g id="node19" class="node"><title>Node10</title>
<a xlink:href="../../d6/d83/_hash_func_8h.html" target="_top" xlink:title="gaia/base/HashFunc.h">
<polygon fill="white" stroke="black" points="317.5,-58.5 317.5,-79.5 432.5,-79.5 432.5,-58.5 317.5,-58.5"/>
<text text-anchor="middle" x="375" y="-66.5" font-family="Helvetica,sans-Serif" font-size="10.00">gaia/base/HashFunc.h</text>
</a>
</g>
<!-- Node7&#45;&gt;Node10 -->
<g id="edge18" class="edge"><title>Node7&#45;&gt;Node10</title>
<path fill="none" stroke="midnightblue" d="M355.402,-116.362C358.582,-108.677 362.972,-98.0686 366.79,-88.8399"/>
<polygon fill="midnightblue" stroke="midnightblue" points="370.036,-90.1491 370.626,-79.5707 363.568,-87.4726 370.036,-90.1491"/>
</g>
<!-- Node8&#45;&gt;Node9 -->
<g id="edge16" class="edge"><title>Node8&#45;&gt;Node9</title>
<path fill="none" stroke="midnightblue" d="M525.621,-58.3619C532.18,-50.2678 541.366,-38.9318 549.106,-29.3796"/>
<polygon fill="midnightblue" stroke="midnightblue" points="551.858,-31.5436 555.434,-21.5707 546.419,-27.1364 551.858,-31.5436"/>
</g>
<!-- Node10&#45;&gt;Node5 -->
<g id="edge20" class="edge"><title>Node10&#45;&gt;Node5</title>
<path fill="none" stroke="midnightblue" d="M355.925,-58.3619C339.945,-49.4502 316.919,-36.6087 298.873,-26.5447"/>
<polygon fill="midnightblue" stroke="midnightblue" points="300.393,-23.3846 289.954,-21.5707 296.983,-29.4982 300.393,-23.3846"/>
</g>
</g>
</svg>
