<?xml version="1.0" encoding="UTF-8" standalone="no"?>
<!DOCTYPE svg PUBLIC "-//W3C//DTD SVG 1.1//EN"
 "http://www.w3.org/Graphics/SVG/1.1/DTD/svg11.dtd">
<!-- Generated by graphviz version 2.26.3 (20100126.1600)
 -->
<!-- Title: G Pages: 1 -->
<svg width="978pt" height="378pt"
 viewBox="0.00 0.00 978.00 378.00" xmlns="http://www.w3.org/2000/svg" xmlns:xlink="http://www.w3.org/1999/xlink">
<g id="graph1" class="graph" transform="scale(1 1) rotate(0) translate(4 374)">
<title>G</title>
<polygon fill="white" stroke="white" points="-4,5 -4,-374 975,-374 975,5 -4,5"/>
<!-- Node1 -->
<g id="node1" class="node"><title>Node1</title>
<polygon fill="#bfbfbf" stroke="black" points="491,-348.5 491,-369.5 761,-369.5 761,-348.5 491,-348.5"/>
<text text-anchor="middle" x="626" y="-356.5" font-family="Helvetica,sans-Serif" font-size="10.00">/home/vilon_tao/gaia/sdk/include/gaia/core/ipc/IInterface.h</text>
</g>
<!-- Node2 -->
<g id="node3" class="node"><title>Node2</title>
<a xlink:href="../../da/de3/_binder_8h.html" target="_top" xlink:title="gaia/core/ipc/Binder.h">
<polygon fill="white" stroke="black" points="570.5,-290.5 570.5,-311.5 681.5,-311.5 681.5,-290.5 570.5,-290.5"/>
<text text-anchor="middle" x="626" y="-298.5" font-family="Helvetica,sans-Serif" font-size="10.00">gaia/core/ipc/Binder.h</text>
</a>
</g>
<!-- Node1&#45;&gt;Node2 -->
<g id="edge2" class="edge"><title>Node1&#45;&gt;Node2</title>
<path fill="none" stroke="midnightblue" d="M626,-348.362C626,-340.922 626,-330.743 626,-321.728"/>
<polygon fill="midnightblue" stroke="midnightblue" points="629.5,-321.571 626,-311.571 622.5,-321.571 629.5,-321.571"/>
</g>
<!-- Node3 -->
<g id="node5" class="node"><title>Node3</title>
<a xlink:href="../../d1/dbb/_i_binder_8h.html" target="_top" xlink:title="gaia/core/ipc/IBinder.h">
<polygon fill="white" stroke="black" points="569,-232.5 569,-253.5 683,-253.5 683,-232.5 569,-232.5"/>
<text text-anchor="middle" x="626" y="-240.5" font-family="Helvetica,sans-Serif" font-size="10.00">gaia/core/ipc/IBinder.h</text>
</a>
</g>
<!-- Node2&#45;&gt;Node3 -->
<g id="edge4" class="edge"><title>Node2&#45;&gt;Node3</title>
<path fill="none" stroke="midnightblue" d="M626,-290.362C626,-282.922 626,-272.743 626,-263.728"/>
<polygon fill="midnightblue" stroke="midnightblue" points="629.5,-263.571 626,-253.571 622.5,-263.571 629.5,-263.571"/>
</g>
<!-- Node8 -->
<g id="node15" class="node"><title>Node8</title>
<polygon fill="white" stroke="#bfbfbf" points="616,-0.5 616,-21.5 684,-21.5 684,-0.5 616,-0.5"/>
<text text-anchor="middle" x="650" y="-8.5" font-family="Helvetica,sans-Serif" font-size="10.00">sys/types.h</text>
</g>
<!-- Node2&#45;&gt;Node8 -->
<g id="edge62" class="edge"><title>Node2&#45;&gt;Node8</title>
<path fill="none" stroke="midnightblue" d="M681.652,-293.949C779.011,-280.046 970,-245.111 970,-185 970,-185 970,-185 970,-127 970,-93.3805 965.664,-78.4765 939,-58 901.438,-29.1547 765.444,-17.4003 694.211,-13.139"/>
<polygon fill="midnightblue" stroke="midnightblue" points="694.375,-9.64268 684.191,-12.5635 693.973,-16.6312 694.375,-9.64268"/>
</g>
<!-- Node11 -->
<g id="node23" class="node"><title>Node11</title>
<a xlink:href="../../db/db5/_string_8h.html" target="_top" xlink:title="gaia/base/String.h">
<polygon fill="white" stroke="black" points="513.5,-116.5 513.5,-137.5 608.5,-137.5 608.5,-116.5 513.5,-116.5"/>
<text text-anchor="middle" x="561" y="-124.5" font-family="Helvetica,sans-Serif" font-size="10.00">gaia/base/String.h</text>
</a>
</g>
<!-- Node2&#45;&gt;Node11 -->
<g id="edge60" class="edge"><title>Node2&#45;&gt;Node11</title>
<path fill="none" stroke="midnightblue" d="M600.87,-290.393C586.052,-282.665 568.573,-270.629 560,-254 542.496,-220.046 549.142,-173.883 555.267,-147.587"/>
<polygon fill="midnightblue" stroke="midnightblue" points="558.727,-148.181 557.789,-137.627 551.942,-146.463 558.727,-148.181"/>
</g>
<!-- Node4 -->
<g id="node7" class="node"><title>Node4</title>
<a xlink:href="../../d4/d7f/_vector_8h.html" target="_top" xlink:title="gaia/base/Vector.h">
<polygon fill="white" stroke="black" points="237,-116.5 237,-137.5 335,-137.5 335,-116.5 237,-116.5"/>
<text text-anchor="middle" x="286" y="-124.5" font-family="Helvetica,sans-Serif" font-size="10.00">gaia/base/Vector.h</text>
</a>
</g>
<!-- Node3&#45;&gt;Node4 -->
<g id="edge6" class="edge"><title>Node3&#45;&gt;Node4</title>
<path fill="none" stroke="midnightblue" d="M594.926,-232.398C533.208,-211.342 395.22,-164.263 326.498,-140.817"/>
<polygon fill="midnightblue" stroke="midnightblue" points="327.473,-137.452 316.879,-137.535 325.213,-144.077 327.473,-137.452"/>
</g>
<!-- Node3&#45;&gt;Node11 -->
<g id="edge24" class="edge"><title>Node3&#45;&gt;Node11</title>
<path fill="none" stroke="midnightblue" d="M621.557,-232.462C615.625,-218.707 604.519,-194.029 593,-174 587.506,-164.448 580.72,-154.29 574.812,-145.871"/>
<polygon fill="midnightblue" stroke="midnightblue" points="577.511,-143.629 568.849,-137.528 571.816,-147.699 577.511,-143.629"/>
</g>
<!-- Node14 -->
<g id="node32" class="node"><title>Node14</title>
<a xlink:href="../../df/d57/_parcel_8h.html" target="_top" xlink:title="gaia/core/Parcel.h">
<polygon fill="white" stroke="black" points="644.5,-174.5 644.5,-195.5 739.5,-195.5 739.5,-174.5 644.5,-174.5"/>
<text text-anchor="middle" x="692" y="-182.5" font-family="Helvetica,sans-Serif" font-size="10.00">gaia/core/Parcel.h</text>
</a>
</g>
<!-- Node3&#45;&gt;Node14 -->
<g id="edge36" class="edge"><title>Node3&#45;&gt;Node14</title>
<path fill="none" stroke="midnightblue" d="M638.105,-232.362C647.688,-223.941 661.264,-212.011 672.393,-202.231"/>
<polygon fill="midnightblue" stroke="midnightblue" points="674.77,-204.801 679.971,-195.571 670.149,-199.543 674.77,-204.801"/>
</g>
<!-- Node5 -->
<g id="node9" class="node"><title>Node5</title>
<a xlink:href="../../d1/d86/_type_helpers_8h.html" target="_top" xlink:title="gaia/base/TypeHelpers.h">
<polygon fill="white" stroke="black" points="-0.5,-58.5 -0.5,-79.5 124.5,-79.5 124.5,-58.5 -0.5,-58.5"/>
<text text-anchor="middle" x="62" y="-66.5" font-family="Helvetica,sans-Serif" font-size="10.00">gaia/base/TypeHelpers.h</text>
</a>
</g>
<!-- Node4&#45;&gt;Node5 -->
<g id="edge8" class="edge"><title>Node4&#45;&gt;Node5</title>
<path fill="none" stroke="midnightblue" d="M245.435,-116.497C208.127,-106.836 152.668,-92.4765 112.502,-82.0765"/>
<polygon fill="midnightblue" stroke="midnightblue" points="113.199,-78.6415 102.641,-79.5231 111.444,-85.418 113.199,-78.6415"/>
</g>
<!-- Node4&#45;&gt;Node8 -->
<g id="edge22" class="edge"><title>Node4&#45;&gt;Node8</title>
<path fill="none" stroke="midnightblue" d="M285.579,-116.261C285.612,-100.856 288.167,-72.7261 305,-58 327.297,-38.4938 517.743,-21.3019 605.745,-14.3178"/>
<polygon fill="midnightblue" stroke="midnightblue" points="606.255,-17.7886 615.951,-13.5172 605.708,-10.8101 606.255,-17.7886"/>
</g>
<!-- Node10 -->
<g id="node19" class="node"><title>Node10</title>
<a xlink:href="../../dc/da9/_vector_impl_8h.html" target="_top" xlink:title="gaia/base/VectorImpl.h">
<polygon fill="white" stroke="black" points="141.5,-58.5 141.5,-79.5 258.5,-79.5 258.5,-58.5 141.5,-58.5"/>
<text text-anchor="middle" x="200" y="-66.5" font-family="Helvetica,sans-Serif" font-size="10.00">gaia/base/VectorImpl.h</text>
</a>
</g>
<!-- Node4&#45;&gt;Node10 -->
<g id="edge18" class="edge"><title>Node4&#45;&gt;Node10</title>
<path fill="none" stroke="midnightblue" d="M270.226,-116.362C257.376,-107.696 239.015,-95.3126 224.29,-85.3819"/>
<polygon fill="midnightblue" stroke="midnightblue" points="225.921,-82.2604 215.674,-79.5707 222.007,-88.0639 225.921,-82.2604"/>
</g>
<!-- Node6 -->
<g id="node11" class="node"><title>Node6</title>
<polygon fill="white" stroke="#bfbfbf" points="245.5,-0.5 245.5,-21.5 294.5,-21.5 294.5,-0.5 245.5,-0.5"/>
<text text-anchor="middle" x="270" y="-8.5" font-family="Helvetica,sans-Serif" font-size="10.00">stdint.h</text>
</g>
<!-- Node5&#45;&gt;Node6 -->
<g id="edge10" class="edge"><title>Node5&#45;&gt;Node6</title>
<path fill="none" stroke="midnightblue" d="M99.6672,-58.4966C138.298,-47.7247 197.884,-31.1092 235.37,-20.6566"/>
<polygon fill="midnightblue" stroke="midnightblue" points="236.628,-23.9392 245.32,-17.8818 234.748,-17.1965 236.628,-23.9392"/>
</g>
<!-- Node7 -->
<g id="node13" class="node"><title>Node7</title>
<polygon fill="white" stroke="#bfbfbf" points="67.5,-0.5 67.5,-21.5 116.5,-21.5 116.5,-0.5 67.5,-0.5"/>
<text text-anchor="middle" x="92" y="-8.5" font-family="Helvetica,sans-Serif" font-size="10.00">string.h</text>
</g>
<!-- Node5&#45;&gt;Node7 -->
<g id="edge12" class="edge"><title>Node5&#45;&gt;Node7</title>
<path fill="none" stroke="midnightblue" d="M67.5025,-58.3619C71.5199,-50.5949 77.0814,-39.8426 81.8901,-30.5458"/>
<polygon fill="midnightblue" stroke="midnightblue" points="85.0469,-32.0608 86.5324,-21.5707 78.8294,-28.8448 85.0469,-32.0608"/>
</g>
<!-- Node5&#45;&gt;Node8 -->
<g id="edge14" class="edge"><title>Node5&#45;&gt;Node8</title>
<path fill="none" stroke="midnightblue" d="M124.69,-59.0681C127.496,-58.6927 130.276,-58.3345 133,-58 307.463,-36.5768 516.162,-20.5172 605.678,-14.0826"/>
<polygon fill="midnightblue" stroke="midnightblue" points="606.015,-17.5675 615.741,-13.3638 605.517,-10.5853 606.015,-17.5675"/>
</g>
<!-- Node9 -->
<g id="node17" class="node"><title>Node9</title>
<polygon fill="white" stroke="#bfbfbf" points="15.5,-0.5 15.5,-21.5 50.5,-21.5 50.5,-0.5 15.5,-0.5"/>
<text text-anchor="middle" x="33" y="-8.5" font-family="Helvetica,sans-Serif" font-size="10.00">new</text>
</g>
<!-- Node5&#45;&gt;Node9 -->
<g id="edge16" class="edge"><title>Node5&#45;&gt;Node9</title>
<path fill="none" stroke="midnightblue" d="M56.681,-58.3619C52.7974,-50.5949 47.4213,-39.8426 42.7729,-30.5458"/>
<polygon fill="midnightblue" stroke="midnightblue" points="45.888,-28.9497 38.2853,-21.5707 39.627,-32.0802 45.888,-28.9497"/>
</g>
<!-- Node10&#45;&gt;Node8 -->
<g id="edge20" class="edge"><title>Node10&#45;&gt;Node8</title>
<path fill="none" stroke="midnightblue" d="M258.529,-59.9184C263.085,-59.2542 267.616,-58.6073 272,-58 392.407,-41.3199 534.785,-24.362 605.505,-16.1248"/>
<polygon fill="midnightblue" stroke="midnightblue" points="606.288,-19.5574 615.817,-14.9264 605.48,-12.6042 606.288,-19.5574"/>
</g>
<!-- Node11&#45;&gt;Node8 -->
<g id="edge34" class="edge"><title>Node11&#45;&gt;Node8</title>
<path fill="none" stroke="midnightblue" d="M569.213,-116.295C584.314,-96.6135 616.663,-54.4504 635.525,-29.8668"/>
<polygon fill="midnightblue" stroke="midnightblue" points="638.496,-31.7436 641.806,-21.6792 632.942,-27.4826 638.496,-31.7436"/>
</g>
<!-- Node12 -->
<g id="node25" class="node"><title>Node12</title>
<a xlink:href="../../d7/d97/_char_sequence_8h.html" target="_top" xlink:title="gaia/base/CharSequence.h">
<polygon fill="white" stroke="black" points="314,-58.5 314,-79.5 448,-79.5 448,-58.5 314,-58.5"/>
<text text-anchor="middle" x="381" y="-66.5" font-family="Helvetica,sans-Serif" font-size="10.00">gaia/base/CharSequence.h</text>
</a>
</g>
<!-- Node11&#45;&gt;Node12 -->
<g id="edge26" class="edge"><title>Node11&#45;&gt;Node12</title>
<path fill="none" stroke="midnightblue" d="M528.403,-116.497C498.931,-107 455.365,-92.9619 423.234,-82.6087"/>
<polygon fill="midnightblue" stroke="midnightblue" points="424.249,-79.2587 413.658,-79.5231 422.102,-85.9214 424.249,-79.2587"/>
</g>
<!-- Node13 -->
<g id="node28" class="node"><title>Node13</title>
<a xlink:href="../../d6/d83/_hash_func_8h.html" target="_top" xlink:title="gaia/base/HashFunc.h">
<polygon fill="white" stroke="black" points="465.5,-58.5 465.5,-79.5 580.5,-79.5 580.5,-58.5 465.5,-58.5"/>
<text text-anchor="middle" x="523" y="-66.5" font-family="Helvetica,sans-Serif" font-size="10.00">gaia/base/HashFunc.h</text>
</a>
</g>
<!-- Node11&#45;&gt;Node13 -->
<g id="edge30" class="edge"><title>Node11&#45;&gt;Node13</title>
<path fill="none" stroke="midnightblue" d="M554.03,-116.362C548.834,-108.431 541.599,-97.3885 535.422,-87.9606"/>
<polygon fill="midnightblue" stroke="midnightblue" points="538.334,-86.0172 529.926,-79.5707 532.478,-89.8534 538.334,-86.0172"/>
</g>
<!-- Node12&#45;&gt;Node6 -->
<g id="edge28" class="edge"><title>Node12&#45;&gt;Node6</title>
<path fill="none" stroke="midnightblue" d="M360.899,-58.4966C343.718,-49.5194 318.77,-36.4835 299.355,-26.3387"/>
<polygon fill="midnightblue" stroke="midnightblue" points="300.811,-23.1503 290.327,-21.6212 297.569,-29.3544 300.811,-23.1503"/>
</g>
<!-- Node13&#45;&gt;Node8 -->
<g id="edge32" class="edge"><title>Node13&#45;&gt;Node8</title>
<path fill="none" stroke="midnightblue" d="M545.999,-58.4966C566.013,-49.3562 595.241,-36.0082 617.619,-25.7883"/>
<polygon fill="midnightblue" stroke="midnightblue" points="619.101,-28.9592 626.743,-21.6212 616.193,-22.5918 619.101,-28.9592"/>
</g>
<!-- Node14&#45;&gt;Node4 -->
<g id="edge50" class="edge"><title>Node14&#45;&gt;Node4</title>
<path fill="none" stroke="midnightblue" d="M644.233,-178.176C569.756,-167.537 426.132,-147.019 345.196,-135.457"/>
<polygon fill="midnightblue" stroke="midnightblue" points="345.56,-131.973 335.165,-134.024 344.57,-138.903 345.56,-131.973"/>
</g>
<!-- Node14&#45;&gt;Node8 -->
<g id="edge38" class="edge"><title>Node14&#45;&gt;Node8</title>
<path fill="none" stroke="midnightblue" d="M707.887,-174.281C738.654,-152.184 800.904,-100.109 772,-58 762.728,-44.491 725.111,-31.2706 694.069,-22.3098"/>
<polygon fill="midnightblue" stroke="midnightblue" points="694.84,-18.891 684.266,-19.5552 692.947,-25.63 694.84,-18.891"/>
</g>
<!-- Node14&#45;&gt;Node11 -->
<g id="edge52" class="edge"><title>Node14&#45;&gt;Node11</title>
<path fill="none" stroke="midnightblue" d="M668.277,-174.497C647.632,-165.356 617.484,-152.008 594.401,-141.788"/>
<polygon fill="midnightblue" stroke="midnightblue" points="595.55,-138.469 584.989,-137.621 592.716,-144.87 595.55,-138.469"/>
</g>
<!-- Node15 -->
<g id="node35" class="node"><title>Node15</title>
<a xlink:href="../../d3/dc5/_array_8h.html" target="_top" xlink:title="gaia/base/Array.h">
<polygon fill="white" stroke="black" points="645.5,-116.5 645.5,-137.5 738.5,-137.5 738.5,-116.5 645.5,-116.5"/>
<text text-anchor="middle" x="692" y="-124.5" font-family="Helvetica,sans-Serif" font-size="10.00">gaia/base/Array.h</text>
</a>
</g>
<!-- Node14&#45;&gt;Node15 -->
<g id="edge40" class="edge"><title>Node14&#45;&gt;Node15</title>
<path fill="none" stroke="midnightblue" d="M692,-174.362C692,-166.922 692,-156.743 692,-147.728"/>
<polygon fill="midnightblue" stroke="midnightblue" points="695.5,-147.571 692,-137.571 688.5,-147.571 695.5,-147.571"/>
</g>
<!-- Node17 -->
<g id="node44" class="node"><title>Node17</title>
<a xlink:href="../../d8/d4d/_parcelable_8h.html" target="_top" xlink:title="gaia/core/Parcelable.h">
<polygon fill="white" stroke="black" points="829.5,-116.5 829.5,-137.5 942.5,-137.5 942.5,-116.5 829.5,-116.5"/>
<text text-anchor="middle" x="886" y="-124.5" font-family="Helvetica,sans-Serif" font-size="10.00">gaia/core/Parcelable.h</text>
</a>
</g>
<!-- Node14&#45;&gt;Node17 -->
<g id="edge54" class="edge"><title>Node14&#45;&gt;Node17</title>
<path fill="none" stroke="midnightblue" d="M727.132,-174.497C759.033,-164.959 806.257,-150.841 840.928,-140.475"/>
<polygon fill="midnightblue" stroke="midnightblue" points="842.224,-143.741 850.802,-137.523 840.219,-137.034 842.224,-143.741"/>
</g>
<!-- Node15&#45;&gt;Node5 -->
<g id="edge46" class="edge"><title>Node15&#45;&gt;Node5</title>
<path fill="none" stroke="midnightblue" d="M645.257,-119.618C635.913,-118.291 626.156,-117.011 617,-116 405.842,-92.6922 349.016,-104.171 134.679,-80.1223"/>
<polygon fill="midnightblue" stroke="midnightblue" points="135.014,-76.6379 124.683,-78.988 134.225,-83.5933 135.014,-76.6379"/>
</g>
<!-- Node15&#45;&gt;Node8 -->
<g id="edge48" class="edge"><title>Node15&#45;&gt;Node8</title>
<path fill="none" stroke="midnightblue" d="M715.12,-116.352C739.399,-103.632 772.116,-81.1502 757,-58 743.037,-36.616 716.937,-24.8979 694.01,-18.5103"/>
<polygon fill="midnightblue" stroke="midnightblue" points="694.642,-15.0602 684.09,-16.0106 692.932,-21.8481 694.642,-15.0602"/>
</g>
<!-- Node16 -->
<g id="node37" class="node"><title>Node16</title>
<a xlink:href="../../d8/dae/_array_impl_8h.html" target="_top" xlink:title="gaia/base/ArrayImpl.h">
<polygon fill="white" stroke="black" points="636,-58.5 636,-79.5 748,-79.5 748,-58.5 636,-58.5"/>
<text text-anchor="middle" x="692" y="-66.5" font-family="Helvetica,sans-Serif" font-size="10.00">gaia/base/ArrayImpl.h</text>
</a>
</g>
<!-- Node15&#45;&gt;Node16 -->
<g id="edge42" class="edge"><title>Node15&#45;&gt;Node16</title>
<path fill="none" stroke="midnightblue" d="M692,-116.362C692,-108.922 692,-98.7427 692,-89.7276"/>
<polygon fill="midnightblue" stroke="midnightblue" points="695.5,-89.5706 692,-79.5707 688.5,-89.5707 695.5,-89.5706"/>
</g>
<!-- Node16&#45;&gt;Node8 -->
<g id="edge44" class="edge"><title>Node16&#45;&gt;Node8</title>
<path fill="none" stroke="midnightblue" d="M684.297,-58.3619C678.554,-50.4313 670.557,-39.3885 663.73,-29.9606"/>
<polygon fill="midnightblue" stroke="midnightblue" points="666.355,-27.6173 657.655,-21.5707 660.685,-31.7229 666.355,-27.6173"/>
</g>
<!-- Node17&#45;&gt;Node8 -->
<g id="edge58" class="edge"><title>Node17&#45;&gt;Node8</title>
<path fill="none" stroke="midnightblue" d="M879.99,-116.354C870.8,-101.067 851.791,-73.0812 828,-58 787.163,-32.1131 732.432,-20.4086 694.489,-15.1645"/>
<polygon fill="midnightblue" stroke="midnightblue" points="694.622,-11.6529 684.257,-13.8503 693.73,-18.5959 694.622,-11.6529"/>
</g>
<!-- Node18 -->
<g id="node46" class="node"><title>Node18</title>
<polygon fill="white" stroke="#bfbfbf" points="879.5,-58.5 879.5,-79.5 930.5,-79.5 930.5,-58.5 879.5,-58.5"/>
<text text-anchor="middle" x="905" y="-66.5" font-family="Helvetica,sans-Serif" font-size="10.00">typeinfo</text>
</g>
<!-- Node17&#45;&gt;Node18 -->
<g id="edge56" class="edge"><title>Node17&#45;&gt;Node18</title>
<path fill="none" stroke="midnightblue" d="M889.485,-116.362C891.976,-108.758 895.404,-98.294 898.404,-89.1349"/>
<polygon fill="midnightblue" stroke="midnightblue" points="901.75,-90.1634 901.537,-79.5707 895.098,-87.9841 901.75,-90.1634"/>
</g>
</g>
</svg>
