<?xml version="1.0" encoding="UTF-8" standalone="no"?>
<!DOCTYPE svg PUBLIC "-//W3C//DTD SVG 1.1//EN"
 "http://www.w3.org/Graphics/SVG/1.1/DTD/svg11.dtd">
<!-- Generated by graphviz version 2.26.3 (20100126.1600)
 -->
<!-- Title: G Pages: 1 -->
<svg width="762pt" height="190pt"
 viewBox="0.00 0.00 762.00 190.00" xmlns="http://www.w3.org/2000/svg" xmlns:xlink="http://www.w3.org/1999/xlink">
<g id="graph1" class="graph" transform="scale(1 1) rotate(0) translate(4 186)">
<title>G</title>
<polygon fill="white" stroke="white" points="-4,5 -4,-186 759,-186 759,5 -4,5"/>
<!-- Node1 -->
<g id="node1" class="node"><title>Node1</title>
<polygon fill="#bfbfbf" stroke="black" points="166.5,-80.5 166.5,-101.5 325.5,-101.5 325.5,-80.5 166.5,-80.5"/>
<text text-anchor="middle" x="246" y="-88.5" font-family="Helvetica,sans-Serif" font-size="10.00">gaia::ui::MarginControllerParams</text>
</g>
<!-- Node3 -->
<g id="node5" class="node"><title>Node3</title>
<a xlink:href="../../da/dcf/classgaia_1_1ui_1_1_action_bar_controller_params.html" target="_top" xlink:title="ActionBarControllerParams are used by widgets to tell their RadioGroupController how they want to be ...">
<polygon fill="white" stroke="black" points="362.5,-160.5 362.5,-181.5 535.5,-181.5 535.5,-160.5 362.5,-160.5"/>
<text text-anchor="middle" x="449" y="-168.5" font-family="Helvetica,sans-Serif" font-size="10.00">gaia::ui::ActionBarControllerParams</text>
</a>
</g>
<!-- Node1&#45;&gt;Node3 -->
<g id="edge4" class="edge"><title>Node1&#45;&gt;Node3</title>
<path fill="none" stroke="midnightblue" d="M271.836,-106.77C294.794,-120.19 329.635,-139.125 362,-151 372.039,-154.683 382.987,-157.834 393.624,-160.472"/>
<polygon fill="midnightblue" stroke="midnightblue" points="273.449,-103.658 263.061,-101.571 269.88,-109.68 273.449,-103.658"/>
</g>
<!-- Node4 -->
<g id="node7" class="node"><title>Node4</title>
<a xlink:href="../../d7/d11/classgaia_1_1ui_1_1_frame_controller_params.html" target="_top" xlink:title="FrameControllerParams are used by widgets to tell their FrameController how they want to be laid out...">
<polygon fill="white" stroke="black" points="370,-120.5 370,-141.5 528,-141.5 528,-120.5 370,-120.5"/>
<text text-anchor="middle" x="449" y="-128.5" font-family="Helvetica,sans-Serif" font-size="10.00">gaia::ui::FrameControllerParams</text>
</a>
</g>
<!-- Node1&#45;&gt;Node4 -->
<g id="edge6" class="edge"><title>Node1&#45;&gt;Node4</title>
<path fill="none" stroke="midnightblue" d="M309.326,-103.478C337.041,-108.939 369.199,-115.276 395.668,-120.491"/>
<polygon fill="midnightblue" stroke="midnightblue" points="309.824,-100.009 299.336,-101.51 308.471,-106.877 309.824,-100.009"/>
</g>
<!-- Node5 -->
<g id="node9" class="node"><title>Node5</title>
<a xlink:href="../../d9/dfe/classgaia_1_1ui_1_1_grid_controller_params.html" target="_top" xlink:title="Layout information associated with each of the children of a GridLayout.">
<polygon fill="white" stroke="black" points="375,-80.5 375,-101.5 523,-101.5 523,-80.5 375,-80.5"/>
<text text-anchor="middle" x="449" y="-88.5" font-family="Helvetica,sans-Serif" font-size="10.00">gaia::ui::GridControllerParams</text>
</a>
</g>
<!-- Node1&#45;&gt;Node5 -->
<g id="edge8" class="edge"><title>Node1&#45;&gt;Node5</title>
<path fill="none" stroke="midnightblue" d="M335.999,-91C348.993,-91 362.243,-91 374.88,-91"/>
<polygon fill="midnightblue" stroke="midnightblue" points="335.648,-87.5001 325.648,-91 335.648,-94.5001 335.648,-87.5001"/>
</g>
<!-- Node6 -->
<g id="node11" class="node"><title>Node6</title>
<a xlink:href="../../dd/dee/classgaia_1_1ui_1_1_linear_controller_params.html" target="_top" xlink:title="LinearControllerParams are used by widgets to tell their LinearLayout how they want to be laid out...">
<polygon fill="white" stroke="black" points="371,-40.5 371,-61.5 527,-61.5 527,-40.5 371,-40.5"/>
<text text-anchor="middle" x="449" y="-48.5" font-family="Helvetica,sans-Serif" font-size="10.00">gaia::ui::LinearControllerParams</text>
</a>
</g>
<!-- Node1&#45;&gt;Node6 -->
<g id="edge10" class="edge"><title>Node1&#45;&gt;Node6</title>
<path fill="none" stroke="midnightblue" d="M309.326,-78.5219C337.041,-73.061 369.199,-66.7243 395.668,-61.5087"/>
<polygon fill="midnightblue" stroke="midnightblue" points="308.471,-75.1232 299.336,-80.4905 309.824,-81.9911 308.471,-75.1232"/>
</g>
<!-- Node8 -->
<g id="node15" class="node"><title>Node8</title>
<a xlink:href="../../d9/d61/classgaia_1_1ui_1_1_relative_controller_params.html" target="_top" xlink:title="RelativeControllerParams are used by widgets to tell their RelativeController how they want to be lai...">
<polygon fill="white" stroke="black" points="366,-0.5 366,-21.5 532,-21.5 532,-0.5 366,-0.5"/>
<text text-anchor="middle" x="449" y="-8.5" font-family="Helvetica,sans-Serif" font-size="10.00">gaia::ui::RelativeControllerParams</text>
</a>
</g>
<!-- Node1&#45;&gt;Node8 -->
<g id="edge14" class="edge"><title>Node1&#45;&gt;Node8</title>
<path fill="none" stroke="midnightblue" d="M271.836,-75.2296C294.794,-61.8101 329.635,-42.8749 362,-31 372.039,-27.3166 382.987,-24.1658 393.624,-21.5281"/>
<polygon fill="midnightblue" stroke="midnightblue" points="269.88,-72.3203 263.061,-80.4293 273.449,-78.3425 269.88,-72.3203"/>
</g>
<!-- Node2 -->
<g id="node2" class="node"><title>Node2</title>
<a xlink:href="../../de/d2f/classgaia_1_1ui_1_1_controller_params.html" target="_top" xlink:title="ControllerParams are used by widgets to tell their parents how they want to be laid out...">
<polygon fill="white" stroke="black" points="0,-80.5 0,-101.5 130,-101.5 130,-80.5 0,-80.5"/>
<text text-anchor="middle" x="65" y="-88.5" font-family="Helvetica,sans-Serif" font-size="10.00">gaia::ui::ControllerParams</text>
</a>
</g>
<!-- Node2&#45;&gt;Node1 -->
<g id="edge2" class="edge"><title>Node2&#45;&gt;Node1</title>
<path fill="none" stroke="midnightblue" d="M140.137,-91C148.788,-91 157.633,-91 166.341,-91"/>
<polygon fill="midnightblue" stroke="midnightblue" points="140.089,-87.5001 130.089,-91 140.089,-94.5001 140.089,-87.5001"/>
</g>
<!-- Node7 -->
<g id="node13" class="node"><title>Node7</title>
<a xlink:href="../../df/d81/classgaia_1_1ui_1_1_radio_group_controller_params.html" target="_top" xlink:title="RadioGroupControllerParams are used by widgets to tell their RadioGroupController how they want to be...">
<polygon fill="white" stroke="black" points="572,-40.5 572,-61.5 754,-61.5 754,-40.5 572,-40.5"/>
<text text-anchor="middle" x="663" y="-48.5" font-family="Helvetica,sans-Serif" font-size="10.00">gaia::ui::RadioGroupControllerParams</text>
</a>
</g>
<!-- Node6&#45;&gt;Node7 -->
<g id="edge12" class="edge"><title>Node6&#45;&gt;Node7</title>
<path fill="none" stroke="midnightblue" d="M537.173,-51C548.662,-51 560.45,-51 571.984,-51"/>
<polygon fill="midnightblue" stroke="midnightblue" points="537.167,-47.5001 527.167,-51 537.167,-54.5001 537.167,-47.5001"/>
</g>
</g>
</svg>
