<?xml version="1.0" encoding="UTF-8" standalone="no"?>
<!DOCTYPE svg PUBLIC "-//W3C//DTD SVG 1.1//EN"
 "http://www.w3.org/Graphics/SVG/1.1/DTD/svg11.dtd">
<!-- Generated by graphviz version 2.26.3 (20100126.1600)
 -->
<!-- Title: G Pages: 1 -->
<svg width="336pt" height="88pt"
 viewBox="0.00 0.00 336.00 88.00" xmlns="http://www.w3.org/2000/svg" xmlns:xlink="http://www.w3.org/1999/xlink">
<g id="graph1" class="graph" transform="scale(1 1) rotate(0) translate(4 84)">
<title>G</title>
<polygon fill="white" stroke="white" points="-4,5 -4,-84 333,-84 333,5 -4,5"/>
<!-- Node1 -->
<g id="node1" class="node"><title>Node1</title>
<polygon fill="#bfbfbf" stroke="black" points="94.5,-58.5 94.5,-79.5 223.5,-79.5 223.5,-58.5 94.5,-58.5"/>
<text text-anchor="middle" x="159" y="-66.5" font-family="Helvetica,sans-Serif" font-size="10.00">gaia::graphics::MaskFilter</text>
</g>
<!-- Node2 -->
<g id="node3" class="node"><title>Node2</title>
<a xlink:href="../../df/d97/classgaia_1_1graphics_1_1_blur_mask_filter.html" target="_top" xlink:title="This takes a mask, and blurs its edge by the specified radius.">
<polygon fill="white" stroke="black" points="0,-0.5 0,-21.5 146,-21.5 146,-0.5 0,-0.5"/>
<text text-anchor="middle" x="73" y="-8.5" font-family="Helvetica,sans-Serif" font-size="10.00">gaia::graphics::BlurMaskFilter</text>
</a>
</g>
<!-- Node1&#45;&gt;Node2 -->
<g id="edge2" class="edge"><title>Node1&#45;&gt;Node2</title>
<path fill="none" stroke="midnightblue" d="M134.595,-52.5407C119.851,-42.5973 101.495,-30.2177 88.6737,-21.5707"/>
<polygon fill="midnightblue" stroke="midnightblue" points="132.979,-55.6722 143.226,-58.3619 136.893,-49.8687 132.979,-55.6722"/>
</g>
<!-- Node3 -->
<g id="node5" class="node"><title>Node3</title>
<a xlink:href="../../de/d6f/classgaia_1_1graphics_1_1_emboss_mask_filter.html" target="_top" xlink:title="Create an emboss maskfilter to apply to drawing style.">
<polygon fill="white" stroke="black" points="163.5,-0.5 163.5,-21.5 328.5,-21.5 328.5,-0.5 163.5,-0.5"/>
<text text-anchor="middle" x="246" y="-8.5" font-family="Helvetica,sans-Serif" font-size="10.00">gaia::graphics::EmbossMaskFilter</text>
</a>
</g>
<!-- Node1&#45;&gt;Node3 -->
<g id="edge4" class="edge"><title>Node1&#45;&gt;Node3</title>
<path fill="none" stroke="midnightblue" d="M183.689,-52.5407C198.604,-42.5973 217.173,-30.2177 230.144,-21.5707"/>
<polygon fill="midnightblue" stroke="midnightblue" points="181.336,-49.9027 174.957,-58.3619 185.219,-55.727 181.336,-49.9027"/>
</g>
</g>
</svg>
