<?xml version="1.0" encoding="UTF-8" standalone="no"?>
<!DOCTYPE svg PUBLIC "-//W3C//DTD SVG 1.1//EN"
 "http://www.w3.org/Graphics/SVG/1.1/DTD/svg11.dtd">
<!-- Generated by graphviz version 2.26.3 (20100126.1600)
 -->
<!-- Title: G Pages: 1 -->
<svg width="736pt" height="332pt"
 viewBox="0.00 0.00 736.00 331.72" xmlns="http://www.w3.org/2000/svg" xmlns:xlink="http://www.w3.org/1999/xlink">
<g id="graph1" class="graph" transform="scale(1 1) rotate(0) translate(4 327.717)">
<title>G</title>
<polygon fill="white" stroke="white" points="-4,5 -4,-327.717 733,-327.717 733,5 -4,5"/>
<!-- Node1 -->
<g id="node1" class="node"><title>Node1</title>
<polygon fill="#bfbfbf" stroke="black" points="148.5,-147.217 148.5,-168.217 283.5,-168.217 283.5,-147.217 148.5,-147.217"/>
<text text-anchor="middle" x="216" y="-155.217" font-family="Helvetica,sans-Serif" font-size="10.00">gaia::base::Array&lt; TYPE &gt;</text>
</g>
<!-- Node3 -->
<g id="node5" class="node"><title>Node3</title>
<a xlink:href="../../d2/db0/classgaia_1_1base_1_1_array.html" target="_top" xlink:title="gaia::base::Array\&lt; SHA1FingerPrint \&gt;">
<polygon fill="white" stroke="black" points="513,-287.217 513,-308.217 695,-308.217 695,-287.217 513,-287.217"/>
<text text-anchor="middle" x="604" y="-295.217" font-family="Helvetica,sans-Serif" font-size="10.00">gaia::base::Array&lt; SHA1FingerPrint &gt;</text>
</a>
</g>
<!-- Node1&#45;&gt;Node3 -->
<g id="edge4" class="edge"><title>Node1&#45;&gt;Node3</title>
<path fill="none" stroke="orange" stroke-dasharray="5,2" d="M224.295,-177.923C236.705,-205.241 262.905,-253.029 302,-274.717 373.386,-314.317 469.257,-314.346 533.661,-308.234"/>
<polygon fill="orange" stroke="orange" points="227.416,-176.324 220.216,-168.552 220.998,-179.118 227.416,-176.324"/>
<text text-anchor="middle" x="382" y="-314.717" font-family="Helvetica,sans-Serif" font-size="10.00"> &lt; SHA1FingerPrint &gt;</text>
</g>
<!-- Node4 -->
<g id="node7" class="node"><title>Node4</title>
<a xlink:href="../../d2/db0/classgaia_1_1base_1_1_array.html" target="_top" xlink:title="gaia::base::Array\&lt; float \&gt;">
<polygon fill="white" stroke="black" points="540,-247.217 540,-268.217 668,-268.217 668,-247.217 540,-247.217"/>
<text text-anchor="middle" x="604" y="-255.217" font-family="Helvetica,sans-Serif" font-size="10.00">gaia::base::Array&lt; float &gt;</text>
</a>
</g>
<!-- Node1&#45;&gt;Node4 -->
<g id="edge6" class="edge"><title>Node1&#45;&gt;Node4</title>
<path fill="none" stroke="orange" stroke-dasharray="5,2" d="M232.67,-175.745C248.736,-191.837 274.586,-214.535 302,-225.717 379.5,-257.33 477.014,-262.041 539.919,-261.058"/>
<polygon fill="orange" stroke="orange" points="235.078,-173.201 225.605,-168.456 230.052,-178.073 235.078,-173.201"/>
<text text-anchor="middle" x="382" y="-261.717" font-family="Helvetica,sans-Serif" font-size="10.00"> &lt; float &gt;</text>
</g>
<!-- Node5 -->
<g id="node9" class="node"><title>Node5</title>
<a xlink:href="../../d2/db0/classgaia_1_1base_1_1_array.html" target="_top" xlink:title="gaia::base::Array\&lt; TextKeyListener * \&gt;">
<polygon fill="white" stroke="black" points="510.5,-207.217 510.5,-228.217 697.5,-228.217 697.5,-207.217 510.5,-207.217"/>
<text text-anchor="middle" x="604" y="-215.217" font-family="Helvetica,sans-Serif" font-size="10.00">gaia::base::Array&lt; TextKeyListener * &gt;</text>
</a>
</g>
<!-- Node1&#45;&gt;Node5 -->
<g id="edge8" class="edge"><title>Node1&#45;&gt;Node5</title>
<path fill="none" stroke="orange" stroke-dasharray="5,2" d="M251.859,-171.802C267.1,-177.264 285.201,-183.07 302,-186.717 370.89,-201.671 450.231,-209.462 510.298,-213.492"/>
<polygon fill="orange" stroke="orange" points="252.892,-168.453 242.299,-168.289 250.478,-175.024 252.892,-168.453"/>
<text text-anchor="middle" x="382" y="-212.717" font-family="Helvetica,sans-Serif" font-size="10.00"> &lt; TextKeyListener * &gt;</text>
</g>
<!-- Node6 -->
<g id="node11" class="node"><title>Node6</title>
<a xlink:href="../../d2/db0/classgaia_1_1base_1_1_array.html" target="_top" xlink:title="gaia::base::Array\&lt; IPEndPoint \&gt;">
<polygon fill="white" stroke="black" points="525,-167.217 525,-188.217 683,-188.217 683,-167.217 525,-167.217"/>
<text text-anchor="middle" x="604" y="-175.217" font-family="Helvetica,sans-Serif" font-size="10.00">gaia::base::Array&lt; IPEndPoint &gt;</text>
</a>
</g>
<!-- Node1&#45;&gt;Node6 -->
<g id="edge10" class="edge"><title>Node1&#45;&gt;Node6</title>
<path fill="none" stroke="orange" stroke-dasharray="5,2" d="M293.676,-161.721C360.769,-165.179 457.289,-170.155 524.817,-173.635"/>
<polygon fill="orange" stroke="orange" points="293.751,-158.22 283.584,-161.201 293.391,-165.211 293.751,-158.22"/>
<text text-anchor="middle" x="382" y="-173.717" font-family="Helvetica,sans-Serif" font-size="10.00"> &lt; IPEndPoint &gt;</text>
</g>
<!-- Node7 -->
<g id="node13" class="node"><title>Node7</title>
<a xlink:href="../../d2/db0/classgaia_1_1base_1_1_array.html" target="_top" xlink:title="gaia::base::Array\&lt; gaia::security::X509Certificate * \&gt;">
<polygon fill="white" stroke="black" points="480,-127.217 480,-148.217 728,-148.217 728,-127.217 480,-127.217"/>
<text text-anchor="middle" x="604" y="-135.217" font-family="Helvetica,sans-Serif" font-size="10.00">gaia::base::Array&lt; gaia::security::X509Certificate * &gt;</text>
</a>
</g>
<!-- Node1&#45;&gt;Node7 -->
<g id="edge12" class="edge"><title>Node1&#45;&gt;Node7</title>
<path fill="none" stroke="orange" stroke-dasharray="5,2" d="M289.931,-145.927C294.008,-145.469 298.051,-145.06 302,-144.717 360.257,-139.659 425.056,-137.679 479.647,-137.056"/>
<polygon fill="orange" stroke="orange" points="289.27,-142.482 279.763,-147.158 290.111,-149.431 289.27,-142.482"/>
<text text-anchor="middle" x="382" y="-148.717" font-family="Helvetica,sans-Serif" font-size="10.00"> &lt; gaia::security::X509Certificate * &gt;</text>
</g>
<!-- Node8 -->
<g id="node15" class="node"><title>Node8</title>
<a xlink:href="../../d2/db0/classgaia_1_1base_1_1_array.html" target="_top" xlink:title="gaia::base::Array\&lt; DigitsKeyListener * \&gt;">
<polygon fill="white" stroke="black" points="507.5,-87.2169 507.5,-108.217 700.5,-108.217 700.5,-87.2169 507.5,-87.2169"/>
<text text-anchor="middle" x="604" y="-95.2169" font-family="Helvetica,sans-Serif" font-size="10.00">gaia::base::Array&lt; DigitsKeyListener * &gt;</text>
</a>
</g>
<!-- Node1&#45;&gt;Node8 -->
<g id="edge14" class="edge"><title>Node1&#45;&gt;Node8</title>
<path fill="none" stroke="orange" stroke-dasharray="5,2" d="M244.535,-142.61C260.893,-134.68 282.077,-125.617 302,-120.717 369.273,-104.172 447.29,-98.5648 507.175,-97.0194"/>
<polygon fill="orange" stroke="orange" points="242.897,-139.516 235.507,-147.108 246.018,-145.781 242.897,-139.516"/>
<text text-anchor="middle" x="382" y="-124.717" font-family="Helvetica,sans-Serif" font-size="10.00"> &lt; DigitsKeyListener * &gt;</text>
</g>
<!-- Node9 -->
<g id="node17" class="node"><title>Node9</title>
<a xlink:href="../../d2/db0/classgaia_1_1base_1_1_array.html" target="_top" xlink:title="gaia::base::Array\&lt; gaia::base::String \&gt;">
<polygon fill="white" stroke="black" points="511.5,-47.2169 511.5,-68.2169 696.5,-68.2169 696.5,-47.2169 511.5,-47.2169"/>
<text text-anchor="middle" x="604" y="-55.2169" font-family="Helvetica,sans-Serif" font-size="10.00">gaia::base::Array&lt; gaia::base::String &gt;</text>
</a>
</g>
<!-- Node1&#45;&gt;Node9 -->
<g id="edge16" class="edge"><title>Node1&#45;&gt;Node9</title>
<path fill="none" stroke="orange" stroke-dasharray="5,2" d="M230.939,-139.14C246.56,-121.218 272.832,-95.045 302,-82.7169 368.147,-54.7593 449.615,-49.5082 511.259,-50.6978"/>
<polygon fill="orange" stroke="orange" points="227.932,-137.277 224.161,-147.179 233.283,-141.79 227.932,-137.277"/>
<text text-anchor="middle" x="382" y="-86.7169" font-family="Helvetica,sans-Serif" font-size="10.00"> &lt; gaia::base::String &gt;</text>
</g>
<!-- Node10 -->
<g id="node19" class="node"><title>Node10</title>
<a xlink:href="../../d2/db0/classgaia_1_1base_1_1_array.html" target="_top" xlink:title="gaia::base::Array\&lt; const gaia::graphics::Drawer * \&gt;">
<polygon fill="white" stroke="black" points="483.5,-7.21692 483.5,-28.2169 724.5,-28.2169 724.5,-7.21692 483.5,-7.21692"/>
<text text-anchor="middle" x="604" y="-15.2169" font-family="Helvetica,sans-Serif" font-size="10.00">gaia::base::Array&lt; const gaia::graphics::Drawer * &gt;</text>
</a>
</g>
<!-- Node1&#45;&gt;Node10 -->
<g id="edge18" class="edge"><title>Node1&#45;&gt;Node10</title>
<path fill="none" stroke="orange" stroke-dasharray="5,2" d="M223.424,-137.624C235.185,-109.029 261.053,-57.5365 302,-34.7169 379.178,8.29395 485.357,2.11214 549.08,-7.17928"/>
<polygon fill="orange" stroke="orange" points="220.129,-136.44 219.728,-147.027 226.644,-139.001 220.129,-136.44"/>
<text text-anchor="middle" x="382" y="-38.7169" font-family="Helvetica,sans-Serif" font-size="10.00"> &lt; const gaia::graphics::Drawer * &gt;</text>
</g>
<!-- Node2 -->
<g id="node2" class="node"><title>Node2</title>
<a xlink:href="../../d2/d80/classgaia_1_1base_1_1_array_impl.html" target="_top" xlink:title="Implements array data structure and its operation methods.">
<polygon fill="white" stroke="black" points="0,-147.217 0,-168.217 110,-168.217 110,-147.217 0,-147.217"/>
<text text-anchor="middle" x="55" y="-155.217" font-family="Helvetica,sans-Serif" font-size="10.00">gaia::base::ArrayImpl</text>
</a>
</g>
<!-- Node2&#45;&gt;Node1 -->
<g id="edge2" class="edge"><title>Node2&#45;&gt;Node1</title>
<path fill="none" stroke="#8b1a1a" d="M120.571,-157.717C129.696,-157.717 139.086,-157.717 148.25,-157.717"/>
<polygon fill="#8b1a1a" stroke="#8b1a1a" points="120.407,-154.217 110.407,-157.717 120.407,-161.217 120.407,-154.217"/>
</g>
</g>
</svg>
