<?xml version="1.0" encoding="UTF-8" standalone="no"?>
<!DOCTYPE svg PUBLIC "-//W3C//DTD SVG 1.1//EN"
 "http://www.w3.org/Graphics/SVG/1.1/DTD/svg11.dtd">
<!-- Generated by graphviz version 2.26.3 (20100126.1600)
 -->
<!-- Title: G Pages: 1 -->
<svg width="336pt" height="146pt"
 viewBox="0.00 0.00 336.00 146.00" xmlns="http://www.w3.org/2000/svg" xmlns:xlink="http://www.w3.org/1999/xlink">
<g id="graph1" class="graph" transform="scale(1 1) rotate(0) translate(4 142)">
<title>G</title>
<polygon fill="white" stroke="white" points="-4,5 -4,-142 333,-142 333,5 -4,5"/>
<!-- Node1 -->
<g id="node1" class="node"><title>Node1</title>
<polygon fill="#bfbfbf" stroke="black" points="-0.5,-116.5 -0.5,-137.5 328.5,-137.5 328.5,-116.5 -0.5,-116.5"/>
<text text-anchor="middle" x="164" y="-124.5" font-family="Helvetica,sans-Serif" font-size="10.00">/home/vilon_tao/gaia/sdk/include/gaia/telephony/cat/CatCmdMessage.h</text>
</g>
<!-- Node2 -->
<g id="node3" class="node"><title>Node2</title>
<polygon fill="white" stroke="#bfbfbf" points="37.5,-0.5 37.5,-21.5 86.5,-21.5 86.5,-0.5 37.5,-0.5"/>
<text text-anchor="middle" x="62" y="-8.5" font-family="Helvetica,sans-Serif" font-size="10.00">stdint.h</text>
</g>
<!-- Node1&#45;&gt;Node2 -->
<g id="edge2" class="edge"><title>Node1&#45;&gt;Node2</title>
<path fill="none" stroke="midnightblue" d="M127.175,-116.477C108.411,-109.229 86.8926,-97.6507 74,-80 63.9415,-66.2294 61.3024,-46.8375 60.9723,-32.1168"/>
<polygon fill="midnightblue" stroke="midnightblue" points="64.4739,-31.979 61.0852,-21.9407 57.4743,-31.9012 64.4739,-31.979"/>
</g>
<!-- Node3 -->
<g id="node5" class="node"><title>Node3</title>
<a xlink:href="../../d1/dd0/gmacros_8h.html" target="_top" xlink:title="gaia/base/gmacros.h">
<polygon fill="white" stroke="black" points="164.5,-0.5 164.5,-21.5 271.5,-21.5 271.5,-0.5 164.5,-0.5"/>
<text text-anchor="middle" x="218" y="-8.5" font-family="Helvetica,sans-Serif" font-size="10.00">gaia/base/gmacros.h</text>
</a>
</g>
<!-- Node1&#45;&gt;Node3 -->
<g id="edge4" class="edge"><title>Node1&#45;&gt;Node3</title>
<path fill="none" stroke="midnightblue" d="M204.399,-116.439C222.918,-109.357 243.13,-97.9401 254,-80 264.28,-63.0347 250.929,-42.8349 237.67,-28.6902"/>
<polygon fill="midnightblue" stroke="midnightblue" points="240.02,-26.0906 230.465,-21.514 235.08,-31.0505 240.02,-26.0906"/>
</g>
<!-- Node4 -->
<g id="node7" class="node"><title>Node4</title>
<a xlink:href="../../d2/d7b/_app_interface_8h.html" target="_top" xlink:title="gaia/telephony/cat/AppInterface.h">
<polygon fill="white" stroke="black" points="82.5,-58.5 82.5,-79.5 245.5,-79.5 245.5,-58.5 82.5,-58.5"/>
<text text-anchor="middle" x="164" y="-66.5" font-family="Helvetica,sans-Serif" font-size="10.00">gaia/telephony/cat/AppInterface.h</text>
</a>
</g>
<!-- Node1&#45;&gt;Node4 -->
<g id="edge6" class="edge"><title>Node1&#45;&gt;Node4</title>
<path fill="none" stroke="midnightblue" d="M164,-116.362C164,-108.922 164,-98.7427 164,-89.7276"/>
<polygon fill="midnightblue" stroke="midnightblue" points="167.5,-89.5706 164,-79.5707 160.5,-89.5707 167.5,-89.5706"/>
</g>
<!-- Node4&#45;&gt;Node2 -->
<g id="edge8" class="edge"><title>Node4&#45;&gt;Node2</title>
<path fill="none" stroke="midnightblue" d="M145.292,-58.3619C129.619,-49.4502 107.036,-36.6087 89.3373,-26.5447"/>
<polygon fill="midnightblue" stroke="midnightblue" points="91.0128,-23.4712 80.5898,-21.5707 87.5526,-29.5562 91.0128,-23.4712"/>
</g>
<!-- Node4&#45;&gt;Node3 -->
<g id="edge10" class="edge"><title>Node4&#45;&gt;Node3</title>
<path fill="none" stroke="midnightblue" d="M173.904,-58.3619C181.516,-50.1861 192.208,-38.7025 201.157,-29.0907"/>
<polygon fill="midnightblue" stroke="midnightblue" points="203.906,-31.2746 208.158,-21.5707 198.783,-26.5046 203.906,-31.2746"/>
</g>
</g>
</svg>
