<?xml version="1.0" encoding="UTF-8" standalone="no"?>
<!DOCTYPE svg PUBLIC "-//W3C//DTD SVG 1.1//EN"
 "http://www.w3.org/Graphics/SVG/1.1/DTD/svg11.dtd">
<!-- Generated by graphviz version 2.26.3 (20100126.1600)
 -->
<!-- Title: G Pages: 1 -->
<svg width="276pt" height="88pt"
 viewBox="0.00 0.00 276.00 88.00" xmlns="http://www.w3.org/2000/svg" xmlns:xlink="http://www.w3.org/1999/xlink">
<g id="graph1" class="graph" transform="scale(1 1) rotate(0) translate(4 84)">
<title>G</title>
<polygon fill="white" stroke="white" points="-4,5 -4,-84 273,-84 273,5 -4,5"/>
<!-- Node1 -->
<g id="node1" class="node"><title>Node1</title>
<polygon fill="#bfbfbf" stroke="black" points="0,-58.5 0,-79.5 268,-79.5 268,-58.5 0,-58.5"/>
<text text-anchor="middle" x="134" y="-66.5" font-family="Helvetica,sans-Serif" font-size="10.00">/home/vilon_tao/gaia/sdk/include/gaia/service/EditorInfo.h</text>
</g>
<!-- Node2 -->
<g id="node3" class="node"><title>Node2</title>
<a xlink:href="../../da/df9/_input_type_8h.html" target="_top" xlink:title="gaia/text/InputType.h">
<polygon fill="white" stroke="black" points="26.5,-0.5 26.5,-21.5 135.5,-21.5 135.5,-0.5 26.5,-0.5"/>
<text text-anchor="middle" x="81" y="-8.5" font-family="Helvetica,sans-Serif" font-size="10.00">gaia/text/InputType.h</text>
</a>
</g>
<!-- Node1&#45;&gt;Node2 -->
<g id="edge2" class="edge"><title>Node1&#45;&gt;Node2</title>
<path fill="none" stroke="midnightblue" d="M124.279,-58.3619C116.808,-50.1861 106.314,-38.7025 97.5311,-29.0907"/>
<polygon fill="midnightblue" stroke="midnightblue" points="99.9889,-26.5918 90.6594,-21.5707 94.8214,-31.3138 99.9889,-26.5918"/>
</g>
<!-- Node3 -->
<g id="node5" class="node"><title>Node3</title>
<polygon fill="white" stroke="#bfbfbf" points="153,-0.5 153,-21.5 221,-21.5 221,-0.5 153,-0.5"/>
<text text-anchor="middle" x="187" y="-8.5" font-family="Helvetica,sans-Serif" font-size="10.00">sys/types.h</text>
</g>
<!-- Node1&#45;&gt;Node3 -->
<g id="edge4" class="edge"><title>Node1&#45;&gt;Node3</title>
<path fill="none" stroke="midnightblue" d="M143.721,-58.3619C151.192,-50.1861 161.686,-38.7025 170.469,-29.0907"/>
<polygon fill="midnightblue" stroke="midnightblue" points="173.179,-31.3138 177.341,-21.5707 168.011,-26.5918 173.179,-31.3138"/>
</g>
</g>
</svg>
