<?xml version="1.0" encoding="UTF-8" standalone="no"?>
<!DOCTYPE svg PUBLIC "-//W3C//DTD SVG 1.1//EN"
 "http://www.w3.org/Graphics/SVG/1.1/DTD/svg11.dtd">
<!-- Generated by graphviz version 2.26.3 (20100126.1600)
 -->
<!-- Title: G Pages: 1 -->
<svg width="402pt" height="146pt"
 viewBox="0.00 0.00 402.00 146.00" xmlns="http://www.w3.org/2000/svg" xmlns:xlink="http://www.w3.org/1999/xlink">
<g id="graph1" class="graph" transform="scale(1 1) rotate(0) translate(4 142)">
<title>G</title>
<polygon fill="white" stroke="white" points="-4,5 -4,-142 399,-142 399,5 -4,5"/>
<!-- Node1 -->
<g id="node1" class="node"><title>Node1</title>
<polygon fill="#bfbfbf" stroke="black" points="-0.5,-116.5 -0.5,-137.5 394.5,-137.5 394.5,-116.5 -0.5,-116.5"/>
<text text-anchor="middle" x="197" y="-124.5" font-family="Helvetica,sans-Serif" font-size="10.00">/home/vilon_tao/gaia/sdk/include/gaia/connectivity/bluetooth/BtProfileServiceListener.h</text>
</g>
<!-- Node2 -->
<g id="node3" class="node"><title>Node2</title>
<polygon fill="white" stroke="#bfbfbf" points="57.5,-0.5 57.5,-21.5 106.5,-21.5 106.5,-0.5 57.5,-0.5"/>
<text text-anchor="middle" x="82" y="-8.5" font-family="Helvetica,sans-Serif" font-size="10.00">stdint.h</text>
</g>
<!-- Node1&#45;&gt;Node2 -->
<g id="edge2" class="edge"><title>Node1&#45;&gt;Node2</title>
<path fill="none" stroke="midnightblue" d="M136.141,-116.465C115.421,-109.653 94.3858,-98.4423 82,-80 72.6331,-66.0527 73.5295,-46.6778 76.2551,-32.0084"/>
<polygon fill="midnightblue" stroke="midnightblue" points="79.7547,-32.4026 78.5563,-21.8757 72.9285,-30.8523 79.7547,-32.4026"/>
</g>
<!-- Node3 -->
<g id="node5" class="node"><title>Node3</title>
<a xlink:href="../../d1/dd0/gmacros_8h.html" target="_top" xlink:title="gaia/base/gmacros.h">
<polygon fill="white" stroke="black" points="210.5,-0.5 210.5,-21.5 317.5,-21.5 317.5,-0.5 210.5,-0.5"/>
<text text-anchor="middle" x="264" y="-8.5" font-family="Helvetica,sans-Serif" font-size="10.00">gaia/base/gmacros.h</text>
</a>
</g>
<!-- Node1&#45;&gt;Node3 -->
<g id="edge4" class="edge"><title>Node1&#45;&gt;Node3</title>
<path fill="none" stroke="midnightblue" d="M257.859,-116.465C278.579,-109.653 299.614,-98.4423 312,-80 324.026,-62.0937 306.162,-41.862 288.916,-27.9598"/>
<polygon fill="midnightblue" stroke="midnightblue" points="290.716,-24.9327 280.632,-21.6815 286.488,-30.5114 290.716,-24.9327"/>
</g>
<!-- Node4 -->
<g id="node7" class="node"><title>Node4</title>
<a xlink:href="../../d6/dcc/_bluetooth_profile_8h.html" target="_top" xlink:title="gaia/connectivity/bluetooth/BluetoothProfile.h">
<polygon fill="white" stroke="black" points="90.5,-58.5 90.5,-79.5 303.5,-79.5 303.5,-58.5 90.5,-58.5"/>
<text text-anchor="middle" x="197" y="-66.5" font-family="Helvetica,sans-Serif" font-size="10.00">gaia/connectivity/bluetooth/BluetoothProfile.h</text>
</a>
</g>
<!-- Node1&#45;&gt;Node4 -->
<g id="edge6" class="edge"><title>Node1&#45;&gt;Node4</title>
<path fill="none" stroke="midnightblue" d="M197,-116.362C197,-108.922 197,-98.7427 197,-89.7276"/>
<polygon fill="midnightblue" stroke="midnightblue" points="200.5,-89.5706 197,-79.5707 193.5,-89.5707 200.5,-89.5706"/>
</g>
<!-- Node4&#45;&gt;Node2 -->
<g id="edge8" class="edge"><title>Node4&#45;&gt;Node2</title>
<path fill="none" stroke="midnightblue" d="M176.174,-58.4966C158.294,-49.4786 132.293,-36.3649 112.139,-26.2006"/>
<polygon fill="midnightblue" stroke="midnightblue" points="113.564,-22.9994 103.059,-21.6212 110.412,-29.2495 113.564,-22.9994"/>
</g>
<!-- Node4&#45;&gt;Node3 -->
<g id="edge10" class="edge"><title>Node4&#45;&gt;Node3</title>
<path fill="none" stroke="midnightblue" d="M209.289,-58.3619C219.017,-49.9408 232.798,-38.0105 244.095,-28.2308"/>
<polygon fill="midnightblue" stroke="midnightblue" points="246.519,-30.7619 251.789,-21.5707 241.938,-25.4695 246.519,-30.7619"/>
</g>
</g>
</svg>
