<?xml version="1.0" encoding="UTF-8" standalone="no"?>
<!DOCTYPE svg PUBLIC "-//W3C//DTD SVG 1.1//EN"
 "http://www.w3.org/Graphics/SVG/1.1/DTD/svg11.dtd">
<!-- Generated by graphviz version 2.26.3 (20100126.1600)
 -->
<!-- Title: G Pages: 1 -->
<svg width="6266pt" height="320pt"
 viewBox="0.00 0.00 6266.00 320.00" xmlns="http://www.w3.org/2000/svg" xmlns:xlink="http://www.w3.org/1999/xlink">
<g id="graph1" class="graph" transform="scale(1 1) rotate(0) translate(4 316)">
<title>G</title>
<polygon fill="white" stroke="white" points="-4,5 -4,-316 6263,-316 6263,5 -4,5"/>
<!-- Node1 -->
<g id="node1" class="node"><title>Node1</title>
<polygon fill="#bfbfbf" stroke="black" points="1843.5,-290.5 1843.5,-311.5 2136.5,-311.5 2136.5,-290.5 1843.5,-290.5"/>
<text text-anchor="middle" x="1990" y="-298.5" font-family="Helvetica,sans-Serif" font-size="10.00">/home/vilon_tao/gaia/sdk/include/gaia/core/ComponentLoader.h</text>
</g>
<!-- Node2 -->
<g id="node3" class="node"><title>Node2</title>
<a xlink:href="../../db/dbd/_export_8h.html" target="_top" xlink:title="/home/vilon_tao/gaia/sdk/include/gaia/core/Export.h">
<polygon fill="white" stroke="black" points="3415,-232.5 3415,-253.5 3657,-253.5 3657,-232.5 3415,-232.5"/>
<text text-anchor="middle" x="3536" y="-240.5" font-family="Helvetica,sans-Serif" font-size="10.00">/home/vilon_tao/gaia/sdk/include/gaia/core/Export.h</text>
</a>
</g>
<!-- Node1&#45;&gt;Node2 -->
<g id="edge2" class="edge"><title>Node1&#45;&gt;Node2</title>
<path fill="none" stroke="midnightblue" d="M2147.23,-295.101C2456.39,-283.503 3137.45,-257.952 3414.84,-247.545"/>
<polygon fill="midnightblue" stroke="midnightblue" points="2146.7,-291.619 2136.84,-295.491 2146.96,-298.614 2146.7,-291.619"/>
</g>
<!-- Node11 -->
<g id="node21" class="node"><title>Node11</title>
<a xlink:href="../../d7/d9b/_delegate_test_case_8h.html" target="_top" xlink:title="/home/vilon_tao/gaia/sdk/include/gaia/testing/DelegateTestCase.h">
<polygon fill="white" stroke="black" points="-0.5,-116.5 -0.5,-137.5 304.5,-137.5 304.5,-116.5 -0.5,-116.5"/>
<text text-anchor="middle" x="152" y="-124.5" font-family="Helvetica,sans-Serif" font-size="10.00">/home/vilon_tao/gaia/sdk/include/gaia/testing/DelegateTestCase.h</text>
</a>
</g>
<!-- Node1&#45;&gt;Node11 -->
<g id="edge82" class="edge"><title>Node1&#45;&gt;Node11</title>
<path fill="none" stroke="midnightblue" d="M1868.54,-289.501C1531.32,-257.577 587.102,-168.19 262.92,-137.501"/>
<polygon fill="midnightblue" stroke="midnightblue" points="1868.54,-293.017 1878.82,-290.475 1869.2,-286.048 1868.54,-293.017"/>
</g>
<!-- Node3 -->
<g id="node5" class="node"><title>Node3</title>
<a xlink:href="../../d9/dfd/_delegate_8h.html" target="_top" xlink:title="/home/vilon_tao/gaia/sdk/include/gaia/core/Delegate.h">
<polygon fill="white" stroke="black" points="1386,-174.5 1386,-195.5 1638,-195.5 1638,-174.5 1386,-174.5"/>
<text text-anchor="middle" x="1512" y="-182.5" font-family="Helvetica,sans-Serif" font-size="10.00">/home/vilon_tao/gaia/sdk/include/gaia/core/Delegate.h</text>
</a>
</g>
<!-- Node2&#45;&gt;Node3 -->
<g id="edge4" class="edge"><title>Node2&#45;&gt;Node3</title>
<path fill="none" stroke="midnightblue" d="M3404.54,-239.233C3036.6,-228.689 1999.73,-198.977 1638.22,-188.617"/>
<polygon fill="midnightblue" stroke="midnightblue" points="3404.6,-242.736 3414.7,-239.524 3404.8,-235.739 3404.6,-242.736"/>
</g>
<!-- Node6 -->
<g id="node11" class="node"><title>Node6</title>
<a xlink:href="../../d9/d05/_demand_delegate_8h.html" target="_top" xlink:title="/home/vilon_tao/gaia/sdk/include/gaia/core/DemandDelegate.h">
<polygon fill="white" stroke="black" points="2427.5,-116.5 2427.5,-137.5 2716.5,-137.5 2716.5,-116.5 2427.5,-116.5"/>
<text text-anchor="middle" x="2572" y="-124.5" font-family="Helvetica,sans-Serif" font-size="10.00">/home/vilon_tao/gaia/sdk/include/gaia/core/DemandDelegate.h</text>
</a>
</g>
<!-- Node2&#45;&gt;Node6 -->
<g id="edge24" class="edge"><title>Node2&#45;&gt;Node6</title>
<path fill="none" stroke="midnightblue" d="M3423.62,-231.415C3336.39,-222.267 3212.45,-208.931 3104,-196 2942.16,-176.703 2752.98,-151.545 2649.47,-137.556"/>
<polygon fill="midnightblue" stroke="midnightblue" points="3423.5,-234.921 3433.81,-232.482 3424.23,-227.959 3423.5,-234.921"/>
</g>
<!-- Node2&#45;&gt;Node11 -->
<g id="edge72" class="edge"><title>Node2&#45;&gt;Node11</title>
<path fill="none" stroke="midnightblue" d="M3404.53,-241.634C3067.48,-237.807 2145.02,-225.285 1377,-196 903.753,-177.955 785.7,-167.031 313,-138 310.204,-137.828 307.38,-137.653 304.536,-137.475"/>
<polygon fill="midnightblue" stroke="midnightblue" points="3404.78,-245.137 3414.82,-241.75 3404.86,-238.137 3404.78,-245.137"/>
</g>
<!-- Node13 -->
<g id="node26" class="node"><title>Node13</title>
<a xlink:href="../../dc/ddc/_fragment_8h.html" target="_top" xlink:title="/home/vilon_tao/gaia/sdk/include/gaia/core/Fragment.h">
<polygon fill="white" stroke="black" points="3234,-174.5 3234,-195.5 3488,-195.5 3488,-174.5 3234,-174.5"/>
<text text-anchor="middle" x="3361" y="-182.5" font-family="Helvetica,sans-Serif" font-size="10.00">/home/vilon_tao/gaia/sdk/include/gaia/core/Fragment.h</text>
</a>
</g>
<!-- Node2&#45;&gt;Node13 -->
<g id="edge26" class="edge"><title>Node2&#45;&gt;Node13</title>
<path fill="none" stroke="midnightblue" d="M3494.6,-229.279C3463.42,-218.944 3421.3,-204.985 3392.75,-195.523"/>
<polygon fill="midnightblue" stroke="midnightblue" points="3493.72,-232.673 3504.31,-232.497 3495.92,-226.028 3493.72,-232.673"/>
</g>
<!-- Node14 -->
<g id="node28" class="node"><title>Node14</title>
<a xlink:href="../../de/d85/_list_fragment_8h.html" target="_top" xlink:title="/home/vilon_tao/gaia/sdk/include/gaia/core/ListFragment.h">
<polygon fill="white" stroke="black" points="2734,-116.5 2734,-137.5 3004,-137.5 3004,-116.5 2734,-116.5"/>
<text text-anchor="middle" x="2869" y="-124.5" font-family="Helvetica,sans-Serif" font-size="10.00">/home/vilon_tao/gaia/sdk/include/gaia/core/ListFragment.h</text>
</a>
</g>
<!-- Node2&#45;&gt;Node14 -->
<g id="edge34" class="edge"><title>Node2&#45;&gt;Node14</title>
<path fill="none" stroke="midnightblue" d="M3450.23,-231.014C3387.69,-222.036 3300.95,-209.094 3225,-196 3115.96,-177.203 2988.85,-151.694 2919.87,-137.549"/>
<polygon fill="midnightblue" stroke="midnightblue" points="3450.05,-234.524 3460.45,-232.476 3451.04,-227.594 3450.05,-234.524"/>
</g>
<!-- Node17 -->
<g id="node35" class="node"><title>Node17</title>
<a xlink:href="../../db/ded/_page_8h.html" target="_top" xlink:title="/home/vilon_tao/gaia/sdk/include/gaia/core/Page.h">
<polygon fill="white" stroke="black" points="4351,-174.5 4351,-195.5 4587,-195.5 4587,-174.5 4351,-174.5"/>
<text text-anchor="middle" x="4469" y="-182.5" font-family="Helvetica,sans-Serif" font-size="10.00">/home/vilon_tao/gaia/sdk/include/gaia/core/Page.h</text>
</a>
</g>
<!-- Node2&#45;&gt;Node17 -->
<g id="edge36" class="edge"><title>Node2&#45;&gt;Node17</title>
<path fill="none" stroke="midnightblue" d="M3667.19,-234.845C3849.26,-223.526 4175.86,-203.223 4350.77,-192.35"/>
<polygon fill="midnightblue" stroke="midnightblue" points="3666.78,-231.363 3657.02,-235.477 3667.21,-238.35 3666.78,-231.363"/>
</g>
<!-- Node21 -->
<g id="node43" class="node"><title>Node21</title>
<a xlink:href="../../d2/d74/_page_instrumentation_test_case_8h.html" target="_top" xlink:title="/home/vilon_tao/gaia/sdk/include/gaia/testing/PageInstrumentationTestCase.h">
<polygon fill="white" stroke="black" points="5902,-0.5 5902,-21.5 6258,-21.5 6258,-0.5 5902,-0.5"/>
<text text-anchor="middle" x="6080" y="-8.5" font-family="Helvetica,sans-Serif" font-size="10.00">/home/vilon_tao/gaia/sdk/include/gaia/testing/PageInstrumentationTestCase.h</text>
</a>
</g>
<!-- Node2&#45;&gt;Node21 -->
<g id="edge74" class="edge"><title>Node2&#45;&gt;Node21</title>
<path fill="none" stroke="midnightblue" d="M3667.44,-241.049C3950.39,-236.469 4638.17,-223.292 5214,-196 5407.1,-186.848 5930.27,-257.79 6082,-138 6110.6,-115.417 6107.28,-93.7096 6100,-58 6097.34,-44.9666 6090.93,-31.0705 6086.08,-21.7974"/>
<polygon fill="midnightblue" stroke="midnightblue" points="3667.08,-237.554 3657.14,-241.215 3667.19,-244.553 3667.08,-237.554"/>
</g>
<!-- Node22 -->
<g id="node45" class="node"><title>Node22</title>
<a xlink:href="../../db/deb/_page_unit_test_case_8h.html" target="_top" xlink:title="/home/vilon_tao/gaia/sdk/include/gaia/testing/PageUnitTestCase.h">
<polygon fill="white" stroke="black" points="3634.5,-0.5 3634.5,-21.5 3941.5,-21.5 3941.5,-0.5 3634.5,-0.5"/>
<text text-anchor="middle" x="3788" y="-8.5" font-family="Helvetica,sans-Serif" font-size="10.00">/home/vilon_tao/gaia/sdk/include/gaia/testing/PageUnitTestCase.h</text>
</a>
</g>
<!-- Node2&#45;&gt;Node22 -->
<g id="edge76" class="edge"><title>Node2&#45;&gt;Node22</title>
<path fill="none" stroke="midnightblue" d="M3565.32,-227.421C3598.55,-208.892 3653.27,-175.69 3693,-138 3732.55,-100.48 3767.75,-45.0266 3781.67,-21.8252"/>
<polygon fill="midnightblue" stroke="midnightblue" points="3563.22,-224.584 3556.14,-232.469 3566.59,-230.717 3563.22,-224.584"/>
</g>
<!-- Node23 -->
<g id="node47" class="node"><title>Node23</title>
<a xlink:href="../../d2/dc6/_single_launch_page_test_case_8h.html" target="_top" xlink:title="/home/vilon_tao/gaia/sdk/include/gaia/testing/SingleLaunchPageTestCase.h">
<polygon fill="white" stroke="black" points="3815.5,-58.5 3815.5,-79.5 4162.5,-79.5 4162.5,-58.5 3815.5,-58.5"/>
<text text-anchor="middle" x="3989" y="-66.5" font-family="Helvetica,sans-Serif" font-size="10.00">/home/vilon_tao/gaia/sdk/include/gaia/testing/SingleLaunchPageTestCase.h</text>
</a>
</g>
<!-- Node2&#45;&gt;Node23 -->
<g id="edge80" class="edge"><title>Node2&#45;&gt;Node23</title>
<path fill="none" stroke="midnightblue" d="M3616.97,-230.39C3651.63,-223.13 3691.9,-212.148 3726,-196 3779.67,-170.588 3779.99,-142.749 3833,-116 3866.33,-99.1798 3906.77,-87.2096 3938.12,-79.5598"/>
<polygon fill="midnightblue" stroke="midnightblue" points="3615.98,-227.018 3606.88,-232.432 3617.37,-233.879 3615.98,-227.018"/>
</g>
<!-- Node30 -->
<g id="node65" class="node"><title>Node30</title>
<a xlink:href="../../dc/d85/_persistent_page_8h.html" target="_top" xlink:title="/home/vilon_tao/gaia/sdk/include/gaia/core/PersistentPage.h">
<polygon fill="white" stroke="black" points="4605,-174.5 4605,-195.5 4885,-195.5 4885,-174.5 4605,-174.5"/>
<text text-anchor="middle" x="4745" y="-182.5" font-family="Helvetica,sans-Serif" font-size="10.00">/home/vilon_tao/gaia/sdk/include/gaia/core/PersistentPage.h</text>
</a>
</g>
<!-- Node2&#45;&gt;Node30 -->
<g id="edge70" class="edge"><title>Node2&#45;&gt;Node30</title>
<path fill="none" stroke="midnightblue" d="M3667.55,-238.41C3867.99,-231.136 4261.85,-215.738 4596,-196 4598.85,-195.832 4601.73,-195.658 4604.63,-195.479"/>
<polygon fill="midnightblue" stroke="midnightblue" points="3667.14,-234.923 3657.27,-238.782 3667.39,-241.918 3667.14,-234.923"/>
</g>
<!-- Node31 -->
<g id="node70" class="node"><title>Node31</title>
<a xlink:href="../../d6/d29/_provider_test_case_8h.html" target="_top" xlink:title="/home/vilon_tao/gaia/sdk/include/gaia/testing/ProviderTestCase.h">
<polygon fill="white" stroke="black" points="4903,-174.5 4903,-195.5 5205,-195.5 5205,-174.5 4903,-174.5"/>
<text text-anchor="middle" x="5054" y="-182.5" font-family="Helvetica,sans-Serif" font-size="10.00">/home/vilon_tao/gaia/sdk/include/gaia/testing/ProviderTestCase.h</text>
</a>
</g>
<!-- Node2&#45;&gt;Node31 -->
<g id="edge78" class="edge"><title>Node2&#45;&gt;Node31</title>
<path fill="none" stroke="midnightblue" d="M3667.6,-239.934C3910.21,-233.95 4444.3,-219.234 4894,-196 4897.06,-195.842 4900.15,-195.677 4903.27,-195.507"/>
<polygon fill="midnightblue" stroke="midnightblue" points="3667.24,-236.442 3657.33,-240.186 3667.41,-243.44 3667.24,-236.442"/>
</g>
<!-- Node4 -->
<g id="node7" class="node"><title>Node4</title>
<a xlink:href="../../d7/d00/_bluetooth_headset_service_8h.html" target="_top" xlink:title="/home/vilon_tao/gaia/sdk/include/gaia/connectivity/bluetooth/BluetoothHeadsetService.h">
<polygon fill="white" stroke="black" points="1311.5,-116.5 1311.5,-137.5 1712.5,-137.5 1712.5,-116.5 1311.5,-116.5"/>
<text text-anchor="middle" x="1512" y="-124.5" font-family="Helvetica,sans-Serif" font-size="10.00">/home/vilon_tao/gaia/sdk/include/gaia/connectivity/bluetooth/BluetoothHeadsetService.h</text>
</a>
</g>
<!-- Node3&#45;&gt;Node4 -->
<g id="edge6" class="edge"><title>Node3&#45;&gt;Node4</title>
<path fill="none" stroke="midnightblue" d="M1512,-164.191C1512,-155.168 1512,-144.994 1512,-137.571"/>
<polygon fill="midnightblue" stroke="midnightblue" points="1508.5,-164.362 1512,-174.362 1515.5,-164.362 1508.5,-164.362"/>
</g>
<!-- Node5 -->
<g id="node9" class="node"><title>Node5</title>
<a xlink:href="../../df/d24/_bluetooth_pbap_service_8h.html" target="_top" xlink:title="/home/vilon_tao/gaia/sdk/include/gaia/connectivity/bluetooth/BluetoothPbapService.h">
<polygon fill="white" stroke="black" points="1730,-116.5 1730,-137.5 2116,-137.5 2116,-116.5 1730,-116.5"/>
<text text-anchor="middle" x="1923" y="-124.5" font-family="Helvetica,sans-Serif" font-size="10.00">/home/vilon_tao/gaia/sdk/include/gaia/connectivity/bluetooth/BluetoothPbapService.h</text>
</a>
</g>
<!-- Node3&#45;&gt;Node5 -->
<g id="edge8" class="edge"><title>Node3&#45;&gt;Node5</title>
<path fill="none" stroke="midnightblue" d="M1596.67,-173.052C1670.8,-162.591 1777.46,-147.538 1848.43,-137.523"/>
<polygon fill="midnightblue" stroke="midnightblue" points="1595.84,-169.634 1586.43,-174.497 1596.82,-176.565 1595.84,-169.634"/>
</g>
<!-- Node3&#45;&gt;Node6 -->
<g id="edge10" class="edge"><title>Node3&#45;&gt;Node6</title>
<path fill="none" stroke="midnightblue" d="M1648.41,-178.783C1825.93,-170.496 2145.75,-154.901 2419,-138 2421.79,-137.827 2424.61,-137.65 2427.45,-137.47"/>
<polygon fill="midnightblue" stroke="midnightblue" points="1648.06,-175.295 1638.23,-179.257 1648.38,-182.288 1648.06,-175.295"/>
</g>
<!-- Node7 -->
<g id="node13" class="node"><title>Node7</title>
<a xlink:href="../../d0/d0a/_i_m_e_service_8h.html" target="_top" xlink:title="/home/vilon_tao/gaia/sdk/include/gaia/service/IMEService.h">
<polygon fill="white" stroke="black" points="2133.5,-116.5 2133.5,-137.5 2410.5,-137.5 2410.5,-116.5 2133.5,-116.5"/>
<text text-anchor="middle" x="2272" y="-124.5" font-family="Helvetica,sans-Serif" font-size="10.00">/home/vilon_tao/gaia/sdk/include/gaia/service/IMEService.h</text>
</a>
</g>
<!-- Node3&#45;&gt;Node7 -->
<g id="edge12" class="edge"><title>Node3&#45;&gt;Node7</title>
<path fill="none" stroke="midnightblue" d="M1648.53,-174.581C1785.91,-164.096 1996.65,-148.014 2134.41,-137.5"/>
<polygon fill="midnightblue" stroke="midnightblue" points="1648.06,-171.106 1638.35,-175.357 1648.59,-178.086 1648.06,-171.106"/>
</g>
<!-- Node8 -->
<g id="node15" class="node"><title>Node8</title>
<a xlink:href="../../d0/d01/_spell_checker_delegate_8h.html" target="_top" xlink:title="/home/vilon_tao/gaia/sdk/include/gaia/service/SpellCheckerDelegate.h">
<polygon fill="white" stroke="black" points="321.5,-116.5 321.5,-137.5 644.5,-137.5 644.5,-116.5 321.5,-116.5"/>
<text text-anchor="middle" x="483" y="-124.5" font-family="Helvetica,sans-Serif" font-size="10.00">/home/vilon_tao/gaia/sdk/include/gaia/service/SpellCheckerDelegate.h</text>
</a>
</g>
<!-- Node3&#45;&gt;Node8 -->
<g id="edge14" class="edge"><title>Node3&#45;&gt;Node8</title>
<path fill="none" stroke="midnightblue" d="M1375.49,-177.951C1206.02,-169.103 908.135,-153.234 653,-138 650.195,-137.833 647.365,-137.662 644.514,-137.49"/>
<polygon fill="midnightblue" stroke="midnightblue" points="1375.54,-181.458 1385.71,-178.484 1375.91,-174.468 1375.54,-181.458"/>
</g>
<!-- Node9 -->
<g id="node17" class="node"><title>Node9</title>
<a xlink:href="../../db/d42/_wallpaper_delegate_8h.html" target="_top" xlink:title="/home/vilon_tao/gaia/sdk/include/gaia/service/WallpaperDelegate.h">
<polygon fill="white" stroke="black" points="662,-116.5 662,-137.5 970,-137.5 970,-116.5 662,-116.5"/>
<text text-anchor="middle" x="816" y="-124.5" font-family="Helvetica,sans-Serif" font-size="10.00">/home/vilon_tao/gaia/sdk/include/gaia/service/WallpaperDelegate.h</text>
</a>
</g>
<!-- Node3&#45;&gt;Node9 -->
<g id="edge16" class="edge"><title>Node3&#45;&gt;Node9</title>
<path fill="none" stroke="midnightblue" d="M1375.88,-173.656C1250.13,-163.177 1064.79,-147.732 942.277,-137.523"/>
<polygon fill="midnightblue" stroke="midnightblue" points="1375.7,-177.154 1385.96,-174.497 1376.28,-170.178 1375.7,-177.154"/>
</g>
<!-- Node3&#45;&gt;Node11 -->
<g id="edge20" class="edge"><title>Node3&#45;&gt;Node11</title>
<path fill="none" stroke="midnightblue" d="M1375.84,-180.95C1153.38,-174.044 698.157,-158.702 313,-138 310.063,-137.842 307.095,-137.679 304.105,-137.51"/>
<polygon fill="midnightblue" stroke="midnightblue" points="1375.83,-184.451 1385.93,-181.263 1376.04,-177.455 1375.83,-184.451"/>
</g>
<!-- Node12 -->
<g id="node23" class="node"><title>Node12</title>
<a xlink:href="../../da/dbc/_remote_widget_delegate_8h.html" target="_top" xlink:title="/home/vilon_tao/gaia/sdk/include/gaia/ui/RemoteWidgetDelegate.h">
<polygon fill="white" stroke="black" points="988,-116.5 988,-137.5 1294,-137.5 1294,-116.5 988,-116.5"/>
<text text-anchor="middle" x="1141" y="-124.5" font-family="Helvetica,sans-Serif" font-size="10.00">/home/vilon_tao/gaia/sdk/include/gaia/ui/RemoteWidgetDelegate.h</text>
</a>
</g>
<!-- Node3&#45;&gt;Node12 -->
<g id="edge22" class="edge"><title>Node3&#45;&gt;Node12</title>
<path fill="none" stroke="midnightblue" d="M1434.75,-172.923C1367.87,-162.468 1272.11,-147.497 1208.31,-137.523"/>
<polygon fill="midnightblue" stroke="midnightblue" points="1434.39,-176.41 1444.81,-174.497 1435.48,-169.494 1434.39,-176.41"/>
</g>
<!-- Node10 -->
<g id="node19" class="node"><title>Node10</title>
<a xlink:href="../../d3/d26/_g_l_wallpaper_engine_8h.html" target="_top" xlink:title="/home/vilon_tao/gaia/sdk/include/gaia/service/GLWallpaperEngine.h">
<polygon fill="white" stroke="black" points="660,-58.5 660,-79.5 972,-79.5 972,-58.5 660,-58.5"/>
<text text-anchor="middle" x="816" y="-66.5" font-family="Helvetica,sans-Serif" font-size="10.00">/home/vilon_tao/gaia/sdk/include/gaia/service/GLWallpaperEngine.h</text>
</a>
</g>
<!-- Node9&#45;&gt;Node10 -->
<g id="edge18" class="edge"><title>Node9&#45;&gt;Node10</title>
<path fill="none" stroke="midnightblue" d="M816,-106.191C816,-97.1684 816,-86.9941 816,-79.5707"/>
<polygon fill="midnightblue" stroke="midnightblue" points="812.5,-106.362 816,-116.362 819.5,-106.362 812.5,-106.362"/>
</g>
<!-- Node13&#45;&gt;Node14 -->
<g id="edge28" class="edge"><title>Node13&#45;&gt;Node14</title>
<path fill="none" stroke="midnightblue" d="M3261.82,-173.308C3173,-162.837 3043.91,-147.62 2958.26,-137.523"/>
<polygon fill="midnightblue" stroke="midnightblue" points="3261.56,-176.802 3271.9,-174.497 3262.38,-169.85 3261.56,-176.802"/>
</g>
<!-- Node15 -->
<g id="node30" class="node"><title>Node15</title>
<a xlink:href="../../d7/d54/_preference_fragment_8h.html" target="_top" xlink:title="/home/vilon_tao/gaia/sdk/include/gaia/ui/preference/PreferenceFragment.h">
<polygon fill="white" stroke="black" points="3021.5,-116.5 3021.5,-137.5 3360.5,-137.5 3360.5,-116.5 3021.5,-116.5"/>
<text text-anchor="middle" x="3191" y="-124.5" font-family="Helvetica,sans-Serif" font-size="10.00">/home/vilon_tao/gaia/sdk/include/gaia/ui/preference/PreferenceFragment.h</text>
</a>
</g>
<!-- Node13&#45;&gt;Node15 -->
<g id="edge30" class="edge"><title>Node13&#45;&gt;Node15</title>
<path fill="none" stroke="midnightblue" d="M3320.39,-171.144C3290.14,-160.823 3249.46,-146.944 3221.84,-137.523"/>
<polygon fill="midnightblue" stroke="midnightblue" points="3319.62,-174.58 3330.21,-174.497 3321.88,-167.955 3319.62,-174.58"/>
</g>
<!-- Node16 -->
<g id="node32" class="node"><title>Node16</title>
<a xlink:href="../../d1/db3/_web_view_fragment_8h.html" target="_top" xlink:title="/home/vilon_tao/gaia/sdk/include/gaia/webkit/WebViewFragment.h">
<polygon fill="white" stroke="black" points="3378,-116.5 3378,-137.5 3684,-137.5 3684,-116.5 3378,-116.5"/>
<text text-anchor="middle" x="3531" y="-124.5" font-family="Helvetica,sans-Serif" font-size="10.00">/home/vilon_tao/gaia/sdk/include/gaia/webkit/WebViewFragment.h</text>
</a>
</g>
<!-- Node13&#45;&gt;Node16 -->
<g id="edge32" class="edge"><title>Node13&#45;&gt;Node16</title>
<path fill="none" stroke="midnightblue" d="M3401.61,-171.144C3431.86,-160.823 3472.54,-146.944 3500.16,-137.523"/>
<polygon fill="midnightblue" stroke="midnightblue" points="3400.12,-167.955 3391.79,-174.497 3402.38,-174.58 3400.12,-167.955"/>
</g>
<!-- Node18 -->
<g id="node37" class="node"><title>Node18</title>
<a xlink:href="../../d9/d48/_account_authenticator_page_8h.html" target="_top" xlink:title="/home/vilon_tao/gaia/sdk/include/gaia/accounts/AccountAuthenticatorPage.h">
<polygon fill="white" stroke="black" points="5702,-116.5 5702,-137.5 6052,-137.5 6052,-116.5 5702,-116.5"/>
<text text-anchor="middle" x="5877" y="-124.5" font-family="Helvetica,sans-Serif" font-size="10.00">/home/vilon_tao/gaia/sdk/include/gaia/accounts/AccountAuthenticatorPage.h</text>
</a>
</g>
<!-- Node17&#45;&gt;Node18 -->
<g id="edge38" class="edge"><title>Node17&#45;&gt;Node18</title>
<path fill="none" stroke="midnightblue" d="M4597.4,-173.945C5084.65,-145.154 5209.03,-160.403 5693,-138 5696.36,-137.845 5699.75,-137.683 5703.16,-137.517"/>
<polygon fill="midnightblue" stroke="midnightblue" points="4597.06,-170.458 4587.29,-174.545 4597.48,-177.446 4597.06,-170.458"/>
</g>
<!-- Node19 -->
<g id="node39" class="node"><title>Node19</title>
<a xlink:href="../../d0/d54/_instrumentation_test_case_8h.html" target="_top" xlink:title="/home/vilon_tao/gaia/sdk/include/gaia/testing/InstrumentationTestCase.h">
<polygon fill="white" stroke="black" points="3854,-116.5 3854,-137.5 4188,-137.5 4188,-116.5 3854,-116.5"/>
<text text-anchor="middle" x="4021" y="-124.5" font-family="Helvetica,sans-Serif" font-size="10.00">/home/vilon_tao/gaia/sdk/include/gaia/testing/InstrumentationTestCase.h</text>
</a>
</g>
<!-- Node17&#45;&gt;Node19 -->
<g id="edge40" class="edge"><title>Node17&#45;&gt;Node19</title>
<path fill="none" stroke="midnightblue" d="M4377.7,-173.18C4296.86,-162.714 4179.95,-147.579 4102.28,-137.523"/>
<polygon fill="midnightblue" stroke="midnightblue" points="4377.5,-176.684 4387.87,-174.497 4378.4,-169.742 4377.5,-176.684"/>
</g>
<!-- Node17&#45;&gt;Node21 -->
<g id="edge50" class="edge"><title>Node17&#45;&gt;Node21</title>
<path fill="none" stroke="midnightblue" d="M4597.36,-174.206C4732.96,-171.24 6031.56,-163.999 6061,-138 6094.75,-108.189 6087.07,-46.351 6082.33,-21.5893"/>
<polygon fill="midnightblue" stroke="midnightblue" points="4597.17,-170.71 4587.29,-174.513 4597.39,-177.706 4597.17,-170.71"/>
</g>
<!-- Node17&#45;&gt;Node22 -->
<g id="edge52" class="edge"><title>Node17&#45;&gt;Node22</title>
<path fill="none" stroke="midnightblue" d="M4340.75,-182.49C4166.93,-178.035 3873.47,-166.379 3833,-138 3794.12,-110.736 3788.61,-46.8535 3787.99,-21.5707"/>
<polygon fill="midnightblue" stroke="midnightblue" points="4340.9,-185.995 4350.99,-182.748 4341.08,-178.997 4340.9,-185.995"/>
</g>
<!-- Node17&#45;&gt;Node23 -->
<g id="edge54" class="edge"><title>Node17&#45;&gt;Node23</title>
<path fill="none" stroke="midnightblue" d="M4340.71,-179.756C4162.97,-171.856 3861.61,-155.91 3845,-138 3817.19,-108.02 3869.23,-89.6814 3918.34,-79.5215"/>
<polygon fill="midnightblue" stroke="midnightblue" points="4340.78,-183.262 4350.92,-180.207 4341.09,-176.269 4340.78,-183.262"/>
</g>
<!-- Node24 -->
<g id="node52" class="node"><title>Node24</title>
<a xlink:href="../../d3/d9b/_combo_picker_8h.html" target="_top" xlink:title="/home/vilon_tao/gaia/sdk/include/gaia/ui/ComboPicker.h">
<polygon fill="white" stroke="black" points="4205.5,-116.5 4205.5,-137.5 4466.5,-137.5 4466.5,-116.5 4205.5,-116.5"/>
<text text-anchor="middle" x="4336" y="-124.5" font-family="Helvetica,sans-Serif" font-size="10.00">/home/vilon_tao/gaia/sdk/include/gaia/ui/ComboPicker.h</text>
</a>
</g>
<!-- Node17&#45;&gt;Node24 -->
<g id="edge56" class="edge"><title>Node17&#45;&gt;Node24</title>
<path fill="none" stroke="midnightblue" d="M4435.7,-170.479C4412.29,-160.269 4381.49,-146.839 4360.36,-137.621"/>
<polygon fill="midnightblue" stroke="midnightblue" points="4434.35,-173.707 4444.91,-174.497 4437.15,-167.291 4434.35,-173.707"/>
</g>
<!-- Node25 -->
<g id="node54" class="node"><title>Node25</title>
<a xlink:href="../../d4/d1e/_hint_box_8h.html" target="_top" xlink:title="/home/vilon_tao/gaia/sdk/include/gaia/ui/HintBox.h">
<polygon fill="white" stroke="black" points="4483.5,-116.5 4483.5,-137.5 4720.5,-137.5 4720.5,-116.5 4483.5,-116.5"/>
<text text-anchor="middle" x="4602" y="-124.5" font-family="Helvetica,sans-Serif" font-size="10.00">/home/vilon_tao/gaia/sdk/include/gaia/ui/HintBox.h</text>
</a>
</g>
<!-- Node17&#45;&gt;Node25 -->
<g id="edge58" class="edge"><title>Node17&#45;&gt;Node25</title>
<path fill="none" stroke="midnightblue" d="M4502.3,-170.479C4525.71,-160.269 4556.51,-146.839 4577.64,-137.621"/>
<polygon fill="midnightblue" stroke="midnightblue" points="4500.85,-167.291 4493.09,-174.497 4503.65,-173.707 4500.85,-167.291"/>
</g>
<!-- Node26 -->
<g id="node56" class="node"><title>Node26</title>
<a xlink:href="../../d3/dc6/_preference_page_8h.html" target="_top" xlink:title="/home/vilon_tao/gaia/sdk/include/gaia/ui/preference/PreferencePage.h">
<polygon fill="white" stroke="black" points="4738,-116.5 4738,-137.5 5058,-137.5 5058,-116.5 4738,-116.5"/>
<text text-anchor="middle" x="4898" y="-124.5" font-family="Helvetica,sans-Serif" font-size="10.00">/home/vilon_tao/gaia/sdk/include/gaia/ui/preference/PreferencePage.h</text>
</a>
</g>
<!-- Node17&#45;&gt;Node26 -->
<g id="edge60" class="edge"><title>Node17&#45;&gt;Node26</title>
<path fill="none" stroke="midnightblue" d="M4556.9,-173.116C4634.3,-162.652 4745.94,-147.558 4820.17,-137.523"/>
<polygon fill="midnightblue" stroke="midnightblue" points="4556.13,-169.688 4546.69,-174.497 4557.07,-176.625 4556.13,-169.688"/>
</g>
<!-- Node27 -->
<g id="node58" class="node"><title>Node27</title>
<a xlink:href="../../d5/db8/_search_edit_widget_8h.html" target="_top" xlink:title="/home/vilon_tao/gaia/sdk/include/gaia/ui/SearchEditWidget.h">
<polygon fill="white" stroke="black" points="5075.5,-116.5 5075.5,-137.5 5356.5,-137.5 5356.5,-116.5 5075.5,-116.5"/>
<text text-anchor="middle" x="5216" y="-124.5" font-family="Helvetica,sans-Serif" font-size="10.00">/home/vilon_tao/gaia/sdk/include/gaia/ui/SearchEditWidget.h</text>
</a>
</g>
<!-- Node17&#45;&gt;Node27 -->
<g id="edge62" class="edge"><title>Node17&#45;&gt;Node27</title>
<path fill="none" stroke="midnightblue" d="M4597.55,-173.884C4701.28,-165.544 4926.7,-148.598 5075.18,-137.498"/>
<polygon fill="midnightblue" stroke="midnightblue" points="4596.99,-170.418 4587.3,-174.712 4597.55,-177.395 4596.99,-170.418"/>
</g>
<!-- Node28 -->
<g id="node60" class="node"><title>Node28</title>
<a xlink:href="../../d5/d80/_widget_animator_8h.html" target="_top" xlink:title="/home/vilon_tao/gaia/sdk/include/gaia/ui/WidgetAnimator.h">
<polygon fill="white" stroke="black" points="5412,-116.5 5412,-137.5 5684,-137.5 5684,-116.5 5412,-116.5"/>
<text text-anchor="middle" x="5548" y="-124.5" font-family="Helvetica,sans-Serif" font-size="10.00">/home/vilon_tao/gaia/sdk/include/gaia/ui/WidgetAnimator.h</text>
</a>
</g>
<!-- Node17&#45;&gt;Node28 -->
<g id="edge64" class="edge"><title>Node17&#45;&gt;Node28</title>
<path fill="none" stroke="midnightblue" d="M4597.37,-173.933C4953.72,-150.755 5045.12,-158.855 5398,-138 5402.56,-137.73 5407.2,-137.446 5411.88,-137.151"/>
<polygon fill="midnightblue" stroke="midnightblue" points="4597.04,-170.447 4587.29,-174.592 4597.5,-177.432 4597.04,-170.447"/>
</g>
<!-- Node29 -->
<g id="node62" class="node"><title>Node29</title>
<a xlink:href="../../dd/de8/_widget_switcher_8h.html" target="_top" xlink:title="/home/vilon_tao/gaia/sdk/include/gaia/ui/WidgetSwitcher.h">
<polygon fill="white" stroke="black" points="5330.5,-58.5 5330.5,-79.5 5601.5,-79.5 5601.5,-58.5 5330.5,-58.5"/>
<text text-anchor="middle" x="5466" y="-66.5" font-family="Helvetica,sans-Serif" font-size="10.00">/home/vilon_tao/gaia/sdk/include/gaia/ui/WidgetSwitcher.h</text>
</a>
</g>
<!-- Node17&#45;&gt;Node29 -->
<g id="edge68" class="edge"><title>Node17&#45;&gt;Node29</title>
<path fill="none" stroke="midnightblue" d="M4597.54,-173.975C4782.79,-163.69 5205.78,-191.304 5365,-138 5374.57,-134.798 5425.57,-98.3407 5451.23,-79.7554"/>
<polygon fill="midnightblue" stroke="midnightblue" points="4597.06,-170.498 4587.29,-174.6 4597.49,-177.485 4597.06,-170.498"/>
</g>
<!-- Node20 -->
<g id="node41" class="node"><title>Node20</title>
<a xlink:href="../../d5/db9/_page_test_case_8h.html" target="_top" xlink:title="/home/vilon_tao/gaia/sdk/include/gaia/testing/PageTestCase.h">
<polygon fill="white" stroke="black" points="4179.5,-58.5 4179.5,-79.5 4468.5,-79.5 4468.5,-58.5 4179.5,-58.5"/>
<text text-anchor="middle" x="4324" y="-66.5" font-family="Helvetica,sans-Serif" font-size="10.00">/home/vilon_tao/gaia/sdk/include/gaia/testing/PageTestCase.h</text>
</a>
</g>
<!-- Node19&#45;&gt;Node20 -->
<g id="edge42" class="edge"><title>Node19&#45;&gt;Node20</title>
<path fill="none" stroke="midnightblue" d="M4085.78,-114.6C4140.32,-104.161 4217.46,-89.3945 4269.03,-79.5231"/>
<polygon fill="midnightblue" stroke="midnightblue" points="4085.03,-111.179 4075.87,-116.497 4086.35,-118.054 4085.03,-111.179"/>
</g>
<!-- Node19&#45;&gt;Node23 -->
<g id="edge48" class="edge"><title>Node19&#45;&gt;Node23</title>
<path fill="none" stroke="midnightblue" d="M4010.17,-107.373C4005.04,-98.0682 3999.11,-87.3204 3994.83,-79.5707"/>
<polygon fill="midnightblue" stroke="midnightblue" points="4007.24,-109.297 4015.13,-116.362 4013.36,-105.915 4007.24,-109.297"/>
</g>
<!-- Node20&#45;&gt;Node21 -->
<g id="edge44" class="edge"><title>Node20&#45;&gt;Node21</title>
<path fill="none" stroke="midnightblue" d="M4479.27,-63.8714C4804.8,-53.1192 5557.05,-28.2729 5901.69,-16.8895"/>
<polygon fill="midnightblue" stroke="midnightblue" points="4478.7,-60.3883 4468.82,-64.2166 4478.93,-67.3845 4478.7,-60.3883"/>
</g>
<!-- Node20&#45;&gt;Node22 -->
<g id="edge46" class="edge"><title>Node20&#45;&gt;Node22</title>
<path fill="none" stroke="midnightblue" d="M4216.83,-57.4032C4120.04,-46.9298 3978.84,-31.6505 3885.25,-21.5231"/>
<polygon fill="midnightblue" stroke="midnightblue" points="4216.62,-60.9004 4226.93,-58.4966 4217.37,-53.9411 4216.62,-60.9004"/>
</g>
<!-- Node28&#45;&gt;Node29 -->
<g id="edge66" class="edge"><title>Node28&#45;&gt;Node29</title>
<path fill="none" stroke="midnightblue" d="M5524.73,-110.541C5510.67,-100.597 5493.17,-88.2177 5480.94,-79.5707"/>
<polygon fill="midnightblue" stroke="midnightblue" points="5522.77,-113.445 5532.96,-116.362 5526.82,-107.73 5522.77,-113.445"/>
</g>
</g>
</svg>
