<?xml version="1.0" encoding="UTF-8" standalone="no"?>
<!DOCTYPE svg PUBLIC "-//W3C//DTD SVG 1.1//EN"
 "http://www.w3.org/Graphics/SVG/1.1/DTD/svg11.dtd">
<!-- Generated by graphviz version 2.26.3 (20100126.1600)
 -->
<!-- Title: G Pages: 1 -->
<svg width="528pt" height="146pt"
 viewBox="0.00 0.00 528.00 146.00" xmlns="http://www.w3.org/2000/svg" xmlns:xlink="http://www.w3.org/1999/xlink">
<g id="graph1" class="graph" transform="scale(1 1) rotate(0) translate(4 142)">
<title>G</title>
<polygon fill="white" stroke="white" points="-4,5 -4,-142 525,-142 525,5 -4,5"/>
<!-- Node1 -->
<g id="node1" class="node"><title>Node1</title>
<polygon fill="#bfbfbf" stroke="black" points="95.5,-116.5 95.5,-137.5 392.5,-137.5 392.5,-116.5 95.5,-116.5"/>
<text text-anchor="middle" x="244" y="-124.5" font-family="Helvetica,sans-Serif" font-size="10.00">/home/vilon_tao/gaia/sdk/include/gaia/core/vision/TouchHelper.h</text>
</g>
<!-- Node2 -->
<g id="node3" class="node"><title>Node2</title>
<a xlink:href="../../d3/dd0/_event_control_8h.html" target="_top" xlink:title="gaia/core/event/EventControl.h">
<polygon fill="white" stroke="black" points="0,-58.5 0,-79.5 152,-79.5 152,-58.5 0,-58.5"/>
<text text-anchor="middle" x="76" y="-66.5" font-family="Helvetica,sans-Serif" font-size="10.00">gaia/core/event/EventControl.h</text>
</a>
</g>
<!-- Node1&#45;&gt;Node2 -->
<g id="edge2" class="edge"><title>Node1&#45;&gt;Node2</title>
<path fill="none" stroke="midnightblue" d="M213.576,-116.497C186.306,-107.082 146.107,-93.2036 116.196,-82.8773"/>
<polygon fill="midnightblue" stroke="midnightblue" points="117.075,-79.4781 106.481,-79.5231 114.791,-86.0949 117.075,-79.4781"/>
</g>
<!-- Node4 -->
<g id="node7" class="node"><title>Node4</title>
<a xlink:href="../../dc/de9/_motion_event_8h.html" target="_top" xlink:title="gaia/core/event/MotionEvent.h">
<polygon fill="white" stroke="black" points="169.5,-58.5 169.5,-79.5 318.5,-79.5 318.5,-58.5 169.5,-58.5"/>
<text text-anchor="middle" x="244" y="-66.5" font-family="Helvetica,sans-Serif" font-size="10.00">gaia/core/event/MotionEvent.h</text>
</a>
</g>
<!-- Node1&#45;&gt;Node4 -->
<g id="edge6" class="edge"><title>Node1&#45;&gt;Node4</title>
<path fill="none" stroke="midnightblue" d="M244,-116.362C244,-108.922 244,-98.7427 244,-89.7276"/>
<polygon fill="midnightblue" stroke="midnightblue" points="247.5,-89.5706 244,-79.5707 240.5,-89.5707 247.5,-89.5706"/>
</g>
<!-- Node5 -->
<g id="node10" class="node"><title>Node5</title>
<a xlink:href="../../d7/dc9/_widget_configuration_8h.html" target="_top" xlink:title="gaia/core/vision/WidgetConfiguration.h">
<polygon fill="white" stroke="black" points="335.5,-58.5 335.5,-79.5 520.5,-79.5 520.5,-58.5 335.5,-58.5"/>
<text text-anchor="middle" x="428" y="-66.5" font-family="Helvetica,sans-Serif" font-size="10.00">gaia/core/vision/WidgetConfiguration.h</text>
</a>
</g>
<!-- Node1&#45;&gt;Node5 -->
<g id="edge10" class="edge"><title>Node1&#45;&gt;Node5</title>
<path fill="none" stroke="midnightblue" d="M277.321,-116.497C307.448,-107 351.983,-92.9619 384.828,-82.6087"/>
<polygon fill="midnightblue" stroke="midnightblue" points="386.131,-85.8676 394.616,-79.5231 384.027,-79.1914 386.131,-85.8676"/>
</g>
<!-- Node3 -->
<g id="node5" class="node"><title>Node3</title>
<polygon fill="white" stroke="#bfbfbf" points="210,-0.5 210,-21.5 278,-21.5 278,-0.5 210,-0.5"/>
<text text-anchor="middle" x="244" y="-8.5" font-family="Helvetica,sans-Serif" font-size="10.00">sys/types.h</text>
</g>
<!-- Node2&#45;&gt;Node3 -->
<g id="edge4" class="edge"><title>Node2&#45;&gt;Node3</title>
<path fill="none" stroke="midnightblue" d="M106.424,-58.4966C133.694,-49.082 173.893,-35.2036 203.804,-24.8773"/>
<polygon fill="midnightblue" stroke="midnightblue" points="205.209,-28.0949 213.519,-21.5231 202.925,-21.4781 205.209,-28.0949"/>
</g>
<!-- Node4&#45;&gt;Node3 -->
<g id="edge8" class="edge"><title>Node4&#45;&gt;Node3</title>
<path fill="none" stroke="midnightblue" d="M244,-58.3619C244,-50.9219 244,-40.7427 244,-31.7276"/>
<polygon fill="midnightblue" stroke="midnightblue" points="247.5,-31.5706 244,-21.5707 240.5,-31.5707 247.5,-31.5706"/>
</g>
<!-- Node5&#45;&gt;Node3 -->
<g id="edge12" class="edge"><title>Node5&#45;&gt;Node3</title>
<path fill="none" stroke="midnightblue" d="M394.679,-58.4966C364.552,-49.0001 320.017,-34.9619 287.172,-24.6087"/>
<polygon fill="midnightblue" stroke="midnightblue" points="287.973,-21.1914 277.384,-21.5231 285.869,-27.8676 287.973,-21.1914"/>
</g>
</g>
</svg>
