<?xml version="1.0" encoding="UTF-8" standalone="no"?>
<!DOCTYPE svg PUBLIC "-//W3C//DTD SVG 1.1//EN"
 "http://www.w3.org/Graphics/SVG/1.1/DTD/svg11.dtd">
<!-- Generated by graphviz version 2.26.3 (20100126.1600)
 -->
<!-- Title: G Pages: 1 -->
<svg width="622pt" height="88pt"
 viewBox="0.00 0.00 622.00 88.00" xmlns="http://www.w3.org/2000/svg" xmlns:xlink="http://www.w3.org/1999/xlink">
<g id="graph1" class="graph" transform="scale(1 1) rotate(0) translate(4 84)">
<title>G</title>
<polygon fill="white" stroke="white" points="-4,5 -4,-84 619,-84 619,5 -4,5"/>
<!-- Node1 -->
<g id="node1" class="node"><title>Node1</title>
<polygon fill="#bfbfbf" stroke="black" points="152.5,-58.5 152.5,-79.5 445.5,-79.5 445.5,-58.5 152.5,-58.5"/>
<text text-anchor="middle" x="299" y="-66.5" font-family="Helvetica,sans-Serif" font-size="10.00">/home/vilon_tao/gaia/sdk/include/gaia/webkit/glue/CppVariant.h</text>
</g>
<!-- Node2 -->
<g id="node3" class="node"><title>Node2</title>
<a xlink:href="../../d0/d4b/_callback_8h.html" target="_top" xlink:title="/home/vilon_tao/gaia/sdk/include/gaia/webkit/glue/Callback.h">
<polygon fill="white" stroke="black" points="0,-0.5 0,-21.5 282,-21.5 282,-0.5 0,-0.5"/>
<text text-anchor="middle" x="141" y="-8.5" font-family="Helvetica,sans-Serif" font-size="10.00">/home/vilon_tao/gaia/sdk/include/gaia/webkit/glue/Callback.h</text>
</a>
</g>
<!-- Node1&#45;&gt;Node2 -->
<g id="edge2" class="edge"><title>Node1&#45;&gt;Node2</title>
<path fill="none" stroke="midnightblue" d="M260.888,-55.0095C232.81,-44.7023 195.218,-30.903 169.666,-21.5231"/>
<polygon fill="midnightblue" stroke="midnightblue" points="259.794,-58.3362 270.387,-58.4966 262.206,-51.7649 259.794,-58.3362"/>
</g>
<!-- Node3 -->
<g id="node5" class="node"><title>Node3</title>
<a xlink:href="../../d8/d21/_cpp_bound_class_8h.html" target="_top" xlink:title="/home/vilon_tao/gaia/sdk/include/gaia/webkit/glue/CppBoundClass.h">
<polygon fill="white" stroke="black" points="299.5,-0.5 299.5,-21.5 614.5,-21.5 614.5,-0.5 299.5,-0.5"/>
<text text-anchor="middle" x="457" y="-8.5" font-family="Helvetica,sans-Serif" font-size="10.00">/home/vilon_tao/gaia/sdk/include/gaia/webkit/glue/CppBoundClass.h</text>
</a>
</g>
<!-- Node1&#45;&gt;Node3 -->
<g id="edge4" class="edge"><title>Node1&#45;&gt;Node3</title>
<path fill="none" stroke="midnightblue" d="M337.112,-55.0095C365.19,-44.7023 402.782,-30.903 428.334,-21.5231"/>
<polygon fill="midnightblue" stroke="midnightblue" points="335.794,-51.7649 327.613,-58.4966 338.206,-58.3362 335.794,-51.7649"/>
</g>
</g>
</svg>
