<?xml version="1.0" encoding="UTF-8" standalone="no"?>
<!DOCTYPE svg PUBLIC "-//W3C//DTD SVG 1.1//EN"
 "http://www.w3.org/Graphics/SVG/1.1/DTD/svg11.dtd">
<!-- Generated by graphviz version 2.26.3 (20100126.1600)
 -->
<!-- Title: G Pages: 1 -->
<svg width="284pt" height="146pt"
 viewBox="0.00 0.00 284.00 146.00" xmlns="http://www.w3.org/2000/svg" xmlns:xlink="http://www.w3.org/1999/xlink">
<g id="graph1" class="graph" transform="scale(1 1) rotate(0) translate(4 142)">
<title>G</title>
<polygon fill="white" stroke="white" points="-4,5 -4,-142 281,-142 281,5 -4,5"/>
<!-- Node1 -->
<g id="node1" class="node"><title>Node1</title>
<polygon fill="#bfbfbf" stroke="black" points="0,-116.5 0,-137.5 276,-137.5 276,-116.5 0,-116.5"/>
<text text-anchor="middle" x="138" y="-124.5" font-family="Helvetica,sans-Serif" font-size="10.00">/home/vilon_tao/gaia/sdk/include/gaia/media/AsyncPlayer.h</text>
</g>
<!-- Node2 -->
<g id="node3" class="node"><title>Node2</title>
<polygon fill="white" stroke="#bfbfbf" points="43.5,-0.5 43.5,-21.5 92.5,-21.5 92.5,-0.5 43.5,-0.5"/>
<text text-anchor="middle" x="68" y="-8.5" font-family="Helvetica,sans-Serif" font-size="10.00">stdint.h</text>
</g>
<!-- Node1&#45;&gt;Node2 -->
<g id="edge2" class="edge"><title>Node1&#45;&gt;Node2</title>
<path fill="none" stroke="midnightblue" d="M108.415,-116.479C92.1715,-109.006 73.4552,-97.2064 64,-80 55.8953,-65.2512 57.8715,-45.9529 61.3155,-31.5168"/>
<polygon fill="midnightblue" stroke="midnightblue" points="64.7714,-32.1541 64.0926,-21.581 58.0298,-30.2697 64.7714,-32.1541"/>
</g>
<!-- Node3 -->
<g id="node5" class="node"><title>Node3</title>
<a xlink:href="../../d1/dd0/gmacros_8h.html" target="_top" xlink:title="gaia/base/gmacros.h">
<polygon fill="white" stroke="black" points="154.5,-0.5 154.5,-21.5 261.5,-21.5 261.5,-0.5 154.5,-0.5"/>
<text text-anchor="middle" x="208" y="-8.5" font-family="Helvetica,sans-Serif" font-size="10.00">gaia/base/gmacros.h</text>
</a>
</g>
<!-- Node1&#45;&gt;Node3 -->
<g id="edge4" class="edge"><title>Node1&#45;&gt;Node3</title>
<path fill="none" stroke="midnightblue" d="M167.585,-116.479C183.829,-109.006 202.545,-97.2064 212,-80 220.105,-65.2512 218.129,-45.9529 214.685,-31.5168"/>
<polygon fill="midnightblue" stroke="midnightblue" points="217.97,-30.2697 211.907,-21.581 211.229,-32.1541 217.97,-30.2697"/>
</g>
<!-- Node4 -->
<g id="node7" class="node"><title>Node4</title>
<a xlink:href="../../d9/d66/_audio_control_8h.html" target="_top" xlink:title="gaia/media/AudioControl.h">
<polygon fill="white" stroke="black" points="72.5,-58.5 72.5,-79.5 203.5,-79.5 203.5,-58.5 72.5,-58.5"/>
<text text-anchor="middle" x="138" y="-66.5" font-family="Helvetica,sans-Serif" font-size="10.00">gaia/media/AudioControl.h</text>
</a>
</g>
<!-- Node1&#45;&gt;Node4 -->
<g id="edge6" class="edge"><title>Node1&#45;&gt;Node4</title>
<path fill="none" stroke="midnightblue" d="M138,-116.362C138,-108.922 138,-98.7427 138,-89.7276"/>
<polygon fill="midnightblue" stroke="midnightblue" points="141.5,-89.5706 138,-79.5707 134.5,-89.5707 141.5,-89.5706"/>
</g>
<!-- Node4&#45;&gt;Node2 -->
<g id="edge8" class="edge"><title>Node4&#45;&gt;Node2</title>
<path fill="none" stroke="midnightblue" d="M125.161,-58.3619C114.998,-49.9408 100.599,-38.0105 88.7958,-28.2308"/>
<polygon fill="midnightblue" stroke="midnightblue" points="90.691,-25.2558 80.7577,-21.5707 86.2248,-30.6459 90.691,-25.2558"/>
</g>
<!-- Node4&#45;&gt;Node3 -->
<g id="edge10" class="edge"><title>Node4&#45;&gt;Node3</title>
<path fill="none" stroke="midnightblue" d="M150.839,-58.3619C161.002,-49.9408 175.401,-38.0105 187.204,-28.2308"/>
<polygon fill="midnightblue" stroke="midnightblue" points="189.775,-30.6459 195.242,-21.5707 185.309,-25.2558 189.775,-30.6459"/>
</g>
</g>
</svg>
