<?xml version="1.0" encoding="UTF-8" standalone="no"?>
<!DOCTYPE svg PUBLIC "-//W3C//DTD SVG 1.1//EN"
 "http://www.w3.org/Graphics/SVG/1.1/DTD/svg11.dtd">
<!-- Generated by graphviz version 2.26.3 (20100126.1600)
 -->
<!-- Title: G Pages: 1 -->
<svg width="399pt" height="146pt"
 viewBox="0.00 0.00 398.89 146.00" xmlns="http://www.w3.org/2000/svg" xmlns:xlink="http://www.w3.org/1999/xlink">
<g id="graph1" class="graph" transform="scale(1 1) rotate(0) translate(4 142)">
<title>G</title>
<polygon fill="white" stroke="white" points="-4,5 -4,-142 395.891,-142 395.891,5 -4,5"/>
<!-- Node1 -->
<g id="node1" class="node"><title>Node1</title>
<polygon fill="#bfbfbf" stroke="black" points="21.8948,-116.5 21.8948,-137.5 362.895,-137.5 362.895,-116.5 21.8948,-116.5"/>
<text text-anchor="middle" x="192.395" y="-124.5" font-family="Helvetica,sans-Serif" font-size="10.00">/home/vilon_tao/gaia/sdk/include/gaia/connectivity/obex/ServerOperation.h</text>
</g>
<!-- Node2 -->
<g id="node3" class="node"><title>Node2</title>
<polygon fill="white" stroke="#bfbfbf" points="72.8948,-0.5 72.8948,-21.5 121.895,-21.5 121.895,-0.5 72.8948,-0.5"/>
<text text-anchor="middle" x="97.3948" y="-8.5" font-family="Helvetica,sans-Serif" font-size="10.00">stdint.h</text>
</g>
<!-- Node1&#45;&gt;Node2 -->
<g id="edge2" class="edge"><title>Node1&#45;&gt;Node2</title>
<path fill="none" stroke="midnightblue" d="M110.556,-116.477C66.6034,-108.965 18.7489,-97.1258 5.3948,-80 -14.886,-53.9912 29.3154,-32.8174 63.2248,-21.0686"/>
<polygon fill="midnightblue" stroke="midnightblue" points="64.4995,-24.3335 72.8938,-17.8693 62.3006,-17.6879 64.4995,-24.3335"/>
</g>
<!-- Node3 -->
<g id="node5" class="node"><title>Node3</title>
<a xlink:href="../../d1/dd0/gmacros_8h.html" target="_top" xlink:title="gaia/base/gmacros.h">
<polygon fill="white" stroke="black" points="233.895,-0.5 233.895,-21.5 340.895,-21.5 340.895,-0.5 233.895,-0.5"/>
<text text-anchor="middle" x="287.395" y="-8.5" font-family="Helvetica,sans-Serif" font-size="10.00">gaia/base/gmacros.h</text>
</a>
</g>
<!-- Node1&#45;&gt;Node3 -->
<g id="edge4" class="edge"><title>Node1&#45;&gt;Node3</title>
<path fill="none" stroke="midnightblue" d="M278.931,-116.473C323.697,-109.059 371.786,-97.3212 385.395,-80 404.233,-56.0242 369.396,-36.8885 336.159,-24.9075"/>
<polygon fill="midnightblue" stroke="midnightblue" points="337.011,-21.4998 326.416,-21.5709 334.743,-28.1222 337.011,-21.4998"/>
</g>
<!-- Node4 -->
<g id="node7" class="node"><title>Node4</title>
<a xlink:href="../../d6/dd6/_operation_8h.html" target="_top" xlink:title="gaia/connectivity/obex/Operation.h">
<polygon fill="white" stroke="black" points="13.8948,-58.5 13.8948,-79.5 180.895,-79.5 180.895,-58.5 13.8948,-58.5"/>
<text text-anchor="middle" x="97.3948" y="-66.5" font-family="Helvetica,sans-Serif" font-size="10.00">gaia/connectivity/obex/Operation.h</text>
</a>
</g>
<!-- Node1&#45;&gt;Node4 -->
<g id="edge6" class="edge"><title>Node1&#45;&gt;Node4</title>
<path fill="none" stroke="midnightblue" d="M174.97,-116.362C160.508,-107.532 139.725,-94.844 123.311,-84.8224"/>
<polygon fill="midnightblue" stroke="midnightblue" points="125.068,-81.7943 114.709,-79.5707 121.42,-87.7688 125.068,-81.7943"/>
</g>
<!-- Node5 -->
<g id="node11" class="node"><title>Node5</title>
<a xlink:href="../../df/dcd/_base_stream_8h.html" target="_top" xlink:title="gaia/connectivity/obex/BaseStream.h">
<polygon fill="white" stroke="black" points="197.895,-58.5 197.895,-79.5 376.895,-79.5 376.895,-58.5 197.895,-58.5"/>
<text text-anchor="middle" x="287.395" y="-66.5" font-family="Helvetica,sans-Serif" font-size="10.00">gaia/connectivity/obex/BaseStream.h</text>
</a>
</g>
<!-- Node1&#45;&gt;Node5 -->
<g id="edge12" class="edge"><title>Node1&#45;&gt;Node5</title>
<path fill="none" stroke="midnightblue" d="M209.819,-116.362C224.282,-107.532 245.064,-94.844 261.479,-84.8224"/>
<polygon fill="midnightblue" stroke="midnightblue" points="263.37,-87.7688 270.081,-79.5707 259.722,-81.7943 263.37,-87.7688"/>
</g>
<!-- Node4&#45;&gt;Node2 -->
<g id="edge8" class="edge"><title>Node4&#45;&gt;Node2</title>
<path fill="none" stroke="midnightblue" d="M97.3948,-58.3619C97.3948,-50.9219 97.3948,-40.7427 97.3948,-31.7276"/>
<polygon fill="midnightblue" stroke="midnightblue" points="100.895,-31.5706 97.3948,-21.5707 93.8949,-31.5707 100.895,-31.5706"/>
</g>
<!-- Node4&#45;&gt;Node3 -->
<g id="edge10" class="edge"><title>Node4&#45;&gt;Node3</title>
<path fill="none" stroke="midnightblue" d="M131.802,-58.4966C163.046,-48.9592 209.296,-34.8408 243.252,-24.475"/>
<polygon fill="midnightblue" stroke="midnightblue" points="244.38,-27.7903 252.923,-21.5231 242.337,-21.0953 244.38,-27.7903"/>
</g>
<!-- Node5&#45;&gt;Node2 -->
<g id="edge14" class="edge"><title>Node5&#45;&gt;Node2</title>
<path fill="none" stroke="midnightblue" d="M252.987,-58.4966C218.629,-48.0084 166.124,-31.9804 131.775,-21.4951"/>
<polygon fill="midnightblue" stroke="midnightblue" points="132.755,-18.1349 122.169,-18.5627 130.712,-24.8299 132.755,-18.1349"/>
</g>
<!-- Node5&#45;&gt;Node3 -->
<g id="edge16" class="edge"><title>Node5&#45;&gt;Node3</title>
<path fill="none" stroke="midnightblue" d="M287.395,-58.3619C287.395,-50.9219 287.395,-40.7427 287.395,-31.7276"/>
<polygon fill="midnightblue" stroke="midnightblue" points="290.895,-31.5706 287.395,-21.5707 283.895,-31.5707 290.895,-31.5706"/>
</g>
</g>
</svg>
