<?xml version="1.0" encoding="UTF-8" standalone="no"?>
<!DOCTYPE svg PUBLIC "-//W3C//DTD SVG 1.1//EN"
 "http://www.w3.org/Graphics/SVG/1.1/DTD/svg11.dtd">
<!-- Generated by graphviz version 2.26.3 (20100126.1600)
 -->
<!-- Title: G Pages: 1 -->
<svg width="306pt" height="146pt"
 viewBox="0.00 0.00 306.00 146.00" xmlns="http://www.w3.org/2000/svg" xmlns:xlink="http://www.w3.org/1999/xlink">
<g id="graph1" class="graph" transform="scale(1 1) rotate(0) translate(4 142)">
<title>G</title>
<polygon fill="white" stroke="white" points="-4,5 -4,-142 303,-142 303,5 -4,5"/>
<!-- Node1 -->
<g id="node1" class="node"><title>Node1</title>
<polygon fill="#bfbfbf" stroke="black" points="0,-116.5 0,-137.5 298,-137.5 298,-116.5 0,-116.5"/>
<text text-anchor="middle" x="149" y="-124.5" font-family="Helvetica,sans-Serif" font-size="10.00">/home/vilon_tao/gaia/sdk/include/gaia/graphics/SweepGradient.h</text>
</g>
<!-- Node2 -->
<g id="node3" class="node"><title>Node2</title>
<polygon fill="white" stroke="#bfbfbf" points="60,-58.5 60,-79.5 128,-79.5 128,-58.5 60,-58.5"/>
<text text-anchor="middle" x="94" y="-66.5" font-family="Helvetica,sans-Serif" font-size="10.00">sys/types.h</text>
</g>
<!-- Node1&#45;&gt;Node2 -->
<g id="edge2" class="edge"><title>Node1&#45;&gt;Node2</title>
<path fill="none" stroke="midnightblue" d="M138.912,-116.362C131.159,-108.186 120.27,-96.7025 111.155,-87.0907"/>
<polygon fill="midnightblue" stroke="midnightblue" points="113.445,-84.4186 104.024,-79.5707 108.365,-89.2352 113.445,-84.4186"/>
</g>
<!-- Node3 -->
<g id="node5" class="node"><title>Node3</title>
<a xlink:href="../../d8/d34/_shader_8h.html" target="_top" xlink:title="gaia/graphics/Shader.h">
<polygon fill="white" stroke="black" points="146,-58.5 146,-79.5 262,-79.5 262,-58.5 146,-58.5"/>
<text text-anchor="middle" x="204" y="-66.5" font-family="Helvetica,sans-Serif" font-size="10.00">gaia/graphics/Shader.h</text>
</a>
</g>
<!-- Node1&#45;&gt;Node3 -->
<g id="edge4" class="edge"><title>Node1&#45;&gt;Node3</title>
<path fill="none" stroke="midnightblue" d="M159.088,-116.362C166.841,-108.186 177.73,-96.7025 186.845,-87.0907"/>
<polygon fill="midnightblue" stroke="midnightblue" points="189.635,-89.2352 193.976,-79.5707 184.555,-84.4186 189.635,-89.2352"/>
</g>
<!-- Node4 -->
<g id="node7" class="node"><title>Node4</title>
<a xlink:href="../../d1/dd0/gmacros_8h.html" target="_top" xlink:title="gaia/base/gmacros.h">
<polygon fill="white" stroke="black" points="150.5,-0.5 150.5,-21.5 257.5,-21.5 257.5,-0.5 150.5,-0.5"/>
<text text-anchor="middle" x="204" y="-8.5" font-family="Helvetica,sans-Serif" font-size="10.00">gaia/base/gmacros.h</text>
</a>
</g>
<!-- Node3&#45;&gt;Node4 -->
<g id="edge6" class="edge"><title>Node3&#45;&gt;Node4</title>
<path fill="none" stroke="midnightblue" d="M204,-58.3619C204,-50.9219 204,-40.7427 204,-31.7276"/>
<polygon fill="midnightblue" stroke="midnightblue" points="207.5,-31.5706 204,-21.5707 200.5,-31.5707 207.5,-31.5706"/>
</g>
</g>
</svg>
