<?xml version="1.0" encoding="UTF-8" standalone="no"?>
<!DOCTYPE svg PUBLIC "-//W3C//DTD SVG 1.1//EN"
 "http://www.w3.org/Graphics/SVG/1.1/DTD/svg11.dtd">
<!-- Generated by graphviz version 2.26.3 (20100126.1600)
 -->
<!-- Title: G Pages: 1 -->
<svg width="436pt" height="262pt"
 viewBox="0.00 0.00 436.00 262.00" xmlns="http://www.w3.org/2000/svg" xmlns:xlink="http://www.w3.org/1999/xlink">
<g id="graph1" class="graph" transform="scale(1 1) rotate(0) translate(4 258)">
<title>G</title>
<polygon fill="white" stroke="white" points="-4,5 -4,-258 433,-258 433,5 -4,5"/>
<!-- Node1 -->
<g id="node1" class="node"><title>Node1</title>
<polygon fill="#bfbfbf" stroke="black" points="-0.5,-232.5 -0.5,-253.5 318.5,-253.5 318.5,-232.5 -0.5,-232.5"/>
<text text-anchor="middle" x="159" y="-240.5" font-family="Helvetica,sans-Serif" font-size="10.00">/home/vilon_tao/gaia/sdk/include/gaia/telephony/mms/RetrieveConf.h</text>
</g>
<!-- Node2 -->
<g id="node3" class="node"><title>Node2</title>
<a xlink:href="../../d1/dd0/gmacros_8h.html" target="_top" xlink:title="gaia/base/gmacros.h">
<polygon fill="white" stroke="black" points="93.5,-0.5 93.5,-21.5 200.5,-21.5 200.5,-0.5 93.5,-0.5"/>
<text text-anchor="middle" x="147" y="-8.5" font-family="Helvetica,sans-Serif" font-size="10.00">gaia/base/gmacros.h</text>
</a>
</g>
<!-- Node1&#45;&gt;Node2 -->
<g id="edge2" class="edge"><title>Node1&#45;&gt;Node2</title>
<path fill="none" stroke="midnightblue" d="M141.583,-232.225C129.953,-223.93 115.62,-211.309 109,-196 84.4805,-139.3 116.633,-65.8571 135.322,-31.0248"/>
<polygon fill="midnightblue" stroke="midnightblue" points="138.599,-32.333 140.395,-21.8916 132.48,-28.9337 138.599,-32.333"/>
</g>
<!-- Node3 -->
<g id="node5" class="node"><title>Node3</title>
<a xlink:href="../../d7/d9b/_multimedia_message_pdu_8h.html" target="_top" xlink:title="gaia/telephony/mms/MultimediaMessagePdu.h">
<polygon fill="white" stroke="black" points="118,-174.5 118,-195.5 338,-195.5 338,-174.5 118,-174.5"/>
<text text-anchor="middle" x="228" y="-182.5" font-family="Helvetica,sans-Serif" font-size="10.00">gaia/telephony/mms/MultimediaMessagePdu.h</text>
</a>
</g>
<!-- Node1&#45;&gt;Node3 -->
<g id="edge4" class="edge"><title>Node1&#45;&gt;Node3</title>
<path fill="none" stroke="midnightblue" d="M171.656,-232.362C181.674,-223.941 195.867,-212.011 207.501,-202.231"/>
<polygon fill="midnightblue" stroke="midnightblue" points="210.022,-204.684 215.425,-195.571 205.518,-199.326 210.022,-204.684"/>
</g>
<!-- Node3&#45;&gt;Node2 -->
<g id="edge6" class="edge"><title>Node3&#45;&gt;Node2</title>
<path fill="none" stroke="midnightblue" d="M193.627,-174.333C176.38,-167.043 157.061,-155.47 147,-138 127.851,-104.75 134.736,-58.0187 141.109,-31.4995"/>
<polygon fill="midnightblue" stroke="midnightblue" points="144.508,-32.337 143.645,-21.7774 137.735,-30.5704 144.508,-32.337"/>
</g>
<!-- Node4 -->
<g id="node8" class="node"><title>Node4</title>
<a xlink:href="../../d9/d1b/_generic_pdu_8h.html" target="_top" xlink:title="gaia/telephony/mms/GenericPdu.h">
<polygon fill="white" stroke="black" points="155.5,-116.5 155.5,-137.5 322.5,-137.5 322.5,-116.5 155.5,-116.5"/>
<text text-anchor="middle" x="239" y="-124.5" font-family="Helvetica,sans-Serif" font-size="10.00">gaia/telephony/mms/GenericPdu.h</text>
</a>
</g>
<!-- Node3&#45;&gt;Node4 -->
<g id="edge8" class="edge"><title>Node3&#45;&gt;Node4</title>
<path fill="none" stroke="midnightblue" d="M230.018,-174.362C231.444,-166.84 233.402,-156.519 235.125,-147.431"/>
<polygon fill="midnightblue" stroke="midnightblue" points="238.571,-148.048 236.995,-137.571 231.693,-146.743 238.571,-148.048"/>
</g>
<!-- Node4&#45;&gt;Node2 -->
<g id="edge12" class="edge"><title>Node4&#45;&gt;Node2</title>
<path fill="none" stroke="midnightblue" d="M223.97,-116.246C212.357,-107.422 196.396,-94.1212 185,-80 172.837,-64.9276 162.501,-45.4142 155.694,-30.9865"/>
<polygon fill="midnightblue" stroke="midnightblue" points="158.712,-29.1686 151.385,-21.5159 152.341,-32.0676 158.712,-29.1686"/>
</g>
<!-- Node5 -->
<g id="node10" class="node"><title>Node5</title>
<polygon fill="white" stroke="#bfbfbf" points="194,-58.5 194,-79.5 240,-79.5 240,-58.5 194,-58.5"/>
<text text-anchor="middle" x="217" y="-66.5" font-family="Helvetica,sans-Serif" font-size="10.00">cstdint</text>
</g>
<!-- Node4&#45;&gt;Node5 -->
<g id="edge10" class="edge"><title>Node4&#45;&gt;Node5</title>
<path fill="none" stroke="midnightblue" d="M234.965,-116.362C232.081,-108.758 228.112,-98.294 224.637,-89.1349"/>
<polygon fill="midnightblue" stroke="midnightblue" points="227.829,-87.6793 221.01,-79.5707 221.284,-90.1619 227.829,-87.6793"/>
</g>
<!-- Node6 -->
<g id="node13" class="node"><title>Node6</title>
<a xlink:href="../../d5/d48/_pdu_headers_8h.html" target="_top" xlink:title="gaia/telephony/mms/PduHeaders.h">
<polygon fill="white" stroke="black" points="258,-58.5 258,-79.5 428,-79.5 428,-58.5 258,-58.5"/>
<text text-anchor="middle" x="343" y="-66.5" font-family="Helvetica,sans-Serif" font-size="10.00">gaia/telephony/mms/PduHeaders.h</text>
</a>
</g>
<!-- Node4&#45;&gt;Node6 -->
<g id="edge14" class="edge"><title>Node4&#45;&gt;Node6</title>
<path fill="none" stroke="midnightblue" d="M258.075,-116.362C274.055,-107.45 297.081,-94.6087 315.127,-84.5447"/>
<polygon fill="midnightblue" stroke="midnightblue" points="317.017,-87.4982 324.046,-79.5707 313.607,-81.3846 317.017,-87.4982"/>
</g>
<!-- Node6&#45;&gt;Node2 -->
<g id="edge16" class="edge"><title>Node6&#45;&gt;Node2</title>
<path fill="none" stroke="midnightblue" d="M307.506,-58.4966C275.276,-48.9592 227.566,-34.8408 192.536,-24.475"/>
<polygon fill="midnightblue" stroke="midnightblue" points="193.143,-21.0045 182.561,-21.5231 191.156,-27.7168 193.143,-21.0045"/>
</g>
</g>
</svg>
