<?xml version="1.0" encoding="UTF-8" standalone="no"?>
<!DOCTYPE svg PUBLIC "-//W3C//DTD SVG 1.1//EN"
 "http://www.w3.org/Graphics/SVG/1.1/DTD/svg11.dtd">
<!-- Generated by graphviz version 2.26.3 (20100126.1600)
 -->
<!-- Title: G Pages: 1 -->
<svg width="816pt" height="320pt"
 viewBox="0.00 0.00 816.00 320.00" xmlns="http://www.w3.org/2000/svg" xmlns:xlink="http://www.w3.org/1999/xlink">
<g id="graph1" class="graph" transform="scale(1 1) rotate(0) translate(4 316)">
<title>G</title>
<polygon fill="white" stroke="white" points="-4,5 -4,-316 813,-316 813,5 -4,5"/>
<!-- Node1 -->
<g id="node1" class="node"><title>Node1</title>
<polygon fill="#bfbfbf" stroke="black" points="0,-290.5 0,-311.5 278,-311.5 278,-290.5 0,-290.5"/>
<text text-anchor="middle" x="139" y="-298.5" font-family="Helvetica,sans-Serif" font-size="10.00">/home/vilon_tao/gaia/sdk/include/gaia/ui/CompoundButton.h</text>
</g>
<!-- Node2 -->
<g id="node3" class="node"><title>Node2</title>
<a xlink:href="../../d3/dc5/_array_8h.html" target="_top" xlink:title="gaia/base/Array.h">
<polygon fill="white" stroke="black" points="23.5,-116.5 23.5,-137.5 116.5,-137.5 116.5,-116.5 23.5,-116.5"/>
<text text-anchor="middle" x="70" y="-124.5" font-family="Helvetica,sans-Serif" font-size="10.00">gaia/base/Array.h</text>
</a>
</g>
<!-- Node1&#45;&gt;Node2 -->
<g id="edge2" class="edge"><title>Node1&#45;&gt;Node2</title>
<path fill="none" stroke="midnightblue" d="M134.788,-290.377C123.555,-262.051 92.7418,-184.349 78.0271,-147.242"/>
<polygon fill="midnightblue" stroke="midnightblue" points="81.2733,-145.933 74.3334,-137.928 74.7662,-148.514 81.2733,-145.933"/>
</g>
<!-- Node9 -->
<g id="node19" class="node"><title>Node9</title>
<a xlink:href="../../d2/daa/_button_8h.html" target="_top" xlink:title="gaia/ui/Button.h">
<polygon fill="white" stroke="black" points="149.5,-232.5 149.5,-253.5 234.5,-253.5 234.5,-232.5 149.5,-232.5"/>
<text text-anchor="middle" x="192" y="-240.5" font-family="Helvetica,sans-Serif" font-size="10.00">gaia/ui/Button.h</text>
</a>
</g>
<!-- Node1&#45;&gt;Node9 -->
<g id="edge20" class="edge"><title>Node1&#45;&gt;Node9</title>
<path fill="none" stroke="midnightblue" d="M148.721,-290.362C156.192,-282.186 166.686,-270.702 175.469,-261.091"/>
<polygon fill="midnightblue" stroke="midnightblue" points="178.179,-263.314 182.341,-253.571 173.011,-258.592 178.179,-263.314"/>
</g>
<!-- Node3 -->
<g id="node5" class="node"><title>Node3</title>
<a xlink:href="../../d8/dae/_array_impl_8h.html" target="_top" xlink:title="gaia/base/ArrayImpl.h">
<polygon fill="white" stroke="black" points="14,-58.5 14,-79.5 126,-79.5 126,-58.5 14,-58.5"/>
<text text-anchor="middle" x="70" y="-66.5" font-family="Helvetica,sans-Serif" font-size="10.00">gaia/base/ArrayImpl.h</text>
</a>
</g>
<!-- Node2&#45;&gt;Node3 -->
<g id="edge4" class="edge"><title>Node2&#45;&gt;Node3</title>
<path fill="none" stroke="midnightblue" d="M70,-116.362C70,-108.922 70,-98.7427 70,-89.7276"/>
<polygon fill="midnightblue" stroke="midnightblue" points="73.5001,-89.5706 70,-79.5707 66.5001,-89.5707 73.5001,-89.5706"/>
</g>
<!-- Node4 -->
<g id="node7" class="node"><title>Node4</title>
<polygon fill="white" stroke="#bfbfbf" points="120,-0.5 120,-21.5 188,-21.5 188,-0.5 120,-0.5"/>
<text text-anchor="middle" x="154" y="-8.5" font-family="Helvetica,sans-Serif" font-size="10.00">sys/types.h</text>
</g>
<!-- Node2&#45;&gt;Node4 -->
<g id="edge18" class="edge"><title>Node2&#45;&gt;Node4</title>
<path fill="none" stroke="midnightblue" d="M46.8834,-116.281C22.1502,-103.316 -11.4447,-80.4307 5,-58 17.5772,-40.8446 70.6743,-27.068 109.918,-18.9697"/>
<polygon fill="midnightblue" stroke="midnightblue" points="110.699,-22.3829 119.816,-16.9854 109.323,-15.5194 110.699,-22.3829"/>
</g>
<!-- Node5 -->
<g id="node9" class="node"><title>Node5</title>
<a xlink:href="../../d1/d86/_type_helpers_8h.html" target="_top" xlink:title="gaia/base/TypeHelpers.h">
<polygon fill="white" stroke="black" points="393.5,-58.5 393.5,-79.5 518.5,-79.5 518.5,-58.5 393.5,-58.5"/>
<text text-anchor="middle" x="456" y="-66.5" font-family="Helvetica,sans-Serif" font-size="10.00">gaia/base/TypeHelpers.h</text>
</a>
</g>
<!-- Node2&#45;&gt;Node5 -->
<g id="edge8" class="edge"><title>Node2&#45;&gt;Node5</title>
<path fill="none" stroke="midnightblue" d="M116.773,-117.448C119.553,-116.941 122.312,-116.455 125,-116 236.88,-97.0838 267.897,-96.925 383.348,-80.2208"/>
<polygon fill="midnightblue" stroke="midnightblue" points="383.898,-83.6777 393.288,-78.772 382.888,-76.7509 383.898,-83.6777"/>
</g>
<!-- Node3&#45;&gt;Node4 -->
<g id="edge6" class="edge"><title>Node3&#45;&gt;Node4</title>
<path fill="none" stroke="midnightblue" d="M85.4069,-58.3619C97.9582,-49.6955 115.892,-37.3126 130.275,-27.3819"/>
<polygon fill="midnightblue" stroke="midnightblue" points="132.45,-30.1327 138.691,-21.5707 128.473,-24.3725 132.45,-30.1327"/>
</g>
<!-- Node5&#45;&gt;Node4 -->
<g id="edge14" class="edge"><title>Node5&#45;&gt;Node4</title>
<path fill="none" stroke="midnightblue" d="M401.31,-58.4966C343.025,-47.3028 251.883,-29.7987 198.037,-19.4575"/>
<polygon fill="midnightblue" stroke="midnightblue" points="198.591,-15.9999 188.11,-17.5509 197.27,-22.8742 198.591,-15.9999"/>
</g>
<!-- Node6 -->
<g id="node11" class="node"><title>Node6</title>
<polygon fill="white" stroke="#bfbfbf" points="561.5,-0.5 561.5,-21.5 610.5,-21.5 610.5,-0.5 561.5,-0.5"/>
<text text-anchor="middle" x="586" y="-8.5" font-family="Helvetica,sans-Serif" font-size="10.00">stdint.h</text>
</g>
<!-- Node5&#45;&gt;Node6 -->
<g id="edge10" class="edge"><title>Node5&#45;&gt;Node6</title>
<path fill="none" stroke="midnightblue" d="M479.542,-58.4966C500.029,-49.3562 529.947,-36.0082 552.854,-25.7883"/>
<polygon fill="midnightblue" stroke="midnightblue" points="554.488,-28.892 562.194,-21.6212 551.635,-22.4994 554.488,-28.892"/>
</g>
<!-- Node7 -->
<g id="node13" class="node"><title>Node7</title>
<polygon fill="white" stroke="#bfbfbf" points="396.5,-0.5 396.5,-21.5 445.5,-21.5 445.5,-0.5 396.5,-0.5"/>
<text text-anchor="middle" x="421" y="-8.5" font-family="Helvetica,sans-Serif" font-size="10.00">string.h</text>
</g>
<!-- Node5&#45;&gt;Node7 -->
<g id="edge12" class="edge"><title>Node5&#45;&gt;Node7</title>
<path fill="none" stroke="midnightblue" d="M449.58,-58.3619C444.844,-50.5131 438.268,-39.6159 432.618,-30.2527"/>
<polygon fill="midnightblue" stroke="midnightblue" points="435.542,-28.3242 427.379,-21.5707 429.549,-31.9409 435.542,-28.3242"/>
</g>
<!-- Node8 -->
<g id="node16" class="node"><title>Node8</title>
<polygon fill="white" stroke="#bfbfbf" points="462.5,-0.5 462.5,-21.5 497.5,-21.5 497.5,-0.5 462.5,-0.5"/>
<text text-anchor="middle" x="480" y="-8.5" font-family="Helvetica,sans-Serif" font-size="10.00">new</text>
</g>
<!-- Node5&#45;&gt;Node8 -->
<g id="edge16" class="edge"><title>Node5&#45;&gt;Node8</title>
<path fill="none" stroke="midnightblue" d="M460.402,-58.3619C463.582,-50.6766 467.972,-40.0686 471.79,-30.8399"/>
<polygon fill="midnightblue" stroke="midnightblue" points="475.036,-32.1491 475.626,-21.5707 468.568,-29.4726 475.036,-32.1491"/>
</g>
<!-- Node10 -->
<g id="node21" class="node"><title>Node10</title>
<a xlink:href="../../d8/d13/_text_widget_8h.html" target="_top" xlink:title="gaia/ui/TextWidget.h">
<polygon fill="white" stroke="black" points="156.5,-174.5 156.5,-195.5 263.5,-195.5 263.5,-174.5 156.5,-174.5"/>
<text text-anchor="middle" x="210" y="-182.5" font-family="Helvetica,sans-Serif" font-size="10.00">gaia/ui/TextWidget.h</text>
</a>
</g>
<!-- Node9&#45;&gt;Node10 -->
<g id="edge22" class="edge"><title>Node9&#45;&gt;Node10</title>
<path fill="none" stroke="midnightblue" d="M195.301,-232.362C197.661,-224.758 200.909,-214.294 203.751,-205.135"/>
<polygon fill="midnightblue" stroke="midnightblue" points="207.098,-206.159 206.719,-195.571 200.413,-204.084 207.098,-206.159"/>
</g>
<!-- Node11 -->
<g id="node23" class="node"><title>Node11</title>
<a xlink:href="../../d3/dd0/_event_control_8h.html" target="_top" xlink:title="gaia/core/event/EventControl.h">
<polygon fill="white" stroke="black" points="134,-116.5 134,-137.5 286,-137.5 286,-116.5 134,-116.5"/>
<text text-anchor="middle" x="210" y="-124.5" font-family="Helvetica,sans-Serif" font-size="10.00">gaia/core/event/EventControl.h</text>
</a>
</g>
<!-- Node10&#45;&gt;Node11 -->
<g id="edge24" class="edge"><title>Node10&#45;&gt;Node11</title>
<path fill="none" stroke="midnightblue" d="M210,-174.362C210,-166.922 210,-156.743 210,-147.728"/>
<polygon fill="midnightblue" stroke="midnightblue" points="213.5,-147.571 210,-137.571 206.5,-147.571 213.5,-147.571"/>
</g>
<!-- Node12 -->
<g id="node26" class="node"><title>Node12</title>
<a xlink:href="../../d4/d75/_widget_8h.html" target="_top" xlink:title="gaia/core/vision/Widget.h">
<polygon fill="white" stroke="black" points="424.5,-116.5 424.5,-137.5 551.5,-137.5 551.5,-116.5 424.5,-116.5"/>
<text text-anchor="middle" x="488" y="-124.5" font-family="Helvetica,sans-Serif" font-size="10.00">gaia/core/vision/Widget.h</text>
</a>
</g>
<!-- Node10&#45;&gt;Node12 -->
<g id="edge28" class="edge"><title>Node10&#45;&gt;Node12</title>
<path fill="none" stroke="midnightblue" d="M260.344,-174.497C307.333,-164.693 377.521,-150.05 427.528,-139.616"/>
<polygon fill="midnightblue" stroke="midnightblue" points="428.488,-142.992 437.562,-137.523 427.058,-136.139 428.488,-142.992"/>
</g>
<!-- Node11&#45;&gt;Node4 -->
<g id="edge26" class="edge"><title>Node11&#45;&gt;Node4</title>
<path fill="none" stroke="midnightblue" d="M199.501,-116.288C191.214,-107.283 179.931,-93.7182 173,-80 165.308,-64.7737 160.401,-46.0328 157.505,-31.9268"/>
<polygon fill="midnightblue" stroke="midnightblue" points="160.882,-30.9467 155.599,-21.7634 154.002,-32.2373 160.882,-30.9467"/>
</g>
<!-- Node13 -->
<g id="node28" class="node"><title>Node13</title>
<a xlink:href="../../d1/dd0/gmacros_8h.html" target="_top" xlink:title="gaia/base/gmacros.h">
<polygon fill="white" stroke="black" points="701.5,-58.5 701.5,-79.5 808.5,-79.5 808.5,-58.5 701.5,-58.5"/>
<text text-anchor="middle" x="755" y="-66.5" font-family="Helvetica,sans-Serif" font-size="10.00">gaia/base/gmacros.h</text>
</a>
</g>
<!-- Node12&#45;&gt;Node13 -->
<g id="edge30" class="edge"><title>Node12&#45;&gt;Node13</title>
<path fill="none" stroke="midnightblue" d="M536.352,-116.497C581.387,-106.714 648.611,-92.1107 696.62,-81.6819"/>
<polygon fill="midnightblue" stroke="midnightblue" points="697.529,-85.0661 706.558,-79.5231 696.043,-78.2257 697.529,-85.0661"/>
</g>
<!-- Node14 -->
<g id="node30" class="node"><title>Node14</title>
<a xlink:href="../../d0/d92/_property_animatable_8h.html" target="_top" xlink:title="gaia/core/animator/PropertyAnimatable.h">
<polygon fill="white" stroke="black" points="182,-58.5 182,-79.5 376,-79.5 376,-58.5 182,-58.5"/>
<text text-anchor="middle" x="279" y="-66.5" font-family="Helvetica,sans-Serif" font-size="10.00">gaia/core/animator/PropertyAnimatable.h</text>
</a>
</g>
<!-- Node12&#45;&gt;Node14 -->
<g id="edge32" class="edge"><title>Node12&#45;&gt;Node14</title>
<path fill="none" stroke="midnightblue" d="M450.152,-116.497C415.489,-106.877 364.035,-92.5981 326.598,-82.209"/>
<polygon fill="midnightblue" stroke="midnightblue" points="327.491,-78.8246 316.919,-79.5231 325.619,-85.5697 327.491,-78.8246"/>
</g>
<!-- Node15 -->
<g id="node33" class="node"><title>Node15</title>
<a xlink:href="../../d8/d50/_widget_core_8h.html" target="_top" xlink:title="gaia/core/vision/WidgetCore.h">
<polygon fill="white" stroke="black" points="536,-58.5 536,-79.5 684,-79.5 684,-58.5 536,-58.5"/>
<text text-anchor="middle" x="610" y="-66.5" font-family="Helvetica,sans-Serif" font-size="10.00">gaia/core/vision/WidgetCore.h</text>
</a>
</g>
<!-- Node12&#45;&gt;Node15 -->
<g id="edge36" class="edge"><title>Node12&#45;&gt;Node15</title>
<path fill="none" stroke="midnightblue" d="M510.093,-116.497C529.234,-107.397 557.146,-94.1273 578.605,-83.9253"/>
<polygon fill="midnightblue" stroke="midnightblue" points="580.13,-87.0758 587.659,-79.6212 577.125,-80.7539 580.13,-87.0758"/>
</g>
<!-- Node14&#45;&gt;Node4 -->
<g id="edge34" class="edge"><title>Node14&#45;&gt;Node4</title>
<path fill="none" stroke="midnightblue" d="M256.363,-58.4966C236.752,-49.397 208.154,-36.1273 186.167,-25.9253"/>
<polygon fill="midnightblue" stroke="midnightblue" points="187.435,-22.6554 176.891,-21.6212 184.488,-29.0051 187.435,-22.6554"/>
</g>
<!-- Node15&#45;&gt;Node6 -->
<g id="edge38" class="edge"><title>Node15&#45;&gt;Node6</title>
<path fill="none" stroke="midnightblue" d="M605.598,-58.3619C602.418,-50.6766 598.028,-40.0686 594.21,-30.8399"/>
<polygon fill="midnightblue" stroke="midnightblue" points="597.432,-29.4726 590.374,-21.5707 590.964,-32.1491 597.432,-29.4726"/>
</g>
</g>
</svg>
