<?xml version="1.0" encoding="UTF-8" standalone="no"?>
<!DOCTYPE svg PUBLIC "-//W3C//DTD SVG 1.1//EN"
 "http://www.w3.org/Graphics/SVG/1.1/DTD/svg11.dtd">
<!-- Generated by graphviz version 2.26.3 (20100126.1600)
 -->
<!-- Title: G Pages: 1 -->
<svg width="1086pt" height="192pt"
 viewBox="0.00 0.00 1086.00 192.00" xmlns="http://www.w3.org/2000/svg" xmlns:xlink="http://www.w3.org/1999/xlink">
<g id="graph1" class="graph" transform="scale(1 1) rotate(0) translate(4 188)">
<title>G</title>
<polygon fill="white" stroke="white" points="-4,5 -4,-188 1083,-188 1083,5 -4,5"/>
<!-- Node1 -->
<g id="node1" class="node"><title>Node1</title>
<polygon fill="#bfbfbf" stroke="black" points="558,-80.5 558,-101.5 666,-101.5 666,-80.5 558,-80.5"/>
<text text-anchor="middle" x="612" y="-88.5" font-family="Helvetica,sans-Serif" font-size="10.00">gaia::ui::ProgressBar</text>
</g>
<!-- Node2 -->
<g id="node2" class="node"><title>Node2</title>
<a xlink:href="../../d8/dac/classgaia_1_1core_1_1_widget.html" target="_top" xlink:title="The Widget class is the base class of all user interface component.">
<polygon fill="white" stroke="black" points="244,-142.5 244,-163.5 340,-163.5 340,-142.5 244,-142.5"/>
<text text-anchor="middle" x="292" y="-150.5" font-family="Helvetica,sans-Serif" font-size="10.00">gaia::core::Widget</text>
</a>
</g>
<!-- Node2&#45;&gt;Node1 -->
<g id="edge2" class="edge"><title>Node2&#45;&gt;Node1</title>
<path fill="none" stroke="midnightblue" d="M350.194,-141.725C409.383,-130.257 500.364,-112.629 557.996,-101.463"/>
<polygon fill="midnightblue" stroke="midnightblue" points="349.405,-138.313 340.254,-143.651 350.737,-145.185 349.405,-138.313"/>
</g>
<!-- Node5 -->
<g id="node8" class="node"><title>Node5</title>
<a xlink:href="../../db/d6c/classgaia_1_1core_1_1_widget_controller.html" target="_top" xlink:title="Define the default widget layout to put sets of layout in it.">
<polygon fill="white" stroke="black" points="543,-120.5 543,-141.5 681,-141.5 681,-120.5 543,-120.5"/>
<text text-anchor="middle" x="612" y="-128.5" font-family="Helvetica,sans-Serif" font-size="10.00">gaia::core::WidgetController</text>
</a>
</g>
<!-- Node2&#45;&gt;Node5 -->
<g id="edge10" class="edge"><title>Node2&#45;&gt;Node5</title>
<path fill="none" stroke="midnightblue" d="M350.395,-148.985C404.63,-145.257 485.431,-139.702 542.865,-135.753"/>
<polygon fill="midnightblue" stroke="midnightblue" points="349.99,-145.505 340.254,-149.683 350.47,-152.488 349.99,-145.505"/>
</g>
<!-- Node3 -->
<g id="node4" class="node"><title>Node3</title>
<a xlink:href="../../d0/db2/classgaia_1_1core_1_1_property_animatable.html" target="_top" xlink:title="Any animation object need to implement PropertyAnimatable because of setting value.">
<polygon fill="white" stroke="black" points="0.5,-162.5 0.5,-183.5 151.5,-183.5 151.5,-162.5 0.5,-162.5"/>
<text text-anchor="middle" x="76" y="-170.5" font-family="Helvetica,sans-Serif" font-size="10.00">gaia::core::PropertyAnimatable</text>
</a>
</g>
<!-- Node3&#45;&gt;Node2 -->
<g id="edge4" class="edge"><title>Node3&#45;&gt;Node2</title>
<path fill="none" stroke="midnightblue" d="M161.729,-165.062C189.663,-162.476 219.676,-159.697 243.845,-157.459"/>
<polygon fill="midnightblue" stroke="midnightblue" points="161.181,-161.598 151.546,-166.005 161.826,-168.568 161.181,-161.598"/>
</g>
<!-- Node4 -->
<g id="node6" class="node"><title>Node4</title>
<a xlink:href="../../d5/dfb/classgaia_1_1core_1_1_scene.html" target="_top" xlink:title="A Scene is used to build a visual interface.">
<polygon fill="white" stroke="black" points="814.5,-84.5 814.5,-105.5 907.5,-105.5 907.5,-84.5 814.5,-84.5"/>
<text text-anchor="middle" x="861" y="-92.5" font-family="Helvetica,sans-Serif" font-size="10.00">gaia::core::Scene</text>
</a>
</g>
<!-- Node4&#45;&gt;Node2 -->
<g id="edge6" class="edge"><title>Node4&#45;&gt;Node2</title>
<path fill="none" stroke="#9a32cd" stroke-dasharray="5,2" d="M838.01,-111.396C825.994,-119.276 810.75,-128.238 796,-134 761.332,-147.543 750.98,-146.786 714,-151 579.332,-166.347 418.919,-160.557 340.299,-156.165"/>
<polygon fill="#9a32cd" stroke="#9a32cd" points="840.183,-114.152 846.507,-105.651 836.262,-108.353 840.183,-114.152"/>
<text text-anchor="middle" x="612" y="-164" font-family="Helvetica,sans-Serif" font-size="10.00"> mpScene</text>
</g>
<!-- Node4&#45;&gt;Node5 -->
<g id="edge14" class="edge"><title>Node4&#45;&gt;Node5</title>
<path fill="none" stroke="#9a32cd" stroke-dasharray="5,2" d="M804.636,-107.474C801.72,-108.015 798.829,-108.527 796,-109 758.239,-115.31 715.825,-120.507 681.244,-124.263"/>
<polygon fill="#9a32cd" stroke="#9a32cd" points="805.436,-110.884 814.588,-105.546 804.105,-104.012 805.436,-110.884"/>
<text text-anchor="middle" x="764" y="-121" font-family="Helvetica,sans-Serif" font-size="10.00"> mpScene</text>
</g>
<!-- Node11 -->
<g id="node23" class="node"><title>Node11</title>
<a xlink:href="../../db/d3f/classgaia_1_1core_1_1_page.html" target="_top" xlink:title="An page is a single, focused thing that the user can do.">
<polygon fill="white" stroke="black" points="990,-84.5 990,-105.5 1078,-105.5 1078,-84.5 990,-84.5"/>
<text text-anchor="middle" x="1034" y="-92.5" font-family="Helvetica,sans-Serif" font-size="10.00">gaia::core::Page</text>
</a>
</g>
<!-- Node4&#45;&gt;Node11 -->
<g id="edge28" class="edge"><title>Node4&#45;&gt;Node11</title>
<path fill="none" stroke="#9a32cd" stroke-dasharray="5,2" d="M917.951,-95C941.324,-95 967.968,-95 989.826,-95"/>
<polygon fill="#9a32cd" stroke="#9a32cd" points="917.816,-91.5001 907.816,-95 917.816,-98.5001 917.816,-91.5001"/>
<text text-anchor="middle" x="949" y="-99" font-family="Helvetica,sans-Serif" font-size="10.00"> mpScene</text>
</g>
<!-- Node5&#45;&gt;Node4 -->
<g id="edge8" class="edge"><title>Node5&#45;&gt;Node4</title>
<path fill="none" stroke="#9a32cd" stroke-dasharray="5,2" d="M690.822,-119.715C698.835,-117.343 706.702,-114.473 714,-111 723.403,-106.525 722.222,-99.583 732,-96 758.076,-86.4447 789.157,-85.9115 814.276,-87.902"/>
<polygon fill="#9a32cd" stroke="#9a32cd" points="689.745,-116.38 681.004,-122.368 691.571,-123.138 689.745,-116.38"/>
<text text-anchor="middle" x="764" y="-100" font-family="Helvetica,sans-Serif" font-size="10.00"> mpController</text>
</g>
<!-- Node6 -->
<g id="node11" class="node"><title>Node6</title>
<a xlink:href="../../dd/de0/classgaia_1_1core_1_1_event_control.html" target="_top" xlink:title="EventControl is used to dispatch event and register listener.">
<polygon fill="white" stroke="black" points="231,-86.5 231,-107.5 353,-107.5 353,-86.5 231,-86.5"/>
<text text-anchor="middle" x="292" y="-94.5" font-family="Helvetica,sans-Serif" font-size="10.00">gaia::core::EventControl</text>
</a>
</g>
<!-- Node6&#45;&gt;Node1 -->
<g id="edge32" class="edge"><title>Node6&#45;&gt;Node1</title>
<path fill="none" stroke="midnightblue" d="M363.248,-92.6335C368.914,-92.3834 374.551,-92.1664 380,-92 440.792,-90.1432 510.585,-90.1289 557.61,-90.4296"/>
<polygon fill="midnightblue" stroke="midnightblue" points="362.874,-89.1472 353.05,-93.116 363.205,-96.1394 362.874,-89.1472"/>
</g>
<!-- Node6&#45;&gt;Node5 -->
<g id="edge12" class="edge"><title>Node6&#45;&gt;Node5</title>
<path fill="none" stroke="midnightblue" d="M363.422,-104.589C416.968,-110.278 489.839,-118.02 542.831,-123.651"/>
<polygon fill="midnightblue" stroke="midnightblue" points="363.634,-101.092 353.321,-103.515 362.895,-108.052 363.634,-101.092"/>
</g>
<!-- Node7 -->
<g id="node14" class="node"><title>Node7</title>
<a xlink:href="../../de/dad/classgaia_1_1content_1_1_resources.html" target="_top" xlink:title="Class for accessing an application&#39;s resources.">
<polygon fill="white" stroke="black" points="549,-40.5 549,-61.5 675,-61.5 675,-40.5 549,-40.5"/>
<text text-anchor="middle" x="612" y="-48.5" font-family="Helvetica,sans-Serif" font-size="10.00">gaia::content::Resources</text>
</a>
</g>
<!-- Node7&#45;&gt;Node4 -->
<g id="edge16" class="edge"><title>Node7&#45;&gt;Node4</title>
<path fill="none" stroke="#9a32cd" stroke-dasharray="5,2" d="M685.6,-54.1394C719.56,-56.7213 760.196,-61.4264 796,-70 810.345,-73.4351 825.78,-79.2739 838.008,-84.4452"/>
<polygon fill="#9a32cd" stroke="#9a32cd" points="685.511,-50.6243 675.288,-53.4043 685.014,-57.6065 685.511,-50.6243"/>
<text text-anchor="middle" x="764" y="-74" font-family="Helvetica,sans-Serif" font-size="10.00"> mpResources</text>
</g>
<!-- Node8 -->
<g id="node16" class="node"><title>Node8</title>
<a xlink:href="../../df/d5d/classgaia_1_1base_1_1_vector.html" target="_top" xlink:title="gaia::base::Vector\&lt; gaia::ui::DialogBox * \&gt;">
<polygon fill="white" stroke="black" points="510.5,-0.5 510.5,-21.5 713.5,-21.5 713.5,-0.5 510.5,-0.5"/>
<text text-anchor="middle" x="612" y="-8.5" font-family="Helvetica,sans-Serif" font-size="10.00">gaia::base::Vector&lt; gaia::ui::DialogBox * &gt;</text>
</a>
</g>
<!-- Node8&#45;&gt;Node4 -->
<g id="edge18" class="edge"><title>Node8&#45;&gt;Node4</title>
<path fill="none" stroke="#9a32cd" stroke-dasharray="5,2" d="M723.634,-21.1904C748.174,-25.9353 773.527,-32.8706 796,-43 818.134,-52.9766 839.21,-72.2534 851.085,-84.3274"/>
<polygon fill="#9a32cd" stroke="#9a32cd" points="724.012,-17.7017 713.547,-19.3513 722.757,-24.5882 724.012,-17.7017"/>
<text text-anchor="middle" x="764" y="-47" font-family="Helvetica,sans-Serif" font-size="10.00"> mDialogList</text>
</g>
<!-- Node9 -->
<g id="node18" class="node"><title>Node9</title>
<a xlink:href="../../d0/d21/classgaia_1_1base_1_1_vector_impl.html" target="_top" xlink:title="Implements vector data structure equipped with copy&#45;on&#45;write mechanism.">
<polygon fill="white" stroke="black" points="18.5,-18.5 18.5,-39.5 133.5,-39.5 133.5,-18.5 18.5,-18.5"/>
<text text-anchor="middle" x="76" y="-26.5" font-family="Helvetica,sans-Serif" font-size="10.00">gaia::base::VectorImpl</text>
</a>
</g>
<!-- Node9&#45;&gt;Node8 -->
<g id="edge20" class="edge"><title>Node9&#45;&gt;Node8</title>
<path fill="none" stroke="#8b1a1a" d="M143.703,-26.7264C236.237,-23.6189 402.963,-18.0199 510.485,-14.4091"/>
<polygon fill="#8b1a1a" stroke="#8b1a1a" points="143.493,-23.2314 133.616,-27.0651 143.728,-30.2274 143.493,-23.2314"/>
</g>
<!-- Node10 -->
<g id="node20" class="node"><title>Node10</title>
<a xlink:href="../../df/d5d/classgaia_1_1base_1_1_vector.html" target="_top" xlink:title="This class implements the vector data structure.">
<polygon fill="white" stroke="black" points="222,-38.5 222,-59.5 362,-59.5 362,-38.5 222,-38.5"/>
<text text-anchor="middle" x="292" y="-46.5" font-family="Helvetica,sans-Serif" font-size="10.00">gaia::base::Vector&lt; TYPE &gt;</text>
</a>
</g>
<!-- Node9&#45;&gt;Node10 -->
<g id="edge24" class="edge"><title>Node9&#45;&gt;Node10</title>
<path fill="none" stroke="#8b1a1a" d="M143.676,-35.2663C168.552,-37.5696 196.761,-40.1816 221.851,-42.5047"/>
<polygon fill="#8b1a1a" stroke="#8b1a1a" points="143.88,-31.7703 133.6,-34.3334 143.235,-38.7405 143.88,-31.7703"/>
</g>
<!-- Node10&#45;&gt;Node8 -->
<g id="edge22" class="edge"><title>Node10&#45;&gt;Node8</title>
<path fill="none" stroke="orange" stroke-dasharray="5,2" d="M372.439,-39.4479C418.386,-33.9917 476.074,-27.1413 523.326,-21.53"/>
<polygon fill="orange" stroke="orange" points="371.743,-36.0059 362.225,-40.6607 372.568,-42.957 371.743,-36.0059"/>
<text text-anchor="middle" x="436" y="-42" font-family="Helvetica,sans-Serif" font-size="10.00"> &lt; gaia::ui::DialogBox * &gt;</text>
</g>
<!-- Node11&#45;&gt;Node4 -->
<g id="edge26" class="edge"><title>Node11&#45;&gt;Node4</title>
<path fill="none" stroke="#9a32cd" stroke-dasharray="5,2" d="M991.756,-81.8052C985.2,-80.2274 978.461,-78.8697 972,-78 951.738,-75.2725 946.277,-75.3922 926,-78 915.704,-79.3242 904.71,-81.7824 894.749,-84.426"/>
<polygon fill="#9a32cd" stroke="#9a32cd" points="991.28,-85.2977 1001.84,-84.4273 993.042,-78.5231 991.28,-85.2977"/>
<text text-anchor="middle" x="949" y="-82" font-family="Helvetica,sans-Serif" font-size="10.00"> mpPage</text>
</g>
<!-- Node12 -->
<g id="node26" class="node"><title>Node12</title>
<a xlink:href="../../db/d88/classgaia_1_1core_1_1_widget_tag.html" target="_top" xlink:title="gaia::core::WidgetTag">
<polygon fill="white" stroke="black" points="19.5,-122.5 19.5,-143.5 132.5,-143.5 132.5,-122.5 19.5,-122.5"/>
<text text-anchor="middle" x="76" y="-130.5" font-family="Helvetica,sans-Serif" font-size="10.00">gaia::core::WidgetTag</text>
</a>
</g>
<!-- Node12&#45;&gt;Node2 -->
<g id="edge30" class="edge"><title>Node12&#45;&gt;Node2</title>
<path fill="none" stroke="#9a32cd" stroke-dasharray="5,2" d="M142.84,-138.538C162.544,-140.227 184.145,-142.132 204,-144 216.844,-145.209 230.733,-146.593 243.599,-147.908"/>
<polygon fill="#9a32cd" stroke="#9a32cd" points="142.989,-135.038 132.728,-137.676 142.395,-142.013 142.989,-135.038"/>
<text text-anchor="middle" x="187" y="-148" font-family="Helvetica,sans-Serif" font-size="10.00"> mpTag</text>
</g>
</g>
</svg>
