<?xml version="1.0" encoding="UTF-8" standalone="no"?>
<!DOCTYPE svg PUBLIC "-//W3C//DTD SVG 1.1//EN"
 "http://www.w3.org/Graphics/SVG/1.1/DTD/svg11.dtd">
<!-- Generated by graphviz version 2.26.3 (20100126.1600)
 -->
<!-- Title: G Pages: 1 -->
<svg width="596pt" height="204pt"
 viewBox="0.00 0.00 596.00 204.00" xmlns="http://www.w3.org/2000/svg" xmlns:xlink="http://www.w3.org/1999/xlink">
<g id="graph1" class="graph" transform="scale(1 1) rotate(0) translate(4 200)">
<title>G</title>
<polygon fill="white" stroke="white" points="-4,5 -4,-200 593,-200 593,5 -4,5"/>
<!-- Node1 -->
<g id="node1" class="node"><title>Node1</title>
<polygon fill="#bfbfbf" stroke="black" points="213,-174.5 213,-195.5 457,-195.5 457,-174.5 213,-174.5"/>
<text text-anchor="middle" x="335" y="-182.5" font-family="Helvetica,sans-Serif" font-size="10.00">/home/vilon_tao/gaia/sdk/include/gaia/ads/AdView.h</text>
</g>
<!-- Node2 -->
<g id="node3" class="node"><title>Node2</title>
<a xlink:href="../../db/db5/_string_8h.html" target="_top" xlink:title="gaia/base/String.h">
<polygon fill="white" stroke="black" points="101.5,-116.5 101.5,-137.5 196.5,-137.5 196.5,-116.5 101.5,-116.5"/>
<text text-anchor="middle" x="149" y="-124.5" font-family="Helvetica,sans-Serif" font-size="10.00">gaia/base/String.h</text>
</a>
</g>
<!-- Node1&#45;&gt;Node2 -->
<g id="edge2" class="edge"><title>Node1&#45;&gt;Node2</title>
<path fill="none" stroke="midnightblue" d="M301.317,-174.497C270.863,-165 225.843,-150.962 192.642,-140.609"/>
<polygon fill="midnightblue" stroke="midnightblue" points="193.335,-137.159 182.746,-137.523 191.251,-143.841 193.335,-137.159"/>
</g>
<!-- Node7 -->
<g id="node14" class="node"><title>Node7</title>
<a xlink:href="../../d0/d5c/_rect_f_8h.html" target="_top" xlink:title="gaia/graphics/RectF.h">
<polygon fill="white" stroke="black" points="213.5,-116.5 213.5,-137.5 326.5,-137.5 326.5,-116.5 213.5,-116.5"/>
<text text-anchor="middle" x="270" y="-124.5" font-family="Helvetica,sans-Serif" font-size="10.00">gaia/graphics/RectF.h</text>
</a>
</g>
<!-- Node1&#45;&gt;Node7 -->
<g id="edge14" class="edge"><title>Node1&#45;&gt;Node7</title>
<path fill="none" stroke="midnightblue" d="M323.078,-174.362C313.641,-165.941 300.27,-154.011 289.31,-144.231"/>
<polygon fill="midnightblue" stroke="midnightblue" points="291.638,-141.617 281.846,-137.571 286.978,-146.84 291.638,-141.617"/>
</g>
<!-- Node8 -->
<g id="node16" class="node"><title>Node8</title>
<a xlink:href="../../dd/d0b/_hash_map_8h.html" target="_top" xlink:title="gaia/base/HashMap.h">
<polygon fill="white" stroke="black" points="344,-116.5 344,-137.5 456,-137.5 456,-116.5 344,-116.5"/>
<text text-anchor="middle" x="400" y="-124.5" font-family="Helvetica,sans-Serif" font-size="10.00">gaia/base/HashMap.h</text>
</a>
</g>
<!-- Node1&#45;&gt;Node8 -->
<g id="edge16" class="edge"><title>Node1&#45;&gt;Node8</title>
<path fill="none" stroke="midnightblue" d="M346.922,-174.362C356.359,-165.941 369.73,-154.011 380.69,-144.231"/>
<polygon fill="midnightblue" stroke="midnightblue" points="383.022,-146.84 388.154,-137.571 378.362,-141.617 383.022,-146.84"/>
</g>
<!-- Node10 -->
<g id="node22" class="node"><title>Node10</title>
<a xlink:href="../../db/d53/_string_array_8h.html" target="_top" xlink:title="gaia/base/StringArray.h">
<polygon fill="white" stroke="black" points="469.5,-58.5 469.5,-79.5 588.5,-79.5 588.5,-58.5 469.5,-58.5"/>
<text text-anchor="middle" x="529" y="-66.5" font-family="Helvetica,sans-Serif" font-size="10.00">gaia/base/StringArray.h</text>
</a>
</g>
<!-- Node1&#45;&gt;Node10 -->
<g id="edge24" class="edge"><title>Node1&#45;&gt;Node10</title>
<path fill="none" stroke="midnightblue" d="M379.876,-174.483C406.126,-166.986 439.088,-155.16 465,-138 485.384,-124.501 503.804,-103.209 515.592,-87.8458"/>
<polygon fill="midnightblue" stroke="midnightblue" points="518.573,-89.7024 521.731,-79.5891 512.956,-85.5257 518.573,-89.7024"/>
</g>
<!-- Node3 -->
<g id="node5" class="node"><title>Node3</title>
<a xlink:href="../../d7/d97/_char_sequence_8h.html" target="_top" xlink:title="gaia/base/CharSequence.h">
<polygon fill="white" stroke="black" points="0,-58.5 0,-79.5 134,-79.5 134,-58.5 0,-58.5"/>
<text text-anchor="middle" x="67" y="-66.5" font-family="Helvetica,sans-Serif" font-size="10.00">gaia/base/CharSequence.h</text>
</a>
</g>
<!-- Node2&#45;&gt;Node3 -->
<g id="edge4" class="edge"><title>Node2&#45;&gt;Node3</title>
<path fill="none" stroke="midnightblue" d="M133.96,-116.362C121.707,-107.696 104.201,-95.3126 90.1606,-85.3819"/>
<polygon fill="midnightblue" stroke="midnightblue" points="92.13,-82.4879 81.9447,-79.5707 88.0877,-88.2028 92.13,-82.4879"/>
</g>
<!-- Node5 -->
<g id="node9" class="node"><title>Node5</title>
<a xlink:href="../../d6/d83/_hash_func_8h.html" target="_top" xlink:title="gaia/base/HashFunc.h">
<polygon fill="white" stroke="black" points="189.5,-58.5 189.5,-79.5 304.5,-79.5 304.5,-58.5 189.5,-58.5"/>
<text text-anchor="middle" x="247" y="-66.5" font-family="Helvetica,sans-Serif" font-size="10.00">gaia/base/HashFunc.h</text>
</a>
</g>
<!-- Node2&#45;&gt;Node5 -->
<g id="edge8" class="edge"><title>Node2&#45;&gt;Node5</title>
<path fill="none" stroke="midnightblue" d="M166.975,-116.362C181.894,-107.532 203.333,-94.844 220.266,-84.8224"/>
<polygon fill="midnightblue" stroke="midnightblue" points="222.316,-87.6759 229.139,-79.5707 218.751,-81.6519 222.316,-87.6759"/>
</g>
<!-- Node6 -->
<g id="node11" class="node"><title>Node6</title>
<polygon fill="white" stroke="#bfbfbf" points="283,-0.5 283,-21.5 351,-21.5 351,-0.5 283,-0.5"/>
<text text-anchor="middle" x="317" y="-8.5" font-family="Helvetica,sans-Serif" font-size="10.00">sys/types.h</text>
</g>
<!-- Node2&#45;&gt;Node6 -->
<g id="edge12" class="edge"><title>Node2&#45;&gt;Node6</title>
<path fill="none" stroke="midnightblue" d="M151.183,-116.328C154.804,-101.266 163.46,-73.8441 181,-58 206.454,-35.0066 243.729,-23.1575 272.821,-17.1129"/>
<polygon fill="midnightblue" stroke="midnightblue" points="273.577,-20.5318 282.737,-15.2082 272.256,-13.6575 273.577,-20.5318"/>
</g>
<!-- Node4 -->
<g id="node7" class="node"><title>Node4</title>
<polygon fill="white" stroke="#bfbfbf" points="42.5,-0.5 42.5,-21.5 91.5,-21.5 91.5,-0.5 42.5,-0.5"/>
<text text-anchor="middle" x="67" y="-8.5" font-family="Helvetica,sans-Serif" font-size="10.00">stdint.h</text>
</g>
<!-- Node3&#45;&gt;Node4 -->
<g id="edge6" class="edge"><title>Node3&#45;&gt;Node4</title>
<path fill="none" stroke="midnightblue" d="M67,-58.3619C67,-50.9219 67,-40.7427 67,-31.7276"/>
<polygon fill="midnightblue" stroke="midnightblue" points="70.5001,-31.5706 67,-21.5707 63.5001,-31.5707 70.5001,-31.5706"/>
</g>
<!-- Node5&#45;&gt;Node6 -->
<g id="edge10" class="edge"><title>Node5&#45;&gt;Node6</title>
<path fill="none" stroke="midnightblue" d="M259.839,-58.3619C270.002,-49.9408 284.401,-38.0105 296.204,-28.2308"/>
<polygon fill="midnightblue" stroke="midnightblue" points="298.775,-30.6459 304.242,-21.5707 294.309,-25.2558 298.775,-30.6459"/>
</g>
<!-- Node8&#45;&gt;Node5 -->
<g id="edge18" class="edge"><title>Node8&#45;&gt;Node5</title>
<path fill="none" stroke="midnightblue" d="M372.293,-116.497C347.674,-107.164 311.483,-93.4447 284.32,-83.1475"/>
<polygon fill="midnightblue" stroke="midnightblue" points="285.35,-79.7951 274.759,-79.5231 282.869,-86.3406 285.35,-79.7951"/>
</g>
<!-- Node9 -->
<g id="node19" class="node"><title>Node9</title>
<a xlink:href="../../dc/d11/_hash_map_impl_8h.html" target="_top" xlink:title="gaia/base/HashMapImpl.h">
<polygon fill="white" stroke="black" points="321.5,-58.5 321.5,-79.5 452.5,-79.5 452.5,-58.5 321.5,-58.5"/>
<text text-anchor="middle" x="387" y="-66.5" font-family="Helvetica,sans-Serif" font-size="10.00">gaia/base/HashMapImpl.h</text>
</a>
</g>
<!-- Node8&#45;&gt;Node9 -->
<g id="edge20" class="edge"><title>Node8&#45;&gt;Node9</title>
<path fill="none" stroke="midnightblue" d="M397.616,-116.362C395.93,-108.84 393.616,-98.5187 391.579,-89.4308"/>
<polygon fill="midnightblue" stroke="midnightblue" points="394.972,-88.563 389.369,-79.5707 388.141,-90.0941 394.972,-88.563"/>
</g>
<!-- Node9&#45;&gt;Node6 -->
<g id="edge22" class="edge"><title>Node9&#45;&gt;Node6</title>
<path fill="none" stroke="midnightblue" d="M374.161,-58.3619C363.998,-49.9408 349.599,-38.0105 337.796,-28.2308"/>
<polygon fill="midnightblue" stroke="midnightblue" points="339.691,-25.2558 329.758,-21.5707 335.225,-30.6459 339.691,-25.2558"/>
</g>
<!-- Node10&#45;&gt;Node6 -->
<g id="edge26" class="edge"><title>Node10&#45;&gt;Node6</title>
<path fill="none" stroke="midnightblue" d="M490.608,-58.4966C454.134,-48.5177 399.329,-33.524 361.083,-23.0606"/>
<polygon fill="midnightblue" stroke="midnightblue" points="361.821,-19.6338 351.252,-20.3708 359.974,-26.3857 361.821,-19.6338"/>
</g>
</g>
</svg>
