<?xml version="1.0" encoding="UTF-8" standalone="no"?>
<!DOCTYPE svg PUBLIC "-//W3C//DTD SVG 1.1//EN"
 "http://www.w3.org/Graphics/SVG/1.1/DTD/svg11.dtd">
<!-- Generated by graphviz version 2.26.3 (20100126.1600)
 -->
<!-- Title: G Pages: 1 -->
<svg width="511pt" height="262pt"
 viewBox="0.00 0.00 511.00 262.00" xmlns="http://www.w3.org/2000/svg" xmlns:xlink="http://www.w3.org/1999/xlink">
<g id="graph1" class="graph" transform="scale(1 1) rotate(0) translate(4 258)">
<title>G</title>
<polygon fill="white" stroke="white" points="-4,5 -4,-258 508,-258 508,5 -4,5"/>
<!-- Node1 -->
<g id="node1" class="node"><title>Node1</title>
<polygon fill="#bfbfbf" stroke="black" points="0,-232.5 0,-253.5 258,-253.5 258,-232.5 0,-232.5"/>
<text text-anchor="middle" x="129" y="-240.5" font-family="Helvetica,sans-Serif" font-size="10.00">/home/vilon_tao/gaia/sdk/include/gaia/webkit/Matcher.h</text>
</g>
<!-- Node2 -->
<g id="node3" class="node"><title>Node2</title>
<polygon fill="white" stroke="#bfbfbf" points="76.5,-0.5 76.5,-21.5 125.5,-21.5 125.5,-0.5 76.5,-0.5"/>
<text text-anchor="middle" x="101" y="-8.5" font-family="Helvetica,sans-Serif" font-size="10.00">stdint.h</text>
</g>
<!-- Node1&#45;&gt;Node2 -->
<g id="edge2" class="edge"><title>Node1&#45;&gt;Node2</title>
<path fill="none" stroke="midnightblue" d="M126.982,-232.2C125.248,-222.691 122.757,-208.458 121,-196 112.651,-136.796 105.92,-66.5019 102.832,-32.0974"/>
<polygon fill="midnightblue" stroke="midnightblue" points="106.295,-31.5261 101.927,-21.8736 99.3226,-32.1432 106.295,-31.5261"/>
</g>
<!-- Node3 -->
<g id="node5" class="node"><title>Node3</title>
<a xlink:href="../../d3/dcc/_match_result_8h.html" target="_top" xlink:title="gaia/webkit/MatchResult.h">
<polygon fill="white" stroke="black" points="129.5,-174.5 129.5,-195.5 262.5,-195.5 262.5,-174.5 129.5,-174.5"/>
<text text-anchor="middle" x="196" y="-182.5" font-family="Helvetica,sans-Serif" font-size="10.00">gaia/webkit/MatchResult.h</text>
</a>
</g>
<!-- Node1&#45;&gt;Node3 -->
<g id="edge4" class="edge"><title>Node1&#45;&gt;Node3</title>
<path fill="none" stroke="midnightblue" d="M141.289,-232.362C151.017,-223.941 164.798,-212.011 176.095,-202.231"/>
<polygon fill="midnightblue" stroke="midnightblue" points="178.519,-204.762 183.789,-195.571 173.938,-199.469 178.519,-204.762"/>
</g>
<!-- Node3&#45;&gt;Node2 -->
<g id="edge6" class="edge"><title>Node3&#45;&gt;Node2</title>
<path fill="none" stroke="midnightblue" d="M186.382,-174.496C170.371,-156.476 138.213,-117.935 120,-80 112.617,-64.6215 107.688,-45.8916 104.704,-31.8286"/>
<polygon fill="midnightblue" stroke="midnightblue" points="108.078,-30.8437 102.719,-21.7041 101.209,-32.1907 108.078,-30.8437"/>
</g>
<!-- Node4 -->
<g id="node8" class="node"><title>Node4</title>
<a xlink:href="../../db/db5/_string_8h.html" target="_top" xlink:title="gaia/base/String.h">
<polygon fill="white" stroke="black" points="239.5,-116.5 239.5,-137.5 334.5,-137.5 334.5,-116.5 239.5,-116.5"/>
<text text-anchor="middle" x="287" y="-124.5" font-family="Helvetica,sans-Serif" font-size="10.00">gaia/base/String.h</text>
</a>
</g>
<!-- Node3&#45;&gt;Node4 -->
<g id="edge8" class="edge"><title>Node3&#45;&gt;Node4</title>
<path fill="none" stroke="midnightblue" d="M212.691,-174.362C226.416,-165.614 246.084,-153.079 261.737,-143.101"/>
<polygon fill="midnightblue" stroke="midnightblue" points="263.863,-145.897 270.415,-137.571 260.101,-139.994 263.863,-145.897"/>
</g>
<!-- Node5 -->
<g id="node10" class="node"><title>Node5</title>
<a xlink:href="../../d7/d97/_char_sequence_8h.html" target="_top" xlink:title="gaia/base/CharSequence.h">
<polygon fill="white" stroke="black" points="129,-58.5 129,-79.5 263,-79.5 263,-58.5 129,-58.5"/>
<text text-anchor="middle" x="196" y="-66.5" font-family="Helvetica,sans-Serif" font-size="10.00">gaia/base/CharSequence.h</text>
</a>
</g>
<!-- Node3&#45;&gt;Node5 -->
<g id="edge20" class="edge"><title>Node3&#45;&gt;Node5</title>
<path fill="none" stroke="midnightblue" d="M196,-174.295C196,-155.131 196,-114.654 196,-89.8434"/>
<polygon fill="midnightblue" stroke="midnightblue" points="199.5,-89.6792 196,-79.6792 192.5,-89.6792 199.5,-89.6792"/>
</g>
<!-- Node8 -->
<g id="node19" class="node"><title>Node8</title>
<a xlink:href="../../db/d53/_string_array_8h.html" target="_top" xlink:title="gaia/base/StringArray.h">
<polygon fill="white" stroke="black" points="384.5,-116.5 384.5,-137.5 503.5,-137.5 503.5,-116.5 384.5,-116.5"/>
<text text-anchor="middle" x="444" y="-124.5" font-family="Helvetica,sans-Serif" font-size="10.00">gaia/base/StringArray.h</text>
</a>
</g>
<!-- Node3&#45;&gt;Node8 -->
<g id="edge22" class="edge"><title>Node3&#45;&gt;Node8</title>
<path fill="none" stroke="midnightblue" d="M240.911,-174.497C282.567,-164.755 344.66,-150.233 389.213,-139.813"/>
<polygon fill="midnightblue" stroke="midnightblue" points="390.065,-143.208 399.005,-137.523 388.471,-136.392 390.065,-143.208"/>
</g>
<!-- Node4&#45;&gt;Node5 -->
<g id="edge10" class="edge"><title>Node4&#45;&gt;Node5</title>
<path fill="none" stroke="midnightblue" d="M270.309,-116.362C256.584,-107.614 236.916,-95.0786 221.263,-85.1015"/>
<polygon fill="midnightblue" stroke="midnightblue" points="222.899,-81.994 212.585,-79.5707 219.137,-87.8969 222.899,-81.994"/>
</g>
<!-- Node6 -->
<g id="node13" class="node"><title>Node6</title>
<a xlink:href="../../d6/d83/_hash_func_8h.html" target="_top" xlink:title="gaia/base/HashFunc.h">
<polygon fill="white" stroke="black" points="280.5,-58.5 280.5,-79.5 395.5,-79.5 395.5,-58.5 280.5,-58.5"/>
<text text-anchor="middle" x="338" y="-66.5" font-family="Helvetica,sans-Serif" font-size="10.00">gaia/base/HashFunc.h</text>
</a>
</g>
<!-- Node4&#45;&gt;Node6 -->
<g id="edge14" class="edge"><title>Node4&#45;&gt;Node6</title>
<path fill="none" stroke="midnightblue" d="M296.354,-116.362C303.543,-108.186 313.641,-96.7025 322.093,-87.0907"/>
<polygon fill="midnightblue" stroke="midnightblue" points="324.73,-89.3916 328.705,-79.5707 319.473,-84.7692 324.73,-89.3916"/>
</g>
<!-- Node7 -->
<g id="node15" class="node"><title>Node7</title>
<polygon fill="white" stroke="#bfbfbf" points="389,-0.5 389,-21.5 457,-21.5 457,-0.5 389,-0.5"/>
<text text-anchor="middle" x="423" y="-8.5" font-family="Helvetica,sans-Serif" font-size="10.00">sys/types.h</text>
</g>
<!-- Node4&#45;&gt;Node7 -->
<g id="edge18" class="edge"><title>Node4&#45;&gt;Node7</title>
<path fill="none" stroke="midnightblue" d="M334.699,-118.307C358.585,-111.626 386.142,-100.004 404,-80 415.737,-66.8524 420.3,-47.0913 422.037,-32.0817"/>
<polygon fill="midnightblue" stroke="midnightblue" points="425.557,-31.9706 422.885,-21.7183 418.581,-31.3993 425.557,-31.9706"/>
</g>
<!-- Node5&#45;&gt;Node2 -->
<g id="edge12" class="edge"><title>Node5&#45;&gt;Node2</title>
<path fill="none" stroke="midnightblue" d="M178.576,-58.3619C164.113,-49.532 143.331,-36.844 126.916,-26.8224"/>
<polygon fill="midnightblue" stroke="midnightblue" points="128.673,-23.7943 118.314,-21.5707 125.025,-29.7688 128.673,-23.7943"/>
</g>
<!-- Node6&#45;&gt;Node7 -->
<g id="edge16" class="edge"><title>Node6&#45;&gt;Node7</title>
<path fill="none" stroke="midnightblue" d="M353.59,-58.3619C366.291,-49.6955 384.438,-37.3126 398.992,-27.3819"/>
<polygon fill="midnightblue" stroke="midnightblue" points="401.221,-30.0982 407.509,-21.5707 397.276,-24.316 401.221,-30.0982"/>
</g>
<!-- Node8&#45;&gt;Node7 -->
<g id="edge24" class="edge"><title>Node8&#45;&gt;Node7</title>
<path fill="none" stroke="midnightblue" d="M443.532,-116.15C442.797,-102.48 441.019,-78.3162 437,-58 435.254,-49.1728 432.563,-39.6235 430.006,-31.4528"/>
<polygon fill="midnightblue" stroke="midnightblue" points="433.246,-30.0994 426.811,-21.6824 426.592,-32.275 433.246,-30.0994"/>
</g>
</g>
</svg>
