<?xml version="1.0" encoding="UTF-8" standalone="no"?>
<!DOCTYPE svg PUBLIC "-//W3C//DTD SVG 1.1//EN"
 "http://www.w3.org/Graphics/SVG/1.1/DTD/svg11.dtd">
<!-- Generated by graphviz version 2.26.3 (20100126.1600)
 -->
<!-- Title: G Pages: 1 -->
<svg width="609pt" height="262pt"
 viewBox="0.00 0.00 609.00 262.00" xmlns="http://www.w3.org/2000/svg" xmlns:xlink="http://www.w3.org/1999/xlink">
<g id="graph1" class="graph" transform="scale(1 1) rotate(0) translate(4 258)">
<title>G</title>
<polygon fill="white" stroke="white" points="-4,5 -4,-258 606,-258 606,5 -4,5"/>
<!-- Node1 -->
<g id="node1" class="node"><title>Node1</title>
<polygon fill="#bfbfbf" stroke="black" points="12,-232.5 12,-253.5 242,-253.5 242,-232.5 12,-232.5"/>
<text text-anchor="middle" x="127" y="-240.5" font-family="Helvetica,sans-Serif" font-size="10.00">/home/vilon_tao/gaia/sdk/include/gaia/ui/Footer.h</text>
</g>
<!-- Node2 -->
<g id="node3" class="node"><title>Node2</title>
<a xlink:href="../../d4/d98/_context_8h.html" target="_top" xlink:title="gaia/core/Context.h">
<polygon fill="white" stroke="black" points="0,-174.5 0,-195.5 102,-195.5 102,-174.5 0,-174.5"/>
<text text-anchor="middle" x="51" y="-182.5" font-family="Helvetica,sans-Serif" font-size="10.00">gaia/core/Context.h</text>
</a>
</g>
<!-- Node1&#45;&gt;Node2 -->
<g id="edge2" class="edge"><title>Node1&#45;&gt;Node2</title>
<path fill="none" stroke="midnightblue" d="M113.06,-232.362C101.812,-223.777 85.7842,-211.546 72.835,-201.664"/>
<polygon fill="midnightblue" stroke="midnightblue" points="74.9241,-198.855 64.8512,-195.571 70.6774,-204.42 74.9241,-198.855"/>
</g>
<!-- Node4 -->
<g id="node7" class="node"><title>Node4</title>
<a xlink:href="../../d6/d52/_widget_controller_8h.html" target="_top" xlink:title="gaia/core/vision/WidgetController.h">
<polygon fill="white" stroke="black" points="119.5,-174.5 119.5,-195.5 288.5,-195.5 288.5,-174.5 119.5,-174.5"/>
<text text-anchor="middle" x="204" y="-182.5" font-family="Helvetica,sans-Serif" font-size="10.00">gaia/core/vision/WidgetController.h</text>
</a>
</g>
<!-- Node1&#45;&gt;Node4 -->
<g id="edge6" class="edge"><title>Node1&#45;&gt;Node4</title>
<path fill="none" stroke="midnightblue" d="M141.123,-232.362C152.52,-223.777 168.758,-211.546 181.878,-201.664"/>
<polygon fill="midnightblue" stroke="midnightblue" points="184.085,-204.383 189.967,-195.571 179.873,-198.792 184.085,-204.383"/>
</g>
<!-- Node3 -->
<g id="node5" class="node"><title>Node3</title>
<polygon fill="white" stroke="#bfbfbf" points="55,-0.5 55,-21.5 123,-21.5 123,-0.5 55,-0.5"/>
<text text-anchor="middle" x="89" y="-8.5" font-family="Helvetica,sans-Serif" font-size="10.00">sys/types.h</text>
</g>
<!-- Node2&#45;&gt;Node3 -->
<g id="edge4" class="edge"><title>Node2&#45;&gt;Node3</title>
<path fill="none" stroke="midnightblue" d="M53.3199,-174.377C59.4797,-146.172 76.3307,-69.0121 84.4749,-31.7203"/>
<polygon fill="midnightblue" stroke="midnightblue" points="87.8992,-32.4442 86.6135,-21.9277 81.0604,-30.9507 87.8992,-32.4442"/>
</g>
<!-- Node5 -->
<g id="node9" class="node"><title>Node5</title>
<a xlink:href="../../d3/dd0/_event_control_8h.html" target="_top" xlink:title="gaia/core/event/EventControl.h">
<polygon fill="white" stroke="black" points="92,-116.5 92,-137.5 244,-137.5 244,-116.5 92,-116.5"/>
<text text-anchor="middle" x="168" y="-124.5" font-family="Helvetica,sans-Serif" font-size="10.00">gaia/core/event/EventControl.h</text>
</a>
</g>
<!-- Node4&#45;&gt;Node5 -->
<g id="edge8" class="edge"><title>Node4&#45;&gt;Node5</title>
<path fill="none" stroke="midnightblue" d="M197.397,-174.362C192.525,-166.513 185.762,-155.616 179.95,-146.253"/>
<polygon fill="midnightblue" stroke="midnightblue" points="182.809,-144.221 174.561,-137.571 176.861,-147.913 182.809,-144.221"/>
</g>
<!-- Node6 -->
<g id="node12" class="node"><title>Node6</title>
<a xlink:href="../../d4/d75/_widget_8h.html" target="_top" xlink:title="gaia/core/vision/Widget.h">
<polygon fill="white" stroke="black" points="267.5,-116.5 267.5,-137.5 394.5,-137.5 394.5,-116.5 267.5,-116.5"/>
<text text-anchor="middle" x="331" y="-124.5" font-family="Helvetica,sans-Serif" font-size="10.00">gaia/core/vision/Widget.h</text>
</a>
</g>
<!-- Node4&#45;&gt;Node6 -->
<g id="edge12" class="edge"><title>Node4&#45;&gt;Node6</title>
<path fill="none" stroke="midnightblue" d="M226.999,-174.497C247.013,-165.356 276.241,-152.008 298.619,-141.788"/>
<polygon fill="midnightblue" stroke="midnightblue" points="300.101,-144.959 307.743,-137.621 297.193,-138.592 300.101,-144.959"/>
</g>
<!-- Node5&#45;&gt;Node3 -->
<g id="edge10" class="edge"><title>Node5&#45;&gt;Node3</title>
<path fill="none" stroke="midnightblue" d="M148.815,-116.469C135.493,-108.21 118.341,-95.5289 108,-80 98.341,-65.4958 93.5627,-46.1741 91.2164,-31.6668"/>
<polygon fill="midnightblue" stroke="midnightblue" points="94.6726,-31.1075 89.8556,-21.671 87.7366,-32.0517 94.6726,-31.1075"/>
</g>
<!-- Node7 -->
<g id="node14" class="node"><title>Node7</title>
<a xlink:href="../../d1/dd0/gmacros_8h.html" target="_top" xlink:title="gaia/base/gmacros.h">
<polygon fill="white" stroke="black" points="116.5,-58.5 116.5,-79.5 223.5,-79.5 223.5,-58.5 116.5,-58.5"/>
<text text-anchor="middle" x="170" y="-66.5" font-family="Helvetica,sans-Serif" font-size="10.00">gaia/base/gmacros.h</text>
</a>
</g>
<!-- Node6&#45;&gt;Node7 -->
<g id="edge14" class="edge"><title>Node6&#45;&gt;Node7</title>
<path fill="none" stroke="midnightblue" d="M301.844,-116.497C275.824,-107.123 237.521,-93.3242 208.896,-83.0122"/>
<polygon fill="midnightblue" stroke="midnightblue" points="209.805,-79.6195 199.211,-79.5231 207.432,-86.2052 209.805,-79.6195"/>
</g>
<!-- Node8 -->
<g id="node16" class="node"><title>Node8</title>
<a xlink:href="../../d0/d92/_property_animatable_8h.html" target="_top" xlink:title="gaia/core/animator/PropertyAnimatable.h">
<polygon fill="white" stroke="black" points="241,-58.5 241,-79.5 435,-79.5 435,-58.5 241,-58.5"/>
<text text-anchor="middle" x="338" y="-66.5" font-family="Helvetica,sans-Serif" font-size="10.00">gaia/core/animator/PropertyAnimatable.h</text>
</a>
</g>
<!-- Node6&#45;&gt;Node8 -->
<g id="edge16" class="edge"><title>Node6&#45;&gt;Node8</title>
<path fill="none" stroke="midnightblue" d="M332.284,-116.362C333.182,-108.922 334.41,-98.7427 335.498,-89.7276"/>
<polygon fill="midnightblue" stroke="midnightblue" points="339.001,-89.918 336.724,-79.5707 332.051,-89.0792 339.001,-89.918"/>
</g>
<!-- Node9 -->
<g id="node19" class="node"><title>Node9</title>
<a xlink:href="../../d8/d50/_widget_core_8h.html" target="_top" xlink:title="gaia/core/vision/WidgetCore.h">
<polygon fill="white" stroke="black" points="453,-58.5 453,-79.5 601,-79.5 601,-58.5 453,-58.5"/>
<text text-anchor="middle" x="527" y="-66.5" font-family="Helvetica,sans-Serif" font-size="10.00">gaia/core/vision/WidgetCore.h</text>
</a>
</g>
<!-- Node6&#45;&gt;Node9 -->
<g id="edge20" class="edge"><title>Node6&#45;&gt;Node9</title>
<path fill="none" stroke="midnightblue" d="M366.494,-116.497C398.724,-106.959 446.434,-92.8408 481.464,-82.475"/>
<polygon fill="midnightblue" stroke="midnightblue" points="482.844,-85.7168 491.439,-79.5231 480.857,-79.0045 482.844,-85.7168"/>
</g>
<!-- Node8&#45;&gt;Node3 -->
<g id="edge18" class="edge"><title>Node8&#45;&gt;Node3</title>
<path fill="none" stroke="midnightblue" d="M292.908,-58.4966C247.566,-47.9351 178.108,-31.7561 133.116,-21.276"/>
<polygon fill="midnightblue" stroke="midnightblue" points="133.882,-17.8608 123.349,-19.0009 132.294,-24.6783 133.882,-17.8608"/>
</g>
<!-- Node10 -->
<g id="node21" class="node"><title>Node10</title>
<polygon fill="white" stroke="#bfbfbf" points="502.5,-0.5 502.5,-21.5 551.5,-21.5 551.5,-0.5 502.5,-0.5"/>
<text text-anchor="middle" x="527" y="-8.5" font-family="Helvetica,sans-Serif" font-size="10.00">stdint.h</text>
</g>
<!-- Node9&#45;&gt;Node10 -->
<g id="edge22" class="edge"><title>Node9&#45;&gt;Node10</title>
<path fill="none" stroke="midnightblue" d="M527,-58.3619C527,-50.9219 527,-40.7427 527,-31.7276"/>
<polygon fill="midnightblue" stroke="midnightblue" points="530.5,-31.5706 527,-21.5707 523.5,-31.5707 530.5,-31.5706"/>
</g>
</g>
</svg>
