<?xml version="1.0" encoding="UTF-8" standalone="no"?>
<!DOCTYPE svg PUBLIC "-//W3C//DTD SVG 1.1//EN"
 "http://www.w3.org/Graphics/SVG/1.1/DTD/svg11.dtd">
<!-- Generated by graphviz version 2.26.3 (20100126.1600)
 -->
<!-- Title: G Pages: 1 -->
<svg width="1253pt" height="146pt"
 viewBox="0.00 0.00 1253.00 146.00" xmlns="http://www.w3.org/2000/svg" xmlns:xlink="http://www.w3.org/1999/xlink">
<g id="graph1" class="graph" transform="scale(1 1) rotate(0) translate(4 142)">
<title>G</title>
<polygon fill="white" stroke="white" points="-4,5 -4,-142 1250,-142 1250,5 -4,5"/>
<!-- Node1 -->
<g id="node1" class="node"><title>Node1</title>
<polygon fill="#bfbfbf" stroke="black" points="527.5,-116.5 527.5,-137.5 796.5,-137.5 796.5,-116.5 527.5,-116.5"/>
<text text-anchor="middle" x="662" y="-124.5" font-family="Helvetica,sans-Serif" font-size="10.00">/home/vilon_tao/gaia/sdk/include/gaia/core/vision/Scene.h</text>
</g>
<!-- Node2 -->
<g id="node3" class="node"><title>Node2</title>
<a xlink:href="../../d3/d9b/_combo_picker_8h.html" target="_top" xlink:title="/home/vilon_tao/gaia/sdk/include/gaia/ui/ComboPicker.h">
<polygon fill="white" stroke="black" points="-0.5,-58.5 -0.5,-79.5 260.5,-79.5 260.5,-58.5 -0.5,-58.5"/>
<text text-anchor="middle" x="130" y="-66.5" font-family="Helvetica,sans-Serif" font-size="10.00">/home/vilon_tao/gaia/sdk/include/gaia/ui/ComboPicker.h</text>
</a>
</g>
<!-- Node1&#45;&gt;Node2 -->
<g id="edge2" class="edge"><title>Node1&#45;&gt;Node2</title>
<path fill="none" stroke="midnightblue" d="M555.629,-115.403C459.563,-104.93 319.415,-89.6505 226.522,-79.5231"/>
<polygon fill="midnightblue" stroke="midnightblue" points="555.338,-118.892 565.659,-116.497 556.097,-111.933 555.338,-118.892"/>
</g>
<!-- Node3 -->
<g id="node5" class="node"><title>Node3</title>
<a xlink:href="../../d4/d1e/_hint_box_8h.html" target="_top" xlink:title="/home/vilon_tao/gaia/sdk/include/gaia/ui/HintBox.h">
<polygon fill="white" stroke="black" points="277.5,-58.5 277.5,-79.5 514.5,-79.5 514.5,-58.5 277.5,-58.5"/>
<text text-anchor="middle" x="396" y="-66.5" font-family="Helvetica,sans-Serif" font-size="10.00">/home/vilon_tao/gaia/sdk/include/gaia/ui/HintBox.h</text>
</a>
</g>
<!-- Node1&#45;&gt;Node3 -->
<g id="edge4" class="edge"><title>Node1&#45;&gt;Node3</title>
<path fill="none" stroke="midnightblue" d="M603.935,-114.339C556.132,-103.916 489.158,-89.3126 444.261,-79.5231"/>
<polygon fill="midnightblue" stroke="midnightblue" points="603.313,-117.786 613.829,-116.497 604.805,-110.947 603.313,-117.786"/>
</g>
<!-- Node4 -->
<g id="node7" class="node"><title>Node4</title>
<a xlink:href="../../d8/d37/_image_widget_8h.html" target="_top" xlink:title="/home/vilon_tao/gaia/sdk/include/gaia/ui/ImageWidget.h">
<polygon fill="white" stroke="black" points="532,-58.5 532,-79.5 792,-79.5 792,-58.5 532,-58.5"/>
<text text-anchor="middle" x="662" y="-66.5" font-family="Helvetica,sans-Serif" font-size="10.00">/home/vilon_tao/gaia/sdk/include/gaia/ui/ImageWidget.h</text>
</a>
</g>
<!-- Node1&#45;&gt;Node4 -->
<g id="edge6" class="edge"><title>Node1&#45;&gt;Node4</title>
<path fill="none" stroke="midnightblue" d="M662,-106.191C662,-97.1684 662,-86.9941 662,-79.5707"/>
<polygon fill="midnightblue" stroke="midnightblue" points="658.5,-106.362 662,-116.362 665.5,-106.362 658.5,-106.362"/>
</g>
<!-- Node8 -->
<g id="node15" class="node"><title>Node8</title>
<a xlink:href="../../d5/d80/_widget_animator_8h.html" target="_top" xlink:title="/home/vilon_tao/gaia/sdk/include/gaia/ui/WidgetAnimator.h">
<polygon fill="white" stroke="black" points="810,-58.5 810,-79.5 1082,-79.5 1082,-58.5 810,-58.5"/>
<text text-anchor="middle" x="946" y="-66.5" font-family="Helvetica,sans-Serif" font-size="10.00">/home/vilon_tao/gaia/sdk/include/gaia/ui/WidgetAnimator.h</text>
</a>
</g>
<!-- Node1&#45;&gt;Node8 -->
<g id="edge14" class="edge"><title>Node1&#45;&gt;Node8</title>
<path fill="none" stroke="midnightblue" d="M723.355,-114.47C774.434,-104.038 846.338,-89.3535 894.473,-79.5231"/>
<polygon fill="midnightblue" stroke="midnightblue" points="722.528,-111.066 713.43,-116.497 723.928,-117.925 722.528,-111.066"/>
</g>
<!-- Node9 -->
<g id="node17" class="node"><title>Node9</title>
<a xlink:href="../../dd/de8/_widget_switcher_8h.html" target="_top" xlink:title="/home/vilon_tao/gaia/sdk/include/gaia/ui/WidgetSwitcher.h">
<polygon fill="white" stroke="black" points="974.5,-0.5 974.5,-21.5 1245.5,-21.5 1245.5,-0.5 974.5,-0.5"/>
<text text-anchor="middle" x="1110" y="-8.5" font-family="Helvetica,sans-Serif" font-size="10.00">/home/vilon_tao/gaia/sdk/include/gaia/ui/WidgetSwitcher.h</text>
</a>
</g>
<!-- Node1&#45;&gt;Node9 -->
<g id="edge18" class="edge"><title>Node1&#45;&gt;Node9</title>
<path fill="none" stroke="midnightblue" d="M806.827,-119.129C922.725,-111.52 1069.37,-98.4276 1091,-80 1108.12,-65.4158 1110.53,-36.9619 1110.47,-21.5415"/>
<polygon fill="midnightblue" stroke="midnightblue" points="806.529,-115.641 796.776,-119.78 806.981,-122.626 806.529,-115.641"/>
</g>
<!-- Node5 -->
<g id="node9" class="node"><title>Node5</title>
<a xlink:href="../../de/d70/_image_button_8h.html" target="_top" xlink:title="/home/vilon_tao/gaia/sdk/include/gaia/ui/ImageButton.h">
<polygon fill="white" stroke="black" points="42.5,-0.5 42.5,-21.5 299.5,-21.5 299.5,-0.5 42.5,-0.5"/>
<text text-anchor="middle" x="171" y="-8.5" font-family="Helvetica,sans-Serif" font-size="10.00">/home/vilon_tao/gaia/sdk/include/gaia/ui/ImageButton.h</text>
</a>
</g>
<!-- Node4&#45;&gt;Node5 -->
<g id="edge8" class="edge"><title>Node4&#45;&gt;Node5</title>
<path fill="none" stroke="midnightblue" d="M563.019,-57.3078C474.38,-46.8372 345.557,-31.6198 260.083,-21.5231"/>
<polygon fill="midnightblue" stroke="midnightblue" points="562.742,-60.7993 573.084,-58.4966 563.563,-53.8476 562.742,-60.7993"/>
</g>
<!-- Node6 -->
<g id="node11" class="node"><title>Node6</title>
<a xlink:href="../../d1/de8/_quick_contact_badge_8h.html" target="_top" xlink:title="/home/vilon_tao/gaia/sdk/include/gaia/ui/QuickContactBadge.h">
<polygon fill="white" stroke="black" points="317,-0.5 317,-21.5 607,-21.5 607,-0.5 317,-0.5"/>
<text text-anchor="middle" x="462" y="-8.5" font-family="Helvetica,sans-Serif" font-size="10.00">/home/vilon_tao/gaia/sdk/include/gaia/ui/QuickContactBadge.h</text>
</a>
</g>
<!-- Node4&#45;&gt;Node6 -->
<g id="edge10" class="edge"><title>Node4&#45;&gt;Node6</title>
<path fill="none" stroke="midnightblue" d="M616.067,-55.6795C580.3,-45.307 531.337,-31.1078 498.286,-21.5231"/>
<polygon fill="midnightblue" stroke="midnightblue" points="615.202,-59.0728 625.782,-58.4966 617.152,-52.3498 615.202,-59.0728"/>
</g>
<!-- Node7 -->
<g id="node13" class="node"><title>Node7</title>
<a xlink:href="../../db/daf/_simple_cursor_list_item_provider_8h.html" target="_top" xlink:title="/home/vilon_tao/gaia/sdk/include/gaia/ui/SimpleCursorListItemProvider.h">
<polygon fill="white" stroke="black" points="625,-0.5 625,-21.5 957,-21.5 957,-0.5 625,-0.5"/>
<text text-anchor="middle" x="791" y="-8.5" font-family="Helvetica,sans-Serif" font-size="10.00">/home/vilon_tao/gaia/sdk/include/gaia/ui/SimpleCursorListItemProvider.h</text>
</a>
</g>
<!-- Node4&#45;&gt;Node7 -->
<g id="edge12" class="edge"><title>Node4&#45;&gt;Node7</title>
<path fill="none" stroke="midnightblue" d="M694.599,-54.3431C717.269,-44.1502 746.967,-30.7977 767.377,-21.6212"/>
<polygon fill="midnightblue" stroke="midnightblue" points="693.046,-51.2037 685.361,-58.4966 695.917,-57.5881 693.046,-51.2037"/>
</g>
<!-- Node8&#45;&gt;Node9 -->
<g id="edge16" class="edge"><title>Node8&#45;&gt;Node9</title>
<path fill="none" stroke="midnightblue" d="M985.178,-55.1443C1014.36,-44.8229 1053.61,-30.9439 1080.25,-21.5231"/>
<polygon fill="midnightblue" stroke="midnightblue" points="983.96,-51.8626 975.699,-58.4966 986.294,-58.4621 983.96,-51.8626"/>
</g>
</g>
</svg>
