<?xml version="1.0" encoding="UTF-8" standalone="no"?>
<!DOCTYPE svg PUBLIC "-//W3C//DTD SVG 1.1//EN"
 "http://www.w3.org/Graphics/SVG/1.1/DTD/svg11.dtd">
<!-- Generated by graphviz version 2.26.3 (20100126.1600)
 -->
<!-- Title: G Pages: 1 -->
<svg width="819pt" height="378pt"
 viewBox="0.00 0.00 819.00 378.00" xmlns="http://www.w3.org/2000/svg" xmlns:xlink="http://www.w3.org/1999/xlink">
<g id="graph1" class="graph" transform="scale(1 1) rotate(0) translate(4 374)">
<title>G</title>
<polygon fill="white" stroke="white" points="-4,5 -4,-374 816,-374 816,5 -4,5"/>
<!-- Node1 -->
<g id="node1" class="node"><title>Node1</title>
<polygon fill="#bfbfbf" stroke="black" points="-0.5,-348.5 -0.5,-369.5 314.5,-369.5 314.5,-348.5 -0.5,-348.5"/>
<text text-anchor="middle" x="157" y="-356.5" font-family="Helvetica,sans-Serif" font-size="10.00">/home/vilon_tao/gaia/sdk/include/gaia/text/style/ReplacementSpan.h</text>
</g>
<!-- Node2 -->
<g id="node3" class="node"><title>Node2</title>
<a xlink:href="../../d7/d97/_char_sequence_8h.html" target="_top" xlink:title="gaia/base/CharSequence.h">
<polygon fill="white" stroke="black" points="79,-58.5 79,-79.5 213,-79.5 213,-58.5 79,-58.5"/>
<text text-anchor="middle" x="146" y="-66.5" font-family="Helvetica,sans-Serif" font-size="10.00">gaia/base/CharSequence.h</text>
</a>
</g>
<!-- Node1&#45;&gt;Node2 -->
<g id="edge2" class="edge"><title>Node1&#45;&gt;Node2</title>
<path fill="none" stroke="midnightblue" d="M139.319,-348.247C112.09,-330.178 63,-290.954 63,-243 63,-243 63,-243 63,-185 63,-153.071 64.8143,-142.244 83,-116 91.756,-103.364 105.006,-92.7478 117.099,-84.8203"/>
<polygon fill="midnightblue" stroke="midnightblue" points="118.968,-87.7797 125.619,-79.5327 115.277,-81.8319 118.968,-87.7797"/>
</g>
<!-- Node4 -->
<g id="node7" class="node"><title>Node4</title>
<a xlink:href="../../db/d7d/_paint_8h.html" target="_top" xlink:title="gaia/graphics/Paint.h">
<polygon fill="white" stroke="black" points="92,-116.5 92,-137.5 200,-137.5 200,-116.5 92,-116.5"/>
<text text-anchor="middle" x="146" y="-124.5" font-family="Helvetica,sans-Serif" font-size="10.00">gaia/graphics/Paint.h</text>
</a>
</g>
<!-- Node1&#45;&gt;Node4 -->
<g id="edge6" class="edge"><title>Node1&#45;&gt;Node4</title>
<path fill="none" stroke="midnightblue" d="M151.59,-348.477C137.704,-320.089 103.052,-239.649 120,-174 122.54,-164.16 127.63,-154.18 132.638,-145.962"/>
<polygon fill="midnightblue" stroke="midnightblue" points="135.6,-147.827 138.117,-137.535 129.732,-144.011 135.6,-147.827"/>
</g>
<!-- Node5 -->
<g id="node10" class="node"><title>Node5</title>
<a xlink:href="../../d5/d17/_canvas_8h.html" target="_top" xlink:title="gaia/graphics/Canvas.h">
<polygon fill="white" stroke="black" points="399.5,-290.5 399.5,-311.5 518.5,-311.5 518.5,-290.5 399.5,-290.5"/>
<text text-anchor="middle" x="459" y="-298.5" font-family="Helvetica,sans-Serif" font-size="10.00">gaia/graphics/Canvas.h</text>
</a>
</g>
<!-- Node1&#45;&gt;Node5 -->
<g id="edge10" class="edge"><title>Node1&#45;&gt;Node5</title>
<path fill="none" stroke="midnightblue" d="M211.69,-348.497C263.055,-338.632 339.939,-323.866 394.325,-313.421"/>
<polygon fill="midnightblue" stroke="midnightblue" points="395.047,-316.846 404.208,-311.523 393.727,-309.972 395.047,-316.846"/>
</g>
<!-- Node13 -->
<g id="node29" class="node"><title>Node13</title>
<a xlink:href="../../d5/d4f/_text_paint_8h.html" target="_top" xlink:title="gaia/text/TextPaint.h">
<polygon fill="white" stroke="black" points="128.5,-174.5 128.5,-195.5 235.5,-195.5 235.5,-174.5 128.5,-174.5"/>
<text text-anchor="middle" x="182" y="-182.5" font-family="Helvetica,sans-Serif" font-size="10.00">gaia/text/TextPaint.h</text>
</a>
</g>
<!-- Node1&#45;&gt;Node13 -->
<g id="edge32" class="edge"><title>Node1&#45;&gt;Node13</title>
<path fill="none" stroke="midnightblue" d="M158.526,-348.377C162.561,-320.293 173.57,-243.673 178.954,-206.203"/>
<polygon fill="midnightblue" stroke="midnightblue" points="182.472,-206.324 180.43,-195.928 175.543,-205.328 182.472,-206.324"/>
</g>
<!-- Node14 -->
<g id="node33" class="node"><title>Node14</title>
<a xlink:href="../../d6/d5c/_metric_affecting_span_8h.html" target="_top" xlink:title="gaia/text/style/MetricAffectingSpan.h">
<polygon fill="white" stroke="black" points="185,-290.5 185,-311.5 363,-311.5 363,-290.5 185,-290.5"/>
<text text-anchor="middle" x="274" y="-298.5" font-family="Helvetica,sans-Serif" font-size="10.00">gaia/text/style/MetricAffectingSpan.h</text>
</a>
</g>
<!-- Node1&#45;&gt;Node14 -->
<g id="edge38" class="edge"><title>Node1&#45;&gt;Node14</title>
<path fill="none" stroke="midnightblue" d="M178.188,-348.497C196.462,-339.438 223.072,-326.246 243.615,-316.063"/>
<polygon fill="midnightblue" stroke="midnightblue" points="245.169,-319.199 252.574,-311.621 242.06,-312.927 245.169,-319.199"/>
</g>
<!-- Node3 -->
<g id="node5" class="node"><title>Node3</title>
<polygon fill="white" stroke="#bfbfbf" points="168.5,-0.5 168.5,-21.5 217.5,-21.5 217.5,-0.5 168.5,-0.5"/>
<text text-anchor="middle" x="193" y="-8.5" font-family="Helvetica,sans-Serif" font-size="10.00">stdint.h</text>
</g>
<!-- Node2&#45;&gt;Node3 -->
<g id="edge4" class="edge"><title>Node2&#45;&gt;Node3</title>
<path fill="none" stroke="midnightblue" d="M154.621,-58.3619C161.18,-50.2678 170.366,-38.9318 178.106,-29.3796"/>
<polygon fill="midnightblue" stroke="midnightblue" points="180.858,-31.5436 184.434,-21.5707 175.419,-27.1364 180.858,-31.5436"/>
</g>
<!-- Node4&#45;&gt;Node2 -->
<g id="edge8" class="edge"><title>Node4&#45;&gt;Node2</title>
<path fill="none" stroke="midnightblue" d="M146,-116.362C146,-108.922 146,-98.7427 146,-89.7276"/>
<polygon fill="midnightblue" stroke="midnightblue" points="149.5,-89.5706 146,-79.5707 142.5,-89.5707 149.5,-89.5706"/>
</g>
<!-- Node6 -->
<g id="node12" class="node"><title>Node6</title>
<polygon fill="white" stroke="#bfbfbf" points="529,-58.5 529,-79.5 597,-79.5 597,-58.5 529,-58.5"/>
<text text-anchor="middle" x="563" y="-66.5" font-family="Helvetica,sans-Serif" font-size="10.00">sys/types.h</text>
</g>
<!-- Node5&#45;&gt;Node6 -->
<g id="edge12" class="edge"><title>Node5&#45;&gt;Node6</title>
<path fill="none" stroke="midnightblue" d="M461.413,-290.067C464.585,-276.312 470.628,-252.059 478,-232 497.617,-178.623 504.269,-165.648 532,-116 537.321,-106.474 543.895,-96.3195 549.619,-87.8956"/>
<polygon fill="midnightblue" stroke="midnightblue" points="552.584,-89.7608 555.395,-79.5457 546.828,-85.7781 552.584,-89.7608"/>
</g>
<!-- Node7 -->
<g id="node14" class="node"><title>Node7</title>
<a xlink:href="../../d1/dd0/gmacros_8h.html" target="_top" xlink:title="gaia/base/gmacros.h">
<polygon fill="white" stroke="black" points="269.5,-116.5 269.5,-137.5 376.5,-137.5 376.5,-116.5 269.5,-116.5"/>
<text text-anchor="middle" x="323" y="-124.5" font-family="Helvetica,sans-Serif" font-size="10.00">gaia/base/gmacros.h</text>
</a>
</g>
<!-- Node5&#45;&gt;Node7 -->
<g id="edge14" class="edge"><title>Node5&#45;&gt;Node7</title>
<path fill="none" stroke="midnightblue" d="M455.222,-290.485C445.379,-263.494 418.563,-192.583 402,-174 390.041,-160.582 373.314,-149.874 358.329,-142.088"/>
<polygon fill="midnightblue" stroke="midnightblue" points="359.798,-138.91 349.282,-137.619 356.698,-145.186 359.798,-138.91"/>
</g>
<!-- Node8 -->
<g id="node16" class="node"><title>Node8</title>
<a xlink:href="../../d0/db4/_region_8h.html" target="_top" xlink:title="gaia/graphics/Region.h">
<polygon fill="white" stroke="black" points="487,-232.5 487,-253.5 603,-253.5 603,-232.5 487,-232.5"/>
<text text-anchor="middle" x="545" y="-240.5" font-family="Helvetica,sans-Serif" font-size="10.00">gaia/graphics/Region.h</text>
</a>
</g>
<!-- Node5&#45;&gt;Node8 -->
<g id="edge16" class="edge"><title>Node5&#45;&gt;Node8</title>
<path fill="none" stroke="midnightblue" d="M474.774,-290.362C487.624,-281.696 505.985,-269.313 520.71,-259.382"/>
<polygon fill="midnightblue" stroke="midnightblue" points="522.993,-262.064 529.326,-253.571 519.079,-256.26 522.993,-262.064"/>
</g>
<!-- Node9 -->
<g id="node19" class="node"><title>Node9</title>
<a xlink:href="../../d1/df6/_porter_duff_8h.html" target="_top" xlink:title="gaia/graphics/PorterDuff.h">
<polygon fill="white" stroke="black" points="620.5,-232.5 620.5,-253.5 751.5,-253.5 751.5,-232.5 620.5,-232.5"/>
<text text-anchor="middle" x="686" y="-240.5" font-family="Helvetica,sans-Serif" font-size="10.00">gaia/graphics/PorterDuff.h</text>
</a>
</g>
<!-- Node5&#45;&gt;Node9 -->
<g id="edge20" class="edge"><title>Node5&#45;&gt;Node9</title>
<path fill="none" stroke="midnightblue" d="M500.108,-290.497C537.996,-280.816 594.356,-266.416 635.08,-256.01"/>
<polygon fill="midnightblue" stroke="midnightblue" points="635.993,-259.39 644.815,-253.523 634.26,-252.608 635.993,-259.39"/>
</g>
<!-- Node8&#45;&gt;Node6 -->
<g id="edge18" class="edge"><title>Node8&#45;&gt;Node6</title>
<path fill="none" stroke="midnightblue" d="M542.697,-232.285C538.358,-210.195 530.243,-158.134 540,-116 542.209,-106.458 546.637,-96.6176 551.023,-88.4219"/>
<polygon fill="midnightblue" stroke="midnightblue" points="554.099,-90.0929 556.017,-79.673 548.02,-86.6228 554.099,-90.0929"/>
</g>
<!-- Node10 -->
<g id="node21" class="node"><title>Node10</title>
<a xlink:href="../../dd/d0b/_hash_map_8h.html" target="_top" xlink:title="gaia/base/HashMap.h">
<polygon fill="white" stroke="black" points="630,-174.5 630,-195.5 742,-195.5 742,-174.5 630,-174.5"/>
<text text-anchor="middle" x="686" y="-182.5" font-family="Helvetica,sans-Serif" font-size="10.00">gaia/base/HashMap.h</text>
</a>
</g>
<!-- Node9&#45;&gt;Node10 -->
<g id="edge22" class="edge"><title>Node9&#45;&gt;Node10</title>
<path fill="none" stroke="midnightblue" d="M686,-232.362C686,-224.922 686,-214.743 686,-205.728"/>
<polygon fill="midnightblue" stroke="midnightblue" points="689.5,-205.571 686,-195.571 682.5,-205.571 689.5,-205.571"/>
</g>
<!-- Node11 -->
<g id="node23" class="node"><title>Node11</title>
<a xlink:href="../../d6/d83/_hash_func_8h.html" target="_top" xlink:title="gaia/base/HashFunc.h">
<polygon fill="white" stroke="black" points="548.5,-116.5 548.5,-137.5 663.5,-137.5 663.5,-116.5 548.5,-116.5"/>
<text text-anchor="middle" x="606" y="-124.5" font-family="Helvetica,sans-Serif" font-size="10.00">gaia/base/HashFunc.h</text>
</a>
</g>
<!-- Node10&#45;&gt;Node11 -->
<g id="edge24" class="edge"><title>Node10&#45;&gt;Node11</title>
<path fill="none" stroke="midnightblue" d="M671.327,-174.362C659.486,-165.777 642.615,-153.546 628.984,-143.664"/>
<polygon fill="midnightblue" stroke="midnightblue" points="630.731,-140.607 620.58,-137.571 626.622,-146.274 630.731,-140.607"/>
</g>
<!-- Node12 -->
<g id="node26" class="node"><title>Node12</title>
<a xlink:href="../../dc/d11/_hash_map_impl_8h.html" target="_top" xlink:title="gaia/base/HashMapImpl.h">
<polygon fill="white" stroke="black" points="680.5,-116.5 680.5,-137.5 811.5,-137.5 811.5,-116.5 680.5,-116.5"/>
<text text-anchor="middle" x="746" y="-124.5" font-family="Helvetica,sans-Serif" font-size="10.00">gaia/base/HashMapImpl.h</text>
</a>
</g>
<!-- Node10&#45;&gt;Node12 -->
<g id="edge28" class="edge"><title>Node10&#45;&gt;Node12</title>
<path fill="none" stroke="midnightblue" d="M697.005,-174.362C705.547,-166.104 717.58,-154.472 727.583,-144.803"/>
<polygon fill="midnightblue" stroke="midnightblue" points="730.308,-147.037 735.065,-137.571 725.442,-142.004 730.308,-147.037"/>
</g>
<!-- Node11&#45;&gt;Node6 -->
<g id="edge26" class="edge"><title>Node11&#45;&gt;Node6</title>
<path fill="none" stroke="midnightblue" d="M598.113,-116.362C592.173,-108.35 583.878,-97.1605 576.841,-87.6696"/>
<polygon fill="midnightblue" stroke="midnightblue" points="579.604,-85.5193 570.837,-79.5707 573.981,-89.6883 579.604,-85.5193"/>
</g>
<!-- Node12&#45;&gt;Node6 -->
<g id="edge30" class="edge"><title>Node12&#45;&gt;Node6</title>
<path fill="none" stroke="midnightblue" d="M712.86,-116.497C682.897,-107 638.604,-92.9619 605.938,-82.6087"/>
<polygon fill="midnightblue" stroke="midnightblue" points="606.792,-79.208 596.202,-79.5231 604.677,-85.8809 606.792,-79.208"/>
</g>
<!-- Node13&#45;&gt;Node4 -->
<g id="edge34" class="edge"><title>Node13&#45;&gt;Node4</title>
<path fill="none" stroke="midnightblue" d="M175.397,-174.362C170.525,-166.513 163.762,-155.616 157.95,-146.253"/>
<polygon fill="midnightblue" stroke="midnightblue" points="160.809,-144.221 152.561,-137.571 154.861,-147.913 160.809,-144.221"/>
</g>
<!-- Node13&#45;&gt;Node7 -->
<g id="edge36" class="edge"><title>Node13&#45;&gt;Node7</title>
<path fill="none" stroke="midnightblue" d="M207.534,-174.497C229.953,-165.275 262.785,-151.769 287.713,-141.515"/>
<polygon fill="midnightblue" stroke="midnightblue" points="289.263,-144.662 297.179,-137.621 286.6,-138.189 289.263,-144.662"/>
</g>
<!-- Node15 -->
<g id="node35" class="node"><title>Node15</title>
<a xlink:href="../../d5/dc5/_character_style_8h.html" target="_top" xlink:title="gaia/text/style/CharacterStyle.h">
<polygon fill="white" stroke="black" points="196.5,-232.5 196.5,-253.5 351.5,-253.5 351.5,-232.5 196.5,-232.5"/>
<text text-anchor="middle" x="274" y="-240.5" font-family="Helvetica,sans-Serif" font-size="10.00">gaia/text/style/CharacterStyle.h</text>
</a>
</g>
<!-- Node14&#45;&gt;Node15 -->
<g id="edge40" class="edge"><title>Node14&#45;&gt;Node15</title>
<path fill="none" stroke="midnightblue" d="M274,-290.362C274,-282.922 274,-272.743 274,-263.728"/>
<polygon fill="midnightblue" stroke="midnightblue" points="277.5,-263.571 274,-253.571 270.5,-263.571 277.5,-263.571"/>
</g>
<!-- Node15&#45;&gt;Node13 -->
<g id="edge48" class="edge"><title>Node15&#45;&gt;Node13</title>
<path fill="none" stroke="midnightblue" d="M257.126,-232.362C243.249,-223.614 223.366,-211.079 207.54,-201.101"/>
<polygon fill="midnightblue" stroke="midnightblue" points="209.093,-197.943 198.767,-195.571 205.36,-203.864 209.093,-197.943"/>
</g>
<!-- Node16 -->
<g id="node37" class="node"><title>Node16</title>
<a xlink:href="../../d1/d81/_object_style_8h.html" target="_top" xlink:title="gaia/text/style/ObjectStyle.h">
<polygon fill="white" stroke="black" points="253,-174.5 253,-195.5 393,-195.5 393,-174.5 253,-174.5"/>
<text text-anchor="middle" x="323" y="-182.5" font-family="Helvetica,sans-Serif" font-size="10.00">gaia/text/style/ObjectStyle.h</text>
</a>
</g>
<!-- Node15&#45;&gt;Node16 -->
<g id="edge42" class="edge"><title>Node15&#45;&gt;Node16</title>
<path fill="none" stroke="midnightblue" d="M282.987,-232.362C289.825,-224.268 299.402,-212.932 307.472,-203.38"/>
<polygon fill="midnightblue" stroke="midnightblue" points="310.29,-205.468 314.07,-195.571 304.942,-200.951 310.29,-205.468"/>
</g>
<!-- Node16&#45;&gt;Node3 -->
<g id="edge44" class="edge"><title>Node16&#45;&gt;Node3</title>
<path fill="none" stroke="midnightblue" d="M304.592,-174.335C291.172,-165.839 273.263,-152.923 261,-138 235.886,-107.44 241.076,-92.652 222,-58 216.894,-48.7239 210.796,-38.7043 205.513,-30.309"/>
<polygon fill="midnightblue" stroke="midnightblue" points="208.317,-28.1972 199.99,-21.6469 202.415,-31.9605 208.317,-28.1972"/>
</g>
<!-- Node16&#45;&gt;Node7 -->
<g id="edge46" class="edge"><title>Node16&#45;&gt;Node7</title>
<path fill="none" stroke="midnightblue" d="M323,-174.362C323,-166.922 323,-156.743 323,-147.728"/>
<polygon fill="midnightblue" stroke="midnightblue" points="326.5,-147.571 323,-137.571 319.5,-147.571 326.5,-147.571"/>
</g>
</g>
</svg>
