<?xml version="1.0" encoding="UTF-8" standalone="no"?>
<!DOCTYPE svg PUBLIC "-//W3C//DTD SVG 1.1//EN"
 "http://www.w3.org/Graphics/SVG/1.1/DTD/svg11.dtd">
<!-- Generated by graphviz version 2.26.3 (20100126.1600)
 -->
<!-- Title: G Pages: 1 -->
<svg width="1086pt" height="234pt"
 viewBox="0.00 0.00 1086.00 234.00" xmlns="http://www.w3.org/2000/svg" xmlns:xlink="http://www.w3.org/1999/xlink">
<g id="graph1" class="graph" transform="scale(1 1) rotate(0) translate(4 230)">
<title>G</title>
<polygon fill="white" stroke="white" points="-4,5 -4,-230 1083,-230 1083,5 -4,5"/>
<!-- Node1 -->
<g id="node1" class="node"><title>Node1</title>
<polygon fill="#bfbfbf" stroke="black" points="555.5,-113.5 555.5,-134.5 668.5,-134.5 668.5,-113.5 555.5,-113.5"/>
<text text-anchor="middle" x="612" y="-121.5" font-family="Helvetica,sans-Serif" font-size="10.00">gaia::ui::ComboPicker</text>
</g>
<!-- Node2 -->
<g id="node2" class="node"><title>Node2</title>
<a xlink:href="../../d8/dac/classgaia_1_1core_1_1_widget.html" target="_top" xlink:title="The Widget class is the base class of all user interface component.">
<polygon fill="white" stroke="black" points="244,-184.5 244,-205.5 340,-205.5 340,-184.5 244,-184.5"/>
<text text-anchor="middle" x="292" y="-192.5" font-family="Helvetica,sans-Serif" font-size="10.00">gaia::core::Widget</text>
</a>
</g>
<!-- Node2&#45;&gt;Node1 -->
<g id="edge2" class="edge"><title>Node2&#45;&gt;Node1</title>
<path fill="none" stroke="midnightblue" d="M344.829,-182.076C388.903,-171.43 453.416,-156.162 510,-144 524.996,-140.777 541.279,-137.489 556.341,-134.535"/>
<polygon fill="midnightblue" stroke="midnightblue" points="343.81,-178.722 334.915,-184.476 345.458,-185.525 343.81,-178.722"/>
</g>
<!-- Node5 -->
<g id="node8" class="node"><title>Node5</title>
<a xlink:href="../../db/d6c/classgaia_1_1core_1_1_widget_controller.html" target="_top" xlink:title="Define the default widget layout to put sets of layout in it.">
<polygon fill="white" stroke="black" points="543,-153.5 543,-174.5 681,-174.5 681,-153.5 543,-153.5"/>
<text text-anchor="middle" x="612" y="-161.5" font-family="Helvetica,sans-Serif" font-size="10.00">gaia::core::WidgetController</text>
</a>
</g>
<!-- Node2&#45;&gt;Node5 -->
<g id="edge10" class="edge"><title>Node2&#45;&gt;Node5</title>
<path fill="none" stroke="midnightblue" d="M350.269,-192.013C390.218,-189.698 444.395,-186.032 492,-181 508.844,-179.22 526.961,-176.878 543.884,-174.504"/>
<polygon fill="midnightblue" stroke="midnightblue" points="349.959,-188.525 340.173,-192.587 350.356,-195.514 349.959,-188.525"/>
</g>
<!-- Node3 -->
<g id="node4" class="node"><title>Node3</title>
<a xlink:href="../../d0/db2/classgaia_1_1core_1_1_property_animatable.html" target="_top" xlink:title="Any animation object need to implement PropertyAnimatable because of setting value.">
<polygon fill="white" stroke="black" points="0.5,-204.5 0.5,-225.5 151.5,-225.5 151.5,-204.5 0.5,-204.5"/>
<text text-anchor="middle" x="76" y="-212.5" font-family="Helvetica,sans-Serif" font-size="10.00">gaia::core::PropertyAnimatable</text>
</a>
</g>
<!-- Node3&#45;&gt;Node2 -->
<g id="edge4" class="edge"><title>Node3&#45;&gt;Node2</title>
<path fill="none" stroke="midnightblue" d="M161.729,-207.062C189.663,-204.476 219.676,-201.697 243.845,-199.459"/>
<polygon fill="midnightblue" stroke="midnightblue" points="161.181,-203.598 151.546,-208.005 161.826,-210.568 161.181,-203.598"/>
</g>
<!-- Node4 -->
<g id="node6" class="node"><title>Node4</title>
<a xlink:href="../../d5/dfb/classgaia_1_1core_1_1_scene.html" target="_top" xlink:title="A Scene is used to build a visual interface.">
<polygon fill="white" stroke="black" points="814.5,-117.5 814.5,-138.5 907.5,-138.5 907.5,-117.5 814.5,-117.5"/>
<text text-anchor="middle" x="861" y="-125.5" font-family="Helvetica,sans-Serif" font-size="10.00">gaia::core::Scene</text>
</a>
</g>
<!-- Node4&#45;&gt;Node2 -->
<g id="edge6" class="edge"><title>Node4&#45;&gt;Node2</title>
<path fill="none" stroke="#9a32cd" stroke-dasharray="5,2" d="M838.01,-144.396C825.994,-152.276 810.75,-161.238 796,-167 761.332,-180.543 750.876,-178.956 714,-184 566.777,-204.138 528.556,-202.375 380,-199 367.157,-198.708 353.267,-198.177 340.401,-197.596"/>
<polygon fill="#9a32cd" stroke="#9a32cd" points="840.183,-147.152 846.507,-138.651 836.262,-141.353 840.183,-147.152"/>
<text text-anchor="middle" x="612" y="-205" font-family="Helvetica,sans-Serif" font-size="10.00"> mpScene</text>
</g>
<!-- Node4&#45;&gt;Node5 -->
<g id="edge14" class="edge"><title>Node4&#45;&gt;Node5</title>
<path fill="none" stroke="#9a32cd" stroke-dasharray="5,2" d="M804.291,-125.228C801.488,-125.14 798.712,-125.063 796,-125 767.563,-124.344 758.13,-113.761 732,-125 721.314,-129.596 724.191,-138.392 714,-144 703.96,-149.524 692.626,-153.538 681.256,-156.452"/>
<polygon fill="#9a32cd" stroke="#9a32cd" points="804.377,-128.734 814.496,-125.593 804.627,-121.738 804.377,-128.734"/>
<text text-anchor="middle" x="764" y="-129" font-family="Helvetica,sans-Serif" font-size="10.00"> mpScene</text>
</g>
<!-- Node11 -->
<g id="node23" class="node"><title>Node11</title>
<a xlink:href="../../db/d3f/classgaia_1_1core_1_1_page.html" target="_top" xlink:title="An page is a single, focused thing that the user can do.">
<polygon fill="white" stroke="black" points="990,-117.5 990,-138.5 1078,-138.5 1078,-117.5 990,-117.5"/>
<text text-anchor="middle" x="1034" y="-125.5" font-family="Helvetica,sans-Serif" font-size="10.00">gaia::core::Page</text>
</a>
</g>
<!-- Node4&#45;&gt;Node11 -->
<g id="edge28" class="edge"><title>Node4&#45;&gt;Node11</title>
<path fill="none" stroke="#9a32cd" stroke-dasharray="5,2" d="M917.951,-128C941.324,-128 967.968,-128 989.826,-128"/>
<polygon fill="#9a32cd" stroke="#9a32cd" points="917.816,-124.5 907.816,-128 917.816,-131.5 917.816,-124.5"/>
<text text-anchor="middle" x="949" y="-132" font-family="Helvetica,sans-Serif" font-size="10.00"> mpScene</text>
</g>
<!-- Node5&#45;&gt;Node4 -->
<g id="edge8" class="edge"><title>Node5&#45;&gt;Node4</title>
<path fill="none" stroke="#9a32cd" stroke-dasharray="5,2" d="M691.587,-156.122C724.065,-152.482 761.927,-147.694 796,-142 802.034,-140.992 808.356,-139.801 814.588,-138.546"/>
<polygon fill="#9a32cd" stroke="#9a32cd" points="690.8,-152.687 681.244,-157.263 691.567,-159.645 690.8,-152.687"/>
<text text-anchor="middle" x="764" y="-154" font-family="Helvetica,sans-Serif" font-size="10.00"> mpController</text>
</g>
<!-- Node6 -->
<g id="node11" class="node"><title>Node6</title>
<a xlink:href="../../dd/de0/classgaia_1_1core_1_1_event_control.html" target="_top" xlink:title="EventControl is used to dispatch event and register listener.">
<polygon fill="white" stroke="black" points="231,-128.5 231,-149.5 353,-149.5 353,-128.5 231,-128.5"/>
<text text-anchor="middle" x="292" y="-136.5" font-family="Helvetica,sans-Serif" font-size="10.00">gaia::core::EventControl</text>
</a>
</g>
<!-- Node6&#45;&gt;Node1 -->
<g id="edge32" class="edge"><title>Node6&#45;&gt;Node1</title>
<path fill="none" stroke="midnightblue" d="M363.258,-134.868C368.922,-134.565 374.555,-134.272 380,-134 439.793,-131.013 508.283,-128.126 555.26,-126.229"/>
<polygon fill="midnightblue" stroke="midnightblue" points="362.858,-131.385 353.063,-135.422 363.238,-138.374 362.858,-131.385"/>
</g>
<!-- Node6&#45;&gt;Node5 -->
<g id="edge12" class="edge"><title>Node6&#45;&gt;Node5</title>
<path fill="none" stroke="midnightblue" d="M363.422,-144.58C416.968,-148.763 489.839,-154.456 542.831,-158.596"/>
<polygon fill="midnightblue" stroke="midnightblue" points="363.563,-141.08 353.321,-143.791 363.018,-148.059 363.563,-141.08"/>
</g>
<!-- Node7 -->
<g id="node14" class="node"><title>Node7</title>
<a xlink:href="../../de/dad/classgaia_1_1content_1_1_resources.html" target="_top" xlink:title="Class for accessing an application&#39;s resources.">
<polygon fill="white" stroke="black" points="549,-73.5 549,-94.5 675,-94.5 675,-73.5 549,-73.5"/>
<text text-anchor="middle" x="612" y="-81.5" font-family="Helvetica,sans-Serif" font-size="10.00">gaia::content::Resources</text>
</a>
</g>
<!-- Node7&#45;&gt;Node4 -->
<g id="edge16" class="edge"><title>Node7&#45;&gt;Node4</title>
<path fill="none" stroke="#9a32cd" stroke-dasharray="5,2" d="M685.649,-86.4355C719.62,-88.7699 760.25,-93.2888 796,-102 810.761,-105.597 826.604,-111.88 838.953,-117.369"/>
<polygon fill="#9a32cd" stroke="#9a32cd" points="685.535,-82.9213 675.333,-85.779 685.091,-89.9072 685.535,-82.9213"/>
<text text-anchor="middle" x="764" y="-106" font-family="Helvetica,sans-Serif" font-size="10.00"> mpResources</text>
</g>
<!-- Node8 -->
<g id="node16" class="node"><title>Node8</title>
<a xlink:href="../../df/d5d/classgaia_1_1base_1_1_vector.html" target="_top" xlink:title="gaia::base::Vector\&lt; gaia::ui::DialogBox * \&gt;">
<polygon fill="white" stroke="black" points="510.5,-33.5 510.5,-54.5 713.5,-54.5 713.5,-33.5 510.5,-33.5"/>
<text text-anchor="middle" x="612" y="-41.5" font-family="Helvetica,sans-Serif" font-size="10.00">gaia::base::Vector&lt; gaia::ui::DialogBox * &gt;</text>
</a>
</g>
<!-- Node8&#45;&gt;Node4 -->
<g id="edge18" class="edge"><title>Node8&#45;&gt;Node4</title>
<path fill="none" stroke="#9a32cd" stroke-dasharray="5,2" d="M723.753,-52.51C748.287,-57.0124 773.607,-63.7999 796,-74 818.697,-84.3385 839.913,-104.759 851.606,-117.312"/>
<polygon fill="#9a32cd" stroke="#9a32cd" points="724.115,-49.021 713.666,-50.7763 722.929,-55.9199 724.115,-49.021"/>
<text text-anchor="middle" x="764" y="-78" font-family="Helvetica,sans-Serif" font-size="10.00"> mDialogList</text>
</g>
<!-- Node9 -->
<g id="node18" class="node"><title>Node9</title>
<a xlink:href="../../d0/d21/classgaia_1_1base_1_1_vector_impl.html" target="_top" xlink:title="Implements vector data structure equipped with copy&#45;on&#45;write mechanism.">
<polygon fill="white" stroke="black" points="18.5,-23.5 18.5,-44.5 133.5,-44.5 133.5,-23.5 18.5,-23.5"/>
<text text-anchor="middle" x="76" y="-31.5" font-family="Helvetica,sans-Serif" font-size="10.00">gaia::base::VectorImpl</text>
</a>
</g>
<!-- Node9&#45;&gt;Node8 -->
<g id="edge20" class="edge"><title>Node9&#45;&gt;Node8</title>
<path fill="none" stroke="#8b1a1a" d="M143.901,-35.4703C152.682,-35.6529 161.554,-35.8337 170,-36 286.635,-38.2963 420.589,-40.6861 510.176,-42.2488"/>
<polygon fill="#8b1a1a" stroke="#8b1a1a" points="143.736,-31.9662 133.665,-35.2558 143.59,-38.9647 143.736,-31.9662"/>
</g>
<!-- Node10 -->
<g id="node20" class="node"><title>Node10</title>
<a xlink:href="../../df/d5d/classgaia_1_1base_1_1_vector.html" target="_top" xlink:title="This class implements the vector data structure.">
<polygon fill="white" stroke="black" points="222,-0.5 222,-21.5 362,-21.5 362,-0.5 222,-0.5"/>
<text text-anchor="middle" x="292" y="-8.5" font-family="Helvetica,sans-Serif" font-size="10.00">gaia::base::Vector&lt; TYPE &gt;</text>
</a>
</g>
<!-- Node9&#45;&gt;Node10 -->
<g id="edge24" class="edge"><title>Node9&#45;&gt;Node10</title>
<path fill="none" stroke="#8b1a1a" d="M143.676,-26.7938C168.552,-24.1449 196.761,-21.1412 221.851,-18.4696"/>
<polygon fill="#8b1a1a" stroke="#8b1a1a" points="143.173,-23.3274 133.6,-27.8666 143.915,-30.288 143.173,-23.3274"/>
</g>
<!-- Node10&#45;&gt;Node8 -->
<g id="edge22" class="edge"><title>Node10&#45;&gt;Node8</title>
<path fill="none" stroke="orange" stroke-dasharray="5,2" d="M372.179,-13.7321C408.8,-15.5132 452.684,-18.3953 492,-23 514.162,-25.5955 538.437,-29.6183 559.321,-33.4511"/>
<polygon fill="orange" stroke="orange" points="372.205,-10.2296 362.053,-13.2584 371.878,-17.2219 372.205,-10.2296"/>
<text text-anchor="middle" x="436" y="-27" font-family="Helvetica,sans-Serif" font-size="10.00"> &lt; gaia::ui::DialogBox * &gt;</text>
</g>
<!-- Node11&#45;&gt;Node4 -->
<g id="edge26" class="edge"><title>Node11&#45;&gt;Node4</title>
<path fill="none" stroke="#9a32cd" stroke-dasharray="5,2" d="M991.756,-114.805C985.2,-113.227 978.461,-111.87 972,-111 951.738,-108.273 946.277,-108.392 926,-111 915.704,-112.324 904.71,-114.782 894.749,-117.426"/>
<polygon fill="#9a32cd" stroke="#9a32cd" points="991.28,-118.298 1001.84,-117.427 993.042,-111.523 991.28,-118.298"/>
<text text-anchor="middle" x="949" y="-115" font-family="Helvetica,sans-Serif" font-size="10.00"> mpPage</text>
</g>
<!-- Node12 -->
<g id="node26" class="node"><title>Node12</title>
<a xlink:href="../../db/d88/classgaia_1_1core_1_1_widget_tag.html" target="_top" xlink:title="gaia::core::WidgetTag">
<polygon fill="white" stroke="black" points="19.5,-164.5 19.5,-185.5 132.5,-185.5 132.5,-164.5 19.5,-164.5"/>
<text text-anchor="middle" x="76" y="-172.5" font-family="Helvetica,sans-Serif" font-size="10.00">gaia::core::WidgetTag</text>
</a>
</g>
<!-- Node12&#45;&gt;Node2 -->
<g id="edge30" class="edge"><title>Node12&#45;&gt;Node2</title>
<path fill="none" stroke="#9a32cd" stroke-dasharray="5,2" d="M142.84,-180.538C162.544,-182.227 184.145,-184.132 204,-186 216.844,-187.209 230.733,-188.593 243.599,-189.908"/>
<polygon fill="#9a32cd" stroke="#9a32cd" points="142.989,-177.038 132.728,-179.676 142.395,-184.013 142.989,-177.038"/>
<text text-anchor="middle" x="187" y="-190" font-family="Helvetica,sans-Serif" font-size="10.00"> mpTag</text>
</g>
<!-- Node13 -->
<g id="node29" class="node"><title>Node13</title>
<a xlink:href="../../da/db6/classgaia_1_1base_1_1_string_array.html" target="_top" xlink:title="This an array to contain String object.">
<polygon fill="white" stroke="black" points="234,-81.5 234,-102.5 350,-102.5 350,-81.5 234,-81.5"/>
<text text-anchor="middle" x="292" y="-89.5" font-family="Helvetica,sans-Serif" font-size="10.00">gaia::base::StringArray</text>
</a>
</g>
<!-- Node13&#45;&gt;Node1 -->
<g id="edge34" class="edge"><title>Node13&#45;&gt;Node1</title>
<path fill="none" stroke="#9a32cd" stroke-dasharray="5,2" d="M360.515,-98.8515C418.63,-104.663 500.996,-112.9 555.423,-118.342"/>
<polygon fill="#9a32cd" stroke="#9a32cd" points="360.62,-95.3446 350.321,-97.8321 359.923,-102.31 360.62,-95.3446"/>
<text text-anchor="middle" x="436" y="-115" font-family="Helvetica,sans-Serif" font-size="10.00"> mpConboPickerArray</text>
</g>
</g>
</svg>
