<?xml version="1.0" encoding="UTF-8" standalone="no"?>
<!DOCTYPE svg PUBLIC "-//W3C//DTD SVG 1.1//EN"
 "http://www.w3.org/Graphics/SVG/1.1/DTD/svg11.dtd">
<!-- Generated by graphviz version 2.26.3 (20100126.1600)
 -->
<!-- Title: G Pages: 1 -->
<svg width="317pt" height="88pt"
 viewBox="0.00 0.00 317.00 88.00" xmlns="http://www.w3.org/2000/svg" xmlns:xlink="http://www.w3.org/1999/xlink">
<g id="graph1" class="graph" transform="scale(1 1) rotate(0) translate(4 84)">
<title>G</title>
<polygon fill="white" stroke="white" points="-4,5 -4,-84 314,-84 314,5 -4,5"/>
<!-- Node1 -->
<g id="node1" class="node"><title>Node1</title>
<polygon fill="#bfbfbf" stroke="black" points="0,-58.5 0,-79.5 274,-79.5 274,-58.5 0,-58.5"/>
<text text-anchor="middle" x="137" y="-66.5" font-family="Helvetica,sans-Serif" font-size="10.00">/home/vilon_tao/gaia/sdk/include/gaia/security/Certificate.h</text>
</g>
<!-- Node2 -->
<g id="node3" class="node"><title>Node2</title>
<polygon fill="white" stroke="#bfbfbf" points="21,-0.5 21,-21.5 101,-21.5 101,-0.5 21,-0.5"/>
<text text-anchor="middle" x="61" y="-8.5" font-family="Helvetica,sans-Serif" font-size="10.00">openssl/pem.h</text>
</g>
<!-- Node1&#45;&gt;Node2 -->
<g id="edge2" class="edge"><title>Node1&#45;&gt;Node2</title>
<path fill="none" stroke="midnightblue" d="M123.06,-58.3619C111.812,-49.7773 95.7842,-37.5459 82.835,-27.6636"/>
<polygon fill="midnightblue" stroke="midnightblue" points="84.9241,-24.8551 74.8512,-21.5707 80.6774,-30.4198 84.9241,-24.8551"/>
</g>
<!-- Node3 -->
<g id="node5" class="node"><title>Node3</title>
<a xlink:href="../../d8/d47/_security_common_header_8h.html" target="_top" xlink:title="gaia/security/SecurityCommonHeader.h">
<polygon fill="white" stroke="black" points="118.5,-0.5 118.5,-21.5 309.5,-21.5 309.5,-0.5 118.5,-0.5"/>
<text text-anchor="middle" x="214" y="-8.5" font-family="Helvetica,sans-Serif" font-size="10.00">gaia/security/SecurityCommonHeader.h</text>
</a>
</g>
<!-- Node1&#45;&gt;Node3 -->
<g id="edge4" class="edge"><title>Node1&#45;&gt;Node3</title>
<path fill="none" stroke="midnightblue" d="M151.123,-58.3619C162.52,-49.7773 178.758,-37.5459 191.878,-27.6636"/>
<polygon fill="midnightblue" stroke="midnightblue" points="194.085,-30.3829 199.967,-21.5707 189.873,-24.7916 194.085,-30.3829"/>
</g>
</g>
</svg>
