<?xml version="1.0" encoding="UTF-8" standalone="no"?>
<!DOCTYPE svg PUBLIC "-//W3C//DTD SVG 1.1//EN"
 "http://www.w3.org/Graphics/SVG/1.1/DTD/svg11.dtd">
<!-- Generated by graphviz version 2.26.3 (20100126.1600)
 -->
<!-- Title: G Pages: 1 -->
<svg width="416pt" height="204pt"
 viewBox="0.00 0.00 416.00 204.00" xmlns="http://www.w3.org/2000/svg" xmlns:xlink="http://www.w3.org/1999/xlink">
<g id="graph1" class="graph" transform="scale(1 1) rotate(0) translate(4 200)">
<title>G</title>
<polygon fill="white" stroke="white" points="-4,5 -4,-200 413,-200 413,5 -4,5"/>
<!-- Node1 -->
<g id="node1" class="node"><title>Node1</title>
<polygon fill="#bfbfbf" stroke="black" points="-0.5,-174.5 -0.5,-195.5 304.5,-195.5 304.5,-174.5 -0.5,-174.5"/>
<text text-anchor="middle" x="152" y="-182.5" font-family="Helvetica,sans-Serif" font-size="10.00">/home/vilon_tao/gaia/sdk/include/gaia/telephony/mms/SendConf.h</text>
</g>
<!-- Node2 -->
<g id="node3" class="node"><title>Node2</title>
<a xlink:href="../../d1/dd0/gmacros_8h.html" target="_top" xlink:title="gaia/base/gmacros.h">
<polygon fill="white" stroke="black" points="92.5,-0.5 92.5,-21.5 199.5,-21.5 199.5,-0.5 92.5,-0.5"/>
<text text-anchor="middle" x="146" y="-8.5" font-family="Helvetica,sans-Serif" font-size="10.00">gaia/base/gmacros.h</text>
</a>
</g>
<!-- Node1&#45;&gt;Node2 -->
<g id="edge2" class="edge"><title>Node1&#45;&gt;Node2</title>
<path fill="none" stroke="midnightblue" d="M140.44,-174.296C131.849,-165.501 120.817,-152.212 116,-138 103.415,-100.874 121.548,-55.9158 134.623,-30.6739"/>
<polygon fill="midnightblue" stroke="midnightblue" points="137.785,-32.1869 139.479,-21.7285 131.633,-28.8472 137.785,-32.1869"/>
</g>
<!-- Node3 -->
<g id="node5" class="node"><title>Node3</title>
<a xlink:href="../../d9/d1b/_generic_pdu_8h.html" target="_top" xlink:title="gaia/telephony/mms/GenericPdu.h">
<polygon fill="white" stroke="black" points="124.5,-116.5 124.5,-137.5 291.5,-137.5 291.5,-116.5 124.5,-116.5"/>
<text text-anchor="middle" x="208" y="-124.5" font-family="Helvetica,sans-Serif" font-size="10.00">gaia/telephony/mms/GenericPdu.h</text>
</a>
</g>
<!-- Node1&#45;&gt;Node3 -->
<g id="edge4" class="edge"><title>Node1&#45;&gt;Node3</title>
<path fill="none" stroke="midnightblue" d="M162.271,-174.362C170.244,-166.104 181.475,-154.472 190.811,-144.803"/>
<polygon fill="midnightblue" stroke="midnightblue" points="193.366,-147.196 197.794,-137.571 188.33,-142.334 193.366,-147.196"/>
</g>
<!-- Node3&#45;&gt;Node2 -->
<g id="edge8" class="edge"><title>Node3&#45;&gt;Node2</title>
<path fill="none" stroke="midnightblue" d="M195.331,-116.252C185.698,-107.432 172.81,-94.1325 165,-80 156.749,-65.069 151.883,-46.3066 149.145,-32.1173"/>
<polygon fill="midnightblue" stroke="midnightblue" points="152.528,-31.1391 147.381,-21.8786 145.63,-32.3277 152.528,-31.1391"/>
</g>
<!-- Node4 -->
<g id="node7" class="node"><title>Node4</title>
<polygon fill="white" stroke="#bfbfbf" points="174,-58.5 174,-79.5 220,-79.5 220,-58.5 174,-58.5"/>
<text text-anchor="middle" x="197" y="-66.5" font-family="Helvetica,sans-Serif" font-size="10.00">cstdint</text>
</g>
<!-- Node3&#45;&gt;Node4 -->
<g id="edge6" class="edge"><title>Node3&#45;&gt;Node4</title>
<path fill="none" stroke="midnightblue" d="M205.982,-116.362C204.556,-108.84 202.598,-98.5187 200.875,-89.4308"/>
<polygon fill="midnightblue" stroke="midnightblue" points="204.307,-88.7433 199.005,-79.5707 197.429,-90.0477 204.307,-88.7433"/>
</g>
<!-- Node5 -->
<g id="node10" class="node"><title>Node5</title>
<a xlink:href="../../d5/d48/_pdu_headers_8h.html" target="_top" xlink:title="gaia/telephony/mms/PduHeaders.h">
<polygon fill="white" stroke="black" points="238,-58.5 238,-79.5 408,-79.5 408,-58.5 238,-58.5"/>
<text text-anchor="middle" x="323" y="-66.5" font-family="Helvetica,sans-Serif" font-size="10.00">gaia/telephony/mms/PduHeaders.h</text>
</a>
</g>
<!-- Node3&#45;&gt;Node5 -->
<g id="edge10" class="edge"><title>Node3&#45;&gt;Node5</title>
<path fill="none" stroke="midnightblue" d="M228.826,-116.497C246.706,-107.479 272.707,-94.3649 292.861,-84.2006"/>
<polygon fill="midnightblue" stroke="midnightblue" points="294.588,-87.2495 301.941,-79.6212 291.436,-80.9994 294.588,-87.2495"/>
</g>
<!-- Node5&#45;&gt;Node2 -->
<g id="edge12" class="edge"><title>Node5&#45;&gt;Node2</title>
<path fill="none" stroke="midnightblue" d="M290.947,-58.4966C262.091,-49.0411 219.494,-35.0829 187.939,-24.7428"/>
<polygon fill="midnightblue" stroke="midnightblue" points="188.706,-21.3111 178.113,-21.5231 186.526,-27.963 188.706,-21.3111"/>
</g>
</g>
</svg>
