<?xml version="1.0" encoding="UTF-8" standalone="no"?>
<!DOCTYPE svg PUBLIC "-//W3C//DTD SVG 1.1//EN"
 "http://www.w3.org/Graphics/SVG/1.1/DTD/svg11.dtd">
<!-- Generated by graphviz version 2.26.3 (20100126.1600)
 -->
<!-- Title: G Pages: 1 -->
<svg width="298pt" height="146pt"
 viewBox="0.00 0.00 298.00 146.00" xmlns="http://www.w3.org/2000/svg" xmlns:xlink="http://www.w3.org/1999/xlink">
<g id="graph1" class="graph" transform="scale(1 1) rotate(0) translate(4 142)">
<title>G</title>
<polygon fill="white" stroke="white" points="-4,5 -4,-142 295,-142 295,5 -4,5"/>
<!-- Node1 -->
<g id="node1" class="node"><title>Node1</title>
<polygon fill="#bfbfbf" stroke="black" points="83,-58.5 83,-79.5 211,-79.5 211,-58.5 83,-58.5"/>
<text text-anchor="middle" x="147" y="-66.5" font-family="Helvetica,sans-Serif" font-size="10.00">gaia::ui::PreferenceGroup</text>
</g>
<!-- Node3 -->
<g id="node5" class="node"><title>Node3</title>
<a xlink:href="../../d7/d01/classgaia_1_1ui_1_1_preference_category.html" target="_top" xlink:title="Used to group Preference objects and provide a disabled title above the group.">
<polygon fill="white" stroke="black" points="-0.5,-0.5 -0.5,-21.5 140.5,-21.5 140.5,-0.5 -0.5,-0.5"/>
<text text-anchor="middle" x="70" y="-8.5" font-family="Helvetica,sans-Serif" font-size="10.00">gaia::ui::PreferenceCategory</text>
</a>
</g>
<!-- Node1&#45;&gt;Node3 -->
<g id="edge4" class="edge"><title>Node1&#45;&gt;Node3</title>
<path fill="none" stroke="midnightblue" d="M124.774,-52.2587C111.639,-42.3641 95.4048,-30.1361 84.0335,-21.5707"/>
<polygon fill="midnightblue" stroke="midnightblue" points="122.784,-55.1409 132.877,-58.3619 126.995,-49.5496 122.784,-55.1409"/>
</g>
<!-- Node4 -->
<g id="node7" class="node"><title>Node4</title>
<a xlink:href="../../d3/d53/classgaia_1_1ui_1_1_preference_screen.html" target="_top" xlink:title="Used to group Preference objects and provide a disabled title above the group.">
<polygon fill="white" stroke="black" points="158,-0.5 158,-21.5 290,-21.5 290,-0.5 158,-0.5"/>
<text text-anchor="middle" x="224" y="-8.5" font-family="Helvetica,sans-Serif" font-size="10.00">gaia::ui::PreferenceScreen</text>
</a>
</g>
<!-- Node1&#45;&gt;Node4 -->
<g id="edge6" class="edge"><title>Node1&#45;&gt;Node4</title>
<path fill="none" stroke="midnightblue" d="M169.226,-52.2587C182.361,-42.3641 198.595,-30.1361 209.967,-21.5707"/>
<polygon fill="midnightblue" stroke="midnightblue" points="167.005,-49.5496 161.123,-58.3619 171.216,-55.1409 167.005,-49.5496"/>
</g>
<!-- Node2 -->
<g id="node2" class="node"><title>Node2</title>
<a xlink:href="../../dd/d14/classgaia_1_1ui_1_1_preference.html" target="_top" xlink:title="Interface definition for a callback to be invoked when the value of this Preference has been changed ...">
<polygon fill="white" stroke="black" points="96.5,-116.5 96.5,-137.5 197.5,-137.5 197.5,-116.5 96.5,-116.5"/>
<text text-anchor="middle" x="147" y="-124.5" font-family="Helvetica,sans-Serif" font-size="10.00">gaia::ui::Preference</text>
</a>
</g>
<!-- Node2&#45;&gt;Node1 -->
<g id="edge2" class="edge"><title>Node2&#45;&gt;Node1</title>
<path fill="none" stroke="midnightblue" d="M147,-106.191C147,-97.1684 147,-86.9941 147,-79.5707"/>
<polygon fill="midnightblue" stroke="midnightblue" points="143.5,-106.362 147,-116.362 150.5,-106.362 143.5,-106.362"/>
</g>
</g>
</svg>
