<?xml version="1.0" encoding="UTF-8" standalone="no"?>
<!DOCTYPE svg PUBLIC "-//W3C//DTD SVG 1.1//EN"
 "http://www.w3.org/Graphics/SVG/1.1/DTD/svg11.dtd">
<!-- Generated by graphviz version 2.26.3 (20100126.1600)
 -->
<!-- Title: G Pages: 1 -->
<svg width="296pt" height="146pt"
 viewBox="0.00 0.00 296.00 146.00" xmlns="http://www.w3.org/2000/svg" xmlns:xlink="http://www.w3.org/1999/xlink">
<g id="graph1" class="graph" transform="scale(1 1) rotate(0) translate(4 142)">
<title>G</title>
<polygon fill="white" stroke="white" points="-4,5 -4,-142 293,-142 293,5 -4,5"/>
<!-- Node1 -->
<g id="node1" class="node"><title>Node1</title>
<polygon fill="#bfbfbf" stroke="black" points="99,-116.5 99,-137.5 203,-137.5 203,-116.5 99,-116.5"/>
<text text-anchor="middle" x="151" y="-124.5" font-family="Helvetica,sans-Serif" font-size="10.00">gaia::net::HttpEntity</text>
</g>
<!-- Node2 -->
<g id="node3" class="node"><title>Node2</title>
<a xlink:href="../../d9/d19/classgaia_1_1net_1_1_http_byte_buffer_entity.html" target="_top" xlink:title="A base class of all byte stream based entity.">
<polygon fill="white" stroke="black" points="-0.5,-58.5 -0.5,-79.5 150.5,-79.5 150.5,-58.5 -0.5,-58.5"/>
<text text-anchor="middle" x="75" y="-66.5" font-family="Helvetica,sans-Serif" font-size="10.00">gaia::net::HttpByteBufferEntity</text>
</a>
</g>
<!-- Node1&#45;&gt;Node2 -->
<g id="edge2" class="edge"><title>Node1&#45;&gt;Node2</title>
<path fill="none" stroke="midnightblue" d="M129.063,-110.259C116.098,-100.364 100.075,-88.1361 88.8512,-79.5707"/>
<polygon fill="midnightblue" stroke="midnightblue" points="126.988,-113.077 137.06,-116.362 131.234,-107.513 126.988,-113.077"/>
</g>
<!-- Node4 -->
<g id="node7" class="node"><title>Node4</title>
<a xlink:href="../../d3/d2b/classgaia_1_1net_1_1_http_file_entity.html" target="_top" xlink:title="Supply a data contained in a file to an HttpRequest.">
<polygon fill="white" stroke="black" points="168,-58.5 168,-79.5 288,-79.5 288,-58.5 168,-58.5"/>
<text text-anchor="middle" x="228" y="-66.5" font-family="Helvetica,sans-Serif" font-size="10.00">gaia::net::HttpFileEntity</text>
</a>
</g>
<!-- Node1&#45;&gt;Node4 -->
<g id="edge6" class="edge"><title>Node1&#45;&gt;Node4</title>
<path fill="none" stroke="midnightblue" d="M173.226,-110.259C186.361,-100.364 202.595,-88.1361 213.967,-79.5707"/>
<polygon fill="midnightblue" stroke="midnightblue" points="171.005,-107.55 165.123,-116.362 175.216,-113.141 171.005,-107.55"/>
</g>
<!-- Node3 -->
<g id="node5" class="node"><title>Node3</title>
<a xlink:href="../../db/dba/classgaia_1_1net_1_1_http_post_entity.html" target="_top" xlink:title="HttpPostEntity transforms post key/value pair to byte stream.">
<polygon fill="white" stroke="black" points="12.5,-0.5 12.5,-21.5 137.5,-21.5 137.5,-0.5 12.5,-0.5"/>
<text text-anchor="middle" x="75" y="-8.5" font-family="Helvetica,sans-Serif" font-size="10.00">gaia::net::HttpPostEntity</text>
</a>
</g>
<!-- Node2&#45;&gt;Node3 -->
<g id="edge4" class="edge"><title>Node2&#45;&gt;Node3</title>
<path fill="none" stroke="midnightblue" d="M75,-48.1906C75,-39.1684 75,-28.9941 75,-21.5707"/>
<polygon fill="midnightblue" stroke="midnightblue" points="71.5001,-48.3619 75,-58.3619 78.5001,-48.3619 71.5001,-48.3619"/>
</g>
</g>
</svg>
