<?xml version="1.0" encoding="UTF-8" standalone="no"?>
<!DOCTYPE svg PUBLIC "-//W3C//DTD SVG 1.1//EN"
 "http://www.w3.org/Graphics/SVG/1.1/DTD/svg11.dtd">
<!-- Generated by graphviz version 2.26.3 (20100126.1600)
 -->
<!-- Title: G Pages: 1 -->
<svg width="954pt" height="88pt"
 viewBox="0.00 0.00 954.00 88.00" xmlns="http://www.w3.org/2000/svg" xmlns:xlink="http://www.w3.org/1999/xlink">
<g id="graph1" class="graph" transform="scale(1 1) rotate(0) translate(4 84)">
<title>G</title>
<polygon fill="white" stroke="white" points="-4,5 -4,-84 951,-84 951,5 -4,5"/>
<!-- Node1 -->
<g id="node1" class="node"><title>Node1</title>
<polygon fill="#bfbfbf" stroke="black" points="322.5,-58.5 322.5,-79.5 627.5,-79.5 627.5,-58.5 322.5,-58.5"/>
<text text-anchor="middle" x="475" y="-66.5" font-family="Helvetica,sans-Serif" font-size="10.00">/home/vilon_tao/gaia/sdk/include/gaia/graphics/DrawerContainer.h</text>
</g>
<!-- Node2 -->
<g id="node3" class="node"><title>Node2</title>
<a xlink:href="../../d8/d2f/_animation_drawer_8h.html" target="_top" xlink:title="/home/vilon_tao/gaia/sdk/include/gaia/graphics/AnimationDrawer.h">
<polygon fill="white" stroke="black" points="0,-0.5 0,-21.5 306,-21.5 306,-0.5 0,-0.5"/>
<text text-anchor="middle" x="153" y="-8.5" font-family="Helvetica,sans-Serif" font-size="10.00">/home/vilon_tao/gaia/sdk/include/gaia/graphics/AnimationDrawer.h</text>
</a>
</g>
<!-- Node1&#45;&gt;Node2 -->
<g id="edge2" class="edge"><title>Node1&#45;&gt;Node2</title>
<path fill="none" stroke="midnightblue" d="M406.519,-56.6648C348.543,-46.222 266.338,-31.415 211.421,-21.5231"/>
<polygon fill="midnightblue" stroke="midnightblue" points="406.226,-60.1684 416.688,-58.4966 407.467,-53.2793 406.226,-60.1684"/>
</g>
<!-- Node3 -->
<g id="node5" class="node"><title>Node3</title>
<a xlink:href="../../d4/da1/_level_list_drawer_8h.html" target="_top" xlink:title="/home/vilon_tao/gaia/sdk/include/gaia/graphics/LevelListDrawer.h">
<polygon fill="white" stroke="black" points="324,-0.5 324,-21.5 626,-21.5 626,-0.5 324,-0.5"/>
<text text-anchor="middle" x="475" y="-8.5" font-family="Helvetica,sans-Serif" font-size="10.00">/home/vilon_tao/gaia/sdk/include/gaia/graphics/LevelListDrawer.h</text>
</a>
</g>
<!-- Node1&#45;&gt;Node3 -->
<g id="edge4" class="edge"><title>Node1&#45;&gt;Node3</title>
<path fill="none" stroke="midnightblue" d="M475,-48.1906C475,-39.1684 475,-28.9941 475,-21.5707"/>
<polygon fill="midnightblue" stroke="midnightblue" points="471.5,-48.3619 475,-58.3619 478.5,-48.3619 471.5,-48.3619"/>
</g>
<!-- Node4 -->
<g id="node7" class="node"><title>Node4</title>
<a xlink:href="../../d2/d15/_state_list_drawer_8h.html" target="_top" xlink:title="/home/vilon_tao/gaia/sdk/include/gaia/graphics/StateListDrawer.h">
<polygon fill="white" stroke="black" points="644,-0.5 644,-21.5 946,-21.5 946,-0.5 644,-0.5"/>
<text text-anchor="middle" x="795" y="-8.5" font-family="Helvetica,sans-Serif" font-size="10.00">/home/vilon_tao/gaia/sdk/include/gaia/graphics/StateListDrawer.h</text>
</a>
</g>
<!-- Node1&#45;&gt;Node4 -->
<g id="edge6" class="edge"><title>Node1&#45;&gt;Node4</title>
<path fill="none" stroke="midnightblue" d="M543.056,-56.6648C600.672,-46.222 682.366,-31.415 736.942,-21.5231"/>
<polygon fill="midnightblue" stroke="midnightblue" points="542.165,-53.2692 532.95,-58.4966 543.414,-60.157 542.165,-53.2692"/>
</g>
</g>
</svg>
