<?xml version="1.0" encoding="UTF-8" standalone="no"?>
<!DOCTYPE svg PUBLIC "-//W3C//DTD SVG 1.1//EN"
 "http://www.w3.org/Graphics/SVG/1.1/DTD/svg11.dtd">
<!-- Generated by graphviz version 2.26.3 (20100126.1600)
 -->
<!-- Title: G Pages: 1 -->
<svg width="571pt" height="320pt"
 viewBox="0.00 0.00 571.00 320.00" xmlns="http://www.w3.org/2000/svg" xmlns:xlink="http://www.w3.org/1999/xlink">
<g id="graph1" class="graph" transform="scale(1 1) rotate(0) translate(4 316)">
<title>G</title>
<polygon fill="white" stroke="white" points="-4,5 -4,-316 568,-316 568,5 -4,5"/>
<!-- Node1 -->
<g id="node1" class="node"><title>Node1</title>
<polygon fill="#bfbfbf" stroke="black" points="0,-290.5 0,-311.5 254,-311.5 254,-290.5 0,-290.5"/>
<text text-anchor="middle" x="127" y="-298.5" font-family="Helvetica,sans-Serif" font-size="10.00">/home/vilon_tao/gaia/sdk/include/gaia/webkit/Pattern.h</text>
</g>
<!-- Node2 -->
<g id="node3" class="node"><title>Node2</title>
<polygon fill="white" stroke="#bfbfbf" points="117.5,-0.5 117.5,-21.5 166.5,-21.5 166.5,-0.5 117.5,-0.5"/>
<text text-anchor="middle" x="142" y="-8.5" font-family="Helvetica,sans-Serif" font-size="10.00">stdint.h</text>
</g>
<!-- Node1&#45;&gt;Node2 -->
<g id="edge2" class="edge"><title>Node1&#45;&gt;Node2</title>
<path fill="none" stroke="midnightblue" d="M120.252,-290.275C108.38,-270.346 85,-225.909 85,-185 85,-185 85,-185 85,-127 85,-89.5289 109.254,-51.5841 126.12,-29.7281"/>
<polygon fill="midnightblue" stroke="midnightblue" points="129.067,-31.6467 132.588,-21.6538 123.604,-27.2705 129.067,-31.6467"/>
</g>
<!-- Node3 -->
<g id="node5" class="node"><title>Node3</title>
<a xlink:href="../../da/d86/_matcher_8h.html" target="_top" xlink:title="gaia/webkit/Matcher.h">
<polygon fill="white" stroke="black" points="112.5,-232.5 112.5,-253.5 225.5,-253.5 225.5,-232.5 112.5,-232.5"/>
<text text-anchor="middle" x="169" y="-240.5" font-family="Helvetica,sans-Serif" font-size="10.00">gaia/webkit/Matcher.h</text>
</a>
</g>
<!-- Node1&#45;&gt;Node3 -->
<g id="edge4" class="edge"><title>Node1&#45;&gt;Node3</title>
<path fill="none" stroke="midnightblue" d="M134.703,-290.362C140.446,-282.431 148.443,-271.389 155.27,-261.961"/>
<polygon fill="midnightblue" stroke="midnightblue" points="158.315,-263.723 161.345,-253.571 152.645,-259.617 158.315,-263.723"/>
</g>
<!-- Node3&#45;&gt;Node2 -->
<g id="edge6" class="edge"><title>Node3&#45;&gt;Node2</title>
<path fill="none" stroke="midnightblue" d="M167.77,-232.429C163.606,-196.648 149.991,-79.6628 144.415,-31.7481"/>
<polygon fill="midnightblue" stroke="midnightblue" points="147.87,-31.1618 143.238,-21.6335 140.917,-31.9711 147.87,-31.1618"/>
</g>
<!-- Node4 -->
<g id="node8" class="node"><title>Node4</title>
<a xlink:href="../../d3/dcc/_match_result_8h.html" target="_top" xlink:title="gaia/webkit/MatchResult.h">
<polygon fill="white" stroke="black" points="189.5,-174.5 189.5,-195.5 322.5,-195.5 322.5,-174.5 189.5,-174.5"/>
<text text-anchor="middle" x="256" y="-182.5" font-family="Helvetica,sans-Serif" font-size="10.00">gaia/webkit/MatchResult.h</text>
</a>
</g>
<!-- Node3&#45;&gt;Node4 -->
<g id="edge8" class="edge"><title>Node3&#45;&gt;Node4</title>
<path fill="none" stroke="midnightblue" d="M184.957,-232.362C197.957,-223.696 216.531,-211.313 231.427,-201.382"/>
<polygon fill="midnightblue" stroke="midnightblue" points="233.765,-204.03 240.144,-195.571 229.882,-198.206 233.765,-204.03"/>
</g>
<!-- Node4&#45;&gt;Node2 -->
<g id="edge10" class="edge"><title>Node4&#45;&gt;Node2</title>
<path fill="none" stroke="midnightblue" d="M247.556,-174.274C233.02,-155.61 202.65,-115.732 180,-80 169.748,-63.8274 159.343,-44.705 152.02,-30.6973"/>
<polygon fill="midnightblue" stroke="midnightblue" points="154.976,-28.7952 147.277,-21.5168 148.757,-32.0078 154.976,-28.7952"/>
</g>
<!-- Node5 -->
<g id="node11" class="node"><title>Node5</title>
<a xlink:href="../../db/db5/_string_8h.html" target="_top" xlink:title="gaia/base/String.h">
<polygon fill="white" stroke="black" points="299.5,-116.5 299.5,-137.5 394.5,-137.5 394.5,-116.5 299.5,-116.5"/>
<text text-anchor="middle" x="347" y="-124.5" font-family="Helvetica,sans-Serif" font-size="10.00">gaia/base/String.h</text>
</a>
</g>
<!-- Node4&#45;&gt;Node5 -->
<g id="edge12" class="edge"><title>Node4&#45;&gt;Node5</title>
<path fill="none" stroke="midnightblue" d="M272.691,-174.362C286.416,-165.614 306.084,-153.079 321.737,-143.101"/>
<polygon fill="midnightblue" stroke="midnightblue" points="323.863,-145.897 330.415,-137.571 320.101,-139.994 323.863,-145.897"/>
</g>
<!-- Node6 -->
<g id="node13" class="node"><title>Node6</title>
<a xlink:href="../../d7/d97/_char_sequence_8h.html" target="_top" xlink:title="gaia/base/CharSequence.h">
<polygon fill="white" stroke="black" points="189,-58.5 189,-79.5 323,-79.5 323,-58.5 189,-58.5"/>
<text text-anchor="middle" x="256" y="-66.5" font-family="Helvetica,sans-Serif" font-size="10.00">gaia/base/CharSequence.h</text>
</a>
</g>
<!-- Node4&#45;&gt;Node6 -->
<g id="edge24" class="edge"><title>Node4&#45;&gt;Node6</title>
<path fill="none" stroke="midnightblue" d="M256,-174.295C256,-155.131 256,-114.654 256,-89.8434"/>
<polygon fill="midnightblue" stroke="midnightblue" points="259.5,-89.6792 256,-79.6792 252.5,-89.6792 259.5,-89.6792"/>
</g>
<!-- Node9 -->
<g id="node22" class="node"><title>Node9</title>
<a xlink:href="../../db/d53/_string_array_8h.html" target="_top" xlink:title="gaia/base/StringArray.h">
<polygon fill="white" stroke="black" points="444.5,-116.5 444.5,-137.5 563.5,-137.5 563.5,-116.5 444.5,-116.5"/>
<text text-anchor="middle" x="504" y="-124.5" font-family="Helvetica,sans-Serif" font-size="10.00">gaia/base/StringArray.h</text>
</a>
</g>
<!-- Node4&#45;&gt;Node9 -->
<g id="edge26" class="edge"><title>Node4&#45;&gt;Node9</title>
<path fill="none" stroke="midnightblue" d="M300.911,-174.497C342.567,-164.755 404.66,-150.233 449.213,-139.813"/>
<polygon fill="midnightblue" stroke="midnightblue" points="450.065,-143.208 459.005,-137.523 448.471,-136.392 450.065,-143.208"/>
</g>
<!-- Node5&#45;&gt;Node6 -->
<g id="edge14" class="edge"><title>Node5&#45;&gt;Node6</title>
<path fill="none" stroke="midnightblue" d="M330.309,-116.362C316.584,-107.614 296.916,-95.0786 281.263,-85.1015"/>
<polygon fill="midnightblue" stroke="midnightblue" points="282.899,-81.994 272.585,-79.5707 279.137,-87.8969 282.899,-81.994"/>
</g>
<!-- Node7 -->
<g id="node16" class="node"><title>Node7</title>
<a xlink:href="../../d6/d83/_hash_func_8h.html" target="_top" xlink:title="gaia/base/HashFunc.h">
<polygon fill="white" stroke="black" points="340.5,-58.5 340.5,-79.5 455.5,-79.5 455.5,-58.5 340.5,-58.5"/>
<text text-anchor="middle" x="398" y="-66.5" font-family="Helvetica,sans-Serif" font-size="10.00">gaia/base/HashFunc.h</text>
</a>
</g>
<!-- Node5&#45;&gt;Node7 -->
<g id="edge18" class="edge"><title>Node5&#45;&gt;Node7</title>
<path fill="none" stroke="midnightblue" d="M356.354,-116.362C363.543,-108.186 373.641,-96.7025 382.093,-87.0907"/>
<polygon fill="midnightblue" stroke="midnightblue" points="384.73,-89.3916 388.705,-79.5707 379.473,-84.7692 384.73,-89.3916"/>
</g>
<!-- Node8 -->
<g id="node18" class="node"><title>Node8</title>
<polygon fill="white" stroke="#bfbfbf" points="449,-0.5 449,-21.5 517,-21.5 517,-0.5 449,-0.5"/>
<text text-anchor="middle" x="483" y="-8.5" font-family="Helvetica,sans-Serif" font-size="10.00">sys/types.h</text>
</g>
<!-- Node5&#45;&gt;Node8 -->
<g id="edge22" class="edge"><title>Node5&#45;&gt;Node8</title>
<path fill="none" stroke="midnightblue" d="M394.699,-118.307C418.585,-111.626 446.142,-100.004 464,-80 475.737,-66.8524 480.3,-47.0913 482.037,-32.0817"/>
<polygon fill="midnightblue" stroke="midnightblue" points="485.557,-31.9706 482.885,-21.7183 478.581,-31.3993 485.557,-31.9706"/>
</g>
<!-- Node6&#45;&gt;Node2 -->
<g id="edge16" class="edge"><title>Node6&#45;&gt;Node2</title>
<path fill="none" stroke="midnightblue" d="M235.355,-58.4966C217.63,-49.4786 191.855,-36.3649 171.877,-26.2006"/>
<polygon fill="midnightblue" stroke="midnightblue" points="173.376,-23.0364 162.876,-21.6212 170.202,-29.2753 173.376,-23.0364"/>
</g>
<!-- Node7&#45;&gt;Node8 -->
<g id="edge20" class="edge"><title>Node7&#45;&gt;Node8</title>
<path fill="none" stroke="midnightblue" d="M413.59,-58.3619C426.291,-49.6955 444.438,-37.3126 458.992,-27.3819"/>
<polygon fill="midnightblue" stroke="midnightblue" points="461.221,-30.0982 467.509,-21.5707 457.276,-24.316 461.221,-30.0982"/>
</g>
<!-- Node9&#45;&gt;Node8 -->
<g id="edge28" class="edge"><title>Node9&#45;&gt;Node8</title>
<path fill="none" stroke="midnightblue" d="M503.532,-116.15C502.797,-102.48 501.019,-78.3162 497,-58 495.254,-49.1728 492.563,-39.6235 490.006,-31.4528"/>
<polygon fill="midnightblue" stroke="midnightblue" points="493.246,-30.0994 486.811,-21.6824 486.592,-32.275 493.246,-30.0994"/>
</g>
</g>
</svg>
