<?xml version="1.0" encoding="UTF-8" standalone="no"?>
<!DOCTYPE svg PUBLIC "-//W3C//DTD SVG 1.1//EN"
 "http://www.w3.org/Graphics/SVG/1.1/DTD/svg11.dtd">
<!-- Generated by graphviz version 2.26.3 (20100126.1600)
 -->
<!-- Title: G Pages: 1 -->
<svg width="338pt" height="146pt"
 viewBox="0.00 0.00 338.00 146.00" xmlns="http://www.w3.org/2000/svg" xmlns:xlink="http://www.w3.org/1999/xlink">
<g id="graph1" class="graph" transform="scale(1 1) rotate(0) translate(4 142)">
<title>G</title>
<polygon fill="white" stroke="white" points="-4,5 -4,-142 335,-142 335,5 -4,5"/>
<!-- Node1 -->
<g id="node1" class="node"><title>Node1</title>
<polygon fill="#bfbfbf" stroke="black" points="-0.5,-116.5 -0.5,-137.5 330.5,-137.5 330.5,-116.5 -0.5,-116.5"/>
<text text-anchor="middle" x="165" y="-124.5" font-family="Helvetica,sans-Serif" font-size="10.00">/home/vilon_tao/gaia/sdk/include/gaia/core/animation/RotateAnimation.h</text>
</g>
<!-- Node2 -->
<g id="node3" class="node"><title>Node2</title>
<a xlink:href="../../dc/d8b/_animation_8h.html" target="_top" xlink:title="gaia/core/animation/Animation.h">
<polygon fill="white" stroke="black" points="87,-58.5 87,-79.5 243,-79.5 243,-58.5 87,-58.5"/>
<text text-anchor="middle" x="165" y="-66.5" font-family="Helvetica,sans-Serif" font-size="10.00">gaia/core/animation/Animation.h</text>
</a>
</g>
<!-- Node1&#45;&gt;Node2 -->
<g id="edge2" class="edge"><title>Node1&#45;&gt;Node2</title>
<path fill="none" stroke="midnightblue" d="M165,-116.362C165,-108.922 165,-98.7427 165,-89.7276"/>
<polygon fill="midnightblue" stroke="midnightblue" points="168.5,-89.5706 165,-79.5707 161.5,-89.5707 168.5,-89.5706"/>
</g>
<!-- Node3 -->
<g id="node5" class="node"><title>Node3</title>
<polygon fill="white" stroke="#bfbfbf" points="131,-0.5 131,-21.5 199,-21.5 199,-0.5 131,-0.5"/>
<text text-anchor="middle" x="165" y="-8.5" font-family="Helvetica,sans-Serif" font-size="10.00">sys/types.h</text>
</g>
<!-- Node2&#45;&gt;Node3 -->
<g id="edge4" class="edge"><title>Node2&#45;&gt;Node3</title>
<path fill="none" stroke="midnightblue" d="M165,-58.3619C165,-50.9219 165,-40.7427 165,-31.7276"/>
<polygon fill="midnightblue" stroke="midnightblue" points="168.5,-31.5706 165,-21.5707 161.5,-31.5707 168.5,-31.5706"/>
</g>
</g>
</svg>
