<?xml version="1.0" encoding="UTF-8" standalone="no"?>
<!DOCTYPE svg PUBLIC "-//W3C//DTD SVG 1.1//EN"
 "http://www.w3.org/Graphics/SVG/1.1/DTD/svg11.dtd">
<!-- Generated by graphviz version 2.26.3 (20100126.1600)
 -->
<!-- Title: G Pages: 1 -->
<svg width="1360pt" height="356pt"
 viewBox="0.00 0.00 1360.00 356.00" xmlns="http://www.w3.org/2000/svg" xmlns:xlink="http://www.w3.org/1999/xlink">
<g id="graph1" class="graph" transform="scale(1 1) rotate(0) translate(4 352)">
<title>G</title>
<polygon fill="white" stroke="white" points="-4,5 -4,-352 1357,-352 1357,5 -4,5"/>
<!-- Node1 -->
<g id="node1" class="node"><title>Node1</title>
<polygon fill="#bfbfbf" stroke="black" points="1217,-256.5 1217,-277.5 1349,-277.5 1349,-256.5 1217,-256.5"/>
<text text-anchor="middle" x="1283" y="-264.5" font-family="Helvetica,sans-Serif" font-size="10.00">gaia::ui::PopupArrowPanel</text>
</g>
<!-- Node2 -->
<g id="node2" class="node"><title>Node2</title>
<a xlink:href="../../d5/dfb/classgaia_1_1core_1_1_scene.html" target="_top" xlink:title="A Scene is used to build a visual interface.">
<polygon fill="white" stroke="black" points="775.5,-186.5 775.5,-207.5 868.5,-207.5 868.5,-186.5 775.5,-186.5"/>
<text text-anchor="middle" x="822" y="-194.5" font-family="Helvetica,sans-Serif" font-size="10.00">gaia::core::Scene</text>
</a>
</g>
<!-- Node2&#45;&gt;Node1 -->
<g id="edge2" class="edge"><title>Node2&#45;&gt;Node1</title>
<path fill="none" stroke="#9a32cd" stroke-dasharray="5,2" d="M848.455,-212.551C878.989,-229.615 931.273,-256.151 980,-268 1059.74,-287.39 1154.81,-282.777 1216.92,-276.214"/>
<polygon fill="#9a32cd" stroke="#9a32cd" points="850.13,-209.478 839.705,-207.587 846.675,-215.566 850.13,-209.478"/>
<text text-anchor="middle" x="1044" y="-285" font-family="Helvetica,sans-Serif" font-size="10.00"> mpScene</text>
</g>
<!-- Node3 -->
<g id="node4" class="node"><title>Node3</title>
<a xlink:href="../../db/d6c/classgaia_1_1core_1_1_widget_controller.html" target="_top" xlink:title="Define the default widget layout to put sets of layout in it.">
<polygon fill="white" stroke="black" points="1214,-86.5 1214,-107.5 1352,-107.5 1352,-86.5 1214,-86.5"/>
<text text-anchor="middle" x="1283" y="-94.5" font-family="Helvetica,sans-Serif" font-size="10.00">gaia::core::WidgetController</text>
</a>
</g>
<!-- Node2&#45;&gt;Node3 -->
<g id="edge16" class="edge"><title>Node2&#45;&gt;Node3</title>
<path fill="none" stroke="#9a32cd" stroke-dasharray="5,2" d="M851.879,-182.087C883.06,-167.203 933.761,-144.884 980,-133 1058.63,-112.792 1151.7,-103.878 1213.75,-99.9768"/>
<polygon fill="#9a32cd" stroke="#9a32cd" points="850.336,-178.946 842.856,-186.448 853.382,-185.248 850.336,-178.946"/>
<text text-anchor="middle" x="1044" y="-137" font-family="Helvetica,sans-Serif" font-size="10.00"> mpScene</text>
</g>
<!-- Node4 -->
<g id="node6" class="node"><title>Node4</title>
<a xlink:href="../../d8/dac/classgaia_1_1core_1_1_widget.html" target="_top" xlink:title="The Widget class is the base class of all user interface component.">
<polygon fill="white" stroke="black" points="996,-57.5 996,-78.5 1092,-78.5 1092,-57.5 996,-57.5"/>
<text text-anchor="middle" x="1044" y="-65.5" font-family="Helvetica,sans-Serif" font-size="10.00">gaia::core::Widget</text>
</a>
</g>
<!-- Node2&#45;&gt;Node4 -->
<g id="edge10" class="edge"><title>Node2&#45;&gt;Node4</title>
<path fill="none" stroke="#9a32cd" stroke-dasharray="5,2" d="M832.649,-177.792C847.688,-152.656 877.648,-109.305 916,-88 940.184,-74.5652 970.677,-69.4234 995.834,-67.707"/>
<polygon fill="#9a32cd" stroke="#9a32cd" points="829.617,-176.044 827.628,-186.45 835.672,-179.555 829.617,-176.044"/>
<text text-anchor="middle" x="939" y="-92" font-family="Helvetica,sans-Serif" font-size="10.00"> mpScene</text>
</g>
<!-- Node12 -->
<g id="node25" class="node"><title>Node12</title>
<a xlink:href="../../db/d3f/classgaia_1_1core_1_1_page.html" target="_top" xlink:title="An page is a single, focused thing that the user can do.">
<polygon fill="white" stroke="black" points="1000,-197.5 1000,-218.5 1088,-218.5 1088,-197.5 1000,-197.5"/>
<text text-anchor="middle" x="1044" y="-205.5" font-family="Helvetica,sans-Serif" font-size="10.00">gaia::core::Page</text>
</a>
</g>
<!-- Node2&#45;&gt;Node12 -->
<g id="edge30" class="edge"><title>Node2&#45;&gt;Node12</title>
<path fill="none" stroke="#9a32cd" stroke-dasharray="5,2" d="M878.796,-206.839C891.03,-208.572 903.916,-210.105 916,-211 936.389,-212.51 941.559,-211.374 962,-211 974.249,-210.776 987.522,-210.364 999.749,-209.915"/>
<polygon fill="#9a32cd" stroke="#9a32cd" points="879.109,-203.348 868.705,-205.347 878.085,-210.272 879.109,-203.348"/>
<text text-anchor="middle" x="939" y="-215" font-family="Helvetica,sans-Serif" font-size="10.00"> mpScene</text>
</g>
<!-- Node3&#45;&gt;Node2 -->
<g id="edge4" class="edge"><title>Node3&#45;&gt;Node2</title>
<path fill="none" stroke="#9a32cd" stroke-dasharray="5,2" d="M1248.5,-111.249C1232.7,-117.367 1213.62,-124.198 1196,-129 1080.12,-160.592 939.974,-181.634 868.636,-191.158"/>
<polygon fill="#9a32cd" stroke="#9a32cd" points="1249.85,-114.48 1257.87,-107.556 1247.28,-107.967 1249.85,-114.48"/>
<text text-anchor="middle" x="1044" y="-177" font-family="Helvetica,sans-Serif" font-size="10.00"> mpController</text>
</g>
<!-- Node4&#45;&gt;Node1 -->
<g id="edge32" class="edge"><title>Node4&#45;&gt;Node1</title>
<path fill="none" stroke="#9a32cd" stroke-dasharray="5,2" d="M1087.92,-82.3739C1094.88,-85.4288 1101.82,-88.9707 1108,-93 1182.67,-141.648 1251.53,-226.11 1274.72,-256.073"/>
<polygon fill="#9a32cd" stroke="#9a32cd" points="1089.07,-79.0597 1078.48,-78.5101 1086.41,-85.5379 1089.07,-79.0597"/>
<text text-anchor="middle" x="1161" y="-170" font-family="Helvetica,sans-Serif" font-size="10.00"> mpWidget</text>
</g>
<!-- Node4&#45;&gt;Node3 -->
<g id="edge6" class="edge"><title>Node4&#45;&gt;Node3</title>
<path fill="none" stroke="midnightblue" d="M1102.21,-75.0635C1135.85,-79.1446 1178.36,-84.3032 1213.71,-88.5925"/>
<polygon fill="midnightblue" stroke="midnightblue" points="1102.43,-71.5638 1092.08,-73.8337 1101.58,-78.5129 1102.43,-71.5638"/>
</g>
<!-- Node5 -->
<g id="node8" class="node"><title>Node5</title>
<a xlink:href="../../d0/db2/classgaia_1_1core_1_1_property_animatable.html" target="_top" xlink:title="Any animation object need to implement PropertyAnimatable because of setting value.">
<polygon fill="white" stroke="black" points="746.5,-0.5 746.5,-21.5 897.5,-21.5 897.5,-0.5 746.5,-0.5"/>
<text text-anchor="middle" x="822" y="-8.5" font-family="Helvetica,sans-Serif" font-size="10.00">gaia::core::PropertyAnimatable</text>
</a>
</g>
<!-- Node5&#45;&gt;Node4 -->
<g id="edge8" class="edge"><title>Node5&#45;&gt;Node4</title>
<path fill="none" stroke="midnightblue" d="M874.693,-23.9468C900.956,-30.4573 933.183,-38.5328 962,-46 976.126,-49.6603 991.589,-53.7797 1005.24,-57.4558"/>
<polygon fill="midnightblue" stroke="midnightblue" points="875.487,-20.5378 864.939,-21.5328 873.806,-27.3328 875.487,-20.5378"/>
</g>
<!-- Node6 -->
<g id="node11" class="node"><title>Node6</title>
<a xlink:href="../../db/d88/classgaia_1_1core_1_1_widget_tag.html" target="_top" xlink:title="gaia::core::WidgetTag">
<polygon fill="white" stroke="black" points="765.5,-40.5 765.5,-61.5 878.5,-61.5 878.5,-40.5 765.5,-40.5"/>
<text text-anchor="middle" x="822" y="-48.5" font-family="Helvetica,sans-Serif" font-size="10.00">gaia::core::WidgetTag</text>
</a>
</g>
<!-- Node6&#45;&gt;Node4 -->
<g id="edge12" class="edge"><title>Node6&#45;&gt;Node4</title>
<path fill="none" stroke="#9a32cd" stroke-dasharray="5,2" d="M888.767,-48.9577C911.997,-48.9142 938.194,-49.6133 962,-52 973.69,-53.172 986.192,-55.2041 997.821,-57.4348"/>
<polygon fill="#9a32cd" stroke="#9a32cd" points="888.643,-45.4583 878.666,-49.0227 888.689,-52.4582 888.643,-45.4583"/>
<text text-anchor="middle" x="939" y="-56" font-family="Helvetica,sans-Serif" font-size="10.00"> mpTag</text>
</g>
<!-- Node7 -->
<g id="node13" class="node"><title>Node7</title>
<a xlink:href="../../dd/de0/classgaia_1_1core_1_1_event_control.html" target="_top" xlink:title="EventControl is used to dispatch event and register listener.">
<polygon fill="white" stroke="black" points="983,-17.5 983,-38.5 1105,-38.5 1105,-17.5 983,-17.5"/>
<text text-anchor="middle" x="1044" y="-25.5" font-family="Helvetica,sans-Serif" font-size="10.00">gaia::core::EventControl</text>
</a>
</g>
<!-- Node7&#45;&gt;Node3 -->
<g id="edge14" class="edge"><title>Node7&#45;&gt;Node3</title>
<path fill="none" stroke="midnightblue" d="M1090.2,-41.3375C1135.78,-54.4964 1204.54,-74.3481 1246.44,-86.4465"/>
<polygon fill="midnightblue" stroke="midnightblue" points="1091.14,-37.9659 1080.56,-38.5547 1089.2,-44.6912 1091.14,-37.9659"/>
</g>
<!-- Node8 -->
<g id="node16" class="node"><title>Node8</title>
<a xlink:href="../../de/dad/classgaia_1_1content_1_1_resources.html" target="_top" xlink:title="Class for accessing an application&#39;s resources.">
<polygon fill="white" stroke="black" points="481,-226.5 481,-247.5 607,-247.5 607,-226.5 481,-226.5"/>
<text text-anchor="middle" x="544" y="-234.5" font-family="Helvetica,sans-Serif" font-size="10.00">gaia::content::Resources</text>
</a>
</g>
<!-- Node8&#45;&gt;Node2 -->
<g id="edge18" class="edge"><title>Node8&#45;&gt;Node2</title>
<path fill="none" stroke="#9a32cd" stroke-dasharray="5,2" d="M617.381,-228.758C651.132,-224.728 691.661,-219.553 728,-214 743.41,-211.645 760.177,-208.728 775.227,-205.978"/>
<polygon fill="#9a32cd" stroke="#9a32cd" points="616.655,-225.319 607.136,-229.971 617.478,-232.271 616.655,-225.319"/>
<text text-anchor="middle" x="696" y="-226" font-family="Helvetica,sans-Serif" font-size="10.00"> mpResources</text>
</g>
<!-- Node9 -->
<g id="node18" class="node"><title>Node9</title>
<a xlink:href="../../df/d5d/classgaia_1_1base_1_1_vector.html" target="_top" xlink:title="gaia::base::Vector\&lt; gaia::ui::DialogBox * \&gt;">
<polygon fill="white" stroke="black" points="442.5,-186.5 442.5,-207.5 645.5,-207.5 645.5,-186.5 442.5,-186.5"/>
<text text-anchor="middle" x="544" y="-194.5" font-family="Helvetica,sans-Serif" font-size="10.00">gaia::base::Vector&lt; gaia::ui::DialogBox * &gt;</text>
</a>
</g>
<!-- Node9&#45;&gt;Node2 -->
<g id="edge20" class="edge"><title>Node9&#45;&gt;Node2</title>
<path fill="none" stroke="#9a32cd" stroke-dasharray="5,2" d="M655.768,-197C697.417,-197 742.46,-197 775.14,-197"/>
<polygon fill="#9a32cd" stroke="#9a32cd" points="655.544,-193.5 645.544,-197 655.544,-200.5 655.544,-193.5"/>
<text text-anchor="middle" x="696" y="-201" font-family="Helvetica,sans-Serif" font-size="10.00"> mDialogList</text>
</g>
<!-- Node10 -->
<g id="node20" class="node"><title>Node10</title>
<a xlink:href="../../d0/d21/classgaia_1_1base_1_1_vector_impl.html" target="_top" xlink:title="Implements vector data structure equipped with copy&#45;on&#45;write mechanism.">
<polygon fill="white" stroke="black" points="0.5,-234.5 0.5,-255.5 115.5,-255.5 115.5,-234.5 0.5,-234.5"/>
<text text-anchor="middle" x="58" y="-242.5" font-family="Helvetica,sans-Serif" font-size="10.00">gaia::base::VectorImpl</text>
</a>
</g>
<!-- Node10&#45;&gt;Node9 -->
<g id="edge22" class="edge"><title>Node10&#45;&gt;Node9</title>
<path fill="none" stroke="#8b1a1a" d="M113.191,-232.35C126.5,-229.619 140.714,-226.966 154,-225 251.202,-210.619 363.169,-203.549 442.128,-200.12"/>
<polygon fill="#8b1a1a" stroke="#8b1a1a" points="112.288,-228.963 103.221,-234.443 113.727,-235.814 112.288,-228.963"/>
</g>
<!-- Node11 -->
<g id="node22" class="node"><title>Node11</title>
<a xlink:href="../../df/d5d/classgaia_1_1base_1_1_vector.html" target="_top" xlink:title="This class implements the vector data structure.">
<polygon fill="white" stroke="black" points="154,-234.5 154,-255.5 294,-255.5 294,-234.5 154,-234.5"/>
<text text-anchor="middle" x="224" y="-242.5" font-family="Helvetica,sans-Serif" font-size="10.00">gaia::base::Vector&lt; TYPE &gt;</text>
</a>
</g>
<!-- Node10&#45;&gt;Node11 -->
<g id="edge26" class="edge"><title>Node10&#45;&gt;Node11</title>
<path fill="none" stroke="#8b1a1a" d="M125.596,-245C134.933,-245 144.54,-245 153.921,-245"/>
<polygon fill="#8b1a1a" stroke="#8b1a1a" points="125.593,-241.5 115.593,-245 125.593,-248.5 125.593,-241.5"/>
</g>
<!-- Node15 -->
<g id="node33" class="node"><title>Node15</title>
<a xlink:href="../../df/d5d/classgaia_1_1base_1_1_vector.html" target="_top" xlink:title="gaia::base::Vector\&lt; RemovedObject * \&gt;">
<polygon fill="white" stroke="black" points="448.5,-283.5 448.5,-304.5 639.5,-304.5 639.5,-283.5 448.5,-283.5"/>
<text text-anchor="middle" x="544" y="-291.5" font-family="Helvetica,sans-Serif" font-size="10.00">gaia::base::Vector&lt; RemovedObject * &gt;</text>
</a>
</g>
<!-- Node10&#45;&gt;Node15 -->
<g id="edge40" class="edge"><title>Node10&#45;&gt;Node15</title>
<path fill="none" stroke="#8b1a1a" d="M113.604,-257.673C126.795,-260.377 140.854,-263.013 154,-265 253.692,-280.069 368.957,-287.414 448.183,-290.925"/>
<polygon fill="#8b1a1a" stroke="#8b1a1a" points="114.219,-254.226 103.714,-255.602 112.784,-261.077 114.219,-254.226"/>
</g>
<!-- Node11&#45;&gt;Node9 -->
<g id="edge24" class="edge"><title>Node11&#45;&gt;Node9</title>
<path fill="none" stroke="orange" stroke-dasharray="5,2" d="M299.974,-232.853C304.041,-232.222 308.069,-231.601 312,-231 365.017,-222.898 424.912,-214.13 470.563,-207.528"/>
<polygon fill="orange" stroke="orange" points="299.159,-229.438 289.819,-234.439 300.239,-236.354 299.159,-229.438"/>
<text text-anchor="middle" x="368" y="-235" font-family="Helvetica,sans-Serif" font-size="10.00"> &lt; gaia::ui::DialogBox * &gt;</text>
</g>
<!-- Node11&#45;&gt;Node15 -->
<g id="edge42" class="edge"><title>Node11&#45;&gt;Node15</title>
<path fill="none" stroke="orange" stroke-dasharray="5,2" d="M304.278,-251.763C340.919,-255.38 384.79,-260.453 424,-267 450.328,-271.396 479.556,-277.936 502.574,-283.479"/>
<polygon fill="orange" stroke="orange" points="304.436,-248.262 294.145,-250.782 303.761,-255.23 304.436,-248.262"/>
<text text-anchor="middle" x="368" y="-271" font-family="Helvetica,sans-Serif" font-size="10.00"> &lt; RemovedObject * &gt;</text>
</g>
<!-- Node12&#45;&gt;Node1 -->
<g id="edge46" class="edge"><title>Node12&#45;&gt;Node1</title>
<path fill="none" stroke="#9a32cd" stroke-dasharray="5,2" d="M1098.28,-216.409C1127.47,-221.418 1163.95,-228.465 1196,-237 1216.22,-242.387 1238.53,-250.116 1255.49,-256.38"/>
<polygon fill="#9a32cd" stroke="#9a32cd" points="1098.72,-212.934 1088.28,-214.723 1097.56,-219.836 1098.72,-212.934"/>
<text text-anchor="middle" x="1161" y="-241" font-family="Helvetica,sans-Serif" font-size="10.00"> mpPage</text>
</g>
<!-- Node12&#45;&gt;Node2 -->
<g id="edge28" class="edge"><title>Node12&#45;&gt;Node2</title>
<path fill="none" stroke="#9a32cd" stroke-dasharray="5,2" d="M989.601,-200.483C980.405,-199.466 970.943,-198.575 962,-198 930.952,-196.003 895.952,-195.753 868.714,-196.002"/>
<polygon fill="#9a32cd" stroke="#9a32cd" points="989.49,-203.993 999.828,-201.675 990.3,-197.04 989.49,-203.993"/>
<text text-anchor="middle" x="939" y="-202" font-family="Helvetica,sans-Serif" font-size="10.00"> mpPage</text>
</g>
<!-- Node13 -->
<g id="node29" class="node"><title>Node13</title>
<a xlink:href="../../da/d2d/classgaia_1_1ui_1_1_i_list_item_provider.html" target="_top" xlink:title="Extended Adapter that is the bridge between a ListView and the data that backs the list...">
<polygon fill="white" stroke="black" points="980,-326.5 980,-347.5 1108,-347.5 1108,-326.5 980,-326.5"/>
<text text-anchor="middle" x="1044" y="-334.5" font-family="Helvetica,sans-Serif" font-size="10.00">gaia::ui::IListItemProvider</text>
</a>
</g>
<!-- Node13&#45;&gt;Node1 -->
<g id="edge34" class="edge"><title>Node13&#45;&gt;Node1</title>
<path fill="none" stroke="#9a32cd" stroke-dasharray="5,2" d="M1118.35,-327.389C1143.38,-323.081 1171.23,-317.098 1196,-309 1220.71,-300.922 1247.39,-287.229 1264.6,-277.682"/>
<polygon fill="#9a32cd" stroke="#9a32cd" points="1117.47,-323.987 1108.18,-329.075 1118.62,-330.892 1117.47,-323.987"/>
<text text-anchor="middle" x="1161" y="-329" font-family="Helvetica,sans-Serif" font-size="10.00"> mpListProvider</text>
</g>
<!-- Node14 -->
<g id="node31" class="node"><title>Node14</title>
<a xlink:href="../../d3/df2/classgaia_1_1ui_1_1_i_item_provider.html" target="_top" xlink:title="An IItemProvider object acts as a bridge between an ListWidget and the underlying data for that widge...">
<polygon fill="white" stroke="black" points="765.5,-308.5 765.5,-329.5 878.5,-329.5 878.5,-308.5 765.5,-308.5"/>
<text text-anchor="middle" x="822" y="-316.5" font-family="Helvetica,sans-Serif" font-size="10.00">gaia::ui::IItemProvider</text>
</a>
</g>
<!-- Node14&#45;&gt;Node13 -->
<g id="edge36" class="edge"><title>Node14&#45;&gt;Node13</title>
<path fill="none" stroke="midnightblue" d="M888.582,-324.399C917.428,-326.737 951.067,-329.465 979.658,-331.783"/>
<polygon fill="midnightblue" stroke="midnightblue" points="888.845,-320.908 878.594,-323.589 888.279,-327.886 888.845,-320.908"/>
</g>
<!-- Node15&#45;&gt;Node14 -->
<g id="edge38" class="edge"><title>Node15&#45;&gt;Node14</title>
<path fill="none" stroke="#9a32cd" stroke-dasharray="5,2" d="M650.061,-303.538C689.179,-307.056 731.99,-310.906 765.108,-313.884"/>
<polygon fill="#9a32cd" stroke="#9a32cd" points="649.945,-300.013 639.672,-302.604 649.318,-306.985 649.945,-300.013"/>
<text text-anchor="middle" x="696" y="-314" font-family="Helvetica,sans-Serif" font-size="10.00"> mRecycler</text>
</g>
<!-- Node16 -->
<g id="node37" class="node"><title>Node16</title>
<a xlink:href="../../d0/d05/classgaia_1_1core_1_1_context.html" target="_top" xlink:title="Interface to global information about an application environment.">
<polygon fill="white" stroke="black" points="994,-237.5 994,-258.5 1094,-258.5 1094,-237.5 994,-237.5"/>
<text text-anchor="middle" x="1044" y="-245.5" font-family="Helvetica,sans-Serif" font-size="10.00">gaia::core::Context</text>
</a>
</g>
<!-- Node16&#45;&gt;Node1 -->
<g id="edge44" class="edge"><title>Node16&#45;&gt;Node1</title>
<path fill="none" stroke="#9a32cd" stroke-dasharray="5,2" d="M1104.42,-252.804C1138.64,-255.524 1181.48,-258.93 1216.63,-261.724"/>
<polygon fill="#9a32cd" stroke="#9a32cd" points="1104.35,-249.287 1094.1,-251.983 1103.79,-256.265 1104.35,-249.287"/>
<text text-anchor="middle" x="1161" y="-263" font-family="Helvetica,sans-Serif" font-size="10.00"> mpContext</text>
</g>
</g>
</svg>
