<?xml version="1.0" encoding="UTF-8" standalone="no"?>
<!DOCTYPE svg PUBLIC "-//W3C//DTD SVG 1.1//EN"
 "http://www.w3.org/Graphics/SVG/1.1/DTD/svg11.dtd">
<!-- Generated by graphviz version 2.26.3 (20100126.1600)
 -->
<!-- Title: G Pages: 1 -->
<svg width="12326pt" height="262pt"
 viewBox="0.00 0.00 12326.00 262.00" xmlns="http://www.w3.org/2000/svg" xmlns:xlink="http://www.w3.org/1999/xlink">
<g id="graph1" class="graph" transform="scale(1 1) rotate(0) translate(4 258)">
<title>G</title>
<polygon fill="white" stroke="white" points="-4,5 -4,-258 12323,-258 12323,5 -4,5"/>
<!-- Node1 -->
<g id="node1" class="node"><title>Node1</title>
<polygon fill="#bfbfbf" stroke="black" points="8559,-232.5 8559,-253.5 8819,-253.5 8819,-232.5 8559,-232.5"/>
<text text-anchor="middle" x="8689" y="-240.5" font-family="Helvetica,sans-Serif" font-size="10.00">/home/vilon_tao/gaia/sdk/include/gaia/base/HashFunc.h</text>
</g>
<!-- Node2 -->
<g id="node3" class="node"><title>Node2</title>
<a xlink:href="../../dd/d0b/_hash_map_8h.html" target="_top" xlink:title="/home/vilon_tao/gaia/sdk/include/gaia/base/HashMap.h">
<polygon fill="white" stroke="black" points="10675.5,-174.5 10675.5,-195.5 10932.5,-195.5 10932.5,-174.5 10675.5,-174.5"/>
<text text-anchor="middle" x="10804" y="-182.5" font-family="Helvetica,sans-Serif" font-size="10.00">/home/vilon_tao/gaia/sdk/include/gaia/base/HashMap.h</text>
</a>
</g>
<!-- Node1&#45;&gt;Node2 -->
<g id="edge2" class="edge"><title>Node1&#45;&gt;Node2</title>
<path fill="none" stroke="midnightblue" d="M8829.47,-239.148C9217.8,-228.498 10301.8,-198.773 10675.4,-188.526"/>
<polygon fill="midnightblue" stroke="midnightblue" points="8829.21,-235.654 8819.31,-239.427 8829.4,-242.651 8829.21,-235.654"/>
</g>
<!-- Node12 -->
<g id="node23" class="node"><title>Node12</title>
<a xlink:href="../../db/db5/_string_8h.html" target="_top" xlink:title="/home/vilon_tao/gaia/sdk/include/gaia/base/String.h">
<polygon fill="white" stroke="red" points="6453.5,-174.5 6453.5,-195.5 6694.5,-195.5 6694.5,-174.5 6453.5,-174.5"/>
<text text-anchor="middle" x="6574" y="-182.5" font-family="Helvetica,sans-Serif" font-size="10.00">/home/vilon_tao/gaia/sdk/include/gaia/base/String.h</text>
</a>
</g>
<!-- Node1&#45;&gt;Node12 -->
<g id="edge22" class="edge"><title>Node1&#45;&gt;Node12</title>
<path fill="none" stroke="midnightblue" d="M8548.45,-239.146C8157.27,-228.418 7060.61,-198.344 6694.62,-188.308"/>
<polygon fill="midnightblue" stroke="midnightblue" points="8548.6,-242.651 8558.69,-239.427 8548.79,-235.654 8548.6,-242.651"/>
</g>
<!-- Node3 -->
<g id="node5" class="node"><title>Node3</title>
<a xlink:href="../../d1/ddd/_ad_view_8h.html" target="_top" xlink:title="/home/vilon_tao/gaia/sdk/include/gaia/ads/AdView.h">
<polygon fill="white" stroke="black" points="9858,-116.5 9858,-137.5 10102,-137.5 10102,-116.5 9858,-116.5"/>
<text text-anchor="middle" x="9980" y="-124.5" font-family="Helvetica,sans-Serif" font-size="10.00">/home/vilon_tao/gaia/sdk/include/gaia/ads/AdView.h</text>
</a>
</g>
<!-- Node2&#45;&gt;Node3 -->
<g id="edge4" class="edge"><title>Node2&#45;&gt;Node3</title>
<path fill="none" stroke="midnightblue" d="M10664.9,-176.226C10525,-167.242 10302.9,-152.567 10111,-138 10108,-137.775 10105,-137.545 10102,-137.311"/>
<polygon fill="midnightblue" stroke="midnightblue" points="10665.1,-179.743 10675.3,-176.89 10665.5,-172.757 10665.1,-179.743"/>
</g>
<!-- Node4 -->
<g id="node7" class="node"><title>Node4</title>
<a xlink:href="../../d2/dfc/_hash_set_8h.html" target="_top" xlink:title="/home/vilon_tao/gaia/sdk/include/gaia/base/HashSet.h">
<polygon fill="white" stroke="black" points="12064,-116.5 12064,-137.5 12318,-137.5 12318,-116.5 12064,-116.5"/>
<text text-anchor="middle" x="12191" y="-124.5" font-family="Helvetica,sans-Serif" font-size="10.00">/home/vilon_tao/gaia/sdk/include/gaia/base/HashSet.h</text>
</a>
</g>
<!-- Node2&#45;&gt;Node4 -->
<g id="edge6" class="edge"><title>Node2&#45;&gt;Node4</title>
<path fill="none" stroke="midnightblue" d="M10943,-181.737C11174,-175.873 11651.5,-161.887 12055,-138 12058,-137.825 12060.9,-137.641 12064,-137.449"/>
<polygon fill="midnightblue" stroke="midnightblue" points="10942.8,-178.241 10932.9,-181.993 10942.9,-185.239 10942.8,-178.241"/>
</g>
<!-- Node5 -->
<g id="node9" class="node"><title>Node5</title>
<a xlink:href="../../d6/d2c/_cloud_storage_manager_8h.html" target="_top" xlink:title="/home/vilon_tao/gaia/sdk/include/gaia/cloudstorage/CloudStorageManager.h">
<polygon fill="white" stroke="black" points="10119.5,-116.5 10119.5,-137.5 10466.5,-137.5 10466.5,-116.5 10119.5,-116.5"/>
<text text-anchor="middle" x="10293" y="-124.5" font-family="Helvetica,sans-Serif" font-size="10.00">/home/vilon_tao/gaia/sdk/include/gaia/cloudstorage/CloudStorageManager.h</text>
</a>
</g>
<!-- Node2&#45;&gt;Node5 -->
<g id="edge8" class="edge"><title>Node2&#45;&gt;Node5</title>
<path fill="none" stroke="midnightblue" d="M10701.3,-173.34C10609,-162.868 10474.8,-147.63 10385.7,-137.523"/>
<polygon fill="midnightblue" stroke="midnightblue" points="10701.1,-176.846 10711.5,-174.497 10701.9,-169.891 10701.1,-176.846"/>
</g>
<!-- Node6 -->
<g id="node11" class="node"><title>Node6</title>
<a xlink:href="../../dd/dec/_application_preferences_8h.html" target="_top" xlink:title="/home/vilon_tao/gaia/sdk/include/gaia/content/ApplicationPreferences.h">
<polygon fill="white" stroke="black" points="10807.5,-116.5 10807.5,-137.5 11134.5,-137.5 11134.5,-116.5 10807.5,-116.5"/>
<text text-anchor="middle" x="10971" y="-124.5" font-family="Helvetica,sans-Serif" font-size="10.00">/home/vilon_tao/gaia/sdk/include/gaia/content/ApplicationPreferences.h</text>
</a>
</g>
<!-- Node2&#45;&gt;Node6 -->
<g id="edge10" class="edge"><title>Node2&#45;&gt;Node6</title>
<path fill="none" stroke="midnightblue" d="M10843.9,-171.144C10873.6,-160.823 10913.6,-146.944 10940.7,-137.523"/>
<polygon fill="midnightblue" stroke="midnightblue" points="10842.5,-167.909 10834.2,-174.497 10844.8,-174.522 10842.5,-167.909"/>
</g>
<!-- Node7 -->
<g id="node13" class="node"><title>Node7</title>
<a xlink:href="../../d1/df6/_porter_duff_8h.html" target="_top" xlink:title="/home/vilon_tao/gaia/sdk/include/gaia/graphics/PorterDuff.h">
<polygon fill="white" stroke="red" points="11152,-116.5 11152,-137.5 11428,-137.5 11428,-116.5 11152,-116.5"/>
<text text-anchor="middle" x="11290" y="-124.5" font-family="Helvetica,sans-Serif" font-size="10.00">/home/vilon_tao/gaia/sdk/include/gaia/graphics/PorterDuff.h</text>
</a>
</g>
<!-- Node2&#45;&gt;Node7 -->
<g id="edge12" class="edge"><title>Node2&#45;&gt;Node7</title>
<path fill="none" stroke="midnightblue" d="M10902,-173.308C10989.7,-162.837 11117.2,-147.62 11201.8,-137.523"/>
<polygon fill="midnightblue" stroke="midnightblue" points="10901.5,-169.836 10892,-174.497 10902.4,-176.787 10901.5,-169.836"/>
</g>
<!-- Node8 -->
<g id="node15" class="node"><title>Node8</title>
<a xlink:href="../../de/dd1/_battery_stats_impl_8h.html" target="_top" xlink:title="/home/vilon_tao/gaia/sdk/include/gaia/system/BatteryStatsImpl.h">
<polygon fill="white" stroke="black" points="11446,-116.5 11446,-137.5 11746,-137.5 11746,-116.5 11446,-116.5"/>
<text text-anchor="middle" x="11596" y="-124.5" font-family="Helvetica,sans-Serif" font-size="10.00">/home/vilon_tao/gaia/sdk/include/gaia/system/BatteryStatsImpl.h</text>
</a>
</g>
<!-- Node2&#45;&gt;Node8 -->
<g id="edge14" class="edge"><title>Node2&#45;&gt;Node8</title>
<path fill="none" stroke="midnightblue" d="M10942.7,-174.841C11085.7,-164.367 11307.7,-148.112 11452.5,-137.511"/>
<polygon fill="midnightblue" stroke="midnightblue" points="10942.3,-171.363 10932.6,-175.585 10942.8,-178.345 10942.3,-171.363"/>
</g>
<!-- Node9 -->
<g id="node17" class="node"><title>Node9</title>
<a xlink:href="../../df/db5/_power_profile_8h.html" target="_top" xlink:title="/home/vilon_tao/gaia/sdk/include/gaia/system/PowerProfile.h">
<polygon fill="white" stroke="black" points="11764,-116.5 11764,-137.5 12046,-137.5 12046,-116.5 11764,-116.5"/>
<text text-anchor="middle" x="11905" y="-124.5" font-family="Helvetica,sans-Serif" font-size="10.00">/home/vilon_tao/gaia/sdk/include/gaia/system/PowerProfile.h</text>
</a>
</g>
<!-- Node2&#45;&gt;Node9 -->
<g id="edge16" class="edge"><title>Node2&#45;&gt;Node9</title>
<path fill="none" stroke="midnightblue" d="M10942.9,-179.171C11128.2,-171.16 11466.4,-155.71 11755,-138 11757.9,-137.824 11760.8,-137.643 11763.7,-137.457"/>
<polygon fill="midnightblue" stroke="midnightblue" points="10942.7,-175.677 10932.9,-179.605 10943,-182.671 10942.7,-175.677"/>
</g>
<!-- Node10 -->
<g id="node19" class="node"><title>Node10</title>
<a xlink:href="../../d8/de3/_i_simple_list_item_provider_8h.html" target="_top" xlink:title="/home/vilon_tao/gaia/sdk/include/gaia/ui/ISimpleListItemProvider.h">
<polygon fill="white" stroke="red" points="10484,-116.5 10484,-137.5 10790,-137.5 10790,-116.5 10484,-116.5"/>
<text text-anchor="middle" x="10637" y="-124.5" font-family="Helvetica,sans-Serif" font-size="10.00">/home/vilon_tao/gaia/sdk/include/gaia/ui/ISimpleListItemProvider.h</text>
</a>
</g>
<!-- Node2&#45;&gt;Node10 -->
<g id="edge18" class="edge"><title>Node2&#45;&gt;Node10</title>
<path fill="none" stroke="midnightblue" d="M10764.1,-171.144C10734.4,-160.823 10694.4,-146.944 10667.3,-137.523"/>
<polygon fill="midnightblue" stroke="midnightblue" points="10763.2,-174.522 10773.8,-174.497 10765.5,-167.909 10763.2,-174.522"/>
</g>
<!-- Node11 -->
<g id="node21" class="node"><title>Node11</title>
<a xlink:href="../../d3/d32/_usb_manager_8h.html" target="_top" xlink:title="/home/vilon_tao/gaia/sdk/include/gaia/usb/UsbManager.h">
<polygon fill="white" stroke="black" points="9574,-116.5 9574,-137.5 9840,-137.5 9840,-116.5 9574,-116.5"/>
<text text-anchor="middle" x="9707" y="-124.5" font-family="Helvetica,sans-Serif" font-size="10.00">/home/vilon_tao/gaia/sdk/include/gaia/usb/UsbManager.h</text>
</a>
</g>
<!-- Node2&#45;&gt;Node11 -->
<g id="edge20" class="edge"><title>Node2&#45;&gt;Node11</title>
<path fill="none" stroke="midnightblue" d="M10665.2,-179.396C10479.3,-171.608 10139.2,-156.376 9849,-138 9846.04,-137.812 9843.04,-137.618 9840.02,-137.419"/>
<polygon fill="midnightblue" stroke="midnightblue" points="10665.2,-182.898 10675.3,-179.818 10665.5,-175.904 10665.2,-182.898"/>
</g>
<!-- Node12&#45;&gt;Node3 -->
<g id="edge26" class="edge"><title>Node12&#45;&gt;Node3</title>
<path fill="none" stroke="midnightblue" d="M6705.03,-184.336C7234.97,-181.464 9221.14,-168.828 9849,-138 9852.08,-137.849 9855.19,-137.683 9858.34,-137.505"/>
<polygon fill="midnightblue" stroke="midnightblue" points="6704.66,-180.838 6694.67,-184.392 6704.69,-187.838 6704.66,-180.838"/>
</g>
<!-- Node12&#45;&gt;Node5 -->
<g id="edge32" class="edge"><title>Node12&#45;&gt;Node5</title>
<path fill="none" stroke="midnightblue" d="M6704.71,-184.089C7260.28,-180.089 9428.23,-163.155 10111,-138 10115.1,-137.848 10119.3,-137.684 10123.5,-137.508"/>
<polygon fill="midnightblue" stroke="midnightblue" points="6704.64,-180.589 6694.66,-184.161 6704.69,-187.589 6704.64,-180.589"/>
</g>
<!-- Node12&#45;&gt;Node10 -->
<g id="edge118" class="edge"><title>Node12&#45;&gt;Node10</title>
<path fill="none" stroke="midnightblue" d="M6705.17,-184.404C7296.28,-181.567 9716.63,-168.292 10475,-138 10478.8,-137.848 10482.7,-137.682 10486.5,-137.503"/>
<polygon fill="midnightblue" stroke="midnightblue" points="6704.89,-180.905 6694.91,-184.453 6704.92,-187.905 6704.89,-180.905"/>
</g>
<!-- Node12&#45;&gt;Node11 -->
<g id="edge120" class="edge"><title>Node12&#45;&gt;Node11</title>
<path fill="none" stroke="midnightblue" d="M6704.84,-184.018C7204.93,-180.1 8995.84,-164.492 9565,-138 9568.21,-137.851 9571.46,-137.688 9574.74,-137.514"/>
<polygon fill="midnightblue" stroke="midnightblue" points="6704.67,-180.52 6694.7,-184.098 6704.73,-187.519 6704.67,-180.52"/>
</g>
<!-- Node13 -->
<g id="node25" class="node"><title>Node13</title>
<a xlink:href="../../df/df2/_device_admin_info_8h.html" target="_top" xlink:title="/home/vilon_tao/gaia/sdk/include/gaia/admin/DeviceAdminInfo.h">
<polygon fill="white" stroke="black" points="3296,-116.5 3296,-137.5 3592,-137.5 3592,-116.5 3296,-116.5"/>
<text text-anchor="middle" x="3444" y="-124.5" font-family="Helvetica,sans-Serif" font-size="10.00">/home/vilon_tao/gaia/sdk/include/gaia/admin/DeviceAdminInfo.h</text>
</a>
</g>
<!-- Node12&#45;&gt;Node13 -->
<g id="edge24" class="edge"><title>Node12&#45;&gt;Node13</title>
<path fill="none" stroke="midnightblue" d="M6443.1,-183.875C5944.88,-179.447 4166.51,-162.263 3601,-138 3597.45,-137.848 3593.86,-137.683 3590.23,-137.506"/>
<polygon fill="midnightblue" stroke="midnightblue" points="6443.18,-187.376 6453.21,-183.965 6443.24,-180.376 6443.18,-187.376"/>
</g>
<!-- Node14 -->
<g id="node28" class="node"><title>Node14</title>
<a xlink:href="../../d1/d65/_i_ad_listener_8h.html" target="_top" xlink:title="/home/vilon_tao/gaia/sdk/include/gaia/ads/IAdListener.h">
<polygon fill="white" stroke="black" points="3610,-116.5 3610,-137.5 3870,-137.5 3870,-116.5 3610,-116.5"/>
<text text-anchor="middle" x="3740" y="-124.5" font-family="Helvetica,sans-Serif" font-size="10.00">/home/vilon_tao/gaia/sdk/include/gaia/ads/IAdListener.h</text>
</a>
</g>
<!-- Node12&#45;&gt;Node14 -->
<g id="edge28" class="edge"><title>Node12&#45;&gt;Node14</title>
<path fill="none" stroke="midnightblue" d="M6443.29,-183.788C5975.72,-179.286 4387.06,-162.51 3879,-138 3875.86,-137.848 3872.67,-137.684 3869.46,-137.508"/>
<polygon fill="midnightblue" stroke="midnightblue" points="6443.42,-187.289 6453.46,-183.886 6443.49,-180.29 6443.42,-187.289"/>
</g>
<!-- Node15 -->
<g id="node30" class="node"><title>Node15</title>
<a xlink:href="../../d4/d15/_cloud_storage_file_info_8h.html" target="_top" xlink:title="/home/vilon_tao/gaia/sdk/include/gaia/cloudstorage/CloudStorageFileInfo.h">
<polygon fill="white" stroke="black" points="3887.5,-116.5 3887.5,-137.5 4228.5,-137.5 4228.5,-116.5 3887.5,-116.5"/>
<text text-anchor="middle" x="4058" y="-124.5" font-family="Helvetica,sans-Serif" font-size="10.00">/home/vilon_tao/gaia/sdk/include/gaia/cloudstorage/CloudStorageFileInfo.h</text>
</a>
</g>
<!-- Node12&#45;&gt;Node15 -->
<g id="edge30" class="edge"><title>Node12&#45;&gt;Node15</title>
<path fill="none" stroke="midnightblue" d="M6443.18,-184.261C6088.2,-181.846 5077.13,-172.247 4237,-138 4233.27,-137.848 4229.49,-137.686 4225.68,-137.515"/>
<polygon fill="midnightblue" stroke="midnightblue" points="6443.21,-187.761 6453.23,-184.329 6443.25,-180.761 6443.21,-187.761"/>
</g>
<!-- Node16 -->
<g id="node33" class="node"><title>Node16</title>
<a xlink:href="../../db/d62/_abstract_threaded_sync_adapter_8h.html" target="_top" xlink:title="/home/vilon_tao/gaia/sdk/include/gaia/content/sync/AbstractThreadedSyncAdapter.h">
<polygon fill="white" stroke="black" points="4246,-116.5 4246,-137.5 4630,-137.5 4630,-116.5 4246,-116.5"/>
<text text-anchor="middle" x="4438" y="-124.5" font-family="Helvetica,sans-Serif" font-size="10.00">/home/vilon_tao/gaia/sdk/include/gaia/content/sync/AbstractThreadedSyncAdapter.h</text>
</a>
</g>
<!-- Node12&#45;&gt;Node16 -->
<g id="edge34" class="edge"><title>Node12&#45;&gt;Node16</title>
<path fill="none" stroke="midnightblue" d="M6442.94,-183.19C6130.55,-178.576 5317.53,-164.801 4639,-138 4634.98,-137.841 4630.92,-137.675 4626.83,-137.501"/>
<polygon fill="midnightblue" stroke="midnightblue" points="6443.34,-186.696 6453.39,-183.344 6443.44,-179.697 6443.34,-186.696"/>
</g>
<!-- Node17 -->
<g id="node35" class="node"><title>Node17</title>
<a xlink:href="../../d5/d84/_sync_result_8h.html" target="_top" xlink:title="/home/vilon_tao/gaia/sdk/include/gaia/content/sync/SyncResult.h">
<polygon fill="white" stroke="black" points="4648,-116.5 4648,-137.5 4950,-137.5 4950,-116.5 4648,-116.5"/>
<text text-anchor="middle" x="4799" y="-124.5" font-family="Helvetica,sans-Serif" font-size="10.00">/home/vilon_tao/gaia/sdk/include/gaia/content/sync/SyncResult.h</text>
</a>
</g>
<!-- Node12&#45;&gt;Node17 -->
<g id="edge36" class="edge"><title>Node12&#45;&gt;Node17</title>
<path fill="none" stroke="midnightblue" d="M6443.38,-182.95C6168.55,-178.25 5510.42,-164.968 4959,-138 4955.8,-137.844 4952.57,-137.679 4949.31,-137.507"/>
<polygon fill="midnightblue" stroke="midnightblue" points="6443.33,-186.449 6453.39,-183.12 6443.45,-179.45 6443.33,-186.449"/>
</g>
<!-- Node18 -->
<g id="node37" class="node"><title>Node18</title>
<a xlink:href="../../d2/d3b/_sync_status_observer_8h.html" target="_top" xlink:title="/home/vilon_tao/gaia/sdk/include/gaia/content/sync/SyncStatusObserver.h">
<polygon fill="white" stroke="black" points="4967.5,-116.5 4967.5,-137.5 5308.5,-137.5 5308.5,-116.5 4967.5,-116.5"/>
<text text-anchor="middle" x="5138" y="-124.5" font-family="Helvetica,sans-Serif" font-size="10.00">/home/vilon_tao/gaia/sdk/include/gaia/content/sync/SyncStatusObserver.h</text>
</a>
</g>
<!-- Node12&#45;&gt;Node18 -->
<g id="edge38" class="edge"><title>Node12&#45;&gt;Node18</title>
<path fill="none" stroke="midnightblue" d="M6443.48,-181.152C6215.07,-174.188 5728.04,-158.311 5317,-138 5313.73,-137.839 5310.44,-137.672 5307.11,-137.501"/>
<polygon fill="midnightblue" stroke="midnightblue" points="6443.39,-184.651 6453.49,-181.457 6443.6,-177.654 6443.39,-184.651"/>
</g>
<!-- Node19 -->
<g id="node39" class="node"><title>Node19</title>
<a xlink:href="../../d9/d05/_demand_delegate_8h.html" target="_top" xlink:title="/home/vilon_tao/gaia/sdk/include/gaia/core/DemandDelegate.h">
<polygon fill="white" stroke="black" points="5325.5,-116.5 5325.5,-137.5 5614.5,-137.5 5614.5,-116.5 5325.5,-116.5"/>
<text text-anchor="middle" x="5470" y="-124.5" font-family="Helvetica,sans-Serif" font-size="10.00">/home/vilon_tao/gaia/sdk/include/gaia/core/DemandDelegate.h</text>
</a>
</g>
<!-- Node12&#45;&gt;Node19 -->
<g id="edge40" class="edge"><title>Node12&#45;&gt;Node19</title>
<path fill="none" stroke="midnightblue" d="M6443.25,-179.466C6259.88,-171.492 5915.91,-155.765 5623,-138 5620.21,-137.831 5617.39,-137.657 5614.55,-137.479"/>
<polygon fill="midnightblue" stroke="midnightblue" points="6443.34,-182.972 6453.48,-179.909 6443.64,-175.979 6443.34,-182.972"/>
</g>
<!-- Node20 -->
<g id="node41" class="node"><title>Node20</title>
<a xlink:href="../../dd/d79/_key_event_8h.html" target="_top" xlink:title="/home/vilon_tao/gaia/sdk/include/gaia/core/event/KeyEvent.h">
<polygon fill="white" stroke="red" points="5631.5,-116.5 5631.5,-137.5 5914.5,-137.5 5914.5,-116.5 5631.5,-116.5"/>
<text text-anchor="middle" x="5773" y="-124.5" font-family="Helvetica,sans-Serif" font-size="10.00">/home/vilon_tao/gaia/sdk/include/gaia/core/event/KeyEvent.h</text>
</a>
</g>
<!-- Node12&#45;&gt;Node20 -->
<g id="edge42" class="edge"><title>Node12&#45;&gt;Node20</title>
<path fill="none" stroke="midnightblue" d="M6443.3,-175.607C6311.85,-166.151 6103.37,-151.124 5923,-138 5920.27,-137.801 5917.5,-137.6 5914.72,-137.397"/>
<polygon fill="midnightblue" stroke="midnightblue" points="6443.19,-179.108 6453.41,-176.335 6443.69,-172.127 6443.19,-179.108"/>
</g>
<!-- Node21 -->
<g id="node43" class="node"><title>Node21</title>
<a xlink:href="../../dd/dc1/_fragment_manager_8h.html" target="_top" xlink:title="/home/vilon_tao/gaia/sdk/include/gaia/core/FragmentManager.h">
<polygon fill="white" stroke="black" points="5932,-116.5 5932,-137.5 6224,-137.5 6224,-116.5 5932,-116.5"/>
<text text-anchor="middle" x="6078" y="-124.5" font-family="Helvetica,sans-Serif" font-size="10.00">/home/vilon_tao/gaia/sdk/include/gaia/core/FragmentManager.h</text>
</a>
</g>
<!-- Node12&#45;&gt;Node21 -->
<g id="edge44" class="edge"><title>Node12&#45;&gt;Node21</title>
<path fill="none" stroke="midnightblue" d="M6474.01,-173.308C6384.47,-162.837 6254.33,-147.62 6167.99,-137.523"/>
<polygon fill="midnightblue" stroke="midnightblue" points="6473.84,-176.811 6484.18,-174.497 6474.65,-169.859 6473.84,-176.811"/>
</g>
<!-- Node22 -->
<g id="node45" class="node"><title>Node22</title>
<a xlink:href="../../d2/d0a/_fragment_transaction_8h.html" target="_top" xlink:title="/home/vilon_tao/gaia/sdk/include/gaia/core/FragmentTransaction.h">
<polygon fill="white" stroke="black" points="6241.5,-116.5 6241.5,-137.5 6546.5,-137.5 6546.5,-116.5 6241.5,-116.5"/>
<text text-anchor="middle" x="6394" y="-124.5" font-family="Helvetica,sans-Serif" font-size="10.00">/home/vilon_tao/gaia/sdk/include/gaia/core/FragmentTransaction.h</text>
</a>
</g>
<!-- Node12&#45;&gt;Node22 -->
<g id="edge46" class="edge"><title>Node12&#45;&gt;Node22</title>
<path fill="none" stroke="midnightblue" d="M6531.83,-171.413C6499.72,-161.065 6456.15,-147.026 6426.66,-137.523"/>
<polygon fill="midnightblue" stroke="midnightblue" points="6530.81,-174.761 6541.4,-174.497 6532.96,-168.098 6530.81,-174.761"/>
</g>
<!-- Node23 -->
<g id="node47" class="node"><title>Node23</title>
<a xlink:href="../../da/dd8/_instrumentation_8h.html" target="_top" xlink:title="/home/vilon_tao/gaia/sdk/include/gaia/core/Instrumentation.h">
<polygon fill="white" stroke="red" points="6639.5,-116.5 6639.5,-137.5 6920.5,-137.5 6920.5,-116.5 6639.5,-116.5"/>
<text text-anchor="middle" x="6780" y="-124.5" font-family="Helvetica,sans-Serif" font-size="10.00">/home/vilon_tao/gaia/sdk/include/gaia/core/Instrumentation.h</text>
</a>
</g>
<!-- Node12&#45;&gt;Node23 -->
<g id="edge48" class="edge"><title>Node12&#45;&gt;Node23</title>
<path fill="none" stroke="midnightblue" d="M6621.31,-171.68C6658.15,-161.307 6708.58,-147.108 6742.62,-137.523"/>
<polygon fill="midnightblue" stroke="midnightblue" points="6619.98,-168.417 6611.31,-174.497 6621.88,-175.155 6619.98,-168.417"/>
</g>
<!-- Node24 -->
<g id="node49" class="node"><title>Node24</title>
<a xlink:href="../../d0/d54/_instrumentation_test_case_8h.html" target="_top" xlink:title="/home/vilon_tao/gaia/sdk/include/gaia/testing/InstrumentationTestCase.h">
<polygon fill="white" stroke="red" points="6413,-58.5 6413,-79.5 6747,-79.5 6747,-58.5 6413,-58.5"/>
<text text-anchor="middle" x="6580" y="-66.5" font-family="Helvetica,sans-Serif" font-size="10.00">/home/vilon_tao/gaia/sdk/include/gaia/testing/InstrumentationTestCase.h</text>
</a>
</g>
<!-- Node12&#45;&gt;Node24 -->
<g id="edge114" class="edge"><title>Node12&#45;&gt;Node24</title>
<path fill="none" stroke="midnightblue" d="M6581.38,-164.901C6584.03,-156.682 6586.69,-147.004 6588,-138 6590.99,-117.475 6586.35,-93.3826 6582.99,-79.782"/>
<polygon fill="midnightblue" stroke="midnightblue" points="6578.07,-163.778 6578.13,-174.372 6584.69,-166.05 6578.07,-163.778"/>
</g>
<!-- Node25 -->
<g id="node51" class="node"><title>Node25</title>
<a xlink:href="../../d6/d7d/_instrumentation_test_runner_8h.html" target="_top" xlink:title="/home/vilon_tao/gaia/sdk/include/gaia/testing/InstrumentationTestRunner.h">
<polygon fill="white" stroke="black" points="6765,-58.5 6765,-79.5 7107,-79.5 7107,-58.5 6765,-58.5"/>
<text text-anchor="middle" x="6936" y="-66.5" font-family="Helvetica,sans-Serif" font-size="10.00">/home/vilon_tao/gaia/sdk/include/gaia/testing/InstrumentationTestRunner.h</text>
</a>
</g>
<!-- Node12&#45;&gt;Node25 -->
<g id="edge116" class="edge"><title>Node12&#45;&gt;Node25</title>
<path fill="none" stroke="midnightblue" d="M6705.22,-175.476C6799.69,-167.316 6913.18,-154.308 6929,-138 6944.09,-122.443 6941.42,-94.6503 6938.51,-79.5197"/>
<polygon fill="midnightblue" stroke="midnightblue" points="6704.64,-172.012 6694.97,-176.348 6705.23,-178.987 6704.64,-172.012"/>
</g>
<!-- Node26 -->
<g id="node53" class="node"><title>Node26</title>
<a xlink:href="../../dd/db1/_instrumentation_core_test_runner_8h.html" target="_top" xlink:title="/home/vilon_tao/gaia/sdk/include/gaia/testing/InstrumentationCoreTestRunner.h">
<polygon fill="white" stroke="black" points="6554.5,-0.5 6554.5,-21.5 6917.5,-21.5 6917.5,-0.5 6554.5,-0.5"/>
<text text-anchor="middle" x="6736" y="-8.5" font-family="Helvetica,sans-Serif" font-size="10.00">/home/vilon_tao/gaia/sdk/include/gaia/testing/InstrumentationCoreTestRunner.h</text>
</a>
</g>
<!-- Node12&#45;&gt;Node26 -->
<g id="edge112" class="edge"><title>Node12&#45;&gt;Node26</title>
<path fill="none" stroke="midnightblue" d="M6573.69,-164.342C6572.32,-148.947 6567.94,-128.503 6555,-116 6503.29,-66.0536 6356.86,-112.281 6404,-58 6417.48,-42.4789 6517.16,-29.7771 6603.81,-21.5086"/>
<polygon fill="midnightblue" stroke="midnightblue" points="6570.2,-164.675 6574.22,-174.475 6577.19,-164.304 6570.2,-164.675"/>
</g>
<!-- Node27 -->
<g id="node55" class="node"><title>Node27</title>
<a xlink:href="../../da/de3/_binder_8h.html" target="_top" xlink:title="/home/vilon_tao/gaia/sdk/include/gaia/core/ipc/Binder.h">
<polygon fill="white" stroke="red" points="7205.5,-0.5 7205.5,-21.5 7462.5,-21.5 7462.5,-0.5 7205.5,-0.5"/>
<text text-anchor="middle" x="7334" y="-8.5" font-family="Helvetica,sans-Serif" font-size="10.00">/home/vilon_tao/gaia/sdk/include/gaia/core/ipc/Binder.h</text>
</a>
</g>
<!-- Node12&#45;&gt;Node27 -->
<g id="edge56" class="edge"><title>Node12&#45;&gt;Node27</title>
<path fill="none" stroke="midnightblue" d="M6705.01,-180.772C6871.01,-174.56 7147.48,-161.124 7247,-138 7272.24,-132.135 7276.92,-125.567 7301,-116 7342.19,-99.6381 7368.95,-116.562 7394,-80 7409.25,-57.7378 7377.79,-34.615 7354.93,-21.5918"/>
<polygon fill="midnightblue" stroke="midnightblue" points="6704.6,-177.285 6694.74,-181.152 6704.86,-184.28 6704.6,-177.285"/>
</g>
<!-- Node28 -->
<g id="node57" class="node"><title>Node28</title>
<a xlink:href="../../d1/dbb/_i_binder_8h.html" target="_top" xlink:title="/home/vilon_tao/gaia/sdk/include/gaia/core/ipc/IBinder.h">
<polygon fill="white" stroke="red" points="7125,-58.5 7125,-79.5 7385,-79.5 7385,-58.5 7125,-58.5"/>
<text text-anchor="middle" x="7255" y="-66.5" font-family="Helvetica,sans-Serif" font-size="10.00">/home/vilon_tao/gaia/sdk/include/gaia/core/ipc/IBinder.h</text>
</a>
</g>
<!-- Node12&#45;&gt;Node28 -->
<g id="edge58" class="edge"><title>Node12&#45;&gt;Node28</title>
<path fill="none" stroke="midnightblue" d="M6705.05,-182.734C6882.99,-178.569 7183.7,-167.257 7225,-138 7244.4,-124.257 7251.38,-95.18 7253.79,-79.5182"/>
<polygon fill="midnightblue" stroke="midnightblue" points="6704.75,-179.24 6694.83,-182.968 6704.91,-186.238 6704.75,-179.24"/>
</g>
<!-- Node29 -->
<g id="node60" class="node"><title>Node29</title>
<a xlink:href="../../d5/de8/_page_manager_8h.html" target="_top" xlink:title="/home/vilon_tao/gaia/sdk/include/gaia/core/PageManager.h">
<polygon fill="white" stroke="black" points="7309.5,-116.5 7309.5,-137.5 7582.5,-137.5 7582.5,-116.5 7309.5,-116.5"/>
<text text-anchor="middle" x="7446" y="-124.5" font-family="Helvetica,sans-Serif" font-size="10.00">/home/vilon_tao/gaia/sdk/include/gaia/core/PageManager.h</text>
</a>
</g>
<!-- Node12&#45;&gt;Node29 -->
<g id="edge62" class="edge"><title>Node12&#45;&gt;Node29</title>
<path fill="none" stroke="midnightblue" d="M6704.99,-176.797C6849.67,-167.661 7089.49,-152.293 7296,-138 7300.43,-137.693 7304.93,-137.379 7309.48,-137.059"/>
<polygon fill="midnightblue" stroke="midnightblue" points="6704.5,-173.32 6694.74,-177.443 6704.94,-180.307 6704.5,-173.32"/>
</g>
<!-- Node30 -->
<g id="node62" class="node"><title>Node30</title>
<a xlink:href="../../df/d57/_parcel_8h.html" target="_top" xlink:title="/home/vilon_tao/gaia/sdk/include/gaia/core/Parcel.h">
<polygon fill="white" stroke="red" points="6975.5,-116.5 6975.5,-137.5 7216.5,-137.5 7216.5,-116.5 6975.5,-116.5"/>
<text text-anchor="middle" x="7096" y="-124.5" font-family="Helvetica,sans-Serif" font-size="10.00">/home/vilon_tao/gaia/sdk/include/gaia/core/Parcel.h</text>
</a>
</g>
<!-- Node12&#45;&gt;Node30 -->
<g id="edge64" class="edge"><title>Node12&#45;&gt;Node30</title>
<path fill="none" stroke="midnightblue" d="M6678.66,-173.371C6772.91,-162.899 6910.24,-147.64 7001.29,-137.523"/>
<polygon fill="midnightblue" stroke="midnightblue" points="6678.08,-169.914 6668.53,-174.497 6678.86,-176.871 6678.08,-169.914"/>
</g>
<!-- Node31 -->
<g id="node65" class="node"><title>Node31</title>
<a xlink:href="../../db/d64/_search_manager_8h.html" target="_top" xlink:title="/home/vilon_tao/gaia/sdk/include/gaia/core/SearchManager.h">
<polygon fill="white" stroke="black" points="7599.5,-116.5 7599.5,-137.5 7880.5,-137.5 7880.5,-116.5 7599.5,-116.5"/>
<text text-anchor="middle" x="7740" y="-124.5" font-family="Helvetica,sans-Serif" font-size="10.00">/home/vilon_tao/gaia/sdk/include/gaia/core/SearchManager.h</text>
</a>
</g>
<!-- Node12&#45;&gt;Node31 -->
<g id="edge68" class="edge"><title>Node12&#45;&gt;Node31</title>
<path fill="none" stroke="midnightblue" d="M6704.82,-180.106C6898.51,-172.599 7272.94,-157.087 7591,-138 7593.72,-137.837 7596.46,-137.669 7599.23,-137.496"/>
<polygon fill="midnightblue" stroke="midnightblue" points="6704.46,-176.617 6694.6,-180.501 6704.73,-183.612 6704.46,-176.617"/>
</g>
<!-- Node32 -->
<g id="node67" class="node"><title>Node32</title>
<a xlink:href="../../dd/df1/_bitmap_8h.html" target="_top" xlink:title="/home/vilon_tao/gaia/sdk/include/gaia/graphics/Bitmap.h">
<polygon fill="white" stroke="red" points="7898,-116.5 7898,-137.5 8160,-137.5 8160,-116.5 7898,-116.5"/>
<text text-anchor="middle" x="8029" y="-124.5" font-family="Helvetica,sans-Serif" font-size="10.00">/home/vilon_tao/gaia/sdk/include/gaia/graphics/Bitmap.h</text>
</a>
</g>
<!-- Node12&#45;&gt;Node32 -->
<g id="edge70" class="edge"><title>Node12&#45;&gt;Node32</title>
<path fill="none" stroke="midnightblue" d="M6704.66,-182.177C6941.09,-176.658 7455.62,-162.759 7889,-138 7891.92,-137.833 7894.88,-137.658 7897.85,-137.475"/>
<polygon fill="midnightblue" stroke="midnightblue" points="6704.56,-178.678 6694.65,-182.41 6704.72,-185.677 6704.56,-178.678"/>
</g>
<!-- Node33 -->
<g id="node69" class="node"><title>Node33</title>
<a xlink:href="../../d3/d90/_auth_info_8h.html" target="_top" xlink:title="/home/vilon_tao/gaia/sdk/include/gaia/net/AuthInfo.h">
<polygon fill="white" stroke="black" points="8177.5,-116.5 8177.5,-137.5 8422.5,-137.5 8422.5,-116.5 8177.5,-116.5"/>
<text text-anchor="middle" x="8300" y="-124.5" font-family="Helvetica,sans-Serif" font-size="10.00">/home/vilon_tao/gaia/sdk/include/gaia/net/AuthInfo.h</text>
</a>
</g>
<!-- Node12&#45;&gt;Node33 -->
<g id="edge72" class="edge"><title>Node12&#45;&gt;Node33</title>
<path fill="none" stroke="midnightblue" d="M6704.98,-183.547C6977.61,-179.993 7625.92,-168.78 8169,-138 8171.73,-137.845 8174.5,-137.68 8177.29,-137.507"/>
<polygon fill="midnightblue" stroke="midnightblue" points="6704.6,-180.052 6694.65,-183.681 6704.69,-187.051 6704.6,-180.052"/>
</g>
<!-- Node34 -->
<g id="node71" class="node"><title>Node34</title>
<a xlink:href="../../d2/db0/net_2_cookie_manager_8h.html" target="_top" xlink:title="/home/vilon_tao/gaia/sdk/include/gaia/net/CookieManager.h">
<polygon fill="white" stroke="black" points="8440,-116.5 8440,-137.5 8716,-137.5 8716,-116.5 8440,-116.5"/>
<text text-anchor="middle" x="8578" y="-124.5" font-family="Helvetica,sans-Serif" font-size="10.00">/home/vilon_tao/gaia/sdk/include/gaia/net/CookieManager.h</text>
</a>
</g>
<!-- Node12&#45;&gt;Node34 -->
<g id="edge74" class="edge"><title>Node12&#45;&gt;Node34</title>
<path fill="none" stroke="midnightblue" d="M6704.81,-183.908C7008.28,-180.891 7783.69,-170.391 8431,-138 8434.07,-137.847 8437.17,-137.683 8440.3,-137.511"/>
<polygon fill="midnightblue" stroke="midnightblue" points="6704.62,-180.41 6694.66,-184.008 6704.69,-187.41 6704.62,-180.41"/>
</g>
<!-- Node35 -->
<g id="node73" class="node"><title>Node35</title>
<a xlink:href="../../d4/db7/_d_n_s_8h.html" target="_top" xlink:title="/home/vilon_tao/gaia/sdk/include/gaia/net/DNS.h">
<polygon fill="white" stroke="black" points="8734,-116.5 8734,-137.5 8964,-137.5 8964,-116.5 8734,-116.5"/>
<text text-anchor="middle" x="8849" y="-124.5" font-family="Helvetica,sans-Serif" font-size="10.00">/home/vilon_tao/gaia/sdk/include/gaia/net/DNS.h</text>
</a>
</g>
<!-- Node12&#45;&gt;Node35 -->
<g id="edge76" class="edge"><title>Node12&#45;&gt;Node35</title>
<path fill="none" stroke="midnightblue" d="M6705,-183.284C7108.44,-177.817 8328.77,-159.879 8725,-138 8727.91,-137.839 8730.86,-137.665 8733.84,-137.478"/>
<polygon fill="midnightblue" stroke="midnightblue" points="6704.7,-179.788 6694.75,-183.423 6704.79,-186.787 6704.7,-179.788"/>
</g>
<!-- Node36 -->
<g id="node75" class="node"><title>Node36</title>
<a xlink:href="../../d8/d12/_http_client_8h.html" target="_top" xlink:title="/home/vilon_tao/gaia/sdk/include/gaia/net/HttpClient.h">
<polygon fill="white" stroke="black" points="8866,-58.5 8866,-79.5 9118,-79.5 9118,-58.5 8866,-58.5"/>
<text text-anchor="middle" x="8992" y="-66.5" font-family="Helvetica,sans-Serif" font-size="10.00">/home/vilon_tao/gaia/sdk/include/gaia/net/HttpClient.h</text>
</a>
</g>
<!-- Node12&#45;&gt;Node36 -->
<g id="edge78" class="edge"><title>Node12&#45;&gt;Node36</title>
<path fill="none" stroke="midnightblue" d="M6704.56,-184.542C7198.58,-182.544 8927.91,-173.055 8973,-138 8990.75,-124.196 8992.9,-95.4194 8992.63,-79.7426"/>
<polygon fill="midnightblue" stroke="midnightblue" points="6704.52,-181.042 6694.53,-184.582 6704.55,-188.042 6704.52,-181.042"/>
</g>
<!-- Node37 -->
<g id="node77" class="node"><title>Node37</title>
<a xlink:href="../../d9/d46/_http_context_8h.html" target="_top" xlink:title="/home/vilon_tao/gaia/sdk/include/gaia/net/HttpContext.h">
<polygon fill="white" stroke="black" points="9295.5,-116.5 9295.5,-137.5 9556.5,-137.5 9556.5,-116.5 9295.5,-116.5"/>
<text text-anchor="middle" x="9426" y="-124.5" font-family="Helvetica,sans-Serif" font-size="10.00">/home/vilon_tao/gaia/sdk/include/gaia/net/HttpContext.h</text>
</a>
</g>
<!-- Node12&#45;&gt;Node37 -->
<g id="edge80" class="edge"><title>Node12&#45;&gt;Node37</title>
<path fill="none" stroke="midnightblue" d="M6704.93,-183.751C7174.25,-179.115 8771.31,-161.917 9282,-138 9286.38,-137.795 9290.84,-137.566 9295.34,-137.318"/>
<polygon fill="midnightblue" stroke="midnightblue" points="6704.7,-180.253 6694.73,-183.852 6704.77,-187.253 6704.7,-180.253"/>
</g>
<!-- Node38 -->
<g id="node79" class="node"><title>Node38</title>
<a xlink:href="../../d9/d20/_http_file_entity_8h.html" target="_top" xlink:title="/home/vilon_tao/gaia/sdk/include/gaia/net/HttpFileEntity.h">
<polygon fill="white" stroke="black" points="0,-116.5 0,-137.5 268,-137.5 268,-116.5 0,-116.5"/>
<text text-anchor="middle" x="134" y="-124.5" font-family="Helvetica,sans-Serif" font-size="10.00">/home/vilon_tao/gaia/sdk/include/gaia/net/HttpFileEntity.h</text>
</a>
</g>
<!-- Node12&#45;&gt;Node38 -->
<g id="edge82" class="edge"><title>Node12&#45;&gt;Node38</title>
<path fill="none" stroke="midnightblue" d="M6443.3,-184.57C5597.44,-181.715 912.566,-164.784 277,-138 273.517,-137.853 269.988,-137.69 266.427,-137.511"/>
<polygon fill="midnightblue" stroke="midnightblue" points="6443.36,-188.07 6453.37,-184.604 6443.39,-181.07 6443.36,-188.07"/>
</g>
<!-- Node39 -->
<g id="node81" class="node"><title>Node39</title>
<a xlink:href="../../d3/d95/_http_request_8h.html" target="_top" xlink:title="/home/vilon_tao/gaia/sdk/include/gaia/net/HttpRequest.h">
<polygon fill="white" stroke="black" points="9135.5,-58.5 9135.5,-79.5 9398.5,-79.5 9398.5,-58.5 9135.5,-58.5"/>
<text text-anchor="middle" x="9267" y="-66.5" font-family="Helvetica,sans-Serif" font-size="10.00">/home/vilon_tao/gaia/sdk/include/gaia/net/HttpRequest.h</text>
</a>
</g>
<!-- Node12&#45;&gt;Node39 -->
<g id="edge84" class="edge"><title>Node12&#45;&gt;Node39</title>
<path fill="none" stroke="midnightblue" d="M6705.02,-184.834C7235.56,-183.893 9198.5,-177.73 9249,-138 9266.61,-124.145 9268.32,-95.3892 9267.81,-79.7293"/>
<polygon fill="midnightblue" stroke="midnightblue" points="6704.64,-181.334 6694.65,-184.852 6704.66,-188.334 6704.64,-181.334"/>
</g>
<!-- Node40 -->
<g id="node83" class="node"><title>Node40</title>
<a xlink:href="../../d5/d28/_i_p_host_entry_8h.html" target="_top" xlink:title="/home/vilon_tao/gaia/sdk/include/gaia/net/IPHostEntry.h">
<polygon fill="white" stroke="black" points="286,-116.5 286,-137.5 548,-137.5 548,-116.5 286,-116.5"/>
<text text-anchor="middle" x="417" y="-124.5" font-family="Helvetica,sans-Serif" font-size="10.00">/home/vilon_tao/gaia/sdk/include/gaia/net/IPHostEntry.h</text>
</a>
</g>
<!-- Node12&#45;&gt;Node40 -->
<g id="edge86" class="edge"><title>Node12&#45;&gt;Node40</title>
<path fill="none" stroke="midnightblue" d="M6443.24,-184.534C5619.43,-181.525 1162.83,-164.134 557,-138 553.59,-137.853 550.134,-137.689 546.648,-137.511"/>
<polygon fill="midnightblue" stroke="midnightblue" points="6443.34,-188.034 6453.35,-184.571 6443.36,-181.034 6443.34,-188.034"/>
</g>
<!-- Node41 -->
<g id="node85" class="node"><title>Node41</title>
<a xlink:href="../../d2/db5/_proxy_manager_8h.html" target="_top" xlink:title="/home/vilon_tao/gaia/sdk/include/gaia/net/ProxyManager.h">
<polygon fill="white" stroke="black" points="565.5,-116.5 565.5,-137.5 836.5,-137.5 836.5,-116.5 565.5,-116.5"/>
<text text-anchor="middle" x="701" y="-124.5" font-family="Helvetica,sans-Serif" font-size="10.00">/home/vilon_tao/gaia/sdk/include/gaia/net/ProxyManager.h</text>
</a>
</g>
<!-- Node12&#45;&gt;Node41 -->
<g id="edge88" class="edge"><title>Node12&#45;&gt;Node41</title>
<path fill="none" stroke="midnightblue" d="M6443.15,-184.462C5642.5,-181.096 1420.31,-162.305 845,-138 841.493,-137.852 837.939,-137.687 834.353,-137.508"/>
<polygon fill="midnightblue" stroke="midnightblue" points="6443.25,-187.962 6453.26,-184.504 6443.28,-180.962 6443.25,-187.962"/>
</g>
<!-- Node42 -->
<g id="node87" class="node"><title>Node42</title>
<a xlink:href="../../d3/d02/_s_s_l_request_info_8h.html" target="_top" xlink:title="/home/vilon_tao/gaia/sdk/include/gaia/net/SSLRequestInfo.h">
<polygon fill="white" stroke="black" points="854,-116.5 854,-137.5 1134,-137.5 1134,-116.5 854,-116.5"/>
<text text-anchor="middle" x="994" y="-124.5" font-family="Helvetica,sans-Serif" font-size="10.00">/home/vilon_tao/gaia/sdk/include/gaia/net/SSLRequestInfo.h</text>
</a>
</g>
<!-- Node12&#45;&gt;Node42 -->
<g id="edge90" class="edge"><title>Node12&#45;&gt;Node42</title>
<path fill="none" stroke="midnightblue" d="M6443.16,-184.379C5667.42,-180.626 1686.81,-160.403 1143,-138 1139.37,-137.851 1135.69,-137.685 1131.98,-137.504"/>
<polygon fill="midnightblue" stroke="midnightblue" points="6443.23,-187.879 6453.25,-184.427 6443.27,-180.879 6443.23,-187.879"/>
</g>
<!-- Node43 -->
<g id="node89" class="node"><title>Node43</title>
<a xlink:href="../../d9/dd7/_url_8h.html" target="_top" xlink:title="/home/vilon_tao/gaia/sdk/include/gaia/net/Url.h">
<polygon fill="white" stroke="black" points="9019.5,-116.5 9019.5,-137.5 9240.5,-137.5 9240.5,-116.5 9019.5,-116.5"/>
<text text-anchor="middle" x="9130" y="-124.5" font-family="Helvetica,sans-Serif" font-size="10.00">/home/vilon_tao/gaia/sdk/include/gaia/net/Url.h</text>
</a>
</g>
<!-- Node12&#45;&gt;Node43 -->
<g id="edge92" class="edge"><title>Node12&#45;&gt;Node43</title>
<path fill="none" stroke="midnightblue" d="M6704.8,-183.667C7142.24,-179.022 8552.17,-162.485 9006,-138 9010.42,-137.761 9014.93,-137.49 9019.49,-137.194"/>
<polygon fill="midnightblue" stroke="midnightblue" points="6704.61,-180.169 6694.64,-183.775 6704.68,-187.169 6704.61,-180.169"/>
</g>
<!-- Node44 -->
<g id="node93" class="node"><title>Node44</title>
<a xlink:href="../../dd/dd6/_u_r_l_encoder_8h.html" target="_top" xlink:title="/home/vilon_tao/gaia/sdk/include/gaia/net/URLEncoder.h">
<polygon fill="white" stroke="black" points="1152,-116.5 1152,-137.5 1416,-137.5 1416,-116.5 1152,-116.5"/>
<text text-anchor="middle" x="1284" y="-124.5" font-family="Helvetica,sans-Serif" font-size="10.00">/home/vilon_tao/gaia/sdk/include/gaia/net/URLEncoder.h</text>
</a>
</g>
<!-- Node12&#45;&gt;Node44 -->
<g id="edge98" class="edge"><title>Node12&#45;&gt;Node44</title>
<path fill="none" stroke="midnightblue" d="M6443.36,-184.346C5692.23,-180.514 1939,-160.369 1425,-138 1421.57,-137.851 1418.09,-137.685 1414.57,-137.504"/>
<polygon fill="midnightblue" stroke="midnightblue" points="6443.38,-187.846 6453.4,-184.397 6443.42,-180.846 6443.38,-187.846"/>
</g>
<!-- Node45 -->
<g id="node95" class="node"><title>Node45</title>
<a xlink:href="../../dd/d2e/_storage_listener_8h.html" target="_top" xlink:title="/home/vilon_tao/gaia/sdk/include/gaia/storage/StorageListener.h">
<polygon fill="white" stroke="black" points="1433.5,-116.5 1433.5,-137.5 1728.5,-137.5 1728.5,-116.5 1433.5,-116.5"/>
<text text-anchor="middle" x="1581" y="-124.5" font-family="Helvetica,sans-Serif" font-size="10.00">/home/vilon_tao/gaia/sdk/include/gaia/storage/StorageListener.h</text>
</a>
</g>
<!-- Node12&#45;&gt;Node45 -->
<g id="edge100" class="edge"><title>Node12&#45;&gt;Node45</title>
<path fill="none" stroke="midnightblue" d="M6443.12,-184.805C5769.89,-183.636 2691.57,-176.257 1737,-138 1733.34,-137.853 1729.63,-137.691 1725.89,-137.516"/>
<polygon fill="midnightblue" stroke="midnightblue" points="6443.33,-188.305 6453.34,-184.822 6443.35,-181.305 6443.33,-188.305"/>
</g>
<!-- Node46 -->
<g id="node97" class="node"><title>Node46</title>
<a xlink:href="../../df/d25/_storage_manager_8h.html" target="_top" xlink:title="/home/vilon_tao/gaia/sdk/include/gaia/storage/StorageManager.h">
<polygon fill="white" stroke="black" points="1746,-116.5 1746,-137.5 2044,-137.5 2044,-116.5 1746,-116.5"/>
<text text-anchor="middle" x="1895" y="-124.5" font-family="Helvetica,sans-Serif" font-size="10.00">/home/vilon_tao/gaia/sdk/include/gaia/storage/StorageManager.h</text>
</a>
</g>
<!-- Node12&#45;&gt;Node46 -->
<g id="edge102" class="edge"><title>Node12&#45;&gt;Node46</title>
<path fill="none" stroke="midnightblue" d="M6443.08,-184.686C5796.69,-182.975 2941.22,-173.505 2053,-138 2049.29,-137.852 2045.53,-137.689 2041.74,-137.512"/>
<polygon fill="midnightblue" stroke="midnightblue" points="6443.35,-188.186 6453.36,-184.713 6443.37,-181.186 6443.35,-188.186"/>
</g>
<!-- Node47 -->
<g id="node99" class="node"><title>Node47</title>
<a xlink:href="../../de/dca/_storage_volume_8h.html" target="_top" xlink:title="/home/vilon_tao/gaia/sdk/include/gaia/storage/StorageVolume.h">
<polygon fill="white" stroke="black" points="2061.5,-116.5 2061.5,-137.5 2354.5,-137.5 2354.5,-116.5 2061.5,-116.5"/>
<text text-anchor="middle" x="2208" y="-124.5" font-family="Helvetica,sans-Serif" font-size="10.00">/home/vilon_tao/gaia/sdk/include/gaia/storage/StorageVolume.h</text>
</a>
</g>
<!-- Node12&#45;&gt;Node47 -->
<g id="edge104" class="edge"><title>Node12&#45;&gt;Node47</title>
<path fill="none" stroke="midnightblue" d="M6442.78,-184.592C5823.18,-182.506 3186.11,-171.77 2363,-138 2359.36,-137.851 2355.67,-137.687 2351.96,-137.51"/>
<polygon fill="midnightblue" stroke="midnightblue" points="6443.07,-188.093 6453.09,-184.627 6443.1,-181.093 6443.07,-188.093"/>
</g>
<!-- Node48 -->
<g id="node101" class="node"><title>Node48</title>
<a xlink:href="../../da/dbb/_sensor_8h.html" target="_top" xlink:title="/home/vilon_tao/gaia/sdk/include/gaia/system/Sensor.h">
<polygon fill="white" stroke="black" points="2371.5,-116.5 2371.5,-137.5 2628.5,-137.5 2628.5,-116.5 2371.5,-116.5"/>
<text text-anchor="middle" x="2500" y="-124.5" font-family="Helvetica,sans-Serif" font-size="10.00">/home/vilon_tao/gaia/sdk/include/gaia/system/Sensor.h</text>
</a>
</g>
<!-- Node12&#45;&gt;Node48 -->
<g id="edge106" class="edge"><title>Node12&#45;&gt;Node48</title>
<path fill="none" stroke="midnightblue" d="M6443.1,-184.639C5849.06,-182.817 3402.81,-173.274 2637,-138 2633.78,-137.852 2630.52,-137.689 2627.23,-137.512"/>
<polygon fill="midnightblue" stroke="midnightblue" points="6443.4,-188.14 6453.41,-184.671 6443.42,-181.14 6443.4,-188.14"/>
</g>
<!-- Node49 -->
<g id="node103" class="node"><title>Node49</title>
<a xlink:href="../../d0/dbc/_call_manager_8h.html" target="_top" xlink:title="/home/vilon_tao/gaia/sdk/include/gaia/telephony/CallManager.h">
<polygon fill="white" stroke="black" points="2645.5,-116.5 2645.5,-137.5 2936.5,-137.5 2936.5,-116.5 2645.5,-116.5"/>
<text text-anchor="middle" x="2791" y="-124.5" font-family="Helvetica,sans-Serif" font-size="10.00">/home/vilon_tao/gaia/sdk/include/gaia/telephony/CallManager.h</text>
</a>
</g>
<!-- Node12&#45;&gt;Node49 -->
<g id="edge108" class="edge"><title>Node12&#45;&gt;Node49</title>
<path fill="none" stroke="midnightblue" d="M6443.2,-184.331C5878.53,-181.285 3646.75,-167.581 2945,-138 2941.38,-137.848 2937.72,-137.681 2934.03,-137.501"/>
<polygon fill="midnightblue" stroke="midnightblue" points="6443.4,-187.832 6453.41,-184.386 6443.43,-180.832 6443.4,-187.832"/>
</g>
<!-- Node50 -->
<g id="node105" class="node"><title>Node50</title>
<a xlink:href="../../d7/d8e/_delegate_test_case_impl_8h.html" target="_top" xlink:title="/home/vilon_tao/gaia/sdk/include/gaia/testing/DelegateTestCaseImpl.h">
<polygon fill="white" stroke="red" points="2954,-116.5 2954,-137.5 3278,-137.5 3278,-116.5 2954,-116.5"/>
<text text-anchor="middle" x="3116" y="-124.5" font-family="Helvetica,sans-Serif" font-size="10.00">/home/vilon_tao/gaia/sdk/include/gaia/testing/DelegateTestCaseImpl.h</text>
</a>
</g>
<!-- Node12&#45;&gt;Node50 -->
<g id="edge110" class="edge"><title>Node12&#45;&gt;Node50</title>
<path fill="none" stroke="midnightblue" d="M6442.95,-184.002C5911.8,-179.821 3917.61,-162.776 3287,-138 3283.14,-137.848 3279.22,-137.683 3275.28,-137.507"/>
<polygon fill="midnightblue" stroke="midnightblue" points="6443.3,-187.505 6453.33,-184.083 6443.36,-180.505 6443.3,-187.505"/>
</g>
<!-- Node23&#45;&gt;Node24 -->
<g id="edge50" class="edge"><title>Node23&#45;&gt;Node24</title>
<path fill="none" stroke="midnightblue" d="M6734.07,-113.68C6698.3,-103.307 6649.34,-89.1078 6616.29,-79.5231"/>
<polygon fill="midnightblue" stroke="midnightblue" points="6733.2,-117.073 6743.78,-116.497 6735.15,-110.35 6733.2,-117.073"/>
</g>
<!-- Node23&#45;&gt;Node25 -->
<g id="edge52" class="edge"><title>Node23&#45;&gt;Node25</title>
<path fill="none" stroke="midnightblue" d="M6817.63,-113.009C6845.35,-102.702 6882.47,-88.903 6907.7,-79.5231"/>
<polygon fill="midnightblue" stroke="midnightblue" points="6816.4,-109.731 6808.25,-116.497 6818.84,-116.292 6816.4,-109.731"/>
</g>
<!-- Node25&#45;&gt;Node26 -->
<g id="edge54" class="edge"><title>Node25&#45;&gt;Node26</title>
<path fill="none" stroke="midnightblue" d="M6890.07,-55.6795C6854.3,-45.307 6805.34,-31.1078 6772.29,-21.5231"/>
<polygon fill="midnightblue" stroke="midnightblue" points="6889.2,-59.0728 6899.78,-58.4966 6891.15,-52.3498 6889.2,-59.0728"/>
</g>
<!-- Node28&#45;&gt;Node27 -->
<g id="edge60" class="edge"><title>Node28&#45;&gt;Node27</title>
<path fill="none" stroke="midnightblue" d="M7277.8,-52.2587C7291.28,-42.3641 7307.94,-30.1361 7319.6,-21.5707"/>
<polygon fill="midnightblue" stroke="midnightblue" points="7275.48,-49.6225 7269.49,-58.3619 7279.62,-55.2651 7275.48,-49.6225"/>
</g>
<!-- Node30&#45;&gt;Node28 -->
<g id="edge66" class="edge"><title>Node30&#45;&gt;Node28</title>
<path fill="none" stroke="midnightblue" d="M7134.35,-113.009C7162.61,-102.702 7200.44,-88.903 7226.15,-79.5231"/>
<polygon fill="midnightblue" stroke="midnightblue" points="7132.99,-109.782 7124.79,-116.497 7135.39,-116.358 7132.99,-109.782"/>
</g>
<!-- Node43&#45;&gt;Node36 -->
<g id="edge94" class="edge"><title>Node43&#45;&gt;Node36</title>
<path fill="none" stroke="midnightblue" d="M9095.77,-112.615C9071.44,-102.389 9039.3,-88.8796 9017.27,-79.6212"/>
<polygon fill="midnightblue" stroke="midnightblue" points="9094.43,-115.849 9105.01,-116.497 9097.15,-109.395 9094.43,-115.849"/>
</g>
<!-- Node43&#45;&gt;Node39 -->
<g id="edge96" class="edge"><title>Node43&#45;&gt;Node39</title>
<path fill="none" stroke="midnightblue" d="M9164.3,-112.479C9188.42,-102.269 9220.14,-88.8386 9241.91,-79.6212"/>
<polygon fill="midnightblue" stroke="midnightblue" points="9162.65,-109.375 9154.81,-116.497 9165.38,-115.821 9162.65,-109.375"/>
</g>
</g>
</svg>
