<?xml version="1.0" encoding="UTF-8" standalone="no"?>
<!DOCTYPE svg PUBLIC "-//W3C//DTD SVG 1.1//EN"
 "http://www.w3.org/Graphics/SVG/1.1/DTD/svg11.dtd">
<!-- Generated by graphviz version 2.26.3 (20100126.1600)
 -->
<!-- Title: G Pages: 1 -->
<svg width="661pt" height="204pt"
 viewBox="0.00 0.00 661.00 204.00" xmlns="http://www.w3.org/2000/svg" xmlns:xlink="http://www.w3.org/1999/xlink">
<g id="graph1" class="graph" transform="scale(1 1) rotate(0) translate(4 200)">
<title>G</title>
<polygon fill="white" stroke="white" points="-4,5 -4,-200 658,-200 658,5 -4,5"/>
<!-- Node1 -->
<g id="node1" class="node"><title>Node1</title>
<polygon fill="#bfbfbf" stroke="black" points="160,-174.5 160,-195.5 476,-195.5 476,-174.5 160,-174.5"/>
<text text-anchor="middle" x="318" y="-182.5" font-family="Helvetica,sans-Serif" font-size="10.00">/home/vilon_tao/gaia/sdk/include/gaia/ui/IFilterableListItemProvider.h</text>
</g>
<!-- Node2 -->
<g id="node3" class="node"><title>Node2</title>
<a xlink:href="../../d4/da1/_auto_complete_edit_widget_8h.html" target="_top" xlink:title="/home/vilon_tao/gaia/sdk/include/gaia/ui/AutoCompleteEditWidget.h">
<polygon fill="white" stroke="black" points="0,-116.5 0,-137.5 312,-137.5 312,-116.5 0,-116.5"/>
<text text-anchor="middle" x="156" y="-124.5" font-family="Helvetica,sans-Serif" font-size="10.00">/home/vilon_tao/gaia/sdk/include/gaia/ui/AutoCompleteEditWidget.h</text>
</a>
</g>
<!-- Node1&#45;&gt;Node2 -->
<g id="edge2" class="edge"><title>Node1&#45;&gt;Node2</title>
<path fill="none" stroke="midnightblue" d="M278.923,-171.009C250.134,-160.702 211.591,-146.903 185.392,-137.523"/>
<polygon fill="midnightblue" stroke="midnightblue" points="278.068,-174.421 288.663,-174.497 280.428,-167.831 278.068,-174.421"/>
</g>
<!-- Node3 -->
<g id="node5" class="node"><title>Node3</title>
<a xlink:href="../../d7/d78/_cursor_list_item_provider_8h.html" target="_top" xlink:title="/home/vilon_tao/gaia/sdk/include/gaia/ui/CursorListItemProvider.h">
<polygon fill="white" stroke="black" points="330,-116.5 330,-137.5 632,-137.5 632,-116.5 330,-116.5"/>
<text text-anchor="middle" x="481" y="-124.5" font-family="Helvetica,sans-Serif" font-size="10.00">/home/vilon_tao/gaia/sdk/include/gaia/ui/CursorListItemProvider.h</text>
</a>
</g>
<!-- Node1&#45;&gt;Node3 -->
<g id="edge4" class="edge"><title>Node1&#45;&gt;Node3</title>
<path fill="none" stroke="midnightblue" d="M357.318,-171.009C386.285,-160.702 425.066,-146.903 451.427,-137.523"/>
<polygon fill="midnightblue" stroke="midnightblue" points="355.766,-167.847 347.518,-174.497 358.113,-174.442 355.766,-167.847"/>
</g>
<!-- Node4 -->
<g id="node7" class="node"><title>Node4</title>
<a xlink:href="../../db/d95/_resource_cursor_list_item_provider_8h.html" target="_top" xlink:title="/home/vilon_tao/gaia/sdk/include/gaia/ui/ResourceCursorListItemProvider.h">
<polygon fill="white" stroke="black" points="309,-58.5 309,-79.5 653,-79.5 653,-58.5 309,-58.5"/>
<text text-anchor="middle" x="481" y="-66.5" font-family="Helvetica,sans-Serif" font-size="10.00">/home/vilon_tao/gaia/sdk/include/gaia/ui/ResourceCursorListItemProvider.h</text>
</a>
</g>
<!-- Node3&#45;&gt;Node4 -->
<g id="edge6" class="edge"><title>Node3&#45;&gt;Node4</title>
<path fill="none" stroke="midnightblue" d="M481,-106.191C481,-97.1684 481,-86.9941 481,-79.5707"/>
<polygon fill="midnightblue" stroke="midnightblue" points="477.5,-106.362 481,-116.362 484.5,-106.362 477.5,-106.362"/>
</g>
<!-- Node5 -->
<g id="node9" class="node"><title>Node5</title>
<a xlink:href="../../db/daf/_simple_cursor_list_item_provider_8h.html" target="_top" xlink:title="/home/vilon_tao/gaia/sdk/include/gaia/ui/SimpleCursorListItemProvider.h">
<polygon fill="white" stroke="black" points="315,-0.5 315,-21.5 647,-21.5 647,-0.5 315,-0.5"/>
<text text-anchor="middle" x="481" y="-8.5" font-family="Helvetica,sans-Serif" font-size="10.00">/home/vilon_tao/gaia/sdk/include/gaia/ui/SimpleCursorListItemProvider.h</text>
</a>
</g>
<!-- Node4&#45;&gt;Node5 -->
<g id="edge8" class="edge"><title>Node4&#45;&gt;Node5</title>
<path fill="none" stroke="midnightblue" d="M481,-48.1906C481,-39.1684 481,-28.9941 481,-21.5707"/>
<polygon fill="midnightblue" stroke="midnightblue" points="477.5,-48.3619 481,-58.3619 484.5,-48.3619 477.5,-48.3619"/>
</g>
</g>
</svg>
