<?xml version="1.0" encoding="UTF-8" standalone="no"?>
<!DOCTYPE svg PUBLIC "-//W3C//DTD SVG 1.1//EN"
 "http://www.w3.org/Graphics/SVG/1.1/DTD/svg11.dtd">
<!-- Generated by graphviz version 2.26.3 (20100126.1600)
 -->
<!-- Title: G Pages: 1 -->
<svg width="2600pt" height="262pt"
 viewBox="0.00 0.00 2600.00 262.00" xmlns="http://www.w3.org/2000/svg" xmlns:xlink="http://www.w3.org/1999/xlink">
<g id="graph1" class="graph" transform="scale(1 1) rotate(0) translate(4 258)">
<title>G</title>
<polygon fill="white" stroke="white" points="-4,5 -4,-258 2597,-258 2597,5 -4,5"/>
<!-- Node1 -->
<g id="node1" class="node"><title>Node1</title>
<polygon fill="#bfbfbf" stroke="black" points="955,-232.5 955,-253.5 1245,-253.5 1245,-232.5 955,-232.5"/>
<text text-anchor="middle" x="1100" y="-240.5" font-family="Helvetica,sans-Serif" font-size="10.00">/home/vilon_tao/gaia/sdk/include/gaia/core/ComponentName.h</text>
</g>
<!-- Node2 -->
<g id="node3" class="node"><title>Node2</title>
<a xlink:href="../../de/dc3/_delegate_connection_8h.html" target="_top" xlink:title="/home/vilon_tao/gaia/sdk/include/gaia/core/DelegateConnection.h">
<polygon fill="white" stroke="black" points="806,-174.5 806,-195.5 1108,-195.5 1108,-174.5 806,-174.5"/>
<text text-anchor="middle" x="957" y="-182.5" font-family="Helvetica,sans-Serif" font-size="10.00">/home/vilon_tao/gaia/sdk/include/gaia/core/DelegateConnection.h</text>
</a>
</g>
<!-- Node1&#45;&gt;Node2 -->
<g id="edge2" class="edge"><title>Node1&#45;&gt;Node2</title>
<path fill="none" stroke="midnightblue" d="M1064.53,-228.615C1039.32,-218.389 1006.01,-204.88 983.187,-195.621"/>
<polygon fill="midnightblue" stroke="midnightblue" points="1063.52,-231.981 1074.1,-232.497 1066.15,-225.495 1063.52,-231.981"/>
</g>
<!-- Node3 -->
<g id="node5" class="node"><title>Node3</title>
<a xlink:href="../../db/ded/_page_8h.html" target="_top" xlink:title="/home/vilon_tao/gaia/sdk/include/gaia/core/Page.h">
<polygon fill="white" stroke="black" points="1126,-174.5 1126,-195.5 1362,-195.5 1362,-174.5 1126,-174.5"/>
<text text-anchor="middle" x="1244" y="-182.5" font-family="Helvetica,sans-Serif" font-size="10.00">/home/vilon_tao/gaia/sdk/include/gaia/core/Page.h</text>
</a>
</g>
<!-- Node1&#45;&gt;Node3 -->
<g id="edge4" class="edge"><title>Node1&#45;&gt;Node3</title>
<path fill="none" stroke="midnightblue" d="M1135.38,-228.751C1160.81,-218.509 1194.54,-204.921 1217.63,-195.621"/>
<polygon fill="midnightblue" stroke="midnightblue" points="1134.05,-225.514 1126.08,-232.497 1136.66,-232.007 1134.05,-225.514"/>
</g>
<!-- Node4 -->
<g id="node7" class="node"><title>Node4</title>
<a xlink:href="../../d9/d48/_account_authenticator_page_8h.html" target="_top" xlink:title="/home/vilon_tao/gaia/sdk/include/gaia/accounts/AccountAuthenticatorPage.h">
<polygon fill="white" stroke="black" points="0,-116.5 0,-137.5 350,-137.5 350,-116.5 0,-116.5"/>
<text text-anchor="middle" x="175" y="-124.5" font-family="Helvetica,sans-Serif" font-size="10.00">/home/vilon_tao/gaia/sdk/include/gaia/accounts/AccountAuthenticatorPage.h</text>
</a>
</g>
<!-- Node3&#45;&gt;Node4 -->
<g id="edge6" class="edge"><title>Node3&#45;&gt;Node4</title>
<path fill="none" stroke="midnightblue" d="M1115.24,-173.903C780.953,-151.624 695.149,-155.552 364,-138 359.405,-137.756 354.747,-137.507 350.047,-137.252"/>
<polygon fill="midnightblue" stroke="midnightblue" points="1115.5,-177.428 1125.71,-174.604 1115.96,-170.443 1115.5,-177.428"/>
</g>
<!-- Node5 -->
<g id="node9" class="node"><title>Node5</title>
<a xlink:href="../../d0/d54/_instrumentation_test_case_8h.html" target="_top" xlink:title="/home/vilon_tao/gaia/sdk/include/gaia/testing/InstrumentationTestCase.h">
<polygon fill="white" stroke="black" points="724,-116.5 724,-137.5 1058,-137.5 1058,-116.5 724,-116.5"/>
<text text-anchor="middle" x="891" y="-124.5" font-family="Helvetica,sans-Serif" font-size="10.00">/home/vilon_tao/gaia/sdk/include/gaia/testing/InstrumentationTestCase.h</text>
</a>
</g>
<!-- Node3&#45;&gt;Node5 -->
<g id="edge8" class="edge"><title>Node3&#45;&gt;Node5</title>
<path fill="none" stroke="midnightblue" d="M1170.11,-172.859C1106.49,-162.406 1015.62,-147.476 955.046,-137.523"/>
<polygon fill="midnightblue" stroke="midnightblue" points="1169.64,-176.329 1180.07,-174.497 1170.77,-169.422 1169.64,-176.329"/>
</g>
<!-- Node7 -->
<g id="node13" class="node"><title>Node7</title>
<a xlink:href="../../d2/d74/_page_instrumentation_test_case_8h.html" target="_top" xlink:title="/home/vilon_tao/gaia/sdk/include/gaia/testing/PageInstrumentationTestCase.h">
<polygon fill="white" stroke="black" points="380,-0.5 380,-21.5 736,-21.5 736,-0.5 380,-0.5"/>
<text text-anchor="middle" x="558" y="-8.5" font-family="Helvetica,sans-Serif" font-size="10.00">/home/vilon_tao/gaia/sdk/include/gaia/testing/PageInstrumentationTestCase.h</text>
</a>
</g>
<!-- Node3&#45;&gt;Node7 -->
<g id="edge18" class="edge"><title>Node3&#45;&gt;Node7</title>
<path fill="none" stroke="midnightblue" d="M1115.71,-173.985C938.864,-162.401 495.993,-203.509 397,-80 371.61,-48.3218 416.484,-30.9187 465.244,-21.517"/>
<polygon fill="midnightblue" stroke="midnightblue" points="1115.47,-177.477 1125.7,-174.721 1115.98,-170.496 1115.47,-177.477"/>
</g>
<!-- Node8 -->
<g id="node15" class="node"><title>Node8</title>
<a xlink:href="../../db/deb/_page_unit_test_case_8h.html" target="_top" xlink:title="/home/vilon_tao/gaia/sdk/include/gaia/testing/PageUnitTestCase.h">
<polygon fill="white" stroke="black" points="846.5,-0.5 846.5,-21.5 1153.5,-21.5 1153.5,-0.5 846.5,-0.5"/>
<text text-anchor="middle" x="1000" y="-8.5" font-family="Helvetica,sans-Serif" font-size="10.00">/home/vilon_tao/gaia/sdk/include/gaia/testing/PageUnitTestCase.h</text>
</a>
</g>
<!-- Node3&#45;&gt;Node8 -->
<g id="edge20" class="edge"><title>Node3&#45;&gt;Node8</title>
<path fill="none" stroke="midnightblue" d="M1169.63,-171.679C1146.86,-164.683 1123.07,-154.068 1105,-138 1075.58,-111.847 1092.4,-88.0744 1067,-58 1054.07,-42.6934 1035.06,-29.99 1020.59,-21.6657"/>
<polygon fill="midnightblue" stroke="midnightblue" points="1168.74,-175.062 1179.31,-174.46 1170.67,-168.334 1168.74,-175.062"/>
</g>
<!-- Node9 -->
<g id="node17" class="node"><title>Node9</title>
<a xlink:href="../../d2/dc6/_single_launch_page_test_case_8h.html" target="_top" xlink:title="/home/vilon_tao/gaia/sdk/include/gaia/testing/SingleLaunchPageTestCase.h">
<polygon fill="white" stroke="black" points="405.5,-58.5 405.5,-79.5 752.5,-79.5 752.5,-58.5 405.5,-58.5"/>
<text text-anchor="middle" x="579" y="-66.5" font-family="Helvetica,sans-Serif" font-size="10.00">/home/vilon_tao/gaia/sdk/include/gaia/testing/SingleLaunchPageTestCase.h</text>
</a>
</g>
<!-- Node3&#45;&gt;Node9 -->
<g id="edge22" class="edge"><title>Node3&#45;&gt;Node9</title>
<path fill="none" stroke="midnightblue" d="M1115.84,-173.761C960.052,-160.078 717.405,-138.689 715,-138 668.678,-124.727 619.481,-95.4516 594.91,-79.636"/>
<polygon fill="midnightblue" stroke="midnightblue" points="1115.71,-177.263 1125.98,-174.651 1116.32,-170.289 1115.71,-177.263"/>
</g>
<!-- Node10 -->
<g id="node22" class="node"><title>Node10</title>
<a xlink:href="../../d3/d9b/_combo_picker_8h.html" target="_top" xlink:title="/home/vilon_tao/gaia/sdk/include/gaia/ui/ComboPicker.h">
<polygon fill="white" stroke="black" points="1113.5,-116.5 1113.5,-137.5 1374.5,-137.5 1374.5,-116.5 1113.5,-116.5"/>
<text text-anchor="middle" x="1244" y="-124.5" font-family="Helvetica,sans-Serif" font-size="10.00">/home/vilon_tao/gaia/sdk/include/gaia/ui/ComboPicker.h</text>
</a>
</g>
<!-- Node3&#45;&gt;Node10 -->
<g id="edge24" class="edge"><title>Node3&#45;&gt;Node10</title>
<path fill="none" stroke="midnightblue" d="M1244,-164.191C1244,-155.168 1244,-144.994 1244,-137.571"/>
<polygon fill="midnightblue" stroke="midnightblue" points="1240.5,-164.362 1244,-174.362 1247.5,-164.362 1240.5,-164.362"/>
</g>
<!-- Node11 -->
<g id="node24" class="node"><title>Node11</title>
<a xlink:href="../../d4/d1e/_hint_box_8h.html" target="_top" xlink:title="/home/vilon_tao/gaia/sdk/include/gaia/ui/HintBox.h">
<polygon fill="white" stroke="black" points="1391.5,-116.5 1391.5,-137.5 1628.5,-137.5 1628.5,-116.5 1391.5,-116.5"/>
<text text-anchor="middle" x="1510" y="-124.5" font-family="Helvetica,sans-Serif" font-size="10.00">/home/vilon_tao/gaia/sdk/include/gaia/ui/HintBox.h</text>
</a>
</g>
<!-- Node3&#45;&gt;Node11 -->
<g id="edge26" class="edge"><title>Node3&#45;&gt;Node11</title>
<path fill="none" stroke="midnightblue" d="M1302.07,-172.339C1349.87,-161.916 1416.84,-147.313 1461.74,-137.523"/>
<polygon fill="midnightblue" stroke="midnightblue" points="1301.2,-168.947 1292.17,-174.497 1302.69,-175.786 1301.2,-168.947"/>
</g>
<!-- Node12 -->
<g id="node26" class="node"><title>Node12</title>
<a xlink:href="../../d3/dc6/_preference_page_8h.html" target="_top" xlink:title="/home/vilon_tao/gaia/sdk/include/gaia/ui/preference/PreferencePage.h">
<polygon fill="white" stroke="black" points="1646,-116.5 1646,-137.5 1966,-137.5 1966,-116.5 1646,-116.5"/>
<text text-anchor="middle" x="1806" y="-124.5" font-family="Helvetica,sans-Serif" font-size="10.00">/home/vilon_tao/gaia/sdk/include/gaia/ui/preference/PreferencePage.h</text>
</a>
</g>
<!-- Node3&#45;&gt;Node12 -->
<g id="edge28" class="edge"><title>Node3&#45;&gt;Node12</title>
<path fill="none" stroke="midnightblue" d="M1355.75,-173.467C1457.25,-162.992 1605.71,-147.671 1704.04,-137.523"/>
<polygon fill="midnightblue" stroke="midnightblue" points="1355.36,-169.988 1345.77,-174.497 1356.08,-176.951 1355.36,-169.988"/>
</g>
<!-- Node13 -->
<g id="node28" class="node"><title>Node13</title>
<a xlink:href="../../d5/db8/_search_edit_widget_8h.html" target="_top" xlink:title="/home/vilon_tao/gaia/sdk/include/gaia/ui/SearchEditWidget.h">
<polygon fill="white" stroke="black" points="1983.5,-116.5 1983.5,-137.5 2264.5,-137.5 2264.5,-116.5 1983.5,-116.5"/>
<text text-anchor="middle" x="2124" y="-124.5" font-family="Helvetica,sans-Serif" font-size="10.00">/home/vilon_tao/gaia/sdk/include/gaia/ui/SearchEditWidget.h</text>
</a>
</g>
<!-- Node3&#45;&gt;Node13 -->
<g id="edge30" class="edge"><title>Node3&#45;&gt;Node13</title>
<path fill="none" stroke="midnightblue" d="M1372.42,-177.113C1518.43,-168.059 1763.91,-152.578 1975,-138 1977.72,-137.812 1980.46,-137.622 1983.23,-137.428"/>
<polygon fill="midnightblue" stroke="midnightblue" points="1371.85,-173.641 1362.09,-177.753 1372.28,-180.628 1371.85,-173.641"/>
</g>
<!-- Node14 -->
<g id="node30" class="node"><title>Node14</title>
<a xlink:href="../../d5/d80/_widget_animator_8h.html" target="_top" xlink:title="/home/vilon_tao/gaia/sdk/include/gaia/ui/WidgetAnimator.h">
<polygon fill="white" stroke="black" points="2320,-116.5 2320,-137.5 2592,-137.5 2592,-116.5 2320,-116.5"/>
<text text-anchor="middle" x="2456" y="-124.5" font-family="Helvetica,sans-Serif" font-size="10.00">/home/vilon_tao/gaia/sdk/include/gaia/ui/WidgetAnimator.h</text>
</a>
</g>
<!-- Node3&#45;&gt;Node14 -->
<g id="edge32" class="edge"><title>Node3&#45;&gt;Node14</title>
<path fill="none" stroke="midnightblue" d="M1372.56,-180.513C1572.34,-173.269 1969.4,-157.786 2306,-138 2310.56,-137.732 2315.2,-137.449 2319.88,-137.155"/>
<polygon fill="midnightblue" stroke="midnightblue" points="1372.18,-177.024 1362.32,-180.884 1372.44,-184.02 1372.18,-177.024"/>
</g>
<!-- Node15 -->
<g id="node32" class="node"><title>Node15</title>
<a xlink:href="../../dd/de8/_widget_switcher_8h.html" target="_top" xlink:title="/home/vilon_tao/gaia/sdk/include/gaia/ui/WidgetSwitcher.h">
<polygon fill="white" stroke="black" points="2238.5,-58.5 2238.5,-79.5 2509.5,-79.5 2509.5,-58.5 2238.5,-58.5"/>
<text text-anchor="middle" x="2374" y="-66.5" font-family="Helvetica,sans-Serif" font-size="10.00">/home/vilon_tao/gaia/sdk/include/gaia/ui/WidgetSwitcher.h</text>
</a>
</g>
<!-- Node3&#45;&gt;Node15 -->
<g id="edge36" class="edge"><title>Node3&#45;&gt;Node15</title>
<path fill="none" stroke="midnightblue" d="M1372.39,-183.059C1629.42,-178.602 2189.78,-165.808 2273,-138 2282.57,-134.803 2333.57,-98.3435 2359.23,-79.7565"/>
<polygon fill="midnightblue" stroke="midnightblue" points="1372.19,-179.562 1362.25,-183.233 1372.31,-186.561 1372.19,-179.562"/>
</g>
<!-- Node6 -->
<g id="node11" class="node"><title>Node6</title>
<a xlink:href="../../d5/db9/_page_test_case_8h.html" target="_top" xlink:title="/home/vilon_tao/gaia/sdk/include/gaia/testing/PageTestCase.h">
<polygon fill="white" stroke="black" points="769.5,-58.5 769.5,-79.5 1058.5,-79.5 1058.5,-58.5 769.5,-58.5"/>
<text text-anchor="middle" x="914" y="-66.5" font-family="Helvetica,sans-Serif" font-size="10.00">/home/vilon_tao/gaia/sdk/include/gaia/testing/PageTestCase.h</text>
</a>
</g>
<!-- Node5&#45;&gt;Node6 -->
<g id="edge10" class="edge"><title>Node5&#45;&gt;Node6</title>
<path fill="none" stroke="midnightblue" d="M899.017,-106.784C902.652,-97.617 906.8,-87.1572 909.808,-79.5707"/>
<polygon fill="midnightblue" stroke="midnightblue" points="895.651,-105.776 895.219,-116.362 902.158,-108.356 895.651,-105.776"/>
</g>
<!-- Node5&#45;&gt;Node9 -->
<g id="edge16" class="edge"><title>Node5&#45;&gt;Node9</title>
<path fill="none" stroke="midnightblue" d="M824.645,-114.665C768.47,-104.222 688.818,-89.415 635.607,-79.5231"/>
<polygon fill="midnightblue" stroke="midnightblue" points="824.028,-118.11 834.499,-116.497 825.307,-111.228 824.028,-118.11"/>
</g>
<!-- Node6&#45;&gt;Node7 -->
<g id="edge12" class="edge"><title>Node6&#45;&gt;Node7</title>
<path fill="none" stroke="midnightblue" d="M839.479,-56.8589C775.32,-46.4061 683.683,-31.4764 622.59,-21.5231"/>
<polygon fill="midnightblue" stroke="midnightblue" points="839.098,-60.343 849.531,-58.4966 840.224,-53.4341 839.098,-60.343"/>
</g>
<!-- Node6&#45;&gt;Node8 -->
<g id="edge14" class="edge"><title>Node6&#45;&gt;Node8</title>
<path fill="none" stroke="midnightblue" d="M938.405,-52.5407C953.149,-42.5973 971.505,-30.2177 984.326,-21.5707"/>
<polygon fill="midnightblue" stroke="midnightblue" points="936.107,-49.8687 929.774,-58.3619 940.021,-55.6722 936.107,-49.8687"/>
</g>
<!-- Node14&#45;&gt;Node15 -->
<g id="edge34" class="edge"><title>Node14&#45;&gt;Node15</title>
<path fill="none" stroke="midnightblue" d="M2432.73,-110.541C2418.67,-100.597 2401.17,-88.2177 2388.94,-79.5707"/>
<polygon fill="midnightblue" stroke="midnightblue" points="2430.77,-113.445 2440.96,-116.362 2434.82,-107.73 2430.77,-113.445"/>
</g>
</g>
</svg>
