<?xml version="1.0" encoding="UTF-8" standalone="no"?>
<!DOCTYPE svg PUBLIC "-//W3C//DTD SVG 1.1//EN"
 "http://www.w3.org/Graphics/SVG/1.1/DTD/svg11.dtd">
<!-- Generated by graphviz version 2.26.3 (20100126.1600)
 -->
<!-- Title: G Pages: 1 -->
<svg width="1537pt" height="378pt"
 viewBox="0.00 0.00 1537.00 378.00" xmlns="http://www.w3.org/2000/svg" xmlns:xlink="http://www.w3.org/1999/xlink">
<g id="graph1" class="graph" transform="scale(1 1) rotate(0) translate(4 374)">
<title>G</title>
<polygon fill="white" stroke="white" points="-4,5 -4,-374 1534,-374 1534,5 -4,5"/>
<!-- Node1 -->
<g id="node1" class="node"><title>Node1</title>
<polygon fill="#bfbfbf" stroke="black" points="210.5,-348.5 210.5,-369.5 489.5,-369.5 489.5,-348.5 210.5,-348.5"/>
<text text-anchor="middle" x="350" y="-356.5" font-family="Helvetica,sans-Serif" font-size="10.00">/home/vilon_tao/gaia/sdk/include/gaia/webkit/WebSettings.h</text>
</g>
<!-- Node2 -->
<g id="node3" class="node"><title>Node2</title>
<a xlink:href="../../d4/d98/_context_8h.html" target="_top" xlink:title="gaia/core/Context.h">
<polygon fill="white" stroke="black" points="57,-174.5 57,-195.5 159,-195.5 159,-174.5 57,-174.5"/>
<text text-anchor="middle" x="108" y="-182.5" font-family="Helvetica,sans-Serif" font-size="10.00">gaia/core/Context.h</text>
</a>
</g>
<!-- Node1&#45;&gt;Node2 -->
<g id="edge2" class="edge"><title>Node1&#45;&gt;Node2</title>
<path fill="none" stroke="midnightblue" d="M299.149,-348.431C272.201,-341.17 239.496,-329.593 214,-312 171.499,-282.672 136.41,-231.893 119.287,-204.262"/>
<polygon fill="midnightblue" stroke="midnightblue" points="122.171,-202.268 113.997,-195.527 116.183,-205.894 122.171,-202.268"/>
</g>
<!-- Node4 -->
<g id="node7" class="node"><title>Node4</title>
<a xlink:href="../../d0/d18/_handler_8h.html" target="_top" xlink:title="gaia/core/Handler.h">
<polygon fill="white" stroke="black" points="-0.5,-290.5 -0.5,-311.5 100.5,-311.5 100.5,-290.5 -0.5,-290.5"/>
<text text-anchor="middle" x="50" y="-298.5" font-family="Helvetica,sans-Serif" font-size="10.00">gaia/core/Handler.h</text>
</a>
</g>
<!-- Node1&#45;&gt;Node4 -->
<g id="edge6" class="edge"><title>Node1&#45;&gt;Node4</title>
<path fill="none" stroke="midnightblue" d="M295.672,-348.497C243.534,-338.417 164.929,-323.22 110.744,-312.744"/>
<polygon fill="midnightblue" stroke="midnightblue" points="111.405,-309.307 100.923,-310.845 110.077,-316.18 111.405,-309.307"/>
</g>
<!-- Node5 -->
<g id="node10" class="node"><title>Node5</title>
<a xlink:href="../../db/db5/_string_8h.html" target="_top" xlink:title="gaia/base/String.h">
<polygon fill="white" stroke="black" points="549.5,-116.5 549.5,-137.5 644.5,-137.5 644.5,-116.5 549.5,-116.5"/>
<text text-anchor="middle" x="597" y="-124.5" font-family="Helvetica,sans-Serif" font-size="10.00">gaia/base/String.h</text>
</a>
</g>
<!-- Node1&#45;&gt;Node5 -->
<g id="edge10" class="edge"><title>Node1&#45;&gt;Node5</title>
<path fill="none" stroke="midnightblue" d="M351.004,-348.361C354.57,-316.747 369.502,-222.554 424,-174 441.139,-158.73 495.966,-145.453 539.358,-136.941"/>
<polygon fill="midnightblue" stroke="midnightblue" points="540.105,-140.362 549.267,-135.041 538.786,-133.487 540.105,-140.362"/>
</g>
<!-- Node7 -->
<g id="node14" class="node"><title>Node7</title>
<polygon fill="white" stroke="#bfbfbf" points="1382.5,-0.5 1382.5,-21.5 1431.5,-21.5 1431.5,-0.5 1382.5,-0.5"/>
<text text-anchor="middle" x="1407" y="-8.5" font-family="Helvetica,sans-Serif" font-size="10.00">stdint.h</text>
</g>
<!-- Node1&#45;&gt;Node7 -->
<g id="edge26" class="edge"><title>Node1&#45;&gt;Node7</title>
<path fill="none" stroke="midnightblue" d="M489.585,-352.408C801.729,-336.741 1529,-294.692 1529,-243 1529,-243 1529,-243 1529,-127 1529,-78.1711 1477.04,-43.6698 1440.94,-25.592"/>
<polygon fill="midnightblue" stroke="midnightblue" points="1442.22,-22.3233 1431.69,-21.1405 1439.18,-28.6309 1442.22,-22.3233"/>
</g>
<!-- Node9 -->
<g id="node20" class="node"><title>Node9</title>
<a xlink:href="../../db/db6/_message_8h.html" target="_top" xlink:title="gaia/core/Message.h">
<polygon fill="white" stroke="black" points="222.5,-290.5 222.5,-311.5 329.5,-311.5 329.5,-290.5 222.5,-290.5"/>
<text text-anchor="middle" x="276" y="-298.5" font-family="Helvetica,sans-Serif" font-size="10.00">gaia/core/Message.h</text>
</a>
</g>
<!-- Node1&#45;&gt;Node9 -->
<g id="edge22" class="edge"><title>Node1&#45;&gt;Node9</title>
<path fill="none" stroke="midnightblue" d="M336.427,-348.362C325.579,-339.859 310.166,-327.779 297.621,-317.947"/>
<polygon fill="midnightblue" stroke="midnightblue" points="299.516,-314.985 289.487,-311.571 295.198,-320.494 299.516,-314.985"/>
</g>
<!-- Node10 -->
<g id="node24" class="node"><title>Node10</title>
<a xlink:href="../../d6/d10/_web_view_8h.html" target="_top" xlink:title="gaia/webkit/WebView.h">
<polygon fill="white" stroke="black" points="724.5,-290.5 724.5,-311.5 843.5,-311.5 843.5,-290.5 724.5,-290.5"/>
<text text-anchor="middle" x="784" y="-298.5" font-family="Helvetica,sans-Serif" font-size="10.00">gaia/webkit/WebView.h</text>
</a>
</g>
<!-- Node1&#45;&gt;Node10 -->
<g id="edge28" class="edge"><title>Node1&#45;&gt;Node10</title>
<path fill="none" stroke="midnightblue" d="M428.594,-348.497C510.065,-337.609 636.207,-320.751 714.25,-310.321"/>
<polygon fill="midnightblue" stroke="midnightblue" points="715.014,-313.751 724.462,-308.957 714.087,-306.812 715.014,-313.751"/>
</g>
<!-- Node3 -->
<g id="node5" class="node"><title>Node3</title>
<polygon fill="white" stroke="#bfbfbf" points="435,-0.5 435,-21.5 503,-21.5 503,-0.5 435,-0.5"/>
<text text-anchor="middle" x="469" y="-8.5" font-family="Helvetica,sans-Serif" font-size="10.00">sys/types.h</text>
</g>
<!-- Node2&#45;&gt;Node3 -->
<g id="edge4" class="edge"><title>Node2&#45;&gt;Node3</title>
<path fill="none" stroke="midnightblue" d="M106.326,-174.241C103.175,-149.661 99.3487,-89.1142 132,-58 152.881,-38.1016 338.057,-21.2084 424.681,-14.317"/>
<polygon fill="midnightblue" stroke="midnightblue" points="425.044,-17.7994 434.739,-13.5267 424.496,-10.8209 425.044,-17.7994"/>
</g>
<!-- Node4&#45;&gt;Node3 -->
<g id="edge8" class="edge"><title>Node4&#45;&gt;Node3</title>
<path fill="none" stroke="midnightblue" d="M46.7188,-290.243C40.8125,-269.898 29,-224.295 29,-185 29,-185 29,-185 29,-127 29,-79.0288 68.0473,-77.2196 112,-58 167.271,-33.831 342.106,-19.3911 424.816,-13.7474"/>
<polygon fill="midnightblue" stroke="midnightblue" points="425.163,-17.2321 434.906,-13.0714 424.695,-10.2478 425.163,-17.2321"/>
</g>
<!-- Node5&#45;&gt;Node3 -->
<g id="edge20" class="edge"><title>Node5&#45;&gt;Node3</title>
<path fill="none" stroke="midnightblue" d="M577.827,-116.419C562.883,-107.691 542.046,-94.4336 526,-80 509.163,-64.8548 493.022,-44.5891 482.241,-29.9427"/>
<polygon fill="midnightblue" stroke="midnightblue" points="484.949,-27.7132 476.264,-21.6454 479.269,-31.805 484.949,-27.7132"/>
</g>
<!-- Node6 -->
<g id="node12" class="node"><title>Node6</title>
<a xlink:href="../../d7/d97/_char_sequence_8h.html" target="_top" xlink:title="gaia/base/CharSequence.h">
<polygon fill="white" stroke="black" points="743,-58.5 743,-79.5 877,-79.5 877,-58.5 743,-58.5"/>
<text text-anchor="middle" x="810" y="-66.5" font-family="Helvetica,sans-Serif" font-size="10.00">gaia/base/CharSequence.h</text>
</a>
</g>
<!-- Node5&#45;&gt;Node6 -->
<g id="edge12" class="edge"><title>Node5&#45;&gt;Node6</title>
<path fill="none" stroke="midnightblue" d="M635.573,-116.497C670.899,-106.877 723.338,-92.5981 761.491,-82.209"/>
<polygon fill="midnightblue" stroke="midnightblue" points="762.626,-85.5275 771.355,-79.5231 760.787,-78.7734 762.626,-85.5275"/>
</g>
<!-- Node8 -->
<g id="node16" class="node"><title>Node8</title>
<a xlink:href="../../d6/d83/_hash_func_8h.html" target="_top" xlink:title="gaia/base/HashFunc.h">
<polygon fill="white" stroke="black" points="534.5,-58.5 534.5,-79.5 649.5,-79.5 649.5,-58.5 534.5,-58.5"/>
<text text-anchor="middle" x="592" y="-66.5" font-family="Helvetica,sans-Serif" font-size="10.00">gaia/base/HashFunc.h</text>
</a>
</g>
<!-- Node5&#45;&gt;Node8 -->
<g id="edge16" class="edge"><title>Node5&#45;&gt;Node8</title>
<path fill="none" stroke="midnightblue" d="M596.083,-116.362C595.442,-108.922 594.564,-98.7427 593.787,-89.7276"/>
<polygon fill="midnightblue" stroke="midnightblue" points="597.257,-89.2331 592.911,-79.5707 590.283,-89.8343 597.257,-89.2331"/>
</g>
<!-- Node6&#45;&gt;Node7 -->
<g id="edge14" class="edge"><title>Node6&#45;&gt;Node7</title>
<path fill="none" stroke="midnightblue" d="M877.111,-59.0869C880.113,-58.7064 883.087,-58.342 886,-58 1068.73,-36.5496 1288.52,-19.6157 1372.29,-13.4831"/>
<polygon fill="midnightblue" stroke="midnightblue" points="1372.55,-16.9729 1382.27,-12.7559 1372.05,-9.99136 1372.55,-16.9729"/>
</g>
<!-- Node8&#45;&gt;Node3 -->
<g id="edge18" class="edge"><title>Node8&#45;&gt;Node3</title>
<path fill="none" stroke="midnightblue" d="M569.726,-58.4966C550.428,-49.397 522.287,-36.1273 500.652,-25.9253"/>
<polygon fill="midnightblue" stroke="midnightblue" points="502.062,-22.7206 491.524,-21.6212 499.076,-29.052 502.062,-22.7206"/>
</g>
<!-- Node9&#45;&gt;Node3 -->
<g id="edge24" class="edge"><title>Node9&#45;&gt;Node3</title>
<path fill="none" stroke="midnightblue" d="M266.139,-290.331C234.934,-255.986 141.742,-148.639 165,-116 195.778,-72.8069 348.282,-35.8981 424.903,-19.732"/>
<polygon fill="midnightblue" stroke="midnightblue" points="425.671,-23.1473 434.747,-17.6813 424.243,-16.2944 425.671,-23.1473"/>
</g>
<!-- Node10&#45;&gt;Node5 -->
<g id="edge58" class="edge"><title>Node10&#45;&gt;Node5</title>
<path fill="none" stroke="midnightblue" d="M724.4,-291.532C697.647,-284.78 667.186,-273.326 645,-254 613.462,-226.528 602.583,-176.123 598.876,-147.776"/>
<polygon fill="midnightblue" stroke="midnightblue" points="602.345,-147.303 597.748,-137.758 595.389,-148.087 602.345,-147.303"/>
</g>
<!-- Node11 -->
<g id="node26" class="node"><title>Node11</title>
<a xlink:href="../../df/d94/_i_focus_change_listener_8h.html" target="_top" xlink:title="gaia/core/vision/IFocusChangeListener.h">
<polygon fill="white" stroke="black" points="1035,-232.5 1035,-253.5 1229,-253.5 1229,-232.5 1035,-232.5"/>
<text text-anchor="middle" x="1132" y="-240.5" font-family="Helvetica,sans-Serif" font-size="10.00">gaia/core/vision/IFocusChangeListener.h</text>
</a>
</g>
<!-- Node10&#45;&gt;Node11 -->
<g id="edge30" class="edge"><title>Node10&#45;&gt;Node11</title>
<path fill="none" stroke="midnightblue" d="M843.823,-291.029C903.405,-281.099 994.966,-265.839 1058.84,-255.193"/>
<polygon fill="midnightblue" stroke="midnightblue" points="1059.56,-258.622 1068.85,-253.526 1058.41,-251.717 1059.56,-258.622"/>
</g>
<!-- Node12 -->
<g id="node28" class="node"><title>Node12</title>
<a xlink:href="../../d7/dba/_i_hierarchy_change_listener_8h.html" target="_top" xlink:title="gaia/core/vision/IHierarchyChangeListener.h">
<polygon fill="white" stroke="black" points="1246.5,-232.5 1246.5,-253.5 1455.5,-253.5 1455.5,-232.5 1246.5,-232.5"/>
<text text-anchor="middle" x="1351" y="-240.5" font-family="Helvetica,sans-Serif" font-size="10.00">gaia/core/vision/IHierarchyChangeListener.h</text>
</a>
</g>
<!-- Node10&#45;&gt;Node12 -->
<g id="edge32" class="edge"><title>Node10&#45;&gt;Node12</title>
<path fill="none" stroke="midnightblue" d="M843.607,-294.903C936.988,-285.35 1119.35,-266.697 1238.11,-254.548"/>
<polygon fill="midnightblue" stroke="midnightblue" points="1238.73,-258.002 1248.33,-253.503 1238.02,-251.039 1238.73,-258.002"/>
</g>
<!-- Node13 -->
<g id="node30" class="node"><title>Node13</title>
<a xlink:href="../../db/df1/_absolute_controller_8h.html" target="_top" xlink:title="gaia/ui/AbsoluteController.h">
<polygon fill="white" stroke="black" points="662.5,-232.5 662.5,-253.5 799.5,-253.5 799.5,-232.5 662.5,-232.5"/>
<text text-anchor="middle" x="731" y="-240.5" font-family="Helvetica,sans-Serif" font-size="10.00">gaia/ui/AbsoluteController.h</text>
</a>
</g>
<!-- Node10&#45;&gt;Node13 -->
<g id="edge34" class="edge"><title>Node10&#45;&gt;Node13</title>
<path fill="none" stroke="midnightblue" d="M774.279,-290.362C766.808,-282.186 756.314,-270.702 747.531,-261.091"/>
<polygon fill="midnightblue" stroke="midnightblue" points="749.989,-258.592 740.659,-253.571 744.821,-263.314 749.989,-258.592"/>
</g>
<!-- Node20 -->
<g id="node47" class="node"><title>Node20</title>
<a xlink:href="../../db/d53/_string_array_8h.html" target="_top" xlink:title="gaia/base/StringArray.h">
<polygon fill="white" stroke="black" points="624.5,-174.5 624.5,-195.5 743.5,-195.5 743.5,-174.5 624.5,-174.5"/>
<text text-anchor="middle" x="684" y="-182.5" font-family="Helvetica,sans-Serif" font-size="10.00">gaia/base/StringArray.h</text>
</a>
</g>
<!-- Node10&#45;&gt;Node20 -->
<g id="edge54" class="edge"><title>Node10&#45;&gt;Node20</title>
<path fill="none" stroke="midnightblue" d="M738.536,-290.457C705.212,-281.702 664.099,-268.389 654,-254 643.085,-238.448 654.258,-218.294 665.943,-203.787"/>
<polygon fill="midnightblue" stroke="midnightblue" points="668.81,-205.824 672.719,-195.977 663.522,-201.237 668.81,-205.824"/>
</g>
<!-- Node21 -->
<g id="node51" class="node"><title>Node21</title>
<a xlink:href="../../dd/d79/_key_event_8h.html" target="_top" xlink:title="gaia/core/event/KeyEvent.h">
<polygon fill="white" stroke="black" points="432.5,-174.5 432.5,-195.5 569.5,-195.5 569.5,-174.5 432.5,-174.5"/>
<text text-anchor="middle" x="501" y="-182.5" font-family="Helvetica,sans-Serif" font-size="10.00">gaia/core/event/KeyEvent.h</text>
</a>
</g>
<!-- Node10&#45;&gt;Node21 -->
<g id="edge60" class="edge"><title>Node10&#45;&gt;Node21</title>
<path fill="none" stroke="midnightblue" d="M724.329,-294.508C682.964,-288.258 627.533,-276.32 583,-254 557.504,-241.221 533.142,-219.008 517.697,-203.24"/>
<polygon fill="midnightblue" stroke="midnightblue" points="519.908,-200.487 510.474,-195.665 514.842,-205.318 519.908,-200.487"/>
</g>
<!-- Node22 -->
<g id="node55" class="node"><title>Node22</title>
<a xlink:href="../../dc/de9/_motion_event_8h.html" target="_top" xlink:title="gaia/core/event/MotionEvent.h">
<polygon fill="white" stroke="black" points="173.5,-116.5 173.5,-137.5 322.5,-137.5 322.5,-116.5 173.5,-116.5"/>
<text text-anchor="middle" x="248" y="-124.5" font-family="Helvetica,sans-Serif" font-size="10.00">gaia/core/event/MotionEvent.h</text>
</a>
</g>
<!-- Node10&#45;&gt;Node22 -->
<g id="edge66" class="edge"><title>Node10&#45;&gt;Node22</title>
<path fill="none" stroke="midnightblue" d="M724.413,-298.263C661.057,-293.91 558.661,-282.704 475,-254 395.121,-226.594 310.811,-171.457 271.17,-143.729"/>
<polygon fill="midnightblue" stroke="midnightblue" points="272.709,-140.531 262.522,-137.617 268.669,-146.247 272.709,-140.531"/>
</g>
<!-- Node23 -->
<g id="node58" class="node"><title>Node23</title>
<a xlink:href="../../d9/de8/_controller_params_8h.html" target="_top" xlink:title="gaia/ui/ControllerParams.h">
<polygon fill="white" stroke="black" points="1079,-174.5 1079,-195.5 1211,-195.5 1211,-174.5 1079,-174.5"/>
<text text-anchor="middle" x="1145" y="-182.5" font-family="Helvetica,sans-Serif" font-size="10.00">gaia/ui/ControllerParams.h</text>
</a>
</g>
<!-- Node10&#45;&gt;Node23 -->
<g id="edge70" class="edge"><title>Node10&#45;&gt;Node23</title>
<path fill="none" stroke="midnightblue" d="M843.882,-292.056C885.303,-284.708 941.172,-272.466 988,-254 1006.15,-246.841 1008.43,-240.497 1026,-232 1051.72,-219.56 1081.64,-207.756 1105.04,-199.089"/>
<polygon fill="midnightblue" stroke="midnightblue" points="1106.45,-202.299 1114.64,-195.574 1104.04,-195.726 1106.45,-202.299"/>
</g>
<!-- Node24 -->
<g id="node61" class="node"><title>Node24</title>
<a xlink:href="../../d2/dfb/_configuration_8h.html" target="_top" xlink:title="gaia/content/res/Configuration.h">
<polygon fill="white" stroke="black" points="339.5,-116.5 339.5,-137.5 494.5,-137.5 494.5,-116.5 339.5,-116.5"/>
<text text-anchor="middle" x="417" y="-124.5" font-family="Helvetica,sans-Serif" font-size="10.00">gaia/content/res/Configuration.h</text>
</a>
</g>
<!-- Node10&#45;&gt;Node24 -->
<g id="edge74" class="edge"><title>Node10&#45;&gt;Node24</title>
<path fill="none" stroke="midnightblue" d="M724.312,-292.596C631.294,-278.106 458.777,-245.165 424,-196 414.248,-182.213 413.08,-162.823 414.018,-148.107"/>
<polygon fill="midnightblue" stroke="midnightblue" points="417.523,-148.234 415.038,-137.935 410.558,-147.536 417.523,-148.234"/>
</g>
<!-- Node25 -->
<g id="node64" class="node"><title>Node25</title>
<a xlink:href="../../de/dca/_web_view_inner_8h.html" target="_top" xlink:title="gaia/webkit/WebViewInner.h">
<polygon fill="white" stroke="black" points="1360.5,-174.5 1360.5,-195.5 1501.5,-195.5 1501.5,-174.5 1360.5,-174.5"/>
<text text-anchor="middle" x="1431" y="-182.5" font-family="Helvetica,sans-Serif" font-size="10.00">gaia/webkit/WebViewInner.h</text>
</a>
</g>
<!-- Node10&#45;&gt;Node25 -->
<g id="edge78" class="edge"><title>Node10&#45;&gt;Node25</title>
<path fill="none" stroke="midnightblue" d="M843.663,-299.065C1005.65,-293.524 1442.97,-276.534 1464,-254 1477.73,-239.285 1463.63,-217.805 1449.85,-202.73"/>
<polygon fill="midnightblue" stroke="midnightblue" points="1452.3,-200.229 1442.82,-195.501 1447.28,-205.11 1452.3,-200.229"/>
</g>
<!-- Node26 -->
<g id="node67" class="node"><title>Node26</title>
<polygon fill="white" stroke="#bfbfbf" points="816.5,-232.5 816.5,-253.5 857.5,-253.5 857.5,-232.5 816.5,-232.5"/>
<text text-anchor="middle" x="837" y="-240.5" font-family="Helvetica,sans-Serif" font-size="10.00">string</text>
</g>
<!-- Node10&#45;&gt;Node26 -->
<g id="edge82" class="edge"><title>Node10&#45;&gt;Node26</title>
<path fill="none" stroke="midnightblue" d="M793.721,-290.362C801.192,-282.186 811.686,-270.702 820.469,-261.091"/>
<polygon fill="midnightblue" stroke="midnightblue" points="823.179,-263.314 827.341,-253.571 818.011,-258.592 823.179,-263.314"/>
</g>
<!-- Node27 -->
<g id="node69" class="node"><title>Node27</title>
<polygon fill="white" stroke="#bfbfbf" points="874.5,-232.5 874.5,-253.5 909.5,-253.5 909.5,-232.5 874.5,-232.5"/>
<text text-anchor="middle" x="892" y="-240.5" font-family="Helvetica,sans-Serif" font-size="10.00">map</text>
</g>
<!-- Node10&#45;&gt;Node27 -->
<g id="edge84" class="edge"><title>Node10&#45;&gt;Node27</title>
<path fill="none" stroke="midnightblue" d="M803.558,-290.497C820.901,-281.183 846.379,-267.5 865.54,-257.21"/>
<polygon fill="midnightblue" stroke="midnightblue" points="867.222,-260.28 874.376,-252.465 863.91,-254.113 867.222,-260.28"/>
</g>
<!-- Node28 -->
<g id="node71" class="node"><title>Node28</title>
<polygon fill="white" stroke="#bfbfbf" points="927,-232.5 927,-253.5 979,-253.5 979,-232.5 927,-232.5"/>
<text text-anchor="middle" x="953" y="-240.5" font-family="Helvetica,sans-Serif" font-size="10.00">memory</text>
</g>
<!-- Node10&#45;&gt;Node28 -->
<g id="edge86" class="edge"><title>Node10&#45;&gt;Node28</title>
<path fill="none" stroke="midnightblue" d="M814.605,-290.497C843.404,-280.613 886.539,-265.809 916.984,-255.361"/>
<polygon fill="midnightblue" stroke="midnightblue" points="918.46,-258.554 926.783,-251.998 916.188,-251.933 918.46,-258.554"/>
</g>
<!-- Node14 -->
<g id="node32" class="node"><title>Node14</title>
<a xlink:href="../../d6/d52/_widget_controller_8h.html" target="_top" xlink:title="gaia/core/vision/WidgetController.h">
<polygon fill="white" stroke="black" points="760.5,-174.5 760.5,-195.5 929.5,-195.5 929.5,-174.5 760.5,-174.5"/>
<text text-anchor="middle" x="845" y="-182.5" font-family="Helvetica,sans-Serif" font-size="10.00">gaia/core/vision/WidgetController.h</text>
</a>
</g>
<!-- Node13&#45;&gt;Node14 -->
<g id="edge36" class="edge"><title>Node13&#45;&gt;Node14</title>
<path fill="none" stroke="midnightblue" d="M751.645,-232.497C769.37,-223.479 795.145,-210.365 815.123,-200.201"/>
<polygon fill="midnightblue" stroke="midnightblue" points="816.798,-203.275 824.124,-195.621 813.624,-197.036 816.798,-203.275"/>
</g>
<!-- Node15 -->
<g id="node34" class="node"><title>Node15</title>
<a xlink:href="../../d3/dd0/_event_control_8h.html" target="_top" xlink:title="gaia/core/event/EventControl.h">
<polygon fill="white" stroke="black" points="737,-116.5 737,-137.5 889,-137.5 889,-116.5 737,-116.5"/>
<text text-anchor="middle" x="813" y="-124.5" font-family="Helvetica,sans-Serif" font-size="10.00">gaia/core/event/EventControl.h</text>
</a>
</g>
<!-- Node14&#45;&gt;Node15 -->
<g id="edge38" class="edge"><title>Node14&#45;&gt;Node15</title>
<path fill="none" stroke="midnightblue" d="M839.131,-174.362C834.845,-166.595 828.913,-155.843 823.784,-146.546"/>
<polygon fill="midnightblue" stroke="midnightblue" points="826.727,-144.636 818.832,-137.571 820.598,-148.017 826.727,-144.636"/>
</g>
<!-- Node16 -->
<g id="node37" class="node"><title>Node16</title>
<a xlink:href="../../d4/d75/_widget_8h.html" target="_top" xlink:title="gaia/core/vision/Widget.h">
<polygon fill="white" stroke="black" points="1023.5,-116.5 1023.5,-137.5 1150.5,-137.5 1150.5,-116.5 1023.5,-116.5"/>
<text text-anchor="middle" x="1087" y="-124.5" font-family="Helvetica,sans-Serif" font-size="10.00">gaia/core/vision/Widget.h</text>
</a>
</g>
<!-- Node14&#45;&gt;Node16 -->
<g id="edge42" class="edge"><title>Node14&#45;&gt;Node16</title>
<path fill="none" stroke="midnightblue" d="M888.824,-174.497C929.387,-164.775 989.809,-150.294 1033.26,-139.879"/>
<polygon fill="midnightblue" stroke="midnightblue" points="1034.18,-143.257 1043.09,-137.523 1032.55,-136.45 1034.18,-143.257"/>
</g>
<!-- Node15&#45;&gt;Node3 -->
<g id="edge40" class="edge"><title>Node15&#45;&gt;Node3</title>
<path fill="none" stroke="midnightblue" d="M795.01,-116.422C763.777,-98.1169 701.811,-62.0898 691,-58 631.519,-35.4973 558.781,-22.6856 513.155,-16.2907"/>
<polygon fill="midnightblue" stroke="midnightblue" points="513.386,-12.7899 503.006,-14.9115 512.443,-19.7262 513.386,-12.7899"/>
</g>
<!-- Node17 -->
<g id="node39" class="node"><title>Node17</title>
<a xlink:href="../../d1/dd0/gmacros_8h.html" target="_top" xlink:title="gaia/base/gmacros.h">
<polygon fill="white" stroke="black" points="1272.5,-58.5 1272.5,-79.5 1379.5,-79.5 1379.5,-58.5 1272.5,-58.5"/>
<text text-anchor="middle" x="1326" y="-66.5" font-family="Helvetica,sans-Serif" font-size="10.00">gaia/base/gmacros.h</text>
</a>
</g>
<!-- Node16&#45;&gt;Node17 -->
<g id="edge44" class="edge"><title>Node16&#45;&gt;Node17</title>
<path fill="none" stroke="midnightblue" d="M1130.28,-116.497C1170.26,-106.795 1229.76,-92.3547 1272.66,-81.9445"/>
<polygon fill="midnightblue" stroke="midnightblue" points="1273.75,-85.2827 1282.64,-79.5231 1272.09,-78.4802 1273.75,-85.2827"/>
</g>
<!-- Node18 -->
<g id="node41" class="node"><title>Node18</title>
<a xlink:href="../../d0/d92/_property_animatable_8h.html" target="_top" xlink:title="gaia/core/animator/PropertyAnimatable.h">
<polygon fill="white" stroke="black" points="895,-58.5 895,-79.5 1089,-79.5 1089,-58.5 895,-58.5"/>
<text text-anchor="middle" x="992" y="-66.5" font-family="Helvetica,sans-Serif" font-size="10.00">gaia/core/animator/PropertyAnimatable.h</text>
</a>
</g>
<!-- Node16&#45;&gt;Node18 -->
<g id="edge46" class="edge"><title>Node16&#45;&gt;Node18</title>
<path fill="none" stroke="midnightblue" d="M1069.58,-116.362C1055.11,-107.532 1034.33,-94.844 1017.92,-84.8224"/>
<polygon fill="midnightblue" stroke="midnightblue" points="1019.67,-81.7943 1009.31,-79.5707 1016.03,-87.7688 1019.67,-81.7943"/>
</g>
<!-- Node19 -->
<g id="node44" class="node"><title>Node19</title>
<a xlink:href="../../d8/d50/_widget_core_8h.html" target="_top" xlink:title="gaia/core/vision/WidgetCore.h">
<polygon fill="white" stroke="black" points="1107,-58.5 1107,-79.5 1255,-79.5 1255,-58.5 1107,-58.5"/>
<text text-anchor="middle" x="1181" y="-66.5" font-family="Helvetica,sans-Serif" font-size="10.00">gaia/core/vision/WidgetCore.h</text>
</a>
</g>
<!-- Node16&#45;&gt;Node19 -->
<g id="edge50" class="edge"><title>Node16&#45;&gt;Node19</title>
<path fill="none" stroke="midnightblue" d="M1104.24,-116.362C1118.55,-107.532 1139.11,-94.844 1155.36,-84.8224"/>
<polygon fill="midnightblue" stroke="midnightblue" points="1157.2,-87.8004 1163.87,-79.5707 1153.52,-81.8431 1157.2,-87.8004"/>
</g>
<!-- Node18&#45;&gt;Node3 -->
<g id="edge48" class="edge"><title>Node18&#45;&gt;Node3</title>
<path fill="none" stroke="midnightblue" d="M897.289,-58.4966C783.551,-45.8833 597.566,-25.2578 513.152,-15.8964"/>
<polygon fill="midnightblue" stroke="midnightblue" points="513.457,-12.4088 503.132,-14.7852 512.685,-19.3662 513.457,-12.4088"/>
</g>
<!-- Node19&#45;&gt;Node7 -->
<g id="edge52" class="edge"><title>Node19&#45;&gt;Node7</title>
<path fill="none" stroke="midnightblue" d="M1221.93,-58.4966C1264.99,-47.4454 1332.02,-30.2438 1372.49,-19.8562"/>
<polygon fill="midnightblue" stroke="midnightblue" points="1373.61,-23.1831 1382.42,-17.307 1371.87,-16.4028 1373.61,-23.1831"/>
</g>
<!-- Node20&#45;&gt;Node3 -->
<g id="edge56" class="edge"><title>Node20&#45;&gt;Node3</title>
<path fill="none" stroke="midnightblue" d="M685.251,-174.454C687.483,-150.321 689.312,-90.6488 658,-58 638.281,-37.4388 562.628,-23.5815 513.224,-16.5115"/>
<polygon fill="midnightblue" stroke="midnightblue" points="513.496,-13.0158 503.109,-15.1059 512.532,-19.9492 513.496,-13.0158"/>
</g>
<!-- Node21&#45;&gt;Node3 -->
<g id="edge64" class="edge"><title>Node21&#45;&gt;Node3</title>
<path fill="none" stroke="midnightblue" d="M501.591,-174.177C502.08,-164.653 502.736,-150.411 503,-138 503.208,-128.224 504.525,-125.658 503,-116 498.195,-85.5606 486.008,-51.9261 477.611,-31.1248"/>
<polygon fill="midnightblue" stroke="midnightblue" points="480.792,-29.6588 473.733,-21.7579 474.324,-32.3363 480.792,-29.6588"/>
</g>
<!-- Node21&#45;&gt;Node5 -->
<g id="edge62" class="edge"><title>Node21&#45;&gt;Node5</title>
<path fill="none" stroke="midnightblue" d="M518.608,-174.362C533.223,-165.532 554.224,-152.844 570.811,-142.822"/>
<polygon fill="midnightblue" stroke="midnightblue" points="572.754,-145.738 579.504,-137.571 569.135,-139.746 572.754,-145.738"/>
</g>
<!-- Node22&#45;&gt;Node3 -->
<g id="edge68" class="edge"><title>Node22&#45;&gt;Node3</title>
<path fill="none" stroke="midnightblue" d="M268.395,-116.295C307.8,-95.6116 394.509,-50.0995 439.938,-26.2543"/>
<polygon fill="midnightblue" stroke="midnightblue" points="441.746,-29.2583 448.973,-21.5117 438.492,-23.0602 441.746,-29.2583"/>
</g>
<!-- Node23&#45;&gt;Node7 -->
<g id="edge72" class="edge"><title>Node23&#45;&gt;Node7</title>
<path fill="none" stroke="midnightblue" d="M1204.67,-174.463C1259.98,-161.601 1340.65,-134.444 1388,-80 1399.57,-66.7016 1404.15,-46.9568 1405.93,-31.9918"/>
<polygon fill="midnightblue" stroke="midnightblue" points="1409.45,-31.9295 1406.83,-21.6656 1402.48,-31.3277 1409.45,-31.9295"/>
</g>
<!-- Node24&#45;&gt;Node3 -->
<g id="edge76" class="edge"><title>Node24&#45;&gt;Node3</title>
<path fill="none" stroke="midnightblue" d="M421.799,-116.295C430.505,-96.8724 449.027,-55.5561 460.103,-30.8462"/>
<polygon fill="midnightblue" stroke="midnightblue" points="463.316,-32.236 464.213,-21.6792 456.928,-29.3726 463.316,-32.236"/>
</g>
<!-- Node25&#45;&gt;Node7 -->
<g id="edge80" class="edge"><title>Node25&#45;&gt;Node7</title>
<path fill="none" stroke="midnightblue" d="M1430.92,-174.364C1430.58,-152.422 1428.93,-100.617 1421,-58 1419.35,-49.1537 1416.68,-39.601 1414.11,-31.433"/>
<polygon fill="midnightblue" stroke="midnightblue" points="1417.34,-30.0654 1410.88,-21.6688 1410.7,-32.262 1417.34,-30.0654"/>
</g>
</g>
</svg>
