<?xml version="1.0" encoding="UTF-8" standalone="no"?>
<!DOCTYPE svg PUBLIC "-//W3C//DTD SVG 1.1//EN"
 "http://www.w3.org/Graphics/SVG/1.1/DTD/svg11.dtd">
<!-- Generated by graphviz version 2.26.3 (20100126.1600)
 -->
<!-- Title: G Pages: 1 -->
<svg width="958pt" height="88pt"
 viewBox="0.00 0.00 958.00 88.00" xmlns="http://www.w3.org/2000/svg" xmlns:xlink="http://www.w3.org/1999/xlink">
<g id="graph1" class="graph" transform="scale(1 1) rotate(0) translate(4 84)">
<title>G</title>
<polygon fill="white" stroke="white" points="-4,5 -4,-84 955,-84 955,5 -4,5"/>
<!-- Node1 -->
<g id="node1" class="node"><title>Node1</title>
<polygon fill="#bfbfbf" stroke="black" points="330,-58.5 330,-79.5 584,-79.5 584,-58.5 330,-58.5"/>
<text text-anchor="middle" x="457" y="-66.5" font-family="Helvetica,sans-Serif" font-size="10.00">/home/vilon_tao/gaia/sdk/include/gaia/core/Fragment.h</text>
</g>
<!-- Node2 -->
<g id="node3" class="node"><title>Node2</title>
<a xlink:href="../../de/d85/_list_fragment_8h.html" target="_top" xlink:title="/home/vilon_tao/gaia/sdk/include/gaia/core/ListFragment.h">
<polygon fill="white" stroke="black" points="0,-0.5 0,-21.5 270,-21.5 270,-0.5 0,-0.5"/>
<text text-anchor="middle" x="135" y="-8.5" font-family="Helvetica,sans-Serif" font-size="10.00">/home/vilon_tao/gaia/sdk/include/gaia/core/ListFragment.h</text>
</a>
</g>
<!-- Node1&#45;&gt;Node2 -->
<g id="edge2" class="edge"><title>Node1&#45;&gt;Node2</title>
<path fill="none" stroke="midnightblue" d="M388.519,-56.6648C330.543,-46.222 248.338,-31.415 193.421,-21.5231"/>
<polygon fill="midnightblue" stroke="midnightblue" points="388.226,-60.1684 398.688,-58.4966 389.467,-53.2793 388.226,-60.1684"/>
</g>
<!-- Node3 -->
<g id="node5" class="node"><title>Node3</title>
<a xlink:href="../../d7/d54/_preference_fragment_8h.html" target="_top" xlink:title="/home/vilon_tao/gaia/sdk/include/gaia/ui/preference/PreferenceFragment.h">
<polygon fill="white" stroke="black" points="287.5,-0.5 287.5,-21.5 626.5,-21.5 626.5,-0.5 287.5,-0.5"/>
<text text-anchor="middle" x="457" y="-8.5" font-family="Helvetica,sans-Serif" font-size="10.00">/home/vilon_tao/gaia/sdk/include/gaia/ui/preference/PreferenceFragment.h</text>
</a>
</g>
<!-- Node1&#45;&gt;Node3 -->
<g id="edge4" class="edge"><title>Node1&#45;&gt;Node3</title>
<path fill="none" stroke="midnightblue" d="M457,-48.1906C457,-39.1684 457,-28.9941 457,-21.5707"/>
<polygon fill="midnightblue" stroke="midnightblue" points="453.5,-48.3619 457,-58.3619 460.5,-48.3619 453.5,-48.3619"/>
</g>
<!-- Node4 -->
<g id="node7" class="node"><title>Node4</title>
<a xlink:href="../../d1/db3/_web_view_fragment_8h.html" target="_top" xlink:title="/home/vilon_tao/gaia/sdk/include/gaia/webkit/WebViewFragment.h">
<polygon fill="white" stroke="black" points="644,-0.5 644,-21.5 950,-21.5 950,-0.5 644,-0.5"/>
<text text-anchor="middle" x="797" y="-8.5" font-family="Helvetica,sans-Serif" font-size="10.00">/home/vilon_tao/gaia/sdk/include/gaia/webkit/WebViewFragment.h</text>
</a>
</g>
<!-- Node1&#45;&gt;Node4 -->
<g id="edge6" class="edge"><title>Node1&#45;&gt;Node4</title>
<path fill="none" stroke="midnightblue" d="M528.55,-56.7943C589.807,-46.3447 677.086,-31.4559 735.313,-21.5231"/>
<polygon fill="midnightblue" stroke="midnightblue" points="527.84,-53.3648 518.571,-58.4966 529.018,-60.2651 527.84,-53.3648"/>
</g>
</g>
</svg>
