<?xml version="1.0" encoding="UTF-8" standalone="no"?>
<!DOCTYPE svg PUBLIC "-//W3C//DTD SVG 1.1//EN"
 "http://www.w3.org/Graphics/SVG/1.1/DTD/svg11.dtd">
<!-- Generated by graphviz version 2.26.3 (20100126.1600)
 -->
<!-- Title: G Pages: 1 -->
<svg width="774pt" height="204pt"
 viewBox="0.00 0.00 774.00 204.00" xmlns="http://www.w3.org/2000/svg" xmlns:xlink="http://www.w3.org/1999/xlink">
<g id="graph1" class="graph" transform="scale(1 1) rotate(0) translate(4 200)">
<title>G</title>
<polygon fill="white" stroke="white" points="-4,5 -4,-200 771,-200 771,5 -4,5"/>
<!-- Node1 -->
<g id="node1" class="node"><title>Node1</title>
<polygon fill="#bfbfbf" stroke="black" points="132,-174.5 132,-195.5 398,-195.5 398,-174.5 132,-174.5"/>
<text text-anchor="middle" x="265" y="-182.5" font-family="Helvetica,sans-Serif" font-size="10.00">/home/vilon_tao/gaia/sdk/include/gaia/usb/UsbManager.h</text>
</g>
<!-- Node2 -->
<g id="node3" class="node"><title>Node2</title>
<a xlink:href="../../d1/dd0/gmacros_8h.html" target="_top" xlink:title="gaia/base/gmacros.h">
<polygon fill="white" stroke="black" points="33.5,-116.5 33.5,-137.5 140.5,-137.5 140.5,-116.5 33.5,-116.5"/>
<text text-anchor="middle" x="87" y="-124.5" font-family="Helvetica,sans-Serif" font-size="10.00">gaia/base/gmacros.h</text>
</a>
</g>
<!-- Node1&#45;&gt;Node2 -->
<g id="edge2" class="edge"><title>Node1&#45;&gt;Node2</title>
<path fill="none" stroke="midnightblue" d="M232.766,-174.497C203.747,-165.041 160.91,-151.083 129.176,-140.743"/>
<polygon fill="midnightblue" stroke="midnightblue" points="129.887,-137.293 119.295,-137.523 127.719,-143.949 129.887,-137.293"/>
</g>
<!-- Node3 -->
<g id="node5" class="node"><title>Node3</title>
<a xlink:href="../../db/db5/_string_8h.html" target="_top" xlink:title="gaia/base/String.h">
<polygon fill="white" stroke="black" points="157.5,-116.5 157.5,-137.5 252.5,-137.5 252.5,-116.5 157.5,-116.5"/>
<text text-anchor="middle" x="205" y="-124.5" font-family="Helvetica,sans-Serif" font-size="10.00">gaia/base/String.h</text>
</a>
</g>
<!-- Node1&#45;&gt;Node3 -->
<g id="edge4" class="edge"><title>Node1&#45;&gt;Node3</title>
<path fill="none" stroke="midnightblue" d="M253.995,-174.362C245.453,-166.104 233.42,-154.472 223.417,-144.803"/>
<polygon fill="midnightblue" stroke="midnightblue" points="225.558,-142.004 215.935,-137.571 220.692,-147.037 225.558,-142.004"/>
</g>
<!-- Node8 -->
<g id="node16" class="node"><title>Node8</title>
<a xlink:href="../../dd/d0b/_hash_map_8h.html" target="_top" xlink:title="gaia/base/HashMap.h">
<polygon fill="white" stroke="black" points="270,-116.5 270,-137.5 382,-137.5 382,-116.5 270,-116.5"/>
<text text-anchor="middle" x="326" y="-124.5" font-family="Helvetica,sans-Serif" font-size="10.00">gaia/base/HashMap.h</text>
</a>
</g>
<!-- Node1&#45;&gt;Node8 -->
<g id="edge16" class="edge"><title>Node1&#45;&gt;Node8</title>
<path fill="none" stroke="midnightblue" d="M276.188,-174.362C284.959,-166.023 297.349,-154.242 307.578,-144.516"/>
<polygon fill="midnightblue" stroke="midnightblue" points="310.047,-146.998 314.883,-137.571 305.224,-141.925 310.047,-146.998"/>
</g>
<!-- Node10 -->
<g id="node22" class="node"><title>Node10</title>
<a xlink:href="../../d4/d7f/_vector_8h.html" target="_top" xlink:title="gaia/base/Vector.h">
<polygon fill="white" stroke="black" points="522,-116.5 522,-137.5 620,-137.5 620,-116.5 522,-116.5"/>
<text text-anchor="middle" x="571" y="-124.5" font-family="Helvetica,sans-Serif" font-size="10.00">gaia/base/Vector.h</text>
</a>
</g>
<!-- Node1&#45;&gt;Node10 -->
<g id="edge24" class="edge"><title>Node1&#45;&gt;Node10</title>
<path fill="none" stroke="midnightblue" d="M320.414,-174.497C374.406,-164.263 456.223,-148.755 511.551,-138.268"/>
<polygon fill="midnightblue" stroke="midnightblue" points="512.388,-141.672 521.561,-136.371 511.084,-134.794 512.388,-141.672"/>
</g>
<!-- Node4 -->
<g id="node7" class="node"><title>Node4</title>
<a xlink:href="../../d7/d97/_char_sequence_8h.html" target="_top" xlink:title="gaia/base/CharSequence.h">
<polygon fill="white" stroke="black" points="0,-58.5 0,-79.5 134,-79.5 134,-58.5 0,-58.5"/>
<text text-anchor="middle" x="67" y="-66.5" font-family="Helvetica,sans-Serif" font-size="10.00">gaia/base/CharSequence.h</text>
</a>
</g>
<!-- Node3&#45;&gt;Node4 -->
<g id="edge6" class="edge"><title>Node3&#45;&gt;Node4</title>
<path fill="none" stroke="midnightblue" d="M180.009,-116.497C158.067,-107.275 125.934,-93.7695 101.536,-83.5153"/>
<polygon fill="midnightblue" stroke="midnightblue" points="102.846,-80.2693 92.2712,-79.6212 100.134,-86.7225 102.846,-80.2693"/>
</g>
<!-- Node6 -->
<g id="node11" class="node"><title>Node6</title>
<a xlink:href="../../d6/d83/_hash_func_8h.html" target="_top" xlink:title="gaia/base/HashFunc.h">
<polygon fill="white" stroke="black" points="189.5,-58.5 189.5,-79.5 304.5,-79.5 304.5,-58.5 189.5,-58.5"/>
<text text-anchor="middle" x="247" y="-66.5" font-family="Helvetica,sans-Serif" font-size="10.00">gaia/base/HashFunc.h</text>
</a>
</g>
<!-- Node3&#45;&gt;Node6 -->
<g id="edge10" class="edge"><title>Node3&#45;&gt;Node6</title>
<path fill="none" stroke="midnightblue" d="M212.703,-116.362C218.446,-108.431 226.443,-97.3885 233.27,-87.9606"/>
<polygon fill="midnightblue" stroke="midnightblue" points="236.315,-89.7229 239.345,-79.5707 230.645,-85.6173 236.315,-89.7229"/>
</g>
<!-- Node7 -->
<g id="node13" class="node"><title>Node7</title>
<polygon fill="white" stroke="#bfbfbf" points="423,-0.5 423,-21.5 491,-21.5 491,-0.5 423,-0.5"/>
<text text-anchor="middle" x="457" y="-8.5" font-family="Helvetica,sans-Serif" font-size="10.00">sys/types.h</text>
</g>
<!-- Node3&#45;&gt;Node7 -->
<g id="edge14" class="edge"><title>Node3&#45;&gt;Node7</title>
<path fill="none" stroke="midnightblue" d="M195.618,-116.491C183.729,-101.871 166.438,-75.2516 181,-58 195.785,-40.4845 338.627,-23.2638 412.786,-15.4129"/>
<polygon fill="midnightblue" stroke="midnightblue" points="413.193,-18.8896 422.774,-14.3682 412.465,-11.9276 413.193,-18.8896"/>
</g>
<!-- Node5 -->
<g id="node9" class="node"><title>Node5</title>
<polygon fill="white" stroke="#bfbfbf" points="164.5,-0.5 164.5,-21.5 213.5,-21.5 213.5,-0.5 164.5,-0.5"/>
<text text-anchor="middle" x="189" y="-8.5" font-family="Helvetica,sans-Serif" font-size="10.00">stdint.h</text>
</g>
<!-- Node4&#45;&gt;Node5 -->
<g id="edge8" class="edge"><title>Node4&#45;&gt;Node5</title>
<path fill="none" stroke="midnightblue" d="M89.0933,-58.4966C108.234,-49.397 136.146,-36.1273 157.605,-25.9253"/>
<polygon fill="midnightblue" stroke="midnightblue" points="159.13,-29.0758 166.659,-21.6212 156.125,-22.7539 159.13,-29.0758"/>
</g>
<!-- Node6&#45;&gt;Node7 -->
<g id="edge12" class="edge"><title>Node6&#45;&gt;Node7</title>
<path fill="none" stroke="midnightblue" d="M285.029,-58.4966C321.051,-48.5477 375.122,-33.614 412.991,-23.155"/>
<polygon fill="midnightblue" stroke="midnightblue" points="414.023,-26.501 422.73,-20.465 412.159,-19.7536 414.023,-26.501"/>
</g>
<!-- Node8&#45;&gt;Node6 -->
<g id="edge18" class="edge"><title>Node8&#45;&gt;Node6</title>
<path fill="none" stroke="midnightblue" d="M311.51,-116.362C299.817,-107.777 283.157,-95.5459 269.697,-85.6636"/>
<polygon fill="midnightblue" stroke="midnightblue" points="271.53,-82.6675 261.398,-79.5707 267.387,-88.31 271.53,-82.6675"/>
</g>
<!-- Node9 -->
<g id="node19" class="node"><title>Node9</title>
<a xlink:href="../../dc/d11/_hash_map_impl_8h.html" target="_top" xlink:title="gaia/base/HashMapImpl.h">
<polygon fill="white" stroke="black" points="321.5,-58.5 321.5,-79.5 452.5,-79.5 452.5,-58.5 321.5,-58.5"/>
<text text-anchor="middle" x="387" y="-66.5" font-family="Helvetica,sans-Serif" font-size="10.00">gaia/base/HashMapImpl.h</text>
</a>
</g>
<!-- Node8&#45;&gt;Node9 -->
<g id="edge20" class="edge"><title>Node8&#45;&gt;Node9</title>
<path fill="none" stroke="midnightblue" d="M337.188,-116.362C345.959,-108.023 358.349,-96.2418 368.578,-86.5162"/>
<polygon fill="midnightblue" stroke="midnightblue" points="371.047,-88.9978 375.883,-79.5707 366.224,-83.9248 371.047,-88.9978"/>
</g>
<!-- Node9&#45;&gt;Node7 -->
<g id="edge22" class="edge"><title>Node9&#45;&gt;Node7</title>
<path fill="none" stroke="midnightblue" d="M399.839,-58.3619C410.002,-49.9408 424.401,-38.0105 436.204,-28.2308"/>
<polygon fill="midnightblue" stroke="midnightblue" points="438.775,-30.6459 444.242,-21.5707 434.309,-25.2558 438.775,-30.6459"/>
</g>
<!-- Node10&#45;&gt;Node7 -->
<g id="edge40" class="edge"><title>Node10&#45;&gt;Node7</title>
<path fill="none" stroke="midnightblue" d="M580.373,-116.314C591.777,-101.958 607.993,-76.1512 595,-58 583.79,-42.3392 537.135,-28.6879 501.142,-20.1918"/>
<polygon fill="midnightblue" stroke="midnightblue" points="501.84,-16.7612 491.311,-17.9348 500.274,-23.5837 501.84,-16.7612"/>
</g>
<!-- Node11 -->
<g id="node24" class="node"><title>Node11</title>
<a xlink:href="../../d1/d86/_type_helpers_8h.html" target="_top" xlink:title="gaia/base/TypeHelpers.h">
<polygon fill="white" stroke="black" points="641.5,-58.5 641.5,-79.5 766.5,-79.5 766.5,-58.5 641.5,-58.5"/>
<text text-anchor="middle" x="704" y="-66.5" font-family="Helvetica,sans-Serif" font-size="10.00">gaia/base/TypeHelpers.h</text>
</a>
</g>
<!-- Node10&#45;&gt;Node11 -->
<g id="edge26" class="edge"><title>Node10&#45;&gt;Node11</title>
<path fill="none" stroke="midnightblue" d="M595.085,-116.497C616.139,-107.315 646.927,-93.8889 670.402,-83.6516"/>
<polygon fill="midnightblue" stroke="midnightblue" points="671.877,-86.8268 679.644,-79.6212 669.079,-80.4104 671.877,-86.8268"/>
</g>
<!-- Node14 -->
<g id="node32" class="node"><title>Node14</title>
<a xlink:href="../../dc/da9/_vector_impl_8h.html" target="_top" xlink:title="gaia/base/VectorImpl.h">
<polygon fill="white" stroke="black" points="469.5,-58.5 469.5,-79.5 586.5,-79.5 586.5,-58.5 469.5,-58.5"/>
<text text-anchor="middle" x="528" y="-66.5" font-family="Helvetica,sans-Serif" font-size="10.00">gaia/base/VectorImpl.h</text>
</a>
</g>
<!-- Node10&#45;&gt;Node14 -->
<g id="edge36" class="edge"><title>Node10&#45;&gt;Node14</title>
<path fill="none" stroke="midnightblue" d="M563.113,-116.362C557.173,-108.35 548.878,-97.1605 541.841,-87.6696"/>
<polygon fill="midnightblue" stroke="midnightblue" points="544.604,-85.5193 535.837,-79.5707 538.981,-89.6883 544.604,-85.5193"/>
</g>
<!-- Node11&#45;&gt;Node5 -->
<g id="edge28" class="edge"><title>Node11&#45;&gt;Node5</title>
<path fill="none" stroke="midnightblue" d="M641.366,-61.946C531.872,-49.6147 309.172,-24.534 223.582,-14.8946"/>
<polygon fill="midnightblue" stroke="midnightblue" points="223.934,-11.4123 213.605,-13.7711 223.151,-18.3683 223.934,-11.4123"/>
</g>
<!-- Node11&#45;&gt;Node7 -->
<g id="edge32" class="edge"><title>Node11&#45;&gt;Node7</title>
<path fill="none" stroke="midnightblue" d="M659.27,-58.4966C614.387,-47.9573 545.682,-31.824 501.043,-21.3422"/>
<polygon fill="midnightblue" stroke="midnightblue" points="501.608,-17.8797 491.073,-19.0009 500.008,-24.6943 501.608,-17.8797"/>
</g>
<!-- Node12 -->
<g id="node27" class="node"><title>Node12</title>
<polygon fill="white" stroke="#bfbfbf" points="649.5,-0.5 649.5,-21.5 698.5,-21.5 698.5,-0.5 649.5,-0.5"/>
<text text-anchor="middle" x="674" y="-8.5" font-family="Helvetica,sans-Serif" font-size="10.00">string.h</text>
</g>
<!-- Node11&#45;&gt;Node12 -->
<g id="edge30" class="edge"><title>Node11&#45;&gt;Node12</title>
<path fill="none" stroke="midnightblue" d="M698.498,-58.3619C694.48,-50.5949 688.919,-39.8426 684.11,-30.5458"/>
<polygon fill="midnightblue" stroke="midnightblue" points="687.171,-28.8448 679.468,-21.5707 680.953,-32.0608 687.171,-28.8448"/>
</g>
<!-- Node13 -->
<g id="node30" class="node"><title>Node13</title>
<polygon fill="white" stroke="#bfbfbf" points="715.5,-0.5 715.5,-21.5 750.5,-21.5 750.5,-0.5 715.5,-0.5"/>
<text text-anchor="middle" x="733" y="-8.5" font-family="Helvetica,sans-Serif" font-size="10.00">new</text>
</g>
<!-- Node11&#45;&gt;Node13 -->
<g id="edge34" class="edge"><title>Node11&#45;&gt;Node13</title>
<path fill="none" stroke="midnightblue" d="M709.319,-58.3619C713.203,-50.5949 718.579,-39.8426 723.227,-30.5458"/>
<polygon fill="midnightblue" stroke="midnightblue" points="726.373,-32.0802 727.715,-21.5707 720.112,-28.9497 726.373,-32.0802"/>
</g>
<!-- Node14&#45;&gt;Node7 -->
<g id="edge38" class="edge"><title>Node14&#45;&gt;Node7</title>
<path fill="none" stroke="midnightblue" d="M514.978,-58.3619C504.569,-49.859 489.781,-37.7785 477.745,-27.9466"/>
<polygon fill="midnightblue" stroke="midnightblue" points="479.899,-25.1866 469.94,-21.5707 475.47,-30.6077 479.899,-25.1866"/>
</g>
</g>
</svg>
