<?xml version="1.0" encoding="UTF-8" standalone="no"?>
<!DOCTYPE svg PUBLIC "-//W3C//DTD SVG 1.1//EN"
 "http://www.w3.org/Graphics/SVG/1.1/DTD/svg11.dtd">
<!-- Generated by graphviz version 2.26.3 (20100126.1600)
 -->
<!-- Title: G Pages: 1 -->
<svg width="2091pt" height="146pt"
 viewBox="0.00 0.00 2091.00 146.00" xmlns="http://www.w3.org/2000/svg" xmlns:xlink="http://www.w3.org/1999/xlink">
<g id="graph1" class="graph" transform="scale(1 1) rotate(0) translate(4 142)">
<title>G</title>
<polygon fill="white" stroke="white" points="-4,5 -4,-142 2088,-142 2088,5 -4,5"/>
<!-- Node1 -->
<g id="node1" class="node"><title>Node1</title>
<polygon fill="#bfbfbf" stroke="black" points="1038,-116.5 1038,-137.5 1340,-137.5 1340,-116.5 1038,-116.5"/>
<text text-anchor="middle" x="1189" y="-124.5" font-family="Helvetica,sans-Serif" font-size="10.00">/home/vilon_tao/gaia/sdk/include/gaia/core/animation/Animation.h</text>
</g>
<!-- Node2 -->
<g id="node3" class="node"><title>Node2</title>
<a xlink:href="../../d9/d7e/_alpha_animation_8h.html" target="_top" xlink:title="/home/vilon_tao/gaia/sdk/include/gaia/core/animation/AlphaAnimation.h">
<polygon fill="white" stroke="black" points="0,-58.5 0,-79.5 326,-79.5 326,-58.5 0,-58.5"/>
<text text-anchor="middle" x="163" y="-66.5" font-family="Helvetica,sans-Serif" font-size="10.00">/home/vilon_tao/gaia/sdk/include/gaia/core/animation/AlphaAnimation.h</text>
</a>
</g>
<!-- Node1&#45;&gt;Node2 -->
<g id="edge2" class="edge"><title>Node1&#45;&gt;Node2</title>
<path fill="none" stroke="midnightblue" d="M1027.66,-118.549C855.932,-109.453 576.25,-94.3527 335,-80 332.162,-79.8312 329.299,-79.6597 326.414,-79.4861"/>
<polygon fill="midnightblue" stroke="midnightblue" points="1027.63,-122.052 1037.8,-119.085 1028,-115.061 1027.63,-122.052"/>
</g>
<!-- Node3 -->
<g id="node5" class="node"><title>Node3</title>
<a xlink:href="../../d9/d87/_animation_set_8h.html" target="_top" xlink:title="/home/vilon_tao/gaia/sdk/include/gaia/core/animation/AnimationSet.h">
<polygon fill="white" stroke="black" points="343.5,-58.5 343.5,-79.5 660.5,-79.5 660.5,-58.5 343.5,-58.5"/>
<text text-anchor="middle" x="502" y="-66.5" font-family="Helvetica,sans-Serif" font-size="10.00">/home/vilon_tao/gaia/sdk/include/gaia/core/animation/AnimationSet.h</text>
</a>
</g>
<!-- Node1&#45;&gt;Node3 -->
<g id="edge4" class="edge"><title>Node1&#45;&gt;Node3</title>
<path fill="none" stroke="midnightblue" d="M1054.26,-115.625C930.148,-105.146 747.45,-89.7222 626.644,-79.5231"/>
<polygon fill="midnightblue" stroke="midnightblue" points="1054.33,-119.143 1064.59,-116.497 1054.92,-112.168 1054.33,-119.143"/>
</g>
<!-- Node4 -->
<g id="node7" class="node"><title>Node4</title>
<a xlink:href="../../d9/df5/_rotate_animation_8h.html" target="_top" xlink:title="/home/vilon_tao/gaia/sdk/include/gaia/core/animation/RotateAnimation.h">
<polygon fill="white" stroke="black" points="677.5,-58.5 677.5,-79.5 1008.5,-79.5 1008.5,-58.5 677.5,-58.5"/>
<text text-anchor="middle" x="843" y="-66.5" font-family="Helvetica,sans-Serif" font-size="10.00">/home/vilon_tao/gaia/sdk/include/gaia/core/animation/RotateAnimation.h</text>
</a>
</g>
<!-- Node1&#45;&gt;Node4 -->
<g id="edge6" class="edge"><title>Node1&#45;&gt;Node4</title>
<path fill="none" stroke="midnightblue" d="M1116.19,-114.794C1053.85,-104.345 965.03,-89.4559 905.776,-79.5231"/>
<polygon fill="midnightblue" stroke="midnightblue" points="1115.9,-118.295 1126.34,-116.497 1117.06,-111.391 1115.9,-118.295"/>
</g>
<!-- Node5 -->
<g id="node9" class="node"><title>Node5</title>
<a xlink:href="../../dc/daf/_scale_animation_8h.html" target="_top" xlink:title="/home/vilon_tao/gaia/sdk/include/gaia/core/animation/ScaleAnimation.h">
<polygon fill="white" stroke="black" points="1026,-58.5 1026,-79.5 1352,-79.5 1352,-58.5 1026,-58.5"/>
<text text-anchor="middle" x="1189" y="-66.5" font-family="Helvetica,sans-Serif" font-size="10.00">/home/vilon_tao/gaia/sdk/include/gaia/core/animation/ScaleAnimation.h</text>
</a>
</g>
<!-- Node1&#45;&gt;Node5 -->
<g id="edge8" class="edge"><title>Node1&#45;&gt;Node5</title>
<path fill="none" stroke="midnightblue" d="M1189,-106.191C1189,-97.1684 1189,-86.9941 1189,-79.5707"/>
<polygon fill="midnightblue" stroke="midnightblue" points="1185.5,-106.362 1189,-116.362 1192.5,-106.362 1185.5,-106.362"/>
</g>
<!-- Node6 -->
<g id="node11" class="node"><title>Node6</title>
<a xlink:href="../../dd/d7f/_translate_animation_8h.html" target="_top" xlink:title="/home/vilon_tao/gaia/sdk/include/gaia/core/animation/TranslateAnimation.h">
<polygon fill="white" stroke="black" points="1370,-58.5 1370,-79.5 1712,-79.5 1712,-58.5 1370,-58.5"/>
<text text-anchor="middle" x="1541" y="-66.5" font-family="Helvetica,sans-Serif" font-size="10.00">/home/vilon_tao/gaia/sdk/include/gaia/core/animation/TranslateAnimation.h</text>
</a>
</g>
<!-- Node1&#45;&gt;Node6 -->
<g id="edge10" class="edge"><title>Node1&#45;&gt;Node6</title>
<path fill="none" stroke="midnightblue" d="M1262.68,-114.859C1326.12,-104.406 1416.73,-89.4764 1477.14,-79.5231"/>
<polygon fill="midnightblue" stroke="midnightblue" points="1262.04,-111.417 1252.74,-116.497 1263.18,-118.324 1262.04,-111.417"/>
</g>
<!-- Node7 -->
<g id="node13" class="node"><title>Node7</title>
<a xlink:href="../../d5/d80/_widget_animator_8h.html" target="_top" xlink:title="/home/vilon_tao/gaia/sdk/include/gaia/ui/WidgetAnimator.h">
<polygon fill="white" stroke="black" points="1730,-58.5 1730,-79.5 2002,-79.5 2002,-58.5 1730,-58.5"/>
<text text-anchor="middle" x="1866" y="-66.5" font-family="Helvetica,sans-Serif" font-size="10.00">/home/vilon_tao/gaia/sdk/include/gaia/ui/WidgetAnimator.h</text>
</a>
</g>
<!-- Node1&#45;&gt;Node7 -->
<g id="edge12" class="edge"><title>Node1&#45;&gt;Node7</title>
<path fill="none" stroke="midnightblue" d="M1321.78,-115.625C1444.08,-105.146 1624.12,-89.7222 1743.17,-79.5231"/>
<polygon fill="midnightblue" stroke="midnightblue" points="1321.26,-112.156 1311.6,-116.497 1321.86,-119.13 1321.26,-112.156"/>
</g>
<!-- Node8 -->
<g id="node15" class="node"><title>Node8</title>
<a xlink:href="../../dd/de8/_widget_switcher_8h.html" target="_top" xlink:title="/home/vilon_tao/gaia/sdk/include/gaia/ui/WidgetSwitcher.h">
<polygon fill="white" stroke="black" points="1812.5,-0.5 1812.5,-21.5 2083.5,-21.5 2083.5,-0.5 1812.5,-0.5"/>
<text text-anchor="middle" x="1948" y="-8.5" font-family="Helvetica,sans-Serif" font-size="10.00">/home/vilon_tao/gaia/sdk/include/gaia/ui/WidgetSwitcher.h</text>
</a>
</g>
<!-- Node1&#45;&gt;Node8 -->
<g id="edge16" class="edge"><title>Node1&#45;&gt;Node8</title>
<path fill="none" stroke="midnightblue" d="M1350.53,-123.395C1583.53,-117.392 1988.7,-103.615 2011,-80 2030.27,-59.5981 1994.72,-35.2597 1969.65,-21.6224"/>
<polygon fill="midnightblue" stroke="midnightblue" points="1350.16,-119.903 1340.25,-123.658 1350.34,-126.901 1350.16,-119.903"/>
</g>
<!-- Node7&#45;&gt;Node8 -->
<g id="edge14" class="edge"><title>Node7&#45;&gt;Node8</title>
<path fill="none" stroke="midnightblue" d="M1889.27,-52.5407C1903.33,-42.5973 1920.83,-30.2177 1933.06,-21.5707"/>
<polygon fill="midnightblue" stroke="midnightblue" points="1887.18,-49.7298 1881.04,-58.3619 1891.23,-55.4447 1887.18,-49.7298"/>
</g>
</g>
</svg>
