<?xml version="1.0" encoding="UTF-8" standalone="no"?>
<!DOCTYPE svg PUBLIC "-//W3C//DTD SVG 1.1//EN"
 "http://www.w3.org/Graphics/SVG/1.1/DTD/svg11.dtd">
<!-- Generated by graphviz version 2.26.3 (20100126.1600)
 -->
<!-- Title: G Pages: 1 -->
<svg width="381pt" height="204pt"
 viewBox="0.00 0.00 381.00 204.00" xmlns="http://www.w3.org/2000/svg" xmlns:xlink="http://www.w3.org/1999/xlink">
<g id="graph1" class="graph" transform="scale(1 1) rotate(0) translate(4 200)">
<title>G</title>
<polygon fill="white" stroke="white" points="-4,5 -4,-200 378,-200 378,5 -4,5"/>
<!-- Node1 -->
<g id="node1" class="node"><title>Node1</title>
<polygon fill="#bfbfbf" stroke="black" points="16.5,-174.5 16.5,-195.5 357.5,-195.5 357.5,-174.5 16.5,-174.5"/>
<text text-anchor="middle" x="187" y="-182.5" font-family="Helvetica,sans-Serif" font-size="10.00">/home/vilon_tao/gaia/sdk/include/gaia/cloudstorage/CloudStorageFileInfo.h</text>
</g>
<!-- Node2 -->
<g id="node3" class="node"><title>Node2</title>
<a xlink:href="../../d1/de4/_cloud_storage_header_8h.html" target="_top" xlink:title="gaia/cloudstorage/CloudStorageHeader.h">
<polygon fill="white" stroke="black" points="-0.5,-116.5 -0.5,-137.5 194.5,-137.5 194.5,-116.5 -0.5,-116.5"/>
<text text-anchor="middle" x="97" y="-124.5" font-family="Helvetica,sans-Serif" font-size="10.00">gaia/cloudstorage/CloudStorageHeader.h</text>
</a>
</g>
<!-- Node1&#45;&gt;Node2 -->
<g id="edge2" class="edge"><title>Node1&#45;&gt;Node2</title>
<path fill="none" stroke="midnightblue" d="M170.493,-174.362C156.918,-165.614 137.467,-153.079 121.985,-143.101"/>
<polygon fill="midnightblue" stroke="midnightblue" points="123.704,-140.046 113.403,-137.571 119.912,-145.93 123.704,-140.046"/>
</g>
<!-- Node4 -->
<g id="node7" class="node"><title>Node4</title>
<a xlink:href="../../db/db5/_string_8h.html" target="_top" xlink:title="gaia/base/String.h">
<polygon fill="white" stroke="black" points="230.5,-116.5 230.5,-137.5 325.5,-137.5 325.5,-116.5 230.5,-116.5"/>
<text text-anchor="middle" x="278" y="-124.5" font-family="Helvetica,sans-Serif" font-size="10.00">gaia/base/String.h</text>
</a>
</g>
<!-- Node1&#45;&gt;Node4 -->
<g id="edge6" class="edge"><title>Node1&#45;&gt;Node4</title>
<path fill="none" stroke="midnightblue" d="M203.691,-174.362C217.416,-165.614 237.084,-153.079 252.737,-143.101"/>
<polygon fill="midnightblue" stroke="midnightblue" points="254.863,-145.897 261.415,-137.571 251.101,-139.994 254.863,-145.897"/>
</g>
<!-- Node3 -->
<g id="node5" class="node"><title>Node3</title>
<polygon fill="white" stroke="#bfbfbf" points="82.5,-0.5 82.5,-21.5 131.5,-21.5 131.5,-0.5 82.5,-0.5"/>
<text text-anchor="middle" x="107" y="-8.5" font-family="Helvetica,sans-Serif" font-size="10.00">stdint.h</text>
</g>
<!-- Node2&#45;&gt;Node3 -->
<g id="edge4" class="edge"><title>Node2&#45;&gt;Node3</title>
<path fill="none" stroke="midnightblue" d="M90.6323,-116.22C83.4165,-102.62 73.3482,-78.53 79,-58 81.7108,-48.153 87.0846,-38.2859 92.4058,-30.1528"/>
<polygon fill="midnightblue" stroke="midnightblue" points="95.384,-32.0015 98.2467,-21.8007 89.6475,-27.9898 95.384,-32.0015"/>
</g>
<!-- Node5 -->
<g id="node9" class="node"><title>Node5</title>
<a xlink:href="../../d7/d97/_char_sequence_8h.html" target="_top" xlink:title="gaia/base/CharSequence.h">
<polygon fill="white" stroke="black" points="88,-58.5 88,-79.5 222,-79.5 222,-58.5 88,-58.5"/>
<text text-anchor="middle" x="155" y="-66.5" font-family="Helvetica,sans-Serif" font-size="10.00">gaia/base/CharSequence.h</text>
</a>
</g>
<!-- Node4&#45;&gt;Node5 -->
<g id="edge8" class="edge"><title>Node4&#45;&gt;Node5</title>
<path fill="none" stroke="midnightblue" d="M255.726,-116.497C236.428,-107.397 208.287,-94.1273 186.652,-83.9253"/>
<polygon fill="midnightblue" stroke="midnightblue" points="188.062,-80.7206 177.524,-79.6212 185.076,-87.052 188.062,-80.7206"/>
</g>
<!-- Node6 -->
<g id="node12" class="node"><title>Node6</title>
<a xlink:href="../../d6/d83/_hash_func_8h.html" target="_top" xlink:title="gaia/base/HashFunc.h">
<polygon fill="white" stroke="black" points="239.5,-58.5 239.5,-79.5 354.5,-79.5 354.5,-58.5 239.5,-58.5"/>
<text text-anchor="middle" x="297" y="-66.5" font-family="Helvetica,sans-Serif" font-size="10.00">gaia/base/HashFunc.h</text>
</a>
</g>
<!-- Node4&#45;&gt;Node6 -->
<g id="edge12" class="edge"><title>Node4&#45;&gt;Node6</title>
<path fill="none" stroke="midnightblue" d="M281.485,-116.362C283.976,-108.758 287.404,-98.294 290.404,-89.1349"/>
<polygon fill="midnightblue" stroke="midnightblue" points="293.75,-90.1634 293.537,-79.5707 287.098,-87.9841 293.75,-90.1634"/>
</g>
<!-- Node7 -->
<g id="node14" class="node"><title>Node7</title>
<polygon fill="white" stroke="#bfbfbf" points="305,-0.5 305,-21.5 373,-21.5 373,-0.5 305,-0.5"/>
<text text-anchor="middle" x="339" y="-8.5" font-family="Helvetica,sans-Serif" font-size="10.00">sys/types.h</text>
</g>
<!-- Node4&#45;&gt;Node7 -->
<g id="edge16" class="edge"><title>Node4&#45;&gt;Node7</title>
<path fill="none" stroke="midnightblue" d="M314.896,-116.414C332.755,-109.225 352.549,-97.7203 363,-80 372.284,-64.2581 363.513,-44.3769 354.071,-30.0035"/>
<polygon fill="midnightblue" stroke="midnightblue" points="356.915,-27.9635 348.26,-21.852 351.215,-32.0266 356.915,-27.9635"/>
</g>
<!-- Node5&#45;&gt;Node3 -->
<g id="edge10" class="edge"><title>Node5&#45;&gt;Node3</title>
<path fill="none" stroke="midnightblue" d="M146.196,-58.3619C139.498,-50.2678 130.116,-38.9318 122.211,-29.3796"/>
<polygon fill="midnightblue" stroke="midnightblue" points="124.82,-27.0431 115.748,-21.5707 119.427,-31.5061 124.82,-27.0431"/>
</g>
<!-- Node6&#45;&gt;Node7 -->
<g id="edge14" class="edge"><title>Node6&#45;&gt;Node7</title>
<path fill="none" stroke="midnightblue" d="M304.703,-58.3619C310.446,-50.4313 318.443,-39.3885 325.27,-29.9606"/>
<polygon fill="midnightblue" stroke="midnightblue" points="328.315,-31.7229 331.345,-21.5707 322.645,-27.6173 328.315,-31.7229"/>
</g>
</g>
</svg>
