<?xml version="1.0" encoding="UTF-8" standalone="no"?>
<!DOCTYPE svg PUBLIC "-//W3C//DTD SVG 1.1//EN"
 "http://www.w3.org/Graphics/SVG/1.1/DTD/svg11.dtd">
<!-- Generated by graphviz version 2.26.3 (20100126.1600)
 -->
<!-- Title: G Pages: 1 -->
<svg width="427pt" height="320pt"
 viewBox="0.00 0.00 427.00 320.00" xmlns="http://www.w3.org/2000/svg" xmlns:xlink="http://www.w3.org/1999/xlink">
<g id="graph1" class="graph" transform="scale(1 1) rotate(0) translate(4 316)">
<title>G</title>
<polygon fill="white" stroke="white" points="-4,5 -4,-316 424,-316 424,5 -4,5"/>
<!-- Node1 -->
<g id="node1" class="node"><title>Node1</title>
<polygon fill="#bfbfbf" stroke="black" points="107,-290.5 107,-311.5 419,-311.5 419,-290.5 107,-290.5"/>
<text text-anchor="middle" x="263" y="-298.5" font-family="Helvetica,sans-Serif" font-size="10.00">/home/vilon_tao/gaia/sdk/include/gaia/service/GLWallpaperEngine.h</text>
</g>
<!-- Node2 -->
<g id="node3" class="node"><title>Node2</title>
<a xlink:href="../../db/d42/_wallpaper_delegate_8h.html" target="_top" xlink:title="gaia/service/WallpaperDelegate.h">
<polygon fill="white" stroke="black" points="127.5,-232.5 127.5,-253.5 290.5,-253.5 290.5,-232.5 127.5,-232.5"/>
<text text-anchor="middle" x="209" y="-240.5" font-family="Helvetica,sans-Serif" font-size="10.00">gaia/service/WallpaperDelegate.h</text>
</a>
</g>
<!-- Node1&#45;&gt;Node2 -->
<g id="edge2" class="edge"><title>Node1&#45;&gt;Node2</title>
<path fill="none" stroke="midnightblue" d="M253.096,-290.362C245.484,-282.186 234.792,-270.702 225.843,-261.091"/>
<polygon fill="midnightblue" stroke="midnightblue" points="228.217,-258.505 218.842,-253.571 223.094,-263.275 228.217,-258.505"/>
</g>
<!-- Node6 -->
<g id="node11" class="node"><title>Node6</title>
<polygon fill="white" stroke="#bfbfbf" points="227,-0.5 227,-21.5 295,-21.5 295,-0.5 227,-0.5"/>
<text text-anchor="middle" x="261" y="-8.5" font-family="Helvetica,sans-Serif" font-size="10.00">sys/types.h</text>
</g>
<!-- Node1&#45;&gt;Node6 -->
<g id="edge18" class="edge"><title>Node1&#45;&gt;Node6</title>
<path fill="none" stroke="midnightblue" d="M273.201,-290.237C281.256,-281.203 292.231,-267.623 299,-254 313.154,-225.515 318,-216.808 318,-185 318,-185 318,-185 318,-127 318,-89.5289 293.746,-51.5841 276.88,-29.7281"/>
<polygon fill="midnightblue" stroke="midnightblue" points="279.396,-27.2705 270.412,-21.6538 273.933,-31.6467 279.396,-27.2705"/>
</g>
<!-- Node3 -->
<g id="node5" class="node"><title>Node3</title>
<a xlink:href="../../d9/dfd/_delegate_8h.html" target="_top" xlink:title="gaia/core/Delegate.h">
<polygon fill="white" stroke="black" points="145.5,-174.5 145.5,-195.5 252.5,-195.5 252.5,-174.5 145.5,-174.5"/>
<text text-anchor="middle" x="199" y="-182.5" font-family="Helvetica,sans-Serif" font-size="10.00">gaia/core/Delegate.h</text>
</a>
</g>
<!-- Node2&#45;&gt;Node3 -->
<g id="edge4" class="edge"><title>Node2&#45;&gt;Node3</title>
<path fill="none" stroke="midnightblue" d="M207.166,-232.362C205.869,-224.84 204.089,-214.519 202.523,-205.431"/>
<polygon fill="midnightblue" stroke="midnightblue" points="205.971,-204.831 200.823,-195.571 199.073,-206.02 205.971,-204.831"/>
</g>
<!-- Node2&#45;&gt;Node6 -->
<g id="edge16" class="edge"><title>Node2&#45;&gt;Node6</title>
<path fill="none" stroke="midnightblue" d="M227.095,-232.386C239.182,-224.167 254.085,-211.57 261,-196 285.466,-140.907 274.058,-67.1569 266.227,-31.7202"/>
<polygon fill="midnightblue" stroke="midnightblue" points="269.552,-30.5693 263.86,-21.6333 262.737,-32.1684 269.552,-30.5693"/>
</g>
<!-- Node4 -->
<g id="node7" class="node"><title>Node4</title>
<a xlink:href="../../db/dbd/_export_8h.html" target="_top" xlink:title="gaia/core/Export.h">
<polygon fill="white" stroke="black" points="118,-116.5 118,-137.5 214,-137.5 214,-116.5 118,-116.5"/>
<text text-anchor="middle" x="166" y="-124.5" font-family="Helvetica,sans-Serif" font-size="10.00">gaia/core/Export.h</text>
</a>
</g>
<!-- Node3&#45;&gt;Node4 -->
<g id="edge6" class="edge"><title>Node3&#45;&gt;Node4</title>
<path fill="none" stroke="midnightblue" d="M192.947,-174.362C188.528,-166.595 182.41,-155.843 177.121,-146.546"/>
<polygon fill="midnightblue" stroke="midnightblue" points="180.002,-144.531 172.014,-137.571 173.918,-147.993 180.002,-144.531"/>
</g>
<!-- Node3&#45;&gt;Node6 -->
<g id="edge14" class="edge"><title>Node3&#45;&gt;Node6</title>
<path fill="none" stroke="midnightblue" d="M205.098,-174.432C210.327,-165.071 217.816,-150.925 223,-138 237.627,-101.53 249.646,-57.2169 256.029,-31.7439"/>
<polygon fill="midnightblue" stroke="midnightblue" points="259.495,-32.3058 258.483,-21.7594 252.698,-30.635 259.495,-32.3058"/>
</g>
<!-- Node5 -->
<g id="node9" class="node"><title>Node5</title>
<a xlink:href="../../de/d8c/_component_loader_8h.html" target="_top" xlink:title="gaia/core/ComponentLoader.h">
<polygon fill="white" stroke="black" points="-0.5,-58.5 -0.5,-79.5 146.5,-79.5 146.5,-58.5 -0.5,-58.5"/>
<text text-anchor="middle" x="73" y="-66.5" font-family="Helvetica,sans-Serif" font-size="10.00">gaia/core/ComponentLoader.h</text>
</a>
</g>
<!-- Node4&#45;&gt;Node5 -->
<g id="edge8" class="edge"><title>Node4&#45;&gt;Node5</title>
<path fill="none" stroke="midnightblue" d="M148.942,-116.362C134.915,-107.614 114.816,-95.0786 98.8179,-85.1015"/>
<polygon fill="midnightblue" stroke="midnightblue" points="100.287,-81.8927 89.9495,-79.5707 96.5825,-87.8323 100.287,-81.8927"/>
</g>
<!-- Node7 -->
<g id="node13" class="node"><title>Node7</title>
<polygon fill="white" stroke="#bfbfbf" points="163.5,-58.5 163.5,-79.5 214.5,-79.5 214.5,-58.5 163.5,-58.5"/>
<text text-anchor="middle" x="189" y="-66.5" font-family="Helvetica,sans-Serif" font-size="10.00">typeinfo</text>
</g>
<!-- Node4&#45;&gt;Node7 -->
<g id="edge12" class="edge"><title>Node4&#45;&gt;Node7</title>
<path fill="none" stroke="midnightblue" d="M170.219,-116.362C173.234,-108.758 177.383,-98.294 181.015,-89.1349"/>
<polygon fill="midnightblue" stroke="midnightblue" points="184.375,-90.1567 184.808,-79.5707 177.868,-87.5762 184.375,-90.1567"/>
</g>
<!-- Node5&#45;&gt;Node6 -->
<g id="edge10" class="edge"><title>Node5&#45;&gt;Node6</title>
<path fill="none" stroke="midnightblue" d="M107.045,-58.4966C137.96,-48.9592 183.723,-34.8408 217.322,-24.475"/>
<polygon fill="midnightblue" stroke="midnightblue" points="218.367,-27.8156 226.891,-21.5231 216.303,-21.1267 218.367,-27.8156"/>
</g>
</g>
</svg>
