<?xml version="1.0" encoding="UTF-8" standalone="no"?>
<!DOCTYPE svg PUBLIC "-//W3C//DTD SVG 1.1//EN"
 "http://www.w3.org/Graphics/SVG/1.1/DTD/svg11.dtd">
<!-- Generated by graphviz version 2.26.3 (20100126.1600)
 -->
<!-- Title: G Pages: 1 -->
<svg width="270pt" height="162pt"
 viewBox="0.00 0.00 270.00 162.00" xmlns="http://www.w3.org/2000/svg" xmlns:xlink="http://www.w3.org/1999/xlink">
<g id="graph1" class="graph" transform="scale(1 1) rotate(0) translate(4 158)">
<title>G</title>
<polygon fill="white" stroke="white" points="-4,5 -4,-158 267,-158 267,5 -4,5"/>
<!-- Node1 -->
<g id="node1" class="node"><title>Node1</title>
<polygon fill="#bfbfbf" stroke="black" points="96.5,-0.5 96.5,-21.5 209.5,-21.5 209.5,-0.5 96.5,-0.5"/>
<text text-anchor="middle" x="153" y="-8.5" font-family="Helvetica,sans-Serif" font-size="10.00">gaia::net::HttpContext</text>
</g>
<!-- Node2 -->
<g id="node2" class="node"><title>Node2</title>
<a xlink:href="../../d2/ddb/classgaia_1_1base_1_1_string.html" target="_top" xlink:title="A String is represented by array of UTF&#45;16 values, such that Unicode supplementary characters (code p...">
<polygon fill="white" stroke="black" points="19.5,-72.5 19.5,-93.5 112.5,-93.5 112.5,-72.5 19.5,-72.5"/>
<text text-anchor="middle" x="66" y="-80.5" font-family="Helvetica,sans-Serif" font-size="10.00">gaia::base::String</text>
</a>
</g>
<!-- Node2&#45;&gt;Node1 -->
<g id="edge2" class="edge"><title>Node2&#45;&gt;Node1</title>
<path fill="none" stroke="#9a32cd" stroke-dasharray="5,2" d="M81.4502,-64.8609C88.7742,-56.7889 97.9,-47.4473 107,-40 115.329,-33.1839 125.362,-26.6875 133.929,-21.5779"/>
<polygon fill="#9a32cd" stroke="#9a32cd" points="78.7938,-62.5814 74.7945,-72.3924 84.0391,-67.2168 78.7938,-62.5814"/>
<text text-anchor="middle" x="136" y="-44.5" font-family="Helvetica,sans-Serif" font-size="10.00"> mUserAgent</text>
</g>
<!-- Node3 -->
<g id="node4" class="node"><title>Node3</title>
<a xlink:href="../../d1/d0f/classgaia_1_1base_1_1_char_sequence.html" target="_top" xlink:title="This interface represents an ordered set of characters and defines the methods to probe them...">
<polygon fill="white" stroke="black" points="0,-132.5 0,-153.5 132,-153.5 132,-132.5 0,-132.5"/>
<text text-anchor="middle" x="66" y="-140.5" font-family="Helvetica,sans-Serif" font-size="10.00">gaia::base::CharSequence</text>
</a>
</g>
<!-- Node3&#45;&gt;Node2 -->
<g id="edge4" class="edge"><title>Node3&#45;&gt;Node2</title>
<path fill="none" stroke="midnightblue" d="M66,-122.231C66,-112.592 66,-101.544 66,-93.6339"/>
<polygon fill="midnightblue" stroke="midnightblue" points="62.5001,-122.273 66,-132.273 69.5001,-122.273 62.5001,-122.273"/>
</g>
<!-- Node4 -->
<g id="node6" class="node"><title>Node4</title>
<a xlink:href="../../da/dac/classgaia_1_1net_1_1_cookie_manager.html" target="_top" xlink:title="The class CacheManager often use to store cookies.">
<polygon fill="white" stroke="black" points="130,-72.5 130,-93.5 258,-93.5 258,-72.5 130,-72.5"/>
<text text-anchor="middle" x="194" y="-80.5" font-family="Helvetica,sans-Serif" font-size="10.00">gaia::net::CookieManager</text>
</a>
</g>
<!-- Node4&#45;&gt;Node1 -->
<g id="edge6" class="edge"><title>Node4&#45;&gt;Node1</title>
<path fill="none" stroke="#9a32cd" stroke-dasharray="5,2" d="M182.85,-63.4193C175.193,-49.9734 165.322,-32.6384 159.075,-21.6674"/>
<polygon fill="#9a32cd" stroke="#9a32cd" points="179.96,-65.4182 187.95,-72.3762 186.043,-61.9543 179.96,-65.4182"/>
<text text-anchor="middle" x="219.5" y="-44.5" font-family="Helvetica,sans-Serif" font-size="10.00"> mpCookieManager</text>
</g>
</g>
</svg>
