<?xml version="1.0" encoding="UTF-8" standalone="no"?>
<!DOCTYPE svg PUBLIC "-//W3C//DTD SVG 1.1//EN"
 "http://www.w3.org/Graphics/SVG/1.1/DTD/svg11.dtd">
<!-- Generated by graphviz version 2.26.3 (20100126.1600)
 -->
<!-- Title: G Pages: 1 -->
<svg width="792pt" height="110pt"
 viewBox="0.00 0.00 792.00 110.00" xmlns="http://www.w3.org/2000/svg" xmlns:xlink="http://www.w3.org/1999/xlink">
<g id="graph1" class="graph" transform="scale(1 1) rotate(0) translate(4 106)">
<title>G</title>
<polygon fill="white" stroke="white" points="-4,5 -4,-106 789,-106 789,5 -4,5"/>
<!-- Node1 -->
<g id="node1" class="node"><title>Node1</title>
<polygon fill="#bfbfbf" stroke="black" points="668,-40.5 668,-61.5 784,-61.5 784,-40.5 668,-40.5"/>
<text text-anchor="middle" x="726" y="-48.5" font-family="Helvetica,sans-Serif" font-size="10.00">gaia::net::ClientSocket</text>
</g>
<!-- Node2 -->
<g id="node2" class="node"><title>Node2</title>
<a xlink:href="../../df/d12/classgaia_1_1net_1_1_i_client_socket_listener.html" target="_top" xlink:title="IClientSocketListener handles Socket callback.">
<polygon fill="white" stroke="black" points="394,-80.5 394,-101.5 548,-101.5 548,-80.5 394,-80.5"/>
<text text-anchor="middle" x="471" y="-88.5" font-family="Helvetica,sans-Serif" font-size="10.00">gaia::net::IClientSocketListener</text>
</a>
</g>
<!-- Node2&#45;&gt;Node1 -->
<g id="edge2" class="edge"><title>Node2&#45;&gt;Node1</title>
<path fill="none" stroke="#9a32cd" stroke-dasharray="5,2" d="M558.499,-81.3955C587.687,-77.7561 620.325,-73.2139 650,-68 660.387,-66.175 671.5,-63.8839 681.932,-61.5802"/>
<polygon fill="#9a32cd" stroke="#9a32cd" points="557.828,-77.9516 548.329,-82.6448 558.681,-84.8993 557.828,-77.9516"/>
<text text-anchor="middle" x="609" y="-83" font-family="Helvetica,sans-Serif" font-size="10.00"> mpListener</text>
</g>
<!-- Node3 -->
<g id="node4" class="node"><title>Node3</title>
<a xlink:href="../../d2/db0/classgaia_1_1base_1_1_array.html" target="_top" xlink:title="gaia::base::Array\&lt; IPEndPoint \&gt;">
<polygon fill="white" stroke="black" points="392,-40.5 392,-61.5 550,-61.5 550,-40.5 392,-40.5"/>
<text text-anchor="middle" x="471" y="-48.5" font-family="Helvetica,sans-Serif" font-size="10.00">gaia::base::Array&lt; IPEndPoint &gt;</text>
</a>
</g>
<!-- Node3&#45;&gt;Node1 -->
<g id="edge4" class="edge"><title>Node3&#45;&gt;Node1</title>
<path fill="none" stroke="#9a32cd" stroke-dasharray="5,2" d="M560.682,-51C596.254,-51 636.144,-51 667.827,-51"/>
<polygon fill="#9a32cd" stroke="#9a32cd" points="560.286,-47.5001 550.286,-51 560.286,-54.5001 560.286,-47.5001"/>
<text text-anchor="middle" x="609" y="-55" font-family="Helvetica,sans-Serif" font-size="10.00"> mpPeerEndPoints</text>
</g>
<!-- Node4 -->
<g id="node6" class="node"><title>Node4</title>
<a xlink:href="../../d2/d80/classgaia_1_1base_1_1_array_impl.html" target="_top" xlink:title="Implements array data structure and its operation methods.">
<polygon fill="white" stroke="black" points="0,-63.5 0,-84.5 110,-84.5 110,-63.5 0,-63.5"/>
<text text-anchor="middle" x="55" y="-71.5" font-family="Helvetica,sans-Serif" font-size="10.00">gaia::base::ArrayImpl</text>
</a>
</g>
<!-- Node4&#45;&gt;Node3 -->
<g id="edge6" class="edge"><title>Node4&#45;&gt;Node3</title>
<path fill="none" stroke="#8b1a1a" d="M120.255,-75.9898C184.869,-77.2036 286.532,-77.0773 374,-68 388.625,-66.4823 404.37,-64.0657 418.833,-61.5256"/>
<polygon fill="#8b1a1a" stroke="#8b1a1a" points="120.28,-72.4897 110.211,-75.7847 120.137,-79.4882 120.28,-72.4897"/>
</g>
<!-- Node5 -->
<g id="node8" class="node"><title>Node5</title>
<a xlink:href="../../d2/db0/classgaia_1_1base_1_1_array.html" target="_top" xlink:title="Implements array to replace C&#45;style array.">
<polygon fill="white" stroke="black" points="148.5,-40.5 148.5,-61.5 283.5,-61.5 283.5,-40.5 148.5,-40.5"/>
<text text-anchor="middle" x="216" y="-48.5" font-family="Helvetica,sans-Serif" font-size="10.00">gaia::base::Array&lt; TYPE &gt;</text>
</a>
</g>
<!-- Node4&#45;&gt;Node5 -->
<g id="edge10" class="edge"><title>Node4&#45;&gt;Node5</title>
<path fill="none" stroke="#8b1a1a" d="M120.571,-64.6328C129.696,-63.3292 139.086,-61.9877 148.25,-60.6786"/>
<polygon fill="#8b1a1a" stroke="#8b1a1a" points="119.812,-61.2056 110.407,-66.0847 120.802,-68.1352 119.812,-61.2056"/>
</g>
<!-- Node5&#45;&gt;Node3 -->
<g id="edge8" class="edge"><title>Node5&#45;&gt;Node3</title>
<path fill="none" stroke="orange" stroke-dasharray="5,2" d="M293.984,-51C324.972,-51 360.58,-51 391.697,-51"/>
<polygon fill="orange" stroke="orange" points="293.666,-47.5001 283.666,-51 293.666,-54.5001 293.666,-47.5001"/>
<text text-anchor="middle" x="338" y="-55" font-family="Helvetica,sans-Serif" font-size="10.00"> &lt; IPEndPoint &gt;</text>
</g>
<!-- Node6 -->
<g id="node11" class="node"><title>Node6</title>
<a xlink:href="../../db/d4c/classgaia_1_1net_1_1_i_p_end_point.html" target="_top" xlink:title="IPEndPoint describes an end point by IP and Port.">
<polygon fill="white" stroke="black" points="416,-0.5 416,-21.5 526,-21.5 526,-0.5 416,-0.5"/>
<text text-anchor="middle" x="471" y="-8.5" font-family="Helvetica,sans-Serif" font-size="10.00">gaia::net::IPEndPoint</text>
</a>
</g>
<!-- Node6&#45;&gt;Node1 -->
<g id="edge12" class="edge"><title>Node6&#45;&gt;Node1</title>
<path fill="none" stroke="#9a32cd" stroke-dasharray="5,2" d="M536.315,-17.926C570.325,-21.9026 612.525,-27.4156 650,-34 660.387,-35.825 671.5,-38.1161 681.932,-40.4198"/>
<polygon fill="#9a32cd" stroke="#9a32cd" points="536.372,-14.4095 526.038,-16.7418 535.571,-21.3635 536.372,-14.4095"/>
<text text-anchor="middle" x="609" y="-38" font-family="Helvetica,sans-Serif" font-size="10.00"> mpLocalEndPoint</text>
</g>
<!-- Node7 -->
<g id="node13" class="node"><title>Node7</title>
<a xlink:href="../../df/d81/classgaia_1_1net_1_1_i_p_address.html" target="_top" xlink:title="IPAddress holds address of generic IP model.">
<polygon fill="white" stroke="black" points="163,-0.5 163,-21.5 269,-21.5 269,-0.5 163,-0.5"/>
<text text-anchor="middle" x="216" y="-8.5" font-family="Helvetica,sans-Serif" font-size="10.00">gaia::net::IPAddress</text>
</a>
</g>
<!-- Node7&#45;&gt;Node6 -->
<g id="edge14" class="edge"><title>Node7&#45;&gt;Node6</title>
<path fill="none" stroke="#9a32cd" stroke-dasharray="5,2" d="M279.238,-11C321.131,-11 375.557,-11 415.719,-11"/>
<polygon fill="#9a32cd" stroke="#9a32cd" points="279.146,-7.5001 269.146,-11 279.146,-14.5001 279.146,-7.5001"/>
<text text-anchor="middle" x="338" y="-15" font-family="Helvetica,sans-Serif" font-size="10.00"> mpIPAddr</text>
</g>
</g>
</svg>
