<?xml version="1.0" encoding="UTF-8" standalone="no"?>
<!DOCTYPE svg PUBLIC "-//W3C//DTD SVG 1.1//EN"
 "http://www.w3.org/Graphics/SVG/1.1/DTD/svg11.dtd">
<!-- Generated by graphviz version 2.26.3 (20100126.1600)
 -->
<!-- Title: G Pages: 1 -->
<svg width="1943pt" height="146pt"
 viewBox="0.00 0.00 1943.00 146.00" xmlns="http://www.w3.org/2000/svg" xmlns:xlink="http://www.w3.org/1999/xlink">
<g id="graph1" class="graph" transform="scale(1 1) rotate(0) translate(4 142)">
<title>G</title>
<polygon fill="white" stroke="white" points="-4,5 -4,-142 1940,-142 1940,5 -4,5"/>
<!-- Node1 -->
<g id="node1" class="node"><title>Node1</title>
<polygon fill="#bfbfbf" stroke="black" points="803,-116.5 803,-137.5 1069,-137.5 1069,-116.5 803,-116.5"/>
<text text-anchor="middle" x="936" y="-124.5" font-family="Helvetica,sans-Serif" font-size="10.00">/home/vilon_tao/gaia/sdk/include/gaia/ui/AbsListWidget.h</text>
</g>
<!-- Node2 -->
<g id="node3" class="node"><title>Node2</title>
<a xlink:href="../../d4/da1/_auto_complete_edit_widget_8h.html" target="_top" xlink:title="/home/vilon_tao/gaia/sdk/include/gaia/ui/AutoCompleteEditWidget.h">
<polygon fill="white" stroke="black" points="0,-58.5 0,-79.5 312,-79.5 312,-58.5 0,-58.5"/>
<text text-anchor="middle" x="156" y="-66.5" font-family="Helvetica,sans-Serif" font-size="10.00">/home/vilon_tao/gaia/sdk/include/gaia/ui/AutoCompleteEditWidget.h</text>
</a>
</g>
<!-- Node1&#45;&gt;Node2 -->
<g id="edge2" class="edge"><title>Node1&#45;&gt;Node2</title>
<path fill="none" stroke="midnightblue" d="M792.772,-116.35C651.719,-105.861 437.573,-89.9375 297.219,-79.5009"/>
<polygon fill="midnightblue" stroke="midnightblue" points="792.567,-119.844 802.799,-117.095 793.087,-112.863 792.567,-119.844"/>
</g>
<!-- Node3 -->
<g id="node5" class="node"><title>Node3</title>
<a xlink:href="../../df/d36/_grid_widget_8h.html" target="_top" xlink:title="/home/vilon_tao/gaia/sdk/include/gaia/ui/GridWidget.h">
<polygon fill="white" stroke="black" points="329.5,-58.5 329.5,-79.5 580.5,-79.5 580.5,-58.5 329.5,-58.5"/>
<text text-anchor="middle" x="455" y="-66.5" font-family="Helvetica,sans-Serif" font-size="10.00">/home/vilon_tao/gaia/sdk/include/gaia/ui/GridWidget.h</text>
</a>
</g>
<!-- Node1&#45;&gt;Node3 -->
<g id="edge4" class="edge"><title>Node1&#45;&gt;Node3</title>
<path fill="none" stroke="midnightblue" d="M838.771,-115.276C751.946,-104.806 625.917,-89.6095 542.269,-79.5231"/>
<polygon fill="midnightblue" stroke="midnightblue" points="838.547,-118.774 848.895,-116.497 839.385,-111.825 838.547,-118.774"/>
</g>
<!-- Node4 -->
<g id="node7" class="node"><title>Node4</title>
<a xlink:href="../../dd/dc5/_i_gallery_on_item_click_listener_8h.html" target="_top" xlink:title="/home/vilon_tao/gaia/sdk/include/gaia/ui/IGalleryOnItemClickListener.h">
<polygon fill="white" stroke="black" points="597.5,-58.5 597.5,-79.5 922.5,-79.5 922.5,-58.5 597.5,-58.5"/>
<text text-anchor="middle" x="760" y="-66.5" font-family="Helvetica,sans-Serif" font-size="10.00">/home/vilon_tao/gaia/sdk/include/gaia/ui/IGalleryOnItemClickListener.h</text>
</a>
</g>
<!-- Node1&#45;&gt;Node4 -->
<g id="edge6" class="edge"><title>Node1&#45;&gt;Node4</title>
<path fill="none" stroke="midnightblue" d="M894.363,-113.279C863.002,-102.944 820.644,-88.9849 791.932,-79.5231"/>
<polygon fill="midnightblue" stroke="midnightblue" points="893.535,-116.691 904.128,-116.497 895.726,-110.043 893.535,-116.691"/>
</g>
<!-- Node5 -->
<g id="node9" class="node"><title>Node5</title>
<a xlink:href="../../dd/dca/_i_gallery_on_item_long_click_listener_8h.html" target="_top" xlink:title="/home/vilon_tao/gaia/sdk/include/gaia/ui/IGalleryOnItemLongClickListener.h">
<polygon fill="white" stroke="black" points="940,-58.5 940,-79.5 1286,-79.5 1286,-58.5 940,-58.5"/>
<text text-anchor="middle" x="1113" y="-66.5" font-family="Helvetica,sans-Serif" font-size="10.00">/home/vilon_tao/gaia/sdk/include/gaia/ui/IGalleryOnItemLongClickListener.h</text>
</a>
</g>
<!-- Node1&#45;&gt;Node5 -->
<g id="edge8" class="edge"><title>Node1&#45;&gt;Node5</title>
<path fill="none" stroke="midnightblue" d="M977.874,-113.279C1009.41,-102.944 1052.01,-88.9849 1080.89,-79.5231"/>
<polygon fill="midnightblue" stroke="midnightblue" points="976.466,-110.057 968.053,-116.497 978.646,-116.709 976.466,-110.057"/>
</g>
<!-- Node6 -->
<g id="node11" class="node"><title>Node6</title>
<a xlink:href="../../d5/da5/_i_gallery_on_item_selected_listener_8h.html" target="_top" xlink:title="/home/vilon_tao/gaia/sdk/include/gaia/ui/IGalleryOnItemSelectedListener.h">
<polygon fill="white" stroke="black" points="1303.5,-58.5 1303.5,-79.5 1644.5,-79.5 1644.5,-58.5 1303.5,-58.5"/>
<text text-anchor="middle" x="1474" y="-66.5" font-family="Helvetica,sans-Serif" font-size="10.00">/home/vilon_tao/gaia/sdk/include/gaia/ui/IGalleryOnItemSelectedListener.h</text>
</a>
</g>
<!-- Node1&#45;&gt;Node6 -->
<g id="edge10" class="edge"><title>Node1&#45;&gt;Node6</title>
<path fill="none" stroke="midnightblue" d="M1043.57,-115.403C1140.72,-104.93 1282.45,-89.6505 1376.39,-79.5231"/>
<polygon fill="midnightblue" stroke="midnightblue" points="1042.99,-111.945 1033.43,-116.497 1043.75,-118.905 1042.99,-111.945"/>
</g>
<!-- Node7 -->
<g id="node13" class="node"><title>Node7</title>
<a xlink:href="../../da/d6c/_list_widget_8h.html" target="_top" xlink:title="/home/vilon_tao/gaia/sdk/include/gaia/ui/ListWidget.h">
<polygon fill="white" stroke="black" points="1662,-58.5 1662,-79.5 1910,-79.5 1910,-58.5 1662,-58.5"/>
<text text-anchor="middle" x="1786" y="-66.5" font-family="Helvetica,sans-Serif" font-size="10.00">/home/vilon_tao/gaia/sdk/include/gaia/ui/ListWidget.h</text>
</a>
</g>
<!-- Node1&#45;&gt;Node7 -->
<g id="edge12" class="edge"><title>Node1&#45;&gt;Node7</title>
<path fill="none" stroke="midnightblue" d="M1079.46,-118.318C1224.24,-109.386 1454.21,-94.7348 1653,-80 1655.89,-79.7859 1658.81,-79.5665 1661.76,-79.3428"/>
<polygon fill="midnightblue" stroke="midnightblue" points="1078.95,-114.843 1069.18,-118.951 1079.38,-121.83 1078.95,-114.843"/>
</g>
<!-- Node8 -->
<g id="node15" class="node"><title>Node8</title>
<a xlink:href="../../d4/d88/_expandable_list_widget_8h.html" target="_top" xlink:title="/home/vilon_tao/gaia/sdk/include/gaia/ui/ExpandableListWidget.h">
<polygon fill="white" stroke="black" points="1636.5,-0.5 1636.5,-21.5 1935.5,-21.5 1935.5,-0.5 1636.5,-0.5"/>
<text text-anchor="middle" x="1786" y="-8.5" font-family="Helvetica,sans-Serif" font-size="10.00">/home/vilon_tao/gaia/sdk/include/gaia/ui/ExpandableListWidget.h</text>
</a>
</g>
<!-- Node7&#45;&gt;Node8 -->
<g id="edge14" class="edge"><title>Node7&#45;&gt;Node8</title>
<path fill="none" stroke="midnightblue" d="M1786,-48.1906C1786,-39.1684 1786,-28.9941 1786,-21.5707"/>
<polygon fill="midnightblue" stroke="midnightblue" points="1782.5,-48.3619 1786,-58.3619 1789.5,-48.3619 1782.5,-48.3619"/>
</g>
</g>
</svg>
