<?xml version="1.0" encoding="UTF-8" standalone="no"?>
<!DOCTYPE svg PUBLIC "-//W3C//DTD SVG 1.1//EN"
 "http://www.w3.org/Graphics/SVG/1.1/DTD/svg11.dtd">
<!-- Generated by graphviz version 2.26.3 (20100126.1600)
 -->
<!-- Title: G Pages: 1 -->
<svg width="356pt" height="146pt"
 viewBox="0.00 0.00 356.00 146.00" xmlns="http://www.w3.org/2000/svg" xmlns:xlink="http://www.w3.org/1999/xlink">
<g id="graph1" class="graph" transform="scale(1 1) rotate(0) translate(4 142)">
<title>G</title>
<polygon fill="white" stroke="white" points="-4,5 -4,-142 353,-142 353,5 -4,5"/>
<!-- Node1 -->
<g id="node1" class="node"><title>Node1</title>
<polygon fill="#bfbfbf" stroke="black" points="0,-116.5 0,-137.5 348,-137.5 348,-116.5 0,-116.5"/>
<text text-anchor="middle" x="174" y="-124.5" font-family="Helvetica,sans-Serif" font-size="10.00">/home/vilon_tao/gaia/sdk/include/gaia/connectivity/bluetooth/BluetoothPan.h</text>
</g>
<!-- Node2 -->
<g id="node3" class="node"><title>Node2</title>
<polygon fill="white" stroke="#bfbfbf" points="34.5,-0.5 34.5,-21.5 83.5,-21.5 83.5,-0.5 34.5,-0.5"/>
<text text-anchor="middle" x="59" y="-8.5" font-family="Helvetica,sans-Serif" font-size="10.00">stdint.h</text>
</g>
<!-- Node1&#45;&gt;Node2 -->
<g id="edge2" class="edge"><title>Node1&#45;&gt;Node2</title>
<path fill="none" stroke="midnightblue" d="M113.141,-116.465C92.4211,-109.653 71.3858,-98.4423 59,-80 49.6331,-66.0527 50.5295,-46.6778 53.2551,-32.0084"/>
<polygon fill="midnightblue" stroke="midnightblue" points="56.7547,-32.4026 55.5563,-21.8757 49.9285,-30.8523 56.7547,-32.4026"/>
</g>
<!-- Node3 -->
<g id="node5" class="node"><title>Node3</title>
<a xlink:href="../../d1/dd0/gmacros_8h.html" target="_top" xlink:title="gaia/base/gmacros.h">
<polygon fill="white" stroke="black" points="187.5,-0.5 187.5,-21.5 294.5,-21.5 294.5,-0.5 187.5,-0.5"/>
<text text-anchor="middle" x="241" y="-8.5" font-family="Helvetica,sans-Serif" font-size="10.00">gaia/base/gmacros.h</text>
</a>
</g>
<!-- Node1&#45;&gt;Node3 -->
<g id="edge4" class="edge"><title>Node1&#45;&gt;Node3</title>
<path fill="none" stroke="midnightblue" d="M234.859,-116.465C255.579,-109.653 276.614,-98.4423 289,-80 301.026,-62.0937 283.162,-41.862 265.916,-27.9598"/>
<polygon fill="midnightblue" stroke="midnightblue" points="267.716,-24.9327 257.632,-21.6815 263.488,-30.5114 267.716,-24.9327"/>
</g>
<!-- Node4 -->
<g id="node7" class="node"><title>Node4</title>
<a xlink:href="../../d6/dcc/_bluetooth_profile_8h.html" target="_top" xlink:title="gaia/connectivity/bluetooth/BluetoothProfile.h">
<polygon fill="white" stroke="black" points="67.5,-58.5 67.5,-79.5 280.5,-79.5 280.5,-58.5 67.5,-58.5"/>
<text text-anchor="middle" x="174" y="-66.5" font-family="Helvetica,sans-Serif" font-size="10.00">gaia/connectivity/bluetooth/BluetoothProfile.h</text>
</a>
</g>
<!-- Node1&#45;&gt;Node4 -->
<g id="edge6" class="edge"><title>Node1&#45;&gt;Node4</title>
<path fill="none" stroke="midnightblue" d="M174,-116.362C174,-108.922 174,-98.7427 174,-89.7276"/>
<polygon fill="midnightblue" stroke="midnightblue" points="177.5,-89.5706 174,-79.5707 170.5,-89.5707 177.5,-89.5706"/>
</g>
<!-- Node4&#45;&gt;Node2 -->
<g id="edge8" class="edge"><title>Node4&#45;&gt;Node2</title>
<path fill="none" stroke="midnightblue" d="M153.174,-58.4966C135.294,-49.4786 109.293,-36.3649 89.139,-26.2006"/>
<polygon fill="midnightblue" stroke="midnightblue" points="90.5641,-22.9994 80.0593,-21.6212 87.4119,-29.2495 90.5641,-22.9994"/>
</g>
<!-- Node4&#45;&gt;Node3 -->
<g id="edge10" class="edge"><title>Node4&#45;&gt;Node3</title>
<path fill="none" stroke="midnightblue" d="M186.289,-58.3619C196.017,-49.9408 209.798,-38.0105 221.095,-28.2308"/>
<polygon fill="midnightblue" stroke="midnightblue" points="223.519,-30.7619 228.789,-21.5707 218.938,-25.4695 223.519,-30.7619"/>
</g>
</g>
</svg>
