<?xml version="1.0" encoding="UTF-8" standalone="no"?>
<!DOCTYPE svg PUBLIC "-//W3C//DTD SVG 1.1//EN"
 "http://www.w3.org/Graphics/SVG/1.1/DTD/svg11.dtd">
<!-- Generated by graphviz version 2.26.3 (20100126.1600)
 -->
<!-- Title: G Pages: 1 -->
<svg width="562pt" height="320pt"
 viewBox="0.00 0.00 562.00 320.00" xmlns="http://www.w3.org/2000/svg" xmlns:xlink="http://www.w3.org/1999/xlink">
<g id="graph1" class="graph" transform="scale(1 1) rotate(0) translate(4 316)">
<title>G</title>
<polygon fill="white" stroke="white" points="-4,5 -4,-316 559,-316 559,5 -4,5"/>
<!-- Node1 -->
<g id="node1" class="node"><title>Node1</title>
<polygon fill="#bfbfbf" stroke="black" points="-0.5,-290.5 -0.5,-311.5 324.5,-311.5 324.5,-290.5 -0.5,-290.5"/>
<text text-anchor="middle" x="162" y="-298.5" font-family="Helvetica,sans-Serif" font-size="10.00">/home/vilon_tao/gaia/sdk/include/gaia/ui/IGalleryOnItemClickListener.h</text>
</g>
<!-- Node2 -->
<g id="node3" class="node"><title>Node2</title>
<a xlink:href="../../d1/d14/_abs_list_widget_8h.html" target="_top" xlink:title="gaia/ui/AbsListWidget.h">
<polygon fill="white" stroke="black" points="162,-232.5 162,-253.5 282,-253.5 282,-232.5 162,-232.5"/>
<text text-anchor="middle" x="222" y="-240.5" font-family="Helvetica,sans-Serif" font-size="10.00">gaia/ui/AbsListWidget.h</text>
</a>
</g>
<!-- Node1&#45;&gt;Node2 -->
<g id="edge2" class="edge"><title>Node1&#45;&gt;Node2</title>
<path fill="none" stroke="midnightblue" d="M173.005,-290.362C181.547,-282.104 193.58,-270.472 203.583,-260.803"/>
<polygon fill="midnightblue" stroke="midnightblue" points="206.308,-263.037 211.065,-253.571 201.442,-258.004 206.308,-263.037"/>
</g>
<!-- Node6 -->
<g id="node11" class="node"><title>Node6</title>
<a xlink:href="../../d4/d75/_widget_8h.html" target="_top" xlink:title="gaia/core/vision/Widget.h">
<polygon fill="white" stroke="black" points="179.5,-116.5 179.5,-137.5 306.5,-137.5 306.5,-116.5 179.5,-116.5"/>
<text text-anchor="middle" x="243" y="-124.5" font-family="Helvetica,sans-Serif" font-size="10.00">gaia/core/vision/Widget.h</text>
</a>
</g>
<!-- Node1&#45;&gt;Node6 -->
<g id="edge26" class="edge"><title>Node1&#45;&gt;Node6</title>
<path fill="none" stroke="midnightblue" d="M158.127,-290.346C150.372,-267.003 135.665,-210.516 160,-174 169.582,-159.621 185.142,-149.156 200.215,-141.802"/>
<polygon fill="midnightblue" stroke="midnightblue" points="201.806,-144.924 209.479,-137.618 198.925,-138.545 201.806,-144.924"/>
</g>
<!-- Node3 -->
<g id="node5" class="node"><title>Node3</title>
<a xlink:href="../../d6/d52/_widget_controller_8h.html" target="_top" xlink:title="gaia/core/vision/WidgetController.h">
<polygon fill="white" stroke="black" points="168.5,-174.5 168.5,-195.5 337.5,-195.5 337.5,-174.5 168.5,-174.5"/>
<text text-anchor="middle" x="253" y="-182.5" font-family="Helvetica,sans-Serif" font-size="10.00">gaia/core/vision/WidgetController.h</text>
</a>
</g>
<!-- Node2&#45;&gt;Node3 -->
<g id="edge4" class="edge"><title>Node2&#45;&gt;Node3</title>
<path fill="none" stroke="midnightblue" d="M227.686,-232.362C231.837,-224.595 237.584,-213.843 242.553,-204.546"/>
<polygon fill="midnightblue" stroke="midnightblue" points="245.723,-206.04 247.35,-195.571 239.55,-202.74 245.723,-206.04"/>
</g>
<!-- Node7 -->
<g id="node13" class="node"><title>Node7</title>
<a xlink:href="../../d1/dd0/gmacros_8h.html" target="_top" xlink:title="gaia/base/gmacros.h">
<polygon fill="white" stroke="black" points="44.5,-58.5 44.5,-79.5 151.5,-79.5 151.5,-58.5 44.5,-58.5"/>
<text text-anchor="middle" x="98" y="-66.5" font-family="Helvetica,sans-Serif" font-size="10.00">gaia/base/gmacros.h</text>
</a>
</g>
<!-- Node2&#45;&gt;Node7 -->
<g id="edge22" class="edge"><title>Node2&#45;&gt;Node7</title>
<path fill="none" stroke="midnightblue" d="M203.595,-232.333C190.175,-223.836 172.267,-210.919 160,-196 132.882,-163.019 113.982,-116.191 104.659,-89.5823"/>
<polygon fill="midnightblue" stroke="midnightblue" points="107.877,-88.1733 101.354,-79.8245 101.247,-90.4188 107.877,-88.1733"/>
</g>
<!-- Node11 -->
<g id="node23" class="node"><title>Node11</title>
<polygon fill="white" stroke="#bfbfbf" points="355,-174.5 355,-195.5 403,-195.5 403,-174.5 355,-174.5"/>
<text text-anchor="middle" x="379" y="-182.5" font-family="Helvetica,sans-Serif" font-size="10.00">limits.h</text>
</g>
<!-- Node2&#45;&gt;Node11 -->
<g id="edge24" class="edge"><title>Node2&#45;&gt;Node11</title>
<path fill="none" stroke="midnightblue" d="M250.432,-232.497C277.149,-222.627 317.147,-207.85 345.423,-197.404"/>
<polygon fill="midnightblue" stroke="midnightblue" points="346.727,-200.654 354.895,-193.905 344.301,-194.087 346.727,-200.654"/>
</g>
<!-- Node4 -->
<g id="node7" class="node"><title>Node4</title>
<a xlink:href="../../d3/dd0/_event_control_8h.html" target="_top" xlink:title="gaia/core/event/EventControl.h">
<polygon fill="white" stroke="black" points="402,-116.5 402,-137.5 554,-137.5 554,-116.5 402,-116.5"/>
<text text-anchor="middle" x="478" y="-124.5" font-family="Helvetica,sans-Serif" font-size="10.00">gaia/core/event/EventControl.h</text>
</a>
</g>
<!-- Node3&#45;&gt;Node4 -->
<g id="edge6" class="edge"><title>Node3&#45;&gt;Node4</title>
<path fill="none" stroke="midnightblue" d="M293.746,-174.497C331.221,-164.836 386.927,-150.477 427.272,-140.077"/>
<polygon fill="midnightblue" stroke="midnightblue" points="428.368,-143.409 437.178,-137.523 426.621,-136.63 428.368,-143.409"/>
</g>
<!-- Node3&#45;&gt;Node6 -->
<g id="edge10" class="edge"><title>Node3&#45;&gt;Node6</title>
<path fill="none" stroke="midnightblue" d="M251.166,-174.362C249.869,-166.84 248.089,-156.519 246.523,-147.431"/>
<polygon fill="midnightblue" stroke="midnightblue" points="249.971,-146.831 244.823,-137.571 243.073,-148.02 249.971,-146.831"/>
</g>
<!-- Node5 -->
<g id="node9" class="node"><title>Node5</title>
<polygon fill="white" stroke="#bfbfbf" points="460,-0.5 460,-21.5 528,-21.5 528,-0.5 460,-0.5"/>
<text text-anchor="middle" x="494" y="-8.5" font-family="Helvetica,sans-Serif" font-size="10.00">sys/types.h</text>
</g>
<!-- Node4&#45;&gt;Node5 -->
<g id="edge8" class="edge"><title>Node4&#45;&gt;Node5</title>
<path fill="none" stroke="midnightblue" d="M499.998,-116.365C513.68,-108.433 530.122,-96.1794 538,-80 547.057,-61.3995 531.575,-41.6344 516.539,-28.0479"/>
<polygon fill="midnightblue" stroke="midnightblue" points="518.745,-25.3297 508.849,-21.5451 514.225,-30.6748 518.745,-25.3297"/>
</g>
<!-- Node6&#45;&gt;Node7 -->
<g id="edge12" class="edge"><title>Node6&#45;&gt;Node7</title>
<path fill="none" stroke="midnightblue" d="M216.742,-116.497C193.584,-107.234 159.625,-93.6499 133.948,-83.3793"/>
<polygon fill="midnightblue" stroke="midnightblue" points="135.138,-80.0855 124.553,-79.6212 132.538,-86.5849 135.138,-80.0855"/>
</g>
<!-- Node8 -->
<g id="node15" class="node"><title>Node8</title>
<a xlink:href="../../d0/d92/_property_animatable_8h.html" target="_top" xlink:title="gaia/core/animator/PropertyAnimatable.h">
<polygon fill="white" stroke="black" points="335,-58.5 335,-79.5 529,-79.5 529,-58.5 335,-58.5"/>
<text text-anchor="middle" x="432" y="-66.5" font-family="Helvetica,sans-Serif" font-size="10.00">gaia/core/animator/PropertyAnimatable.h</text>
</a>
</g>
<!-- Node6&#45;&gt;Node8 -->
<g id="edge14" class="edge"><title>Node6&#45;&gt;Node8</title>
<path fill="none" stroke="midnightblue" d="M277.226,-116.497C308.305,-106.959 354.312,-92.8408 388.09,-82.475"/>
<polygon fill="midnightblue" stroke="midnightblue" points="389.176,-85.8029 397.709,-79.5231 387.123,-79.1109 389.176,-85.8029"/>
</g>
<!-- Node9 -->
<g id="node18" class="node"><title>Node9</title>
<a xlink:href="../../d8/d50/_widget_core_8h.html" target="_top" xlink:title="gaia/core/vision/WidgetCore.h">
<polygon fill="white" stroke="black" points="169,-58.5 169,-79.5 317,-79.5 317,-58.5 169,-58.5"/>
<text text-anchor="middle" x="243" y="-66.5" font-family="Helvetica,sans-Serif" font-size="10.00">gaia/core/vision/WidgetCore.h</text>
</a>
</g>
<!-- Node6&#45;&gt;Node9 -->
<g id="edge18" class="edge"><title>Node6&#45;&gt;Node9</title>
<path fill="none" stroke="midnightblue" d="M243,-116.362C243,-108.922 243,-98.7427 243,-89.7276"/>
<polygon fill="midnightblue" stroke="midnightblue" points="246.5,-89.5706 243,-79.5707 239.5,-89.5707 246.5,-89.5706"/>
</g>
<!-- Node8&#45;&gt;Node5 -->
<g id="edge16" class="edge"><title>Node8&#45;&gt;Node5</title>
<path fill="none" stroke="midnightblue" d="M443.372,-58.3619C452.286,-50.0226 464.879,-38.2418 475.276,-28.5162"/>
<polygon fill="midnightblue" stroke="midnightblue" points="477.789,-30.9582 482.7,-21.5707 473.007,-25.8463 477.789,-30.9582"/>
</g>
<!-- Node10 -->
<g id="node20" class="node"><title>Node10</title>
<polygon fill="white" stroke="#bfbfbf" points="218.5,-0.5 218.5,-21.5 267.5,-21.5 267.5,-0.5 218.5,-0.5"/>
<text text-anchor="middle" x="243" y="-8.5" font-family="Helvetica,sans-Serif" font-size="10.00">stdint.h</text>
</g>
<!-- Node9&#45;&gt;Node10 -->
<g id="edge20" class="edge"><title>Node9&#45;&gt;Node10</title>
<path fill="none" stroke="midnightblue" d="M243,-58.3619C243,-50.9219 243,-40.7427 243,-31.7276"/>
<polygon fill="midnightblue" stroke="midnightblue" points="246.5,-31.5706 243,-21.5707 239.5,-31.5707 246.5,-31.5706"/>
</g>
</g>
</svg>
