<?xml version="1.0" encoding="UTF-8" standalone="no"?>
<!DOCTYPE svg PUBLIC "-//W3C//DTD SVG 1.1//EN"
 "http://www.w3.org/Graphics/SVG/1.1/DTD/svg11.dtd">
<!-- Generated by graphviz version 2.26.3 (20100126.1600)
 -->
<!-- Title: G Pages: 1 -->
<svg width="550pt" height="262pt"
 viewBox="0.00 0.00 550.00 262.00" xmlns="http://www.w3.org/2000/svg" xmlns:xlink="http://www.w3.org/1999/xlink">
<g id="graph1" class="graph" transform="scale(1 1) rotate(0) translate(4 258)">
<title>G</title>
<polygon fill="white" stroke="white" points="-4,5 -4,-258 547,-258 547,5 -4,5"/>
<!-- Node1 -->
<g id="node1" class="node"><title>Node1</title>
<polygon fill="#bfbfbf" stroke="black" points="37,-232.5 37,-253.5 295,-253.5 295,-232.5 37,-232.5"/>
<text text-anchor="middle" x="166" y="-240.5" font-family="Helvetica,sans-Serif" font-size="10.00">/home/vilon_tao/gaia/sdk/include/gaia/ui/FooterButton.h</text>
</g>
<!-- Node2 -->
<g id="node3" class="node"><title>Node2</title>
<a xlink:href="../../d8/d13/_text_widget_8h.html" target="_top" xlink:title="gaia/ui/TextWidget.h">
<polygon fill="white" stroke="black" points="112.5,-174.5 112.5,-195.5 219.5,-195.5 219.5,-174.5 112.5,-174.5"/>
<text text-anchor="middle" x="166" y="-182.5" font-family="Helvetica,sans-Serif" font-size="10.00">gaia/ui/TextWidget.h</text>
</a>
</g>
<!-- Node1&#45;&gt;Node2 -->
<g id="edge2" class="edge"><title>Node1&#45;&gt;Node2</title>
<path fill="none" stroke="midnightblue" d="M166,-232.362C166,-224.922 166,-214.743 166,-205.728"/>
<polygon fill="midnightblue" stroke="midnightblue" points="169.5,-205.571 166,-195.571 162.5,-205.571 169.5,-205.571"/>
</g>
<!-- Node3 -->
<g id="node5" class="node"><title>Node3</title>
<a xlink:href="../../d3/dd0/_event_control_8h.html" target="_top" xlink:title="gaia/core/event/EventControl.h">
<polygon fill="white" stroke="black" points="0,-116.5 0,-137.5 152,-137.5 152,-116.5 0,-116.5"/>
<text text-anchor="middle" x="76" y="-124.5" font-family="Helvetica,sans-Serif" font-size="10.00">gaia/core/event/EventControl.h</text>
</a>
</g>
<!-- Node2&#45;&gt;Node3 -->
<g id="edge4" class="edge"><title>Node2&#45;&gt;Node3</title>
<path fill="none" stroke="midnightblue" d="M149.493,-174.362C135.918,-165.614 116.467,-153.079 100.985,-143.101"/>
<polygon fill="midnightblue" stroke="midnightblue" points="102.704,-140.046 92.4027,-137.571 98.9125,-145.93 102.704,-140.046"/>
</g>
<!-- Node5 -->
<g id="node9" class="node"><title>Node5</title>
<a xlink:href="../../d4/d75/_widget_8h.html" target="_top" xlink:title="gaia/core/vision/Widget.h">
<polygon fill="white" stroke="black" points="192.5,-116.5 192.5,-137.5 319.5,-137.5 319.5,-116.5 192.5,-116.5"/>
<text text-anchor="middle" x="256" y="-124.5" font-family="Helvetica,sans-Serif" font-size="10.00">gaia/core/vision/Widget.h</text>
</a>
</g>
<!-- Node2&#45;&gt;Node5 -->
<g id="edge8" class="edge"><title>Node2&#45;&gt;Node5</title>
<path fill="none" stroke="midnightblue" d="M182.507,-174.362C196.082,-165.614 215.533,-153.079 231.015,-143.101"/>
<polygon fill="midnightblue" stroke="midnightblue" points="233.088,-145.93 239.597,-137.571 229.296,-140.046 233.088,-145.93"/>
</g>
<!-- Node4 -->
<g id="node7" class="node"><title>Node4</title>
<polygon fill="white" stroke="#bfbfbf" points="120,-0.5 120,-21.5 188,-21.5 188,-0.5 120,-0.5"/>
<text text-anchor="middle" x="154" y="-8.5" font-family="Helvetica,sans-Serif" font-size="10.00">sys/types.h</text>
</g>
<!-- Node3&#45;&gt;Node4 -->
<g id="edge6" class="edge"><title>Node3&#45;&gt;Node4</title>
<path fill="none" stroke="midnightblue" d="M65.7176,-116.079C53.6758,-101.91 36.8282,-76.7839 49,-58 62.529,-37.1216 87.7525,-25.4335 110.086,-18.9352"/>
<polygon fill="midnightblue" stroke="midnightblue" points="110.99,-22.3166 119.764,-16.3783 109.202,-15.5488 110.99,-22.3166"/>
</g>
<!-- Node6 -->
<g id="node11" class="node"><title>Node6</title>
<a xlink:href="../../d1/dd0/gmacros_8h.html" target="_top" xlink:title="gaia/base/gmacros.h">
<polygon fill="white" stroke="black" points="57.5,-58.5 57.5,-79.5 164.5,-79.5 164.5,-58.5 57.5,-58.5"/>
<text text-anchor="middle" x="111" y="-66.5" font-family="Helvetica,sans-Serif" font-size="10.00">gaia/base/gmacros.h</text>
</a>
</g>
<!-- Node5&#45;&gt;Node6 -->
<g id="edge10" class="edge"><title>Node5&#45;&gt;Node6</title>
<path fill="none" stroke="midnightblue" d="M229.742,-116.497C206.584,-107.234 172.625,-93.6499 146.948,-83.3793"/>
<polygon fill="midnightblue" stroke="midnightblue" points="148.138,-80.0855 137.553,-79.6212 145.538,-86.5849 148.138,-80.0855"/>
</g>
<!-- Node7 -->
<g id="node13" class="node"><title>Node7</title>
<a xlink:href="../../d0/d92/_property_animatable_8h.html" target="_top" xlink:title="gaia/core/animator/PropertyAnimatable.h">
<polygon fill="white" stroke="black" points="182,-58.5 182,-79.5 376,-79.5 376,-58.5 182,-58.5"/>
<text text-anchor="middle" x="279" y="-66.5" font-family="Helvetica,sans-Serif" font-size="10.00">gaia/core/animator/PropertyAnimatable.h</text>
</a>
</g>
<!-- Node5&#45;&gt;Node7 -->
<g id="edge12" class="edge"><title>Node5&#45;&gt;Node7</title>
<path fill="none" stroke="midnightblue" d="M260.219,-116.362C263.234,-108.758 267.383,-98.294 271.015,-89.1349"/>
<polygon fill="midnightblue" stroke="midnightblue" points="274.375,-90.1567 274.808,-79.5707 267.868,-87.5762 274.375,-90.1567"/>
</g>
<!-- Node8 -->
<g id="node16" class="node"><title>Node8</title>
<a xlink:href="../../d8/d50/_widget_core_8h.html" target="_top" xlink:title="gaia/core/vision/WidgetCore.h">
<polygon fill="white" stroke="black" points="394,-58.5 394,-79.5 542,-79.5 542,-58.5 394,-58.5"/>
<text text-anchor="middle" x="468" y="-66.5" font-family="Helvetica,sans-Serif" font-size="10.00">gaia/core/vision/WidgetCore.h</text>
</a>
</g>
<!-- Node5&#45;&gt;Node8 -->
<g id="edge16" class="edge"><title>Node5&#45;&gt;Node8</title>
<path fill="none" stroke="midnightblue" d="M294.392,-116.497C329.552,-106.877 381.745,-92.5981 419.719,-82.209"/>
<polygon fill="midnightblue" stroke="midnightblue" points="420.814,-85.5379 429.536,-79.5231 418.967,-78.7861 420.814,-85.5379"/>
</g>
<!-- Node7&#45;&gt;Node4 -->
<g id="edge14" class="edge"><title>Node7&#45;&gt;Node4</title>
<path fill="none" stroke="midnightblue" d="M256.363,-58.4966C236.752,-49.397 208.154,-36.1273 186.167,-25.9253"/>
<polygon fill="midnightblue" stroke="midnightblue" points="187.435,-22.6554 176.891,-21.6212 184.488,-29.0051 187.435,-22.6554"/>
</g>
<!-- Node9 -->
<g id="node18" class="node"><title>Node9</title>
<polygon fill="white" stroke="#bfbfbf" points="443.5,-0.5 443.5,-21.5 492.5,-21.5 492.5,-0.5 443.5,-0.5"/>
<text text-anchor="middle" x="468" y="-8.5" font-family="Helvetica,sans-Serif" font-size="10.00">stdint.h</text>
</g>
<!-- Node8&#45;&gt;Node9 -->
<g id="edge18" class="edge"><title>Node8&#45;&gt;Node9</title>
<path fill="none" stroke="midnightblue" d="M468,-58.3619C468,-50.9219 468,-40.7427 468,-31.7276"/>
<polygon fill="midnightblue" stroke="midnightblue" points="471.5,-31.5706 468,-21.5707 464.5,-31.5707 471.5,-31.5706"/>
</g>
</g>
</svg>
