<?xml version="1.0" encoding="UTF-8" standalone="no"?>
<!DOCTYPE svg PUBLIC "-//W3C//DTD SVG 1.1//EN"
 "http://www.w3.org/Graphics/SVG/1.1/DTD/svg11.dtd">
<!-- Generated by graphviz version 2.26.3 (20100126.1600)
 -->
<!-- Title: G Pages: 1 -->
<svg width="288pt" height="204pt"
 viewBox="0.00 0.00 288.00 204.00" xmlns="http://www.w3.org/2000/svg" xmlns:xlink="http://www.w3.org/1999/xlink">
<g id="graph1" class="graph" transform="scale(1 1) rotate(0) translate(4 200)">
<title>G</title>
<polygon fill="white" stroke="white" points="-4,5 -4,-200 285,-200 285,5 -4,5"/>
<!-- Node1 -->
<g id="node1" class="node"><title>Node1</title>
<polygon fill="#bfbfbf" stroke="black" points="0,-174.5 0,-195.5 280,-195.5 280,-174.5 0,-174.5"/>
<text text-anchor="middle" x="140" y="-182.5" font-family="Helvetica,sans-Serif" font-size="10.00">/home/vilon_tao/gaia/sdk/include/gaia/core/PersistentPage.h</text>
</g>
<!-- Node2 -->
<g id="node3" class="node"><title>Node2</title>
<a xlink:href="../../db/dbd/_export_8h.html" target="_top" xlink:title="gaia/core/Export.h">
<polygon fill="white" stroke="black" points="92,-116.5 92,-137.5 188,-137.5 188,-116.5 92,-116.5"/>
<text text-anchor="middle" x="140" y="-124.5" font-family="Helvetica,sans-Serif" font-size="10.00">gaia/core/Export.h</text>
</a>
</g>
<!-- Node1&#45;&gt;Node2 -->
<g id="edge2" class="edge"><title>Node1&#45;&gt;Node2</title>
<path fill="none" stroke="midnightblue" d="M140,-174.362C140,-166.922 140,-156.743 140,-147.728"/>
<polygon fill="midnightblue" stroke="midnightblue" points="143.5,-147.571 140,-137.571 136.5,-147.571 143.5,-147.571"/>
</g>
<!-- Node3 -->
<g id="node5" class="node"><title>Node3</title>
<a xlink:href="../../de/d8c/_component_loader_8h.html" target="_top" xlink:title="gaia/core/ComponentLoader.h">
<polygon fill="white" stroke="black" points="8.5,-58.5 8.5,-79.5 155.5,-79.5 155.5,-58.5 8.5,-58.5"/>
<text text-anchor="middle" x="82" y="-66.5" font-family="Helvetica,sans-Serif" font-size="10.00">gaia/core/ComponentLoader.h</text>
</a>
</g>
<!-- Node2&#45;&gt;Node3 -->
<g id="edge4" class="edge"><title>Node2&#45;&gt;Node3</title>
<path fill="none" stroke="midnightblue" d="M129.362,-116.362C121.104,-108.104 109.472,-96.4725 99.8029,-86.8029"/>
<polygon fill="midnightblue" stroke="midnightblue" points="102.117,-84.1669 92.5707,-79.5707 97.1669,-89.1166 102.117,-84.1669"/>
</g>
<!-- Node5 -->
<g id="node9" class="node"><title>Node5</title>
<polygon fill="white" stroke="#bfbfbf" points="172.5,-58.5 172.5,-79.5 223.5,-79.5 223.5,-58.5 172.5,-58.5"/>
<text text-anchor="middle" x="198" y="-66.5" font-family="Helvetica,sans-Serif" font-size="10.00">typeinfo</text>
</g>
<!-- Node2&#45;&gt;Node5 -->
<g id="edge8" class="edge"><title>Node2&#45;&gt;Node5</title>
<path fill="none" stroke="midnightblue" d="M150.638,-116.362C158.896,-108.104 170.528,-96.4725 180.197,-86.8029"/>
<polygon fill="midnightblue" stroke="midnightblue" points="182.833,-89.1166 187.429,-79.5707 177.883,-84.1669 182.833,-89.1166"/>
</g>
<!-- Node4 -->
<g id="node7" class="node"><title>Node4</title>
<polygon fill="white" stroke="#bfbfbf" points="48,-0.5 48,-21.5 116,-21.5 116,-0.5 48,-0.5"/>
<text text-anchor="middle" x="82" y="-8.5" font-family="Helvetica,sans-Serif" font-size="10.00">sys/types.h</text>
</g>
<!-- Node3&#45;&gt;Node4 -->
<g id="edge6" class="edge"><title>Node3&#45;&gt;Node4</title>
<path fill="none" stroke="midnightblue" d="M82,-58.3619C82,-50.9219 82,-40.7427 82,-31.7276"/>
<polygon fill="midnightblue" stroke="midnightblue" points="85.5001,-31.5706 82,-21.5707 78.5001,-31.5707 85.5001,-31.5706"/>
</g>
</g>
</svg>
