<?xml version="1.0" encoding="UTF-8" standalone="no"?>
<!DOCTYPE svg PUBLIC "-//W3C//DTD SVG 1.1//EN"
 "http://www.w3.org/Graphics/SVG/1.1/DTD/svg11.dtd">
<!-- Generated by graphviz version 2.26.3 (20100126.1600)
 -->
<!-- Title: G Pages: 1 -->
<svg width="332pt" height="146pt"
 viewBox="0.00 0.00 332.00 146.00" xmlns="http://www.w3.org/2000/svg" xmlns:xlink="http://www.w3.org/1999/xlink">
<g id="graph1" class="graph" transform="scale(1 1) rotate(0) translate(4 142)">
<title>G</title>
<polygon fill="white" stroke="white" points="-4,5 -4,-142 329,-142 329,5 -4,5"/>
<!-- Node1 -->
<g id="node1" class="node"><title>Node1</title>
<polygon fill="#bfbfbf" stroke="black" points="0,-116.5 0,-137.5 324,-137.5 324,-116.5 0,-116.5"/>
<text text-anchor="middle" x="162" y="-124.5" font-family="Helvetica,sans-Serif" font-size="10.00">/home/vilon_tao/gaia/sdk/include/gaia/ui/preference/PreferenceGroup.h</text>
</g>
<!-- Node2 -->
<g id="node3" class="node"><title>Node2</title>
<a xlink:href="../../d4/dd7/_preference_8h.html" target="_top" xlink:title="gaia/ui/preference/Preference.h">
<polygon fill="white" stroke="black" points="34,-58.5 34,-79.5 186,-79.5 186,-58.5 34,-58.5"/>
<text text-anchor="middle" x="110" y="-66.5" font-family="Helvetica,sans-Serif" font-size="10.00">gaia/ui/preference/Preference.h</text>
</a>
</g>
<!-- Node1&#45;&gt;Node2 -->
<g id="edge2" class="edge"><title>Node1&#45;&gt;Node2</title>
<path fill="none" stroke="midnightblue" d="M152.462,-116.362C145.132,-108.186 134.837,-96.7025 126.219,-87.0907"/>
<polygon fill="midnightblue" stroke="midnightblue" points="128.759,-84.68 119.477,-79.5707 123.547,-89.3528 128.759,-84.68"/>
</g>
<!-- Node4 -->
<g id="node7" class="node"><title>Node4</title>
<a xlink:href="../../d1/dd0/gmacros_8h.html" target="_top" xlink:title="gaia/base/gmacros.h">
<polygon fill="white" stroke="black" points="155.5,-0.5 155.5,-21.5 262.5,-21.5 262.5,-0.5 155.5,-0.5"/>
<text text-anchor="middle" x="209" y="-8.5" font-family="Helvetica,sans-Serif" font-size="10.00">gaia/base/gmacros.h</text>
</a>
</g>
<!-- Node1&#45;&gt;Node4 -->
<g id="edge8" class="edge"><title>Node1&#45;&gt;Node4</title>
<path fill="none" stroke="midnightblue" d="M171.551,-116.201C179.051,-107.146 189.17,-93.5554 195,-80 201.63,-64.5832 205.176,-45.8562 207.038,-31.8039"/>
<polygon fill="midnightblue" stroke="midnightblue" points="210.536,-32.0227 208.197,-21.6891 203.581,-31.2255 210.536,-32.0227"/>
</g>
<!-- Node3 -->
<g id="node5" class="node"><title>Node3</title>
<polygon fill="white" stroke="#bfbfbf" points="85.5,-0.5 85.5,-21.5 134.5,-21.5 134.5,-0.5 85.5,-0.5"/>
<text text-anchor="middle" x="110" y="-8.5" font-family="Helvetica,sans-Serif" font-size="10.00">stdint.h</text>
</g>
<!-- Node2&#45;&gt;Node3 -->
<g id="edge4" class="edge"><title>Node2&#45;&gt;Node3</title>
<path fill="none" stroke="midnightblue" d="M110,-58.3619C110,-50.9219 110,-40.7427 110,-31.7276"/>
<polygon fill="midnightblue" stroke="midnightblue" points="113.5,-31.5706 110,-21.5707 106.5,-31.5707 113.5,-31.5706"/>
</g>
<!-- Node2&#45;&gt;Node4 -->
<g id="edge6" class="edge"><title>Node2&#45;&gt;Node4</title>
<path fill="none" stroke="midnightblue" d="M128.158,-58.3619C143.23,-49.532 164.887,-36.844 181.993,-26.8224"/>
<polygon fill="midnightblue" stroke="midnightblue" points="184.098,-29.6456 190.957,-21.5707 180.559,-23.6058 184.098,-29.6456"/>
</g>
</g>
</svg>
