<?xml version="1.0" encoding="UTF-8" standalone="no"?>
<!DOCTYPE svg PUBLIC "-//W3C//DTD SVG 1.1//EN"
 "http://www.w3.org/Graphics/SVG/1.1/DTD/svg11.dtd">
<!-- Generated by graphviz version 2.26.3 (20100126.1600)
 -->
<!-- Title: G Pages: 1 -->
<svg width="580pt" height="262pt"
 viewBox="0.00 0.00 580.00 262.00" xmlns="http://www.w3.org/2000/svg" xmlns:xlink="http://www.w3.org/1999/xlink">
<g id="graph1" class="graph" transform="scale(1 1) rotate(0) translate(4 258)">
<title>G</title>
<polygon fill="white" stroke="white" points="-4,5 -4,-258 577,-258 577,5 -4,5"/>
<!-- Node1 -->
<g id="node1" class="node"><title>Node1</title>
<polygon fill="#bfbfbf" stroke="black" points="306,-232.5 306,-253.5 572,-253.5 572,-232.5 306,-232.5"/>
<text text-anchor="middle" x="439" y="-240.5" font-family="Helvetica,sans-Serif" font-size="10.00">/home/vilon_tao/gaia/sdk/include/gaia/ui/AbsListWidget.h</text>
</g>
<!-- Node2 -->
<g id="node3" class="node"><title>Node2</title>
<a xlink:href="../../d6/d52/_widget_controller_8h.html" target="_top" xlink:title="gaia/core/vision/WidgetController.h">
<polygon fill="white" stroke="black" points="226.5,-174.5 226.5,-195.5 395.5,-195.5 395.5,-174.5 226.5,-174.5"/>
<text text-anchor="middle" x="311" y="-182.5" font-family="Helvetica,sans-Serif" font-size="10.00">gaia/core/vision/WidgetController.h</text>
</a>
</g>
<!-- Node1&#45;&gt;Node2 -->
<g id="edge2" class="edge"><title>Node1&#45;&gt;Node2</title>
<path fill="none" stroke="midnightblue" d="M415.82,-232.497C395.648,-223.356 366.19,-210.008 343.636,-199.788"/>
<polygon fill="midnightblue" stroke="midnightblue" points="344.993,-196.561 334.44,-195.621 342.104,-202.937 344.993,-196.561"/>
</g>
<!-- Node6 -->
<g id="node11" class="node"><title>Node6</title>
<a xlink:href="../../d1/dd0/gmacros_8h.html" target="_top" xlink:title="gaia/base/gmacros.h">
<polygon fill="white" stroke="black" points="402.5,-58.5 402.5,-79.5 509.5,-79.5 509.5,-58.5 402.5,-58.5"/>
<text text-anchor="middle" x="456" y="-66.5" font-family="Helvetica,sans-Serif" font-size="10.00">gaia/base/gmacros.h</text>
</a>
</g>
<!-- Node1&#45;&gt;Node6 -->
<g id="edge20" class="edge"><title>Node1&#45;&gt;Node6</title>
<path fill="none" stroke="midnightblue" d="M440.038,-232.377C442.782,-204.293 450.268,-127.673 453.928,-90.2027"/>
<polygon fill="midnightblue" stroke="midnightblue" points="457.443,-90.2207 454.932,-79.9277 450.476,-89.54 457.443,-90.2207"/>
</g>
<!-- Node10 -->
<g id="node21" class="node"><title>Node10</title>
<polygon fill="white" stroke="#bfbfbf" points="467,-174.5 467,-195.5 515,-195.5 515,-174.5 467,-174.5"/>
<text text-anchor="middle" x="491" y="-182.5" font-family="Helvetica,sans-Serif" font-size="10.00">limits.h</text>
</g>
<!-- Node1&#45;&gt;Node10 -->
<g id="edge22" class="edge"><title>Node1&#45;&gt;Node10</title>
<path fill="none" stroke="midnightblue" d="M448.538,-232.362C455.868,-224.186 466.163,-212.702 474.781,-203.091"/>
<polygon fill="midnightblue" stroke="midnightblue" points="477.453,-205.353 481.523,-195.571 472.241,-200.68 477.453,-205.353"/>
</g>
<!-- Node3 -->
<g id="node5" class="node"><title>Node3</title>
<a xlink:href="../../d3/dd0/_event_control_8h.html" target="_top" xlink:title="gaia/core/event/EventControl.h">
<polygon fill="white" stroke="black" points="0,-116.5 0,-137.5 152,-137.5 152,-116.5 0,-116.5"/>
<text text-anchor="middle" x="76" y="-124.5" font-family="Helvetica,sans-Serif" font-size="10.00">gaia/core/event/EventControl.h</text>
</a>
</g>
<!-- Node2&#45;&gt;Node3 -->
<g id="edge4" class="edge"><title>Node2&#45;&gt;Node3</title>
<path fill="none" stroke="midnightblue" d="M268.443,-174.497C229.137,-164.795 170.627,-150.355 128.448,-139.945"/>
<polygon fill="midnightblue" stroke="midnightblue" points="129.184,-136.521 118.637,-137.523 127.507,-143.317 129.184,-136.521"/>
</g>
<!-- Node5 -->
<g id="node9" class="node"><title>Node5</title>
<a xlink:href="../../d4/d75/_widget_8h.html" target="_top" xlink:title="gaia/core/vision/Widget.h">
<polygon fill="white" stroke="black" points="247.5,-116.5 247.5,-137.5 374.5,-137.5 374.5,-116.5 247.5,-116.5"/>
<text text-anchor="middle" x="311" y="-124.5" font-family="Helvetica,sans-Serif" font-size="10.00">gaia/core/vision/Widget.h</text>
</a>
</g>
<!-- Node2&#45;&gt;Node5 -->
<g id="edge8" class="edge"><title>Node2&#45;&gt;Node5</title>
<path fill="none" stroke="midnightblue" d="M311,-174.362C311,-166.922 311,-156.743 311,-147.728"/>
<polygon fill="midnightblue" stroke="midnightblue" points="314.5,-147.571 311,-137.571 307.5,-147.571 314.5,-147.571"/>
</g>
<!-- Node4 -->
<g id="node7" class="node"><title>Node4</title>
<polygon fill="white" stroke="#bfbfbf" points="25,-0.5 25,-21.5 93,-21.5 93,-0.5 25,-0.5"/>
<text text-anchor="middle" x="59" y="-8.5" font-family="Helvetica,sans-Serif" font-size="10.00">sys/types.h</text>
</g>
<!-- Node3&#45;&gt;Node4 -->
<g id="edge6" class="edge"><title>Node3&#45;&gt;Node4</title>
<path fill="none" stroke="midnightblue" d="M54.0022,-116.365C40.3197,-108.433 23.8785,-96.1794 16,-80 7.08412,-61.6902 21.8769,-42.1018 36.486,-28.492"/>
<polygon fill="midnightblue" stroke="midnightblue" points="39.176,-30.7916 44.4316,-21.5921 34.5862,-25.5062 39.176,-30.7916"/>
</g>
<!-- Node5&#45;&gt;Node6 -->
<g id="edge10" class="edge"><title>Node5&#45;&gt;Node6</title>
<path fill="none" stroke="midnightblue" d="M337.258,-116.497C360.416,-107.234 394.375,-93.6499 420.052,-83.3793"/>
<polygon fill="midnightblue" stroke="midnightblue" points="421.462,-86.5849 429.447,-79.6212 418.862,-80.0855 421.462,-86.5849"/>
</g>
<!-- Node7 -->
<g id="node13" class="node"><title>Node7</title>
<a xlink:href="../../d0/d92/_property_animatable_8h.html" target="_top" xlink:title="gaia/core/animator/PropertyAnimatable.h">
<polygon fill="white" stroke="black" points="25,-58.5 25,-79.5 219,-79.5 219,-58.5 25,-58.5"/>
<text text-anchor="middle" x="122" y="-66.5" font-family="Helvetica,sans-Serif" font-size="10.00">gaia/core/animator/PropertyAnimatable.h</text>
</a>
</g>
<!-- Node5&#45;&gt;Node7 -->
<g id="edge12" class="edge"><title>Node5&#45;&gt;Node7</title>
<path fill="none" stroke="midnightblue" d="M276.774,-116.497C245.695,-106.959 199.688,-92.8408 165.91,-82.475"/>
<polygon fill="midnightblue" stroke="midnightblue" points="166.877,-79.1109 156.291,-79.5231 164.824,-85.8029 166.877,-79.1109"/>
</g>
<!-- Node8 -->
<g id="node16" class="node"><title>Node8</title>
<a xlink:href="../../d8/d50/_widget_core_8h.html" target="_top" xlink:title="gaia/core/vision/WidgetCore.h">
<polygon fill="white" stroke="black" points="237,-58.5 237,-79.5 385,-79.5 385,-58.5 237,-58.5"/>
<text text-anchor="middle" x="311" y="-66.5" font-family="Helvetica,sans-Serif" font-size="10.00">gaia/core/vision/WidgetCore.h</text>
</a>
</g>
<!-- Node5&#45;&gt;Node8 -->
<g id="edge16" class="edge"><title>Node5&#45;&gt;Node8</title>
<path fill="none" stroke="midnightblue" d="M311,-116.362C311,-108.922 311,-98.7427 311,-89.7276"/>
<polygon fill="midnightblue" stroke="midnightblue" points="314.5,-89.5706 311,-79.5707 307.5,-89.5707 314.5,-89.5706"/>
</g>
<!-- Node7&#45;&gt;Node4 -->
<g id="edge14" class="edge"><title>Node7&#45;&gt;Node4</title>
<path fill="none" stroke="midnightblue" d="M110.445,-58.3619C101.387,-50.0226 88.5903,-38.2418 78.0263,-28.5162"/>
<polygon fill="midnightblue" stroke="midnightblue" points="80.2095,-25.7688 70.4819,-21.5707 75.4683,-30.9187 80.2095,-25.7688"/>
</g>
<!-- Node9 -->
<g id="node18" class="node"><title>Node9</title>
<polygon fill="white" stroke="#bfbfbf" points="286.5,-0.5 286.5,-21.5 335.5,-21.5 335.5,-0.5 286.5,-0.5"/>
<text text-anchor="middle" x="311" y="-8.5" font-family="Helvetica,sans-Serif" font-size="10.00">stdint.h</text>
</g>
<!-- Node8&#45;&gt;Node9 -->
<g id="edge18" class="edge"><title>Node8&#45;&gt;Node9</title>
<path fill="none" stroke="midnightblue" d="M311,-58.3619C311,-50.9219 311,-40.7427 311,-31.7276"/>
<polygon fill="midnightblue" stroke="midnightblue" points="314.5,-31.5706 311,-21.5707 307.5,-31.5707 314.5,-31.5706"/>
</g>
</g>
</svg>
