<?xml version="1.0" encoding="UTF-8" standalone="no"?>
<!DOCTYPE svg PUBLIC "-//W3C//DTD SVG 1.1//EN"
 "http://www.w3.org/Graphics/SVG/1.1/DTD/svg11.dtd">
<!-- Generated by graphviz version 2.26.3 (20100126.1600)
 -->
<!-- Title: G Pages: 1 -->
<svg width="1074pt" height="110pt"
 viewBox="0.00 0.00 1074.00 110.00" xmlns="http://www.w3.org/2000/svg" xmlns:xlink="http://www.w3.org/1999/xlink">
<g id="graph1" class="graph" transform="scale(1 1) rotate(0) translate(4 106)">
<title>G</title>
<polygon fill="white" stroke="white" points="-4,5 -4,-106 1071,-106 1071,5 -4,5"/>
<!-- Node1 -->
<g id="node1" class="node"><title>Node1</title>
<polygon fill="#bfbfbf" stroke="black" points="930.5,-17.5 930.5,-38.5 1065.5,-38.5 1065.5,-17.5 930.5,-17.5"/>
<text text-anchor="middle" x="998" y="-25.5" font-family="Helvetica,sans-Serif" font-size="10.00">gaia::net::SSLClientSocket</text>
</g>
<!-- Node2 -->
<g id="node2" class="node"><title>Node2</title>
<a xlink:href="../../d8/df3/classgaia_1_1net_1_1_client_socket.html" target="_top" xlink:title="Access IP network.">
<polygon fill="white" stroke="black" points="697,-40.5 697,-61.5 813,-61.5 813,-40.5 697,-40.5"/>
<text text-anchor="middle" x="755" y="-48.5" font-family="Helvetica,sans-Serif" font-size="10.00">gaia::net::ClientSocket</text>
</a>
</g>
<!-- Node2&#45;&gt;Node1 -->
<g id="edge2" class="edge"><title>Node2&#45;&gt;Node1</title>
<path fill="none" stroke="midnightblue" d="M823.362,-44.5296C856.831,-41.3617 897,-37.5597 930.37,-34.4012"/>
<polygon fill="midnightblue" stroke="midnightblue" points="822.83,-41.0641 813.205,-45.4909 823.49,-48.033 822.83,-41.0641"/>
</g>
<!-- Node3 -->
<g id="node4" class="node"><title>Node3</title>
<a xlink:href="../../df/d12/classgaia_1_1net_1_1_i_client_socket_listener.html" target="_top" xlink:title="IClientSocketListener handles Socket callback.">
<polygon fill="white" stroke="black" points="394,-80.5 394,-101.5 548,-101.5 548,-80.5 394,-80.5"/>
<text text-anchor="middle" x="471" y="-88.5" font-family="Helvetica,sans-Serif" font-size="10.00">gaia::net::IClientSocketListener</text>
</a>
</g>
<!-- Node3&#45;&gt;Node2 -->
<g id="edge4" class="edge"><title>Node3&#45;&gt;Node2</title>
<path fill="none" stroke="#9a32cd" stroke-dasharray="5,2" d="M558.333,-80.3596C587.51,-76.65 620.183,-72.3282 650,-68 665.168,-65.7982 681.538,-63.2371 696.736,-60.7812"/>
<polygon fill="#9a32cd" stroke="#9a32cd" points="557.651,-76.918 548.169,-81.6452 558.529,-83.8626 557.651,-76.918"/>
<text text-anchor="middle" x="609" y="-82" font-family="Helvetica,sans-Serif" font-size="10.00"> mpListener</text>
</g>
<!-- Node4 -->
<g id="node6" class="node"><title>Node4</title>
<a xlink:href="../../d2/db0/classgaia_1_1base_1_1_array.html" target="_top" xlink:title="gaia::base::Array\&lt; IPEndPoint \&gt;">
<polygon fill="white" stroke="black" points="392,-40.5 392,-61.5 550,-61.5 550,-40.5 392,-40.5"/>
<text text-anchor="middle" x="471" y="-48.5" font-family="Helvetica,sans-Serif" font-size="10.00">gaia::base::Array&lt; IPEndPoint &gt;</text>
</a>
</g>
<!-- Node4&#45;&gt;Node2 -->
<g id="edge6" class="edge"><title>Node4&#45;&gt;Node2</title>
<path fill="none" stroke="#9a32cd" stroke-dasharray="5,2" d="M560.346,-51C604.817,-51 657.315,-51 696.577,-51"/>
<polygon fill="#9a32cd" stroke="#9a32cd" points="560.11,-47.5001 550.11,-51 560.11,-54.5001 560.11,-47.5001"/>
<text text-anchor="middle" x="609" y="-55" font-family="Helvetica,sans-Serif" font-size="10.00"> mpPeerEndPoints</text>
</g>
<!-- Node5 -->
<g id="node8" class="node"><title>Node5</title>
<a xlink:href="../../d2/d80/classgaia_1_1base_1_1_array_impl.html" target="_top" xlink:title="Implements array data structure and its operation methods.">
<polygon fill="white" stroke="black" points="0,-63.5 0,-84.5 110,-84.5 110,-63.5 0,-63.5"/>
<text text-anchor="middle" x="55" y="-71.5" font-family="Helvetica,sans-Serif" font-size="10.00">gaia::base::ArrayImpl</text>
</a>
</g>
<!-- Node5&#45;&gt;Node4 -->
<g id="edge8" class="edge"><title>Node5&#45;&gt;Node4</title>
<path fill="none" stroke="#8b1a1a" d="M120.255,-75.9898C184.869,-77.2036 286.532,-77.0773 374,-68 388.625,-66.4823 404.37,-64.0657 418.833,-61.5256"/>
<polygon fill="#8b1a1a" stroke="#8b1a1a" points="120.28,-72.4897 110.211,-75.7847 120.137,-79.4882 120.28,-72.4897"/>
</g>
<!-- Node6 -->
<g id="node10" class="node"><title>Node6</title>
<a xlink:href="../../d2/db0/classgaia_1_1base_1_1_array.html" target="_top" xlink:title="Implements array to replace C&#45;style array.">
<polygon fill="white" stroke="black" points="148.5,-40.5 148.5,-61.5 283.5,-61.5 283.5,-40.5 148.5,-40.5"/>
<text text-anchor="middle" x="216" y="-48.5" font-family="Helvetica,sans-Serif" font-size="10.00">gaia::base::Array&lt; TYPE &gt;</text>
</a>
</g>
<!-- Node5&#45;&gt;Node6 -->
<g id="edge12" class="edge"><title>Node5&#45;&gt;Node6</title>
<path fill="none" stroke="#8b1a1a" d="M120.571,-64.6328C129.696,-63.3292 139.086,-61.9877 148.25,-60.6786"/>
<polygon fill="#8b1a1a" stroke="#8b1a1a" points="119.812,-61.2056 110.407,-66.0847 120.802,-68.1352 119.812,-61.2056"/>
</g>
<!-- Node6&#45;&gt;Node4 -->
<g id="edge10" class="edge"><title>Node6&#45;&gt;Node4</title>
<path fill="none" stroke="orange" stroke-dasharray="5,2" d="M293.984,-51C324.972,-51 360.58,-51 391.697,-51"/>
<polygon fill="orange" stroke="orange" points="293.666,-47.5001 283.666,-51 293.666,-54.5001 293.666,-47.5001"/>
<text text-anchor="middle" x="338" y="-55" font-family="Helvetica,sans-Serif" font-size="10.00"> &lt; IPEndPoint &gt;</text>
</g>
<!-- Node7 -->
<g id="node13" class="node"><title>Node7</title>
<a xlink:href="../../db/d4c/classgaia_1_1net_1_1_i_p_end_point.html" target="_top" xlink:title="IPEndPoint describes an end point by IP and Port.">
<polygon fill="white" stroke="black" points="416,-0.5 416,-21.5 526,-21.5 526,-0.5 416,-0.5"/>
<text text-anchor="middle" x="471" y="-8.5" font-family="Helvetica,sans-Serif" font-size="10.00">gaia::net::IPEndPoint</text>
</a>
</g>
<!-- Node7&#45;&gt;Node2 -->
<g id="edge14" class="edge"><title>Node7&#45;&gt;Node2</title>
<path fill="none" stroke="#9a32cd" stroke-dasharray="5,2" d="M536.547,-18.9005C570.451,-23.1192 612.486,-28.5546 650,-34 665.168,-36.2018 681.538,-38.7629 696.736,-41.2188"/>
<polygon fill="#9a32cd" stroke="#9a32cd" points="536.654,-15.3871 526.3,-17.6317 535.794,-22.3341 536.654,-15.3871"/>
<text text-anchor="middle" x="609" y="-38" font-family="Helvetica,sans-Serif" font-size="10.00"> mpLocalEndPoint</text>
</g>
<!-- Node8 -->
<g id="node15" class="node"><title>Node8</title>
<a xlink:href="../../df/d81/classgaia_1_1net_1_1_i_p_address.html" target="_top" xlink:title="IPAddress holds address of generic IP model.">
<polygon fill="white" stroke="black" points="163,-0.5 163,-21.5 269,-21.5 269,-0.5 163,-0.5"/>
<text text-anchor="middle" x="216" y="-8.5" font-family="Helvetica,sans-Serif" font-size="10.00">gaia::net::IPAddress</text>
</a>
</g>
<!-- Node8&#45;&gt;Node7 -->
<g id="edge16" class="edge"><title>Node8&#45;&gt;Node7</title>
<path fill="none" stroke="#9a32cd" stroke-dasharray="5,2" d="M279.238,-11C321.131,-11 375.557,-11 415.719,-11"/>
<polygon fill="#9a32cd" stroke="#9a32cd" points="279.146,-7.5001 269.146,-11 279.146,-14.5001 279.146,-7.5001"/>
<text text-anchor="middle" x="338" y="-15" font-family="Helvetica,sans-Serif" font-size="10.00"> mpIPAddr</text>
</g>
<!-- Node9 -->
<g id="node17" class="node"><title>Node9</title>
<a xlink:href="../../dd/d2a/classgaia_1_1net_1_1_i_s_s_l_client_socket_listener.html" target="_top" xlink:title="gaia::net::ISSLClientSocketListener">
<polygon fill="white" stroke="black" points="668.5,-0.5 668.5,-21.5 841.5,-21.5 841.5,-0.5 668.5,-0.5"/>
<text text-anchor="middle" x="755" y="-8.5" font-family="Helvetica,sans-Serif" font-size="10.00">gaia::net::ISSLClientSocketListener</text>
</a>
</g>
<!-- Node9&#45;&gt;Node1 -->
<g id="edge18" class="edge"><title>Node9&#45;&gt;Node1</title>
<path fill="none" stroke="#9a32cd" stroke-dasharray="5,2" d="M851.856,-14.2356C871.764,-15.2048 892.573,-16.4394 912,-18 917.993,-18.4814 924.213,-19.0566 930.443,-19.6843"/>
<polygon fill="#9a32cd" stroke="#9a32cd" points="852.007,-10.7389 841.855,-13.7668 851.68,-17.7313 852.007,-10.7389"/>
<text text-anchor="middle" x="886" y="-22" font-family="Helvetica,sans-Serif" font-size="10.00"> mpListener</text>
</g>
</g>
</svg>
