<?xml version="1.0" encoding="UTF-8" standalone="no"?>
<!DOCTYPE svg PUBLIC "-//W3C//DTD SVG 1.1//EN"
 "http://www.w3.org/Graphics/SVG/1.1/DTD/svg11.dtd">
<!-- Generated by graphviz version 2.26.3 (20100126.1600)
 -->
<!-- Title: G Pages: 1 -->
<svg width="340pt" height="320pt"
 viewBox="0.00 0.00 340.00 320.00" xmlns="http://www.w3.org/2000/svg" xmlns:xlink="http://www.w3.org/1999/xlink">
<g id="graph1" class="graph" transform="scale(1 1) rotate(0) translate(4 316)">
<title>G</title>
<polygon fill="white" stroke="white" points="-4,5 -4,-316 337,-316 337,5 -4,5"/>
<!-- Node1 -->
<g id="node1" class="node"><title>Node1</title>
<polygon fill="#bfbfbf" stroke="black" points="0,-290.5 0,-311.5 332,-311.5 332,-290.5 0,-290.5"/>
<text text-anchor="middle" x="166" y="-298.5" font-family="Helvetica,sans-Serif" font-size="10.00">/home/vilon_tao/gaia/sdk/include/gaia/text/style/BackgroundColorSpan.h</text>
</g>
<!-- Node2 -->
<g id="node3" class="node"><title>Node2</title>
<a xlink:href="../../d5/dc5/_character_style_8h.html" target="_top" xlink:title="gaia/text/style/CharacterStyle.h">
<polygon fill="white" stroke="black" points="88.5,-232.5 88.5,-253.5 243.5,-253.5 243.5,-232.5 88.5,-232.5"/>
<text text-anchor="middle" x="166" y="-240.5" font-family="Helvetica,sans-Serif" font-size="10.00">gaia/text/style/CharacterStyle.h</text>
</a>
</g>
<!-- Node1&#45;&gt;Node2 -->
<g id="edge2" class="edge"><title>Node1&#45;&gt;Node2</title>
<path fill="none" stroke="midnightblue" d="M166,-290.362C166,-282.922 166,-272.743 166,-263.728"/>
<polygon fill="midnightblue" stroke="midnightblue" points="169.5,-263.571 166,-253.571 162.5,-263.571 169.5,-263.571"/>
</g>
<!-- Node3 -->
<g id="node5" class="node"><title>Node3</title>
<a xlink:href="../../d1/d81/_object_style_8h.html" target="_top" xlink:title="gaia/text/style/ObjectStyle.h">
<polygon fill="white" stroke="black" points="26,-174.5 26,-195.5 166,-195.5 166,-174.5 26,-174.5"/>
<text text-anchor="middle" x="96" y="-182.5" font-family="Helvetica,sans-Serif" font-size="10.00">gaia/text/style/ObjectStyle.h</text>
</a>
</g>
<!-- Node2&#45;&gt;Node3 -->
<g id="edge4" class="edge"><title>Node2&#45;&gt;Node3</title>
<path fill="none" stroke="midnightblue" d="M153.161,-232.362C142.998,-223.941 128.599,-212.011 116.796,-202.231"/>
<polygon fill="midnightblue" stroke="midnightblue" points="118.691,-199.256 108.758,-195.571 114.225,-204.646 118.691,-199.256"/>
</g>
<!-- Node6 -->
<g id="node11" class="node"><title>Node6</title>
<a xlink:href="../../d5/d4f/_text_paint_8h.html" target="_top" xlink:title="gaia/text/TextPaint.h">
<polygon fill="white" stroke="black" points="183.5,-174.5 183.5,-195.5 290.5,-195.5 290.5,-174.5 183.5,-174.5"/>
<text text-anchor="middle" x="237" y="-182.5" font-family="Helvetica,sans-Serif" font-size="10.00">gaia/text/TextPaint.h</text>
</a>
</g>
<!-- Node2&#45;&gt;Node6 -->
<g id="edge10" class="edge"><title>Node2&#45;&gt;Node6</title>
<path fill="none" stroke="midnightblue" d="M179.022,-232.362C189.431,-223.859 204.219,-211.779 216.255,-201.947"/>
<polygon fill="midnightblue" stroke="midnightblue" points="218.53,-204.608 224.06,-195.571 214.101,-199.187 218.53,-204.608"/>
</g>
<!-- Node4 -->
<g id="node7" class="node"><title>Node4</title>
<polygon fill="white" stroke="#bfbfbf" points="114.5,-0.5 114.5,-21.5 163.5,-21.5 163.5,-0.5 114.5,-0.5"/>
<text text-anchor="middle" x="139" y="-8.5" font-family="Helvetica,sans-Serif" font-size="10.00">stdint.h</text>
</g>
<!-- Node3&#45;&gt;Node4 -->
<g id="edge6" class="edge"><title>Node3&#45;&gt;Node4</title>
<path fill="none" stroke="midnightblue" d="M91.0771,-174.158C85.5313,-160.496 77.9148,-136.341 83,-116 91.1256,-83.4977 111.428,-50.0401 125.219,-29.8795"/>
<polygon fill="midnightblue" stroke="midnightblue" points="128.148,-31.7987 131.03,-21.6034 122.419,-27.776 128.148,-31.7987"/>
</g>
<!-- Node5 -->
<g id="node9" class="node"><title>Node5</title>
<a xlink:href="../../d1/dd0/gmacros_8h.html" target="_top" xlink:title="gaia/base/gmacros.h">
<polygon fill="white" stroke="black" points="91.5,-116.5 91.5,-137.5 198.5,-137.5 198.5,-116.5 91.5,-116.5"/>
<text text-anchor="middle" x="145" y="-124.5" font-family="Helvetica,sans-Serif" font-size="10.00">gaia/base/gmacros.h</text>
</a>
</g>
<!-- Node3&#45;&gt;Node5 -->
<g id="edge8" class="edge"><title>Node3&#45;&gt;Node5</title>
<path fill="none" stroke="midnightblue" d="M104.987,-174.362C111.825,-166.268 121.402,-154.932 129.472,-145.38"/>
<polygon fill="midnightblue" stroke="midnightblue" points="132.29,-147.468 136.07,-137.571 126.942,-142.951 132.29,-147.468"/>
</g>
<!-- Node6&#45;&gt;Node5 -->
<g id="edge18" class="edge"><title>Node6&#45;&gt;Node5</title>
<path fill="none" stroke="midnightblue" d="M220.126,-174.362C206.249,-165.614 186.366,-153.079 170.54,-143.101"/>
<polygon fill="midnightblue" stroke="midnightblue" points="172.093,-139.943 161.767,-137.571 168.36,-145.864 172.093,-139.943"/>
</g>
<!-- Node7 -->
<g id="node13" class="node"><title>Node7</title>
<a xlink:href="../../db/d7d/_paint_8h.html" target="_top" xlink:title="gaia/graphics/Paint.h">
<polygon fill="white" stroke="black" points="216,-116.5 216,-137.5 324,-137.5 324,-116.5 216,-116.5"/>
<text text-anchor="middle" x="270" y="-124.5" font-family="Helvetica,sans-Serif" font-size="10.00">gaia/graphics/Paint.h</text>
</a>
</g>
<!-- Node6&#45;&gt;Node7 -->
<g id="edge12" class="edge"><title>Node6&#45;&gt;Node7</title>
<path fill="none" stroke="midnightblue" d="M243.053,-174.362C247.472,-166.595 253.59,-155.843 258.879,-146.546"/>
<polygon fill="midnightblue" stroke="midnightblue" points="262.082,-147.993 263.986,-137.571 255.998,-144.531 262.082,-147.993"/>
</g>
<!-- Node8 -->
<g id="node15" class="node"><title>Node8</title>
<a xlink:href="../../d7/d97/_char_sequence_8h.html" target="_top" xlink:title="gaia/base/CharSequence.h">
<polygon fill="white" stroke="black" points="147,-58.5 147,-79.5 281,-79.5 281,-58.5 147,-58.5"/>
<text text-anchor="middle" x="214" y="-66.5" font-family="Helvetica,sans-Serif" font-size="10.00">gaia/base/CharSequence.h</text>
</a>
</g>
<!-- Node7&#45;&gt;Node8 -->
<g id="edge14" class="edge"><title>Node7&#45;&gt;Node8</title>
<path fill="none" stroke="midnightblue" d="M259.729,-116.362C251.756,-108.104 240.525,-96.4725 231.189,-86.8029"/>
<polygon fill="midnightblue" stroke="midnightblue" points="233.67,-84.3336 224.206,-79.5707 228.634,-89.1958 233.67,-84.3336"/>
</g>
<!-- Node8&#45;&gt;Node4 -->
<g id="edge16" class="edge"><title>Node8&#45;&gt;Node4</title>
<path fill="none" stroke="midnightblue" d="M200.244,-58.3619C189.249,-49.859 173.627,-37.7785 160.914,-27.9466"/>
<polygon fill="midnightblue" stroke="midnightblue" points="162.721,-24.9195 152.669,-21.5707 158.438,-30.4569 162.721,-24.9195"/>
</g>
</g>
</svg>
