<?xml version="1.0" encoding="UTF-8" standalone="no"?>
<!DOCTYPE svg PUBLIC "-//W3C//DTD SVG 1.1//EN"
 "http://www.w3.org/Graphics/SVG/1.1/DTD/svg11.dtd">
<!-- Generated by graphviz version 2.26.3 (20100126.1600)
 -->
<!-- Title: G Pages: 1 -->
<svg width="314pt" height="88pt"
 viewBox="0.00 0.00 314.00 88.00" xmlns="http://www.w3.org/2000/svg" xmlns:xlink="http://www.w3.org/1999/xlink">
<g id="graph1" class="graph" transform="scale(1 1) rotate(0) translate(4 84)">
<title>G</title>
<polygon fill="white" stroke="white" points="-4,5 -4,-84 311,-84 311,5 -4,5"/>
<!-- Node1 -->
<g id="node1" class="node"><title>Node1</title>
<polygon fill="#bfbfbf" stroke="black" points="94.5,-58.5 94.5,-79.5 213.5,-79.5 213.5,-58.5 94.5,-58.5"/>
<text text-anchor="middle" x="154" y="-66.5" font-family="Helvetica,sans-Serif" font-size="10.00">gaia::media::MediaItem</text>
</g>
<!-- Node2 -->
<g id="node3" class="node"><title>Node2</title>
<a xlink:href="../../db/d19/classgaia_1_1media_1_1_media_image_item.html" target="_top" xlink:title="This class represents an image item on the storyboard.">
<polygon fill="white" stroke="black" points="0,-0.5 0,-21.5 146,-21.5 146,-0.5 0,-0.5"/>
<text text-anchor="middle" x="73" y="-8.5" font-family="Helvetica,sans-Serif" font-size="10.00">gaia::media::MediaImageItem</text>
</a>
</g>
<!-- Node1&#45;&gt;Node2 -->
<g id="edge2" class="edge"><title>Node1&#45;&gt;Node2</title>
<path fill="none" stroke="midnightblue" d="M130.62,-52.2587C116.802,-42.3641 99.7246,-30.1361 87.7625,-21.5707"/>
<polygon fill="midnightblue" stroke="midnightblue" points="128.975,-55.3857 139.143,-58.3619 133.05,-49.6943 128.975,-55.3857"/>
</g>
<!-- Node3 -->
<g id="node5" class="node"><title>Node3</title>
<a xlink:href="../../d8/d33/classgaia_1_1media_1_1_media_video_item.html" target="_top" xlink:title="This class represents a video clip item on the storyboard {}.">
<polygon fill="white" stroke="black" points="163.5,-0.5 163.5,-21.5 306.5,-21.5 306.5,-0.5 163.5,-0.5"/>
<text text-anchor="middle" x="235" y="-8.5" font-family="Helvetica,sans-Serif" font-size="10.00">gaia::media::MediaVideoItem</text>
</a>
</g>
<!-- Node1&#45;&gt;Node3 -->
<g id="edge4" class="edge"><title>Node1&#45;&gt;Node3</title>
<path fill="none" stroke="midnightblue" d="M177.38,-52.2587C191.198,-42.3641 208.275,-30.1361 220.238,-21.5707"/>
<polygon fill="midnightblue" stroke="midnightblue" points="174.95,-49.6943 168.857,-58.3619 179.025,-55.3857 174.95,-49.6943"/>
</g>
</g>
</svg>
