<?xml version="1.0" encoding="UTF-8" standalone="no"?>
<!DOCTYPE svg PUBLIC "-//W3C//DTD SVG 1.1//EN"
 "http://www.w3.org/Graphics/SVG/1.1/DTD/svg11.dtd">
<!-- Generated by graphviz version 2.26.3 (20100126.1600)
 -->
<!-- Title: G Pages: 1 -->
<svg width="401pt" height="262pt"
 viewBox="0.00 0.00 401.00 262.00" xmlns="http://www.w3.org/2000/svg" xmlns:xlink="http://www.w3.org/1999/xlink">
<g id="graph1" class="graph" transform="scale(1 1) rotate(0) translate(4 258)">
<title>G</title>
<polygon fill="white" stroke="white" points="-4,5 -4,-258 398,-258 398,5 -4,5"/>
<!-- Node1 -->
<g id="node1" class="node"><title>Node1</title>
<polygon fill="#bfbfbf" stroke="black" points="0,-232.5 0,-253.5 306,-253.5 306,-232.5 0,-232.5"/>
<text text-anchor="middle" x="153" y="-240.5" font-family="Helvetica,sans-Serif" font-size="10.00">/home/vilon_tao/gaia/sdk/include/gaia/ui/RemoteWidgetDelegate.h</text>
</g>
<!-- Node2 -->
<g id="node3" class="node"><title>Node2</title>
<polygon fill="white" stroke="#bfbfbf" points="117,-0.5 117,-21.5 185,-21.5 185,-0.5 117,-0.5"/>
<text text-anchor="middle" x="151" y="-8.5" font-family="Helvetica,sans-Serif" font-size="10.00">sys/types.h</text>
</g>
<!-- Node1&#45;&gt;Node2 -->
<g id="edge2" class="edge"><title>Node1&#45;&gt;Node2</title>
<path fill="none" stroke="midnightblue" d="M146.618,-232.242C141.525,-222.994 134.796,-209.111 132,-196 119.423,-137.019 135.314,-65.62 144.826,-31.3233"/>
<polygon fill="midnightblue" stroke="midnightblue" points="148.235,-32.1329 147.646,-21.5544 141.51,-30.1913 148.235,-32.1329"/>
</g>
<!-- Node3 -->
<g id="node5" class="node"><title>Node3</title>
<a xlink:href="../../d9/dfd/_delegate_8h.html" target="_top" xlink:title="gaia/core/Delegate.h">
<polygon fill="white" stroke="black" points="140.5,-174.5 140.5,-195.5 247.5,-195.5 247.5,-174.5 140.5,-174.5"/>
<text text-anchor="middle" x="194" y="-182.5" font-family="Helvetica,sans-Serif" font-size="10.00">gaia/core/Delegate.h</text>
</a>
</g>
<!-- Node1&#45;&gt;Node3 -->
<g id="edge4" class="edge"><title>Node1&#45;&gt;Node3</title>
<path fill="none" stroke="midnightblue" d="M160.52,-232.362C166.126,-224.431 173.932,-213.389 180.597,-203.961"/>
<polygon fill="midnightblue" stroke="midnightblue" points="183.613,-205.757 186.528,-195.571 177.897,-201.716 183.613,-205.757"/>
</g>
<!-- Node3&#45;&gt;Node2 -->
<g id="edge14" class="edge"><title>Node3&#45;&gt;Node2</title>
<path fill="none" stroke="midnightblue" d="M191.375,-174.377C184.405,-146.172 165.336,-69.0121 156.121,-31.7203"/>
<polygon fill="midnightblue" stroke="midnightblue" points="159.497,-30.796 153.701,-21.9277 152.702,-32.4754 159.497,-30.796"/>
</g>
<!-- Node4 -->
<g id="node7" class="node"><title>Node4</title>
<a xlink:href="../../db/dbd/_export_8h.html" target="_top" xlink:title="gaia/core/Export.h">
<polygon fill="white" stroke="black" points="204,-116.5 204,-137.5 300,-137.5 300,-116.5 204,-116.5"/>
<text text-anchor="middle" x="252" y="-124.5" font-family="Helvetica,sans-Serif" font-size="10.00">gaia/core/Export.h</text>
</a>
</g>
<!-- Node3&#45;&gt;Node4 -->
<g id="edge6" class="edge"><title>Node3&#45;&gt;Node4</title>
<path fill="none" stroke="midnightblue" d="M204.638,-174.362C212.896,-166.104 224.528,-154.472 234.197,-144.803"/>
<polygon fill="midnightblue" stroke="midnightblue" points="236.833,-147.117 241.429,-137.571 231.883,-142.167 236.833,-147.117"/>
</g>
<!-- Node5 -->
<g id="node9" class="node"><title>Node5</title>
<a xlink:href="../../de/d8c/_component_loader_8h.html" target="_top" xlink:title="gaia/core/ComponentLoader.h">
<polygon fill="white" stroke="black" points="178.5,-58.5 178.5,-79.5 325.5,-79.5 325.5,-58.5 178.5,-58.5"/>
<text text-anchor="middle" x="252" y="-66.5" font-family="Helvetica,sans-Serif" font-size="10.00">gaia/core/ComponentLoader.h</text>
</a>
</g>
<!-- Node4&#45;&gt;Node5 -->
<g id="edge8" class="edge"><title>Node4&#45;&gt;Node5</title>
<path fill="none" stroke="midnightblue" d="M252,-116.362C252,-108.922 252,-98.7427 252,-89.7276"/>
<polygon fill="midnightblue" stroke="midnightblue" points="255.5,-89.5706 252,-79.5707 248.5,-89.5707 255.5,-89.5706"/>
</g>
<!-- Node6 -->
<g id="node12" class="node"><title>Node6</title>
<polygon fill="white" stroke="#bfbfbf" points="342.5,-58.5 342.5,-79.5 393.5,-79.5 393.5,-58.5 342.5,-58.5"/>
<text text-anchor="middle" x="368" y="-66.5" font-family="Helvetica,sans-Serif" font-size="10.00">typeinfo</text>
</g>
<!-- Node4&#45;&gt;Node6 -->
<g id="edge12" class="edge"><title>Node4&#45;&gt;Node6</title>
<path fill="none" stroke="midnightblue" d="M273.007,-116.497C291.043,-107.479 317.27,-94.3649 337.599,-84.2006"/>
<polygon fill="midnightblue" stroke="midnightblue" points="339.379,-87.2239 346.758,-79.6212 336.248,-80.9629 339.379,-87.2239"/>
</g>
<!-- Node5&#45;&gt;Node2 -->
<g id="edge10" class="edge"><title>Node5&#45;&gt;Node2</title>
<path fill="none" stroke="midnightblue" d="M233.475,-58.3619C218.099,-49.532 196.004,-36.844 178.553,-26.8224"/>
<polygon fill="midnightblue" stroke="midnightblue" points="179.822,-23.5154 169.408,-21.5707 176.336,-29.5857 179.822,-23.5154"/>
</g>
</g>
</svg>
