<?xml version="1.0" encoding="UTF-8" standalone="no"?>
<!DOCTYPE svg PUBLIC "-//W3C//DTD SVG 1.1//EN"
 "http://www.w3.org/Graphics/SVG/1.1/DTD/svg11.dtd">
<!-- Generated by graphviz version 2.26.3 (20100126.1600)
 -->
<!-- Title: G Pages: 1 -->
<svg width="304pt" height="88pt"
 viewBox="0.00 0.00 304.00 88.00" xmlns="http://www.w3.org/2000/svg" xmlns:xlink="http://www.w3.org/1999/xlink">
<g id="graph1" class="graph" transform="scale(1 1) rotate(0) translate(4 84)">
<title>G</title>
<polygon fill="white" stroke="white" points="-4,5 -4,-84 301,-84 301,5 -4,5"/>
<!-- Node1 -->
<g id="node1" class="node"><title>Node1</title>
<polygon fill="#bfbfbf" stroke="black" points="-0.5,-58.5 -0.5,-79.5 296.5,-79.5 296.5,-58.5 -0.5,-58.5"/>
<text text-anchor="middle" x="148" y="-66.5" font-family="Helvetica,sans-Serif" font-size="10.00">/home/vilon_tao/gaia/sdk/include/gaia/connectivity/gps/Criteria.h</text>
</g>
<!-- Node2 -->
<g id="node3" class="node"><title>Node2</title>
<polygon fill="white" stroke="#bfbfbf" points="76.5,-0.5 76.5,-21.5 125.5,-21.5 125.5,-0.5 76.5,-0.5"/>
<text text-anchor="middle" x="101" y="-8.5" font-family="Helvetica,sans-Serif" font-size="10.00">stdint.h</text>
</g>
<!-- Node1&#45;&gt;Node2 -->
<g id="edge2" class="edge"><title>Node1&#45;&gt;Node2</title>
<path fill="none" stroke="midnightblue" d="M139.379,-58.3619C132.82,-50.2678 123.634,-38.9318 115.894,-29.3796"/>
<polygon fill="midnightblue" stroke="midnightblue" points="118.581,-27.1364 109.566,-21.5707 113.142,-31.5436 118.581,-27.1364"/>
</g>
<!-- Node3 -->
<g id="node5" class="node"><title>Node3</title>
<a xlink:href="../../d1/dd0/gmacros_8h.html" target="_top" xlink:title="gaia/base/gmacros.h">
<polygon fill="white" stroke="black" points="142.5,-0.5 142.5,-21.5 249.5,-21.5 249.5,-0.5 142.5,-0.5"/>
<text text-anchor="middle" x="196" y="-8.5" font-family="Helvetica,sans-Serif" font-size="10.00">gaia/base/gmacros.h</text>
</a>
</g>
<!-- Node1&#45;&gt;Node3 -->
<g id="edge4" class="edge"><title>Node1&#45;&gt;Node3</title>
<path fill="none" stroke="midnightblue" d="M156.804,-58.3619C163.502,-50.2678 172.884,-38.9318 180.789,-29.3796"/>
<polygon fill="midnightblue" stroke="midnightblue" points="183.573,-31.5061 187.252,-21.5707 178.18,-27.0431 183.573,-31.5061"/>
</g>
</g>
</svg>
