<?xml version="1.0" encoding="UTF-8" standalone="no"?>
<!DOCTYPE svg PUBLIC "-//W3C//DTD SVG 1.1//EN"
 "http://www.w3.org/Graphics/SVG/1.1/DTD/svg11.dtd">
<!-- Generated by graphviz version 2.26.3 (20100126.1600)
 -->
<!-- Title: G Pages: 1 -->
<svg width="1555pt" height="320pt"
 viewBox="0.00 0.00 1555.00 320.00" xmlns="http://www.w3.org/2000/svg" xmlns:xlink="http://www.w3.org/1999/xlink">
<g id="graph1" class="graph" transform="scale(1 1) rotate(0) translate(4 316)">
<title>G</title>
<polygon fill="white" stroke="white" points="-4,5 -4,-316 1552,-316 1552,5 -4,5"/>
<!-- Node1 -->
<g id="node1" class="node"><title>Node1</title>
<polygon fill="#bfbfbf" stroke="black" points="840,-290.5 840,-311.5 1112,-311.5 1112,-290.5 840,-290.5"/>
<text text-anchor="middle" x="976" y="-298.5" font-family="Helvetica,sans-Serif" font-size="10.00">/home/vilon_tao/gaia/sdk/include/gaia/ui/WidgetAnimator.h</text>
</g>
<!-- Node2 -->
<g id="node3" class="node"><title>Node2</title>
<a xlink:href="../../db/db5/_string_8h.html" target="_top" xlink:title="gaia/base/String.h">
<polygon fill="white" stroke="black" points="464.5,-116.5 464.5,-137.5 559.5,-137.5 559.5,-116.5 464.5,-116.5"/>
<text text-anchor="middle" x="512" y="-124.5" font-family="Helvetica,sans-Serif" font-size="10.00">gaia/base/String.h</text>
</a>
</g>
<!-- Node1&#45;&gt;Node2 -->
<g id="edge2" class="edge"><title>Node1&#45;&gt;Node2</title>
<path fill="none" stroke="midnightblue" d="M848.043,-290.468C771.979,-282.693 683.747,-270.577 649,-254 595.414,-228.435 548.411,-174.491 525.976,-145.828"/>
<polygon fill="midnightblue" stroke="midnightblue" points="528.686,-143.609 519.823,-137.803 523.131,-147.868 528.686,-143.609"/>
</g>
<!-- Node7 -->
<g id="node14" class="node"><title>Node7</title>
<a xlink:href="../../db/d53/_string_array_8h.html" target="_top" xlink:title="gaia/base/StringArray.h">
<polygon fill="white" stroke="black" points="986.5,-232.5 986.5,-253.5 1105.5,-253.5 1105.5,-232.5 986.5,-232.5"/>
<text text-anchor="middle" x="1046" y="-240.5" font-family="Helvetica,sans-Serif" font-size="10.00">gaia/base/StringArray.h</text>
</a>
</g>
<!-- Node1&#45;&gt;Node7 -->
<g id="edge14" class="edge"><title>Node1&#45;&gt;Node7</title>
<path fill="none" stroke="midnightblue" d="M988.839,-290.362C999.002,-281.941 1013.4,-270.011 1025.2,-260.231"/>
<polygon fill="midnightblue" stroke="midnightblue" points="1027.78,-262.646 1033.24,-253.571 1023.31,-257.256 1027.78,-262.646"/>
</g>
<!-- Node8 -->
<g id="node17" class="node"><title>Node8</title>
<a xlink:href="../../d3/dd0/_event_control_8h.html" target="_top" xlink:title="gaia/core/event/EventControl.h">
<polygon fill="white" stroke="black" points="1062,-116.5 1062,-137.5 1214,-137.5 1214,-116.5 1062,-116.5"/>
<text text-anchor="middle" x="1138" y="-124.5" font-family="Helvetica,sans-Serif" font-size="10.00">gaia/core/event/EventControl.h</text>
</a>
</g>
<!-- Node1&#45;&gt;Node8 -->
<g id="edge18" class="edge"><title>Node1&#45;&gt;Node8</title>
<path fill="none" stroke="midnightblue" d="M1022.76,-290.426C1057.82,-281.554 1101.77,-268.099 1114,-254 1139.85,-224.208 1141.52,-175.451 1140.02,-147.82"/>
<polygon fill="midnightblue" stroke="midnightblue" points="1143.5,-147.423 1139.28,-137.707 1136.52,-147.936 1143.5,-147.423"/>
</g>
<!-- Node9 -->
<g id="node20" class="node"><title>Node9</title>
<a xlink:href="../../db/ded/_page_8h.html" target="_top" xlink:title="gaia/core/Page.h">
<polygon fill="white" stroke="black" points="1197,-174.5 1197,-195.5 1287,-195.5 1287,-174.5 1197,-174.5"/>
<text text-anchor="middle" x="1242" y="-182.5" font-family="Helvetica,sans-Serif" font-size="10.00">gaia/core/Page.h</text>
</a>
</g>
<!-- Node1&#45;&gt;Node9 -->
<g id="edge22" class="edge"><title>Node1&#45;&gt;Node9</title>
<path fill="none" stroke="midnightblue" d="M1036.02,-290.457C1070.25,-283.051 1113.3,-271.325 1149,-254 1176.82,-240.498 1204.79,-218.309 1222.68,-202.747"/>
<polygon fill="midnightblue" stroke="midnightblue" points="1225.45,-204.965 1230.61,-195.708 1220.81,-199.73 1225.45,-204.965"/>
</g>
<!-- Node19 -->
<g id="node46" class="node"><title>Node19</title>
<a xlink:href="../../de/d56/_scene_8h.html" target="_top" xlink:title="gaia/core/vision/Scene.h">
<polygon fill="white" stroke="black" points="658,-232.5 658,-253.5 782,-253.5 782,-232.5 658,-232.5"/>
<text text-anchor="middle" x="720" y="-240.5" font-family="Helvetica,sans-Serif" font-size="10.00">gaia/core/vision/Scene.h</text>
</a>
</g>
<!-- Node1&#45;&gt;Node19 -->
<g id="edge54" class="edge"><title>Node1&#45;&gt;Node19</title>
<path fill="none" stroke="midnightblue" d="M929.64,-290.497C886.55,-280.734 822.275,-266.172 776.264,-255.747"/>
<polygon fill="midnightblue" stroke="midnightblue" points="776.973,-252.319 766.447,-253.523 775.426,-259.146 776.973,-252.319"/>
</g>
<!-- Node20 -->
<g id="node49" class="node"><title>Node20</title>
<a xlink:href="../../d4/d75/_widget_8h.html" target="_top" xlink:title="gaia/core/vision/Widget.h">
<polygon fill="white" stroke="black" points="835.5,-116.5 835.5,-137.5 962.5,-137.5 962.5,-116.5 835.5,-116.5"/>
<text text-anchor="middle" x="899" y="-124.5" font-family="Helvetica,sans-Serif" font-size="10.00">gaia/core/vision/Widget.h</text>
</a>
</g>
<!-- Node1&#45;&gt;Node20 -->
<g id="edge58" class="edge"><title>Node1&#45;&gt;Node20</title>
<path fill="none" stroke="midnightblue" d="M925.643,-290.487C889.676,-281.89 845.67,-268.774 834,-254 811.917,-226.045 812.242,-205.437 829,-174 836.329,-160.251 849.664,-149.81 862.744,-142.304"/>
<polygon fill="midnightblue" stroke="midnightblue" points="864.483,-145.344 871.682,-137.571 861.207,-139.157 864.483,-145.344"/>
</g>
<!-- Node24 -->
<g id="node59" class="node"><title>Node24</title>
<a xlink:href="../../dc/d8b/_animation_8h.html" target="_top" xlink:title="gaia/core/animation/Animation.h">
<polygon fill="white" stroke="black" points="1391,-174.5 1391,-195.5 1547,-195.5 1547,-174.5 1391,-174.5"/>
<text text-anchor="middle" x="1469" y="-182.5" font-family="Helvetica,sans-Serif" font-size="10.00">gaia/core/animation/Animation.h</text>
</a>
</g>
<!-- Node1&#45;&gt;Node24 -->
<g id="edge70" class="edge"><title>Node1&#45;&gt;Node24</title>
<path fill="none" stroke="midnightblue" d="M1022.21,-290.464C1063.57,-281.007 1125.86,-266.699 1180,-254 1262.2,-234.719 1357.42,-211.888 1415.42,-197.927"/>
<polygon fill="midnightblue" stroke="midnightblue" points="1416.55,-201.255 1425.45,-195.511 1414.91,-194.45 1416.55,-201.255"/>
</g>
<!-- Node25 -->
<g id="node62" class="node"><title>Node25</title>
<a xlink:href="../../d1/d40/_frame_controller_8h.html" target="_top" xlink:title="gaia/ui/FrameController.h">
<polygon fill="white" stroke="black" points="843,-232.5 843,-253.5 969,-253.5 969,-232.5 843,-232.5"/>
<text text-anchor="middle" x="906" y="-240.5" font-family="Helvetica,sans-Serif" font-size="10.00">gaia/ui/FrameController.h</text>
</a>
</g>
<!-- Node1&#45;&gt;Node25 -->
<g id="edge74" class="edge"><title>Node1&#45;&gt;Node25</title>
<path fill="none" stroke="midnightblue" d="M963.161,-290.362C952.998,-281.941 938.599,-270.011 926.796,-260.231"/>
<polygon fill="midnightblue" stroke="midnightblue" points="928.691,-257.256 918.758,-253.571 924.225,-262.646 928.691,-257.256"/>
</g>
<!-- Node3 -->
<g id="node5" class="node"><title>Node3</title>
<a xlink:href="../../d7/d97/_char_sequence_8h.html" target="_top" xlink:title="gaia/base/CharSequence.h">
<polygon fill="white" stroke="black" points="0,-58.5 0,-79.5 134,-79.5 134,-58.5 0,-58.5"/>
<text text-anchor="middle" x="67" y="-66.5" font-family="Helvetica,sans-Serif" font-size="10.00">gaia/base/CharSequence.h</text>
</a>
</g>
<!-- Node2&#45;&gt;Node3 -->
<g id="edge4" class="edge"><title>Node2&#45;&gt;Node3</title>
<path fill="none" stroke="midnightblue" d="M464.492,-121.212C396.117,-112.823 265.723,-96.6095 144.342,-80.1664"/>
<polygon fill="midnightblue" stroke="midnightblue" points="144.508,-76.6569 134.128,-78.7792 143.566,-83.5932 144.508,-76.6569"/>
</g>
<!-- Node5 -->
<g id="node9" class="node"><title>Node5</title>
<a xlink:href="../../d6/d83/_hash_func_8h.html" target="_top" xlink:title="gaia/base/HashFunc.h">
<polygon fill="white" stroke="black" points="497.5,-58.5 497.5,-79.5 612.5,-79.5 612.5,-58.5 497.5,-58.5"/>
<text text-anchor="middle" x="555" y="-66.5" font-family="Helvetica,sans-Serif" font-size="10.00">gaia/base/HashFunc.h</text>
</a>
</g>
<!-- Node2&#45;&gt;Node5 -->
<g id="edge8" class="edge"><title>Node2&#45;&gt;Node5</title>
<path fill="none" stroke="midnightblue" d="M519.887,-116.362C525.827,-108.35 534.122,-97.1605 541.159,-87.6696"/>
<polygon fill="midnightblue" stroke="midnightblue" points="544.019,-89.6883 547.163,-79.5707 538.396,-85.5193 544.019,-89.6883"/>
</g>
<!-- Node6 -->
<g id="node11" class="node"><title>Node6</title>
<polygon fill="white" stroke="#bfbfbf" points="865,-0.5 865,-21.5 933,-21.5 933,-0.5 865,-0.5"/>
<text text-anchor="middle" x="899" y="-8.5" font-family="Helvetica,sans-Serif" font-size="10.00">sys/types.h</text>
</g>
<!-- Node2&#45;&gt;Node6 -->
<g id="edge12" class="edge"><title>Node2&#45;&gt;Node6</title>
<path fill="none" stroke="midnightblue" d="M502.729,-116.358C491.003,-101.58 474.039,-74.7738 489,-58 513.037,-31.0496 753.515,-17.3976 854.605,-12.8133"/>
<polygon fill="midnightblue" stroke="midnightblue" points="854.963,-16.301 864.798,-12.3605 854.652,-9.30788 854.963,-16.301"/>
</g>
<!-- Node4 -->
<g id="node7" class="node"><title>Node4</title>
<polygon fill="white" stroke="#bfbfbf" points="201.5,-0.5 201.5,-21.5 250.5,-21.5 250.5,-0.5 201.5,-0.5"/>
<text text-anchor="middle" x="226" y="-8.5" font-family="Helvetica,sans-Serif" font-size="10.00">stdint.h</text>
</g>
<!-- Node3&#45;&gt;Node4 -->
<g id="edge6" class="edge"><title>Node3&#45;&gt;Node4</title>
<path fill="none" stroke="midnightblue" d="M95.7937,-58.4966C122.771,-48.6557 163.119,-33.9377 191.741,-23.4972"/>
<polygon fill="midnightblue" stroke="midnightblue" points="193.139,-26.7127 201.334,-19.9976 190.74,-20.1365 193.139,-26.7127"/>
</g>
<!-- Node5&#45;&gt;Node6 -->
<g id="edge10" class="edge"><title>Node5&#45;&gt;Node6</title>
<path fill="none" stroke="midnightblue" d="M612.578,-59.2921C680.742,-47.7993 792.785,-28.9084 854.597,-18.4866"/>
<polygon fill="midnightblue" stroke="midnightblue" points="855.523,-21.88 864.802,-16.766 854.359,-14.9774 855.523,-21.88"/>
</g>
<!-- Node7&#45;&gt;Node6 -->
<g id="edge16" class="edge"><title>Node7&#45;&gt;Node6</title>
<path fill="none" stroke="midnightblue" d="M1043.24,-232.34C1037.85,-208.983 1028.49,-152.472 1053,-116 1073.85,-84.9793 1109.01,-111.583 1129,-80 1134.23,-71.7377 1135.18,-65.5745 1129,-58 1106.02,-29.8543 1003.49,-18.1156 943.357,-13.5826"/>
<polygon fill="midnightblue" stroke="midnightblue" points="943.236,-10.065 933.012,-12.842 942.736,-17.0471 943.236,-10.065"/>
</g>
<!-- Node8&#45;&gt;Node6 -->
<g id="edge20" class="edge"><title>Node8&#45;&gt;Node6</title>
<path fill="none" stroke="midnightblue" d="M1147.76,-116.011C1159.61,-101.311 1176.33,-75.1164 1162,-58 1134.66,-25.3374 1011.16,-15.3498 943.568,-12.3134"/>
<polygon fill="midnightblue" stroke="midnightblue" points="943.36,-8.80182 933.223,-11.8834 943.069,-15.7958 943.36,-8.80182"/>
</g>
<!-- Node9&#45;&gt;Node6 -->
<g id="edge52" class="edge"><title>Node9&#45;&gt;Node6</title>
<path fill="none" stroke="midnightblue" d="M1240.44,-174.231C1236.05,-148.508 1221.02,-83.7224 1178,-58 1139.15,-34.7714 1011.65,-20.6297 943.267,-14.5297"/>
<polygon fill="midnightblue" stroke="midnightblue" points="943.49,-11.0359 933.223,-13.6537 942.881,-18.0094 943.49,-11.0359"/>
</g>
<!-- Node10 -->
<g id="node22" class="node"><title>Node10</title>
<a xlink:href="../../d4/d7f/_vector_8h.html" target="_top" xlink:title="gaia/base/Vector.h">
<polygon fill="white" stroke="black" points="671,-116.5 671,-137.5 769,-137.5 769,-116.5 671,-116.5"/>
<text text-anchor="middle" x="720" y="-124.5" font-family="Helvetica,sans-Serif" font-size="10.00">gaia/base/Vector.h</text>
</a>
</g>
<!-- Node9&#45;&gt;Node10 -->
<g id="edge24" class="edge"><title>Node9&#45;&gt;Node10</title>
<path fill="none" stroke="midnightblue" d="M1196.59,-179.954C1102.13,-169.459 884.527,-145.281 779.223,-133.58"/>
<polygon fill="midnightblue" stroke="midnightblue" points="779.411,-130.08 769.086,-132.454 778.638,-137.037 779.411,-130.08"/>
</g>
<!-- Node15 -->
<g id="node36" class="node"><title>Node15</title>
<a xlink:href="../../d7/def/_component_name_8h.html" target="_top" xlink:title="gaia/core/ComponentName.h">
<polygon fill="white" stroke="black" points="1384,-116.5 1384,-137.5 1528,-137.5 1528,-116.5 1384,-116.5"/>
<text text-anchor="middle" x="1456" y="-124.5" font-family="Helvetica,sans-Serif" font-size="10.00">gaia/core/ComponentName.h</text>
</a>
</g>
<!-- Node9&#45;&gt;Node15 -->
<g id="edge42" class="edge"><title>Node9&#45;&gt;Node15</title>
<path fill="none" stroke="midnightblue" d="M1280.75,-174.497C1316.25,-164.877 1368.93,-150.598 1407.26,-140.209"/>
<polygon fill="midnightblue" stroke="midnightblue" points="1408.44,-143.517 1417.17,-137.523 1406.61,-136.761 1408.44,-143.517"/>
</g>
<!-- Node16 -->
<g id="node38" class="node"><title>Node16</title>
<a xlink:href="../../db/dbd/_export_8h.html" target="_top" xlink:title="gaia/core/Export.h">
<polygon fill="white" stroke="black" points="1270,-116.5 1270,-137.5 1366,-137.5 1366,-116.5 1270,-116.5"/>
<text text-anchor="middle" x="1318" y="-124.5" font-family="Helvetica,sans-Serif" font-size="10.00">gaia/core/Export.h</text>
</a>
</g>
<!-- Node9&#45;&gt;Node16 -->
<g id="edge44" class="edge"><title>Node9&#45;&gt;Node16</title>
<path fill="none" stroke="midnightblue" d="M1255.94,-174.362C1267.19,-165.777 1283.22,-153.546 1296.16,-143.664"/>
<polygon fill="midnightblue" stroke="midnightblue" points="1298.32,-146.42 1304.15,-137.571 1294.08,-140.855 1298.32,-146.42"/>
</g>
<!-- Node10&#45;&gt;Node6 -->
<g id="edge40" class="edge"><title>Node10&#45;&gt;Node6</title>
<path fill="none" stroke="midnightblue" d="M698.962,-116.447C675.066,-103.082 641.522,-79.233 659,-58 683.296,-28.484 792.171,-17.2365 854.609,-13.1613"/>
<polygon fill="midnightblue" stroke="midnightblue" points="855.188,-16.6324 864.953,-12.5239 854.757,-9.64562 855.188,-16.6324"/>
</g>
<!-- Node11 -->
<g id="node24" class="node"><title>Node11</title>
<a xlink:href="../../d1/d86/_type_helpers_8h.html" target="_top" xlink:title="gaia/base/TypeHelpers.h">
<polygon fill="white" stroke="black" points="317.5,-58.5 317.5,-79.5 442.5,-79.5 442.5,-58.5 317.5,-58.5"/>
<text text-anchor="middle" x="380" y="-66.5" font-family="Helvetica,sans-Serif" font-size="10.00">gaia/base/TypeHelpers.h</text>
</a>
</g>
<!-- Node10&#45;&gt;Node11 -->
<g id="edge26" class="edge"><title>Node10&#45;&gt;Node11</title>
<path fill="none" stroke="midnightblue" d="M670.924,-118.628C613.376,-108.811 517.495,-92.455 451.637,-81.2205"/>
<polygon fill="midnightblue" stroke="midnightblue" points="452.188,-77.7639 441.742,-79.5324 451.011,-84.6642 452.188,-77.7639"/>
</g>
<!-- Node14 -->
<g id="node32" class="node"><title>Node14</title>
<a xlink:href="../../dc/da9/_vector_impl_8h.html" target="_top" xlink:title="gaia/base/VectorImpl.h">
<polygon fill="white" stroke="black" points="667.5,-58.5 667.5,-79.5 784.5,-79.5 784.5,-58.5 667.5,-58.5"/>
<text text-anchor="middle" x="726" y="-66.5" font-family="Helvetica,sans-Serif" font-size="10.00">gaia/base/VectorImpl.h</text>
</a>
</g>
<!-- Node10&#45;&gt;Node14 -->
<g id="edge36" class="edge"><title>Node10&#45;&gt;Node14</title>
<path fill="none" stroke="midnightblue" d="M721.1,-116.362C721.87,-108.922 722.923,-98.7427 723.856,-89.7276"/>
<polygon fill="midnightblue" stroke="midnightblue" points="727.359,-89.8777 724.906,-79.5707 720.396,-89.1574 727.359,-89.8777"/>
</g>
<!-- Node11&#45;&gt;Node4 -->
<g id="edge28" class="edge"><title>Node11&#45;&gt;Node4</title>
<path fill="none" stroke="midnightblue" d="M352.112,-58.4966C326.328,-48.7859 287.935,-34.3263 260.288,-23.9138"/>
<polygon fill="midnightblue" stroke="midnightblue" points="261.224,-20.5262 250.632,-20.277 258.757,-27.077 261.224,-20.5262"/>
</g>
<!-- Node11&#45;&gt;Node6 -->
<g id="edge32" class="edge"><title>Node11&#45;&gt;Node6</title>
<path fill="none" stroke="midnightblue" d="M442.6,-59.7471C447.132,-59.1363 451.635,-58.5473 456,-58 601.601,-39.746 774.715,-22.733 854.583,-15.1482"/>
<polygon fill="midnightblue" stroke="midnightblue" points="855.14,-18.6112 864.766,-14.1843 854.481,-11.6424 855.14,-18.6112"/>
</g>
<!-- Node12 -->
<g id="node27" class="node"><title>Node12</title>
<polygon fill="white" stroke="#bfbfbf" points="325.5,-0.5 325.5,-21.5 374.5,-21.5 374.5,-0.5 325.5,-0.5"/>
<text text-anchor="middle" x="350" y="-8.5" font-family="Helvetica,sans-Serif" font-size="10.00">string.h</text>
</g>
<!-- Node11&#45;&gt;Node12 -->
<g id="edge30" class="edge"><title>Node11&#45;&gt;Node12</title>
<path fill="none" stroke="midnightblue" d="M374.498,-58.3619C370.48,-50.5949 364.919,-39.8426 360.11,-30.5458"/>
<polygon fill="midnightblue" stroke="midnightblue" points="363.171,-28.8448 355.468,-21.5707 356.953,-32.0608 363.171,-28.8448"/>
</g>
<!-- Node13 -->
<g id="node30" class="node"><title>Node13</title>
<polygon fill="white" stroke="#bfbfbf" points="391.5,-0.5 391.5,-21.5 426.5,-21.5 426.5,-0.5 391.5,-0.5"/>
<text text-anchor="middle" x="409" y="-8.5" font-family="Helvetica,sans-Serif" font-size="10.00">new</text>
</g>
<!-- Node11&#45;&gt;Node13 -->
<g id="edge34" class="edge"><title>Node11&#45;&gt;Node13</title>
<path fill="none" stroke="midnightblue" d="M385.319,-58.3619C389.203,-50.5949 394.579,-39.8426 399.227,-30.5458"/>
<polygon fill="midnightblue" stroke="midnightblue" points="402.373,-32.0802 403.715,-21.5707 396.112,-28.9497 402.373,-32.0802"/>
</g>
<!-- Node14&#45;&gt;Node6 -->
<g id="edge38" class="edge"><title>Node14&#45;&gt;Node6</title>
<path fill="none" stroke="midnightblue" d="M757.329,-58.4966C785.533,-49.0411 827.167,-35.0829 858.009,-24.7428"/>
<polygon fill="midnightblue" stroke="midnightblue" points="859.243,-28.0203 867.612,-21.5231 857.018,-21.3834 859.243,-28.0203"/>
</g>
<!-- Node17 -->
<g id="node40" class="node"><title>Node17</title>
<a xlink:href="../../de/d8c/_component_loader_8h.html" target="_top" xlink:title="gaia/core/ComponentLoader.h">
<polygon fill="white" stroke="black" points="1257.5,-58.5 1257.5,-79.5 1404.5,-79.5 1404.5,-58.5 1257.5,-58.5"/>
<text text-anchor="middle" x="1331" y="-66.5" font-family="Helvetica,sans-Serif" font-size="10.00">gaia/core/ComponentLoader.h</text>
</a>
</g>
<!-- Node16&#45;&gt;Node17 -->
<g id="edge46" class="edge"><title>Node16&#45;&gt;Node17</title>
<path fill="none" stroke="midnightblue" d="M1320.38,-116.362C1322.07,-108.84 1324.38,-98.5187 1326.42,-89.4308"/>
<polygon fill="midnightblue" stroke="midnightblue" points="1329.86,-90.0941 1328.63,-79.5707 1323.03,-88.563 1329.86,-90.0941"/>
</g>
<!-- Node18 -->
<g id="node43" class="node"><title>Node18</title>
<polygon fill="white" stroke="#bfbfbf" points="1421.5,-58.5 1421.5,-79.5 1472.5,-79.5 1472.5,-58.5 1421.5,-58.5"/>
<text text-anchor="middle" x="1447" y="-66.5" font-family="Helvetica,sans-Serif" font-size="10.00">typeinfo</text>
</g>
<!-- Node16&#45;&gt;Node18 -->
<g id="edge50" class="edge"><title>Node16&#45;&gt;Node18</title>
<path fill="none" stroke="midnightblue" d="M1341.36,-116.497C1361.69,-107.356 1391.38,-94.0082 1414.11,-83.7883"/>
<polygon fill="midnightblue" stroke="midnightblue" points="1415.69,-86.9142 1423.38,-79.6212 1412.82,-80.5298 1415.69,-86.9142"/>
</g>
<!-- Node17&#45;&gt;Node6 -->
<g id="edge48" class="edge"><title>Node17&#45;&gt;Node6</title>
<path fill="none" stroke="midnightblue" d="M1257.23,-59.0953C1167,-46.9821 1017.19,-26.8675 943.169,-16.9301"/>
<polygon fill="midnightblue" stroke="midnightblue" points="943.619,-13.4592 933.242,-15.5974 942.688,-20.397 943.619,-13.4592"/>
</g>
<!-- Node19&#45;&gt;Node10 -->
<g id="edge56" class="edge"><title>Node19&#45;&gt;Node10</title>
<path fill="none" stroke="midnightblue" d="M720,-232.295C720,-213.131 720,-172.654 720,-147.843"/>
<polygon fill="midnightblue" stroke="midnightblue" points="723.5,-147.679 720,-137.679 716.5,-147.679 723.5,-147.679"/>
</g>
<!-- Node21 -->
<g id="node51" class="node"><title>Node21</title>
<a xlink:href="../../d1/dd0/gmacros_8h.html" target="_top" xlink:title="gaia/base/gmacros.h">
<polygon fill="white" stroke="black" points="1013.5,-58.5 1013.5,-79.5 1120.5,-79.5 1120.5,-58.5 1013.5,-58.5"/>
<text text-anchor="middle" x="1067" y="-66.5" font-family="Helvetica,sans-Serif" font-size="10.00">gaia/base/gmacros.h</text>
</a>
</g>
<!-- Node20&#45;&gt;Node21 -->
<g id="edge60" class="edge"><title>Node20&#45;&gt;Node21</title>
<path fill="none" stroke="midnightblue" d="M929.424,-116.497C956.694,-107.082 996.893,-93.2036 1026.8,-82.8773"/>
<polygon fill="midnightblue" stroke="midnightblue" points="1028.21,-86.0949 1036.52,-79.5231 1025.92,-79.4781 1028.21,-86.0949"/>
</g>
<!-- Node22 -->
<g id="node53" class="node"><title>Node22</title>
<a xlink:href="../../d0/d92/_property_animatable_8h.html" target="_top" xlink:title="gaia/core/animator/PropertyAnimatable.h">
<polygon fill="white" stroke="black" points="802,-58.5 802,-79.5 996,-79.5 996,-58.5 802,-58.5"/>
<text text-anchor="middle" x="899" y="-66.5" font-family="Helvetica,sans-Serif" font-size="10.00">gaia/core/animator/PropertyAnimatable.h</text>
</a>
</g>
<!-- Node20&#45;&gt;Node22 -->
<g id="edge62" class="edge"><title>Node20&#45;&gt;Node22</title>
<path fill="none" stroke="midnightblue" d="M899,-116.362C899,-108.922 899,-98.7427 899,-89.7276"/>
<polygon fill="midnightblue" stroke="midnightblue" points="902.5,-89.5706 899,-79.5707 895.5,-89.5707 902.5,-89.5706"/>
</g>
<!-- Node23 -->
<g id="node56" class="node"><title>Node23</title>
<a xlink:href="../../d8/d50/_widget_core_8h.html" target="_top" xlink:title="gaia/core/vision/WidgetCore.h">
<polygon fill="white" stroke="black" points="152,-58.5 152,-79.5 300,-79.5 300,-58.5 152,-58.5"/>
<text text-anchor="middle" x="226" y="-66.5" font-family="Helvetica,sans-Serif" font-size="10.00">gaia/core/vision/WidgetCore.h</text>
</a>
</g>
<!-- Node20&#45;&gt;Node23 -->
<g id="edge66" class="edge"><title>Node20&#45;&gt;Node23</title>
<path fill="none" stroke="midnightblue" d="M835.276,-121.038C816.804,-119.355 796.603,-117.559 778,-116 572.928,-98.8089 518.61,-101.646 310.228,-80.0837"/>
<polygon fill="midnightblue" stroke="midnightblue" points="310.496,-76.5927 300.188,-79.0383 309.771,-83.5551 310.496,-76.5927"/>
</g>
<!-- Node22&#45;&gt;Node6 -->
<g id="edge64" class="edge"><title>Node22&#45;&gt;Node6</title>
<path fill="none" stroke="midnightblue" d="M899,-58.3619C899,-50.9219 899,-40.7427 899,-31.7276"/>
<polygon fill="midnightblue" stroke="midnightblue" points="902.5,-31.5706 899,-21.5707 895.5,-31.5707 902.5,-31.5706"/>
</g>
<!-- Node23&#45;&gt;Node4 -->
<g id="edge68" class="edge"><title>Node23&#45;&gt;Node4</title>
<path fill="none" stroke="midnightblue" d="M226,-58.3619C226,-50.9219 226,-40.7427 226,-31.7276"/>
<polygon fill="midnightblue" stroke="midnightblue" points="229.5,-31.5706 226,-21.5707 222.5,-31.5707 229.5,-31.5706"/>
</g>
<!-- Node24&#45;&gt;Node6 -->
<g id="edge72" class="edge"><title>Node24&#45;&gt;Node6</title>
<path fill="none" stroke="midnightblue" d="M1495.21,-174.409C1510.4,-166.748 1528.2,-154.776 1537,-138 1557.16,-99.5639 1520.23,-76.5553 1481,-58 1432.81,-35.2104 1070.92,-18.1415 943.346,-12.7774"/>
<polygon fill="midnightblue" stroke="midnightblue" points="943.292,-9.2722 933.155,-12.3529 943,-16.2661 943.292,-9.2722"/>
</g>
<!-- Node26 -->
<g id="node64" class="node"><title>Node26</title>
<a xlink:href="../../d6/d52/_widget_controller_8h.html" target="_top" xlink:title="gaia/core/vision/WidgetController.h">
<polygon fill="white" stroke="black" points="837.5,-174.5 837.5,-195.5 1006.5,-195.5 1006.5,-174.5 837.5,-174.5"/>
<text text-anchor="middle" x="922" y="-182.5" font-family="Helvetica,sans-Serif" font-size="10.00">gaia/core/vision/WidgetController.h</text>
</a>
</g>
<!-- Node25&#45;&gt;Node26 -->
<g id="edge76" class="edge"><title>Node25&#45;&gt;Node26</title>
<path fill="none" stroke="midnightblue" d="M908.935,-232.362C911.01,-224.84 913.857,-214.519 916.364,-205.431"/>
<polygon fill="midnightblue" stroke="midnightblue" points="919.799,-206.141 919.084,-195.571 913.051,-204.28 919.799,-206.141"/>
</g>
<!-- Node26&#45;&gt;Node8 -->
<g id="edge78" class="edge"><title>Node26&#45;&gt;Node8</title>
<path fill="none" stroke="midnightblue" d="M961.116,-174.497C996.94,-164.877 1050.12,-150.598 1088.81,-140.209"/>
<polygon fill="midnightblue" stroke="midnightblue" points="1090.06,-143.497 1098.81,-137.523 1088.25,-136.736 1090.06,-143.497"/>
</g>
<!-- Node26&#45;&gt;Node20 -->
<g id="edge80" class="edge"><title>Node26&#45;&gt;Node20</title>
<path fill="none" stroke="midnightblue" d="M917.781,-174.362C914.766,-166.758 910.617,-156.294 906.985,-147.135"/>
<polygon fill="midnightblue" stroke="midnightblue" points="910.132,-145.576 903.192,-137.571 903.625,-148.157 910.132,-145.576"/>
</g>
</g>
</svg>
