<?xml version="1.0" encoding="UTF-8" standalone="no"?>
<!DOCTYPE svg PUBLIC "-//W3C//DTD SVG 1.1//EN"
 "http://www.w3.org/Graphics/SVG/1.1/DTD/svg11.dtd">
<!-- Generated by graphviz version 2.26.3 (20100126.1600)
 -->
<!-- Title: G Pages: 1 -->
<svg width="372pt" height="146pt"
 viewBox="0.00 0.00 372.00 146.00" xmlns="http://www.w3.org/2000/svg" xmlns:xlink="http://www.w3.org/1999/xlink">
<g id="graph1" class="graph" transform="scale(1 1) rotate(0) translate(4 142)">
<title>G</title>
<polygon fill="white" stroke="white" points="-4,5 -4,-142 369,-142 369,5 -4,5"/>
<!-- Node1 -->
<g id="node1" class="node"><title>Node1</title>
<polygon fill="#bfbfbf" stroke="black" points="35.5,-116.5 35.5,-137.5 364.5,-137.5 364.5,-116.5 35.5,-116.5"/>
<text text-anchor="middle" x="200" y="-124.5" font-family="Helvetica,sans-Serif" font-size="10.00">/home/vilon_tao/gaia/sdk/include/gaia/service/InputMethodConnection.h</text>
</g>
<!-- Node2 -->
<g id="node3" class="node"><title>Node2</title>
<a xlink:href="../../d1/dd0/gmacros_8h.html" target="_top" xlink:title="gaia/base/gmacros.h">
<polygon fill="white" stroke="black" points="-0.5,-58.5 -0.5,-79.5 106.5,-79.5 106.5,-58.5 -0.5,-58.5"/>
<text text-anchor="middle" x="53" y="-66.5" font-family="Helvetica,sans-Serif" font-size="10.00">gaia/base/gmacros.h</text>
</a>
</g>
<!-- Node1&#45;&gt;Node2 -->
<g id="edge2" class="edge"><title>Node1&#45;&gt;Node2</title>
<path fill="none" stroke="midnightblue" d="M173.379,-116.497C149.903,-107.234 115.475,-93.6499 89.4442,-83.3793"/>
<polygon fill="midnightblue" stroke="midnightblue" points="90.506,-80.0358 79.9193,-79.6212 87.9368,-86.5473 90.506,-80.0358"/>
</g>
<!-- Node3 -->
<g id="node5" class="node"><title>Node3</title>
<a xlink:href="../../da/d45/_input_connection_8h.html" target="_top" xlink:title="gaia/service/InputConnection.h">
<polygon fill="white" stroke="black" points="124,-58.5 124,-79.5 276,-79.5 276,-58.5 124,-58.5"/>
<text text-anchor="middle" x="200" y="-66.5" font-family="Helvetica,sans-Serif" font-size="10.00">gaia/service/InputConnection.h</text>
</a>
</g>
<!-- Node1&#45;&gt;Node3 -->
<g id="edge4" class="edge"><title>Node1&#45;&gt;Node3</title>
<path fill="none" stroke="midnightblue" d="M200,-116.362C200,-108.922 200,-98.7427 200,-89.7276"/>
<polygon fill="midnightblue" stroke="midnightblue" points="203.5,-89.5706 200,-79.5707 196.5,-89.5707 203.5,-89.5706"/>
</g>
<!-- Node4 -->
<g id="node7" class="node"><title>Node4</title>
<polygon fill="white" stroke="#bfbfbf" points="218,-0.5 218,-21.5 286,-21.5 286,-0.5 218,-0.5"/>
<text text-anchor="middle" x="252" y="-8.5" font-family="Helvetica,sans-Serif" font-size="10.00">sys/types.h</text>
</g>
<!-- Node1&#45;&gt;Node4 -->
<g id="edge8" class="edge"><title>Node1&#45;&gt;Node4</title>
<path fill="none" stroke="midnightblue" d="M236.896,-116.414C254.755,-109.225 274.549,-97.7203 285,-80 294.811,-63.3634 282.82,-43.357 270.635,-29.1807"/>
<polygon fill="midnightblue" stroke="midnightblue" points="272.961,-26.5412 263.601,-21.5772 267.823,-31.2947 272.961,-26.5412"/>
</g>
<!-- Node3&#45;&gt;Node4 -->
<g id="edge6" class="edge"><title>Node3&#45;&gt;Node4</title>
<path fill="none" stroke="midnightblue" d="M209.538,-58.3619C216.868,-50.1861 227.163,-38.7025 235.781,-29.0907"/>
<polygon fill="midnightblue" stroke="midnightblue" points="238.453,-31.3528 242.523,-21.5707 233.241,-26.68 238.453,-31.3528"/>
</g>
</g>
</svg>
