<?xml version="1.0" encoding="UTF-8" standalone="no"?>
<!DOCTYPE svg PUBLIC "-//W3C//DTD SVG 1.1//EN"
 "http://www.w3.org/Graphics/SVG/1.1/DTD/svg11.dtd">
<!-- Generated by graphviz version 2.26.3 (20100126.1600)
 -->
<!-- Title: G Pages: 1 -->
<svg width="310pt" height="146pt"
 viewBox="0.00 0.00 310.00 146.00" xmlns="http://www.w3.org/2000/svg" xmlns:xlink="http://www.w3.org/1999/xlink">
<g id="graph1" class="graph" transform="scale(1 1) rotate(0) translate(4 142)">
<title>G</title>
<polygon fill="white" stroke="white" points="-4,5 -4,-142 307,-142 307,5 -4,5"/>
<!-- Node1 -->
<g id="node1" class="node"><title>Node1</title>
<polygon fill="#bfbfbf" stroke="black" points="0,-116.5 0,-137.5 302,-137.5 302,-116.5 0,-116.5"/>
<text text-anchor="middle" x="151" y="-124.5" font-family="Helvetica,sans-Serif" font-size="10.00">/home/vilon_tao/gaia/sdk/include/gaia/net/IClientSocketListener.h</text>
</g>
<!-- Node2 -->
<g id="node3" class="node"><title>Node2</title>
<a xlink:href="../../dd/d13/_client_socket_8h.html" target="_top" xlink:title="/home/vilon_tao/gaia/sdk/include/gaia/net/ClientSocket.h">
<polygon fill="white" stroke="black" points="19,-58.5 19,-79.5 283,-79.5 283,-58.5 19,-58.5"/>
<text text-anchor="middle" x="151" y="-66.5" font-family="Helvetica,sans-Serif" font-size="10.00">/home/vilon_tao/gaia/sdk/include/gaia/net/ClientSocket.h</text>
</a>
</g>
<!-- Node1&#45;&gt;Node2 -->
<g id="edge2" class="edge"><title>Node1&#45;&gt;Node2</title>
<path fill="none" stroke="midnightblue" d="M151,-106.191C151,-97.1684 151,-86.9941 151,-79.5707"/>
<polygon fill="midnightblue" stroke="midnightblue" points="147.5,-106.362 151,-116.362 154.5,-106.362 147.5,-106.362"/>
</g>
<!-- Node3 -->
<g id="node5" class="node"><title>Node3</title>
<a xlink:href="../../da/d63/_s_s_l_client_socket_8h.html" target="_top" xlink:title="/home/vilon_tao/gaia/sdk/include/gaia/net/SSLClientSocket.h">
<polygon fill="white" stroke="black" points="9.5,-0.5 9.5,-21.5 292.5,-21.5 292.5,-0.5 9.5,-0.5"/>
<text text-anchor="middle" x="151" y="-8.5" font-family="Helvetica,sans-Serif" font-size="10.00">/home/vilon_tao/gaia/sdk/include/gaia/net/SSLClientSocket.h</text>
</a>
</g>
<!-- Node2&#45;&gt;Node3 -->
<g id="edge4" class="edge"><title>Node2&#45;&gt;Node3</title>
<path fill="none" stroke="midnightblue" d="M151,-48.1906C151,-39.1684 151,-28.9941 151,-21.5707"/>
<polygon fill="midnightblue" stroke="midnightblue" points="147.5,-48.3619 151,-58.3619 154.5,-48.3619 147.5,-48.3619"/>
</g>
</g>
</svg>
