<?xml version="1.0" encoding="UTF-8" standalone="no"?>
<!DOCTYPE svg PUBLIC "-//W3C//DTD SVG 1.1//EN"
 "http://www.w3.org/Graphics/SVG/1.1/DTD/svg11.dtd">
<!-- Generated by graphviz version 2.26.3 (20100126.1600)
 -->
<!-- Title: G Pages: 1 -->
<svg width="998pt" height="88pt"
 viewBox="0.00 0.00 998.00 88.00" xmlns="http://www.w3.org/2000/svg" xmlns:xlink="http://www.w3.org/1999/xlink">
<g id="graph1" class="graph" transform="scale(1 1) rotate(0) translate(4 84)">
<title>G</title>
<polygon fill="white" stroke="white" points="-4,5 -4,-84 995,-84 995,5 -4,5"/>
<!-- Node1 -->
<g id="node1" class="node"><title>Node1</title>
<polygon fill="#bfbfbf" stroke="black" points="340.5,-58.5 340.5,-79.5 635.5,-79.5 635.5,-58.5 340.5,-58.5"/>
<text text-anchor="middle" x="488" y="-66.5" font-family="Helvetica,sans-Serif" font-size="10.00">/home/vilon_tao/gaia/sdk/include/gaia/graphics/BitmapFactory.h</text>
</g>
<!-- Node2 -->
<g id="node3" class="node"><title>Node2</title>
<a xlink:href="../../d8/d65/_image_store_8h.html" target="_top" xlink:title="/home/vilon_tao/gaia/sdk/include/gaia/content/provider/ImageStore.h">
<polygon fill="white" stroke="black" points="0,-0.5 0,-21.5 314,-21.5 314,-0.5 0,-0.5"/>
<text text-anchor="middle" x="157" y="-8.5" font-family="Helvetica,sans-Serif" font-size="10.00">/home/vilon_tao/gaia/sdk/include/gaia/content/provider/ImageStore.h</text>
</a>
</g>
<!-- Node1&#45;&gt;Node2 -->
<g id="edge2" class="edge"><title>Node1&#45;&gt;Node2</title>
<path fill="none" stroke="midnightblue" d="M417.974,-56.7296C358.358,-46.2833 273.623,-31.4354 217.054,-21.5231"/>
<polygon fill="midnightblue" stroke="midnightblue" points="417.604,-60.2181 428.058,-58.4966 418.813,-53.3231 417.604,-60.2181"/>
</g>
<!-- Node3 -->
<g id="node5" class="node"><title>Node3</title>
<a xlink:href="../../da/dd5/_video_store_8h.html" target="_top" xlink:title="/home/vilon_tao/gaia/sdk/include/gaia/content/provider/VideoStore.h">
<polygon fill="white" stroke="black" points="332,-0.5 332,-21.5 644,-21.5 644,-0.5 332,-0.5"/>
<text text-anchor="middle" x="488" y="-8.5" font-family="Helvetica,sans-Serif" font-size="10.00">/home/vilon_tao/gaia/sdk/include/gaia/content/provider/VideoStore.h</text>
</a>
</g>
<!-- Node1&#45;&gt;Node3 -->
<g id="edge4" class="edge"><title>Node1&#45;&gt;Node3</title>
<path fill="none" stroke="midnightblue" d="M488,-48.1906C488,-39.1684 488,-28.9941 488,-21.5707"/>
<polygon fill="midnightblue" stroke="midnightblue" points="484.5,-48.3619 488,-58.3619 491.5,-48.3619 484.5,-48.3619"/>
</g>
<!-- Node4 -->
<g id="node7" class="node"><title>Node4</title>
<a xlink:href="../../d5/dda/_bitmap_region_decoder_8h.html" target="_top" xlink:title="/home/vilon_tao/gaia/sdk/include/gaia/graphics/BitmapRegionDecoder.h">
<polygon fill="white" stroke="black" points="661.5,-0.5 661.5,-21.5 990.5,-21.5 990.5,-0.5 661.5,-0.5"/>
<text text-anchor="middle" x="826" y="-8.5" font-family="Helvetica,sans-Serif" font-size="10.00">/home/vilon_tao/gaia/sdk/include/gaia/graphics/BitmapRegionDecoder.h</text>
</a>
</g>
<!-- Node1&#45;&gt;Node4 -->
<g id="edge6" class="edge"><title>Node1&#45;&gt;Node4</title>
<path fill="none" stroke="midnightblue" d="M559.13,-56.7943C620.026,-46.3447 706.791,-31.4559 764.676,-21.5231"/>
<polygon fill="midnightblue" stroke="midnightblue" points="558.473,-53.3557 549.209,-58.4966 559.657,-60.2549 558.473,-53.3557"/>
</g>
</g>
</svg>
