<?xml version="1.0" encoding="UTF-8" standalone="no"?>
<!DOCTYPE svg PUBLIC "-//W3C//DTD SVG 1.1//EN"
 "http://www.w3.org/Graphics/SVG/1.1/DTD/svg11.dtd">
<!-- Generated by graphviz version 2.26.3 (20100126.1600)
 -->
<!-- Title: G Pages: 1 -->
<svg width="353pt" height="262pt"
 viewBox="0.00 0.00 353.00 262.00" xmlns="http://www.w3.org/2000/svg" xmlns:xlink="http://www.w3.org/1999/xlink">
<g id="graph1" class="graph" transform="scale(1 1) rotate(0) translate(4 258)">
<title>G</title>
<polygon fill="white" stroke="white" points="-4,5 -4,-258 350,-258 350,5 -4,5"/>
<!-- Node1 -->
<g id="node1" class="node"><title>Node1</title>
<polygon fill="#bfbfbf" stroke="black" points="75,-232.5 75,-253.5 345,-253.5 345,-232.5 75,-232.5"/>
<text text-anchor="middle" x="210" y="-240.5" font-family="Helvetica,sans-Serif" font-size="10.00">/home/vilon_tao/gaia/sdk/include/gaia/core/ListFragment.h</text>
</g>
<!-- Node2 -->
<g id="node3" class="node"><title>Node2</title>
<a xlink:href="../../dc/ddc/_fragment_8h.html" target="_top" xlink:title="gaia/core/Fragment.h">
<polygon fill="white" stroke="black" points="155.5,-174.5 155.5,-195.5 264.5,-195.5 264.5,-174.5 155.5,-174.5"/>
<text text-anchor="middle" x="210" y="-182.5" font-family="Helvetica,sans-Serif" font-size="10.00">gaia/core/Fragment.h</text>
</a>
</g>
<!-- Node1&#45;&gt;Node2 -->
<g id="edge2" class="edge"><title>Node1&#45;&gt;Node2</title>
<path fill="none" stroke="midnightblue" d="M210,-232.362C210,-224.922 210,-214.743 210,-205.728"/>
<polygon fill="midnightblue" stroke="midnightblue" points="213.5,-205.571 210,-195.571 206.5,-205.571 213.5,-205.571"/>
</g>
<!-- Node3 -->
<g id="node5" class="node"><title>Node3</title>
<a xlink:href="../../db/dbd/_export_8h.html" target="_top" xlink:title="gaia/core/Export.h">
<polygon fill="white" stroke="black" points="105,-116.5 105,-137.5 201,-137.5 201,-116.5 105,-116.5"/>
<text text-anchor="middle" x="153" y="-124.5" font-family="Helvetica,sans-Serif" font-size="10.00">gaia/core/Export.h</text>
</a>
</g>
<!-- Node1&#45;&gt;Node3 -->
<g id="edge14" class="edge"><title>Node1&#45;&gt;Node3</title>
<path fill="none" stroke="midnightblue" d="M186.617,-232.462C172.328,-224.636 155.259,-212.467 147,-196 139.525,-181.097 141.907,-162.096 145.662,-147.808"/>
<polygon fill="midnightblue" stroke="midnightblue" points="149.1,-148.532 148.66,-137.947 142.403,-146.496 149.1,-148.532"/>
</g>
<!-- Node5 -->
<g id="node9" class="node"><title>Node5</title>
<polygon fill="white" stroke="#bfbfbf" points="208,-0.5 208,-21.5 276,-21.5 276,-0.5 208,-0.5"/>
<text text-anchor="middle" x="242" y="-8.5" font-family="Helvetica,sans-Serif" font-size="10.00">sys/types.h</text>
</g>
<!-- Node1&#45;&gt;Node5 -->
<g id="edge16" class="edge"><title>Node1&#45;&gt;Node5</title>
<path fill="none" stroke="midnightblue" d="M233.383,-232.462C247.672,-224.636 264.741,-212.467 273,-196 300.641,-140.893 270.448,-66.1196 252.842,-30.9027"/>
<polygon fill="midnightblue" stroke="midnightblue" points="255.774,-28.9536 248.064,-21.6869 249.56,-32.1756 255.774,-28.9536"/>
</g>
<!-- Node2&#45;&gt;Node3 -->
<g id="edge4" class="edge"><title>Node2&#45;&gt;Node3</title>
<path fill="none" stroke="midnightblue" d="M199.545,-174.362C191.43,-166.104 179.999,-154.472 170.496,-144.803"/>
<polygon fill="midnightblue" stroke="midnightblue" points="172.894,-142.25 163.388,-137.571 167.901,-147.156 172.894,-142.25"/>
</g>
<!-- Node2&#45;&gt;Node5 -->
<g id="edge12" class="edge"><title>Node2&#45;&gt;Node5</title>
<path fill="none" stroke="midnightblue" d="M211.954,-174.377C217.119,-146.293 231.209,-69.6735 238.101,-32.2027"/>
<polygon fill="midnightblue" stroke="midnightblue" points="241.624,-32.3959 239.99,-21.9277 234.739,-31.1297 241.624,-32.3959"/>
</g>
<!-- Node4 -->
<g id="node7" class="node"><title>Node4</title>
<a xlink:href="../../de/d8c/_component_loader_8h.html" target="_top" xlink:title="gaia/core/ComponentLoader.h">
<polygon fill="white" stroke="black" points="-0.5,-58.5 -0.5,-79.5 146.5,-79.5 146.5,-58.5 -0.5,-58.5"/>
<text text-anchor="middle" x="73" y="-66.5" font-family="Helvetica,sans-Serif" font-size="10.00">gaia/core/ComponentLoader.h</text>
</a>
</g>
<!-- Node3&#45;&gt;Node4 -->
<g id="edge6" class="edge"><title>Node3&#45;&gt;Node4</title>
<path fill="none" stroke="midnightblue" d="M138.327,-116.362C126.486,-107.777 109.615,-95.5459 95.9842,-85.6636"/>
<polygon fill="midnightblue" stroke="midnightblue" points="97.7307,-82.6067 87.5802,-79.5707 93.6219,-88.274 97.7307,-82.6067"/>
</g>
<!-- Node6 -->
<g id="node11" class="node"><title>Node6</title>
<polygon fill="white" stroke="#bfbfbf" points="163.5,-58.5 163.5,-79.5 214.5,-79.5 214.5,-58.5 163.5,-58.5"/>
<text text-anchor="middle" x="189" y="-66.5" font-family="Helvetica,sans-Serif" font-size="10.00">typeinfo</text>
</g>
<!-- Node3&#45;&gt;Node6 -->
<g id="edge10" class="edge"><title>Node3&#45;&gt;Node6</title>
<path fill="none" stroke="midnightblue" d="M159.603,-116.362C164.475,-108.513 171.238,-97.6159 177.05,-88.2527"/>
<polygon fill="midnightblue" stroke="midnightblue" points="180.139,-89.9129 182.439,-79.5707 174.191,-86.2213 180.139,-89.9129"/>
</g>
<!-- Node4&#45;&gt;Node5 -->
<g id="edge8" class="edge"><title>Node4&#45;&gt;Node5</title>
<path fill="none" stroke="midnightblue" d="M103.605,-58.4966C131.037,-49.082 171.476,-35.2036 201.564,-24.8773"/>
<polygon fill="midnightblue" stroke="midnightblue" points="203.016,-28.0797 211.338,-21.5231 200.743,-21.4588 203.016,-28.0797"/>
</g>
</g>
</svg>
