<?xml version="1.0" encoding="UTF-8" standalone="no"?>
<!DOCTYPE svg PUBLIC "-//W3C//DTD SVG 1.1//EN"
 "http://www.w3.org/Graphics/SVG/1.1/DTD/svg11.dtd">
<!-- Generated by graphviz version 2.26.3 (20100126.1600)
 -->
<!-- Title: G Pages: 1 -->
<svg width="7908pt" height="262pt"
 viewBox="0.00 0.00 7908.00 262.00" xmlns="http://www.w3.org/2000/svg" xmlns:xlink="http://www.w3.org/1999/xlink">
<g id="graph1" class="graph" transform="scale(1 1) rotate(0) translate(4 258)">
<title>G</title>
<polygon fill="white" stroke="white" points="-4,5 -4,-258 7905,-258 7905,5 -4,5"/>
<!-- Node1 -->
<g id="node1" class="node"><title>Node1</title>
<polygon fill="#bfbfbf" stroke="black" points="1452.5,-232.5 1452.5,-253.5 1749.5,-253.5 1749.5,-232.5 1452.5,-232.5"/>
<text text-anchor="middle" x="1601" y="-240.5" font-family="Helvetica,sans-Serif" font-size="10.00">/home/vilon_tao/gaia/sdk/include/gaia/core/event/EventControl.h</text>
</g>
<!-- Node2 -->
<g id="node3" class="node"><title>Node2</title>
<a xlink:href="../../d9/d62/_surface_widget_8h.html" target="_top" xlink:title="/home/vilon_tao/gaia/sdk/include/gaia/core/SurfaceWidget.h">
<polygon fill="white" stroke="black" points="297,-174.5 297,-195.5 575,-195.5 575,-174.5 297,-174.5"/>
<text text-anchor="middle" x="436" y="-182.5" font-family="Helvetica,sans-Serif" font-size="10.00">/home/vilon_tao/gaia/sdk/include/gaia/core/SurfaceWidget.h</text>
</a>
</g>
<!-- Node1&#45;&gt;Node2 -->
<g id="edge2" class="edge"><title>Node1&#45;&gt;Node2</title>
<path fill="none" stroke="midnightblue" d="M1442.13,-236.495C1244.83,-228.195 897.983,-212.877 601,-196 592.544,-195.519 583.846,-195.004 575.074,-194.467"/>
<polygon fill="midnightblue" stroke="midnightblue" points="1442.14,-239.999 1452.28,-236.922 1442.44,-233.005 1442.14,-239.999"/>
</g>
<!-- Node5 -->
<g id="node9" class="node"><title>Node5</title>
<a xlink:href="../../d0/d0a/_texture_widget_8h.html" target="_top" xlink:title="/home/vilon_tao/gaia/sdk/include/gaia/core/TextureWidget.h">
<polygon fill="white" stroke="black" points="609.5,-174.5 609.5,-195.5 886.5,-195.5 886.5,-174.5 609.5,-174.5"/>
<text text-anchor="middle" x="748" y="-182.5" font-family="Helvetica,sans-Serif" font-size="10.00">/home/vilon_tao/gaia/sdk/include/gaia/core/TextureWidget.h</text>
</a>
</g>
<!-- Node1&#45;&gt;Node5 -->
<g id="edge8" class="edge"><title>Node1&#45;&gt;Node5</title>
<path fill="none" stroke="midnightblue" d="M1442.05,-232.792C1298.94,-223.513 1082.87,-209.282 895,-196 892.32,-195.81 889.612,-195.618 886.883,-195.423"/>
<polygon fill="midnightblue" stroke="midnightblue" points="1442.02,-236.298 1452.22,-233.452 1442.47,-229.312 1442.02,-236.298"/>
</g>
<!-- Node6 -->
<g id="node11" class="node"><title>Node6</title>
<a xlink:href="../../d7/dca/_touch_helper_8h.html" target="_top" xlink:title="/home/vilon_tao/gaia/sdk/include/gaia/core/vision/TouchHelper.h">
<polygon fill="white" stroke="black" points="903.5,-174.5 903.5,-195.5 1200.5,-195.5 1200.5,-174.5 903.5,-174.5"/>
<text text-anchor="middle" x="1052" y="-182.5" font-family="Helvetica,sans-Serif" font-size="10.00">/home/vilon_tao/gaia/sdk/include/gaia/core/vision/TouchHelper.h</text>
</a>
</g>
<!-- Node1&#45;&gt;Node6 -->
<g id="edge10" class="edge"><title>Node1&#45;&gt;Node6</title>
<path fill="none" stroke="midnightblue" d="M1491.53,-231.435C1392.39,-220.961 1247.56,-205.661 1151.61,-195.523"/>
<polygon fill="midnightblue" stroke="midnightblue" points="1491.27,-234.927 1501.58,-232.497 1492,-227.965 1491.27,-234.927"/>
</g>
<!-- Node7 -->
<g id="node13" class="node"><title>Node7</title>
<a xlink:href="../../d6/d52/_widget_controller_8h.html" target="_top" xlink:title="/home/vilon_tao/gaia/sdk/include/gaia/core/vision/WidgetController.h">
<polygon fill="white" stroke="black" points="4505,-174.5 4505,-195.5 4819,-195.5 4819,-174.5 4505,-174.5"/>
<text text-anchor="middle" x="4662" y="-182.5" font-family="Helvetica,sans-Serif" font-size="10.00">/home/vilon_tao/gaia/sdk/include/gaia/core/vision/WidgetController.h</text>
</a>
</g>
<!-- Node1&#45;&gt;Node7 -->
<g id="edge12" class="edge"><title>Node1&#45;&gt;Node7</title>
<path fill="none" stroke="midnightblue" d="M1760.03,-239.987C2288.04,-229.982 3979.18,-197.938 4504.68,-187.981"/>
<polygon fill="midnightblue" stroke="midnightblue" points="1759.6,-236.494 1749.67,-240.183 1759.74,-243.493 1759.6,-236.494"/>
</g>
<!-- Node25 -->
<g id="node49" class="node"><title>Node25</title>
<a xlink:href="../../d5/d80/_widget_animator_8h.html" target="_top" xlink:title="/home/vilon_tao/gaia/sdk/include/gaia/ui/WidgetAnimator.h">
<polygon fill="white" stroke="black" points="6646,-58.5 6646,-79.5 6918,-79.5 6918,-58.5 6646,-58.5"/>
<text text-anchor="middle" x="6782" y="-66.5" font-family="Helvetica,sans-Serif" font-size="10.00">/home/vilon_tao/gaia/sdk/include/gaia/ui/WidgetAnimator.h</text>
</a>
</g>
<!-- Node1&#45;&gt;Node25 -->
<g id="edge106" class="edge"><title>Node1&#45;&gt;Node25</title>
<path fill="none" stroke="midnightblue" d="M1759.99,-241.433C2650.35,-232.473 6979.82,-186.441 7027,-138 7033.82,-130.996 7033.23,-123.537 7027,-116 7011.83,-97.638 6964.46,-86.3781 6915.36,-79.5073"/>
<polygon fill="midnightblue" stroke="midnightblue" points="1759.63,-237.936 1749.67,-241.536 1759.71,-244.936 1759.63,-237.936"/>
</g>
<!-- Node26 -->
<g id="node51" class="node"><title>Node26</title>
<a xlink:href="../../dd/de8/_widget_switcher_8h.html" target="_top" xlink:title="/home/vilon_tao/gaia/sdk/include/gaia/ui/WidgetSwitcher.h">
<polygon fill="white" stroke="black" points="4017.5,-0.5 4017.5,-21.5 4288.5,-21.5 4288.5,-0.5 4017.5,-0.5"/>
<text text-anchor="middle" x="4153" y="-8.5" font-family="Helvetica,sans-Serif" font-size="10.00">/home/vilon_tao/gaia/sdk/include/gaia/ui/WidgetSwitcher.h</text>
</a>
</g>
<!-- Node1&#45;&gt;Node26 -->
<g id="edge108" class="edge"><title>Node1&#45;&gt;Node26</title>
<path fill="none" stroke="midnightblue" d="M1571.33,-226.728C1560.31,-218.993 1549.03,-208.647 1543,-196 1527.7,-163.905 1521.57,-144.372 1543,-116 1599.81,-40.7845 1653.77,-71.9246 1747,-58 1971.03,-24.5373 3542.25,-14.0401 4017.28,-11.613"/>
<polygon fill="midnightblue" stroke="midnightblue" points="1569.71,-229.852 1580.01,-232.364 1573.53,-223.982 1569.71,-229.852"/>
</g>
<!-- Node40 -->
<g id="node80" class="node"><title>Node40</title>
<a xlink:href="../../d3/d9b/_combo_picker_8h.html" target="_top" xlink:title="/home/vilon_tao/gaia/sdk/include/gaia/ui/ComboPicker.h">
<polygon fill="white" stroke="black" points="7073.5,-174.5 7073.5,-195.5 7334.5,-195.5 7334.5,-174.5 7073.5,-174.5"/>
<text text-anchor="middle" x="7204" y="-182.5" font-family="Helvetica,sans-Serif" font-size="10.00">/home/vilon_tao/gaia/sdk/include/gaia/ui/ComboPicker.h</text>
</a>
</g>
<!-- Node1&#45;&gt;Node40 -->
<g id="edge80" class="edge"><title>Node1&#45;&gt;Node40</title>
<path fill="none" stroke="midnightblue" d="M1759.63,-242.275C2600.58,-238.349 6519.48,-218.945 7060,-196 7064.38,-195.814 7068.84,-195.602 7073.34,-195.368"/>
<polygon fill="midnightblue" stroke="midnightblue" points="1759.56,-238.776 1749.58,-242.322 1759.6,-245.776 1759.56,-238.776"/>
</g>
<!-- Node41 -->
<g id="node82" class="node"><title>Node41</title>
<a xlink:href="../../d8/d37/_image_widget_8h.html" target="_top" xlink:title="/home/vilon_tao/gaia/sdk/include/gaia/ui/ImageWidget.h">
<polygon fill="white" stroke="black" points="1218,-174.5 1218,-195.5 1478,-195.5 1478,-174.5 1218,-174.5"/>
<text text-anchor="middle" x="1348" y="-182.5" font-family="Helvetica,sans-Serif" font-size="10.00">/home/vilon_tao/gaia/sdk/include/gaia/ui/ImageWidget.h</text>
</a>
</g>
<!-- Node1&#45;&gt;Node41 -->
<g id="edge82" class="edge"><title>Node1&#45;&gt;Node41</title>
<path fill="none" stroke="midnightblue" d="M1545.2,-230.208C1499.77,-219.794 1436.43,-205.272 1393.9,-195.523"/>
<polygon fill="midnightblue" stroke="midnightblue" points="1544.65,-233.674 1555.18,-232.497 1546.22,-226.851 1544.65,-233.674"/>
</g>
<!-- Node45 -->
<g id="node90" class="node"><title>Node45</title>
<a xlink:href="../../dd/d9c/_progress_bar_8h.html" target="_top" xlink:title="/home/vilon_tao/gaia/sdk/include/gaia/ui/ProgressBar.h">
<polygon fill="white" stroke="black" points="7498,-174.5 7498,-195.5 7754,-195.5 7754,-174.5 7498,-174.5"/>
<text text-anchor="middle" x="7626" y="-182.5" font-family="Helvetica,sans-Serif" font-size="10.00">/home/vilon_tao/gaia/sdk/include/gaia/ui/ProgressBar.h</text>
</a>
</g>
<!-- Node1&#45;&gt;Node45 -->
<g id="edge90" class="edge"><title>Node1&#45;&gt;Node45</title>
<path fill="none" stroke="midnightblue" d="M1759.88,-242.36C2566.13,-239.009 6210.92,-222.629 7343,-196 7393.63,-194.809 7449.33,-192.796 7497.83,-190.815"/>
<polygon fill="midnightblue" stroke="midnightblue" points="1759.64,-238.86 1749.65,-242.402 1759.67,-245.86 1759.64,-238.86"/>
</g>
<!-- Node47 -->
<g id="node94" class="node"><title>Node47</title>
<a xlink:href="../../d8/d13/_text_widget_8h.html" target="_top" xlink:title="/home/vilon_tao/gaia/sdk/include/gaia/ui/TextWidget.h">
<polygon fill="white" stroke="black" points="1552,-174.5 1552,-195.5 1804,-195.5 1804,-174.5 1552,-174.5"/>
<text text-anchor="middle" x="1678" y="-182.5" font-family="Helvetica,sans-Serif" font-size="10.00">/home/vilon_tao/gaia/sdk/include/gaia/ui/TextWidget.h</text>
</a>
</g>
<!-- Node1&#45;&gt;Node47 -->
<g id="edge94" class="edge"><title>Node1&#45;&gt;Node47</title>
<path fill="none" stroke="midnightblue" d="M1623.23,-226.259C1636.36,-216.364 1652.6,-204.136 1663.97,-195.571"/>
<polygon fill="midnightblue" stroke="midnightblue" points="1621,-223.55 1615.12,-232.362 1625.22,-229.141 1621,-223.55"/>
</g>
<!-- Node3 -->
<g id="node5" class="node"><title>Node3</title>
<a xlink:href="../../d0/d01/_g_l_surface_widget_8h.html" target="_top" xlink:title="/home/vilon_tao/gaia/sdk/include/gaia/core/GLSurfaceWidget.h">
<polygon fill="white" stroke="black" points="0,-116.5 0,-137.5 290,-137.5 290,-116.5 0,-116.5"/>
<text text-anchor="middle" x="145" y="-124.5" font-family="Helvetica,sans-Serif" font-size="10.00">/home/vilon_tao/gaia/sdk/include/gaia/core/GLSurfaceWidget.h</text>
</a>
</g>
<!-- Node2&#45;&gt;Node3 -->
<g id="edge4" class="edge"><title>Node2&#45;&gt;Node3</title>
<path fill="none" stroke="midnightblue" d="M373.459,-172.535C321.102,-162.099 247.221,-147.374 197.797,-137.523"/>
<polygon fill="midnightblue" stroke="midnightblue" points="372.811,-175.974 383.302,-174.497 374.179,-169.109 372.811,-175.974"/>
</g>
<!-- Node4 -->
<g id="node7" class="node"><title>Node4</title>
<a xlink:href="../../d4/db3/_video_widget_8h.html" target="_top" xlink:title="/home/vilon_tao/gaia/sdk/include/gaia/ui/VideoWidget.h">
<polygon fill="white" stroke="black" points="307.5,-116.5 307.5,-137.5 564.5,-137.5 564.5,-116.5 307.5,-116.5"/>
<text text-anchor="middle" x="436" y="-124.5" font-family="Helvetica,sans-Serif" font-size="10.00">/home/vilon_tao/gaia/sdk/include/gaia/ui/VideoWidget.h</text>
</a>
</g>
<!-- Node2&#45;&gt;Node4 -->
<g id="edge6" class="edge"><title>Node2&#45;&gt;Node4</title>
<path fill="none" stroke="midnightblue" d="M436,-164.191C436,-155.168 436,-144.994 436,-137.571"/>
<polygon fill="midnightblue" stroke="midnightblue" points="432.5,-164.362 436,-174.362 439.5,-164.362 432.5,-164.362"/>
</g>
<!-- Node8 -->
<g id="node15" class="node"><title>Node8</title>
<a xlink:href="../../d7/ddb/_app_widget_host_widget_8h.html" target="_top" xlink:title="/home/vilon_tao/gaia/sdk/include/gaia/core/appwidget/AppWidgetHostWidget.h">
<polygon fill="white" stroke="black" points="4646,-116.5 4646,-137.5 5006,-137.5 5006,-116.5 4646,-116.5"/>
<text text-anchor="middle" x="4826" y="-124.5" font-family="Helvetica,sans-Serif" font-size="10.00">/home/vilon_tao/gaia/sdk/include/gaia/core/appwidget/AppWidgetHostWidget.h</text>
</a>
</g>
<!-- Node7&#45;&gt;Node8 -->
<g id="edge14" class="edge"><title>Node7&#45;&gt;Node8</title>
<path fill="none" stroke="midnightblue" d="M4701.18,-171.144C4730.36,-160.823 4769.61,-146.944 4796.25,-137.523"/>
<polygon fill="midnightblue" stroke="midnightblue" points="4699.96,-167.863 4691.7,-174.497 4702.29,-174.462 4699.96,-167.863"/>
</g>
<!-- Node9 -->
<g id="node17" class="node"><title>Node9</title>
<a xlink:href="../../db/d7b/_gesture_controller_8h.html" target="_top" xlink:title="/home/vilon_tao/gaia/sdk/include/gaia/core/gesture/GestureController.h">
<polygon fill="white" stroke="black" points="5023.5,-116.5 5023.5,-137.5 5348.5,-137.5 5348.5,-116.5 5023.5,-116.5"/>
<text text-anchor="middle" x="5186" y="-124.5" font-family="Helvetica,sans-Serif" font-size="10.00">/home/vilon_tao/gaia/sdk/include/gaia/core/gesture/GestureController.h</text>
</a>
</g>
<!-- Node7&#45;&gt;Node9 -->
<g id="edge16" class="edge"><title>Node7&#45;&gt;Node9</title>
<path fill="none" stroke="midnightblue" d="M4767.06,-173.371C4861.67,-162.899 4999.53,-147.64 5090.93,-137.523"/>
<polygon fill="midnightblue" stroke="midnightblue" points="4766.45,-169.918 4756.89,-174.497 4767.22,-176.875 4766.45,-169.918"/>
</g>
<!-- Node10 -->
<g id="node19" class="node"><title>Node10</title>
<a xlink:href="../../dd/db5/_focus_detect_8h.html" target="_top" xlink:title="/home/vilon_tao/gaia/sdk/include/gaia/core/vision/FocusDetect.h">
<polygon fill="white" stroke="black" points="5366,-116.5 5366,-137.5 5664,-137.5 5664,-116.5 5366,-116.5"/>
<text text-anchor="middle" x="5515" y="-124.5" font-family="Helvetica,sans-Serif" font-size="10.00">/home/vilon_tao/gaia/sdk/include/gaia/core/vision/FocusDetect.h</text>
</a>
</g>
<!-- Node7&#45;&gt;Node10 -->
<g id="edge18" class="edge"><title>Node7&#45;&gt;Node10</title>
<path fill="none" stroke="midnightblue" d="M4828.67,-173.822C4969.46,-164.357 5176.44,-150.391 5357,-138 5359.88,-137.802 5362.79,-137.602 5365.72,-137.401"/>
<polygon fill="midnightblue" stroke="midnightblue" points="4828.39,-170.333 4818.65,-174.496 4828.86,-177.317 4828.39,-170.333"/>
</g>
<!-- Node11 -->
<g id="node21" class="node"><title>Node11</title>
<a xlink:href="../../d1/d14/_abs_list_widget_8h.html" target="_top" xlink:title="/home/vilon_tao/gaia/sdk/include/gaia/ui/AbsListWidget.h">
<polygon fill="white" stroke="black" points="2344,-116.5 2344,-137.5 2610,-137.5 2610,-116.5 2344,-116.5"/>
<text text-anchor="middle" x="2477" y="-124.5" font-family="Helvetica,sans-Serif" font-size="10.00">/home/vilon_tao/gaia/sdk/include/gaia/ui/AbsListWidget.h</text>
</a>
</g>
<!-- Node7&#45;&gt;Node11 -->
<g id="edge20" class="edge"><title>Node7&#45;&gt;Node11</title>
<path fill="none" stroke="midnightblue" d="M4494.81,-184.065C4146.58,-181.473 3318.17,-171.954 2624,-138 2619.53,-137.781 2614.98,-137.541 2610.39,-137.283"/>
<polygon fill="midnightblue" stroke="midnightblue" points="4494.94,-187.566 4504.97,-184.139 4494.99,-180.566 4494.94,-187.566"/>
</g>
<!-- Node18 -->
<g id="node35" class="node"><title>Node18</title>
<a xlink:href="../../db/df1/_absolute_controller_8h.html" target="_top" xlink:title="/home/vilon_tao/gaia/sdk/include/gaia/ui/AbsoluteController.h">
<polygon fill="white" stroke="black" points="5970,-116.5 5970,-137.5 6252,-137.5 6252,-116.5 5970,-116.5"/>
<text text-anchor="middle" x="6111" y="-124.5" font-family="Helvetica,sans-Serif" font-size="10.00">/home/vilon_tao/gaia/sdk/include/gaia/ui/AbsoluteController.h</text>
</a>
</g>
<!-- Node7&#45;&gt;Node18 -->
<g id="edge34" class="edge"><title>Node7&#45;&gt;Node18</title>
<path fill="none" stroke="midnightblue" d="M4829.21,-180.93C5076.64,-174.458 5554.84,-160.233 5961,-138 5963.87,-137.843 5966.77,-137.679 5969.69,-137.509"/>
<polygon fill="midnightblue" stroke="midnightblue" points="4828.96,-177.435 4819.05,-181.195 4829.14,-184.433 4828.96,-177.435"/>
</g>
<!-- Node20 -->
<g id="node39" class="node"><title>Node20</title>
<a xlink:href="../../db/d8c/_date_picker_8h.html" target="_top" xlink:title="/home/vilon_tao/gaia/sdk/include/gaia/ui/DatePicker.h">
<polygon fill="white" stroke="black" points="6269.5,-116.5 6269.5,-137.5 6520.5,-137.5 6520.5,-116.5 6269.5,-116.5"/>
<text text-anchor="middle" x="6395" y="-124.5" font-family="Helvetica,sans-Serif" font-size="10.00">/home/vilon_tao/gaia/sdk/include/gaia/ui/DatePicker.h</text>
</a>
</g>
<!-- Node7&#45;&gt;Node20 -->
<g id="edge38" class="edge"><title>Node7&#45;&gt;Node20</title>
<path fill="none" stroke="midnightblue" d="M4829.22,-182.974C5120.35,-178.8 5739.12,-167.07 6261,-138 6263.8,-137.844 6266.63,-137.679 6269.48,-137.505"/>
<polygon fill="midnightblue" stroke="midnightblue" points="4828.95,-179.477 4819,-183.119 4829.05,-186.476 4828.95,-179.477"/>
</g>
<!-- Node21 -->
<g id="node41" class="node"><title>Node21</title>
<a xlink:href="../../d6/d61/_footer_8h.html" target="_top" xlink:title="/home/vilon_tao/gaia/sdk/include/gaia/ui/Footer.h">
<polygon fill="white" stroke="black" points="6538,-116.5 6538,-137.5 6768,-137.5 6768,-116.5 6538,-116.5"/>
<text text-anchor="middle" x="6653" y="-124.5" font-family="Helvetica,sans-Serif" font-size="10.00">/home/vilon_tao/gaia/sdk/include/gaia/ui/Footer.h</text>
</a>
</g>
<!-- Node7&#45;&gt;Node21 -->
<g id="edge40" class="edge"><title>Node7&#45;&gt;Node21</title>
<path fill="none" stroke="midnightblue" d="M4829.21,-182.15C5223.17,-175.213 6201.13,-156.651 6529,-138 6531.91,-137.834 6534.86,-137.655 6537.84,-137.465"/>
<polygon fill="midnightblue" stroke="midnightblue" points="4829.09,-178.651 4819.15,-182.326 4829.21,-185.65 4829.09,-178.651"/>
</g>
<!-- Node22 -->
<g id="node43" class="node"><title>Node22</title>
<a xlink:href="../../d1/d40/_frame_controller_8h.html" target="_top" xlink:title="/home/vilon_tao/gaia/sdk/include/gaia/ui/FrameController.h">
<polygon fill="white" stroke="black" points="7074,-116.5 7074,-137.5 7346,-137.5 7346,-116.5 7074,-116.5"/>
<text text-anchor="middle" x="7210" y="-124.5" font-family="Helvetica,sans-Serif" font-size="10.00">/home/vilon_tao/gaia/sdk/include/gaia/ui/FrameController.h</text>
</a>
</g>
<!-- Node7&#45;&gt;Node22 -->
<g id="edge42" class="edge"><title>Node7&#45;&gt;Node22</title>
<path fill="none" stroke="midnightblue" d="M4829.27,-183.983C5216.18,-181.126 6202.85,-170.945 7027,-138 7042.11,-137.396 7057.91,-136.638 7073.62,-135.803"/>
<polygon fill="midnightblue" stroke="midnightblue" points="4829.1,-180.484 4819.12,-184.057 4829.15,-187.484 4829.1,-180.484"/>
</g>
<!-- Node27 -->
<g id="node53" class="node"><title>Node27</title>
<a xlink:href="../../d7/d30/_gallery_8h.html" target="_top" xlink:title="/home/vilon_tao/gaia/sdk/include/gaia/ui/Gallery.h">
<polygon fill="white" stroke="black" points="6785.5,-116.5 6785.5,-137.5 7018.5,-137.5 7018.5,-116.5 6785.5,-116.5"/>
<text text-anchor="middle" x="6902" y="-124.5" font-family="Helvetica,sans-Serif" font-size="10.00">/home/vilon_tao/gaia/sdk/include/gaia/ui/Gallery.h</text>
</a>
</g>
<!-- Node7&#45;&gt;Node27 -->
<g id="edge52" class="edge"><title>Node7&#45;&gt;Node27</title>
<path fill="none" stroke="midnightblue" d="M4829.28,-182.702C5259.91,-176.557 6399.27,-158.795 6777,-138 6779.72,-137.85 6782.47,-137.689 6785.24,-137.518"/>
<polygon fill="midnightblue" stroke="midnightblue" points="4829.19,-179.202 4819.24,-182.845 4829.29,-186.202 4829.19,-179.202"/>
</g>
<!-- Node28 -->
<g id="node55" class="node"><title>Node28</title>
<a xlink:href="../../d5/db2/_grid_controller_8h.html" target="_top" xlink:title="/home/vilon_tao/gaia/sdk/include/gaia/ui/GridController.h">
<polygon fill="white" stroke="black" points="7364,-116.5 7364,-137.5 7626,-137.5 7626,-116.5 7364,-116.5"/>
<text text-anchor="middle" x="7495" y="-124.5" font-family="Helvetica,sans-Serif" font-size="10.00">/home/vilon_tao/gaia/sdk/include/gaia/ui/GridController.h</text>
</a>
</g>
<!-- Node7&#45;&gt;Node28 -->
<g id="edge54" class="edge"><title>Node7&#45;&gt;Node28</title>
<path fill="none" stroke="midnightblue" d="M4829.59,-183.415C5338.29,-178.392 6859.96,-161.746 7355,-138 7358.17,-137.848 7361.37,-137.683 7364.6,-137.507"/>
<polygon fill="midnightblue" stroke="midnightblue" points="4829.2,-179.919 4819.23,-183.517 4829.27,-186.918 4829.2,-179.919"/>
</g>
<!-- Node30 -->
<g id="node59" class="node"><title>Node30</title>
<a xlink:href="../../d7/d74/_linear_controller_8h.html" target="_top" xlink:title="/home/vilon_tao/gaia/sdk/include/gaia/ui/LinearController.h">
<polygon fill="white" stroke="red" points="5682,-116.5 5682,-137.5 5952,-137.5 5952,-116.5 5682,-116.5"/>
<text text-anchor="middle" x="5817" y="-124.5" font-family="Helvetica,sans-Serif" font-size="10.00">/home/vilon_tao/gaia/sdk/include/gaia/ui/LinearController.h</text>
</a>
</g>
<!-- Node7&#45;&gt;Node30 -->
<g id="edge58" class="edge"><title>Node7&#45;&gt;Node30</title>
<path fill="none" stroke="midnightblue" d="M4829.28,-178.75C5029.85,-170.904 5376.14,-156.235 5673,-138 5675.88,-137.823 5678.79,-137.64 5681.72,-137.452"/>
<polygon fill="midnightblue" stroke="midnightblue" points="4829.11,-175.254 4819.25,-179.142 4829.38,-182.249 4829.11,-175.254"/>
</g>
<!-- Node32 -->
<g id="node63" class="node"><title>Node32</title>
<a xlink:href="../../de/d15/_list_item_8h.html" target="_top" xlink:title="/home/vilon_tao/gaia/sdk/include/gaia/ui/ListItem.h">
<polygon fill="white" stroke="black" points="4543.5,-58.5 4543.5,-79.5 4780.5,-79.5 4780.5,-58.5 4543.5,-58.5"/>
<text text-anchor="middle" x="4662" y="-66.5" font-family="Helvetica,sans-Serif" font-size="10.00">/home/vilon_tao/gaia/sdk/include/gaia/ui/ListItem.h</text>
</a>
</g>
<!-- Node7&#45;&gt;Node32 -->
<g id="edge64" class="edge"><title>Node7&#45;&gt;Node32</title>
<path fill="none" stroke="midnightblue" d="M4494.59,-184.162C4018.48,-181.382 2688.94,-170.701 2657,-138 2650.17,-131.006 2650.17,-122.994 2657,-116 2673.57,-99.0368 4115.04,-76.8928 4543.31,-70.683"/>
<polygon fill="midnightblue" stroke="midnightblue" points="4494.62,-187.662 4504.64,-184.22 4494.66,-180.662 4494.62,-187.662"/>
</g>
<!-- Node33 -->
<g id="node66" class="node"><title>Node33</title>
<a xlink:href="../../df/d14/_number_picker_8h.html" target="_top" xlink:title="/home/vilon_tao/gaia/sdk/include/gaia/ui/NumberPicker.h">
<polygon fill="white" stroke="black" points="2666,-116.5 2666,-137.5 2930,-137.5 2930,-116.5 2666,-116.5"/>
<text text-anchor="middle" x="2798" y="-124.5" font-family="Helvetica,sans-Serif" font-size="10.00">/home/vilon_tao/gaia/sdk/include/gaia/ui/NumberPicker.h</text>
</a>
</g>
<!-- Node7&#45;&gt;Node33 -->
<g id="edge66" class="edge"><title>Node7&#45;&gt;Node33</title>
<path fill="none" stroke="midnightblue" d="M4494.45,-183.243C4186.33,-179.385 3509.08,-167.993 2939,-138 2936.06,-137.845 2933.08,-137.681 2930.08,-137.508"/>
<polygon fill="midnightblue" stroke="midnightblue" points="4494.76,-186.747 4504.81,-183.371 4494.85,-179.747 4494.76,-186.747"/>
</g>
<!-- Node34 -->
<g id="node68" class="node"><title>Node34</title>
<a xlink:href="../../d9/d1f/_pager_tab_strip_8h.html" target="_top" xlink:title="/home/vilon_tao/gaia/sdk/include/gaia/ui/PagerTabStrip.h">
<polygon fill="white" stroke="black" points="2948,-116.5 2948,-137.5 3212,-137.5 3212,-116.5 2948,-116.5"/>
<text text-anchor="middle" x="3080" y="-124.5" font-family="Helvetica,sans-Serif" font-size="10.00">/home/vilon_tao/gaia/sdk/include/gaia/ui/PagerTabStrip.h</text>
</a>
</g>
<!-- Node7&#45;&gt;Node34 -->
<g id="edge68" class="edge"><title>Node7&#45;&gt;Node34</title>
<path fill="none" stroke="midnightblue" d="M4494.68,-181.999C4225.97,-176.627 3681.66,-163.468 3221,-138 3218.06,-137.837 3215.08,-137.666 3212.08,-137.486"/>
<polygon fill="midnightblue" stroke="midnightblue" points="4494.84,-185.503 4504.91,-182.202 4494.98,-178.504 4494.84,-185.503"/>
</g>
<!-- Node35 -->
<g id="node70" class="node"><title>Node35</title>
<a xlink:href="../../d8/dc0/_relative_controller_8h.html" target="_top" xlink:title="/home/vilon_tao/gaia/sdk/include/gaia/ui/RelativeController.h">
<polygon fill="white" stroke="red" points="3230,-116.5 3230,-137.5 3510,-137.5 3510,-116.5 3230,-116.5"/>
<text text-anchor="middle" x="3370" y="-124.5" font-family="Helvetica,sans-Serif" font-size="10.00">/home/vilon_tao/gaia/sdk/include/gaia/ui/RelativeController.h</text>
</a>
</g>
<!-- Node7&#45;&gt;Node35 -->
<g id="edge70" class="edge"><title>Node7&#45;&gt;Node35</title>
<path fill="none" stroke="midnightblue" d="M4494.63,-179.826C4271.83,-172.548 3865.62,-157.916 3519,-138 3516.15,-137.836 3513.27,-137.666 3510.37,-137.491"/>
<polygon fill="midnightblue" stroke="midnightblue" points="4494.66,-183.329 4504.77,-180.157 4494.89,-176.333 4494.66,-183.329"/>
</g>
<!-- Node36 -->
<g id="node72" class="node"><title>Node36</title>
<a xlink:href="../../d8/d72/_scroll_widget_8h.html" target="_top" xlink:title="/home/vilon_tao/gaia/sdk/include/gaia/ui/ScrollWidget.h">
<polygon fill="white" stroke="black" points="3527.5,-116.5 3527.5,-137.5 3784.5,-137.5 3784.5,-116.5 3527.5,-116.5"/>
<text text-anchor="middle" x="3656" y="-124.5" font-family="Helvetica,sans-Serif" font-size="10.00">/home/vilon_tao/gaia/sdk/include/gaia/ui/ScrollWidget.h</text>
</a>
</g>
<!-- Node7&#45;&gt;Node36 -->
<g id="edge72" class="edge"><title>Node7&#45;&gt;Node36</title>
<path fill="none" stroke="midnightblue" d="M4494.87,-177.257C4319.84,-168.844 4037,-154.391 3793,-138 3790.26,-137.816 3787.49,-137.626 3784.7,-137.432"/>
<polygon fill="midnightblue" stroke="midnightblue" points="4494.78,-180.756 4504.94,-177.74 4495.12,-173.764 4494.78,-180.756"/>
</g>
<!-- Node37 -->
<g id="node74" class="node"><title>Node37</title>
<a xlink:href="../../df/db6/_tab_page_controller_8h.html" target="_top" xlink:title="/home/vilon_tao/gaia/sdk/include/gaia/ui/TabPageController.h">
<polygon fill="white" stroke="black" points="3801.5,-116.5 3801.5,-137.5 4084.5,-137.5 4084.5,-116.5 3801.5,-116.5"/>
<text text-anchor="middle" x="3943" y="-124.5" font-family="Helvetica,sans-Serif" font-size="10.00">/home/vilon_tao/gaia/sdk/include/gaia/ui/TabPageController.h</text>
</a>
</g>
<!-- Node7&#45;&gt;Node37 -->
<g id="edge74" class="edge"><title>Node7&#45;&gt;Node37</title>
<path fill="none" stroke="midnightblue" d="M4521.77,-173.688C4391.86,-163.208 4200.14,-147.743 4073.45,-137.523"/>
<polygon fill="midnightblue" stroke="midnightblue" points="4521.55,-177.181 4531.79,-174.497 4522.11,-170.204 4521.55,-177.181"/>
</g>
<!-- Node38 -->
<g id="node76" class="node"><title>Node38</title>
<a xlink:href="../../d5/d8f/_time_picker_8h.html" target="_top" xlink:title="/home/vilon_tao/gaia/sdk/include/gaia/ui/TimePicker.h">
<polygon fill="white" stroke="black" points="4101.5,-116.5 4101.5,-137.5 4352.5,-137.5 4352.5,-116.5 4101.5,-116.5"/>
<text text-anchor="middle" x="4227" y="-124.5" font-family="Helvetica,sans-Serif" font-size="10.00">/home/vilon_tao/gaia/sdk/include/gaia/ui/TimePicker.h</text>
</a>
</g>
<!-- Node7&#45;&gt;Node38 -->
<g id="edge76" class="edge"><title>Node7&#45;&gt;Node38</title>
<path fill="none" stroke="midnightblue" d="M4572.87,-173.116C4494.39,-162.652 4381.19,-147.558 4305.92,-137.523"/>
<polygon fill="midnightblue" stroke="midnightblue" points="4572.85,-176.644 4583.22,-174.497 4573.78,-169.706 4572.85,-176.644"/>
</g>
<!-- Node39 -->
<g id="node78" class="node"><title>Node39</title>
<a xlink:href="../../d4/da9/_widget_pager_8h.html" target="_top" xlink:title="/home/vilon_tao/gaia/sdk/include/gaia/ui/WidgetPager.h">
<polygon fill="white" stroke="black" points="4370,-116.5 4370,-137.5 4628,-137.5 4628,-116.5 4370,-116.5"/>
<text text-anchor="middle" x="4499" y="-124.5" font-family="Helvetica,sans-Serif" font-size="10.00">/home/vilon_tao/gaia/sdk/include/gaia/ui/WidgetPager.h</text>
</a>
</g>
<!-- Node7&#45;&gt;Node39 -->
<g id="edge78" class="edge"><title>Node7&#45;&gt;Node39</title>
<path fill="none" stroke="midnightblue" d="M4622.68,-171.009C4593.72,-160.702 4554.93,-146.903 4528.57,-137.523"/>
<polygon fill="midnightblue" stroke="midnightblue" points="4621.89,-174.442 4632.48,-174.497 4624.23,-167.847 4621.89,-174.442"/>
</g>
<!-- Node12 -->
<g id="node23" class="node"><title>Node12</title>
<a xlink:href="../../d4/da1/_auto_complete_edit_widget_8h.html" target="_top" xlink:title="/home/vilon_tao/gaia/sdk/include/gaia/ui/AutoCompleteEditWidget.h">
<polygon fill="white" stroke="black" points="1756,-58.5 1756,-79.5 2068,-79.5 2068,-58.5 1756,-58.5"/>
<text text-anchor="middle" x="1912" y="-66.5" font-family="Helvetica,sans-Serif" font-size="10.00">/home/vilon_tao/gaia/sdk/include/gaia/ui/AutoCompleteEditWidget.h</text>
</a>
</g>
<!-- Node11&#45;&gt;Node12 -->
<g id="edge22" class="edge"><title>Node11&#45;&gt;Node12</title>
<path fill="none" stroke="midnightblue" d="M2364.65,-115.467C2262.61,-104.992 2113.36,-89.671 2014.51,-79.5231"/>
<polygon fill="midnightblue" stroke="midnightblue" points="2364.38,-118.957 2374.68,-116.497 2365.09,-111.994 2364.38,-118.957"/>
</g>
<!-- Node13 -->
<g id="node25" class="node"><title>Node13</title>
<a xlink:href="../../df/d36/_grid_widget_8h.html" target="_top" xlink:title="/home/vilon_tao/gaia/sdk/include/gaia/ui/GridWidget.h">
<polygon fill="white" stroke="black" points="2351.5,-58.5 2351.5,-79.5 2602.5,-79.5 2602.5,-58.5 2351.5,-58.5"/>
<text text-anchor="middle" x="2477" y="-66.5" font-family="Helvetica,sans-Serif" font-size="10.00">/home/vilon_tao/gaia/sdk/include/gaia/ui/GridWidget.h</text>
</a>
</g>
<!-- Node11&#45;&gt;Node13 -->
<g id="edge24" class="edge"><title>Node11&#45;&gt;Node13</title>
<path fill="none" stroke="midnightblue" d="M2477,-106.191C2477,-97.1684 2477,-86.9941 2477,-79.5707"/>
<polygon fill="midnightblue" stroke="midnightblue" points="2473.5,-106.362 2477,-116.362 2480.5,-106.362 2473.5,-106.362"/>
</g>
<!-- Node14 -->
<g id="node27" class="node"><title>Node14</title>
<a xlink:href="../../dd/dc5/_i_gallery_on_item_click_listener_8h.html" target="_top" xlink:title="/home/vilon_tao/gaia/sdk/include/gaia/ui/IGalleryOnItemClickListener.h">
<polygon fill="white" stroke="black" points="2619.5,-58.5 2619.5,-79.5 2944.5,-79.5 2944.5,-58.5 2619.5,-58.5"/>
<text text-anchor="middle" x="2782" y="-66.5" font-family="Helvetica,sans-Serif" font-size="10.00">/home/vilon_tao/gaia/sdk/include/gaia/ui/IGalleryOnItemClickListener.h</text>
</a>
</g>
<!-- Node11&#45;&gt;Node14 -->
<g id="edge26" class="edge"><title>Node11&#45;&gt;Node14</title>
<path fill="none" stroke="midnightblue" d="M2542.21,-114.6C2597.1,-104.161 2674.75,-89.3945 2726.66,-79.5231"/>
<polygon fill="midnightblue" stroke="midnightblue" points="2541.4,-111.19 2532.23,-116.497 2542.71,-118.067 2541.4,-111.19"/>
</g>
<!-- Node15 -->
<g id="node29" class="node"><title>Node15</title>
<a xlink:href="../../dd/dca/_i_gallery_on_item_long_click_listener_8h.html" target="_top" xlink:title="/home/vilon_tao/gaia/sdk/include/gaia/ui/IGalleryOnItemLongClickListener.h">
<polygon fill="white" stroke="black" points="2962,-58.5 2962,-79.5 3308,-79.5 3308,-58.5 2962,-58.5"/>
<text text-anchor="middle" x="3135" y="-66.5" font-family="Helvetica,sans-Serif" font-size="10.00">/home/vilon_tao/gaia/sdk/include/gaia/ui/IGalleryOnItemLongClickListener.h</text>
</a>
</g>
<!-- Node11&#45;&gt;Node15 -->
<g id="edge28" class="edge"><title>Node11&#45;&gt;Node15</title>
<path fill="none" stroke="midnightblue" d="M2606.41,-115.593C2725.28,-105.115 2900.03,-89.7119 3015.62,-79.5231"/>
<polygon fill="midnightblue" stroke="midnightblue" points="2605.81,-112.132 2596.16,-116.497 2606.43,-119.105 2605.81,-112.132"/>
</g>
<!-- Node16 -->
<g id="node31" class="node"><title>Node16</title>
<a xlink:href="../../d5/da5/_i_gallery_on_item_selected_listener_8h.html" target="_top" xlink:title="/home/vilon_tao/gaia/sdk/include/gaia/ui/IGalleryOnItemSelectedListener.h">
<polygon fill="white" stroke="black" points="3325.5,-58.5 3325.5,-79.5 3666.5,-79.5 3666.5,-58.5 3325.5,-58.5"/>
<text text-anchor="middle" x="3496" y="-66.5" font-family="Helvetica,sans-Serif" font-size="10.00">/home/vilon_tao/gaia/sdk/include/gaia/ui/IGalleryOnItemSelectedListener.h</text>
</a>
</g>
<!-- Node11&#45;&gt;Node16 -->
<g id="edge30" class="edge"><title>Node11&#45;&gt;Node16</title>
<path fill="none" stroke="midnightblue" d="M2620.1,-116.249C2621.41,-116.165 2622.71,-116.082 2624,-116 2931.8,-96.4916 3009.08,-97.4588 3317,-80 3319.8,-79.8414 3322.62,-79.6803 3325.46,-79.5172"/>
<polygon fill="midnightblue" stroke="midnightblue" points="2619.75,-112.764 2610,-116.911 2620.21,-119.749 2619.75,-112.764"/>
</g>
<!-- Node17 -->
<g id="node33" class="node"><title>Node17</title>
<a xlink:href="../../da/d6c/_list_widget_8h.html" target="_top" xlink:title="/home/vilon_tao/gaia/sdk/include/gaia/ui/ListWidget.h">
<polygon fill="white" stroke="red" points="2086,-58.5 2086,-79.5 2334,-79.5 2334,-58.5 2086,-58.5"/>
<text text-anchor="middle" x="2210" y="-66.5" font-family="Helvetica,sans-Serif" font-size="10.00">/home/vilon_tao/gaia/sdk/include/gaia/ui/ListWidget.h</text>
</a>
</g>
<!-- Node11&#45;&gt;Node17 -->
<g id="edge32" class="edge"><title>Node11&#45;&gt;Node17</title>
<path fill="none" stroke="midnightblue" d="M2418.72,-114.339C2370.73,-103.916 2303.51,-89.3126 2258.44,-79.5231"/>
<polygon fill="midnightblue" stroke="midnightblue" points="2418.13,-117.794 2428.65,-116.497 2419.62,-110.954 2418.13,-117.794"/>
</g>
<!-- Node19 -->
<g id="node37" class="node"><title>Node19</title>
<a xlink:href="../../d6/d10/_web_view_8h.html" target="_top" xlink:title="/home/vilon_tao/gaia/sdk/include/gaia/webkit/WebView.h">
<polygon fill="white" stroke="red" points="5982.5,-58.5 5982.5,-79.5 6247.5,-79.5 6247.5,-58.5 5982.5,-58.5"/>
<text text-anchor="middle" x="6115" y="-66.5" font-family="Helvetica,sans-Serif" font-size="10.00">/home/vilon_tao/gaia/sdk/include/gaia/webkit/WebView.h</text>
</a>
</g>
<!-- Node18&#45;&gt;Node19 -->
<g id="edge36" class="edge"><title>Node18&#45;&gt;Node19</title>
<path fill="none" stroke="midnightblue" d="M6112.44,-106.191C6113.06,-97.1684 6113.76,-86.9941 6114.27,-79.5707"/>
<polygon fill="midnightblue" stroke="midnightblue" points="6108.93,-106.145 6111.73,-116.362 6115.91,-106.626 6108.93,-106.145"/>
</g>
<!-- Node23 -->
<g id="node45" class="node"><title>Node23</title>
<a xlink:href="../../d6/d77/_list_item_panels_8h.html" target="_top" xlink:title="/home/vilon_tao/gaia/sdk/include/gaia/ui/ListItemPanels.h">
<polygon fill="white" stroke="red" points="6935.5,-58.5 6935.5,-79.5 7202.5,-79.5 7202.5,-58.5 6935.5,-58.5"/>
<text text-anchor="middle" x="7069" y="-66.5" font-family="Helvetica,sans-Serif" font-size="10.00">/home/vilon_tao/gaia/sdk/include/gaia/ui/ListItemPanels.h</text>
</a>
</g>
<!-- Node22&#45;&gt;Node23 -->
<g id="edge44" class="edge"><title>Node22&#45;&gt;Node23</title>
<path fill="none" stroke="midnightblue" d="M7175.03,-112.615C7150.17,-102.389 7117.33,-88.8796 7094.82,-79.6212"/>
<polygon fill="midnightblue" stroke="midnightblue" points="7173.89,-115.929 7184.47,-116.497 7176.55,-109.456 7173.89,-115.929"/>
</g>
<!-- Node24 -->
<g id="node47" class="node"><title>Node24</title>
<a xlink:href="../../d0/d59/_media_control_8h.html" target="_top" xlink:title="/home/vilon_tao/gaia/sdk/include/gaia/ui/MediaControl.h">
<polygon fill="white" stroke="black" points="7220,-58.5 7220,-79.5 7480,-79.5 7480,-58.5 7220,-58.5"/>
<text text-anchor="middle" x="7350" y="-66.5" font-family="Helvetica,sans-Serif" font-size="10.00">/home/vilon_tao/gaia/sdk/include/gaia/ui/MediaControl.h</text>
</a>
</g>
<!-- Node22&#45;&gt;Node24 -->
<g id="edge46" class="edge"><title>Node22&#45;&gt;Node24</title>
<path fill="none" stroke="midnightblue" d="M7244.72,-112.615C7269.41,-102.389 7302.01,-88.8796 7324.36,-79.6212"/>
<polygon fill="midnightblue" stroke="midnightblue" points="7243.25,-109.436 7235.35,-116.497 7245.93,-115.903 7243.25,-109.436"/>
</g>
<!-- Node22&#45;&gt;Node25 -->
<g id="edge48" class="edge"><title>Node22&#45;&gt;Node25</title>
<path fill="none" stroke="midnightblue" d="M7122.3,-115.116C7045.09,-104.652 6933.71,-89.5583 6859.65,-79.5231"/>
<polygon fill="midnightblue" stroke="midnightblue" points="7122.11,-118.622 7132.49,-116.497 7123.05,-111.685 7122.11,-118.622"/>
</g>
<!-- Node25&#45;&gt;Node26 -->
<g id="edge50" class="edge"><title>Node25&#45;&gt;Node26</title>
<path fill="none" stroke="midnightblue" d="M6635.62,-65.7706C6171.58,-55.5332 4737.52,-23.8955 4288.71,-13.9941"/>
<polygon fill="midnightblue" stroke="midnightblue" points="6635.66,-69.2722 6645.73,-65.9937 6635.81,-62.2739 6635.66,-69.2722"/>
</g>
<!-- Node29 -->
<g id="node57" class="node"><title>Node29</title>
<a xlink:href="../../de/da8/_grid_controller_params_8h.html" target="_top" xlink:title="/home/vilon_tao/gaia/sdk/include/gaia/ui/GridControllerParams.h">
<polygon fill="white" stroke="black" points="7498,-58.5 7498,-79.5 7794,-79.5 7794,-58.5 7498,-58.5"/>
<text text-anchor="middle" x="7646" y="-66.5" font-family="Helvetica,sans-Serif" font-size="10.00">/home/vilon_tao/gaia/sdk/include/gaia/ui/GridControllerParams.h</text>
</a>
</g>
<!-- Node28&#45;&gt;Node29 -->
<g id="edge56" class="edge"><title>Node28&#45;&gt;Node29</title>
<path fill="none" stroke="midnightblue" d="M7531.78,-112.874C7558.57,-102.582 7594.29,-88.862 7618.6,-79.5231"/>
<polygon fill="midnightblue" stroke="midnightblue" points="7530.43,-109.644 7522.34,-116.497 7532.94,-116.178 7530.43,-109.644"/>
</g>
<!-- Node31 -->
<g id="node61" class="node"><title>Node31</title>
<a xlink:href="../../de/dc8/_action_drop_down_widget_8h.html" target="_top" xlink:title="/home/vilon_tao/gaia/sdk/include/gaia/ui/ActionDropDownWidget.h">
<polygon fill="white" stroke="black" points="5658.5,-58.5 5658.5,-79.5 5965.5,-79.5 5965.5,-58.5 5658.5,-58.5"/>
<text text-anchor="middle" x="5812" y="-66.5" font-family="Helvetica,sans-Serif" font-size="10.00">/home/vilon_tao/gaia/sdk/include/gaia/ui/ActionDropDownWidget.h</text>
</a>
</g>
<!-- Node30&#45;&gt;Node31 -->
<g id="edge60" class="edge"><title>Node30&#45;&gt;Node31</title>
<path fill="none" stroke="midnightblue" d="M5815.21,-106.191C5814.43,-97.1684 5813.55,-86.9941 5812.91,-79.5707"/>
<polygon fill="midnightblue" stroke="midnightblue" points="5811.74,-106.699 5816.08,-116.362 5818.71,-106.098 5811.74,-106.699"/>
</g>
<!-- Node30&#45;&gt;Node32 -->
<g id="edge62" class="edge"><title>Node30&#45;&gt;Node32</title>
<path fill="none" stroke="midnightblue" d="M5671.52,-115.924C5342.73,-95.8726 4967.78,-80.5172 4780.74,-73.373"/>
<polygon fill="midnightblue" stroke="midnightblue" points="5671.53,-119.431 5681.72,-116.548 5671.95,-112.444 5671.53,-119.431"/>
</g>
<!-- Node42 -->
<g id="node84" class="node"><title>Node42</title>
<a xlink:href="../../de/d70/_image_button_8h.html" target="_top" xlink:title="/home/vilon_tao/gaia/sdk/include/gaia/ui/ImageButton.h">
<polygon fill="white" stroke="black" points="581.5,-116.5 581.5,-137.5 838.5,-137.5 838.5,-116.5 581.5,-116.5"/>
<text text-anchor="middle" x="710" y="-124.5" font-family="Helvetica,sans-Serif" font-size="10.00">/home/vilon_tao/gaia/sdk/include/gaia/ui/ImageButton.h</text>
</a>
</g>
<!-- Node41&#45;&gt;Node42 -->
<g id="edge84" class="edge"><title>Node41&#45;&gt;Node42</title>
<path fill="none" stroke="midnightblue" d="M1222.18,-173.562C1106.93,-163.084 937.718,-147.702 825.754,-137.523"/>
<polygon fill="midnightblue" stroke="midnightblue" points="1222.19,-177.077 1232.46,-174.497 1222.82,-170.106 1222.19,-177.077"/>
</g>
<!-- Node43 -->
<g id="node86" class="node"><title>Node43</title>
<a xlink:href="../../d1/de8/_quick_contact_badge_8h.html" target="_top" xlink:title="/home/vilon_tao/gaia/sdk/include/gaia/ui/QuickContactBadge.h">
<polygon fill="white" stroke="black" points="856,-116.5 856,-137.5 1146,-137.5 1146,-116.5 856,-116.5"/>
<text text-anchor="middle" x="1001" y="-124.5" font-family="Helvetica,sans-Serif" font-size="10.00">/home/vilon_tao/gaia/sdk/include/gaia/ui/QuickContactBadge.h</text>
</a>
</g>
<!-- Node41&#45;&gt;Node43 -->
<g id="edge86" class="edge"><title>Node41&#45;&gt;Node43</title>
<path fill="none" stroke="midnightblue" d="M1274.98,-172.794C1212.46,-162.345 1123.38,-147.456 1063.96,-137.523"/>
<polygon fill="midnightblue" stroke="midnightblue" points="1274.72,-176.3 1285.16,-174.497 1275.87,-169.396 1274.72,-176.3"/>
</g>
<!-- Node44 -->
<g id="node88" class="node"><title>Node44</title>
<a xlink:href="../../db/daf/_simple_cursor_list_item_provider_8h.html" target="_top" xlink:title="/home/vilon_tao/gaia/sdk/include/gaia/ui/SimpleCursorListItemProvider.h">
<polygon fill="white" stroke="black" points="1164,-116.5 1164,-137.5 1496,-137.5 1496,-116.5 1164,-116.5"/>
<text text-anchor="middle" x="1330" y="-124.5" font-family="Helvetica,sans-Serif" font-size="10.00">/home/vilon_tao/gaia/sdk/include/gaia/ui/SimpleCursorListItemProvider.h</text>
</a>
</g>
<!-- Node41&#45;&gt;Node44 -->
<g id="edge88" class="edge"><title>Node41&#45;&gt;Node44</title>
<path fill="none" stroke="midnightblue" d="M1341.73,-164.784C1338.88,-155.617 1335.63,-145.157 1333.28,-137.571"/>
<polygon fill="midnightblue" stroke="midnightblue" points="1338.39,-165.849 1344.7,-174.362 1345.08,-163.774 1338.39,-165.849"/>
</g>
<!-- Node46 -->
<g id="node92" class="node"><title>Node46</title>
<a xlink:href="../../db/df3/_abs_seek_bar_8h.html" target="_top" xlink:title="/home/vilon_tao/gaia/sdk/include/gaia/ui/AbsSeekBar.h">
<polygon fill="white" stroke="red" points="7643.5,-116.5 7643.5,-137.5 7900.5,-137.5 7900.5,-116.5 7643.5,-116.5"/>
<text text-anchor="middle" x="7772" y="-124.5" font-family="Helvetica,sans-Serif" font-size="10.00">/home/vilon_tao/gaia/sdk/include/gaia/ui/AbsSeekBar.h</text>
</a>
</g>
<!-- Node45&#45;&gt;Node46 -->
<g id="edge92" class="edge"><title>Node45&#45;&gt;Node46</title>
<path fill="none" stroke="midnightblue" d="M7661.87,-170.751C7687.65,-160.509 7721.86,-146.921 7745.26,-137.621"/>
<polygon fill="midnightblue" stroke="midnightblue" points="7660.44,-167.552 7652.44,-174.497 7663.03,-174.057 7660.44,-167.552"/>
</g>
<!-- Node47&#45;&gt;Node44 -->
<g id="edge104" class="edge"><title>Node47&#45;&gt;Node44</title>
<path fill="none" stroke="midnightblue" d="M1604.77,-172.794C1542.07,-162.345 1452.74,-147.456 1393.14,-137.523"/>
<polygon fill="midnightblue" stroke="midnightblue" points="1604.54,-176.305 1614.98,-174.497 1605.69,-169.4 1604.54,-176.305"/>
</g>
<!-- Node48 -->
<g id="node96" class="node"><title>Node48</title>
<a xlink:href="../../d2/daa/_button_8h.html" target="_top" xlink:title="/home/vilon_tao/gaia/sdk/include/gaia/ui/Button.h">
<polygon fill="white" stroke="red" points="1552,-116.5 1552,-137.5 1782,-137.5 1782,-116.5 1552,-116.5"/>
<text text-anchor="middle" x="1667" y="-124.5" font-family="Helvetica,sans-Serif" font-size="10.00">/home/vilon_tao/gaia/sdk/include/gaia/ui/Button.h</text>
</a>
</g>
<!-- Node47&#45;&gt;Node48 -->
<g id="edge96" class="edge"><title>Node47&#45;&gt;Node48</title>
<path fill="none" stroke="midnightblue" d="M1674.11,-164.488C1672.38,-155.392 1670.43,-145.076 1669,-137.571"/>
<polygon fill="midnightblue" stroke="midnightblue" points="1670.68,-165.189 1675.98,-174.362 1677.56,-163.885 1670.68,-165.189"/>
</g>
<!-- Node49 -->
<g id="node98" class="node"><title>Node49</title>
<a xlink:href="../../d2/d98/_edit_widget_8h.html" target="_top" xlink:title="/home/vilon_tao/gaia/sdk/include/gaia/ui/EditWidget.h">
<polygon fill="white" stroke="red" points="2076,-116.5 2076,-137.5 2326,-137.5 2326,-116.5 2076,-116.5"/>
<text text-anchor="middle" x="2201" y="-124.5" font-family="Helvetica,sans-Serif" font-size="10.00">/home/vilon_tao/gaia/sdk/include/gaia/ui/EditWidget.h</text>
</a>
</g>
<!-- Node47&#45;&gt;Node49 -->
<g id="edge98" class="edge"><title>Node47&#45;&gt;Node49</title>
<path fill="none" stroke="midnightblue" d="M1782.86,-173.371C1877.29,-162.899 2014.88,-147.64 2106.11,-137.523"/>
<polygon fill="midnightblue" stroke="midnightblue" points="1782.26,-169.916 1772.71,-174.497 1783.04,-176.873 1782.26,-169.916"/>
</g>
<!-- Node50 -->
<g id="node101" class="node"><title>Node50</title>
<a xlink:href="../../d2/d47/_footer_button_8h.html" target="_top" xlink:title="/home/vilon_tao/gaia/sdk/include/gaia/ui/FooterButton.h">
<polygon fill="white" stroke="black" points="1800,-116.5 1800,-137.5 2058,-137.5 2058,-116.5 1800,-116.5"/>
<text text-anchor="middle" x="1929" y="-124.5" font-family="Helvetica,sans-Serif" font-size="10.00">/home/vilon_tao/gaia/sdk/include/gaia/ui/FooterButton.h</text>
</a>
</g>
<!-- Node47&#45;&gt;Node50 -->
<g id="edge102" class="edge"><title>Node47&#45;&gt;Node50</title>
<path fill="none" stroke="midnightblue" d="M1733.36,-172.208C1778.43,-161.794 1841.27,-147.272 1883.46,-137.523"/>
<polygon fill="midnightblue" stroke="midnightblue" points="1732.41,-168.835 1723.45,-174.497 1733.99,-175.655 1732.41,-168.835"/>
</g>
<!-- Node49&#45;&gt;Node12 -->
<g id="edge100" class="edge"><title>Node49&#45;&gt;Node12</title>
<path fill="none" stroke="midnightblue" d="M2138.56,-114.47C2086.59,-104.038 2013.42,-89.3535 1964.43,-79.5231"/>
<polygon fill="midnightblue" stroke="midnightblue" points="2138.17,-117.96 2148.66,-116.497 2139.55,-111.097 2138.17,-117.96"/>
</g>
</g>
</svg>
