<?xml version="1.0" encoding="UTF-8" standalone="no"?>
<!DOCTYPE svg PUBLIC "-//W3C//DTD SVG 1.1//EN"
 "http://www.w3.org/Graphics/SVG/1.1/DTD/svg11.dtd">
<!-- Generated by graphviz version 2.26.3 (20100126.1600)
 -->
<!-- Title: G Pages: 1 -->
<svg width="272pt" height="146pt"
 viewBox="0.00 0.00 272.00 146.00" xmlns="http://www.w3.org/2000/svg" xmlns:xlink="http://www.w3.org/1999/xlink">
<g id="graph1" class="graph" transform="scale(1 1) rotate(0) translate(4 142)">
<title>G</title>
<polygon fill="white" stroke="white" points="-4,5 -4,-142 269,-142 269,5 -4,5"/>
<!-- Node1 -->
<g id="node1" class="node"><title>Node1</title>
<polygon fill="#bfbfbf" stroke="black" points="0,-116.5 0,-137.5 264,-137.5 264,-116.5 0,-116.5"/>
<text text-anchor="middle" x="132" y="-124.5" font-family="Helvetica,sans-Serif" font-size="10.00">/home/vilon_tao/gaia/sdk/include/gaia/media/Virtualizer.h</text>
</g>
<!-- Node2 -->
<g id="node3" class="node"><title>Node2</title>
<polygon fill="white" stroke="#bfbfbf" points="38.5,-0.5 38.5,-21.5 87.5,-21.5 87.5,-0.5 38.5,-0.5"/>
<text text-anchor="middle" x="63" y="-8.5" font-family="Helvetica,sans-Serif" font-size="10.00">stdint.h</text>
</g>
<!-- Node1&#45;&gt;Node2 -->
<g id="edge2" class="edge"><title>Node1&#45;&gt;Node2</title>
<path fill="none" stroke="midnightblue" d="M103.558,-116.453C87.662,-108.918 69.2395,-97.0651 60,-80 51.9933,-65.2118 53.66,-45.9173 56.804,-31.4926"/>
<polygon fill="midnightblue" stroke="midnightblue" points="60.2557,-32.1235 59.3606,-21.5666 53.4769,-30.3775 60.2557,-32.1235"/>
</g>
<!-- Node3 -->
<g id="node5" class="node"><title>Node3</title>
<a xlink:href="../../d1/dd0/gmacros_8h.html" target="_top" xlink:title="gaia/base/gmacros.h">
<polygon fill="white" stroke="black" points="147.5,-0.5 147.5,-21.5 254.5,-21.5 254.5,-0.5 147.5,-0.5"/>
<text text-anchor="middle" x="201" y="-8.5" font-family="Helvetica,sans-Serif" font-size="10.00">gaia/base/gmacros.h</text>
</a>
</g>
<!-- Node1&#45;&gt;Node3 -->
<g id="edge4" class="edge"><title>Node1&#45;&gt;Node3</title>
<path fill="none" stroke="midnightblue" d="M160.442,-116.453C176.338,-108.918 194.761,-97.0651 204,-80 212.007,-65.2118 210.34,-45.9173 207.196,-31.4926"/>
<polygon fill="midnightblue" stroke="midnightblue" points="210.523,-30.3775 204.639,-21.5666 203.744,-32.1235 210.523,-30.3775"/>
</g>
<!-- Node4 -->
<g id="node7" class="node"><title>Node4</title>
<a xlink:href="../../d6/db8/_audio_effect_8h.html" target="_top" xlink:title="gaia/media/AudioEffect.h">
<polygon fill="white" stroke="black" points="69,-58.5 69,-79.5 195,-79.5 195,-58.5 69,-58.5"/>
<text text-anchor="middle" x="132" y="-66.5" font-family="Helvetica,sans-Serif" font-size="10.00">gaia/media/AudioEffect.h</text>
</a>
</g>
<!-- Node1&#45;&gt;Node4 -->
<g id="edge6" class="edge"><title>Node1&#45;&gt;Node4</title>
<path fill="none" stroke="midnightblue" d="M132,-116.362C132,-108.922 132,-98.7427 132,-89.7276"/>
<polygon fill="midnightblue" stroke="midnightblue" points="135.5,-89.5706 132,-79.5707 128.5,-89.5707 135.5,-89.5706"/>
</g>
<!-- Node4&#45;&gt;Node2 -->
<g id="edge8" class="edge"><title>Node4&#45;&gt;Node2</title>
<path fill="none" stroke="midnightblue" d="M119.344,-58.3619C109.326,-49.9408 95.1332,-38.0105 83.4987,-28.2308"/>
<polygon fill="midnightblue" stroke="midnightblue" points="85.4824,-25.326 75.5754,-21.5707 80.9782,-30.6844 85.4824,-25.326"/>
</g>
<!-- Node4&#45;&gt;Node3 -->
<g id="edge10" class="edge"><title>Node4&#45;&gt;Node3</title>
<path fill="none" stroke="midnightblue" d="M144.656,-58.3619C154.674,-49.9408 168.867,-38.0105 180.501,-28.2308"/>
<polygon fill="midnightblue" stroke="midnightblue" points="183.022,-30.6844 188.425,-21.5707 178.518,-25.326 183.022,-30.6844"/>
</g>
</g>
</svg>
