<?xml version="1.0" encoding="UTF-8" standalone="no"?>
<!DOCTYPE svg PUBLIC "-//W3C//DTD SVG 1.1//EN"
 "http://www.w3.org/Graphics/SVG/1.1/DTD/svg11.dtd">
<!-- Generated by graphviz version 2.26.3 (20100126.1600)
 -->
<!-- Title: G Pages: 1 -->
<svg width="336pt" height="230pt"
 viewBox="0.00 0.00 336.00 230.00" xmlns="http://www.w3.org/2000/svg" xmlns:xlink="http://www.w3.org/1999/xlink">
<g id="graph1" class="graph" transform="scale(1 1) rotate(0) translate(4 226)">
<title>G</title>
<polygon fill="white" stroke="white" points="-4,5 -4,-226 333,-226 333,5 -4,5"/>
<!-- Node1 -->
<g id="node1" class="node"><title>Node1</title>
<polygon fill="#bfbfbf" stroke="black" points="0,-100.5 0,-121.5 124,-121.5 124,-100.5 0,-100.5"/>
<text text-anchor="middle" x="62" y="-108.5" font-family="Helvetica,sans-Serif" font-size="10.00">gaia::media::AudioEffect</text>
</g>
<!-- Node2 -->
<g id="node3" class="node"><title>Node2</title>
<a xlink:href="../../d4/d54/classgaia_1_1media_1_1_bass_boost.html" target="_top" xlink:title="Bass boost is an audio effect to boost or amplify low frequencies of the sound.">
<polygon fill="white" stroke="black" points="183.5,-200.5 183.5,-221.5 304.5,-221.5 304.5,-200.5 183.5,-200.5"/>
<text text-anchor="middle" x="244" y="-208.5" font-family="Helvetica,sans-Serif" font-size="10.00">gaia::media::BassBoost</text>
</a>
</g>
<!-- Node1&#45;&gt;Node2 -->
<g id="edge2" class="edge"><title>Node1&#45;&gt;Node2</title>
<path fill="none" stroke="midnightblue" d="M78.7817,-128.805C97.0483,-147.125 127.958,-175.157 160,-191 167.66,-194.787 176.073,-197.879 184.524,-200.398"/>
<polygon fill="midnightblue" stroke="midnightblue" points="81.2504,-126.323 71.7608,-121.612 76.2411,-131.213 81.2504,-126.323"/>
</g>
<!-- Node3 -->
<g id="node5" class="node"><title>Node3</title>
<a xlink:href="../../d0/dc3/classgaia_1_1media_1_1_environmental_reverb.html" target="_top" xlink:title="A sound generated within a room travels in many directions.">
<polygon fill="white" stroke="black" points="160.5,-160.5 160.5,-181.5 327.5,-181.5 327.5,-160.5 160.5,-160.5"/>
<text text-anchor="middle" x="244" y="-168.5" font-family="Helvetica,sans-Serif" font-size="10.00">gaia::media::EnvironmentalReverb</text>
</a>
</g>
<!-- Node1&#45;&gt;Node3 -->
<g id="edge4" class="edge"><title>Node1&#45;&gt;Node3</title>
<path fill="none" stroke="midnightblue" d="M94.3206,-125.659C113.205,-133.852 137.65,-143.825 160,-151 170.848,-154.482 182.658,-157.66 193.903,-160.407"/>
<polygon fill="midnightblue" stroke="midnightblue" points="95.5556,-122.379 84.9923,-121.561 92.7402,-128.787 95.5556,-122.379"/>
</g>
<!-- Node4 -->
<g id="node7" class="node"><title>Node4</title>
<a xlink:href="../../d8/dec/classgaia_1_1media_1_1_equalizer.html" target="_top" xlink:title="An Equalizer is used to alter the frequency response of a particular music source or of the main outp...">
<polygon fill="white" stroke="black" points="187.5,-120.5 187.5,-141.5 300.5,-141.5 300.5,-120.5 187.5,-120.5"/>
<text text-anchor="middle" x="244" y="-128.5" font-family="Helvetica,sans-Serif" font-size="10.00">gaia::media::Equalizer</text>
</a>
</g>
<!-- Node1&#45;&gt;Node4 -->
<g id="edge6" class="edge"><title>Node1&#45;&gt;Node4</title>
<path fill="none" stroke="midnightblue" d="M134.366,-118.952C151.986,-120.889 170.58,-122.932 187.35,-124.775"/>
<polygon fill="midnightblue" stroke="midnightblue" points="134.448,-115.44 124.125,-117.827 133.683,-122.398 134.448,-115.44"/>
</g>
<!-- Node5 -->
<g id="node9" class="node"><title>Node5</title>
<a xlink:href="../../d2/dd7/classgaia_1_1media_1_1_noise_suppressor.html" target="_top" xlink:title="Noise Suppressor (NS).">
<polygon fill="white" stroke="black" points="170,-80.5 170,-101.5 318,-101.5 318,-80.5 170,-80.5"/>
<text text-anchor="middle" x="244" y="-88.5" font-family="Helvetica,sans-Serif" font-size="10.00">gaia::media::NoiseSuppressor</text>
</a>
</g>
<!-- Node1&#45;&gt;Node5 -->
<g id="edge8" class="edge"><title>Node1&#45;&gt;Node5</title>
<path fill="none" stroke="midnightblue" d="M134.287,-103.056C146,-101.769 158.145,-100.435 169.901,-99.1428"/>
<polygon fill="midnightblue" stroke="midnightblue" points="133.683,-99.6016 124.125,-104.173 134.448,-106.56 133.683,-99.6016"/>
</g>
<!-- Node6 -->
<g id="node11" class="node"><title>Node6</title>
<a xlink:href="../../d6/d4d/classgaia_1_1media_1_1_preset_reverb.html" target="_top" xlink:title="A sound generated within a room travels in many directions.">
<polygon fill="white" stroke="black" points="177.5,-40.5 177.5,-61.5 310.5,-61.5 310.5,-40.5 177.5,-40.5"/>
<text text-anchor="middle" x="244" y="-48.5" font-family="Helvetica,sans-Serif" font-size="10.00">gaia::media::PresetReverb</text>
</a>
</g>
<!-- Node1&#45;&gt;Node6 -->
<g id="edge10" class="edge"><title>Node1&#45;&gt;Node6</title>
<path fill="none" stroke="midnightblue" d="M94.3206,-96.3412C113.205,-88.1483 137.65,-78.1749 160,-71 170.848,-67.5175 182.658,-64.3401 193.903,-61.5935"/>
<polygon fill="midnightblue" stroke="midnightblue" points="92.7402,-93.2126 84.9923,-100.439 95.5556,-99.6215 92.7402,-93.2126"/>
</g>
<!-- Node7 -->
<g id="node13" class="node"><title>Node7</title>
<a xlink:href="../../df/daf/classgaia_1_1media_1_1_virtualizer.html" target="_top" xlink:title="An audio virtualizer is a general name for an effect to spatialize audio channels.">
<polygon fill="white" stroke="black" points="186,-0.5 186,-21.5 302,-21.5 302,-0.5 186,-0.5"/>
<text text-anchor="middle" x="244" y="-8.5" font-family="Helvetica,sans-Serif" font-size="10.00">gaia::media::Virtualizer</text>
</a>
</g>
<!-- Node1&#45;&gt;Node7 -->
<g id="edge12" class="edge"><title>Node1&#45;&gt;Node7</title>
<path fill="none" stroke="midnightblue" d="M78.7817,-93.195C97.0483,-74.875 127.958,-46.8426 160,-31 168.063,-27.0135 176.961,-23.797 185.859,-21.2086"/>
<polygon fill="midnightblue" stroke="midnightblue" points="76.2411,-90.7871 71.7608,-100.388 81.2504,-95.6766 76.2411,-90.7871"/>
</g>
</g>
</svg>
