<?xml version="1.0" encoding="UTF-8" standalone="no"?>
<!DOCTYPE svg PUBLIC "-//W3C//DTD SVG 1.1//EN"
 "http://www.w3.org/Graphics/SVG/1.1/DTD/svg11.dtd">
<!-- Generated by graphviz version 2.26.3 (20100126.1600)
 -->
<!-- Title: G Pages: 1 -->
<svg width="2251pt" height="204pt"
 viewBox="0.00 0.00 2251.00 204.00" xmlns="http://www.w3.org/2000/svg" xmlns:xlink="http://www.w3.org/1999/xlink">
<g id="graph1" class="graph" transform="scale(1 1) rotate(0) translate(4 200)">
<title>G</title>
<polygon fill="white" stroke="white" points="-4,5 -4,-200 2248,-200 2248,5 -4,5"/>
<!-- Node1 -->
<g id="node1" class="node"><title>Node1</title>
<polygon fill="#bfbfbf" stroke="black" points="664,-174.5 664,-195.5 942,-195.5 942,-174.5 664,-174.5"/>
<text text-anchor="middle" x="803" y="-182.5" font-family="Helvetica,sans-Serif" font-size="10.00">/home/vilon_tao/gaia/sdk/include/gaia/ui/ControllerParams.h</text>
</g>
<!-- Node2 -->
<g id="node3" class="node"><title>Node2</title>
<a xlink:href="../../d4/da2/_absolute_controller_params_8h.html" target="_top" xlink:title="/home/vilon_tao/gaia/sdk/include/gaia/ui/AbsoluteControllerParams.h">
<polygon fill="white" stroke="black" points="150,-116.5 150,-137.5 466,-137.5 466,-116.5 150,-116.5"/>
<text text-anchor="middle" x="308" y="-124.5" font-family="Helvetica,sans-Serif" font-size="10.00">/home/vilon_tao/gaia/sdk/include/gaia/ui/AbsoluteControllerParams.h</text>
</a>
</g>
<!-- Node1&#45;&gt;Node2 -->
<g id="edge2" class="edge"><title>Node1&#45;&gt;Node2</title>
<path fill="none" stroke="midnightblue" d="M703.213,-173.308C613.852,-162.837 483.979,-147.62 397.809,-137.523"/>
<polygon fill="midnightblue" stroke="midnightblue" points="703.02,-176.809 713.359,-174.497 703.835,-169.857 703.02,-176.809"/>
</g>
<!-- Node3 -->
<g id="node5" class="node"><title>Node3</title>
<a xlink:href="../../d9/d48/_list_item_controller_params_8h.html" target="_top" xlink:title="/home/vilon_tao/gaia/sdk/include/gaia/ui/ListItemControllerParams.h">
<polygon fill="white" stroke="black" points="483.5,-116.5 483.5,-137.5 796.5,-137.5 796.5,-116.5 483.5,-116.5"/>
<text text-anchor="middle" x="640" y="-124.5" font-family="Helvetica,sans-Serif" font-size="10.00">/home/vilon_tao/gaia/sdk/include/gaia/ui/ListItemControllerParams.h</text>
</a>
</g>
<!-- Node1&#45;&gt;Node3 -->
<g id="edge4" class="edge"><title>Node1&#45;&gt;Node3</title>
<path fill="none" stroke="midnightblue" d="M763.682,-171.009C734.715,-160.702 695.934,-146.903 669.573,-137.523"/>
<polygon fill="midnightblue" stroke="midnightblue" points="762.887,-174.442 773.482,-174.497 765.234,-167.847 762.887,-174.442"/>
</g>
<!-- Node4 -->
<g id="node7" class="node"><title>Node4</title>
<a xlink:href="../../d3/db0/_margin_controller_params_8h.html" target="_top" xlink:title="/home/vilon_tao/gaia/sdk/include/gaia/ui/MarginControllerParams.h">
<polygon fill="white" stroke="black" points="813.5,-116.5 813.5,-137.5 1120.5,-137.5 1120.5,-116.5 813.5,-116.5"/>
<text text-anchor="middle" x="967" y="-124.5" font-family="Helvetica,sans-Serif" font-size="10.00">/home/vilon_tao/gaia/sdk/include/gaia/ui/MarginControllerParams.h</text>
</a>
</g>
<!-- Node1&#45;&gt;Node4 -->
<g id="edge6" class="edge"><title>Node1&#45;&gt;Node4</title>
<path fill="none" stroke="midnightblue" d="M842.178,-171.144C871.363,-160.823 910.607,-146.944 937.245,-137.523"/>
<polygon fill="midnightblue" stroke="midnightblue" points="840.96,-167.863 832.699,-174.497 843.294,-174.462 840.96,-167.863"/>
</g>
<!-- Node11 -->
<g id="node21" class="node"><title>Node11</title>
<a xlink:href="../../d6/d10/_web_view_8h.html" target="_top" xlink:title="/home/vilon_tao/gaia/sdk/include/gaia/webkit/WebView.h">
<polygon fill="white" stroke="black" points="1646.5,-116.5 1646.5,-137.5 1911.5,-137.5 1911.5,-116.5 1646.5,-116.5"/>
<text text-anchor="middle" x="1779" y="-124.5" font-family="Helvetica,sans-Serif" font-size="10.00">/home/vilon_tao/gaia/sdk/include/gaia/webkit/WebView.h</text>
</a>
</g>
<!-- Node1&#45;&gt;Node11 -->
<g id="edge20" class="edge"><title>Node1&#45;&gt;Node11</title>
<path fill="none" stroke="midnightblue" d="M952.089,-176.14C1141.38,-164.891 1465.07,-145.655 1646.23,-134.89"/>
<polygon fill="midnightblue" stroke="midnightblue" points="951.834,-172.649 942.059,-176.736 952.249,-179.637 951.834,-172.649"/>
</g>
<!-- Node5 -->
<g id="node9" class="node"><title>Node5</title>
<a xlink:href="../../dc/d46/_action_bar_controller_params_8h.html" target="_top" xlink:title="/home/vilon_tao/gaia/sdk/include/gaia/ui/ActionBarControllerParams.h">
<polygon fill="white" stroke="black" points="0,-58.5 0,-79.5 320,-79.5 320,-58.5 0,-58.5"/>
<text text-anchor="middle" x="160" y="-66.5" font-family="Helvetica,sans-Serif" font-size="10.00">/home/vilon_tao/gaia/sdk/include/gaia/ui/ActionBarControllerParams.h</text>
</a>
</g>
<!-- Node4&#45;&gt;Node5 -->
<g id="edge8" class="edge"><title>Node4&#45;&gt;Node5</title>
<path fill="none" stroke="midnightblue" d="M810.482,-115.751C664.658,-105.27 448.894,-89.7631 306.416,-79.5231"/>
<polygon fill="midnightblue" stroke="midnightblue" points="810.633,-119.271 820.858,-116.497 811.135,-112.289 810.633,-119.271"/>
</g>
<!-- Node6 -->
<g id="node11" class="node"><title>Node6</title>
<a xlink:href="../../d5/d6a/_frame_controller_params_8h.html" target="_top" xlink:title="/home/vilon_tao/gaia/sdk/include/gaia/ui/FrameControllerParams.h">
<polygon fill="white" stroke="black" points="337.5,-58.5 337.5,-79.5 642.5,-79.5 642.5,-58.5 337.5,-58.5"/>
<text text-anchor="middle" x="490" y="-66.5" font-family="Helvetica,sans-Serif" font-size="10.00">/home/vilon_tao/gaia/sdk/include/gaia/ui/FrameControllerParams.h</text>
</a>
</g>
<!-- Node4&#45;&gt;Node6 -->
<g id="edge10" class="edge"><title>Node4&#45;&gt;Node6</title>
<path fill="none" stroke="midnightblue" d="M870.579,-115.276C784.476,-104.806 659.496,-89.6095 576.543,-79.5231"/>
<polygon fill="midnightblue" stroke="midnightblue" points="870.27,-118.764 880.619,-116.497 871.115,-111.815 870.27,-118.764"/>
</g>
<!-- Node7 -->
<g id="node13" class="node"><title>Node7</title>
<a xlink:href="../../de/da8/_grid_controller_params_8h.html" target="_top" xlink:title="/home/vilon_tao/gaia/sdk/include/gaia/ui/GridControllerParams.h">
<polygon fill="white" stroke="black" points="660,-58.5 660,-79.5 956,-79.5 956,-58.5 660,-58.5"/>
<text text-anchor="middle" x="808" y="-66.5" font-family="Helvetica,sans-Serif" font-size="10.00">/home/vilon_tao/gaia/sdk/include/gaia/ui/GridControllerParams.h</text>
</a>
</g>
<!-- Node4&#45;&gt;Node7 -->
<g id="edge12" class="edge"><title>Node4&#45;&gt;Node7</title>
<path fill="none" stroke="midnightblue" d="M928.647,-113.009C900.391,-102.702 862.562,-88.903 836.848,-79.5231"/>
<polygon fill="midnightblue" stroke="midnightblue" points="927.612,-116.358 938.206,-116.497 930.011,-109.782 927.612,-116.358"/>
</g>
<!-- Node8 -->
<g id="node15" class="node"><title>Node8</title>
<a xlink:href="../../dd/d48/_linear_controller_params_8h.html" target="_top" xlink:title="/home/vilon_tao/gaia/sdk/include/gaia/ui/LinearControllerParams.h">
<polygon fill="white" stroke="black" points="974,-58.5 974,-79.5 1278,-79.5 1278,-58.5 974,-58.5"/>
<text text-anchor="middle" x="1126" y="-66.5" font-family="Helvetica,sans-Serif" font-size="10.00">/home/vilon_tao/gaia/sdk/include/gaia/ui/LinearControllerParams.h</text>
</a>
</g>
<!-- Node4&#45;&gt;Node8 -->
<g id="edge14" class="edge"><title>Node4&#45;&gt;Node8</title>
<path fill="none" stroke="midnightblue" d="M1005.35,-113.009C1033.61,-102.702 1071.44,-88.903 1097.15,-79.5231"/>
<polygon fill="midnightblue" stroke="midnightblue" points="1003.99,-109.782 995.794,-116.497 1006.39,-116.358 1003.99,-109.782"/>
</g>
<!-- Node10 -->
<g id="node19" class="node"><title>Node10</title>
<a xlink:href="../../d6/d65/_relative_controller_params_8h.html" target="_top" xlink:title="/home/vilon_tao/gaia/sdk/include/gaia/ui/RelativeControllerParams.h">
<polygon fill="white" stroke="black" points="1296,-58.5 1296,-79.5 1610,-79.5 1610,-58.5 1296,-58.5"/>
<text text-anchor="middle" x="1453" y="-66.5" font-family="Helvetica,sans-Serif" font-size="10.00">/home/vilon_tao/gaia/sdk/include/gaia/ui/RelativeControllerParams.h</text>
</a>
</g>
<!-- Node4&#45;&gt;Node10 -->
<g id="edge18" class="edge"><title>Node4&#45;&gt;Node10</title>
<path fill="none" stroke="midnightblue" d="M1064.97,-115.308C1152.71,-104.837 1280.22,-89.6198 1364.82,-79.5231"/>
<polygon fill="midnightblue" stroke="midnightblue" points="1064.53,-111.836 1055.01,-116.497 1065.36,-118.787 1064.53,-111.836"/>
</g>
<!-- Node9 -->
<g id="node17" class="node"><title>Node9</title>
<a xlink:href="../../d2/d47/_radio_group_controller_params_8h.html" target="_top" xlink:title="/home/vilon_tao/gaia/sdk/include/gaia/ui/RadioGroupControllerParams.h">
<polygon fill="white" stroke="black" points="961.5,-0.5 961.5,-21.5 1290.5,-21.5 1290.5,-0.5 961.5,-0.5"/>
<text text-anchor="middle" x="1126" y="-8.5" font-family="Helvetica,sans-Serif" font-size="10.00">/home/vilon_tao/gaia/sdk/include/gaia/ui/RadioGroupControllerParams.h</text>
</a>
</g>
<!-- Node8&#45;&gt;Node9 -->
<g id="edge16" class="edge"><title>Node8&#45;&gt;Node9</title>
<path fill="none" stroke="midnightblue" d="M1126,-48.1906C1126,-39.1684 1126,-28.9941 1126,-21.5707"/>
<polygon fill="midnightblue" stroke="midnightblue" points="1122.5,-48.3619 1126,-58.3619 1129.5,-48.3619 1122.5,-48.3619"/>
</g>
<!-- Node12 -->
<g id="node23" class="node"><title>Node12</title>
<a xlink:href="../../db/d4a/_web_chrome_client_8h.html" target="_top" xlink:title="/home/vilon_tao/gaia/sdk/include/gaia/webkit/WebChromeClient.h">
<polygon fill="white" stroke="black" points="1627.5,-58.5 1627.5,-79.5 1930.5,-79.5 1930.5,-58.5 1627.5,-58.5"/>
<text text-anchor="middle" x="1779" y="-66.5" font-family="Helvetica,sans-Serif" font-size="10.00">/home/vilon_tao/gaia/sdk/include/gaia/webkit/WebChromeClient.h</text>
</a>
</g>
<!-- Node11&#45;&gt;Node12 -->
<g id="edge22" class="edge"><title>Node11&#45;&gt;Node12</title>
<path fill="none" stroke="midnightblue" d="M1779,-106.191C1779,-97.1684 1779,-86.9941 1779,-79.5707"/>
<polygon fill="midnightblue" stroke="midnightblue" points="1775.5,-106.362 1779,-116.362 1782.5,-106.362 1775.5,-106.362"/>
</g>
<!-- Node13 -->
<g id="node25" class="node"><title>Node13</title>
<a xlink:href="../../d2/dcb/_web_settings_8h.html" target="_top" xlink:title="/home/vilon_tao/gaia/sdk/include/gaia/webkit/WebSettings.h">
<polygon fill="white" stroke="black" points="1947.5,-58.5 1947.5,-79.5 2226.5,-79.5 2226.5,-58.5 1947.5,-58.5"/>
<text text-anchor="middle" x="2087" y="-66.5" font-family="Helvetica,sans-Serif" font-size="10.00">/home/vilon_tao/gaia/sdk/include/gaia/webkit/WebSettings.h</text>
</a>
</g>
<!-- Node11&#45;&gt;Node13 -->
<g id="edge24" class="edge"><title>Node11&#45;&gt;Node13</title>
<path fill="none" stroke="midnightblue" d="M1844.85,-114.6C1900.28,-104.161 1978.7,-89.3945 2031.12,-79.5231"/>
<polygon fill="midnightblue" stroke="midnightblue" points="1843.96,-111.206 1834.78,-116.497 1845.25,-118.086 1843.96,-111.206"/>
</g>
<!-- Node14 -->
<g id="node27" class="node"><title>Node14</title>
<a xlink:href="../../d0/dd7/_web_settings_classic_8h.html" target="_top" xlink:title="/home/vilon_tao/gaia/sdk/include/gaia/webkit/WebSettingsClassic.h">
<polygon fill="white" stroke="black" points="1931,-0.5 1931,-21.5 2243,-21.5 2243,-0.5 1931,-0.5"/>
<text text-anchor="middle" x="2087" y="-8.5" font-family="Helvetica,sans-Serif" font-size="10.00">/home/vilon_tao/gaia/sdk/include/gaia/webkit/WebSettingsClassic.h</text>
</a>
</g>
<!-- Node13&#45;&gt;Node14 -->
<g id="edge26" class="edge"><title>Node13&#45;&gt;Node14</title>
<path fill="none" stroke="midnightblue" d="M2087,-48.1906C2087,-39.1684 2087,-28.9941 2087,-21.5707"/>
<polygon fill="midnightblue" stroke="midnightblue" points="2083.5,-48.3619 2087,-58.3619 2090.5,-48.3619 2083.5,-48.3619"/>
</g>
</g>
</svg>
