<?xml version="1.0" encoding="UTF-8" standalone="no"?>
<!DOCTYPE svg PUBLIC "-//W3C//DTD SVG 1.1//EN"
 "http://www.w3.org/Graphics/SVG/1.1/DTD/svg11.dtd">
<!-- Generated by graphviz version 2.26.3 (20100126.1600)
 -->
<!-- Title: G Pages: 1 -->
<svg width="250pt" height="146pt"
 viewBox="0.00 0.00 250.00 146.00" xmlns="http://www.w3.org/2000/svg" xmlns:xlink="http://www.w3.org/1999/xlink">
<g id="graph1" class="graph" transform="scale(1 1) rotate(0) translate(4 142)">
<title>G</title>
<polygon fill="white" stroke="white" points="-4,5 -4,-142 247,-142 247,5 -4,5"/>
<!-- Node1 -->
<g id="node1" class="node"><title>Node1</title>
<polygon fill="#bfbfbf" stroke="black" points="-0.5,-116.5 -0.5,-137.5 242.5,-137.5 242.5,-116.5 -0.5,-116.5"/>
<text text-anchor="middle" x="121" y="-124.5" font-family="Helvetica,sans-Serif" font-size="10.00">/home/vilon_tao/gaia/sdk/include/gaia/core/EGL11.h</text>
</g>
<!-- Node2 -->
<g id="node3" class="node"><title>Node2</title>
<a xlink:href="../../d0/d6d/_e_g_l10_8h.html" target="_top" xlink:title="gaia/core/EGL10.h">
<polygon fill="white" stroke="black" points="72,-58.5 72,-79.5 170,-79.5 170,-58.5 72,-58.5"/>
<text text-anchor="middle" x="121" y="-66.5" font-family="Helvetica,sans-Serif" font-size="10.00">gaia/core/EGL10.h</text>
</a>
</g>
<!-- Node1&#45;&gt;Node2 -->
<g id="edge2" class="edge"><title>Node1&#45;&gt;Node2</title>
<path fill="none" stroke="midnightblue" d="M121,-116.362C121,-108.922 121,-98.7427 121,-89.7276"/>
<polygon fill="midnightblue" stroke="midnightblue" points="124.5,-89.5706 121,-79.5707 117.5,-89.5707 124.5,-89.5706"/>
</g>
<!-- Node3 -->
<g id="node5" class="node"><title>Node3</title>
<polygon fill="white" stroke="#bfbfbf" points="17,-0.5 17,-21.5 109,-21.5 109,-0.5 17,-0.5"/>
<text text-anchor="middle" x="63" y="-8.5" font-family="Helvetica,sans-Serif" font-size="10.00">opengl/EGL/egl.h</text>
</g>
<!-- Node2&#45;&gt;Node3 -->
<g id="edge4" class="edge"><title>Node2&#45;&gt;Node3</title>
<path fill="none" stroke="midnightblue" d="M110.362,-58.3619C102.104,-50.1043 90.4725,-38.4725 80.8029,-28.8029"/>
<polygon fill="midnightblue" stroke="midnightblue" points="83.1166,-26.1669 73.5707,-21.5707 78.1669,-31.1166 83.1166,-26.1669"/>
</g>
<!-- Node4 -->
<g id="node7" class="node"><title>Node4</title>
<a xlink:href="../../d1/dd0/gmacros_8h.html" target="_top" xlink:title="gaia/base/gmacros.h">
<polygon fill="white" stroke="black" points="126.5,-0.5 126.5,-21.5 233.5,-21.5 233.5,-0.5 126.5,-0.5"/>
<text text-anchor="middle" x="180" y="-8.5" font-family="Helvetica,sans-Serif" font-size="10.00">gaia/base/gmacros.h</text>
</a>
</g>
<!-- Node2&#45;&gt;Node4 -->
<g id="edge6" class="edge"><title>Node2&#45;&gt;Node4</title>
<path fill="none" stroke="midnightblue" d="M131.822,-58.3619C140.221,-50.1043 152.054,-38.4725 161.89,-28.8029"/>
<polygon fill="midnightblue" stroke="midnightblue" points="164.569,-31.077 169.247,-21.5707 159.662,-26.0851 164.569,-31.077"/>
</g>
</g>
</svg>
