<?xml version="1.0" encoding="UTF-8" standalone="no"?>
<!DOCTYPE svg PUBLIC "-//W3C//DTD SVG 1.1//EN"
 "http://www.w3.org/Graphics/SVG/1.1/DTD/svg11.dtd">
<!-- Generated by graphviz version 2.26.3 (20100126.1600)
 -->
<!-- Title: G Pages: 1 -->
<svg width="324pt" height="190pt"
 viewBox="0.00 0.00 324.00 190.00" xmlns="http://www.w3.org/2000/svg" xmlns:xlink="http://www.w3.org/1999/xlink">
<g id="graph1" class="graph" transform="scale(1 1) rotate(0) translate(4 186)">
<title>G</title>
<polygon fill="white" stroke="white" points="-4,5 -4,-186 321,-186 321,5 -4,5"/>
<!-- Node1 -->
<g id="node1" class="node"><title>Node1</title>
<polygon fill="#bfbfbf" stroke="black" points="0,-80.5 0,-101.5 104,-101.5 104,-80.5 0,-80.5"/>
<text text-anchor="middle" x="52" y="-88.5" font-family="Helvetica,sans-Serif" font-size="10.00">gaia::core::Delegate</text>
</g>
<!-- Node2 -->
<g id="node3" class="node"><title>Node2</title>
<a xlink:href="../../dc/d50/classgaia_1_1core_1_1_demand_delegate.html" target="_top" xlink:title="gaia::core::DemandDelegate">
<polygon fill="white" stroke="black" points="157.5,-160.5 157.5,-181.5 298.5,-181.5 298.5,-160.5 157.5,-160.5"/>
<text text-anchor="middle" x="228" y="-168.5" font-family="Helvetica,sans-Serif" font-size="10.00">gaia::core::DemandDelegate</text>
</a>
</g>
<!-- Node1&#45;&gt;Node2 -->
<g id="edge2" class="edge"><title>Node1&#45;&gt;Node2</title>
<path fill="none" stroke="midnightblue" d="M72.3166,-108.142C89.3605,-121.679 114.883,-140.055 140,-151 148.618,-154.755 158.03,-157.849 167.391,-160.385"/>
<polygon fill="midnightblue" stroke="midnightblue" points="74.1924,-105.156 64.2236,-101.568 69.7791,-110.59 74.1924,-105.156"/>
</g>
<!-- Node3 -->
<g id="node5" class="node"><title>Node3</title>
<a xlink:href="../../d4/d35/classgaia_1_1service_1_1_i_m_e_service.html" target="_top" xlink:title="IMEService provides a standard implementation of an InputMethod, which final implementations can deri...">
<polygon fill="white" stroke="black" points="163.5,-120.5 163.5,-141.5 292.5,-141.5 292.5,-120.5 163.5,-120.5"/>
<text text-anchor="middle" x="228" y="-128.5" font-family="Helvetica,sans-Serif" font-size="10.00">gaia::service::IMEService</text>
</a>
</g>
<!-- Node1&#45;&gt;Node3 -->
<g id="edge4" class="edge"><title>Node1&#45;&gt;Node3</title>
<path fill="none" stroke="midnightblue" d="M108.172,-103.766C131.909,-109.161 159.216,-115.367 181.762,-120.491"/>
<polygon fill="midnightblue" stroke="midnightblue" points="108.769,-100.313 98.2419,-101.51 107.218,-107.139 108.769,-100.313"/>
</g>
<!-- Node4 -->
<g id="node7" class="node"><title>Node4</title>
<a xlink:href="../../d2/d63/classgaia_1_1service_1_1_spell_checker_delegate.html" target="_top" xlink:title="SpellCheckerDelegate provides an abstract base class for a spell checker.">
<polygon fill="white" stroke="black" points="140,-80.5 140,-101.5 316,-101.5 316,-80.5 140,-80.5"/>
<text text-anchor="middle" x="228" y="-88.5" font-family="Helvetica,sans-Serif" font-size="10.00">gaia::service::SpellCheckerDelegate</text>
</a>
</g>
<!-- Node1&#45;&gt;Node4 -->
<g id="edge6" class="edge"><title>Node1&#45;&gt;Node4</title>
<path fill="none" stroke="midnightblue" d="M114.57,-91C122.811,-91 131.377,-91 139.945,-91"/>
<polygon fill="midnightblue" stroke="midnightblue" points="114.329,-87.5001 104.329,-91 114.329,-94.5001 114.329,-87.5001"/>
</g>
<!-- Node5 -->
<g id="node9" class="node"><title>Node5</title>
<a xlink:href="../../db/dc1/classgaia_1_1service_1_1_wallpaper_delegate.html" target="_top" xlink:title="A WallpaperDelegate is responsible for showing a live wallpaper behind applications that would like t...">
<polygon fill="white" stroke="black" points="147.5,-40.5 147.5,-61.5 308.5,-61.5 308.5,-40.5 147.5,-40.5"/>
<text text-anchor="middle" x="228" y="-48.5" font-family="Helvetica,sans-Serif" font-size="10.00">gaia::service::WallpaperDelegate</text>
</a>
</g>
<!-- Node1&#45;&gt;Node5 -->
<g id="edge8" class="edge"><title>Node1&#45;&gt;Node5</title>
<path fill="none" stroke="midnightblue" d="M108.172,-78.2337C131.909,-72.839 159.216,-66.6328 181.762,-61.5087"/>
<polygon fill="midnightblue" stroke="midnightblue" points="107.218,-74.8612 98.2419,-80.4905 108.769,-81.6871 107.218,-74.8612"/>
</g>
<!-- Node6 -->
<g id="node11" class="node"><title>Node6</title>
<a xlink:href="../../d2/dd9/classgaia_1_1ui_1_1_remote_widget_delegate.html" target="_top" xlink:title="The delegate to be connected to for a remote adapter to request RemoteWidget.">
<polygon fill="white" stroke="black" points="149,-0.5 149,-21.5 307,-21.5 307,-0.5 149,-0.5"/>
<text text-anchor="middle" x="228" y="-8.5" font-family="Helvetica,sans-Serif" font-size="10.00">gaia::ui::RemoteWidgetDelegate</text>
</a>
</g>
<!-- Node1&#45;&gt;Node6 -->
<g id="edge10" class="edge"><title>Node1&#45;&gt;Node6</title>
<path fill="none" stroke="midnightblue" d="M72.3166,-73.8584C89.3605,-60.3205 114.883,-41.9451 140,-31 148.618,-27.2447 158.03,-24.1511 167.391,-21.6153"/>
<polygon fill="midnightblue" stroke="midnightblue" points="69.7791,-71.4103 64.2236,-80.4318 74.1924,-76.8438 69.7791,-71.4103"/>
</g>
</g>
</svg>
