<?xml version="1.0" encoding="UTF-8" standalone="no"?>
<!DOCTYPE svg PUBLIC "-//W3C//DTD SVG 1.1//EN"
 "http://www.w3.org/Graphics/SVG/1.1/DTD/svg11.dtd">
<!-- Generated by graphviz version 2.26.3 (20100126.1600)
 -->
<!-- Title: G Pages: 1 -->
<svg width="1226pt" height="204pt"
 viewBox="0.00 0.00 1226.00 204.00" xmlns="http://www.w3.org/2000/svg" xmlns:xlink="http://www.w3.org/1999/xlink">
<g id="graph1" class="graph" transform="scale(1 1) rotate(0) translate(4 200)">
<title>G</title>
<polygon fill="white" stroke="white" points="-4,5 -4,-200 1223,-200 1223,5 -4,5"/>
<!-- Node1 -->
<g id="node1" class="node"><title>Node1</title>
<polygon fill="#bfbfbf" stroke="black" points="397,-174.5 397,-195.5 651,-195.5 651,-174.5 397,-174.5"/>
<text text-anchor="middle" x="524" y="-182.5" font-family="Helvetica,sans-Serif" font-size="10.00">/home/vilon_tao/gaia/sdk/include/gaia/net/HttpTypes.h</text>
</g>
<!-- Node2 -->
<g id="node3" class="node"><title>Node2</title>
<a xlink:href="../../d8/dad/_http_byte_buffer_entity_8h.html" target="_top" xlink:title="/home/vilon_tao/gaia/sdk/include/gaia/net/HttpByteBufferEntity.h">
<polygon fill="white" stroke="black" points="-0.5,-58.5 -0.5,-79.5 298.5,-79.5 298.5,-58.5 -0.5,-58.5"/>
<text text-anchor="middle" x="149" y="-66.5" font-family="Helvetica,sans-Serif" font-size="10.00">/home/vilon_tao/gaia/sdk/include/gaia/net/HttpByteBufferEntity.h</text>
</a>
</g>
<!-- Node1&#45;&gt;Node2 -->
<g id="edge2" class="edge"><title>Node1&#45;&gt;Node2</title>
<path fill="none" stroke="midnightblue" d="M386.757,-178.996C268.728,-172.385 114.453,-159.701 95,-138 77.3327,-118.291 108.629,-93.4979 130.49,-79.6367"/>
<polygon fill="midnightblue" stroke="midnightblue" points="386.803,-182.504 396.98,-179.559 387.188,-175.514 386.803,-182.504"/>
</g>
<!-- Node4 -->
<g id="node7" class="node"><title>Node4</title>
<a xlink:href="../../dd/d72/_http_connection_8h.html" target="_top" xlink:title="/home/vilon_tao/gaia/sdk/include/gaia/net/HttpConnection.h">
<polygon fill="white" stroke="black" points="104,-116.5 104,-137.5 380,-137.5 380,-116.5 104,-116.5"/>
<text text-anchor="middle" x="242" y="-124.5" font-family="Helvetica,sans-Serif" font-size="10.00">/home/vilon_tao/gaia/sdk/include/gaia/net/HttpConnection.h</text>
</a>
</g>
<!-- Node1&#45;&gt;Node4 -->
<g id="edge6" class="edge"><title>Node1&#45;&gt;Node4</title>
<path fill="none" stroke="midnightblue" d="M463.077,-172.47C412.358,-162.038 340.96,-147.354 293.164,-137.523"/>
<polygon fill="midnightblue" stroke="midnightblue" points="462.432,-175.91 472.932,-174.497 463.842,-169.054 462.432,-175.91"/>
</g>
<!-- Node5 -->
<g id="node9" class="node"><title>Node5</title>
<a xlink:href="../../d8/d2d/_http_entity_8h.html" target="_top" xlink:title="/home/vilon_tao/gaia/sdk/include/gaia/net/HttpEntity.h">
<polygon fill="white" stroke="black" points="398,-116.5 398,-137.5 650,-137.5 650,-116.5 398,-116.5"/>
<text text-anchor="middle" x="524" y="-124.5" font-family="Helvetica,sans-Serif" font-size="10.00">/home/vilon_tao/gaia/sdk/include/gaia/net/HttpEntity.h</text>
</a>
</g>
<!-- Node1&#45;&gt;Node5 -->
<g id="edge8" class="edge"><title>Node1&#45;&gt;Node5</title>
<path fill="none" stroke="midnightblue" d="M524,-164.191C524,-155.168 524,-144.994 524,-137.571"/>
<polygon fill="midnightblue" stroke="midnightblue" points="520.5,-164.362 524,-174.362 527.5,-164.362 520.5,-164.362"/>
</g>
<!-- Node7 -->
<g id="node14" class="node"><title>Node7</title>
<a xlink:href="../../d3/d95/_http_request_8h.html" target="_top" xlink:title="/home/vilon_tao/gaia/sdk/include/gaia/net/HttpRequest.h">
<polygon fill="white" stroke="black" points="667.5,-116.5 667.5,-137.5 930.5,-137.5 930.5,-116.5 667.5,-116.5"/>
<text text-anchor="middle" x="799" y="-124.5" font-family="Helvetica,sans-Serif" font-size="10.00">/home/vilon_tao/gaia/sdk/include/gaia/net/HttpRequest.h</text>
</a>
</g>
<!-- Node1&#45;&gt;Node7 -->
<g id="edge14" class="edge"><title>Node1&#45;&gt;Node7</title>
<path fill="none" stroke="midnightblue" d="M583.72,-172.404C633.161,-161.977 702.593,-147.333 749.106,-137.523"/>
<polygon fill="midnightblue" stroke="midnightblue" points="582.863,-169.008 573.8,-174.497 584.307,-175.858 582.863,-169.008"/>
</g>
<!-- Node8 -->
<g id="node16" class="node"><title>Node8</title>
<a xlink:href="../../d1/d33/_http_response_8h.html" target="_top" xlink:title="/home/vilon_tao/gaia/sdk/include/gaia/net/HttpResponse.h">
<polygon fill="white" stroke="black" points="947.5,-116.5 947.5,-137.5 1218.5,-137.5 1218.5,-116.5 947.5,-116.5"/>
<text text-anchor="middle" x="1083" y="-124.5" font-family="Helvetica,sans-Serif" font-size="10.00">/home/vilon_tao/gaia/sdk/include/gaia/net/HttpResponse.h</text>
</a>
</g>
<!-- Node1&#45;&gt;Node8 -->
<g id="edge16" class="edge"><title>Node1&#45;&gt;Node8</title>
<path fill="none" stroke="midnightblue" d="M635.463,-173.435C736.413,-162.961 883.873,-147.661 981.579,-137.523"/>
<polygon fill="midnightblue" stroke="midnightblue" points="634.816,-169.983 625.231,-174.497 635.539,-176.946 634.816,-169.983"/>
</g>
<!-- Node3 -->
<g id="node5" class="node"><title>Node3</title>
<a xlink:href="../../d7/da1/_http_post_entity_8h.html" target="_top" xlink:title="/home/vilon_tao/gaia/sdk/include/gaia/net/HttpPostEntity.h">
<polygon fill="white" stroke="black" points="13,-0.5 13,-21.5 285,-21.5 285,-0.5 13,-0.5"/>
<text text-anchor="middle" x="149" y="-8.5" font-family="Helvetica,sans-Serif" font-size="10.00">/home/vilon_tao/gaia/sdk/include/gaia/net/HttpPostEntity.h</text>
</a>
</g>
<!-- Node2&#45;&gt;Node3 -->
<g id="edge4" class="edge"><title>Node2&#45;&gt;Node3</title>
<path fill="none" stroke="midnightblue" d="M149,-48.1906C149,-39.1684 149,-28.9941 149,-21.5707"/>
<polygon fill="midnightblue" stroke="midnightblue" points="145.5,-48.3619 149,-58.3619 152.5,-48.3619 145.5,-48.3619"/>
</g>
<!-- Node5&#45;&gt;Node2 -->
<g id="edge10" class="edge"><title>Node5&#45;&gt;Node2</title>
<path fill="none" stroke="midnightblue" d="M445.918,-114.923C378.316,-104.468 281.523,-89.4969 217.037,-79.5231"/>
<polygon fill="midnightblue" stroke="midnightblue" points="445.673,-118.427 456.09,-116.497 446.743,-111.509 445.673,-118.427"/>
</g>
<!-- Node6 -->
<g id="node12" class="node"><title>Node6</title>
<a xlink:href="../../d9/d20/_http_file_entity_8h.html" target="_top" xlink:title="/home/vilon_tao/gaia/sdk/include/gaia/net/HttpFileEntity.h">
<polygon fill="white" stroke="black" points="390,-58.5 390,-79.5 658,-79.5 658,-58.5 390,-58.5"/>
<text text-anchor="middle" x="524" y="-66.5" font-family="Helvetica,sans-Serif" font-size="10.00">/home/vilon_tao/gaia/sdk/include/gaia/net/HttpFileEntity.h</text>
</a>
</g>
<!-- Node5&#45;&gt;Node6 -->
<g id="edge12" class="edge"><title>Node5&#45;&gt;Node6</title>
<path fill="none" stroke="midnightblue" d="M524,-106.191C524,-97.1684 524,-86.9941 524,-79.5707"/>
<polygon fill="midnightblue" stroke="midnightblue" points="520.5,-106.362 524,-116.362 527.5,-106.362 520.5,-106.362"/>
</g>
</g>
</svg>
