<?xml version="1.0" encoding="UTF-8" standalone="no"?>
<!DOCTYPE svg PUBLIC "-//W3C//DTD SVG 1.1//EN"
 "http://www.w3.org/Graphics/SVG/1.1/DTD/svg11.dtd">
<!-- Generated by graphviz version 2.26.3 (20100126.1600)
 -->
<!-- Title: G Pages: 1 -->
<svg width="408pt" height="262pt"
 viewBox="0.00 0.00 408.00 262.00" xmlns="http://www.w3.org/2000/svg" xmlns:xlink="http://www.w3.org/1999/xlink">
<g id="graph1" class="graph" transform="scale(1 1) rotate(0) translate(4 258)">
<title>G</title>
<polygon fill="white" stroke="white" points="-4,5 -4,-258 405,-258 405,5 -4,5"/>
<!-- Node1 -->
<g id="node1" class="node"><title>Node1</title>
<polygon fill="#bfbfbf" stroke="black" points="-0.5,-232.5 -0.5,-253.5 400.5,-253.5 400.5,-232.5 -0.5,-232.5"/>
<text text-anchor="middle" x="200" y="-240.5" font-family="Helvetica,sans-Serif" font-size="10.00">/home/vilon_tao/gaia/sdk/include/gaia/connectivity/bluetooth/BluetoothHeadsetService.h</text>
</g>
<!-- Node2 -->
<g id="node3" class="node"><title>Node2</title>
<polygon fill="white" stroke="#bfbfbf" points="80.5,-174.5 80.5,-195.5 129.5,-195.5 129.5,-174.5 80.5,-174.5"/>
<text text-anchor="middle" x="105" y="-182.5" font-family="Helvetica,sans-Serif" font-size="10.00">stdint.h</text>
</g>
<!-- Node1&#45;&gt;Node2 -->
<g id="edge2" class="edge"><title>Node1&#45;&gt;Node2</title>
<path fill="none" stroke="midnightblue" d="M182.576,-232.362C168.113,-223.532 147.331,-210.844 130.916,-200.822"/>
<polygon fill="midnightblue" stroke="midnightblue" points="132.673,-197.794 122.314,-195.571 129.025,-203.769 132.673,-197.794"/>
</g>
<!-- Node3 -->
<g id="node5" class="node"><title>Node3</title>
<a xlink:href="../../d1/dd0/gmacros_8h.html" target="_top" xlink:title="gaia/base/gmacros.h">
<polygon fill="white" stroke="black" points="146.5,-174.5 146.5,-195.5 253.5,-195.5 253.5,-174.5 146.5,-174.5"/>
<text text-anchor="middle" x="200" y="-182.5" font-family="Helvetica,sans-Serif" font-size="10.00">gaia/base/gmacros.h</text>
</a>
</g>
<!-- Node1&#45;&gt;Node3 -->
<g id="edge4" class="edge"><title>Node1&#45;&gt;Node3</title>
<path fill="none" stroke="midnightblue" d="M200,-232.362C200,-224.922 200,-214.743 200,-205.728"/>
<polygon fill="midnightblue" stroke="midnightblue" points="203.5,-205.571 200,-195.571 196.5,-205.571 203.5,-205.571"/>
</g>
<!-- Node4 -->
<g id="node7" class="node"><title>Node4</title>
<a xlink:href="../../d9/dfd/_delegate_8h.html" target="_top" xlink:title="gaia/core/Delegate.h">
<polygon fill="white" stroke="black" points="270.5,-174.5 270.5,-195.5 377.5,-195.5 377.5,-174.5 270.5,-174.5"/>
<text text-anchor="middle" x="324" y="-182.5" font-family="Helvetica,sans-Serif" font-size="10.00">gaia/core/Delegate.h</text>
</a>
</g>
<!-- Node1&#45;&gt;Node4 -->
<g id="edge6" class="edge"><title>Node1&#45;&gt;Node4</title>
<path fill="none" stroke="midnightblue" d="M222.455,-232.497C241.91,-223.397 270.28,-210.127 292.091,-199.925"/>
<polygon fill="midnightblue" stroke="midnightblue" points="293.717,-203.028 301.293,-195.621 290.752,-196.688 293.717,-203.028"/>
</g>
<!-- Node5 -->
<g id="node9" class="node"><title>Node5</title>
<a xlink:href="../../db/dbd/_export_8h.html" target="_top" xlink:title="gaia/core/Export.h">
<polygon fill="white" stroke="black" points="238,-116.5 238,-137.5 334,-137.5 334,-116.5 238,-116.5"/>
<text text-anchor="middle" x="286" y="-124.5" font-family="Helvetica,sans-Serif" font-size="10.00">gaia/core/Export.h</text>
</a>
</g>
<!-- Node4&#45;&gt;Node5 -->
<g id="edge8" class="edge"><title>Node4&#45;&gt;Node5</title>
<path fill="none" stroke="midnightblue" d="M317.03,-174.362C311.834,-166.431 304.599,-155.389 298.422,-145.961"/>
<polygon fill="midnightblue" stroke="midnightblue" points="301.334,-144.017 292.926,-137.571 295.478,-147.853 301.334,-144.017"/>
</g>
<!-- Node7 -->
<g id="node13" class="node"><title>Node7</title>
<polygon fill="white" stroke="#bfbfbf" points="243,-0.5 243,-21.5 311,-21.5 311,-0.5 243,-0.5"/>
<text text-anchor="middle" x="277" y="-8.5" font-family="Helvetica,sans-Serif" font-size="10.00">sys/types.h</text>
</g>
<!-- Node4&#45;&gt;Node7 -->
<g id="edge16" class="edge"><title>Node4&#45;&gt;Node7</title>
<path fill="none" stroke="midnightblue" d="M329.599,-174.439C340.799,-151.751 363.227,-97.2352 343,-58 336.102,-44.6187 323.436,-34.2114 311.031,-26.6302"/>
<polygon fill="midnightblue" stroke="midnightblue" points="312.559,-23.4739 302.13,-21.6072 309.119,-29.5702 312.559,-23.4739"/>
</g>
<!-- Node6 -->
<g id="node11" class="node"><title>Node6</title>
<a xlink:href="../../de/d8c/_component_loader_8h.html" target="_top" xlink:title="gaia/core/ComponentLoader.h">
<polygon fill="white" stroke="black" points="119.5,-58.5 119.5,-79.5 266.5,-79.5 266.5,-58.5 119.5,-58.5"/>
<text text-anchor="middle" x="193" y="-66.5" font-family="Helvetica,sans-Serif" font-size="10.00">gaia/core/ComponentLoader.h</text>
</a>
</g>
<!-- Node5&#45;&gt;Node6 -->
<g id="edge10" class="edge"><title>Node5&#45;&gt;Node6</title>
<path fill="none" stroke="midnightblue" d="M268.942,-116.362C254.915,-107.614 234.816,-95.0786 218.818,-85.1015"/>
<polygon fill="midnightblue" stroke="midnightblue" points="220.287,-81.8927 209.949,-79.5707 216.582,-87.8323 220.287,-81.8927"/>
</g>
<!-- Node8 -->
<g id="node15" class="node"><title>Node8</title>
<polygon fill="white" stroke="#bfbfbf" points="283.5,-58.5 283.5,-79.5 334.5,-79.5 334.5,-58.5 283.5,-58.5"/>
<text text-anchor="middle" x="309" y="-66.5" font-family="Helvetica,sans-Serif" font-size="10.00">typeinfo</text>
</g>
<!-- Node5&#45;&gt;Node8 -->
<g id="edge14" class="edge"><title>Node5&#45;&gt;Node8</title>
<path fill="none" stroke="midnightblue" d="M290.219,-116.362C293.234,-108.758 297.383,-98.294 301.015,-89.1349"/>
<polygon fill="midnightblue" stroke="midnightblue" points="304.375,-90.1567 304.808,-79.5707 297.868,-87.5762 304.375,-90.1567"/>
</g>
<!-- Node6&#45;&gt;Node7 -->
<g id="edge12" class="edge"><title>Node6&#45;&gt;Node7</title>
<path fill="none" stroke="midnightblue" d="M208.407,-58.3619C220.958,-49.6955 238.892,-37.3126 253.275,-27.3819"/>
<polygon fill="midnightblue" stroke="midnightblue" points="255.45,-30.1327 261.691,-21.5707 251.473,-24.3725 255.45,-30.1327"/>
</g>
</g>
</svg>
