<?xml version="1.0" encoding="UTF-8" standalone="no"?>
<!DOCTYPE svg PUBLIC "-//W3C//DTD SVG 1.1//EN"
 "http://www.w3.org/Graphics/SVG/1.1/DTD/svg11.dtd">
<!-- Generated by graphviz version 2.26.3 (20100126.1600)
 -->
<!-- Title: G Pages: 1 -->
<svg width="286pt" height="88pt"
 viewBox="0.00 0.00 286.00 88.00" xmlns="http://www.w3.org/2000/svg" xmlns:xlink="http://www.w3.org/1999/xlink">
<g id="graph1" class="graph" transform="scale(1 1) rotate(0) translate(4 84)">
<title>G</title>
<polygon fill="white" stroke="white" points="-4,5 -4,-84 283,-84 283,5 -4,5"/>
<!-- Node1 -->
<g id="node1" class="node"><title>Node1</title>
<polygon fill="#bfbfbf" stroke="black" points="0,-58.5 0,-79.5 278,-79.5 278,-58.5 0,-58.5"/>
<text text-anchor="middle" x="139" y="-66.5" font-family="Helvetica,sans-Serif" font-size="10.00">/home/vilon_tao/gaia/sdk/include/gaia/security/Credentials.h</text>
</g>
<!-- Node2 -->
<g id="node3" class="node"><title>Node2</title>
<polygon fill="white" stroke="#bfbfbf" points="47,-0.5 47,-21.5 127,-21.5 127,-0.5 47,-0.5"/>
<text text-anchor="middle" x="87" y="-8.5" font-family="Helvetica,sans-Serif" font-size="10.00">openssl/pem.h</text>
</g>
<!-- Node1&#45;&gt;Node2 -->
<g id="edge2" class="edge"><title>Node1&#45;&gt;Node2</title>
<path fill="none" stroke="midnightblue" d="M129.462,-58.3619C122.132,-50.1861 111.837,-38.7025 103.219,-29.0907"/>
<polygon fill="midnightblue" stroke="midnightblue" points="105.759,-26.68 96.4771,-21.5707 100.547,-31.3528 105.759,-26.68"/>
</g>
<!-- Node3 -->
<g id="node5" class="node"><title>Node3</title>
<polygon fill="white" stroke="#bfbfbf" points="144.5,-0.5 144.5,-21.5 237.5,-21.5 237.5,-0.5 144.5,-0.5"/>
<text text-anchor="middle" x="191" y="-8.5" font-family="Helvetica,sans-Serif" font-size="10.00">openssl/pkcs12.h</text>
</g>
<!-- Node1&#45;&gt;Node3 -->
<g id="edge4" class="edge"><title>Node1&#45;&gt;Node3</title>
<path fill="none" stroke="midnightblue" d="M148.538,-58.3619C155.868,-50.1861 166.163,-38.7025 174.781,-29.0907"/>
<polygon fill="midnightblue" stroke="midnightblue" points="177.453,-31.3528 181.523,-21.5707 172.241,-26.68 177.453,-31.3528"/>
</g>
</g>
</svg>
