<?xml version="1.0" encoding="UTF-8" standalone="no"?>
<!DOCTYPE svg PUBLIC "-//W3C//DTD SVG 1.1//EN"
 "http://www.w3.org/Graphics/SVG/1.1/DTD/svg11.dtd">
<!-- Generated by graphviz version 2.26.3 (20100126.1600)
 -->
<!-- Title: G Pages: 1 -->
<svg width="878pt" height="146pt"
 viewBox="0.00 0.00 878.00 146.00" xmlns="http://www.w3.org/2000/svg" xmlns:xlink="http://www.w3.org/1999/xlink">
<g id="graph1" class="graph" transform="scale(1 1) rotate(0) translate(4 142)">
<title>G</title>
<polygon fill="white" stroke="white" points="-4,5 -4,-142 875,-142 875,5 -4,5"/>
<!-- Node1 -->
<g id="node1" class="node"><title>Node1</title>
<polygon fill="#bfbfbf" stroke="black" points="288,-116.5 288,-137.5 584,-137.5 584,-116.5 288,-116.5"/>
<text text-anchor="middle" x="436" y="-124.5" font-family="Helvetica,sans-Serif" font-size="10.00">/home/vilon_tao/gaia/sdk/include/gaia/core/pm/ComponentInfo.h</text>
</g>
<!-- Node2 -->
<g id="node3" class="node"><title>Node2</title>
<a xlink:href="../../db/d07/_delegate_info_8h.html" target="_top" xlink:title="/home/vilon_tao/gaia/sdk/include/gaia/core/pm/DelegateInfo.h">
<polygon fill="white" stroke="black" points="-0.5,-58.5 -0.5,-79.5 284.5,-79.5 284.5,-58.5 -0.5,-58.5"/>
<text text-anchor="middle" x="142" y="-66.5" font-family="Helvetica,sans-Serif" font-size="10.00">/home/vilon_tao/gaia/sdk/include/gaia/core/pm/DelegateInfo.h</text>
</a>
</g>
<!-- Node1&#45;&gt;Node2 -->
<g id="edge2" class="edge"><title>Node1&#45;&gt;Node2</title>
<path fill="none" stroke="midnightblue" d="M372.815,-114.535C319.918,-104.099 245.275,-89.374 195.341,-79.5231"/>
<polygon fill="midnightblue" stroke="midnightblue" points="372.27,-117.995 382.759,-116.497 373.625,-111.127 372.27,-117.995"/>
</g>
<!-- Node3 -->
<g id="node5" class="node"><title>Node3</title>
<a xlink:href="../../d7/dbc/_page_info_8h.html" target="_top" xlink:title="/home/vilon_tao/gaia/sdk/include/gaia/core/pm/PageInfo.h">
<polygon fill="white" stroke="black" points="301.5,-58.5 301.5,-79.5 570.5,-79.5 570.5,-58.5 301.5,-58.5"/>
<text text-anchor="middle" x="436" y="-66.5" font-family="Helvetica,sans-Serif" font-size="10.00">/home/vilon_tao/gaia/sdk/include/gaia/core/pm/PageInfo.h</text>
</a>
</g>
<!-- Node1&#45;&gt;Node3 -->
<g id="edge4" class="edge"><title>Node1&#45;&gt;Node3</title>
<path fill="none" stroke="midnightblue" d="M436,-106.191C436,-97.1684 436,-86.9941 436,-79.5707"/>
<polygon fill="midnightblue" stroke="midnightblue" points="432.5,-106.362 436,-116.362 439.5,-106.362 432.5,-106.362"/>
</g>
<!-- Node5 -->
<g id="node9" class="node"><title>Node5</title>
<a xlink:href="../../d0/d00/_provider_info_8h.html" target="_top" xlink:title="/home/vilon_tao/gaia/sdk/include/gaia/core/pm/ProviderInfo.h">
<polygon fill="white" stroke="black" points="588,-58.5 588,-79.5 870,-79.5 870,-58.5 588,-58.5"/>
<text text-anchor="middle" x="729" y="-66.5" font-family="Helvetica,sans-Serif" font-size="10.00">/home/vilon_tao/gaia/sdk/include/gaia/core/pm/ProviderInfo.h</text>
</a>
</g>
<!-- Node1&#45;&gt;Node5 -->
<g id="edge8" class="edge"><title>Node1&#45;&gt;Node5</title>
<path fill="none" stroke="midnightblue" d="M498.97,-114.535C551.687,-104.099 626.076,-89.374 675.84,-79.5231"/>
<polygon fill="midnightblue" stroke="midnightblue" points="498.19,-111.121 489.06,-116.497 499.549,-117.988 498.19,-111.121"/>
</g>
<!-- Node4 -->
<g id="node7" class="node"><title>Node4</title>
<a xlink:href="../../db/deb/_page_unit_test_case_8h.html" target="_top" xlink:title="/home/vilon_tao/gaia/sdk/include/gaia/testing/PageUnitTestCase.h">
<polygon fill="white" stroke="black" points="282.5,-0.5 282.5,-21.5 589.5,-21.5 589.5,-0.5 282.5,-0.5"/>
<text text-anchor="middle" x="436" y="-8.5" font-family="Helvetica,sans-Serif" font-size="10.00">/home/vilon_tao/gaia/sdk/include/gaia/testing/PageUnitTestCase.h</text>
</a>
</g>
<!-- Node3&#45;&gt;Node4 -->
<g id="edge6" class="edge"><title>Node3&#45;&gt;Node4</title>
<path fill="none" stroke="midnightblue" d="M436,-48.1906C436,-39.1684 436,-28.9941 436,-21.5707"/>
<polygon fill="midnightblue" stroke="midnightblue" points="432.5,-48.3619 436,-58.3619 439.5,-48.3619 432.5,-48.3619"/>
</g>
</g>
</svg>
