<?xml version="1.0" encoding="UTF-8" standalone="no"?>
<!DOCTYPE svg PUBLIC "-//W3C//DTD SVG 1.1//EN"
 "http://www.w3.org/Graphics/SVG/1.1/DTD/svg11.dtd">
<!-- Generated by graphviz version 2.26.3 (20100126.1600)
 -->
<!-- Title: G Pages: 1 -->
<svg width="1160pt" height="88pt"
 viewBox="0.00 0.00 1160.00 88.00" xmlns="http://www.w3.org/2000/svg" xmlns:xlink="http://www.w3.org/1999/xlink">
<g id="graph1" class="graph" transform="scale(1 1) rotate(0) translate(4 84)">
<title>G</title>
<polygon fill="white" stroke="white" points="-4,5 -4,-84 1157,-84 1157,5 -4,5"/>
<!-- Node1 -->
<g id="node1" class="node"><title>Node1</title>
<polygon fill="#bfbfbf" stroke="black" points="445.5,-58.5 445.5,-79.5 718.5,-79.5 718.5,-58.5 445.5,-58.5"/>
<text text-anchor="middle" x="582" y="-66.5" font-family="Helvetica,sans-Serif" font-size="10.00">/home/vilon_tao/gaia/sdk/include/gaia/usb/UsbConstants.h</text>
</g>
<!-- Node2 -->
<g id="node3" class="node"><title>Node2</title>
<a xlink:href="../../da/dc6/_usb_device_8h.html" target="_top" xlink:title="/home/vilon_tao/gaia/sdk/include/gaia/usb/UsbDevice.h">
<polygon fill="white" stroke="black" points="-0.5,-0.5 -0.5,-21.5 258.5,-21.5 258.5,-0.5 -0.5,-0.5"/>
<text text-anchor="middle" x="129" y="-8.5" font-family="Helvetica,sans-Serif" font-size="10.00">/home/vilon_tao/gaia/sdk/include/gaia/usb/UsbDevice.h</text>
</a>
</g>
<!-- Node1&#45;&gt;Node2 -->
<g id="edge2" class="edge"><title>Node1&#45;&gt;Node2</title>
<path fill="none" stroke="midnightblue" d="M489.682,-57.1801C407.937,-46.7138 289.728,-31.5788 211.189,-21.5231"/>
<polygon fill="midnightblue" stroke="midnightblue" points="489.602,-60.6982 499.965,-58.4966 490.491,-53.7549 489.602,-60.6982"/>
</g>
<!-- Node3 -->
<g id="node5" class="node"><title>Node3</title>
<a xlink:href="../../d1/db9/_usb_device_connection_8h.html" target="_top" xlink:title="/home/vilon_tao/gaia/sdk/include/gaia/usb/UsbDeviceConnection.h">
<polygon fill="white" stroke="black" points="276,-0.5 276,-21.5 584,-21.5 584,-0.5 276,-0.5"/>
<text text-anchor="middle" x="430" y="-8.5" font-family="Helvetica,sans-Serif" font-size="10.00">/home/vilon_tao/gaia/sdk/include/gaia/usb/UsbDeviceConnection.h</text>
</a>
</g>
<!-- Node1&#45;&gt;Node3 -->
<g id="edge4" class="edge"><title>Node1&#45;&gt;Node3</title>
<path fill="none" stroke="midnightblue" d="M544.981,-54.8742C518.008,-44.5819 482.052,-30.862 457.578,-21.5231"/>
<polygon fill="midnightblue" stroke="midnightblue" points="543.883,-58.2015 554.474,-58.4966 546.379,-51.6615 543.883,-58.2015"/>
</g>
<!-- Node4 -->
<g id="node7" class="node"><title>Node4</title>
<a xlink:href="../../dc/d17/_usb_endpoint_8h.html" target="_top" xlink:title="/home/vilon_tao/gaia/sdk/include/gaia/usb/UsbEndpoint.h">
<polygon fill="white" stroke="black" points="602,-0.5 602,-21.5 868,-21.5 868,-0.5 602,-0.5"/>
<text text-anchor="middle" x="735" y="-8.5" font-family="Helvetica,sans-Serif" font-size="10.00">/home/vilon_tao/gaia/sdk/include/gaia/usb/UsbEndpoint.h</text>
</a>
</g>
<!-- Node1&#45;&gt;Node4 -->
<g id="edge6" class="edge"><title>Node1&#45;&gt;Node4</title>
<path fill="none" stroke="midnightblue" d="M619.263,-54.8742C646.413,-44.5819 682.605,-30.862 707.241,-21.5231"/>
<polygon fill="midnightblue" stroke="midnightblue" points="617.817,-51.6791 609.707,-58.4966 620.298,-58.2246 617.817,-51.6791"/>
</g>
<!-- Node5 -->
<g id="node9" class="node"><title>Node5</title>
<a xlink:href="../../d6/d55/_usb_interface_8h.html" target="_top" xlink:title="/home/vilon_tao/gaia/sdk/include/gaia/usb/UsbInterface.h">
<polygon fill="white" stroke="black" points="886,-0.5 886,-21.5 1152,-21.5 1152,-0.5 886,-0.5"/>
<text text-anchor="middle" x="1019" y="-8.5" font-family="Helvetica,sans-Serif" font-size="10.00">/home/vilon_tao/gaia/sdk/include/gaia/usb/UsbInterface.h</text>
</a>
</g>
<!-- Node1&#45;&gt;Node5 -->
<g id="edge8" class="edge"><title>Node1&#45;&gt;Node5</title>
<path fill="none" stroke="midnightblue" d="M671.057,-57.1801C749.915,-46.7138 863.949,-31.5788 939.714,-21.5231"/>
<polygon fill="midnightblue" stroke="midnightblue" points="670.59,-53.7113 661.137,-58.4966 671.511,-60.6504 670.59,-53.7113"/>
</g>
</g>
</svg>
