<?xml version="1.0" encoding="UTF-8" standalone="no"?>
<!DOCTYPE svg PUBLIC "-//W3C//DTD SVG 1.1//EN"
 "http://www.w3.org/Graphics/SVG/1.1/DTD/svg11.dtd">
<!-- Generated by graphviz version 2.26.3 (20100126.1600)
 -->
<!-- Title: G Pages: 1 -->
<svg width="621pt" height="204pt"
 viewBox="0.00 0.00 621.07 204.00" xmlns="http://www.w3.org/2000/svg" xmlns:xlink="http://www.w3.org/1999/xlink">
<g id="graph1" class="graph" transform="scale(1 1) rotate(0) translate(4 200)">
<title>G</title>
<polygon fill="white" stroke="white" points="-4,5 -4,-200 618.071,-200 618.071,5 -4,5"/>
<!-- Node1 -->
<g id="node1" class="node"><title>Node1</title>
<polygon fill="#bfbfbf" stroke="black" points="-0.5,-174.5 -0.5,-195.5 298.5,-195.5 298.5,-174.5 -0.5,-174.5"/>
<text text-anchor="middle" x="149" y="-182.5" font-family="Helvetica,sans-Serif" font-size="10.00">/home/vilon_tao/gaia/sdk/include/gaia/connectivity/wifi/WifiInfo.h</text>
</g>
<!-- Node2 -->
<g id="node3" class="node"><title>Node2</title>
<polygon fill="white" stroke="#bfbfbf" points="72.5,-116.5 72.5,-137.5 121.5,-137.5 121.5,-116.5 72.5,-116.5"/>
<text text-anchor="middle" x="97" y="-124.5" font-family="Helvetica,sans-Serif" font-size="10.00">stdint.h</text>
</g>
<!-- Node1&#45;&gt;Node2 -->
<g id="edge2" class="edge"><title>Node1&#45;&gt;Node2</title>
<path fill="none" stroke="midnightblue" d="M139.462,-174.362C132.132,-166.186 121.837,-154.702 113.219,-145.091"/>
<polygon fill="midnightblue" stroke="midnightblue" points="115.759,-142.68 106.477,-137.571 110.547,-147.353 115.759,-142.68"/>
</g>
<!-- Node3 -->
<g id="node5" class="node"><title>Node3</title>
<a xlink:href="../../d1/dd0/gmacros_8h.html" target="_top" xlink:title="gaia/base/gmacros.h">
<polygon fill="white" stroke="black" points="143.5,-0.5 143.5,-21.5 250.5,-21.5 250.5,-0.5 143.5,-0.5"/>
<text text-anchor="middle" x="197" y="-8.5" font-family="Helvetica,sans-Serif" font-size="10.00">gaia/base/gmacros.h</text>
</a>
</g>
<!-- Node1&#45;&gt;Node3 -->
<g id="edge4" class="edge"><title>Node1&#45;&gt;Node3</title>
<path fill="none" stroke="midnightblue" d="M151.93,-174.377C159.711,-146.172 180.997,-69.0121 191.284,-31.7203"/>
<polygon fill="midnightblue" stroke="midnightblue" points="194.7,-32.4984 193.985,-21.9277 187.952,-30.6369 194.7,-32.4984"/>
</g>
<!-- Node4 -->
<g id="node7" class="node"><title>Node4</title>
<a xlink:href="../../de/d28/_network_info_8h.html" target="_top" xlink:title="gaia/connectivity/NetworkInfo.h">
<polygon fill="white" stroke="black" points="223.5,-116.5 223.5,-137.5 378.5,-137.5 378.5,-116.5 223.5,-116.5"/>
<text text-anchor="middle" x="301" y="-124.5" font-family="Helvetica,sans-Serif" font-size="10.00">gaia/connectivity/NetworkInfo.h</text>
</a>
</g>
<!-- Node1&#45;&gt;Node4 -->
<g id="edge6" class="edge"><title>Node1&#45;&gt;Node4</title>
<path fill="none" stroke="midnightblue" d="M176.526,-174.497C200.984,-165.164 236.938,-151.445 263.924,-141.147"/>
<polygon fill="midnightblue" stroke="midnightblue" points="265.327,-144.358 273.422,-137.523 262.832,-137.818 265.327,-144.358"/>
</g>
<!-- Node4&#45;&gt;Node3 -->
<g id="edge10" class="edge"><title>Node4&#45;&gt;Node3</title>
<path fill="none" stroke="midnightblue" d="M259.438,-116.332C240.156,-109.223 218.733,-97.815 206,-80 196.148,-66.2157 194.39,-46.8251 194.814,-32.1083"/>
<polygon fill="midnightblue" stroke="midnightblue" points="198.319,-32.139 195.465,-21.9356 191.333,-31.6914 198.319,-32.139"/>
</g>
<!-- Node5 -->
<g id="node9" class="node"><title>Node5</title>
<polygon fill="white" stroke="#bfbfbf" points="530,-0.5 530,-21.5 598,-21.5 598,-0.5 530,-0.5"/>
<text text-anchor="middle" x="564" y="-8.5" font-family="Helvetica,sans-Serif" font-size="10.00">sys/types.h</text>
</g>
<!-- Node4&#45;&gt;Node5 -->
<g id="edge8" class="edge"><title>Node4&#45;&gt;Node5</title>
<path fill="none" stroke="midnightblue" d="M378.511,-120.357C464.503,-112.187 593.182,-97.259 608,-80 621.919,-63.7885 604.299,-42.8115 587.393,-28.2629"/>
<polygon fill="midnightblue" stroke="midnightblue" points="589.261,-25.2719 579.292,-21.6864 584.849,-30.7065 589.261,-25.2719"/>
</g>
<!-- Node6 -->
<g id="node12" class="node"><title>Node6</title>
<a xlink:href="../../db/df3/_connectivity_manager_8h.html" target="_top" xlink:title="gaia/connectivity/ConnectivityManager.h">
<polygon fill="white" stroke="black" points="405,-58.5 405,-79.5 599,-79.5 599,-58.5 405,-58.5"/>
<text text-anchor="middle" x="502" y="-66.5" font-family="Helvetica,sans-Serif" font-size="10.00">gaia/connectivity/ConnectivityManager.h</text>
</a>
</g>
<!-- Node4&#45;&gt;Node6 -->
<g id="edge12" class="edge"><title>Node4&#45;&gt;Node6</title>
<path fill="none" stroke="midnightblue" d="M337.4,-116.497C370.594,-106.918 419.799,-92.7196 455.764,-82.3418"/>
<polygon fill="midnightblue" stroke="midnightblue" points="456.895,-85.6584 465.532,-79.5231 454.954,-78.9328 456.895,-85.6584"/>
</g>
<!-- Node7 -->
<g id="node16" class="node"><title>Node7</title>
<a xlink:href="../../de/d2b/_telephony_manager_8h.html" target="_top" xlink:title="gaia/telephony/TelephonyManager.h">
<polygon fill="white" stroke="black" points="214.5,-58.5 214.5,-79.5 387.5,-79.5 387.5,-58.5 214.5,-58.5"/>
<text text-anchor="middle" x="301" y="-66.5" font-family="Helvetica,sans-Serif" font-size="10.00">gaia/telephony/TelephonyManager.h</text>
</a>
</g>
<!-- Node4&#45;&gt;Node7 -->
<g id="edge18" class="edge"><title>Node4&#45;&gt;Node7</title>
<path fill="none" stroke="midnightblue" d="M301,-116.362C301,-108.922 301,-98.7427 301,-89.7276"/>
<polygon fill="midnightblue" stroke="midnightblue" points="304.5,-89.5706 301,-79.5707 297.5,-89.5707 304.5,-89.5706"/>
</g>
<!-- Node6&#45;&gt;Node3 -->
<g id="edge16" class="edge"><title>Node6&#45;&gt;Node3</title>
<path fill="none" stroke="midnightblue" d="M446.767,-58.4966C394.325,-48.5242 315.547,-33.5434 260.528,-23.0808"/>
<polygon fill="midnightblue" stroke="midnightblue" points="261.021,-19.6119 250.544,-21.1821 259.714,-26.4887 261.021,-19.6119"/>
</g>
<!-- Node6&#45;&gt;Node5 -->
<g id="edge14" class="edge"><title>Node6&#45;&gt;Node5</title>
<path fill="none" stroke="midnightblue" d="M513.372,-58.3619C522.286,-50.0226 534.879,-38.2418 545.276,-28.5162"/>
<polygon fill="midnightblue" stroke="midnightblue" points="547.789,-30.9582 552.7,-21.5707 543.007,-25.8463 547.789,-30.9582"/>
</g>
<!-- Node7&#45;&gt;Node3 -->
<g id="edge22" class="edge"><title>Node7&#45;&gt;Node3</title>
<path fill="none" stroke="midnightblue" d="M281.925,-58.3619C265.945,-49.4502 242.919,-36.6087 224.873,-26.5447"/>
<polygon fill="midnightblue" stroke="midnightblue" points="226.393,-23.3846 215.954,-21.5707 222.983,-29.4982 226.393,-23.3846"/>
</g>
<!-- Node8 -->
<g id="node18" class="node"><title>Node8</title>
<polygon fill="white" stroke="#bfbfbf" points="278,-0.5 278,-21.5 324,-21.5 324,-0.5 278,-0.5"/>
<text text-anchor="middle" x="301" y="-8.5" font-family="Helvetica,sans-Serif" font-size="10.00">cstdint</text>
</g>
<!-- Node7&#45;&gt;Node8 -->
<g id="edge20" class="edge"><title>Node7&#45;&gt;Node8</title>
<path fill="none" stroke="midnightblue" d="M301,-58.3619C301,-50.9219 301,-40.7427 301,-31.7276"/>
<polygon fill="midnightblue" stroke="midnightblue" points="304.5,-31.5706 301,-21.5707 297.5,-31.5707 304.5,-31.5706"/>
</g>
</g>
</svg>
