<?xml version="1.0" encoding="UTF-8" standalone="no"?>
<!DOCTYPE svg PUBLIC "-//W3C//DTD SVG 1.1//EN"
 "http://www.w3.org/Graphics/SVG/1.1/DTD/svg11.dtd">
<!-- Generated by graphviz version 2.26.3 (20100126.1600)
 -->
<!-- Title: G Pages: 1 -->
<svg width="581pt" height="320pt"
 viewBox="0.00 0.00 580.65 320.00" xmlns="http://www.w3.org/2000/svg" xmlns:xlink="http://www.w3.org/1999/xlink">
<g id="graph1" class="graph" transform="scale(1 1) rotate(0) translate(4 316)">
<title>G</title>
<polygon fill="white" stroke="white" points="-4,5 -4,-316 577.648,-316 577.648,5 -4,5"/>
<!-- Node1 -->
<g id="node1" class="node"><title>Node1</title>
<polygon fill="#bfbfbf" stroke="black" points="325,-290.5 325,-311.5 571,-311.5 571,-290.5 325,-290.5"/>
<text text-anchor="middle" x="448" y="-298.5" font-family="Helvetica,sans-Serif" font-size="10.00">/home/vilon_tao/gaia/sdk/include/gaia/text/Editable.h</text>
</g>
<!-- Node2 -->
<g id="node3" class="node"><title>Node2</title>
<a xlink:href="../../dc/dd4/_input_filter_8h.html" target="_top" xlink:title="gaia/text/InputFilter.h">
<polygon fill="white" stroke="black" points="451.5,-174.5 451.5,-195.5 560.5,-195.5 560.5,-174.5 451.5,-174.5"/>
<text text-anchor="middle" x="506" y="-182.5" font-family="Helvetica,sans-Serif" font-size="10.00">gaia/text/InputFilter.h</text>
</a>
</g>
<!-- Node1&#45;&gt;Node2 -->
<g id="edge2" class="edge"><title>Node1&#45;&gt;Node2</title>
<path fill="none" stroke="midnightblue" d="M453.353,-290.295C463.064,-270.872 483.722,-229.556 496.077,-204.846"/>
<polygon fill="midnightblue" stroke="midnightblue" points="499.319,-206.189 500.66,-195.679 493.058,-203.058 499.319,-206.189"/>
</g>
<!-- Node6 -->
<g id="node11" class="node"><title>Node6</title>
<a xlink:href="../../d7/d1c/_spannable_8h.html" target="_top" xlink:title="gaia/text/Spannable.h">
<polygon fill="white" stroke="black" points="346.5,-232.5 346.5,-253.5 457.5,-253.5 457.5,-232.5 346.5,-232.5"/>
<text text-anchor="middle" x="402" y="-240.5" font-family="Helvetica,sans-Serif" font-size="10.00">gaia/text/Spannable.h</text>
</a>
</g>
<!-- Node1&#45;&gt;Node6 -->
<g id="edge10" class="edge"><title>Node1&#45;&gt;Node6</title>
<path fill="none" stroke="midnightblue" d="M439.563,-290.362C433.208,-282.35 424.334,-271.161 416.807,-261.67"/>
<polygon fill="midnightblue" stroke="midnightblue" points="419.34,-259.231 410.384,-253.571 413.855,-263.581 419.34,-259.231"/>
</g>
<!-- Node3 -->
<g id="node5" class="node"><title>Node3</title>
<a xlink:href="../../d7/d97/_char_sequence_8h.html" target="_top" xlink:title="gaia/base/CharSequence.h">
<polygon fill="white" stroke="black" points="425,-116.5 425,-137.5 559,-137.5 559,-116.5 425,-116.5"/>
<text text-anchor="middle" x="492" y="-124.5" font-family="Helvetica,sans-Serif" font-size="10.00">gaia/base/CharSequence.h</text>
</a>
</g>
<!-- Node2&#45;&gt;Node3 -->
<g id="edge4" class="edge"><title>Node2&#45;&gt;Node3</title>
<path fill="none" stroke="midnightblue" d="M503.432,-174.362C501.617,-166.84 499.125,-156.519 496.932,-147.431"/>
<polygon fill="midnightblue" stroke="midnightblue" points="500.3,-146.47 494.552,-137.571 493.496,-148.113 500.3,-146.47"/>
</g>
<!-- Node5 -->
<g id="node9" class="node"><title>Node5</title>
<a xlink:href="../../d1/dd0/gmacros_8h.html" target="_top" xlink:title="gaia/base/gmacros.h">
<polygon fill="white" stroke="black" points="347.5,-58.5 347.5,-79.5 454.5,-79.5 454.5,-58.5 347.5,-58.5"/>
<text text-anchor="middle" x="401" y="-66.5" font-family="Helvetica,sans-Serif" font-size="10.00">gaia/base/gmacros.h</text>
</a>
</g>
<!-- Node2&#45;&gt;Node5 -->
<g id="edge8" class="edge"><title>Node2&#45;&gt;Node5</title>
<path fill="none" stroke="midnightblue" d="M527.466,-174.491C551.378,-161.365 584.627,-137.953 568,-116 555.247,-99.1624 506.34,-86.6668 464.723,-78.8095"/>
<polygon fill="midnightblue" stroke="midnightblue" points="465.344,-75.3649 454.877,-77.0093 464.085,-82.2508 465.344,-75.3649"/>
</g>
<!-- Node4 -->
<g id="node7" class="node"><title>Node4</title>
<polygon fill="white" stroke="#bfbfbf" points="302.5,-0.5 302.5,-21.5 351.5,-21.5 351.5,-0.5 302.5,-0.5"/>
<text text-anchor="middle" x="327" y="-8.5" font-family="Helvetica,sans-Serif" font-size="10.00">stdint.h</text>
</g>
<!-- Node3&#45;&gt;Node4 -->
<g id="edge6" class="edge"><title>Node3&#45;&gt;Node4</title>
<path fill="none" stroke="midnightblue" d="M490.314,-116.344C487.389,-101.301 479.974,-73.9027 463,-58 435.114,-31.8738 391.997,-20.189 361.807,-15.0154"/>
<polygon fill="midnightblue" stroke="midnightblue" points="362.133,-11.5241 351.713,-13.444 361.056,-18.4408 362.133,-11.5241"/>
</g>
<!-- Node7 -->
<g id="node13" class="node"><title>Node7</title>
<a xlink:href="../../d7/dc2/_spanned_8h.html" target="_top" xlink:title="gaia/text/Spanned.h">
<polygon fill="white" stroke="black" points="330,-174.5 330,-195.5 434,-195.5 434,-174.5 330,-174.5"/>
<text text-anchor="middle" x="382" y="-182.5" font-family="Helvetica,sans-Serif" font-size="10.00">gaia/text/Spanned.h</text>
</a>
</g>
<!-- Node6&#45;&gt;Node7 -->
<g id="edge12" class="edge"><title>Node6&#45;&gt;Node7</title>
<path fill="none" stroke="midnightblue" d="M398.332,-232.362C395.71,-224.758 392.101,-214.294 388.943,-205.135"/>
<polygon fill="midnightblue" stroke="midnightblue" points="392.214,-203.883 385.645,-195.571 385.596,-206.165 392.214,-203.883"/>
</g>
<!-- Node7&#45;&gt;Node3 -->
<g id="edge32" class="edge"><title>Node7&#45;&gt;Node3</title>
<path fill="none" stroke="midnightblue" d="M401.92,-174.497C418.946,-165.519 443.669,-152.484 462.909,-142.339"/>
<polygon fill="midnightblue" stroke="midnightblue" points="464.643,-145.381 471.856,-137.621 461.378,-139.189 464.643,-145.381"/>
</g>
<!-- Node7&#45;&gt;Node5 -->
<g id="edge34" class="edge"><title>Node7&#45;&gt;Node5</title>
<path fill="none" stroke="midnightblue" d="M383.753,-174.295C386.892,-155.131 393.522,-114.654 397.586,-89.8434"/>
<polygon fill="midnightblue" stroke="midnightblue" points="401.088,-90.1135 399.251,-79.6792 394.18,-88.9819 401.088,-90.1135"/>
</g>
<!-- Node8 -->
<g id="node15" class="node"><title>Node8</title>
<a xlink:href="../../d3/dc5/_array_8h.html" target="_top" xlink:title="gaia/base/Array.h">
<polygon fill="white" stroke="black" points="105.5,-116.5 105.5,-137.5 198.5,-137.5 198.5,-116.5 105.5,-116.5"/>
<text text-anchor="middle" x="152" y="-124.5" font-family="Helvetica,sans-Serif" font-size="10.00">gaia/base/Array.h</text>
</a>
</g>
<!-- Node7&#45;&gt;Node8 -->
<g id="edge14" class="edge"><title>Node7&#45;&gt;Node8</title>
<path fill="none" stroke="midnightblue" d="M340.349,-174.497C301.96,-164.816 244.855,-150.416 203.593,-140.01"/>
<polygon fill="midnightblue" stroke="midnightblue" points="204.282,-136.575 193.729,-137.523 202.57,-143.362 204.282,-136.575"/>
</g>
<!-- Node14 -->
<g id="node32" class="node"><title>Node14</title>
<a xlink:href="../../d1/d81/_object_style_8h.html" target="_top" xlink:title="gaia/text/style/ObjectStyle.h">
<polygon fill="white" stroke="black" points="229,-116.5 229,-137.5 369,-137.5 369,-116.5 229,-116.5"/>
<text text-anchor="middle" x="299" y="-124.5" font-family="Helvetica,sans-Serif" font-size="10.00">gaia/text/style/ObjectStyle.h</text>
</a>
</g>
<!-- Node7&#45;&gt;Node14 -->
<g id="edge36" class="edge"><title>Node7&#45;&gt;Node14</title>
<path fill="none" stroke="midnightblue" d="M366.777,-174.362C354.375,-165.696 336.654,-153.313 322.443,-143.382"/>
<polygon fill="midnightblue" stroke="midnightblue" points="324.329,-140.43 314.127,-137.571 320.319,-146.168 324.329,-140.43"/>
</g>
<!-- Node9 -->
<g id="node17" class="node"><title>Node9</title>
<a xlink:href="../../d8/dae/_array_impl_8h.html" target="_top" xlink:title="gaia/base/ArrayImpl.h">
<polygon fill="white" stroke="black" points="0,-58.5 0,-79.5 112,-79.5 112,-58.5 0,-58.5"/>
<text text-anchor="middle" x="56" y="-66.5" font-family="Helvetica,sans-Serif" font-size="10.00">gaia/base/ArrayImpl.h</text>
</a>
</g>
<!-- Node8&#45;&gt;Node9 -->
<g id="edge16" class="edge"><title>Node8&#45;&gt;Node9</title>
<path fill="none" stroke="midnightblue" d="M134.392,-116.362C119.777,-107.532 98.7762,-94.844 82.1888,-84.8224"/>
<polygon fill="midnightblue" stroke="midnightblue" points="83.8653,-81.7461 73.4963,-79.5707 80.2455,-87.7376 83.8653,-81.7461"/>
</g>
<!-- Node10 -->
<g id="node19" class="node"><title>Node10</title>
<polygon fill="white" stroke="#bfbfbf" points="99,-0.5 99,-21.5 167,-21.5 167,-0.5 99,-0.5"/>
<text text-anchor="middle" x="133" y="-8.5" font-family="Helvetica,sans-Serif" font-size="10.00">sys/types.h</text>
</g>
<!-- Node8&#45;&gt;Node10 -->
<g id="edge30" class="edge"><title>Node8&#45;&gt;Node10</title>
<path fill="none" stroke="midnightblue" d="M150.247,-116.295C147.108,-97.1314 140.478,-56.654 136.414,-31.8434"/>
<polygon fill="midnightblue" stroke="midnightblue" points="139.82,-30.9819 134.749,-21.6792 132.912,-32.1135 139.82,-30.9819"/>
</g>
<!-- Node11 -->
<g id="node21" class="node"><title>Node11</title>
<a xlink:href="../../d1/d86/_type_helpers_8h.html" target="_top" xlink:title="gaia/base/TypeHelpers.h">
<polygon fill="white" stroke="black" points="167.5,-58.5 167.5,-79.5 292.5,-79.5 292.5,-58.5 167.5,-58.5"/>
<text text-anchor="middle" x="230" y="-66.5" font-family="Helvetica,sans-Serif" font-size="10.00">gaia/base/TypeHelpers.h</text>
</a>
</g>
<!-- Node8&#45;&gt;Node11 -->
<g id="edge20" class="edge"><title>Node8&#45;&gt;Node11</title>
<path fill="none" stroke="midnightblue" d="M166.306,-116.362C177.851,-107.777 194.3,-95.5459 207.59,-85.6636"/>
<polygon fill="midnightblue" stroke="midnightblue" points="209.848,-88.3463 215.784,-79.5707 205.671,-82.7291 209.848,-88.3463"/>
</g>
<!-- Node9&#45;&gt;Node10 -->
<g id="edge18" class="edge"><title>Node9&#45;&gt;Node10</title>
<path fill="none" stroke="midnightblue" d="M70.123,-58.3619C81.5198,-49.7773 97.7581,-37.5459 110.878,-27.6636"/>
<polygon fill="midnightblue" stroke="midnightblue" points="113.085,-30.3829 118.967,-21.5707 108.873,-24.7916 113.085,-30.3829"/>
</g>
<!-- Node11&#45;&gt;Node4 -->
<g id="edge22" class="edge"><title>Node11&#45;&gt;Node4</title>
<path fill="none" stroke="midnightblue" d="M247.791,-58.3619C262.559,-49.532 283.778,-36.844 300.538,-26.8224"/>
<polygon fill="midnightblue" stroke="midnightblue" points="302.535,-29.7066 309.321,-21.5707 298.943,-23.6987 302.535,-29.7066"/>
</g>
<!-- Node11&#45;&gt;Node10 -->
<g id="edge26" class="edge"><title>Node11&#45;&gt;Node10</title>
<path fill="none" stroke="midnightblue" d="M212.209,-58.3619C197.441,-49.532 176.222,-36.844 159.462,-26.8224"/>
<polygon fill="midnightblue" stroke="midnightblue" points="161.057,-23.6987 150.679,-21.5707 157.465,-29.7066 161.057,-23.6987"/>
</g>
<!-- Node12 -->
<g id="node24" class="node"><title>Node12</title>
<polygon fill="white" stroke="#bfbfbf" points="184.5,-0.5 184.5,-21.5 233.5,-21.5 233.5,-0.5 184.5,-0.5"/>
<text text-anchor="middle" x="209" y="-8.5" font-family="Helvetica,sans-Serif" font-size="10.00">string.h</text>
</g>
<!-- Node11&#45;&gt;Node12 -->
<g id="edge24" class="edge"><title>Node11&#45;&gt;Node12</title>
<path fill="none" stroke="midnightblue" d="M226.148,-58.3619C223.395,-50.7584 219.606,-40.294 216.29,-31.1349"/>
<polygon fill="midnightblue" stroke="midnightblue" points="219.523,-29.7818 212.827,-21.5707 212.941,-32.1649 219.523,-29.7818"/>
</g>
<!-- Node13 -->
<g id="node27" class="node"><title>Node13</title>
<polygon fill="white" stroke="#bfbfbf" points="250.5,-0.5 250.5,-21.5 285.5,-21.5 285.5,-0.5 250.5,-0.5"/>
<text text-anchor="middle" x="268" y="-8.5" font-family="Helvetica,sans-Serif" font-size="10.00">new</text>
</g>
<!-- Node11&#45;&gt;Node13 -->
<g id="edge28" class="edge"><title>Node11&#45;&gt;Node13</title>
<path fill="none" stroke="midnightblue" d="M236.97,-58.3619C242.166,-50.4313 249.401,-39.3885 255.578,-29.9606"/>
<polygon fill="midnightblue" stroke="midnightblue" points="258.522,-31.8534 261.074,-21.5707 252.666,-28.0172 258.522,-31.8534"/>
</g>
<!-- Node14&#45;&gt;Node4 -->
<g id="edge38" class="edge"><title>Node14&#45;&gt;Node4</title>
<path fill="none" stroke="midnightblue" d="M301.584,-116.295C306.23,-97.0451 316.068,-56.2889 322.05,-31.5091"/>
<polygon fill="midnightblue" stroke="midnightblue" points="325.478,-32.2213 324.422,-21.6792 318.673,-30.5788 325.478,-32.2213"/>
</g>
<!-- Node14&#45;&gt;Node5 -->
<g id="edge40" class="edge"><title>Node14&#45;&gt;Node5</title>
<path fill="none" stroke="midnightblue" d="M317.708,-116.362C333.381,-107.45 355.964,-94.6087 373.663,-84.5447"/>
<polygon fill="midnightblue" stroke="midnightblue" points="375.447,-87.5562 382.41,-79.5707 371.987,-81.4712 375.447,-87.5562"/>
</g>
</g>
</svg>
