<?xml version="1.0" encoding="UTF-8" standalone="no"?>
<!DOCTYPE svg PUBLIC "-//W3C//DTD SVG 1.1//EN"
 "http://www.w3.org/Graphics/SVG/1.1/DTD/svg11.dtd">
<!-- Generated by graphviz version 2.26.3 (20100126.1600)
 -->
<!-- Title: G Pages: 1 -->
<svg width="940pt" height="88pt"
 viewBox="0.00 0.00 940.00 88.00" xmlns="http://www.w3.org/2000/svg" xmlns:xlink="http://www.w3.org/1999/xlink">
<g id="graph1" class="graph" transform="scale(1 1) rotate(0) translate(4 84)">
<title>G</title>
<polygon fill="white" stroke="white" points="-4,5 -4,-84 937,-84 937,5 -4,5"/>
<!-- Node1 -->
<g id="node1" class="node"><title>Node1</title>
<polygon fill="#bfbfbf" stroke="black" points="353,-58.5 353,-79.5 603,-79.5 603,-58.5 353,-58.5"/>
<text text-anchor="middle" x="478" y="-66.5" font-family="Helvetica,sans-Serif" font-size="10.00">/home/vilon_tao/gaia/sdk/include/gaia/ui/EditWidget.h</text>
</g>
<!-- Node2 -->
<g id="node3" class="node"><title>Node2</title>
<a xlink:href="../../da/d1a/_extract_edit_widget_8h.html" target="_top" xlink:title="/home/vilon_tao/gaia/sdk/include/gaia/service/ExtractEditWidget.h">
<polygon fill="white" stroke="black" points="-0.5,-0.5 -0.5,-21.5 304.5,-21.5 304.5,-0.5 -0.5,-0.5"/>
<text text-anchor="middle" x="152" y="-8.5" font-family="Helvetica,sans-Serif" font-size="10.00">/home/vilon_tao/gaia/sdk/include/gaia/service/ExtractEditWidget.h</text>
</a>
</g>
<!-- Node1&#45;&gt;Node2 -->
<g id="edge2" class="edge"><title>Node1&#45;&gt;Node2</title>
<path fill="none" stroke="midnightblue" d="M409.032,-56.7296C350.316,-46.2833 266.861,-31.4354 211.147,-21.5231"/>
<polygon fill="midnightblue" stroke="midnightblue" points="408.505,-60.1908 418.964,-58.4966 409.732,-53.299 408.505,-60.1908"/>
</g>
<!-- Node3 -->
<g id="node5" class="node"><title>Node3</title>
<a xlink:href="../../d4/da1/_auto_complete_edit_widget_8h.html" target="_top" xlink:title="/home/vilon_tao/gaia/sdk/include/gaia/ui/AutoCompleteEditWidget.h">
<polygon fill="white" stroke="black" points="322,-0.5 322,-21.5 634,-21.5 634,-0.5 322,-0.5"/>
<text text-anchor="middle" x="478" y="-8.5" font-family="Helvetica,sans-Serif" font-size="10.00">/home/vilon_tao/gaia/sdk/include/gaia/ui/AutoCompleteEditWidget.h</text>
</a>
</g>
<!-- Node1&#45;&gt;Node3 -->
<g id="edge4" class="edge"><title>Node1&#45;&gt;Node3</title>
<path fill="none" stroke="midnightblue" d="M478,-48.1906C478,-39.1684 478,-28.9941 478,-21.5707"/>
<polygon fill="midnightblue" stroke="midnightblue" points="474.5,-48.3619 478,-58.3619 481.5,-48.3619 474.5,-48.3619"/>
</g>
<!-- Node4 -->
<g id="node7" class="node"><title>Node4</title>
<a xlink:href="../../d5/db8/_search_edit_widget_8h.html" target="_top" xlink:title="/home/vilon_tao/gaia/sdk/include/gaia/ui/SearchEditWidget.h">
<polygon fill="white" stroke="black" points="651.5,-0.5 651.5,-21.5 932.5,-21.5 932.5,-0.5 651.5,-0.5"/>
<text text-anchor="middle" x="792" y="-8.5" font-family="Helvetica,sans-Serif" font-size="10.00">/home/vilon_tao/gaia/sdk/include/gaia/ui/SearchEditWidget.h</text>
</a>
</g>
<!-- Node1&#45;&gt;Node4 -->
<g id="edge6" class="edge"><title>Node1&#45;&gt;Node4</title>
<path fill="none" stroke="midnightblue" d="M544.78,-56.6648C601.316,-46.222 681.478,-31.415 735.03,-21.5231"/>
<polygon fill="midnightblue" stroke="midnightblue" points="544.061,-53.2384 534.863,-58.4966 545.332,-60.1219 544.061,-53.2384"/>
</g>
</g>
</svg>
