<?xml version="1.0" encoding="UTF-8" standalone="no"?>
<!DOCTYPE svg PUBLIC "-//W3C//DTD SVG 1.1//EN"
 "http://www.w3.org/Graphics/SVG/1.1/DTD/svg11.dtd">
<!-- Generated by graphviz version 2.26.3 (20100126.1600)
 -->
<!-- Title: G Pages: 1 -->
<svg width="1139pt" height="320pt"
 viewBox="0.00 0.00 1139.12 320.00" xmlns="http://www.w3.org/2000/svg" xmlns:xlink="http://www.w3.org/1999/xlink">
<g id="graph1" class="graph" transform="scale(1 1) rotate(0) translate(4 316)">
<title>G</title>
<polygon fill="white" stroke="white" points="-4,5 -4,-316 1136.12,-316 1136.12,5 -4,5"/>
<!-- Node1 -->
<g id="node1" class="node"><title>Node1</title>
<polygon fill="#bfbfbf" stroke="black" points="591.5,-290.5 591.5,-311.5 872.5,-311.5 872.5,-290.5 591.5,-290.5"/>
<text text-anchor="middle" x="732" y="-298.5" font-family="Helvetica,sans-Serif" font-size="10.00">/home/vilon_tao/gaia/sdk/include/gaia/ui/SearchEditWidget.h</text>
</g>
<!-- Node2 -->
<g id="node3" class="node"><title>Node2</title>
<a xlink:href="../../db/ded/_page_8h.html" target="_top" xlink:title="gaia/core/Page.h">
<polygon fill="white" stroke="black" points="305,-174.5 305,-195.5 395,-195.5 395,-174.5 305,-174.5"/>
<text text-anchor="middle" x="350" y="-182.5" font-family="Helvetica,sans-Serif" font-size="10.00">gaia/core/Page.h</text>
</a>
</g>
<!-- Node1&#45;&gt;Node2 -->
<g id="edge2" class="edge"><title>Node1&#45;&gt;Node2</title>
<path fill="none" stroke="midnightblue" d="M697.087,-290.398C627.462,-269.255 471.44,-221.877 394.556,-198.53"/>
<polygon fill="midnightblue" stroke="midnightblue" points="395.279,-195.092 384.693,-195.535 393.245,-201.79 395.279,-195.092"/>
</g>
<!-- Node14 -->
<g id="node31" class="node"><title>Node14</title>
<a xlink:href="../../d2/daa/_button_8h.html" target="_top" xlink:title="gaia/ui/Button.h">
<polygon fill="white" stroke="black" points="753.5,-232.5 753.5,-253.5 838.5,-253.5 838.5,-232.5 753.5,-232.5"/>
<text text-anchor="middle" x="796" y="-240.5" font-family="Helvetica,sans-Serif" font-size="10.00">gaia/ui/Button.h</text>
</a>
</g>
<!-- Node1&#45;&gt;Node14 -->
<g id="edge34" class="edge"><title>Node1&#45;&gt;Node14</title>
<path fill="none" stroke="midnightblue" d="M743.739,-290.362C752.941,-282.023 765.94,-270.242 776.672,-260.516"/>
<polygon fill="midnightblue" stroke="midnightblue" points="779.276,-262.879 784.336,-253.571 774.576,-257.692 779.276,-262.879"/>
</g>
<!-- Node21 -->
<g id="node48" class="node"><title>Node21</title>
<a xlink:href="../../d2/d98/_edit_widget_8h.html" target="_top" xlink:title="gaia/ui/EditWidget.h">
<polygon fill="white" stroke="black" points="856,-232.5 856,-253.5 960,-253.5 960,-232.5 856,-232.5"/>
<text text-anchor="middle" x="908" y="-240.5" font-family="Helvetica,sans-Serif" font-size="10.00">gaia/ui/EditWidget.h</text>
</a>
</g>
<!-- Node1&#45;&gt;Node21 -->
<g id="edge54" class="edge"><title>Node1&#45;&gt;Node21</title>
<path fill="none" stroke="midnightblue" d="M763.872,-290.497C792.565,-281.041 834.921,-267.083 866.298,-256.743"/>
<polygon fill="midnightblue" stroke="midnightblue" points="867.666,-259.977 876.068,-253.523 865.475,-253.329 867.666,-259.977"/>
</g>
<!-- Node22 -->
<g id="node52" class="node"><title>Node22</title>
<a xlink:href="../../d8/dc0/_relative_controller_8h.html" target="_top" xlink:title="gaia/ui/RelativeController.h">
<polygon fill="white" stroke="black" points="602,-232.5 602,-253.5 736,-253.5 736,-232.5 602,-232.5"/>
<text text-anchor="middle" x="669" y="-240.5" font-family="Helvetica,sans-Serif" font-size="10.00">gaia/ui/RelativeController.h</text>
</a>
</g>
<!-- Node1&#45;&gt;Node22 -->
<g id="edge60" class="edge"><title>Node1&#45;&gt;Node22</title>
<path fill="none" stroke="midnightblue" d="M720.445,-290.362C711.387,-282.023 698.59,-270.242 688.026,-260.516"/>
<polygon fill="midnightblue" stroke="midnightblue" points="690.21,-257.769 680.482,-253.571 685.468,-262.919 690.21,-257.769"/>
</g>
<!-- Node3 -->
<g id="node5" class="node"><title>Node3</title>
<a xlink:href="../../d4/d7f/_vector_8h.html" target="_top" xlink:title="gaia/base/Vector.h">
<polygon fill="white" stroke="black" points="301,-116.5 301,-137.5 399,-137.5 399,-116.5 301,-116.5"/>
<text text-anchor="middle" x="350" y="-124.5" font-family="Helvetica,sans-Serif" font-size="10.00">gaia/base/Vector.h</text>
</a>
</g>
<!-- Node2&#45;&gt;Node3 -->
<g id="edge4" class="edge"><title>Node2&#45;&gt;Node3</title>
<path fill="none" stroke="midnightblue" d="M350,-174.362C350,-166.922 350,-156.743 350,-147.728"/>
<polygon fill="midnightblue" stroke="midnightblue" points="353.5,-147.571 350,-137.571 346.5,-147.571 353.5,-147.571"/>
</g>
<!-- Node7 -->
<g id="node13" class="node"><title>Node7</title>
<polygon fill="white" stroke="#bfbfbf" points="393,-0.5 393,-21.5 461,-21.5 461,-0.5 393,-0.5"/>
<text text-anchor="middle" x="427" y="-8.5" font-family="Helvetica,sans-Serif" font-size="10.00">sys/types.h</text>
</g>
<!-- Node2&#45;&gt;Node7 -->
<g id="edge32" class="edge"><title>Node2&#45;&gt;Node7</title>
<path fill="none" stroke="midnightblue" d="M369.389,-174.499C382.496,-166.334 398.998,-153.754 408,-138 427.163,-104.465 429.091,-58.1537 428.334,-31.7185"/>
<polygon fill="midnightblue" stroke="midnightblue" points="431.83,-31.5356 427.889,-21.7011 424.837,-31.8469 431.83,-31.5356"/>
</g>
<!-- Node10 -->
<g id="node21" class="node"><title>Node10</title>
<a xlink:href="../../d7/def/_component_name_8h.html" target="_top" xlink:title="gaia/core/ComponentName.h">
<polygon fill="white" stroke="black" points="139,-116.5 139,-137.5 283,-137.5 283,-116.5 139,-116.5"/>
<text text-anchor="middle" x="211" y="-124.5" font-family="Helvetica,sans-Serif" font-size="10.00">gaia/core/ComponentName.h</text>
</a>
</g>
<!-- Node2&#45;&gt;Node10 -->
<g id="edge22" class="edge"><title>Node2&#45;&gt;Node10</title>
<path fill="none" stroke="midnightblue" d="M324.828,-174.497C302.727,-165.275 270.361,-151.769 245.787,-141.515"/>
<polygon fill="midnightblue" stroke="midnightblue" points="247.031,-138.242 236.454,-137.621 244.335,-144.702 247.031,-138.242"/>
</g>
<!-- Node11 -->
<g id="node23" class="node"><title>Node11</title>
<a xlink:href="../../db/dbd/_export_8h.html" target="_top" xlink:title="gaia/core/Export.h">
<polygon fill="white" stroke="black" points="25,-116.5 25,-137.5 121,-137.5 121,-116.5 25,-116.5"/>
<text text-anchor="middle" x="73" y="-124.5" font-family="Helvetica,sans-Serif" font-size="10.00">gaia/core/Export.h</text>
</a>
</g>
<!-- Node2&#45;&gt;Node11 -->
<g id="edge24" class="edge"><title>Node2&#45;&gt;Node11</title>
<path fill="none" stroke="midnightblue" d="M304.879,-175.552C257.594,-165.651 183.129,-150.06 131.392,-139.226"/>
<polygon fill="midnightblue" stroke="midnightblue" points="131.867,-135.75 121.362,-137.126 130.433,-142.602 131.867,-135.75"/>
</g>
<!-- Node4 -->
<g id="node7" class="node"><title>Node4</title>
<a xlink:href="../../d1/d86/_type_helpers_8h.html" target="_top" xlink:title="gaia/base/TypeHelpers.h">
<polygon fill="white" stroke="black" points="704.5,-58.5 704.5,-79.5 829.5,-79.5 829.5,-58.5 704.5,-58.5"/>
<text text-anchor="middle" x="767" y="-66.5" font-family="Helvetica,sans-Serif" font-size="10.00">gaia/base/TypeHelpers.h</text>
</a>
</g>
<!-- Node3&#45;&gt;Node4 -->
<g id="edge6" class="edge"><title>Node3&#45;&gt;Node4</title>
<path fill="none" stroke="midnightblue" d="M399.031,-120.633C464.154,-112.112 583.041,-96.3298 694.244,-80.2384"/>
<polygon fill="midnightblue" stroke="midnightblue" points="694.896,-83.6805 704.29,-78.7807 693.891,-76.753 694.896,-83.6805"/>
</g>
<!-- Node3&#45;&gt;Node7 -->
<g id="edge20" class="edge"><title>Node3&#45;&gt;Node7</title>
<path fill="none" stroke="midnightblue" d="M357.106,-116.295C370.113,-96.6998 397.913,-54.8198 414.261,-30.1913"/>
<polygon fill="midnightblue" stroke="midnightblue" points="417.297,-31.9464 419.911,-21.6792 411.465,-28.0751 417.297,-31.9464"/>
</g>
<!-- Node9 -->
<g id="node17" class="node"><title>Node9</title>
<a xlink:href="../../dc/da9/_vector_impl_8h.html" target="_top" xlink:title="gaia/base/VectorImpl.h">
<polygon fill="white" stroke="black" points="244.5,-58.5 244.5,-79.5 361.5,-79.5 361.5,-58.5 244.5,-58.5"/>
<text text-anchor="middle" x="303" y="-66.5" font-family="Helvetica,sans-Serif" font-size="10.00">gaia/base/VectorImpl.h</text>
</a>
</g>
<!-- Node3&#45;&gt;Node9 -->
<g id="edge16" class="edge"><title>Node3&#45;&gt;Node9</title>
<path fill="none" stroke="midnightblue" d="M341.379,-116.362C334.82,-108.268 325.634,-96.9318 317.894,-87.3796"/>
<polygon fill="midnightblue" stroke="midnightblue" points="320.581,-85.1364 311.566,-79.5707 315.142,-89.5436 320.581,-85.1364"/>
</g>
<!-- Node5 -->
<g id="node9" class="node"><title>Node5</title>
<polygon fill="white" stroke="#bfbfbf" points="1020.5,-0.5 1020.5,-21.5 1069.5,-21.5 1069.5,-0.5 1020.5,-0.5"/>
<text text-anchor="middle" x="1045" y="-8.5" font-family="Helvetica,sans-Serif" font-size="10.00">stdint.h</text>
</g>
<!-- Node4&#45;&gt;Node5 -->
<g id="edge8" class="edge"><title>Node4&#45;&gt;Node5</title>
<path fill="none" stroke="midnightblue" d="M817.344,-58.4966C873.175,-46.8485 961.756,-28.3674 1010.32,-18.2346"/>
<polygon fill="midnightblue" stroke="midnightblue" points="1011.27,-21.6136 1020.34,-16.1449 1009.84,-14.7611 1011.27,-21.6136"/>
</g>
<!-- Node6 -->
<g id="node11" class="node"><title>Node6</title>
<polygon fill="white" stroke="#bfbfbf" points="712.5,-0.5 712.5,-21.5 761.5,-21.5 761.5,-0.5 712.5,-0.5"/>
<text text-anchor="middle" x="737" y="-8.5" font-family="Helvetica,sans-Serif" font-size="10.00">string.h</text>
</g>
<!-- Node4&#45;&gt;Node6 -->
<g id="edge10" class="edge"><title>Node4&#45;&gt;Node6</title>
<path fill="none" stroke="midnightblue" d="M761.498,-58.3619C757.48,-50.5949 751.919,-39.8426 747.11,-30.5458"/>
<polygon fill="midnightblue" stroke="midnightblue" points="750.171,-28.8448 742.468,-21.5707 743.953,-32.0608 750.171,-28.8448"/>
</g>
<!-- Node4&#45;&gt;Node7 -->
<g id="edge12" class="edge"><title>Node4&#45;&gt;Node7</title>
<path fill="none" stroke="midnightblue" d="M705.429,-58.4966C637.772,-46.9553 530.792,-28.7057 471.056,-18.5154"/>
<polygon fill="midnightblue" stroke="midnightblue" points="471.625,-15.0621 461.179,-16.8306 470.448,-21.9624 471.625,-15.0621"/>
</g>
<!-- Node8 -->
<g id="node15" class="node"><title>Node8</title>
<polygon fill="white" stroke="#bfbfbf" points="778.5,-0.5 778.5,-21.5 813.5,-21.5 813.5,-0.5 778.5,-0.5"/>
<text text-anchor="middle" x="796" y="-8.5" font-family="Helvetica,sans-Serif" font-size="10.00">new</text>
</g>
<!-- Node4&#45;&gt;Node8 -->
<g id="edge14" class="edge"><title>Node4&#45;&gt;Node8</title>
<path fill="none" stroke="midnightblue" d="M772.319,-58.3619C776.203,-50.5949 781.579,-39.8426 786.227,-30.5458"/>
<polygon fill="midnightblue" stroke="midnightblue" points="789.373,-32.0802 790.715,-21.5707 783.112,-28.9497 789.373,-32.0802"/>
</g>
<!-- Node9&#45;&gt;Node7 -->
<g id="edge18" class="edge"><title>Node9&#45;&gt;Node7</title>
<path fill="none" stroke="midnightblue" d="M325.455,-58.4966C344.91,-49.397 373.28,-36.1273 395.091,-25.9253"/>
<polygon fill="midnightblue" stroke="midnightblue" points="396.717,-29.0285 404.293,-21.6212 393.752,-22.6878 396.717,-29.0285"/>
</g>
<!-- Node12 -->
<g id="node25" class="node"><title>Node12</title>
<a xlink:href="../../de/d8c/_component_loader_8h.html" target="_top" xlink:title="gaia/core/ComponentLoader.h">
<polygon fill="white" stroke="black" points="-0.5,-58.5 -0.5,-79.5 146.5,-79.5 146.5,-58.5 -0.5,-58.5"/>
<text text-anchor="middle" x="73" y="-66.5" font-family="Helvetica,sans-Serif" font-size="10.00">gaia/core/ComponentLoader.h</text>
</a>
</g>
<!-- Node11&#45;&gt;Node12 -->
<g id="edge26" class="edge"><title>Node11&#45;&gt;Node12</title>
<path fill="none" stroke="midnightblue" d="M73,-116.362C73,-108.922 73,-98.7427 73,-89.7276"/>
<polygon fill="midnightblue" stroke="midnightblue" points="76.5001,-89.5706 73,-79.5707 69.5001,-89.5707 76.5001,-89.5706"/>
</g>
<!-- Node13 -->
<g id="node28" class="node"><title>Node13</title>
<polygon fill="white" stroke="#bfbfbf" points="163.5,-58.5 163.5,-79.5 214.5,-79.5 214.5,-58.5 163.5,-58.5"/>
<text text-anchor="middle" x="189" y="-66.5" font-family="Helvetica,sans-Serif" font-size="10.00">typeinfo</text>
</g>
<!-- Node11&#45;&gt;Node13 -->
<g id="edge30" class="edge"><title>Node11&#45;&gt;Node13</title>
<path fill="none" stroke="midnightblue" d="M94.0067,-116.497C112.043,-107.479 138.27,-94.3649 158.599,-84.2006"/>
<polygon fill="midnightblue" stroke="midnightblue" points="160.379,-87.2239 167.758,-79.6212 157.248,-80.9629 160.379,-87.2239"/>
</g>
<!-- Node12&#45;&gt;Node7 -->
<g id="edge28" class="edge"><title>Node12&#45;&gt;Node7</title>
<path fill="none" stroke="midnightblue" d="M137.107,-58.4966C208.114,-46.8627 320.724,-28.4125 382.617,-18.2717"/>
<polygon fill="midnightblue" stroke="midnightblue" points="383.53,-21.669 392.832,-16.5981 382.398,-14.7611 383.53,-21.669"/>
</g>
<!-- Node15 -->
<g id="node33" class="node"><title>Node15</title>
<a xlink:href="../../d8/d13/_text_widget_8h.html" target="_top" xlink:title="gaia/ui/TextWidget.h">
<polygon fill="white" stroke="black" points="771.5,-174.5 771.5,-195.5 878.5,-195.5 878.5,-174.5 771.5,-174.5"/>
<text text-anchor="middle" x="825" y="-182.5" font-family="Helvetica,sans-Serif" font-size="10.00">gaia/ui/TextWidget.h</text>
</a>
</g>
<!-- Node14&#45;&gt;Node15 -->
<g id="edge36" class="edge"><title>Node14&#45;&gt;Node15</title>
<path fill="none" stroke="midnightblue" d="M801.319,-232.362C805.203,-224.595 810.579,-213.843 815.227,-204.546"/>
<polygon fill="midnightblue" stroke="midnightblue" points="818.373,-206.08 819.715,-195.571 812.112,-202.95 818.373,-206.08"/>
</g>
<!-- Node16 -->
<g id="node35" class="node"><title>Node16</title>
<a xlink:href="../../d3/dd0/_event_control_8h.html" target="_top" xlink:title="gaia/core/event/EventControl.h">
<polygon fill="white" stroke="black" points="593,-116.5 593,-137.5 745,-137.5 745,-116.5 593,-116.5"/>
<text text-anchor="middle" x="669" y="-124.5" font-family="Helvetica,sans-Serif" font-size="10.00">gaia/core/event/EventControl.h</text>
</a>
</g>
<!-- Node15&#45;&gt;Node16 -->
<g id="edge38" class="edge"><title>Node15&#45;&gt;Node16</title>
<path fill="none" stroke="midnightblue" d="M796.75,-174.497C771.538,-165.123 734.424,-151.324 706.688,-141.012"/>
<polygon fill="midnightblue" stroke="midnightblue" points="707.896,-137.727 697.303,-137.523 705.457,-144.289 707.896,-137.727"/>
</g>
<!-- Node17 -->
<g id="node38" class="node"><title>Node17</title>
<a xlink:href="../../d4/d75/_widget_8h.html" target="_top" xlink:title="gaia/core/vision/Widget.h">
<polygon fill="white" stroke="black" points="762.5,-116.5 762.5,-137.5 889.5,-137.5 889.5,-116.5 762.5,-116.5"/>
<text text-anchor="middle" x="826" y="-124.5" font-family="Helvetica,sans-Serif" font-size="10.00">gaia/core/vision/Widget.h</text>
</a>
</g>
<!-- Node15&#45;&gt;Node17 -->
<g id="edge42" class="edge"><title>Node15&#45;&gt;Node17</title>
<path fill="none" stroke="midnightblue" d="M825.183,-174.362C825.312,-166.922 825.487,-156.743 825.643,-147.728"/>
<polygon fill="midnightblue" stroke="midnightblue" points="829.145,-147.63 825.818,-137.571 822.146,-147.509 829.145,-147.63"/>
</g>
<!-- Node16&#45;&gt;Node7 -->
<g id="edge40" class="edge"><title>Node16&#45;&gt;Node7</title>
<path fill="none" stroke="midnightblue" d="M592.668,-118.659C557.504,-112.146 516.475,-100.568 484,-80 464.433,-67.6075 448.327,-46.2526 438.286,-30.5741"/>
<polygon fill="midnightblue" stroke="midnightblue" points="441.046,-28.3791 432.841,-21.6764 435.075,-32.033 441.046,-28.3791"/>
</g>
<!-- Node18 -->
<g id="node40" class="node"><title>Node18</title>
<a xlink:href="../../d1/dd0/gmacros_8h.html" target="_top" xlink:title="gaia/base/gmacros.h">
<polygon fill="white" stroke="black" points="846.5,-58.5 846.5,-79.5 953.5,-79.5 953.5,-58.5 846.5,-58.5"/>
<text text-anchor="middle" x="900" y="-66.5" font-family="Helvetica,sans-Serif" font-size="10.00">gaia/base/gmacros.h</text>
</a>
</g>
<!-- Node17&#45;&gt;Node18 -->
<g id="edge44" class="edge"><title>Node17&#45;&gt;Node18</title>
<path fill="none" stroke="midnightblue" d="M839.573,-116.362C850.421,-107.859 865.834,-95.7785 878.379,-85.9466"/>
<polygon fill="midnightblue" stroke="midnightblue" points="880.802,-88.4942 886.513,-79.5707 876.484,-82.9848 880.802,-88.4942"/>
</g>
<!-- Node19 -->
<g id="node42" class="node"><title>Node19</title>
<a xlink:href="../../d0/d92/_property_animatable_8h.html" target="_top" xlink:title="gaia/core/animator/PropertyAnimatable.h">
<polygon fill="white" stroke="black" points="493,-58.5 493,-79.5 687,-79.5 687,-58.5 493,-58.5"/>
<text text-anchor="middle" x="590" y="-66.5" font-family="Helvetica,sans-Serif" font-size="10.00">gaia/core/animator/PropertyAnimatable.h</text>
</a>
</g>
<!-- Node17&#45;&gt;Node19 -->
<g id="edge46" class="edge"><title>Node17&#45;&gt;Node19</title>
<path fill="none" stroke="midnightblue" d="M783.262,-116.497C743.788,-106.795 685.03,-92.3547 642.671,-81.9445"/>
<polygon fill="midnightblue" stroke="midnightblue" points="643.364,-78.5109 632.818,-79.5231 641.694,-85.3086 643.364,-78.5109"/>
</g>
<!-- Node20 -->
<g id="node45" class="node"><title>Node20</title>
<a xlink:href="../../d8/d50/_widget_core_8h.html" target="_top" xlink:title="gaia/core/vision/WidgetCore.h">
<polygon fill="white" stroke="black" points="971,-58.5 971,-79.5 1119,-79.5 1119,-58.5 971,-58.5"/>
<text text-anchor="middle" x="1045" y="-66.5" font-family="Helvetica,sans-Serif" font-size="10.00">gaia/core/vision/WidgetCore.h</text>
</a>
</g>
<!-- Node17&#45;&gt;Node20 -->
<g id="edge50" class="edge"><title>Node17&#45;&gt;Node20</title>
<path fill="none" stroke="midnightblue" d="M865.659,-116.497C902.058,-106.857 956.126,-92.5373 995.375,-82.1427"/>
<polygon fill="midnightblue" stroke="midnightblue" points="996.496,-85.4666 1005.27,-79.5231 994.704,-78.6999 996.496,-85.4666"/>
</g>
<!-- Node19&#45;&gt;Node7 -->
<g id="edge48" class="edge"><title>Node19&#45;&gt;Node7</title>
<path fill="none" stroke="midnightblue" d="M560.482,-58.4966C534.024,-49.082 495.021,-35.2036 466,-24.8773"/>
<polygon fill="midnightblue" stroke="midnightblue" points="467.168,-21.578 456.573,-21.5231 464.821,-28.173 467.168,-21.578"/>
</g>
<!-- Node20&#45;&gt;Node5 -->
<g id="edge52" class="edge"><title>Node20&#45;&gt;Node5</title>
<path fill="none" stroke="midnightblue" d="M1045,-58.3619C1045,-50.9219 1045,-40.7427 1045,-31.7276"/>
<polygon fill="midnightblue" stroke="midnightblue" points="1048.5,-31.5706 1045,-21.5707 1041.5,-31.5707 1048.5,-31.5706"/>
</g>
<!-- Node21&#45;&gt;Node5 -->
<g id="edge58" class="edge"><title>Node21&#45;&gt;Node5</title>
<path fill="none" stroke="midnightblue" d="M935.448,-232.494C984.796,-211.913 1087.16,-161.089 1128,-80 1141.18,-53.8371 1107.31,-33.8971 1078.94,-22.3361"/>
<polygon fill="midnightblue" stroke="midnightblue" points="1080.2,-19.069 1069.61,-18.7397 1077.68,-25.601 1080.2,-19.069"/>
</g>
<!-- Node21&#45;&gt;Node15 -->
<g id="edge56" class="edge"><title>Node21&#45;&gt;Node15</title>
<path fill="none" stroke="midnightblue" d="M892.777,-232.362C880.375,-223.696 862.654,-211.313 848.443,-201.382"/>
<polygon fill="midnightblue" stroke="midnightblue" points="850.329,-198.43 840.127,-195.571 846.319,-204.168 850.329,-198.43"/>
</g>
<!-- Node23 -->
<g id="node54" class="node"><title>Node23</title>
<a xlink:href="../../d6/d52/_widget_controller_8h.html" target="_top" xlink:title="gaia/core/vision/WidgetController.h">
<polygon fill="white" stroke="black" points="584.5,-174.5 584.5,-195.5 753.5,-195.5 753.5,-174.5 584.5,-174.5"/>
<text text-anchor="middle" x="669" y="-182.5" font-family="Helvetica,sans-Serif" font-size="10.00">gaia/core/vision/WidgetController.h</text>
</a>
</g>
<!-- Node22&#45;&gt;Node23 -->
<g id="edge62" class="edge"><title>Node22&#45;&gt;Node23</title>
<path fill="none" stroke="midnightblue" d="M669,-232.362C669,-224.922 669,-214.743 669,-205.728"/>
<polygon fill="midnightblue" stroke="midnightblue" points="672.5,-205.571 669,-195.571 665.5,-205.571 672.5,-205.571"/>
</g>
<!-- Node23&#45;&gt;Node16 -->
<g id="edge64" class="edge"><title>Node23&#45;&gt;Node16</title>
<path fill="none" stroke="midnightblue" d="M669,-174.362C669,-166.922 669,-156.743 669,-147.728"/>
<polygon fill="midnightblue" stroke="midnightblue" points="672.5,-147.571 669,-137.571 665.5,-147.571 672.5,-147.571"/>
</g>
<!-- Node23&#45;&gt;Node17 -->
<g id="edge66" class="edge"><title>Node23&#45;&gt;Node17</title>
<path fill="none" stroke="midnightblue" d="M697.432,-174.497C722.805,-165.123 760.157,-151.324 788.07,-141.012"/>
<polygon fill="midnightblue" stroke="midnightblue" points="789.348,-144.272 797.515,-137.523 786.922,-137.705 789.348,-144.272"/>
</g>
</g>
</svg>
