<?xml version="1.0" encoding="UTF-8" standalone="no"?>
<!DOCTYPE svg PUBLIC "-//W3C//DTD SVG 1.1//EN"
 "http://www.w3.org/Graphics/SVG/1.1/DTD/svg11.dtd">
<!-- Generated by graphviz version 2.26.3 (20100126.1600)
 -->
<!-- Title: G Pages: 1 -->
<svg width="696pt" height="88pt"
 viewBox="0.00 0.00 696.00 88.00" xmlns="http://www.w3.org/2000/svg" xmlns:xlink="http://www.w3.org/1999/xlink">
<g id="graph1" class="graph" transform="scale(1 1) rotate(0) translate(4 84)">
<title>G</title>
<polygon fill="white" stroke="white" points="-4,5 -4,-84 693,-84 693,5 -4,5"/>
<!-- Node1 -->
<g id="node1" class="node"><title>Node1</title>
<polygon fill="#bfbfbf" stroke="black" points="178,-58.5 178,-79.5 518,-79.5 518,-58.5 178,-58.5"/>
<text text-anchor="middle" x="348" y="-66.5" font-family="Helvetica,sans-Serif" font-size="10.00">/home/vilon_tao/gaia/sdk/include/gaia/ui/preference/TwoStatePreference.h</text>
</g>
<!-- Node2 -->
<g id="node3" class="node"><title>Node2</title>
<a xlink:href="../../d5/d07/_check_box_preference_8h.html" target="_top" xlink:title="/home/vilon_tao/gaia/sdk/include/gaia/ui/preference/CheckBoxPreference.h">
<polygon fill="white" stroke="black" points="0,-0.5 0,-21.5 344,-21.5 344,-0.5 0,-0.5"/>
<text text-anchor="middle" x="172" y="-8.5" font-family="Helvetica,sans-Serif" font-size="10.00">/home/vilon_tao/gaia/sdk/include/gaia/ui/preference/CheckBoxPreference.h</text>
</a>
</g>
<!-- Node1&#45;&gt;Node2 -->
<g id="edge2" class="edge"><title>Node1&#45;&gt;Node2</title>
<path fill="none" stroke="midnightblue" d="M306.363,-55.2787C275.002,-44.9437 232.644,-30.9849 203.932,-21.5231"/>
<polygon fill="midnightblue" stroke="midnightblue" points="305.535,-58.6908 316.128,-58.4966 307.726,-52.0425 305.535,-58.6908"/>
</g>
<!-- Node3 -->
<g id="node5" class="node"><title>Node3</title>
<a xlink:href="../../d6/d67/_toggle_preference_8h.html" target="_top" xlink:title="/home/vilon_tao/gaia/sdk/include/gaia/ui/preference/TogglePreference.h">
<polygon fill="white" stroke="black" points="361.5,-0.5 361.5,-21.5 688.5,-21.5 688.5,-0.5 361.5,-0.5"/>
<text text-anchor="middle" x="525" y="-8.5" font-family="Helvetica,sans-Serif" font-size="10.00">/home/vilon_tao/gaia/sdk/include/gaia/ui/preference/TogglePreference.h</text>
</a>
</g>
<!-- Node1&#45;&gt;Node3 -->
<g id="edge4" class="edge"><title>Node1&#45;&gt;Node3</title>
<path fill="none" stroke="midnightblue" d="M389.874,-55.2787C421.413,-44.9437 464.012,-30.9849 492.887,-21.5231"/>
<polygon fill="midnightblue" stroke="midnightblue" points="388.466,-52.0567 380.053,-58.4966 390.646,-58.7086 388.466,-52.0567"/>
</g>
</g>
</svg>
