<?xml version="1.0" encoding="UTF-8" standalone="no"?>
<!DOCTYPE svg PUBLIC "-//W3C//DTD SVG 1.1//EN"
 "http://www.w3.org/Graphics/SVG/1.1/DTD/svg11.dtd">
<!-- Generated by graphviz version 2.26.3 (20100126.1600)
 -->
<!-- Title: G Pages: 1 -->
<svg width="164pt" height="146pt"
 viewBox="0.00 0.00 164.00 146.00" xmlns="http://www.w3.org/2000/svg" xmlns:xlink="http://www.w3.org/1999/xlink">
<g id="graph1" class="graph" transform="scale(1 1) rotate(0) translate(4 142)">
<title>G</title>
<polygon fill="white" stroke="white" points="-4,5 -4,-142 161,-142 161,5 -4,5"/>
<!-- Node1 -->
<g id="node1" class="node"><title>Node1</title>
<polygon fill="#bfbfbf" stroke="black" points="1,-0.5 1,-21.5 155,-21.5 155,-0.5 1,-0.5"/>
<text text-anchor="middle" x="78" y="-8.5" font-family="Helvetica,sans-Serif" font-size="10.00">gaia::graphics::StateListDrawer</text>
</g>
<!-- Node2 -->
<g id="node2" class="node"><title>Node2</title>
<a xlink:href="../../d0/da6/classgaia_1_1graphics_1_1_drawer_container.html" target="_top" xlink:title="A helper class that contains several Drawers and selects which one to use.">
<polygon fill="white" stroke="black" points="-0.5,-58.5 -0.5,-79.5 156.5,-79.5 156.5,-58.5 -0.5,-58.5"/>
<text text-anchor="middle" x="78" y="-66.5" font-family="Helvetica,sans-Serif" font-size="10.00">gaia::graphics::DrawerContainer</text>
</a>
</g>
<!-- Node2&#45;&gt;Node1 -->
<g id="edge2" class="edge"><title>Node2&#45;&gt;Node1</title>
<path fill="none" stroke="midnightblue" d="M78,-48.1906C78,-39.1684 78,-28.9941 78,-21.5707"/>
<polygon fill="midnightblue" stroke="midnightblue" points="74.5001,-48.3619 78,-58.3619 81.5001,-48.3619 74.5001,-48.3619"/>
</g>
<!-- Node3 -->
<g id="node4" class="node"><title>Node3</title>
<a xlink:href="../../df/d4b/classgaia_1_1graphics_1_1_drawer.html" target="_top" xlink:title="A Drawer is a general abstraction for &quot;an object used to draw something.&quot; Most often you will deal wi...">
<polygon fill="white" stroke="black" points="20.5,-116.5 20.5,-137.5 135.5,-137.5 135.5,-116.5 20.5,-116.5"/>
<text text-anchor="middle" x="78" y="-124.5" font-family="Helvetica,sans-Serif" font-size="10.00">gaia::graphics::Drawer</text>
</a>
</g>
<!-- Node3&#45;&gt;Node2 -->
<g id="edge4" class="edge"><title>Node3&#45;&gt;Node2</title>
<path fill="none" stroke="midnightblue" d="M78,-106.191C78,-97.1684 78,-86.9941 78,-79.5707"/>
<polygon fill="midnightblue" stroke="midnightblue" points="74.5001,-106.362 78,-116.362 81.5001,-106.362 74.5001,-106.362"/>
</g>
</g>
</svg>
