<?xml version="1.0" encoding="UTF-8" standalone="no"?>
<!DOCTYPE svg PUBLIC "-//W3C//DTD SVG 1.1//EN"
 "http://www.w3.org/Graphics/SVG/1.1/DTD/svg11.dtd">
<!-- Generated by graphviz version 2.26.3 (20100126.1600)
 -->
<!-- Title: G Pages: 1 -->
<svg width="236pt" height="128pt"
 viewBox="0.00 0.00 236.00 128.00" xmlns="http://www.w3.org/2000/svg" xmlns:xlink="http://www.w3.org/1999/xlink">
<g id="graph1" class="graph" transform="scale(1 1) rotate(0) translate(4 124)">
<title>G</title>
<polygon fill="white" stroke="white" points="-4,5 -4,-124 233,-124 233,5 -4,5"/>
<!-- Node1 -->
<g id="node1" class="node"><title>Node1</title>
<polygon fill="#bfbfbf" stroke="black" points="65.5,-0.5 65.5,-21.5 160.5,-21.5 160.5,-0.5 65.5,-0.5"/>
<text text-anchor="middle" x="113" y="-8.5" font-family="Helvetica,sans-Serif" font-size="10.00">gaia::media::Face</text>
</g>
<!-- Node2 -->
<g id="node2" class="node"><title>Node2</title>
<a xlink:href="../../d5/d65/classgaia_1_1graphics_1_1_rect.html" target="_top" xlink:title="Rect holds four integer coordinates for a rectangle.">
<polygon fill="white" stroke="black" points="0,-98.5 0,-119.5 104,-119.5 104,-98.5 0,-98.5"/>
<text text-anchor="middle" x="52" y="-106.5" font-family="Helvetica,sans-Serif" font-size="10.00">gaia::graphics::Rect</text>
</a>
</g>
<!-- Node2&#45;&gt;Node1 -->
<g id="edge2" class="edge"><title>Node2&#45;&gt;Node1</title>
<path fill="none" stroke="#9a32cd" stroke-dasharray="5,2" d="M64.0546,-89.6336C76.7478,-69.2412 96.2671,-37.8824 106.394,-21.6129"/>
<polygon fill="#9a32cd" stroke="#9a32cd" points="61.0742,-87.7986 58.7611,-98.1378 67.017,-91.4977 61.0742,-87.7986"/>
<text text-anchor="middle" x="110.5" y="-57.5" font-family="Helvetica,sans-Serif" font-size="10.00"> mRect</text>
</g>
<!-- Node3 -->
<g id="node4" class="node"><title>Node3</title>
<a xlink:href="../../db/d3f/classgaia_1_1graphics_1_1_point.html" target="_top" xlink:title="Point holds two integer coordinates.">
<polygon fill="white" stroke="black" points="122,-98.5 122,-119.5 228,-119.5 228,-98.5 122,-98.5"/>
<text text-anchor="middle" x="175" y="-106.5" font-family="Helvetica,sans-Serif" font-size="10.00">gaia::graphics::Point</text>
</a>
</g>
<!-- Node3&#45;&gt;Node1 -->
<g id="edge4" class="edge"><title>Node3&#45;&gt;Node1</title>
<path fill="none" stroke="#9a32cd" stroke-dasharray="5,2" d="M162.748,-89.6336C149.846,-69.2412 130.007,-37.8824 119.714,-21.6129"/>
<polygon fill="#9a32cd" stroke="#9a32cd" points="159.824,-91.5583 168.128,-98.1378 165.739,-87.8158 159.824,-91.5583"/>
<text text-anchor="middle" x="178.5" y="-70.5" font-family="Helvetica,sans-Serif" font-size="10.00"> mMouth</text>
<text text-anchor="middle" x="178.5" y="-57.5" font-family="Helvetica,sans-Serif" font-size="10.00">mRightEye</text>
<text text-anchor="middle" x="178.5" y="-44.5" font-family="Helvetica,sans-Serif" font-size="10.00">mLeftEye</text>
</g>
</g>
</svg>
