<?xml version="1.0" encoding="UTF-8" standalone="no"?>
<!DOCTYPE svg PUBLIC "-//W3C//DTD SVG 1.1//EN"
 "http://www.w3.org/Graphics/SVG/1.1/DTD/svg11.dtd">
<!-- Generated by graphviz version 2.26.3 (20100126.1600)
 -->
<!-- Title: G Pages: 1 -->
<svg width="1190pt" height="369pt"
 viewBox="0.00 0.00 1190.00 369.00" xmlns="http://www.w3.org/2000/svg" xmlns:xlink="http://www.w3.org/1999/xlink">
<g id="graph1" class="graph" transform="scale(1 1) rotate(0) translate(4 365)">
<title>G</title>
<polygon fill="white" stroke="white" points="-4,5 -4,-365 1187,-365 1187,5 -4,5"/>
<!-- Node1 -->
<g id="node1" class="node"><title>Node1</title>
<polygon fill="#bfbfbf" stroke="black" points="1064.5,-279.5 1064.5,-300.5 1181.5,-300.5 1181.5,-279.5 1064.5,-279.5"/>
<text text-anchor="middle" x="1123" y="-287.5" font-family="Helvetica,sans-Serif" font-size="10.00">gaia::webkit::WebView</text>
</g>
<!-- Node2 -->
<g id="node2" class="node"><title>Node2</title>
<a xlink:href="../../df/d55/classgaia_1_1ui_1_1_absolute_controller.html" target="_top" xlink:title="A layout that lets you specify exact locations (x/y coordinates) of its children.">
<polygon fill="white" stroke="black" points="764,-339.5 764,-360.5 898,-360.5 898,-339.5 764,-339.5"/>
<text text-anchor="middle" x="831" y="-347.5" font-family="Helvetica,sans-Serif" font-size="10.00">gaia::ui::AbsoluteController</text>
</a>
</g>
<!-- Node2&#45;&gt;Node1 -->
<g id="edge2" class="edge"><title>Node2&#45;&gt;Node1</title>
<path fill="none" stroke="midnightblue" d="M908.14,-338.348C949.271,-331.637 1000.62,-322.464 1046,-312 1060.22,-308.72 1075.73,-304.43 1089.08,-300.509"/>
<polygon fill="midnightblue" stroke="midnightblue" points="907.497,-334.907 898.183,-339.957 908.613,-341.817 907.497,-334.907"/>
</g>
<!-- Node3 -->
<g id="node4" class="node"><title>Node3</title>
<a xlink:href="../../db/d6c/classgaia_1_1core_1_1_widget_controller.html" target="_top" xlink:title="Define the default widget layout to put sets of layout in it.">
<polygon fill="white" stroke="black" points="475,-165.5 475,-186.5 613,-186.5 613,-165.5 475,-165.5"/>
<text text-anchor="middle" x="544" y="-173.5" font-family="Helvetica,sans-Serif" font-size="10.00">gaia::core::WidgetController</text>
</a>
</g>
<!-- Node3&#45;&gt;Node2 -->
<g id="edge4" class="edge"><title>Node3&#45;&gt;Node2</title>
<path fill="none" stroke="midnightblue" d="M561.876,-193.933C595.107,-226.215 669.954,-294.084 746,-330 754.088,-333.82 762.962,-336.941 771.832,-339.483"/>
<polygon fill="midnightblue" stroke="midnightblue" points="564.293,-191.401 554.707,-186.889 559.387,-196.394 564.293,-191.401"/>
</g>
<!-- Node6 -->
<g id="node10" class="node"><title>Node6</title>
<a xlink:href="../../d5/dfb/classgaia_1_1core_1_1_scene.html" target="_top" xlink:title="A Scene is used to build a visual interface.">
<polygon fill="white" stroke="black" points="784.5,-61.5 784.5,-82.5 877.5,-82.5 877.5,-61.5 784.5,-61.5"/>
<text text-anchor="middle" x="831" y="-69.5" font-family="Helvetica,sans-Serif" font-size="10.00">gaia::core::Scene</text>
</a>
</g>
<!-- Node3&#45;&gt;Node6 -->
<g id="edge12" class="edge"><title>Node3&#45;&gt;Node6</title>
<path fill="none" stroke="#9a32cd" stroke-dasharray="5,2" d="M623.335,-166.694C665.518,-160.311 711.925,-150.528 728,-137 744.481,-123.13 729.674,-106.052 746,-92 756.686,-82.8026 770.825,-77.6482 784.499,-74.8131"/>
<polygon fill="#9a32cd" stroke="#9a32cd" points="622.677,-163.253 613.289,-168.164 623.69,-170.18 622.677,-163.253"/>
<text text-anchor="middle" x="696" y="-163" font-family="Helvetica,sans-Serif" font-size="10.00"> mpController</text>
</g>
<!-- Node4 -->
<g id="node6" class="node"><title>Node4</title>
<a xlink:href="../../d8/dac/classgaia_1_1core_1_1_widget.html" target="_top" xlink:title="The Widget class is the base class of all user interface component.">
<polygon fill="white" stroke="black" points="1075,-127.5 1075,-148.5 1171,-148.5 1171,-127.5 1075,-127.5"/>
<text text-anchor="middle" x="1123" y="-135.5" font-family="Helvetica,sans-Serif" font-size="10.00">gaia::core::Widget</text>
</a>
</g>
<!-- Node4&#45;&gt;Node3 -->
<g id="edge6" class="edge"><title>Node4&#45;&gt;Node3</title>
<path fill="none" stroke="midnightblue" d="M1076.93,-151.142C1066.8,-153.701 1056.09,-156.157 1046,-158 893.51,-185.859 710.763,-183.709 613.292,-179.792"/>
<polygon fill="midnightblue" stroke="midnightblue" points="1078.02,-154.474 1086.82,-148.567 1076.26,-147.7 1078.02,-154.474"/>
</g>
<!-- Node5 -->
<g id="node8" class="node"><title>Node5</title>
<a xlink:href="../../d0/db2/classgaia_1_1core_1_1_property_animatable.html" target="_top" xlink:title="Any animation object need to implement PropertyAnimatable because of setting value.">
<polygon fill="white" stroke="black" points="755.5,-141.5 755.5,-162.5 906.5,-162.5 906.5,-141.5 755.5,-141.5"/>
<text text-anchor="middle" x="831" y="-149.5" font-family="Helvetica,sans-Serif" font-size="10.00">gaia::core::PropertyAnimatable</text>
</a>
</g>
<!-- Node5&#45;&gt;Node4 -->
<g id="edge8" class="edge"><title>Node5&#45;&gt;Node4</title>
<path fill="none" stroke="midnightblue" d="M916.707,-147.891C968.217,-145.421 1031.87,-142.369 1074.74,-140.314"/>
<polygon fill="midnightblue" stroke="midnightblue" points="916.398,-144.401 906.577,-148.376 916.733,-151.393 916.398,-144.401"/>
</g>
<!-- Node6&#45;&gt;Node3 -->
<g id="edge32" class="edge"><title>Node6&#45;&gt;Node3</title>
<path fill="none" stroke="#9a32cd" stroke-dasharray="5,2" d="M774.6,-84.4512C765.014,-86.8011 755.191,-89.3563 746,-92 708.99,-102.645 699.723,-105.614 664,-120 628.599,-134.256 588.652,-153.57 564.94,-165.388"/>
<polygon fill="#9a32cd" stroke="#9a32cd" points="775.56,-87.8202 784.466,-82.0816 773.925,-81.0137 775.56,-87.8202"/>
<text text-anchor="middle" x="696" y="-124" font-family="Helvetica,sans-Serif" font-size="10.00"> mpScene</text>
</g>
<!-- Node6&#45;&gt;Node4 -->
<g id="edge10" class="edge"><title>Node6&#45;&gt;Node4</title>
<path fill="none" stroke="#9a32cd" stroke-dasharray="5,2" d="M887.937,-73.3522C931.954,-75.7096 993.954,-81.9159 1046,-98 1068.31,-104.894 1091.83,-118.104 1106.92,-127.454"/>
<polygon fill="#9a32cd" stroke="#9a32cd" points="887.87,-69.8449 877.712,-72.8563 887.531,-76.8367 887.87,-69.8449"/>
<text text-anchor="middle" x="990" y="-102" font-family="Helvetica,sans-Serif" font-size="10.00"> mpScene</text>
</g>
<!-- Node11 -->
<g id="node22" class="node"><title>Node11</title>
<a xlink:href="../../db/d3f/classgaia_1_1core_1_1_page.html" target="_top" xlink:title="An page is a single, focused thing that the user can do.">
<polygon fill="white" stroke="black" points="1079,-23.5 1079,-44.5 1167,-44.5 1167,-23.5 1079,-23.5"/>
<text text-anchor="middle" x="1123" y="-31.5" font-family="Helvetica,sans-Serif" font-size="10.00">gaia::core::Page</text>
</a>
</g>
<!-- Node6&#45;&gt;Node11 -->
<g id="edge26" class="edge"><title>Node6&#45;&gt;Node11</title>
<path fill="none" stroke="#9a32cd" stroke-dasharray="5,2" d="M887.698,-60.6767C902.711,-57.9155 918.934,-55.1431 934,-53 983.464,-45.9637 1040.57,-40.6013 1078.96,-37.3958"/>
<polygon fill="#9a32cd" stroke="#9a32cd" points="886.713,-57.3002 877.526,-62.5787 887.999,-64.181 886.713,-57.3002"/>
<text text-anchor="middle" x="990" y="-57" font-family="Helvetica,sans-Serif" font-size="10.00"> mpScene</text>
</g>
<!-- Node7 -->
<g id="node13" class="node"><title>Node7</title>
<a xlink:href="../../de/dad/classgaia_1_1content_1_1_resources.html" target="_top" xlink:title="Class for accessing an application&#39;s resources.">
<polygon fill="white" stroke="black" points="481,-64.5 481,-85.5 607,-85.5 607,-64.5 481,-64.5"/>
<text text-anchor="middle" x="544" y="-72.5" font-family="Helvetica,sans-Serif" font-size="10.00">gaia::content::Resources</text>
</a>
</g>
<!-- Node7&#45;&gt;Node6 -->
<g id="edge14" class="edge"><title>Node7&#45;&gt;Node6</title>
<path fill="none" stroke="#9a32cd" stroke-dasharray="5,2" d="M617.611,-74.2305C670.136,-73.6815 739.19,-72.9597 784.312,-72.488"/>
<polygon fill="#9a32cd" stroke="#9a32cd" points="617.301,-70.7335 607.339,-74.3379 617.375,-77.7331 617.301,-70.7335"/>
<text text-anchor="middle" x="696" y="-77" font-family="Helvetica,sans-Serif" font-size="10.00"> mpResources</text>
</g>
<!-- Node8 -->
<g id="node15" class="node"><title>Node8</title>
<a xlink:href="../../df/d5d/classgaia_1_1base_1_1_vector.html" target="_top" xlink:title="gaia::base::Vector\&lt; gaia::ui::DialogBox * \&gt;">
<polygon fill="white" stroke="black" points="442.5,-24.5 442.5,-45.5 645.5,-45.5 645.5,-24.5 442.5,-24.5"/>
<text text-anchor="middle" x="544" y="-32.5" font-family="Helvetica,sans-Serif" font-size="10.00">gaia::base::Vector&lt; gaia::ui::DialogBox * &gt;</text>
</a>
</g>
<!-- Node8&#45;&gt;Node6 -->
<g id="edge16" class="edge"><title>Node8&#45;&gt;Node6</title>
<path fill="none" stroke="#9a32cd" stroke-dasharray="5,2" d="M653.036,-46.7063C677.711,-49.5606 703.775,-52.7374 728,-56 746.473,-58.4879 766.754,-61.5639 784.399,-64.352"/>
<polygon fill="#9a32cd" stroke="#9a32cd" points="653.259,-43.209 642.925,-45.5455 652.461,-50.1633 653.259,-43.209"/>
<text text-anchor="middle" x="696" y="-60" font-family="Helvetica,sans-Serif" font-size="10.00"> mDialogList</text>
</g>
<!-- Node9 -->
<g id="node17" class="node"><title>Node9</title>
<a xlink:href="../../d0/d21/classgaia_1_1base_1_1_vector_impl.html" target="_top" xlink:title="Implements vector data structure equipped with copy&#45;on&#45;write mechanism.">
<polygon fill="white" stroke="black" points="0.5,-23.5 0.5,-44.5 115.5,-44.5 115.5,-23.5 0.5,-23.5"/>
<text text-anchor="middle" x="58" y="-31.5" font-family="Helvetica,sans-Serif" font-size="10.00">gaia::base::VectorImpl</text>
</a>
</g>
<!-- Node9&#45;&gt;Node8 -->
<g id="edge18" class="edge"><title>Node9&#45;&gt;Node8</title>
<path fill="none" stroke="#8b1a1a" d="M125.792,-35.874C128.564,-35.9221 131.309,-35.9646 134,-36 262.878,-37.6955 295.112,-36.537 424,-36 429.938,-35.9753 436.041,-35.9436 442.198,-35.907"/>
<polygon fill="#8b1a1a" stroke="#8b1a1a" points="125.743,-32.3725 115.677,-35.6771 125.607,-39.3711 125.743,-32.3725"/>
</g>
<!-- Node10 -->
<g id="node19" class="node"><title>Node10</title>
<a xlink:href="../../df/d5d/classgaia_1_1base_1_1_vector.html" target="_top" xlink:title="This class implements the vector data structure.">
<polygon fill="white" stroke="black" points="154,-0.5 154,-21.5 294,-21.5 294,-0.5 154,-0.5"/>
<text text-anchor="middle" x="224" y="-8.5" font-family="Helvetica,sans-Serif" font-size="10.00">gaia::base::Vector&lt; TYPE &gt;</text>
</a>
</g>
<!-- Node9&#45;&gt;Node10 -->
<g id="edge22" class="edge"><title>Node9&#45;&gt;Node10</title>
<path fill="none" stroke="#8b1a1a" d="M125.596,-24.6344C134.933,-23.3406 144.54,-22.0096 153.921,-20.7098"/>
<polygon fill="#8b1a1a" stroke="#8b1a1a" points="125.018,-21.1809 115.593,-26.0203 125.979,-28.1146 125.018,-21.1809"/>
</g>
<!-- Node10&#45;&gt;Node8 -->
<g id="edge20" class="edge"><title>Node10&#45;&gt;Node8</title>
<path fill="none" stroke="orange" stroke-dasharray="5,2" d="M304.488,-15.0982C340.994,-17.145 384.699,-19.8572 424,-23 429.948,-23.4757 436.059,-23.9941 442.223,-24.54"/>
<polygon fill="orange" stroke="orange" points="304.571,-11.5975 294.392,-14.5388 304.183,-18.5868 304.571,-11.5975"/>
<text text-anchor="middle" x="368" y="-27" font-family="Helvetica,sans-Serif" font-size="10.00"> &lt; gaia::ui::DialogBox * &gt;</text>
</g>
<!-- Node11&#45;&gt;Node6 -->
<g id="edge24" class="edge"><title>Node11&#45;&gt;Node6</title>
<path fill="none" stroke="#9a32cd" stroke-dasharray="5,2" d="M1075.92,-21.1987C1037.27,-12.7196 981.38,-5.14225 934,-17 899.783,-25.5635 864.496,-47.8946 845.401,-61.3219"/>
<polygon fill="#9a32cd" stroke="#9a32cd" points="1075.32,-24.6522 1085.85,-23.4802 1076.89,-17.8299 1075.32,-24.6522"/>
<text text-anchor="middle" x="990" y="-21" font-family="Helvetica,sans-Serif" font-size="10.00"> mpPage</text>
</g>
<!-- Node12 -->
<g id="node25" class="node"><title>Node12</title>
<a xlink:href="../../db/d88/classgaia_1_1core_1_1_widget_tag.html" target="_top" xlink:title="gaia::core::WidgetTag">
<polygon fill="white" stroke="black" points="774.5,-101.5 774.5,-122.5 887.5,-122.5 887.5,-101.5 774.5,-101.5"/>
<text text-anchor="middle" x="831" y="-109.5" font-family="Helvetica,sans-Serif" font-size="10.00">gaia::core::WidgetTag</text>
</a>
</g>
<!-- Node12&#45;&gt;Node4 -->
<g id="edge28" class="edge"><title>Node12&#45;&gt;Node4</title>
<path fill="none" stroke="#9a32cd" stroke-dasharray="5,2" d="M897.979,-113.6C940.494,-115.144 996.612,-118.155 1046,-124 1055.31,-125.102 1065.2,-126.627 1074.67,-128.267"/>
<polygon fill="#9a32cd" stroke="#9a32cd" points="897.865,-110.094 887.751,-113.248 897.624,-117.09 897.865,-110.094"/>
<text text-anchor="middle" x="990" y="-128" font-family="Helvetica,sans-Serif" font-size="10.00"> mpTag</text>
</g>
<!-- Node13 -->
<g id="node27" class="node"><title>Node13</title>
<a xlink:href="../../dd/de0/classgaia_1_1core_1_1_event_control.html" target="_top" xlink:title="EventControl is used to dispatch event and register listener.">
<polygon fill="white" stroke="black" points="163,-165.5 163,-186.5 285,-186.5 285,-165.5 163,-165.5"/>
<text text-anchor="middle" x="224" y="-173.5" font-family="Helvetica,sans-Serif" font-size="10.00">gaia::core::EventControl</text>
</a>
</g>
<!-- Node13&#45;&gt;Node3 -->
<g id="edge30" class="edge"><title>Node13&#45;&gt;Node3</title>
<path fill="none" stroke="midnightblue" d="M295.422,-176C348.968,-176 421.839,-176 474.831,-176"/>
<polygon fill="midnightblue" stroke="midnightblue" points="295.321,-172.5 285.321,-176 295.321,-179.5 295.321,-172.5"/>
</g>
<!-- Node14 -->
<g id="node30" class="node"><title>Node14</title>
<a xlink:href="../../d2/d5f/classgaia_1_1core_1_1_i_focus_change_listener.html" target="_top" xlink:title="Interface definition for a callback to be invoked when the focus state of a widget changed...">
<polygon fill="white" stroke="black" points="749,-299.5 749,-320.5 913,-320.5 913,-299.5 749,-299.5"/>
<text text-anchor="middle" x="831" y="-307.5" font-family="Helvetica,sans-Serif" font-size="10.00">gaia::core::IFocusChangeListener</text>
</a>
</g>
<!-- Node14&#45;&gt;Node1 -->
<g id="edge34" class="edge"><title>Node14&#45;&gt;Node1</title>
<path fill="none" stroke="midnightblue" d="M923.127,-303.69C969.261,-300.53 1023.74,-296.798 1064.16,-294.03"/>
<polygon fill="midnightblue" stroke="midnightblue" points="922.853,-300.2 913.115,-304.376 923.331,-307.184 922.853,-300.2"/>
</g>
<!-- Node15 -->
<g id="node32" class="node"><title>Node15</title>
<a xlink:href="../../dc/d77/classgaia_1_1webkit_1_1_web_back_forward_list.html" target="_top" xlink:title="This class contains the back/forward list for a WebView.">
<polygon fill="white" stroke="black" points="746.5,-259.5 746.5,-280.5 915.5,-280.5 915.5,-259.5 746.5,-259.5"/>
<text text-anchor="middle" x="831" y="-267.5" font-family="Helvetica,sans-Serif" font-size="10.00">gaia::webkit::WebBackForwardList</text>
</a>
</g>
<!-- Node15&#45;&gt;Node1 -->
<g id="edge36" class="edge"><title>Node15&#45;&gt;Node1</title>
<path fill="none" stroke="#9a32cd" stroke-dasharray="5,2" d="M926.046,-271.136C963.492,-272.211 1006.83,-274.232 1046,-278 1051.93,-278.57 1058.09,-279.299 1064.23,-280.114"/>
<polygon fill="#9a32cd" stroke="#9a32cd" points="925.74,-267.627 915.65,-270.858 925.552,-274.624 925.74,-267.627"/>
<text text-anchor="middle" x="990" y="-282" font-family="Helvetica,sans-Serif" font-size="10.00"> mpWebBackForwardList</text>
</g>
<!-- Node16 -->
<g id="node34" class="node"><title>Node16</title>
<a xlink:href="../../d8/dac/classgaia_1_1webkit_1_1_web_settings.html" target="_top" xlink:title="Manages settings state for a WebView.">
<polygon fill="white" stroke="black" points="765.5,-219.5 765.5,-240.5 896.5,-240.5 896.5,-219.5 765.5,-219.5"/>
<text text-anchor="middle" x="831" y="-227.5" font-family="Helvetica,sans-Serif" font-size="10.00">gaia::webkit::WebSettings</text>
</a>
</g>
<!-- Node16&#45;&gt;Node1 -->
<g id="edge38" class="edge"><title>Node16&#45;&gt;Node1</title>
<path fill="none" stroke="#9a32cd" stroke-dasharray="5,2" d="M906.597,-232.421C948.338,-235.248 1000.74,-241.267 1046,-254 1067.02,-259.915 1089.47,-271.023 1104.68,-279.343"/>
<polygon fill="#9a32cd" stroke="#9a32cd" points="906.7,-228.921 896.5,-231.785 906.26,-235.907 906.7,-228.921"/>
<text text-anchor="middle" x="990" y="-258" font-family="Helvetica,sans-Serif" font-size="10.00"> mpcWebSettings</text>
</g>
</g>
</svg>
