<?xml version="1.0" encoding="UTF-8" standalone="no"?>
<!DOCTYPE svg PUBLIC "-//W3C//DTD SVG 1.1//EN"
 "http://www.w3.org/Graphics/SVG/1.1/DTD/svg11.dtd">
<!-- Generated by graphviz version 2.26.3 (20100126.1600)
 -->
<!-- Title: G Pages: 1 -->
<svg width="294pt" height="204pt"
 viewBox="0.00 0.00 294.00 204.00" xmlns="http://www.w3.org/2000/svg" xmlns:xlink="http://www.w3.org/1999/xlink">
<g id="graph1" class="graph" transform="scale(1 1) rotate(0) translate(4 200)">
<title>G</title>
<polygon fill="white" stroke="white" points="-4,5 -4,-200 291,-200 291,5 -4,5"/>
<!-- Node1 -->
<g id="node1" class="node"><title>Node1</title>
<polygon fill="#bfbfbf" stroke="black" points="0,-174.5 0,-195.5 286,-195.5 286,-174.5 0,-174.5"/>
<text text-anchor="middle" x="143" y="-182.5" font-family="Helvetica,sans-Serif" font-size="10.00">/home/vilon_tao/gaia/sdk/include/gaia/telephony/Connection.h</text>
</g>
<!-- Node2 -->
<g id="node3" class="node"><title>Node2</title>
<a xlink:href="../../d9/d28/_enum_base_8h.html" target="_top" xlink:title="gaia/base/EnumBase.h">
<polygon fill="white" stroke="black" points="10,-58.5 10,-79.5 128,-79.5 128,-58.5 10,-58.5"/>
<text text-anchor="middle" x="69" y="-66.5" font-family="Helvetica,sans-Serif" font-size="10.00">gaia/base/EnumBase.h</text>
</a>
</g>
<!-- Node1&#45;&gt;Node2 -->
<g id="edge2" class="edge"><title>Node1&#45;&gt;Node2</title>
<path fill="none" stroke="midnightblue" d="M121.089,-174.344C107.038,-166.332 89.6752,-153.997 80,-138 71.2816,-123.585 68.7852,-104.504 68.3258,-90.0619"/>
<polygon fill="midnightblue" stroke="midnightblue" points="71.8255,-89.6475 68.3142,-79.6515 64.8255,-89.6554 71.8255,-89.6475"/>
</g>
<!-- Node4 -->
<g id="node7" class="node"><title>Node4</title>
<a xlink:href="../../d1/dd0/gmacros_8h.html" target="_top" xlink:title="gaia/base/gmacros.h">
<polygon fill="white" stroke="black" points="162.5,-58.5 162.5,-79.5 269.5,-79.5 269.5,-58.5 162.5,-58.5"/>
<text text-anchor="middle" x="216" y="-66.5" font-family="Helvetica,sans-Serif" font-size="10.00">gaia/base/gmacros.h</text>
</a>
</g>
<!-- Node1&#45;&gt;Node4 -->
<g id="edge6" class="edge"><title>Node1&#45;&gt;Node4</title>
<path fill="none" stroke="midnightblue" d="M164.985,-174.388C179.068,-166.396 196.438,-154.065 206,-138 214.598,-123.555 216.81,-104.477 217.035,-90.0429"/>
<polygon fill="midnightblue" stroke="midnightblue" points="220.528,-89.5845 216.873,-79.6402 213.529,-89.6935 220.528,-89.5845"/>
</g>
<!-- Node5 -->
<g id="node9" class="node"><title>Node5</title>
<a xlink:href="../../dc/dd0/_call_8h.html" target="_top" xlink:title="gaia/telephony/Call.h">
<polygon fill="white" stroke="black" points="89,-116.5 89,-137.5 197,-137.5 197,-116.5 89,-116.5"/>
<text text-anchor="middle" x="143" y="-124.5" font-family="Helvetica,sans-Serif" font-size="10.00">gaia/telephony/Call.h</text>
</a>
</g>
<!-- Node1&#45;&gt;Node5 -->
<g id="edge8" class="edge"><title>Node1&#45;&gt;Node5</title>
<path fill="none" stroke="midnightblue" d="M143,-174.362C143,-166.922 143,-156.743 143,-147.728"/>
<polygon fill="midnightblue" stroke="midnightblue" points="146.5,-147.571 143,-137.571 139.5,-147.571 146.5,-147.571"/>
</g>
<!-- Node3 -->
<g id="node5" class="node"><title>Node3</title>
<polygon fill="white" stroke="#bfbfbf" points="46,-0.5 46,-21.5 92,-21.5 92,-0.5 46,-0.5"/>
<text text-anchor="middle" x="69" y="-8.5" font-family="Helvetica,sans-Serif" font-size="10.00">cstdint</text>
</g>
<!-- Node2&#45;&gt;Node3 -->
<g id="edge4" class="edge"><title>Node2&#45;&gt;Node3</title>
<path fill="none" stroke="midnightblue" d="M69,-58.3619C69,-50.9219 69,-40.7427 69,-31.7276"/>
<polygon fill="midnightblue" stroke="midnightblue" points="72.5001,-31.5706 69,-21.5707 65.5001,-31.5707 72.5001,-31.5706"/>
</g>
<!-- Node5&#45;&gt;Node2 -->
<g id="edge10" class="edge"><title>Node5&#45;&gt;Node2</title>
<path fill="none" stroke="midnightblue" d="M129.427,-116.362C118.579,-107.859 103.166,-95.7785 90.6215,-85.9466"/>
<polygon fill="midnightblue" stroke="midnightblue" points="92.5164,-82.9848 82.4867,-79.5707 88.1982,-88.4942 92.5164,-82.9848"/>
</g>
<!-- Node5&#45;&gt;Node4 -->
<g id="edge12" class="edge"><title>Node5&#45;&gt;Node4</title>
<path fill="none" stroke="midnightblue" d="M156.389,-116.362C167.091,-107.859 182.296,-95.7785 194.671,-85.9466"/>
<polygon fill="midnightblue" stroke="midnightblue" points="197.043,-88.5318 202.696,-79.5707 192.689,-83.0511 197.043,-88.5318"/>
</g>
</g>
</svg>
