<?xml version="1.0" encoding="UTF-8" standalone="no"?>
<!DOCTYPE svg PUBLIC "-//W3C//DTD SVG 1.1//EN"
 "http://www.w3.org/Graphics/SVG/1.1/DTD/svg11.dtd">
<!-- Generated by graphviz version 2.26.3 (20100126.1600)
 -->
<!-- Title: G Pages: 1 -->
<svg width="422pt" height="204pt"
 viewBox="0.00 0.00 422.00 204.00" xmlns="http://www.w3.org/2000/svg" xmlns:xlink="http://www.w3.org/1999/xlink">
<g id="graph1" class="graph" transform="scale(1 1) rotate(0) translate(4 200)">
<title>G</title>
<polygon fill="white" stroke="white" points="-4,5 -4,-200 419,-200 419,5 -4,5"/>
<!-- Node1 -->
<g id="node1" class="node"><title>Node1</title>
<polygon fill="#bfbfbf" stroke="black" points="0,-174.5 0,-195.5 316,-195.5 316,-174.5 0,-174.5"/>
<text text-anchor="middle" x="158" y="-182.5" font-family="Helvetica,sans-Serif" font-size="10.00">/home/vilon_tao/gaia/sdk/include/gaia/telephony/mms/ReadRecInd.h</text>
</g>
<!-- Node2 -->
<g id="node3" class="node"><title>Node2</title>
<a xlink:href="../../d1/dd0/gmacros_8h.html" target="_top" xlink:title="gaia/base/gmacros.h">
<polygon fill="white" stroke="black" points="98.5,-0.5 98.5,-21.5 205.5,-21.5 205.5,-0.5 98.5,-0.5"/>
<text text-anchor="middle" x="152" y="-8.5" font-family="Helvetica,sans-Serif" font-size="10.00">gaia/base/gmacros.h</text>
</a>
</g>
<!-- Node1&#45;&gt;Node2 -->
<g id="edge2" class="edge"><title>Node1&#45;&gt;Node2</title>
<path fill="none" stroke="midnightblue" d="M146.44,-174.296C137.849,-165.501 126.817,-152.212 122,-138 109.415,-100.874 127.548,-55.9158 140.623,-30.6739"/>
<polygon fill="midnightblue" stroke="midnightblue" points="143.785,-32.1869 145.479,-21.7285 137.633,-28.8472 143.785,-32.1869"/>
</g>
<!-- Node3 -->
<g id="node5" class="node"><title>Node3</title>
<a xlink:href="../../d9/d1b/_generic_pdu_8h.html" target="_top" xlink:title="gaia/telephony/mms/GenericPdu.h">
<polygon fill="white" stroke="black" points="130.5,-116.5 130.5,-137.5 297.5,-137.5 297.5,-116.5 130.5,-116.5"/>
<text text-anchor="middle" x="214" y="-124.5" font-family="Helvetica,sans-Serif" font-size="10.00">gaia/telephony/mms/GenericPdu.h</text>
</a>
</g>
<!-- Node1&#45;&gt;Node3 -->
<g id="edge4" class="edge"><title>Node1&#45;&gt;Node3</title>
<path fill="none" stroke="midnightblue" d="M168.271,-174.362C176.244,-166.104 187.475,-154.472 196.811,-144.803"/>
<polygon fill="midnightblue" stroke="midnightblue" points="199.366,-147.196 203.794,-137.571 194.33,-142.334 199.366,-147.196"/>
</g>
<!-- Node3&#45;&gt;Node2 -->
<g id="edge8" class="edge"><title>Node3&#45;&gt;Node2</title>
<path fill="none" stroke="midnightblue" d="M201.331,-116.252C191.698,-107.432 178.81,-94.1325 171,-80 162.749,-65.069 157.883,-46.3066 155.145,-32.1173"/>
<polygon fill="midnightblue" stroke="midnightblue" points="158.528,-31.1391 153.381,-21.8786 151.63,-32.3277 158.528,-31.1391"/>
</g>
<!-- Node4 -->
<g id="node7" class="node"><title>Node4</title>
<polygon fill="white" stroke="#bfbfbf" points="180,-58.5 180,-79.5 226,-79.5 226,-58.5 180,-58.5"/>
<text text-anchor="middle" x="203" y="-66.5" font-family="Helvetica,sans-Serif" font-size="10.00">cstdint</text>
</g>
<!-- Node3&#45;&gt;Node4 -->
<g id="edge6" class="edge"><title>Node3&#45;&gt;Node4</title>
<path fill="none" stroke="midnightblue" d="M211.982,-116.362C210.556,-108.84 208.598,-98.5187 206.875,-89.4308"/>
<polygon fill="midnightblue" stroke="midnightblue" points="210.307,-88.7433 205.005,-79.5707 203.429,-90.0477 210.307,-88.7433"/>
</g>
<!-- Node5 -->
<g id="node10" class="node"><title>Node5</title>
<a xlink:href="../../d5/d48/_pdu_headers_8h.html" target="_top" xlink:title="gaia/telephony/mms/PduHeaders.h">
<polygon fill="white" stroke="black" points="244,-58.5 244,-79.5 414,-79.5 414,-58.5 244,-58.5"/>
<text text-anchor="middle" x="329" y="-66.5" font-family="Helvetica,sans-Serif" font-size="10.00">gaia/telephony/mms/PduHeaders.h</text>
</a>
</g>
<!-- Node3&#45;&gt;Node5 -->
<g id="edge10" class="edge"><title>Node3&#45;&gt;Node5</title>
<path fill="none" stroke="midnightblue" d="M234.826,-116.497C252.706,-107.479 278.707,-94.3649 298.861,-84.2006"/>
<polygon fill="midnightblue" stroke="midnightblue" points="300.588,-87.2495 307.941,-79.6212 297.436,-80.9994 300.588,-87.2495"/>
</g>
<!-- Node5&#45;&gt;Node2 -->
<g id="edge12" class="edge"><title>Node5&#45;&gt;Node2</title>
<path fill="none" stroke="midnightblue" d="M296.947,-58.4966C268.091,-49.0411 225.494,-35.0829 193.939,-24.7428"/>
<polygon fill="midnightblue" stroke="midnightblue" points="194.706,-21.3111 184.113,-21.5231 192.526,-27.963 194.706,-21.3111"/>
</g>
</g>
</svg>
