<?xml version="1.0" encoding="UTF-8" standalone="no"?>
<!DOCTYPE svg PUBLIC "-//W3C//DTD SVG 1.1//EN"
 "http://www.w3.org/Graphics/SVG/1.1/DTD/svg11.dtd">
<!-- Generated by graphviz version 2.26.3 (20100126.1600)
 -->
<!-- Title: G Pages: 1 -->
<svg width="300pt" height="146pt"
 viewBox="0.00 0.00 300.00 146.00" xmlns="http://www.w3.org/2000/svg" xmlns:xlink="http://www.w3.org/1999/xlink">
<g id="graph1" class="graph" transform="scale(1 1) rotate(0) translate(4 142)">
<title>G</title>
<polygon fill="white" stroke="white" points="-4,5 -4,-142 297,-142 297,5 -4,5"/>
<!-- Node1 -->
<g id="node1" class="node"><title>Node1</title>
<polygon fill="#bfbfbf" stroke="black" points="-0.5,-116.5 -0.5,-137.5 292.5,-137.5 292.5,-116.5 -0.5,-116.5"/>
<text text-anchor="middle" x="146" y="-124.5" font-family="Helvetica,sans-Serif" font-size="10.00">/home/vilon_tao/gaia/sdk/include/gaia/media/AudioStreamOut.h</text>
</g>
<!-- Node2 -->
<g id="node3" class="node"><title>Node2</title>
<polygon fill="white" stroke="#bfbfbf" points="51.5,-0.5 51.5,-21.5 100.5,-21.5 100.5,-0.5 51.5,-0.5"/>
<text text-anchor="middle" x="76" y="-8.5" font-family="Helvetica,sans-Serif" font-size="10.00">stdint.h</text>
</g>
<!-- Node1&#45;&gt;Node2 -->
<g id="edge2" class="edge"><title>Node1&#45;&gt;Node2</title>
<path fill="none" stroke="midnightblue" d="M116.415,-116.479C100.171,-109.006 81.4552,-97.2064 72,-80 63.8953,-65.2512 65.8715,-45.9529 69.3155,-31.5168"/>
<polygon fill="midnightblue" stroke="midnightblue" points="72.7714,-32.1541 72.0926,-21.581 66.0298,-30.2697 72.7714,-32.1541"/>
</g>
<!-- Node3 -->
<g id="node5" class="node"><title>Node3</title>
<a xlink:href="../../d1/dd0/gmacros_8h.html" target="_top" xlink:title="gaia/base/gmacros.h">
<polygon fill="white" stroke="black" points="162.5,-0.5 162.5,-21.5 269.5,-21.5 269.5,-0.5 162.5,-0.5"/>
<text text-anchor="middle" x="216" y="-8.5" font-family="Helvetica,sans-Serif" font-size="10.00">gaia/base/gmacros.h</text>
</a>
</g>
<!-- Node1&#45;&gt;Node3 -->
<g id="edge4" class="edge"><title>Node1&#45;&gt;Node3</title>
<path fill="none" stroke="midnightblue" d="M175.585,-116.479C191.829,-109.006 210.545,-97.2064 220,-80 228.105,-65.2512 226.129,-45.9529 222.685,-31.5168"/>
<polygon fill="midnightblue" stroke="midnightblue" points="225.97,-30.2697 219.907,-21.581 219.229,-32.1541 225.97,-30.2697"/>
</g>
<!-- Node4 -->
<g id="node7" class="node"><title>Node4</title>
<a xlink:href="../../d9/d66/_audio_control_8h.html" target="_top" xlink:title="gaia/media/AudioControl.h">
<polygon fill="white" stroke="black" points="80.5,-58.5 80.5,-79.5 211.5,-79.5 211.5,-58.5 80.5,-58.5"/>
<text text-anchor="middle" x="146" y="-66.5" font-family="Helvetica,sans-Serif" font-size="10.00">gaia/media/AudioControl.h</text>
</a>
</g>
<!-- Node1&#45;&gt;Node4 -->
<g id="edge6" class="edge"><title>Node1&#45;&gt;Node4</title>
<path fill="none" stroke="midnightblue" d="M146,-116.362C146,-108.922 146,-98.7427 146,-89.7276"/>
<polygon fill="midnightblue" stroke="midnightblue" points="149.5,-89.5706 146,-79.5707 142.5,-89.5707 149.5,-89.5706"/>
</g>
<!-- Node4&#45;&gt;Node2 -->
<g id="edge8" class="edge"><title>Node4&#45;&gt;Node2</title>
<path fill="none" stroke="midnightblue" d="M133.161,-58.3619C122.998,-49.9408 108.599,-38.0105 96.7958,-28.2308"/>
<polygon fill="midnightblue" stroke="midnightblue" points="98.691,-25.2558 88.7577,-21.5707 94.2248,-30.6459 98.691,-25.2558"/>
</g>
<!-- Node4&#45;&gt;Node3 -->
<g id="edge10" class="edge"><title>Node4&#45;&gt;Node3</title>
<path fill="none" stroke="midnightblue" d="M158.839,-58.3619C169.002,-49.9408 183.401,-38.0105 195.204,-28.2308"/>
<polygon fill="midnightblue" stroke="midnightblue" points="197.775,-30.6459 203.242,-21.5707 193.309,-25.2558 197.775,-30.6459"/>
</g>
</g>
</svg>
