<?xml version="1.0" encoding="UTF-8" standalone="no"?>
<!DOCTYPE svg PUBLIC "-//W3C//DTD SVG 1.1//EN"
 "http://www.w3.org/Graphics/SVG/1.1/DTD/svg11.dtd">
<!-- Generated by graphviz version 2.26.3 (20100126.1600)
 -->
<!-- Title: G Pages: 1 -->
<svg width="284pt" height="204pt"
 viewBox="0.00 0.00 284.00 204.00" xmlns="http://www.w3.org/2000/svg" xmlns:xlink="http://www.w3.org/1999/xlink">
<g id="graph1" class="graph" transform="scale(1 1) rotate(0) translate(4 200)">
<title>G</title>
<polygon fill="white" stroke="white" points="-4,5 -4,-200 281,-200 281,5 -4,5"/>
<!-- Node1 -->
<g id="node1" class="node"><title>Node1</title>
<polygon fill="#bfbfbf" stroke="black" points="0,-174.5 0,-195.5 276,-195.5 276,-174.5 0,-174.5"/>
<text text-anchor="middle" x="138" y="-182.5" font-family="Helvetica,sans-Serif" font-size="10.00">/home/vilon_tao/gaia/sdk/include/gaia/net/HttpConnection.h</text>
</g>
<!-- Node2 -->
<g id="node3" class="node"><title>Node2</title>
<a xlink:href="../../df/d29/_http_types_8h.html" target="_top" xlink:title="gaia/net/HttpTypes.h">
<polygon fill="white" stroke="black" points="38,-116.5 38,-137.5 146,-137.5 146,-116.5 38,-116.5"/>
<text text-anchor="middle" x="92" y="-124.5" font-family="Helvetica,sans-Serif" font-size="10.00">gaia/net/HttpTypes.h</text>
</a>
</g>
<!-- Node1&#45;&gt;Node2 -->
<g id="edge2" class="edge"><title>Node1&#45;&gt;Node2</title>
<path fill="none" stroke="midnightblue" d="M129.563,-174.362C123.208,-166.35 114.334,-155.161 106.807,-145.67"/>
<polygon fill="midnightblue" stroke="midnightblue" points="109.34,-143.231 100.384,-137.571 103.855,-147.581 109.34,-143.231"/>
</g>
<!-- Node5 -->
<g id="node9" class="node"><title>Node5</title>
<polygon fill="white" stroke="#bfbfbf" points="163.5,-116.5 163.5,-137.5 204.5,-137.5 204.5,-116.5 163.5,-116.5"/>
<text text-anchor="middle" x="184" y="-124.5" font-family="Helvetica,sans-Serif" font-size="10.00">string</text>
</g>
<!-- Node1&#45;&gt;Node5 -->
<g id="edge8" class="edge"><title>Node1&#45;&gt;Node5</title>
<path fill="none" stroke="midnightblue" d="M146.437,-174.362C152.792,-166.35 161.666,-155.161 169.193,-145.67"/>
<polygon fill="midnightblue" stroke="midnightblue" points="172.145,-147.581 175.616,-137.571 166.66,-143.231 172.145,-147.581"/>
</g>
<!-- Node3 -->
<g id="node5" class="node"><title>Node3</title>
<a xlink:href="../../d1/d88/_net_types_8h.html" target="_top" xlink:title="gaia/net/NetTypes.h">
<polygon fill="white" stroke="black" points="39.5,-58.5 39.5,-79.5 144.5,-79.5 144.5,-58.5 39.5,-58.5"/>
<text text-anchor="middle" x="92" y="-66.5" font-family="Helvetica,sans-Serif" font-size="10.00">gaia/net/NetTypes.h</text>
</a>
</g>
<!-- Node2&#45;&gt;Node3 -->
<g id="edge4" class="edge"><title>Node2&#45;&gt;Node3</title>
<path fill="none" stroke="midnightblue" d="M92,-116.362C92,-108.922 92,-98.7427 92,-89.7276"/>
<polygon fill="midnightblue" stroke="midnightblue" points="95.5001,-89.5706 92,-79.5707 88.5001,-89.5707 95.5001,-89.5706"/>
</g>
<!-- Node4 -->
<g id="node7" class="node"><title>Node4</title>
<polygon fill="white" stroke="#bfbfbf" points="58,-0.5 58,-21.5 126,-21.5 126,-0.5 58,-0.5"/>
<text text-anchor="middle" x="92" y="-8.5" font-family="Helvetica,sans-Serif" font-size="10.00">sys/types.h</text>
</g>
<!-- Node3&#45;&gt;Node4 -->
<g id="edge6" class="edge"><title>Node3&#45;&gt;Node4</title>
<path fill="none" stroke="midnightblue" d="M92,-58.3619C92,-50.9219 92,-40.7427 92,-31.7276"/>
<polygon fill="midnightblue" stroke="midnightblue" points="95.5001,-31.5706 92,-21.5707 88.5001,-31.5707 95.5001,-31.5706"/>
</g>
</g>
</svg>
