<?xml version="1.0" encoding="UTF-8" standalone="no"?>
<!DOCTYPE svg PUBLIC "-//W3C//DTD SVG 1.1//EN"
 "http://www.w3.org/Graphics/SVG/1.1/DTD/svg11.dtd">
<!-- Generated by graphviz version 2.26.3 (20100126.1600)
 -->
<!-- Title: G Pages: 1 -->
<svg width="624pt" height="110pt"
 viewBox="0.00 0.00 624.00 110.00" xmlns="http://www.w3.org/2000/svg" xmlns:xlink="http://www.w3.org/1999/xlink">
<g id="graph1" class="graph" transform="scale(1 1) rotate(0) translate(4 106)">
<title>G</title>
<polygon fill="white" stroke="white" points="-4,5 -4,-106 621,-106 621,5 -4,5"/>
<!-- Node1 -->
<g id="node1" class="node"><title>Node1</title>
<polygon fill="#bfbfbf" stroke="black" points="496.5,-40.5 496.5,-61.5 615.5,-61.5 615.5,-40.5 496.5,-40.5"/>
<text text-anchor="middle" x="556" y="-48.5" font-family="Helvetica,sans-Serif" font-size="10.00">gaia::net::ServerSocket</text>
</g>
<!-- Node2 -->
<g id="node2" class="node"><title>Node2</title>
<a xlink:href="../../d5/d35/classgaia_1_1net_1_1_i_server_socket_listener.html" target="_top" xlink:title="Implement this interface to handle accept and error event issued by a ServerSocket.">
<polygon fill="white" stroke="black" points="190.5,-80.5 190.5,-101.5 347.5,-101.5 347.5,-80.5 190.5,-80.5"/>
<text text-anchor="middle" x="269" y="-88.5" font-family="Helvetica,sans-Serif" font-size="10.00">gaia::net::IServerSocketListener</text>
</a>
</g>
<!-- Node2&#45;&gt;Node1 -->
<g id="edge2" class="edge"><title>Node2&#45;&gt;Node1</title>
<path fill="none" stroke="#9a32cd" stroke-dasharray="5,2" d="M357.986,-83.2869C395.196,-79.5232 438.814,-74.4083 478,-68 488.942,-66.2106 500.663,-63.8794 511.607,-61.5198"/>
<polygon fill="#9a32cd" stroke="#9a32cd" points="357.275,-79.8403 347.67,-84.3126 357.968,-86.8059 357.275,-79.8403"/>
<text text-anchor="middle" x="422" y="-86" font-family="Helvetica,sans-Serif" font-size="10.00"> mpServerSocketListener</text>
</g>
<!-- Node3 -->
<g id="node4" class="node"><title>Node3</title>
<a xlink:href="../../df/d12/classgaia_1_1net_1_1_i_client_socket_listener.html" target="_top" xlink:title="IClientSocketListener handles Socket callback.">
<polygon fill="white" stroke="black" points="192,-40.5 192,-61.5 346,-61.5 346,-40.5 192,-40.5"/>
<text text-anchor="middle" x="269" y="-48.5" font-family="Helvetica,sans-Serif" font-size="10.00">gaia::net::IClientSocketListener</text>
</a>
</g>
<!-- Node3&#45;&gt;Node1 -->
<g id="edge4" class="edge"><title>Node3&#45;&gt;Node1</title>
<path fill="none" stroke="#9a32cd" stroke-dasharray="5,2" d="M356.406,-51C401.71,-51 455.866,-51 496.329,-51"/>
<polygon fill="#9a32cd" stroke="#9a32cd" points="356.288,-47.5001 346.288,-51 356.288,-54.5001 356.288,-47.5001"/>
<text text-anchor="middle" x="422" y="-55" font-family="Helvetica,sans-Serif" font-size="10.00"> mpClientSocketListener</text>
</g>
<!-- Node4 -->
<g id="node6" class="node"><title>Node4</title>
<a xlink:href="../../db/d4c/classgaia_1_1net_1_1_i_p_end_point.html" target="_top" xlink:title="IPEndPoint describes an end point by IP and Port.">
<polygon fill="white" stroke="black" points="214,-0.5 214,-21.5 324,-21.5 324,-0.5 214,-0.5"/>
<text text-anchor="middle" x="269" y="-8.5" font-family="Helvetica,sans-Serif" font-size="10.00">gaia::net::IPEndPoint</text>
</a>
</g>
<!-- Node4&#45;&gt;Node1 -->
<g id="edge6" class="edge"><title>Node4&#45;&gt;Node1</title>
<path fill="none" stroke="#9a32cd" stroke-dasharray="5,2" d="M334.431,-16.4218C375.751,-20.2847 430.177,-26.1792 478,-34 488.942,-35.7894 500.663,-38.1206 511.607,-40.4802"/>
<polygon fill="#9a32cd" stroke="#9a32cd" points="334.498,-12.9134 324.22,-15.4835 333.858,-19.884 334.498,-12.9134"/>
<text text-anchor="middle" x="422" y="-38" font-family="Helvetica,sans-Serif" font-size="10.00"> mBindingAddress</text>
</g>
<!-- Node5 -->
<g id="node8" class="node"><title>Node5</title>
<a xlink:href="../../df/d81/classgaia_1_1net_1_1_i_p_address.html" target="_top" xlink:title="IPAddress holds address of generic IP model.">
<polygon fill="white" stroke="black" points="0,-0.5 0,-21.5 106,-21.5 106,-0.5 0,-0.5"/>
<text text-anchor="middle" x="53" y="-8.5" font-family="Helvetica,sans-Serif" font-size="10.00">gaia::net::IPAddress</text>
</a>
</g>
<!-- Node5&#45;&gt;Node4 -->
<g id="edge8" class="edge"><title>Node5&#45;&gt;Node4</title>
<path fill="none" stroke="#9a32cd" stroke-dasharray="5,2" d="M116.352,-11C147.261,-11 184.09,-11 213.829,-11"/>
<polygon fill="#9a32cd" stroke="#9a32cd" points="116.116,-7.5001 106.116,-11 116.116,-14.5001 116.116,-7.5001"/>
<text text-anchor="middle" x="148" y="-15" font-family="Helvetica,sans-Serif" font-size="10.00"> mpIPAddr</text>
</g>
</g>
</svg>
