<?xml version="1.0" encoding="UTF-8" standalone="no"?>
<!DOCTYPE svg PUBLIC "-//W3C//DTD SVG 1.1//EN"
 "http://www.w3.org/Graphics/SVG/1.1/DTD/svg11.dtd">
<!-- Generated by graphviz version 2.26.3 (20100126.1600)
 -->
<!-- Title: G Pages: 1 -->
<svg width="417pt" height="88pt"
 viewBox="0.00 0.00 417.00 88.00" xmlns="http://www.w3.org/2000/svg" xmlns:xlink="http://www.w3.org/1999/xlink">
<g id="graph1" class="graph" transform="scale(1 1) rotate(0) translate(4 84)">
<title>G</title>
<polygon fill="white" stroke="white" points="-4,5 -4,-84 414,-84 414,5 -4,5"/>
<!-- Node1 -->
<g id="node1" class="node"><title>Node1</title>
<polygon fill="#bfbfbf" stroke="black" points="0,-58.5 0,-79.5 392,-79.5 392,-58.5 0,-58.5"/>
<text text-anchor="middle" x="196" y="-66.5" font-family="Helvetica,sans-Serif" font-size="10.00">/home/vilon_tao/gaia/sdk/include/gaia/connectivity/bluetooth/BluetoothOutputStream.h</text>
</g>
<!-- Node2 -->
<g id="node3" class="node"><title>Node2</title>
<polygon fill="white" stroke="#bfbfbf" points="76.5,-0.5 76.5,-21.5 125.5,-21.5 125.5,-0.5 76.5,-0.5"/>
<text text-anchor="middle" x="101" y="-8.5" font-family="Helvetica,sans-Serif" font-size="10.00">stdint.h</text>
</g>
<!-- Node1&#45;&gt;Node2 -->
<g id="edge2" class="edge"><title>Node1&#45;&gt;Node2</title>
<path fill="none" stroke="midnightblue" d="M178.576,-58.3619C164.113,-49.532 143.331,-36.844 126.916,-26.8224"/>
<polygon fill="midnightblue" stroke="midnightblue" points="128.673,-23.7943 118.314,-21.5707 125.025,-29.7688 128.673,-23.7943"/>
</g>
<!-- Node3 -->
<g id="node5" class="node"><title>Node3</title>
<a xlink:href="../../d1/dd0/gmacros_8h.html" target="_top" xlink:title="gaia/base/gmacros.h">
<polygon fill="white" stroke="black" points="142.5,-0.5 142.5,-21.5 249.5,-21.5 249.5,-0.5 142.5,-0.5"/>
<text text-anchor="middle" x="196" y="-8.5" font-family="Helvetica,sans-Serif" font-size="10.00">gaia/base/gmacros.h</text>
</a>
</g>
<!-- Node1&#45;&gt;Node3 -->
<g id="edge4" class="edge"><title>Node1&#45;&gt;Node3</title>
<path fill="none" stroke="midnightblue" d="M196,-58.3619C196,-50.9219 196,-40.7427 196,-31.7276"/>
<polygon fill="midnightblue" stroke="midnightblue" points="199.5,-31.5706 196,-21.5707 192.5,-31.5707 199.5,-31.5706"/>
</g>
<!-- Node4 -->
<g id="node7" class="node"><title>Node4</title>
<a xlink:href="../../da/d1a/_output_stream_8h.html" target="_top" xlink:title="gaia/storage/OutputStream.h">
<polygon fill="white" stroke="black" points="267,-0.5 267,-21.5 409,-21.5 409,-0.5 267,-0.5"/>
<text text-anchor="middle" x="338" y="-8.5" font-family="Helvetica,sans-Serif" font-size="10.00">gaia/storage/OutputStream.h</text>
</a>
</g>
<!-- Node1&#45;&gt;Node4 -->
<g id="edge6" class="edge"><title>Node1&#45;&gt;Node4</title>
<path fill="none" stroke="midnightblue" d="M221.715,-58.4966C244.293,-49.2746 277.358,-35.7695 302.463,-25.5153"/>
<polygon fill="midnightblue" stroke="midnightblue" points="304.062,-28.6427 311.996,-21.6212 301.415,-22.1624 304.062,-28.6427"/>
</g>
</g>
</svg>
