<?xml version="1.0" encoding="UTF-8" standalone="no"?>
<!DOCTYPE svg PUBLIC "-//W3C//DTD SVG 1.1//EN"
 "http://www.w3.org/Graphics/SVG/1.1/DTD/svg11.dtd">
<!-- Generated by graphviz version 2.26.3 (20100126.1600)
 -->
<!-- Title: G Pages: 1 -->
<svg width="592pt" height="146pt"
 viewBox="0.00 0.00 592.00 146.00" xmlns="http://www.w3.org/2000/svg" xmlns:xlink="http://www.w3.org/1999/xlink">
<g id="graph1" class="graph" transform="scale(1 1) rotate(0) translate(4 142)">
<title>G</title>
<polygon fill="white" stroke="white" points="-4,5 -4,-142 589,-142 589,5 -4,5"/>
<!-- Node1 -->
<g id="node1" class="node"><title>Node1</title>
<polygon fill="#bfbfbf" stroke="black" points="173,-116.5 173,-137.5 425,-137.5 425,-116.5 173,-116.5"/>
<text text-anchor="middle" x="299" y="-124.5" font-family="Helvetica,sans-Serif" font-size="10.00">/home/vilon_tao/gaia/sdk/include/gaia/net/HttpEntity.h</text>
</g>
<!-- Node2 -->
<g id="node3" class="node"><title>Node2</title>
<a xlink:href="../../d8/dad/_http_byte_buffer_entity_8h.html" target="_top" xlink:title="/home/vilon_tao/gaia/sdk/include/gaia/net/HttpByteBufferEntity.h">
<polygon fill="white" stroke="black" points="-0.5,-58.5 -0.5,-79.5 298.5,-79.5 298.5,-58.5 -0.5,-58.5"/>
<text text-anchor="middle" x="149" y="-66.5" font-family="Helvetica,sans-Serif" font-size="10.00">/home/vilon_tao/gaia/sdk/include/gaia/net/HttpByteBufferEntity.h</text>
</a>
</g>
<!-- Node1&#45;&gt;Node2 -->
<g id="edge2" class="edge"><title>Node1&#45;&gt;Node2</title>
<path fill="none" stroke="midnightblue" d="M262.468,-112.874C235.85,-102.582 200.367,-88.862 176.215,-79.5231"/>
<polygon fill="midnightblue" stroke="midnightblue" points="261.247,-116.155 271.836,-116.497 263.771,-109.626 261.247,-116.155"/>
</g>
<!-- Node4 -->
<g id="node7" class="node"><title>Node4</title>
<a xlink:href="../../d9/d20/_http_file_entity_8h.html" target="_top" xlink:title="/home/vilon_tao/gaia/sdk/include/gaia/net/HttpFileEntity.h">
<polygon fill="white" stroke="black" points="316,-58.5 316,-79.5 584,-79.5 584,-58.5 316,-58.5"/>
<text text-anchor="middle" x="450" y="-66.5" font-family="Helvetica,sans-Serif" font-size="10.00">/home/vilon_tao/gaia/sdk/include/gaia/net/HttpFileEntity.h</text>
</a>
</g>
<!-- Node1&#45;&gt;Node4 -->
<g id="edge6" class="edge"><title>Node1&#45;&gt;Node4</title>
<path fill="none" stroke="midnightblue" d="M335.776,-112.874C362.571,-102.582 398.29,-88.862 422.604,-79.5231"/>
<polygon fill="midnightblue" stroke="midnightblue" points="334.425,-109.644 326.345,-116.497 336.935,-116.178 334.425,-109.644"/>
</g>
<!-- Node3 -->
<g id="node5" class="node"><title>Node3</title>
<a xlink:href="../../d7/da1/_http_post_entity_8h.html" target="_top" xlink:title="/home/vilon_tao/gaia/sdk/include/gaia/net/HttpPostEntity.h">
<polygon fill="white" stroke="black" points="13,-0.5 13,-21.5 285,-21.5 285,-0.5 13,-0.5"/>
<text text-anchor="middle" x="149" y="-8.5" font-family="Helvetica,sans-Serif" font-size="10.00">/home/vilon_tao/gaia/sdk/include/gaia/net/HttpPostEntity.h</text>
</a>
</g>
<!-- Node2&#45;&gt;Node3 -->
<g id="edge4" class="edge"><title>Node2&#45;&gt;Node3</title>
<path fill="none" stroke="midnightblue" d="M149,-48.1906C149,-39.1684 149,-28.9941 149,-21.5707"/>
<polygon fill="midnightblue" stroke="midnightblue" points="145.5,-48.3619 149,-58.3619 152.5,-48.3619 145.5,-48.3619"/>
</g>
</g>
</svg>
