<?xml version="1.0" encoding="UTF-8" standalone="no"?>
<!DOCTYPE svg PUBLIC "-//W3C//DTD SVG 1.1//EN"
 "http://www.w3.org/Graphics/SVG/1.1/DTD/svg11.dtd">
<!-- Generated by graphviz version 2.26.3 (20100126.1600)
 -->
<!-- Title: G Pages: 1 -->
<svg width="686pt" height="88pt"
 viewBox="0.00 0.00 686.00 88.00" xmlns="http://www.w3.org/2000/svg" xmlns:xlink="http://www.w3.org/1999/xlink">
<g id="graph1" class="graph" transform="scale(1 1) rotate(0) translate(4 84)">
<title>G</title>
<polygon fill="white" stroke="white" points="-4,5 -4,-84 683,-84 683,5 -4,5"/>
<!-- Node1 -->
<g id="node1" class="node"><title>Node1</title>
<polygon fill="#bfbfbf" stroke="black" points="185.5,-58.5 185.5,-79.5 482.5,-79.5 482.5,-58.5 185.5,-58.5"/>
<text text-anchor="middle" x="334" y="-66.5" font-family="Helvetica,sans-Serif" font-size="10.00">/home/vilon_tao/gaia/sdk/include/gaia/media/videoeditor/Effect.h</text>
</g>
<!-- Node2 -->
<g id="node3" class="node"><title>Node2</title>
<a xlink:href="../../d4/da2/_effect_color_8h.html" target="_top" xlink:title="/home/vilon_tao/gaia/sdk/include/gaia/media/videoeditor/EffectColor.h">
<polygon fill="white" stroke="black" points="0,-0.5 0,-21.5 320,-21.5 320,-0.5 0,-0.5"/>
<text text-anchor="middle" x="160" y="-8.5" font-family="Helvetica,sans-Serif" font-size="10.00">/home/vilon_tao/gaia/sdk/include/gaia/media/videoeditor/EffectColor.h</text>
</a>
</g>
<!-- Node1&#45;&gt;Node2 -->
<g id="edge2" class="edge"><title>Node1&#45;&gt;Node2</title>
<path fill="none" stroke="midnightblue" d="M292.836,-55.2787C261.831,-44.9437 219.955,-30.9849 191.569,-21.5231"/>
<polygon fill="midnightblue" stroke="midnightblue" points="291.896,-58.6547 302.49,-58.4966 294.11,-52.0139 291.896,-58.6547"/>
</g>
<!-- Node3 -->
<g id="node5" class="node"><title>Node3</title>
<a xlink:href="../../d2/d59/_effect_ken_burns_8h.html" target="_top" xlink:title="/home/vilon_tao/gaia/sdk/include/gaia/media/videoeditor/EffectKenBurns.h">
<polygon fill="white" stroke="black" points="338,-0.5 338,-21.5 678,-21.5 678,-0.5 338,-0.5"/>
<text text-anchor="middle" x="508" y="-8.5" font-family="Helvetica,sans-Serif" font-size="10.00">/home/vilon_tao/gaia/sdk/include/gaia/media/videoeditor/EffectKenBurns.h</text>
</a>
</g>
<!-- Node1&#45;&gt;Node3 -->
<g id="edge4" class="edge"><title>Node1&#45;&gt;Node3</title>
<path fill="none" stroke="midnightblue" d="M375.164,-55.2787C406.169,-44.9437 448.045,-30.9849 476.431,-21.5231"/>
<polygon fill="midnightblue" stroke="midnightblue" points="373.89,-52.0139 365.51,-58.4966 376.104,-58.6547 373.89,-52.0139"/>
</g>
</g>
</svg>
