<?xml version="1.0" encoding="UTF-8" standalone="no"?>
<!DOCTYPE svg PUBLIC "-//W3C//DTD SVG 1.1//EN"
 "http://www.w3.org/Graphics/SVG/1.1/DTD/svg11.dtd">
<!-- Generated by graphviz version 2.26.3 (20100126.1600)
 -->
<!-- Title: G Pages: 1 -->
<svg width="504pt" height="262pt"
 viewBox="0.00 0.00 504.00 262.00" xmlns="http://www.w3.org/2000/svg" xmlns:xlink="http://www.w3.org/1999/xlink">
<g id="graph1" class="graph" transform="scale(1 1) rotate(0) translate(4 258)">
<title>G</title>
<polygon fill="white" stroke="white" points="-4,5 -4,-258 501,-258 501,5 -4,5"/>
<!-- Node1 -->
<g id="node1" class="node"><title>Node1</title>
<polygon fill="#bfbfbf" stroke="black" points="200.5,-232.5 200.5,-253.5 463.5,-253.5 463.5,-232.5 200.5,-232.5"/>
<text text-anchor="middle" x="332" y="-240.5" font-family="Helvetica,sans-Serif" font-size="10.00">/home/vilon_tao/gaia/sdk/include/gaia/net/HttpRequest.h</text>
</g>
<!-- Node2 -->
<g id="node3" class="node"><title>Node2</title>
<a xlink:href="../../db/db5/_string_8h.html" target="_top" xlink:title="gaia/base/String.h">
<polygon fill="white" stroke="black" points="161.5,-116.5 161.5,-137.5 256.5,-137.5 256.5,-116.5 161.5,-116.5"/>
<text text-anchor="middle" x="209" y="-124.5" font-family="Helvetica,sans-Serif" font-size="10.00">gaia/base/String.h</text>
</a>
</g>
<!-- Node1&#45;&gt;Node2 -->
<g id="edge2" class="edge"><title>Node1&#45;&gt;Node2</title>
<path fill="none" stroke="midnightblue" d="M272.176,-232.446C233.66,-224.294 188.685,-211.753 177,-196 165.318,-180.251 177.957,-159.555 190.631,-144.951"/>
<polygon fill="midnightblue" stroke="midnightblue" points="193.279,-147.243 197.522,-137.535 188.151,-142.478 193.279,-147.243"/>
</g>
<!-- Node7 -->
<g id="node14" class="node"><title>Node7</title>
<a xlink:href="../../df/d29/_http_types_8h.html" target="_top" xlink:title="gaia/net/HttpTypes.h">
<polygon fill="white" stroke="black" points="278,-174.5 278,-195.5 386,-195.5 386,-174.5 278,-174.5"/>
<text text-anchor="middle" x="332" y="-182.5" font-family="Helvetica,sans-Serif" font-size="10.00">gaia/net/HttpTypes.h</text>
</a>
</g>
<!-- Node1&#45;&gt;Node7 -->
<g id="edge14" class="edge"><title>Node1&#45;&gt;Node7</title>
<path fill="none" stroke="midnightblue" d="M332,-232.362C332,-224.922 332,-214.743 332,-205.728"/>
<polygon fill="midnightblue" stroke="midnightblue" points="335.5,-205.571 332,-195.571 328.5,-205.571 335.5,-205.571"/>
</g>
<!-- Node9 -->
<g id="node19" class="node"><title>Node9</title>
<a xlink:href="../../d9/dd7/_url_8h.html" target="_top" xlink:title="gaia/net/Url.h">
<polygon fill="white" stroke="black" points="185.5,-174.5 185.5,-195.5 260.5,-195.5 260.5,-174.5 185.5,-174.5"/>
<text text-anchor="middle" x="223" y="-182.5" font-family="Helvetica,sans-Serif" font-size="10.00">gaia/net/Url.h</text>
</a>
</g>
<!-- Node1&#45;&gt;Node9 -->
<g id="edge20" class="edge"><title>Node1&#45;&gt;Node9</title>
<path fill="none" stroke="midnightblue" d="M312.261,-232.497C295.39,-223.519 270.891,-210.484 251.826,-200.339"/>
<polygon fill="midnightblue" stroke="midnightblue" points="253.433,-197.229 242.961,-195.621 250.144,-203.409 253.433,-197.229"/>
</g>
<!-- Node10 -->
<g id="node22" class="node"><title>Node10</title>
<polygon fill="white" stroke="#bfbfbf" points="403.5,-174.5 403.5,-195.5 438.5,-195.5 438.5,-174.5 403.5,-174.5"/>
<text text-anchor="middle" x="421" y="-182.5" font-family="Helvetica,sans-Serif" font-size="10.00">map</text>
</g>
<!-- Node1&#45;&gt;Node10 -->
<g id="edge24" class="edge"><title>Node1&#45;&gt;Node10</title>
<path fill="none" stroke="midnightblue" d="M348.324,-232.362C361.748,-223.614 380.983,-211.079 396.293,-201.101"/>
<polygon fill="midnightblue" stroke="midnightblue" points="398.312,-203.963 404.78,-195.571 394.491,-198.098 398.312,-203.963"/>
</g>
<!-- Node11 -->
<g id="node24" class="node"><title>Node11</title>
<polygon fill="white" stroke="#bfbfbf" points="455.5,-174.5 455.5,-195.5 496.5,-195.5 496.5,-174.5 455.5,-174.5"/>
<text text-anchor="middle" x="476" y="-182.5" font-family="Helvetica,sans-Serif" font-size="10.00">string</text>
</g>
<!-- Node1&#45;&gt;Node11 -->
<g id="edge26" class="edge"><title>Node1&#45;&gt;Node11</title>
<path fill="none" stroke="midnightblue" d="M358.077,-232.497C382.8,-222.539 419.92,-207.588 445.89,-197.128"/>
<polygon fill="midnightblue" stroke="midnightblue" points="447.28,-200.341 455.249,-193.358 444.665,-193.848 447.28,-200.341"/>
</g>
<!-- Node3 -->
<g id="node5" class="node"><title>Node3</title>
<a xlink:href="../../d7/d97/_char_sequence_8h.html" target="_top" xlink:title="gaia/base/CharSequence.h">
<polygon fill="white" stroke="black" points="0,-58.5 0,-79.5 134,-79.5 134,-58.5 0,-58.5"/>
<text text-anchor="middle" x="67" y="-66.5" font-family="Helvetica,sans-Serif" font-size="10.00">gaia/base/CharSequence.h</text>
</a>
</g>
<!-- Node2&#45;&gt;Node3 -->
<g id="edge4" class="edge"><title>Node2&#45;&gt;Node3</title>
<path fill="none" stroke="midnightblue" d="M183.285,-116.497C160.707,-107.275 127.642,-93.7695 102.537,-83.5153"/>
<polygon fill="midnightblue" stroke="midnightblue" points="103.585,-80.1624 93.0037,-79.6212 100.938,-86.6427 103.585,-80.1624"/>
</g>
<!-- Node5 -->
<g id="node9" class="node"><title>Node5</title>
<a xlink:href="../../d6/d83/_hash_func_8h.html" target="_top" xlink:title="gaia/base/HashFunc.h">
<polygon fill="white" stroke="black" points="151.5,-58.5 151.5,-79.5 266.5,-79.5 266.5,-58.5 151.5,-58.5"/>
<text text-anchor="middle" x="209" y="-66.5" font-family="Helvetica,sans-Serif" font-size="10.00">gaia/base/HashFunc.h</text>
</a>
</g>
<!-- Node2&#45;&gt;Node5 -->
<g id="edge8" class="edge"><title>Node2&#45;&gt;Node5</title>
<path fill="none" stroke="midnightblue" d="M209,-116.362C209,-108.922 209,-98.7427 209,-89.7276"/>
<polygon fill="midnightblue" stroke="midnightblue" points="212.5,-89.5706 209,-79.5707 205.5,-89.5707 212.5,-89.5706"/>
</g>
<!-- Node6 -->
<g id="node11" class="node"><title>Node6</title>
<polygon fill="white" stroke="#bfbfbf" points="260,-0.5 260,-21.5 328,-21.5 328,-0.5 260,-0.5"/>
<text text-anchor="middle" x="294" y="-8.5" font-family="Helvetica,sans-Serif" font-size="10.00">sys/types.h</text>
</g>
<!-- Node2&#45;&gt;Node6 -->
<g id="edge12" class="edge"><title>Node2&#45;&gt;Node6</title>
<path fill="none" stroke="midnightblue" d="M231.049,-116.387C245.564,-108.322 263.874,-95.9073 275,-80 284.988,-65.7202 289.735,-46.377 291.985,-31.8044"/>
<polygon fill="midnightblue" stroke="midnightblue" points="295.474,-32.1155 293.265,-21.7535 288.53,-31.2312 295.474,-32.1155"/>
</g>
<!-- Node4 -->
<g id="node7" class="node"><title>Node4</title>
<polygon fill="white" stroke="#bfbfbf" points="42.5,-0.5 42.5,-21.5 91.5,-21.5 91.5,-0.5 42.5,-0.5"/>
<text text-anchor="middle" x="67" y="-8.5" font-family="Helvetica,sans-Serif" font-size="10.00">stdint.h</text>
</g>
<!-- Node3&#45;&gt;Node4 -->
<g id="edge6" class="edge"><title>Node3&#45;&gt;Node4</title>
<path fill="none" stroke="midnightblue" d="M67,-58.3619C67,-50.9219 67,-40.7427 67,-31.7276"/>
<polygon fill="midnightblue" stroke="midnightblue" points="70.5001,-31.5706 67,-21.5707 63.5001,-31.5707 70.5001,-31.5706"/>
</g>
<!-- Node5&#45;&gt;Node6 -->
<g id="edge10" class="edge"><title>Node5&#45;&gt;Node6</title>
<path fill="none" stroke="midnightblue" d="M224.59,-58.3619C237.291,-49.6955 255.438,-37.3126 269.992,-27.3819"/>
<polygon fill="midnightblue" stroke="midnightblue" points="272.221,-30.0982 278.509,-21.5707 268.276,-24.316 272.221,-30.0982"/>
</g>
<!-- Node8 -->
<g id="node16" class="node"><title>Node8</title>
<a xlink:href="../../d1/d88/_net_types_8h.html" target="_top" xlink:title="gaia/net/NetTypes.h">
<polygon fill="white" stroke="black" points="279.5,-116.5 279.5,-137.5 384.5,-137.5 384.5,-116.5 279.5,-116.5"/>
<text text-anchor="middle" x="332" y="-124.5" font-family="Helvetica,sans-Serif" font-size="10.00">gaia/net/NetTypes.h</text>
</a>
</g>
<!-- Node7&#45;&gt;Node8 -->
<g id="edge16" class="edge"><title>Node7&#45;&gt;Node8</title>
<path fill="none" stroke="midnightblue" d="M332,-174.362C332,-166.922 332,-156.743 332,-147.728"/>
<polygon fill="midnightblue" stroke="midnightblue" points="335.5,-147.571 332,-137.571 328.5,-147.571 335.5,-147.571"/>
</g>
<!-- Node8&#45;&gt;Node6 -->
<g id="edge18" class="edge"><title>Node8&#45;&gt;Node6</title>
<path fill="none" stroke="midnightblue" d="M328.493,-116.295C322.187,-97.0451 308.836,-56.2889 300.718,-31.5091"/>
<polygon fill="midnightblue" stroke="midnightblue" points="303.938,-30.0927 297.498,-21.6792 297.285,-32.2719 303.938,-30.0927"/>
</g>
<!-- Node9&#45;&gt;Node2 -->
<g id="edge22" class="edge"><title>Node9&#45;&gt;Node2</title>
<path fill="none" stroke="midnightblue" d="M220.432,-174.362C218.617,-166.84 216.125,-156.519 213.932,-147.431"/>
<polygon fill="midnightblue" stroke="midnightblue" points="217.3,-146.47 211.552,-137.571 210.496,-148.113 217.3,-146.47"/>
</g>
</g>
</svg>
