<?xml version="1.0" encoding="UTF-8" standalone="no"?>
<!DOCTYPE svg PUBLIC "-//W3C//DTD SVG 1.1//EN"
 "http://www.w3.org/Graphics/SVG/1.1/DTD/svg11.dtd">
<!-- Generated by graphviz version 2.26.3 (20100126.1600)
 -->
<!-- Title: G Pages: 1 -->
<svg width="1084pt" height="196pt"
 viewBox="0.00 0.00 1084.00 196.45" xmlns="http://www.w3.org/2000/svg" xmlns:xlink="http://www.w3.org/1999/xlink">
<g id="graph1" class="graph" transform="scale(1 1) rotate(0) translate(4 192.448)">
<title>G</title>
<polygon fill="white" stroke="white" points="-4,5 -4,-192.448 1081,-192.448 1081,5 -4,5"/>
<!-- Node1 -->
<g id="node1" class="node"><title>Node1</title>
<polygon fill="#bfbfbf" stroke="black" points="475,-134.5 475,-155.5 613,-155.5 613,-134.5 475,-134.5"/>
<text text-anchor="middle" x="544" y="-142.5" font-family="Helvetica,sans-Serif" font-size="10.00">gaia::core::WidgetController</text>
</g>
<!-- Node4 -->
<g id="node6" class="node"><title>Node4</title>
<a xlink:href="../../d5/dfb/classgaia_1_1core_1_1_scene.html" target="_top" xlink:title="A Scene is used to build a visual interface.">
<polygon fill="white" stroke="black" points="775.5,-62.5 775.5,-83.5 868.5,-83.5 868.5,-62.5 775.5,-62.5"/>
<text text-anchor="middle" x="822" y="-70.5" font-family="Helvetica,sans-Serif" font-size="10.00">gaia::core::Scene</text>
</a>
</g>
<!-- Node1&#45;&gt;Node4 -->
<g id="edge8" class="edge"><title>Node1&#45;&gt;Node4</title>
<path fill="none" stroke="#9a32cd" stroke-dasharray="5,2" d="M623.696,-147.648C657.486,-145.764 696.295,-139.445 728,-123 738.616,-117.494 736.177,-109.821 746,-103 757.884,-94.7472 772.364,-88.3083 785.483,-83.5479"/>
<polygon fill="#9a32cd" stroke="#9a32cd" points="623.223,-144.165 613.384,-148.096 623.527,-151.158 623.223,-144.165"/>
<text text-anchor="middle" x="696" y="-146" font-family="Helvetica,sans-Serif" font-size="10.00"> mpController</text>
</g>
<!-- Node2 -->
<g id="node2" class="node"><title>Node2</title>
<a xlink:href="../../d8/dac/classgaia_1_1core_1_1_widget.html" target="_top" xlink:title="The Widget class is the base class of all user interface component.">
<polygon fill="white" stroke="black" points="980,-138.5 980,-159.5 1076,-159.5 1076,-138.5 980,-138.5"/>
<text text-anchor="middle" x="1028" y="-146.5" font-family="Helvetica,sans-Serif" font-size="10.00">gaia::core::Widget</text>
</a>
</g>
<!-- Node2&#45;&gt;Node1 -->
<g id="edge2" class="edge"><title>Node2&#45;&gt;Node1</title>
<path fill="none" stroke="midnightblue" d="M988.074,-162.561C962.637,-170.417 928.79,-179.44 898,-183 830.892,-190.759 813.264,-189.272 746,-183 690.75,-177.848 628.09,-164.935 587.407,-155.589"/>
<polygon fill="midnightblue" stroke="midnightblue" points="989.251,-165.859 997.732,-159.509 987.142,-159.184 989.251,-165.859"/>
</g>
<!-- Node3 -->
<g id="node4" class="node"><title>Node3</title>
<a xlink:href="../../d0/db2/classgaia_1_1core_1_1_property_animatable.html" target="_top" xlink:title="Any animation object need to implement PropertyAnimatable because of setting value.">
<polygon fill="white" stroke="black" points="746.5,-152.5 746.5,-173.5 897.5,-173.5 897.5,-152.5 746.5,-152.5"/>
<text text-anchor="middle" x="822" y="-160.5" font-family="Helvetica,sans-Serif" font-size="10.00">gaia::core::PropertyAnimatable</text>
</a>
</g>
<!-- Node3&#45;&gt;Node2 -->
<g id="edge4" class="edge"><title>Node3&#45;&gt;Node2</title>
<path fill="none" stroke="midnightblue" d="M907.658,-157.179C932.37,-155.499 958.453,-153.727 979.995,-152.263"/>
<polygon fill="midnightblue" stroke="midnightblue" points="907.277,-153.696 897.537,-157.866 907.751,-160.68 907.277,-153.696"/>
</g>
<!-- Node4&#45;&gt;Node1 -->
<g id="edge28" class="edge"><title>Node4&#45;&gt;Node1</title>
<path fill="none" stroke="#9a32cd" stroke-dasharray="5,2" d="M765.408,-83.2771C735.137,-89.1614 697.332,-97.1306 664,-106 632.669,-114.337 597.457,-126.069 573.323,-134.484"/>
<polygon fill="#9a32cd" stroke="#9a32cd" points="766.208,-86.6875 775.368,-81.3632 764.887,-79.8133 766.208,-86.6875"/>
<text text-anchor="middle" x="696" y="-110" font-family="Helvetica,sans-Serif" font-size="10.00"> mpScene</text>
</g>
<!-- Node4&#45;&gt;Node2 -->
<g id="edge6" class="edge"><title>Node4&#45;&gt;Node2</title>
<path fill="none" stroke="#9a32cd" stroke-dasharray="5,2" d="M878.605,-86.1268C904.48,-92.8965 935.258,-102.044 962,-113 979.392,-120.125 998.101,-130.625 1011.14,-138.449"/>
<polygon fill="#9a32cd" stroke="#9a32cd" points="879.136,-82.6499 868.58,-83.5579 877.398,-89.4308 879.136,-82.6499"/>
<text text-anchor="middle" x="939" y="-117" font-family="Helvetica,sans-Serif" font-size="10.00"> mpScene</text>
</g>
<!-- Node9 -->
<g id="node18" class="node"><title>Node9</title>
<a xlink:href="../../db/d3f/classgaia_1_1core_1_1_page.html" target="_top" xlink:title="An page is a single, focused thing that the user can do.">
<polygon fill="white" stroke="black" points="984,-34.5 984,-55.5 1072,-55.5 1072,-34.5 984,-34.5"/>
<text text-anchor="middle" x="1028" y="-42.5" font-family="Helvetica,sans-Serif" font-size="10.00">gaia::core::Page</text>
</a>
</g>
<!-- Node4&#45;&gt;Node9 -->
<g id="edge22" class="edge"><title>Node4&#45;&gt;Node9</title>
<path fill="none" stroke="#9a32cd" stroke-dasharray="5,2" d="M878.761,-65.285C911.936,-60.7756 953.188,-55.1686 983.909,-50.993"/>
<polygon fill="#9a32cd" stroke="#9a32cd" points="878.182,-61.8313 868.745,-66.6464 879.125,-68.7676 878.182,-61.8313"/>
<text text-anchor="middle" x="939" y="-64" font-family="Helvetica,sans-Serif" font-size="10.00"> mpScene</text>
</g>
<!-- Node5 -->
<g id="node9" class="node"><title>Node5</title>
<a xlink:href="../../de/dad/classgaia_1_1content_1_1_resources.html" target="_top" xlink:title="Class for accessing an application&#39;s resources.">
<polygon fill="white" stroke="black" points="481,-62.5 481,-83.5 607,-83.5 607,-62.5 481,-62.5"/>
<text text-anchor="middle" x="544" y="-70.5" font-family="Helvetica,sans-Serif" font-size="10.00">gaia::content::Resources</text>
</a>
</g>
<!-- Node5&#45;&gt;Node4 -->
<g id="edge10" class="edge"><title>Node5&#45;&gt;Node4</title>
<path fill="none" stroke="#9a32cd" stroke-dasharray="5,2" d="M617.198,-73C667.217,-73 732.013,-73 775.192,-73"/>
<polygon fill="#9a32cd" stroke="#9a32cd" points="617.083,-69.5001 607.083,-73 617.082,-76.5001 617.083,-69.5001"/>
<text text-anchor="middle" x="696" y="-77" font-family="Helvetica,sans-Serif" font-size="10.00"> mpResources</text>
</g>
<!-- Node6 -->
<g id="node11" class="node"><title>Node6</title>
<a xlink:href="../../df/d5d/classgaia_1_1base_1_1_vector.html" target="_top" xlink:title="gaia::base::Vector\&lt; gaia::ui::DialogBox * \&gt;">
<polygon fill="white" stroke="black" points="442.5,-22.5 442.5,-43.5 645.5,-43.5 645.5,-22.5 442.5,-22.5"/>
<text text-anchor="middle" x="544" y="-30.5" font-family="Helvetica,sans-Serif" font-size="10.00">gaia::base::Vector&lt; gaia::ui::DialogBox * &gt;</text>
</a>
</g>
<!-- Node6&#45;&gt;Node4 -->
<g id="edge12" class="edge"><title>Node6&#45;&gt;Node4</title>
<path fill="none" stroke="#9a32cd" stroke-dasharray="5,2" d="M646.417,-44.7959C673.022,-48.1355 701.616,-51.9682 728,-56 743.41,-58.3548 760.177,-61.2724 775.227,-64.0219"/>
<polygon fill="#9a32cd" stroke="#9a32cd" points="646.683,-41.302 636.327,-43.5407 645.819,-48.2484 646.683,-41.302"/>
<text text-anchor="middle" x="696" y="-60" font-family="Helvetica,sans-Serif" font-size="10.00"> mDialogList</text>
</g>
<!-- Node7 -->
<g id="node13" class="node"><title>Node7</title>
<a xlink:href="../../d0/d21/classgaia_1_1base_1_1_vector_impl.html" target="_top" xlink:title="Implements vector data structure equipped with copy&#45;on&#45;write mechanism.">
<polygon fill="white" stroke="black" points="0.5,-23.5 0.5,-44.5 115.5,-44.5 115.5,-23.5 0.5,-23.5"/>
<text text-anchor="middle" x="58" y="-31.5" font-family="Helvetica,sans-Serif" font-size="10.00">gaia::base::VectorImpl</text>
</a>
</g>
<!-- Node7&#45;&gt;Node6 -->
<g id="edge14" class="edge"><title>Node7&#45;&gt;Node6</title>
<path fill="none" stroke="#8b1a1a" d="M125.792,-35.874C128.564,-35.9221 131.309,-35.9646 134,-36 262.878,-37.6955 295.121,-37.6107 424,-36 429.939,-35.9258 436.043,-35.8309 442.201,-35.7209"/>
<polygon fill="#8b1a1a" stroke="#8b1a1a" points="125.743,-32.3725 115.677,-35.6771 125.607,-39.3711 125.743,-32.3725"/>
</g>
<!-- Node8 -->
<g id="node15" class="node"><title>Node8</title>
<a xlink:href="../../df/d5d/classgaia_1_1base_1_1_vector.html" target="_top" xlink:title="This class implements the vector data structure.">
<polygon fill="white" stroke="black" points="154,-0.5 154,-21.5 294,-21.5 294,-0.5 154,-0.5"/>
<text text-anchor="middle" x="224" y="-8.5" font-family="Helvetica,sans-Serif" font-size="10.00">gaia::base::Vector&lt; TYPE &gt;</text>
</a>
</g>
<!-- Node7&#45;&gt;Node8 -->
<g id="edge18" class="edge"><title>Node7&#45;&gt;Node8</title>
<path fill="none" stroke="#8b1a1a" d="M125.596,-24.6344C134.933,-23.3406 144.54,-22.0096 153.921,-20.7098"/>
<polygon fill="#8b1a1a" stroke="#8b1a1a" points="125.018,-21.1809 115.593,-26.0203 125.979,-28.1146 125.018,-21.1809"/>
</g>
<!-- Node8&#45;&gt;Node6 -->
<g id="edge16" class="edge"><title>Node8&#45;&gt;Node6</title>
<path fill="none" stroke="orange" stroke-dasharray="5,2" d="M304.465,-15.4009C340.966,-17.5071 384.675,-20.1821 424,-23 429.943,-23.4258 436.05,-23.8808 442.211,-24.3531"/>
<polygon fill="orange" stroke="orange" points="304.555,-11.9003 294.371,-14.8222 304.154,-18.8889 304.555,-11.9003"/>
<text text-anchor="middle" x="368" y="-27" font-family="Helvetica,sans-Serif" font-size="10.00"> &lt; gaia::ui::DialogBox * &gt;</text>
</g>
<!-- Node9&#45;&gt;Node4 -->
<g id="edge20" class="edge"><title>Node9&#45;&gt;Node4</title>
<path fill="none" stroke="#9a32cd" stroke-dasharray="5,2" d="M988.507,-31.836C966.939,-26.44 939.842,-22.5873 916,-28 886.887,-34.6093 856.253,-51.3927 838.153,-62.4896"/>
<polygon fill="#9a32cd" stroke="#9a32cd" points="987.737,-35.2533 998.304,-34.4851 989.564,-28.496 987.737,-35.2533"/>
<text text-anchor="middle" x="939" y="-32" font-family="Helvetica,sans-Serif" font-size="10.00"> mpPage</text>
</g>
<!-- Node10 -->
<g id="node21" class="node"><title>Node10</title>
<a xlink:href="../../db/d88/classgaia_1_1core_1_1_widget_tag.html" target="_top" xlink:title="gaia::core::WidgetTag">
<polygon fill="white" stroke="black" points="765.5,-112.5 765.5,-133.5 878.5,-133.5 878.5,-112.5 765.5,-112.5"/>
<text text-anchor="middle" x="822" y="-120.5" font-family="Helvetica,sans-Serif" font-size="10.00">gaia::core::WidgetTag</text>
</a>
</g>
<!-- Node10&#45;&gt;Node2 -->
<g id="edge24" class="edge"><title>Node10&#45;&gt;Node2</title>
<path fill="none" stroke="#9a32cd" stroke-dasharray="5,2" d="M888.796,-127.806C912.028,-129.847 938.219,-132.563 962,-136 967.779,-136.835 973.819,-137.84 979.796,-138.917"/>
<polygon fill="#9a32cd" stroke="#9a32cd" points="888.955,-124.307 878.694,-126.944 888.36,-131.282 888.955,-124.307"/>
<text text-anchor="middle" x="939" y="-140" font-family="Helvetica,sans-Serif" font-size="10.00"> mpTag</text>
</g>
<!-- Node11 -->
<g id="node23" class="node"><title>Node11</title>
<a xlink:href="../../dd/de0/classgaia_1_1core_1_1_event_control.html" target="_top" xlink:title="EventControl is used to dispatch event and register listener.">
<polygon fill="white" stroke="black" points="163,-134.5 163,-155.5 285,-155.5 285,-134.5 163,-134.5"/>
<text text-anchor="middle" x="224" y="-142.5" font-family="Helvetica,sans-Serif" font-size="10.00">gaia::core::EventControl</text>
</a>
</g>
<!-- Node11&#45;&gt;Node1 -->
<g id="edge26" class="edge"><title>Node11&#45;&gt;Node1</title>
<path fill="none" stroke="midnightblue" d="M295.422,-145C348.968,-145 421.839,-145 474.831,-145"/>
<polygon fill="midnightblue" stroke="midnightblue" points="295.321,-141.5 285.321,-145 295.321,-148.5 295.321,-141.5"/>
</g>
</g>
</svg>
