<?xml version="1.0" encoding="UTF-8" standalone="no"?>
<!DOCTYPE svg PUBLIC "-//W3C//DTD SVG 1.1//EN"
 "http://www.w3.org/Graphics/SVG/1.1/DTD/svg11.dtd">
<!-- Generated by graphviz version 2.26.3 (20100126.1600)
 -->
<!-- Title: G Pages: 1 -->
<svg width="615pt" height="204pt"
 viewBox="0.00 0.00 615.00 204.00" xmlns="http://www.w3.org/2000/svg" xmlns:xlink="http://www.w3.org/1999/xlink">
<g id="graph1" class="graph" transform="scale(1 1) rotate(0) translate(4 200)">
<title>G</title>
<polygon fill="white" stroke="white" points="-4,5 -4,-200 612,-200 612,5 -4,5"/>
<!-- Node1 -->
<g id="node1" class="node"><title>Node1</title>
<polygon fill="#bfbfbf" stroke="black" points="291,-174.5 291,-195.5 607,-195.5 607,-174.5 291,-174.5"/>
<text text-anchor="middle" x="449" y="-182.5" font-family="Helvetica,sans-Serif" font-size="10.00">/home/vilon_tao/gaia/sdk/include/gaia/service/IMEKeyboardWidget.h</text>
</g>
<!-- Node2 -->
<g id="node3" class="node"><title>Node2</title>
<a xlink:href="../../d4/d75/_widget_8h.html" target="_top" xlink:title="gaia/core/vision/Widget.h">
<polygon fill="white" stroke="black" points="261.5,-116.5 261.5,-137.5 388.5,-137.5 388.5,-116.5 261.5,-116.5"/>
<text text-anchor="middle" x="325" y="-124.5" font-family="Helvetica,sans-Serif" font-size="10.00">gaia/core/vision/Widget.h</text>
</a>
</g>
<!-- Node1&#45;&gt;Node2 -->
<g id="edge2" class="edge"><title>Node1&#45;&gt;Node2</title>
<path fill="none" stroke="midnightblue" d="M426.545,-174.497C407.09,-165.397 378.72,-152.127 356.909,-141.925"/>
<polygon fill="midnightblue" stroke="midnightblue" points="358.248,-138.688 347.707,-137.621 355.283,-145.028 358.248,-138.688"/>
</g>
<!-- Node5 -->
<g id="node9" class="node"><title>Node5</title>
<polygon fill="white" stroke="#bfbfbf" points="353,-0.5 353,-21.5 421,-21.5 421,-0.5 353,-0.5"/>
<text text-anchor="middle" x="387" y="-8.5" font-family="Helvetica,sans-Serif" font-size="10.00">sys/types.h</text>
</g>
<!-- Node1&#45;&gt;Node5 -->
<g id="edge14" class="edge"><title>Node1&#45;&gt;Node5</title>
<path fill="none" stroke="midnightblue" d="M458.632,-174.361C478.095,-151.521 518.193,-96.7291 493,-58 479.231,-36.8329 453.506,-25.1249 430.847,-18.6883"/>
<polygon fill="midnightblue" stroke="midnightblue" points="431.595,-15.2667 421.038,-16.1635 429.85,-22.0458 431.595,-15.2667"/>
</g>
<!-- Node3 -->
<g id="node5" class="node"><title>Node3</title>
<a xlink:href="../../d1/dd0/gmacros_8h.html" target="_top" xlink:title="gaia/base/gmacros.h">
<polygon fill="white" stroke="black" points="377.5,-58.5 377.5,-79.5 484.5,-79.5 484.5,-58.5 377.5,-58.5"/>
<text text-anchor="middle" x="431" y="-66.5" font-family="Helvetica,sans-Serif" font-size="10.00">gaia/base/gmacros.h</text>
</a>
</g>
<!-- Node2&#45;&gt;Node3 -->
<g id="edge4" class="edge"><title>Node2&#45;&gt;Node3</title>
<path fill="none" stroke="midnightblue" d="M344.442,-116.362C360.804,-107.409 384.413,-94.4908 402.843,-84.4064"/>
<polygon fill="midnightblue" stroke="midnightblue" points="404.589,-87.4412 411.681,-79.5707 401.229,-81.3004 404.589,-87.4412"/>
</g>
<!-- Node4 -->
<g id="node7" class="node"><title>Node4</title>
<a xlink:href="../../d0/d92/_property_animatable_8h.html" target="_top" xlink:title="gaia/core/animator/PropertyAnimatable.h">
<polygon fill="white" stroke="black" points="166,-58.5 166,-79.5 360,-79.5 360,-58.5 166,-58.5"/>
<text text-anchor="middle" x="263" y="-66.5" font-family="Helvetica,sans-Serif" font-size="10.00">gaia/core/animator/PropertyAnimatable.h</text>
</a>
</g>
<!-- Node2&#45;&gt;Node4 -->
<g id="edge6" class="edge"><title>Node2&#45;&gt;Node4</title>
<path fill="none" stroke="midnightblue" d="M313.628,-116.362C304.714,-108.023 292.121,-96.2418 281.724,-86.5162"/>
<polygon fill="midnightblue" stroke="midnightblue" points="283.993,-83.8463 274.3,-79.5707 279.211,-88.9582 283.993,-83.8463"/>
</g>
<!-- Node6 -->
<g id="node11" class="node"><title>Node6</title>
<a xlink:href="../../d8/d50/_widget_core_8h.html" target="_top" xlink:title="gaia/core/vision/WidgetCore.h">
<polygon fill="white" stroke="black" points="0,-58.5 0,-79.5 148,-79.5 148,-58.5 0,-58.5"/>
<text text-anchor="middle" x="74" y="-66.5" font-family="Helvetica,sans-Serif" font-size="10.00">gaia/core/vision/WidgetCore.h</text>
</a>
</g>
<!-- Node2&#45;&gt;Node6 -->
<g id="edge10" class="edge"><title>Node2&#45;&gt;Node6</title>
<path fill="none" stroke="midnightblue" d="M279.546,-116.497C237.386,-106.755 174.542,-92.2328 129.449,-81.813"/>
<polygon fill="midnightblue" stroke="midnightblue" points="130.071,-78.3644 119.539,-79.5231 128.495,-85.1847 130.071,-78.3644"/>
</g>
<!-- Node4&#45;&gt;Node5 -->
<g id="edge8" class="edge"><title>Node4&#45;&gt;Node5</title>
<path fill="none" stroke="midnightblue" d="M285.455,-58.4966C304.91,-49.397 333.28,-36.1273 355.091,-25.9253"/>
<polygon fill="midnightblue" stroke="midnightblue" points="356.717,-29.0285 364.293,-21.6212 353.752,-22.6878 356.717,-29.0285"/>
</g>
<!-- Node7 -->
<g id="node13" class="node"><title>Node7</title>
<polygon fill="white" stroke="#bfbfbf" points="49.5,-0.5 49.5,-21.5 98.5,-21.5 98.5,-0.5 49.5,-0.5"/>
<text text-anchor="middle" x="74" y="-8.5" font-family="Helvetica,sans-Serif" font-size="10.00">stdint.h</text>
</g>
<!-- Node6&#45;&gt;Node7 -->
<g id="edge12" class="edge"><title>Node6&#45;&gt;Node7</title>
<path fill="none" stroke="midnightblue" d="M74,-58.3619C74,-50.9219 74,-40.7427 74,-31.7276"/>
<polygon fill="midnightblue" stroke="midnightblue" points="77.5001,-31.5706 74,-21.5707 70.5001,-31.5707 77.5001,-31.5706"/>
</g>
</g>
</svg>
