<?xml version="1.0" encoding="UTF-8" standalone="no"?>
<!DOCTYPE svg PUBLIC "-//W3C//DTD SVG 1.1//EN"
 "http://www.w3.org/Graphics/SVG/1.1/DTD/svg11.dtd">
<!-- Generated by graphviz version 2.26.3 (20100126.1600)
 -->
<!-- Title: G Pages: 1 -->
<svg width="1620pt" height="274pt"
 viewBox="0.00 0.00 1620.00 274.00" xmlns="http://www.w3.org/2000/svg" xmlns:xlink="http://www.w3.org/1999/xlink">
<g id="graph1" class="graph" transform="scale(1 1) rotate(0) translate(4 270)">
<title>G</title>
<polygon fill="white" stroke="white" points="-4,5 -4,-270 1617,-270 1617,5 -4,5"/>
<!-- Node1 -->
<g id="node1" class="node"><title>Node1</title>
<polygon fill="#bfbfbf" stroke="black" points="1528,-50.5 1528,-71.5 1612,-71.5 1612,-50.5 1528,-50.5"/>
<text text-anchor="middle" x="1570" y="-58.5" font-family="Helvetica,sans-Serif" font-size="10.00">gaia::ui::Switch</text>
</g>
<!-- Node2 -->
<g id="node2" class="node"><title>Node2</title>
<a xlink:href="../../de/d6f/classgaia_1_1ui_1_1_compound_button.html" target="_top" xlink:title="A button with two states, checked and unchecked.">
<polygon fill="white" stroke="black" points="1360,-50.5 1360,-71.5 1490,-71.5 1490,-50.5 1360,-50.5"/>
<text text-anchor="middle" x="1425" y="-58.5" font-family="Helvetica,sans-Serif" font-size="10.00">gaia::ui::CompoundButton</text>
</a>
</g>
<!-- Node2&#45;&gt;Node1 -->
<g id="edge2" class="edge"><title>Node2&#45;&gt;Node1</title>
<path fill="none" stroke="midnightblue" d="M1500.51,-61C1509.92,-61 1519.28,-61 1527.92,-61"/>
<polygon fill="midnightblue" stroke="midnightblue" points="1500.29,-57.5001 1490.29,-61 1500.29,-64.5001 1500.29,-57.5001"/>
</g>
<!-- Node3 -->
<g id="node4" class="node"><title>Node3</title>
<a xlink:href="../../dc/d51/classgaia_1_1ui_1_1_button.html" target="_top" xlink:title="Represents a push&#45;button widget.">
<polygon fill="white" stroke="black" points="1189.5,-50.5 1189.5,-71.5 1272.5,-71.5 1272.5,-50.5 1189.5,-50.5"/>
<text text-anchor="middle" x="1231" y="-58.5" font-family="Helvetica,sans-Serif" font-size="10.00">gaia::ui::Button</text>
</a>
</g>
<!-- Node3&#45;&gt;Node2 -->
<g id="edge4" class="edge"><title>Node3&#45;&gt;Node2</title>
<path fill="none" stroke="midnightblue" d="M1282.79,-61C1306.44,-61 1334.71,-61 1359.79,-61"/>
<polygon fill="midnightblue" stroke="midnightblue" points="1282.62,-57.5001 1272.62,-61 1282.62,-64.5001 1282.62,-57.5001"/>
</g>
<!-- Node4 -->
<g id="node6" class="node"><title>Node4</title>
<a xlink:href="../../d9/d0f/classgaia_1_1ui_1_1_text_widget.html" target="_top" xlink:title="Displays text to the user and optionally allows them to edit it.">
<polygon fill="white" stroke="black" points="930,-50.5 930,-71.5 1034,-71.5 1034,-50.5 930,-50.5"/>
<text text-anchor="middle" x="982" y="-58.5" font-family="Helvetica,sans-Serif" font-size="10.00">gaia::ui::TextWidget</text>
</a>
</g>
<!-- Node4&#45;&gt;Node3 -->
<g id="edge6" class="edge"><title>Node4&#45;&gt;Node3</title>
<path fill="none" stroke="midnightblue" d="M1044.2,-61C1089.46,-61 1149.53,-61 1189.18,-61"/>
<polygon fill="midnightblue" stroke="midnightblue" points="1044.2,-57.5001 1034.2,-61 1044.2,-64.5001 1044.2,-57.5001"/>
</g>
<!-- Node5 -->
<g id="node8" class="node"><title>Node5</title>
<a xlink:href="../../d8/dac/classgaia_1_1core_1_1_widget.html" target="_top" xlink:title="The Widget class is the base class of all user interface component.">
<polygon fill="white" stroke="black" points="563,-125.5 563,-146.5 659,-146.5 659,-125.5 563,-125.5"/>
<text text-anchor="middle" x="611" y="-133.5" font-family="Helvetica,sans-Serif" font-size="10.00">gaia::core::Widget</text>
</a>
</g>
<!-- Node5&#45;&gt;Node4 -->
<g id="edge8" class="edge"><title>Node5&#45;&gt;Node4</title>
<path fill="none" stroke="midnightblue" d="M669.314,-124.211C740.873,-109.745 861.13,-85.4347 929.782,-71.5563"/>
<polygon fill="midnightblue" stroke="midnightblue" points="668.23,-120.86 659.121,-126.272 669.617,-127.721 668.23,-120.86"/>
</g>
<!-- Node8 -->
<g id="node14" class="node"><title>Node8</title>
<a xlink:href="../../db/d6c/classgaia_1_1core_1_1_widget_controller.html" target="_top" xlink:title="Define the default widget layout to put sets of layout in it.">
<polygon fill="white" stroke="black" points="913,-96.5 913,-117.5 1051,-117.5 1051,-96.5 913,-96.5"/>
<text text-anchor="middle" x="982" y="-104.5" font-family="Helvetica,sans-Serif" font-size="10.00">gaia::core::WidgetController</text>
</a>
</g>
<!-- Node5&#45;&gt;Node8 -->
<g id="edge16" class="edge"><title>Node5&#45;&gt;Node8</title>
<path fill="none" stroke="midnightblue" d="M669.348,-133.881C720.272,-131.76 796.122,-127.948 862,-122 878.519,-120.509 896.271,-118.509 912.921,-116.457"/>
<polygon fill="midnightblue" stroke="midnightblue" points="669.039,-130.39 659.19,-134.295 669.324,-137.384 669.039,-130.39"/>
</g>
<!-- Node6 -->
<g id="node10" class="node"><title>Node6</title>
<a xlink:href="../../d0/db2/classgaia_1_1core_1_1_property_animatable.html" target="_top" xlink:title="Any animation object need to implement PropertyAnimatable because of setting value.">
<polygon fill="white" stroke="black" points="148.5,-160.5 148.5,-181.5 299.5,-181.5 299.5,-160.5 148.5,-160.5"/>
<text text-anchor="middle" x="224" y="-168.5" font-family="Helvetica,sans-Serif" font-size="10.00">gaia::core::PropertyAnimatable</text>
</a>
</g>
<!-- Node6&#45;&gt;Node5 -->
<g id="edge10" class="edge"><title>Node6&#45;&gt;Node5</title>
<path fill="none" stroke="midnightblue" d="M309.746,-164.659C357.533,-160.98 418.1,-156.081 472,-151 502.206,-148.153 536.054,-144.51 562.786,-141.527"/>
<polygon fill="midnightblue" stroke="midnightblue" points="309.453,-161.171 299.75,-165.425 309.988,-168.15 309.453,-161.171"/>
</g>
<!-- Node7 -->
<g id="node12" class="node"><title>Node7</title>
<a xlink:href="../../d5/dfb/classgaia_1_1core_1_1_scene.html" target="_top" xlink:title="A Scene is used to build a visual interface.">
<polygon fill="white" stroke="black" points="1184.5,-150.5 1184.5,-171.5 1277.5,-171.5 1277.5,-150.5 1184.5,-150.5"/>
<text text-anchor="middle" x="1231" y="-158.5" font-family="Helvetica,sans-Serif" font-size="10.00">gaia::core::Scene</text>
</a>
</g>
<!-- Node7&#45;&gt;Node5 -->
<g id="edge12" class="edge"><title>Node7&#45;&gt;Node5</title>
<path fill="none" stroke="#9a32cd" stroke-dasharray="5,2" d="M1174,-158.701C1052.91,-153.819 771.929,-142.489 659.134,-137.941"/>
<polygon fill="#9a32cd" stroke="#9a32cd" points="1174.04,-162.206 1184.17,-159.112 1174.32,-155.211 1174.04,-162.206"/>
<text text-anchor="middle" x="982" y="-158" font-family="Helvetica,sans-Serif" font-size="10.00"> mpScene</text>
</g>
<!-- Node7&#45;&gt;Node8 -->
<g id="edge20" class="edge"><title>Node7&#45;&gt;Node8</title>
<path fill="none" stroke="#9a32cd" stroke-dasharray="5,2" d="M1216.68,-142.363C1204.81,-128.565 1186.6,-110.853 1166,-103 1121.81,-86.1523 1067.22,-90.1217 1029.02,-96.4693"/>
<polygon fill="#9a32cd" stroke="#9a32cd" points="1214.16,-144.816 1223.21,-150.326 1219.57,-140.375 1214.16,-144.816"/>
<text text-anchor="middle" x="1134" y="-107" font-family="Helvetica,sans-Serif" font-size="10.00"> mpScene</text>
</g>
<!-- Node14 -->
<g id="node29" class="node"><title>Node14</title>
<a xlink:href="../../db/d3f/classgaia_1_1core_1_1_page.html" target="_top" xlink:title="An page is a single, focused thing that the user can do.">
<polygon fill="white" stroke="black" points="1381,-150.5 1381,-171.5 1469,-171.5 1469,-150.5 1381,-150.5"/>
<text text-anchor="middle" x="1425" y="-158.5" font-family="Helvetica,sans-Serif" font-size="10.00">gaia::core::Page</text>
</a>
</g>
<!-- Node7&#45;&gt;Node14 -->
<g id="edge34" class="edge"><title>Node7&#45;&gt;Node14</title>
<path fill="none" stroke="#9a32cd" stroke-dasharray="5,2" d="M1288.16,-161C1317.75,-161 1353.34,-161 1380.8,-161"/>
<polygon fill="#9a32cd" stroke="#9a32cd" points="1287.96,-157.5 1277.96,-161 1287.96,-164.5 1287.96,-157.5"/>
<text text-anchor="middle" x="1319" y="-165" font-family="Helvetica,sans-Serif" font-size="10.00"> mpScene</text>
</g>
<!-- Node8&#45;&gt;Node7 -->
<g id="edge14" class="edge"><title>Node8&#45;&gt;Node7</title>
<path fill="none" stroke="#9a32cd" stroke-dasharray="5,2" d="M1061.42,-114.289C1094.18,-118.418 1132.3,-124.684 1166,-134 1180.96,-138.135 1197.07,-144.812 1209.51,-150.492"/>
<polygon fill="#9a32cd" stroke="#9a32cd" points="1061.78,-110.807 1051.43,-113.075 1060.94,-117.756 1061.78,-110.807"/>
<text text-anchor="middle" x="1134" y="-138" font-family="Helvetica,sans-Serif" font-size="10.00"> mpController</text>
</g>
<!-- Node9 -->
<g id="node17" class="node"><title>Node9</title>
<a xlink:href="../../dd/de0/classgaia_1_1core_1_1_event_control.html" target="_top" xlink:title="EventControl is used to dispatch event and register listener.">
<polygon fill="white" stroke="black" points="550,-69.5 550,-90.5 672,-90.5 672,-69.5 550,-69.5"/>
<text text-anchor="middle" x="611" y="-77.5" font-family="Helvetica,sans-Serif" font-size="10.00">gaia::core::EventControl</text>
</a>
</g>
<!-- Node9&#45;&gt;Node4 -->
<g id="edge38" class="edge"><title>Node9&#45;&gt;Node4</title>
<path fill="none" stroke="midnightblue" d="M682.672,-76.3294C755.151,-72.6176 865.422,-66.9703 929.941,-63.6661"/>
<polygon fill="midnightblue" stroke="midnightblue" points="682.071,-72.8556 672.263,-76.8625 682.429,-79.8464 682.071,-72.8556"/>
</g>
<!-- Node9&#45;&gt;Node8 -->
<g id="edge18" class="edge"><title>Node9&#45;&gt;Node8</title>
<path fill="none" stroke="midnightblue" d="M682.635,-85.2134C749.022,-90.0447 847.139,-97.1853 912.751,-101.96"/>
<polygon fill="midnightblue" stroke="midnightblue" points="682.491,-81.6937 672.263,-84.4585 681.983,-88.6752 682.491,-81.6937"/>
</g>
<!-- Node10 -->
<g id="node20" class="node"><title>Node10</title>
<a xlink:href="../../de/dad/classgaia_1_1content_1_1_resources.html" target="_top" xlink:title="Class for accessing an application&#39;s resources.">
<polygon fill="white" stroke="black" points="919,-192.5 919,-213.5 1045,-213.5 1045,-192.5 919,-192.5"/>
<text text-anchor="middle" x="982" y="-200.5" font-family="Helvetica,sans-Serif" font-size="10.00">gaia::content::Resources</text>
</a>
</g>
<!-- Node10&#45;&gt;Node7 -->
<g id="edge22" class="edge"><title>Node10&#45;&gt;Node7</title>
<path fill="none" stroke="#9a32cd" stroke-dasharray="5,2" d="M1055.43,-192.877C1089.19,-187.953 1129.71,-181.663 1166,-175 1171.9,-173.916 1178.09,-172.695 1184.2,-171.437"/>
<polygon fill="#9a32cd" stroke="#9a32cd" points="1054.57,-189.463 1045.18,-194.36 1055.58,-196.391 1054.57,-189.463"/>
<text text-anchor="middle" x="1134" y="-189" font-family="Helvetica,sans-Serif" font-size="10.00"> mpResources</text>
</g>
<!-- Node11 -->
<g id="node22" class="node"><title>Node11</title>
<a xlink:href="../../df/d5d/classgaia_1_1base_1_1_vector.html" target="_top" xlink:title="gaia::base::Vector\&lt; gaia::ui::DialogBox * \&gt;">
<polygon fill="white" stroke="black" points="880.5,-232.5 880.5,-253.5 1083.5,-253.5 1083.5,-232.5 880.5,-232.5"/>
<text text-anchor="middle" x="982" y="-240.5" font-family="Helvetica,sans-Serif" font-size="10.00">gaia::base::Vector&lt; gaia::ui::DialogBox * &gt;</text>
</a>
</g>
<!-- Node11&#45;&gt;Node7 -->
<g id="edge24" class="edge"><title>Node11&#45;&gt;Node7</title>
<path fill="none" stroke="#9a32cd" stroke-dasharray="5,2" d="M1069.23,-230.503C1100.55,-224.228 1135.62,-215.085 1166,-202 1184.63,-193.977 1204.05,-181.027 1216.76,-171.83"/>
<polygon fill="#9a32cd" stroke="#9a32cd" points="1068.36,-227.107 1059.2,-232.441 1069.69,-233.98 1068.36,-227.107"/>
<text text-anchor="middle" x="1134" y="-227" font-family="Helvetica,sans-Serif" font-size="10.00"> mDialogList</text>
</g>
<!-- Node12 -->
<g id="node24" class="node"><title>Node12</title>
<a xlink:href="../../d0/d21/classgaia_1_1base_1_1_vector_impl.html" target="_top" xlink:title="Implements vector data structure equipped with copy&#45;on&#45;write mechanism.">
<polygon fill="white" stroke="black" points="166.5,-209.5 166.5,-230.5 281.5,-230.5 281.5,-209.5 166.5,-209.5"/>
<text text-anchor="middle" x="224" y="-217.5" font-family="Helvetica,sans-Serif" font-size="10.00">gaia::base::VectorImpl</text>
</a>
</g>
<!-- Node12&#45;&gt;Node11 -->
<g id="edge26" class="edge"><title>Node12&#45;&gt;Node11</title>
<path fill="none" stroke="#8b1a1a" d="M291.517,-221.941C388.841,-224.75 574.21,-230.146 732,-235 780.83,-236.502 835.023,-238.229 880.435,-239.693"/>
<polygon fill="#8b1a1a" stroke="#8b1a1a" points="291.617,-218.442 281.52,-221.652 291.415,-225.439 291.617,-218.442"/>
</g>
<!-- Node13 -->
<g id="node26" class="node"><title>Node13</title>
<a xlink:href="../../df/d5d/classgaia_1_1base_1_1_vector.html" target="_top" xlink:title="This class implements the vector data structure.">
<polygon fill="white" stroke="black" points="541,-244.5 541,-265.5 681,-265.5 681,-244.5 541,-244.5"/>
<text text-anchor="middle" x="611" y="-252.5" font-family="Helvetica,sans-Serif" font-size="10.00">gaia::base::Vector&lt; TYPE &gt;</text>
</a>
</g>
<!-- Node12&#45;&gt;Node13 -->
<g id="edge30" class="edge"><title>Node12&#45;&gt;Node13</title>
<path fill="none" stroke="#8b1a1a" d="M291.598,-227.362C300.475,-228.279 309.454,-229.181 318,-230 394.103,-237.294 481.43,-244.609 540.809,-249.425"/>
<polygon fill="#8b1a1a" stroke="#8b1a1a" points="291.956,-223.881 281.646,-226.325 291.23,-230.843 291.956,-223.881"/>
</g>
<!-- Node13&#45;&gt;Node11 -->
<g id="edge28" class="edge"><title>Node13&#45;&gt;Node11</title>
<path fill="none" stroke="orange" stroke-dasharray="5,2" d="M691.329,-252.402C746.682,-250.611 820.694,-248.217 880.18,-246.293"/>
<polygon fill="orange" stroke="orange" points="691.1,-248.907 681.218,-252.729 691.326,-255.904 691.1,-248.907"/>
<text text-anchor="middle" x="806" y="-254" font-family="Helvetica,sans-Serif" font-size="10.00"> &lt; gaia::ui::DialogBox * &gt;</text>
</g>
<!-- Node14&#45;&gt;Node7 -->
<g id="edge32" class="edge"><title>Node14&#45;&gt;Node7</title>
<path fill="none" stroke="#9a32cd" stroke-dasharray="5,2" d="M1375.54,-148.454C1351.54,-143.904 1322.27,-140.622 1296,-144 1285.7,-145.324 1274.71,-147.782 1264.75,-150.426"/>
<polygon fill="#9a32cd" stroke="#9a32cd" points="1374.99,-151.913 1385.49,-150.467 1376.38,-145.053 1374.99,-151.913"/>
<text text-anchor="middle" x="1319" y="-148" font-family="Helvetica,sans-Serif" font-size="10.00"> mpPage</text>
</g>
<!-- Node15 -->
<g id="node32" class="node"><title>Node15</title>
<a xlink:href="../../db/d88/classgaia_1_1core_1_1_widget_tag.html" target="_top" xlink:title="gaia::core::WidgetTag">
<polygon fill="white" stroke="black" points="167.5,-120.5 167.5,-141.5 280.5,-141.5 280.5,-120.5 167.5,-120.5"/>
<text text-anchor="middle" x="224" y="-128.5" font-family="Helvetica,sans-Serif" font-size="10.00">gaia::core::WidgetTag</text>
</a>
</g>
<!-- Node15&#45;&gt;Node5 -->
<g id="edge36" class="edge"><title>Node15&#45;&gt;Node5</title>
<path fill="none" stroke="#9a32cd" stroke-dasharray="5,2" d="M290.823,-131.863C368.314,-132.865 494.158,-134.49 562.722,-135.376"/>
<polygon fill="#9a32cd" stroke="#9a32cd" points="290.732,-128.362 280.688,-131.732 290.641,-135.361 290.732,-128.362"/>
<text text-anchor="middle" x="395" y="-138" font-family="Helvetica,sans-Serif" font-size="10.00"> mpTag</text>
</g>
<!-- Node16 -->
<g id="node35" class="node"><title>Node16</title>
<a xlink:href="../../d2/db0/classgaia_1_1base_1_1_array.html" target="_top" xlink:title="gaia::base::Array\&lt; const gaia::graphics::Drawer * \&gt;">
<polygon fill="white" stroke="black" points="490.5,-22.5 490.5,-43.5 731.5,-43.5 731.5,-22.5 490.5,-22.5"/>
<text text-anchor="middle" x="611" y="-30.5" font-family="Helvetica,sans-Serif" font-size="10.00">gaia::base::Array&lt; const gaia::graphics::Drawer * &gt;</text>
</a>
</g>
<!-- Node16&#45;&gt;Node4 -->
<g id="edge40" class="edge"><title>Node16&#45;&gt;Node4</title>
<path fill="none" stroke="#9a32cd" stroke-dasharray="5,2" d="M741.962,-41.2787C780.632,-43.8829 823.032,-46.8948 862,-50 884.21,-51.7698 908.709,-53.9709 929.748,-55.938"/>
<polygon fill="#9a32cd" stroke="#9a32cd" points="741.902,-37.7668 731.69,-40.5905 741.434,-44.7512 741.902,-37.7668"/>
<text text-anchor="middle" x="806" y="-54" font-family="Helvetica,sans-Serif" font-size="10.00"> mDrawers</text>
</g>
<!-- Node17 -->
<g id="node37" class="node"><title>Node17</title>
<a xlink:href="../../d2/d80/classgaia_1_1base_1_1_array_impl.html" target="_top" xlink:title="Implements array data structure and its operation methods.">
<polygon fill="white" stroke="black" points="0,-23.5 0,-44.5 110,-44.5 110,-23.5 0,-23.5"/>
<text text-anchor="middle" x="55" y="-31.5" font-family="Helvetica,sans-Serif" font-size="10.00">gaia::base::ArrayImpl</text>
</a>
</g>
<!-- Node17&#45;&gt;Node16 -->
<g id="edge42" class="edge"><title>Node17&#45;&gt;Node16</title>
<path fill="none" stroke="#8b1a1a" d="M120.22,-35.8759C122.847,-35.9232 125.449,-35.9651 128,-36 280.875,-38.0938 319.12,-37.6496 472,-36 478.034,-35.9349 484.215,-35.8539 490.457,-35.7607"/>
<polygon fill="#8b1a1a" stroke="#8b1a1a" points="120.073,-32.3723 110.004,-35.6682 119.931,-39.3708 120.073,-32.3723"/>
</g>
<!-- Node18 -->
<g id="node39" class="node"><title>Node18</title>
<a xlink:href="../../d2/db0/classgaia_1_1base_1_1_array.html" target="_top" xlink:title="Implements array to replace C&#45;style array.">
<polygon fill="white" stroke="black" points="156.5,-0.5 156.5,-21.5 291.5,-21.5 291.5,-0.5 156.5,-0.5"/>
<text text-anchor="middle" x="224" y="-8.5" font-family="Helvetica,sans-Serif" font-size="10.00">gaia::base::Array&lt; TYPE &gt;</text>
</a>
</g>
<!-- Node17&#45;&gt;Node18 -->
<g id="edge46" class="edge"><title>Node17&#45;&gt;Node18</title>
<path fill="none" stroke="#8b1a1a" d="M120.531,-25.0816C132.31,-23.4785 144.608,-21.8048 156.444,-20.194"/>
<polygon fill="#8b1a1a" stroke="#8b1a1a" points="119.774,-21.6523 110.337,-26.4689 120.718,-28.5884 119.774,-21.6523"/>
</g>
<!-- Node18&#45;&gt;Node16 -->
<g id="edge44" class="edge"><title>Node18&#45;&gt;Node16</title>
<path fill="none" stroke="orange" stroke-dasharray="5,2" d="M301.839,-14.2972C350.715,-16.4839 415.058,-19.5746 472,-23 478.038,-23.3632 484.222,-23.7508 490.466,-24.1547"/>
<polygon fill="orange" stroke="orange" points="301.798,-10.7921 291.652,-13.8446 301.487,-17.7852 301.798,-10.7921"/>
<text text-anchor="middle" x="395" y="-27" font-family="Helvetica,sans-Serif" font-size="10.00"> &lt; const gaia::graphics::Drawer * &gt;</text>
</g>
</g>
</svg>
