<?xml version="1.0" encoding="UTF-8" standalone="no"?>
<!DOCTYPE svg PUBLIC "-//W3C//DTD SVG 1.1//EN"
 "http://www.w3.org/Graphics/SVG/1.1/DTD/svg11.dtd">
<!-- Generated by graphviz version 2.26.3 (20100126.1600)
 -->
<!-- Title: G Pages: 1 -->
<svg width="561pt" height="262pt"
 viewBox="0.00 0.00 561.00 262.00" xmlns="http://www.w3.org/2000/svg" xmlns:xlink="http://www.w3.org/1999/xlink">
<g id="graph1" class="graph" transform="scale(1 1) rotate(0) translate(4 258)">
<title>G</title>
<polygon fill="white" stroke="white" points="-4,5 -4,-258 558,-258 558,5 -4,5"/>
<!-- Node1 -->
<g id="node1" class="node"><title>Node1</title>
<polygon fill="#bfbfbf" stroke="black" points="299,-232.5 299,-253.5 549,-253.5 549,-232.5 299,-232.5"/>
<text text-anchor="middle" x="424" y="-240.5" font-family="Helvetica,sans-Serif" font-size="10.00">/home/vilon_tao/gaia/sdk/include/gaia/ui/EditWidget.h</text>
</g>
<!-- Node2 -->
<g id="node3" class="node"><title>Node2</title>
<a xlink:href="../../d8/d13/_text_widget_8h.html" target="_top" xlink:title="gaia/ui/TextWidget.h">
<polygon fill="white" stroke="black" points="225.5,-174.5 225.5,-195.5 332.5,-195.5 332.5,-174.5 225.5,-174.5"/>
<text text-anchor="middle" x="279" y="-182.5" font-family="Helvetica,sans-Serif" font-size="10.00">gaia/ui/TextWidget.h</text>
</a>
</g>
<!-- Node1&#45;&gt;Node2 -->
<g id="edge2" class="edge"><title>Node1&#45;&gt;Node2</title>
<path fill="none" stroke="midnightblue" d="M397.742,-232.497C374.584,-223.234 340.625,-209.65 314.948,-199.379"/>
<polygon fill="midnightblue" stroke="midnightblue" points="316.138,-196.086 305.553,-195.621 313.538,-202.585 316.138,-196.086"/>
</g>
<!-- Node9 -->
<g id="node18" class="node"><title>Node9</title>
<polygon fill="white" stroke="#bfbfbf" points="494.5,-0.5 494.5,-21.5 543.5,-21.5 543.5,-0.5 494.5,-0.5"/>
<text text-anchor="middle" x="519" y="-8.5" font-family="Helvetica,sans-Serif" font-size="10.00">stdint.h</text>
</g>
<!-- Node1&#45;&gt;Node9 -->
<g id="edge20" class="edge"><title>Node1&#45;&gt;Node9</title>
<path fill="none" stroke="midnightblue" d="M436.635,-232.397C463.929,-208.56 527.803,-147.516 551,-80 557.041,-62.419 546.76,-43.3076 536.282,-29.6658"/>
<polygon fill="midnightblue" stroke="midnightblue" points="538.954,-27.4051 529.877,-21.9413 533.566,-31.8733 538.954,-27.4051"/>
</g>
<!-- Node3 -->
<g id="node5" class="node"><title>Node3</title>
<a xlink:href="../../d3/dd0/_event_control_8h.html" target="_top" xlink:title="gaia/core/event/EventControl.h">
<polygon fill="white" stroke="black" points="0,-116.5 0,-137.5 152,-137.5 152,-116.5 0,-116.5"/>
<text text-anchor="middle" x="76" y="-124.5" font-family="Helvetica,sans-Serif" font-size="10.00">gaia/core/event/EventControl.h</text>
</a>
</g>
<!-- Node2&#45;&gt;Node3 -->
<g id="edge4" class="edge"><title>Node2&#45;&gt;Node3</title>
<path fill="none" stroke="midnightblue" d="M242.238,-174.497C208.714,-164.918 159.018,-150.72 122.696,-140.342"/>
<polygon fill="midnightblue" stroke="midnightblue" points="123.408,-136.905 112.831,-137.523 121.484,-143.636 123.408,-136.905"/>
</g>
<!-- Node5 -->
<g id="node9" class="node"><title>Node5</title>
<a xlink:href="../../d4/d75/_widget_8h.html" target="_top" xlink:title="gaia/core/vision/Widget.h">
<polygon fill="white" stroke="black" points="215.5,-116.5 215.5,-137.5 342.5,-137.5 342.5,-116.5 215.5,-116.5"/>
<text text-anchor="middle" x="279" y="-124.5" font-family="Helvetica,sans-Serif" font-size="10.00">gaia/core/vision/Widget.h</text>
</a>
</g>
<!-- Node2&#45;&gt;Node5 -->
<g id="edge8" class="edge"><title>Node2&#45;&gt;Node5</title>
<path fill="none" stroke="midnightblue" d="M279,-174.362C279,-166.922 279,-156.743 279,-147.728"/>
<polygon fill="midnightblue" stroke="midnightblue" points="282.5,-147.571 279,-137.571 275.5,-147.571 282.5,-147.571"/>
</g>
<!-- Node4 -->
<g id="node7" class="node"><title>Node4</title>
<polygon fill="white" stroke="#bfbfbf" points="121,-0.5 121,-21.5 189,-21.5 189,-0.5 121,-0.5"/>
<text text-anchor="middle" x="155" y="-8.5" font-family="Helvetica,sans-Serif" font-size="10.00">sys/types.h</text>
</g>
<!-- Node3&#45;&gt;Node4 -->
<g id="edge6" class="edge"><title>Node3&#45;&gt;Node4</title>
<path fill="none" stroke="midnightblue" d="M65.7074,-116.072C53.6546,-101.896 36.7951,-76.7624 49,-58 62.7691,-36.8329 88.4943,-25.1249 111.153,-18.6883"/>
<polygon fill="midnightblue" stroke="midnightblue" points="112.15,-22.0458 120.962,-16.1635 110.405,-15.2667 112.15,-22.0458"/>
</g>
<!-- Node6 -->
<g id="node11" class="node"><title>Node6</title>
<a xlink:href="../../d1/dd0/gmacros_8h.html" target="_top" xlink:title="gaia/base/gmacros.h">
<polygon fill="white" stroke="black" points="57.5,-58.5 57.5,-79.5 164.5,-79.5 164.5,-58.5 57.5,-58.5"/>
<text text-anchor="middle" x="111" y="-66.5" font-family="Helvetica,sans-Serif" font-size="10.00">gaia/base/gmacros.h</text>
</a>
</g>
<!-- Node5&#45;&gt;Node6 -->
<g id="edge10" class="edge"><title>Node5&#45;&gt;Node6</title>
<path fill="none" stroke="midnightblue" d="M248.576,-116.497C221.306,-107.082 181.107,-93.2036 151.196,-82.8773"/>
<polygon fill="midnightblue" stroke="midnightblue" points="152.075,-79.4781 141.481,-79.5231 149.791,-86.0949 152.075,-79.4781"/>
</g>
<!-- Node7 -->
<g id="node13" class="node"><title>Node7</title>
<a xlink:href="../../d0/d92/_property_animatable_8h.html" target="_top" xlink:title="gaia/core/animator/PropertyAnimatable.h">
<polygon fill="white" stroke="black" points="182,-58.5 182,-79.5 376,-79.5 376,-58.5 182,-58.5"/>
<text text-anchor="middle" x="279" y="-66.5" font-family="Helvetica,sans-Serif" font-size="10.00">gaia/core/animator/PropertyAnimatable.h</text>
</a>
</g>
<!-- Node5&#45;&gt;Node7 -->
<g id="edge12" class="edge"><title>Node5&#45;&gt;Node7</title>
<path fill="none" stroke="midnightblue" d="M279,-116.362C279,-108.922 279,-98.7427 279,-89.7276"/>
<polygon fill="midnightblue" stroke="midnightblue" points="282.5,-89.5706 279,-79.5707 275.5,-89.5707 282.5,-89.5706"/>
</g>
<!-- Node8 -->
<g id="node16" class="node"><title>Node8</title>
<a xlink:href="../../d8/d50/_widget_core_8h.html" target="_top" xlink:title="gaia/core/vision/WidgetCore.h">
<polygon fill="white" stroke="black" points="394,-58.5 394,-79.5 542,-79.5 542,-58.5 394,-58.5"/>
<text text-anchor="middle" x="468" y="-66.5" font-family="Helvetica,sans-Serif" font-size="10.00">gaia/core/vision/WidgetCore.h</text>
</a>
</g>
<!-- Node5&#45;&gt;Node8 -->
<g id="edge16" class="edge"><title>Node5&#45;&gt;Node8</title>
<path fill="none" stroke="midnightblue" d="M313.226,-116.497C344.305,-106.959 390.312,-92.8408 424.09,-82.475"/>
<polygon fill="midnightblue" stroke="midnightblue" points="425.176,-85.8029 433.709,-79.5231 423.123,-79.1109 425.176,-85.8029"/>
</g>
<!-- Node7&#45;&gt;Node4 -->
<g id="edge14" class="edge"><title>Node7&#45;&gt;Node4</title>
<path fill="none" stroke="midnightblue" d="M256.545,-58.4966C237.09,-49.397 208.72,-36.1273 186.909,-25.9253"/>
<polygon fill="midnightblue" stroke="midnightblue" points="188.248,-22.6878 177.707,-21.6212 185.283,-29.0285 188.248,-22.6878"/>
</g>
<!-- Node8&#45;&gt;Node9 -->
<g id="edge18" class="edge"><title>Node8&#45;&gt;Node9</title>
<path fill="none" stroke="midnightblue" d="M477.354,-58.3619C484.543,-50.1861 494.641,-38.7025 503.093,-29.0907"/>
<polygon fill="midnightblue" stroke="midnightblue" points="505.73,-31.3916 509.705,-21.5707 500.473,-26.7692 505.73,-31.3916"/>
</g>
</g>
</svg>
