<?xml version="1.0" encoding="UTF-8" standalone="no"?>
<!DOCTYPE svg PUBLIC "-//W3C//DTD SVG 1.1//EN"
 "http://www.w3.org/Graphics/SVG/1.1/DTD/svg11.dtd">
<!-- Generated by graphviz version 2.26.3 (20100126.1600)
 -->
<!-- Title: G Pages: 1 -->
<svg width="361pt" height="378pt"
 viewBox="0.00 0.00 361.00 378.00" xmlns="http://www.w3.org/2000/svg" xmlns:xlink="http://www.w3.org/1999/xlink">
<g id="graph1" class="graph" transform="scale(1 1) rotate(0) translate(4 374)">
<title>G</title>
<polygon fill="white" stroke="white" points="-4,5 -4,-374 358,-374 358,5 -4,5"/>
<!-- Node1 -->
<g id="node1" class="node"><title>Node1</title>
<polygon fill="#bfbfbf" stroke="black" points="40.5,-348.5 40.5,-369.5 353.5,-369.5 353.5,-348.5 40.5,-348.5"/>
<text text-anchor="middle" x="197" y="-356.5" font-family="Helvetica,sans-Serif" font-size="10.00">/home/vilon_tao/gaia/sdk/include/gaia/graphics/BitmapDrawerPlus.h</text>
</g>
<!-- Node2 -->
<g id="node3" class="node"><title>Node2</title>
<a xlink:href="../../d1/d72/_bitmap_drawer_8h.html" target="_top" xlink:title="gaia/graphics/BitmapDrawer.h">
<polygon fill="white" stroke="black" points="123,-290.5 123,-311.5 271,-311.5 271,-290.5 123,-290.5"/>
<text text-anchor="middle" x="197" y="-298.5" font-family="Helvetica,sans-Serif" font-size="10.00">gaia/graphics/BitmapDrawer.h</text>
</a>
</g>
<!-- Node1&#45;&gt;Node2 -->
<g id="edge2" class="edge"><title>Node1&#45;&gt;Node2</title>
<path fill="none" stroke="midnightblue" d="M197,-348.362C197,-340.922 197,-330.743 197,-321.728"/>
<polygon fill="midnightblue" stroke="midnightblue" points="200.5,-321.571 197,-311.571 193.5,-321.571 200.5,-321.571"/>
</g>
<!-- Node3 -->
<g id="node5" class="node"><title>Node3</title>
<a xlink:href="../../d7/dc0/_drawer_8h.html" target="_top" xlink:title="gaia/graphics/Drawer.h">
<polygon fill="white" stroke="black" points="138.5,-232.5 138.5,-253.5 255.5,-253.5 255.5,-232.5 138.5,-232.5"/>
<text text-anchor="middle" x="197" y="-240.5" font-family="Helvetica,sans-Serif" font-size="10.00">gaia/graphics/Drawer.h</text>
</a>
</g>
<!-- Node2&#45;&gt;Node3 -->
<g id="edge4" class="edge"><title>Node2&#45;&gt;Node3</title>
<path fill="none" stroke="midnightblue" d="M197,-290.362C197,-282.922 197,-272.743 197,-263.728"/>
<polygon fill="midnightblue" stroke="midnightblue" points="200.5,-263.571 197,-253.571 193.5,-263.571 200.5,-263.571"/>
</g>
<!-- Node4 -->
<g id="node7" class="node"><title>Node4</title>
<a xlink:href="../../d1/dd0/gmacros_8h.html" target="_top" xlink:title="gaia/base/gmacros.h">
<polygon fill="white" stroke="black" points="7.5,-174.5 7.5,-195.5 114.5,-195.5 114.5,-174.5 7.5,-174.5"/>
<text text-anchor="middle" x="61" y="-182.5" font-family="Helvetica,sans-Serif" font-size="10.00">gaia/base/gmacros.h</text>
</a>
</g>
<!-- Node3&#45;&gt;Node4 -->
<g id="edge6" class="edge"><title>Node3&#45;&gt;Node4</title>
<path fill="none" stroke="midnightblue" d="M172.371,-232.497C150.843,-223.315 119.36,-209.889 95.3554,-199.652"/>
<polygon fill="midnightblue" stroke="midnightblue" points="96.4764,-196.325 85.9049,-195.621 93.7303,-202.764 96.4764,-196.325"/>
</g>
<!-- Node5 -->
<g id="node9" class="node"><title>Node5</title>
<a xlink:href="../../d1/df6/_porter_duff_8h.html" target="_top" xlink:title="gaia/graphics/PorterDuff.h">
<polygon fill="white" stroke="black" points="131.5,-174.5 131.5,-195.5 262.5,-195.5 262.5,-174.5 131.5,-174.5"/>
<text text-anchor="middle" x="197" y="-182.5" font-family="Helvetica,sans-Serif" font-size="10.00">gaia/graphics/PorterDuff.h</text>
</a>
</g>
<!-- Node3&#45;&gt;Node5 -->
<g id="edge8" class="edge"><title>Node3&#45;&gt;Node5</title>
<path fill="none" stroke="midnightblue" d="M197,-232.362C197,-224.922 197,-214.743 197,-205.728"/>
<polygon fill="midnightblue" stroke="midnightblue" points="200.5,-205.571 197,-195.571 193.5,-205.571 200.5,-205.571"/>
</g>
<!-- Node8 -->
<g id="node15" class="node"><title>Node8</title>
<polygon fill="white" stroke="#bfbfbf" points="163,-0.5 163,-21.5 231,-21.5 231,-0.5 163,-0.5"/>
<text text-anchor="middle" x="197" y="-8.5" font-family="Helvetica,sans-Serif" font-size="10.00">sys/types.h</text>
</g>
<!-- Node3&#45;&gt;Node8 -->
<g id="edge20" class="edge"><title>Node3&#45;&gt;Node8</title>
<path fill="none" stroke="midnightblue" d="M226.585,-232.479C242.829,-225.006 261.545,-213.206 271,-196 300.538,-142.248 300.538,-111.752 271,-58 263.318,-44.0198 249.522,-33.6088 235.906,-26.1877"/>
<polygon fill="midnightblue" stroke="midnightblue" points="237.094,-22.8686 226.585,-21.5207 233.96,-29.1278 237.094,-22.8686"/>
</g>
<!-- Node6 -->
<g id="node11" class="node"><title>Node6</title>
<a xlink:href="../../dd/d0b/_hash_map_8h.html" target="_top" xlink:title="gaia/base/HashMap.h">
<polygon fill="white" stroke="black" points="141,-116.5 141,-137.5 253,-137.5 253,-116.5 141,-116.5"/>
<text text-anchor="middle" x="197" y="-124.5" font-family="Helvetica,sans-Serif" font-size="10.00">gaia/base/HashMap.h</text>
</a>
</g>
<!-- Node5&#45;&gt;Node6 -->
<g id="edge10" class="edge"><title>Node5&#45;&gt;Node6</title>
<path fill="none" stroke="midnightblue" d="M197,-174.362C197,-166.922 197,-156.743 197,-147.728"/>
<polygon fill="midnightblue" stroke="midnightblue" points="200.5,-147.571 197,-137.571 193.5,-147.571 200.5,-147.571"/>
</g>
<!-- Node7 -->
<g id="node13" class="node"><title>Node7</title>
<a xlink:href="../../d6/d83/_hash_func_8h.html" target="_top" xlink:title="gaia/base/HashFunc.h">
<polygon fill="white" stroke="black" points="-0.5,-58.5 -0.5,-79.5 114.5,-79.5 114.5,-58.5 -0.5,-58.5"/>
<text text-anchor="middle" x="57" y="-66.5" font-family="Helvetica,sans-Serif" font-size="10.00">gaia/base/HashFunc.h</text>
</a>
</g>
<!-- Node6&#45;&gt;Node7 -->
<g id="edge12" class="edge"><title>Node6&#45;&gt;Node7</title>
<path fill="none" stroke="midnightblue" d="M171.647,-116.497C149.387,-107.275 116.788,-93.7695 92.0369,-83.5153"/>
<polygon fill="midnightblue" stroke="midnightblue" points="93.2156,-80.2152 82.6374,-79.6212 90.5364,-86.6822 93.2156,-80.2152"/>
</g>
<!-- Node9 -->
<g id="node17" class="node"><title>Node9</title>
<a xlink:href="../../dc/d11/_hash_map_impl_8h.html" target="_top" xlink:title="gaia/base/HashMapImpl.h">
<polygon fill="white" stroke="black" points="131.5,-58.5 131.5,-79.5 262.5,-79.5 262.5,-58.5 131.5,-58.5"/>
<text text-anchor="middle" x="197" y="-66.5" font-family="Helvetica,sans-Serif" font-size="10.00">gaia/base/HashMapImpl.h</text>
</a>
</g>
<!-- Node6&#45;&gt;Node9 -->
<g id="edge16" class="edge"><title>Node6&#45;&gt;Node9</title>
<path fill="none" stroke="midnightblue" d="M197,-116.362C197,-108.922 197,-98.7427 197,-89.7276"/>
<polygon fill="midnightblue" stroke="midnightblue" points="200.5,-89.5706 197,-79.5707 193.5,-89.5707 200.5,-89.5706"/>
</g>
<!-- Node7&#45;&gt;Node8 -->
<g id="edge14" class="edge"><title>Node7&#45;&gt;Node8</title>
<path fill="none" stroke="midnightblue" d="M82.3529,-58.4966C104.613,-49.2746 137.212,-35.7695 161.963,-25.5153"/>
<polygon fill="midnightblue" stroke="midnightblue" points="163.464,-28.6822 171.363,-21.6212 160.784,-22.2152 163.464,-28.6822"/>
</g>
<!-- Node9&#45;&gt;Node8 -->
<g id="edge18" class="edge"><title>Node9&#45;&gt;Node8</title>
<path fill="none" stroke="midnightblue" d="M197,-58.3619C197,-50.9219 197,-40.7427 197,-31.7276"/>
<polygon fill="midnightblue" stroke="midnightblue" points="200.5,-31.5706 197,-21.5707 193.5,-31.5707 200.5,-31.5706"/>
</g>
</g>
</svg>
