<?xml version="1.0" encoding="UTF-8" standalone="no"?>
<!DOCTYPE svg PUBLIC "-//W3C//DTD SVG 1.1//EN"
 "http://www.w3.org/Graphics/SVG/1.1/DTD/svg11.dtd">
<!-- Generated by graphviz version 2.26.3 (20100126.1600)
 -->
<!-- Title: G Pages: 1 -->
<svg width="271pt" height="262pt"
 viewBox="0.00 0.00 271.00 262.00" xmlns="http://www.w3.org/2000/svg" xmlns:xlink="http://www.w3.org/1999/xlink">
<g id="graph1" class="graph" transform="scale(1 1) rotate(0) translate(4 258)">
<title>G</title>
<polygon fill="white" stroke="white" points="-4,5 -4,-258 268,-258 268,5 -4,5"/>
<!-- Node1 -->
<g id="node1" class="node"><title>Node1</title>
<polygon fill="#bfbfbf" stroke="black" points="72,-58.5 72,-79.5 204,-79.5 204,-58.5 72,-58.5"/>
<text text-anchor="middle" x="138" y="-66.5" font-family="Helvetica,sans-Serif" font-size="10.00">gaia::ui::RelativeController</text>
</g>
<!-- Node6 -->
<g id="node11" class="node"><title>Node6</title>
<a xlink:href="../../d5/d21/classgaia_1_1ui_1_1_search_edit_widget.html" target="_top" xlink:title="A special EditWidget&#45;like widget with a clear button on its right side.">
<polygon fill="white" stroke="black" points="71.5,-0.5 71.5,-21.5 204.5,-21.5 204.5,-0.5 71.5,-0.5"/>
<text text-anchor="middle" x="138" y="-8.5" font-family="Helvetica,sans-Serif" font-size="10.00">gaia::ui::SearchEditWidget</text>
</a>
</g>
<!-- Node1&#45;&gt;Node6 -->
<g id="edge10" class="edge"><title>Node1&#45;&gt;Node6</title>
<path fill="none" stroke="midnightblue" d="M138,-48.1906C138,-39.1684 138,-28.9941 138,-21.5707"/>
<polygon fill="midnightblue" stroke="midnightblue" points="134.5,-48.3619 138,-58.3619 141.5,-48.3619 134.5,-48.3619"/>
</g>
<!-- Node2 -->
<g id="node2" class="node"><title>Node2</title>
<a xlink:href="../../db/d6c/classgaia_1_1core_1_1_widget_controller.html" target="_top" xlink:title="Define the default widget layout to put sets of layout in it.">
<polygon fill="white" stroke="black" points="69,-116.5 69,-137.5 207,-137.5 207,-116.5 69,-116.5"/>
<text text-anchor="middle" x="138" y="-124.5" font-family="Helvetica,sans-Serif" font-size="10.00">gaia::core::WidgetController</text>
</a>
</g>
<!-- Node2&#45;&gt;Node1 -->
<g id="edge2" class="edge"><title>Node2&#45;&gt;Node1</title>
<path fill="none" stroke="midnightblue" d="M138,-106.191C138,-97.1684 138,-86.9941 138,-79.5707"/>
<polygon fill="midnightblue" stroke="midnightblue" points="134.5,-106.362 138,-116.362 141.5,-106.362 134.5,-106.362"/>
</g>
<!-- Node3 -->
<g id="node4" class="node"><title>Node3</title>
<a xlink:href="../../d8/dac/classgaia_1_1core_1_1_widget.html" target="_top" xlink:title="The Widget class is the base class of all user interface component.">
<polygon fill="white" stroke="black" points="27,-174.5 27,-195.5 123,-195.5 123,-174.5 27,-174.5"/>
<text text-anchor="middle" x="75" y="-182.5" font-family="Helvetica,sans-Serif" font-size="10.00">gaia::core::Widget</text>
</a>
</g>
<!-- Node3&#45;&gt;Node2 -->
<g id="edge4" class="edge"><title>Node3&#45;&gt;Node2</title>
<path fill="none" stroke="midnightblue" d="M94.1118,-167.405C104.688,-157.668 117.48,-145.891 126.518,-137.571"/>
<polygon fill="midnightblue" stroke="midnightblue" points="91.5416,-165.014 86.5552,-174.362 96.2828,-170.164 91.5416,-165.014"/>
</g>
<!-- Node4 -->
<g id="node6" class="node"><title>Node4</title>
<a xlink:href="../../d0/db2/classgaia_1_1core_1_1_property_animatable.html" target="_top" xlink:title="Any animation object need to implement PropertyAnimatable because of setting value.">
<polygon fill="white" stroke="black" points="-0.5,-232.5 -0.5,-253.5 150.5,-253.5 150.5,-232.5 -0.5,-232.5"/>
<text text-anchor="middle" x="75" y="-240.5" font-family="Helvetica,sans-Serif" font-size="10.00">gaia::core::PropertyAnimatable</text>
</a>
</g>
<!-- Node4&#45;&gt;Node3 -->
<g id="edge6" class="edge"><title>Node4&#45;&gt;Node3</title>
<path fill="none" stroke="midnightblue" d="M75,-222.191C75,-213.168 75,-202.994 75,-195.571"/>
<polygon fill="midnightblue" stroke="midnightblue" points="71.5001,-222.362 75,-232.362 78.5001,-222.362 71.5001,-222.362"/>
</g>
<!-- Node5 -->
<g id="node8" class="node"><title>Node5</title>
<a xlink:href="../../dd/de0/classgaia_1_1core_1_1_event_control.html" target="_top" xlink:title="EventControl is used to dispatch event and register listener.">
<polygon fill="white" stroke="black" points="141,-174.5 141,-195.5 263,-195.5 263,-174.5 141,-174.5"/>
<text text-anchor="middle" x="202" y="-182.5" font-family="Helvetica,sans-Serif" font-size="10.00">gaia::core::EventControl</text>
</a>
</g>
<!-- Node5&#45;&gt;Node2 -->
<g id="edge8" class="edge"><title>Node5&#45;&gt;Node2</title>
<path fill="none" stroke="midnightblue" d="M182.585,-167.405C171.841,-157.668 158.846,-145.891 149.664,-137.571"/>
<polygon fill="midnightblue" stroke="midnightblue" points="180.501,-170.24 190.261,-174.362 185.202,-165.053 180.501,-170.24"/>
</g>
</g>
</svg>
