<?xml version="1.0" encoding="UTF-8" standalone="no"?>
<!DOCTYPE svg PUBLIC "-//W3C//DTD SVG 1.1//EN"
 "http://www.w3.org/Graphics/SVG/1.1/DTD/svg11.dtd">
<!-- Generated by graphviz version 2.26.3 (20100126.1600)
 -->
<!-- Title: G Pages: 1 -->
<svg width="552pt" height="146pt"
 viewBox="0.00 0.00 552.00 146.00" xmlns="http://www.w3.org/2000/svg" xmlns:xlink="http://www.w3.org/1999/xlink">
<g id="graph1" class="graph" transform="scale(1 1) rotate(0) translate(4 142)">
<title>G</title>
<polygon fill="white" stroke="white" points="-4,5 -4,-142 549,-142 549,5 -4,5"/>
<!-- Node1 -->
<g id="node1" class="node"><title>Node1</title>
<polygon fill="#bfbfbf" stroke="black" points="150,-116.5 150,-137.5 402,-137.5 402,-116.5 150,-116.5"/>
<text text-anchor="middle" x="276" y="-124.5" font-family="Helvetica,sans-Serif" font-size="10.00">/home/vilon_tao/gaia/sdk/include/gaia/graphics/Rect.h</text>
</g>
<!-- Node2 -->
<g id="node3" class="node"><title>Node2</title>
<a xlink:href="../../dd/d36/_gravity_8h.html" target="_top" xlink:title="/home/vilon_tao/gaia/sdk/include/gaia/core/vision/Gravity.h">
<polygon fill="white" stroke="black" points="-0.5,-58.5 -0.5,-79.5 272.5,-79.5 272.5,-58.5 -0.5,-58.5"/>
<text text-anchor="middle" x="136" y="-66.5" font-family="Helvetica,sans-Serif" font-size="10.00">/home/vilon_tao/gaia/sdk/include/gaia/core/vision/Gravity.h</text>
</a>
</g>
<!-- Node1&#45;&gt;Node2 -->
<g id="edge2" class="edge"><title>Node1&#45;&gt;Node2</title>
<path fill="none" stroke="midnightblue" d="M241.278,-112.615C216.594,-102.389 183.985,-88.8796 161.637,-79.6212"/>
<polygon fill="midnightblue" stroke="midnightblue" points="240.069,-115.903 250.647,-116.497 242.748,-109.436 240.069,-115.903"/>
</g>
<!-- Node4 -->
<g id="node7" class="node"><title>Node4</title>
<a xlink:href="../../d1/d6a/media_2_camera_8h.html" target="_top" xlink:title="/home/vilon_tao/gaia/sdk/include/gaia/media/Camera.h">
<polygon fill="white" stroke="black" points="289.5,-58.5 289.5,-79.5 544.5,-79.5 544.5,-58.5 289.5,-58.5"/>
<text text-anchor="middle" x="417" y="-66.5" font-family="Helvetica,sans-Serif" font-size="10.00">/home/vilon_tao/gaia/sdk/include/gaia/media/Camera.h</text>
</a>
</g>
<!-- Node1&#45;&gt;Node4 -->
<g id="edge6" class="edge"><title>Node1&#45;&gt;Node4</title>
<path fill="none" stroke="midnightblue" d="M310.97,-112.615C335.83,-102.389 368.672,-88.8796 391.179,-79.6212"/>
<polygon fill="midnightblue" stroke="midnightblue" points="309.451,-109.456 301.534,-116.497 312.114,-115.929 309.451,-109.456"/>
</g>
<!-- Node3 -->
<g id="node5" class="node"><title>Node3</title>
<a xlink:href="../../d4/d1e/_hint_box_8h.html" target="_top" xlink:title="/home/vilon_tao/gaia/sdk/include/gaia/ui/HintBox.h">
<polygon fill="white" stroke="black" points="17.5,-0.5 17.5,-21.5 254.5,-21.5 254.5,-0.5 17.5,-0.5"/>
<text text-anchor="middle" x="136" y="-8.5" font-family="Helvetica,sans-Serif" font-size="10.00">/home/vilon_tao/gaia/sdk/include/gaia/ui/HintBox.h</text>
</a>
</g>
<!-- Node2&#45;&gt;Node3 -->
<g id="edge4" class="edge"><title>Node2&#45;&gt;Node3</title>
<path fill="none" stroke="midnightblue" d="M136,-48.1906C136,-39.1684 136,-28.9941 136,-21.5707"/>
<polygon fill="midnightblue" stroke="midnightblue" points="132.5,-48.3619 136,-58.3619 139.5,-48.3619 132.5,-48.3619"/>
</g>
</g>
</svg>
