<?xml version="1.0" encoding="UTF-8" standalone="no"?>
<!DOCTYPE svg PUBLIC "-//W3C//DTD SVG 1.1//EN"
 "http://www.w3.org/Graphics/SVG/1.1/DTD/svg11.dtd">
<!-- Generated by graphviz version 2.26.3 (20100126.1600)
 -->
<!-- Title: G Pages: 1 -->
<svg width="1513pt" height="320pt"
 viewBox="0.00 0.00 1513.00 320.00" xmlns="http://www.w3.org/2000/svg" xmlns:xlink="http://www.w3.org/1999/xlink">
<g id="graph1" class="graph" transform="scale(1 1) rotate(0) translate(4 316)">
<title>G</title>
<polygon fill="white" stroke="white" points="-4,5 -4,-316 1510,-316 1510,5 -4,5"/>
<!-- Node1 -->
<g id="node1" class="node"><title>Node1</title>
<polygon fill="#bfbfbf" stroke="black" points="785.5,-290.5 785.5,-311.5 1050.5,-311.5 1050.5,-290.5 785.5,-290.5"/>
<text text-anchor="middle" x="918" y="-298.5" font-family="Helvetica,sans-Serif" font-size="10.00">/home/vilon_tao/gaia/sdk/include/gaia/webkit/WebView.h</text>
</g>
<!-- Node2 -->
<g id="node3" class="node"><title>Node2</title>
<a xlink:href="../../df/d94/_i_focus_change_listener_8h.html" target="_top" xlink:title="gaia/core/vision/IFocusChangeListener.h">
<polygon fill="white" stroke="black" points="0,-232.5 0,-253.5 194,-253.5 194,-232.5 0,-232.5"/>
<text text-anchor="middle" x="97" y="-240.5" font-family="Helvetica,sans-Serif" font-size="10.00">gaia/core/vision/IFocusChangeListener.h</text>
</a>
</g>
<!-- Node1&#45;&gt;Node2 -->
<g id="edge2" class="edge"><title>Node1&#45;&gt;Node2</title>
<path fill="none" stroke="midnightblue" d="M785.45,-293.788C644.143,-285.756 413.554,-271.66 204.296,-254.084"/>
<polygon fill="midnightblue" stroke="midnightblue" points="204.291,-250.571 194.032,-253.218 203.702,-257.546 204.291,-250.571"/>
</g>
<!-- Node3 -->
<g id="node5" class="node"><title>Node3</title>
<a xlink:href="../../d7/dba/_i_hierarchy_change_listener_8h.html" target="_top" xlink:title="gaia/core/vision/IHierarchyChangeListener.h">
<polygon fill="white" stroke="black" points="211.5,-232.5 211.5,-253.5 420.5,-253.5 420.5,-232.5 211.5,-232.5"/>
<text text-anchor="middle" x="316" y="-240.5" font-family="Helvetica,sans-Serif" font-size="10.00">gaia/core/vision/IHierarchyChangeListener.h</text>
</a>
</g>
<!-- Node1&#45;&gt;Node3 -->
<g id="edge4" class="edge"><title>Node1&#45;&gt;Node3</title>
<path fill="none" stroke="midnightblue" d="M808.982,-290.497C702.033,-280.193 539.585,-264.541 430.715,-254.052"/>
<polygon fill="midnightblue" stroke="midnightblue" points="430.969,-250.561 420.679,-253.085 430.297,-257.528 430.969,-250.561"/>
</g>
<!-- Node4 -->
<g id="node7" class="node"><title>Node4</title>
<a xlink:href="../../db/df1/_absolute_controller_8h.html" target="_top" xlink:title="gaia/ui/AbsoluteController.h">
<polygon fill="white" stroke="black" points="849.5,-232.5 849.5,-253.5 986.5,-253.5 986.5,-232.5 849.5,-232.5"/>
<text text-anchor="middle" x="918" y="-240.5" font-family="Helvetica,sans-Serif" font-size="10.00">gaia/ui/AbsoluteController.h</text>
</a>
</g>
<!-- Node1&#45;&gt;Node4 -->
<g id="edge6" class="edge"><title>Node1&#45;&gt;Node4</title>
<path fill="none" stroke="midnightblue" d="M918,-290.362C918,-282.922 918,-272.743 918,-263.728"/>
<polygon fill="midnightblue" stroke="midnightblue" points="921.5,-263.571 918,-253.571 914.5,-263.571 921.5,-263.571"/>
</g>
<!-- Node13 -->
<g id="node26" class="node"><title>Node13</title>
<a xlink:href="../../db/d53/_string_array_8h.html" target="_top" xlink:title="gaia/base/StringArray.h">
<polygon fill="white" stroke="black" points="338.5,-116.5 338.5,-137.5 457.5,-137.5 457.5,-116.5 338.5,-116.5"/>
<text text-anchor="middle" x="398" y="-124.5" font-family="Helvetica,sans-Serif" font-size="10.00">gaia/base/StringArray.h</text>
</a>
</g>
<!-- Node1&#45;&gt;Node13 -->
<g id="edge26" class="edge"><title>Node1&#45;&gt;Node13</title>
<path fill="none" stroke="midnightblue" d="M785.463,-290.6C691.412,-278.506 564.988,-252.384 467,-196 444.699,-183.168 424.574,-161.276 411.891,-145.591"/>
<polygon fill="midnightblue" stroke="midnightblue" points="414.565,-143.328 405.645,-137.612 409.053,-147.643 414.565,-143.328"/>
</g>
<!-- Node14 -->
<g id="node29" class="node"><title>Node14</title>
<a xlink:href="../../db/db5/_string_8h.html" target="_top" xlink:title="gaia/base/String.h">
<polygon fill="white" stroke="black" points="645.5,-116.5 645.5,-137.5 740.5,-137.5 740.5,-116.5 645.5,-116.5"/>
<text text-anchor="middle" x="693" y="-124.5" font-family="Helvetica,sans-Serif" font-size="10.00">gaia/base/String.h</text>
</a>
</g>
<!-- Node1&#45;&gt;Node14 -->
<g id="edge30" class="edge"><title>Node1&#45;&gt;Node14</title>
<path fill="none" stroke="midnightblue" d="M895.358,-290.479C879.013,-282.143 857.081,-269.362 841,-254 809.981,-224.368 819.241,-202.297 787,-174 771.264,-160.189 750.749,-149.316 732.9,-141.522"/>
<polygon fill="midnightblue" stroke="midnightblue" points="733.882,-138.139 723.306,-137.51 731.181,-144.597 733.882,-138.139"/>
</g>
<!-- Node17 -->
<g id="node38" class="node"><title>Node17</title>
<a xlink:href="../../dd/d79/_key_event_8h.html" target="_top" xlink:title="gaia/core/event/KeyEvent.h">
<polygon fill="white" stroke="black" points="475.5,-174.5 475.5,-195.5 612.5,-195.5 612.5,-174.5 475.5,-174.5"/>
<text text-anchor="middle" x="544" y="-182.5" font-family="Helvetica,sans-Serif" font-size="10.00">gaia/core/event/KeyEvent.h</text>
</a>
</g>
<!-- Node1&#45;&gt;Node17 -->
<g id="edge42" class="edge"><title>Node1&#45;&gt;Node17</title>
<path fill="none" stroke="midnightblue" d="M879.769,-290.491C846.453,-281.226 796.89,-267.187 754,-254 694.742,-235.781 626.646,-213.079 584.465,-198.807"/>
<polygon fill="midnightblue" stroke="midnightblue" points="585.432,-195.439 574.838,-195.543 583.185,-202.068 585.432,-195.439"/>
</g>
<!-- Node18 -->
<g id="node42" class="node"><title>Node18</title>
<a xlink:href="../../dc/de9/_motion_event_8h.html" target="_top" xlink:title="gaia/core/event/MotionEvent.h">
<polygon fill="white" stroke="black" points="629.5,-174.5 629.5,-195.5 778.5,-195.5 778.5,-174.5 629.5,-174.5"/>
<text text-anchor="middle" x="704" y="-182.5" font-family="Helvetica,sans-Serif" font-size="10.00">gaia/core/event/MotionEvent.h</text>
</a>
</g>
<!-- Node1&#45;&gt;Node18 -->
<g id="edge48" class="edge"><title>Node1&#45;&gt;Node18</title>
<path fill="none" stroke="midnightblue" d="M880.839,-290.467C855.021,-282.363 820.307,-269.871 792,-254 766.096,-239.476 739.729,-217.673 722.701,-202.476"/>
<polygon fill="midnightblue" stroke="midnightblue" points="724.892,-199.737 715.135,-195.607 720.186,-204.92 724.892,-199.737"/>
</g>
<!-- Node19 -->
<g id="node45" class="node"><title>Node19</title>
<a xlink:href="../../d9/de8/_controller_params_8h.html" target="_top" xlink:title="gaia/ui/ControllerParams.h">
<polygon fill="white" stroke="black" points="1087,-174.5 1087,-195.5 1219,-195.5 1219,-174.5 1087,-174.5"/>
<text text-anchor="middle" x="1153" y="-182.5" font-family="Helvetica,sans-Serif" font-size="10.00">gaia/ui/ControllerParams.h</text>
</a>
</g>
<!-- Node1&#45;&gt;Node19 -->
<g id="edge52" class="edge"><title>Node1&#45;&gt;Node19</title>
<path fill="none" stroke="midnightblue" d="M948.131,-290.457C972.308,-281.651 1006.9,-268.273 1036,-254 1068.9,-237.867 1104.96,-215.9 1128.23,-201.123"/>
<polygon fill="midnightblue" stroke="midnightblue" points="1130.25,-203.988 1136.78,-195.65 1126.47,-198.093 1130.25,-203.988"/>
</g>
<!-- Node20 -->
<g id="node48" class="node"><title>Node20</title>
<a xlink:href="../../d2/dfb/_configuration_8h.html" target="_top" xlink:title="gaia/content/res/Configuration.h">
<polygon fill="white" stroke="black" points="1150.5,-116.5 1150.5,-137.5 1305.5,-137.5 1305.5,-116.5 1150.5,-116.5"/>
<text text-anchor="middle" x="1228" y="-124.5" font-family="Helvetica,sans-Serif" font-size="10.00">gaia/content/res/Configuration.h</text>
</a>
</g>
<!-- Node1&#45;&gt;Node20 -->
<g id="edge56" class="edge"><title>Node1&#45;&gt;Node20</title>
<path fill="none" stroke="midnightblue" d="M938.08,-290.346C954.093,-281.479 976.777,-268.07 995,-254 1035.55,-222.688 1033.93,-200.136 1078,-174 1104.24,-158.44 1136.16,-147.508 1163.8,-140.128"/>
<polygon fill="midnightblue" stroke="midnightblue" points="1164.95,-143.445 1173.77,-137.568 1163.21,-136.665 1164.95,-143.445"/>
</g>
<!-- Node21 -->
<g id="node51" class="node"><title>Node21</title>
<a xlink:href="../../de/dca/_web_view_inner_8h.html" target="_top" xlink:title="gaia/webkit/WebViewInner.h">
<polygon fill="white" stroke="black" points="1364.5,-174.5 1364.5,-195.5 1505.5,-195.5 1505.5,-174.5 1364.5,-174.5"/>
<text text-anchor="middle" x="1435" y="-182.5" font-family="Helvetica,sans-Serif" font-size="10.00">gaia/webkit/WebViewInner.h</text>
</a>
</g>
<!-- Node1&#45;&gt;Node21 -->
<g id="edge60" class="edge"><title>Node1&#45;&gt;Node21</title>
<path fill="none" stroke="midnightblue" d="M956.629,-290.455C987.416,-281.699 1031.44,-268.386 1069,-254 1090.92,-245.607 1094.5,-238.671 1117,-232 1195.72,-208.658 1288.99,-196.622 1354.09,-190.606"/>
<polygon fill="midnightblue" stroke="midnightblue" points="1354.64,-194.071 1364.29,-189.692 1354.02,-187.099 1354.64,-194.071"/>
</g>
<!-- Node22 -->
<g id="node54" class="node"><title>Node22</title>
<polygon fill="white" stroke="#bfbfbf" points="1125.5,-232.5 1125.5,-253.5 1166.5,-253.5 1166.5,-232.5 1125.5,-232.5"/>
<text text-anchor="middle" x="1146" y="-240.5" font-family="Helvetica,sans-Serif" font-size="10.00">string</text>
</g>
<!-- Node1&#45;&gt;Node22 -->
<g id="edge64" class="edge"><title>Node1&#45;&gt;Node22</title>
<path fill="none" stroke="midnightblue" d="M965.698,-290.498C1005.13,-281.564 1062.48,-267.989 1112,-254 1113.07,-253.696 1114.17,-253.381 1115.27,-253.057"/>
<polygon fill="midnightblue" stroke="midnightblue" points="1116.69,-256.282 1125.22,-249.997 1114.63,-249.591 1116.69,-256.282"/>
</g>
<!-- Node23 -->
<g id="node56" class="node"><title>Node23</title>
<polygon fill="white" stroke="#bfbfbf" points="1183.5,-232.5 1183.5,-253.5 1218.5,-253.5 1218.5,-232.5 1183.5,-232.5"/>
<text text-anchor="middle" x="1201" y="-240.5" font-family="Helvetica,sans-Serif" font-size="10.00">map</text>
</g>
<!-- Node1&#45;&gt;Node23 -->
<g id="edge66" class="edge"><title>Node1&#45;&gt;Node23</title>
<path fill="none" stroke="midnightblue" d="M1001.56,-290.458C1049.78,-283.27 1111.53,-272.187 1173.36,-254.069"/>
<polygon fill="midnightblue" stroke="midnightblue" points="1174.71,-257.32 1183.29,-251.1 1172.7,-250.614 1174.71,-257.32"/>
</g>
<!-- Node24 -->
<g id="node58" class="node"><title>Node24</title>
<polygon fill="white" stroke="#bfbfbf" points="1236,-232.5 1236,-253.5 1288,-253.5 1288,-232.5 1236,-232.5"/>
<text text-anchor="middle" x="1262" y="-240.5" font-family="Helvetica,sans-Serif" font-size="10.00">memory</text>
</g>
<!-- Node1&#45;&gt;Node24 -->
<g id="edge68" class="edge"><title>Node1&#45;&gt;Node24</title>
<path fill="none" stroke="midnightblue" d="M1012.35,-290.467C1071.39,-282.979 1149.09,-271.497 1225.9,-254.004"/>
<polygon fill="midnightblue" stroke="midnightblue" points="1226.79,-257.39 1235.75,-251.727 1225.21,-250.57 1226.79,-257.39"/>
</g>
<!-- Node5 -->
<g id="node9" class="node"><title>Node5</title>
<a xlink:href="../../d6/d52/_widget_controller_8h.html" target="_top" xlink:title="gaia/core/vision/WidgetController.h">
<polygon fill="white" stroke="black" points="833.5,-174.5 833.5,-195.5 1002.5,-195.5 1002.5,-174.5 833.5,-174.5"/>
<text text-anchor="middle" x="918" y="-182.5" font-family="Helvetica,sans-Serif" font-size="10.00">gaia/core/vision/WidgetController.h</text>
</a>
</g>
<!-- Node4&#45;&gt;Node5 -->
<g id="edge8" class="edge"><title>Node4&#45;&gt;Node5</title>
<path fill="none" stroke="midnightblue" d="M918,-232.362C918,-224.922 918,-214.743 918,-205.728"/>
<polygon fill="midnightblue" stroke="midnightblue" points="921.5,-205.571 918,-195.571 914.5,-205.571 921.5,-205.571"/>
</g>
<!-- Node6 -->
<g id="node11" class="node"><title>Node6</title>
<a xlink:href="../../d3/dd0/_event_control_8h.html" target="_top" xlink:title="gaia/core/event/EventControl.h">
<polygon fill="white" stroke="black" points="814,-116.5 814,-137.5 966,-137.5 966,-116.5 814,-116.5"/>
<text text-anchor="middle" x="890" y="-124.5" font-family="Helvetica,sans-Serif" font-size="10.00">gaia/core/event/EventControl.h</text>
</a>
</g>
<!-- Node5&#45;&gt;Node6 -->
<g id="edge10" class="edge"><title>Node5&#45;&gt;Node6</title>
<path fill="none" stroke="midnightblue" d="M912.864,-174.362C909.154,-166.677 904.033,-156.069 899.578,-146.84"/>
<polygon fill="midnightblue" stroke="midnightblue" points="902.603,-145.055 895.103,-137.571 896.299,-148.098 902.603,-145.055"/>
</g>
<!-- Node8 -->
<g id="node15" class="node"><title>Node8</title>
<a xlink:href="../../d4/d75/_widget_8h.html" target="_top" xlink:title="gaia/core/vision/Widget.h">
<polygon fill="white" stroke="black" points="991.5,-116.5 991.5,-137.5 1118.5,-137.5 1118.5,-116.5 991.5,-116.5"/>
<text text-anchor="middle" x="1055" y="-124.5" font-family="Helvetica,sans-Serif" font-size="10.00">gaia/core/vision/Widget.h</text>
</a>
</g>
<!-- Node5&#45;&gt;Node8 -->
<g id="edge14" class="edge"><title>Node5&#45;&gt;Node8</title>
<path fill="none" stroke="midnightblue" d="M942.81,-174.497C964.496,-165.315 996.211,-151.889 1020.39,-141.652"/>
<polygon fill="midnightblue" stroke="midnightblue" points="1022.07,-144.743 1029.91,-137.621 1019.34,-138.297 1022.07,-144.743"/>
</g>
<!-- Node7 -->
<g id="node13" class="node"><title>Node7</title>
<polygon fill="white" stroke="#bfbfbf" points="616,-0.5 616,-21.5 684,-21.5 684,-0.5 616,-0.5"/>
<text text-anchor="middle" x="650" y="-8.5" font-family="Helvetica,sans-Serif" font-size="10.00">sys/types.h</text>
</g>
<!-- Node6&#45;&gt;Node7 -->
<g id="edge12" class="edge"><title>Node6&#45;&gt;Node7</title>
<path fill="none" stroke="midnightblue" d="M889.093,-116.353C887.2,-101.065 881.425,-73.0777 864,-58 839.004,-36.3706 749.313,-22.447 694.292,-15.7354"/>
<polygon fill="midnightblue" stroke="midnightblue" points="694.455,-12.2303 684.112,-14.5275 693.63,-19.1815 694.455,-12.2303"/>
</g>
<!-- Node9 -->
<g id="node17" class="node"><title>Node9</title>
<a xlink:href="../../d1/dd0/gmacros_8h.html" target="_top" xlink:title="gaia/base/gmacros.h">
<polygon fill="white" stroke="black" points="1122.5,-58.5 1122.5,-79.5 1229.5,-79.5 1229.5,-58.5 1122.5,-58.5"/>
<text text-anchor="middle" x="1176" y="-66.5" font-family="Helvetica,sans-Serif" font-size="10.00">gaia/base/gmacros.h</text>
</a>
</g>
<!-- Node8&#45;&gt;Node9 -->
<g id="edge16" class="edge"><title>Node8&#45;&gt;Node9</title>
<path fill="none" stroke="midnightblue" d="M1076.91,-116.497C1095.81,-107.438 1123.33,-94.2462 1144.58,-84.0628"/>
<polygon fill="midnightblue" stroke="midnightblue" points="1146.34,-87.0999 1153.84,-79.6212 1143.31,-80.7876 1146.34,-87.0999"/>
</g>
<!-- Node10 -->
<g id="node19" class="node"><title>Node10</title>
<a xlink:href="../../d0/d92/_property_animatable_8h.html" target="_top" xlink:title="gaia/core/animator/PropertyAnimatable.h">
<polygon fill="white" stroke="black" points="911,-58.5 911,-79.5 1105,-79.5 1105,-58.5 911,-58.5"/>
<text text-anchor="middle" x="1008" y="-66.5" font-family="Helvetica,sans-Serif" font-size="10.00">gaia/core/animator/PropertyAnimatable.h</text>
</a>
</g>
<!-- Node8&#45;&gt;Node10 -->
<g id="edge18" class="edge"><title>Node8&#45;&gt;Node10</title>
<path fill="none" stroke="midnightblue" d="M1046.38,-116.362C1039.82,-108.268 1030.63,-96.9318 1022.89,-87.3796"/>
<polygon fill="midnightblue" stroke="midnightblue" points="1025.58,-85.1364 1016.57,-79.5707 1020.14,-89.5436 1025.58,-85.1364"/>
</g>
<!-- Node11 -->
<g id="node22" class="node"><title>Node11</title>
<a xlink:href="../../d8/d50/_widget_core_8h.html" target="_top" xlink:title="gaia/core/vision/WidgetCore.h">
<polygon fill="white" stroke="black" points="1285,-58.5 1285,-79.5 1433,-79.5 1433,-58.5 1285,-58.5"/>
<text text-anchor="middle" x="1359" y="-66.5" font-family="Helvetica,sans-Serif" font-size="10.00">gaia/core/vision/WidgetCore.h</text>
</a>
</g>
<!-- Node8&#45;&gt;Node11 -->
<g id="edge22" class="edge"><title>Node8&#45;&gt;Node11</title>
<path fill="none" stroke="midnightblue" d="M1110.05,-116.497C1161.76,-106.632 1239.15,-91.8659 1293.9,-81.4209"/>
<polygon fill="midnightblue" stroke="midnightblue" points="1294.68,-84.8352 1303.84,-79.5231 1293.37,-77.9592 1294.68,-84.8352"/>
</g>
<!-- Node10&#45;&gt;Node7 -->
<g id="edge20" class="edge"><title>Node10&#45;&gt;Node7</title>
<path fill="none" stroke="midnightblue" d="M943.169,-58.4966C871.02,-46.8077 756.4,-28.238 694,-18.1286"/>
<polygon fill="midnightblue" stroke="midnightblue" points="694.512,-14.6659 684.081,-16.5215 693.392,-21.5758 694.512,-14.6659"/>
</g>
<!-- Node12 -->
<g id="node24" class="node"><title>Node12</title>
<polygon fill="white" stroke="#bfbfbf" points="1385.5,-0.5 1385.5,-21.5 1434.5,-21.5 1434.5,-0.5 1385.5,-0.5"/>
<text text-anchor="middle" x="1410" y="-8.5" font-family="Helvetica,sans-Serif" font-size="10.00">stdint.h</text>
</g>
<!-- Node11&#45;&gt;Node12 -->
<g id="edge24" class="edge"><title>Node11&#45;&gt;Node12</title>
<path fill="none" stroke="midnightblue" d="M1368.35,-58.3619C1375.54,-50.1861 1385.64,-38.7025 1394.09,-29.0907"/>
<polygon fill="midnightblue" stroke="midnightblue" points="1396.73,-31.3916 1400.71,-21.5707 1391.47,-26.7692 1396.73,-31.3916"/>
</g>
<!-- Node13&#45;&gt;Node7 -->
<g id="edge28" class="edge"><title>Node13&#45;&gt;Node7</title>
<path fill="none" stroke="midnightblue" d="M406.226,-116.397C418.617,-101.162 443.559,-73.2419 471,-58 513.362,-34.4706 567.939,-22.3523 605.634,-16.3665"/>
<polygon fill="midnightblue" stroke="midnightblue" points="606.427,-19.7866 615.794,-14.8364 605.384,-12.8647 606.427,-19.7866"/>
</g>
<!-- Node14&#45;&gt;Node7 -->
<g id="edge40" class="edge"><title>Node14&#45;&gt;Node7</title>
<path fill="none" stroke="midnightblue" d="M690.704,-116.023C687.654,-102.221 681.736,-77.9216 674,-58 670.377,-48.6694 665.475,-38.7428 661.046,-30.4283"/>
<polygon fill="midnightblue" stroke="midnightblue" points="664.048,-28.6235 656.169,-21.5406 657.911,-31.9912 664.048,-28.6235"/>
</g>
<!-- Node15 -->
<g id="node31" class="node"><title>Node15</title>
<a xlink:href="../../d7/d97/_char_sequence_8h.html" target="_top" xlink:title="gaia/base/CharSequence.h">
<polygon fill="white" stroke="black" points="721,-58.5 721,-79.5 855,-79.5 855,-58.5 721,-58.5"/>
<text text-anchor="middle" x="788" y="-66.5" font-family="Helvetica,sans-Serif" font-size="10.00">gaia/base/CharSequence.h</text>
</a>
</g>
<!-- Node14&#45;&gt;Node15 -->
<g id="edge32" class="edge"><title>Node14&#45;&gt;Node15</title>
<path fill="none" stroke="midnightblue" d="M710.424,-116.362C724.887,-107.532 745.669,-94.844 762.084,-84.8224"/>
<polygon fill="midnightblue" stroke="midnightblue" points="763.975,-87.7688 770.686,-79.5707 760.327,-81.7943 763.975,-87.7688"/>
</g>
<!-- Node16 -->
<g id="node34" class="node"><title>Node16</title>
<a xlink:href="../../d6/d83/_hash_func_8h.html" target="_top" xlink:title="gaia/base/HashFunc.h">
<polygon fill="white" stroke="black" points="550.5,-58.5 550.5,-79.5 665.5,-79.5 665.5,-58.5 550.5,-58.5"/>
<text text-anchor="middle" x="608" y="-66.5" font-family="Helvetica,sans-Serif" font-size="10.00">gaia/base/HashFunc.h</text>
</a>
</g>
<!-- Node14&#45;&gt;Node16 -->
<g id="edge36" class="edge"><title>Node14&#45;&gt;Node16</title>
<path fill="none" stroke="midnightblue" d="M677.41,-116.362C664.709,-107.696 646.562,-95.3126 632.008,-85.3819"/>
<polygon fill="midnightblue" stroke="midnightblue" points="633.724,-82.316 623.491,-79.5707 629.779,-88.0982 633.724,-82.316"/>
</g>
<!-- Node15&#45;&gt;Node12 -->
<g id="edge34" class="edge"><title>Node15&#45;&gt;Node12</title>
<path fill="none" stroke="midnightblue" d="M855.209,-62.4706C870.584,-60.9892 886.857,-59.4311 902,-58 1080.03,-41.1751 1293.22,-21.6547 1375.38,-14.1556"/>
<polygon fill="midnightblue" stroke="midnightblue" points="1375.77,-17.6344 1385.41,-13.2401 1375.14,-10.6633 1375.77,-17.6344"/>
</g>
<!-- Node16&#45;&gt;Node7 -->
<g id="edge38" class="edge"><title>Node16&#45;&gt;Node7</title>
<path fill="none" stroke="midnightblue" d="M615.703,-58.3619C621.446,-50.4313 629.443,-39.3885 636.27,-29.9606"/>
<polygon fill="midnightblue" stroke="midnightblue" points="639.315,-31.7229 642.345,-21.5707 633.645,-27.6173 639.315,-31.7229"/>
</g>
<!-- Node17&#45;&gt;Node7 -->
<g id="edge46" class="edge"><title>Node17&#45;&gt;Node7</title>
<path fill="none" stroke="midnightblue" d="M539.076,-174.344C529.091,-150.995 509.406,-94.5002 534,-58 550.025,-34.2168 580.358,-22.4642 605.987,-16.6589"/>
<polygon fill="midnightblue" stroke="midnightblue" points="606.796,-20.0661 615.901,-14.6472 605.404,-13.206 606.796,-20.0661"/>
</g>
<!-- Node17&#45;&gt;Node14 -->
<g id="edge44" class="edge"><title>Node17&#45;&gt;Node14</title>
<path fill="none" stroke="midnightblue" d="M570.983,-174.497C594.853,-165.205 629.894,-151.565 656.307,-141.283"/>
<polygon fill="midnightblue" stroke="midnightblue" points="657.917,-144.412 665.967,-137.523 655.378,-137.889 657.917,-144.412"/>
</g>
<!-- Node18&#45;&gt;Node7 -->
<g id="edge50" class="edge"><title>Node18&#45;&gt;Node7</title>
<path fill="none" stroke="midnightblue" d="M670.991,-174.488C632.088,-160.113 569.289,-130.208 542,-80 525.44,-49.5334 569.069,-30.5894 605.741,-20.4299"/>
<polygon fill="midnightblue" stroke="midnightblue" points="607.051,-23.7054 615.844,-17.795 605.284,-16.932 607.051,-23.7054"/>
</g>
<!-- Node19&#45;&gt;Node12 -->
<g id="edge54" class="edge"><title>Node19&#45;&gt;Node12</title>
<path fill="none" stroke="midnightblue" d="M1202.71,-174.48C1278.11,-157.363 1415.42,-121.22 1442,-80 1452.41,-63.8576 1440.66,-43.7838 1428.57,-29.4572"/>
<polygon fill="midnightblue" stroke="midnightblue" points="1430.89,-26.8087 1421.58,-21.7592 1425.71,-31.515 1430.89,-26.8087"/>
</g>
<!-- Node20&#45;&gt;Node7 -->
<g id="edge58" class="edge"><title>Node20&#45;&gt;Node7</title>
<path fill="none" stroke="midnightblue" d="M1234.16,-116.349C1241.95,-101.311 1252.7,-73.9194 1238,-58 1219.59,-38.0596 828.395,-18.9121 694.492,-12.9202"/>
<polygon fill="midnightblue" stroke="midnightblue" points="694.337,-9.40995 684.191,-12.4626 694.026,-16.403 694.337,-9.40995"/>
</g>
<!-- Node21&#45;&gt;Node12 -->
<g id="edge62" class="edge"><title>Node21&#45;&gt;Node12</title>
<path fill="none" stroke="midnightblue" d="M1448.21,-174.198C1457.68,-165.541 1469.67,-152.48 1475,-138 1487.28,-104.631 1491.18,-89.6619 1475,-58 1468.17,-44.6285 1455.56,-34.1829 1443.25,-26.5706"/>
<polygon fill="midnightblue" stroke="midnightblue" points="1444.85,-23.4523 1434.43,-21.5271 1441.38,-29.5292 1444.85,-23.4523"/>
</g>
</g>
</svg>
