<?xml version="1.0" encoding="UTF-8" standalone="no"?>
<!DOCTYPE svg PUBLIC "-//W3C//DTD SVG 1.1//EN"
 "http://www.w3.org/Graphics/SVG/1.1/DTD/svg11.dtd">
<!-- Generated by graphviz version 2.26.3 (20100126.1600)
 -->
<!-- Title: G Pages: 1 -->
<svg width="278pt" height="204pt"
 viewBox="0.00 0.00 278.00 204.00" xmlns="http://www.w3.org/2000/svg" xmlns:xlink="http://www.w3.org/1999/xlink">
<g id="graph1" class="graph" transform="scale(1 1) rotate(0) translate(4 200)">
<title>G</title>
<polygon fill="white" stroke="white" points="-4,5 -4,-200 275,-200 275,5 -4,5"/>
<!-- Node1 -->
<g id="node1" class="node"><title>Node1</title>
<polygon fill="#bfbfbf" stroke="black" points="-0.5,-174.5 -0.5,-195.5 270.5,-195.5 270.5,-174.5 -0.5,-174.5"/>
<text text-anchor="middle" x="135" y="-182.5" font-family="Helvetica,sans-Serif" font-size="10.00">/home/vilon_tao/gaia/sdk/include/gaia/net/HttpResponse.h</text>
</g>
<!-- Node2 -->
<g id="node3" class="node"><title>Node2</title>
<a xlink:href="../../df/d29/_http_types_8h.html" target="_top" xlink:title="gaia/net/HttpTypes.h">
<polygon fill="white" stroke="black" points="81,-116.5 81,-137.5 189,-137.5 189,-116.5 81,-116.5"/>
<text text-anchor="middle" x="135" y="-124.5" font-family="Helvetica,sans-Serif" font-size="10.00">gaia/net/HttpTypes.h</text>
</a>
</g>
<!-- Node1&#45;&gt;Node2 -->
<g id="edge2" class="edge"><title>Node1&#45;&gt;Node2</title>
<path fill="none" stroke="midnightblue" d="M135,-174.362C135,-166.922 135,-156.743 135,-147.728"/>
<polygon fill="midnightblue" stroke="midnightblue" points="138.5,-147.571 135,-137.571 131.5,-147.571 138.5,-147.571"/>
</g>
<!-- Node3 -->
<g id="node5" class="node"><title>Node3</title>
<a xlink:href="../../d1/d88/_net_types_8h.html" target="_top" xlink:title="gaia/net/NetTypes.h">
<polygon fill="white" stroke="black" points="82.5,-58.5 82.5,-79.5 187.5,-79.5 187.5,-58.5 82.5,-58.5"/>
<text text-anchor="middle" x="135" y="-66.5" font-family="Helvetica,sans-Serif" font-size="10.00">gaia/net/NetTypes.h</text>
</a>
</g>
<!-- Node2&#45;&gt;Node3 -->
<g id="edge4" class="edge"><title>Node2&#45;&gt;Node3</title>
<path fill="none" stroke="midnightblue" d="M135,-116.362C135,-108.922 135,-98.7427 135,-89.7276"/>
<polygon fill="midnightblue" stroke="midnightblue" points="138.5,-89.5706 135,-79.5707 131.5,-89.5707 138.5,-89.5706"/>
</g>
<!-- Node4 -->
<g id="node7" class="node"><title>Node4</title>
<polygon fill="white" stroke="#bfbfbf" points="101,-0.5 101,-21.5 169,-21.5 169,-0.5 101,-0.5"/>
<text text-anchor="middle" x="135" y="-8.5" font-family="Helvetica,sans-Serif" font-size="10.00">sys/types.h</text>
</g>
<!-- Node3&#45;&gt;Node4 -->
<g id="edge6" class="edge"><title>Node3&#45;&gt;Node4</title>
<path fill="none" stroke="midnightblue" d="M135,-58.3619C135,-50.9219 135,-40.7427 135,-31.7276"/>
<polygon fill="midnightblue" stroke="midnightblue" points="138.5,-31.5706 135,-21.5707 131.5,-31.5707 138.5,-31.5706"/>
</g>
</g>
</svg>
