<?xml version="1.0" encoding="UTF-8" standalone="no"?>
<!DOCTYPE svg PUBLIC "-//W3C//DTD SVG 1.1//EN"
 "http://www.w3.org/Graphics/SVG/1.1/DTD/svg11.dtd">
<!-- Generated by graphviz version 2.26.3 (20100126.1600)
 -->
<!-- Title: G Pages: 1 -->
<svg width="284pt" height="88pt"
 viewBox="0.00 0.00 284.00 88.00" xmlns="http://www.w3.org/2000/svg" xmlns:xlink="http://www.w3.org/1999/xlink">
<g id="graph1" class="graph" transform="scale(1 1) rotate(0) translate(4 84)">
<title>G</title>
<polygon fill="white" stroke="white" points="-4,5 -4,-84 281,-84 281,5 -4,5"/>
<!-- Node1 -->
<g id="node1" class="node"><title>Node1</title>
<polygon fill="#bfbfbf" stroke="black" points="62.5,-58.5 62.5,-79.5 193.5,-79.5 193.5,-58.5 62.5,-58.5"/>
<text text-anchor="middle" x="128" y="-66.5" font-family="Helvetica,sans-Serif" font-size="10.00">gaia::webkit::MatchResult</text>
</g>
<!-- Node2 -->
<g id="node3" class="node"><title>Node2</title>
<a xlink:href="../../d6/dc0/classgaia_1_1webkit_1_1_matcher.html" target="_top" xlink:title="Provides a means of matching regular expressions against a given input, finding occurrences of regula...">
<polygon fill="white" stroke="black" points="0,-0.5 0,-21.5 110,-21.5 110,-0.5 0,-0.5"/>
<text text-anchor="middle" x="55" y="-8.5" font-family="Helvetica,sans-Serif" font-size="10.00">gaia::webkit::Matcher</text>
</a>
</g>
<!-- Node1&#45;&gt;Node2 -->
<g id="edge2" class="edge"><title>Node1&#45;&gt;Node2</title>
<path fill="none" stroke="midnightblue" d="M106.572,-51.9753C94.1828,-42.1315 78.9824,-30.0545 68.3044,-21.5707"/>
<polygon fill="midnightblue" stroke="midnightblue" points="104.604,-54.8815 114.611,-58.3619 108.958,-49.4008 104.604,-54.8815"/>
</g>
<!-- Node3 -->
<g id="node5" class="node"><title>Node3</title>
<a xlink:href="../../d1/d34/classgaia_1_1webkit_1_1_match_result_impl.html" target="_top" xlink:title="Holds the results of a successful match of a regular expression against a given string.">
<polygon fill="white" stroke="black" points="127.5,-0.5 127.5,-21.5 276.5,-21.5 276.5,-0.5 127.5,-0.5"/>
<text text-anchor="middle" x="202" y="-8.5" font-family="Helvetica,sans-Serif" font-size="10.00">gaia::webkit::MatchResultImpl</text>
</a>
</g>
<!-- Node1&#45;&gt;Node3 -->
<g id="edge4" class="edge"><title>Node1&#45;&gt;Node3</title>
<path fill="none" stroke="midnightblue" d="M149.721,-51.9753C162.28,-42.1315 177.689,-30.0545 188.513,-21.5707"/>
<polygon fill="midnightblue" stroke="midnightblue" points="147.284,-49.4383 141.573,-58.3619 151.602,-54.9478 147.284,-49.4383"/>
</g>
</g>
</svg>
