<?xml version="1.0" encoding="UTF-8" standalone="no"?>
<!DOCTYPE svg PUBLIC "-//W3C//DTD SVG 1.1//EN"
 "http://www.w3.org/Graphics/SVG/1.1/DTD/svg11.dtd">
<!-- Generated by graphviz version 2.26.3 (20100126.1600)
 -->
<!-- Title: G Pages: 1 -->
<svg width="2724pt" height="146pt"
 viewBox="0.00 0.00 2724.00 146.00" xmlns="http://www.w3.org/2000/svg" xmlns:xlink="http://www.w3.org/1999/xlink">
<g id="graph1" class="graph" transform="scale(1 1) rotate(0) translate(4 142)">
<title>G</title>
<polygon fill="white" stroke="white" points="-4,5 -4,-142 2721,-142 2721,5 -4,5"/>
<!-- Node1 -->
<g id="node1" class="node"><title>Node1</title>
<polygon fill="#bfbfbf" stroke="black" points="1237,-116.5 1237,-137.5 1549,-137.5 1549,-116.5 1237,-116.5"/>
<text text-anchor="middle" x="1393" y="-124.5" font-family="Helvetica,sans-Serif" font-size="10.00">/home/vilon_tao/gaia/sdk/include/gaia/telephony/mms/GenericPdu.h</text>
</g>
<!-- Node2 -->
<g id="node3" class="node"><title>Node2</title>
<a xlink:href="../../d3/d94/_acknowledge_ind_8h.html" target="_top" xlink:title="/home/vilon_tao/gaia/sdk/include/gaia/telephony/mms/AcknowledgeInd.h">
<polygon fill="white" stroke="black" points="-0.5,-58.5 -0.5,-79.5 332.5,-79.5 332.5,-58.5 -0.5,-58.5"/>
<text text-anchor="middle" x="166" y="-66.5" font-family="Helvetica,sans-Serif" font-size="10.00">/home/vilon_tao/gaia/sdk/include/gaia/telephony/mms/AcknowledgeInd.h</text>
</a>
</g>
<!-- Node1&#45;&gt;Node2 -->
<g id="edge2" class="edge"><title>Node1&#45;&gt;Node2</title>
<path fill="none" stroke="midnightblue" d="M1226.94,-120.512C1019.57,-112.195 653.981,-96.8266 341,-80 338.112,-79.8447 335.198,-79.6859 332.263,-79.5238"/>
<polygon fill="midnightblue" stroke="midnightblue" points="1226.87,-124.011 1237,-120.915 1227.15,-117.017 1226.87,-124.011"/>
</g>
<!-- Node3 -->
<g id="node5" class="node"><title>Node3</title>
<a xlink:href="../../d4/dfc/_delivery_ind_8h.html" target="_top" xlink:title="/home/vilon_tao/gaia/sdk/include/gaia/telephony/mms/DeliveryInd.h">
<polygon fill="white" stroke="black" points="349.5,-58.5 349.5,-79.5 660.5,-79.5 660.5,-58.5 349.5,-58.5"/>
<text text-anchor="middle" x="505" y="-66.5" font-family="Helvetica,sans-Serif" font-size="10.00">/home/vilon_tao/gaia/sdk/include/gaia/telephony/mms/DeliveryInd.h</text>
</a>
</g>
<!-- Node1&#45;&gt;Node3 -->
<g id="edge4" class="edge"><title>Node1&#45;&gt;Node3</title>
<path fill="none" stroke="midnightblue" d="M1226.94,-116.321C1080.19,-106.86 860.358,-92.6287 669,-80 666.295,-79.8215 663.565,-79.6411 660.815,-79.4591"/>
<polygon fill="midnightblue" stroke="midnightblue" points="1226.73,-119.815 1236.93,-116.966 1227.18,-112.83 1226.73,-119.815"/>
</g>
<!-- Node4 -->
<g id="node7" class="node"><title>Node4</title>
<a xlink:href="../../d7/d9b/_multimedia_message_pdu_8h.html" target="_top" xlink:title="/home/vilon_tao/gaia/sdk/include/gaia/telephony/mms/MultimediaMessagePdu.h">
<polygon fill="white" stroke="black" points="677.5,-58.5 677.5,-79.5 1042.5,-79.5 1042.5,-58.5 677.5,-58.5"/>
<text text-anchor="middle" x="860" y="-66.5" font-family="Helvetica,sans-Serif" font-size="10.00">/home/vilon_tao/gaia/sdk/include/gaia/telephony/mms/MultimediaMessagePdu.h</text>
</a>
</g>
<!-- Node1&#45;&gt;Node4 -->
<g id="edge6" class="edge"><title>Node1&#45;&gt;Node4</title>
<path fill="none" stroke="midnightblue" d="M1286.43,-115.403C1190.18,-104.93 1049.77,-89.6505 956.703,-79.5231"/>
<polygon fill="midnightblue" stroke="midnightblue" points="1286.16,-118.894 1296.48,-116.497 1286.92,-111.935 1286.16,-118.894"/>
</g>
<!-- Node7 -->
<g id="node13" class="node"><title>Node7</title>
<a xlink:href="../../d7/db4/_notification_ind_8h.html" target="_top" xlink:title="/home/vilon_tao/gaia/sdk/include/gaia/telephony/mms/NotificationInd.h">
<polygon fill="white" stroke="black" points="1060,-58.5 1060,-79.5 1384,-79.5 1384,-58.5 1060,-58.5"/>
<text text-anchor="middle" x="1222" y="-66.5" font-family="Helvetica,sans-Serif" font-size="10.00">/home/vilon_tao/gaia/sdk/include/gaia/telephony/mms/NotificationInd.h</text>
</a>
</g>
<!-- Node1&#45;&gt;Node7 -->
<g id="edge12" class="edge"><title>Node1&#45;&gt;Node7</title>
<path fill="none" stroke="midnightblue" d="M1352.55,-113.279C1322.08,-102.944 1280.92,-88.9849 1253.02,-79.5231"/>
<polygon fill="midnightblue" stroke="midnightblue" points="1351.44,-116.599 1362.03,-116.497 1353.69,-109.97 1351.44,-116.599"/>
</g>
<!-- Node8 -->
<g id="node15" class="node"><title>Node8</title>
<a xlink:href="../../d1/dc8/_notify_resp_ind_8h.html" target="_top" xlink:title="/home/vilon_tao/gaia/sdk/include/gaia/telephony/mms/NotifyRespInd.h">
<polygon fill="white" stroke="black" points="1402,-58.5 1402,-79.5 1726,-79.5 1726,-58.5 1402,-58.5"/>
<text text-anchor="middle" x="1564" y="-66.5" font-family="Helvetica,sans-Serif" font-size="10.00">/home/vilon_tao/gaia/sdk/include/gaia/telephony/mms/NotifyRespInd.h</text>
</a>
</g>
<!-- Node1&#45;&gt;Node8 -->
<g id="edge14" class="edge"><title>Node1&#45;&gt;Node8</title>
<path fill="none" stroke="midnightblue" d="M1433.45,-113.279C1463.92,-102.944 1505.08,-88.9849 1532.98,-79.5231"/>
<polygon fill="midnightblue" stroke="midnightblue" points="1432.31,-109.97 1423.97,-116.497 1434.56,-116.599 1432.31,-109.97"/>
</g>
<!-- Node9 -->
<g id="node17" class="node"><title>Node9</title>
<a xlink:href="../../d8/d5f/_read_orig_ind_8h.html" target="_top" xlink:title="/home/vilon_tao/gaia/sdk/include/gaia/telephony/mms/ReadOrigInd.h">
<polygon fill="white" stroke="black" points="1744,-58.5 1744,-79.5 2060,-79.5 2060,-58.5 1744,-58.5"/>
<text text-anchor="middle" x="1902" y="-66.5" font-family="Helvetica,sans-Serif" font-size="10.00">/home/vilon_tao/gaia/sdk/include/gaia/telephony/mms/ReadOrigInd.h</text>
</a>
</g>
<!-- Node1&#45;&gt;Node9 -->
<g id="edge16" class="edge"><title>Node1&#45;&gt;Node9</title>
<path fill="none" stroke="midnightblue" d="M1495.33,-115.34C1587.23,-104.868 1720.95,-89.63 1809.65,-79.5231"/>
<polygon fill="midnightblue" stroke="midnightblue" points="1494.72,-111.887 1485.18,-116.497 1495.51,-118.842 1494.72,-111.887"/>
</g>
<!-- Node10 -->
<g id="node19" class="node"><title>Node10</title>
<a xlink:href="../../d2/d14/_read_rec_ind_8h.html" target="_top" xlink:title="/home/vilon_tao/gaia/sdk/include/gaia/telephony/mms/ReadRecInd.h">
<polygon fill="white" stroke="black" points="2078,-58.5 2078,-79.5 2394,-79.5 2394,-58.5 2078,-58.5"/>
<text text-anchor="middle" x="2236" y="-66.5" font-family="Helvetica,sans-Serif" font-size="10.00">/home/vilon_tao/gaia/sdk/include/gaia/telephony/mms/ReadRecInd.h</text>
</a>
</g>
<!-- Node1&#45;&gt;Node10 -->
<g id="edge18" class="edge"><title>Node1&#45;&gt;Node10</title>
<path fill="none" stroke="midnightblue" d="M1556.04,-115.782C1708.38,-105.301 1934.07,-89.7734 2083.05,-79.5231"/>
<polygon fill="midnightblue" stroke="midnightblue" points="1555.4,-112.318 1545.66,-116.497 1555.88,-119.302 1555.4,-112.318"/>
</g>
<!-- Node11 -->
<g id="node21" class="node"><title>Node11</title>
<a xlink:href="../../d7/df8/_send_conf_8h.html" target="_top" xlink:title="/home/vilon_tao/gaia/sdk/include/gaia/telephony/mms/SendConf.h">
<polygon fill="white" stroke="black" points="2411.5,-58.5 2411.5,-79.5 2716.5,-79.5 2716.5,-58.5 2411.5,-58.5"/>
<text text-anchor="middle" x="2564" y="-66.5" font-family="Helvetica,sans-Serif" font-size="10.00">/home/vilon_tao/gaia/sdk/include/gaia/telephony/mms/SendConf.h</text>
</a>
</g>
<!-- Node1&#45;&gt;Node11 -->
<g id="edge20" class="edge"><title>Node1&#45;&gt;Node11</title>
<path fill="none" stroke="midnightblue" d="M1559.22,-120.372C1759.43,-112.133 2105.93,-97.0583 2403,-80 2405.8,-79.8394 2408.62,-79.6745 2411.47,-79.506"/>
<polygon fill="midnightblue" stroke="midnightblue" points="1559.06,-116.876 1549.21,-120.784 1559.34,-123.87 1559.06,-116.876"/>
</g>
<!-- Node5 -->
<g id="node9" class="node"><title>Node5</title>
<a xlink:href="../../d7/d97/_retrieve_conf_8h.html" target="_top" xlink:title="/home/vilon_tao/gaia/sdk/include/gaia/telephony/mms/RetrieveConf.h">
<polygon fill="white" stroke="black" points="536.5,-0.5 536.5,-21.5 855.5,-21.5 855.5,-0.5 536.5,-0.5"/>
<text text-anchor="middle" x="696" y="-8.5" font-family="Helvetica,sans-Serif" font-size="10.00">/home/vilon_tao/gaia/sdk/include/gaia/telephony/mms/RetrieveConf.h</text>
</a>
</g>
<!-- Node4&#45;&gt;Node5 -->
<g id="edge8" class="edge"><title>Node4&#45;&gt;Node5</title>
<path fill="none" stroke="midnightblue" d="M820.822,-55.1443C791.637,-44.8229 752.393,-30.9439 725.755,-21.5231"/>
<polygon fill="midnightblue" stroke="midnightblue" points="819.706,-58.4621 830.301,-58.4966 822.04,-51.8626 819.706,-58.4621"/>
</g>
<!-- Node6 -->
<g id="node11" class="node"><title>Node6</title>
<a xlink:href="../../d7/dbb/_send_req_8h.html" target="_top" xlink:title="/home/vilon_tao/gaia/sdk/include/gaia/telephony/mms/SendReq.h">
<polygon fill="white" stroke="black" points="873,-0.5 873,-21.5 1175,-21.5 1175,-0.5 873,-0.5"/>
<text text-anchor="middle" x="1024" y="-8.5" font-family="Helvetica,sans-Serif" font-size="10.00">/home/vilon_tao/gaia/sdk/include/gaia/telephony/mms/SendReq.h</text>
</a>
</g>
<!-- Node4&#45;&gt;Node6 -->
<g id="edge10" class="edge"><title>Node4&#45;&gt;Node6</title>
<path fill="none" stroke="midnightblue" d="M899.178,-55.1443C928.363,-44.8229 967.607,-30.9439 994.245,-21.5231"/>
<polygon fill="midnightblue" stroke="midnightblue" points="897.96,-51.8626 889.699,-58.4966 900.294,-58.4621 897.96,-51.8626"/>
</g>
</g>
</svg>
