<?xml version="1.0" encoding="UTF-8" standalone="no"?>
<!DOCTYPE svg PUBLIC "-//W3C//DTD SVG 1.1//EN"
 "http://www.w3.org/Graphics/SVG/1.1/DTD/svg11.dtd">
<!-- Generated by graphviz version 2.26.3 (20100126.1600)
 -->
<!-- Title: G Pages: 1 -->
<svg width="426pt" height="204pt"
 viewBox="0.00 0.00 426.00 204.00" xmlns="http://www.w3.org/2000/svg" xmlns:xlink="http://www.w3.org/1999/xlink">
<g id="graph1" class="graph" transform="scale(1 1) rotate(0) translate(4 200)">
<title>G</title>
<polygon fill="white" stroke="white" points="-4,5 -4,-200 423,-200 423,5 -4,5"/>
<!-- Node1 -->
<g id="node1" class="node"><title>Node1</title>
<polygon fill="#bfbfbf" stroke="black" points="0,-174.5 0,-195.5 308,-195.5 308,-174.5 0,-174.5"/>
<text text-anchor="middle" x="154" y="-182.5" font-family="Helvetica,sans-Serif" font-size="10.00">/home/vilon_tao/gaia/sdk/include/gaia/ui/IExpandableListProvider.h</text>
</g>
<!-- Node2 -->
<g id="node3" class="node"><title>Node2</title>
<polygon fill="white" stroke="#bfbfbf" points="35,-116.5 35,-137.5 83,-137.5 83,-116.5 35,-116.5"/>
<text text-anchor="middle" x="59" y="-124.5" font-family="Helvetica,sans-Serif" font-size="10.00">limits.h</text>
</g>
<!-- Node1&#45;&gt;Node2 -->
<g id="edge2" class="edge"><title>Node1&#45;&gt;Node2</title>
<path fill="none" stroke="midnightblue" d="M136.576,-174.362C122.113,-165.532 101.331,-152.844 84.916,-142.822"/>
<polygon fill="midnightblue" stroke="midnightblue" points="86.6729,-139.794 76.314,-137.571 83.0252,-145.769 86.6729,-139.794"/>
</g>
<!-- Node3 -->
<g id="node5" class="node"><title>Node3</title>
<a xlink:href="../../d1/dd0/gmacros_8h.html" target="_top" xlink:title="gaia/base/gmacros.h">
<polygon fill="white" stroke="black" points="100.5,-116.5 100.5,-137.5 207.5,-137.5 207.5,-116.5 100.5,-116.5"/>
<text text-anchor="middle" x="154" y="-124.5" font-family="Helvetica,sans-Serif" font-size="10.00">gaia/base/gmacros.h</text>
</a>
</g>
<!-- Node1&#45;&gt;Node3 -->
<g id="edge4" class="edge"><title>Node1&#45;&gt;Node3</title>
<path fill="none" stroke="midnightblue" d="M154,-174.362C154,-166.922 154,-156.743 154,-147.728"/>
<polygon fill="midnightblue" stroke="midnightblue" points="157.5,-147.571 154,-137.571 150.5,-147.571 157.5,-147.571"/>
</g>
<!-- Node4 -->
<g id="node7" class="node"><title>Node4</title>
<a xlink:href="../../d4/d7f/_vector_8h.html" target="_top" xlink:title="gaia/base/Vector.h">
<polygon fill="white" stroke="black" points="225,-116.5 225,-137.5 323,-137.5 323,-116.5 225,-116.5"/>
<text text-anchor="middle" x="274" y="-124.5" font-family="Helvetica,sans-Serif" font-size="10.00">gaia/base/Vector.h</text>
</a>
</g>
<!-- Node1&#45;&gt;Node4 -->
<g id="edge6" class="edge"><title>Node1&#45;&gt;Node4</title>
<path fill="none" stroke="midnightblue" d="M175.731,-174.497C194.474,-165.438 221.767,-152.246 242.836,-142.063"/>
<polygon fill="midnightblue" stroke="midnightblue" points="244.545,-145.124 252.025,-137.621 241.498,-138.822 244.545,-145.124"/>
</g>
<!-- Node5 -->
<g id="node9" class="node"><title>Node5</title>
<a xlink:href="../../d1/d86/_type_helpers_8h.html" target="_top" xlink:title="gaia/base/TypeHelpers.h">
<polygon fill="white" stroke="black" points="121.5,-58.5 121.5,-79.5 246.5,-79.5 246.5,-58.5 121.5,-58.5"/>
<text text-anchor="middle" x="184" y="-66.5" font-family="Helvetica,sans-Serif" font-size="10.00">gaia/base/TypeHelpers.h</text>
</a>
</g>
<!-- Node4&#45;&gt;Node5 -->
<g id="edge8" class="edge"><title>Node4&#45;&gt;Node5</title>
<path fill="none" stroke="midnightblue" d="M257.493,-116.362C243.918,-107.614 224.467,-95.0786 208.985,-85.1015"/>
<polygon fill="midnightblue" stroke="midnightblue" points="210.704,-82.0457 200.403,-79.5707 206.912,-87.9297 210.704,-82.0457"/>
</g>
<!-- Node8 -->
<g id="node15" class="node"><title>Node8</title>
<polygon fill="white" stroke="#bfbfbf" points="259,-0.5 259,-21.5 327,-21.5 327,-0.5 259,-0.5"/>
<text text-anchor="middle" x="293" y="-8.5" font-family="Helvetica,sans-Serif" font-size="10.00">sys/types.h</text>
</g>
<!-- Node4&#45;&gt;Node8 -->
<g id="edge22" class="edge"><title>Node4&#45;&gt;Node8</title>
<path fill="none" stroke="midnightblue" d="M275.753,-116.295C278.892,-97.1314 285.522,-56.654 289.586,-31.8434"/>
<polygon fill="midnightblue" stroke="midnightblue" points="293.088,-32.1135 291.251,-21.6792 286.18,-30.9819 293.088,-32.1135"/>
</g>
<!-- Node10 -->
<g id="node19" class="node"><title>Node10</title>
<a xlink:href="../../dc/da9/_vector_impl_8h.html" target="_top" xlink:title="gaia/base/VectorImpl.h">
<polygon fill="white" stroke="black" points="301.5,-58.5 301.5,-79.5 418.5,-79.5 418.5,-58.5 301.5,-58.5"/>
<text text-anchor="middle" x="360" y="-66.5" font-family="Helvetica,sans-Serif" font-size="10.00">gaia/base/VectorImpl.h</text>
</a>
</g>
<!-- Node4&#45;&gt;Node10 -->
<g id="edge18" class="edge"><title>Node4&#45;&gt;Node10</title>
<path fill="none" stroke="midnightblue" d="M289.774,-116.362C302.624,-107.696 320.985,-95.3126 335.71,-85.3819"/>
<polygon fill="midnightblue" stroke="midnightblue" points="337.993,-88.0639 344.326,-79.5707 334.079,-82.2604 337.993,-88.0639"/>
</g>
<!-- Node6 -->
<g id="node11" class="node"><title>Node6</title>
<polygon fill="white" stroke="#bfbfbf" points="74.5,-0.5 74.5,-21.5 123.5,-21.5 123.5,-0.5 74.5,-0.5"/>
<text text-anchor="middle" x="99" y="-8.5" font-family="Helvetica,sans-Serif" font-size="10.00">stdint.h</text>
</g>
<!-- Node5&#45;&gt;Node6 -->
<g id="edge10" class="edge"><title>Node5&#45;&gt;Node6</title>
<path fill="none" stroke="midnightblue" d="M168.41,-58.3619C155.709,-49.6955 137.562,-37.3126 123.008,-27.3819"/>
<polygon fill="midnightblue" stroke="midnightblue" points="124.724,-24.316 114.491,-21.5707 120.779,-30.0982 124.724,-24.316"/>
</g>
<!-- Node7 -->
<g id="node13" class="node"><title>Node7</title>
<polygon fill="white" stroke="#bfbfbf" points="140.5,-0.5 140.5,-21.5 189.5,-21.5 189.5,-0.5 140.5,-0.5"/>
<text text-anchor="middle" x="165" y="-8.5" font-family="Helvetica,sans-Serif" font-size="10.00">string.h</text>
</g>
<!-- Node5&#45;&gt;Node7 -->
<g id="edge12" class="edge"><title>Node5&#45;&gt;Node7</title>
<path fill="none" stroke="midnightblue" d="M180.515,-58.3619C178.024,-50.7584 174.596,-40.294 171.596,-31.1349"/>
<polygon fill="midnightblue" stroke="midnightblue" points="174.902,-29.9841 168.463,-21.5707 168.25,-32.1634 174.902,-29.9841"/>
</g>
<!-- Node5&#45;&gt;Node8 -->
<g id="edge14" class="edge"><title>Node5&#45;&gt;Node8</title>
<path fill="none" stroke="midnightblue" d="M203.739,-58.4966C220.61,-49.5194 245.109,-36.4835 264.174,-26.3387"/>
<polygon fill="midnightblue" stroke="midnightblue" points="265.856,-29.4086 273.039,-21.6212 262.567,-23.2289 265.856,-29.4086"/>
</g>
<!-- Node9 -->
<g id="node17" class="node"><title>Node9</title>
<polygon fill="white" stroke="#bfbfbf" points="206.5,-0.5 206.5,-21.5 241.5,-21.5 241.5,-0.5 206.5,-0.5"/>
<text text-anchor="middle" x="224" y="-8.5" font-family="Helvetica,sans-Serif" font-size="10.00">new</text>
</g>
<!-- Node5&#45;&gt;Node9 -->
<g id="edge16" class="edge"><title>Node5&#45;&gt;Node9</title>
<path fill="none" stroke="midnightblue" d="M191.337,-58.3619C196.806,-50.4313 204.422,-39.3885 210.924,-29.9606"/>
<polygon fill="midnightblue" stroke="midnightblue" points="213.914,-31.7899 216.71,-21.5707 208.151,-27.8157 213.914,-31.7899"/>
</g>
<!-- Node10&#45;&gt;Node8 -->
<g id="edge20" class="edge"><title>Node10&#45;&gt;Node8</title>
<path fill="none" stroke="midnightblue" d="M347.711,-58.3619C337.983,-49.9408 324.202,-38.0105 312.905,-28.2308"/>
<polygon fill="midnightblue" stroke="midnightblue" points="315.062,-25.4695 305.211,-21.5707 310.481,-30.7619 315.062,-25.4695"/>
</g>
</g>
</svg>
