<?xml version="1.0" encoding="UTF-8" standalone="no"?>
<!DOCTYPE svg PUBLIC "-//W3C//DTD SVG 1.1//EN"
 "http://www.w3.org/Graphics/SVG/1.1/DTD/svg11.dtd">
<!-- Generated by graphviz version 2.26.3 (20100126.1600)
 -->
<!-- Title: G Pages: 1 -->
<svg width="148pt" height="146pt"
 viewBox="0.00 0.00 148.00 146.00" xmlns="http://www.w3.org/2000/svg" xmlns:xlink="http://www.w3.org/1999/xlink">
<g id="graph1" class="graph" transform="scale(1 1) rotate(0) translate(4 142)">
<title>G</title>
<polygon fill="white" stroke="white" points="-4,5 -4,-142 145,-142 145,5 -4,5"/>
<!-- Node1 -->
<g id="node1" class="node"><title>Node1</title>
<polygon fill="#bfbfbf" stroke="black" points="11,-0.5 11,-21.5 129,-21.5 129,-0.5 11,-0.5"/>
<text text-anchor="middle" x="70" y="-8.5" font-family="Helvetica,sans-Serif" font-size="10.00">gaia::core::ProviderInfo</text>
</g>
<!-- Node2 -->
<g id="node2" class="node"><title>Node2</title>
<a xlink:href="../../d1/dc3/classgaia_1_1core_1_1_component_info.html" target="_top" xlink:title="Base class containing information common to all application components (PageInfo, DelegateInfo)...">
<polygon fill="white" stroke="black" points="4,-58.5 4,-79.5 136,-79.5 136,-58.5 4,-58.5"/>
<text text-anchor="middle" x="70" y="-66.5" font-family="Helvetica,sans-Serif" font-size="10.00">gaia::core::ComponentInfo</text>
</a>
</g>
<!-- Node2&#45;&gt;Node1 -->
<g id="edge2" class="edge"><title>Node2&#45;&gt;Node1</title>
<path fill="none" stroke="midnightblue" d="M70,-48.1906C70,-39.1684 70,-28.9941 70,-21.5707"/>
<polygon fill="midnightblue" stroke="midnightblue" points="66.5001,-48.3619 70,-58.3619 73.5001,-48.3619 66.5001,-48.3619"/>
</g>
<!-- Node3 -->
<g id="node4" class="node"><title>Node3</title>
<a xlink:href="../../da/d5c/classgaia_1_1core_1_1_package_item_info.html" target="_top" xlink:title="Base class containing information common to all package items held by the package manager...">
<polygon fill="white" stroke="black" points="0,-116.5 0,-137.5 140,-137.5 140,-116.5 0,-116.5"/>
<text text-anchor="middle" x="70" y="-124.5" font-family="Helvetica,sans-Serif" font-size="10.00">gaia::core::PackageItemInfo</text>
</a>
</g>
<!-- Node3&#45;&gt;Node2 -->
<g id="edge4" class="edge"><title>Node3&#45;&gt;Node2</title>
<path fill="none" stroke="midnightblue" d="M70,-106.191C70,-97.1684 70,-86.9941 70,-79.5707"/>
<polygon fill="midnightblue" stroke="midnightblue" points="66.5001,-106.362 70,-116.362 73.5001,-106.362 66.5001,-106.362"/>
</g>
</g>
</svg>
