<?xml version="1.0" encoding="UTF-8" standalone="no"?>
<!DOCTYPE svg PUBLIC "-//W3C//DTD SVG 1.1//EN"
 "http://www.w3.org/Graphics/SVG/1.1/DTD/svg11.dtd">
<!-- Generated by graphviz version 2.26.3 (20100126.1600)
 -->
<!-- Title: G Pages: 1 -->
<svg width="386pt" height="234pt"
 viewBox="0.00 0.00 386.00 234.00" xmlns="http://www.w3.org/2000/svg" xmlns:xlink="http://www.w3.org/1999/xlink">
<g id="graph1" class="graph" transform="scale(1 1) rotate(0) translate(4 230)">
<title>G</title>
<polygon fill="white" stroke="white" points="-4,5 -4,-230 383,-230 383,5 -4,5"/>
<!-- Node1 -->
<g id="node1" class="node"><title>Node1</title>
<polygon fill="#bfbfbf" stroke="black" points="167,-0.5 167,-21.5 299,-21.5 299,-0.5 167,-0.5"/>
<text text-anchor="middle" x="233" y="-8.5" font-family="Helvetica,sans-Serif" font-size="10.00">gaia::net::SSLRequestInfo</text>
</g>
<!-- Node2 -->
<g id="node2" class="node"><title>Node2</title>
<a xlink:href="../../d2/db0/classgaia_1_1base_1_1_array.html" target="_top" xlink:title="gaia::base::Array\&lt; gaia::security::X509Certificate * \&gt;">
<polygon fill="white" stroke="black" points="0,-72.5 0,-93.5 248,-93.5 248,-72.5 0,-72.5"/>
<text text-anchor="middle" x="124" y="-80.5" font-family="Helvetica,sans-Serif" font-size="10.00">gaia::base::Array&lt; gaia::security::X509Certificate * &gt;</text>
</a>
</g>
<!-- Node2&#45;&gt;Node1 -->
<g id="edge2" class="edge"><title>Node2&#45;&gt;Node1</title>
<path fill="none" stroke="#9a32cd" stroke-dasharray="5,2" d="M148.452,-66.8481C169.339,-53.0514 198.791,-33.597 216.851,-21.6674"/>
<polygon fill="#9a32cd" stroke="#9a32cd" points="146.498,-63.9441 140.083,-72.3762 150.356,-69.7849 146.498,-63.9441"/>
<text text-anchor="middle" x="206" y="-44.5" font-family="Helvetica,sans-Serif" font-size="10.00"> mCerts</text>
</g>
<!-- Node3 -->
<g id="node4" class="node"><title>Node3</title>
<a xlink:href="../../d2/d80/classgaia_1_1base_1_1_array_impl.html" target="_top" xlink:title="Implements array data structure and its operation methods.">
<polygon fill="white" stroke="black" points="26,-204.5 26,-225.5 136,-225.5 136,-204.5 26,-204.5"/>
<text text-anchor="middle" x="81" y="-212.5" font-family="Helvetica,sans-Serif" font-size="10.00">gaia::base::ArrayImpl</text>
</a>
</g>
<!-- Node3&#45;&gt;Node2 -->
<g id="edge4" class="edge"><title>Node3&#45;&gt;Node2</title>
<path fill="none" stroke="#8b1a1a" d="M72.4604,-194.541C67.6816,-180.037 63.81,-160.331 70,-144 77.9705,-122.971 96.8711,-104.533 110.05,-93.5793"/>
<polygon fill="#8b1a1a" stroke="#8b1a1a" points="69.2266,-195.888 75.9695,-204.06 75.7945,-193.466 69.2266,-195.888"/>
</g>
<!-- Node4 -->
<g id="node6" class="node"><title>Node4</title>
<a xlink:href="../../d2/db0/classgaia_1_1base_1_1_array.html" target="_top" xlink:title="Implements array to replace C&#45;style array.">
<polygon fill="white" stroke="black" points="78.5,-144.5 78.5,-165.5 213.5,-165.5 213.5,-144.5 78.5,-144.5"/>
<text text-anchor="middle" x="146" y="-152.5" font-family="Helvetica,sans-Serif" font-size="10.00">gaia::base::Array&lt; TYPE &gt;</text>
</a>
</g>
<!-- Node3&#45;&gt;Node4 -->
<g id="edge8" class="edge"><title>Node3&#45;&gt;Node4</title>
<path fill="none" stroke="#8b1a1a" d="M100.19,-197.286C111.329,-187.004 124.989,-174.395 134.48,-165.634"/>
<polygon fill="#8b1a1a" stroke="#8b1a1a" points="97.5948,-194.919 92.6207,-204.273 102.343,-200.062 97.5948,-194.919"/>
</g>
<!-- Node4&#45;&gt;Node2 -->
<g id="edge6" class="edge"><title>Node4&#45;&gt;Node2</title>
<path fill="none" stroke="orange" stroke-dasharray="5,2" d="M139.776,-134.632C135.704,-121.303 130.547,-104.425 127.259,-93.6674"/>
<polygon fill="orange" stroke="orange" points="136.484,-135.835 142.754,-144.376 143.179,-133.79 136.484,-135.835"/>
<text text-anchor="middle" x="216" y="-116.5" font-family="Helvetica,sans-Serif" font-size="10.00"> &lt; gaia::security::X509Certificate * &gt;</text>
</g>
<!-- Node5 -->
<g id="node9" class="node"><title>Node5</title>
<a xlink:href="../../d2/ddb/classgaia_1_1base_1_1_string.html" target="_top" xlink:title="A String is represented by array of UTF&#45;16 values, such that Unicode supplementary characters (code p...">
<polygon fill="white" stroke="black" points="265.5,-72.5 265.5,-93.5 358.5,-93.5 358.5,-72.5 265.5,-72.5"/>
<text text-anchor="middle" x="312" y="-80.5" font-family="Helvetica,sans-Serif" font-size="10.00">gaia::base::String</text>
</a>
</g>
<!-- Node5&#45;&gt;Node1 -->
<g id="edge10" class="edge"><title>Node5&#45;&gt;Node1</title>
<path fill="none" stroke="#9a32cd" stroke-dasharray="5,2" d="M292.633,-65.3488C277.626,-51.6714 257.326,-33.1709 244.705,-21.6674"/>
<polygon fill="#9a32cd" stroke="#9a32cd" points="290.595,-68.2269 300.343,-72.3762 295.31,-63.0533 290.595,-68.2269"/>
<text text-anchor="middle" x="313" y="-44.5" font-family="Helvetica,sans-Serif" font-size="10.00"> mHostAndPort</text>
</g>
<!-- Node6 -->
<g id="node11" class="node"><title>Node6</title>
<a xlink:href="../../d1/d0f/classgaia_1_1base_1_1_char_sequence.html" target="_top" xlink:title="This interface represents an ordered set of characters and defines the methods to probe them...">
<polygon fill="white" stroke="black" points="246,-144.5 246,-165.5 378,-165.5 378,-144.5 246,-144.5"/>
<text text-anchor="middle" x="312" y="-152.5" font-family="Helvetica,sans-Serif" font-size="10.00">gaia::base::CharSequence</text>
</a>
</g>
<!-- Node6&#45;&gt;Node5 -->
<g id="edge12" class="edge"><title>Node6&#45;&gt;Node5</title>
<path fill="none" stroke="midnightblue" d="M312,-134.235C312,-120.969 312,-104.319 312,-93.6674"/>
<polygon fill="midnightblue" stroke="midnightblue" points="308.5,-134.376 312,-144.376 315.5,-134.376 308.5,-134.376"/>
</g>
</g>
</svg>
