<?xml version="1.0" encoding="UTF-8" standalone="no"?>
<!DOCTYPE svg PUBLIC "-//W3C//DTD SVG 1.1//EN"
 "http://www.w3.org/Graphics/SVG/1.1/DTD/svg11.dtd">
<!-- Generated by graphviz version 2.26.3 (20100126.1600)
 -->
<!-- Title: G Pages: 1 -->
<svg width="419pt" height="204pt"
 viewBox="0.00 0.00 419.00 204.00" xmlns="http://www.w3.org/2000/svg" xmlns:xlink="http://www.w3.org/1999/xlink">
<g id="graph1" class="graph" transform="scale(1 1) rotate(0) translate(4 200)">
<title>G</title>
<polygon fill="white" stroke="white" points="-4,5 -4,-200 416,-200 416,5 -4,5"/>
<!-- Node1 -->
<g id="node1" class="node"><title>Node1</title>
<polygon fill="#bfbfbf" stroke="black" points="-0.5,-174.5 -0.5,-195.5 310.5,-195.5 310.5,-174.5 -0.5,-174.5"/>
<text text-anchor="middle" x="155" y="-182.5" font-family="Helvetica,sans-Serif" font-size="10.00">/home/vilon_tao/gaia/sdk/include/gaia/telephony/mms/DeliveryInd.h</text>
</g>
<!-- Node2 -->
<g id="node3" class="node"><title>Node2</title>
<a xlink:href="../../d1/dd0/gmacros_8h.html" target="_top" xlink:title="gaia/base/gmacros.h">
<polygon fill="white" stroke="black" points="95.5,-0.5 95.5,-21.5 202.5,-21.5 202.5,-0.5 95.5,-0.5"/>
<text text-anchor="middle" x="149" y="-8.5" font-family="Helvetica,sans-Serif" font-size="10.00">gaia/base/gmacros.h</text>
</a>
</g>
<!-- Node1&#45;&gt;Node2 -->
<g id="edge2" class="edge"><title>Node1&#45;&gt;Node2</title>
<path fill="none" stroke="midnightblue" d="M143.44,-174.296C134.849,-165.501 123.817,-152.212 119,-138 106.415,-100.874 124.548,-55.9158 137.623,-30.6739"/>
<polygon fill="midnightblue" stroke="midnightblue" points="140.785,-32.1869 142.479,-21.7285 134.633,-28.8472 140.785,-32.1869"/>
</g>
<!-- Node3 -->
<g id="node5" class="node"><title>Node3</title>
<a xlink:href="../../d9/d1b/_generic_pdu_8h.html" target="_top" xlink:title="gaia/telephony/mms/GenericPdu.h">
<polygon fill="white" stroke="black" points="127.5,-116.5 127.5,-137.5 294.5,-137.5 294.5,-116.5 127.5,-116.5"/>
<text text-anchor="middle" x="211" y="-124.5" font-family="Helvetica,sans-Serif" font-size="10.00">gaia/telephony/mms/GenericPdu.h</text>
</a>
</g>
<!-- Node1&#45;&gt;Node3 -->
<g id="edge4" class="edge"><title>Node1&#45;&gt;Node3</title>
<path fill="none" stroke="midnightblue" d="M165.271,-174.362C173.244,-166.104 184.475,-154.472 193.811,-144.803"/>
<polygon fill="midnightblue" stroke="midnightblue" points="196.366,-147.196 200.794,-137.571 191.33,-142.334 196.366,-147.196"/>
</g>
<!-- Node3&#45;&gt;Node2 -->
<g id="edge8" class="edge"><title>Node3&#45;&gt;Node2</title>
<path fill="none" stroke="midnightblue" d="M198.331,-116.252C188.698,-107.432 175.81,-94.1325 168,-80 159.749,-65.069 154.883,-46.3066 152.145,-32.1173"/>
<polygon fill="midnightblue" stroke="midnightblue" points="155.528,-31.1391 150.381,-21.8786 148.63,-32.3277 155.528,-31.1391"/>
</g>
<!-- Node4 -->
<g id="node7" class="node"><title>Node4</title>
<polygon fill="white" stroke="#bfbfbf" points="177,-58.5 177,-79.5 223,-79.5 223,-58.5 177,-58.5"/>
<text text-anchor="middle" x="200" y="-66.5" font-family="Helvetica,sans-Serif" font-size="10.00">cstdint</text>
</g>
<!-- Node3&#45;&gt;Node4 -->
<g id="edge6" class="edge"><title>Node3&#45;&gt;Node4</title>
<path fill="none" stroke="midnightblue" d="M208.982,-116.362C207.556,-108.84 205.598,-98.5187 203.875,-89.4308"/>
<polygon fill="midnightblue" stroke="midnightblue" points="207.307,-88.7433 202.005,-79.5707 200.429,-90.0477 207.307,-88.7433"/>
</g>
<!-- Node5 -->
<g id="node10" class="node"><title>Node5</title>
<a xlink:href="../../d5/d48/_pdu_headers_8h.html" target="_top" xlink:title="gaia/telephony/mms/PduHeaders.h">
<polygon fill="white" stroke="black" points="241,-58.5 241,-79.5 411,-79.5 411,-58.5 241,-58.5"/>
<text text-anchor="middle" x="326" y="-66.5" font-family="Helvetica,sans-Serif" font-size="10.00">gaia/telephony/mms/PduHeaders.h</text>
</a>
</g>
<!-- Node3&#45;&gt;Node5 -->
<g id="edge10" class="edge"><title>Node3&#45;&gt;Node5</title>
<path fill="none" stroke="midnightblue" d="M231.826,-116.497C249.706,-107.479 275.707,-94.3649 295.861,-84.2006"/>
<polygon fill="midnightblue" stroke="midnightblue" points="297.588,-87.2495 304.941,-79.6212 294.436,-80.9994 297.588,-87.2495"/>
</g>
<!-- Node5&#45;&gt;Node2 -->
<g id="edge12" class="edge"><title>Node5&#45;&gt;Node2</title>
<path fill="none" stroke="midnightblue" d="M293.947,-58.4966C265.091,-49.0411 222.494,-35.0829 190.939,-24.7428"/>
<polygon fill="midnightblue" stroke="midnightblue" points="191.706,-21.3111 181.113,-21.5231 189.526,-27.963 191.706,-21.3111"/>
</g>
</g>
</svg>
