<?xml version="1.0" encoding="UTF-8" standalone="no"?>
<!DOCTYPE svg PUBLIC "-//W3C//DTD SVG 1.1//EN"
 "http://www.w3.org/Graphics/SVG/1.1/DTD/svg11.dtd">
<!-- Generated by graphviz version 2.26.3 (20100126.1600)
 -->
<!-- Title: G Pages: 1 -->
<svg width="682pt" height="262pt"
 viewBox="0.00 0.00 682.00 262.00" xmlns="http://www.w3.org/2000/svg" xmlns:xlink="http://www.w3.org/1999/xlink">
<g id="graph1" class="graph" transform="scale(1 1) rotate(0) translate(4 258)">
<title>G</title>
<polygon fill="white" stroke="white" points="-4,5 -4,-258 679,-258 679,5 -4,5"/>
<!-- Node1 -->
<g id="node1" class="node"><title>Node1</title>
<polygon fill="#bfbfbf" stroke="black" points="0,-232.5 0,-253.5 360,-253.5 360,-232.5 0,-232.5"/>
<text text-anchor="middle" x="180" y="-240.5" font-family="Helvetica,sans-Serif" font-size="10.00">/home/vilon_tao/gaia/sdk/include/gaia/core/appwidget/AppWidgetHostWidget.h</text>
</g>
<!-- Node2 -->
<g id="node3" class="node"><title>Node2</title>
<polygon fill="white" stroke="#bfbfbf" points="128,-0.5 128,-21.5 196,-21.5 196,-0.5 128,-0.5"/>
<text text-anchor="middle" x="162" y="-8.5" font-family="Helvetica,sans-Serif" font-size="10.00">sys/types.h</text>
</g>
<!-- Node1&#45;&gt;Node2 -->
<g id="edge2" class="edge"><title>Node1&#45;&gt;Node2</title>
<path fill="none" stroke="midnightblue" d="M168.125,-232.36C159.299,-223.599 147.963,-210.327 143,-196 123.175,-138.768 142.608,-66.0728 154.409,-31.3093"/>
<polygon fill="midnightblue" stroke="midnightblue" points="157.738,-32.3923 157.774,-21.7975 151.139,-30.0574 157.738,-32.3923"/>
</g>
<!-- Node3 -->
<g id="node5" class="node"><title>Node3</title>
<a xlink:href="../../d6/d52/_widget_controller_8h.html" target="_top" xlink:title="gaia/core/vision/WidgetController.h">
<polygon fill="white" stroke="black" points="151.5,-174.5 151.5,-195.5 320.5,-195.5 320.5,-174.5 151.5,-174.5"/>
<text text-anchor="middle" x="236" y="-182.5" font-family="Helvetica,sans-Serif" font-size="10.00">gaia/core/vision/WidgetController.h</text>
</a>
</g>
<!-- Node1&#45;&gt;Node3 -->
<g id="edge4" class="edge"><title>Node1&#45;&gt;Node3</title>
<path fill="none" stroke="midnightblue" d="M190.271,-232.362C198.244,-224.104 209.475,-212.472 218.811,-202.803"/>
<polygon fill="midnightblue" stroke="midnightblue" points="221.366,-205.196 225.794,-195.571 216.33,-200.334 221.366,-205.196"/>
</g>
<!-- Node4 -->
<g id="node7" class="node"><title>Node4</title>
<a xlink:href="../../d3/dd0/_event_control_8h.html" target="_top" xlink:title="gaia/core/event/EventControl.h">
<polygon fill="white" stroke="black" points="156,-116.5 156,-137.5 308,-137.5 308,-116.5 156,-116.5"/>
<text text-anchor="middle" x="232" y="-124.5" font-family="Helvetica,sans-Serif" font-size="10.00">gaia/core/event/EventControl.h</text>
</a>
</g>
<!-- Node3&#45;&gt;Node4 -->
<g id="edge6" class="edge"><title>Node3&#45;&gt;Node4</title>
<path fill="none" stroke="midnightblue" d="M235.266,-174.362C234.753,-166.922 234.051,-156.743 233.429,-147.728"/>
<polygon fill="midnightblue" stroke="midnightblue" points="236.909,-147.306 232.729,-137.571 229.925,-147.788 236.909,-147.306"/>
</g>
<!-- Node5 -->
<g id="node10" class="node"><title>Node5</title>
<a xlink:href="../../d4/d75/_widget_8h.html" target="_top" xlink:title="gaia/core/vision/Widget.h">
<polygon fill="white" stroke="black" points="336.5,-116.5 336.5,-137.5 463.5,-137.5 463.5,-116.5 336.5,-116.5"/>
<text text-anchor="middle" x="400" y="-124.5" font-family="Helvetica,sans-Serif" font-size="10.00">gaia/core/vision/Widget.h</text>
</a>
</g>
<!-- Node3&#45;&gt;Node5 -->
<g id="edge10" class="edge"><title>Node3&#45;&gt;Node5</title>
<path fill="none" stroke="midnightblue" d="M265.699,-174.497C292.32,-165.082 331.562,-151.204 360.761,-140.877"/>
<polygon fill="midnightblue" stroke="midnightblue" points="361.984,-144.157 370.245,-137.523 359.65,-137.558 361.984,-144.157"/>
</g>
<!-- Node4&#45;&gt;Node2 -->
<g id="edge8" class="edge"><title>Node4&#45;&gt;Node2</title>
<path fill="none" stroke="midnightblue" d="M216.439,-116.384C205.033,-107.825 190.025,-94.8046 181,-80 171.93,-65.1206 167.095,-45.8349 164.577,-31.4367"/>
<polygon fill="midnightblue" stroke="midnightblue" points="168.035,-30.8935 163.072,-21.5331 161.115,-31.9455 168.035,-30.8935"/>
</g>
<!-- Node6 -->
<g id="node12" class="node"><title>Node6</title>
<a xlink:href="../../d1/dd0/gmacros_8h.html" target="_top" xlink:title="gaia/base/gmacros.h">
<polygon fill="white" stroke="black" points="189.5,-58.5 189.5,-79.5 296.5,-79.5 296.5,-58.5 189.5,-58.5"/>
<text text-anchor="middle" x="243" y="-66.5" font-family="Helvetica,sans-Serif" font-size="10.00">gaia/base/gmacros.h</text>
</a>
</g>
<!-- Node5&#45;&gt;Node6 -->
<g id="edge12" class="edge"><title>Node5&#45;&gt;Node6</title>
<path fill="none" stroke="midnightblue" d="M371.568,-116.497C346.195,-107.123 308.843,-93.3242 280.93,-83.0122"/>
<polygon fill="midnightblue" stroke="midnightblue" points="282.078,-79.7054 271.485,-79.5231 279.652,-86.2716 282.078,-79.7054"/>
</g>
<!-- Node7 -->
<g id="node14" class="node"><title>Node7</title>
<a xlink:href="../../d0/d92/_property_animatable_8h.html" target="_top" xlink:title="gaia/core/animator/PropertyAnimatable.h">
<polygon fill="white" stroke="black" points="314,-58.5 314,-79.5 508,-79.5 508,-58.5 314,-58.5"/>
<text text-anchor="middle" x="411" y="-66.5" font-family="Helvetica,sans-Serif" font-size="10.00">gaia/core/animator/PropertyAnimatable.h</text>
</a>
</g>
<!-- Node5&#45;&gt;Node7 -->
<g id="edge14" class="edge"><title>Node5&#45;&gt;Node7</title>
<path fill="none" stroke="midnightblue" d="M402.018,-116.362C403.444,-108.84 405.402,-98.5187 407.125,-89.4308"/>
<polygon fill="midnightblue" stroke="midnightblue" points="410.571,-90.0477 408.995,-79.5707 403.693,-88.7433 410.571,-90.0477"/>
</g>
<!-- Node8 -->
<g id="node17" class="node"><title>Node8</title>
<a xlink:href="../../d8/d50/_widget_core_8h.html" target="_top" xlink:title="gaia/core/vision/WidgetCore.h">
<polygon fill="white" stroke="black" points="526,-58.5 526,-79.5 674,-79.5 674,-58.5 526,-58.5"/>
<text text-anchor="middle" x="600" y="-66.5" font-family="Helvetica,sans-Serif" font-size="10.00">gaia/core/vision/WidgetCore.h</text>
</a>
</g>
<!-- Node5&#45;&gt;Node8 -->
<g id="edge18" class="edge"><title>Node5&#45;&gt;Node8</title>
<path fill="none" stroke="midnightblue" d="M436.218,-116.497C469.247,-106.918 518.208,-92.7196 553.994,-82.3418"/>
<polygon fill="midnightblue" stroke="midnightblue" points="555.084,-85.6699 563.714,-79.5231 553.134,-78.9469 555.084,-85.6699"/>
</g>
<!-- Node7&#45;&gt;Node2 -->
<g id="edge16" class="edge"><title>Node7&#45;&gt;Node2</title>
<path fill="none" stroke="midnightblue" d="M365.908,-58.4966C320.566,-47.9351 251.108,-31.7561 206.116,-21.276"/>
<polygon fill="midnightblue" stroke="midnightblue" points="206.882,-17.8608 196.349,-19.0009 205.294,-24.6783 206.882,-17.8608"/>
</g>
<!-- Node9 -->
<g id="node19" class="node"><title>Node9</title>
<polygon fill="white" stroke="#bfbfbf" points="575.5,-0.5 575.5,-21.5 624.5,-21.5 624.5,-0.5 575.5,-0.5"/>
<text text-anchor="middle" x="600" y="-8.5" font-family="Helvetica,sans-Serif" font-size="10.00">stdint.h</text>
</g>
<!-- Node8&#45;&gt;Node9 -->
<g id="edge20" class="edge"><title>Node8&#45;&gt;Node9</title>
<path fill="none" stroke="midnightblue" d="M600,-58.3619C600,-50.9219 600,-40.7427 600,-31.7276"/>
<polygon fill="midnightblue" stroke="midnightblue" points="603.5,-31.5706 600,-21.5707 596.5,-31.5707 603.5,-31.5706"/>
</g>
</g>
</svg>
