<?xml version="1.0" encoding="UTF-8" standalone="no"?>
<!DOCTYPE svg PUBLIC "-//W3C//DTD SVG 1.1//EN"
 "http://www.w3.org/Graphics/SVG/1.1/DTD/svg11.dtd">
<!-- Generated by graphviz version 2.26.3 (20100126.1600)
 -->
<!-- Title: G Pages: 1 -->
<svg width="1456pt" height="220pt"
 viewBox="0.00 0.00 1456.00 220.00" xmlns="http://www.w3.org/2000/svg" xmlns:xlink="http://www.w3.org/1999/xlink">
<g id="graph1" class="graph" transform="scale(1 1) rotate(0) translate(4 216)">
<title>G</title>
<polygon fill="white" stroke="white" points="-4,5 -4,-216 1453,-216 1453,5 -4,5"/>
<!-- Node1 -->
<g id="node1" class="node"><title>Node1</title>
<polygon fill="#bfbfbf" stroke="black" points="930,-113.5 930,-134.5 1034,-134.5 1034,-113.5 930,-113.5"/>
<text text-anchor="middle" x="982" y="-121.5" font-family="Helvetica,sans-Serif" font-size="10.00">gaia::ui::TextWidget</text>
</g>
<!-- Node2 -->
<g id="node2" class="node"><title>Node2</title>
<a xlink:href="../../d8/dac/classgaia_1_1core_1_1_widget.html" target="_top" xlink:title="The Widget class is the base class of all user interface component.">
<polygon fill="white" stroke="black" points="563,-184.5 563,-205.5 659,-205.5 659,-184.5 563,-184.5"/>
<text text-anchor="middle" x="611" y="-192.5" font-family="Helvetica,sans-Serif" font-size="10.00">gaia::core::Widget</text>
</a>
</g>
<!-- Node2&#45;&gt;Node1 -->
<g id="edge2" class="edge"><title>Node2&#45;&gt;Node1</title>
<path fill="none" stroke="midnightblue" d="M669.314,-183.84C740.873,-170.146 861.13,-147.132 929.782,-133.993"/>
<polygon fill="midnightblue" stroke="midnightblue" points="668.285,-180.473 659.121,-185.791 669.601,-187.349 668.285,-180.473"/>
</g>
<!-- Node5 -->
<g id="node8" class="node"><title>Node5</title>
<a xlink:href="../../db/d6c/classgaia_1_1core_1_1_widget_controller.html" target="_top" xlink:title="Define the default widget layout to put sets of layout in it.">
<polygon fill="white" stroke="black" points="913,-153.5 913,-174.5 1051,-174.5 1051,-153.5 913,-153.5"/>
<text text-anchor="middle" x="982" y="-161.5" font-family="Helvetica,sans-Serif" font-size="10.00">gaia::core::WidgetController</text>
</a>
</g>
<!-- Node2&#45;&gt;Node5 -->
<g id="edge10" class="edge"><title>Node2&#45;&gt;Node5</title>
<path fill="none" stroke="midnightblue" d="M669.374,-193.15C720.314,-191.2 796.172,-187.487 862,-181 879.171,-179.308 897.653,-176.956 914.846,-174.54"/>
<polygon fill="midnightblue" stroke="midnightblue" points="669.075,-189.658 659.212,-193.528 669.335,-196.654 669.075,-189.658"/>
</g>
<!-- Node3 -->
<g id="node4" class="node"><title>Node3</title>
<a xlink:href="../../d0/db2/classgaia_1_1core_1_1_property_animatable.html" target="_top" xlink:title="Any animation object need to implement PropertyAnimatable because of setting value.">
<polygon fill="white" stroke="black" points="148.5,-188.5 148.5,-209.5 299.5,-209.5 299.5,-188.5 148.5,-188.5"/>
<text text-anchor="middle" x="224" y="-196.5" font-family="Helvetica,sans-Serif" font-size="10.00">gaia::core::PropertyAnimatable</text>
</a>
</g>
<!-- Node3&#45;&gt;Node2 -->
<g id="edge4" class="edge"><title>Node3&#45;&gt;Node2</title>
<path fill="none" stroke="midnightblue" d="M309.81,-198.113C387.67,-197.308 499.662,-196.151 562.85,-195.498"/>
<polygon fill="midnightblue" stroke="midnightblue" points="309.499,-194.616 299.536,-198.219 309.572,-201.616 309.499,-194.616"/>
</g>
<!-- Node4 -->
<g id="node6" class="node"><title>Node4</title>
<a xlink:href="../../d5/dfb/classgaia_1_1core_1_1_scene.html" target="_top" xlink:title="A Scene is used to build a visual interface.">
<polygon fill="white" stroke="black" points="1184.5,-117.5 1184.5,-138.5 1277.5,-138.5 1277.5,-117.5 1184.5,-117.5"/>
<text text-anchor="middle" x="1231" y="-125.5" font-family="Helvetica,sans-Serif" font-size="10.00">gaia::core::Scene</text>
</a>
</g>
<!-- Node4&#45;&gt;Node2 -->
<g id="edge6" class="edge"><title>Node4&#45;&gt;Node2</title>
<path fill="none" stroke="#9a32cd" stroke-dasharray="5,2" d="M1208.01,-144.396C1195.99,-152.276 1180.75,-161.238 1166,-167 1131.33,-180.543 1120.88,-178.956 1084,-184 929.984,-205.067 745.187,-200.998 659.29,-197.443"/>
<polygon fill="#9a32cd" stroke="#9a32cd" points="1210.18,-147.152 1216.51,-138.651 1206.26,-141.353 1210.18,-147.152"/>
<text text-anchor="middle" x="982" y="-203" font-family="Helvetica,sans-Serif" font-size="10.00"> mpScene</text>
</g>
<!-- Node4&#45;&gt;Node5 -->
<g id="edge14" class="edge"><title>Node4&#45;&gt;Node5</title>
<path fill="none" stroke="#9a32cd" stroke-dasharray="5,2" d="M1174.29,-125.228C1171.49,-125.14 1168.71,-125.063 1166,-125 1137.56,-124.344 1128.13,-113.761 1102,-125 1091.31,-129.596 1094.19,-138.392 1084,-144 1073.96,-149.524 1062.63,-153.538 1051.26,-156.452"/>
<polygon fill="#9a32cd" stroke="#9a32cd" points="1174.38,-128.734 1184.5,-125.593 1174.63,-121.738 1174.38,-128.734"/>
<text text-anchor="middle" x="1134" y="-129" font-family="Helvetica,sans-Serif" font-size="10.00"> mpScene</text>
</g>
<!-- Node11 -->
<g id="node23" class="node"><title>Node11</title>
<a xlink:href="../../db/d3f/classgaia_1_1core_1_1_page.html" target="_top" xlink:title="An page is a single, focused thing that the user can do.">
<polygon fill="white" stroke="black" points="1360,-117.5 1360,-138.5 1448,-138.5 1448,-117.5 1360,-117.5"/>
<text text-anchor="middle" x="1404" y="-125.5" font-family="Helvetica,sans-Serif" font-size="10.00">gaia::core::Page</text>
</a>
</g>
<!-- Node4&#45;&gt;Node11 -->
<g id="edge28" class="edge"><title>Node4&#45;&gt;Node11</title>
<path fill="none" stroke="#9a32cd" stroke-dasharray="5,2" d="M1287.95,-128C1311.32,-128 1337.97,-128 1359.83,-128"/>
<polygon fill="#9a32cd" stroke="#9a32cd" points="1287.82,-124.5 1277.82,-128 1287.82,-131.5 1287.82,-124.5"/>
<text text-anchor="middle" x="1319" y="-132" font-family="Helvetica,sans-Serif" font-size="10.00"> mpScene</text>
</g>
<!-- Node5&#45;&gt;Node4 -->
<g id="edge8" class="edge"><title>Node5&#45;&gt;Node4</title>
<path fill="none" stroke="#9a32cd" stroke-dasharray="5,2" d="M1061.59,-156.122C1094.06,-152.482 1131.93,-147.694 1166,-142 1172.03,-140.992 1178.36,-139.801 1184.59,-138.546"/>
<polygon fill="#9a32cd" stroke="#9a32cd" points="1060.8,-152.687 1051.24,-157.263 1061.57,-159.645 1060.8,-152.687"/>
<text text-anchor="middle" x="1134" y="-154" font-family="Helvetica,sans-Serif" font-size="10.00"> mpController</text>
</g>
<!-- Node6 -->
<g id="node11" class="node"><title>Node6</title>
<a xlink:href="../../dd/de0/classgaia_1_1core_1_1_event_control.html" target="_top" xlink:title="EventControl is used to dispatch event and register listener.">
<polygon fill="white" stroke="black" points="550,-128.5 550,-149.5 672,-149.5 672,-128.5 550,-128.5"/>
<text text-anchor="middle" x="611" y="-136.5" font-family="Helvetica,sans-Serif" font-size="10.00">gaia::core::EventControl</text>
</a>
</g>
<!-- Node6&#45;&gt;Node1 -->
<g id="edge32" class="edge"><title>Node6&#45;&gt;Node1</title>
<path fill="none" stroke="midnightblue" d="M682.672,-136.102C755.151,-133.172 865.422,-128.713 929.941,-126.105"/>
<polygon fill="midnightblue" stroke="midnightblue" points="682.114,-132.622 672.263,-136.523 682.396,-139.616 682.114,-132.622"/>
</g>
<!-- Node6&#45;&gt;Node5 -->
<g id="edge12" class="edge"><title>Node6&#45;&gt;Node5</title>
<path fill="none" stroke="midnightblue" d="M682.635,-143.827C749.022,-148.301 847.139,-154.912 912.751,-159.334"/>
<polygon fill="midnightblue" stroke="midnightblue" points="682.476,-140.309 672.263,-143.128 682.005,-147.293 682.476,-140.309"/>
</g>
<!-- Node7 -->
<g id="node14" class="node"><title>Node7</title>
<a xlink:href="../../de/dad/classgaia_1_1content_1_1_resources.html" target="_top" xlink:title="Class for accessing an application&#39;s resources.">
<polygon fill="white" stroke="black" points="919,-73.5 919,-94.5 1045,-94.5 1045,-73.5 919,-73.5"/>
<text text-anchor="middle" x="982" y="-81.5" font-family="Helvetica,sans-Serif" font-size="10.00">gaia::content::Resources</text>
</a>
</g>
<!-- Node7&#45;&gt;Node4 -->
<g id="edge16" class="edge"><title>Node7&#45;&gt;Node4</title>
<path fill="none" stroke="#9a32cd" stroke-dasharray="5,2" d="M1055.65,-86.4355C1089.62,-88.7699 1130.25,-93.2888 1166,-102 1180.76,-105.597 1196.6,-111.88 1208.95,-117.369"/>
<polygon fill="#9a32cd" stroke="#9a32cd" points="1055.54,-82.9213 1045.33,-85.779 1055.09,-89.9072 1055.54,-82.9213"/>
<text text-anchor="middle" x="1134" y="-106" font-family="Helvetica,sans-Serif" font-size="10.00"> mpResources</text>
</g>
<!-- Node8 -->
<g id="node16" class="node"><title>Node8</title>
<a xlink:href="../../df/d5d/classgaia_1_1base_1_1_vector.html" target="_top" xlink:title="gaia::base::Vector\&lt; gaia::ui::DialogBox * \&gt;">
<polygon fill="white" stroke="black" points="880.5,-33.5 880.5,-54.5 1083.5,-54.5 1083.5,-33.5 880.5,-33.5"/>
<text text-anchor="middle" x="982" y="-41.5" font-family="Helvetica,sans-Serif" font-size="10.00">gaia::base::Vector&lt; gaia::ui::DialogBox * &gt;</text>
</a>
</g>
<!-- Node8&#45;&gt;Node4 -->
<g id="edge18" class="edge"><title>Node8&#45;&gt;Node4</title>
<path fill="none" stroke="#9a32cd" stroke-dasharray="5,2" d="M1093.75,-52.51C1118.29,-57.0124 1143.61,-63.7999 1166,-74 1188.7,-84.3385 1209.91,-104.759 1221.61,-117.312"/>
<polygon fill="#9a32cd" stroke="#9a32cd" points="1094.11,-49.021 1083.67,-50.7763 1092.93,-55.9199 1094.11,-49.021"/>
<text text-anchor="middle" x="1134" y="-78" font-family="Helvetica,sans-Serif" font-size="10.00"> mDialogList</text>
</g>
<!-- Node9 -->
<g id="node18" class="node"><title>Node9</title>
<a xlink:href="../../d0/d21/classgaia_1_1base_1_1_vector_impl.html" target="_top" xlink:title="Implements vector data structure equipped with copy&#45;on&#45;write mechanism.">
<polygon fill="white" stroke="black" points="166.5,-16.5 166.5,-37.5 281.5,-37.5 281.5,-16.5 166.5,-16.5"/>
<text text-anchor="middle" x="224" y="-24.5" font-family="Helvetica,sans-Serif" font-size="10.00">gaia::base::VectorImpl</text>
</a>
</g>
<!-- Node9&#45;&gt;Node8 -->
<g id="edge20" class="edge"><title>Node9&#45;&gt;Node8</title>
<path fill="none" stroke="#8b1a1a" d="M291.873,-32.5349C300.659,-33.1102 309.54,-33.6216 318,-34 517.11,-42.9052 750.103,-44.3433 880.418,-44.3384"/>
<polygon fill="#8b1a1a" stroke="#8b1a1a" points="291.849,-29.0252 281.633,-31.8344 291.371,-36.0089 291.849,-29.0252"/>
</g>
<!-- Node10 -->
<g id="node20" class="node"><title>Node10</title>
<a xlink:href="../../df/d5d/classgaia_1_1base_1_1_vector.html" target="_top" xlink:title="This class implements the vector data structure.">
<polygon fill="white" stroke="black" points="541,-0.5 541,-21.5 681,-21.5 681,-0.5 541,-0.5"/>
<text text-anchor="middle" x="611" y="-8.5" font-family="Helvetica,sans-Serif" font-size="10.00">gaia::base::Vector&lt; TYPE &gt;</text>
</a>
</g>
<!-- Node9&#45;&gt;Node10 -->
<g id="edge24" class="edge"><title>Node9&#45;&gt;Node10</title>
<path fill="none" stroke="#8b1a1a" d="M291.531,-24.208C361.348,-21.3215 469.861,-16.8352 540.686,-13.907"/>
<polygon fill="#8b1a1a" stroke="#8b1a1a" points="291.367,-20.7117 281.52,-24.6219 291.656,-27.7057 291.367,-20.7117"/>
</g>
<!-- Node10&#45;&gt;Node8 -->
<g id="edge22" class="edge"><title>Node10&#45;&gt;Node8</title>
<path fill="none" stroke="orange" stroke-dasharray="5,2" d="M691.533,-12.2831C740.866,-13.7056 805.226,-16.7003 862,-23 884.492,-25.4958 909.146,-29.5739 930.225,-33.4756"/>
<polygon fill="orange" stroke="orange" points="691.333,-8.77644 681.242,-12.0028 691.143,-15.7738 691.333,-8.77644"/>
<text text-anchor="middle" x="806" y="-27" font-family="Helvetica,sans-Serif" font-size="10.00"> &lt; gaia::ui::DialogBox * &gt;</text>
</g>
<!-- Node11&#45;&gt;Node4 -->
<g id="edge26" class="edge"><title>Node11&#45;&gt;Node4</title>
<path fill="none" stroke="#9a32cd" stroke-dasharray="5,2" d="M1361.76,-114.805C1355.2,-113.227 1348.46,-111.87 1342,-111 1321.74,-108.273 1316.28,-108.392 1296,-111 1285.7,-112.324 1274.71,-114.782 1264.75,-117.426"/>
<polygon fill="#9a32cd" stroke="#9a32cd" points="1361.28,-118.298 1371.84,-117.427 1363.04,-111.523 1361.28,-118.298"/>
<text text-anchor="middle" x="1319" y="-115" font-family="Helvetica,sans-Serif" font-size="10.00"> mpPage</text>
</g>
<!-- Node12 -->
<g id="node26" class="node"><title>Node12</title>
<a xlink:href="../../db/d88/classgaia_1_1core_1_1_widget_tag.html" target="_top" xlink:title="gaia::core::WidgetTag">
<polygon fill="white" stroke="black" points="167.5,-148.5 167.5,-169.5 280.5,-169.5 280.5,-148.5 167.5,-148.5"/>
<text text-anchor="middle" x="224" y="-156.5" font-family="Helvetica,sans-Serif" font-size="10.00">gaia::core::WidgetTag</text>
</a>
</g>
<!-- Node12&#45;&gt;Node2 -->
<g id="edge30" class="edge"><title>Node12&#45;&gt;Node2</title>
<path fill="none" stroke="#9a32cd" stroke-dasharray="5,2" d="M290.715,-163.76C340.669,-167.475 410.666,-172.999 472,-179 502.22,-181.957 536.068,-185.841 562.797,-189.042"/>
<polygon fill="#9a32cd" stroke="#9a32cd" points="290.916,-160.265 280.685,-163.018 290.399,-167.246 290.916,-160.265"/>
<text text-anchor="middle" x="395" y="-183" font-family="Helvetica,sans-Serif" font-size="10.00"> mpTag</text>
</g>
<!-- Node13 -->
<g id="node29" class="node"><title>Node13</title>
<a xlink:href="../../d2/db0/classgaia_1_1base_1_1_array.html" target="_top" xlink:title="gaia::base::Array\&lt; const gaia::graphics::Drawer * \&gt;">
<polygon fill="white" stroke="black" points="490.5,-81.5 490.5,-102.5 731.5,-102.5 731.5,-81.5 490.5,-81.5"/>
<text text-anchor="middle" x="611" y="-89.5" font-family="Helvetica,sans-Serif" font-size="10.00">gaia::base::Array&lt; const gaia::graphics::Drawer * &gt;</text>
</a>
</g>
<!-- Node13&#45;&gt;Node1 -->
<g id="edge34" class="edge"><title>Node13&#45;&gt;Node1</title>
<path fill="none" stroke="#9a32cd" stroke-dasharray="5,2" d="M741.986,-101.11C780.656,-104.017 823.051,-107.417 862,-111 884.223,-113.044 908.725,-115.638 929.762,-117.969"/>
<polygon fill="#9a32cd" stroke="#9a32cd" points="741.946,-97.5973 731.713,-100.343 741.425,-104.578 741.946,-97.5973"/>
<text text-anchor="middle" x="806" y="-115" font-family="Helvetica,sans-Serif" font-size="10.00"> mDrawers</text>
</g>
<!-- Node14 -->
<g id="node31" class="node"><title>Node14</title>
<a xlink:href="../../d2/d80/classgaia_1_1base_1_1_array_impl.html" target="_top" xlink:title="Implements array data structure and its operation methods.">
<polygon fill="white" stroke="black" points="0,-92.5 0,-113.5 110,-113.5 110,-92.5 0,-92.5"/>
<text text-anchor="middle" x="55" y="-100.5" font-family="Helvetica,sans-Serif" font-size="10.00">gaia::base::ArrayImpl</text>
</a>
</g>
<!-- Node14&#45;&gt;Node13 -->
<g id="edge36" class="edge"><title>Node14&#45;&gt;Node13</title>
<path fill="none" stroke="#8b1a1a" d="M120.193,-105.046C202.296,-107.188 347.676,-109.539 472,-104 480.59,-103.617 489.471,-103.11 498.396,-102.52"/>
<polygon fill="#8b1a1a" stroke="#8b1a1a" points="120.102,-101.543 110.012,-104.773 119.914,-108.54 120.102,-101.543"/>
</g>
<!-- Node15 -->
<g id="node33" class="node"><title>Node15</title>
<a xlink:href="../../d2/db0/classgaia_1_1base_1_1_array.html" target="_top" xlink:title="Implements array to replace C&#45;style array.">
<polygon fill="white" stroke="black" points="156.5,-69.5 156.5,-90.5 291.5,-90.5 291.5,-69.5 156.5,-69.5"/>
<text text-anchor="middle" x="224" y="-77.5" font-family="Helvetica,sans-Serif" font-size="10.00">gaia::base::Array&lt; TYPE &gt;</text>
</a>
</g>
<!-- Node14&#45;&gt;Node15 -->
<g id="edge40" class="edge"><title>Node14&#45;&gt;Node15</title>
<path fill="none" stroke="#8b1a1a" d="M120.531,-94.0816C132.31,-92.4785 144.608,-90.8048 156.444,-89.194"/>
<polygon fill="#8b1a1a" stroke="#8b1a1a" points="119.774,-90.6523 110.337,-95.4689 120.718,-97.5884 119.774,-90.6523"/>
</g>
<!-- Node15&#45;&gt;Node13 -->
<g id="edge38" class="edge"><title>Node15&#45;&gt;Node13</title>
<path fill="none" stroke="orange" stroke-dasharray="5,2" d="M302.047,-82.4201C356.032,-84.094 428.916,-86.354 490.337,-88.2585"/>
<polygon fill="orange" stroke="orange" points="301.957,-78.9157 291.853,-82.104 301.74,-85.9123 301.957,-78.9157"/>
<text text-anchor="middle" x="395" y="-91" font-family="Helvetica,sans-Serif" font-size="10.00"> &lt; const gaia::graphics::Drawer * &gt;</text>
</g>
</g>
</svg>
