<?xml version="1.0" encoding="UTF-8" standalone="no"?>
<!DOCTYPE svg PUBLIC "-//W3C//DTD SVG 1.1//EN"
 "http://www.w3.org/Graphics/SVG/1.1/DTD/svg11.dtd">
<!-- Generated by graphviz version 2.26.3 (20100126.1600)
 -->
<!-- Title: G Pages: 1 -->
<svg width="336pt" height="204pt"
 viewBox="0.00 0.00 336.00 204.00" xmlns="http://www.w3.org/2000/svg" xmlns:xlink="http://www.w3.org/1999/xlink">
<g id="graph1" class="graph" transform="scale(1 1) rotate(0) translate(4 200)">
<title>G</title>
<polygon fill="white" stroke="white" points="-4,5 -4,-200 333,-200 333,5 -4,5"/>
<!-- Node1 -->
<g id="node1" class="node"><title>Node1</title>
<polygon fill="#bfbfbf" stroke="black" points="-0.5,-174.5 -0.5,-195.5 328.5,-195.5 328.5,-174.5 -0.5,-174.5"/>
<text text-anchor="middle" x="164" y="-182.5" font-family="Helvetica,sans-Serif" font-size="10.00">/home/vilon_tao/gaia/sdk/include/gaia/ui/preference/PreferenceScreen.h</text>
</g>
<!-- Node2 -->
<g id="node3" class="node"><title>Node2</title>
<a xlink:href="../../d9/dd9/_preference_group_8h.html" target="_top" xlink:title="gaia/ui/preference/PreferenceGroup.h">
<polygon fill="white" stroke="black" points="16.5,-116.5 16.5,-137.5 195.5,-137.5 195.5,-116.5 16.5,-116.5"/>
<text text-anchor="middle" x="106" y="-124.5" font-family="Helvetica,sans-Serif" font-size="10.00">gaia/ui/preference/PreferenceGroup.h</text>
</a>
</g>
<!-- Node1&#45;&gt;Node2 -->
<g id="edge2" class="edge"><title>Node1&#45;&gt;Node2</title>
<path fill="none" stroke="midnightblue" d="M153.362,-174.362C145.104,-166.104 133.472,-154.472 123.803,-144.803"/>
<polygon fill="midnightblue" stroke="midnightblue" points="126.117,-142.167 116.571,-137.571 121.167,-147.117 126.117,-142.167"/>
</g>
<!-- Node5 -->
<g id="node9" class="node"><title>Node5</title>
<a xlink:href="../../d1/dd0/gmacros_8h.html" target="_top" xlink:title="gaia/base/gmacros.h">
<polygon fill="white" stroke="black" points="131.5,-0.5 131.5,-21.5 238.5,-21.5 238.5,-0.5 131.5,-0.5"/>
<text text-anchor="middle" x="185" y="-8.5" font-family="Helvetica,sans-Serif" font-size="10.00">gaia/base/gmacros.h</text>
</a>
</g>
<!-- Node1&#45;&gt;Node5 -->
<g id="edge12" class="edge"><title>Node1&#45;&gt;Node5</title>
<path fill="none" stroke="midnightblue" d="M177.21,-174.198C186.682,-165.541 198.672,-152.48 204,-138 217.329,-101.773 203.936,-56.4549 193.871,-30.9146"/>
<polygon fill="midnightblue" stroke="midnightblue" points="197.052,-29.448 189.979,-21.5598 190.589,-32.1371 197.052,-29.448"/>
</g>
<!-- Node3 -->
<g id="node5" class="node"><title>Node3</title>
<a xlink:href="../../d4/dd7/_preference_8h.html" target="_top" xlink:title="gaia/ui/preference/Preference.h">
<polygon fill="white" stroke="black" points="5,-58.5 5,-79.5 157,-79.5 157,-58.5 5,-58.5"/>
<text text-anchor="middle" x="81" y="-66.5" font-family="Helvetica,sans-Serif" font-size="10.00">gaia/ui/preference/Preference.h</text>
</a>
</g>
<!-- Node2&#45;&gt;Node3 -->
<g id="edge4" class="edge"><title>Node2&#45;&gt;Node3</title>
<path fill="none" stroke="midnightblue" d="M101.415,-116.362C98.102,-108.677 93.5296,-98.0686 89.5517,-88.8399"/>
<polygon fill="midnightblue" stroke="midnightblue" points="92.7288,-87.3685 85.5563,-79.5707 86.3005,-90.1393 92.7288,-87.3685"/>
</g>
<!-- Node2&#45;&gt;Node5 -->
<g id="edge10" class="edge"><title>Node2&#45;&gt;Node5</title>
<path fill="none" stroke="midnightblue" d="M125.185,-116.469C138.507,-108.21 155.659,-95.5289 166,-80 175.659,-65.4958 180.437,-46.1741 182.784,-31.6668"/>
<polygon fill="midnightblue" stroke="midnightblue" points="186.263,-32.0517 184.144,-21.671 179.327,-31.1075 186.263,-32.0517"/>
</g>
<!-- Node4 -->
<g id="node7" class="node"><title>Node4</title>
<polygon fill="white" stroke="#bfbfbf" points="56.5,-0.5 56.5,-21.5 105.5,-21.5 105.5,-0.5 56.5,-0.5"/>
<text text-anchor="middle" x="81" y="-8.5" font-family="Helvetica,sans-Serif" font-size="10.00">stdint.h</text>
</g>
<!-- Node3&#45;&gt;Node4 -->
<g id="edge6" class="edge"><title>Node3&#45;&gt;Node4</title>
<path fill="none" stroke="midnightblue" d="M81,-58.3619C81,-50.9219 81,-40.7427 81,-31.7276"/>
<polygon fill="midnightblue" stroke="midnightblue" points="84.5001,-31.5706 81,-21.5707 77.5001,-31.5707 84.5001,-31.5706"/>
</g>
<!-- Node3&#45;&gt;Node5 -->
<g id="edge8" class="edge"><title>Node3&#45;&gt;Node5</title>
<path fill="none" stroke="midnightblue" d="M100.075,-58.3619C116.055,-49.4502 139.081,-36.6087 157.127,-26.5447"/>
<polygon fill="midnightblue" stroke="midnightblue" points="159.017,-29.4982 166.046,-21.5707 155.607,-23.3846 159.017,-29.4982"/>
</g>
</g>
</svg>
