<?xml version="1.0" encoding="UTF-8" standalone="no"?>
<!DOCTYPE svg PUBLIC "-//W3C//DTD SVG 1.1//EN"
 "http://www.w3.org/Graphics/SVG/1.1/DTD/svg11.dtd">
<!-- Generated by graphviz version 2.26.3 (20100126.1600)
 -->
<!-- Title: G Pages: 1 -->
<svg width="704pt" height="88pt"
 viewBox="0.00 0.00 704.00 88.00" xmlns="http://www.w3.org/2000/svg" xmlns:xlink="http://www.w3.org/1999/xlink">
<g id="graph1" class="graph" transform="scale(1 1) rotate(0) translate(4 84)">
<title>G</title>
<polygon fill="white" stroke="white" points="-4,5 -4,-84 701,-84 701,5 -4,5"/>
<!-- Node1 -->
<g id="node1" class="node"><title>Node1</title>
<polygon fill="#bfbfbf" stroke="black" points="184.5,-58.5 184.5,-79.5 509.5,-79.5 509.5,-58.5 184.5,-58.5"/>
<text text-anchor="middle" x="347" y="-66.5" font-family="Helvetica,sans-Serif" font-size="10.00">/home/vilon_tao/gaia/sdk/include/gaia/connectivity/obex/BaseStream.h</text>
</g>
<!-- Node2 -->
<g id="node3" class="node"><title>Node2</title>
<a xlink:href="../../d3/d58/_client_operation_8h.html" target="_top" xlink:title="/home/vilon_tao/gaia/sdk/include/gaia/connectivity/obex/ClientOperation.h">
<polygon fill="white" stroke="black" points="0,-0.5 0,-21.5 338,-21.5 338,-0.5 0,-0.5"/>
<text text-anchor="middle" x="169" y="-8.5" font-family="Helvetica,sans-Serif" font-size="10.00">/home/vilon_tao/gaia/sdk/include/gaia/connectivity/obex/ClientOperation.h</text>
</a>
</g>
<!-- Node1&#45;&gt;Node2 -->
<g id="edge2" class="edge"><title>Node1&#45;&gt;Node2</title>
<path fill="none" stroke="midnightblue" d="M304.89,-55.2787C273.172,-44.9437 230.333,-30.9849 201.295,-21.5231"/>
<polygon fill="midnightblue" stroke="midnightblue" points="304.173,-58.7263 314.766,-58.4966 306.342,-52.0707 304.173,-58.7263"/>
</g>
<!-- Node3 -->
<g id="node5" class="node"><title>Node3</title>
<a xlink:href="../../d6/d32/_server_operation_8h.html" target="_top" xlink:title="/home/vilon_tao/gaia/sdk/include/gaia/connectivity/obex/ServerOperation.h">
<polygon fill="white" stroke="black" points="355.5,-0.5 355.5,-21.5 696.5,-21.5 696.5,-0.5 355.5,-0.5"/>
<text text-anchor="middle" x="526" y="-8.5" font-family="Helvetica,sans-Serif" font-size="10.00">/home/vilon_tao/gaia/sdk/include/gaia/connectivity/obex/ServerOperation.h</text>
</a>
</g>
<!-- Node1&#45;&gt;Node3 -->
<g id="edge4" class="edge"><title>Node1&#45;&gt;Node3</title>
<path fill="none" stroke="midnightblue" d="M388.933,-55.4127C420.87,-45.0646 464.196,-31.0258 493.524,-21.5231"/>
<polygon fill="midnightblue" stroke="midnightblue" points="387.85,-52.0845 379.416,-58.4966 390.008,-58.7437 387.85,-52.0845"/>
</g>
</g>
</svg>
