<?xml version="1.0" encoding="UTF-8" standalone="no"?>
<!DOCTYPE svg PUBLIC "-//W3C//DTD SVG 1.1//EN"
 "http://www.w3.org/Graphics/SVG/1.1/DTD/svg11.dtd">
<!-- Generated by graphviz version 2.26.3 (20100126.1600)
 -->
<!-- Title: G Pages: 1 -->
<svg width="788pt" height="88pt"
 viewBox="0.00 0.00 788.00 88.00" xmlns="http://www.w3.org/2000/svg" xmlns:xlink="http://www.w3.org/1999/xlink">
<g id="graph1" class="graph" transform="scale(1 1) rotate(0) translate(4 84)">
<title>G</title>
<polygon fill="white" stroke="white" points="-4,5 -4,-84 785,-84 785,5 -4,5"/>
<!-- Node1 -->
<g id="node1" class="node"><title>Node1</title>
<polygon fill="#bfbfbf" stroke="black" points="209,-58.5 209,-79.5 595,-79.5 595,-58.5 209,-58.5"/>
<text text-anchor="middle" x="402" y="-66.5" font-family="Helvetica,sans-Serif" font-size="10.00">/home/vilon_tao/gaia/sdk/include/gaia/connectivity/wifi/p2p/nsd/WifiP2pServiceInfo.h</text>
</g>
<!-- Node2 -->
<g id="node3" class="node"><title>Node2</title>
<a xlink:href="../../d4/dd7/_wifi_p2p_service_request_8h.html" target="_top" xlink:title="/home/vilon_tao/gaia/sdk/include/gaia/connectivity/wifi/p2p/nsd/WifiP2pServiceRequest.h">
<polygon fill="white" stroke="black" points="-0.5,-0.5 -0.5,-21.5 406.5,-21.5 406.5,-0.5 -0.5,-0.5"/>
<text text-anchor="middle" x="203" y="-8.5" font-family="Helvetica,sans-Serif" font-size="10.00">/home/vilon_tao/gaia/sdk/include/gaia/connectivity/wifi/p2p/nsd/WifiP2pServiceRequest.h</text>
</a>
</g>
<!-- Node1&#45;&gt;Node2 -->
<g id="edge2" class="edge"><title>Node1&#45;&gt;Node2</title>
<path fill="none" stroke="midnightblue" d="M356.297,-55.6795C320.709,-45.307 271.99,-31.1078 239.105,-21.5231"/>
<polygon fill="midnightblue" stroke="midnightblue" points="355.383,-59.0586 365.963,-58.4966 357.341,-52.3382 355.383,-59.0586"/>
</g>
<!-- Node3 -->
<g id="node5" class="node"><title>Node3</title>
<a xlink:href="../../d3/d57/_wifi_p2p_manager_8h.html" target="_top" xlink:title="/home/vilon_tao/gaia/sdk/include/gaia/connectivity/wifi/p2p/WifiP2pManager.h">
<polygon fill="white" stroke="black" points="424,-0.5 424,-21.5 780,-21.5 780,-0.5 424,-0.5"/>
<text text-anchor="middle" x="602" y="-8.5" font-family="Helvetica,sans-Serif" font-size="10.00">/home/vilon_tao/gaia/sdk/include/gaia/connectivity/wifi/p2p/WifiP2pManager.h</text>
</a>
</g>
<!-- Node1&#45;&gt;Node3 -->
<g id="edge4" class="edge"><title>Node1&#45;&gt;Node3</title>
<path fill="none" stroke="midnightblue" d="M447.933,-55.6795C483.7,-45.307 532.663,-31.1078 565.714,-21.5231"/>
<polygon fill="midnightblue" stroke="midnightblue" points="446.848,-52.3498 438.218,-58.4966 448.798,-59.0728 446.848,-52.3498"/>
</g>
</g>
</svg>
