<?xml version="1.0" encoding="UTF-8" standalone="no"?>
<!DOCTYPE svg PUBLIC "-//W3C//DTD SVG 1.1//EN"
 "http://www.w3.org/Graphics/SVG/1.1/DTD/svg11.dtd">
<!-- Generated by graphviz version 2.26.3 (20100126.1600)
 -->
<!-- Title: G Pages: 1 -->
<svg width="630pt" height="88pt"
 viewBox="0.00 0.00 630.00 88.00" xmlns="http://www.w3.org/2000/svg" xmlns:xlink="http://www.w3.org/1999/xlink">
<g id="graph1" class="graph" transform="scale(1 1) rotate(0) translate(4 84)">
<title>G</title>
<polygon fill="white" stroke="white" points="-4,5 -4,-84 627,-84 627,5 -4,5"/>
<!-- Node1 -->
<g id="node1" class="node"><title>Node1</title>
<polygon fill="#bfbfbf" stroke="black" points="158.5,-58.5 158.5,-79.5 445.5,-79.5 445.5,-58.5 158.5,-58.5"/>
<text text-anchor="middle" x="302" y="-66.5" font-family="Helvetica,sans-Serif" font-size="10.00">/home/vilon_tao/gaia/sdk/include/gaia/media/MediaRecorder.h</text>
</g>
<!-- Node2 -->
<g id="node3" class="node"><title>Node2</title>
<a xlink:href="../../da/d64/_audio_stream_in_8h.html" target="_top" xlink:title="/home/vilon_tao/gaia/sdk/include/gaia/media/AudioStreamIn.h">
<polygon fill="white" stroke="black" points="-0.5,-0.5 -0.5,-21.5 284.5,-21.5 284.5,-0.5 -0.5,-0.5"/>
<text text-anchor="middle" x="142" y="-8.5" font-family="Helvetica,sans-Serif" font-size="10.00">/home/vilon_tao/gaia/sdk/include/gaia/media/AudioStreamIn.h</text>
</a>
</g>
<!-- Node1&#45;&gt;Node2 -->
<g id="edge2" class="edge"><title>Node1&#45;&gt;Node2</title>
<path fill="none" stroke="midnightblue" d="M263.405,-55.0095C234.972,-44.7023 196.905,-30.903 171.029,-21.5231"/>
<polygon fill="midnightblue" stroke="midnightblue" points="262.431,-58.3791 273.025,-58.4966 264.817,-51.7981 262.431,-58.3791"/>
</g>
<!-- Node3 -->
<g id="node5" class="node"><title>Node3</title>
<a xlink:href="../../d3/db8/_media_recorder_listener_8h.html" target="_top" xlink:title="/home/vilon_tao/gaia/sdk/include/gaia/media/MediaRecorderListener.h">
<polygon fill="white" stroke="black" points="301.5,-0.5 301.5,-21.5 622.5,-21.5 622.5,-0.5 301.5,-0.5"/>
<text text-anchor="middle" x="462" y="-8.5" font-family="Helvetica,sans-Serif" font-size="10.00">/home/vilon_tao/gaia/sdk/include/gaia/media/MediaRecorderListener.h</text>
</a>
</g>
<!-- Node1&#45;&gt;Node3 -->
<g id="edge4" class="edge"><title>Node1&#45;&gt;Node3</title>
<path fill="none" stroke="midnightblue" d="M340.595,-55.0095C369.028,-44.7023 407.095,-30.903 432.971,-21.5231"/>
<polygon fill="midnightblue" stroke="midnightblue" points="339.183,-51.7981 330.975,-58.4966 341.569,-58.3791 339.183,-51.7981"/>
</g>
</g>
</svg>
