<?xml version="1.0" encoding="UTF-8" standalone="no"?>
<!DOCTYPE svg PUBLIC "-//W3C//DTD SVG 1.1//EN"
 "http://www.w3.org/Graphics/SVG/1.1/DTD/svg11.dtd">
<!-- Generated by graphviz version 2.26.3 (20100126.1600)
 -->
<!-- Title: G Pages: 1 -->
<svg width="448pt" height="262pt"
 viewBox="0.00 0.00 448.00 262.00" xmlns="http://www.w3.org/2000/svg" xmlns:xlink="http://www.w3.org/1999/xlink">
<g id="graph1" class="graph" transform="scale(1 1) rotate(0) translate(4 258)">
<title>G</title>
<polygon fill="white" stroke="white" points="-4,5 -4,-258 445,-258 445,5 -4,5"/>
<!-- Node1 -->
<g id="node1" class="node"><title>Node1</title>
<polygon fill="#bfbfbf" stroke="black" points="124.5,-232.5 124.5,-253.5 407.5,-253.5 407.5,-232.5 124.5,-232.5"/>
<text text-anchor="middle" x="266" y="-240.5" font-family="Helvetica,sans-Serif" font-size="10.00">/home/vilon_tao/gaia/sdk/include/gaia/net/SSLClientSocket.h</text>
</g>
<!-- Node2 -->
<g id="node3" class="node"><title>Node2</title>
<a xlink:href="../../dd/d13/_client_socket_8h.html" target="_top" xlink:title="gaia/net/ClientSocket.h">
<polygon fill="white" stroke="black" points="206.5,-174.5 206.5,-195.5 325.5,-195.5 325.5,-174.5 206.5,-174.5"/>
<text text-anchor="middle" x="266" y="-182.5" font-family="Helvetica,sans-Serif" font-size="10.00">gaia/net/ClientSocket.h</text>
</a>
</g>
<!-- Node1&#45;&gt;Node2 -->
<g id="edge2" class="edge"><title>Node1&#45;&gt;Node2</title>
<path fill="none" stroke="midnightblue" d="M266,-232.362C266,-224.922 266,-214.743 266,-205.728"/>
<polygon fill="midnightblue" stroke="midnightblue" points="269.5,-205.571 266,-195.571 262.5,-205.571 269.5,-205.571"/>
</g>
<!-- Node3 -->
<g id="node5" class="node"><title>Node3</title>
<a xlink:href="../../d4/de6/_i_client_socket_listener_8h.html" target="_top" xlink:title="gaia/net/IClientSocketListener.h">
<polygon fill="white" stroke="black" points="0,-116.5 0,-137.5 156,-137.5 156,-116.5 0,-116.5"/>
<text text-anchor="middle" x="78" y="-124.5" font-family="Helvetica,sans-Serif" font-size="10.00">gaia/net/IClientSocketListener.h</text>
</a>
</g>
<!-- Node2&#45;&gt;Node3 -->
<g id="edge4" class="edge"><title>Node2&#45;&gt;Node3</title>
<path fill="none" stroke="midnightblue" d="M231.955,-174.497C201.04,-164.959 155.277,-150.841 121.678,-140.475"/>
<polygon fill="midnightblue" stroke="midnightblue" points="122.697,-137.127 112.109,-137.523 120.633,-143.816 122.697,-137.127"/>
</g>
<!-- Node4 -->
<g id="node7" class="node"><title>Node4</title>
<a xlink:href="../../d1/d88/_net_types_8h.html" target="_top" xlink:title="gaia/net/NetTypes.h">
<polygon fill="white" stroke="black" points="131.5,-58.5 131.5,-79.5 236.5,-79.5 236.5,-58.5 131.5,-58.5"/>
<text text-anchor="middle" x="184" y="-66.5" font-family="Helvetica,sans-Serif" font-size="10.00">gaia/net/NetTypes.h</text>
</a>
</g>
<!-- Node2&#45;&gt;Node4 -->
<g id="edge14" class="edge"><title>Node2&#45;&gt;Node4</title>
<path fill="none" stroke="midnightblue" d="M245.255,-174.337C231.353,-166.173 213.699,-153.663 203,-138 193.171,-123.61 188.409,-104.278 186.112,-89.7372"/>
<polygon fill="midnightblue" stroke="midnightblue" points="189.568,-89.1711 184.793,-79.7131 182.628,-90.0843 189.568,-89.1711"/>
</g>
<!-- Node6 -->
<g id="node11" class="node"><title>Node6</title>
<a xlink:href="../../d2/d53/_i_p_address_8h.html" target="_top" xlink:title="gaia/net/IPAddress.h">
<polygon fill="white" stroke="black" points="212,-116.5 212,-137.5 320,-137.5 320,-116.5 212,-116.5"/>
<text text-anchor="middle" x="266" y="-124.5" font-family="Helvetica,sans-Serif" font-size="10.00">gaia/net/IPAddress.h</text>
</a>
</g>
<!-- Node2&#45;&gt;Node6 -->
<g id="edge10" class="edge"><title>Node2&#45;&gt;Node6</title>
<path fill="none" stroke="midnightblue" d="M266,-174.362C266,-166.922 266,-156.743 266,-147.728"/>
<polygon fill="midnightblue" stroke="midnightblue" points="269.5,-147.571 266,-137.571 262.5,-147.571 269.5,-147.571"/>
</g>
<!-- Node7 -->
<g id="node15" class="node"><title>Node7</title>
<polygon fill="white" stroke="#bfbfbf" points="337.5,-116.5 337.5,-137.5 394.5,-137.5 394.5,-116.5 337.5,-116.5"/>
<text text-anchor="middle" x="366" y="-124.5" font-family="Helvetica,sans-Serif" font-size="10.00">pthread.h</text>
</g>
<!-- Node2&#45;&gt;Node7 -->
<g id="edge16" class="edge"><title>Node2&#45;&gt;Node7</title>
<path fill="none" stroke="midnightblue" d="M284.342,-174.362C299.566,-165.532 321.441,-152.844 338.72,-142.822"/>
<polygon fill="midnightblue" stroke="midnightblue" points="340.88,-145.615 347.775,-137.571 337.368,-139.56 340.88,-145.615"/>
</g>
<!-- Node8 -->
<g id="node17" class="node"><title>Node8</title>
<polygon fill="white" stroke="#bfbfbf" points="411.5,-116.5 411.5,-137.5 440.5,-137.5 440.5,-116.5 411.5,-116.5"/>
<text text-anchor="middle" x="426" y="-124.5" font-family="Helvetica,sans-Serif" font-size="10.00">list</text>
</g>
<!-- Node2&#45;&gt;Node8 -->
<g id="edge18" class="edge"><title>Node2&#45;&gt;Node8</title>
<path fill="none" stroke="midnightblue" d="M300.185,-174.486C326.072,-166.257 362.626,-154.07 401.602,-138.326"/>
<polygon fill="midnightblue" stroke="midnightblue" points="403.09,-141.499 411.018,-134.471 400.438,-135.021 403.09,-141.499"/>
</g>
<!-- Node3&#45;&gt;Node4 -->
<g id="edge6" class="edge"><title>Node3&#45;&gt;Node4</title>
<path fill="none" stroke="midnightblue" d="M97.442,-116.362C113.804,-107.409 137.413,-94.4908 155.843,-84.4064"/>
<polygon fill="midnightblue" stroke="midnightblue" points="157.589,-87.4412 164.681,-79.5707 154.229,-81.3004 157.589,-87.4412"/>
</g>
<!-- Node5 -->
<g id="node9" class="node"><title>Node5</title>
<polygon fill="white" stroke="#bfbfbf" points="150,-0.5 150,-21.5 218,-21.5 218,-0.5 150,-0.5"/>
<text text-anchor="middle" x="184" y="-8.5" font-family="Helvetica,sans-Serif" font-size="10.00">sys/types.h</text>
</g>
<!-- Node4&#45;&gt;Node5 -->
<g id="edge8" class="edge"><title>Node4&#45;&gt;Node5</title>
<path fill="none" stroke="midnightblue" d="M184,-58.3619C184,-50.9219 184,-40.7427 184,-31.7276"/>
<polygon fill="midnightblue" stroke="midnightblue" points="187.5,-31.5706 184,-21.5707 180.5,-31.5707 187.5,-31.5706"/>
</g>
<!-- Node6&#45;&gt;Node4 -->
<g id="edge12" class="edge"><title>Node6&#45;&gt;Node4</title>
<path fill="none" stroke="midnightblue" d="M250.96,-116.362C238.707,-107.696 221.201,-95.3126 207.161,-85.3819"/>
<polygon fill="midnightblue" stroke="midnightblue" points="209.13,-82.4879 198.945,-79.5707 205.088,-88.2028 209.13,-82.4879"/>
</g>
</g>
</svg>
