<?xml version="1.0" encoding="UTF-8" standalone="no"?>
<!DOCTYPE svg PUBLIC "-//W3C//DTD SVG 1.1//EN"
 "http://www.w3.org/Graphics/SVG/1.1/DTD/svg11.dtd">
<!-- Generated by graphviz version 2.26.3 (20100126.1600)
 -->
<!-- Title: G Pages: 1 -->
<svg width="764pt" height="204pt"
 viewBox="0.00 0.00 764.00 204.00" xmlns="http://www.w3.org/2000/svg" xmlns:xlink="http://www.w3.org/1999/xlink">
<g id="graph1" class="graph" transform="scale(1 1) rotate(0) translate(4 200)">
<title>G</title>
<polygon fill="white" stroke="white" points="-4,5 -4,-200 761,-200 761,5 -4,5"/>
<!-- Node1 -->
<g id="node1" class="node"><title>Node1</title>
<polygon fill="#bfbfbf" stroke="black" points="146.5,-174.5 146.5,-195.5 447.5,-195.5 447.5,-174.5 146.5,-174.5"/>
<text text-anchor="middle" x="297" y="-182.5" font-family="Helvetica,sans-Serif" font-size="10.00">/home/vilon_tao/gaia/sdk/include/gaia/content/res/Configuration.h</text>
</g>
<!-- Node2 -->
<g id="node3" class="node"><title>Node2</title>
<a xlink:href="../../dc/d3d/_ui_mode_manager_8h.html" target="_top" xlink:title="/home/vilon_tao/gaia/sdk/include/gaia/uimode/UiModeManager.h">
<polygon fill="white" stroke="black" points="-0.5,-116.5 -0.5,-137.5 296.5,-137.5 296.5,-116.5 -0.5,-116.5"/>
<text text-anchor="middle" x="148" y="-124.5" font-family="Helvetica,sans-Serif" font-size="10.00">/home/vilon_tao/gaia/sdk/include/gaia/uimode/UiModeManager.h</text>
</a>
</g>
<!-- Node1&#45;&gt;Node2 -->
<g id="edge2" class="edge"><title>Node1&#45;&gt;Node2</title>
<path fill="none" stroke="midnightblue" d="M260.363,-170.739C233.962,-160.462 198.92,-146.821 175.033,-137.523"/>
<polygon fill="midnightblue" stroke="midnightblue" points="259.429,-174.131 270.017,-174.497 261.968,-167.607 259.429,-174.131"/>
</g>
<!-- Node3 -->
<g id="node5" class="node"><title>Node3</title>
<a xlink:href="../../d6/d10/_web_view_8h.html" target="_top" xlink:title="/home/vilon_tao/gaia/sdk/include/gaia/webkit/WebView.h">
<polygon fill="white" stroke="black" points="313.5,-116.5 313.5,-137.5 578.5,-137.5 578.5,-116.5 313.5,-116.5"/>
<text text-anchor="middle" x="446" y="-124.5" font-family="Helvetica,sans-Serif" font-size="10.00">/home/vilon_tao/gaia/sdk/include/gaia/webkit/WebView.h</text>
</a>
</g>
<!-- Node1&#45;&gt;Node3 -->
<g id="edge4" class="edge"><title>Node1&#45;&gt;Node3</title>
<path fill="none" stroke="midnightblue" d="M333.637,-170.739C360.038,-160.462 395.08,-146.821 418.967,-137.523"/>
<polygon fill="midnightblue" stroke="midnightblue" points="332.032,-167.607 323.983,-174.497 334.571,-174.131 332.032,-167.607"/>
</g>
<!-- Node4 -->
<g id="node7" class="node"><title>Node4</title>
<a xlink:href="../../db/d4a/_web_chrome_client_8h.html" target="_top" xlink:title="/home/vilon_tao/gaia/sdk/include/gaia/webkit/WebChromeClient.h">
<polygon fill="white" stroke="black" points="140.5,-58.5 140.5,-79.5 443.5,-79.5 443.5,-58.5 140.5,-58.5"/>
<text text-anchor="middle" x="292" y="-66.5" font-family="Helvetica,sans-Serif" font-size="10.00">/home/vilon_tao/gaia/sdk/include/gaia/webkit/WebChromeClient.h</text>
</a>
</g>
<!-- Node3&#45;&gt;Node4 -->
<g id="edge6" class="edge"><title>Node3&#45;&gt;Node4</title>
<path fill="none" stroke="midnightblue" d="M408.494,-112.874C381.166,-102.582 344.737,-88.862 319.941,-79.5231"/>
<polygon fill="midnightblue" stroke="midnightblue" points="407.52,-116.247 418.112,-116.497 409.987,-109.697 407.52,-116.247"/>
</g>
<!-- Node5 -->
<g id="node9" class="node"><title>Node5</title>
<a xlink:href="../../d2/dcb/_web_settings_8h.html" target="_top" xlink:title="/home/vilon_tao/gaia/sdk/include/gaia/webkit/WebSettings.h">
<polygon fill="white" stroke="black" points="460.5,-58.5 460.5,-79.5 739.5,-79.5 739.5,-58.5 460.5,-58.5"/>
<text text-anchor="middle" x="600" y="-66.5" font-family="Helvetica,sans-Serif" font-size="10.00">/home/vilon_tao/gaia/sdk/include/gaia/webkit/WebSettings.h</text>
</a>
</g>
<!-- Node3&#45;&gt;Node5 -->
<g id="edge8" class="edge"><title>Node3&#45;&gt;Node5</title>
<path fill="none" stroke="midnightblue" d="M483.506,-112.874C510.834,-102.582 547.263,-88.862 572.059,-79.5231"/>
<polygon fill="midnightblue" stroke="midnightblue" points="482.013,-109.697 473.888,-116.497 484.48,-116.247 482.013,-109.697"/>
</g>
<!-- Node6 -->
<g id="node11" class="node"><title>Node6</title>
<a xlink:href="../../d0/dd7/_web_settings_classic_8h.html" target="_top" xlink:title="/home/vilon_tao/gaia/sdk/include/gaia/webkit/WebSettingsClassic.h">
<polygon fill="white" stroke="black" points="444,-0.5 444,-21.5 756,-21.5 756,-0.5 444,-0.5"/>
<text text-anchor="middle" x="600" y="-8.5" font-family="Helvetica,sans-Serif" font-size="10.00">/home/vilon_tao/gaia/sdk/include/gaia/webkit/WebSettingsClassic.h</text>
</a>
</g>
<!-- Node5&#45;&gt;Node6 -->
<g id="edge10" class="edge"><title>Node5&#45;&gt;Node6</title>
<path fill="none" stroke="midnightblue" d="M600,-48.1906C600,-39.1684 600,-28.9941 600,-21.5707"/>
<polygon fill="midnightblue" stroke="midnightblue" points="596.5,-48.3619 600,-58.3619 603.5,-48.3619 596.5,-48.3619"/>
</g>
</g>
</svg>
