<?xml version="1.0" encoding="UTF-8" standalone="no"?>
<!DOCTYPE svg PUBLIC "-//W3C//DTD SVG 1.1//EN"
 "http://www.w3.org/Graphics/SVG/1.1/DTD/svg11.dtd">
<!-- Generated by graphviz version 2.26.3 (20100126.1600)
 -->
<!-- Title: G Pages: 1 -->
<svg width="370pt" height="146pt"
 viewBox="0.00 0.00 370.00 146.00" xmlns="http://www.w3.org/2000/svg" xmlns:xlink="http://www.w3.org/1999/xlink">
<g id="graph1" class="graph" transform="scale(1 1) rotate(0) translate(4 142)">
<title>G</title>
<polygon fill="white" stroke="white" points="-4,5 -4,-142 367,-142 367,5 -4,5"/>
<!-- Node1 -->
<g id="node1" class="node"><title>Node1</title>
<polygon fill="#bfbfbf" stroke="black" points="-0.5,-116.5 -0.5,-137.5 352.5,-137.5 352.5,-116.5 -0.5,-116.5"/>
<text text-anchor="middle" x="176" y="-124.5" font-family="Helvetica,sans-Serif" font-size="10.00">/home/vilon_tao/gaia/sdk/include/gaia/telephony/cat/CatResponseMessage.h</text>
</g>
<!-- Node2 -->
<g id="node3" class="node"><title>Node2</title>
<polygon fill="white" stroke="#bfbfbf" points="99.5,-58.5 99.5,-79.5 148.5,-79.5 148.5,-58.5 99.5,-58.5"/>
<text text-anchor="middle" x="124" y="-66.5" font-family="Helvetica,sans-Serif" font-size="10.00">stdint.h</text>
</g>
<!-- Node1&#45;&gt;Node2 -->
<g id="edge2" class="edge"><title>Node1&#45;&gt;Node2</title>
<path fill="none" stroke="midnightblue" d="M166.462,-116.362C159.132,-108.186 148.837,-96.7025 140.219,-87.0907"/>
<polygon fill="midnightblue" stroke="midnightblue" points="142.759,-84.68 133.477,-79.5707 137.547,-89.3528 142.759,-84.68"/>
</g>
<!-- Node3 -->
<g id="node5" class="node"><title>Node3</title>
<a xlink:href="../../d1/dd0/gmacros_8h.html" target="_top" xlink:title="gaia/base/gmacros.h">
<polygon fill="white" stroke="black" points="175.5,-0.5 175.5,-21.5 282.5,-21.5 282.5,-0.5 175.5,-0.5"/>
<text text-anchor="middle" x="229" y="-8.5" font-family="Helvetica,sans-Serif" font-size="10.00">gaia/base/gmacros.h</text>
</a>
</g>
<!-- Node1&#45;&gt;Node3 -->
<g id="edge4" class="edge"><title>Node1&#45;&gt;Node3</title>
<path fill="none" stroke="midnightblue" d="M177.72,-116.296C180.23,-102.363 185.645,-77.4909 195,-58 199.787,-48.0269 206.725,-37.9592 213.088,-29.7142"/>
<polygon fill="midnightblue" stroke="midnightblue" points="215.861,-31.8503 219.395,-21.8623 210.404,-27.4664 215.861,-31.8503"/>
</g>
<!-- Node4 -->
<g id="node7" class="node"><title>Node4</title>
<a xlink:href="../../d4/d87/_result_code_8h.html" target="_top" xlink:title="gaia/telephony/cat/ResultCode.h">
<polygon fill="white" stroke="black" points="203.5,-58.5 203.5,-79.5 362.5,-79.5 362.5,-58.5 203.5,-58.5"/>
<text text-anchor="middle" x="283" y="-66.5" font-family="Helvetica,sans-Serif" font-size="10.00">gaia/telephony/cat/ResultCode.h</text>
</a>
</g>
<!-- Node1&#45;&gt;Node4 -->
<g id="edge6" class="edge"><title>Node1&#45;&gt;Node4</title>
<path fill="none" stroke="midnightblue" d="M195.625,-116.362C212.141,-107.409 235.974,-94.4908 254.578,-84.4064"/>
<polygon fill="midnightblue" stroke="midnightblue" points="256.375,-87.4132 263.499,-79.5707 253.04,-81.2592 256.375,-87.4132"/>
</g>
<!-- Node4&#45;&gt;Node3 -->
<g id="edge8" class="edge"><title>Node4&#45;&gt;Node3</title>
<path fill="none" stroke="midnightblue" d="M273.096,-58.3619C265.484,-50.1861 254.792,-38.7025 245.843,-29.0907"/>
<polygon fill="midnightblue" stroke="midnightblue" points="248.217,-26.5046 238.842,-21.5707 243.094,-31.2746 248.217,-26.5046"/>
</g>
</g>
</svg>
