<?xml version="1.0" encoding="UTF-8" standalone="no"?>
<!DOCTYPE svg PUBLIC "-//W3C//DTD SVG 1.1//EN"
 "http://www.w3.org/Graphics/SVG/1.1/DTD/svg11.dtd">
<!-- Generated by graphviz version 2.26.3 (20100126.1600)
 -->
<!-- Title: G Pages: 1 -->
<svg width="540pt" height="88pt"
 viewBox="0.00 0.00 540.00 88.00" xmlns="http://www.w3.org/2000/svg" xmlns:xlink="http://www.w3.org/1999/xlink">
<g id="graph1" class="graph" transform="scale(1 1) rotate(0) translate(4 84)">
<title>G</title>
<polygon fill="white" stroke="white" points="-4,5 -4,-84 537,-84 537,5 -4,5"/>
<!-- Node1 -->
<g id="node1" class="node"><title>Node1</title>
<polygon fill="#bfbfbf" stroke="black" points="152.5,-58.5 152.5,-79.5 373.5,-79.5 373.5,-58.5 152.5,-58.5"/>
<text text-anchor="middle" x="263" y="-66.5" font-family="Helvetica,sans-Serif" font-size="10.00">/home/vilon_tao/gaia/sdk/include/gaia/net/Url.h</text>
</g>
<!-- Node2 -->
<g id="node3" class="node"><title>Node2</title>
<a xlink:href="../../d8/d12/_http_client_8h.html" target="_top" xlink:title="/home/vilon_tao/gaia/sdk/include/gaia/net/HttpClient.h">
<polygon fill="white" stroke="black" points="0,-0.5 0,-21.5 252,-21.5 252,-0.5 0,-0.5"/>
<text text-anchor="middle" x="126" y="-8.5" font-family="Helvetica,sans-Serif" font-size="10.00">/home/vilon_tao/gaia/sdk/include/gaia/net/HttpClient.h</text>
</a>
</g>
<!-- Node1&#45;&gt;Node2 -->
<g id="edge2" class="edge"><title>Node1&#45;&gt;Node2</title>
<path fill="none" stroke="midnightblue" d="M228.701,-54.4794C204.585,-44.2695 172.86,-30.8386 151.088,-21.6212"/>
<polygon fill="midnightblue" stroke="midnightblue" points="227.617,-57.821 238.19,-58.4966 230.346,-51.3749 227.617,-57.821"/>
</g>
<!-- Node3 -->
<g id="node5" class="node"><title>Node3</title>
<a xlink:href="../../d3/d95/_http_request_8h.html" target="_top" xlink:title="/home/vilon_tao/gaia/sdk/include/gaia/net/HttpRequest.h">
<polygon fill="white" stroke="black" points="269.5,-0.5 269.5,-21.5 532.5,-21.5 532.5,-0.5 269.5,-0.5"/>
<text text-anchor="middle" x="401" y="-8.5" font-family="Helvetica,sans-Serif" font-size="10.00">/home/vilon_tao/gaia/sdk/include/gaia/net/HttpRequest.h</text>
</a>
</g>
<!-- Node1&#45;&gt;Node3 -->
<g id="edge4" class="edge"><title>Node1&#45;&gt;Node3</title>
<path fill="none" stroke="midnightblue" d="M297.226,-54.6153C321.557,-44.3889 353.7,-30.8796 375.729,-21.6212"/>
<polygon fill="midnightblue" stroke="midnightblue" points="295.854,-51.3954 287.991,-58.4966 298.566,-57.8486 295.854,-51.3954"/>
</g>
</g>
</svg>
