<?xml version="1.0" encoding="UTF-8" standalone="no"?>
<!DOCTYPE svg PUBLIC "-//W3C//DTD SVG 1.1//EN"
 "http://www.w3.org/Graphics/SVG/1.1/DTD/svg11.dtd">
<!-- Generated by graphviz version 2.26.3 (20100126.1600)
 -->
<!-- Title: G Pages: 1 -->
<svg width="290pt" height="90pt"
 viewBox="0.00 0.00 290.00 90.00" xmlns="http://www.w3.org/2000/svg" xmlns:xlink="http://www.w3.org/1999/xlink">
<g id="graph1" class="graph" transform="scale(1 1) rotate(0) translate(4 86)">
<title>G</title>
<polygon fill="white" stroke="white" points="-4,5 -4,-86 287,-86 287,5 -4,5"/>
<!-- Node1 -->
<g id="node1" class="node"><title>Node1</title>
<polygon fill="#bfbfbf" stroke="black" points="0,-0.5 0,-21.5 204,-21.5 204,-0.5 0,-0.5"/>
<text text-anchor="middle" x="102" y="-8.5" font-family="Helvetica,sans-Serif" font-size="10.00">gaia::text::PasswordTransformationMethod</text>
</g>
<!-- Node1&#45;&gt;Node1 -->
<g id="edge4" class="edge"><title>Node1&#45;&gt;Node1</title>
<path fill="none" stroke="#9a32cd" stroke-dasharray="5,2" d="M214.69,-14.3655C219.318,-13.4951 222,-12.3733 222,-11 222,-8.80273 215.134,-7.2492 204.418,-6.33939"/>
<polygon fill="#9a32cd" stroke="#9a32cd" points="213.902,-10.9371 204.418,-15.6606 214.777,-17.8821 213.902,-10.9371"/>
<text text-anchor="middle" x="252" y="-8.5" font-family="Helvetica,sans-Serif" font-size="10.00"> mspInstance</text>
</g>
<!-- Node2 -->
<g id="node2" class="node"><title>Node2</title>
<a xlink:href="../../de/d26/classgaia_1_1text_1_1_transformation_method.html" target="_top" xlink:title="TextView uses TransformationMethods to do things like replacing the characters of passwords with dots...">
<polygon fill="white" stroke="black" points="21.5,-60.5 21.5,-81.5 182.5,-81.5 182.5,-60.5 21.5,-60.5"/>
<text text-anchor="middle" x="102" y="-68.5" font-family="Helvetica,sans-Serif" font-size="10.00">gaia::text::TransformationMethod</text>
</a>
</g>
<!-- Node2&#45;&gt;Node1 -->
<g id="edge2" class="edge"><title>Node2&#45;&gt;Node1</title>
<path fill="none" stroke="midnightblue" d="M102,-50.2312C102,-40.5922 102,-29.5444 102,-21.6339"/>
<polygon fill="midnightblue" stroke="midnightblue" points="98.5001,-50.2732 102,-60.2732 105.5,-50.2732 98.5001,-50.2732"/>
</g>
</g>
</svg>
