<?xml version="1.0" encoding="UTF-8" standalone="no"?>
<!DOCTYPE svg PUBLIC "-//W3C//DTD SVG 1.1//EN"
 "http://www.w3.org/Graphics/SVG/1.1/DTD/svg11.dtd">
<!-- Generated by graphviz version 2.26.3 (20100126.1600)
 -->
<!-- Title: G Pages: 1 -->
<svg width="12034pt" height="262pt"
 viewBox="0.00 0.00 12034.00 262.00" xmlns="http://www.w3.org/2000/svg" xmlns:xlink="http://www.w3.org/1999/xlink">
<g id="graph1" class="graph" transform="scale(1 1) rotate(0) translate(4 258)">
<title>G</title>
<polygon fill="white" stroke="white" points="-4,5 -4,-258 12031,-258 12031,5 -4,5"/>
<!-- Node1 -->
<g id="node1" class="node"><title>Node1</title>
<polygon fill="#bfbfbf" stroke="black" points="10676,-232.5 10676,-253.5 10956,-253.5 10956,-232.5 10676,-232.5"/>
<text text-anchor="middle" x="10816" y="-240.5" font-family="Helvetica,sans-Serif" font-size="10.00">/home/vilon_tao/gaia/sdk/include/gaia/base/CharSequence.h</text>
</g>
<!-- Node2 -->
<g id="node3" class="node"><title>Node2</title>
<a xlink:href="../../db/db5/_string_8h.html" target="_top" xlink:title="/home/vilon_tao/gaia/sdk/include/gaia/base/String.h">
<polygon fill="white" stroke="red" points="4917.5,-174.5 4917.5,-195.5 5158.5,-195.5 5158.5,-174.5 4917.5,-174.5"/>
<text text-anchor="middle" x="5038" y="-182.5" font-family="Helvetica,sans-Serif" font-size="10.00">/home/vilon_tao/gaia/sdk/include/gaia/base/String.h</text>
</a>
</g>
<!-- Node1&#45;&gt;Node2 -->
<g id="edge2" class="edge"><title>Node1&#45;&gt;Node2</title>
<path fill="none" stroke="midnightblue" d="M10665.6,-241.49C9843.12,-233.234 5900.9,-193.662 5158.65,-186.211"/>
<polygon fill="midnightblue" stroke="midnightblue" points="10665.6,-244.991 10675.7,-241.591 10665.7,-237.991 10665.6,-244.991"/>
</g>
<!-- Node43 -->
<g id="node92" class="node"><title>Node43</title>
<a xlink:href="../../d3/dcc/_match_result_8h.html" target="_top" xlink:title="/home/vilon_tao/gaia/sdk/include/gaia/webkit/MatchResult.h">
<polygon fill="white" stroke="red" points="10200,-116.5 10200,-137.5 10478,-137.5 10478,-116.5 10200,-116.5"/>
<text text-anchor="middle" x="10339" y="-124.5" font-family="Helvetica,sans-Serif" font-size="10.00">/home/vilon_tao/gaia/sdk/include/gaia/webkit/MatchResult.h</text>
</a>
</g>
<!-- Node1&#45;&gt;Node43 -->
<g id="edge120" class="edge"><title>Node1&#45;&gt;Node43</title>
<path fill="none" stroke="midnightblue" d="M10675.1,-231.232C10617.5,-224.198 10550.8,-213.157 10492,-196 10441.6,-181.311 10386.5,-153.166 10358.1,-137.749"/>
<polygon fill="midnightblue" stroke="midnightblue" points="10675,-234.747 10685.3,-232.456 10675.8,-227.796 10675,-234.747"/>
</g>
<!-- Node44 -->
<g id="node94" class="node"><title>Node44</title>
<a xlink:href="../../db/d7d/_paint_8h.html" target="_top" xlink:title="/home/vilon_tao/gaia/sdk/include/gaia/graphics/Paint.h">
<polygon fill="white" stroke="red" points="10534,-174.5 10534,-195.5 10788,-195.5 10788,-174.5 10534,-174.5"/>
<text text-anchor="middle" x="10661" y="-182.5" font-family="Helvetica,sans-Serif" font-size="10.00">/home/vilon_tao/gaia/sdk/include/gaia/graphics/Paint.h</text>
</a>
</g>
<!-- Node1&#45;&gt;Node44 -->
<g id="edge100" class="edge"><title>Node1&#45;&gt;Node44</title>
<path fill="none" stroke="midnightblue" d="M10778.3,-228.874C10750.7,-218.582 10714.1,-204.862 10689.1,-195.523"/>
<polygon fill="midnightblue" stroke="midnightblue" points="10777.3,-232.27 10787.9,-232.497 10779.8,-225.714 10777.3,-232.27"/>
</g>
<!-- Node45 -->
<g id="node96" class="node"><title>Node45</title>
<a xlink:href="../../dd/d32/_dynamic_drawer_span_8h.html" target="_top" xlink:title="/home/vilon_tao/gaia/sdk/include/gaia/text/style/DynamicDrawerSpan.h">
<polygon fill="white" stroke="red" points="10423,-58.5 10423,-79.5 10751,-79.5 10751,-58.5 10423,-58.5"/>
<text text-anchor="middle" x="10587" y="-66.5" font-family="Helvetica,sans-Serif" font-size="10.00">/home/vilon_tao/gaia/sdk/include/gaia/text/style/DynamicDrawerSpan.h</text>
</a>
</g>
<!-- Node1&#45;&gt;Node45 -->
<g id="edge116" class="edge"><title>Node1&#45;&gt;Node45</title>
<path fill="none" stroke="midnightblue" d="M10699.2,-231.324C10623.4,-222.54 10536.7,-209.704 10525,-196 10493.3,-158.824 10548.4,-102.704 10574.4,-79.5555"/>
<polygon fill="midnightblue" stroke="midnightblue" points="10699,-234.823 10709.3,-232.482 10699.8,-227.869 10699,-234.823"/>
</g>
<!-- Node46 -->
<g id="node98" class="node"><title>Node46</title>
<a xlink:href="../../d7/d25/_replacement_span_8h.html" target="_top" xlink:title="/home/vilon_tao/gaia/sdk/include/gaia/text/style/ReplacementSpan.h">
<polygon fill="white" stroke="black" points="10614.5,-116.5 10614.5,-137.5 10929.5,-137.5 10929.5,-116.5 10614.5,-116.5"/>
<text text-anchor="middle" x="10772" y="-124.5" font-family="Helvetica,sans-Serif" font-size="10.00">/home/vilon_tao/gaia/sdk/include/gaia/text/style/ReplacementSpan.h</text>
</a>
</g>
<!-- Node1&#45;&gt;Node46 -->
<g id="edge118" class="edge"><title>Node1&#45;&gt;Node46</title>
<path fill="none" stroke="midnightblue" d="M10811.6,-222.475C10808.3,-208.546 10803.3,-189.85 10797,-174 10791.8,-160.948 10784,-146.826 10778.5,-137.506"/>
<polygon fill="midnightblue" stroke="midnightblue" points="10808.2,-223.497 10813.9,-232.48 10815.1,-221.954 10808.2,-223.497"/>
</g>
<!-- Node47 -->
<g id="node101" class="node"><title>Node47</title>
<a xlink:href="../../dc/dd4/_input_filter_8h.html" target="_top" xlink:title="/home/vilon_tao/gaia/sdk/include/gaia/text/InputFilter.h">
<polygon fill="white" stroke="red" points="10844,-174.5 10844,-195.5 11098,-195.5 11098,-174.5 10844,-174.5"/>
<text text-anchor="middle" x="10971" y="-182.5" font-family="Helvetica,sans-Serif" font-size="10.00">/home/vilon_tao/gaia/sdk/include/gaia/text/InputFilter.h</text>
</a>
</g>
<!-- Node1&#45;&gt;Node47 -->
<g id="edge108" class="edge"><title>Node1&#45;&gt;Node47</title>
<path fill="none" stroke="midnightblue" d="M10853.7,-228.874C10881.3,-218.582 10917.9,-204.862 10942.9,-195.523"/>
<polygon fill="midnightblue" stroke="midnightblue" points="10852.2,-225.714 10844.1,-232.497 10854.7,-232.27 10852.2,-225.714"/>
</g>
<!-- Node48 -->
<g id="node103" class="node"><title>Node48</title>
<a xlink:href="../../df/d3d/_transformation_method_8h.html" target="_top" xlink:title="/home/vilon_tao/gaia/sdk/include/gaia/text/method/TransformationMethod.h">
<polygon fill="white" stroke="red" points="11116,-174.5 11116,-195.5 11460,-195.5 11460,-174.5 11116,-174.5"/>
<text text-anchor="middle" x="11288" y="-182.5" font-family="Helvetica,sans-Serif" font-size="10.00">/home/vilon_tao/gaia/sdk/include/gaia/text/method/TransformationMethod.h</text>
</a>
</g>
<!-- Node1&#45;&gt;Node48 -->
<g id="edge110" class="edge"><title>Node1&#45;&gt;Node48</title>
<path fill="none" stroke="midnightblue" d="M10911.4,-231.276C10996.6,-220.806 11120.3,-205.61 11202.4,-195.523"/>
<polygon fill="midnightblue" stroke="midnightblue" points="10911,-227.803 10901.5,-232.497 10911.8,-234.751 10911,-227.803"/>
</g>
<!-- Node49 -->
<g id="node105" class="node"><title>Node49</title>
<a xlink:href="../../d6/d01/_spannable_string_8h.html" target="_top" xlink:title="/home/vilon_tao/gaia/sdk/include/gaia/text/SpannableString.h">
<polygon fill="white" stroke="black" points="11478,-174.5 11478,-195.5 11760,-195.5 11760,-174.5 11478,-174.5"/>
<text text-anchor="middle" x="11619" y="-182.5" font-family="Helvetica,sans-Serif" font-size="10.00">/home/vilon_tao/gaia/sdk/include/gaia/text/SpannableString.h</text>
</a>
</g>
<!-- Node1&#45;&gt;Node49 -->
<g id="edge112" class="edge"><title>Node1&#45;&gt;Node49</title>
<path fill="none" stroke="midnightblue" d="M10966.3,-232.238C11098.7,-222.748 11296.6,-208.522 11469,-196 11471.9,-195.792 11474.8,-195.581 11477.7,-195.369"/>
<polygon fill="midnightblue" stroke="midnightblue" points="10965.8,-228.763 10956.1,-232.97 10966.3,-235.745 10965.8,-228.763"/>
</g>
<!-- Node50 -->
<g id="node107" class="node"><title>Node50</title>
<a xlink:href="../../d7/dc2/_spanned_8h.html" target="_top" xlink:title="/home/vilon_tao/gaia/sdk/include/gaia/text/Spanned.h">
<polygon fill="white" stroke="red" points="11777.5,-174.5 11777.5,-195.5 12026.5,-195.5 12026.5,-174.5 11777.5,-174.5"/>
<text text-anchor="middle" x="11902" y="-182.5" font-family="Helvetica,sans-Serif" font-size="10.00">/home/vilon_tao/gaia/sdk/include/gaia/text/Spanned.h</text>
</a>
</g>
<!-- Node1&#45;&gt;Node50 -->
<g id="edge114" class="edge"><title>Node1&#45;&gt;Node50</title>
<path fill="none" stroke="midnightblue" d="M10966.4,-237.129C11154.3,-229.438 11485.6,-214.705 11769,-196 11771.8,-195.817 11774.6,-195.627 11777.4,-195.431"/>
<polygon fill="midnightblue" stroke="midnightblue" points="10966,-233.641 10956.2,-237.546 10966.3,-240.635 10966,-233.641"/>
</g>
<!-- Node3 -->
<g id="node5" class="node"><title>Node3</title>
<a xlink:href="../../df/df2/_device_admin_info_8h.html" target="_top" xlink:title="/home/vilon_tao/gaia/sdk/include/gaia/admin/DeviceAdminInfo.h">
<polygon fill="white" stroke="black" points="8988,-116.5 8988,-137.5 9284,-137.5 9284,-116.5 8988,-116.5"/>
<text text-anchor="middle" x="9136" y="-124.5" font-family="Helvetica,sans-Serif" font-size="10.00">/home/vilon_tao/gaia/sdk/include/gaia/admin/DeviceAdminInfo.h</text>
</a>
</g>
<!-- Node2&#45;&gt;Node3 -->
<g id="edge4" class="edge"><title>Node2&#45;&gt;Node3</title>
<path fill="none" stroke="midnightblue" d="M5169.03,-184.461C5763.63,-181.859 8212.25,-169.406 8979,-138 8982.69,-137.849 8986.42,-137.683 8990.19,-137.505"/>
<polygon fill="midnightblue" stroke="midnightblue" points="5168.69,-180.963 5158.71,-184.506 5168.72,-187.963 5168.69,-180.963"/>
</g>
<!-- Node4 -->
<g id="node7" class="node"><title>Node4</title>
<a xlink:href="../../d1/ddd/_ad_view_8h.html" target="_top" xlink:title="/home/vilon_tao/gaia/sdk/include/gaia/ads/AdView.h">
<polygon fill="white" stroke="black" points="9302,-116.5 9302,-137.5 9546,-137.5 9546,-116.5 9302,-116.5"/>
<text text-anchor="middle" x="9424" y="-124.5" font-family="Helvetica,sans-Serif" font-size="10.00">/home/vilon_tao/gaia/sdk/include/gaia/ads/AdView.h</text>
</a>
</g>
<!-- Node2&#45;&gt;Node4 -->
<g id="edge6" class="edge"><title>Node2&#45;&gt;Node4</title>
<path fill="none" stroke="midnightblue" d="M5169.05,-184.839C5792.31,-183.876 8460.84,-177.482 9293,-138 9296.08,-137.854 9299.2,-137.693 9302.34,-137.518"/>
<polygon fill="midnightblue" stroke="midnightblue" points="5168.68,-181.339 5158.69,-184.855 5168.69,-188.339 5168.68,-181.339"/>
</g>
<!-- Node5 -->
<g id="node9" class="node"><title>Node5</title>
<a xlink:href="../../d1/d65/_i_ad_listener_8h.html" target="_top" xlink:title="/home/vilon_tao/gaia/sdk/include/gaia/ads/IAdListener.h">
<polygon fill="white" stroke="black" points="9564,-116.5 9564,-137.5 9824,-137.5 9824,-116.5 9564,-116.5"/>
<text text-anchor="middle" x="9694" y="-124.5" font-family="Helvetica,sans-Serif" font-size="10.00">/home/vilon_tao/gaia/sdk/include/gaia/ads/IAdListener.h</text>
</a>
</g>
<!-- Node2&#45;&gt;Node5 -->
<g id="edge8" class="edge"><title>Node2&#45;&gt;Node5</title>
<path fill="none" stroke="midnightblue" d="M5168.81,-184.852C5814.67,-183.936 8667.75,-177.676 9555,-138 9558.26,-137.854 9561.57,-137.693 9564.91,-137.518"/>
<polygon fill="midnightblue" stroke="midnightblue" points="5168.54,-181.352 5158.54,-184.866 5168.55,-188.352 5168.54,-181.352"/>
</g>
<!-- Node6 -->
<g id="node11" class="node"><title>Node6</title>
<a xlink:href="../../d4/d15/_cloud_storage_file_info_8h.html" target="_top" xlink:title="/home/vilon_tao/gaia/sdk/include/gaia/cloudstorage/CloudStorageFileInfo.h">
<polygon fill="white" stroke="black" points="9841.5,-116.5 9841.5,-137.5 10182.5,-137.5 10182.5,-116.5 9841.5,-116.5"/>
<text text-anchor="middle" x="10012" y="-124.5" font-family="Helvetica,sans-Serif" font-size="10.00">/home/vilon_tao/gaia/sdk/include/gaia/cloudstorage/CloudStorageFileInfo.h</text>
</a>
</g>
<!-- Node2&#45;&gt;Node6 -->
<g id="edge10" class="edge"><title>Node2&#45;&gt;Node6</title>
<path fill="none" stroke="midnightblue" d="M5168.83,-184.632C5838.42,-182.609 8887.08,-171.678 9833,-138 9837.2,-137.85 9841.46,-137.686 9845.75,-137.509"/>
<polygon fill="midnightblue" stroke="midnightblue" points="5168.66,-181.132 5158.67,-184.663 5168.68,-188.132 5168.66,-181.132"/>
</g>
<!-- Node7 -->
<g id="node13" class="node"><title>Node7</title>
<a xlink:href="../../d6/d2c/_cloud_storage_manager_8h.html" target="_top" xlink:title="/home/vilon_tao/gaia/sdk/include/gaia/cloudstorage/CloudStorageManager.h">
<polygon fill="white" stroke="black" points="-0.5,-116.5 -0.5,-137.5 346.5,-137.5 346.5,-116.5 -0.5,-116.5"/>
<text text-anchor="middle" x="173" y="-124.5" font-family="Helvetica,sans-Serif" font-size="10.00">/home/vilon_tao/gaia/sdk/include/gaia/cloudstorage/CloudStorageManager.h</text>
</a>
</g>
<!-- Node2&#45;&gt;Node7 -->
<g id="edge12" class="edge"><title>Node2&#45;&gt;Node7</title>
<path fill="none" stroke="midnightblue" d="M4907.26,-184.579C4247.32,-182.318 1277.45,-170.485 355,-138 350.729,-137.85 346.403,-137.684 342.038,-137.507"/>
<polygon fill="midnightblue" stroke="midnightblue" points="4907.27,-188.079 4917.28,-184.613 4907.29,-181.079 4907.27,-188.079"/>
</g>
<!-- Node8 -->
<g id="node15" class="node"><title>Node8</title>
<a xlink:href="../../db/d62/_abstract_threaded_sync_adapter_8h.html" target="_top" xlink:title="/home/vilon_tao/gaia/sdk/include/gaia/content/sync/AbstractThreadedSyncAdapter.h">
<polygon fill="white" stroke="black" points="364,-116.5 364,-137.5 748,-137.5 748,-116.5 364,-116.5"/>
<text text-anchor="middle" x="556" y="-124.5" font-family="Helvetica,sans-Serif" font-size="10.00">/home/vilon_tao/gaia/sdk/include/gaia/content/sync/AbstractThreadedSyncAdapter.h</text>
</a>
</g>
<!-- Node2&#45;&gt;Node8 -->
<g id="edge14" class="edge"><title>Node2&#45;&gt;Node8</title>
<path fill="none" stroke="midnightblue" d="M4906.95,-184.335C4281.41,-181.04 1595.08,-165.52 757,-138 752.372,-137.848 747.684,-137.682 742.956,-137.505"/>
<polygon fill="midnightblue" stroke="midnightblue" points="4907.33,-187.837 4917.35,-184.389 4907.37,-180.837 4907.33,-187.837"/>
</g>
<!-- Node9 -->
<g id="node17" class="node"><title>Node9</title>
<a xlink:href="../../d5/d84/_sync_result_8h.html" target="_top" xlink:title="/home/vilon_tao/gaia/sdk/include/gaia/content/sync/SyncResult.h">
<polygon fill="white" stroke="black" points="766,-116.5 766,-137.5 1068,-137.5 1068,-116.5 766,-116.5"/>
<text text-anchor="middle" x="917" y="-124.5" font-family="Helvetica,sans-Serif" font-size="10.00">/home/vilon_tao/gaia/sdk/include/gaia/content/sync/SyncResult.h</text>
</a>
</g>
<!-- Node2&#45;&gt;Node9 -->
<g id="edge16" class="edge"><title>Node2&#45;&gt;Node9</title>
<path fill="none" stroke="midnightblue" d="M4906.81,-184.447C4310.06,-181.775 1847.88,-169.047 1077,-138 1073.24,-137.849 1069.44,-137.683 1065.6,-137.504"/>
<polygon fill="midnightblue" stroke="midnightblue" points="4907.15,-187.948 4917.16,-184.493 4907.18,-180.948 4907.15,-187.948"/>
</g>
<!-- Node10 -->
<g id="node19" class="node"><title>Node10</title>
<a xlink:href="../../d2/d3b/_sync_status_observer_8h.html" target="_top" xlink:title="/home/vilon_tao/gaia/sdk/include/gaia/content/sync/SyncStatusObserver.h">
<polygon fill="white" stroke="black" points="1085.5,-116.5 1085.5,-137.5 1426.5,-137.5 1426.5,-116.5 1085.5,-116.5"/>
<text text-anchor="middle" x="1256" y="-124.5" font-family="Helvetica,sans-Serif" font-size="10.00">/home/vilon_tao/gaia/sdk/include/gaia/content/sync/SyncStatusObserver.h</text>
</a>
</g>
<!-- Node2&#45;&gt;Node10 -->
<g id="edge18" class="edge"><title>Node2&#45;&gt;Node10</title>
<path fill="none" stroke="midnightblue" d="M4907.21,-184.143C4345.08,-180.327 2131.47,-163.927 1435,-138 1430.96,-137.849 1426.86,-137.686 1422.73,-137.511"/>
<polygon fill="midnightblue" stroke="midnightblue" points="4907.35,-187.644 4917.37,-184.212 4907.4,-180.644 4907.35,-187.644"/>
</g>
<!-- Node11 -->
<g id="node21" class="node"><title>Node11</title>
<a xlink:href="../../d9/d05/_demand_delegate_8h.html" target="_top" xlink:title="/home/vilon_tao/gaia/sdk/include/gaia/core/DemandDelegate.h">
<polygon fill="white" stroke="black" points="1443.5,-116.5 1443.5,-137.5 1732.5,-137.5 1732.5,-116.5 1443.5,-116.5"/>
<text text-anchor="middle" x="1588" y="-124.5" font-family="Helvetica,sans-Serif" font-size="10.00">/home/vilon_tao/gaia/sdk/include/gaia/core/DemandDelegate.h</text>
</a>
</g>
<!-- Node2&#45;&gt;Node11 -->
<g id="edge20" class="edge"><title>Node2&#45;&gt;Node11</title>
<path fill="none" stroke="midnightblue" d="M4907.39,-184.143C4375.87,-180.502 2373.76,-165.234 1741,-138 1737.54,-137.851 1734.04,-137.689 1730.51,-137.515"/>
<polygon fill="midnightblue" stroke="midnightblue" points="4907.37,-187.643 4917.39,-184.212 4907.42,-180.644 4907.37,-187.643"/>
</g>
<!-- Node12 -->
<g id="node23" class="node"><title>Node12</title>
<a xlink:href="../../dd/d79/_key_event_8h.html" target="_top" xlink:title="/home/vilon_tao/gaia/sdk/include/gaia/core/event/KeyEvent.h">
<polygon fill="white" stroke="red" points="1749.5,-116.5 1749.5,-137.5 2032.5,-137.5 2032.5,-116.5 1749.5,-116.5"/>
<text text-anchor="middle" x="1891" y="-124.5" font-family="Helvetica,sans-Serif" font-size="10.00">/home/vilon_tao/gaia/sdk/include/gaia/core/event/KeyEvent.h</text>
</a>
</g>
<!-- Node2&#45;&gt;Node12 -->
<g id="edge22" class="edge"><title>Node2&#45;&gt;Node12</title>
<path fill="none" stroke="midnightblue" d="M4907.32,-183.953C4406.83,-179.787 2611.52,-163.372 2041,-138 2037.61,-137.849 2034.18,-137.685 2030.71,-137.51"/>
<polygon fill="midnightblue" stroke="midnightblue" points="4907.44,-187.454 4917.47,-184.037 4907.5,-180.454 4907.44,-187.454"/>
</g>
<!-- Node13 -->
<g id="node25" class="node"><title>Node13</title>
<a xlink:href="../../dd/dc1/_fragment_manager_8h.html" target="_top" xlink:title="/home/vilon_tao/gaia/sdk/include/gaia/core/FragmentManager.h">
<polygon fill="white" stroke="black" points="2050,-116.5 2050,-137.5 2342,-137.5 2342,-116.5 2050,-116.5"/>
<text text-anchor="middle" x="2196" y="-124.5" font-family="Helvetica,sans-Serif" font-size="10.00">/home/vilon_tao/gaia/sdk/include/gaia/core/FragmentManager.h</text>
</a>
</g>
<!-- Node2&#45;&gt;Node13 -->
<g id="edge24" class="edge"><title>Node2&#45;&gt;Node13</title>
<path fill="none" stroke="midnightblue" d="M4907.29,-183.639C4440.62,-178.637 2857.51,-160.387 2351,-138 2347.63,-137.851 2344.22,-137.691 2340.78,-137.52"/>
<polygon fill="midnightblue" stroke="midnightblue" points="4907.4,-187.141 4917.43,-183.748 4907.47,-180.141 4907.4,-187.141"/>
</g>
<!-- Node14 -->
<g id="node27" class="node"><title>Node14</title>
<a xlink:href="../../d2/d0a/_fragment_transaction_8h.html" target="_top" xlink:title="/home/vilon_tao/gaia/sdk/include/gaia/core/FragmentTransaction.h">
<polygon fill="white" stroke="black" points="2359.5,-116.5 2359.5,-137.5 2664.5,-137.5 2664.5,-116.5 2359.5,-116.5"/>
<text text-anchor="middle" x="2512" y="-124.5" font-family="Helvetica,sans-Serif" font-size="10.00">/home/vilon_tao/gaia/sdk/include/gaia/core/FragmentTransaction.h</text>
</a>
</g>
<!-- Node2&#45;&gt;Node14 -->
<g id="edge26" class="edge"><title>Node2&#45;&gt;Node14</title>
<path fill="none" stroke="midnightblue" d="M4907.16,-184.517C4549.83,-182.737 3527.32,-174.578 2678,-138 2673.67,-137.814 2669.28,-137.611 2664.85,-137.396"/>
<polygon fill="midnightblue" stroke="midnightblue" points="4907.27,-188.017 4917.28,-184.566 4907.3,-181.017 4907.27,-188.017"/>
</g>
<!-- Node15 -->
<g id="node29" class="node"><title>Node15</title>
<a xlink:href="../../da/dd8/_instrumentation_8h.html" target="_top" xlink:title="/home/vilon_tao/gaia/sdk/include/gaia/core/Instrumentation.h">
<polygon fill="white" stroke="red" points="2719.5,-116.5 2719.5,-137.5 3000.5,-137.5 3000.5,-116.5 2719.5,-116.5"/>
<text text-anchor="middle" x="2860" y="-124.5" font-family="Helvetica,sans-Serif" font-size="10.00">/home/vilon_tao/gaia/sdk/include/gaia/core/Instrumentation.h</text>
</a>
</g>
<!-- Node2&#45;&gt;Node15 -->
<g id="edge28" class="edge"><title>Node2&#45;&gt;Node15</title>
<path fill="none" stroke="midnightblue" d="M4907,-184.139C4584.78,-181.546 3727.96,-171.769 3014,-138 3009.58,-137.791 3005.09,-137.563 3000.56,-137.32"/>
<polygon fill="midnightblue" stroke="midnightblue" points="4907.28,-187.641 4917.3,-184.221 4907.33,-180.641 4907.28,-187.641"/>
</g>
<!-- Node16 -->
<g id="node31" class="node"><title>Node16</title>
<a xlink:href="../../d0/d54/_instrumentation_test_case_8h.html" target="_top" xlink:title="/home/vilon_tao/gaia/sdk/include/gaia/testing/InstrumentationTestCase.h">
<polygon fill="white" stroke="red" points="2344,-58.5 2344,-79.5 2678,-79.5 2678,-58.5 2344,-58.5"/>
<text text-anchor="middle" x="2511" y="-66.5" font-family="Helvetica,sans-Serif" font-size="10.00">/home/vilon_tao/gaia/sdk/include/gaia/testing/InstrumentationTestCase.h</text>
</a>
</g>
<!-- Node2&#45;&gt;Node16 -->
<g id="edge94" class="edge"><title>Node2&#45;&gt;Node16</title>
<path fill="none" stroke="midnightblue" d="M4906.93,-184.163C4431.09,-180.89 2817.09,-167.645 2711,-138 2692.2,-132.748 2690.95,-123.664 2673,-116 2635.7,-100.072 2591.34,-87.6215 2558.48,-79.5482"/>
<polygon fill="midnightblue" stroke="midnightblue" points="4907.25,-187.665 4917.27,-184.234 4907.3,-180.665 4907.25,-187.665"/>
</g>
<!-- Node17 -->
<g id="node33" class="node"><title>Node17</title>
<a xlink:href="../../d6/d7d/_instrumentation_test_runner_8h.html" target="_top" xlink:title="/home/vilon_tao/gaia/sdk/include/gaia/testing/InstrumentationTestRunner.h">
<polygon fill="white" stroke="black" points="2696,-58.5 2696,-79.5 3038,-79.5 3038,-58.5 2696,-58.5"/>
<text text-anchor="middle" x="2867" y="-66.5" font-family="Helvetica,sans-Serif" font-size="10.00">/home/vilon_tao/gaia/sdk/include/gaia/testing/InstrumentationTestRunner.h</text>
</a>
</g>
<!-- Node2&#45;&gt;Node17 -->
<g id="edge96" class="edge"><title>Node2&#45;&gt;Node17</title>
<path fill="none" stroke="midnightblue" d="M4906.95,-183.505C4478.54,-178.407 3141.74,-160.752 3052,-138 3031.19,-132.725 3028.8,-124.286 3009,-116 2974.14,-101.416 2933.04,-88.2276 2904.05,-79.5592"/>
<polygon fill="midnightblue" stroke="midnightblue" points="4907.17,-187.008 4917.21,-183.627 4907.25,-180.008 4907.17,-187.008"/>
</g>
<!-- Node18 -->
<g id="node35" class="node"><title>Node18</title>
<a xlink:href="../../dd/db1/_instrumentation_core_test_runner_8h.html" target="_top" xlink:title="/home/vilon_tao/gaia/sdk/include/gaia/testing/InstrumentationCoreTestRunner.h">
<polygon fill="white" stroke="black" points="2702.5,-0.5 2702.5,-21.5 3065.5,-21.5 3065.5,-0.5 2702.5,-0.5"/>
<text text-anchor="middle" x="2884" y="-8.5" font-family="Helvetica,sans-Serif" font-size="10.00">/home/vilon_tao/gaia/sdk/include/gaia/testing/InstrumentationCoreTestRunner.h</text>
</a>
</g>
<!-- Node2&#45;&gt;Node18 -->
<g id="edge92" class="edge"><title>Node2&#45;&gt;Node18</title>
<path fill="none" stroke="midnightblue" d="M4907.28,-184.536C4488.75,-182.693 3204.34,-174.107 3123,-138 3078.18,-118.102 3088.91,-83.4613 3047,-58 3017.3,-39.9573 2980.35,-28.562 2949.14,-21.5193"/>
<polygon fill="midnightblue" stroke="midnightblue" points="4907.29,-188.036 4917.3,-184.58 4907.32,-181.036 4907.29,-188.036"/>
</g>
<!-- Node19 -->
<g id="node37" class="node"><title>Node19</title>
<a xlink:href="../../da/de3/_binder_8h.html" target="_top" xlink:title="/home/vilon_tao/gaia/sdk/include/gaia/core/ipc/Binder.h">
<polygon fill="white" stroke="red" points="3116.5,-0.5 3116.5,-21.5 3373.5,-21.5 3373.5,-0.5 3116.5,-0.5"/>
<text text-anchor="middle" x="3245" y="-8.5" font-family="Helvetica,sans-Serif" font-size="10.00">/home/vilon_tao/gaia/sdk/include/gaia/core/ipc/Binder.h</text>
</a>
</g>
<!-- Node2&#45;&gt;Node19 -->
<g id="edge36" class="edge"><title>Node2&#45;&gt;Node19</title>
<path fill="none" stroke="midnightblue" d="M4907.17,-183.561C4485.6,-178.691 3187.89,-161.798 3151,-138 3119.35,-117.578 3101.68,-89.058 3123,-58 3132.54,-44.1051 3172.06,-30.5154 3203.57,-21.5523"/>
<polygon fill="midnightblue" stroke="midnightblue" points="4907.23,-187.061 4917.27,-183.677 4907.31,-180.062 4907.23,-187.061"/>
</g>
<!-- Node20 -->
<g id="node39" class="node"><title>Node20</title>
<a xlink:href="../../d1/dbb/_i_binder_8h.html" target="_top" xlink:title="/home/vilon_tao/gaia/sdk/include/gaia/core/ipc/IBinder.h">
<polygon fill="white" stroke="red" points="3132,-58.5 3132,-79.5 3392,-79.5 3392,-58.5 3132,-58.5"/>
<text text-anchor="middle" x="3262" y="-66.5" font-family="Helvetica,sans-Serif" font-size="10.00">/home/vilon_tao/gaia/sdk/include/gaia/core/ipc/IBinder.h</text>
</a>
</g>
<!-- Node2&#45;&gt;Node20 -->
<g id="edge38" class="edge"><title>Node2&#45;&gt;Node20</title>
<path fill="none" stroke="midnightblue" d="M4907.37,-184.154C4486.51,-181.12 3191.49,-169.259 3161,-138 3136.61,-112.991 3185.27,-91.6321 3223.17,-79.5585"/>
<polygon fill="midnightblue" stroke="midnightblue" points="4907.43,-187.654 4917.45,-184.226 4907.48,-180.655 4907.43,-187.654"/>
</g>
<!-- Node21 -->
<g id="node42" class="node"><title>Node21</title>
<a xlink:href="../../d5/de8/_page_manager_8h.html" target="_top" xlink:title="/home/vilon_tao/gaia/sdk/include/gaia/core/PageManager.h">
<polygon fill="white" stroke="black" points="3169.5,-116.5 3169.5,-137.5 3442.5,-137.5 3442.5,-116.5 3169.5,-116.5"/>
<text text-anchor="middle" x="3306" y="-124.5" font-family="Helvetica,sans-Serif" font-size="10.00">/home/vilon_tao/gaia/sdk/include/gaia/core/PageManager.h</text>
</a>
</g>
<!-- Node2&#45;&gt;Node21 -->
<g id="edge42" class="edge"><title>Node2&#45;&gt;Node21</title>
<path fill="none" stroke="midnightblue" d="M4907.19,-183.166C4635.65,-178.91 3991.13,-166.471 3451,-138 3448.1,-137.847 3445.17,-137.686 3442.21,-137.517"/>
<polygon fill="midnightblue" stroke="midnightblue" points="4907.42,-186.67 4917.47,-183.326 4907.53,-179.671 4907.42,-186.67"/>
</g>
<!-- Node22 -->
<g id="node44" class="node"><title>Node22</title>
<a xlink:href="../../df/d57/_parcel_8h.html" target="_top" xlink:title="/home/vilon_tao/gaia/sdk/include/gaia/core/Parcel.h">
<polygon fill="white" stroke="red" points="3459.5,-116.5 3459.5,-137.5 3700.5,-137.5 3700.5,-116.5 3459.5,-116.5"/>
<text text-anchor="middle" x="3580" y="-124.5" font-family="Helvetica,sans-Serif" font-size="10.00">/home/vilon_tao/gaia/sdk/include/gaia/core/Parcel.h</text>
</a>
</g>
<!-- Node2&#45;&gt;Node22 -->
<g id="edge44" class="edge"><title>Node2&#45;&gt;Node22</title>
<path fill="none" stroke="midnightblue" d="M4907.32,-182.533C4668.98,-177.553 4147.76,-164.449 3709,-138 3706.31,-137.838 3703.58,-137.666 3700.84,-137.487"/>
<polygon fill="midnightblue" stroke="midnightblue" points="4907.35,-186.034 4917.42,-182.742 4907.49,-179.035 4907.35,-186.034"/>
</g>
<!-- Node23 -->
<g id="node47" class="node"><title>Node23</title>
<a xlink:href="../../db/d64/_search_manager_8h.html" target="_top" xlink:title="/home/vilon_tao/gaia/sdk/include/gaia/core/SearchManager.h">
<polygon fill="white" stroke="black" points="3717.5,-116.5 3717.5,-137.5 3998.5,-137.5 3998.5,-116.5 3717.5,-116.5"/>
<text text-anchor="middle" x="3858" y="-124.5" font-family="Helvetica,sans-Serif" font-size="10.00">/home/vilon_tao/gaia/sdk/include/gaia/core/SearchManager.h</text>
</a>
</g>
<!-- Node2&#45;&gt;Node23 -->
<g id="edge48" class="edge"><title>Node2&#45;&gt;Node23</title>
<path fill="none" stroke="midnightblue" d="M4907.27,-180.22C4711.47,-172.794 4330.48,-157.31 4007,-138 4004.28,-137.838 4001.53,-137.67 3998.77,-137.498"/>
<polygon fill="midnightblue" stroke="midnightblue" points="4907.19,-183.719 4917.31,-180.6 4907.45,-176.724 4907.19,-183.719"/>
</g>
<!-- Node24 -->
<g id="node49" class="node"><title>Node24</title>
<a xlink:href="../../dd/df1/_bitmap_8h.html" target="_top" xlink:title="/home/vilon_tao/gaia/sdk/include/gaia/graphics/Bitmap.h">
<polygon fill="white" stroke="red" points="4016,-116.5 4016,-137.5 4278,-137.5 4278,-116.5 4016,-116.5"/>
<text text-anchor="middle" x="4147" y="-124.5" font-family="Helvetica,sans-Serif" font-size="10.00">/home/vilon_tao/gaia/sdk/include/gaia/graphics/Bitmap.h</text>
</a>
</g>
<!-- Node2&#45;&gt;Node24 -->
<g id="edge50" class="edge"><title>Node2&#45;&gt;Node24</title>
<path fill="none" stroke="midnightblue" d="M4907.15,-177.444C4757.28,-168.642 4504.35,-153.339 4287,-138 4284.08,-137.794 4281.13,-137.583 4278.15,-137.368"/>
<polygon fill="midnightblue" stroke="midnightblue" points="4907.13,-180.949 4917.32,-178.04 4907.54,-173.961 4907.13,-180.949"/>
</g>
<!-- Node25 -->
<g id="node51" class="node"><title>Node25</title>
<a xlink:href="../../d3/d90/_auth_info_8h.html" target="_top" xlink:title="/home/vilon_tao/gaia/sdk/include/gaia/net/AuthInfo.h">
<polygon fill="white" stroke="black" points="4295.5,-116.5 4295.5,-137.5 4540.5,-137.5 4540.5,-116.5 4295.5,-116.5"/>
<text text-anchor="middle" x="4418" y="-124.5" font-family="Helvetica,sans-Serif" font-size="10.00">/home/vilon_tao/gaia/sdk/include/gaia/net/AuthInfo.h</text>
</a>
</g>
<!-- Node2&#45;&gt;Node25 -->
<g id="edge52" class="edge"><title>Node2&#45;&gt;Node25</title>
<path fill="none" stroke="midnightblue" d="M4915.73,-173.562C4803.73,-163.084 4639.29,-147.702 4530.49,-137.523"/>
<polygon fill="midnightblue" stroke="midnightblue" points="4915.44,-177.05 4925.72,-174.497 4916.09,-170.08 4915.44,-177.05"/>
</g>
<!-- Node26 -->
<g id="node53" class="node"><title>Node26</title>
<a xlink:href="../../d2/db0/net_2_cookie_manager_8h.html" target="_top" xlink:title="/home/vilon_tao/gaia/sdk/include/gaia/net/CookieManager.h">
<polygon fill="white" stroke="black" points="4558,-116.5 4558,-137.5 4834,-137.5 4834,-116.5 4558,-116.5"/>
<text text-anchor="middle" x="4696" y="-124.5" font-family="Helvetica,sans-Serif" font-size="10.00">/home/vilon_tao/gaia/sdk/include/gaia/net/CookieManager.h</text>
</a>
</g>
<!-- Node2&#45;&gt;Node26 -->
<g id="edge54" class="edge"><title>Node2&#45;&gt;Node26</title>
<path fill="none" stroke="midnightblue" d="M4966.03,-172.794C4904.41,-162.345 4816.62,-147.456 4758.05,-137.523"/>
<polygon fill="midnightblue" stroke="midnightblue" points="4965.62,-176.275 4976.07,-174.497 4966.79,-169.374 4965.62,-176.275"/>
</g>
<!-- Node27 -->
<g id="node55" class="node"><title>Node27</title>
<a xlink:href="../../d4/db7/_d_n_s_8h.html" target="_top" xlink:title="/home/vilon_tao/gaia/sdk/include/gaia/net/DNS.h">
<polygon fill="white" stroke="black" points="4852,-116.5 4852,-137.5 5082,-137.5 5082,-116.5 4852,-116.5"/>
<text text-anchor="middle" x="4967" y="-124.5" font-family="Helvetica,sans-Serif" font-size="10.00">/home/vilon_tao/gaia/sdk/include/gaia/net/DNS.h</text>
</a>
</g>
<!-- Node2&#45;&gt;Node27 -->
<g id="edge56" class="edge"><title>Node2&#45;&gt;Node27</title>
<path fill="none" stroke="midnightblue" d="M5017.16,-167.975C5005.11,-158.132 4990.33,-146.055 4979.94,-137.571"/>
<polygon fill="midnightblue" stroke="midnightblue" points="5015.02,-170.746 5024.98,-174.362 5019.45,-165.325 5015.02,-170.746"/>
</g>
<!-- Node28 -->
<g id="node57" class="node"><title>Node28</title>
<a xlink:href="../../d8/d12/_http_client_8h.html" target="_top" xlink:title="/home/vilon_tao/gaia/sdk/include/gaia/net/HttpClient.h">
<polygon fill="white" stroke="black" points="5335,-58.5 5335,-79.5 5587,-79.5 5587,-58.5 5335,-58.5"/>
<text text-anchor="middle" x="5461" y="-66.5" font-family="Helvetica,sans-Serif" font-size="10.00">/home/vilon_tao/gaia/sdk/include/gaia/net/HttpClient.h</text>
</a>
</g>
<!-- Node2&#45;&gt;Node28 -->
<g id="edge58" class="edge"><title>Node2&#45;&gt;Node28</title>
<path fill="none" stroke="midnightblue" d="M5057.92,-167.99C5079.77,-149.692 5113.74,-122.355 5129,-116 5166.68,-100.303 5262.72,-87.6984 5341.87,-79.5094"/>
<polygon fill="midnightblue" stroke="midnightblue" points="5055.6,-165.375 5050.21,-174.498 5060.11,-170.725 5055.6,-165.375"/>
</g>
<!-- Node29 -->
<g id="node59" class="node"><title>Node29</title>
<a xlink:href="../../d9/d46/_http_context_8h.html" target="_top" xlink:title="/home/vilon_tao/gaia/sdk/include/gaia/net/HttpContext.h">
<polygon fill="white" stroke="black" points="5137.5,-116.5 5137.5,-137.5 5398.5,-137.5 5398.5,-116.5 5137.5,-116.5"/>
<text text-anchor="middle" x="5268" y="-124.5" font-family="Helvetica,sans-Serif" font-size="10.00">/home/vilon_tao/gaia/sdk/include/gaia/net/HttpContext.h</text>
</a>
</g>
<!-- Node2&#45;&gt;Node29 -->
<g id="edge60" class="edge"><title>Node2&#45;&gt;Node29</title>
<path fill="none" stroke="midnightblue" d="M5089.51,-172.011C5130.75,-161.611 5187.86,-147.21 5226.27,-137.523"/>
<polygon fill="midnightblue" stroke="midnightblue" points="5088.49,-168.658 5079.65,-174.497 5090.2,-175.445 5088.49,-168.658"/>
</g>
<!-- Node30 -->
<g id="node61" class="node"><title>Node30</title>
<a xlink:href="../../d9/d20/_http_file_entity_8h.html" target="_top" xlink:title="/home/vilon_tao/gaia/sdk/include/gaia/net/HttpFileEntity.h">
<polygon fill="white" stroke="black" points="5416,-116.5 5416,-137.5 5684,-137.5 5684,-116.5 5416,-116.5"/>
<text text-anchor="middle" x="5550" y="-124.5" font-family="Helvetica,sans-Serif" font-size="10.00">/home/vilon_tao/gaia/sdk/include/gaia/net/HttpFileEntity.h</text>
</a>
</g>
<!-- Node2&#45;&gt;Node30 -->
<g id="edge62" class="edge"><title>Node2&#45;&gt;Node30</title>
<path fill="none" stroke="midnightblue" d="M5140.93,-173.34C5233.37,-162.868 5367.89,-147.63 5457.11,-137.523"/>
<polygon fill="midnightblue" stroke="midnightblue" points="5140.26,-169.893 5130.72,-174.497 5141.05,-176.849 5140.26,-169.893"/>
</g>
<!-- Node31 -->
<g id="node63" class="node"><title>Node31</title>
<a xlink:href="../../d3/d95/_http_request_8h.html" target="_top" xlink:title="/home/vilon_tao/gaia/sdk/include/gaia/net/HttpRequest.h">
<polygon fill="white" stroke="black" points="6182.5,-58.5 6182.5,-79.5 6445.5,-79.5 6445.5,-58.5 6182.5,-58.5"/>
<text text-anchor="middle" x="6314" y="-66.5" font-family="Helvetica,sans-Serif" font-size="10.00">/home/vilon_tao/gaia/sdk/include/gaia/net/HttpRequest.h</text>
</a>
</g>
<!-- Node2&#45;&gt;Node31 -->
<g id="edge64" class="edge"><title>Node2&#45;&gt;Node31</title>
<path fill="none" stroke="midnightblue" d="M5168.99,-183.923C5572.11,-180.3 6768.66,-167.11 6797,-138 6803.82,-130.994 6803.57,-123.241 6797,-116 6773.7,-90.3217 6580.63,-78.233 6445.77,-72.8747"/>
<polygon fill="midnightblue" stroke="midnightblue" points="5168.72,-180.425 5158.75,-184.015 5168.78,-187.425 5168.72,-180.425"/>
</g>
<!-- Node32 -->
<g id="node65" class="node"><title>Node32</title>
<a xlink:href="../../d5/d28/_i_p_host_entry_8h.html" target="_top" xlink:title="/home/vilon_tao/gaia/sdk/include/gaia/net/IPHostEntry.h">
<polygon fill="white" stroke="black" points="5940,-116.5 5940,-137.5 6202,-137.5 6202,-116.5 5940,-116.5"/>
<text text-anchor="middle" x="6071" y="-124.5" font-family="Helvetica,sans-Serif" font-size="10.00">/home/vilon_tao/gaia/sdk/include/gaia/net/IPHostEntry.h</text>
</a>
</g>
<!-- Node2&#45;&gt;Node32 -->
<g id="edge66" class="edge"><title>Node2&#45;&gt;Node32</title>
<path fill="none" stroke="midnightblue" d="M5168.9,-179.171C5342.98,-171.175 5660.25,-155.758 5931,-138 5933.92,-137.809 5936.87,-137.611 5939.85,-137.408"/>
<polygon fill="midnightblue" stroke="midnightblue" points="5168.49,-175.685 5158.66,-179.639 5168.81,-182.678 5168.49,-175.685"/>
</g>
<!-- Node33 -->
<g id="node67" class="node"><title>Node33</title>
<a xlink:href="../../d2/db5/_proxy_manager_8h.html" target="_top" xlink:title="/home/vilon_tao/gaia/sdk/include/gaia/net/ProxyManager.h">
<polygon fill="white" stroke="black" points="6219.5,-116.5 6219.5,-137.5 6490.5,-137.5 6490.5,-116.5 6219.5,-116.5"/>
<text text-anchor="middle" x="6355" y="-124.5" font-family="Helvetica,sans-Serif" font-size="10.00">/home/vilon_tao/gaia/sdk/include/gaia/net/ProxyManager.h</text>
</a>
</g>
<!-- Node2&#45;&gt;Node33 -->
<g id="edge68" class="edge"><title>Node2&#45;&gt;Node33</title>
<path fill="none" stroke="midnightblue" d="M5168.96,-181.3C5385.78,-174.826 5832.96,-160.005 6211,-138 6213.75,-137.84 6216.54,-137.673 6219.34,-137.5"/>
<polygon fill="midnightblue" stroke="midnightblue" points="5168.7,-177.806 5158.81,-181.602 5168.91,-184.803 5168.7,-177.806"/>
</g>
<!-- Node34 -->
<g id="node69" class="node"><title>Node34</title>
<a xlink:href="../../d3/d02/_s_s_l_request_info_8h.html" target="_top" xlink:title="/home/vilon_tao/gaia/sdk/include/gaia/net/SSLRequestInfo.h">
<polygon fill="white" stroke="black" points="6508,-116.5 6508,-137.5 6788,-137.5 6788,-116.5 6508,-116.5"/>
<text text-anchor="middle" x="6648" y="-124.5" font-family="Helvetica,sans-Serif" font-size="10.00">/home/vilon_tao/gaia/sdk/include/gaia/net/SSLRequestInfo.h</text>
</a>
</g>
<!-- Node2&#45;&gt;Node34 -->
<g id="edge70" class="edge"><title>Node2&#45;&gt;Node34</title>
<path fill="none" stroke="midnightblue" d="M5168.89,-182.612C5424.62,-177.542 6008.53,-163.983 6499,-138 6501.98,-137.842 6504.99,-137.676 6508.03,-137.504"/>
<polygon fill="midnightblue" stroke="midnightblue" points="5168.74,-179.114 5158.81,-182.81 5168.88,-186.113 5168.74,-179.114"/>
</g>
<!-- Node35 -->
<g id="node71" class="node"><title>Node35</title>
<a xlink:href="../../d9/dd7/_url_8h.html" target="_top" xlink:title="/home/vilon_tao/gaia/sdk/include/gaia/net/Url.h">
<polygon fill="white" stroke="black" points="5701.5,-116.5 5701.5,-137.5 5922.5,-137.5 5922.5,-116.5 5701.5,-116.5"/>
<text text-anchor="middle" x="5812" y="-124.5" font-family="Helvetica,sans-Serif" font-size="10.00">/home/vilon_tao/gaia/sdk/include/gaia/net/Url.h</text>
</a>
</g>
<!-- Node2&#45;&gt;Node35 -->
<g id="edge72" class="edge"><title>Node2&#45;&gt;Node35</title>
<path fill="none" stroke="midnightblue" d="M5168.96,-176.397C5301.22,-167.522 5511.39,-152.908 5693,-138 5695.79,-137.771 5698.62,-137.535 5701.47,-137.295"/>
<polygon fill="midnightblue" stroke="midnightblue" points="5168.52,-172.919 5158.78,-177.079 5168.99,-179.903 5168.52,-172.919"/>
</g>
<!-- Node36 -->
<g id="node75" class="node"><title>Node36</title>
<a xlink:href="../../dd/dd6/_u_r_l_encoder_8h.html" target="_top" xlink:title="/home/vilon_tao/gaia/sdk/include/gaia/net/URLEncoder.h">
<polygon fill="white" stroke="black" points="6844,-116.5 6844,-137.5 7108,-137.5 7108,-116.5 6844,-116.5"/>
<text text-anchor="middle" x="6976" y="-124.5" font-family="Helvetica,sans-Serif" font-size="10.00">/home/vilon_tao/gaia/sdk/include/gaia/net/URLEncoder.h</text>
</a>
</g>
<!-- Node2&#45;&gt;Node36 -->
<g id="edge78" class="edge"><title>Node2&#45;&gt;Node36</title>
<path fill="none" stroke="midnightblue" d="M5169.03,-183.76C5465.18,-180.477 6208.74,-169.532 6830,-138 6834.57,-137.768 6839.22,-137.514 6843.91,-137.243"/>
<polygon fill="midnightblue" stroke="midnightblue" points="5168.64,-180.264 5158.68,-183.874 5168.72,-187.264 5168.64,-180.264"/>
</g>
<!-- Node37 -->
<g id="node77" class="node"><title>Node37</title>
<a xlink:href="../../dd/d2e/_storage_listener_8h.html" target="_top" xlink:title="/home/vilon_tao/gaia/sdk/include/gaia/storage/StorageListener.h">
<polygon fill="white" stroke="black" points="7125.5,-116.5 7125.5,-137.5 7420.5,-137.5 7420.5,-116.5 7125.5,-116.5"/>
<text text-anchor="middle" x="7273" y="-124.5" font-family="Helvetica,sans-Serif" font-size="10.00">/home/vilon_tao/gaia/sdk/include/gaia/storage/StorageListener.h</text>
</a>
</g>
<!-- Node2&#45;&gt;Node37 -->
<g id="edge80" class="edge"><title>Node2&#45;&gt;Node37</title>
<path fill="none" stroke="midnightblue" d="M5168.77,-184.213C5496.76,-181.766 6380.81,-172.257 7117,-138 7120.25,-137.849 7123.55,-137.687 7126.87,-137.517"/>
<polygon fill="midnightblue" stroke="midnightblue" points="5168.73,-180.713 5158.76,-184.286 5168.78,-187.713 5168.73,-180.713"/>
</g>
<!-- Node38 -->
<g id="node79" class="node"><title>Node38</title>
<a xlink:href="../../df/d25/_storage_manager_8h.html" target="_top" xlink:title="/home/vilon_tao/gaia/sdk/include/gaia/storage/StorageManager.h">
<polygon fill="white" stroke="black" points="7438,-116.5 7438,-137.5 7736,-137.5 7736,-116.5 7438,-116.5"/>
<text text-anchor="middle" x="7587" y="-124.5" font-family="Helvetica,sans-Serif" font-size="10.00">/home/vilon_tao/gaia/sdk/include/gaia/storage/StorageManager.h</text>
</a>
</g>
<!-- Node2&#45;&gt;Node38 -->
<g id="edge82" class="edge"><title>Node2&#45;&gt;Node38</title>
<path fill="none" stroke="midnightblue" d="M5168.81,-183.29C5601.38,-177.499 6983.39,-157.879 7429,-138 7432.43,-137.847 7435.91,-137.682 7439.41,-137.508"/>
<polygon fill="midnightblue" stroke="midnightblue" points="5168.72,-179.79 5158.77,-183.424 5168.82,-186.79 5168.72,-179.79"/>
</g>
<!-- Node39 -->
<g id="node81" class="node"><title>Node39</title>
<a xlink:href="../../de/dca/_storage_volume_8h.html" target="_top" xlink:title="/home/vilon_tao/gaia/sdk/include/gaia/storage/StorageVolume.h">
<polygon fill="white" stroke="black" points="7753.5,-116.5 7753.5,-137.5 8046.5,-137.5 8046.5,-116.5 7753.5,-116.5"/>
<text text-anchor="middle" x="7900" y="-124.5" font-family="Helvetica,sans-Serif" font-size="10.00">/home/vilon_tao/gaia/sdk/include/gaia/storage/StorageVolume.h</text>
</a>
</g>
<!-- Node2&#45;&gt;Node39 -->
<g id="edge84" class="edge"><title>Node2&#45;&gt;Node39</title>
<path fill="none" stroke="midnightblue" d="M5168.88,-183.657C5638.01,-178.698 7234.43,-160.533 7745,-138 7748.37,-137.851 7751.78,-137.691 7755.22,-137.52"/>
<polygon fill="midnightblue" stroke="midnightblue" points="5168.65,-180.159 5158.68,-183.765 5168.72,-187.159 5168.65,-180.159"/>
</g>
<!-- Node40 -->
<g id="node83" class="node"><title>Node40</title>
<a xlink:href="../../da/dbb/_sensor_8h.html" target="_top" xlink:title="/home/vilon_tao/gaia/sdk/include/gaia/system/Sensor.h">
<polygon fill="white" stroke="black" points="8063.5,-116.5 8063.5,-137.5 8320.5,-137.5 8320.5,-116.5 8063.5,-116.5"/>
<text text-anchor="middle" x="8192" y="-124.5" font-family="Helvetica,sans-Serif" font-size="10.00">/home/vilon_tao/gaia/sdk/include/gaia/system/Sensor.h</text>
</a>
</g>
<!-- Node2&#45;&gt;Node40 -->
<g id="edge86" class="edge"><title>Node2&#45;&gt;Node40</title>
<path fill="none" stroke="midnightblue" d="M5168.7,-184.089C5671.36,-180.41 7480.44,-165.513 8055,-138 8058.1,-137.852 8061.24,-137.69 8064.4,-137.517"/>
<polygon fill="midnightblue" stroke="midnightblue" points="5168.48,-180.59 5158.51,-184.163 5168.54,-187.59 5168.48,-180.59"/>
</g>
<!-- Node41 -->
<g id="node85" class="node"><title>Node41</title>
<a xlink:href="../../d0/dbc/_call_manager_8h.html" target="_top" xlink:title="/home/vilon_tao/gaia/sdk/include/gaia/telephony/CallManager.h">
<polygon fill="white" stroke="black" points="8337.5,-116.5 8337.5,-137.5 8628.5,-137.5 8628.5,-116.5 8337.5,-116.5"/>
<text text-anchor="middle" x="8483" y="-124.5" font-family="Helvetica,sans-Serif" font-size="10.00">/home/vilon_tao/gaia/sdk/include/gaia/telephony/CallManager.h</text>
</a>
</g>
<!-- Node2&#45;&gt;Node41 -->
<g id="edge88" class="edge"><title>Node2&#45;&gt;Node41</title>
<path fill="none" stroke="midnightblue" d="M5168.82,-184.13C5700.05,-180.443 7697.56,-165.038 8329,-138 8332.48,-137.851 8336.01,-137.689 8339.56,-137.515"/>
<polygon fill="midnightblue" stroke="midnightblue" points="5168.8,-180.63 5158.82,-184.199 5168.84,-187.63 5168.8,-180.63"/>
</g>
<!-- Node42 -->
<g id="node87" class="node"><title>Node42</title>
<a xlink:href="../../d7/d8e/_delegate_test_case_impl_8h.html" target="_top" xlink:title="/home/vilon_tao/gaia/sdk/include/gaia/testing/DelegateTestCaseImpl.h">
<polygon fill="white" stroke="red" points="8646,-116.5 8646,-137.5 8970,-137.5 8970,-116.5 8646,-116.5"/>
<text text-anchor="middle" x="8808" y="-124.5" font-family="Helvetica,sans-Serif" font-size="10.00">/home/vilon_tao/gaia/sdk/include/gaia/testing/DelegateTestCaseImpl.h</text>
</a>
</g>
<!-- Node2&#45;&gt;Node42 -->
<g id="edge90" class="edge"><title>Node2&#45;&gt;Node42</title>
<path fill="none" stroke="midnightblue" d="M5169.12,-184.189C5731.39,-180.57 7941.54,-164.892 8637,-138 8640.86,-137.851 8644.78,-137.688 8648.72,-137.514"/>
<polygon fill="midnightblue" stroke="midnightblue" points="5168.93,-180.69 5158.95,-184.254 5168.97,-187.69 5168.93,-180.69"/>
</g>
<!-- Node2&#45;&gt;Node43 -->
<g id="edge98" class="edge"><title>Node2&#45;&gt;Node43</title>
<path fill="none" stroke="midnightblue" d="M5168.74,-184.318C5920.44,-180.327 9676.56,-159.441 10191,-138 10194.6,-137.85 10198.3,-137.683 10201.9,-137.502"/>
<polygon fill="midnightblue" stroke="midnightblue" points="5168.67,-180.818 5158.69,-184.371 5168.71,-187.818 5168.67,-180.818"/>
</g>
<!-- Node15&#45;&gt;Node16 -->
<g id="edge30" class="edge"><title>Node15&#45;&gt;Node16</title>
<path fill="none" stroke="midnightblue" d="M2786.56,-114.794C2723.68,-104.345 2634.09,-89.4559 2574.32,-79.5231"/>
<polygon fill="midnightblue" stroke="midnightblue" points="2786.36,-118.31 2796.8,-116.497 2787.51,-111.405 2786.36,-118.31"/>
</g>
<!-- Node15&#45;&gt;Node17 -->
<g id="edge32" class="edge"><title>Node15&#45;&gt;Node17</title>
<path fill="none" stroke="midnightblue" d="M2862.51,-106.191C2863.6,-97.1684 2864.83,-86.9941 2865.72,-79.5707"/>
<polygon fill="midnightblue" stroke="midnightblue" points="2859.01,-106.015 2861.28,-116.362 2865.96,-106.853 2859.01,-106.015"/>
</g>
<!-- Node17&#45;&gt;Node18 -->
<g id="edge34" class="edge"><title>Node17&#45;&gt;Node18</title>
<path fill="none" stroke="midnightblue" d="M2873.01,-48.4876C2875.68,-39.3924 2878.7,-29.0756 2880.9,-21.5707"/>
<polygon fill="midnightblue" stroke="midnightblue" points="2869.57,-47.7811 2870.12,-58.3619 2876.29,-49.7501 2869.57,-47.7811"/>
</g>
<!-- Node20&#45;&gt;Node19 -->
<g id="edge40" class="edge"><title>Node20&#45;&gt;Node19</title>
<path fill="none" stroke="midnightblue" d="M3255.99,-48.4876C3253.32,-39.3924 3250.3,-29.0756 3248.1,-21.5707"/>
<polygon fill="midnightblue" stroke="midnightblue" points="3252.71,-49.7501 3258.88,-58.3619 3259.43,-47.7811 3252.71,-49.7501"/>
</g>
<!-- Node22&#45;&gt;Node20 -->
<g id="edge46" class="edge"><title>Node22&#45;&gt;Node20</title>
<path fill="none" stroke="midnightblue" d="M3512.37,-114.665C3455.11,-104.222 3373.93,-89.415 3319.7,-79.5231"/>
<polygon fill="midnightblue" stroke="midnightblue" points="3511.95,-118.145 3522.41,-116.497 3513.2,-111.259 3511.95,-118.145"/>
</g>
<!-- Node35&#45;&gt;Node28 -->
<g id="edge74" class="edge"><title>Node35&#45;&gt;Node28</title>
<path fill="none" stroke="midnightblue" d="M5738.53,-114.859C5675.27,-104.406 5584.92,-89.4764 5524.68,-79.5231"/>
<polygon fill="midnightblue" stroke="midnightblue" points="5738,-118.319 5748.44,-116.497 5739.14,-111.413 5738,-118.319"/>
</g>
<!-- Node35&#45;&gt;Node31 -->
<g id="edge76" class="edge"><title>Node35&#45;&gt;Node31</title>
<path fill="none" stroke="midnightblue" d="M5912.92,-115.34C6003.56,-104.868 6135.44,-89.63 6222.92,-79.5231"/>
<polygon fill="midnightblue" stroke="midnightblue" points="5912.44,-111.872 5902.91,-116.497 5913.24,-118.826 5912.44,-111.872"/>
</g>
<!-- Node44&#45;&gt;Node45 -->
<g id="edge102" class="edge"><title>Node44&#45;&gt;Node45</title>
<path fill="none" stroke="midnightblue" d="M10635.8,-168.565C10625.2,-160.509 10613.6,-149.961 10606,-138 10594.3,-119.544 10589.7,-93.852 10588,-79.5965"/>
<polygon fill="midnightblue" stroke="midnightblue" points="10633.8,-171.452 10643.9,-174.472 10637.9,-165.779 10633.8,-171.452"/>
</g>
<!-- Node44&#45;&gt;Node46 -->
<g id="edge104" class="edge"><title>Node44&#45;&gt;Node46</title>
<path fill="none" stroke="midnightblue" d="M10690.1,-169.794C10709.5,-159.675 10734.4,-146.634 10751.7,-137.621"/>
<polygon fill="midnightblue" stroke="midnightblue" points="10688.3,-166.763 10681.1,-174.497 10691.6,-172.968 10688.3,-166.763"/>
</g>
<!-- Node46&#45;&gt;Node45 -->
<g id="edge106" class="edge"><title>Node46&#45;&gt;Node45</title>
<path fill="none" stroke="midnightblue" d="M10728.7,-113.413C10695.7,-103.065 10650.9,-89.0258 10620.6,-79.5231"/>
<polygon fill="midnightblue" stroke="midnightblue" points="10727.9,-116.845 10738.5,-116.497 10730,-110.165 10727.9,-116.845"/>
</g>
</g>
</svg>
