<?xml version="1.0" encoding="UTF-8" standalone="no"?>
<!DOCTYPE svg PUBLIC "-//W3C//DTD SVG 1.1//EN"
 "http://www.w3.org/Graphics/SVG/1.1/DTD/svg11.dtd">
<!-- Generated by graphviz version 2.26.3 (20100126.1600)
 -->
<!-- Title: G Pages: 1 -->
<svg width="310pt" height="146pt"
 viewBox="0.00 0.00 310.00 146.00" xmlns="http://www.w3.org/2000/svg" xmlns:xlink="http://www.w3.org/1999/xlink">
<g id="graph1" class="graph" transform="scale(1 1) rotate(0) translate(4 142)">
<title>G</title>
<polygon fill="white" stroke="white" points="-4,5 -4,-142 307,-142 307,5 -4,5"/>
<!-- Node1 -->
<g id="node1" class="node"><title>Node1</title>
<polygon fill="#bfbfbf" stroke="black" points="0,-116.5 0,-137.5 302,-137.5 302,-116.5 0,-116.5"/>
<text text-anchor="middle" x="151" y="-124.5" font-family="Helvetica,sans-Serif" font-size="10.00">/home/vilon_tao/gaia/sdk/include/gaia/telephony/cat/CatService.h</text>
</g>
<!-- Node2 -->
<g id="node3" class="node"><title>Node2</title>
<a xlink:href="../../d1/dd0/gmacros_8h.html" target="_top" xlink:title="gaia/base/gmacros.h">
<polygon fill="white" stroke="black" points="50.5,-0.5 50.5,-21.5 157.5,-21.5 157.5,-0.5 50.5,-0.5"/>
<text text-anchor="middle" x="104" y="-8.5" font-family="Helvetica,sans-Serif" font-size="10.00">gaia/base/gmacros.h</text>
</a>
</g>
<!-- Node1&#45;&gt;Node2 -->
<g id="edge2" class="edge"><title>Node1&#45;&gt;Node2</title>
<path fill="none" stroke="midnightblue" d="M140.744,-116.348C132.717,-107.38 121.949,-93.8322 116,-80 109.405,-64.6641 106.432,-45.9312 105.094,-31.8561"/>
<polygon fill="midnightblue" stroke="midnightblue" points="108.571,-31.4304 104.332,-21.7207 101.591,-31.9548 108.571,-31.4304"/>
</g>
<!-- Node3 -->
<g id="node5" class="node"><title>Node3</title>
<a xlink:href="../../d2/d7b/_app_interface_8h.html" target="_top" xlink:title="gaia/telephony/cat/AppInterface.h">
<polygon fill="white" stroke="black" points="124.5,-58.5 124.5,-79.5 287.5,-79.5 287.5,-58.5 124.5,-58.5"/>
<text text-anchor="middle" x="206" y="-66.5" font-family="Helvetica,sans-Serif" font-size="10.00">gaia/telephony/cat/AppInterface.h</text>
</a>
</g>
<!-- Node1&#45;&gt;Node3 -->
<g id="edge4" class="edge"><title>Node1&#45;&gt;Node3</title>
<path fill="none" stroke="midnightblue" d="M161.088,-116.362C168.841,-108.186 179.73,-96.7025 188.845,-87.0907"/>
<polygon fill="midnightblue" stroke="midnightblue" points="191.635,-89.2352 195.976,-79.5707 186.555,-84.4186 191.635,-89.2352"/>
</g>
<!-- Node3&#45;&gt;Node2 -->
<g id="edge8" class="edge"><title>Node3&#45;&gt;Node2</title>
<path fill="none" stroke="midnightblue" d="M187.292,-58.3619C171.619,-49.4502 149.036,-36.6087 131.337,-26.5447"/>
<polygon fill="midnightblue" stroke="midnightblue" points="133.013,-23.4712 122.59,-21.5707 129.553,-29.5562 133.013,-23.4712"/>
</g>
<!-- Node4 -->
<g id="node7" class="node"><title>Node4</title>
<polygon fill="white" stroke="#bfbfbf" points="181.5,-0.5 181.5,-21.5 230.5,-21.5 230.5,-0.5 181.5,-0.5"/>
<text text-anchor="middle" x="206" y="-8.5" font-family="Helvetica,sans-Serif" font-size="10.00">stdint.h</text>
</g>
<!-- Node3&#45;&gt;Node4 -->
<g id="edge6" class="edge"><title>Node3&#45;&gt;Node4</title>
<path fill="none" stroke="midnightblue" d="M206,-58.3619C206,-50.9219 206,-40.7427 206,-31.7276"/>
<polygon fill="midnightblue" stroke="midnightblue" points="209.5,-31.5706 206,-21.5707 202.5,-31.5707 209.5,-31.5706"/>
</g>
</g>
</svg>
