<?xml version="1.0" encoding="UTF-8" standalone="no"?>
<!DOCTYPE svg PUBLIC "-//W3C//DTD SVG 1.1//EN"
 "http://www.w3.org/Graphics/SVG/1.1/DTD/svg11.dtd">
<!-- Generated by graphviz version 2.26.3 (20100126.1600)
 -->
<!-- Title: G Pages: 1 -->
<svg width="282pt" height="88pt"
 viewBox="0.00 0.00 282.00 88.00" xmlns="http://www.w3.org/2000/svg" xmlns:xlink="http://www.w3.org/1999/xlink">
<g id="graph1" class="graph" transform="scale(1 1) rotate(0) translate(4 84)">
<title>G</title>
<polygon fill="white" stroke="white" points="-4,5 -4,-84 279,-84 279,5 -4,5"/>
<!-- Node1 -->
<g id="node1" class="node"><title>Node1</title>
<polygon fill="#bfbfbf" stroke="black" points="-0.5,-58.5 -0.5,-79.5 274.5,-79.5 274.5,-58.5 -0.5,-58.5"/>
<text text-anchor="middle" x="137" y="-66.5" font-family="Helvetica,sans-Serif" font-size="10.00">/home/vilon_tao/gaia/sdk/include/gaia/telephony/cat/Input.h</text>
</g>
<!-- Node2 -->
<g id="node3" class="node"><title>Node2</title>
<polygon fill="white" stroke="#bfbfbf" points="65.5,-0.5 65.5,-21.5 114.5,-21.5 114.5,-0.5 65.5,-0.5"/>
<text text-anchor="middle" x="90" y="-8.5" font-family="Helvetica,sans-Serif" font-size="10.00">stdint.h</text>
</g>
<!-- Node1&#45;&gt;Node2 -->
<g id="edge2" class="edge"><title>Node1&#45;&gt;Node2</title>
<path fill="none" stroke="midnightblue" d="M128.379,-58.3619C121.82,-50.2678 112.634,-38.9318 104.894,-29.3796"/>
<polygon fill="midnightblue" stroke="midnightblue" points="107.581,-27.1364 98.5659,-21.5707 102.142,-31.5436 107.581,-27.1364"/>
</g>
<!-- Node3 -->
<g id="node5" class="node"><title>Node3</title>
<a xlink:href="../../d1/dd0/gmacros_8h.html" target="_top" xlink:title="gaia/base/gmacros.h">
<polygon fill="white" stroke="black" points="131.5,-0.5 131.5,-21.5 238.5,-21.5 238.5,-0.5 131.5,-0.5"/>
<text text-anchor="middle" x="185" y="-8.5" font-family="Helvetica,sans-Serif" font-size="10.00">gaia/base/gmacros.h</text>
</a>
</g>
<!-- Node1&#45;&gt;Node3 -->
<g id="edge4" class="edge"><title>Node1&#45;&gt;Node3</title>
<path fill="none" stroke="midnightblue" d="M145.804,-58.3619C152.502,-50.2678 161.884,-38.9318 169.789,-29.3796"/>
<polygon fill="midnightblue" stroke="midnightblue" points="172.573,-31.5061 176.252,-21.5707 167.18,-27.0431 172.573,-31.5061"/>
</g>
</g>
</svg>
