<?xml version="1.0" encoding="UTF-8" standalone="no"?>
<!DOCTYPE svg PUBLIC "-//W3C//DTD SVG 1.1//EN"
 "http://www.w3.org/Graphics/SVG/1.1/DTD/svg11.dtd">
<!-- Generated by graphviz version 2.26.3 (20100126.1600)
 -->
<!-- Title: G Pages: 1 -->
<svg width="533pt" height="262pt"
 viewBox="0.00 0.00 532.95 262.00" xmlns="http://www.w3.org/2000/svg" xmlns:xlink="http://www.w3.org/1999/xlink">
<g id="graph1" class="graph" transform="scale(1 1) rotate(0) translate(4 258)">
<title>G</title>
<polygon fill="white" stroke="white" points="-4,5 -4,-258 529.946,-258 529.946,5 -4,5"/>
<!-- Node1 -->
<g id="node1" class="node"><title>Node1</title>
<polygon fill="#bfbfbf" stroke="black" points="20,-232.5 20,-253.5 344,-253.5 344,-232.5 20,-232.5"/>
<text text-anchor="middle" x="182" y="-240.5" font-family="Helvetica,sans-Serif" font-size="10.00">/home/vilon_tao/gaia/sdk/include/gaia/text/method/MovementMethod.h</text>
</g>
<!-- Node2 -->
<g id="node3" class="node"><title>Node2</title>
<a xlink:href="../../d1/dd0/gmacros_8h.html" target="_top" xlink:title="gaia/base/gmacros.h">
<polygon fill="white" stroke="black" points="-0.5,-174.5 -0.5,-195.5 106.5,-195.5 106.5,-174.5 -0.5,-174.5"/>
<text text-anchor="middle" x="53" y="-182.5" font-family="Helvetica,sans-Serif" font-size="10.00">gaia/base/gmacros.h</text>
</a>
</g>
<!-- Node1&#45;&gt;Node2 -->
<g id="edge2" class="edge"><title>Node1&#45;&gt;Node2</title>
<path fill="none" stroke="midnightblue" d="M158.639,-232.497C138.309,-223.356 108.622,-210.008 85.8911,-199.788"/>
<polygon fill="midnightblue" stroke="midnightblue" points="87.1789,-196.53 76.6231,-195.621 84.3083,-202.914 87.1789,-196.53"/>
</g>
<!-- Node3 -->
<g id="node5" class="node"><title>Node3</title>
<a xlink:href="../../dc/de9/_motion_event_8h.html" target="_top" xlink:title="gaia/core/event/MotionEvent.h">
<polygon fill="white" stroke="black" points="3.5,-116.5 3.5,-137.5 152.5,-137.5 152.5,-116.5 3.5,-116.5"/>
<text text-anchor="middle" x="78" y="-124.5" font-family="Helvetica,sans-Serif" font-size="10.00">gaia/core/event/MotionEvent.h</text>
</a>
</g>
<!-- Node1&#45;&gt;Node3 -->
<g id="edge4" class="edge"><title>Node1&#45;&gt;Node3</title>
<path fill="none" stroke="midnightblue" d="M172.402,-232.295C154.602,-212.441 116.291,-169.709 94.3387,-145.224"/>
<polygon fill="midnightblue" stroke="midnightblue" points="96.8559,-142.789 87.5745,-137.679 91.6439,-147.461 96.8559,-142.789"/>
</g>
<!-- Node5 -->
<g id="node9" class="node"><title>Node5</title>
<a xlink:href="../../dd/d79/_key_event_8h.html" target="_top" xlink:title="gaia/core/event/KeyEvent.h">
<polygon fill="white" stroke="black" points="161.5,-174.5 161.5,-195.5 298.5,-195.5 298.5,-174.5 161.5,-174.5"/>
<text text-anchor="middle" x="230" y="-182.5" font-family="Helvetica,sans-Serif" font-size="10.00">gaia/core/event/KeyEvent.h</text>
</a>
</g>
<!-- Node1&#45;&gt;Node5 -->
<g id="edge8" class="edge"><title>Node1&#45;&gt;Node5</title>
<path fill="none" stroke="midnightblue" d="M190.804,-232.362C197.502,-224.268 206.884,-212.932 214.789,-203.38"/>
<polygon fill="midnightblue" stroke="midnightblue" points="217.573,-205.506 221.252,-195.571 212.18,-201.043 217.573,-205.506"/>
</g>
<!-- Node8 -->
<g id="node15" class="node"><title>Node8</title>
<polygon fill="white" stroke="#bfbfbf" points="467.5,-0.5 467.5,-21.5 516.5,-21.5 516.5,-0.5 467.5,-0.5"/>
<text text-anchor="middle" x="492" y="-8.5" font-family="Helvetica,sans-Serif" font-size="10.00">stdint.h</text>
</g>
<!-- Node1&#45;&gt;Node8 -->
<g id="edge24" class="edge"><title>Node1&#45;&gt;Node8</title>
<path fill="none" stroke="midnightblue" d="M251.84,-232.469C333.349,-215.969 464.205,-175.389 521,-80 530.579,-63.912 520.187,-44.0743 509.271,-29.805"/>
<polygon fill="midnightblue" stroke="midnightblue" points="511.653,-27.1943 502.58,-21.7233 506.261,-31.6582 511.653,-27.1943"/>
</g>
<!-- Node4 -->
<g id="node7" class="node"><title>Node4</title>
<polygon fill="white" stroke="#bfbfbf" points="165,-0.5 165,-21.5 233,-21.5 233,-0.5 165,-0.5"/>
<text text-anchor="middle" x="199" y="-8.5" font-family="Helvetica,sans-Serif" font-size="10.00">sys/types.h</text>
</g>
<!-- Node3&#45;&gt;Node4 -->
<g id="edge6" class="edge"><title>Node3&#45;&gt;Node4</title>
<path fill="none" stroke="midnightblue" d="M89.1665,-116.295C109.966,-96.3545 154.838,-53.337 180.323,-28.9056"/>
<polygon fill="midnightblue" stroke="midnightblue" points="183.064,-31.1261 187.86,-21.6792 178.22,-26.073 183.064,-31.1261"/>
</g>
<!-- Node5&#45;&gt;Node4 -->
<g id="edge22" class="edge"><title>Node5&#45;&gt;Node4</title>
<path fill="none" stroke="midnightblue" d="M228.107,-174.377C223.104,-146.293 209.453,-69.6735 202.777,-32.2027"/>
<polygon fill="midnightblue" stroke="midnightblue" points="206.147,-31.1588 200.947,-21.9277 199.255,-32.3866 206.147,-31.1588"/>
</g>
<!-- Node6 -->
<g id="node11" class="node"><title>Node6</title>
<a xlink:href="../../db/db5/_string_8h.html" target="_top" xlink:title="gaia/base/String.h">
<polygon fill="white" stroke="black" points="231.5,-116.5 231.5,-137.5 326.5,-137.5 326.5,-116.5 231.5,-116.5"/>
<text text-anchor="middle" x="279" y="-124.5" font-family="Helvetica,sans-Serif" font-size="10.00">gaia/base/String.h</text>
</a>
</g>
<!-- Node5&#45;&gt;Node6 -->
<g id="edge10" class="edge"><title>Node5&#45;&gt;Node6</title>
<path fill="none" stroke="midnightblue" d="M238.987,-174.362C245.825,-166.268 255.402,-154.932 263.472,-145.38"/>
<polygon fill="midnightblue" stroke="midnightblue" points="266.29,-147.468 270.07,-137.571 260.942,-142.951 266.29,-147.468"/>
</g>
<!-- Node6&#45;&gt;Node4 -->
<g id="edge20" class="edge"><title>Node6&#45;&gt;Node4</title>
<path fill="none" stroke="midnightblue" d="M268.241,-116.388C259.277,-107.228 246.488,-93.3943 237,-80 225.931,-64.3752 215.603,-45.2013 208.516,-31.0346"/>
<polygon fill="midnightblue" stroke="midnightblue" points="211.502,-29.1724 203.965,-21.7263 205.213,-32.2474 211.502,-29.1724"/>
</g>
<!-- Node7 -->
<g id="node13" class="node"><title>Node7</title>
<a xlink:href="../../d7/d97/_char_sequence_8h.html" target="_top" xlink:title="gaia/base/CharSequence.h">
<polygon fill="white" stroke="black" points="378,-58.5 378,-79.5 512,-79.5 512,-58.5 378,-58.5"/>
<text text-anchor="middle" x="445" y="-66.5" font-family="Helvetica,sans-Serif" font-size="10.00">gaia/base/CharSequence.h</text>
</a>
</g>
<!-- Node6&#45;&gt;Node7 -->
<g id="edge12" class="edge"><title>Node6&#45;&gt;Node7</title>
<path fill="none" stroke="midnightblue" d="M309.061,-116.497C336.007,-107.082 375.728,-93.2036 405.282,-82.8773"/>
<polygon fill="midnightblue" stroke="midnightblue" points="406.596,-86.1257 414.882,-79.5231 404.287,-79.5174 406.596,-86.1257"/>
</g>
<!-- Node9 -->
<g id="node17" class="node"><title>Node9</title>
<a xlink:href="../../d6/d83/_hash_func_8h.html" target="_top" xlink:title="gaia/base/HashFunc.h">
<polygon fill="white" stroke="black" points="245.5,-58.5 245.5,-79.5 360.5,-79.5 360.5,-58.5 245.5,-58.5"/>
<text text-anchor="middle" x="303" y="-66.5" font-family="Helvetica,sans-Serif" font-size="10.00">gaia/base/HashFunc.h</text>
</a>
</g>
<!-- Node6&#45;&gt;Node9 -->
<g id="edge16" class="edge"><title>Node6&#45;&gt;Node9</title>
<path fill="none" stroke="midnightblue" d="M283.402,-116.362C286.582,-108.677 290.972,-98.0686 294.79,-88.8399"/>
<polygon fill="midnightblue" stroke="midnightblue" points="298.036,-90.1491 298.626,-79.5707 291.568,-87.4726 298.036,-90.1491"/>
</g>
<!-- Node7&#45;&gt;Node8 -->
<g id="edge14" class="edge"><title>Node7&#45;&gt;Node8</title>
<path fill="none" stroke="midnightblue" d="M453.621,-58.3619C460.18,-50.2678 469.366,-38.9318 477.106,-29.3796"/>
<polygon fill="midnightblue" stroke="midnightblue" points="479.858,-31.5436 483.434,-21.5707 474.419,-27.1364 479.858,-31.5436"/>
</g>
<!-- Node9&#45;&gt;Node4 -->
<g id="edge18" class="edge"><title>Node9&#45;&gt;Node4</title>
<path fill="none" stroke="midnightblue" d="M283.925,-58.3619C267.945,-49.4502 244.919,-36.6087 226.873,-26.5447"/>
<polygon fill="midnightblue" stroke="midnightblue" points="228.393,-23.3846 217.954,-21.5707 224.983,-29.4982 228.393,-23.3846"/>
</g>
</g>
</svg>
