<?xml version="1.0" encoding="UTF-8" standalone="no"?>
<!DOCTYPE svg PUBLIC "-//W3C//DTD SVG 1.1//EN"
 "http://www.w3.org/Graphics/SVG/1.1/DTD/svg11.dtd">
<!-- Generated by graphviz version 2.26.3 (20100126.1600)
 -->
<!-- Title: G Pages: 1 -->
<svg width="656pt" height="88pt"
 viewBox="0.00 0.00 656.00 88.00" xmlns="http://www.w3.org/2000/svg" xmlns:xlink="http://www.w3.org/1999/xlink">
<g id="graph1" class="graph" transform="scale(1 1) rotate(0) translate(4 84)">
<title>G</title>
<polygon fill="white" stroke="white" points="-4,5 -4,-84 653,-84 653,5 -4,5"/>
<!-- Node1 -->
<g id="node1" class="node"><title>Node1</title>
<polygon fill="#bfbfbf" stroke="black" points="176,-58.5 176,-79.5 484,-79.5 484,-58.5 176,-58.5"/>
<text text-anchor="middle" x="330" y="-66.5" font-family="Helvetica,sans-Serif" font-size="10.00">/home/vilon_tao/gaia/sdk/include/gaia/telephony/cat/AppInterface.h</text>
</g>
<!-- Node2 -->
<g id="node3" class="node"><title>Node2</title>
<a xlink:href="../../dc/d83/_cat_cmd_message_8h.html" target="_top" xlink:title="/home/vilon_tao/gaia/sdk/include/gaia/telephony/cat/CatCmdMessage.h">
<polygon fill="white" stroke="black" points="-0.5,-0.5 -0.5,-21.5 328.5,-21.5 328.5,-0.5 -0.5,-0.5"/>
<text text-anchor="middle" x="164" y="-8.5" font-family="Helvetica,sans-Serif" font-size="10.00">/home/vilon_tao/gaia/sdk/include/gaia/telephony/cat/CatCmdMessage.h</text>
</a>
</g>
<!-- Node1&#45;&gt;Node2 -->
<g id="edge2" class="edge"><title>Node1&#45;&gt;Node2</title>
<path fill="none" stroke="midnightblue" d="M290.344,-55.1443C260.804,-44.8229 221.081,-30.9439 194.118,-21.5231"/>
<polygon fill="midnightblue" stroke="midnightblue" points="289.344,-58.5023 299.939,-58.4966 291.653,-51.894 289.344,-58.5023"/>
</g>
<!-- Node3 -->
<g id="node5" class="node"><title>Node3</title>
<a xlink:href="../../de/d2f/_cat_service_8h.html" target="_top" xlink:title="/home/vilon_tao/gaia/sdk/include/gaia/telephony/cat/CatService.h">
<polygon fill="white" stroke="black" points="346,-0.5 346,-21.5 648,-21.5 648,-0.5 346,-0.5"/>
<text text-anchor="middle" x="497" y="-8.5" font-family="Helvetica,sans-Serif" font-size="10.00">/home/vilon_tao/gaia/sdk/include/gaia/telephony/cat/CatService.h</text>
</a>
</g>
<!-- Node1&#45;&gt;Node3 -->
<g id="edge4" class="edge"><title>Node1&#45;&gt;Node3</title>
<path fill="none" stroke="midnightblue" d="M369.895,-55.1443C399.613,-44.8229 439.575,-30.9439 466.701,-21.5231"/>
<polygon fill="midnightblue" stroke="midnightblue" points="368.541,-51.9095 360.242,-58.4966 370.837,-58.522 368.541,-51.9095"/>
</g>
</g>
</svg>
