<?xml version="1.0" encoding="UTF-8" standalone="no"?>
<!DOCTYPE svg PUBLIC "-//W3C//DTD SVG 1.1//EN"
 "http://www.w3.org/Graphics/SVG/1.1/DTD/svg11.dtd">
<!-- Generated by graphviz version 2.26.3 (20100126.1600)
 -->
<!-- Title: G Pages: 1 -->
<svg width="334pt" height="146pt"
 viewBox="0.00 0.00 334.00 146.00" xmlns="http://www.w3.org/2000/svg" xmlns:xlink="http://www.w3.org/1999/xlink">
<g id="graph1" class="graph" transform="scale(1 1) rotate(0) translate(4 142)">
<title>G</title>
<polygon fill="white" stroke="white" points="-4,5 -4,-142 331,-142 331,5 -4,5"/>
<!-- Node1 -->
<g id="node1" class="node"><title>Node1</title>
<polygon fill="#bfbfbf" stroke="black" points="0,-116.5 0,-137.5 326,-137.5 326,-116.5 0,-116.5"/>
<text text-anchor="middle" x="163" y="-124.5" font-family="Helvetica,sans-Serif" font-size="10.00">/home/vilon_tao/gaia/sdk/include/gaia/ui/preference/DialogPreference.h</text>
</g>
<!-- Node2 -->
<g id="node3" class="node"><title>Node2</title>
<a xlink:href="../../d4/dd7/_preference_8h.html" target="_top" xlink:title="gaia/ui/preference/Preference.h">
<polygon fill="white" stroke="black" points="35,-58.5 35,-79.5 187,-79.5 187,-58.5 35,-58.5"/>
<text text-anchor="middle" x="111" y="-66.5" font-family="Helvetica,sans-Serif" font-size="10.00">gaia/ui/preference/Preference.h</text>
</a>
</g>
<!-- Node1&#45;&gt;Node2 -->
<g id="edge2" class="edge"><title>Node1&#45;&gt;Node2</title>
<path fill="none" stroke="midnightblue" d="M153.462,-116.362C146.132,-108.186 135.837,-96.7025 127.219,-87.0907"/>
<polygon fill="midnightblue" stroke="midnightblue" points="129.759,-84.68 120.477,-79.5707 124.547,-89.3528 129.759,-84.68"/>
</g>
<!-- Node4 -->
<g id="node7" class="node"><title>Node4</title>
<a xlink:href="../../d1/dd0/gmacros_8h.html" target="_top" xlink:title="gaia/base/gmacros.h">
<polygon fill="white" stroke="black" points="156.5,-0.5 156.5,-21.5 263.5,-21.5 263.5,-0.5 156.5,-0.5"/>
<text text-anchor="middle" x="210" y="-8.5" font-family="Helvetica,sans-Serif" font-size="10.00">gaia/base/gmacros.h</text>
</a>
</g>
<!-- Node1&#45;&gt;Node4 -->
<g id="edge8" class="edge"><title>Node1&#45;&gt;Node4</title>
<path fill="none" stroke="midnightblue" d="M172.551,-116.201C180.051,-107.146 190.17,-93.5554 196,-80 202.63,-64.5832 206.176,-45.8562 208.038,-31.8039"/>
<polygon fill="midnightblue" stroke="midnightblue" points="211.536,-32.0227 209.197,-21.6891 204.581,-31.2255 211.536,-32.0227"/>
</g>
<!-- Node3 -->
<g id="node5" class="node"><title>Node3</title>
<polygon fill="white" stroke="#bfbfbf" points="86.5,-0.5 86.5,-21.5 135.5,-21.5 135.5,-0.5 86.5,-0.5"/>
<text text-anchor="middle" x="111" y="-8.5" font-family="Helvetica,sans-Serif" font-size="10.00">stdint.h</text>
</g>
<!-- Node2&#45;&gt;Node3 -->
<g id="edge4" class="edge"><title>Node2&#45;&gt;Node3</title>
<path fill="none" stroke="midnightblue" d="M111,-58.3619C111,-50.9219 111,-40.7427 111,-31.7276"/>
<polygon fill="midnightblue" stroke="midnightblue" points="114.5,-31.5706 111,-21.5707 107.5,-31.5707 114.5,-31.5706"/>
</g>
<!-- Node2&#45;&gt;Node4 -->
<g id="edge6" class="edge"><title>Node2&#45;&gt;Node4</title>
<path fill="none" stroke="midnightblue" d="M129.158,-58.3619C144.23,-49.532 165.887,-36.844 182.993,-26.8224"/>
<polygon fill="midnightblue" stroke="midnightblue" points="185.098,-29.6456 191.957,-21.5707 181.559,-23.6058 185.098,-29.6456"/>
</g>
</g>
</svg>
