<?xml version="1.0" encoding="UTF-8" standalone="no"?>
<!DOCTYPE svg PUBLIC "-//W3C//DTD SVG 1.1//EN"
 "http://www.w3.org/Graphics/SVG/1.1/DTD/svg11.dtd">
<!-- Generated by graphviz version 2.26.3 (20100126.1600)
 -->
<!-- Title: G Pages: 1 -->
<svg width="246pt" height="88pt"
 viewBox="0.00 0.00 246.00 88.00" xmlns="http://www.w3.org/2000/svg" xmlns:xlink="http://www.w3.org/1999/xlink">
<g id="graph1" class="graph" transform="scale(1 1) rotate(0) translate(4 84)">
<title>G</title>
<polygon fill="white" stroke="white" points="-4,5 -4,-84 243,-84 243,5 -4,5"/>
<!-- Node1 -->
<g id="node1" class="node"><title>Node1</title>
<polygon fill="#bfbfbf" stroke="black" points="46.5,-0.5 46.5,-21.5 195.5,-21.5 195.5,-0.5 46.5,-0.5"/>
<text text-anchor="middle" x="121" y="-8.5" font-family="Helvetica,sans-Serif" font-size="10.00">gaia::text::NumberKeyListener</text>
</g>
<!-- Node2 -->
<g id="node2" class="node"><title>Node2</title>
<a xlink:href="../../d7/d60/classgaia_1_1text_1_1_key_listener.html" target="_top" xlink:title="Interface for converting text key events into edit operations on an Editable class.">
<polygon fill="white" stroke="black" points="-0.5,-58.5 -0.5,-79.5 114.5,-79.5 114.5,-58.5 -0.5,-58.5"/>
<text text-anchor="middle" x="57" y="-66.5" font-family="Helvetica,sans-Serif" font-size="10.00">gaia::text::KeyListener</text>
</a>
</g>
<!-- Node2&#45;&gt;Node1 -->
<g id="edge2" class="edge"><title>Node2&#45;&gt;Node1</title>
<path fill="none" stroke="midnightblue" d="M76.4152,-51.405C87.1591,-41.6683 100.154,-29.8914 109.336,-21.5707"/>
<polygon fill="midnightblue" stroke="midnightblue" points="73.7982,-49.0532 68.7386,-58.3619 78.4988,-54.2401 73.7982,-49.0532"/>
</g>
<!-- Node3 -->
<g id="node4" class="node"><title>Node3</title>
<a xlink:href="../../d8/d3e/classgaia_1_1text_1_1_input_filter.html" target="_top" xlink:title="InputFilters can be attached to Editables to constrain the changes that can be made to them...">
<polygon fill="white" stroke="black" points="131.5,-58.5 131.5,-79.5 238.5,-79.5 238.5,-58.5 131.5,-58.5"/>
<text text-anchor="middle" x="185" y="-66.5" font-family="Helvetica,sans-Serif" font-size="10.00">gaia::text::InputFilter</text>
</a>
</g>
<!-- Node3&#45;&gt;Node1 -->
<g id="edge4" class="edge"><title>Node3&#45;&gt;Node1</title>
<path fill="none" stroke="midnightblue" d="M165.585,-51.405C154.841,-41.6683 141.846,-29.8914 132.664,-21.5707"/>
<polygon fill="midnightblue" stroke="midnightblue" points="163.501,-54.2401 173.261,-58.3619 168.202,-49.0532 163.501,-54.2401"/>
</g>
</g>
</svg>
