<?xml version="1.0" encoding="UTF-8" standalone="no"?>
<!DOCTYPE svg PUBLIC "-//W3C//DTD SVG 1.1//EN"
 "http://www.w3.org/Graphics/SVG/1.1/DTD/svg11.dtd">
<!-- Generated by graphviz version 2.26.3 (20100126.1600)
 -->
<!-- Title: G Pages: 1 -->
<svg width="302pt" height="146pt"
 viewBox="0.00 0.00 302.00 146.00" xmlns="http://www.w3.org/2000/svg" xmlns:xlink="http://www.w3.org/1999/xlink">
<g id="graph1" class="graph" transform="scale(1 1) rotate(0) translate(4 142)">
<title>G</title>
<polygon fill="white" stroke="white" points="-4,5 -4,-142 299,-142 299,5 -4,5"/>
<!-- Node1 -->
<g id="node1" class="node"><title>Node1</title>
<polygon fill="#bfbfbf" stroke="black" points="0,-116.5 0,-137.5 294,-137.5 294,-116.5 0,-116.5"/>
<text text-anchor="middle" x="147" y="-124.5" font-family="Helvetica,sans-Serif" font-size="10.00">/home/vilon_tao/gaia/sdk/include/gaia/graphics/LinearGradient.h</text>
</g>
<!-- Node2 -->
<g id="node3" class="node"><title>Node2</title>
<a xlink:href="../../d8/d34/_shader_8h.html" target="_top" xlink:title="gaia/graphics/Shader.h">
<polygon fill="white" stroke="black" points="34,-58.5 34,-79.5 150,-79.5 150,-58.5 34,-58.5"/>
<text text-anchor="middle" x="92" y="-66.5" font-family="Helvetica,sans-Serif" font-size="10.00">gaia/graphics/Shader.h</text>
</a>
</g>
<!-- Node1&#45;&gt;Node2 -->
<g id="edge2" class="edge"><title>Node1&#45;&gt;Node2</title>
<path fill="none" stroke="midnightblue" d="M136.912,-116.362C129.159,-108.186 118.27,-96.7025 109.155,-87.0907"/>
<polygon fill="midnightblue" stroke="midnightblue" points="111.445,-84.4186 102.024,-79.5707 106.365,-89.2352 111.445,-84.4186"/>
</g>
<!-- Node4 -->
<g id="node7" class="node"><title>Node4</title>
<polygon fill="white" stroke="#bfbfbf" points="168,-58.5 168,-79.5 236,-79.5 236,-58.5 168,-58.5"/>
<text text-anchor="middle" x="202" y="-66.5" font-family="Helvetica,sans-Serif" font-size="10.00">sys/types.h</text>
</g>
<!-- Node1&#45;&gt;Node4 -->
<g id="edge6" class="edge"><title>Node1&#45;&gt;Node4</title>
<path fill="none" stroke="midnightblue" d="M157.088,-116.362C164.841,-108.186 175.73,-96.7025 184.845,-87.0907"/>
<polygon fill="midnightblue" stroke="midnightblue" points="187.635,-89.2352 191.976,-79.5707 182.555,-84.4186 187.635,-89.2352"/>
</g>
<!-- Node3 -->
<g id="node5" class="node"><title>Node3</title>
<a xlink:href="../../d1/dd0/gmacros_8h.html" target="_top" xlink:title="gaia/base/gmacros.h">
<polygon fill="white" stroke="black" points="38.5,-0.5 38.5,-21.5 145.5,-21.5 145.5,-0.5 38.5,-0.5"/>
<text text-anchor="middle" x="92" y="-8.5" font-family="Helvetica,sans-Serif" font-size="10.00">gaia/base/gmacros.h</text>
</a>
</g>
<!-- Node2&#45;&gt;Node3 -->
<g id="edge4" class="edge"><title>Node2&#45;&gt;Node3</title>
<path fill="none" stroke="midnightblue" d="M92,-58.3619C92,-50.9219 92,-40.7427 92,-31.7276"/>
<polygon fill="midnightblue" stroke="midnightblue" points="95.5001,-31.5706 92,-21.5707 88.5001,-31.5707 95.5001,-31.5706"/>
</g>
</g>
</svg>
