<?xml version="1.0" encoding="UTF-8" standalone="no"?>
<!DOCTYPE svg PUBLIC "-//W3C//DTD SVG 1.1//EN"
 "http://www.w3.org/Graphics/SVG/1.1/DTD/svg11.dtd">
<!-- Generated by graphviz version 2.26.3 (20100126.1600)
 -->
<!-- Title: G Pages: 1 -->
<svg width="274pt" height="146pt"
 viewBox="0.00 0.00 274.00 146.00" xmlns="http://www.w3.org/2000/svg" xmlns:xlink="http://www.w3.org/1999/xlink">
<g id="graph1" class="graph" transform="scale(1 1) rotate(0) translate(4 142)">
<title>G</title>
<polygon fill="white" stroke="white" points="-4,5 -4,-142 271,-142 271,5 -4,5"/>
<!-- Node1 -->
<g id="node1" class="node"><title>Node1</title>
<polygon fill="#bfbfbf" stroke="black" points="-0.5,-116.5 -0.5,-137.5 266.5,-137.5 266.5,-116.5 -0.5,-116.5"/>
<text text-anchor="middle" x="133" y="-124.5" font-family="Helvetica,sans-Serif" font-size="10.00">/home/vilon_tao/gaia/sdk/include/gaia/net/IUDPListener.h</text>
</g>
<!-- Node2 -->
<g id="node3" class="node"><title>Node2</title>
<a xlink:href="../../d1/d88/_net_types_8h.html" target="_top" xlink:title="gaia/net/NetTypes.h">
<polygon fill="white" stroke="black" points="40.5,-58.5 40.5,-79.5 145.5,-79.5 145.5,-58.5 40.5,-58.5"/>
<text text-anchor="middle" x="93" y="-66.5" font-family="Helvetica,sans-Serif" font-size="10.00">gaia/net/NetTypes.h</text>
</a>
</g>
<!-- Node1&#45;&gt;Node2 -->
<g id="edge2" class="edge"><title>Node1&#45;&gt;Node2</title>
<path fill="none" stroke="midnightblue" d="M125.663,-116.362C120.194,-108.431 112.578,-97.3885 106.076,-87.9606"/>
<polygon fill="midnightblue" stroke="midnightblue" points="108.849,-85.8157 100.29,-79.5707 103.086,-89.7899 108.849,-85.8157"/>
</g>
<!-- Node3 -->
<g id="node5" class="node"><title>Node3</title>
<polygon fill="white" stroke="#bfbfbf" points="99,-0.5 99,-21.5 167,-21.5 167,-0.5 99,-0.5"/>
<text text-anchor="middle" x="133" y="-8.5" font-family="Helvetica,sans-Serif" font-size="10.00">sys/types.h</text>
</g>
<!-- Node1&#45;&gt;Node3 -->
<g id="edge6" class="edge"><title>Node1&#45;&gt;Node3</title>
<path fill="none" stroke="midnightblue" d="M139.382,-116.242C144.475,-106.994 151.204,-93.111 154,-80 156.039,-70.4372 156.039,-67.5628 154,-58 152.012,-48.6789 148.037,-38.9678 144.074,-30.809"/>
<polygon fill="midnightblue" stroke="midnightblue" points="147.091,-29.0246 139.382,-21.7575 140.877,-32.2463 147.091,-29.0246"/>
</g>
<!-- Node2&#45;&gt;Node3 -->
<g id="edge4" class="edge"><title>Node2&#45;&gt;Node3</title>
<path fill="none" stroke="midnightblue" d="M100.337,-58.3619C105.806,-50.4313 113.422,-39.3885 119.924,-29.9606"/>
<polygon fill="midnightblue" stroke="midnightblue" points="122.914,-31.7899 125.71,-21.5707 117.151,-27.8157 122.914,-31.7899"/>
</g>
</g>
</svg>
