<?xml version="1.0" encoding="UTF-8" standalone="no"?>
<!DOCTYPE svg PUBLIC "-//W3C//DTD SVG 1.1//EN"
 "http://www.w3.org/Graphics/SVG/1.1/DTD/svg11.dtd">
<!-- Generated by graphviz version 2.26.3 (20100126.1600)
 -->
<!-- Title: G Pages: 1 -->
<svg width="1166pt" height="162pt"
 viewBox="0.00 0.00 1166.00 162.00" xmlns="http://www.w3.org/2000/svg" xmlns:xlink="http://www.w3.org/1999/xlink">
<g id="graph1" class="graph" transform="scale(1 1) rotate(0) translate(4 158)">
<title>G</title>
<polygon fill="white" stroke="white" points="-4,5 -4,-158 1163,-158 1163,5 -4,5"/>
<!-- Node1 -->
<g id="node1" class="node"><title>Node1</title>
<polygon fill="#bfbfbf" stroke="black" points="1000,-57.5 1000,-78.5 1158,-78.5 1158,-57.5 1000,-57.5"/>
<text text-anchor="middle" x="1079" y="-65.5" font-family="Helvetica,sans-Serif" font-size="10.00">gaia::security::KeyStoreSecurity</text>
</g>
<!-- Node2 -->
<g id="node2" class="node"><title>Node2</title>
<a xlink:href="../../d3/d57/classgaia_1_1base_1_1_hash_map.html" target="_top" xlink:title="gaia::base::HashMap\&lt; gaia::base::String, gaia::base::String \&gt;">
<polygon fill="white" stroke="black" points="558.5,-123.5 558.5,-144.5 845.5,-144.5 845.5,-123.5 558.5,-123.5"/>
<text text-anchor="middle" x="702" y="-131.5" font-family="Helvetica,sans-Serif" font-size="10.00">gaia::base::HashMap&lt; gaia::base::String, gaia::base::String &gt;</text>
</a>
</g>
<!-- Node2&#45;&gt;Node1 -->
<g id="edge2" class="edge"><title>Node2&#45;&gt;Node1</title>
<path fill="none" stroke="#9a32cd" stroke-dasharray="5,2" d="M855.742,-129.784C897.178,-126.227 941.683,-120.169 982,-110 1010.11,-102.909 1040.47,-88.5724 1059.6,-78.635"/>
<polygon fill="#9a32cd" stroke="#9a32cd" points="855.242,-126.313 845.559,-130.614 855.811,-133.29 855.242,-126.313"/>
<text text-anchor="middle" x="923" y="-145" font-family="Helvetica,sans-Serif" font-size="10.00"> mpCertsIgnoresCase</text>
<text text-anchor="middle" x="923" y="-132" font-family="Helvetica,sans-Serif" font-size="10.00">mpKeysIgnoresCase</text>
</g>
<!-- Node3 -->
<g id="node4" class="node"><title>Node3</title>
<a xlink:href="../../d3/d6e/classgaia_1_1base_1_1_hash_map_impl.html" target="_top" xlink:title="gaia::base::HashMapImpl">
<polygon fill="white" stroke="black" points="0,-102.5 0,-123.5 128,-123.5 128,-102.5 0,-102.5"/>
<text text-anchor="middle" x="64" y="-110.5" font-family="Helvetica,sans-Serif" font-size="10.00">gaia::base::HashMapImpl</text>
</a>
</g>
<!-- Node3&#45;&gt;Node2 -->
<g id="edge4" class="edge"><title>Node3&#45;&gt;Node2</title>
<path fill="none" stroke="#8b1a1a" d="M120.048,-125.523C134.916,-128.424 151.007,-131.189 166,-133 331.07,-152.943 373.78,-146.102 540,-142 546.052,-141.851 552.231,-141.67 558.471,-141.464"/>
<polygon fill="#8b1a1a" stroke="#8b1a1a" points="120.471,-122.039 109.978,-123.504 119.094,-128.902 120.471,-122.039"/>
</g>
<!-- Node4 -->
<g id="node6" class="node"><title>Node4</title>
<a xlink:href="../../d3/d57/classgaia_1_1base_1_1_hash_map.html" target="_top" xlink:title="Implements hashmap data structure and operation functions.">
<polygon fill="white" stroke="black" points="166.5,-102.5 166.5,-123.5 339.5,-123.5 339.5,-102.5 166.5,-102.5"/>
<text text-anchor="middle" x="253" y="-110.5" font-family="Helvetica,sans-Serif" font-size="10.00">gaia::base::HashMap&lt; KEY, VAL &gt;</text>
</a>
</g>
<!-- Node3&#45;&gt;Node4 -->
<g id="edge8" class="edge"><title>Node3&#45;&gt;Node4</title>
<path fill="none" stroke="#8b1a1a" d="M138.407,-113C147.519,-113 156.892,-113 166.166,-113"/>
<polygon fill="#8b1a1a" stroke="#8b1a1a" points="138.251,-109.5 128.251,-113 138.25,-116.5 138.251,-109.5"/>
</g>
<!-- Node7 -->
<g id="node13" class="node"><title>Node7</title>
<a xlink:href="../../d3/d57/classgaia_1_1base_1_1_hash_map.html" target="_top" xlink:title="gaia::base::HashMap\&lt; gaia::base::String, ByteBuffer * \&gt;">
<polygon fill="white" stroke="black" points="570.5,-57.5 570.5,-78.5 833.5,-78.5 833.5,-57.5 570.5,-57.5"/>
<text text-anchor="middle" x="702" y="-65.5" font-family="Helvetica,sans-Serif" font-size="10.00">gaia::base::HashMap&lt; gaia::base::String, ByteBuffer * &gt;</text>
</a>
</g>
<!-- Node3&#45;&gt;Node7 -->
<g id="edge16" class="edge"><title>Node3&#45;&gt;Node7</title>
<path fill="none" stroke="#8b1a1a" d="M121.166,-100.529C135.73,-97.7004 151.395,-94.957 166,-93 303.112,-74.6272 461.512,-69.1574 570.365,-67.8035"/>
<polygon fill="#8b1a1a" stroke="#8b1a1a" points="120.412,-97.1107 111.286,-102.493 121.777,-103.976 120.412,-97.1107"/>
</g>
<!-- Node4&#45;&gt;Node2 -->
<g id="edge6" class="edge"><title>Node4&#45;&gt;Node2</title>
<path fill="none" stroke="orange" stroke-dasharray="5,2" d="M349.93,-117.533C410.731,-120.377 490.216,-124.095 558.274,-127.278"/>
<polygon fill="orange" stroke="orange" points="349.724,-114.02 339.572,-117.049 349.397,-121.012 349.724,-114.02"/>
<text text-anchor="middle" x="449" y="-129" font-family="Helvetica,sans-Serif" font-size="10.00"> &lt; gaia::base::String, gaia::base::String &gt;</text>
</g>
<!-- Node4&#45;&gt;Node7 -->
<g id="edge18" class="edge"><title>Node4&#45;&gt;Node7</title>
<path fill="none" stroke="orange" stroke-dasharray="5,2" d="M349.71,-101.881C352.503,-101.581 355.271,-101.287 358,-101 434.226,-92.9888 520.039,-84.7553 586.889,-78.5164"/>
<polygon fill="orange" stroke="orange" points="349.072,-98.4293 339.508,-102.987 349.827,-105.389 349.072,-98.4293"/>
<text text-anchor="middle" x="449" y="-105" font-family="Helvetica,sans-Serif" font-size="10.00"> &lt; gaia::base::String, ByteBuffer * &gt;</text>
</g>
<!-- Node5 -->
<g id="node9" class="node"><title>Node5</title>
<a xlink:href="../../d5/da3/classgaia_1_1security_1_1_trusted_certificate_store.html" target="_top" xlink:title="gaia::security::TrustedCertificateStore">
<polygon fill="white" stroke="black" points="611,-10.5 611,-31.5 793,-31.5 793,-10.5 611,-10.5"/>
<text text-anchor="middle" x="702" y="-18.5" font-family="Helvetica,sans-Serif" font-size="10.00">gaia::security::TrustedCertificateStore</text>
</a>
</g>
<!-- Node5&#45;&gt;Node1 -->
<g id="edge10" class="edge"><title>Node5&#45;&gt;Node1</title>
<path fill="none" stroke="#9a32cd" stroke-dasharray="5,2" d="M803.43,-30.2208C856.695,-35.4788 922.991,-42.6774 982,-51 995.205,-52.8624 1009.37,-55.1681 1022.68,-57.4741"/>
<polygon fill="#9a32cd" stroke="#9a32cd" points="803.593,-26.7201 793.299,-29.2286 802.91,-33.6867 803.593,-26.7201"/>
<text text-anchor="middle" x="923" y="-55" font-family="Helvetica,sans-Serif" font-size="10.00"> mpTrustedCertificateStore</text>
</g>
<!-- Node6 -->
<g id="node11" class="node"><title>Node6</title>
<a xlink:href="../../d4/d31/classgaia_1_1storage_1_1_file.html" target="_top" xlink:title="An &quot;abstract&quot; representation of a file system entity identified by a pathname.">
<polygon fill="white" stroke="black" points="205.5,-0.5 205.5,-21.5 300.5,-21.5 300.5,-0.5 205.5,-0.5"/>
<text text-anchor="middle" x="253" y="-8.5" font-family="Helvetica,sans-Serif" font-size="10.00">gaia::storage::File</text>
</a>
</g>
<!-- Node6&#45;&gt;Node5 -->
<g id="edge12" class="edge"><title>Node6&#45;&gt;Node5</title>
<path fill="none" stroke="#9a32cd" stroke-dasharray="5,2" d="M310.813,-10.3195C368.784,-9.8449 460.597,-9.65761 540,-12 562.947,-12.6769 587.703,-13.835 610.789,-15.0993"/>
<polygon fill="#9a32cd" stroke="#9a32cd" points="310.716,-6.82016 300.747,-10.4077 310.778,-13.8199 310.716,-6.82016"/>
<text text-anchor="middle" x="449" y="-42" font-family="Helvetica,sans-Serif" font-size="10.00"> mpDeletedDir</text>
<text text-anchor="middle" x="449" y="-29" font-family="Helvetica,sans-Serif" font-size="10.00">mpAddedDir</text>
<text text-anchor="middle" x="449" y="-16" font-family="Helvetica,sans-Serif" font-size="10.00">mpSystemDir</text>
</g>
<!-- Node7&#45;&gt;Node1 -->
<g id="edge14" class="edge"><title>Node7&#45;&gt;Node1</title>
<path fill="none" stroke="#9a32cd" stroke-dasharray="5,2" d="M843.737,-68C896.571,-68 954.637,-68 999.863,-68"/>
<polygon fill="#9a32cd" stroke="#9a32cd" points="843.592,-64.5001 833.592,-68 843.592,-71.5001 843.592,-64.5001"/>
<text text-anchor="middle" x="923" y="-98" font-family="Helvetica,sans-Serif" font-size="10.00"> mpKeys</text>
<text text-anchor="middle" x="923" y="-85" font-family="Helvetica,sans-Serif" font-size="10.00">mpChainCerts</text>
<text text-anchor="middle" x="923" y="-72" font-family="Helvetica,sans-Serif" font-size="10.00">mpCerts</text>
</g>
</g>
</svg>
