<?xml version="1.0" encoding="UTF-8" standalone="no"?>
<!DOCTYPE svg PUBLIC "-//W3C//DTD SVG 1.1//EN"
 "http://www.w3.org/Graphics/SVG/1.1/DTD/svg11.dtd">
<!-- Generated by graphviz version 2.26.3 (20100126.1600)
 -->
<!-- Title: G Pages: 1 -->
<svg width="1145pt" height="204pt"
 viewBox="0.00 0.00 1145.00 204.00" xmlns="http://www.w3.org/2000/svg" xmlns:xlink="http://www.w3.org/1999/xlink">
<g id="graph1" class="graph" transform="scale(1 1) rotate(0) translate(4 200)">
<title>G</title>
<polygon fill="white" stroke="white" points="-4,5 -4,-200 1142,-200 1142,5 -4,5"/>
<!-- Node1 -->
<g id="node1" class="node"><title>Node1</title>
<polygon fill="#bfbfbf" stroke="black" points="348.5,-174.5 348.5,-195.5 613.5,-195.5 613.5,-174.5 348.5,-174.5"/>
<text text-anchor="middle" x="481" y="-182.5" font-family="Helvetica,sans-Serif" font-size="10.00">/home/vilon_tao/gaia/sdk/include/gaia/core/Persistence.h</text>
</g>
<!-- Node2 -->
<g id="node3" class="node"><title>Node2</title>
<a xlink:href="../../d3/dda/_account_manager_future_8h.html" target="_top" xlink:title="/home/vilon_tao/gaia/sdk/include/gaia/accounts/AccountManagerFuture.h">
<polygon fill="white" stroke="black" points="-0.5,-116.5 -0.5,-137.5 334.5,-137.5 334.5,-116.5 -0.5,-116.5"/>
<text text-anchor="middle" x="167" y="-124.5" font-family="Helvetica,sans-Serif" font-size="10.00">/home/vilon_tao/gaia/sdk/include/gaia/accounts/AccountManagerFuture.h</text>
</a>
</g>
<!-- Node1&#45;&gt;Node2 -->
<g id="edge2" class="edge"><title>Node1&#45;&gt;Node2</title>
<path fill="none" stroke="midnightblue" d="M414.22,-172.665C357.684,-162.222 277.522,-147.415 223.97,-137.523"/>
<polygon fill="midnightblue" stroke="midnightblue" points="413.668,-176.122 424.137,-174.497 414.939,-169.238 413.668,-176.122"/>
</g>
<!-- Node3 -->
<g id="node5" class="node"><title>Node3</title>
<a xlink:href="../../d0/d54/_instrumentation_test_case_8h.html" target="_top" xlink:title="/home/vilon_tao/gaia/sdk/include/gaia/testing/InstrumentationTestCase.h">
<polygon fill="white" stroke="black" points="509,-116.5 509,-137.5 843,-137.5 843,-116.5 509,-116.5"/>
<text text-anchor="middle" x="676" y="-124.5" font-family="Helvetica,sans-Serif" font-size="10.00">/home/vilon_tao/gaia/sdk/include/gaia/testing/InstrumentationTestCase.h</text>
</a>
</g>
<!-- Node1&#45;&gt;Node3 -->
<g id="edge4" class="edge"><title>Node1&#45;&gt;Node3</title>
<path fill="none" stroke="midnightblue" d="M526.232,-171.546C561.065,-161.186 608.534,-147.067 640.621,-137.523"/>
<polygon fill="midnightblue" stroke="midnightblue" points="524.9,-168.291 516.313,-174.497 526.896,-175 524.9,-168.291"/>
</g>
<!-- Node5 -->
<g id="node9" class="node"><title>Node5</title>
<a xlink:href="../../d2/d74/_page_instrumentation_test_case_8h.html" target="_top" xlink:title="/home/vilon_tao/gaia/sdk/include/gaia/testing/PageInstrumentationTestCase.h">
<polygon fill="white" stroke="black" points="364,-0.5 364,-21.5 720,-21.5 720,-0.5 364,-0.5"/>
<text text-anchor="middle" x="542" y="-8.5" font-family="Helvetica,sans-Serif" font-size="10.00">/home/vilon_tao/gaia/sdk/include/gaia/testing/PageInstrumentationTestCase.h</text>
</a>
</g>
<!-- Node1&#45;&gt;Node5 -->
<g id="edge14" class="edge"><title>Node1&#45;&gt;Node5</title>
<path fill="none" stroke="midnightblue" d="M452.427,-169.146C413.128,-145.293 350.53,-98.6371 381,-58 393.053,-41.9254 438.896,-29.5236 478.597,-21.5059"/>
<polygon fill="midnightblue" stroke="midnightblue" points="450.98,-172.356 461.37,-174.428 454.54,-166.329 450.98,-172.356"/>
</g>
<!-- Node6 -->
<g id="node11" class="node"><title>Node6</title>
<a xlink:href="../../db/deb/_page_unit_test_case_8h.html" target="_top" xlink:title="/home/vilon_tao/gaia/sdk/include/gaia/testing/PageUnitTestCase.h">
<polygon fill="white" stroke="black" points="830.5,-0.5 830.5,-21.5 1137.5,-21.5 1137.5,-0.5 830.5,-0.5"/>
<text text-anchor="middle" x="984" y="-8.5" font-family="Helvetica,sans-Serif" font-size="10.00">/home/vilon_tao/gaia/sdk/include/gaia/testing/PageUnitTestCase.h</text>
</a>
</g>
<!-- Node1&#45;&gt;Node6 -->
<g id="edge16" class="edge"><title>Node1&#45;&gt;Node6</title>
<path fill="none" stroke="midnightblue" d="M624.069,-179.974C775.932,-171.142 1000.87,-146.833 1051,-80 1067.93,-57.4268 1033.31,-34.5866 1007.82,-21.6695"/>
<polygon fill="midnightblue" stroke="midnightblue" points="623.506,-176.5 613.719,-180.558 623.901,-183.489 623.506,-176.5"/>
</g>
<!-- Node7 -->
<g id="node13" class="node"><title>Node7</title>
<a xlink:href="../../d2/dc6/_single_launch_page_test_case_8h.html" target="_top" xlink:title="/home/vilon_tao/gaia/sdk/include/gaia/testing/SingleLaunchPageTestCase.h">
<polygon fill="white" stroke="black" points="389.5,-58.5 389.5,-79.5 736.5,-79.5 736.5,-58.5 389.5,-58.5"/>
<text text-anchor="middle" x="563" y="-66.5" font-family="Helvetica,sans-Serif" font-size="10.00">/home/vilon_tao/gaia/sdk/include/gaia/testing/SingleLaunchPageTestCase.h</text>
</a>
</g>
<!-- Node1&#45;&gt;Node7 -->
<g id="edge18" class="edge"><title>Node1&#45;&gt;Node7</title>
<path fill="none" stroke="midnightblue" d="M483.112,-164.263C485.409,-149.722 490.171,-130.39 500,-116 510.699,-100.337 528.353,-87.8271 542.255,-79.6635"/>
<polygon fill="midnightblue" stroke="midnightblue" points="479.628,-163.916 481.793,-174.287 486.568,-164.829 479.628,-163.916"/>
</g>
<!-- Node4 -->
<g id="node7" class="node"><title>Node4</title>
<a xlink:href="../../d5/db9/_page_test_case_8h.html" target="_top" xlink:title="/home/vilon_tao/gaia/sdk/include/gaia/testing/PageTestCase.h">
<polygon fill="white" stroke="black" points="753.5,-58.5 753.5,-79.5 1042.5,-79.5 1042.5,-58.5 753.5,-58.5"/>
<text text-anchor="middle" x="898" y="-66.5" font-family="Helvetica,sans-Serif" font-size="10.00">/home/vilon_tao/gaia/sdk/include/gaia/testing/PageTestCase.h</text>
</a>
</g>
<!-- Node3&#45;&gt;Node4 -->
<g id="edge6" class="edge"><title>Node3&#45;&gt;Node4</title>
<path fill="none" stroke="midnightblue" d="M725.97,-113.945C765.757,-103.55 820.722,-89.1897 857.722,-79.5231"/>
<polygon fill="midnightblue" stroke="midnightblue" points="724.993,-110.582 716.203,-116.497 726.763,-117.355 724.993,-110.582"/>
</g>
<!-- Node3&#45;&gt;Node7 -->
<g id="edge12" class="edge"><title>Node3&#45;&gt;Node7</title>
<path fill="none" stroke="midnightblue" d="M646.375,-111.794C626.659,-101.675 601.252,-88.6338 583.693,-79.6212"/>
<polygon fill="midnightblue" stroke="midnightblue" points="645.042,-115.044 655.537,-116.497 648.238,-108.816 645.042,-115.044"/>
</g>
<!-- Node4&#45;&gt;Node5 -->
<g id="edge8" class="edge"><title>Node4&#45;&gt;Node5</title>
<path fill="none" stroke="midnightblue" d="M823.479,-56.8589C759.32,-46.4061 667.683,-31.4764 606.59,-21.5231"/>
<polygon fill="midnightblue" stroke="midnightblue" points="823.098,-60.343 833.531,-58.4966 824.224,-53.4341 823.098,-60.343"/>
</g>
<!-- Node4&#45;&gt;Node6 -->
<g id="edge10" class="edge"><title>Node4&#45;&gt;Node6</title>
<path fill="none" stroke="midnightblue" d="M922.405,-52.5407C937.149,-42.5973 955.505,-30.2177 968.326,-21.5707"/>
<polygon fill="midnightblue" stroke="midnightblue" points="920.107,-49.8687 913.774,-58.3619 924.021,-55.6722 920.107,-49.8687"/>
</g>
</g>
</svg>
