<?xml version="1.0" encoding="UTF-8" standalone="no"?>
<!DOCTYPE svg PUBLIC "-//W3C//DTD SVG 1.1//EN"
 "http://www.w3.org/Graphics/SVG/1.1/DTD/svg11.dtd">
<!-- Generated by graphviz version 2.26.3 (20100126.1600)
 -->
<!-- Title: G Pages: 1 -->
<svg width="1058pt" height="88pt"
 viewBox="0.00 0.00 1058.00 88.00" xmlns="http://www.w3.org/2000/svg" xmlns:xlink="http://www.w3.org/1999/xlink">
<g id="graph1" class="graph" transform="scale(1 1) rotate(0) translate(4 84)">
<title>G</title>
<polygon fill="white" stroke="white" points="-4,5 -4,-84 1055,-84 1055,5 -4,5"/>
<!-- Node1 -->
<g id="node1" class="node"><title>Node1</title>
<polygon fill="#bfbfbf" stroke="black" points="386,-58.5 386,-79.5 664,-79.5 664,-58.5 386,-58.5"/>
<text text-anchor="middle" x="525" y="-66.5" font-family="Helvetica,sans-Serif" font-size="10.00">/home/vilon_tao/gaia/sdk/include/gaia/ui/CompoundButton.h</text>
</g>
<!-- Node2 -->
<g id="node3" class="node"><title>Node2</title>
<a xlink:href="../../d3/d23/_check_box_8h.html" target="_top" xlink:title="/home/vilon_tao/gaia/sdk/include/gaia/ui/CheckBox.h">
<polygon fill="white" stroke="black" points="0,-0.5 0,-21.5 248,-21.5 248,-0.5 0,-0.5"/>
<text text-anchor="middle" x="124" y="-8.5" font-family="Helvetica,sans-Serif" font-size="10.00">/home/vilon_tao/gaia/sdk/include/gaia/ui/CheckBox.h</text>
</a>
</g>
<!-- Node1&#45;&gt;Node2 -->
<g id="edge2" class="edge"><title>Node1&#45;&gt;Node2</title>
<path fill="none" stroke="midnightblue" d="M442.394,-57.052C370.066,-46.5906 265.994,-31.5378 196.754,-21.5231"/>
<polygon fill="midnightblue" stroke="midnightblue" points="441.984,-60.529 452.382,-58.4966 442.986,-53.6011 441.984,-60.529"/>
</g>
<!-- Node3 -->
<g id="node5" class="node"><title>Node3</title>
<a xlink:href="../../d0/d74/_radio_button_8h.html" target="_top" xlink:title="/home/vilon_tao/gaia/sdk/include/gaia/ui/RadioButton.h">
<polygon fill="white" stroke="black" points="266,-0.5 266,-21.5 522,-21.5 522,-0.5 266,-0.5"/>
<text text-anchor="middle" x="394" y="-8.5" font-family="Helvetica,sans-Serif" font-size="10.00">/home/vilon_tao/gaia/sdk/include/gaia/ui/RadioButton.h</text>
</a>
</g>
<!-- Node1&#45;&gt;Node3 -->
<g id="edge4" class="edge"><title>Node1&#45;&gt;Node3</title>
<path fill="none" stroke="midnightblue" d="M491.896,-54.3431C468.874,-44.1502 438.715,-30.7977 417.989,-21.6212"/>
<polygon fill="midnightblue" stroke="midnightblue" points="490.716,-57.6485 501.277,-58.4966 493.55,-51.2478 490.716,-57.6485"/>
</g>
<!-- Node4 -->
<g id="node7" class="node"><title>Node4</title>
<a xlink:href="../../d0/d26/_switch_8h.html" target="_top" xlink:title="/home/vilon_tao/gaia/sdk/include/gaia/ui/Switch.h">
<polygon fill="white" stroke="black" points="540,-0.5 540,-21.5 772,-21.5 772,-0.5 540,-0.5"/>
<text text-anchor="middle" x="656" y="-8.5" font-family="Helvetica,sans-Serif" font-size="10.00">/home/vilon_tao/gaia/sdk/include/gaia/ui/Switch.h</text>
</a>
</g>
<!-- Node1&#45;&gt;Node4 -->
<g id="edge6" class="edge"><title>Node1&#45;&gt;Node4</title>
<path fill="none" stroke="midnightblue" d="M558.104,-54.3431C581.126,-44.1502 611.285,-30.7977 632.011,-21.6212"/>
<polygon fill="midnightblue" stroke="midnightblue" points="556.45,-51.2478 548.723,-58.4966 559.284,-57.6485 556.45,-51.2478"/>
</g>
<!-- Node5 -->
<g id="node9" class="node"><title>Node5</title>
<a xlink:href="../../de/dd2/_toggle_button_8h.html" target="_top" xlink:title="/home/vilon_tao/gaia/sdk/include/gaia/ui/ToggleButton.h">
<polygon fill="white" stroke="black" points="790,-0.5 790,-21.5 1050,-21.5 1050,-0.5 790,-0.5"/>
<text text-anchor="middle" x="920" y="-8.5" font-family="Helvetica,sans-Serif" font-size="10.00">/home/vilon_tao/gaia/sdk/include/gaia/ui/ToggleButton.h</text>
</a>
</g>
<!-- Node1&#45;&gt;Node5 -->
<g id="edge8" class="edge"><title>Node1&#45;&gt;Node5</title>
<path fill="none" stroke="midnightblue" d="M606.808,-56.9877C678.035,-46.529 780.27,-31.5174 848.334,-21.5231"/>
<polygon fill="midnightblue" stroke="midnightblue" points="605.917,-53.5809 596.532,-58.4966 606.934,-60.5066 605.917,-53.5809"/>
</g>
</g>
</svg>
