<?xml version="1.0" encoding="UTF-8" standalone="no"?>
<!DOCTYPE svg PUBLIC "-//W3C//DTD SVG 1.1//EN"
 "http://www.w3.org/Graphics/SVG/1.1/DTD/svg11.dtd">
<!-- Generated by graphviz version 2.26.3 (20100126.1600)
 -->
<!-- Title: G Pages: 1 -->
<svg width="520pt" height="262pt"
 viewBox="0.00 0.00 520.35 262.00" xmlns="http://www.w3.org/2000/svg" xmlns:xlink="http://www.w3.org/1999/xlink">
<g id="graph1" class="graph" transform="scale(1 1) rotate(0) translate(4 258)">
<title>G</title>
<polygon fill="white" stroke="white" points="-4,5 -4,-258 517.35,-258 517.35,5 -4,5"/>
<!-- Node1 -->
<g id="node1" class="node"><title>Node1</title>
<polygon fill="#bfbfbf" stroke="black" points="0,-232.5 0,-253.5 236,-253.5 236,-232.5 0,-232.5"/>
<text text-anchor="middle" x="118" y="-240.5" font-family="Helvetica,sans-Serif" font-size="10.00">/home/vilon_tao/gaia/sdk/include/gaia/core/GL11.h</text>
</g>
<!-- Node2 -->
<g id="node3" class="node"><title>Node2</title>
<polygon fill="white" stroke="#bfbfbf" points="192.5,-0.5 192.5,-21.5 241.5,-21.5 241.5,-0.5 192.5,-0.5"/>
<text text-anchor="middle" x="217" y="-8.5" font-family="Helvetica,sans-Serif" font-size="10.00">stdint.h</text>
</g>
<!-- Node1&#45;&gt;Node2 -->
<g id="edge2" class="edge"><title>Node1&#45;&gt;Node2</title>
<path fill="none" stroke="midnightblue" d="M110.004,-232.234C88.4697,-201.828 33.538,-113.89 74,-58 86.8521,-40.2474 144.25,-25.5814 182.305,-17.5782"/>
<polygon fill="midnightblue" stroke="midnightblue" points="183.375,-20.9319 192.472,-15.5006 181.974,-14.0736 183.375,-20.9319"/>
</g>
<!-- Node3 -->
<g id="node5" class="node"><title>Node3</title>
<a xlink:href="../../d7/d7e/_g_l10_8h.html" target="_top" xlink:title="gaia/core/GL10.h">
<polygon fill="white" stroke="black" points="136.5,-174.5 136.5,-195.5 227.5,-195.5 227.5,-174.5 136.5,-174.5"/>
<text text-anchor="middle" x="182" y="-182.5" font-family="Helvetica,sans-Serif" font-size="10.00">gaia/core/GL10.h</text>
</a>
</g>
<!-- Node1&#45;&gt;Node3 -->
<g id="edge4" class="edge"><title>Node1&#45;&gt;Node3</title>
<path fill="none" stroke="midnightblue" d="M129.739,-232.362C138.941,-224.023 151.94,-212.242 162.672,-202.516"/>
<polygon fill="midnightblue" stroke="midnightblue" points="165.276,-204.879 170.336,-195.571 160.576,-199.692 165.276,-204.879"/>
</g>
<!-- Node3&#45;&gt;Node2 -->
<g id="edge6" class="edge"><title>Node3&#45;&gt;Node2</title>
<path fill="none" stroke="midnightblue" d="M184.137,-174.377C189.786,-146.293 205.198,-69.6735 212.735,-32.2027"/>
<polygon fill="midnightblue" stroke="midnightblue" points="216.261,-32.4216 214.802,-21.9277 209.399,-31.0411 216.261,-32.4216"/>
</g>
<!-- Node4 -->
<g id="node8" class="node"><title>Node4</title>
<a xlink:href="../../d9/dd7/_g_l_8h.html" target="_top" xlink:title="gaia/core/GL.h">
<polygon fill="white" stroke="black" points="102,-116.5 102,-137.5 182,-137.5 182,-116.5 102,-116.5"/>
<text text-anchor="middle" x="142" y="-124.5" font-family="Helvetica,sans-Serif" font-size="10.00">gaia/core/GL.h</text>
</a>
</g>
<!-- Node3&#45;&gt;Node4 -->
<g id="edge8" class="edge"><title>Node3&#45;&gt;Node4</title>
<path fill="none" stroke="midnightblue" d="M174.663,-174.362C169.194,-166.431 161.578,-155.389 155.076,-145.961"/>
<polygon fill="midnightblue" stroke="midnightblue" points="157.849,-143.816 149.29,-137.571 152.086,-147.79 157.849,-143.816"/>
</g>
<!-- Node6 -->
<g id="node12" class="node"><title>Node6</title>
<a xlink:href="../../d3/dc5/_array_8h.html" target="_top" xlink:title="gaia/base/Array.h">
<polygon fill="white" stroke="black" points="328.5,-116.5 328.5,-137.5 421.5,-137.5 421.5,-116.5 328.5,-116.5"/>
<text text-anchor="middle" x="375" y="-124.5" font-family="Helvetica,sans-Serif" font-size="10.00">gaia/base/Array.h</text>
</a>
</g>
<!-- Node3&#45;&gt;Node6 -->
<g id="edge12" class="edge"><title>Node3&#45;&gt;Node6</title>
<path fill="none" stroke="midnightblue" d="M216.951,-174.497C248.687,-164.959 295.668,-150.841 330.161,-140.475"/>
<polygon fill="midnightblue" stroke="midnightblue" points="331.414,-143.753 339.984,-137.523 329.399,-137.049 331.414,-143.753"/>
</g>
<!-- Node5 -->
<g id="node10" class="node"><title>Node5</title>
<a xlink:href="../../d1/dd0/gmacros_8h.html" target="_top" xlink:title="gaia/base/gmacros.h">
<polygon fill="white" stroke="black" points="82.5,-58.5 82.5,-79.5 189.5,-79.5 189.5,-58.5 82.5,-58.5"/>
<text text-anchor="middle" x="136" y="-66.5" font-family="Helvetica,sans-Serif" font-size="10.00">gaia/base/gmacros.h</text>
</a>
</g>
<!-- Node4&#45;&gt;Node5 -->
<g id="edge10" class="edge"><title>Node4&#45;&gt;Node5</title>
<path fill="none" stroke="midnightblue" d="M140.9,-116.362C140.13,-108.922 139.077,-98.7427 138.144,-89.7276"/>
<polygon fill="midnightblue" stroke="midnightblue" points="141.604,-89.1574 137.094,-79.5707 134.641,-89.8777 141.604,-89.1574"/>
</g>
<!-- Node7 -->
<g id="node14" class="node"><title>Node7</title>
<a xlink:href="../../d8/dae/_array_impl_8h.html" target="_top" xlink:title="gaia/base/ArrayImpl.h">
<polygon fill="white" stroke="black" points="387,-58.5 387,-79.5 499,-79.5 499,-58.5 387,-58.5"/>
<text text-anchor="middle" x="443" y="-66.5" font-family="Helvetica,sans-Serif" font-size="10.00">gaia/base/ArrayImpl.h</text>
</a>
</g>
<!-- Node6&#45;&gt;Node7 -->
<g id="edge14" class="edge"><title>Node6&#45;&gt;Node7</title>
<path fill="none" stroke="midnightblue" d="M387.472,-116.362C397.345,-107.941 411.333,-96.0105 422.798,-86.2308"/>
<polygon fill="midnightblue" stroke="midnightblue" points="425.27,-88.7231 430.607,-79.5707 420.727,-83.3972 425.27,-88.7231"/>
</g>
<!-- Node8 -->
<g id="node16" class="node"><title>Node8</title>
<polygon fill="white" stroke="#bfbfbf" points="409,-0.5 409,-21.5 477,-21.5 477,-0.5 409,-0.5"/>
<text text-anchor="middle" x="443" y="-8.5" font-family="Helvetica,sans-Serif" font-size="10.00">sys/types.h</text>
</g>
<!-- Node6&#45;&gt;Node8 -->
<g id="edge28" class="edge"><title>Node6&#45;&gt;Node8</title>
<path fill="none" stroke="midnightblue" d="M421.847,-116.509C455.87,-107.831 497.677,-94.5961 508,-80 522.178,-59.9531 497.753,-39.8369 474.905,-26.541"/>
<polygon fill="midnightblue" stroke="midnightblue" points="476.43,-23.3855 465.983,-21.6228 473.051,-29.5157 476.43,-23.3855"/>
</g>
<!-- Node9 -->
<g id="node18" class="node"><title>Node9</title>
<a xlink:href="../../d1/d86/_type_helpers_8h.html" target="_top" xlink:title="gaia/base/TypeHelpers.h">
<polygon fill="white" stroke="black" points="244.5,-58.5 244.5,-79.5 369.5,-79.5 369.5,-58.5 244.5,-58.5"/>
<text text-anchor="middle" x="307" y="-66.5" font-family="Helvetica,sans-Serif" font-size="10.00">gaia/base/TypeHelpers.h</text>
</a>
</g>
<!-- Node6&#45;&gt;Node9 -->
<g id="edge18" class="edge"><title>Node6&#45;&gt;Node9</title>
<path fill="none" stroke="midnightblue" d="M362.528,-116.362C352.655,-107.941 338.667,-96.0105 327.202,-86.2308"/>
<polygon fill="midnightblue" stroke="midnightblue" points="329.273,-83.3972 319.393,-79.5707 324.73,-88.7231 329.273,-83.3972"/>
</g>
<!-- Node7&#45;&gt;Node8 -->
<g id="edge16" class="edge"><title>Node7&#45;&gt;Node8</title>
<path fill="none" stroke="midnightblue" d="M443,-58.3619C443,-50.9219 443,-40.7427 443,-31.7276"/>
<polygon fill="midnightblue" stroke="midnightblue" points="446.5,-31.5706 443,-21.5707 439.5,-31.5707 446.5,-31.5706"/>
</g>
<!-- Node9&#45;&gt;Node2 -->
<g id="edge20" class="edge"><title>Node9&#45;&gt;Node2</title>
<path fill="none" stroke="midnightblue" d="M290.493,-58.3619C276.918,-49.6138 257.467,-37.0786 241.985,-27.1015"/>
<polygon fill="midnightblue" stroke="midnightblue" points="243.704,-24.0457 233.403,-21.5707 239.912,-29.9297 243.704,-24.0457"/>
</g>
<!-- Node9&#45;&gt;Node8 -->
<g id="edge24" class="edge"><title>Node9&#45;&gt;Node8</title>
<path fill="none" stroke="midnightblue" d="M331.629,-58.4966C353.157,-49.3154 384.64,-35.8889 408.645,-25.6516"/>
<polygon fill="midnightblue" stroke="midnightblue" points="410.27,-28.7636 418.095,-21.6212 407.524,-22.3247 410.27,-28.7636"/>
</g>
<!-- Node10 -->
<g id="node21" class="node"><title>Node10</title>
<polygon fill="white" stroke="#bfbfbf" points="270.5,-0.5 270.5,-21.5 319.5,-21.5 319.5,-0.5 270.5,-0.5"/>
<text text-anchor="middle" x="295" y="-8.5" font-family="Helvetica,sans-Serif" font-size="10.00">string.h</text>
</g>
<!-- Node9&#45;&gt;Node10 -->
<g id="edge22" class="edge"><title>Node9&#45;&gt;Node10</title>
<path fill="none" stroke="midnightblue" d="M304.799,-58.3619C303.243,-50.8401 301.107,-40.5187 299.227,-31.4308"/>
<polygon fill="midnightblue" stroke="midnightblue" points="302.641,-30.6541 297.187,-21.5707 295.786,-32.0724 302.641,-30.6541"/>
</g>
<!-- Node11 -->
<g id="node24" class="node"><title>Node11</title>
<polygon fill="white" stroke="#bfbfbf" points="336.5,-0.5 336.5,-21.5 371.5,-21.5 371.5,-0.5 336.5,-0.5"/>
<text text-anchor="middle" x="354" y="-8.5" font-family="Helvetica,sans-Serif" font-size="10.00">new</text>
</g>
<!-- Node9&#45;&gt;Node11 -->
<g id="edge26" class="edge"><title>Node9&#45;&gt;Node11</title>
<path fill="none" stroke="midnightblue" d="M315.621,-58.3619C322.18,-50.2678 331.366,-38.9318 339.106,-29.3796"/>
<polygon fill="midnightblue" stroke="midnightblue" points="341.858,-31.5436 345.434,-21.5707 336.419,-27.1364 341.858,-31.5436"/>
</g>
</g>
</svg>
