<?xml version="1.0" encoding="UTF-8" standalone="no"?>
<!DOCTYPE svg PUBLIC "-//W3C//DTD SVG 1.1//EN"
 "http://www.w3.org/Graphics/SVG/1.1/DTD/svg11.dtd">
<!-- Generated by graphviz version 2.26.3 (20100126.1600)
 -->
<!-- Title: G Pages: 1 -->
<svg width="969pt" height="436pt"
 viewBox="0.00 0.00 968.85 436.00" xmlns="http://www.w3.org/2000/svg" xmlns:xlink="http://www.w3.org/1999/xlink">
<g id="graph1" class="graph" transform="scale(1 1) rotate(0) translate(4 432)">
<title>G</title>
<polygon fill="white" stroke="white" points="-4,5 -4,-432 965.851,-432 965.851,5 -4,5"/>
<!-- Node1 -->
<g id="node1" class="node"><title>Node1</title>
<polygon fill="#bfbfbf" stroke="black" points="-0.5,-406.5 -0.5,-427.5 322.5,-427.5 322.5,-406.5 -0.5,-406.5"/>
<text text-anchor="middle" x="161" y="-414.5" font-family="Helvetica,sans-Serif" font-size="10.00">/home/vilon_tao/gaia/sdk/include/gaia/text/method/DigitsKeyListener.h</text>
</g>
<!-- Node2 -->
<g id="node3" class="node"><title>Node2</title>
<a xlink:href="../../d9/dc2/_number_key_listener_8h.html" target="_top" xlink:title="gaia/text/method/NumberKeyListener.h">
<polygon fill="white" stroke="black" points="169.5,-348.5 169.5,-369.5 356.5,-369.5 356.5,-348.5 169.5,-348.5"/>
<text text-anchor="middle" x="263" y="-356.5" font-family="Helvetica,sans-Serif" font-size="10.00">gaia/text/method/NumberKeyListener.h</text>
</a>
</g>
<!-- Node1&#45;&gt;Node2 -->
<g id="edge2" class="edge"><title>Node1&#45;&gt;Node2</title>
<path fill="none" stroke="midnightblue" d="M179.708,-406.362C195.381,-397.45 217.964,-384.609 235.663,-374.545"/>
<polygon fill="midnightblue" stroke="midnightblue" points="237.447,-377.556 244.41,-369.571 233.987,-371.471 237.447,-377.556"/>
</g>
<!-- Node13 -->
<g id="node28" class="node"><title>Node13</title>
<a xlink:href="../../d1/dd0/gmacros_8h.html" target="_top" xlink:title="gaia/base/gmacros.h">
<polygon fill="white" stroke="black" points="113.5,-58.5 113.5,-79.5 220.5,-79.5 220.5,-58.5 113.5,-58.5"/>
<text text-anchor="middle" x="167" y="-66.5" font-family="Helvetica,sans-Serif" font-size="10.00">gaia/base/gmacros.h</text>
</a>
</g>
<!-- Node1&#45;&gt;Node13 -->
<g id="edge72" class="edge"><title>Node1&#45;&gt;Node13</title>
<path fill="none" stroke="midnightblue" d="M141.526,-406.294C112.177,-388.563 60,-350.133 60,-301 60,-301 60,-301 60,-185 60,-139.241 105.542,-103.816 137.202,-84.7173"/>
<polygon fill="midnightblue" stroke="midnightblue" points="139.223,-87.5912 146.115,-79.5444 135.71,-81.537 139.223,-87.5912"/>
</g>
<!-- Node3 -->
<g id="node5" class="node"><title>Node3</title>
<a xlink:href="../../d3/dc5/_array_8h.html" target="_top" xlink:title="gaia/base/Array.h">
<polygon fill="white" stroke="black" points="520.5,-116.5 520.5,-137.5 613.5,-137.5 613.5,-116.5 520.5,-116.5"/>
<text text-anchor="middle" x="567" y="-124.5" font-family="Helvetica,sans-Serif" font-size="10.00">gaia/base/Array.h</text>
</a>
</g>
<!-- Node2&#45;&gt;Node3 -->
<g id="edge4" class="edge"><title>Node2&#45;&gt;Node3</title>
<path fill="none" stroke="midnightblue" d="M347.237,-348.445C409.179,-336.211 490.675,-309.98 539,-254 564.934,-223.957 568.455,-175.294 568.115,-147.746"/>
<polygon fill="midnightblue" stroke="midnightblue" points="571.61,-147.553 567.803,-137.666 564.614,-147.769 571.61,-147.553"/>
</g>
<!-- Node10 -->
<g id="node21" class="node"><title>Node10</title>
<a xlink:href="../../d6/dc5/_editable_8h.html" target="_top" xlink:title="gaia/text/Editable.h">
<polygon fill="white" stroke="black" points="173.5,-290.5 173.5,-311.5 274.5,-311.5 274.5,-290.5 173.5,-290.5"/>
<text text-anchor="middle" x="224" y="-298.5" font-family="Helvetica,sans-Serif" font-size="10.00">gaia/text/Editable.h</text>
</a>
</g>
<!-- Node2&#45;&gt;Node10 -->
<g id="edge22" class="edge"><title>Node2&#45;&gt;Node10</title>
<path fill="none" stroke="midnightblue" d="M255.847,-348.362C250.514,-340.431 243.089,-329.389 236.749,-319.961"/>
<polygon fill="midnightblue" stroke="midnightblue" points="239.592,-317.916 231.108,-311.571 233.783,-321.822 239.592,-317.916"/>
</g>
<!-- Node11 -->
<g id="node23" class="node"><title>Node11</title>
<a xlink:href="../../dc/dd4/_input_filter_8h.html" target="_top" xlink:title="gaia/text/InputFilter.h">
<polygon fill="white" stroke="black" points="87.5,-174.5 87.5,-195.5 196.5,-195.5 196.5,-174.5 87.5,-174.5"/>
<text text-anchor="middle" x="142" y="-182.5" font-family="Helvetica,sans-Serif" font-size="10.00">gaia/text/InputFilter.h</text>
</a>
</g>
<!-- Node2&#45;&gt;Node11 -->
<g id="edge48" class="edge"><title>Node2&#45;&gt;Node11</title>
<path fill="none" stroke="midnightblue" d="M220.537,-348.368C200.747,-341.268 178.614,-329.857 165,-312 141.345,-280.972 139.228,-233.398 140.294,-206.141"/>
<polygon fill="midnightblue" stroke="midnightblue" points="143.808,-205.996 140.892,-195.811 136.82,-205.592 143.808,-205.996"/>
</g>
<!-- Node14 -->
<g id="node30" class="node"><title>Node14</title>
<a xlink:href="../../d7/d1c/_spannable_8h.html" target="_top" xlink:title="gaia/text/Spannable.h">
<polygon fill="white" stroke="black" points="246.5,-232.5 246.5,-253.5 357.5,-253.5 357.5,-232.5 246.5,-232.5"/>
<text text-anchor="middle" x="302" y="-240.5" font-family="Helvetica,sans-Serif" font-size="10.00">gaia/text/Spannable.h</text>
</a>
</g>
<!-- Node2&#45;&gt;Node14 -->
<g id="edge70" class="edge"><title>Node2&#45;&gt;Node14</title>
<path fill="none" stroke="midnightblue" d="M268.023,-348.334C272.343,-338.91 278.562,-324.727 283,-312 288.552,-296.077 293.558,-277.644 297.035,-263.838"/>
<polygon fill="midnightblue" stroke="midnightblue" points="300.491,-264.44 299.478,-253.894 293.694,-262.77 300.491,-264.44"/>
</g>
<!-- Node17 -->
<g id="node42" class="node"><title>Node17</title>
<a xlink:href="../../d5/d49/_key_listener_8h.html" target="_top" xlink:title="gaia/text/method/KeyListener.h">
<polygon fill="white" stroke="black" points="378,-232.5 378,-253.5 530,-253.5 530,-232.5 378,-232.5"/>
<text text-anchor="middle" x="454" y="-240.5" font-family="Helvetica,sans-Serif" font-size="10.00">gaia/text/method/KeyListener.h</text>
</a>
</g>
<!-- Node2&#45;&gt;Node17 -->
<g id="edge50" class="edge"><title>Node2&#45;&gt;Node17</title>
<path fill="none" stroke="midnightblue" d="M280.626,-348.295C314.398,-327.785 388.369,-282.859 427.89,-258.857"/>
<polygon fill="midnightblue" stroke="midnightblue" points="429.962,-261.694 436.692,-253.512 426.328,-255.711 429.962,-261.694"/>
</g>
<!-- Node4 -->
<g id="node7" class="node"><title>Node4</title>
<a xlink:href="../../d8/dae/_array_impl_8h.html" target="_top" xlink:title="gaia/base/ArrayImpl.h">
<polygon fill="white" stroke="black" points="647,-58.5 647,-79.5 759,-79.5 759,-58.5 647,-58.5"/>
<text text-anchor="middle" x="703" y="-66.5" font-family="Helvetica,sans-Serif" font-size="10.00">gaia/base/ArrayImpl.h</text>
</a>
</g>
<!-- Node3&#45;&gt;Node4 -->
<g id="edge6" class="edge"><title>Node3&#45;&gt;Node4</title>
<path fill="none" stroke="midnightblue" d="M591.629,-116.497C613.157,-107.315 644.64,-93.8889 668.645,-83.6516"/>
<polygon fill="midnightblue" stroke="midnightblue" points="670.27,-86.7636 678.095,-79.6212 667.524,-80.3247 670.27,-86.7636"/>
</g>
<!-- Node5 -->
<g id="node9" class="node"><title>Node5</title>
<polygon fill="white" stroke="#bfbfbf" points="795,-0.5 795,-21.5 863,-21.5 863,-0.5 795,-0.5"/>
<text text-anchor="middle" x="829" y="-8.5" font-family="Helvetica,sans-Serif" font-size="10.00">sys/types.h</text>
</g>
<!-- Node3&#45;&gt;Node5 -->
<g id="edge20" class="edge"><title>Node3&#45;&gt;Node5</title>
<path fill="none" stroke="midnightblue" d="M613.674,-119.47C664.6,-110.668 742.308,-95.3409 768,-80 788.657,-67.666 806.104,-45.9935 816.979,-30.2213"/>
<polygon fill="midnightblue" stroke="midnightblue" points="819.997,-32.0028 822.597,-21.7319 814.16,-28.1398 819.997,-32.0028"/>
</g>
<!-- Node6 -->
<g id="node11" class="node"><title>Node6</title>
<a xlink:href="../../d1/d86/_type_helpers_8h.html" target="_top" xlink:title="gaia/base/TypeHelpers.h">
<polygon fill="white" stroke="black" points="504.5,-58.5 504.5,-79.5 629.5,-79.5 629.5,-58.5 504.5,-58.5"/>
<text text-anchor="middle" x="567" y="-66.5" font-family="Helvetica,sans-Serif" font-size="10.00">gaia/base/TypeHelpers.h</text>
</a>
</g>
<!-- Node3&#45;&gt;Node6 -->
<g id="edge10" class="edge"><title>Node3&#45;&gt;Node6</title>
<path fill="none" stroke="midnightblue" d="M567,-116.362C567,-108.922 567,-98.7427 567,-89.7276"/>
<polygon fill="midnightblue" stroke="midnightblue" points="570.5,-89.5706 567,-79.5707 563.5,-89.5707 570.5,-89.5706"/>
</g>
<!-- Node4&#45;&gt;Node5 -->
<g id="edge8" class="edge"><title>Node4&#45;&gt;Node5</title>
<path fill="none" stroke="midnightblue" d="M725.818,-58.4966C745.586,-49.397 774.413,-36.1273 796.576,-25.9253"/>
<polygon fill="midnightblue" stroke="midnightblue" points="798.306,-28.982 805.926,-21.6212 795.379,-22.6234 798.306,-28.982"/>
</g>
<!-- Node6&#45;&gt;Node5 -->
<g id="edge16" class="edge"><title>Node6&#45;&gt;Node5</title>
<path fill="none" stroke="midnightblue" d="M614.446,-58.4966C662.942,-47.7609 737.658,-31.2207 784.903,-20.762"/>
<polygon fill="midnightblue" stroke="midnightblue" points="785.83,-24.1415 794.837,-18.5627 784.317,-17.3069 785.83,-24.1415"/>
</g>
<!-- Node7 -->
<g id="node13" class="node"><title>Node7</title>
<polygon fill="white" stroke="#bfbfbf" points="401.5,-0.5 401.5,-21.5 450.5,-21.5 450.5,-0.5 401.5,-0.5"/>
<text text-anchor="middle" x="426" y="-8.5" font-family="Helvetica,sans-Serif" font-size="10.00">stdint.h</text>
</g>
<!-- Node6&#45;&gt;Node7 -->
<g id="edge12" class="edge"><title>Node6&#45;&gt;Node7</title>
<path fill="none" stroke="midnightblue" d="M541.466,-58.4966C518.767,-49.1593 485.393,-35.4312 460.356,-25.1323"/>
<polygon fill="midnightblue" stroke="midnightblue" points="461.45,-21.7979 450.871,-21.2305 458.787,-28.2716 461.45,-21.7979"/>
</g>
<!-- Node8 -->
<g id="node15" class="node"><title>Node8</title>
<polygon fill="white" stroke="#bfbfbf" points="512.5,-0.5 512.5,-21.5 561.5,-21.5 561.5,-0.5 512.5,-0.5"/>
<text text-anchor="middle" x="537" y="-8.5" font-family="Helvetica,sans-Serif" font-size="10.00">string.h</text>
</g>
<!-- Node6&#45;&gt;Node8 -->
<g id="edge14" class="edge"><title>Node6&#45;&gt;Node8</title>
<path fill="none" stroke="midnightblue" d="M561.498,-58.3619C557.48,-50.5949 551.919,-39.8426 547.11,-30.5458"/>
<polygon fill="midnightblue" stroke="midnightblue" points="550.171,-28.8448 542.468,-21.5707 543.953,-32.0608 550.171,-28.8448"/>
</g>
<!-- Node9 -->
<g id="node18" class="node"><title>Node9</title>
<polygon fill="white" stroke="#bfbfbf" points="578.5,-0.5 578.5,-21.5 613.5,-21.5 613.5,-0.5 578.5,-0.5"/>
<text text-anchor="middle" x="596" y="-8.5" font-family="Helvetica,sans-Serif" font-size="10.00">new</text>
</g>
<!-- Node6&#45;&gt;Node9 -->
<g id="edge18" class="edge"><title>Node6&#45;&gt;Node9</title>
<path fill="none" stroke="midnightblue" d="M572.319,-58.3619C576.203,-50.5949 581.579,-39.8426 586.227,-30.5458"/>
<polygon fill="midnightblue" stroke="midnightblue" points="589.373,-32.0802 590.715,-21.5707 583.112,-28.9497 589.373,-32.0802"/>
</g>
<!-- Node10&#45;&gt;Node11 -->
<g id="edge24" class="edge"><title>Node10&#45;&gt;Node11</title>
<path fill="none" stroke="midnightblue" d="M216.433,-290.295C202.52,-270.613 172.715,-228.45 155.337,-203.867"/>
<polygon fill="midnightblue" stroke="midnightblue" points="158.18,-201.825 149.549,-195.679 152.463,-205.865 158.18,-201.825"/>
</g>
<!-- Node10&#45;&gt;Node14 -->
<g id="edge32" class="edge"><title>Node10&#45;&gt;Node14</title>
<path fill="none" stroke="midnightblue" d="M238.306,-290.362C249.851,-281.777 266.3,-269.546 279.59,-259.664"/>
<polygon fill="midnightblue" stroke="midnightblue" points="281.848,-262.346 287.784,-253.571 277.671,-256.729 281.848,-262.346"/>
</g>
<!-- Node12 -->
<g id="node25" class="node"><title>Node12</title>
<a xlink:href="../../d7/d97/_char_sequence_8h.html" target="_top" xlink:title="gaia/base/CharSequence.h">
<polygon fill="white" stroke="black" points="315,-58.5 315,-79.5 449,-79.5 449,-58.5 315,-58.5"/>
<text text-anchor="middle" x="382" y="-66.5" font-family="Helvetica,sans-Serif" font-size="10.00">gaia/base/CharSequence.h</text>
</a>
</g>
<!-- Node11&#45;&gt;Node12 -->
<g id="edge26" class="edge"><title>Node11&#45;&gt;Node12</title>
<path fill="none" stroke="midnightblue" d="M196.774,-177.972C263.913,-168.8 370.279,-152.239 382,-138 392.905,-124.753 391.607,-104.729 388.348,-89.6586"/>
<polygon fill="midnightblue" stroke="midnightblue" points="391.671,-88.5306 385.774,-79.7284 384.895,-90.2867 391.671,-88.5306"/>
</g>
<!-- Node11&#45;&gt;Node13 -->
<g id="edge30" class="edge"><title>Node11&#45;&gt;Node13</title>
<path fill="none" stroke="midnightblue" d="M143.28,-174.159C144.996,-160.498 148.37,-136.344 153,-116 154.997,-107.226 157.731,-97.6861 160.254,-89.5079"/>
<polygon fill="midnightblue" stroke="midnightblue" points="163.671,-90.3109 163.368,-79.7204 157,-88.1885 163.671,-90.3109"/>
</g>
<!-- Node12&#45;&gt;Node7 -->
<g id="edge28" class="edge"><title>Node12&#45;&gt;Node7</title>
<path fill="none" stroke="midnightblue" d="M390.07,-58.3619C396.149,-50.3496 404.637,-39.1605 411.837,-29.6696"/>
<polygon fill="midnightblue" stroke="midnightblue" points="414.725,-31.653 417.981,-21.5707 409.149,-27.4222 414.725,-31.653"/>
</g>
<!-- Node15 -->
<g id="node32" class="node"><title>Node15</title>
<a xlink:href="../../d7/dc2/_spanned_8h.html" target="_top" xlink:title="gaia/text/Spanned.h">
<polygon fill="white" stroke="black" points="252,-174.5 252,-195.5 356,-195.5 356,-174.5 252,-174.5"/>
<text text-anchor="middle" x="304" y="-182.5" font-family="Helvetica,sans-Serif" font-size="10.00">gaia/text/Spanned.h</text>
</a>
</g>
<!-- Node14&#45;&gt;Node15 -->
<g id="edge34" class="edge"><title>Node14&#45;&gt;Node15</title>
<path fill="none" stroke="midnightblue" d="M302.367,-232.362C302.623,-224.922 302.974,-214.743 303.285,-205.728"/>
<polygon fill="midnightblue" stroke="midnightblue" points="306.789,-205.685 303.635,-195.571 299.793,-205.444 306.789,-205.685"/>
</g>
<!-- Node15&#45;&gt;Node3 -->
<g id="edge36" class="edge"><title>Node15&#45;&gt;Node3</title>
<path fill="none" stroke="midnightblue" d="M351.627,-174.497C396.265,-164.653 463.031,-149.929 510.376,-139.487"/>
<polygon fill="midnightblue" stroke="midnightblue" points="511.158,-142.899 520.169,-137.328 509.65,-136.063 511.158,-142.899"/>
</g>
<!-- Node15&#45;&gt;Node12 -->
<g id="edge38" class="edge"><title>Node15&#45;&gt;Node12</title>
<path fill="none" stroke="midnightblue" d="M356.118,-176.104C378.165,-169.484 401.766,-157.975 415,-138 425.767,-121.748 413.331,-101.444 400.765,-87.0797"/>
<polygon fill="midnightblue" stroke="midnightblue" points="403.309,-84.6762 393.916,-79.7744 398.202,-89.4637 403.309,-84.6762"/>
</g>
<!-- Node15&#45;&gt;Node13 -->
<g id="edge40" class="edge"><title>Node15&#45;&gt;Node13</title>
<path fill="none" stroke="midnightblue" d="M281.247,-174.345C264.44,-165.855 241.532,-152.941 224,-138 206.763,-123.311 190.677,-102.982 180.019,-88.1966"/>
<polygon fill="midnightblue" stroke="midnightblue" points="182.736,-85.9756 174.122,-79.8069 177.009,-90.0008 182.736,-85.9756"/>
</g>
<!-- Node16 -->
<g id="node37" class="node"><title>Node16</title>
<a xlink:href="../../d1/d81/_object_style_8h.html" target="_top" xlink:title="gaia/text/style/ObjectStyle.h">
<polygon fill="white" stroke="black" points="233,-116.5 233,-137.5 373,-137.5 373,-116.5 233,-116.5"/>
<text text-anchor="middle" x="303" y="-124.5" font-family="Helvetica,sans-Serif" font-size="10.00">gaia/text/style/ObjectStyle.h</text>
</a>
</g>
<!-- Node15&#45;&gt;Node16 -->
<g id="edge42" class="edge"><title>Node15&#45;&gt;Node16</title>
<path fill="none" stroke="midnightblue" d="M303.817,-174.362C303.688,-166.922 303.513,-156.743 303.357,-147.728"/>
<polygon fill="midnightblue" stroke="midnightblue" points="306.854,-147.509 303.182,-137.571 299.855,-147.63 306.854,-147.509"/>
</g>
<!-- Node16&#45;&gt;Node7 -->
<g id="edge44" class="edge"><title>Node16&#45;&gt;Node7</title>
<path fill="none" stroke="midnightblue" d="M300.101,-116.027C296.913,-101.344 293.73,-75.1697 306,-58 325.494,-30.7206 363.285,-19.2734 391.272,-14.4704"/>
<polygon fill="midnightblue" stroke="midnightblue" points="392.093,-17.8864 401.46,-12.9358 391.05,-10.9645 392.093,-17.8864"/>
</g>
<!-- Node16&#45;&gt;Node13 -->
<g id="edge46" class="edge"><title>Node16&#45;&gt;Node13</title>
<path fill="none" stroke="midnightblue" d="M278.371,-116.497C256.843,-107.315 225.36,-93.8889 201.355,-83.6516"/>
<polygon fill="midnightblue" stroke="midnightblue" points="202.476,-80.3247 191.905,-79.6212 199.73,-86.7636 202.476,-80.3247"/>
</g>
<!-- Node17&#45;&gt;Node7 -->
<g id="edge54" class="edge"><title>Node17&#45;&gt;Node7</title>
<path fill="none" stroke="midnightblue" d="M456.536,-232.246C462.88,-203.286 477.581,-121.552 458,-58 454.841,-47.7466 448.596,-37.7278 442.455,-29.5925"/>
<polygon fill="midnightblue" stroke="midnightblue" points="444.991,-27.1612 435.984,-21.5822 439.546,-31.5603 444.991,-27.1612"/>
</g>
<!-- Node17&#45;&gt;Node13 -->
<g id="edge52" class="edge"><title>Node17&#45;&gt;Node13</title>
<path fill="none" stroke="midnightblue" d="M382.578,-232.486C330.774,-223.866 265.94,-210.719 243,-196 204.264,-171.145 182.528,-118.898 172.966,-89.7585"/>
<polygon fill="midnightblue" stroke="midnightblue" points="176.191,-88.3421 169.887,-79.8269 169.505,-90.4149 176.191,-88.3421"/>
</g>
<!-- Node18 -->
<g id="node46" class="node"><title>Node18</title>
<a xlink:href="../../dd/d79/_key_event_8h.html" target="_top" xlink:title="gaia/core/event/KeyEvent.h">
<polygon fill="white" stroke="black" points="803.5,-174.5 803.5,-195.5 940.5,-195.5 940.5,-174.5 803.5,-174.5"/>
<text text-anchor="middle" x="872" y="-182.5" font-family="Helvetica,sans-Serif" font-size="10.00">gaia/core/event/KeyEvent.h</text>
</a>
</g>
<!-- Node17&#45;&gt;Node18 -->
<g id="edge56" class="edge"><title>Node17&#45;&gt;Node18</title>
<path fill="none" stroke="midnightblue" d="M529.697,-232.497C604.336,-222.14 717.905,-206.382 793.501,-195.892"/>
<polygon fill="midnightblue" stroke="midnightblue" points="794.023,-199.353 803.447,-194.512 793.06,-192.42 794.023,-199.353"/>
</g>
<!-- Node18&#45;&gt;Node5 -->
<g id="edge68" class="edge"><title>Node18&#45;&gt;Node5</title>
<path fill="none" stroke="midnightblue" d="M888.062,-174.292C919.17,-152.217 982.121,-100.181 953,-58 943.499,-44.2381 904.848,-30.9596 873.191,-22.0477"/>
<polygon fill="midnightblue" stroke="midnightblue" points="873.774,-18.5785 863.205,-19.3127 871.925,-25.3299 873.774,-18.5785"/>
</g>
<!-- Node19 -->
<g id="node48" class="node"><title>Node19</title>
<a xlink:href="../../db/db5/_string_8h.html" target="_top" xlink:title="gaia/base/String.h">
<polygon fill="white" stroke="black" points="824.5,-116.5 824.5,-137.5 919.5,-137.5 919.5,-116.5 824.5,-116.5"/>
<text text-anchor="middle" x="872" y="-124.5" font-family="Helvetica,sans-Serif" font-size="10.00">gaia/base/String.h</text>
</a>
</g>
<!-- Node18&#45;&gt;Node19 -->
<g id="edge58" class="edge"><title>Node18&#45;&gt;Node19</title>
<path fill="none" stroke="midnightblue" d="M872,-174.362C872,-166.922 872,-156.743 872,-147.728"/>
<polygon fill="midnightblue" stroke="midnightblue" points="875.5,-147.571 872,-137.571 868.5,-147.571 875.5,-147.571"/>
</g>
<!-- Node19&#45;&gt;Node5 -->
<g id="edge66" class="edge"><title>Node19&#45;&gt;Node5</title>
<path fill="none" stroke="midnightblue" d="M895.46,-116.393C920.098,-103.712 953.305,-81.2666 938,-58 923.581,-36.0808 896.546,-24.339 873.009,-18.0729"/>
<polygon fill="midnightblue" stroke="midnightblue" points="873.724,-14.6451 863.182,-15.7089 872.086,-21.4509 873.724,-14.6451"/>
</g>
<!-- Node19&#45;&gt;Node12 -->
<g id="edge60" class="edge"><title>Node19&#45;&gt;Node12</title>
<path fill="none" stroke="midnightblue" d="M824.125,-121.333C739.177,-111.278 561.414,-90.2367 459.053,-78.1205"/>
<polygon fill="midnightblue" stroke="midnightblue" points="459.426,-74.6404 449.084,-76.9406 458.603,-81.5918 459.426,-74.6404"/>
</g>
<!-- Node20 -->
<g id="node51" class="node"><title>Node20</title>
<a xlink:href="../../d6/d83/_hash_func_8h.html" target="_top" xlink:title="gaia/base/HashFunc.h">
<polygon fill="white" stroke="black" points="814.5,-58.5 814.5,-79.5 929.5,-79.5 929.5,-58.5 814.5,-58.5"/>
<text text-anchor="middle" x="872" y="-66.5" font-family="Helvetica,sans-Serif" font-size="10.00">gaia/base/HashFunc.h</text>
</a>
</g>
<!-- Node19&#45;&gt;Node20 -->
<g id="edge62" class="edge"><title>Node19&#45;&gt;Node20</title>
<path fill="none" stroke="midnightblue" d="M872,-116.362C872,-108.922 872,-98.7427 872,-89.7276"/>
<polygon fill="midnightblue" stroke="midnightblue" points="875.5,-89.5706 872,-79.5707 868.5,-89.5707 875.5,-89.5706"/>
</g>
<!-- Node20&#45;&gt;Node5 -->
<g id="edge64" class="edge"><title>Node20&#45;&gt;Node5</title>
<path fill="none" stroke="midnightblue" d="M864.113,-58.3619C858.173,-50.3496 849.878,-39.1605 842.841,-29.6696"/>
<polygon fill="midnightblue" stroke="midnightblue" points="845.604,-27.5193 836.837,-21.5707 839.981,-31.6883 845.604,-27.5193"/>
</g>
</g>
</svg>
