<?xml version="1.0" encoding="UTF-8" standalone="no"?>
<!DOCTYPE svg PUBLIC "-//W3C//DTD SVG 1.1//EN"
 "http://www.w3.org/Graphics/SVG/1.1/DTD/svg11.dtd">
<!-- Generated by graphviz version 2.26.3 (20100126.1600)
 -->
<!-- Title: G Pages: 1 -->
<svg width="318pt" height="146pt"
 viewBox="0.00 0.00 318.00 146.00" xmlns="http://www.w3.org/2000/svg" xmlns:xlink="http://www.w3.org/1999/xlink">
<g id="graph1" class="graph" transform="scale(1 1) rotate(0) translate(4 142)">
<title>G</title>
<polygon fill="white" stroke="white" points="-4,5 -4,-142 315,-142 315,5 -4,5"/>
<!-- Node1 -->
<g id="node1" class="node"><title>Node1</title>
<polygon fill="#bfbfbf" stroke="black" points="0,-116.5 0,-137.5 310,-137.5 310,-116.5 0,-116.5"/>
<text text-anchor="middle" x="155" y="-124.5" font-family="Helvetica,sans-Serif" font-size="10.00">/home/vilon_tao/gaia/sdk/include/gaia/graphics/LightingColorFilter.h</text>
</g>
<!-- Node2 -->
<g id="node3" class="node"><title>Node2</title>
<a xlink:href="../../d7/dcf/_color_filter_8h.html" target="_top" xlink:title="gaia/graphics/ColorFilter.h">
<polygon fill="white" stroke="black" points="31.5,-58.5 31.5,-79.5 162.5,-79.5 162.5,-58.5 31.5,-58.5"/>
<text text-anchor="middle" x="97" y="-66.5" font-family="Helvetica,sans-Serif" font-size="10.00">gaia/graphics/ColorFilter.h</text>
</a>
</g>
<!-- Node1&#45;&gt;Node2 -->
<g id="edge2" class="edge"><title>Node1&#45;&gt;Node2</title>
<path fill="none" stroke="midnightblue" d="M144.362,-116.362C136.104,-108.104 124.472,-96.4725 114.803,-86.8029"/>
<polygon fill="midnightblue" stroke="midnightblue" points="117.117,-84.1669 107.571,-79.5707 112.167,-89.1166 117.117,-84.1669"/>
</g>
<!-- Node4 -->
<g id="node7" class="node"><title>Node4</title>
<polygon fill="white" stroke="#bfbfbf" points="180,-58.5 180,-79.5 248,-79.5 248,-58.5 180,-58.5"/>
<text text-anchor="middle" x="214" y="-66.5" font-family="Helvetica,sans-Serif" font-size="10.00">sys/types.h</text>
</g>
<!-- Node1&#45;&gt;Node4 -->
<g id="edge6" class="edge"><title>Node1&#45;&gt;Node4</title>
<path fill="none" stroke="midnightblue" d="M165.822,-116.362C174.221,-108.104 186.054,-96.4725 195.89,-86.8029"/>
<polygon fill="midnightblue" stroke="midnightblue" points="198.569,-89.077 203.247,-79.5707 193.662,-84.0851 198.569,-89.077"/>
</g>
<!-- Node3 -->
<g id="node5" class="node"><title>Node3</title>
<a xlink:href="../../d1/dd0/gmacros_8h.html" target="_top" xlink:title="gaia/base/gmacros.h">
<polygon fill="white" stroke="black" points="43.5,-0.5 43.5,-21.5 150.5,-21.5 150.5,-0.5 43.5,-0.5"/>
<text text-anchor="middle" x="97" y="-8.5" font-family="Helvetica,sans-Serif" font-size="10.00">gaia/base/gmacros.h</text>
</a>
</g>
<!-- Node2&#45;&gt;Node3 -->
<g id="edge4" class="edge"><title>Node2&#45;&gt;Node3</title>
<path fill="none" stroke="midnightblue" d="M97,-58.3619C97,-50.9219 97,-40.7427 97,-31.7276"/>
<polygon fill="midnightblue" stroke="midnightblue" points="100.5,-31.5706 97,-21.5707 93.5001,-31.5707 100.5,-31.5706"/>
</g>
</g>
</svg>
