<?xml version="1.0" encoding="UTF-8" standalone="no"?>
<!DOCTYPE svg PUBLIC "-//W3C//DTD SVG 1.1//EN"
 "http://www.w3.org/Graphics/SVG/1.1/DTD/svg11.dtd">
<!-- Generated by graphviz version 2.26.3 (20100126.1600)
 -->
<!-- Title: G Pages: 1 -->
<svg width="632pt" height="88pt"
 viewBox="0.00 0.00 632.00 88.00" xmlns="http://www.w3.org/2000/svg" xmlns:xlink="http://www.w3.org/1999/xlink">
<g id="graph1" class="graph" transform="scale(1 1) rotate(0) translate(4 84)">
<title>G</title>
<polygon fill="white" stroke="white" points="-4,5 -4,-84 629,-84 629,5 -4,5"/>
<!-- Node1 -->
<g id="node1" class="node"><title>Node1</title>
<polygon fill="#bfbfbf" stroke="black" points="168.5,-58.5 168.5,-79.5 445.5,-79.5 445.5,-58.5 168.5,-58.5"/>
<text text-anchor="middle" x="307" y="-66.5" font-family="Helvetica,sans-Serif" font-size="10.00">/home/vilon_tao/gaia/sdk/include/gaia/graphics/MaskFilter.h</text>
</g>
<!-- Node2 -->
<g id="node3" class="node"><title>Node2</title>
<a xlink:href="../../db/d2a/_blur_mask_filter_8h.html" target="_top" xlink:title="/home/vilon_tao/gaia/sdk/include/gaia/graphics/BlurMaskFilter.h">
<polygon fill="white" stroke="black" points="0,-0.5 0,-21.5 294,-21.5 294,-0.5 0,-0.5"/>
<text text-anchor="middle" x="147" y="-8.5" font-family="Helvetica,sans-Serif" font-size="10.00">/home/vilon_tao/gaia/sdk/include/gaia/graphics/BlurMaskFilter.h</text>
</a>
</g>
<!-- Node1&#45;&gt;Node2 -->
<g id="edge2" class="edge"><title>Node1&#45;&gt;Node2</title>
<path fill="none" stroke="midnightblue" d="M268.405,-55.0095C239.972,-44.7023 201.905,-30.903 176.029,-21.5231"/>
<polygon fill="midnightblue" stroke="midnightblue" points="267.431,-58.3791 278.025,-58.4966 269.817,-51.7981 267.431,-58.3791"/>
</g>
<!-- Node3 -->
<g id="node5" class="node"><title>Node3</title>
<a xlink:href="../../db/d70/_emboss_mask_filter_8h.html" target="_top" xlink:title="/home/vilon_tao/gaia/sdk/include/gaia/graphics/EmbossMaskFilter.h">
<polygon fill="white" stroke="black" points="311.5,-0.5 311.5,-21.5 624.5,-21.5 624.5,-0.5 311.5,-0.5"/>
<text text-anchor="middle" x="468" y="-8.5" font-family="Helvetica,sans-Serif" font-size="10.00">/home/vilon_tao/gaia/sdk/include/gaia/graphics/EmbossMaskFilter.h</text>
</a>
</g>
<!-- Node1&#45;&gt;Node3 -->
<g id="edge4" class="edge"><title>Node1&#45;&gt;Node3</title>
<path fill="none" stroke="midnightblue" d="M345.836,-55.0095C374.447,-44.7023 412.752,-30.903 438.789,-21.5231"/>
<polygon fill="midnightblue" stroke="midnightblue" points="344.378,-51.8145 336.156,-58.4966 346.75,-58.4002 344.378,-51.8145"/>
</g>
</g>
</svg>
