<?xml version="1.0" encoding="UTF-8" standalone="no"?>
<!DOCTYPE svg PUBLIC "-//W3C//DTD SVG 1.1//EN"
 "http://www.w3.org/Graphics/SVG/1.1/DTD/svg11.dtd">
<!-- Generated by graphviz version 2.26.3 (20100126.1600)
 -->
<!-- Title: G Pages: 1 -->
<svg width="334pt" height="204pt"
 viewBox="0.00 0.00 334.00 204.00" xmlns="http://www.w3.org/2000/svg" xmlns:xlink="http://www.w3.org/1999/xlink">
<g id="graph1" class="graph" transform="scale(1 1) rotate(0) translate(4 200)">
<title>G</title>
<polygon fill="white" stroke="white" points="-4,5 -4,-200 331,-200 331,5 -4,5"/>
<!-- Node1 -->
<g id="node1" class="node"><title>Node1</title>
<polygon fill="#bfbfbf" stroke="black" points="-0.5,-174.5 -0.5,-195.5 326.5,-195.5 326.5,-174.5 -0.5,-174.5"/>
<text text-anchor="middle" x="163" y="-182.5" font-family="Helvetica,sans-Serif" font-size="10.00">/home/vilon_tao/gaia/sdk/include/gaia/ui/preference/TogglePreference.h</text>
</g>
<!-- Node2 -->
<g id="node3" class="node"><title>Node2</title>
<a xlink:href="../../d2/d81/_two_state_preference_8h.html" target="_top" xlink:title="gaia/ui/preference/TwoStatePreference.h">
<polygon fill="white" stroke="black" points="4,-116.5 4,-137.5 198,-137.5 198,-116.5 4,-116.5"/>
<text text-anchor="middle" x="101" y="-124.5" font-family="Helvetica,sans-Serif" font-size="10.00">gaia/ui/preference/TwoStatePreference.h</text>
</a>
</g>
<!-- Node1&#45;&gt;Node2 -->
<g id="edge2" class="edge"><title>Node1&#45;&gt;Node2</title>
<path fill="none" stroke="midnightblue" d="M151.628,-174.362C142.714,-166.023 130.121,-154.242 119.724,-144.516"/>
<polygon fill="midnightblue" stroke="midnightblue" points="121.993,-141.846 112.3,-137.571 117.211,-146.958 121.993,-141.846"/>
</g>
<!-- Node5 -->
<g id="node9" class="node"><title>Node5</title>
<a xlink:href="../../d1/dd0/gmacros_8h.html" target="_top" xlink:title="gaia/base/gmacros.h">
<polygon fill="white" stroke="black" points="134.5,-0.5 134.5,-21.5 241.5,-21.5 241.5,-0.5 134.5,-0.5"/>
<text text-anchor="middle" x="188" y="-8.5" font-family="Helvetica,sans-Serif" font-size="10.00">gaia/base/gmacros.h</text>
</a>
</g>
<!-- Node1&#45;&gt;Node5 -->
<g id="edge12" class="edge"><title>Node1&#45;&gt;Node5</title>
<path fill="none" stroke="midnightblue" d="M177.501,-174.479C187.904,-165.97 201.086,-152.97 207,-138 221.182,-102.099 207.489,-56.6656 197.139,-31.0169"/>
<polygon fill="midnightblue" stroke="midnightblue" points="200.274,-29.4457 193.134,-21.6188 193.835,-32.1905 200.274,-29.4457"/>
</g>
<!-- Node3 -->
<g id="node5" class="node"><title>Node3</title>
<a xlink:href="../../d4/dd7/_preference_8h.html" target="_top" xlink:title="gaia/ui/preference/Preference.h">
<polygon fill="white" stroke="black" points="8,-58.5 8,-79.5 160,-79.5 160,-58.5 8,-58.5"/>
<text text-anchor="middle" x="84" y="-66.5" font-family="Helvetica,sans-Serif" font-size="10.00">gaia/ui/preference/Preference.h</text>
</a>
</g>
<!-- Node2&#45;&gt;Node3 -->
<g id="edge4" class="edge"><title>Node2&#45;&gt;Node3</title>
<path fill="none" stroke="midnightblue" d="M97.8819,-116.362C95.6773,-108.84 92.652,-98.5187 89.9883,-89.4308"/>
<polygon fill="midnightblue" stroke="midnightblue" points="93.2698,-88.1825 87.0983,-79.5707 86.5524,-90.1514 93.2698,-88.1825"/>
</g>
<!-- Node2&#45;&gt;Node5 -->
<g id="edge10" class="edge"><title>Node2&#45;&gt;Node5</title>
<path fill="none" stroke="midnightblue" d="M124.042,-116.367C138.944,-108.365 157.619,-96.0317 169,-80 179.088,-65.7906 183.825,-46.4407 186.047,-31.8476"/>
<polygon fill="midnightblue" stroke="midnightblue" points="189.538,-32.1356 187.302,-21.7794 182.591,-31.2694 189.538,-32.1356"/>
</g>
<!-- Node4 -->
<g id="node7" class="node"><title>Node4</title>
<polygon fill="white" stroke="#bfbfbf" points="59.5,-0.5 59.5,-21.5 108.5,-21.5 108.5,-0.5 59.5,-0.5"/>
<text text-anchor="middle" x="84" y="-8.5" font-family="Helvetica,sans-Serif" font-size="10.00">stdint.h</text>
</g>
<!-- Node3&#45;&gt;Node4 -->
<g id="edge6" class="edge"><title>Node3&#45;&gt;Node4</title>
<path fill="none" stroke="midnightblue" d="M84,-58.3619C84,-50.9219 84,-40.7427 84,-31.7276"/>
<polygon fill="midnightblue" stroke="midnightblue" points="87.5001,-31.5706 84,-21.5707 80.5001,-31.5707 87.5001,-31.5706"/>
</g>
<!-- Node3&#45;&gt;Node5 -->
<g id="edge8" class="edge"><title>Node3&#45;&gt;Node5</title>
<path fill="none" stroke="midnightblue" d="M103.075,-58.3619C119.055,-49.4502 142.081,-36.6087 160.127,-26.5447"/>
<polygon fill="midnightblue" stroke="midnightblue" points="162.017,-29.4982 169.046,-21.5707 158.607,-23.3846 162.017,-29.4982"/>
</g>
</g>
</svg>
