<?xml version="1.0" encoding="UTF-8" standalone="no"?>
<!DOCTYPE svg PUBLIC "-//W3C//DTD SVG 1.1//EN"
 "http://www.w3.org/Graphics/SVG/1.1/DTD/svg11.dtd">
<!-- Generated by graphviz version 2.26.3 (20100126.1600)
 -->
<!-- Title: G Pages: 1 -->
<svg width="372pt" height="146pt"
 viewBox="0.00 0.00 372.36 146.00" xmlns="http://www.w3.org/2000/svg" xmlns:xlink="http://www.w3.org/1999/xlink">
<g id="graph1" class="graph" transform="scale(1 1) rotate(0) translate(4 142)">
<title>G</title>
<polygon fill="white" stroke="white" points="-4,5 -4,-142 369.36,-142 369.36,5 -4,5"/>
<!-- Node1 -->
<g id="node1" class="node"><title>Node1</title>
<polygon fill="#bfbfbf" stroke="black" points="33.0044,-116.5 33.0044,-137.5 317.004,-137.5 317.004,-116.5 33.0044,-116.5"/>
<text text-anchor="middle" x="175.004" y="-124.5" font-family="Helvetica,sans-Serif" font-size="10.00">/home/vilon_tao/gaia/sdk/include/gaia/telephony/ITelephony.h</text>
</g>
<!-- Node2 -->
<g id="node3" class="node"><title>Node2</title>
<polygon fill="white" stroke="#bfbfbf" points="64.0044,-0.5 64.0044,-21.5 110.004,-21.5 110.004,-0.5 64.0044,-0.5"/>
<text text-anchor="middle" x="87.0044" y="-8.5" font-family="Helvetica,sans-Serif" font-size="10.00">cstdint</text>
</g>
<!-- Node1&#45;&gt;Node2 -->
<g id="edge2" class="edge"><title>Node1&#45;&gt;Node2</title>
<path fill="none" stroke="midnightblue" d="M105.359,-116.449C64.1129,-108.619 17.5219,-96.4478 5.00438,-80 -13.246,-56.0193 24.4227,-34.7625 54.5565,-22.3824"/>
<polygon fill="midnightblue" stroke="midnightblue" points="55.9621,-25.5908 63.995,-18.6826 53.4074,-19.0736 55.9621,-25.5908"/>
</g>
<!-- Node3 -->
<g id="node5" class="node"><title>Node3</title>
<a xlink:href="../../d1/dd0/gmacros_8h.html" target="_top" xlink:title="gaia/base/gmacros.h">
<polygon fill="white" stroke="black" points="210.504,-0.5 210.504,-21.5 317.504,-21.5 317.504,-0.5 210.504,-0.5"/>
<text text-anchor="middle" x="264.004" y="-8.5" font-family="Helvetica,sans-Serif" font-size="10.00">gaia/base/gmacros.h</text>
</a>
</g>
<!-- Node1&#45;&gt;Node3 -->
<g id="edge4" class="edge"><title>Node1&#45;&gt;Node3</title>
<path fill="none" stroke="midnightblue" d="M254.795,-116.438C298.252,-108.872 345.808,-96.9904 359.004,-80 377.44,-56.2627 343.126,-36.9796 310.709,-24.8941"/>
<polygon fill="midnightblue" stroke="midnightblue" points="311.812,-21.5717 301.217,-21.5282 309.472,-28.1692 311.812,-21.5717"/>
</g>
<!-- Node4 -->
<g id="node7" class="node"><title>Node4</title>
<a xlink:href="../../d8/d93/_service_state_8h.html" target="_top" xlink:title="gaia/telephony/ServiceState.h">
<polygon fill="white" stroke="black" points="13.5044,-58.5 13.5044,-79.5 160.504,-79.5 160.504,-58.5 13.5044,-58.5"/>
<text text-anchor="middle" x="87.0044" y="-66.5" font-family="Helvetica,sans-Serif" font-size="10.00">gaia/telephony/ServiceState.h</text>
</a>
</g>
<!-- Node1&#45;&gt;Node4 -->
<g id="edge6" class="edge"><title>Node1&#45;&gt;Node4</title>
<path fill="none" stroke="midnightblue" d="M158.864,-116.362C145.591,-107.614 126.572,-95.0786 111.434,-85.1015"/>
<polygon fill="midnightblue" stroke="midnightblue" points="113.318,-82.1515 103.043,-79.5707 109.466,-87.9962 113.318,-82.1515"/>
</g>
<!-- Node5 -->
<g id="node11" class="node"><title>Node5</title>
<a xlink:href="../../de/d2b/_telephony_manager_8h.html" target="_top" xlink:title="gaia/telephony/TelephonyManager.h">
<polygon fill="white" stroke="black" points="177.504,-58.5 177.504,-79.5 350.504,-79.5 350.504,-58.5 177.504,-58.5"/>
<text text-anchor="middle" x="264.004" y="-66.5" font-family="Helvetica,sans-Serif" font-size="10.00">gaia/telephony/TelephonyManager.h</text>
</a>
</g>
<!-- Node1&#45;&gt;Node5 -->
<g id="edge12" class="edge"><title>Node1&#45;&gt;Node5</title>
<path fill="none" stroke="midnightblue" d="M191.328,-116.362C204.752,-107.614 223.987,-95.0786 239.297,-85.1015"/>
<polygon fill="midnightblue" stroke="midnightblue" points="241.317,-87.9628 247.784,-79.5707 237.495,-82.0982 241.317,-87.9628"/>
</g>
<!-- Node4&#45;&gt;Node2 -->
<g id="edge8" class="edge"><title>Node4&#45;&gt;Node2</title>
<path fill="none" stroke="midnightblue" d="M87.0044,-58.3619C87.0044,-50.9219 87.0044,-40.7427 87.0044,-31.7276"/>
<polygon fill="midnightblue" stroke="midnightblue" points="90.5045,-31.5706 87.0044,-21.5707 83.5045,-31.5707 90.5045,-31.5706"/>
</g>
<!-- Node4&#45;&gt;Node3 -->
<g id="edge10" class="edge"><title>Node4&#45;&gt;Node3</title>
<path fill="none" stroke="midnightblue" d="M119.058,-58.4966C147.914,-49.0411 190.51,-35.0829 222.065,-24.7428"/>
<polygon fill="midnightblue" stroke="midnightblue" points="223.478,-27.963 231.891,-21.5231 221.298,-21.3111 223.478,-27.963"/>
</g>
<!-- Node5&#45;&gt;Node2 -->
<g id="edge14" class="edge"><title>Node5&#45;&gt;Node2</title>
<path fill="none" stroke="midnightblue" d="M231.951,-58.4966C200.219,-48.0985 151.869,-32.2552 119.86,-21.7664"/>
<polygon fill="midnightblue" stroke="midnightblue" points="120.676,-18.3507 110.084,-18.5627 118.497,-25.0027 120.676,-18.3507"/>
</g>
<!-- Node5&#45;&gt;Node3 -->
<g id="edge16" class="edge"><title>Node5&#45;&gt;Node3</title>
<path fill="none" stroke="midnightblue" d="M264.004,-58.3619C264.004,-50.9219 264.004,-40.7427 264.004,-31.7276"/>
<polygon fill="midnightblue" stroke="midnightblue" points="267.504,-31.5706 264.004,-21.5707 260.504,-31.5707 267.504,-31.5706"/>
</g>
</g>
</svg>
