<?xml version="1.0" encoding="UTF-8" standalone="no"?>
<!DOCTYPE svg PUBLIC "-//W3C//DTD SVG 1.1//EN"
 "http://www.w3.org/Graphics/SVG/1.1/DTD/svg11.dtd">
<!-- Generated by graphviz version 2.26.3 (20100126.1600)
 -->
<!-- Title: G Pages: 1 -->
<svg width="2268pt" height="146pt"
 viewBox="0.00 0.00 2268.00 146.00" xmlns="http://www.w3.org/2000/svg" xmlns:xlink="http://www.w3.org/1999/xlink">
<g id="graph1" class="graph" transform="scale(1 1) rotate(0) translate(4 142)">
<title>G</title>
<polygon fill="white" stroke="white" points="-4,5 -4,-142 2265,-142 2265,5 -4,5"/>
<!-- Node1 -->
<g id="node1" class="node"><title>Node1</title>
<polygon fill="#bfbfbf" stroke="black" points="965.5,-116.5 965.5,-137.5 1284.5,-137.5 1284.5,-116.5 965.5,-116.5"/>
<text text-anchor="middle" x="1125" y="-124.5" font-family="Helvetica,sans-Serif" font-size="10.00">/home/vilon_tao/gaia/sdk/include/gaia/telephony/TelephonyManager.h</text>
</g>
<!-- Node2 -->
<g id="node3" class="node"><title>Node2</title>
<a xlink:href="../../de/d28/_network_info_8h.html" target="_top" xlink:title="/home/vilon_tao/gaia/sdk/include/gaia/connectivity/NetworkInfo.h">
<polygon fill="white" stroke="black" points="0,-58.5 0,-79.5 300,-79.5 300,-58.5 0,-58.5"/>
<text text-anchor="middle" x="150" y="-66.5" font-family="Helvetica,sans-Serif" font-size="10.00">/home/vilon_tao/gaia/sdk/include/gaia/connectivity/NetworkInfo.h</text>
</a>
</g>
<!-- Node1&#45;&gt;Node2 -->
<g id="edge2" class="edge"><title>Node1&#45;&gt;Node2</title>
<path fill="none" stroke="midnightblue" d="M955.235,-117.794C790.157,-108.707 532.328,-94.1563 309,-80 306.1,-79.8162 303.171,-79.629 300.22,-79.4389"/>
<polygon fill="midnightblue" stroke="midnightblue" points="955.304,-121.303 965.481,-118.357 955.688,-114.313 955.304,-121.303"/>
</g>
<!-- Node4 -->
<g id="node7" class="node"><title>Node4</title>
<a xlink:href="../../dd/d5a/_default_phone_notifier_8h.html" target="_top" xlink:title="/home/vilon_tao/gaia/sdk/include/gaia/telephony/DefaultPhoneNotifier.h">
<polygon fill="white" stroke="black" points="317.5,-58.5 317.5,-79.5 644.5,-79.5 644.5,-58.5 317.5,-58.5"/>
<text text-anchor="middle" x="481" y="-66.5" font-family="Helvetica,sans-Serif" font-size="10.00">/home/vilon_tao/gaia/sdk/include/gaia/telephony/DefaultPhoneNotifier.h</text>
</a>
</g>
<!-- Node1&#45;&gt;Node4 -->
<g id="edge6" class="edge"><title>Node1&#45;&gt;Node4</title>
<path fill="none" stroke="midnightblue" d="M998.346,-115.593C882.006,-105.115 710.974,-89.7119 597.842,-79.5231"/>
<polygon fill="midnightblue" stroke="midnightblue" points="998.103,-119.085 1008.38,-116.497 998.731,-112.114 998.103,-119.085"/>
</g>
<!-- Node5 -->
<g id="node9" class="node"><title>Node5</title>
<a xlink:href="../../d8/dee/_i_telephony_8h.html" target="_top" xlink:title="/home/vilon_tao/gaia/sdk/include/gaia/telephony/ITelephony.h">
<polygon fill="white" stroke="black" points="662,-58.5 662,-79.5 946,-79.5 946,-58.5 662,-58.5"/>
<text text-anchor="middle" x="804" y="-66.5" font-family="Helvetica,sans-Serif" font-size="10.00">/home/vilon_tao/gaia/sdk/include/gaia/telephony/ITelephony.h</text>
</a>
</g>
<!-- Node1&#45;&gt;Node5 -->
<g id="edge8" class="edge"><title>Node1&#45;&gt;Node5</title>
<path fill="none" stroke="midnightblue" d="M1056.73,-114.665C998.935,-104.222 916.986,-89.415 862.24,-79.5231"/>
<polygon fill="midnightblue" stroke="midnightblue" points="1056.41,-118.163 1066.87,-116.497 1057.65,-111.274 1056.41,-118.163"/>
</g>
<!-- Node6 -->
<g id="node11" class="node"><title>Node6</title>
<a xlink:href="../../de/da9/_neighboring_cell_info_8h.html" target="_top" xlink:title="/home/vilon_tao/gaia/sdk/include/gaia/telephony/NeighboringCellInfo.h">
<polygon fill="white" stroke="black" points="964,-58.5 964,-79.5 1286,-79.5 1286,-58.5 964,-58.5"/>
<text text-anchor="middle" x="1125" y="-66.5" font-family="Helvetica,sans-Serif" font-size="10.00">/home/vilon_tao/gaia/sdk/include/gaia/telephony/NeighboringCellInfo.h</text>
</a>
</g>
<!-- Node1&#45;&gt;Node6 -->
<g id="edge10" class="edge"><title>Node1&#45;&gt;Node6</title>
<path fill="none" stroke="midnightblue" d="M1125,-106.191C1125,-97.1684 1125,-86.9941 1125,-79.5707"/>
<polygon fill="midnightblue" stroke="midnightblue" points="1121.5,-106.362 1125,-116.362 1128.5,-106.362 1121.5,-106.362"/>
</g>
<!-- Node7 -->
<g id="node13" class="node"><title>Node7</title>
<a xlink:href="../../db/d82/_phone_factory_8h.html" target="_top" xlink:title="/home/vilon_tao/gaia/sdk/include/gaia/telephony/PhoneFactory.h">
<polygon fill="white" stroke="black" points="1303.5,-58.5 1303.5,-79.5 1600.5,-79.5 1600.5,-58.5 1303.5,-58.5"/>
<text text-anchor="middle" x="1452" y="-66.5" font-family="Helvetica,sans-Serif" font-size="10.00">/home/vilon_tao/gaia/sdk/include/gaia/telephony/PhoneFactory.h</text>
</a>
</g>
<!-- Node1&#45;&gt;Node7 -->
<g id="edge12" class="edge"><title>Node1&#45;&gt;Node7</title>
<path fill="none" stroke="midnightblue" d="M1194.18,-114.73C1253.08,-104.283 1336.79,-89.4354 1392.67,-79.5231"/>
<polygon fill="midnightblue" stroke="midnightblue" points="1193.45,-111.304 1184.22,-116.497 1194.67,-118.196 1193.45,-111.304"/>
</g>
<!-- Node8 -->
<g id="node15" class="node"><title>Node8</title>
<a xlink:href="../../df/d9c/_phone_interface_8h.html" target="_top" xlink:title="/home/vilon_tao/gaia/sdk/include/gaia/telephony/PhoneInterface.h">
<polygon fill="white" stroke="black" points="1618,-58.5 1618,-79.5 1920,-79.5 1920,-58.5 1618,-58.5"/>
<text text-anchor="middle" x="1769" y="-66.5" font-family="Helvetica,sans-Serif" font-size="10.00">/home/vilon_tao/gaia/sdk/include/gaia/telephony/PhoneInterface.h</text>
</a>
</g>
<!-- Node1&#45;&gt;Node8 -->
<g id="edge14" class="edge"><title>Node1&#45;&gt;Node8</title>
<path fill="none" stroke="midnightblue" d="M1251.65,-115.593C1367.99,-105.115 1539.03,-89.7119 1652.16,-79.5231"/>
<polygon fill="midnightblue" stroke="midnightblue" points="1251.27,-112.114 1241.62,-116.497 1251.9,-119.085 1251.27,-112.114"/>
</g>
<!-- Node9 -->
<g id="node17" class="node"><title>Node9</title>
<a xlink:href="../../d6/df2/_phone_state_listener_8h.html" target="_top" xlink:title="/home/vilon_tao/gaia/sdk/include/gaia/telephony/PhoneStateListener.h">
<polygon fill="white" stroke="black" points="1938,-58.5 1938,-79.5 2260,-79.5 2260,-58.5 1938,-58.5"/>
<text text-anchor="middle" x="2099" y="-66.5" font-family="Helvetica,sans-Serif" font-size="10.00">/home/vilon_tao/gaia/sdk/include/gaia/telephony/PhoneStateListener.h</text>
</a>
</g>
<!-- Node1&#45;&gt;Node9 -->
<g id="edge16" class="edge"><title>Node1&#45;&gt;Node9</title>
<path fill="none" stroke="midnightblue" d="M1294.91,-117.375C1457.65,-108.084 1710.12,-93.4791 1929,-80 1931.95,-79.8182 1934.93,-79.6338 1937.94,-79.4474"/>
<polygon fill="midnightblue" stroke="midnightblue" points="1294.59,-113.887 1284.81,-117.952 1294.99,-120.876 1294.59,-113.887"/>
</g>
<!-- Node3 -->
<g id="node5" class="node"><title>Node3</title>
<a xlink:href="../../d0/d2d/_wifi_info_8h.html" target="_top" xlink:title="/home/vilon_tao/gaia/sdk/include/gaia/connectivity/wifi/WifiInfo.h">
<polygon fill="white" stroke="black" points="0.5,-0.5 0.5,-21.5 299.5,-21.5 299.5,-0.5 0.5,-0.5"/>
<text text-anchor="middle" x="150" y="-8.5" font-family="Helvetica,sans-Serif" font-size="10.00">/home/vilon_tao/gaia/sdk/include/gaia/connectivity/wifi/WifiInfo.h</text>
</a>
</g>
<!-- Node2&#45;&gt;Node3 -->
<g id="edge4" class="edge"><title>Node2&#45;&gt;Node3</title>
<path fill="none" stroke="midnightblue" d="M150,-48.1906C150,-39.1684 150,-28.9941 150,-21.5707"/>
<polygon fill="midnightblue" stroke="midnightblue" points="146.5,-48.3619 150,-58.3619 153.5,-48.3619 146.5,-48.3619"/>
</g>
</g>
</svg>
