<?xml version="1.0" encoding="UTF-8" standalone="no"?>
<!DOCTYPE svg PUBLIC "-//W3C//DTD SVG 1.1//EN"
 "http://www.w3.org/Graphics/SVG/1.1/DTD/svg11.dtd">
<!-- Generated by graphviz version 2.26.3 (20100126.1600)
 -->
<!-- Title: G Pages: 1 -->
<svg width="1470pt" height="386pt"
 viewBox="0.00 0.00 1470.00 386.00" xmlns="http://www.w3.org/2000/svg" xmlns:xlink="http://www.w3.org/1999/xlink">
<g id="graph1" class="graph" transform="scale(1 1) rotate(0) translate(4 382)">
<title>G</title>
<polygon fill="white" stroke="white" points="-4,5 -4,-382 1467,-382 1467,5 -4,5"/>
<!-- Node1 -->
<g id="node1" class="node"><title>Node1</title>
<polygon fill="#bfbfbf" stroke="black" points="1312.5,-128.5 1312.5,-149.5 1461.5,-149.5 1461.5,-128.5 1312.5,-128.5"/>
<text text-anchor="middle" x="1387" y="-136.5" font-family="Helvetica,sans-Serif" font-size="10.00">gaia::service::NotificationData</text>
</g>
<!-- Node2 -->
<g id="node2" class="node"><title>Node2</title>
<a xlink:href="../../db/dc8/classgaia_1_1core_1_1_pending_demand.html" target="_top" xlink:title="A description of an Demand and target action to perform with it.">
<polygon fill="white" stroke="black" points="1038.5,-324.5 1038.5,-345.5 1175.5,-345.5 1175.5,-324.5 1038.5,-324.5"/>
<text text-anchor="middle" x="1107" y="-332.5" font-family="Helvetica,sans-Serif" font-size="10.00">gaia::core::PendingDemand</text>
</a>
</g>
<!-- Node2&#45;&gt;Node1 -->
<g id="edge2" class="edge"><title>Node2&#45;&gt;Node1</title>
<path fill="none" stroke="#9a32cd" stroke-dasharray="5,2" d="M1186.33,-340.042C1221.99,-338.586 1262.94,-331.38 1294,-310 1352.46,-269.765 1377.59,-180.473 1384.73,-149.682"/>
<polygon fill="#9a32cd" stroke="#9a32cd" points="1185.85,-336.554 1175.94,-340.314 1186.03,-343.551 1185.85,-336.554"/>
<text text-anchor="middle" x="1244" y="-369" font-family="Helvetica,sans-Serif" font-size="10.00"> mpFullScreenDemand</text>
<text text-anchor="middle" x="1244" y="-356" font-family="Helvetica,sans-Serif" font-size="10.00">mpDeleteDemand</text>
<text text-anchor="middle" x="1244" y="-343" font-family="Helvetica,sans-Serif" font-size="10.00">mpContentDemand</text>
</g>
<!-- Node3 -->
<g id="node4" class="node"><title>Node3</title>
<a xlink:href="../../db/d6c/classgaia_1_1core_1_1_widget_controller.html" target="_top" xlink:title="Define the default widget layout to put sets of layout in it.">
<polygon fill="white" stroke="black" points="475,-193.5 475,-214.5 613,-214.5 613,-193.5 475,-193.5"/>
<text text-anchor="middle" x="544" y="-201.5" font-family="Helvetica,sans-Serif" font-size="10.00">gaia::core::WidgetController</text>
</a>
</g>
<!-- Node3&#45;&gt;Node1 -->
<g id="edge4" class="edge"><title>Node3&#45;&gt;Node1</title>
<path fill="none" stroke="#9a32cd" stroke-dasharray="5,2" d="M574.615,-218.869C613.412,-236.809 682.85,-265.939 746,-277 987.69,-319.332 1070.82,-311.97 1294,-210 1327.63,-194.636 1360.45,-165.232 1376.61,-149.517"/>
<polygon fill="#9a32cd" stroke="#9a32cd" points="575.974,-215.641 565.434,-214.567 573.004,-221.979 575.974,-215.641"/>
<text text-anchor="middle" x="968" y="-318" font-family="Helvetica,sans-Serif" font-size="10.00"> mpBigWidgetController</text>
<text text-anchor="middle" x="968" y="-305" font-family="Helvetica,sans-Serif" font-size="10.00">mpWidgetController</text>
</g>
<!-- Node6 -->
<g id="node10" class="node"><title>Node6</title>
<a xlink:href="../../d5/dfb/classgaia_1_1core_1_1_scene.html" target="_top" xlink:title="A Scene is used to build a visual interface.">
<polygon fill="white" stroke="black" points="775.5,-118.5 775.5,-139.5 868.5,-139.5 868.5,-118.5 775.5,-118.5"/>
<text text-anchor="middle" x="822" y="-126.5" font-family="Helvetica,sans-Serif" font-size="10.00">gaia::core::Scene</text>
</a>
</g>
<!-- Node3&#45;&gt;Node6 -->
<g id="edge12" class="edge"><title>Node3&#45;&gt;Node6</title>
<path fill="none" stroke="#9a32cd" stroke-dasharray="5,2" d="M574.833,-189.161C598.679,-178.242 632.786,-163.82 664,-155 700.784,-144.606 743.635,-137.877 775.424,-133.874"/>
<polygon fill="#9a32cd" stroke="#9a32cd" points="573.19,-186.065 565.595,-193.452 576.139,-192.414 573.19,-186.065"/>
<text text-anchor="middle" x="696" y="-159" font-family="Helvetica,sans-Serif" font-size="10.00"> mpController</text>
</g>
<!-- Node4 -->
<g id="node6" class="node"><title>Node4</title>
<a xlink:href="../../d8/dac/classgaia_1_1core_1_1_widget.html" target="_top" xlink:title="The Widget class is the base class of all user interface component.">
<polygon fill="white" stroke="black" points="1059,-182.5 1059,-203.5 1155,-203.5 1155,-182.5 1059,-182.5"/>
<text text-anchor="middle" x="1107" y="-190.5" font-family="Helvetica,sans-Serif" font-size="10.00">gaia::core::Widget</text>
</a>
</g>
<!-- Node4&#45;&gt;Node1 -->
<g id="edge38" class="edge"><title>Node4&#45;&gt;Node1</title>
<path fill="none" stroke="#9a32cd" stroke-dasharray="5,2" d="M1165.38,-185.067C1202.39,-179.685 1251.19,-171.937 1294,-163 1312.28,-159.183 1332.37,-154.113 1349.18,-149.615"/>
<polygon fill="#9a32cd" stroke="#9a32cd" points="1164.67,-181.634 1155.27,-186.522 1165.67,-188.562 1164.67,-181.634"/>
<text text-anchor="middle" x="1244" y="-197" font-family="Helvetica,sans-Serif" font-size="10.00"> mpContentWidget</text>
<text text-anchor="middle" x="1244" y="-184" font-family="Helvetica,sans-Serif" font-size="10.00">mpBigContentWidget</text>
</g>
<!-- Node4&#45;&gt;Node3 -->
<g id="edge6" class="edge"><title>Node4&#45;&gt;Node3</title>
<path fill="none" stroke="midnightblue" d="M1048.52,-198.285C1038.99,-198.979 1029.23,-199.591 1020,-200 875.313,-206.42 705.652,-205.925 613.015,-204.974"/>
<polygon fill="midnightblue" stroke="midnightblue" points="1049.02,-201.758 1058.72,-197.506 1048.48,-194.778 1049.02,-201.758"/>
</g>
<!-- Node5 -->
<g id="node8" class="node"><title>Node5</title>
<a xlink:href="../../d0/db2/classgaia_1_1core_1_1_property_animatable.html" target="_top" xlink:title="Any animation object need to implement PropertyAnimatable because of setting value.">
<polygon fill="white" stroke="black" points="746.5,-168.5 746.5,-189.5 897.5,-189.5 897.5,-168.5 746.5,-168.5"/>
<text text-anchor="middle" x="822" y="-176.5" font-family="Helvetica,sans-Serif" font-size="10.00">gaia::core::PropertyAnimatable</text>
</a>
</g>
<!-- Node5&#45;&gt;Node4 -->
<g id="edge8" class="edge"><title>Node5&#45;&gt;Node4</title>
<path fill="none" stroke="midnightblue" d="M907.687,-183.209C957.161,-185.639 1017.56,-188.607 1058.82,-190.633"/>
<polygon fill="midnightblue" stroke="midnightblue" points="907.786,-179.71 897.627,-182.715 907.443,-186.702 907.786,-179.71"/>
</g>
<!-- Node6&#45;&gt;Node3 -->
<g id="edge32" class="edge"><title>Node6&#45;&gt;Node3</title>
<path fill="none" stroke="#9a32cd" stroke-dasharray="5,2" d="M784.111,-143.202C771.855,-147.997 758.265,-153.526 746,-159 737.832,-162.646 736.466,-165.115 728,-168 691.028,-180.599 648.287,-189.297 613.31,-194.982"/>
<polygon fill="#9a32cd" stroke="#9a32cd" points="785.539,-146.403 793.603,-139.53 783.014,-139.874 785.539,-146.403"/>
<text text-anchor="middle" x="696" y="-188" font-family="Helvetica,sans-Serif" font-size="10.00"> mpScene</text>
</g>
<!-- Node6&#45;&gt;Node4 -->
<g id="edge10" class="edge"><title>Node6&#45;&gt;Node4</title>
<path fill="none" stroke="#9a32cd" stroke-dasharray="5,2" d="M878.783,-137.81C918.571,-144.421 972.849,-154.32 1020,-166 1038.88,-170.677 1059.7,-177.093 1076.24,-182.497"/>
<polygon fill="#9a32cd" stroke="#9a32cd" points="879.171,-134.327 868.736,-136.159 878.036,-141.235 879.171,-134.327"/>
<text text-anchor="middle" x="968" y="-170" font-family="Helvetica,sans-Serif" font-size="10.00"> mpScene</text>
</g>
<!-- Node11 -->
<g id="node22" class="node"><title>Node11</title>
<a xlink:href="../../db/d3f/classgaia_1_1core_1_1_page.html" target="_top" xlink:title="An page is a single, focused thing that the user can do.">
<polygon fill="white" stroke="black" points="1063,-120.5 1063,-141.5 1151,-141.5 1151,-120.5 1063,-120.5"/>
<text text-anchor="middle" x="1107" y="-128.5" font-family="Helvetica,sans-Serif" font-size="10.00">gaia::core::Page</text>
</a>
</g>
<!-- Node6&#45;&gt;Node11 -->
<g id="edge26" class="edge"><title>Node6&#45;&gt;Node11</title>
<path fill="none" stroke="#9a32cd" stroke-dasharray="5,2" d="M879.054,-129.191C918.613,-129.347 972.51,-129.607 1020,-130 1033.9,-130.115 1049.04,-130.276 1062.74,-130.436"/>
<polygon fill="#9a32cd" stroke="#9a32cd" points="878.821,-125.69 868.807,-129.151 878.794,-132.69 878.821,-125.69"/>
<text text-anchor="middle" x="968" y="-134" font-family="Helvetica,sans-Serif" font-size="10.00"> mpScene</text>
</g>
<!-- Node7 -->
<g id="node13" class="node"><title>Node7</title>
<a xlink:href="../../de/dad/classgaia_1_1content_1_1_resources.html" target="_top" xlink:title="Class for accessing an application&#39;s resources.">
<polygon fill="white" stroke="black" points="481,-107.5 481,-128.5 607,-128.5 607,-107.5 481,-107.5"/>
<text text-anchor="middle" x="544" y="-115.5" font-family="Helvetica,sans-Serif" font-size="10.00">gaia::content::Resources</text>
</a>
</g>
<!-- Node7&#45;&gt;Node6 -->
<g id="edge14" class="edge"><title>Node7&#45;&gt;Node6</title>
<path fill="none" stroke="#9a32cd" stroke-dasharray="5,2" d="M617.305,-116.711C651.041,-116.551 691.579,-116.969 728,-119 743.403,-119.859 760.168,-121.435 775.218,-123.087"/>
<polygon fill="#9a32cd" stroke="#9a32cd" points="617.043,-113.212 607.066,-116.778 617.088,-120.212 617.043,-113.212"/>
<text text-anchor="middle" x="696" y="-123" font-family="Helvetica,sans-Serif" font-size="10.00"> mpResources</text>
</g>
<!-- Node8 -->
<g id="node15" class="node"><title>Node8</title>
<a xlink:href="../../df/d5d/classgaia_1_1base_1_1_vector.html" target="_top" xlink:title="gaia::base::Vector\&lt; gaia::ui::DialogBox * \&gt;">
<polygon fill="white" stroke="black" points="442.5,-67.5 442.5,-88.5 645.5,-88.5 645.5,-67.5 442.5,-67.5"/>
<text text-anchor="middle" x="544" y="-75.5" font-family="Helvetica,sans-Serif" font-size="10.00">gaia::base::Vector&lt; gaia::ui::DialogBox * &gt;</text>
</a>
</g>
<!-- Node8&#45;&gt;Node6 -->
<g id="edge16" class="edge"><title>Node8&#45;&gt;Node6</title>
<path fill="none" stroke="#9a32cd" stroke-dasharray="5,2" d="M655.979,-87.2448C679.888,-90.2029 704.894,-94.0441 728,-99 750.612,-103.85 775.516,-111.927 794.006,-118.48"/>
<polygon fill="#9a32cd" stroke="#9a32cd" points="656.152,-83.7407 645.807,-86.0305 655.322,-90.6914 656.152,-83.7407"/>
<text text-anchor="middle" x="696" y="-103" font-family="Helvetica,sans-Serif" font-size="10.00"> mDialogList</text>
</g>
<!-- Node9 -->
<g id="node17" class="node"><title>Node9</title>
<a xlink:href="../../d0/d21/classgaia_1_1base_1_1_vector_impl.html" target="_top" xlink:title="Implements vector data structure equipped with copy&#45;on&#45;write mechanism.">
<polygon fill="white" stroke="black" points="0.5,-66.5 0.5,-87.5 115.5,-87.5 115.5,-66.5 0.5,-66.5"/>
<text text-anchor="middle" x="58" y="-74.5" font-family="Helvetica,sans-Serif" font-size="10.00">gaia::base::VectorImpl</text>
</a>
</g>
<!-- Node9&#45;&gt;Node8 -->
<g id="edge18" class="edge"><title>Node9&#45;&gt;Node8</title>
<path fill="none" stroke="#8b1a1a" d="M125.792,-78.874C128.564,-78.9221 131.309,-78.9646 134,-79 262.878,-80.6955 295.112,-79.537 424,-79 429.938,-78.9753 436.041,-78.9436 442.198,-78.907"/>
<polygon fill="#8b1a1a" stroke="#8b1a1a" points="125.743,-75.3725 115.677,-78.6771 125.607,-82.3711 125.743,-75.3725"/>
</g>
<!-- Node10 -->
<g id="node19" class="node"><title>Node10</title>
<a xlink:href="../../df/d5d/classgaia_1_1base_1_1_vector.html" target="_top" xlink:title="This class implements the vector data structure.">
<polygon fill="white" stroke="black" points="154,-43.5 154,-64.5 294,-64.5 294,-43.5 154,-43.5"/>
<text text-anchor="middle" x="224" y="-51.5" font-family="Helvetica,sans-Serif" font-size="10.00">gaia::base::Vector&lt; TYPE &gt;</text>
</a>
</g>
<!-- Node9&#45;&gt;Node10 -->
<g id="edge22" class="edge"><title>Node9&#45;&gt;Node10</title>
<path fill="none" stroke="#8b1a1a" d="M125.596,-67.6344C134.933,-66.3406 144.54,-65.0096 153.921,-63.7098"/>
<polygon fill="#8b1a1a" stroke="#8b1a1a" points="125.018,-64.1809 115.593,-69.0203 125.979,-71.1146 125.018,-64.1809"/>
</g>
<!-- Node10&#45;&gt;Node8 -->
<g id="edge20" class="edge"><title>Node10&#45;&gt;Node8</title>
<path fill="none" stroke="orange" stroke-dasharray="5,2" d="M304.488,-58.0982C340.994,-60.145 384.699,-62.8572 424,-66 429.948,-66.4757 436.059,-66.9941 442.223,-67.54"/>
<polygon fill="orange" stroke="orange" points="304.571,-54.5975 294.392,-57.5388 304.183,-61.5868 304.571,-54.5975"/>
<text text-anchor="middle" x="368" y="-70" font-family="Helvetica,sans-Serif" font-size="10.00"> &lt; gaia::ui::DialogBox * &gt;</text>
</g>
<!-- Node11&#45;&gt;Node6 -->
<g id="edge24" class="edge"><title>Node11&#45;&gt;Node6</title>
<path fill="none" stroke="#9a32cd" stroke-dasharray="5,2" d="M1053.13,-118.139C1047.87,-116.076 1042.74,-113.709 1038,-111 1028.45,-105.537 1030.23,-98.0654 1020,-94 977.048,-76.9232 961.49,-85.8059 916,-94 890.293,-98.6306 862.439,-109.851 843.78,-118.349"/>
<polygon fill="#9a32cd" stroke="#9a32cd" points="1052.06,-121.476 1062.66,-121.532 1054.41,-114.881 1052.06,-121.476"/>
<text text-anchor="middle" x="968" y="-98" font-family="Helvetica,sans-Serif" font-size="10.00"> mpPage</text>
</g>
<!-- Node12 -->
<g id="node25" class="node"><title>Node12</title>
<a xlink:href="../../db/d88/classgaia_1_1core_1_1_widget_tag.html" target="_top" xlink:title="gaia::core::WidgetTag">
<polygon fill="white" stroke="black" points="765.5,-246.5 765.5,-267.5 878.5,-267.5 878.5,-246.5 765.5,-246.5"/>
<text text-anchor="middle" x="822" y="-254.5" font-family="Helvetica,sans-Serif" font-size="10.00">gaia::core::WidgetTag</text>
</a>
</g>
<!-- Node12&#45;&gt;Node4 -->
<g id="edge28" class="edge"><title>Node12&#45;&gt;Node4</title>
<path fill="none" stroke="#9a32cd" stroke-dasharray="5,2" d="M888.923,-253.489C927.755,-250.235 977.28,-243.985 1020,-232 1044.38,-225.159 1070.7,-212.565 1087.92,-203.538"/>
<polygon fill="#9a32cd" stroke="#9a32cd" points="888.474,-250.013 878.781,-254.291 889.026,-256.991 888.474,-250.013"/>
<text text-anchor="middle" x="968" y="-254" font-family="Helvetica,sans-Serif" font-size="10.00"> mpTag</text>
</g>
<!-- Node13 -->
<g id="node27" class="node"><title>Node13</title>
<a xlink:href="../../dd/de0/classgaia_1_1core_1_1_event_control.html" target="_top" xlink:title="EventControl is used to dispatch event and register listener.">
<polygon fill="white" stroke="black" points="163,-193.5 163,-214.5 285,-214.5 285,-193.5 163,-193.5"/>
<text text-anchor="middle" x="224" y="-201.5" font-family="Helvetica,sans-Serif" font-size="10.00">gaia::core::EventControl</text>
</a>
</g>
<!-- Node13&#45;&gt;Node3 -->
<g id="edge30" class="edge"><title>Node13&#45;&gt;Node3</title>
<path fill="none" stroke="midnightblue" d="M295.422,-204C348.968,-204 421.839,-204 474.831,-204"/>
<polygon fill="midnightblue" stroke="midnightblue" points="295.321,-200.5 285.321,-204 295.321,-207.5 295.321,-200.5"/>
</g>
<!-- Node14 -->
<g id="node30" class="node"><title>Node14</title>
<a xlink:href="../../d2/ddb/classgaia_1_1base_1_1_string.html" target="_top" xlink:title="A String is represented by array of UTF&#45;16 values, such that Unicode supplementary characters (code p...">
<polygon fill="white" stroke="black" points="1060.5,-80.5 1060.5,-101.5 1153.5,-101.5 1153.5,-80.5 1060.5,-80.5"/>
<text text-anchor="middle" x="1107" y="-88.5" font-family="Helvetica,sans-Serif" font-size="10.00">gaia::base::String</text>
</a>
</g>
<!-- Node14&#45;&gt;Node1 -->
<g id="edge34" class="edge"><title>Node14&#45;&gt;Node1</title>
<path fill="none" stroke="#9a32cd" stroke-dasharray="5,2" d="M1163.96,-87.6226C1201.39,-86.7441 1251.17,-88.1378 1294,-98 1321.17,-104.256 1350.23,-118.407 1368.49,-128.325"/>
<polygon fill="#9a32cd" stroke="#9a32cd" points="1163.64,-84.1305 1153.75,-87.9255 1163.85,-91.1274 1163.64,-84.1305"/>
<text text-anchor="middle" x="1244" y="-154" font-family="Helvetica,sans-Serif" font-size="10.00"> mpContentTicker</text>
<text text-anchor="middle" x="1244" y="-141" font-family="Helvetica,sans-Serif" font-size="10.00">mpContentText</text>
<text text-anchor="middle" x="1244" y="-128" font-family="Helvetica,sans-Serif" font-size="10.00">mpTag</text>
<text text-anchor="middle" x="1244" y="-115" font-family="Helvetica,sans-Serif" font-size="10.00">mpPkg</text>
<text text-anchor="middle" x="1244" y="-102" font-family="Helvetica,sans-Serif" font-size="10.00">mpContentTitle</text>
</g>
<!-- Node15 -->
<g id="node32" class="node"><title>Node15</title>
<a xlink:href="../../d1/d0f/classgaia_1_1base_1_1_char_sequence.html" target="_top" xlink:title="This interface represents an ordered set of characters and defines the methods to probe them...">
<polygon fill="white" stroke="black" points="756,-49.5 756,-70.5 888,-70.5 888,-49.5 756,-49.5"/>
<text text-anchor="middle" x="822" y="-57.5" font-family="Helvetica,sans-Serif" font-size="10.00">gaia::base::CharSequence</text>
</a>
</g>
<!-- Node15&#45;&gt;Node14 -->
<g id="edge36" class="edge"><title>Node15&#45;&gt;Node14</title>
<path fill="none" stroke="midnightblue" d="M898.207,-67.2467C935.026,-70.8631 979.835,-75.4331 1020,-80 1033.01,-81.4792 1047.1,-83.206 1060.07,-84.847"/>
<polygon fill="midnightblue" stroke="midnightblue" points="898.338,-63.7429 888.044,-66.2528 897.656,-70.7096 898.338,-63.7429"/>
</g>
<!-- Node16 -->
<g id="node35" class="node"><title>Node16</title>
<a xlink:href="../../d0/dcf/classgaia_1_1net_1_1_uri.html" target="_top" xlink:title="Immutable URI reference.">
<polygon fill="white" stroke="black" points="1070.5,-40.5 1070.5,-61.5 1143.5,-61.5 1143.5,-40.5 1070.5,-40.5"/>
<text text-anchor="middle" x="1107" y="-48.5" font-family="Helvetica,sans-Serif" font-size="10.00">gaia::net::Uri</text>
</a>
</g>
<!-- Node16&#45;&gt;Node1 -->
<g id="edge40" class="edge"><title>Node16&#45;&gt;Node1</title>
<path fill="none" stroke="#9a32cd" stroke-dasharray="5,2" d="M1154.3,-48.9724C1193.1,-48.8959 1248.81,-52.4818 1294,-70 1328.12,-83.2243 1360.73,-112.52 1376.73,-128.352"/>
<polygon fill="#9a32cd" stroke="#9a32cd" points="1153.79,-45.4775 1143.83,-49.0825 1153.86,-52.4771 1153.79,-45.4775"/>
<text text-anchor="middle" x="1244" y="-74" font-family="Helvetica,sans-Serif" font-size="10.00"> mpSound</text>
</g>
<!-- Node17 -->
<g id="node37" class="node"><title>Node17</title>
<a xlink:href="../../d0/d05/classgaia_1_1core_1_1_context.html" target="_top" xlink:title="Interface to global information about an application environment.">
<polygon fill="white" stroke="black" points="1057,-0.5 1057,-21.5 1157,-21.5 1157,-0.5 1057,-0.5"/>
<text text-anchor="middle" x="1107" y="-8.5" font-family="Helvetica,sans-Serif" font-size="10.00">gaia::core::Context</text>
</a>
</g>
<!-- Node17&#45;&gt;Node1 -->
<g id="edge42" class="edge"><title>Node17&#45;&gt;Node1</title>
<path fill="none" stroke="#9a32cd" stroke-dasharray="5,2" d="M1167.59,-7.34345C1205.87,-7.55654 1255.25,-12.6359 1294,-33 1336.69,-55.4365 1368.75,-106.113 1381.26,-128.28"/>
<polygon fill="#9a32cd" stroke="#9a32cd" points="1167.08,-3.84621 1157.1,-7.40374 1167.12,-10.8461 1167.08,-3.84621"/>
<text text-anchor="middle" x="1244" y="-37" font-family="Helvetica,sans-Serif" font-size="10.00"> mpResContext</text>
</g>
</g>
</svg>
