<?xml version="1.0" encoding="UTF-8" standalone="no"?>
<!DOCTYPE svg PUBLIC "-//W3C//DTD SVG 1.1//EN"
 "http://www.w3.org/Graphics/SVG/1.1/DTD/svg11.dtd">
<!-- Generated by graphviz version 2.26.3 (20100126.1600)
 -->
<!-- Title: G Pages: 1 -->
<svg width="352pt" height="88pt"
 viewBox="0.00 0.00 352.00 88.00" xmlns="http://www.w3.org/2000/svg" xmlns:xlink="http://www.w3.org/1999/xlink">
<g id="graph1" class="graph" transform="scale(1 1) rotate(0) translate(4 84)">
<title>G</title>
<polygon fill="white" stroke="white" points="-4,5 -4,-84 349,-84 349,5 -4,5"/>
<!-- Node1 -->
<g id="node1" class="node"><title>Node1</title>
<polygon fill="#bfbfbf" stroke="black" points="-0.5,-58.5 -0.5,-79.5 344.5,-79.5 344.5,-58.5 -0.5,-58.5"/>
<text text-anchor="middle" x="172" y="-66.5" font-family="Helvetica,sans-Serif" font-size="10.00">/home/vilon_tao/gaia/sdk/include/gaia/core/gesture/ScaleGestureDetector.h</text>
</g>
<!-- Node2 -->
<g id="node3" class="node"><title>Node2</title>
<a xlink:href="../../d1/dd0/gmacros_8h.html" target="_top" xlink:title="gaia/base/gmacros.h">
<polygon fill="white" stroke="black" points="66.5,-0.5 66.5,-21.5 173.5,-21.5 173.5,-0.5 66.5,-0.5"/>
<text text-anchor="middle" x="120" y="-8.5" font-family="Helvetica,sans-Serif" font-size="10.00">gaia/base/gmacros.h</text>
</a>
</g>
<!-- Node1&#45;&gt;Node2 -->
<g id="edge2" class="edge"><title>Node1&#45;&gt;Node2</title>
<path fill="none" stroke="midnightblue" d="M162.462,-58.3619C155.132,-50.1861 144.837,-38.7025 136.219,-29.0907"/>
<polygon fill="midnightblue" stroke="midnightblue" points="138.759,-26.68 129.477,-21.5707 133.547,-31.3528 138.759,-26.68"/>
</g>
<!-- Node3 -->
<g id="node5" class="node"><title>Node3</title>
<polygon fill="white" stroke="#bfbfbf" points="191,-0.5 191,-21.5 259,-21.5 259,-0.5 191,-0.5"/>
<text text-anchor="middle" x="225" y="-8.5" font-family="Helvetica,sans-Serif" font-size="10.00">sys/types.h</text>
</g>
<!-- Node1&#45;&gt;Node3 -->
<g id="edge4" class="edge"><title>Node1&#45;&gt;Node3</title>
<path fill="none" stroke="midnightblue" d="M181.721,-58.3619C189.192,-50.1861 199.686,-38.7025 208.469,-29.0907"/>
<polygon fill="midnightblue" stroke="midnightblue" points="211.179,-31.3138 215.341,-21.5707 206.011,-26.5918 211.179,-31.3138"/>
</g>
</g>
</svg>
