<?xml version="1.0" encoding="UTF-8" standalone="no"?>
<!DOCTYPE svg PUBLIC "-//W3C//DTD SVG 1.1//EN"
 "http://www.w3.org/Graphics/SVG/1.1/DTD/svg11.dtd">
<!-- Generated by graphviz version 2.26.3 (20100126.1600)
 -->
<!-- Title: G Pages: 1 -->
<svg width="335pt" height="146pt"
 viewBox="0.00 0.00 335.00 146.00" xmlns="http://www.w3.org/2000/svg" xmlns:xlink="http://www.w3.org/1999/xlink">
<g id="graph1" class="graph" transform="scale(1 1) rotate(0) translate(4 142)">
<title>G</title>
<polygon fill="white" stroke="white" points="-4,5 -4,-142 332,-142 332,5 -4,5"/>
<!-- Node1 -->
<g id="node1" class="node"><title>Node1</title>
<polygon fill="#bfbfbf" stroke="black" points="-0.5,-116.5 -0.5,-137.5 310.5,-137.5 310.5,-116.5 -0.5,-116.5"/>
<text text-anchor="middle" x="155" y="-124.5" font-family="Helvetica,sans-Serif" font-size="10.00">/home/vilon_tao/gaia/sdk/include/gaia/telephony/GsmCellLocation.h</text>
</g>
<!-- Node2 -->
<g id="node3" class="node"><title>Node2</title>
<polygon fill="white" stroke="#bfbfbf" points="78.5,-58.5 78.5,-79.5 127.5,-79.5 127.5,-58.5 78.5,-58.5"/>
<text text-anchor="middle" x="103" y="-66.5" font-family="Helvetica,sans-Serif" font-size="10.00">stdint.h</text>
</g>
<!-- Node1&#45;&gt;Node2 -->
<g id="edge2" class="edge"><title>Node1&#45;&gt;Node2</title>
<path fill="none" stroke="midnightblue" d="M145.462,-116.362C138.132,-108.186 127.837,-96.7025 119.219,-87.0907"/>
<polygon fill="midnightblue" stroke="midnightblue" points="121.759,-84.68 112.477,-79.5707 116.547,-89.3528 121.759,-84.68"/>
</g>
<!-- Node3 -->
<g id="node5" class="node"><title>Node3</title>
<a xlink:href="../../d1/dd0/gmacros_8h.html" target="_top" xlink:title="gaia/base/gmacros.h">
<polygon fill="white" stroke="black" points="151.5,-0.5 151.5,-21.5 258.5,-21.5 258.5,-0.5 151.5,-0.5"/>
<text text-anchor="middle" x="205" y="-8.5" font-family="Helvetica,sans-Serif" font-size="10.00">gaia/base/gmacros.h</text>
</a>
</g>
<!-- Node1&#45;&gt;Node3 -->
<g id="edge4" class="edge"><title>Node1&#45;&gt;Node3</title>
<path fill="none" stroke="midnightblue" d="M156.85,-116.357C159.501,-102.489 165.068,-77.6883 174,-58 178.448,-48.1943 184.808,-38.125 190.611,-29.8346"/>
<polygon fill="midnightblue" stroke="midnightblue" points="193.524,-31.7801 196.572,-21.6333 187.862,-27.6644 193.524,-31.7801"/>
</g>
<!-- Node4 -->
<g id="node7" class="node"><title>Node4</title>
<a xlink:href="../../d4/d69/_cell_location_8h.html" target="_top" xlink:title="gaia/telephony/CellLocation.h">
<polygon fill="white" stroke="black" points="182.5,-58.5 182.5,-79.5 327.5,-79.5 327.5,-58.5 182.5,-58.5"/>
<text text-anchor="middle" x="255" y="-66.5" font-family="Helvetica,sans-Serif" font-size="10.00">gaia/telephony/CellLocation.h</text>
</a>
</g>
<!-- Node1&#45;&gt;Node4 -->
<g id="edge6" class="edge"><title>Node1&#45;&gt;Node4</title>
<path fill="none" stroke="midnightblue" d="M173.342,-116.362C188.566,-107.532 210.441,-94.844 227.72,-84.8224"/>
<polygon fill="midnightblue" stroke="midnightblue" points="229.88,-87.6155 236.775,-79.5707 226.368,-81.5603 229.88,-87.6155"/>
</g>
<!-- Node4&#45;&gt;Node3 -->
<g id="edge8" class="edge"><title>Node4&#45;&gt;Node3</title>
<path fill="none" stroke="midnightblue" d="M245.829,-58.3619C238.852,-50.2678 229.079,-38.9318 220.844,-29.3796"/>
<polygon fill="midnightblue" stroke="midnightblue" points="223.293,-26.8595 214.113,-21.5707 217.991,-31.4301 223.293,-26.8595"/>
</g>
</g>
</svg>
