<?xml version="1.0" encoding="UTF-8" standalone="no"?>
<!DOCTYPE svg PUBLIC "-//W3C//DTD SVG 1.1//EN"
 "http://www.w3.org/Graphics/SVG/1.1/DTD/svg11.dtd">
<!-- Generated by graphviz version 2.26.3 (20100126.1600)
 -->
<!-- Title: G Pages: 1 -->
<svg width="1016pt" height="1030pt"
 viewBox="0.00 0.00 1016.00 1030.00" xmlns="http://www.w3.org/2000/svg" xmlns:xlink="http://www.w3.org/1999/xlink">
<g id="graph1" class="graph" transform="scale(1 1) rotate(0) translate(4 1026)">
<title>G</title>
<polygon fill="white" stroke="white" points="-4,5 -4,-1026 1013,-1026 1013,5 -4,5"/>
<!-- Node1 -->
<g id="node1" class="node"><title>Node1</title>
<polygon fill="#bfbfbf" stroke="black" points="0.5,-400.5 0.5,-421.5 151.5,-421.5 151.5,-400.5 0.5,-400.5"/>
<text text-anchor="middle" x="76" y="-408.5" font-family="Helvetica,sans-Serif" font-size="10.00">gaia::core::PropertyAnimatable</text>
</g>
<!-- Node2 -->
<g id="node3" class="node"><title>Node2</title>
<a xlink:href="../../d8/dac/classgaia_1_1core_1_1_widget.html" target="_top" xlink:title="The Widget class is the base class of all user interface component.">
<polygon fill="white" stroke="black" points="188,-400.5 188,-421.5 284,-421.5 284,-400.5 188,-400.5"/>
<text text-anchor="middle" x="236" y="-408.5" font-family="Helvetica,sans-Serif" font-size="10.00">gaia::core::Widget</text>
</a>
</g>
<!-- Node1&#45;&gt;Node2 -->
<g id="edge2" class="edge"><title>Node1&#45;&gt;Node2</title>
<path fill="none" stroke="midnightblue" d="M161.86,-411C170.77,-411 179.583,-411 187.852,-411"/>
<polygon fill="midnightblue" stroke="midnightblue" points="161.783,-407.5 151.783,-411 161.783,-414.5 161.783,-407.5"/>
</g>
<!-- Node3 -->
<g id="node5" class="node"><title>Node3</title>
<a xlink:href="../../d2/de8/classgaia_1_1core_1_1_surface_widget.html" target="_top" xlink:title="gaia::core::SurfaceWidget">
<polygon fill="white" stroke="black" points="339,-960.5 339,-981.5 469,-981.5 469,-960.5 339,-960.5"/>
<text text-anchor="middle" x="404" y="-968.5" font-family="Helvetica,sans-Serif" font-size="10.00">gaia::core::SurfaceWidget</text>
</a>
</g>
<!-- Node2&#45;&gt;Node3 -->
<g id="edge4" class="edge"><title>Node2&#45;&gt;Node3</title>
<path fill="none" stroke="midnightblue" d="M242.12,-431.401C269.506,-522.687 380.347,-892.157 400.76,-960.201"/>
<polygon fill="midnightblue" stroke="midnightblue" points="245.432,-430.259 239.206,-421.687 238.727,-432.271 245.432,-430.259"/>
</g>
<!-- Node6 -->
<g id="node11" class="node"><title>Node6</title>
<a xlink:href="../../de/db6/classgaia_1_1core_1_1_texture_widget.html" target="_top" xlink:title="gaia::core::TextureWidget">
<polygon fill="white" stroke="black" points="339.5,-600.5 339.5,-621.5 468.5,-621.5 468.5,-600.5 339.5,-600.5"/>
<text text-anchor="middle" x="404" y="-608.5" font-family="Helvetica,sans-Serif" font-size="10.00">gaia::core::TextureWidget</text>
</a>
</g>
<!-- Node2&#45;&gt;Node6 -->
<g id="edge10" class="edge"><title>Node2&#45;&gt;Node6</title>
<path fill="none" stroke="midnightblue" d="M239.606,-431.792C247.286,-469.556 268.912,-549.352 320,-591 325.693,-595.641 332.285,-599.239 339.222,-602.022"/>
<polygon fill="midnightblue" stroke="midnightblue" points="243.034,-431.083 237.725,-421.914 236.158,-432.393 243.034,-431.083"/>
</g>
<!-- Node7 -->
<g id="node13" class="node"><title>Node7</title>
<a xlink:href="../../db/d6c/classgaia_1_1core_1_1_widget_controller.html" target="_top" xlink:title="Define the default widget layout to put sets of layout in it.">
<polygon fill="white" stroke="black" points="335,-560.5 335,-581.5 473,-581.5 473,-560.5 335,-560.5"/>
<text text-anchor="middle" x="404" y="-568.5" font-family="Helvetica,sans-Serif" font-size="10.00">gaia::core::WidgetController</text>
</a>
</g>
<!-- Node2&#45;&gt;Node7 -->
<g id="edge12" class="edge"><title>Node2&#45;&gt;Node7</title>
<path fill="none" stroke="midnightblue" d="M249.528,-429.82C265.167,-450.884 292.322,-485.411 320,-511 341.187,-530.587 368.948,-549.269 386.635,-560.437"/>
<polygon fill="midnightblue" stroke="midnightblue" points="252.298,-427.678 243.563,-421.682 246.652,-431.816 252.298,-427.678"/>
</g>
<!-- Node33 -->
<g id="node65" class="node"><title>Node33</title>
<a xlink:href="../../d7/d73/classgaia_1_1core_1_1_widget_replacer.html" target="_top" xlink:title="gaia::core::WidgetReplacer">
<polygon fill="white" stroke="black" points="336.5,-480.5 336.5,-501.5 471.5,-501.5 471.5,-480.5 336.5,-480.5"/>
<text text-anchor="middle" x="404" y="-488.5" font-family="Helvetica,sans-Serif" font-size="10.00">gaia::core::WidgetReplacer</text>
</a>
</g>
<!-- Node2&#45;&gt;Node33 -->
<g id="edge64" class="edge"><title>Node2&#45;&gt;Node33</title>
<path fill="none" stroke="midnightblue" d="M255.289,-428.114C271.498,-441.635 295.83,-460.003 320,-471 328.323,-474.787 337.45,-477.905 346.523,-480.458"/>
<polygon fill="midnightblue" stroke="midnightblue" points="257.476,-425.379 247.598,-421.549 252.932,-430.703 257.476,-425.379"/>
</g>
<!-- Node34 -->
<g id="node67" class="node"><title>Node34</title>
<a xlink:href="../../db/d6b/classgaia_1_1service_1_1_i_m_e_keyboard_widget.html" target="_top" xlink:title="A widget that renders a virtual Keyboard.">
<polygon fill="white" stroke="black" points="320,-440.5 320,-461.5 488,-461.5 488,-440.5 320,-440.5"/>
<text text-anchor="middle" x="404" y="-448.5" font-family="Helvetica,sans-Serif" font-size="10.00">gaia::service::IMEKeyboardWidget</text>
</a>
</g>
<!-- Node2&#45;&gt;Node34 -->
<g id="edge66" class="edge"><title>Node2&#45;&gt;Node34</title>
<path fill="none" stroke="midnightblue" d="M289.922,-423.839C312.509,-429.216 338.438,-435.39 359.863,-440.491"/>
<polygon fill="midnightblue" stroke="midnightblue" points="290.679,-420.421 280.14,-421.51 289.057,-427.231 290.679,-420.421"/>
</g>
<!-- Node35 -->
<g id="node69" class="node"><title>Node35</title>
<a xlink:href="../../d6/df1/classgaia_1_1ui_1_1_action_bar_widget.html" target="_top" xlink:title="You can customize another ActionBar by the ActionBarWidget.">
<polygon fill="white" stroke="black" points="340,-400.5 340,-421.5 468,-421.5 468,-400.5 340,-400.5"/>
<text text-anchor="middle" x="404" y="-408.5" font-family="Helvetica,sans-Serif" font-size="10.00">gaia::ui::ActionBarWidget</text>
</a>
</g>
<!-- Node2&#45;&gt;Node35 -->
<g id="edge68" class="edge"><title>Node2&#45;&gt;Node35</title>
<path fill="none" stroke="midnightblue" d="M294.144,-411C308.901,-411 324.838,-411 339.873,-411"/>
<polygon fill="midnightblue" stroke="midnightblue" points="294.142,-407.5 284.142,-411 294.142,-414.5 294.142,-407.5"/>
</g>
<!-- Node36 -->
<g id="node71" class="node"><title>Node36</title>
<a xlink:href="../../dc/ded/classgaia_1_1ui_1_1_chronometer.html" target="_top" xlink:title="Represents a push&#45;Chronometer widget.">
<polygon fill="white" stroke="black" points="349,-360.5 349,-381.5 459,-381.5 459,-360.5 349,-360.5"/>
<text text-anchor="middle" x="404" y="-368.5" font-family="Helvetica,sans-Serif" font-size="10.00">gaia::ui::Chronometer</text>
</a>
</g>
<!-- Node2&#45;&gt;Node36 -->
<g id="edge70" class="edge"><title>Node2&#45;&gt;Node36</title>
<path fill="none" stroke="midnightblue" d="M289.922,-398.161C312.509,-392.784 338.438,-386.61 359.863,-381.509"/>
<polygon fill="midnightblue" stroke="midnightblue" points="289.057,-394.769 280.14,-400.49 290.679,-401.579 289.057,-394.769"/>
</g>
<!-- Node37 -->
<g id="node73" class="node"><title>Node37</title>
<a xlink:href="../../d3/daf/classgaia_1_1ui_1_1_combo_picker.html" target="_top" xlink:title="A widget that displays one child at a time and lets the user pick among them.">
<polygon fill="white" stroke="black" points="347.5,-320.5 347.5,-341.5 460.5,-341.5 460.5,-320.5 347.5,-320.5"/>
<text text-anchor="middle" x="404" y="-328.5" font-family="Helvetica,sans-Serif" font-size="10.00">gaia::ui::ComboPicker</text>
</a>
</g>
<!-- Node2&#45;&gt;Node37 -->
<g id="edge72" class="edge"><title>Node2&#45;&gt;Node37</title>
<path fill="none" stroke="midnightblue" d="M255.289,-393.886C271.498,-380.365 295.83,-361.997 320,-351 328.596,-347.089 338.049,-343.891 347.416,-341.293"/>
<polygon fill="midnightblue" stroke="midnightblue" points="252.932,-391.297 247.598,-400.451 257.476,-396.621 252.932,-391.297"/>
</g>
<!-- Node38 -->
<g id="node75" class="node"><title>Node38</title>
<a xlink:href="../../df/d77/classgaia_1_1ui_1_1_image_widget.html" target="_top" xlink:title="Displays an arbitrary image, such as an icon.">
<polygon fill="white" stroke="black" points="348,-240.5 348,-261.5 460,-261.5 460,-240.5 348,-240.5"/>
<text text-anchor="middle" x="404" y="-248.5" font-family="Helvetica,sans-Serif" font-size="10.00">gaia::ui::ImageWidget</text>
</a>
</g>
<!-- Node2&#45;&gt;Node38 -->
<g id="edge74" class="edge"><title>Node2&#45;&gt;Node38</title>
<path fill="none" stroke="midnightblue" d="M249.528,-392.18C265.167,-371.116 292.322,-336.589 320,-311 341.187,-291.413 368.948,-272.731 386.635,-261.563"/>
<polygon fill="midnightblue" stroke="midnightblue" points="246.652,-390.184 243.563,-400.318 252.298,-394.322 246.652,-390.184"/>
</g>
<!-- Node41 -->
<g id="node81" class="node"><title>Node41</title>
<a xlink:href="../../db/d7a/classgaia_1_1ui_1_1_progress_bar.html" target="_top" xlink:title="Visual indicator of progress in some operation.">
<polygon fill="white" stroke="black" points="350,-180.5 350,-201.5 458,-201.5 458,-180.5 350,-180.5"/>
<text text-anchor="middle" x="404" y="-188.5" font-family="Helvetica,sans-Serif" font-size="10.00">gaia::ui::ProgressBar</text>
</a>
</g>
<!-- Node2&#45;&gt;Node41 -->
<g id="edge80" class="edge"><title>Node2&#45;&gt;Node41</title>
<path fill="none" stroke="midnightblue" d="M240.756,-390.209C250.083,-353.655 273.994,-277.366 320,-231 333.425,-217.47 352.32,-207.915 368.791,-201.544"/>
<polygon fill="midnightblue" stroke="midnightblue" points="237.288,-389.655 238.321,-400.2 244.089,-391.313 237.288,-389.655"/>
</g>
<!-- Node45 -->
<g id="node89" class="node"><title>Node45</title>
<a xlink:href="../../d9/d0f/classgaia_1_1ui_1_1_text_widget.html" target="_top" xlink:title="Displays text to the user and optionally allows them to edit it.">
<polygon fill="white" stroke="black" points="352,-80.5 352,-101.5 456,-101.5 456,-80.5 352,-80.5"/>
<text text-anchor="middle" x="404" y="-88.5" font-family="Helvetica,sans-Serif" font-size="10.00">gaia::ui::TextWidget</text>
</a>
</g>
<!-- Node2&#45;&gt;Node45 -->
<g id="edge88" class="edge"><title>Node2&#45;&gt;Node45</title>
<path fill="none" stroke="midnightblue" d="M239.831,-390.185C248.55,-346.658 272.867,-244.014 320,-171 338.896,-141.729 370.614,-115.485 389.195,-101.545"/>
<polygon fill="midnightblue" stroke="midnightblue" points="236.367,-389.666 237.904,-400.149 243.239,-390.995 236.367,-389.666"/>
</g>
<!-- Node4 -->
<g id="node7" class="node"><title>Node4</title>
<a xlink:href="../../d1/de7/classgaia_1_1core_1_1_g_l_surface_widget.html" target="_top" xlink:title="gaia::core::GLSurfaceWidget">
<polygon fill="white" stroke="black" points="535.5,-1000.5 535.5,-1021.5 678.5,-1021.5 678.5,-1000.5 535.5,-1000.5"/>
<text text-anchor="middle" x="607" y="-1008.5" font-family="Helvetica,sans-Serif" font-size="10.00">gaia::core::GLSurfaceWidget</text>
</a>
</g>
<!-- Node3&#45;&gt;Node4 -->
<g id="edge6" class="edge"><title>Node3&#45;&gt;Node4</title>
<path fill="none" stroke="midnightblue" d="M467.326,-983.478C495.041,-988.939 527.199,-995.276 553.668,-1000.49"/>
<polygon fill="midnightblue" stroke="midnightblue" points="467.824,-980.009 457.336,-981.51 466.471,-986.877 467.824,-980.009"/>
</g>
<!-- Node5 -->
<g id="node9" class="node"><title>Node5</title>
<a xlink:href="../../da/de0/classgaia_1_1ui_1_1_video_widget.html" target="_top" xlink:title="Displays a video file.">
<polygon fill="white" stroke="black" points="552,-960.5 552,-981.5 662,-981.5 662,-960.5 552,-960.5"/>
<text text-anchor="middle" x="607" y="-968.5" font-family="Helvetica,sans-Serif" font-size="10.00">gaia::ui::VideoWidget</text>
</a>
</g>
<!-- Node3&#45;&gt;Node5 -->
<g id="edge8" class="edge"><title>Node3&#45;&gt;Node5</title>
<path fill="none" stroke="midnightblue" d="M479.235,-971C503.299,-971 529.479,-971 551.838,-971"/>
<polygon fill="midnightblue" stroke="midnightblue" points="479.068,-967.5 469.068,-971 479.068,-974.5 479.068,-967.5"/>
</g>
<!-- Node8 -->
<g id="node15" class="node"><title>Node8</title>
<a xlink:href="../../d2/dc3/classgaia_1_1core_1_1_app_widget_host_widget.html" target="_top" xlink:title="Provides the glue to show AppWidget widgets.">
<polygon fill="white" stroke="black" points="524.5,-920.5 524.5,-941.5 689.5,-941.5 689.5,-920.5 524.5,-920.5"/>
<text text-anchor="middle" x="607" y="-928.5" font-family="Helvetica,sans-Serif" font-size="10.00">gaia::core::AppWidgetHostWidget</text>
</a>
</g>
<!-- Node7&#45;&gt;Node8 -->
<g id="edge14" class="edge"><title>Node7&#45;&gt;Node8</title>
<path fill="none" stroke="midnightblue" d="M482.045,-585.374C484.178,-587.068 486.174,-588.937 488,-591 582.858,-698.168 429.287,-803.703 524,-911 527.335,-914.778 531.248,-917.906 535.527,-920.488"/>
<polygon fill="midnightblue" stroke="midnightblue" points="483.512,-582.156 473.211,-579.678 479.718,-588.039 483.512,-582.156"/>
</g>
<!-- Node9 -->
<g id="node17" class="node"><title>Node9</title>
<a xlink:href="../../db/d13/classgaia_1_1core_1_1_gesture_controller.html" target="_top" xlink:title="A transparent overlay for gesture input that can be placed on top of other widgets or contain other w...">
<polygon fill="white" stroke="black" points="536,-880.5 536,-901.5 678,-901.5 678,-880.5 536,-880.5"/>
<text text-anchor="middle" x="607" y="-888.5" font-family="Helvetica,sans-Serif" font-size="10.00">gaia::core::GestureController</text>
</a>
</g>
<!-- Node7&#45;&gt;Node9 -->
<g id="edge16" class="edge"><title>Node7&#45;&gt;Node9</title>
<path fill="none" stroke="midnightblue" d="M482.003,-585.412C484.148,-587.095 486.158,-588.952 488,-591 571.901,-684.29 440.225,-777.596 524,-871 527.464,-874.862 531.532,-878.042 535.974,-880.654"/>
<polygon fill="midnightblue" stroke="midnightblue" points="483.444,-582.18 473.133,-579.748 479.677,-588.079 483.444,-582.18"/>
</g>
<!-- Node10 -->
<g id="node19" class="node"><title>Node10</title>
<a xlink:href="../../d9/d1a/classgaia_1_1ui_1_1_abs_list_widget.html" target="_top" xlink:title="This is an abstract class for List/Grid ui components.">
<polygon fill="white" stroke="black" points="548,-840.5 548,-861.5 666,-861.5 666,-840.5 548,-840.5"/>
<text text-anchor="middle" x="607" y="-848.5" font-family="Helvetica,sans-Serif" font-size="10.00">gaia::ui::AbsListWidget</text>
</a>
</g>
<!-- Node7&#45;&gt;Node10 -->
<g id="edge18" class="edge"><title>Node7&#45;&gt;Node10</title>
<path fill="none" stroke="midnightblue" d="M481.947,-585.462C484.108,-587.131 486.137,-588.971 488,-591 560.965,-670.435 451.143,-751.466 524,-831 530.408,-837.995 538.799,-842.742 547.782,-845.929"/>
<polygon fill="midnightblue" stroke="midnightblue" points="483.356,-582.213 473.03,-579.841 479.623,-588.134 483.356,-582.213"/>
</g>
<!-- Node12 -->
<g id="node23" class="node"><title>Node12</title>
<a xlink:href="../../df/d55/classgaia_1_1ui_1_1_absolute_controller.html" target="_top" xlink:title="A layout that lets you specify exact locations (x/y coordinates) of its children.">
<polygon fill="white" stroke="black" points="540,-800.5 540,-821.5 674,-821.5 674,-800.5 540,-800.5"/>
<text text-anchor="middle" x="607" y="-808.5" font-family="Helvetica,sans-Serif" font-size="10.00">gaia::ui::AbsoluteController</text>
</a>
</g>
<!-- Node7&#45;&gt;Node12 -->
<g id="edge22" class="edge"><title>Node7&#45;&gt;Node12</title>
<path fill="none" stroke="midnightblue" d="M482.027,-585.651C484.151,-587.268 486.152,-589.046 488,-591 550.063,-656.616 462.027,-725.3 524,-791 528.475,-795.744 533.864,-799.448 539.72,-802.33"/>
<polygon fill="midnightblue" stroke="midnightblue" points="483.622,-582.52 473.289,-580.177 479.905,-588.452 483.622,-582.52"/>
</g>
<!-- Node14 -->
<g id="node27" class="node"><title>Node14</title>
<a xlink:href="../../d1/d9e/classgaia_1_1ui_1_1_date_picker.html" target="_top" xlink:title="This class is a widget for selecting a date.">
<polygon fill="white" stroke="black" points="555.5,-760.5 555.5,-781.5 658.5,-781.5 658.5,-760.5 555.5,-760.5"/>
<text text-anchor="middle" x="607" y="-768.5" font-family="Helvetica,sans-Serif" font-size="10.00">gaia::ui::DatePicker</text>
</a>
</g>
<!-- Node7&#45;&gt;Node14 -->
<g id="edge26" class="edge"><title>Node7&#45;&gt;Node14</title>
<path fill="none" stroke="midnightblue" d="M481.918,-585.756C484.073,-587.344 486.11,-589.087 488,-591 539.219,-642.86 472.851,-699.071 524,-751 532.425,-759.554 543.828,-764.697 555.481,-767.731"/>
<polygon fill="midnightblue" stroke="midnightblue" points="483.448,-582.589 473.087,-580.372 479.804,-588.566 483.448,-582.589"/>
</g>
<!-- Node15 -->
<g id="node29" class="node"><title>Node15</title>
<a xlink:href="../../d5/d48/classgaia_1_1ui_1_1_footer.html" target="_top" xlink:title="From your page, you can retrieve an instance of Footer by calling ActionBar.getFooter().">
<polygon fill="white" stroke="black" points="566,-720.5 566,-741.5 648,-741.5 648,-720.5 566,-720.5"/>
<text text-anchor="middle" x="607" y="-728.5" font-family="Helvetica,sans-Serif" font-size="10.00">gaia::ui::Footer</text>
</a>
</g>
<!-- Node7&#45;&gt;Node15 -->
<g id="edge28" class="edge"><title>Node7&#45;&gt;Node15</title>
<path fill="none" stroke="midnightblue" d="M481.908,-586.044C484.053,-587.551 486.092,-589.199 488,-591 528.492,-629.22 483.559,-672.725 524,-711 535.196,-721.596 550.993,-726.884 565.806,-729.427"/>
<polygon fill="midnightblue" stroke="midnightblue" points="483.568,-582.959 473.175,-580.897 480.014,-588.989 483.568,-582.959"/>
</g>
<!-- Node16 -->
<g id="node31" class="node"><title>Node16</title>
<a xlink:href="../../d6/d8d/classgaia_1_1ui_1_1_frame_controller.html" target="_top" xlink:title="FrameController is designed to block out an area on the screen to display a single item...">
<polygon fill="white" stroke="black" points="545,-680.5 545,-701.5 669,-701.5 669,-680.5 545,-680.5"/>
<text text-anchor="middle" x="607" y="-688.5" font-family="Helvetica,sans-Serif" font-size="10.00">gaia::ui::FrameController</text>
</a>
</g>
<!-- Node7&#45;&gt;Node16 -->
<g id="edge30" class="edge"><title>Node7&#45;&gt;Node16</title>
<path fill="none" stroke="midnightblue" d="M481.611,-586.38C483.84,-587.792 485.978,-589.328 488,-591 518.05,-615.844 493.984,-646.116 524,-671 530.048,-676.014 537.149,-679.809 544.608,-682.675"/>
<polygon fill="midnightblue" stroke="midnightblue" points="483.081,-583.196 472.618,-581.527 479.757,-589.356 483.081,-583.196"/>
</g>
<!-- Node19 -->
<g id="node37" class="node"><title>Node19</title>
<a xlink:href="../../d1/dfa/classgaia_1_1ui_1_1_gallery.html" target="_top" xlink:title="A class that shows items in a center&#45;locked, horizontally scrolling list.">
<polygon fill="white" stroke="black" points="564.5,-640.5 564.5,-661.5 649.5,-661.5 649.5,-640.5 564.5,-640.5"/>
<text text-anchor="middle" x="607" y="-648.5" font-family="Helvetica,sans-Serif" font-size="10.00">gaia::ui::Gallery</text>
</a>
</g>
<!-- Node7&#45;&gt;Node19 -->
<g id="edge36" class="edge"><title>Node7&#45;&gt;Node19</title>
<path fill="none" stroke="midnightblue" d="M476.564,-585.212C480.532,-586.926 484.375,-588.847 488,-591 508.565,-603.212 503.452,-618.76 524,-631 536.098,-638.206 550.646,-642.818 564.161,-645.769"/>
<polygon fill="midnightblue" stroke="midnightblue" points="477.709,-581.902 467.119,-581.575 475.193,-588.435 477.709,-581.902"/>
</g>
<!-- Node20 -->
<g id="node39" class="node"><title>Node20</title>
<a xlink:href="../../d1/d7c/classgaia_1_1ui_1_1_grid_controller.html" target="_top" xlink:title="A layout that places its children in a rectangular grid.">
<polygon fill="white" stroke="black" points="550,-600.5 550,-621.5 664,-621.5 664,-600.5 550,-600.5"/>
<text text-anchor="middle" x="607" y="-608.5" font-family="Helvetica,sans-Serif" font-size="10.00">gaia::ui::GridController</text>
</a>
</g>
<!-- Node7&#45;&gt;Node20 -->
<g id="edge38" class="edge"><title>Node7&#45;&gt;Node20</title>
<path fill="none" stroke="midnightblue" d="M467.326,-583.478C495.041,-588.939 527.199,-595.276 553.668,-600.491"/>
<polygon fill="midnightblue" stroke="midnightblue" points="467.824,-580.009 457.336,-581.51 466.471,-586.877 467.824,-580.009"/>
</g>
<!-- Node21 -->
<g id="node41" class="node"><title>Node21</title>
<a xlink:href="../../da/d1d/classgaia_1_1ui_1_1_linear_controller.html" target="_top" xlink:title="A Layout that arranges its children in a single column or a single row.">
<polygon fill="white" stroke="black" points="546,-560.5 546,-581.5 668,-581.5 668,-560.5 546,-560.5"/>
<text text-anchor="middle" x="607" y="-568.5" font-family="Helvetica,sans-Serif" font-size="10.00">gaia::ui::LinearController</text>
</a>
</g>
<!-- Node7&#45;&gt;Node21 -->
<g id="edge40" class="edge"><title>Node7&#45;&gt;Node21</title>
<path fill="none" stroke="midnightblue" d="M483.139,-571C504.023,-571 526.237,-571 546,-571"/>
<polygon fill="midnightblue" stroke="midnightblue" points="483.01,-567.5 473.01,-571 483.01,-574.5 483.01,-567.5"/>
</g>
<!-- Node25 -->
<g id="node49" class="node"><title>Node25</title>
<a xlink:href="../../da/d3a/classgaia_1_1ui_1_1_number_picker.html" target="_top" xlink:title="A widget that enables the user to select a number form a predefined range.">
<polygon fill="white" stroke="black" points="549,-520.5 549,-541.5 665,-541.5 665,-520.5 549,-520.5"/>
<text text-anchor="middle" x="607" y="-528.5" font-family="Helvetica,sans-Serif" font-size="10.00">gaia::ui::NumberPicker</text>
</a>
</g>
<!-- Node7&#45;&gt;Node25 -->
<g id="edge48" class="edge"><title>Node7&#45;&gt;Node25</title>
<path fill="none" stroke="midnightblue" d="M467.326,-558.522C495.041,-553.061 527.199,-546.724 553.668,-541.509"/>
<polygon fill="midnightblue" stroke="midnightblue" points="466.471,-555.123 457.336,-560.49 467.824,-561.991 466.471,-555.123"/>
</g>
<!-- Node26 -->
<g id="node51" class="node"><title>Node26</title>
<a xlink:href="../../d7/d42/classgaia_1_1ui_1_1_pager_tab_strip.html" target="_top" xlink:title="PagerTabStrip is an interactive indicator of the current, next, and previous pages of a WidgetPager...">
<polygon fill="white" stroke="black" points="549,-480.5 549,-501.5 665,-501.5 665,-480.5 549,-480.5"/>
<text text-anchor="middle" x="607" y="-488.5" font-family="Helvetica,sans-Serif" font-size="10.00">gaia::ui::PagerTabStrip</text>
</a>
</g>
<!-- Node7&#45;&gt;Node26 -->
<g id="edge50" class="edge"><title>Node7&#45;&gt;Node26</title>
<path fill="none" stroke="midnightblue" d="M430.93,-555.309C454.748,-541.979 490.777,-523.129 524,-511 533.886,-507.391 544.672,-504.245 555.099,-501.584"/>
<polygon fill="midnightblue" stroke="midnightblue" points="429.101,-552.323 422.126,-560.297 432.552,-558.413 429.101,-552.323"/>
</g>
<!-- Node27 -->
<g id="node53" class="node"><title>Node27</title>
<a xlink:href="../../d8/d8a/classgaia_1_1ui_1_1_relative_controller.html" target="_top" xlink:title="A Layout where the positions of the children can be described in relation to each other or to the par...">
<polygon fill="white" stroke="black" points="541,-440.5 541,-461.5 673,-461.5 673,-440.5 541,-440.5"/>
<text text-anchor="middle" x="607" y="-448.5" font-family="Helvetica,sans-Serif" font-size="10.00">gaia::ui::RelativeController</text>
</a>
</g>
<!-- Node7&#45;&gt;Node27 -->
<g id="edge52" class="edge"><title>Node7&#45;&gt;Node27</title>
<path fill="none" stroke="midnightblue" d="M429.35,-554.999C446.603,-543.614 469.562,-527.471 488,-511 505.837,-495.066 503.452,-483.24 524,-471 530.367,-467.207 537.413,-464.133 544.63,-461.642"/>
<polygon fill="midnightblue" stroke="midnightblue" points="427.375,-552.108 420.902,-560.495 431.192,-557.976 427.375,-552.108"/>
</g>
<!-- Node29 -->
<g id="node57" class="node"><title>Node29</title>
<a xlink:href="../../da/d88/classgaia_1_1ui_1_1_scroll_widget.html" target="_top" xlink:title="Layout container for a view hierarchy that can be scrolled by the user, allowing it to be larger than...">
<polygon fill="white" stroke="black" points="552,-400.5 552,-421.5 662,-421.5 662,-400.5 552,-400.5"/>
<text text-anchor="middle" x="607" y="-408.5" font-family="Helvetica,sans-Serif" font-size="10.00">gaia::ui::ScrollWidget</text>
</a>
</g>
<!-- Node7&#45;&gt;Node29 -->
<g id="edge56" class="edge"><title>Node7&#45;&gt;Node29</title>
<path fill="none" stroke="midnightblue" d="M433.479,-555.281C451.14,-544.673 473.003,-529.293 488,-511 512.719,-480.848 493.984,-455.884 524,-431 531.988,-424.378 541.813,-419.882 551.873,-416.845"/>
<polygon fill="midnightblue" stroke="midnightblue" points="431.578,-552.337 424.684,-560.383 435.09,-558.392 431.578,-552.337"/>
</g>
<!-- Node30 -->
<g id="node59" class="node"><title>Node30</title>
<a xlink:href="../../d3/d8a/classgaia_1_1ui_1_1_tab_page_controller.html" target="_top" xlink:title="A layout that associates with fragments.">
<polygon fill="white" stroke="black" points="539.5,-360.5 539.5,-381.5 674.5,-381.5 674.5,-360.5 539.5,-360.5"/>
<text text-anchor="middle" x="607" y="-368.5" font-family="Helvetica,sans-Serif" font-size="10.00">gaia::ui::TabPageController</text>
</a>
</g>
<!-- Node7&#45;&gt;Node30 -->
<g id="edge58" class="edge"><title>Node7&#45;&gt;Node30</title>
<path fill="none" stroke="midnightblue" d="M435.396,-555.339C453.18,-544.993 474.503,-529.866 488,-511 520.398,-465.714 483.559,-429.275 524,-391 528.521,-386.721 533.793,-383.307 539.448,-380.591"/>
<polygon fill="midnightblue" stroke="midnightblue" points="433.51,-552.383 426.478,-560.308 436.917,-558.498 433.51,-552.383"/>
</g>
<!-- Node31 -->
<g id="node61" class="node"><title>Node31</title>
<a xlink:href="../../db/d31/classgaia_1_1ui_1_1_time_picker.html" target="_top" xlink:title="A view for selecting the time of day, in either 24 hour or AM/PM mode.">
<polygon fill="white" stroke="black" points="555,-320.5 555,-341.5 659,-341.5 659,-320.5 555,-320.5"/>
<text text-anchor="middle" x="607" y="-328.5" font-family="Helvetica,sans-Serif" font-size="10.00">gaia::ui::TimePicker</text>
</a>
</g>
<!-- Node7&#45;&gt;Node31 -->
<g id="edge60" class="edge"><title>Node7&#45;&gt;Node31</title>
<path fill="none" stroke="midnightblue" d="M436.242,-555.475C454.123,-545.25 475.257,-530.201 488,-511 528.306,-450.269 472.851,-402.929 524,-351 532.217,-342.658 543.267,-337.56 554.618,-334.498"/>
<polygon fill="midnightblue" stroke="midnightblue" points="434.353,-552.518 427.249,-560.378 437.704,-558.664 434.353,-552.518"/>
</g>
<!-- Node32 -->
<g id="node63" class="node"><title>Node32</title>
<a xlink:href="../../d5/d3c/classgaia_1_1ui_1_1_widget_pager.html" target="_top" xlink:title="WidgetPager that allows the user to flip left and right through pages of data.">
<polygon fill="white" stroke="black" points="552,-280.5 552,-301.5 662,-301.5 662,-280.5 552,-280.5"/>
<text text-anchor="middle" x="607" y="-288.5" font-family="Helvetica,sans-Serif" font-size="10.00">gaia::ui::WidgetPager</text>
</a>
</g>
<!-- Node7&#45;&gt;Node32 -->
<g id="edge62" class="edge"><title>Node7&#45;&gt;Node32</title>
<path fill="none" stroke="midnightblue" d="M436.91,-555.474C454.818,-545.321 475.756,-530.343 488,-511 536.305,-434.686 462.027,-376.7 524,-311 531.425,-303.129 541.364,-298.121 551.78,-294.982"/>
<polygon fill="midnightblue" stroke="midnightblue" points="435.024,-552.514 427.883,-560.341 438.347,-558.676 435.024,-552.514"/>
</g>
<!-- Node11 -->
<g id="node21" class="node"><title>Node11</title>
<a xlink:href="../../d7/df3/classgaia_1_1ui_1_1_grid_widget.html" target="_top" xlink:title="It has implements the drawing of a special list item separator for Rosie style list view...">
<polygon fill="white" stroke="black" points="815.5,-840.5 815.5,-861.5 918.5,-861.5 918.5,-840.5 815.5,-840.5"/>
<text text-anchor="middle" x="867" y="-848.5" font-family="Helvetica,sans-Serif" font-size="10.00">gaia::ui::GridWidget</text>
</a>
</g>
<!-- Node10&#45;&gt;Node11 -->
<g id="edge20" class="edge"><title>Node10&#45;&gt;Node11</title>
<path fill="none" stroke="midnightblue" d="M676.588,-851C720.265,-851 775.642,-851 815.402,-851"/>
<polygon fill="midnightblue" stroke="midnightblue" points="676.323,-847.5 666.323,-851 676.323,-854.5 676.323,-847.5"/>
</g>
<!-- Node13 -->
<g id="node25" class="node"><title>Node13</title>
<a xlink:href="../../d7/d73/classgaia_1_1webkit_1_1_web_view.html" target="_top" xlink:title="gaia::webkit::WebView">
<polygon fill="white" stroke="black" points="808.5,-800.5 808.5,-821.5 925.5,-821.5 925.5,-800.5 808.5,-800.5"/>
<text text-anchor="middle" x="867" y="-808.5" font-family="Helvetica,sans-Serif" font-size="10.00">gaia::webkit::WebView</text>
</a>
</g>
<!-- Node12&#45;&gt;Node13 -->
<g id="edge24" class="edge"><title>Node12&#45;&gt;Node13</title>
<path fill="none" stroke="midnightblue" d="M684.475,-811C724.188,-811 771.764,-811 808.385,-811"/>
<polygon fill="midnightblue" stroke="midnightblue" points="684.295,-807.5 674.295,-811 684.295,-814.5 684.295,-807.5"/>
</g>
<!-- Node17 -->
<g id="node33" class="node"><title>Node17</title>
<a xlink:href="../../df/d4c/classgaia_1_1ui_1_1_media_control.html" target="_top" xlink:title="A view containing controls for a MediaPlayer.">
<polygon fill="white" stroke="black" points="811,-700.5 811,-721.5 923,-721.5 923,-700.5 811,-700.5"/>
<text text-anchor="middle" x="867" y="-708.5" font-family="Helvetica,sans-Serif" font-size="10.00">gaia::ui::MediaControl</text>
</a>
</g>
<!-- Node16&#45;&gt;Node17 -->
<g id="edge32" class="edge"><title>Node16&#45;&gt;Node17</title>
<path fill="none" stroke="midnightblue" d="M679.356,-696.566C720.974,-699.767 772.475,-703.729 810.988,-706.691"/>
<polygon fill="midnightblue" stroke="midnightblue" points="679.515,-693.068 669.276,-695.79 678.979,-700.047 679.515,-693.068"/>
</g>
<!-- Node18 -->
<g id="node35" class="node"><title>Node18</title>
<a xlink:href="../../d4/d9a/classgaia_1_1ui_1_1_widget_animator.html" target="_top" xlink:title="Base class for a FrameController container that will perform animations when switching between its vi...">
<polygon fill="white" stroke="red" points="805,-660.5 805,-681.5 929,-681.5 929,-660.5 805,-660.5"/>
<text text-anchor="middle" x="867" y="-668.5" font-family="Helvetica,sans-Serif" font-size="10.00">gaia::ui::WidgetAnimator</text>
</a>
</g>
<!-- Node16&#45;&gt;Node18 -->
<g id="edge34" class="edge"><title>Node16&#45;&gt;Node18</title>
<path fill="none" stroke="midnightblue" d="M679.356,-685.434C718.776,-682.402 767.063,-678.687 804.782,-675.786"/>
<polygon fill="midnightblue" stroke="midnightblue" points="678.979,-681.953 669.276,-686.21 679.515,-688.932 678.979,-681.953"/>
</g>
<!-- Node22 -->
<g id="node43" class="node"><title>Node22</title>
<a xlink:href="../../de/d48/classgaia_1_1ui_1_1_action_drop_down_widget.html" target="_top" xlink:title="The ActionDropDownWidget includes a title, a subtitle, an arrow and contents.">
<polygon fill="white" stroke="black" points="787.5,-600.5 787.5,-621.5 946.5,-621.5 946.5,-600.5 787.5,-600.5"/>
<text text-anchor="middle" x="867" y="-608.5" font-family="Helvetica,sans-Serif" font-size="10.00">gaia::ui::ActionDropDownWidget</text>
</a>
</g>
<!-- Node21&#45;&gt;Node22 -->
<g id="edge42" class="edge"><title>Node21&#45;&gt;Node22</title>
<path fill="none" stroke="midnightblue" d="M678.021,-583.242C693.804,-585.878 710.461,-588.593 726,-591 746.768,-594.218 769.289,-597.503 790.11,-600.457"/>
<polygon fill="midnightblue" stroke="midnightblue" points="678.237,-579.73 667.796,-581.526 677.078,-586.633 678.237,-579.73"/>
</g>
<!-- Node23 -->
<g id="node45" class="node"><title>Node23</title>
<a xlink:href="../../d1/d6d/classgaia_1_1ui_1_1_list_item.html" target="_top" xlink:title="gaia::ui::ListItem\&lt; Panel1, Panel2, Panel3, Panel4, Panel5 \&gt;">
<polygon fill="white" stroke="black" points="726.5,-560.5 726.5,-581.5 1007.5,-581.5 1007.5,-560.5 726.5,-560.5"/>
<text text-anchor="middle" x="867" y="-568.5" font-family="Helvetica,sans-Serif" font-size="10.00">gaia::ui::ListItem&lt; Panel1, Panel2, Panel3, Panel4, Panel5 &gt;</text>
</a>
</g>
<!-- Node21&#45;&gt;Node23 -->
<g id="edge44" class="edge"><title>Node21&#45;&gt;Node23</title>
<path fill="none" stroke="midnightblue" d="M678.446,-571C693.443,-571 709.755,-571 726.299,-571"/>
<polygon fill="midnightblue" stroke="midnightblue" points="678.287,-567.5 668.287,-571 678.287,-574.5 678.287,-567.5"/>
</g>
<!-- Node24 -->
<g id="node47" class="node"><title>Node24</title>
<a xlink:href="../../d1/d87/classgaia_1_1ui_1_1_radio_group.html" target="_top" xlink:title="This class is used to create a multiple&#45;exclusion scope for a set of radio buttons.">
<polygon fill="white" stroke="black" points="814,-520.5 814,-541.5 920,-541.5 920,-520.5 814,-520.5"/>
<text text-anchor="middle" x="867" y="-528.5" font-family="Helvetica,sans-Serif" font-size="10.00">gaia::ui::RadioGroup</text>
</a>
</g>
<!-- Node21&#45;&gt;Node24 -->
<g id="edge46" class="edge"><title>Node21&#45;&gt;Node24</title>
<path fill="none" stroke="midnightblue" d="M678.021,-558.758C693.804,-556.122 710.461,-553.407 726,-551 754.953,-546.514 787.313,-541.896 813.723,-538.229"/>
<polygon fill="midnightblue" stroke="midnightblue" points="677.078,-555.367 667.796,-560.474 678.237,-562.27 677.078,-555.367"/>
</g>
<!-- Node28 -->
<g id="node55" class="node"><title>Node28</title>
<a xlink:href="../../d5/d21/classgaia_1_1ui_1_1_search_edit_widget.html" target="_top" xlink:title="A special EditWidget&#45;like widget with a clear button on its right side.">
<polygon fill="white" stroke="black" points="800.5,-440.5 800.5,-461.5 933.5,-461.5 933.5,-440.5 800.5,-440.5"/>
<text text-anchor="middle" x="867" y="-448.5" font-family="Helvetica,sans-Serif" font-size="10.00">gaia::ui::SearchEditWidget</text>
</a>
</g>
<!-- Node27&#45;&gt;Node28 -->
<g id="edge54" class="edge"><title>Node27&#45;&gt;Node28</title>
<path fill="none" stroke="midnightblue" d="M683.54,-451C720.616,-451 764.717,-451 800.388,-451"/>
<polygon fill="midnightblue" stroke="midnightblue" points="683.282,-447.5 673.282,-451 683.282,-454.5 683.282,-447.5"/>
</g>
<!-- Node39 -->
<g id="node77" class="node"><title>Node39</title>
<a xlink:href="../../dc/dad/classgaia_1_1ui_1_1_image_button.html" target="_top" xlink:title="Displays a button with an image (instead of text) that can be pressed or clicked by the user...">
<polygon fill="white" stroke="black" points="552,-240.5 552,-261.5 662,-261.5 662,-240.5 552,-240.5"/>
<text text-anchor="middle" x="607" y="-248.5" font-family="Helvetica,sans-Serif" font-size="10.00">gaia::ui::ImageButton</text>
</a>
</g>
<!-- Node38&#45;&gt;Node39 -->
<g id="edge76" class="edge"><title>Node38&#45;&gt;Node39</title>
<path fill="none" stroke="midnightblue" d="M470.306,-251C496.697,-251 526.71,-251 551.877,-251"/>
<polygon fill="midnightblue" stroke="midnightblue" points="470.008,-247.5 460.008,-251 470.008,-254.5 470.008,-247.5"/>
</g>
<!-- Node40 -->
<g id="node79" class="node"><title>Node40</title>
<a xlink:href="../../df/d92/classgaia_1_1ui_1_1_quick_contact_badge.html" target="_top" xlink:title="Displays a button with an image (instead of text) that can be pressed or clicked by the user...">
<polygon fill="white" stroke="black" points="536,-200.5 536,-221.5 678,-221.5 678,-200.5 536,-200.5"/>
<text text-anchor="middle" x="607" y="-208.5" font-family="Helvetica,sans-Serif" font-size="10.00">gaia::ui::QuickContactBadge</text>
</a>
</g>
<!-- Node38&#45;&gt;Node40 -->
<g id="edge78" class="edge"><title>Node38&#45;&gt;Node40</title>
<path fill="none" stroke="midnightblue" d="M467.326,-238.522C495.041,-233.061 527.199,-226.724 553.668,-221.509"/>
<polygon fill="midnightblue" stroke="midnightblue" points="466.471,-235.123 457.336,-240.49 467.824,-241.991 466.471,-235.123"/>
</g>
<!-- Node42 -->
<g id="node83" class="node"><title>Node42</title>
<a xlink:href="../../da/d52/classgaia_1_1ui_1_1_abs_seek_bar.html" target="_top" xlink:title="An AbsSeekBar is an extension of ProgressBar.">
<polygon fill="white" stroke="black" points="552.5,-160.5 552.5,-181.5 661.5,-181.5 661.5,-160.5 552.5,-160.5"/>
<text text-anchor="middle" x="607" y="-168.5" font-family="Helvetica,sans-Serif" font-size="10.00">gaia::ui::AbsSeekBar</text>
</a>
</g>
<!-- Node41&#45;&gt;Node42 -->
<g id="edge82" class="edge"><title>Node41&#45;&gt;Node42</title>
<path fill="none" stroke="midnightblue" d="M468.272,-184.668C495.296,-182.005 526.408,-178.94 552.312,-176.388"/>
<polygon fill="midnightblue" stroke="midnightblue" points="467.742,-181.203 458.134,-185.667 468.429,-188.169 467.742,-181.203"/>
</g>
<!-- Node43 -->
<g id="node85" class="node"><title>Node43</title>
<a xlink:href="../../dc/d5a/classgaia_1_1ui_1_1_rating_bar.html" target="_top" xlink:title="A RatingBar is an extension of SeekBar and ProgressBar that shows a rating in stars.">
<polygon fill="white" stroke="black" points="818,-180.5 818,-201.5 916,-201.5 916,-180.5 818,-180.5"/>
<text text-anchor="middle" x="867" y="-188.5" font-family="Helvetica,sans-Serif" font-size="10.00">gaia::ui::RatingBar</text>
</a>
</g>
<!-- Node42&#45;&gt;Node43 -->
<g id="edge84" class="edge"><title>Node42&#45;&gt;Node43</title>
<path fill="none" stroke="midnightblue" d="M671.516,-175.963C716.786,-179.445 776.396,-184.03 817.836,-187.218"/>
<polygon fill="midnightblue" stroke="midnightblue" points="671.744,-172.47 661.505,-175.193 671.207,-179.449 671.744,-172.47"/>
</g>
<!-- Node44 -->
<g id="node87" class="node"><title>Node44</title>
<a xlink:href="../../d0/dfe/classgaia_1_1ui_1_1_seek_bar.html" target="_top" xlink:title="A SeekBar is an extension of ProgressBar that adds a draggable thumb.">
<polygon fill="white" stroke="black" points="821,-140.5 821,-161.5 913,-161.5 913,-140.5 821,-140.5"/>
<text text-anchor="middle" x="867" y="-148.5" font-family="Helvetica,sans-Serif" font-size="10.00">gaia::ui::SeekBar</text>
</a>
</g>
<!-- Node42&#45;&gt;Node44 -->
<g id="edge86" class="edge"><title>Node42&#45;&gt;Node44</title>
<path fill="none" stroke="midnightblue" d="M671.748,-166.019C718.09,-162.455 779.369,-157.741 820.823,-154.552"/>
<polygon fill="midnightblue" stroke="midnightblue" points="671.207,-162.551 661.505,-166.807 671.744,-169.53 671.207,-162.551"/>
</g>
<!-- Node46 -->
<g id="node91" class="node"><title>Node46</title>
<a xlink:href="../../d8/ddd/classgaia_1_1ui_1_1_bubble_text_widget.html" target="_top" xlink:title="Represents a BubbleText widget.">
<polygon fill="white" stroke="black" points="540,-120.5 540,-141.5 674,-141.5 674,-120.5 540,-120.5"/>
<text text-anchor="middle" x="607" y="-128.5" font-family="Helvetica,sans-Serif" font-size="10.00">gaia::ui::BubbleTextWidget</text>
</a>
</g>
<!-- Node45&#45;&gt;Node46 -->
<g id="edge90" class="edge"><title>Node45&#45;&gt;Node46</title>
<path fill="none" stroke="midnightblue" d="M466.097,-103.236C494.099,-108.754 526.838,-115.205 553.707,-120.499"/>
<polygon fill="midnightblue" stroke="midnightblue" points="466.502,-99.7484 456.014,-101.249 465.149,-106.616 466.502,-99.7484"/>
</g>
<!-- Node47 -->
<g id="node93" class="node"><title>Node47</title>
<a xlink:href="../../dc/d51/classgaia_1_1ui_1_1_button.html" target="_top" xlink:title="Represents a push&#45;button widget.">
<polygon fill="white" stroke="red" points="565.5,-80.5 565.5,-101.5 648.5,-101.5 648.5,-80.5 565.5,-80.5"/>
<text text-anchor="middle" x="607" y="-88.5" font-family="Helvetica,sans-Serif" font-size="10.00">gaia::ui::Button</text>
</a>
</g>
<!-- Node45&#45;&gt;Node47 -->
<g id="edge92" class="edge"><title>Node45&#45;&gt;Node47</title>
<path fill="none" stroke="midnightblue" d="M466.22,-91C498.389,-91 536.783,-91 565.344,-91"/>
<polygon fill="midnightblue" stroke="midnightblue" points="466.014,-87.5001 456.014,-91 466.014,-94.5001 466.014,-87.5001"/>
</g>
<!-- Node48 -->
<g id="node95" class="node"><title>Node48</title>
<a xlink:href="../../d3/d9c/classgaia_1_1ui_1_1_edit_widget.html" target="_top" xlink:title="EditWidget is a thin veneer over TextWidget that configures itself to be editable.">
<polygon fill="white" stroke="red" points="556,-40.5 556,-61.5 658,-61.5 658,-40.5 556,-40.5"/>
<text text-anchor="middle" x="607" y="-48.5" font-family="Helvetica,sans-Serif" font-size="10.00">gaia::ui::EditWidget</text>
</a>
</g>
<!-- Node45&#45;&gt;Node48 -->
<g id="edge94" class="edge"><title>Node45&#45;&gt;Node48</title>
<path fill="none" stroke="midnightblue" d="M465.962,-78.7907C494.734,-73.1214 528.529,-66.4623 555.824,-61.0839"/>
<polygon fill="midnightblue" stroke="midnightblue" points="465.149,-75.3836 456.014,-80.7509 466.502,-82.2516 465.149,-75.3836"/>
</g>
<!-- Node49 -->
<g id="node97" class="node"><title>Node49</title>
<a xlink:href="../../da/d2c/classgaia_1_1ui_1_1_footer_button.html" target="_top" xlink:title="The FooterButton can be pressed, or clicked, by the user to perform an action.">
<polygon fill="white" stroke="black" points="552,-0.5 552,-21.5 662,-21.5 662,-0.5 552,-0.5"/>
<text text-anchor="middle" x="607" y="-8.5" font-family="Helvetica,sans-Serif" font-size="10.00">gaia::ui::FooterButton</text>
</a>
</g>
<!-- Node45&#45;&gt;Node49 -->
<g id="edge96" class="edge"><title>Node45&#45;&gt;Node49</title>
<path fill="none" stroke="midnightblue" d="M430.93,-75.3091C454.748,-61.9788 490.777,-43.1293 524,-31 533.886,-27.3909 544.672,-24.2454 555.099,-21.5838"/>
<polygon fill="midnightblue" stroke="midnightblue" points="429.101,-72.3226 422.126,-80.2973 432.552,-78.4131 429.101,-72.3226"/>
</g>
</g>
</svg>
