<?xml version="1.0" encoding="UTF-8" standalone="no"?>
<!DOCTYPE svg PUBLIC "-//W3C//DTD SVG 1.1//EN"
 "http://www.w3.org/Graphics/SVG/1.1/DTD/svg11.dtd">
<!-- Generated by graphviz version 2.26.3 (20100126.1600)
 -->
<!-- Title: G Pages: 1 -->
<svg width="869pt" height="378pt"
 viewBox="0.00 0.00 868.96 378.00" xmlns="http://www.w3.org/2000/svg" xmlns:xlink="http://www.w3.org/1999/xlink">
<g id="graph1" class="graph" transform="scale(1 1) rotate(0) translate(4 374)">
<title>G</title>
<polygon fill="white" stroke="white" points="-4,5 -4,-374 865.956,-374 865.956,5 -4,5"/>
<!-- Node1 -->
<g id="node1" class="node"><title>Node1</title>
<polygon fill="#bfbfbf" stroke="black" points="427.956,-348.5 427.956,-369.5 759.956,-369.5 759.956,-348.5 427.956,-348.5"/>
<text text-anchor="middle" x="593.956" y="-356.5" font-family="Helvetica,sans-Serif" font-size="10.00">/home/vilon_tao/gaia/sdk/include/gaia/text/method/NumberKeyListener.h</text>
</g>
<!-- Node2 -->
<g id="node3" class="node"><title>Node2</title>
<a xlink:href="../../d3/dc5/_array_8h.html" target="_top" xlink:title="gaia/base/Array.h">
<polygon fill="white" stroke="black" points="362.456,-116.5 362.456,-137.5 455.456,-137.5 455.456,-116.5 362.456,-116.5"/>
<text text-anchor="middle" x="408.956" y="-124.5" font-family="Helvetica,sans-Serif" font-size="10.00">gaia/base/Array.h</text>
</a>
</g>
<!-- Node1&#45;&gt;Node2 -->
<g id="edge2" class="edge"><title>Node1&#45;&gt;Node2</title>
<path fill="none" stroke="midnightblue" d="M570.648,-348.479C538.136,-332.623 479.513,-299.542 446.956,-254 423.651,-221.4 414.469,-174.392 410.979,-147.658"/>
<polygon fill="midnightblue" stroke="midnightblue" points="414.435,-147.074 409.807,-137.543 407.481,-147.88 414.435,-147.074"/>
</g>
<!-- Node9 -->
<g id="node19" class="node"><title>Node9</title>
<a xlink:href="../../d6/dc5/_editable_8h.html" target="_top" xlink:title="gaia/text/Editable.h">
<polygon fill="white" stroke="black" points="621.456,-290.5 621.456,-311.5 722.456,-311.5 722.456,-290.5 621.456,-290.5"/>
<text text-anchor="middle" x="671.956" y="-298.5" font-family="Helvetica,sans-Serif" font-size="10.00">gaia/text/Editable.h</text>
</a>
</g>
<!-- Node1&#45;&gt;Node9 -->
<g id="edge20" class="edge"><title>Node1&#45;&gt;Node9</title>
<path fill="none" stroke="midnightblue" d="M608.262,-348.362C619.807,-339.777 636.256,-327.546 649.546,-317.664"/>
<polygon fill="midnightblue" stroke="midnightblue" points="651.804,-320.346 657.74,-311.571 647.627,-314.729 651.804,-320.346"/>
</g>
<!-- Node10 -->
<g id="node21" class="node"><title>Node10</title>
<a xlink:href="../../dc/dd4/_input_filter_8h.html" target="_top" xlink:title="gaia/text/InputFilter.h">
<polygon fill="white" stroke="black" points="598.456,-174.5 598.456,-195.5 707.456,-195.5 707.456,-174.5 598.456,-174.5"/>
<text text-anchor="middle" x="652.956" y="-182.5" font-family="Helvetica,sans-Serif" font-size="10.00">gaia/text/InputFilter.h</text>
</a>
</g>
<!-- Node1&#45;&gt;Node10 -->
<g id="edge46" class="edge"><title>Node1&#45;&gt;Node10</title>
<path fill="none" stroke="midnightblue" d="M596.603,-348.149C600.016,-334.477 606.308,-310.311 612.956,-290 622.768,-260.025 636.141,-226.03 644.664,-205.049"/>
<polygon fill="midnightblue" stroke="midnightblue" points="647.978,-206.192 648.527,-195.612 641.5,-203.54 647.978,-206.192"/>
</g>
<!-- Node13 -->
<g id="node28" class="node"><title>Node13</title>
<a xlink:href="../../d7/d1c/_spannable_8h.html" target="_top" xlink:title="gaia/text/Spannable.h">
<polygon fill="white" stroke="black" points="455.456,-232.5 455.456,-253.5 566.456,-253.5 566.456,-232.5 455.456,-232.5"/>
<text text-anchor="middle" x="510.956" y="-240.5" font-family="Helvetica,sans-Serif" font-size="10.00">gaia/text/Spannable.h</text>
</a>
</g>
<!-- Node1&#45;&gt;Node13 -->
<g id="edge68" class="edge"><title>Node1&#45;&gt;Node13</title>
<path fill="none" stroke="midnightblue" d="M586.296,-348.295C572.214,-328.613 542.045,-286.45 524.455,-261.867"/>
<polygon fill="midnightblue" stroke="midnightblue" points="527.263,-259.775 518.597,-253.679 521.57,-263.848 527.263,-259.775"/>
</g>
<!-- Node16 -->
<g id="node40" class="node"><title>Node16</title>
<a xlink:href="../../d5/d49/_key_listener_8h.html" target="_top" xlink:title="gaia/text/method/KeyListener.h">
<polygon fill="white" stroke="black" points="708.956,-232.5 708.956,-253.5 860.956,-253.5 860.956,-232.5 708.956,-232.5"/>
<text text-anchor="middle" x="784.956" y="-240.5" font-family="Helvetica,sans-Serif" font-size="10.00">gaia/text/method/KeyListener.h</text>
</a>
</g>
<!-- Node1&#45;&gt;Node16 -->
<g id="edge48" class="edge"><title>Node1&#45;&gt;Node16</title>
<path fill="none" stroke="midnightblue" d="M646.726,-348.472C673.678,-341.298 705.964,-329.79 730.956,-312 749.326,-298.924 764.528,-277.856 774.071,-262.436"/>
<polygon fill="midnightblue" stroke="midnightblue" points="777.169,-264.073 779.259,-253.686 771.148,-260.502 777.169,-264.073"/>
</g>
<!-- Node3 -->
<g id="node5" class="node"><title>Node3</title>
<a xlink:href="../../d8/dae/_array_impl_8h.html" target="_top" xlink:title="gaia/base/ArrayImpl.h">
<polygon fill="white" stroke="black" points="183.956,-58.5 183.956,-79.5 295.956,-79.5 295.956,-58.5 183.956,-58.5"/>
<text text-anchor="middle" x="239.956" y="-66.5" font-family="Helvetica,sans-Serif" font-size="10.00">gaia/base/ArrayImpl.h</text>
</a>
</g>
<!-- Node2&#45;&gt;Node3 -->
<g id="edge4" class="edge"><title>Node2&#45;&gt;Node3</title>
<path fill="none" stroke="midnightblue" d="M378.351,-116.497C350.919,-107.082 310.48,-93.2036 280.392,-82.8773"/>
<polygon fill="midnightblue" stroke="midnightblue" points="281.213,-79.4588 270.618,-79.5231 278.94,-86.0797 281.213,-79.4588"/>
</g>
<!-- Node4 -->
<g id="node7" class="node"><title>Node4</title>
<polygon fill="white" stroke="#bfbfbf" points="163.956,-0.5 163.956,-21.5 231.956,-21.5 231.956,-0.5 163.956,-0.5"/>
<text text-anchor="middle" x="197.956" y="-8.5" font-family="Helvetica,sans-Serif" font-size="10.00">sys/types.h</text>
</g>
<!-- Node2&#45;&gt;Node4 -->
<g id="edge18" class="edge"><title>Node2&#45;&gt;Node4</title>
<path fill="none" stroke="midnightblue" d="M394.641,-116.351C375.031,-102.037 338.426,-76.2776 304.956,-58 282.358,-45.6597 255.871,-34.0045 234.904,-25.3876"/>
<polygon fill="midnightblue" stroke="midnightblue" points="235.977,-22.046 225.395,-21.5316 233.346,-28.533 235.977,-22.046"/>
</g>
<!-- Node5 -->
<g id="node9" class="node"><title>Node5</title>
<a xlink:href="../../d1/d86/_type_helpers_8h.html" target="_top" xlink:title="gaia/base/TypeHelpers.h">
<polygon fill="white" stroke="black" points="351.456,-58.5 351.456,-79.5 476.456,-79.5 476.456,-58.5 351.456,-58.5"/>
<text text-anchor="middle" x="413.956" y="-66.5" font-family="Helvetica,sans-Serif" font-size="10.00">gaia/base/TypeHelpers.h</text>
</a>
</g>
<!-- Node2&#45;&gt;Node5 -->
<g id="edge8" class="edge"><title>Node2&#45;&gt;Node5</title>
<path fill="none" stroke="midnightblue" d="M409.873,-116.362C410.514,-108.922 411.392,-98.7427 412.169,-89.7276"/>
<polygon fill="midnightblue" stroke="midnightblue" points="415.673,-89.8343 413.045,-79.5707 408.699,-89.2331 415.673,-89.8343"/>
</g>
<!-- Node3&#45;&gt;Node4 -->
<g id="edge6" class="edge"><title>Node3&#45;&gt;Node4</title>
<path fill="none" stroke="midnightblue" d="M232.253,-58.3619C226.51,-50.4313 218.513,-39.3885 211.686,-29.9606"/>
<polygon fill="midnightblue" stroke="midnightblue" points="214.311,-27.6173 205.611,-21.5707 208.641,-31.7229 214.311,-27.6173"/>
</g>
<!-- Node5&#45;&gt;Node4 -->
<g id="edge14" class="edge"><title>Node5&#45;&gt;Node4</title>
<path fill="none" stroke="midnightblue" d="M374.84,-58.4966C337.454,-48.4578 281.167,-33.3437 242.171,-22.8725"/>
<polygon fill="midnightblue" stroke="midnightblue" points="242.722,-19.3966 232.157,-20.1835 240.907,-26.1572 242.722,-19.3966"/>
</g>
<!-- Node6 -->
<g id="node11" class="node"><title>Node6</title>
<polygon fill="white" stroke="#bfbfbf" points="583.456,-0.5 583.456,-21.5 632.456,-21.5 632.456,-0.5 583.456,-0.5"/>
<text text-anchor="middle" x="607.956" y="-8.5" font-family="Helvetica,sans-Serif" font-size="10.00">stdint.h</text>
</g>
<!-- Node5&#45;&gt;Node6 -->
<g id="edge10" class="edge"><title>Node5&#45;&gt;Node6</title>
<path fill="none" stroke="midnightblue" d="M449.088,-58.4966C484.368,-47.949 538.388,-31.7986 573.446,-21.3174"/>
<polygon fill="midnightblue" stroke="midnightblue" points="574.659,-24.608 583.237,-18.3901 572.654,-17.9013 574.659,-24.608"/>
</g>
<!-- Node7 -->
<g id="node13" class="node"><title>Node7</title>
<polygon fill="white" stroke="#bfbfbf" points="359.456,-0.5 359.456,-21.5 408.456,-21.5 408.456,-0.5 359.456,-0.5"/>
<text text-anchor="middle" x="383.956" y="-8.5" font-family="Helvetica,sans-Serif" font-size="10.00">string.h</text>
</g>
<!-- Node5&#45;&gt;Node7 -->
<g id="edge12" class="edge"><title>Node5&#45;&gt;Node7</title>
<path fill="none" stroke="midnightblue" d="M408.453,-58.3619C404.436,-50.5949 398.875,-39.8426 394.066,-30.5458"/>
<polygon fill="midnightblue" stroke="midnightblue" points="397.127,-28.8448 389.424,-21.5707 390.909,-32.0608 397.127,-28.8448"/>
</g>
<!-- Node8 -->
<g id="node16" class="node"><title>Node8</title>
<polygon fill="white" stroke="#bfbfbf" points="425.456,-0.5 425.456,-21.5 460.456,-21.5 460.456,-0.5 425.456,-0.5"/>
<text text-anchor="middle" x="442.956" y="-8.5" font-family="Helvetica,sans-Serif" font-size="10.00">new</text>
</g>
<!-- Node5&#45;&gt;Node8 -->
<g id="edge16" class="edge"><title>Node5&#45;&gt;Node8</title>
<path fill="none" stroke="midnightblue" d="M419.275,-58.3619C423.159,-50.5949 428.535,-39.8426 433.183,-30.5458"/>
<polygon fill="midnightblue" stroke="midnightblue" points="436.329,-32.0802 437.671,-21.5707 430.068,-28.9497 436.329,-32.0802"/>
</g>
<!-- Node9&#45;&gt;Node10 -->
<g id="edge22" class="edge"><title>Node9&#45;&gt;Node10</title>
<path fill="none" stroke="midnightblue" d="M670.203,-290.295C667.064,-271.131 660.434,-230.654 656.37,-205.843"/>
<polygon fill="midnightblue" stroke="midnightblue" points="659.776,-204.982 654.705,-195.679 652.868,-206.113 659.776,-204.982"/>
</g>
<!-- Node9&#45;&gt;Node13 -->
<g id="edge30" class="edge"><title>Node9&#45;&gt;Node13</title>
<path fill="none" stroke="midnightblue" d="M642.8,-290.497C616.78,-281.123 578.477,-267.324 549.852,-257.012"/>
<polygon fill="midnightblue" stroke="midnightblue" points="550.761,-253.62 540.167,-253.523 548.388,-260.205 550.761,-253.62"/>
</g>
<!-- Node11 -->
<g id="node23" class="node"><title>Node11</title>
<a xlink:href="../../d7/d97/_char_sequence_8h.html" target="_top" xlink:title="gaia/base/CharSequence.h">
<polygon fill="white" stroke="black" points="493.956,-58.5 493.956,-79.5 627.956,-79.5 627.956,-58.5 493.956,-58.5"/>
<text text-anchor="middle" x="560.956" y="-66.5" font-family="Helvetica,sans-Serif" font-size="10.00">gaia/base/CharSequence.h</text>
</a>
</g>
<!-- Node10&#45;&gt;Node11 -->
<g id="edge24" class="edge"><title>Node10&#45;&gt;Node11</title>
<path fill="none" stroke="midnightblue" d="M598.453,-175.908C576.442,-169.267 553.162,-157.796 539.956,-138 529.923,-122.961 537.886,-102.939 546.737,-88.3379"/>
<polygon fill="midnightblue" stroke="midnightblue" points="549.899,-89.9025 552.502,-79.6324 544.063,-86.0376 549.899,-89.9025"/>
</g>
<!-- Node12 -->
<g id="node26" class="node"><title>Node12</title>
<a xlink:href="../../d1/dd0/gmacros_8h.html" target="_top" xlink:title="gaia/base/gmacros.h">
<polygon fill="white" stroke="black" points="692.456,-58.5 692.456,-79.5 799.456,-79.5 799.456,-58.5 692.456,-58.5"/>
<text text-anchor="middle" x="745.956" y="-66.5" font-family="Helvetica,sans-Serif" font-size="10.00">gaia/base/gmacros.h</text>
</a>
</g>
<!-- Node10&#45;&gt;Node12 -->
<g id="edge28" class="edge"><title>Node10&#45;&gt;Node12</title>
<path fill="none" stroke="midnightblue" d="M681.962,-174.372C698.758,-166.754 718.901,-154.841 730.956,-138 740.964,-124.02 744.508,-104.648 745.667,-89.9881"/>
<polygon fill="midnightblue" stroke="midnightblue" points="749.17,-90.0208 746.156,-79.8636 742.178,-89.683 749.17,-90.0208"/>
</g>
<!-- Node11&#45;&gt;Node6 -->
<g id="edge26" class="edge"><title>Node11&#45;&gt;Node6</title>
<path fill="none" stroke="midnightblue" d="M569.576,-58.3619C576.135,-50.2678 585.322,-38.9318 593.062,-29.3796"/>
<polygon fill="midnightblue" stroke="midnightblue" points="595.813,-31.5436 599.39,-21.5707 590.375,-27.1364 595.813,-31.5436"/>
</g>
<!-- Node14 -->
<g id="node30" class="node"><title>Node14</title>
<a xlink:href="../../d7/dc2/_spanned_8h.html" target="_top" xlink:title="gaia/text/Spanned.h">
<polygon fill="white" stroke="black" points="458.956,-174.5 458.956,-195.5 562.956,-195.5 562.956,-174.5 458.956,-174.5"/>
<text text-anchor="middle" x="510.956" y="-182.5" font-family="Helvetica,sans-Serif" font-size="10.00">gaia/text/Spanned.h</text>
</a>
</g>
<!-- Node13&#45;&gt;Node14 -->
<g id="edge32" class="edge"><title>Node13&#45;&gt;Node14</title>
<path fill="none" stroke="midnightblue" d="M510.956,-232.362C510.956,-224.922 510.956,-214.743 510.956,-205.728"/>
<polygon fill="midnightblue" stroke="midnightblue" points="514.456,-205.571 510.956,-195.571 507.456,-205.571 514.456,-205.571"/>
</g>
<!-- Node14&#45;&gt;Node2 -->
<g id="edge34" class="edge"><title>Node14&#45;&gt;Node2</title>
<path fill="none" stroke="midnightblue" d="M492.248,-174.362C476.575,-165.45 453.992,-152.609 436.293,-142.545"/>
<polygon fill="midnightblue" stroke="midnightblue" points="437.969,-139.471 427.546,-137.571 434.509,-145.556 437.969,-139.471"/>
</g>
<!-- Node14&#45;&gt;Node11 -->
<g id="edge36" class="edge"><title>Node14&#45;&gt;Node11</title>
<path fill="none" stroke="midnightblue" d="M507.324,-174.146C503.261,-160.049 498.304,-135.002 506.956,-116 512.549,-103.717 523.114,-93.3973 533.426,-85.5857"/>
<polygon fill="midnightblue" stroke="midnightblue" points="535.741,-88.2368 541.914,-79.6259 531.719,-82.5079 535.741,-88.2368"/>
</g>
<!-- Node14&#45;&gt;Node12 -->
<g id="edge38" class="edge"><title>Node14&#45;&gt;Node12</title>
<path fill="none" stroke="midnightblue" d="M563.073,-176.136C610.484,-167.322 676.268,-152.985 697.956,-138 715.683,-125.752 728.929,-104.678 736.966,-89.034"/>
<polygon fill="midnightblue" stroke="midnightblue" points="740.285,-90.2113 741.49,-79.6852 733.984,-87.1622 740.285,-90.2113"/>
</g>
<!-- Node15 -->
<g id="node35" class="node"><title>Node15</title>
<a xlink:href="../../d1/d81/_object_style_8h.html" target="_top" xlink:title="gaia/text/style/ObjectStyle.h">
<polygon fill="white" stroke="black" points="548.956,-116.5 548.956,-137.5 688.956,-137.5 688.956,-116.5 548.956,-116.5"/>
<text text-anchor="middle" x="618.956" y="-124.5" font-family="Helvetica,sans-Serif" font-size="10.00">gaia/text/style/ObjectStyle.h</text>
</a>
</g>
<!-- Node14&#45;&gt;Node15 -->
<g id="edge40" class="edge"><title>Node14&#45;&gt;Node15</title>
<path fill="none" stroke="midnightblue" d="M530.514,-174.497C547.154,-165.56 571.283,-152.602 590.136,-142.477"/>
<polygon fill="midnightblue" stroke="midnightblue" points="592.025,-145.436 599.179,-137.621 588.713,-139.269 592.025,-145.436"/>
</g>
<!-- Node15&#45;&gt;Node6 -->
<g id="edge42" class="edge"><title>Node15&#45;&gt;Node6</title>
<path fill="none" stroke="midnightblue" d="M625.375,-116.205C632.644,-102.591 642.767,-78.4854 636.956,-58 634.142,-48.0813 628.576,-38.2026 623.065,-30.0804"/>
<polygon fill="midnightblue" stroke="midnightblue" points="625.724,-27.7851 617.017,-21.748 620.059,-31.8969 625.724,-27.7851"/>
</g>
<!-- Node15&#45;&gt;Node12 -->
<g id="edge44" class="edge"><title>Node15&#45;&gt;Node12</title>
<path fill="none" stroke="midnightblue" d="M641.955,-116.497C661.969,-107.356 691.197,-94.0082 713.575,-83.7883"/>
<polygon fill="midnightblue" stroke="midnightblue" points="715.057,-86.9592 722.699,-79.6212 712.149,-80.5918 715.057,-86.9592"/>
</g>
<!-- Node16&#45;&gt;Node6 -->
<g id="edge52" class="edge"><title>Node16&#45;&gt;Node6</title>
<path fill="none" stroke="midnightblue" d="M791.005,-232.387C807.647,-201.634 850.162,-111.274 807.956,-58 787.701,-32.4328 694.3,-19.408 642.611,-14.0542"/>
<polygon fill="midnightblue" stroke="midnightblue" points="642.856,-10.5614 632.559,-13.0553 642.164,-17.5271 642.856,-10.5614"/>
</g>
<!-- Node16&#45;&gt;Node12 -->
<g id="edge50" class="edge"><title>Node16&#45;&gt;Node12</title>
<path fill="none" stroke="midnightblue" d="M782.575,-232.377C776.253,-204.172 758.959,-127.012 750.6,-89.7203"/>
<polygon fill="midnightblue" stroke="midnightblue" points="754.008,-88.9201 748.405,-79.9277 747.177,-90.4511 754.008,-88.9201"/>
</g>
<!-- Node17 -->
<g id="node44" class="node"><title>Node17</title>
<a xlink:href="../../dd/d79/_key_event_8h.html" target="_top" xlink:title="gaia/core/event/KeyEvent.h">
<polygon fill="white" stroke="black" points="87.456,-174.5 87.456,-195.5 224.456,-195.5 224.456,-174.5 87.456,-174.5"/>
<text text-anchor="middle" x="155.956" y="-182.5" font-family="Helvetica,sans-Serif" font-size="10.00">gaia/core/event/KeyEvent.h</text>
</a>
</g>
<!-- Node16&#45;&gt;Node17 -->
<g id="edge54" class="edge"><title>Node16&#45;&gt;Node17</title>
<path fill="none" stroke="midnightblue" d="M708.771,-235.975C588.676,-224.901 356.521,-203.494 234.797,-192.27"/>
<polygon fill="midnightblue" stroke="midnightblue" points="235.077,-188.781 224.798,-191.348 234.435,-195.751 235.077,-188.781"/>
</g>
<!-- Node17&#45;&gt;Node4 -->
<g id="edge66" class="edge"><title>Node17&#45;&gt;Node4</title>
<path fill="none" stroke="midnightblue" d="M156.457,-174.217C157.73,-152.002 161.968,-99.7212 174.956,-58 177.867,-48.6486 182.406,-38.8378 186.684,-30.6131"/>
<polygon fill="midnightblue" stroke="midnightblue" points="189.77,-32.2658 191.475,-21.8091 183.621,-28.9201 189.77,-32.2658"/>
</g>
<!-- Node18 -->
<g id="node46" class="node"><title>Node18</title>
<a xlink:href="../../db/db5/_string_8h.html" target="_top" xlink:title="gaia/base/String.h">
<polygon fill="white" stroke="black" points="28.456,-116.5 28.456,-137.5 123.456,-137.5 123.456,-116.5 28.456,-116.5"/>
<text text-anchor="middle" x="75.956" y="-124.5" font-family="Helvetica,sans-Serif" font-size="10.00">gaia/base/String.h</text>
</a>
</g>
<!-- Node17&#45;&gt;Node18 -->
<g id="edge56" class="edge"><title>Node17&#45;&gt;Node18</title>
<path fill="none" stroke="midnightblue" d="M141.283,-174.362C129.442,-165.777 112.571,-153.546 98.9402,-143.664"/>
<polygon fill="midnightblue" stroke="midnightblue" points="100.687,-140.607 90.5362,-137.571 96.5779,-146.274 100.687,-140.607"/>
</g>
<!-- Node18&#45;&gt;Node4 -->
<g id="edge64" class="edge"><title>Node18&#45;&gt;Node4</title>
<path fill="none" stroke="midnightblue" d="M50.7111,-116.423C23.7002,-103.596 -12.9906,-80.8414 4.95596,-58 23.0949,-34.9138 102.484,-21.7458 153.622,-15.5153"/>
<polygon fill="midnightblue" stroke="midnightblue" points="154.236,-18.9674 163.76,-14.3254 153.42,-12.0151 154.236,-18.9674"/>
</g>
<!-- Node18&#45;&gt;Node11 -->
<g id="edge58" class="edge"><title>Node18&#45;&gt;Node11</title>
<path fill="none" stroke="midnightblue" d="M123.555,-121.988C198.023,-114.047 346.864,-97.7708 483.593,-80.1493"/>
<polygon fill="midnightblue" stroke="midnightblue" points="484.366,-83.5786 493.834,-78.824 483.467,-76.6365 484.366,-83.5786"/>
</g>
<!-- Node19 -->
<g id="node49" class="node"><title>Node19</title>
<a xlink:href="../../d6/d83/_hash_func_8h.html" target="_top" xlink:title="gaia/base/HashFunc.h">
<polygon fill="white" stroke="black" points="13.456,-58.5 13.456,-79.5 128.456,-79.5 128.456,-58.5 13.456,-58.5"/>
<text text-anchor="middle" x="70.956" y="-66.5" font-family="Helvetica,sans-Serif" font-size="10.00">gaia/base/HashFunc.h</text>
</a>
</g>
<!-- Node18&#45;&gt;Node19 -->
<g id="edge60" class="edge"><title>Node18&#45;&gt;Node19</title>
<path fill="none" stroke="midnightblue" d="M75.0389,-116.362C74.3975,-108.922 73.52,-98.7427 72.7428,-89.7276"/>
<polygon fill="midnightblue" stroke="midnightblue" points="76.2133,-89.2331 71.8672,-79.5707 69.2391,-89.8343 76.2133,-89.2331"/>
</g>
<!-- Node19&#45;&gt;Node4 -->
<g id="edge62" class="edge"><title>Node19&#45;&gt;Node4</title>
<path fill="none" stroke="midnightblue" d="M93.9547,-58.4966C113.969,-49.3562 143.197,-36.0082 165.575,-25.7883"/>
<polygon fill="midnightblue" stroke="midnightblue" points="167.057,-28.9592 174.699,-21.6212 164.149,-22.5918 167.057,-28.9592"/>
</g>
</g>
</svg>
