<?xml version="1.0" encoding="UTF-8" standalone="no"?>
<!DOCTYPE svg PUBLIC "-//W3C//DTD SVG 1.1//EN"
 "http://www.w3.org/Graphics/SVG/1.1/DTD/svg11.dtd">
<!-- Generated by graphviz version 2.26.3 (20100126.1600)
 -->
<!-- Title: G Pages: 1 -->
<svg width="598pt" height="204pt"
 viewBox="0.00 0.00 597.79 204.00" xmlns="http://www.w3.org/2000/svg" xmlns:xlink="http://www.w3.org/1999/xlink">
<g id="graph1" class="graph" transform="scale(1 1) rotate(0) translate(4 200)">
<title>G</title>
<polygon fill="white" stroke="white" points="-4,5 -4,-200 594.787,-200 594.787,5 -4,5"/>
<!-- Node1 -->
<g id="node1" class="node"><title>Node1</title>
<polygon fill="#bfbfbf" stroke="black" points="13.7869,-174.5 13.7869,-195.5 293.787,-195.5 293.787,-174.5 13.7869,-174.5"/>
<text text-anchor="middle" x="153.787" y="-182.5" font-family="Helvetica,sans-Serif" font-size="10.00">/home/vilon_tao/gaia/sdk/include/gaia/net/SSLRequestInfo.h</text>
</g>
<!-- Node2 -->
<g id="node3" class="node"><title>Node2</title>
<a xlink:href="../../d3/dc5/_array_8h.html" target="_top" xlink:title="gaia/base/Array.h">
<polygon fill="white" stroke="black" points="37.2869,-116.5 37.2869,-137.5 130.287,-137.5 130.287,-116.5 37.2869,-116.5"/>
<text text-anchor="middle" x="83.7869" y="-124.5" font-family="Helvetica,sans-Serif" font-size="10.00">gaia/base/Array.h</text>
</a>
</g>
<!-- Node1&#45;&gt;Node2 -->
<g id="edge2" class="edge"><title>Node1&#45;&gt;Node2</title>
<path fill="none" stroke="midnightblue" d="M140.948,-174.362C130.784,-165.941 116.386,-154.011 104.583,-144.231"/>
<polygon fill="midnightblue" stroke="midnightblue" points="106.478,-141.256 96.5446,-137.571 102.012,-146.646 106.478,-141.256"/>
</g>
<!-- Node9 -->
<g id="node19" class="node"><title>Node9</title>
<a xlink:href="../../db/db5/_string_8h.html" target="_top" xlink:title="gaia/base/String.h">
<polygon fill="white" stroke="black" points="176.287,-116.5 176.287,-137.5 271.287,-137.5 271.287,-116.5 176.287,-116.5"/>
<text text-anchor="middle" x="223.787" y="-124.5" font-family="Helvetica,sans-Serif" font-size="10.00">gaia/base/String.h</text>
</a>
</g>
<!-- Node1&#45;&gt;Node9 -->
<g id="edge20" class="edge"><title>Node1&#45;&gt;Node9</title>
<path fill="none" stroke="midnightblue" d="M166.626,-174.362C176.789,-165.941 191.188,-154.011 202.991,-144.231"/>
<polygon fill="midnightblue" stroke="midnightblue" points="205.562,-146.646 211.029,-137.571 201.096,-141.256 205.562,-146.646"/>
</g>
<!-- Node3 -->
<g id="node5" class="node"><title>Node3</title>
<a xlink:href="../../d8/dae/_array_impl_8h.html" target="_top" xlink:title="gaia/base/ArrayImpl.h">
<polygon fill="white" stroke="black" points="13.7869,-58.5 13.7869,-79.5 125.787,-79.5 125.787,-58.5 13.7869,-58.5"/>
<text text-anchor="middle" x="69.7869" y="-66.5" font-family="Helvetica,sans-Serif" font-size="10.00">gaia/base/ArrayImpl.h</text>
</a>
</g>
<!-- Node2&#45;&gt;Node3 -->
<g id="edge4" class="edge"><title>Node2&#45;&gt;Node3</title>
<path fill="none" stroke="midnightblue" d="M81.2191,-116.362C79.4035,-108.84 76.9121,-98.5187 74.7185,-89.4308"/>
<polygon fill="midnightblue" stroke="midnightblue" points="78.0872,-88.4702 72.3385,-79.5707 71.2826,-90.1127 78.0872,-88.4702"/>
</g>
<!-- Node4 -->
<g id="node7" class="node"><title>Node4</title>
<polygon fill="white" stroke="#bfbfbf" points="119.787,-0.5 119.787,-21.5 187.787,-21.5 187.787,-0.5 119.787,-0.5"/>
<text text-anchor="middle" x="153.787" y="-8.5" font-family="Helvetica,sans-Serif" font-size="10.00">sys/types.h</text>
</g>
<!-- Node2&#45;&gt;Node4 -->
<g id="edge18" class="edge"><title>Node2&#45;&gt;Node4</title>
<path fill="none" stroke="midnightblue" d="M54.7329,-116.451C25.4371,-104.154 -13.0862,-82.379 4.78692,-58 17.3641,-40.8446 70.4612,-27.068 109.705,-18.9697"/>
<polygon fill="midnightblue" stroke="midnightblue" points="110.486,-22.3829 119.603,-16.9854 109.11,-15.5194 110.486,-22.3829"/>
</g>
<!-- Node5 -->
<g id="node9" class="node"><title>Node5</title>
<a xlink:href="../../d1/d86/_type_helpers_8h.html" target="_top" xlink:title="gaia/base/TypeHelpers.h">
<polygon fill="white" stroke="black" points="313.287,-58.5 313.287,-79.5 438.287,-79.5 438.287,-58.5 313.287,-58.5"/>
<text text-anchor="middle" x="375.787" y="-66.5" font-family="Helvetica,sans-Serif" font-size="10.00">gaia/base/TypeHelpers.h</text>
</a>
</g>
<!-- Node2&#45;&gt;Node5 -->
<g id="edge8" class="edge"><title>Node2&#45;&gt;Node5</title>
<path fill="none" stroke="midnightblue" d="M130.378,-117.746C179.717,-107.945 257.902,-92.4155 312.731,-81.5247"/>
<polygon fill="midnightblue" stroke="midnightblue" points="313.559,-84.9288 322.685,-79.5476 312.195,-78.063 313.559,-84.9288"/>
</g>
<!-- Node3&#45;&gt;Node4 -->
<g id="edge6" class="edge"><title>Node3&#45;&gt;Node4</title>
<path fill="none" stroke="midnightblue" d="M85.1938,-58.3619C97.7451,-49.6955 115.679,-37.3126 130.061,-27.3819"/>
<polygon fill="midnightblue" stroke="midnightblue" points="132.237,-30.1327 138.478,-21.5707 128.26,-24.3725 132.237,-30.1327"/>
</g>
<!-- Node5&#45;&gt;Node4 -->
<g id="edge14" class="edge"><title>Node5&#45;&gt;Node4</title>
<path fill="none" stroke="midnightblue" d="M335.584,-58.4966C296.651,-48.3248 237.773,-32.9423 197.646,-22.4588"/>
<polygon fill="midnightblue" stroke="midnightblue" points="198.432,-19.0467 187.872,-19.9052 196.663,-25.8194 198.432,-19.0467"/>
</g>
<!-- Node6 -->
<g id="node11" class="node"><title>Node6</title>
<polygon fill="white" stroke="#bfbfbf" points="476.287,-0.5 476.287,-21.5 525.287,-21.5 525.287,-0.5 476.287,-0.5"/>
<text text-anchor="middle" x="500.787" y="-8.5" font-family="Helvetica,sans-Serif" font-size="10.00">stdint.h</text>
</g>
<!-- Node5&#45;&gt;Node6 -->
<g id="edge10" class="edge"><title>Node5&#45;&gt;Node6</title>
<path fill="none" stroke="midnightblue" d="M398.423,-58.4966C418.035,-49.397 446.633,-36.1273 468.62,-25.9253"/>
<polygon fill="midnightblue" stroke="midnightblue" points="470.298,-29.0051 477.896,-21.6212 467.352,-22.6554 470.298,-29.0051"/>
</g>
<!-- Node7 -->
<g id="node13" class="node"><title>Node7</title>
<polygon fill="white" stroke="#bfbfbf" points="314.287,-0.5 314.287,-21.5 363.287,-21.5 363.287,-0.5 314.287,-0.5"/>
<text text-anchor="middle" x="338.787" y="-8.5" font-family="Helvetica,sans-Serif" font-size="10.00">string.h</text>
</g>
<!-- Node5&#45;&gt;Node7 -->
<g id="edge12" class="edge"><title>Node5&#45;&gt;Node7</title>
<path fill="none" stroke="midnightblue" d="M369.001,-58.3619C363.994,-50.5131 357.042,-39.6159 351.069,-30.2527"/>
<polygon fill="midnightblue" stroke="midnightblue" points="353.859,-28.1189 345.53,-21.5707 347.958,-31.8837 353.859,-28.1189"/>
</g>
<!-- Node8 -->
<g id="node16" class="node"><title>Node8</title>
<polygon fill="white" stroke="#bfbfbf" points="380.287,-0.5 380.287,-21.5 415.287,-21.5 415.287,-0.5 380.287,-0.5"/>
<text text-anchor="middle" x="397.787" y="-8.5" font-family="Helvetica,sans-Serif" font-size="10.00">new</text>
</g>
<!-- Node5&#45;&gt;Node8 -->
<g id="edge16" class="edge"><title>Node5&#45;&gt;Node8</title>
<path fill="none" stroke="midnightblue" d="M379.822,-58.3619C382.706,-50.7584 386.675,-40.294 390.15,-31.1349"/>
<polygon fill="midnightblue" stroke="midnightblue" points="393.503,-32.1619 393.777,-21.5707 386.958,-29.6793 393.503,-32.1619"/>
</g>
<!-- Node9&#45;&gt;Node4 -->
<g id="edge30" class="edge"><title>Node9&#45;&gt;Node4</title>
<path fill="none" stroke="midnightblue" d="M208.226,-116.384C196.82,-107.825 181.812,-94.8046 172.787,-80 163.716,-65.1206 158.882,-45.8349 156.364,-31.4367"/>
<polygon fill="midnightblue" stroke="midnightblue" points="159.822,-30.8935 154.859,-21.5331 152.901,-31.9455 159.822,-30.8935"/>
</g>
<!-- Node10 -->
<g id="node21" class="node"><title>Node10</title>
<a xlink:href="../../d7/d97/_char_sequence_8h.html" target="_top" xlink:title="gaia/base/CharSequence.h">
<polygon fill="white" stroke="black" points="455.787,-58.5 455.787,-79.5 589.787,-79.5 589.787,-58.5 455.787,-58.5"/>
<text text-anchor="middle" x="522.787" y="-66.5" font-family="Helvetica,sans-Serif" font-size="10.00">gaia/base/CharSequence.h</text>
</a>
</g>
<!-- Node9&#45;&gt;Node10 -->
<g id="edge22" class="edge"><title>Node9&#45;&gt;Node10</title>
<path fill="none" stroke="midnightblue" d="M271.495,-117.746C322.122,-107.925 402.408,-92.351 458.569,-81.457"/>
<polygon fill="midnightblue" stroke="midnightblue" points="459.262,-84.8879 468.412,-79.5476 457.929,-78.016 459.262,-84.8879"/>
</g>
<!-- Node11 -->
<g id="node24" class="node"><title>Node11</title>
<a xlink:href="../../d6/d83/_hash_func_8h.html" target="_top" xlink:title="gaia/base/HashFunc.h">
<polygon fill="white" stroke="black" points="181.287,-58.5 181.287,-79.5 296.287,-79.5 296.287,-58.5 181.287,-58.5"/>
<text text-anchor="middle" x="238.787" y="-66.5" font-family="Helvetica,sans-Serif" font-size="10.00">gaia/base/HashFunc.h</text>
</a>
</g>
<!-- Node9&#45;&gt;Node11 -->
<g id="edge26" class="edge"><title>Node9&#45;&gt;Node11</title>
<path fill="none" stroke="midnightblue" d="M226.538,-116.362C228.483,-108.84 231.153,-98.5187 233.503,-89.4308"/>
<polygon fill="midnightblue" stroke="midnightblue" points="236.938,-90.1285 236.053,-79.5707 230.161,-88.3758 236.938,-90.1285"/>
</g>
<!-- Node10&#45;&gt;Node6 -->
<g id="edge24" class="edge"><title>Node10&#45;&gt;Node6</title>
<path fill="none" stroke="midnightblue" d="M518.752,-58.3619C515.868,-50.7584 511.898,-40.294 508.424,-31.1349"/>
<polygon fill="midnightblue" stroke="midnightblue" points="511.616,-29.6793 504.796,-21.5707 505.071,-32.1619 511.616,-29.6793"/>
</g>
<!-- Node11&#45;&gt;Node4 -->
<g id="edge28" class="edge"><title>Node11&#45;&gt;Node4</title>
<path fill="none" stroke="midnightblue" d="M223.197,-58.3619C210.496,-49.6955 192.348,-37.3126 177.795,-27.3819"/>
<polygon fill="midnightblue" stroke="midnightblue" points="179.511,-24.316 169.278,-21.5707 175.566,-30.0982 179.511,-24.316"/>
</g>
</g>
</svg>
