<?xml version="1.0" encoding="UTF-8" standalone="no"?>
<!DOCTYPE svg PUBLIC "-//W3C//DTD SVG 1.1//EN"
 "http://www.w3.org/Graphics/SVG/1.1/DTD/svg11.dtd">
<!-- Generated by graphviz version 2.26.3 (20100126.1600)
 -->
<!-- Title: G Pages: 1 -->
<svg width="140pt" height="146pt"
 viewBox="0.00 0.00 140.00 146.00" xmlns="http://www.w3.org/2000/svg" xmlns:xlink="http://www.w3.org/1999/xlink">
<g id="graph1" class="graph" transform="scale(1 1) rotate(0) translate(4 142)">
<title>G</title>
<polygon fill="white" stroke="white" points="-4,5 -4,-142 137,-142 137,5 -4,5"/>
<!-- Node1 -->
<g id="node1" class="node"><title>Node1</title>
<polygon fill="#bfbfbf" stroke="black" points="1.5,-58.5 1.5,-79.5 130.5,-79.5 130.5,-58.5 1.5,-58.5"/>
<text text-anchor="middle" x="66" y="-66.5" font-family="Helvetica,sans-Serif" font-size="10.00">gaia::core::ValueAnimator</text>
</g>
<!-- Node3 -->
<g id="node5" class="node"><title>Node3</title>
<a xlink:href="../../dc/dc3/classgaia_1_1core_1_1_object_animator.html" target="_top" xlink:title="This subclass of ValueAnimator provides support for animating properties on target objects...">
<polygon fill="white" stroke="black" points="-0.5,-0.5 -0.5,-21.5 132.5,-21.5 132.5,-0.5 -0.5,-0.5"/>
<text text-anchor="middle" x="66" y="-8.5" font-family="Helvetica,sans-Serif" font-size="10.00">gaia::core::ObjectAnimator</text>
</a>
</g>
<!-- Node1&#45;&gt;Node3 -->
<g id="edge4" class="edge"><title>Node1&#45;&gt;Node3</title>
<path fill="none" stroke="midnightblue" d="M66,-48.1906C66,-39.1684 66,-28.9941 66,-21.5707"/>
<polygon fill="midnightblue" stroke="midnightblue" points="62.5001,-48.3619 66,-58.3619 69.5001,-48.3619 62.5001,-48.3619"/>
</g>
<!-- Node2 -->
<g id="node2" class="node"><title>Node2</title>
<a xlink:href="../../d8/d36/classgaia_1_1core_1_1_animator.html" target="_top" xlink:title="This is the superclass for classes which provide basic support for animations which can be started...">
<polygon fill="white" stroke="black" points="14,-116.5 14,-137.5 118,-137.5 118,-116.5 14,-116.5"/>
<text text-anchor="middle" x="66" y="-124.5" font-family="Helvetica,sans-Serif" font-size="10.00">gaia::core::Animator</text>
</a>
</g>
<!-- Node2&#45;&gt;Node1 -->
<g id="edge2" class="edge"><title>Node2&#45;&gt;Node1</title>
<path fill="none" stroke="midnightblue" d="M66,-106.191C66,-97.1684 66,-86.9941 66,-79.5707"/>
<polygon fill="midnightblue" stroke="midnightblue" points="62.5001,-106.362 66,-116.362 69.5001,-106.362 62.5001,-106.362"/>
</g>
</g>
</svg>
