<?xml version="1.0" encoding="UTF-8" standalone="no"?>
<!DOCTYPE svg PUBLIC "-//W3C//DTD SVG 1.1//EN"
 "http://www.w3.org/Graphics/SVG/1.1/DTD/svg11.dtd">
<!-- Generated by graphviz version 2.26.3 (20100126.1600)
 -->
<!-- Title: G Pages: 1 -->
<svg width="580pt" height="204pt"
 viewBox="0.00 0.00 580.00 204.00" xmlns="http://www.w3.org/2000/svg" xmlns:xlink="http://www.w3.org/1999/xlink">
<g id="graph1" class="graph" transform="scale(1 1) rotate(0) translate(4 200)">
<title>G</title>
<polygon fill="white" stroke="white" points="-4,5 -4,-200 577,-200 577,5 -4,5"/>
<!-- Node1 -->
<g id="node1" class="node"><title>Node1</title>
<polygon fill="#bfbfbf" stroke="black" points="137,-174.5 137,-195.5 415,-195.5 415,-174.5 137,-174.5"/>
<text text-anchor="middle" x="276" y="-182.5" font-family="Helvetica,sans-Serif" font-size="10.00">/home/vilon_tao/gaia/sdk/include/gaia/webkit/MatchResult.h</text>
</g>
<!-- Node2 -->
<g id="node3" class="node"><title>Node2</title>
<a xlink:href="../../da/d86/_matcher_8h.html" target="_top" xlink:title="/home/vilon_tao/gaia/sdk/include/gaia/webkit/Matcher.h">
<polygon fill="white" stroke="black" points="0,-116.5 0,-137.5 258,-137.5 258,-116.5 0,-116.5"/>
<text text-anchor="middle" x="129" y="-124.5" font-family="Helvetica,sans-Serif" font-size="10.00">/home/vilon_tao/gaia/sdk/include/gaia/webkit/Matcher.h</text>
</a>
</g>
<!-- Node1&#45;&gt;Node2 -->
<g id="edge2" class="edge"><title>Node1&#45;&gt;Node2</title>
<path fill="none" stroke="midnightblue" d="M239.886,-170.751C213.927,-160.509 179.488,-146.921 155.919,-137.621"/>
<polygon fill="midnightblue" stroke="midnightblue" points="238.793,-174.082 249.379,-174.497 241.362,-167.571 238.793,-174.082"/>
</g>
<!-- Node5 -->
<g id="node9" class="node"><title>Node5</title>
<a xlink:href="../../d7/de8/_match_result_impl_8h.html" target="_top" xlink:title="/home/vilon_tao/gaia/sdk/include/gaia/webkit/MatchResultImpl.h">
<polygon fill="white" stroke="black" points="275.5,-116.5 275.5,-137.5 572.5,-137.5 572.5,-116.5 275.5,-116.5"/>
<text text-anchor="middle" x="424" y="-124.5" font-family="Helvetica,sans-Serif" font-size="10.00">/home/vilon_tao/gaia/sdk/include/gaia/webkit/MatchResultImpl.h</text>
</a>
</g>
<!-- Node1&#45;&gt;Node5 -->
<g id="edge8" class="edge"><title>Node1&#45;&gt;Node5</title>
<path fill="none" stroke="midnightblue" d="M312.36,-170.751C338.495,-160.509 373.168,-146.921 396.898,-137.621"/>
<polygon fill="midnightblue" stroke="midnightblue" points="310.835,-167.589 302.802,-174.497 313.389,-174.107 310.835,-167.589"/>
</g>
<!-- Node3 -->
<g id="node5" class="node"><title>Node3</title>
<a xlink:href="../../d9/dbb/_pattern_8h.html" target="_top" xlink:title="/home/vilon_tao/gaia/sdk/include/gaia/webkit/Pattern.h">
<polygon fill="white" stroke="black" points="2,-58.5 2,-79.5 256,-79.5 256,-58.5 2,-58.5"/>
<text text-anchor="middle" x="129" y="-66.5" font-family="Helvetica,sans-Serif" font-size="10.00">/home/vilon_tao/gaia/sdk/include/gaia/webkit/Pattern.h</text>
</a>
</g>
<!-- Node2&#45;&gt;Node3 -->
<g id="edge4" class="edge"><title>Node2&#45;&gt;Node3</title>
<path fill="none" stroke="midnightblue" d="M129,-106.191C129,-97.1684 129,-86.9941 129,-79.5707"/>
<polygon fill="midnightblue" stroke="midnightblue" points="125.5,-106.362 129,-116.362 132.5,-106.362 125.5,-106.362"/>
</g>
<!-- Node4 -->
<g id="node7" class="node"><title>Node4</title>
<a xlink:href="../../d0/db9/_linkify_8h.html" target="_top" xlink:title="/home/vilon_tao/gaia/sdk/include/gaia/text/util/Linkify.h">
<polygon fill="white" stroke="black" points="1.5,-0.5 1.5,-21.5 256.5,-21.5 256.5,-0.5 1.5,-0.5"/>
<text text-anchor="middle" x="129" y="-8.5" font-family="Helvetica,sans-Serif" font-size="10.00">/home/vilon_tao/gaia/sdk/include/gaia/text/util/Linkify.h</text>
</a>
</g>
<!-- Node3&#45;&gt;Node4 -->
<g id="edge6" class="edge"><title>Node3&#45;&gt;Node4</title>
<path fill="none" stroke="midnightblue" d="M129,-48.1906C129,-39.1684 129,-28.9941 129,-21.5707"/>
<polygon fill="midnightblue" stroke="midnightblue" points="125.5,-48.3619 129,-58.3619 132.5,-48.3619 125.5,-48.3619"/>
</g>
</g>
</svg>
