<?xml version="1.0" encoding="UTF-8" standalone="no"?>
<!DOCTYPE svg PUBLIC "-//W3C//DTD SVG 1.1//EN"
 "http://www.w3.org/Graphics/SVG/1.1/DTD/svg11.dtd">
<!-- Generated by graphviz version 2.26.3 (20100126.1600)
 -->
<!-- Title: G Pages: 1 -->
<svg width="2052pt" height="146pt"
 viewBox="0.00 0.00 2052.00 146.00" xmlns="http://www.w3.org/2000/svg" xmlns:xlink="http://www.w3.org/1999/xlink">
<g id="graph1" class="graph" transform="scale(1 1) rotate(0) translate(4 142)">
<title>G</title>
<polygon fill="white" stroke="white" points="-4,5 -4,-142 2049,-142 2049,5 -4,5"/>
<!-- Node1 -->
<g id="node1" class="node"><title>Node1</title>
<polygon fill="#bfbfbf" stroke="black" points="852,-116.5 852,-137.5 1188,-137.5 1188,-116.5 852,-116.5"/>
<text text-anchor="middle" x="1020" y="-124.5" font-family="Helvetica,sans-Serif" font-size="10.00">/home/vilon_tao/gaia/sdk/include/gaia/security/SecurityCommonHeader.h</text>
</g>
<!-- Node2 -->
<g id="node3" class="node"><title>Node2</title>
<a xlink:href="../../d2/d00/_base64_8h.html" target="_top" xlink:title="/home/vilon_tao/gaia/sdk/include/gaia/security/Base64.h">
<polygon fill="white" stroke="black" points="0,-58.5 0,-79.5 262,-79.5 262,-58.5 0,-58.5"/>
<text text-anchor="middle" x="131" y="-66.5" font-family="Helvetica,sans-Serif" font-size="10.00">/home/vilon_tao/gaia/sdk/include/gaia/security/Base64.h</text>
</a>
</g>
<!-- Node1&#45;&gt;Node2 -->
<g id="edge2" class="edge"><title>Node1&#45;&gt;Node2</title>
<path fill="none" stroke="midnightblue" d="M841.53,-116.593C689.747,-107.553 466.018,-93.7793 271,-80 268.082,-79.7938 265.129,-79.5828 262.152,-79.3678"/>
<polygon fill="midnightblue" stroke="midnightblue" points="841.687,-120.109 851.877,-117.209 842.103,-113.121 841.687,-120.109"/>
</g>
<!-- Node3 -->
<g id="node5" class="node"><title>Node3</title>
<a xlink:href="../../d1/dfa/_certificate_8h.html" target="_top" xlink:title="/home/vilon_tao/gaia/sdk/include/gaia/security/Certificate.h">
<polygon fill="white" stroke="black" points="280,-58.5 280,-79.5 554,-79.5 554,-58.5 280,-58.5"/>
<text text-anchor="middle" x="417" y="-66.5" font-family="Helvetica,sans-Serif" font-size="10.00">/home/vilon_tao/gaia/sdk/include/gaia/security/Certificate.h</text>
</a>
</g>
<!-- Node1&#45;&gt;Node3 -->
<g id="edge4" class="edge"><title>Node1&#45;&gt;Node3</title>
<path fill="none" stroke="midnightblue" d="M900.752,-115.53C791.832,-105.054 632.12,-89.6914 526.404,-79.5231"/>
<polygon fill="midnightblue" stroke="midnightblue" points="900.512,-119.023 910.801,-116.497 901.182,-112.055 900.512,-119.023"/>
</g>
<!-- Node5 -->
<g id="node9" class="node"><title>Node5</title>
<a xlink:href="../../d1/def/_key_attribute_8h.html" target="_top" xlink:title="/home/vilon_tao/gaia/sdk/include/gaia/security/KeyAttribute.h">
<polygon fill="white" stroke="black" points="571.5,-58.5 571.5,-79.5 854.5,-79.5 854.5,-58.5 571.5,-58.5"/>
<text text-anchor="middle" x="713" y="-66.5" font-family="Helvetica,sans-Serif" font-size="10.00">/home/vilon_tao/gaia/sdk/include/gaia/security/KeyAttribute.h</text>
</a>
</g>
<!-- Node1&#45;&gt;Node5 -->
<g id="edge8" class="edge"><title>Node1&#45;&gt;Node5</title>
<path fill="none" stroke="midnightblue" d="M954.365,-114.6C899.109,-104.161 820.95,-89.3945 768.7,-79.5231"/>
<polygon fill="midnightblue" stroke="midnightblue" points="953.929,-118.079 964.405,-116.497 955.228,-111.201 953.929,-118.079"/>
</g>
<!-- Node6 -->
<g id="node11" class="node"><title>Node6</title>
<a xlink:href="../../d8/d71/_message_digest_8h.html" target="_top" xlink:title="/home/vilon_tao/gaia/sdk/include/gaia/security/MessageDigest.h">
<polygon fill="white" stroke="black" points="871.5,-58.5 871.5,-79.5 1168.5,-79.5 1168.5,-58.5 871.5,-58.5"/>
<text text-anchor="middle" x="1020" y="-66.5" font-family="Helvetica,sans-Serif" font-size="10.00">/home/vilon_tao/gaia/sdk/include/gaia/security/MessageDigest.h</text>
</a>
</g>
<!-- Node1&#45;&gt;Node6 -->
<g id="edge10" class="edge"><title>Node1&#45;&gt;Node6</title>
<path fill="none" stroke="midnightblue" d="M1020,-106.191C1020,-97.1684 1020,-86.9941 1020,-79.5707"/>
<polygon fill="midnightblue" stroke="midnightblue" points="1016.5,-106.362 1020,-116.362 1023.5,-106.362 1016.5,-106.362"/>
</g>
<!-- Node7 -->
<g id="node13" class="node"><title>Node7</title>
<a xlink:href="../../d7/dea/_private_key_8h.html" target="_top" xlink:title="/home/vilon_tao/gaia/sdk/include/gaia/security/PrivateKey.h">
<polygon fill="white" stroke="black" points="1185.5,-58.5 1185.5,-79.5 1462.5,-79.5 1462.5,-58.5 1185.5,-58.5"/>
<text text-anchor="middle" x="1324" y="-66.5" font-family="Helvetica,sans-Serif" font-size="10.00">/home/vilon_tao/gaia/sdk/include/gaia/security/PrivateKey.h</text>
</a>
</g>
<!-- Node1&#45;&gt;Node7 -->
<g id="edge12" class="edge"><title>Node1&#45;&gt;Node7</title>
<path fill="none" stroke="midnightblue" d="M1084.99,-114.6C1139.71,-104.161 1217.1,-89.3945 1268.84,-79.5231"/>
<polygon fill="midnightblue" stroke="midnightblue" points="1084.22,-111.184 1075.05,-116.497 1085.53,-118.06 1084.22,-111.184"/>
</g>
<!-- Node8 -->
<g id="node15" class="node"><title>Node8</title>
<a xlink:href="../../d8/db8/_public_key_8h.html" target="_top" xlink:title="/home/vilon_tao/gaia/sdk/include/gaia/security/PublicKey.h">
<polygon fill="white" stroke="black" points="1479.5,-58.5 1479.5,-79.5 1752.5,-79.5 1752.5,-58.5 1479.5,-58.5"/>
<text text-anchor="middle" x="1616" y="-66.5" font-family="Helvetica,sans-Serif" font-size="10.00">/home/vilon_tao/gaia/sdk/include/gaia/security/PublicKey.h</text>
</a>
</g>
<!-- Node1&#45;&gt;Node8 -->
<g id="edge14" class="edge"><title>Node1&#45;&gt;Node8</title>
<path fill="none" stroke="midnightblue" d="M1138.19,-115.498C1245.84,-105.023 1403.48,-89.6812 1507.87,-79.5231"/>
<polygon fill="midnightblue" stroke="midnightblue" points="1137.55,-112.044 1127.93,-116.497 1138.22,-119.012 1137.55,-112.044"/>
</g>
<!-- Node9 -->
<g id="node17" class="node"><title>Node9</title>
<a xlink:href="../../d1/de4/_secret_key_8h.html" target="_top" xlink:title="/home/vilon_tao/gaia/sdk/include/gaia/security/SecretKey.h">
<polygon fill="white" stroke="black" points="1769.5,-58.5 1769.5,-79.5 2044.5,-79.5 2044.5,-58.5 1769.5,-58.5"/>
<text text-anchor="middle" x="1907" y="-66.5" font-family="Helvetica,sans-Serif" font-size="10.00">/home/vilon_tao/gaia/sdk/include/gaia/security/SecretKey.h</text>
</a>
</g>
<!-- Node1&#45;&gt;Node9 -->
<g id="edge16" class="edge"><title>Node1&#45;&gt;Node9</title>
<path fill="none" stroke="midnightblue" d="M1198.39,-116.28C1348.51,-107.116 1568.83,-93.3336 1761,-80 1763.79,-79.8065 1766.61,-79.6093 1769.45,-79.409"/>
<polygon fill="midnightblue" stroke="midnightblue" points="1197.92,-112.802 1188.15,-116.904 1198.35,-119.789 1197.92,-112.802"/>
</g>
<!-- Node4 -->
<g id="node7" class="node"><title>Node4</title>
<a xlink:href="../../df/dd5/_x509_certificate_8h.html" target="_top" xlink:title="/home/vilon_tao/gaia/sdk/include/gaia/security/X509Certificate.h">
<polygon fill="white" stroke="black" points="269,-0.5 269,-21.5 565,-21.5 565,-0.5 269,-0.5"/>
<text text-anchor="middle" x="417" y="-8.5" font-family="Helvetica,sans-Serif" font-size="10.00">/home/vilon_tao/gaia/sdk/include/gaia/security/X509Certificate.h</text>
</a>
</g>
<!-- Node3&#45;&gt;Node4 -->
<g id="edge6" class="edge"><title>Node3&#45;&gt;Node4</title>
<path fill="none" stroke="midnightblue" d="M417,-48.1906C417,-39.1684 417,-28.9941 417,-21.5707"/>
<polygon fill="midnightblue" stroke="midnightblue" points="413.5,-48.3619 417,-58.3619 420.5,-48.3619 413.5,-48.3619"/>
</g>
</g>
</svg>
