<?xml version="1.0" encoding="UTF-8" standalone="no"?>
<!DOCTYPE svg PUBLIC "-//W3C//DTD SVG 1.1//EN"
 "http://www.w3.org/Graphics/SVG/1.1/DTD/svg11.dtd">
<!-- Generated by graphviz version 2.26.3 (20100126.1600)
 -->
<!-- Title: G Pages: 1 -->
<svg width="754pt" height="146pt"
 viewBox="0.00 0.00 754.00 146.00" xmlns="http://www.w3.org/2000/svg" xmlns:xlink="http://www.w3.org/1999/xlink">
<g id="graph1" class="graph" transform="scale(1 1) rotate(0) translate(4 142)">
<title>G</title>
<polygon fill="white" stroke="white" points="-4,5 -4,-142 751,-142 751,5 -4,5"/>
<!-- Node1 -->
<g id="node1" class="node"><title>Node1</title>
<polygon fill="#bfbfbf" stroke="black" points="212,-116.5 212,-137.5 536,-137.5 536,-116.5 212,-116.5"/>
<text text-anchor="middle" x="374" y="-124.5" font-family="Helvetica,sans-Serif" font-size="10.00">/home/vilon_tao/gaia/sdk/include/gaia/text/method/MovementMethod.h</text>
</g>
<!-- Node2 -->
<g id="node3" class="node"><title>Node2</title>
<a xlink:href="../../dd/dbe/_arrow_key_movement_method_8h.html" target="_top" xlink:title="/home/vilon_tao/gaia/sdk/include/gaia/text/method/ArrowKeyMovementMethod.h">
<polygon fill="white" stroke="black" points="-0.5,-58.5 -0.5,-79.5 366.5,-79.5 366.5,-58.5 -0.5,-58.5"/>
<text text-anchor="middle" x="183" y="-66.5" font-family="Helvetica,sans-Serif" font-size="10.00">/home/vilon_tao/gaia/sdk/include/gaia/text/method/ArrowKeyMovementMethod.h</text>
</a>
</g>
<!-- Node1&#45;&gt;Node2 -->
<g id="edge2" class="edge"><title>Node1&#45;&gt;Node2</title>
<path fill="none" stroke="midnightblue" d="M329.696,-113.546C295.577,-103.186 249.082,-89.0668 217.654,-79.5231"/>
<polygon fill="midnightblue" stroke="midnightblue" points="328.826,-116.94 339.411,-116.497 330.86,-110.242 328.826,-116.94"/>
</g>
<!-- Node3 -->
<g id="node5" class="node"><title>Node3</title>
<a xlink:href="../../df/d3c/_scrolling_movement_method_8h.html" target="_top" xlink:title="/home/vilon_tao/gaia/sdk/include/gaia/text/method/ScrollingMovementMethod.h">
<polygon fill="white" stroke="black" points="384,-58.5 384,-79.5 746,-79.5 746,-58.5 384,-58.5"/>
<text text-anchor="middle" x="565" y="-66.5" font-family="Helvetica,sans-Serif" font-size="10.00">/home/vilon_tao/gaia/sdk/include/gaia/text/method/ScrollingMovementMethod.h</text>
</a>
</g>
<!-- Node1&#45;&gt;Node3 -->
<g id="edge4" class="edge"><title>Node1&#45;&gt;Node3</title>
<path fill="none" stroke="midnightblue" d="M418.304,-113.546C452.423,-103.186 498.918,-89.0668 530.346,-79.5231"/>
<polygon fill="midnightblue" stroke="midnightblue" points="417.14,-110.242 408.589,-116.497 419.174,-116.94 417.14,-110.242"/>
</g>
<!-- Node4 -->
<g id="node7" class="node"><title>Node4</title>
<a xlink:href="../../d8/dc4/_link_movement_method_8h.html" target="_top" xlink:title="/home/vilon_tao/gaia/sdk/include/gaia/text/method/LinkMovementMethod.h">
<polygon fill="white" stroke="black" points="394,-0.5 394,-21.5 736,-21.5 736,-0.5 394,-0.5"/>
<text text-anchor="middle" x="565" y="-8.5" font-family="Helvetica,sans-Serif" font-size="10.00">/home/vilon_tao/gaia/sdk/include/gaia/text/method/LinkMovementMethod.h</text>
</a>
</g>
<!-- Node3&#45;&gt;Node4 -->
<g id="edge6" class="edge"><title>Node3&#45;&gt;Node4</title>
<path fill="none" stroke="midnightblue" d="M565,-48.1906C565,-39.1684 565,-28.9941 565,-21.5707"/>
<polygon fill="midnightblue" stroke="midnightblue" points="561.5,-48.3619 565,-58.3619 568.5,-48.3619 561.5,-48.3619"/>
</g>
</g>
</svg>
