<?xml version="1.0" encoding="UTF-8" standalone="no"?>
<!DOCTYPE svg PUBLIC "-//W3C//DTD SVG 1.1//EN"
 "http://www.w3.org/Graphics/SVG/1.1/DTD/svg11.dtd">
<!-- Generated by graphviz version 2.26.3 (20100126.1600)
 -->
<!-- Title: G Pages: 1 -->
<svg width="304pt" height="190pt"
 viewBox="0.00 0.00 304.00 190.00" xmlns="http://www.w3.org/2000/svg" xmlns:xlink="http://www.w3.org/1999/xlink">
<g id="graph1" class="graph" transform="scale(1 1) rotate(0) translate(4 186)">
<title>G</title>
<polygon fill="white" stroke="white" points="-4,5 -4,-186 301,-186 301,5 -4,5"/>
<!-- Node1 -->
<g id="node1" class="node"><title>Node1</title>
<polygon fill="#bfbfbf" stroke="black" points="0.5,-80.5 0.5,-101.5 109.5,-101.5 109.5,-80.5 0.5,-80.5"/>
<text text-anchor="middle" x="55" y="-88.5" font-family="Helvetica,sans-Serif" font-size="10.00">gaia::core::Animation</text>
</g>
<!-- Node2 -->
<g id="node3" class="node"><title>Node2</title>
<a xlink:href="../../d0/d6d/classgaia_1_1core_1_1_alpha_animation.html" target="_top" xlink:title="An animation that controls the alpha level of an object.">
<polygon fill="white" stroke="black" points="154,-160.5 154,-181.5 288,-181.5 288,-160.5 154,-160.5"/>
<text text-anchor="middle" x="221" y="-168.5" font-family="Helvetica,sans-Serif" font-size="10.00">gaia::core::AlphaAnimation</text>
</a>
</g>
<!-- Node1&#45;&gt;Node2 -->
<g id="edge2" class="edge"><title>Node1&#45;&gt;Node2</title>
<path fill="none" stroke="midnightblue" d="M76.0381,-107.723C93.7852,-121.107 120.331,-139.483 146,-151 154.238,-154.696 163.301,-157.827 172.193,-160.436"/>
<polygon fill="midnightblue" stroke="midnightblue" points="78.1374,-104.922 68.0751,-101.605 73.8729,-110.473 78.1374,-104.922"/>
</g>
<!-- Node3 -->
<g id="node5" class="node"><title>Node3</title>
<a xlink:href="../../d3/d23/classgaia_1_1core_1_1_animation_set.html" target="_top" xlink:title="Represents a group of Animations that should be played together.">
<polygon fill="white" stroke="black" points="159,-120.5 159,-141.5 283,-141.5 283,-120.5 159,-120.5"/>
<text text-anchor="middle" x="221" y="-128.5" font-family="Helvetica,sans-Serif" font-size="10.00">gaia::core::AnimationSet</text>
</a>
</g>
<!-- Node1&#45;&gt;Node3 -->
<g id="edge4" class="edge"><title>Node1&#45;&gt;Node3</title>
<path fill="none" stroke="midnightblue" d="M108.581,-103.911C130.828,-109.272 156.314,-115.413 177.389,-120.491"/>
<polygon fill="midnightblue" stroke="midnightblue" points="109.156,-100.45 98.6145,-101.51 107.516,-107.255 109.156,-100.45"/>
</g>
<!-- Node4 -->
<g id="node7" class="node"><title>Node4</title>
<a xlink:href="../../d7/deb/classgaia_1_1core_1_1_rotate_animation.html" target="_top" xlink:title="An animation that controls the rotation of an object.">
<polygon fill="white" stroke="black" points="152,-80.5 152,-101.5 290,-101.5 290,-80.5 152,-80.5"/>
<text text-anchor="middle" x="221" y="-88.5" font-family="Helvetica,sans-Serif" font-size="10.00">gaia::core::RotateAnimation</text>
</a>
</g>
<!-- Node1&#45;&gt;Node4 -->
<g id="edge6" class="edge"><title>Node1&#45;&gt;Node4</title>
<path fill="none" stroke="midnightblue" d="M120.055,-91C130.453,-91 141.246,-91 151.737,-91"/>
<polygon fill="midnightblue" stroke="midnightblue" points="119.815,-87.5001 109.815,-91 119.815,-94.5001 119.815,-87.5001"/>
</g>
<!-- Node5 -->
<g id="node9" class="node"><title>Node5</title>
<a xlink:href="../../df/dab/classgaia_1_1core_1_1_scale_animation.html" target="_top" xlink:title="An animation that controls the scale of an object.">
<polygon fill="white" stroke="black" points="154,-40.5 154,-61.5 288,-61.5 288,-40.5 154,-40.5"/>
<text text-anchor="middle" x="221" y="-48.5" font-family="Helvetica,sans-Serif" font-size="10.00">gaia::core::ScaleAnimation</text>
</a>
</g>
<!-- Node1&#45;&gt;Node5 -->
<g id="edge8" class="edge"><title>Node1&#45;&gt;Node5</title>
<path fill="none" stroke="midnightblue" d="M108.581,-78.089C130.828,-72.7282 156.314,-66.587 177.389,-61.5087"/>
<polygon fill="midnightblue" stroke="midnightblue" points="107.516,-74.7452 98.6145,-80.4905 109.156,-81.5504 107.516,-74.7452"/>
</g>
<!-- Node6 -->
<g id="node11" class="node"><title>Node6</title>
<a xlink:href="../../d1/d92/classgaia_1_1core_1_1_translate_animation.html" target="_top" xlink:title="An animation that controls the position of an object.">
<polygon fill="white" stroke="black" points="146.5,-0.5 146.5,-21.5 295.5,-21.5 295.5,-0.5 146.5,-0.5"/>
<text text-anchor="middle" x="221" y="-8.5" font-family="Helvetica,sans-Serif" font-size="10.00">gaia::core::TranslateAnimation</text>
</a>
</g>
<!-- Node1&#45;&gt;Node6 -->
<g id="edge10" class="edge"><title>Node1&#45;&gt;Node6</title>
<path fill="none" stroke="midnightblue" d="M76.0381,-74.2774C93.7852,-60.8933 120.331,-42.5171 146,-31 154.238,-27.3039 163.301,-24.1726 172.193,-21.5635"/>
<polygon fill="midnightblue" stroke="midnightblue" points="73.8729,-71.5271 68.0751,-80.3948 78.1374,-77.0782 73.8729,-71.5271"/>
</g>
</g>
</svg>
