<?xml version="1.0" encoding="UTF-8" standalone="no"?>
<!DOCTYPE svg PUBLIC "-//W3C//DTD SVG 1.1//EN"
 "http://www.w3.org/Graphics/SVG/1.1/DTD/svg11.dtd">
<!-- Generated by graphviz version 2.26.3 (20100126.1600)
 -->
<!-- Title: G Pages: 1 -->
<svg width="593pt" height="204pt"
 viewBox="0.00 0.00 593.00 204.00" xmlns="http://www.w3.org/2000/svg" xmlns:xlink="http://www.w3.org/1999/xlink">
<g id="graph1" class="graph" transform="scale(1 1) rotate(0) translate(4 200)">
<title>G</title>
<polygon fill="white" stroke="white" points="-4,5 -4,-200 590,-200 590,5 -4,5"/>
<!-- Node1 -->
<g id="node1" class="node"><title>Node1</title>
<polygon fill="#bfbfbf" stroke="black" points="21,-174.5 21,-195.5 383,-195.5 383,-174.5 21,-174.5"/>
<text text-anchor="middle" x="202" y="-182.5" font-family="Helvetica,sans-Serif" font-size="10.00">/home/vilon_tao/gaia/sdk/include/gaia/ui/preference/MultiSelectListPreference.h</text>
</g>
<!-- Node2 -->
<g id="node3" class="node"><title>Node2</title>
<polygon fill="white" stroke="#bfbfbf" points="229.5,-0.5 229.5,-21.5 278.5,-21.5 278.5,-0.5 229.5,-0.5"/>
<text text-anchor="middle" x="254" y="-8.5" font-family="Helvetica,sans-Serif" font-size="10.00">stdint.h</text>
</g>
<!-- Node1&#45;&gt;Node2 -->
<g id="edge2" class="edge"><title>Node1&#45;&gt;Node2</title>
<path fill="none" stroke="midnightblue" d="M214.438,-174.406C223.759,-165.671 235.913,-152.411 242,-138 256.788,-102.99 257.142,-57.8496 255.769,-31.892"/>
<polygon fill="midnightblue" stroke="midnightblue" points="259.248,-31.4667 255.087,-21.7235 252.264,-31.9353 259.248,-31.4667"/>
</g>
<!-- Node3 -->
<g id="node5" class="node"><title>Node3</title>
<a xlink:href="../../d6/dc1/_dialog_preference_8h.html" target="_top" xlink:title="gaia/ui/preference/DialogPreference.h">
<polygon fill="white" stroke="black" points="53,-116.5 53,-137.5 233,-137.5 233,-116.5 53,-116.5"/>
<text text-anchor="middle" x="143" y="-124.5" font-family="Helvetica,sans-Serif" font-size="10.00">gaia/ui/preference/DialogPreference.h</text>
</a>
</g>
<!-- Node1&#45;&gt;Node3 -->
<g id="edge4" class="edge"><title>Node1&#45;&gt;Node3</title>
<path fill="none" stroke="midnightblue" d="M191.178,-174.362C182.779,-166.104 170.946,-154.472 161.11,-144.803"/>
<polygon fill="midnightblue" stroke="midnightblue" points="163.338,-142.085 153.753,-137.571 158.431,-147.077 163.338,-142.085"/>
</g>
<!-- Node5 -->
<g id="node10" class="node"><title>Node5</title>
<a xlink:href="../../d1/dd0/gmacros_8h.html" target="_top" xlink:title="gaia/base/gmacros.h">
<polygon fill="white" stroke="black" points="-0.5,-0.5 -0.5,-21.5 106.5,-21.5 106.5,-0.5 -0.5,-0.5"/>
<text text-anchor="middle" x="53" y="-8.5" font-family="Helvetica,sans-Serif" font-size="10.00">gaia/base/gmacros.h</text>
</a>
</g>
<!-- Node1&#45;&gt;Node5 -->
<g id="edge32" class="edge"><title>Node1&#45;&gt;Node5</title>
<path fill="none" stroke="midnightblue" d="M140.187,-174.425C101.123,-166.34 55.8486,-153.886 44,-138 20.681,-106.735 33.7849,-58.2312 44.1794,-31.1083"/>
<polygon fill="midnightblue" stroke="midnightblue" points="47.4233,-32.4223 47.9489,-21.8405 40.9391,-29.785 47.4233,-32.4223"/>
</g>
<!-- Node6 -->
<g id="node13" class="node"><title>Node6</title>
<a xlink:href="../../d4/d7f/_vector_8h.html" target="_top" xlink:title="gaia/base/Vector.h">
<polygon fill="white" stroke="black" points="347,-116.5 347,-137.5 445,-137.5 445,-116.5 347,-116.5"/>
<text text-anchor="middle" x="396" y="-124.5" font-family="Helvetica,sans-Serif" font-size="10.00">gaia/base/Vector.h</text>
</a>
</g>
<!-- Node1&#45;&gt;Node6 -->
<g id="edge14" class="edge"><title>Node1&#45;&gt;Node6</title>
<path fill="none" stroke="midnightblue" d="M237.132,-174.497C269.033,-164.959 316.257,-150.841 350.928,-140.475"/>
<polygon fill="midnightblue" stroke="midnightblue" points="352.224,-143.741 360.802,-137.523 350.219,-137.034 352.224,-143.741"/>
</g>
<!-- Node4 -->
<g id="node7" class="node"><title>Node4</title>
<a xlink:href="../../d4/dd7/_preference_8h.html" target="_top" xlink:title="gaia/ui/preference/Preference.h">
<polygon fill="white" stroke="black" points="81,-58.5 81,-79.5 233,-79.5 233,-58.5 81,-58.5"/>
<text text-anchor="middle" x="157" y="-66.5" font-family="Helvetica,sans-Serif" font-size="10.00">gaia/ui/preference/Preference.h</text>
</a>
</g>
<!-- Node3&#45;&gt;Node4 -->
<g id="edge6" class="edge"><title>Node3&#45;&gt;Node4</title>
<path fill="none" stroke="midnightblue" d="M145.568,-116.362C147.383,-108.84 149.875,-98.5187 152.068,-89.4308"/>
<polygon fill="midnightblue" stroke="midnightblue" points="155.504,-90.1127 154.448,-79.5707 148.7,-88.4702 155.504,-90.1127"/>
</g>
<!-- Node3&#45;&gt;Node5 -->
<g id="edge12" class="edge"><title>Node3&#45;&gt;Node5</title>
<path fill="none" stroke="midnightblue" d="M118.603,-116.429C103.102,-108.523 83.8016,-96.2757 72,-80 61.7705,-65.8924 57.0468,-46.5327 54.8665,-31.9101"/>
<polygon fill="midnightblue" stroke="midnightblue" points="58.3212,-31.3242 53.6459,-21.8168 51.3719,-32.1647 58.3212,-31.3242"/>
</g>
<!-- Node4&#45;&gt;Node2 -->
<g id="edge8" class="edge"><title>Node4&#45;&gt;Node2</title>
<path fill="none" stroke="midnightblue" d="M174.791,-58.3619C189.559,-49.532 210.778,-36.844 227.538,-26.8224"/>
<polygon fill="midnightblue" stroke="midnightblue" points="229.535,-29.7066 236.321,-21.5707 225.943,-23.6987 229.535,-29.7066"/>
</g>
<!-- Node4&#45;&gt;Node5 -->
<g id="edge10" class="edge"><title>Node4&#45;&gt;Node5</title>
<path fill="none" stroke="midnightblue" d="M137.925,-58.3619C121.945,-49.4502 98.919,-36.6087 80.8733,-26.5447"/>
<polygon fill="midnightblue" stroke="midnightblue" points="82.3927,-23.3846 71.9543,-21.5707 78.9832,-29.4982 82.3927,-23.3846"/>
</g>
<!-- Node7 -->
<g id="node15" class="node"><title>Node7</title>
<a xlink:href="../../d1/d86/_type_helpers_8h.html" target="_top" xlink:title="gaia/base/TypeHelpers.h">
<polygon fill="white" stroke="black" points="288.5,-58.5 288.5,-79.5 413.5,-79.5 413.5,-58.5 288.5,-58.5"/>
<text text-anchor="middle" x="351" y="-66.5" font-family="Helvetica,sans-Serif" font-size="10.00">gaia/base/TypeHelpers.h</text>
</a>
</g>
<!-- Node6&#45;&gt;Node7 -->
<g id="edge16" class="edge"><title>Node6&#45;&gt;Node7</title>
<path fill="none" stroke="midnightblue" d="M387.746,-116.362C381.53,-108.35 372.849,-97.1605 365.485,-87.6696"/>
<polygon fill="midnightblue" stroke="midnightblue" points="368.097,-85.326 359.201,-79.5707 362.566,-89.617 368.097,-85.326"/>
</g>
<!-- Node9 -->
<g id="node20" class="node"><title>Node9</title>
<polygon fill="white" stroke="#bfbfbf" points="414,-0.5 414,-21.5 482,-21.5 482,-0.5 414,-0.5"/>
<text text-anchor="middle" x="448" y="-8.5" font-family="Helvetica,sans-Serif" font-size="10.00">sys/types.h</text>
</g>
<!-- Node6&#45;&gt;Node9 -->
<g id="edge30" class="edge"><title>Node6&#45;&gt;Node9</title>
<path fill="none" stroke="midnightblue" d="M402.443,-116.403C408.004,-107.024 416.055,-92.867 422,-80 429.359,-64.0721 436.291,-45.4207 441.144,-31.5279"/>
<polygon fill="midnightblue" stroke="midnightblue" points="444.493,-32.5501 444.422,-21.9555 437.871,-30.2822 444.493,-32.5501"/>
</g>
<!-- Node11 -->
<g id="node24" class="node"><title>Node11</title>
<a xlink:href="../../dc/da9/_vector_impl_8h.html" target="_top" xlink:title="gaia/base/VectorImpl.h">
<polygon fill="white" stroke="black" points="468.5,-58.5 468.5,-79.5 585.5,-79.5 585.5,-58.5 468.5,-58.5"/>
<text text-anchor="middle" x="527" y="-66.5" font-family="Helvetica,sans-Serif" font-size="10.00">gaia/base/VectorImpl.h</text>
</a>
</g>
<!-- Node6&#45;&gt;Node11 -->
<g id="edge26" class="edge"><title>Node6&#45;&gt;Node11</title>
<path fill="none" stroke="midnightblue" d="M419.723,-116.497C440.368,-107.356 470.516,-94.0082 493.599,-83.7883"/>
<polygon fill="midnightblue" stroke="midnightblue" points="495.284,-86.8701 503.011,-79.6212 492.45,-80.4694 495.284,-86.8701"/>
</g>
<!-- Node7&#45;&gt;Node2 -->
<g id="edge18" class="edge"><title>Node7&#45;&gt;Node2</title>
<path fill="none" stroke="midnightblue" d="M333.209,-58.3619C318.441,-49.532 297.222,-36.844 280.462,-26.8224"/>
<polygon fill="midnightblue" stroke="midnightblue" points="282.057,-23.6987 271.679,-21.5707 278.465,-29.7066 282.057,-23.6987"/>
</g>
<!-- Node8 -->
<g id="node18" class="node"><title>Node8</title>
<polygon fill="white" stroke="#bfbfbf" points="295.5,-0.5 295.5,-21.5 344.5,-21.5 344.5,-0.5 295.5,-0.5"/>
<text text-anchor="middle" x="320" y="-8.5" font-family="Helvetica,sans-Serif" font-size="10.00">string.h</text>
</g>
<!-- Node7&#45;&gt;Node8 -->
<g id="edge20" class="edge"><title>Node7&#45;&gt;Node8</title>
<path fill="none" stroke="midnightblue" d="M345.314,-58.3619C341.163,-50.5949 335.416,-39.8426 330.447,-30.5458"/>
<polygon fill="midnightblue" stroke="midnightblue" points="333.45,-28.7401 325.65,-21.5707 327.277,-32.0398 333.45,-28.7401"/>
</g>
<!-- Node7&#45;&gt;Node9 -->
<g id="edge22" class="edge"><title>Node7&#45;&gt;Node9</title>
<path fill="none" stroke="midnightblue" d="M368.791,-58.3619C383.559,-49.532 404.778,-36.844 421.538,-26.8224"/>
<polygon fill="midnightblue" stroke="midnightblue" points="423.535,-29.7066 430.321,-21.5707 419.943,-23.6987 423.535,-29.7066"/>
</g>
<!-- Node10 -->
<g id="node22" class="node"><title>Node10</title>
<polygon fill="white" stroke="#bfbfbf" points="361.5,-0.5 361.5,-21.5 396.5,-21.5 396.5,-0.5 361.5,-0.5"/>
<text text-anchor="middle" x="379" y="-8.5" font-family="Helvetica,sans-Serif" font-size="10.00">new</text>
</g>
<!-- Node7&#45;&gt;Node10 -->
<g id="edge24" class="edge"><title>Node7&#45;&gt;Node10</title>
<path fill="none" stroke="midnightblue" d="M356.136,-58.3619C359.846,-50.6766 364.967,-40.0686 369.422,-30.8399"/>
<polygon fill="midnightblue" stroke="midnightblue" points="372.701,-32.0978 373.897,-21.5707 366.397,-29.0545 372.701,-32.0978"/>
</g>
<!-- Node11&#45;&gt;Node9 -->
<g id="edge28" class="edge"><title>Node11&#45;&gt;Node9</title>
<path fill="none" stroke="midnightblue" d="M512.51,-58.3619C500.817,-49.7773 484.157,-37.5459 470.697,-27.6636"/>
<polygon fill="midnightblue" stroke="midnightblue" points="472.53,-24.6675 462.398,-21.5707 468.387,-30.31 472.53,-24.6675"/>
</g>
</g>
</svg>
