<?xml version="1.0" encoding="UTF-8" standalone="no"?>
<!DOCTYPE svg PUBLIC "-//W3C//DTD SVG 1.1//EN"
 "http://www.w3.org/Graphics/SVG/1.1/DTD/svg11.dtd">
<!-- Generated by graphviz version 2.26.3 (20100126.1600)
 -->
<!-- Title: G Pages: 1 -->
<svg width="938pt" height="204pt"
 viewBox="0.00 0.00 938.00 204.00" xmlns="http://www.w3.org/2000/svg" xmlns:xlink="http://www.w3.org/1999/xlink">
<g id="graph1" class="graph" transform="scale(1 1) rotate(0) translate(4 200)">
<title>G</title>
<polygon fill="white" stroke="white" points="-4,5 -4,-200 935,-200 935,5 -4,5"/>
<!-- Node1 -->
<g id="node1" class="node"><title>Node1</title>
<polygon fill="#bfbfbf" stroke="black" points="427.5,-174.5 427.5,-195.5 668.5,-195.5 668.5,-174.5 427.5,-174.5"/>
<text text-anchor="middle" x="548" y="-182.5" font-family="Helvetica,sans-Serif" font-size="10.00">/home/vilon_tao/gaia/sdk/include/gaia/core/Parcel.h</text>
</g>
<!-- Node2 -->
<g id="node3" class="node"><title>Node2</title>
<polygon fill="white" stroke="#bfbfbf" points="478,-0.5 478,-21.5 546,-21.5 546,-0.5 478,-0.5"/>
<text text-anchor="middle" x="512" y="-8.5" font-family="Helvetica,sans-Serif" font-size="10.00">sys/types.h</text>
</g>
<!-- Node1&#45;&gt;Node2 -->
<g id="edge2" class="edge"><title>Node1&#45;&gt;Node2</title>
<path fill="none" stroke="midnightblue" d="M528.615,-174.458C515.894,-166.35 500.307,-153.856 493,-138 476.772,-102.787 491.362,-56.8051 502.387,-30.9375"/>
<polygon fill="midnightblue" stroke="midnightblue" points="505.599,-32.3276 506.508,-21.7718 499.215,-29.4568 505.599,-32.3276"/>
</g>
<!-- Node3 -->
<g id="node5" class="node"><title>Node3</title>
<a xlink:href="../../d3/dc5/_array_8h.html" target="_top" xlink:title="gaia/base/Array.h">
<polygon fill="white" stroke="black" points="501.5,-116.5 501.5,-137.5 594.5,-137.5 594.5,-116.5 501.5,-116.5"/>
<text text-anchor="middle" x="548" y="-124.5" font-family="Helvetica,sans-Serif" font-size="10.00">gaia/base/Array.h</text>
</a>
</g>
<!-- Node1&#45;&gt;Node3 -->
<g id="edge4" class="edge"><title>Node1&#45;&gt;Node3</title>
<path fill="none" stroke="midnightblue" d="M548,-174.362C548,-166.922 548,-156.743 548,-147.728"/>
<polygon fill="midnightblue" stroke="midnightblue" points="551.5,-147.571 548,-137.571 544.5,-147.571 551.5,-147.571"/>
</g>
<!-- Node9 -->
<g id="node20" class="node"><title>Node9</title>
<a xlink:href="../../d4/d7f/_vector_8h.html" target="_top" xlink:title="gaia/base/Vector.h">
<polygon fill="white" stroke="black" points="621,-116.5 621,-137.5 719,-137.5 719,-116.5 621,-116.5"/>
<text text-anchor="middle" x="670" y="-124.5" font-family="Helvetica,sans-Serif" font-size="10.00">gaia/base/Vector.h</text>
</a>
</g>
<!-- Node1&#45;&gt;Node9 -->
<g id="edge22" class="edge"><title>Node1&#45;&gt;Node9</title>
<path fill="none" stroke="midnightblue" d="M570.093,-174.497C589.234,-165.397 617.146,-152.127 638.605,-141.925"/>
<polygon fill="midnightblue" stroke="midnightblue" points="640.13,-145.076 647.659,-137.621 637.125,-138.754 640.13,-145.076"/>
</g>
<!-- Node11 -->
<g id="node27" class="node"><title>Node11</title>
<a xlink:href="../../db/db5/_string_8h.html" target="_top" xlink:title="gaia/base/String.h">
<polygon fill="white" stroke="black" points="327.5,-116.5 327.5,-137.5 422.5,-137.5 422.5,-116.5 327.5,-116.5"/>
<text text-anchor="middle" x="375" y="-124.5" font-family="Helvetica,sans-Serif" font-size="10.00">gaia/base/String.h</text>
</a>
</g>
<!-- Node1&#45;&gt;Node11 -->
<g id="edge32" class="edge"><title>Node1&#45;&gt;Node11</title>
<path fill="none" stroke="midnightblue" d="M516.671,-174.497C488.467,-165.041 446.833,-151.083 415.991,-140.743"/>
<polygon fill="midnightblue" stroke="midnightblue" points="416.982,-137.383 406.388,-137.523 414.757,-144.02 416.982,-137.383"/>
</g>
<!-- Node14 -->
<g id="node36" class="node"><title>Node14</title>
<a xlink:href="../../d8/d4d/_parcelable_8h.html" target="_top" xlink:title="gaia/core/Parcelable.h">
<polygon fill="white" stroke="black" points="795.5,-116.5 795.5,-137.5 908.5,-137.5 908.5,-116.5 795.5,-116.5"/>
<text text-anchor="middle" x="852" y="-124.5" font-family="Helvetica,sans-Serif" font-size="10.00">gaia/core/Parcelable.h</text>
</a>
</g>
<!-- Node1&#45;&gt;Node14 -->
<g id="edge44" class="edge"><title>Node1&#45;&gt;Node14</title>
<path fill="none" stroke="midnightblue" d="M603.052,-174.497C654.758,-164.632 732.151,-149.866 786.897,-139.421"/>
<polygon fill="midnightblue" stroke="midnightblue" points="787.678,-142.835 796.845,-137.523 786.366,-135.959 787.678,-142.835"/>
</g>
<!-- Node3&#45;&gt;Node2 -->
<g id="edge20" class="edge"><title>Node3&#45;&gt;Node2</title>
<path fill="none" stroke="midnightblue" d="M543.842,-116.255C540.241,-106.782 534.997,-92.569 531,-80 525.89,-63.9299 520.858,-45.5058 517.257,-31.7403"/>
<polygon fill="midnightblue" stroke="midnightblue" points="520.589,-30.6426 514.703,-21.8334 513.811,-32.3906 520.589,-30.6426"/>
</g>
<!-- Node4 -->
<g id="node7" class="node"><title>Node4</title>
<a xlink:href="../../d8/dae/_array_impl_8h.html" target="_top" xlink:title="gaia/base/ArrayImpl.h">
<polygon fill="white" stroke="black" points="540,-58.5 540,-79.5 652,-79.5 652,-58.5 540,-58.5"/>
<text text-anchor="middle" x="596" y="-66.5" font-family="Helvetica,sans-Serif" font-size="10.00">gaia/base/ArrayImpl.h</text>
</a>
</g>
<!-- Node3&#45;&gt;Node4 -->
<g id="edge6" class="edge"><title>Node3&#45;&gt;Node4</title>
<path fill="none" stroke="midnightblue" d="M556.804,-116.362C563.502,-108.268 572.884,-96.9318 580.789,-87.3796"/>
<polygon fill="midnightblue" stroke="midnightblue" points="583.573,-89.5061 587.252,-79.5707 578.18,-85.0431 583.573,-89.5061"/>
</g>
<!-- Node5 -->
<g id="node10" class="node"><title>Node5</title>
<a xlink:href="../../d1/d86/_type_helpers_8h.html" target="_top" xlink:title="gaia/base/TypeHelpers.h">
<polygon fill="white" stroke="black" points="151.5,-58.5 151.5,-79.5 276.5,-79.5 276.5,-58.5 151.5,-58.5"/>
<text text-anchor="middle" x="214" y="-66.5" font-family="Helvetica,sans-Serif" font-size="10.00">gaia/base/TypeHelpers.h</text>
</a>
</g>
<!-- Node3&#45;&gt;Node5 -->
<g id="edge10" class="edge"><title>Node3&#45;&gt;Node5</title>
<path fill="none" stroke="midnightblue" d="M501.207,-118.874C444.969,-109.108 350.042,-92.6241 284.816,-81.2974"/>
<polygon fill="midnightblue" stroke="midnightblue" points="285.065,-77.7883 274.613,-79.5257 283.867,-84.6851 285.065,-77.7883"/>
</g>
<!-- Node4&#45;&gt;Node2 -->
<g id="edge8" class="edge"><title>Node4&#45;&gt;Node2</title>
<path fill="none" stroke="midnightblue" d="M580.593,-58.3619C568.042,-49.6955 550.108,-37.3126 535.725,-27.3819"/>
<polygon fill="midnightblue" stroke="midnightblue" points="537.527,-24.3725 527.309,-21.5707 533.55,-30.1327 537.527,-24.3725"/>
</g>
<!-- Node5&#45;&gt;Node2 -->
<g id="edge16" class="edge"><title>Node5&#45;&gt;Node2</title>
<path fill="none" stroke="midnightblue" d="M267.966,-58.4966C325.202,-47.3567 414.549,-29.9671 467.776,-19.6073"/>
<polygon fill="midnightblue" stroke="midnightblue" points="468.773,-22.9791 477.92,-17.633 467.435,-16.108 468.773,-22.9791"/>
</g>
<!-- Node6 -->
<g id="node12" class="node"><title>Node6</title>
<polygon fill="white" stroke="#bfbfbf" points="82.5,-0.5 82.5,-21.5 131.5,-21.5 131.5,-0.5 82.5,-0.5"/>
<text text-anchor="middle" x="107" y="-8.5" font-family="Helvetica,sans-Serif" font-size="10.00">stdint.h</text>
</g>
<!-- Node5&#45;&gt;Node6 -->
<g id="edge12" class="edge"><title>Node5&#45;&gt;Node6</title>
<path fill="none" stroke="midnightblue" d="M194.375,-58.3619C177.859,-49.4094 154.026,-36.4908 135.422,-26.4064"/>
<polygon fill="midnightblue" stroke="midnightblue" points="136.96,-23.2592 126.501,-21.5707 133.625,-29.4132 136.96,-23.2592"/>
</g>
<!-- Node7 -->
<g id="node14" class="node"><title>Node7</title>
<polygon fill="white" stroke="#bfbfbf" points="159.5,-0.5 159.5,-21.5 208.5,-21.5 208.5,-0.5 159.5,-0.5"/>
<text text-anchor="middle" x="184" y="-8.5" font-family="Helvetica,sans-Serif" font-size="10.00">string.h</text>
</g>
<!-- Node5&#45;&gt;Node7 -->
<g id="edge14" class="edge"><title>Node5&#45;&gt;Node7</title>
<path fill="none" stroke="midnightblue" d="M208.498,-58.3619C204.48,-50.5949 198.919,-39.8426 194.11,-30.5458"/>
<polygon fill="midnightblue" stroke="midnightblue" points="197.171,-28.8448 189.468,-21.5707 190.953,-32.0608 197.171,-28.8448"/>
</g>
<!-- Node8 -->
<g id="node17" class="node"><title>Node8</title>
<polygon fill="white" stroke="#bfbfbf" points="225.5,-0.5 225.5,-21.5 260.5,-21.5 260.5,-0.5 225.5,-0.5"/>
<text text-anchor="middle" x="243" y="-8.5" font-family="Helvetica,sans-Serif" font-size="10.00">new</text>
</g>
<!-- Node5&#45;&gt;Node8 -->
<g id="edge18" class="edge"><title>Node5&#45;&gt;Node8</title>
<path fill="none" stroke="midnightblue" d="M219.319,-58.3619C223.203,-50.5949 228.579,-39.8426 233.227,-30.5458"/>
<polygon fill="midnightblue" stroke="midnightblue" points="236.373,-32.0802 237.715,-21.5707 230.112,-28.9497 236.373,-32.0802"/>
</g>
<!-- Node9&#45;&gt;Node2 -->
<g id="edge30" class="edge"><title>Node9&#45;&gt;Node2</title>
<path fill="none" stroke="midnightblue" d="M671.849,-116.277C673.767,-101.402 674.811,-74.4818 661,-58 647.406,-41.7781 595.018,-27.8684 556.183,-19.48"/>
<polygon fill="midnightblue" stroke="midnightblue" points="556.641,-15.9997 546.134,-17.3658 555.2,-22.8498 556.641,-15.9997"/>
</g>
<!-- Node9&#45;&gt;Node5 -->
<g id="edge24" class="edge"><title>Node9&#45;&gt;Node5</title>
<path fill="none" stroke="midnightblue" d="M620.646,-118.61C614.707,-117.685 608.721,-116.793 603,-116 465.413,-96.9297 427.727,-98.791 287.012,-80.229"/>
<polygon fill="midnightblue" stroke="midnightblue" points="287.074,-76.7064 276.7,-78.8566 286.151,-83.6453 287.074,-76.7064"/>
</g>
<!-- Node10 -->
<g id="node23" class="node"><title>Node10</title>
<a xlink:href="../../dc/da9/_vector_impl_8h.html" target="_top" xlink:title="gaia/base/VectorImpl.h">
<polygon fill="white" stroke="black" points="707.5,-58.5 707.5,-79.5 824.5,-79.5 824.5,-58.5 707.5,-58.5"/>
<text text-anchor="middle" x="766" y="-66.5" font-family="Helvetica,sans-Serif" font-size="10.00">gaia/base/VectorImpl.h</text>
</a>
</g>
<!-- Node9&#45;&gt;Node10 -->
<g id="edge26" class="edge"><title>Node9&#45;&gt;Node10</title>
<path fill="none" stroke="midnightblue" d="M687.608,-116.362C702.223,-107.532 723.224,-94.844 739.811,-84.8224"/>
<polygon fill="midnightblue" stroke="midnightblue" points="741.754,-87.7376 748.504,-79.5707 738.135,-81.7461 741.754,-87.7376"/>
</g>
<!-- Node10&#45;&gt;Node2 -->
<g id="edge28" class="edge"><title>Node10&#45;&gt;Node2</title>
<path fill="none" stroke="midnightblue" d="M720.003,-58.4966C673.484,-47.8744 602.082,-31.5699 556.213,-21.0959"/>
<polygon fill="midnightblue" stroke="midnightblue" points="556.794,-17.6386 546.266,-18.8245 555.236,-24.4629 556.794,-17.6386"/>
</g>
<!-- Node11&#45;&gt;Node2 -->
<g id="edge42" class="edge"><title>Node11&#45;&gt;Node2</title>
<path fill="none" stroke="midnightblue" d="M387.643,-116.295C411.397,-96.1819 462.88,-52.5904 491.597,-28.2752"/>
<polygon fill="midnightblue" stroke="midnightblue" points="494.017,-30.8123 499.387,-21.6792 489.494,-25.47 494.017,-30.8123"/>
</g>
<!-- Node12 -->
<g id="node29" class="node"><title>Node12</title>
<a xlink:href="../../d7/d97/_char_sequence_8h.html" target="_top" xlink:title="gaia/base/CharSequence.h">
<polygon fill="white" stroke="black" points="0,-58.5 0,-79.5 134,-79.5 134,-58.5 0,-58.5"/>
<text text-anchor="middle" x="67" y="-66.5" font-family="Helvetica,sans-Serif" font-size="10.00">gaia/base/CharSequence.h</text>
</a>
</g>
<!-- Node11&#45;&gt;Node12 -->
<g id="edge34" class="edge"><title>Node11&#45;&gt;Node12</title>
<path fill="none" stroke="midnightblue" d="M327.213,-118.001C275.062,-108.181 191.227,-92.3933 132.858,-81.4019"/>
<polygon fill="midnightblue" stroke="midnightblue" points="133.47,-77.9557 122.995,-79.5445 132.175,-84.8348 133.47,-77.9557"/>
</g>
<!-- Node13 -->
<g id="node32" class="node"><title>Node13</title>
<a xlink:href="../../d6/d83/_hash_func_8h.html" target="_top" xlink:title="gaia/base/HashFunc.h">
<polygon fill="white" stroke="black" points="293.5,-58.5 293.5,-79.5 408.5,-79.5 408.5,-58.5 293.5,-58.5"/>
<text text-anchor="middle" x="351" y="-66.5" font-family="Helvetica,sans-Serif" font-size="10.00">gaia/base/HashFunc.h</text>
</a>
</g>
<!-- Node11&#45;&gt;Node13 -->
<g id="edge38" class="edge"><title>Node11&#45;&gt;Node13</title>
<path fill="none" stroke="midnightblue" d="M370.598,-116.362C367.418,-108.677 363.028,-98.0686 359.21,-88.8399"/>
<polygon fill="midnightblue" stroke="midnightblue" points="362.432,-87.4726 355.374,-79.5707 355.964,-90.1491 362.432,-87.4726"/>
</g>
<!-- Node12&#45;&gt;Node6 -->
<g id="edge36" class="edge"><title>Node12&#45;&gt;Node6</title>
<path fill="none" stroke="midnightblue" d="M74.3366,-58.3619C79.806,-50.4313 87.4217,-39.3885 93.9237,-29.9606"/>
<polygon fill="midnightblue" stroke="midnightblue" points="96.9138,-31.7899 99.7099,-21.5707 91.1513,-27.8157 96.9138,-31.7899"/>
</g>
<!-- Node13&#45;&gt;Node2 -->
<g id="edge40" class="edge"><title>Node13&#45;&gt;Node2</title>
<path fill="none" stroke="midnightblue" d="M380.156,-58.4966C406.176,-49.1229 444.479,-35.3242 473.104,-25.0122"/>
<polygon fill="midnightblue" stroke="midnightblue" points="474.568,-28.2052 482.789,-21.5231 472.195,-21.6195 474.568,-28.2052"/>
</g>
<!-- Node14&#45;&gt;Node2 -->
<g id="edge48" class="edge"><title>Node14&#45;&gt;Node2</title>
<path fill="none" stroke="midnightblue" d="M852.402,-116.283C852.344,-100.906 849.759,-72.8099 833,-58 812.586,-39.96 639.681,-22.3426 556.438,-14.8131"/>
<polygon fill="midnightblue" stroke="midnightblue" points="556.541,-11.3083 546.269,-13.9031 555.917,-18.2805 556.541,-11.3083"/>
</g>
<!-- Node15 -->
<g id="node38" class="node"><title>Node15</title>
<polygon fill="white" stroke="#bfbfbf" points="879.5,-58.5 879.5,-79.5 930.5,-79.5 930.5,-58.5 879.5,-58.5"/>
<text text-anchor="middle" x="905" y="-66.5" font-family="Helvetica,sans-Serif" font-size="10.00">typeinfo</text>
</g>
<!-- Node14&#45;&gt;Node15 -->
<g id="edge46" class="edge"><title>Node14&#45;&gt;Node15</title>
<path fill="none" stroke="midnightblue" d="M861.721,-116.362C869.192,-108.186 879.686,-96.7025 888.469,-87.0907"/>
<polygon fill="midnightblue" stroke="midnightblue" points="891.179,-89.3138 895.341,-79.5707 886.011,-84.5918 891.179,-89.3138"/>
</g>
</g>
</svg>
