<?xml version="1.0" encoding="UTF-8" standalone="no"?>
<!DOCTYPE svg PUBLIC "-//W3C//DTD SVG 1.1//EN"
 "http://www.w3.org/Graphics/SVG/1.1/DTD/svg11.dtd">
<!-- Generated by graphviz version 2.26.3 (20100126.1600)
 -->
<!-- Title: G Pages: 1 -->
<svg width="340pt" height="146pt"
 viewBox="0.00 0.00 340.00 146.00" xmlns="http://www.w3.org/2000/svg" xmlns:xlink="http://www.w3.org/1999/xlink">
<g id="graph1" class="graph" transform="scale(1 1) rotate(0) translate(4 142)">
<title>G</title>
<polygon fill="white" stroke="white" points="-4,5 -4,-142 337,-142 337,5 -4,5"/>
<!-- Node1 -->
<g id="node1" class="node"><title>Node1</title>
<polygon fill="#bfbfbf" stroke="black" points="0,-116.5 0,-137.5 332,-137.5 332,-116.5 0,-116.5"/>
<text text-anchor="middle" x="166" y="-124.5" font-family="Helvetica,sans-Serif" font-size="10.00">/home/vilon_tao/gaia/sdk/include/gaia/media/videoeditor/OverlayFrame.h</text>
</g>
<!-- Node2 -->
<g id="node3" class="node"><title>Node2</title>
<polygon fill="white" stroke="#bfbfbf" points="40.5,-0.5 40.5,-21.5 89.5,-21.5 89.5,-0.5 40.5,-0.5"/>
<text text-anchor="middle" x="65" y="-8.5" font-family="Helvetica,sans-Serif" font-size="10.00">stdint.h</text>
</g>
<!-- Node1&#45;&gt;Node2 -->
<g id="edge2" class="edge"><title>Node1&#45;&gt;Node2</title>
<path fill="none" stroke="midnightblue" d="M130.518,-116.384C112.093,-109.067 90.8117,-97.4527 78,-80 67.8831,-66.2183 64.9495,-46.8275 64.3649,-32.11"/>
<polygon fill="midnightblue" stroke="midnightblue" points="67.8637,-31.9126 64.2957,-21.9366 60.8639,-31.9602 67.8637,-31.9126"/>
</g>
<!-- Node3 -->
<g id="node5" class="node"><title>Node3</title>
<a xlink:href="../../d1/dd0/gmacros_8h.html" target="_top" xlink:title="gaia/base/gmacros.h">
<polygon fill="white" stroke="black" points="165.5,-0.5 165.5,-21.5 272.5,-21.5 272.5,-0.5 165.5,-0.5"/>
<text text-anchor="middle" x="219" y="-8.5" font-family="Helvetica,sans-Serif" font-size="10.00">gaia/base/gmacros.h</text>
</a>
</g>
<!-- Node1&#45;&gt;Node3 -->
<g id="edge4" class="edge"><title>Node1&#45;&gt;Node3</title>
<path fill="none" stroke="midnightblue" d="M205.07,-116.392C223.308,-109.267 243.312,-97.8256 254,-80 264.141,-63.0872 251.139,-42.8797 238.204,-28.7189"/>
<polygon fill="midnightblue" stroke="midnightblue" points="240.668,-26.2322 231.172,-21.5332 235.665,-31.1282 240.668,-26.2322"/>
</g>
<!-- Node4 -->
<g id="node7" class="node"><title>Node4</title>
<a xlink:href="../../d3/d25/_overlay_8h.html" target="_top" xlink:title="gaia/media/videoeditor/Overlay.h">
<polygon fill="white" stroke="black" points="86.5,-58.5 86.5,-79.5 245.5,-79.5 245.5,-58.5 86.5,-58.5"/>
<text text-anchor="middle" x="166" y="-66.5" font-family="Helvetica,sans-Serif" font-size="10.00">gaia/media/videoeditor/Overlay.h</text>
</a>
</g>
<!-- Node1&#45;&gt;Node4 -->
<g id="edge6" class="edge"><title>Node1&#45;&gt;Node4</title>
<path fill="none" stroke="midnightblue" d="M166,-116.362C166,-108.922 166,-98.7427 166,-89.7276"/>
<polygon fill="midnightblue" stroke="midnightblue" points="169.5,-89.5706 166,-79.5707 162.5,-89.5707 169.5,-89.5706"/>
</g>
<!-- Node4&#45;&gt;Node2 -->
<g id="edge8" class="edge"><title>Node4&#45;&gt;Node2</title>
<path fill="none" stroke="midnightblue" d="M147.475,-58.3619C132.099,-49.532 110.004,-36.844 92.5528,-26.8224"/>
<polygon fill="midnightblue" stroke="midnightblue" points="93.8223,-23.5154 83.4075,-21.5707 90.3364,-29.5857 93.8223,-23.5154"/>
</g>
<!-- Node4&#45;&gt;Node3 -->
<g id="edge10" class="edge"><title>Node4&#45;&gt;Node3</title>
<path fill="none" stroke="midnightblue" d="M175.721,-58.3619C183.192,-50.1861 193.686,-38.7025 202.469,-29.0907"/>
<polygon fill="midnightblue" stroke="midnightblue" points="205.179,-31.3138 209.341,-21.5707 200.011,-26.5918 205.179,-31.3138"/>
</g>
</g>
</svg>
