<?xml version="1.0" encoding="UTF-8" standalone="no"?>
<!DOCTYPE svg PUBLIC "-//W3C//DTD SVG 1.1//EN"
 "http://www.w3.org/Graphics/SVG/1.1/DTD/svg11.dtd">
<!-- Generated by graphviz version 2.26.3 (20100126.1600)
 -->
<!-- Title: G Pages: 1 -->
<svg width="1169pt" height="204pt"
 viewBox="0.00 0.00 1169.00 204.00" xmlns="http://www.w3.org/2000/svg" xmlns:xlink="http://www.w3.org/1999/xlink">
<g id="graph1" class="graph" transform="scale(1 1) rotate(0) translate(4 200)">
<title>G</title>
<polygon fill="white" stroke="white" points="-4,5 -4,-200 1166,-200 1166,5 -4,5"/>
<!-- Node1 -->
<g id="node1" class="node"><title>Node1</title>
<polygon fill="#bfbfbf" stroke="black" points="375,-174.5 375,-195.5 629,-195.5 629,-174.5 375,-174.5"/>
<text text-anchor="middle" x="502" y="-182.5" font-family="Helvetica,sans-Serif" font-size="10.00">/home/vilon_tao/gaia/sdk/include/gaia/text/InputFilter.h</text>
</g>
<!-- Node2 -->
<g id="node3" class="node"><title>Node2</title>
<a xlink:href="../../d8/d58/_all_caps_8h.html" target="_top" xlink:title="/home/vilon_tao/gaia/sdk/include/gaia/text/AllCaps.h">
<polygon fill="white" stroke="black" points="154.5,-116.5 154.5,-137.5 399.5,-137.5 399.5,-116.5 154.5,-116.5"/>
<text text-anchor="middle" x="277" y="-124.5" font-family="Helvetica,sans-Serif" font-size="10.00">/home/vilon_tao/gaia/sdk/include/gaia/text/AllCaps.h</text>
</a>
</g>
<!-- Node1&#45;&gt;Node2 -->
<g id="edge2" class="edge"><title>Node1&#45;&gt;Node2</title>
<path fill="none" stroke="midnightblue" d="M451.354,-171.945C411.03,-161.55 355.322,-147.19 317.822,-137.523"/>
<polygon fill="midnightblue" stroke="midnightblue" points="450.697,-175.39 461.254,-174.497 452.444,-168.611 450.697,-175.39"/>
</g>
<!-- Node3 -->
<g id="node5" class="node"><title>Node3</title>
<a xlink:href="../../d6/dc5/_editable_8h.html" target="_top" xlink:title="/home/vilon_tao/gaia/sdk/include/gaia/text/Editable.h">
<polygon fill="white" stroke="black" points="455,-116.5 455,-137.5 701,-137.5 701,-116.5 455,-116.5"/>
<text text-anchor="middle" x="578" y="-124.5" font-family="Helvetica,sans-Serif" font-size="10.00">/home/vilon_tao/gaia/sdk/include/gaia/text/Editable.h</text>
</a>
</g>
<!-- Node1&#45;&gt;Node3 -->
<g id="edge4" class="edge"><title>Node1&#45;&gt;Node3</title>
<path fill="none" stroke="midnightblue" d="M523.937,-168.259C536.902,-158.364 552.925,-146.136 564.149,-137.571"/>
<polygon fill="midnightblue" stroke="midnightblue" points="521.766,-165.513 515.94,-174.362 526.012,-171.077 521.766,-165.513"/>
</g>
<!-- Node4 -->
<g id="node7" class="node"><title>Node4</title>
<a xlink:href="../../d9/dc2/_number_key_listener_8h.html" target="_top" xlink:title="/home/vilon_tao/gaia/sdk/include/gaia/text/method/NumberKeyListener.h">
<polygon fill="white" stroke="black" points="165,-58.5 165,-79.5 497,-79.5 497,-58.5 165,-58.5"/>
<text text-anchor="middle" x="331" y="-66.5" font-family="Helvetica,sans-Serif" font-size="10.00">/home/vilon_tao/gaia/sdk/include/gaia/text/method/NumberKeyListener.h</text>
</a>
</g>
<!-- Node1&#45;&gt;Node4 -->
<g id="edge18" class="edge"><title>Node1&#45;&gt;Node4</title>
<path fill="none" stroke="midnightblue" d="M480.305,-168.259C461.491,-153.94 433.372,-133.011 408,-116 388.357,-102.83 365.097,-88.8448 349.321,-79.5877"/>
<polygon fill="midnightblue" stroke="midnightblue" points="478.181,-171.041 488.251,-174.335 482.433,-165.48 478.181,-171.041"/>
</g>
<!-- Node9 -->
<g id="node17" class="node"><title>Node9</title>
<a xlink:href="../../d7/d96/_length_filter_8h.html" target="_top" xlink:title="/home/vilon_tao/gaia/sdk/include/gaia/text/LengthFilter.h">
<polygon fill="white" stroke="black" points="719,-116.5 719,-137.5 981,-137.5 981,-116.5 719,-116.5"/>
<text text-anchor="middle" x="850" y="-124.5" font-family="Helvetica,sans-Serif" font-size="10.00">/home/vilon_tao/gaia/sdk/include/gaia/text/LengthFilter.h</text>
</a>
</g>
<!-- Node1&#45;&gt;Node9 -->
<g id="edge16" class="edge"><title>Node1&#45;&gt;Node9</title>
<path fill="none" stroke="midnightblue" d="M575.234,-172.794C637.932,-162.345 727.264,-147.456 786.862,-137.523"/>
<polygon fill="midnightblue" stroke="midnightblue" points="574.309,-169.4 565.02,-174.497 575.46,-176.305 574.309,-169.4"/>
</g>
<!-- Node3&#45;&gt;Node4 -->
<g id="edge6" class="edge"><title>Node3&#45;&gt;Node4</title>
<path fill="none" stroke="midnightblue" d="M523.524,-114.208C479.174,-103.794 417.329,-89.2716 375.814,-79.5231"/>
<polygon fill="midnightblue" stroke="midnightblue" points="522.735,-117.618 533.27,-116.497 524.335,-110.803 522.735,-117.618"/>
</g>
<!-- Node7 -->
<g id="node13" class="node"><title>Node7</title>
<a xlink:href="../../dc/d40/_text_key_listener_8h.html" target="_top" xlink:title="/home/vilon_tao/gaia/sdk/include/gaia/text/method/TextKeyListener.h">
<polygon fill="white" stroke="black" points="514.5,-58.5 514.5,-79.5 831.5,-79.5 831.5,-58.5 514.5,-58.5"/>
<text text-anchor="middle" x="673" y="-66.5" font-family="Helvetica,sans-Serif" font-size="10.00">/home/vilon_tao/gaia/sdk/include/gaia/text/method/TextKeyListener.h</text>
</a>
</g>
<!-- Node3&#45;&gt;Node7 -->
<g id="edge12" class="edge"><title>Node3&#45;&gt;Node7</title>
<path fill="none" stroke="midnightblue" d="M604.042,-111.101C620.478,-101.066 641.256,-88.3808 655.686,-79.5707"/>
<polygon fill="midnightblue" stroke="midnightblue" points="602.136,-108.164 595.424,-116.362 605.783,-114.138 602.136,-108.164"/>
</g>
<!-- Node8 -->
<g id="node15" class="node"><title>Node8</title>
<a xlink:href="../../d7/de1/_spannable_string_builder_8h.html" target="_top" xlink:title="/home/vilon_tao/gaia/sdk/include/gaia/text/SpannableStringBuilder.h">
<polygon fill="white" stroke="black" points="849,-58.5 849,-79.5 1161,-79.5 1161,-58.5 849,-58.5"/>
<text text-anchor="middle" x="1005" y="-66.5" font-family="Helvetica,sans-Serif" font-size="10.00">/home/vilon_tao/gaia/sdk/include/gaia/text/SpannableStringBuilder.h</text>
</a>
</g>
<!-- Node3&#45;&gt;Node8 -->
<g id="edge14" class="edge"><title>Node3&#45;&gt;Node8</title>
<path fill="none" stroke="midnightblue" d="M665.49,-115.116C742.526,-104.652 853.648,-89.5583 927.529,-79.5231"/>
<polygon fill="midnightblue" stroke="midnightblue" points="664.764,-111.682 655.326,-116.497 665.707,-118.619 664.764,-111.682"/>
</g>
<!-- Node5 -->
<g id="node9" class="node"><title>Node5</title>
<a xlink:href="../../d1/dd7/_dialer_key_listener_8h.html" target="_top" xlink:title="/home/vilon_tao/gaia/sdk/include/gaia/text/method/DialerKeyListener.h">
<polygon fill="white" stroke="black" points="-0.5,-0.5 -0.5,-21.5 322.5,-21.5 322.5,-0.5 -0.5,-0.5"/>
<text text-anchor="middle" x="161" y="-8.5" font-family="Helvetica,sans-Serif" font-size="10.00">/home/vilon_tao/gaia/sdk/include/gaia/text/method/DialerKeyListener.h</text>
</a>
</g>
<!-- Node4&#45;&gt;Node5 -->
<g id="edge8" class="edge"><title>Node4&#45;&gt;Node5</title>
<path fill="none" stroke="midnightblue" d="M290.388,-55.1443C260.136,-44.8229 219.456,-30.9439 191.843,-21.5231"/>
<polygon fill="midnightblue" stroke="midnightblue" points="289.62,-58.5801 300.214,-58.4966 291.88,-51.955 289.62,-58.5801"/>
</g>
<!-- Node6 -->
<g id="node11" class="node"><title>Node6</title>
<a xlink:href="../../dc/da7/_digits_key_listener_8h.html" target="_top" xlink:title="/home/vilon_tao/gaia/sdk/include/gaia/text/method/DigitsKeyListener.h">
<polygon fill="white" stroke="black" points="339.5,-0.5 339.5,-21.5 662.5,-21.5 662.5,-0.5 339.5,-0.5"/>
<text text-anchor="middle" x="501" y="-8.5" font-family="Helvetica,sans-Serif" font-size="10.00">/home/vilon_tao/gaia/sdk/include/gaia/text/method/DigitsKeyListener.h</text>
</a>
</g>
<!-- Node4&#45;&gt;Node6 -->
<g id="edge10" class="edge"><title>Node4&#45;&gt;Node6</title>
<path fill="none" stroke="midnightblue" d="M371.612,-55.1443C401.864,-44.8229 442.544,-30.9439 470.157,-21.5231"/>
<polygon fill="midnightblue" stroke="midnightblue" points="370.12,-51.955 361.786,-58.4966 372.38,-58.5801 370.12,-51.955"/>
</g>
</g>
</svg>
