<?xml version="1.0" encoding="UTF-8" standalone="no"?>
<!DOCTYPE svg PUBLIC "-//W3C//DTD SVG 1.1//EN"
 "http://www.w3.org/Graphics/SVG/1.1/DTD/svg11.dtd">
<!-- Generated by graphviz version 2.26.3 (20100126.1600)
 -->
<!-- Title: G Pages: 1 -->
<svg width="318pt" height="146pt"
 viewBox="0.00 0.00 318.00 146.00" xmlns="http://www.w3.org/2000/svg" xmlns:xlink="http://www.w3.org/1999/xlink">
<g id="graph1" class="graph" transform="scale(1 1) rotate(0) translate(4 142)">
<title>G</title>
<polygon fill="white" stroke="white" points="-4,5 -4,-142 315,-142 315,5 -4,5"/>
<!-- Node1 -->
<g id="node1" class="node"><title>Node1</title>
<polygon fill="#bfbfbf" stroke="black" points="-0.5,-116.5 -0.5,-137.5 310.5,-137.5 310.5,-116.5 -0.5,-116.5"/>
<text text-anchor="middle" x="155" y="-124.5" font-family="Helvetica,sans-Serif" font-size="10.00">/home/vilon_tao/gaia/sdk/include/gaia/media/AudioControlListener.h</text>
</g>
<!-- Node2 -->
<g id="node3" class="node"><title>Node2</title>
<polygon fill="white" stroke="#bfbfbf" points="60.5,-0.5 60.5,-21.5 109.5,-21.5 109.5,-0.5 60.5,-0.5"/>
<text text-anchor="middle" x="85" y="-8.5" font-family="Helvetica,sans-Serif" font-size="10.00">stdint.h</text>
</g>
<!-- Node1&#45;&gt;Node2 -->
<g id="edge2" class="edge"><title>Node1&#45;&gt;Node2</title>
<path fill="none" stroke="midnightblue" d="M125.415,-116.479C109.171,-109.006 90.4552,-97.2064 81,-80 72.8953,-65.2512 74.8715,-45.9529 78.3155,-31.5168"/>
<polygon fill="midnightblue" stroke="midnightblue" points="81.7714,-32.1541 81.0926,-21.581 75.0298,-30.2697 81.7714,-32.1541"/>
</g>
<!-- Node3 -->
<g id="node5" class="node"><title>Node3</title>
<a xlink:href="../../d1/dd0/gmacros_8h.html" target="_top" xlink:title="gaia/base/gmacros.h">
<polygon fill="white" stroke="black" points="171.5,-0.5 171.5,-21.5 278.5,-21.5 278.5,-0.5 171.5,-0.5"/>
<text text-anchor="middle" x="225" y="-8.5" font-family="Helvetica,sans-Serif" font-size="10.00">gaia/base/gmacros.h</text>
</a>
</g>
<!-- Node1&#45;&gt;Node3 -->
<g id="edge4" class="edge"><title>Node1&#45;&gt;Node3</title>
<path fill="none" stroke="midnightblue" d="M184.585,-116.479C200.829,-109.006 219.545,-97.2064 229,-80 237.105,-65.2512 235.129,-45.9529 231.685,-31.5168"/>
<polygon fill="midnightblue" stroke="midnightblue" points="234.97,-30.2697 228.907,-21.581 228.229,-32.1541 234.97,-30.2697"/>
</g>
<!-- Node4 -->
<g id="node7" class="node"><title>Node4</title>
<a xlink:href="../../d9/d66/_audio_control_8h.html" target="_top" xlink:title="gaia/media/AudioControl.h">
<polygon fill="white" stroke="black" points="89.5,-58.5 89.5,-79.5 220.5,-79.5 220.5,-58.5 89.5,-58.5"/>
<text text-anchor="middle" x="155" y="-66.5" font-family="Helvetica,sans-Serif" font-size="10.00">gaia/media/AudioControl.h</text>
</a>
</g>
<!-- Node1&#45;&gt;Node4 -->
<g id="edge6" class="edge"><title>Node1&#45;&gt;Node4</title>
<path fill="none" stroke="midnightblue" d="M155,-116.362C155,-108.922 155,-98.7427 155,-89.7276"/>
<polygon fill="midnightblue" stroke="midnightblue" points="158.5,-89.5706 155,-79.5707 151.5,-89.5707 158.5,-89.5706"/>
</g>
<!-- Node4&#45;&gt;Node2 -->
<g id="edge8" class="edge"><title>Node4&#45;&gt;Node2</title>
<path fill="none" stroke="midnightblue" d="M142.161,-58.3619C131.998,-49.9408 117.599,-38.0105 105.796,-28.2308"/>
<polygon fill="midnightblue" stroke="midnightblue" points="107.691,-25.2558 97.7577,-21.5707 103.225,-30.6459 107.691,-25.2558"/>
</g>
<!-- Node4&#45;&gt;Node3 -->
<g id="edge10" class="edge"><title>Node4&#45;&gt;Node3</title>
<path fill="none" stroke="midnightblue" d="M167.839,-58.3619C178.002,-49.9408 192.401,-38.0105 204.204,-28.2308"/>
<polygon fill="midnightblue" stroke="midnightblue" points="206.775,-30.6459 212.242,-21.5707 202.309,-25.2558 206.775,-30.6459"/>
</g>
</g>
</svg>
