<?xml version="1.0" encoding="UTF-8" standalone="no"?>
<!DOCTYPE svg PUBLIC "-//W3C//DTD SVG 1.1//EN"
 "http://www.w3.org/Graphics/SVG/1.1/DTD/svg11.dtd">
<!-- Generated by graphviz version 2.26.3 (20100126.1600)
 -->
<!-- Title: G Pages: 1 -->
<svg width="426pt" height="204pt"
 viewBox="0.00 0.00 426.00 204.00" xmlns="http://www.w3.org/2000/svg" xmlns:xlink="http://www.w3.org/1999/xlink">
<g id="graph1" class="graph" transform="scale(1 1) rotate(0) translate(4 200)">
<title>G</title>
<polygon fill="white" stroke="white" points="-4,5 -4,-200 423,-200 423,5 -4,5"/>
<!-- Node1 -->
<g id="node1" class="node"><title>Node1</title>
<polygon fill="#bfbfbf" stroke="black" points="0,-174.5 0,-195.5 324,-195.5 324,-174.5 0,-174.5"/>
<text text-anchor="middle" x="162" y="-182.5" font-family="Helvetica,sans-Serif" font-size="10.00">/home/vilon_tao/gaia/sdk/include/gaia/telephony/mms/NotificationInd.h</text>
</g>
<!-- Node2 -->
<g id="node3" class="node"><title>Node2</title>
<a xlink:href="../../d1/dd0/gmacros_8h.html" target="_top" xlink:title="gaia/base/gmacros.h">
<polygon fill="white" stroke="black" points="102.5,-0.5 102.5,-21.5 209.5,-21.5 209.5,-0.5 102.5,-0.5"/>
<text text-anchor="middle" x="156" y="-8.5" font-family="Helvetica,sans-Serif" font-size="10.00">gaia/base/gmacros.h</text>
</a>
</g>
<!-- Node1&#45;&gt;Node2 -->
<g id="edge2" class="edge"><title>Node1&#45;&gt;Node2</title>
<path fill="none" stroke="midnightblue" d="M150.44,-174.296C141.849,-165.501 130.817,-152.212 126,-138 113.415,-100.874 131.548,-55.9158 144.623,-30.6739"/>
<polygon fill="midnightblue" stroke="midnightblue" points="147.785,-32.1869 149.479,-21.7285 141.633,-28.8472 147.785,-32.1869"/>
</g>
<!-- Node3 -->
<g id="node5" class="node"><title>Node3</title>
<a xlink:href="../../d9/d1b/_generic_pdu_8h.html" target="_top" xlink:title="gaia/telephony/mms/GenericPdu.h">
<polygon fill="white" stroke="black" points="134.5,-116.5 134.5,-137.5 301.5,-137.5 301.5,-116.5 134.5,-116.5"/>
<text text-anchor="middle" x="218" y="-124.5" font-family="Helvetica,sans-Serif" font-size="10.00">gaia/telephony/mms/GenericPdu.h</text>
</a>
</g>
<!-- Node1&#45;&gt;Node3 -->
<g id="edge4" class="edge"><title>Node1&#45;&gt;Node3</title>
<path fill="none" stroke="midnightblue" d="M172.271,-174.362C180.244,-166.104 191.475,-154.472 200.811,-144.803"/>
<polygon fill="midnightblue" stroke="midnightblue" points="203.366,-147.196 207.794,-137.571 198.33,-142.334 203.366,-147.196"/>
</g>
<!-- Node3&#45;&gt;Node2 -->
<g id="edge8" class="edge"><title>Node3&#45;&gt;Node2</title>
<path fill="none" stroke="midnightblue" d="M205.331,-116.252C195.698,-107.432 182.81,-94.1325 175,-80 166.749,-65.069 161.883,-46.3066 159.145,-32.1173"/>
<polygon fill="midnightblue" stroke="midnightblue" points="162.528,-31.1391 157.381,-21.8786 155.63,-32.3277 162.528,-31.1391"/>
</g>
<!-- Node4 -->
<g id="node7" class="node"><title>Node4</title>
<polygon fill="white" stroke="#bfbfbf" points="184,-58.5 184,-79.5 230,-79.5 230,-58.5 184,-58.5"/>
<text text-anchor="middle" x="207" y="-66.5" font-family="Helvetica,sans-Serif" font-size="10.00">cstdint</text>
</g>
<!-- Node3&#45;&gt;Node4 -->
<g id="edge6" class="edge"><title>Node3&#45;&gt;Node4</title>
<path fill="none" stroke="midnightblue" d="M215.982,-116.362C214.556,-108.84 212.598,-98.5187 210.875,-89.4308"/>
<polygon fill="midnightblue" stroke="midnightblue" points="214.307,-88.7433 209.005,-79.5707 207.429,-90.0477 214.307,-88.7433"/>
</g>
<!-- Node5 -->
<g id="node10" class="node"><title>Node5</title>
<a xlink:href="../../d5/d48/_pdu_headers_8h.html" target="_top" xlink:title="gaia/telephony/mms/PduHeaders.h">
<polygon fill="white" stroke="black" points="248,-58.5 248,-79.5 418,-79.5 418,-58.5 248,-58.5"/>
<text text-anchor="middle" x="333" y="-66.5" font-family="Helvetica,sans-Serif" font-size="10.00">gaia/telephony/mms/PduHeaders.h</text>
</a>
</g>
<!-- Node3&#45;&gt;Node5 -->
<g id="edge10" class="edge"><title>Node3&#45;&gt;Node5</title>
<path fill="none" stroke="midnightblue" d="M238.826,-116.497C256.706,-107.479 282.707,-94.3649 302.861,-84.2006"/>
<polygon fill="midnightblue" stroke="midnightblue" points="304.588,-87.2495 311.941,-79.6212 301.436,-80.9994 304.588,-87.2495"/>
</g>
<!-- Node5&#45;&gt;Node2 -->
<g id="edge12" class="edge"><title>Node5&#45;&gt;Node2</title>
<path fill="none" stroke="midnightblue" d="M300.947,-58.4966C272.091,-49.0411 229.494,-35.0829 197.939,-24.7428"/>
<polygon fill="midnightblue" stroke="midnightblue" points="198.706,-21.3111 188.113,-21.5231 196.526,-27.963 198.706,-21.3111"/>
</g>
</g>
</svg>
