<?xml version="1.0" encoding="UTF-8" standalone="no"?>
<!DOCTYPE svg PUBLIC "-//W3C//DTD SVG 1.1//EN"
 "http://www.w3.org/Graphics/SVG/1.1/DTD/svg11.dtd">
<!-- Generated by graphviz version 2.26.3 (20100126.1600)
 -->
<!-- Title: G Pages: 1 -->
<svg width="304pt" height="146pt"
 viewBox="0.00 0.00 304.00 146.00" xmlns="http://www.w3.org/2000/svg" xmlns:xlink="http://www.w3.org/1999/xlink">
<g id="graph1" class="graph" transform="scale(1 1) rotate(0) translate(4 142)">
<title>G</title>
<polygon fill="white" stroke="white" points="-4,5 -4,-142 301,-142 301,5 -4,5"/>
<!-- Node1 -->
<g id="node1" class="node"><title>Node1</title>
<polygon fill="#bfbfbf" stroke="black" points="0,-116.5 0,-137.5 296,-137.5 296,-116.5 0,-116.5"/>
<text text-anchor="middle" x="148" y="-124.5" font-family="Helvetica,sans-Serif" font-size="10.00">/home/vilon_tao/gaia/sdk/include/gaia/graphics/RadialGradient.h</text>
</g>
<!-- Node2 -->
<g id="node3" class="node"><title>Node2</title>
<polygon fill="white" stroke="#bfbfbf" points="59,-58.5 59,-79.5 127,-79.5 127,-58.5 59,-58.5"/>
<text text-anchor="middle" x="93" y="-66.5" font-family="Helvetica,sans-Serif" font-size="10.00">sys/types.h</text>
</g>
<!-- Node1&#45;&gt;Node2 -->
<g id="edge2" class="edge"><title>Node1&#45;&gt;Node2</title>
<path fill="none" stroke="midnightblue" d="M137.912,-116.362C130.159,-108.186 119.27,-96.7025 110.155,-87.0907"/>
<polygon fill="midnightblue" stroke="midnightblue" points="112.445,-84.4186 103.024,-79.5707 107.365,-89.2352 112.445,-84.4186"/>
</g>
<!-- Node3 -->
<g id="node5" class="node"><title>Node3</title>
<a xlink:href="../../d8/d34/_shader_8h.html" target="_top" xlink:title="gaia/graphics/Shader.h">
<polygon fill="white" stroke="black" points="145,-58.5 145,-79.5 261,-79.5 261,-58.5 145,-58.5"/>
<text text-anchor="middle" x="203" y="-66.5" font-family="Helvetica,sans-Serif" font-size="10.00">gaia/graphics/Shader.h</text>
</a>
</g>
<!-- Node1&#45;&gt;Node3 -->
<g id="edge4" class="edge"><title>Node1&#45;&gt;Node3</title>
<path fill="none" stroke="midnightblue" d="M158.088,-116.362C165.841,-108.186 176.73,-96.7025 185.845,-87.0907"/>
<polygon fill="midnightblue" stroke="midnightblue" points="188.635,-89.2352 192.976,-79.5707 183.555,-84.4186 188.635,-89.2352"/>
</g>
<!-- Node4 -->
<g id="node7" class="node"><title>Node4</title>
<a xlink:href="../../d1/dd0/gmacros_8h.html" target="_top" xlink:title="gaia/base/gmacros.h">
<polygon fill="white" stroke="black" points="149.5,-0.5 149.5,-21.5 256.5,-21.5 256.5,-0.5 149.5,-0.5"/>
<text text-anchor="middle" x="203" y="-8.5" font-family="Helvetica,sans-Serif" font-size="10.00">gaia/base/gmacros.h</text>
</a>
</g>
<!-- Node3&#45;&gt;Node4 -->
<g id="edge6" class="edge"><title>Node3&#45;&gt;Node4</title>
<path fill="none" stroke="midnightblue" d="M203,-58.3619C203,-50.9219 203,-40.7427 203,-31.7276"/>
<polygon fill="midnightblue" stroke="midnightblue" points="206.5,-31.5706 203,-21.5707 199.5,-31.5707 206.5,-31.5706"/>
</g>
</g>
</svg>
