<?xml version="1.0" encoding="UTF-8" standalone="no"?>
<!DOCTYPE svg PUBLIC "-//W3C//DTD SVG 1.1//EN"
 "http://www.w3.org/Graphics/SVG/1.1/DTD/svg11.dtd">
<!-- Generated by graphviz version 2.26.3 (20100126.1600)
 -->
<!-- Title: G Pages: 1 -->
<svg width="264pt" height="88pt"
 viewBox="0.00 0.00 264.00 88.00" xmlns="http://www.w3.org/2000/svg" xmlns:xlink="http://www.w3.org/1999/xlink">
<g id="graph1" class="graph" transform="scale(1 1) rotate(0) translate(4 84)">
<title>G</title>
<polygon fill="white" stroke="white" points="-4,5 -4,-84 261,-84 261,5 -4,5"/>
<!-- Node1 -->
<g id="node1" class="node"><title>Node1</title>
<polygon fill="#bfbfbf" stroke="black" points="-0.5,-58.5 -0.5,-79.5 256.5,-79.5 256.5,-58.5 -0.5,-58.5"/>
<text text-anchor="middle" x="128" y="-66.5" font-family="Helvetica,sans-Serif" font-size="10.00">/home/vilon_tao/gaia/sdk/include/gaia/graphics/Movie.h</text>
</g>
<!-- Node2 -->
<g id="node3" class="node"><title>Node2</title>
<a xlink:href="../../d1/dd0/gmacros_8h.html" target="_top" xlink:title="gaia/base/gmacros.h">
<polygon fill="white" stroke="black" points="22.5,-0.5 22.5,-21.5 129.5,-21.5 129.5,-0.5 22.5,-0.5"/>
<text text-anchor="middle" x="76" y="-8.5" font-family="Helvetica,sans-Serif" font-size="10.00">gaia/base/gmacros.h</text>
</a>
</g>
<!-- Node1&#45;&gt;Node2 -->
<g id="edge2" class="edge"><title>Node1&#45;&gt;Node2</title>
<path fill="none" stroke="midnightblue" d="M118.462,-58.3619C111.132,-50.1861 100.837,-38.7025 92.2192,-29.0907"/>
<polygon fill="midnightblue" stroke="midnightblue" points="94.7586,-26.68 85.4771,-21.5707 89.5466,-31.3528 94.7586,-26.68"/>
</g>
<!-- Node3 -->
<g id="node5" class="node"><title>Node3</title>
<polygon fill="white" stroke="#bfbfbf" points="147,-0.5 147,-21.5 215,-21.5 215,-0.5 147,-0.5"/>
<text text-anchor="middle" x="181" y="-8.5" font-family="Helvetica,sans-Serif" font-size="10.00">sys/types.h</text>
</g>
<!-- Node1&#45;&gt;Node3 -->
<g id="edge4" class="edge"><title>Node1&#45;&gt;Node3</title>
<path fill="none" stroke="midnightblue" d="M137.721,-58.3619C145.192,-50.1861 155.686,-38.7025 164.469,-29.0907"/>
<polygon fill="midnightblue" stroke="midnightblue" points="167.179,-31.3138 171.341,-21.5707 162.011,-26.5918 167.179,-31.3138"/>
</g>
</g>
</svg>
