<?xml version="1.0" encoding="UTF-8" standalone="no"?>
<!DOCTYPE svg PUBLIC "-//W3C//DTD SVG 1.1//EN"
 "http://www.w3.org/Graphics/SVG/1.1/DTD/svg11.dtd">
<!-- Generated by graphviz version 2.26.3 (20100126.1600)
 -->
<!-- Title: G Pages: 1 -->
<svg width="557pt" height="146pt"
 viewBox="0.00 0.00 557.00 146.00" xmlns="http://www.w3.org/2000/svg" xmlns:xlink="http://www.w3.org/1999/xlink">
<g id="graph1" class="graph" transform="scale(1 1) rotate(0) translate(4 142)">
<title>G</title>
<polygon fill="white" stroke="white" points="-4,5 -4,-142 554,-142 554,5 -4,5"/>
<!-- Node1 -->
<g id="node1" class="node"><title>Node1</title>
<polygon fill="#bfbfbf" stroke="black" points="153,-116.5 153,-137.5 407,-137.5 407,-116.5 153,-116.5"/>
<text text-anchor="middle" x="280" y="-124.5" font-family="Helvetica,sans-Serif" font-size="10.00">/home/vilon_tao/gaia/sdk/include/gaia/net/IPAddress.h</text>
</g>
<!-- Node2 -->
<g id="node3" class="node"><title>Node2</title>
<a xlink:href="../../dd/d13/_client_socket_8h.html" target="_top" xlink:title="/home/vilon_tao/gaia/sdk/include/gaia/net/ClientSocket.h">
<polygon fill="white" stroke="black" points="9,-58.5 9,-79.5 273,-79.5 273,-58.5 9,-58.5"/>
<text text-anchor="middle" x="141" y="-66.5" font-family="Helvetica,sans-Serif" font-size="10.00">/home/vilon_tao/gaia/sdk/include/gaia/net/ClientSocket.h</text>
</a>
</g>
<!-- Node1&#45;&gt;Node2 -->
<g id="edge2" class="edge"><title>Node1&#45;&gt;Node2</title>
<path fill="none" stroke="midnightblue" d="M245.526,-112.615C221.018,-102.389 188.642,-88.8796 166.454,-79.6212"/>
<polygon fill="midnightblue" stroke="midnightblue" points="244.252,-115.876 254.828,-116.497 246.947,-109.416 244.252,-115.876"/>
</g>
<!-- Node4 -->
<g id="node7" class="node"><title>Node4</title>
<a xlink:href="../../d1/dd6/_i_p4_address_8h.html" target="_top" xlink:title="/home/vilon_tao/gaia/sdk/include/gaia/net/IP4Address.h">
<polygon fill="white" stroke="black" points="290.5,-58.5 290.5,-79.5 549.5,-79.5 549.5,-58.5 290.5,-58.5"/>
<text text-anchor="middle" x="420" y="-66.5" font-family="Helvetica,sans-Serif" font-size="10.00">/home/vilon_tao/gaia/sdk/include/gaia/net/IP4Address.h</text>
</a>
</g>
<!-- Node1&#45;&gt;Node4 -->
<g id="edge6" class="edge"><title>Node1&#45;&gt;Node4</title>
<path fill="none" stroke="midnightblue" d="M314.722,-112.615C339.406,-102.389 372.015,-88.8796 394.363,-79.6212"/>
<polygon fill="midnightblue" stroke="midnightblue" points="313.252,-109.436 305.353,-116.497 315.931,-115.903 313.252,-109.436"/>
</g>
<!-- Node3 -->
<g id="node5" class="node"><title>Node3</title>
<a xlink:href="../../da/d63/_s_s_l_client_socket_8h.html" target="_top" xlink:title="/home/vilon_tao/gaia/sdk/include/gaia/net/SSLClientSocket.h">
<polygon fill="white" stroke="black" points="-0.5,-0.5 -0.5,-21.5 282.5,-21.5 282.5,-0.5 -0.5,-0.5"/>
<text text-anchor="middle" x="141" y="-8.5" font-family="Helvetica,sans-Serif" font-size="10.00">/home/vilon_tao/gaia/sdk/include/gaia/net/SSLClientSocket.h</text>
</a>
</g>
<!-- Node2&#45;&gt;Node3 -->
<g id="edge4" class="edge"><title>Node2&#45;&gt;Node3</title>
<path fill="none" stroke="midnightblue" d="M141,-48.1906C141,-39.1684 141,-28.9941 141,-21.5707"/>
<polygon fill="midnightblue" stroke="midnightblue" points="137.5,-48.3619 141,-58.3619 144.5,-48.3619 137.5,-48.3619"/>
</g>
</g>
</svg>
