<?xml version="1.0" encoding="UTF-8" standalone="no"?>
<!DOCTYPE svg PUBLIC "-//W3C//DTD SVG 1.1//EN"
 "http://www.w3.org/Graphics/SVG/1.1/DTD/svg11.dtd">
<!-- Generated by graphviz version 2.26.3 (20100126.1600)
 -->
<!-- Title: G Pages: 1 -->
<svg width="306pt" height="378pt"
 viewBox="0.00 0.00 306.00 378.00" xmlns="http://www.w3.org/2000/svg" xmlns:xlink="http://www.w3.org/1999/xlink">
<g id="graph1" class="graph" transform="scale(1 1) rotate(0) translate(4 374)">
<title>G</title>
<polygon fill="white" stroke="white" points="-4,5 -4,-374 303,-374 303,5 -4,5"/>
<!-- Node1 -->
<g id="node1" class="node"><title>Node1</title>
<polygon fill="#bfbfbf" stroke="black" points="0,-348.5 0,-369.5 280,-369.5 280,-348.5 0,-348.5"/>
<text text-anchor="middle" x="140" y="-356.5" font-family="Helvetica,sans-Serif" font-size="10.00">/home/vilon_tao/gaia/sdk/include/gaia/text/style/StyleSpan.h</text>
</g>
<!-- Node2 -->
<g id="node3" class="node"><title>Node2</title>
<a xlink:href="../../d6/d5c/_metric_affecting_span_8h.html" target="_top" xlink:title="gaia/text/style/MetricAffectingSpan.h">
<polygon fill="white" stroke="black" points="51,-290.5 51,-311.5 229,-311.5 229,-290.5 51,-290.5"/>
<text text-anchor="middle" x="140" y="-298.5" font-family="Helvetica,sans-Serif" font-size="10.00">gaia/text/style/MetricAffectingSpan.h</text>
</a>
</g>
<!-- Node1&#45;&gt;Node2 -->
<g id="edge2" class="edge"><title>Node1&#45;&gt;Node2</title>
<path fill="none" stroke="midnightblue" d="M140,-348.362C140,-340.922 140,-330.743 140,-321.728"/>
<polygon fill="midnightblue" stroke="midnightblue" points="143.5,-321.571 140,-311.571 136.5,-321.571 143.5,-321.571"/>
</g>
<!-- Node3 -->
<g id="node5" class="node"><title>Node3</title>
<a xlink:href="../../d5/dc5/_character_style_8h.html" target="_top" xlink:title="gaia/text/style/CharacterStyle.h">
<polygon fill="white" stroke="black" points="62.5,-232.5 62.5,-253.5 217.5,-253.5 217.5,-232.5 62.5,-232.5"/>
<text text-anchor="middle" x="140" y="-240.5" font-family="Helvetica,sans-Serif" font-size="10.00">gaia/text/style/CharacterStyle.h</text>
</a>
</g>
<!-- Node2&#45;&gt;Node3 -->
<g id="edge4" class="edge"><title>Node2&#45;&gt;Node3</title>
<path fill="none" stroke="midnightblue" d="M140,-290.362C140,-282.922 140,-272.743 140,-263.728"/>
<polygon fill="midnightblue" stroke="midnightblue" points="143.5,-263.571 140,-253.571 136.5,-263.571 143.5,-263.571"/>
</g>
<!-- Node4 -->
<g id="node7" class="node"><title>Node4</title>
<a xlink:href="../../d1/d81/_object_style_8h.html" target="_top" xlink:title="gaia/text/style/ObjectStyle.h">
<polygon fill="white" stroke="black" points="0,-174.5 0,-195.5 140,-195.5 140,-174.5 0,-174.5"/>
<text text-anchor="middle" x="70" y="-182.5" font-family="Helvetica,sans-Serif" font-size="10.00">gaia/text/style/ObjectStyle.h</text>
</a>
</g>
<!-- Node3&#45;&gt;Node4 -->
<g id="edge6" class="edge"><title>Node3&#45;&gt;Node4</title>
<path fill="none" stroke="midnightblue" d="M127.161,-232.362C116.998,-223.941 102.599,-212.011 90.7958,-202.231"/>
<polygon fill="midnightblue" stroke="midnightblue" points="92.691,-199.256 82.7577,-195.571 88.2248,-204.646 92.691,-199.256"/>
</g>
<!-- Node7 -->
<g id="node13" class="node"><title>Node7</title>
<a xlink:href="../../d5/d4f/_text_paint_8h.html" target="_top" xlink:title="gaia/text/TextPaint.h">
<polygon fill="white" stroke="black" points="157.5,-174.5 157.5,-195.5 264.5,-195.5 264.5,-174.5 157.5,-174.5"/>
<text text-anchor="middle" x="211" y="-182.5" font-family="Helvetica,sans-Serif" font-size="10.00">gaia/text/TextPaint.h</text>
</a>
</g>
<!-- Node3&#45;&gt;Node7 -->
<g id="edge12" class="edge"><title>Node3&#45;&gt;Node7</title>
<path fill="none" stroke="midnightblue" d="M153.022,-232.362C163.431,-223.859 178.219,-211.779 190.255,-201.947"/>
<polygon fill="midnightblue" stroke="midnightblue" points="192.53,-204.608 198.06,-195.571 188.101,-199.187 192.53,-204.608"/>
</g>
<!-- Node5 -->
<g id="node9" class="node"><title>Node5</title>
<polygon fill="white" stroke="#bfbfbf" points="88.5,-0.5 88.5,-21.5 137.5,-21.5 137.5,-0.5 88.5,-0.5"/>
<text text-anchor="middle" x="113" y="-8.5" font-family="Helvetica,sans-Serif" font-size="10.00">stdint.h</text>
</g>
<!-- Node4&#45;&gt;Node5 -->
<g id="edge8" class="edge"><title>Node4&#45;&gt;Node5</title>
<path fill="none" stroke="midnightblue" d="M65.0771,-174.158C59.5313,-160.496 51.9148,-136.341 57,-116 65.1256,-83.4977 85.4275,-50.0401 99.2191,-29.8795"/>
<polygon fill="midnightblue" stroke="midnightblue" points="102.148,-31.7987 105.03,-21.6034 96.4194,-27.776 102.148,-31.7987"/>
</g>
<!-- Node6 -->
<g id="node11" class="node"><title>Node6</title>
<a xlink:href="../../d1/dd0/gmacros_8h.html" target="_top" xlink:title="gaia/base/gmacros.h">
<polygon fill="white" stroke="black" points="65.5,-116.5 65.5,-137.5 172.5,-137.5 172.5,-116.5 65.5,-116.5"/>
<text text-anchor="middle" x="119" y="-124.5" font-family="Helvetica,sans-Serif" font-size="10.00">gaia/base/gmacros.h</text>
</a>
</g>
<!-- Node4&#45;&gt;Node6 -->
<g id="edge10" class="edge"><title>Node4&#45;&gt;Node6</title>
<path fill="none" stroke="midnightblue" d="M78.9874,-174.362C85.8255,-166.268 95.4024,-154.932 103.472,-145.38"/>
<polygon fill="midnightblue" stroke="midnightblue" points="106.29,-147.468 110.07,-137.571 100.942,-142.951 106.29,-147.468"/>
</g>
<!-- Node7&#45;&gt;Node6 -->
<g id="edge20" class="edge"><title>Node7&#45;&gt;Node6</title>
<path fill="none" stroke="midnightblue" d="M194.126,-174.362C180.249,-165.614 160.366,-153.079 144.54,-143.101"/>
<polygon fill="midnightblue" stroke="midnightblue" points="146.093,-139.943 135.767,-137.571 142.36,-145.864 146.093,-139.943"/>
</g>
<!-- Node8 -->
<g id="node15" class="node"><title>Node8</title>
<a xlink:href="../../db/d7d/_paint_8h.html" target="_top" xlink:title="gaia/graphics/Paint.h">
<polygon fill="white" stroke="black" points="190,-116.5 190,-137.5 298,-137.5 298,-116.5 190,-116.5"/>
<text text-anchor="middle" x="244" y="-124.5" font-family="Helvetica,sans-Serif" font-size="10.00">gaia/graphics/Paint.h</text>
</a>
</g>
<!-- Node7&#45;&gt;Node8 -->
<g id="edge14" class="edge"><title>Node7&#45;&gt;Node8</title>
<path fill="none" stroke="midnightblue" d="M217.053,-174.362C221.472,-166.595 227.59,-155.843 232.879,-146.546"/>
<polygon fill="midnightblue" stroke="midnightblue" points="236.082,-147.993 237.986,-137.571 229.998,-144.531 236.082,-147.993"/>
</g>
<!-- Node9 -->
<g id="node17" class="node"><title>Node9</title>
<a xlink:href="../../d7/d97/_char_sequence_8h.html" target="_top" xlink:title="gaia/base/CharSequence.h">
<polygon fill="white" stroke="black" points="121,-58.5 121,-79.5 255,-79.5 255,-58.5 121,-58.5"/>
<text text-anchor="middle" x="188" y="-66.5" font-family="Helvetica,sans-Serif" font-size="10.00">gaia/base/CharSequence.h</text>
</a>
</g>
<!-- Node8&#45;&gt;Node9 -->
<g id="edge16" class="edge"><title>Node8&#45;&gt;Node9</title>
<path fill="none" stroke="midnightblue" d="M233.729,-116.362C225.756,-108.104 214.525,-96.4725 205.189,-86.8029"/>
<polygon fill="midnightblue" stroke="midnightblue" points="207.67,-84.3336 198.206,-79.5707 202.634,-89.1958 207.67,-84.3336"/>
</g>
<!-- Node9&#45;&gt;Node5 -->
<g id="edge18" class="edge"><title>Node9&#45;&gt;Node5</title>
<path fill="none" stroke="midnightblue" d="M174.244,-58.3619C163.249,-49.859 147.627,-37.7785 134.914,-27.9466"/>
<polygon fill="midnightblue" stroke="midnightblue" points="136.721,-24.9195 126.669,-21.5707 132.438,-30.4569 136.721,-24.9195"/>
</g>
</g>
</svg>
