<?xml version="1.0" encoding="UTF-8" standalone="no"?>
<!DOCTYPE svg PUBLIC "-//W3C//DTD SVG 1.1//EN"
 "http://www.w3.org/Graphics/SVG/1.1/DTD/svg11.dtd">
<!-- Generated by graphviz version 2.26.3 (20100126.1600)
 -->
<!-- Title: G Pages: 1 -->
<svg width="664pt" height="204pt"
 viewBox="0.00 0.00 664.00 204.00" xmlns="http://www.w3.org/2000/svg" xmlns:xlink="http://www.w3.org/1999/xlink">
<g id="graph1" class="graph" transform="scale(1 1) rotate(0) translate(4 200)">
<title>G</title>
<polygon fill="white" stroke="white" points="-4,5 -4,-200 661,-200 661,5 -4,5"/>
<!-- Node1 -->
<g id="node1" class="node"><title>Node1</title>
<polygon fill="#bfbfbf" stroke="black" points="86,-174.5 86,-195.5 394,-195.5 394,-174.5 86,-174.5"/>
<text text-anchor="middle" x="240" y="-182.5" font-family="Helvetica,sans-Serif" font-size="10.00">/home/vilon_tao/gaia/sdk/include/gaia/usb/UsbDeviceConnection.h</text>
</g>
<!-- Node2 -->
<g id="node3" class="node"><title>Node2</title>
<a xlink:href="../../d1/dd0/gmacros_8h.html" target="_top" xlink:title="gaia/base/gmacros.h">
<polygon fill="white" stroke="black" points="-0.5,-116.5 -0.5,-137.5 106.5,-137.5 106.5,-116.5 -0.5,-116.5"/>
<text text-anchor="middle" x="53" y="-124.5" font-family="Helvetica,sans-Serif" font-size="10.00">gaia/base/gmacros.h</text>
</a>
</g>
<!-- Node1&#45;&gt;Node2 -->
<g id="edge2" class="edge"><title>Node1&#45;&gt;Node2</title>
<path fill="none" stroke="midnightblue" d="M206.136,-174.497C175.518,-165 130.257,-150.962 96.8764,-140.609"/>
<polygon fill="midnightblue" stroke="midnightblue" points="97.5158,-137.143 86.9278,-137.523 95.4421,-143.828 97.5158,-137.143"/>
</g>
<!-- Node3 -->
<g id="node5" class="node"><title>Node3</title>
<a xlink:href="../../db/db5/_string_8h.html" target="_top" xlink:title="gaia/base/String.h">
<polygon fill="white" stroke="black" points="253.5,-116.5 253.5,-137.5 348.5,-137.5 348.5,-116.5 253.5,-116.5"/>
<text text-anchor="middle" x="301" y="-124.5" font-family="Helvetica,sans-Serif" font-size="10.00">gaia/base/String.h</text>
</a>
</g>
<!-- Node1&#45;&gt;Node3 -->
<g id="edge4" class="edge"><title>Node1&#45;&gt;Node3</title>
<path fill="none" stroke="midnightblue" d="M251.188,-174.362C259.959,-166.023 272.349,-154.242 282.578,-144.516"/>
<polygon fill="midnightblue" stroke="midnightblue" points="285.047,-146.998 289.883,-137.571 280.224,-141.925 285.047,-146.998"/>
</g>
<!-- Node8 -->
<g id="node16" class="node"><title>Node8</title>
<a xlink:href="../../d1/d97/_byte_array_8h.html" target="_top" xlink:title="gaia/base/ByteArray.h">
<polygon fill="white" stroke="black" points="123.5,-116.5 123.5,-137.5 236.5,-137.5 236.5,-116.5 123.5,-116.5"/>
<text text-anchor="middle" x="180" y="-124.5" font-family="Helvetica,sans-Serif" font-size="10.00">gaia/base/ByteArray.h</text>
</a>
</g>
<!-- Node1&#45;&gt;Node8 -->
<g id="edge16" class="edge"><title>Node1&#45;&gt;Node8</title>
<path fill="none" stroke="midnightblue" d="M228.995,-174.362C220.453,-166.104 208.42,-154.472 198.417,-144.803"/>
<polygon fill="midnightblue" stroke="midnightblue" points="200.558,-142.004 190.935,-137.571 195.692,-147.037 200.558,-142.004"/>
</g>
<!-- Node9 -->
<g id="node19" class="node"><title>Node9</title>
<a xlink:href="../../d5/d65/_usb_constants_8h.html" target="_top" xlink:title="gaia/usb/UsbConstants.h">
<polygon fill="white" stroke="black" points="528,-58.5 528,-79.5 656,-79.5 656,-58.5 528,-58.5"/>
<text text-anchor="middle" x="592" y="-66.5" font-family="Helvetica,sans-Serif" font-size="10.00">gaia/usb/UsbConstants.h</text>
</a>
</g>
<!-- Node1&#45;&gt;Node9 -->
<g id="edge20" class="edge"><title>Node1&#45;&gt;Node9</title>
<path fill="none" stroke="midnightblue" d="M272.171,-174.398C336.198,-153.299 479.511,-106.07 550.509,-82.6732"/>
<polygon fill="midnightblue" stroke="midnightblue" points="551.629,-85.9893 560.031,-79.5352 549.438,-79.341 551.629,-85.9893"/>
</g>
<!-- Node4 -->
<g id="node7" class="node"><title>Node4</title>
<a xlink:href="../../d7/d97/_char_sequence_8h.html" target="_top" xlink:title="gaia/base/CharSequence.h">
<polygon fill="white" stroke="black" points="376,-58.5 376,-79.5 510,-79.5 510,-58.5 376,-58.5"/>
<text text-anchor="middle" x="443" y="-66.5" font-family="Helvetica,sans-Serif" font-size="10.00">gaia/base/CharSequence.h</text>
</a>
</g>
<!-- Node3&#45;&gt;Node4 -->
<g id="edge6" class="edge"><title>Node3&#45;&gt;Node4</title>
<path fill="none" stroke="midnightblue" d="M326.715,-116.497C349.293,-107.275 382.358,-93.7695 407.463,-83.5153"/>
<polygon fill="midnightblue" stroke="midnightblue" points="409.062,-86.6427 416.996,-79.6212 406.415,-80.1624 409.062,-86.6427"/>
</g>
<!-- Node6 -->
<g id="node11" class="node"><title>Node6</title>
<a xlink:href="../../d6/d83/_hash_func_8h.html" target="_top" xlink:title="gaia/base/HashFunc.h">
<polygon fill="white" stroke="black" points="243.5,-58.5 243.5,-79.5 358.5,-79.5 358.5,-58.5 243.5,-58.5"/>
<text text-anchor="middle" x="301" y="-66.5" font-family="Helvetica,sans-Serif" font-size="10.00">gaia/base/HashFunc.h</text>
</a>
</g>
<!-- Node3&#45;&gt;Node6 -->
<g id="edge10" class="edge"><title>Node3&#45;&gt;Node6</title>
<path fill="none" stroke="midnightblue" d="M301,-116.362C301,-108.922 301,-98.7427 301,-89.7276"/>
<polygon fill="midnightblue" stroke="midnightblue" points="304.5,-89.5706 301,-79.5707 297.5,-89.5707 304.5,-89.5706"/>
</g>
<!-- Node7 -->
<g id="node13" class="node"><title>Node7</title>
<polygon fill="white" stroke="#bfbfbf" points="182,-0.5 182,-21.5 250,-21.5 250,-0.5 182,-0.5"/>
<text text-anchor="middle" x="216" y="-8.5" font-family="Helvetica,sans-Serif" font-size="10.00">sys/types.h</text>
</g>
<!-- Node3&#45;&gt;Node7 -->
<g id="edge14" class="edge"><title>Node3&#45;&gt;Node7</title>
<path fill="none" stroke="midnightblue" d="M278.951,-116.387C264.436,-108.322 246.126,-95.9073 235,-80 225.012,-65.7202 220.265,-46.377 218.015,-31.8044"/>
<polygon fill="midnightblue" stroke="midnightblue" points="221.47,-31.2312 216.735,-21.7535 214.526,-32.1155 221.47,-31.2312"/>
</g>
<!-- Node5 -->
<g id="node9" class="node"><title>Node5</title>
<polygon fill="white" stroke="#bfbfbf" points="492.5,-0.5 492.5,-21.5 541.5,-21.5 541.5,-0.5 492.5,-0.5"/>
<text text-anchor="middle" x="517" y="-8.5" font-family="Helvetica,sans-Serif" font-size="10.00">stdint.h</text>
</g>
<!-- Node4&#45;&gt;Node5 -->
<g id="edge8" class="edge"><title>Node4&#45;&gt;Node5</title>
<path fill="none" stroke="midnightblue" d="M456.573,-58.3619C467.421,-49.859 482.834,-37.7785 495.379,-27.9466"/>
<polygon fill="midnightblue" stroke="midnightblue" points="497.802,-30.4942 503.513,-21.5707 493.484,-24.9848 497.802,-30.4942"/>
</g>
<!-- Node6&#45;&gt;Node7 -->
<g id="edge12" class="edge"><title>Node6&#45;&gt;Node7</title>
<path fill="none" stroke="midnightblue" d="M285.41,-58.3619C272.709,-49.6955 254.562,-37.3126 240.008,-27.3819"/>
<polygon fill="midnightblue" stroke="midnightblue" points="241.724,-24.316 231.491,-21.5707 237.779,-30.0982 241.724,-24.316"/>
</g>
<!-- Node8&#45;&gt;Node7 -->
<g id="edge18" class="edge"><title>Node8&#45;&gt;Node7</title>
<path fill="none" stroke="midnightblue" d="M183.322,-116.295C189.296,-97.0451 201.945,-56.2889 209.635,-31.5091"/>
<polygon fill="midnightblue" stroke="midnightblue" points="213.064,-32.2673 212.686,-21.6792 206.379,-30.1924 213.064,-32.2673"/>
</g>
<!-- Node9&#45;&gt;Node5 -->
<g id="edge22" class="edge"><title>Node9&#45;&gt;Node5</title>
<path fill="none" stroke="midnightblue" d="M578.244,-58.3619C567.249,-49.859 551.627,-37.7785 538.914,-27.9466"/>
<polygon fill="midnightblue" stroke="midnightblue" points="540.721,-24.9195 530.669,-21.5707 536.438,-30.4569 540.721,-24.9195"/>
</g>
</g>
</svg>
