<?xml version="1.0" encoding="UTF-8" standalone="no"?>
<!DOCTYPE svg PUBLIC "-//W3C//DTD SVG 1.1//EN"
 "http://www.w3.org/Graphics/SVG/1.1/DTD/svg11.dtd">
<!-- Generated by graphviz version 2.26.3 (20100126.1600)
 -->
<!-- Title: G Pages: 1 -->
<svg width="302pt" height="88pt"
 viewBox="0.00 0.00 302.00 88.00" xmlns="http://www.w3.org/2000/svg" xmlns:xlink="http://www.w3.org/1999/xlink">
<g id="graph1" class="graph" transform="scale(1 1) rotate(0) translate(4 84)">
<title>G</title>
<polygon fill="white" stroke="white" points="-4,5 -4,-84 299,-84 299,5 -4,5"/>
<!-- Node1 -->
<g id="node1" class="node"><title>Node1</title>
<polygon fill="#bfbfbf" stroke="black" points="92.5,-0.5 92.5,-21.5 217.5,-21.5 217.5,-0.5 92.5,-0.5"/>
<text text-anchor="middle" x="155" y="-8.5" font-family="Helvetica,sans-Serif" font-size="10.00">gaia::ui::AlphabetIndexer</text>
</g>
<!-- Node2 -->
<g id="node2" class="node"><title>Node2</title>
<a xlink:href="../../d6/db4/classgaia_1_1storage_1_1_data_set_observer.html" target="_top" xlink:title="Receives call backs when a data set has been changed, or made invalid.">
<polygon fill="white" stroke="black" points="-0.5,-58.5 -0.5,-79.5 154.5,-79.5 154.5,-58.5 -0.5,-58.5"/>
<text text-anchor="middle" x="77" y="-66.5" font-family="Helvetica,sans-Serif" font-size="10.00">gaia::storage::DataSetObserver</text>
</a>
</g>
<!-- Node2&#45;&gt;Node1 -->
<g id="edge2" class="edge"><title>Node2&#45;&gt;Node1</title>
<path fill="none" stroke="midnightblue" d="M99.5142,-52.2587C112.821,-42.3641 129.265,-30.1361 140.784,-21.5707"/>
<polygon fill="midnightblue" stroke="midnightblue" points="97.2426,-49.5862 91.3064,-58.3619 101.42,-55.2035 97.2426,-49.5862"/>
</g>
<!-- Node3 -->
<g id="node4" class="node"><title>Node3</title>
<a xlink:href="../../d8/ded/classgaia_1_1ui_1_1_i_section_indexer.html" target="_top" xlink:title="Interface that should be implemented on IItemProviders to enable fast scrolling in an AbsListWidget b...">
<polygon fill="white" stroke="black" points="172,-58.5 172,-79.5 294,-79.5 294,-58.5 172,-58.5"/>
<text text-anchor="middle" x="233" y="-66.5" font-family="Helvetica,sans-Serif" font-size="10.00">gaia::ui::ISectionIndexer</text>
</a>
</g>
<!-- Node3&#45;&gt;Node1 -->
<g id="edge4" class="edge"><title>Node3&#45;&gt;Node1</title>
<path fill="none" stroke="midnightblue" d="M210.486,-52.2587C197.179,-42.3641 180.735,-30.1361 169.216,-21.5707"/>
<polygon fill="midnightblue" stroke="midnightblue" points="208.58,-55.2035 218.694,-58.3619 212.757,-49.5862 208.58,-55.2035"/>
</g>
</g>
</svg>
