<?xml version="1.0" encoding="UTF-8" standalone="no"?>
<!DOCTYPE svg PUBLIC "-//W3C//DTD SVG 1.1//EN"
 "http://www.w3.org/Graphics/SVG/1.1/DTD/svg11.dtd">
<!-- Generated by graphviz version 2.26.3 (20100126.1600)
 -->
<!-- Title: G Pages: 1 -->
<svg width="1065pt" height="146pt"
 viewBox="0.00 0.00 1065.00 146.00" xmlns="http://www.w3.org/2000/svg" xmlns:xlink="http://www.w3.org/1999/xlink">
<g id="graph1" class="graph" transform="scale(1 1) rotate(0) translate(4 142)">
<title>G</title>
<polygon fill="white" stroke="white" points="-4,5 -4,-142 1062,-142 1062,5 -4,5"/>
<!-- Node1 -->
<g id="node1" class="node"><title>Node1</title>
<polygon fill="#bfbfbf" stroke="black" points="405.5,-116.5 405.5,-137.5 668.5,-137.5 668.5,-116.5 405.5,-116.5"/>
<text text-anchor="middle" x="537" y="-124.5" font-family="Helvetica,sans-Serif" font-size="10.00">/home/vilon_tao/gaia/sdk/include/gaia/base/EnumBase.h</text>
</g>
<!-- Node2 -->
<g id="node3" class="node"><title>Node2</title>
<a xlink:href="../../dc/dd0/_call_8h.html" target="_top" xlink:title="/home/vilon_tao/gaia/sdk/include/gaia/telephony/Call.h">
<polygon fill="white" stroke="black" points="169,-58.5 169,-79.5 423,-79.5 423,-58.5 169,-58.5"/>
<text text-anchor="middle" x="296" y="-66.5" font-family="Helvetica,sans-Serif" font-size="10.00">/home/vilon_tao/gaia/sdk/include/gaia/telephony/Call.h</text>
</a>
</g>
<!-- Node1&#45;&gt;Node2 -->
<g id="edge2" class="edge"><title>Node1&#45;&gt;Node2</title>
<path fill="none" stroke="midnightblue" d="M483.574,-114.142C440.321,-103.733 380.147,-89.2511 339.725,-79.5231"/>
<polygon fill="midnightblue" stroke="midnightblue" points="482.815,-117.56 493.357,-116.497 484.453,-110.754 482.815,-117.56"/>
</g>
<!-- Node4 -->
<g id="node7" class="node"><title>Node4</title>
<a xlink:href="../../d8/d26/_connection_8h.html" target="_top" xlink:title="/home/vilon_tao/gaia/sdk/include/gaia/telephony/Connection.h">
<polygon fill="white" stroke="black" points="308,-0.5 308,-21.5 594,-21.5 594,-0.5 308,-0.5"/>
<text text-anchor="middle" x="451" y="-8.5" font-family="Helvetica,sans-Serif" font-size="10.00">/home/vilon_tao/gaia/sdk/include/gaia/telephony/Connection.h</text>
</a>
</g>
<!-- Node1&#45;&gt;Node4 -->
<g id="edge10" class="edge"><title>Node1&#45;&gt;Node4</title>
<path fill="none" stroke="midnightblue" d="M505.626,-111.264C492.9,-103.449 479.089,-92.8973 470,-80 457.403,-62.1247 453.146,-36.2147 451.716,-21.7665"/>
<polygon fill="midnightblue" stroke="midnightblue" points="504.208,-114.487 514.617,-116.464 507.713,-108.428 504.208,-114.487"/>
</g>
<!-- Node5 -->
<g id="node9" class="node"><title>Node5</title>
<a xlink:href="../../da/dfd/_duration_8h.html" target="_top" xlink:title="/home/vilon_tao/gaia/sdk/include/gaia/telephony/cat/Duration.h">
<polygon fill="white" stroke="black" points="479,-58.5 479,-79.5 769,-79.5 769,-58.5 479,-58.5"/>
<text text-anchor="middle" x="624" y="-66.5" font-family="Helvetica,sans-Serif" font-size="10.00">/home/vilon_tao/gaia/sdk/include/gaia/telephony/cat/Duration.h</text>
</a>
</g>
<!-- Node1&#45;&gt;Node5 -->
<g id="edge8" class="edge"><title>Node1&#45;&gt;Node5</title>
<path fill="none" stroke="midnightblue" d="M561.689,-110.541C576.604,-100.597 595.173,-88.2177 608.144,-79.5707"/>
<polygon fill="midnightblue" stroke="midnightblue" points="559.336,-107.903 552.957,-116.362 563.219,-113.727 559.336,-107.903"/>
</g>
<!-- Node6 -->
<g id="node12" class="node"><title>Node6</title>
<a xlink:href="../../d8/db9/_icc_card_8h.html" target="_top" xlink:title="/home/vilon_tao/gaia/sdk/include/gaia/telephony/IccCard.h">
<polygon fill="white" stroke="black" points="786.5,-58.5 786.5,-79.5 1057.5,-79.5 1057.5,-58.5 786.5,-58.5"/>
<text text-anchor="middle" x="922" y="-66.5" font-family="Helvetica,sans-Serif" font-size="10.00">/home/vilon_tao/gaia/sdk/include/gaia/telephony/IccCard.h</text>
</a>
</g>
<!-- Node1&#45;&gt;Node6 -->
<g id="edge12" class="edge"><title>Node1&#45;&gt;Node6</title>
<path fill="none" stroke="midnightblue" d="M616.737,-114.988C686.161,-104.529 785.807,-89.5174 852.149,-79.5231"/>
<polygon fill="midnightblue" stroke="midnightblue" points="616.088,-111.546 606.721,-116.497 617.13,-118.468 616.088,-111.546"/>
</g>
<!-- Node3 -->
<g id="node5" class="node"><title>Node3</title>
<a xlink:href="../../d0/dbc/_call_manager_8h.html" target="_top" xlink:title="/home/vilon_tao/gaia/sdk/include/gaia/telephony/CallManager.h">
<polygon fill="white" stroke="black" points="-0.5,-0.5 -0.5,-21.5 290.5,-21.5 290.5,-0.5 -0.5,-0.5"/>
<text text-anchor="middle" x="145" y="-8.5" font-family="Helvetica,sans-Serif" font-size="10.00">/home/vilon_tao/gaia/sdk/include/gaia/telephony/CallManager.h</text>
</a>
</g>
<!-- Node2&#45;&gt;Node3 -->
<g id="edge4" class="edge"><title>Node2&#45;&gt;Node3</title>
<path fill="none" stroke="midnightblue" d="M259.224,-54.8742C232.429,-44.5819 196.71,-30.862 172.396,-21.5231"/>
<polygon fill="midnightblue" stroke="midnightblue" points="258.065,-58.1782 268.655,-58.4966 260.575,-51.6437 258.065,-58.1782"/>
</g>
<!-- Node2&#45;&gt;Node4 -->
<g id="edge6" class="edge"><title>Node2&#45;&gt;Node4</title>
<path fill="none" stroke="midnightblue" d="M333.75,-54.8742C361.255,-44.5819 397.921,-30.862 422.878,-21.5231"/>
<polygon fill="midnightblue" stroke="midnightblue" points="332.208,-51.7139 324.069,-58.4966 334.662,-58.27 332.208,-51.7139"/>
</g>
</g>
</svg>
