<?xml version="1.0" encoding="UTF-8" standalone="no"?>
<!DOCTYPE svg PUBLIC "-//W3C//DTD SVG 1.1//EN"
 "http://www.w3.org/Graphics/SVG/1.1/DTD/svg11.dtd">
<!-- Generated by graphviz version 2.26.3 (20100126.1600)
 -->
<!-- Title: G Pages: 1 -->
<svg width="472pt" height="204pt"
 viewBox="0.00 0.00 472.00 204.00" xmlns="http://www.w3.org/2000/svg" xmlns:xlink="http://www.w3.org/1999/xlink">
<g id="graph1" class="graph" transform="scale(1 1) rotate(0) translate(4 200)">
<title>G</title>
<polygon fill="white" stroke="white" points="-4,5 -4,-200 469,-200 469,5 -4,5"/>
<!-- Node1 -->
<g id="node1" class="node"><title>Node1</title>
<polygon fill="#bfbfbf" stroke="black" points="153.5,-174.5 153.5,-195.5 464.5,-195.5 464.5,-174.5 153.5,-174.5"/>
<text text-anchor="middle" x="309" y="-182.5" font-family="Helvetica,sans-Serif" font-size="10.00">/home/vilon_tao/gaia/sdk/include/gaia/core/gesture/GestureStroke.h</text>
</g>
<!-- Node2 -->
<g id="node3" class="node"><title>Node2</title>
<a xlink:href="../../d4/d7f/_vector_8h.html" target="_top" xlink:title="gaia/base/Vector.h">
<polygon fill="white" stroke="black" points="174,-116.5 174,-137.5 272,-137.5 272,-116.5 174,-116.5"/>
<text text-anchor="middle" x="223" y="-124.5" font-family="Helvetica,sans-Serif" font-size="10.00">gaia/base/Vector.h</text>
</a>
</g>
<!-- Node1&#45;&gt;Node2 -->
<g id="edge2" class="edge"><title>Node1&#45;&gt;Node2</title>
<path fill="none" stroke="midnightblue" d="M293.226,-174.362C280.376,-165.696 262.015,-153.313 247.29,-143.382"/>
<polygon fill="midnightblue" stroke="midnightblue" points="248.921,-140.26 238.674,-137.571 245.007,-146.064 248.921,-140.26"/>
</g>
<!-- Node6 -->
<g id="node11" class="node"><title>Node6</title>
<polygon fill="white" stroke="#bfbfbf" points="208,-0.5 208,-21.5 276,-21.5 276,-0.5 208,-0.5"/>
<text text-anchor="middle" x="242" y="-8.5" font-family="Helvetica,sans-Serif" font-size="10.00">sys/types.h</text>
</g>
<!-- Node1&#45;&gt;Node6 -->
<g id="edge20" class="edge"><title>Node1&#45;&gt;Node6</title>
<path fill="none" stroke="midnightblue" d="M315.696,-174.24C329.115,-151.166 356.11,-95.9457 333,-58 322.621,-40.9577 303.855,-29.8253 286.05,-22.6963"/>
<polygon fill="midnightblue" stroke="midnightblue" points="286.91,-19.2841 276.316,-19.1354 284.505,-25.858 286.91,-19.2841"/>
</g>
<!-- Node3 -->
<g id="node5" class="node"><title>Node3</title>
<a xlink:href="../../d1/d86/_type_helpers_8h.html" target="_top" xlink:title="gaia/base/TypeHelpers.h">
<polygon fill="white" stroke="black" points="27.5,-58.5 27.5,-79.5 152.5,-79.5 152.5,-58.5 27.5,-58.5"/>
<text text-anchor="middle" x="90" y="-66.5" font-family="Helvetica,sans-Serif" font-size="10.00">gaia/base/TypeHelpers.h</text>
</a>
</g>
<!-- Node2&#45;&gt;Node3 -->
<g id="edge4" class="edge"><title>Node2&#45;&gt;Node3</title>
<path fill="none" stroke="midnightblue" d="M198.915,-116.497C177.861,-107.315 147.073,-93.8889 123.598,-83.6516"/>
<polygon fill="midnightblue" stroke="midnightblue" points="124.921,-80.4104 114.356,-79.6212 122.123,-86.8268 124.921,-80.4104"/>
</g>
<!-- Node2&#45;&gt;Node6 -->
<g id="edge18" class="edge"><title>Node2&#45;&gt;Node6</title>
<path fill="none" stroke="midnightblue" d="M214.393,-116.156C204.651,-102.492 191.101,-78.3348 199,-58 203.415,-46.6343 212.002,-36.341 220.35,-28.3045"/>
<polygon fill="midnightblue" stroke="midnightblue" points="222.721,-30.8789 227.821,-21.5924 218.043,-25.6715 222.721,-30.8789"/>
</g>
<!-- Node8 -->
<g id="node15" class="node"><title>Node8</title>
<a xlink:href="../../dc/da9/_vector_impl_8h.html" target="_top" xlink:title="gaia/base/VectorImpl.h">
<polygon fill="white" stroke="black" points="207.5,-58.5 207.5,-79.5 324.5,-79.5 324.5,-58.5 207.5,-58.5"/>
<text text-anchor="middle" x="266" y="-66.5" font-family="Helvetica,sans-Serif" font-size="10.00">gaia/base/VectorImpl.h</text>
</a>
</g>
<!-- Node2&#45;&gt;Node8 -->
<g id="edge14" class="edge"><title>Node2&#45;&gt;Node8</title>
<path fill="none" stroke="midnightblue" d="M230.887,-116.362C236.827,-108.35 245.122,-97.1605 252.159,-87.6696"/>
<polygon fill="midnightblue" stroke="midnightblue" points="255.019,-89.6883 258.163,-79.5707 249.396,-85.5193 255.019,-89.6883"/>
</g>
<!-- Node4 -->
<g id="node7" class="node"><title>Node4</title>
<polygon fill="white" stroke="#bfbfbf" points="-0.5,-0.5 -0.5,-21.5 48.5,-21.5 48.5,-0.5 -0.5,-0.5"/>
<text text-anchor="middle" x="24" y="-8.5" font-family="Helvetica,sans-Serif" font-size="10.00">stdint.h</text>
</g>
<!-- Node3&#45;&gt;Node4 -->
<g id="edge6" class="edge"><title>Node3&#45;&gt;Node4</title>
<path fill="none" stroke="midnightblue" d="M77.8946,-58.3619C68.3119,-49.9408 54.7361,-38.0105 43.6074,-28.2308"/>
<polygon fill="midnightblue" stroke="midnightblue" points="45.8508,-25.5427 36.0287,-21.5707 41.2299,-30.8009 45.8508,-25.5427"/>
</g>
<!-- Node5 -->
<g id="node9" class="node"><title>Node5</title>
<polygon fill="white" stroke="#bfbfbf" points="65.5,-0.5 65.5,-21.5 114.5,-21.5 114.5,-0.5 65.5,-0.5"/>
<text text-anchor="middle" x="90" y="-8.5" font-family="Helvetica,sans-Serif" font-size="10.00">string.h</text>
</g>
<!-- Node3&#45;&gt;Node5 -->
<g id="edge8" class="edge"><title>Node3&#45;&gt;Node5</title>
<path fill="none" stroke="midnightblue" d="M90,-58.3619C90,-50.9219 90,-40.7427 90,-31.7276"/>
<polygon fill="midnightblue" stroke="midnightblue" points="93.5001,-31.5706 90,-21.5707 86.5001,-31.5707 93.5001,-31.5706"/>
</g>
<!-- Node3&#45;&gt;Node6 -->
<g id="edge10" class="edge"><title>Node3&#45;&gt;Node6</title>
<path fill="none" stroke="midnightblue" d="M117.526,-58.4966C141.984,-49.1639 177.938,-35.4447 204.924,-25.1475"/>
<polygon fill="midnightblue" stroke="midnightblue" points="206.327,-28.3582 214.422,-21.5231 203.832,-21.8182 206.327,-28.3582"/>
</g>
<!-- Node7 -->
<g id="node13" class="node"><title>Node7</title>
<polygon fill="white" stroke="#bfbfbf" points="131.5,-0.5 131.5,-21.5 166.5,-21.5 166.5,-0.5 131.5,-0.5"/>
<text text-anchor="middle" x="149" y="-8.5" font-family="Helvetica,sans-Serif" font-size="10.00">new</text>
</g>
<!-- Node3&#45;&gt;Node7 -->
<g id="edge12" class="edge"><title>Node3&#45;&gt;Node7</title>
<path fill="none" stroke="midnightblue" d="M100.822,-58.3619C109.221,-50.1043 121.054,-38.4725 130.89,-28.8029"/>
<polygon fill="midnightblue" stroke="midnightblue" points="133.569,-31.077 138.247,-21.5707 128.662,-26.0851 133.569,-31.077"/>
</g>
<!-- Node8&#45;&gt;Node6 -->
<g id="edge16" class="edge"><title>Node8&#45;&gt;Node6</title>
<path fill="none" stroke="midnightblue" d="M261.598,-58.3619C258.418,-50.6766 254.028,-40.0686 250.21,-30.8399"/>
<polygon fill="midnightblue" stroke="midnightblue" points="253.432,-29.4726 246.374,-21.5707 246.964,-32.1491 253.432,-29.4726"/>
</g>
</g>
</svg>
