<?xml version="1.0" encoding="UTF-8" standalone="no"?>
<!DOCTYPE svg PUBLIC "-//W3C//DTD SVG 1.1//EN"
 "http://www.w3.org/Graphics/SVG/1.1/DTD/svg11.dtd">
<!-- Generated by graphviz version 2.26.3 (20100126.1600)
 -->
<!-- Title: G Pages: 1 -->
<svg width="827pt" height="320pt"
 viewBox="0.00 0.00 827.07 320.00" xmlns="http://www.w3.org/2000/svg" xmlns:xlink="http://www.w3.org/1999/xlink">
<g id="graph1" class="graph" transform="scale(1 1) rotate(0) translate(4 316)">
<title>G</title>
<polygon fill="white" stroke="white" points="-4,5 -4,-316 824.07,-316 824.07,5 -4,5"/>
<!-- Node1 -->
<g id="node1" class="node"><title>Node1</title>
<polygon fill="#bfbfbf" stroke="black" points="13.5698,-290.5 13.5698,-311.5 252.57,-311.5 252.57,-290.5 13.5698,-290.5"/>
<text text-anchor="middle" x="133.07" y="-298.5" font-family="Helvetica,sans-Serif" font-size="10.00">/home/vilon_tao/gaia/sdk/include/gaia/ui/SeekBar.h</text>
</g>
<!-- Node2 -->
<g id="node3" class="node"><title>Node2</title>
<a xlink:href="../../db/df3/_abs_seek_bar_8h.html" target="_top" xlink:title="gaia/ui/AbsSeekBar.h">
<polygon fill="white" stroke="black" points="126.57,-232.5 126.57,-253.5 237.57,-253.5 237.57,-232.5 126.57,-232.5"/>
<text text-anchor="middle" x="182.07" y="-240.5" font-family="Helvetica,sans-Serif" font-size="10.00">gaia/ui/AbsSeekBar.h</text>
</a>
</g>
<!-- Node1&#45;&gt;Node2 -->
<g id="edge2" class="edge"><title>Node1&#45;&gt;Node2</title>
<path fill="none" stroke="midnightblue" d="M142.057,-290.362C148.895,-282.268 158.472,-270.932 166.542,-261.38"/>
<polygon fill="midnightblue" stroke="midnightblue" points="169.359,-263.468 173.139,-253.571 164.012,-258.951 169.359,-263.468"/>
</g>
<!-- Node11 -->
<g id="node22" class="node"><title>Node11</title>
<a xlink:href="../../db/db5/_string_8h.html" target="_top" xlink:title="gaia/base/String.h">
<polygon fill="white" stroke="black" points="22.5698,-116.5 22.5698,-137.5 117.57,-137.5 117.57,-116.5 22.5698,-116.5"/>
<text text-anchor="middle" x="70.0698" y="-124.5" font-family="Helvetica,sans-Serif" font-size="10.00">gaia/base/String.h</text>
</a>
</g>
<!-- Node1&#45;&gt;Node11 -->
<g id="edge22" class="edge"><title>Node1&#45;&gt;Node11</title>
<path fill="none" stroke="midnightblue" d="M129.224,-290.377C119.011,-262.172 91.0741,-185.012 77.5719,-147.72"/>
<polygon fill="midnightblue" stroke="midnightblue" points="80.7217,-146.139 74.0263,-137.928 74.1399,-148.522 80.7217,-146.139"/>
</g>
<!-- Node3 -->
<g id="node5" class="node"><title>Node3</title>
<a xlink:href="../../dd/d9c/_progress_bar_8h.html" target="_top" xlink:title="gaia/ui/ProgressBar.h">
<polygon fill="white" stroke="black" points="156.07,-174.5 156.07,-195.5 266.07,-195.5 266.07,-174.5 156.07,-174.5"/>
<text text-anchor="middle" x="211.07" y="-182.5" font-family="Helvetica,sans-Serif" font-size="10.00">gaia/ui/ProgressBar.h</text>
</a>
</g>
<!-- Node2&#45;&gt;Node3 -->
<g id="edge4" class="edge"><title>Node2&#45;&gt;Node3</title>
<path fill="none" stroke="midnightblue" d="M187.389,-232.362C191.272,-224.595 196.648,-213.843 201.297,-204.546"/>
<polygon fill="midnightblue" stroke="midnightblue" points="204.443,-206.08 205.784,-195.571 198.182,-202.95 204.443,-206.08"/>
</g>
<!-- Node4 -->
<g id="node7" class="node"><title>Node4</title>
<a xlink:href="../../d3/dd0/_event_control_8h.html" target="_top" xlink:title="gaia/core/event/EventControl.h">
<polygon fill="white" stroke="black" points="135.07,-116.5 135.07,-137.5 287.07,-137.5 287.07,-116.5 135.07,-116.5"/>
<text text-anchor="middle" x="211.07" y="-124.5" font-family="Helvetica,sans-Serif" font-size="10.00">gaia/core/event/EventControl.h</text>
</a>
</g>
<!-- Node3&#45;&gt;Node4 -->
<g id="edge6" class="edge"><title>Node3&#45;&gt;Node4</title>
<path fill="none" stroke="midnightblue" d="M211.07,-174.362C211.07,-166.922 211.07,-156.743 211.07,-147.728"/>
<polygon fill="midnightblue" stroke="midnightblue" points="214.57,-147.571 211.07,-137.571 207.57,-147.571 214.57,-147.571"/>
</g>
<!-- Node6 -->
<g id="node11" class="node"><title>Node6</title>
<a xlink:href="../../d4/d75/_widget_8h.html" target="_top" xlink:title="gaia/core/vision/Widget.h">
<polygon fill="white" stroke="black" points="452.57,-116.5 452.57,-137.5 579.57,-137.5 579.57,-116.5 452.57,-116.5"/>
<text text-anchor="middle" x="516.07" y="-124.5" font-family="Helvetica,sans-Serif" font-size="10.00">gaia/core/vision/Widget.h</text>
</a>
</g>
<!-- Node3&#45;&gt;Node6 -->
<g id="edge10" class="edge"><title>Node3&#45;&gt;Node6</title>
<path fill="none" stroke="midnightblue" d="M266.303,-174.497C318.179,-164.632 395.826,-149.866 450.753,-139.421"/>
<polygon fill="midnightblue" stroke="midnightblue" points="451.563,-142.83 460.733,-137.523 450.255,-135.953 451.563,-142.83"/>
</g>
<!-- Node5 -->
<g id="node9" class="node"><title>Node5</title>
<polygon fill="white" stroke="#bfbfbf" points="78.0698,-0.5 78.0698,-21.5 146.07,-21.5 146.07,-0.5 78.0698,-0.5"/>
<text text-anchor="middle" x="112.07" y="-8.5" font-family="Helvetica,sans-Serif" font-size="10.00">sys/types.h</text>
</g>
<!-- Node4&#45;&gt;Node5 -->
<g id="edge8" class="edge"><title>Node4&#45;&gt;Node5</title>
<path fill="none" stroke="midnightblue" d="M201.934,-116.295C185.063,-96.5271 148.836,-54.0801 127.896,-29.5443"/>
<polygon fill="midnightblue" stroke="midnightblue" points="130.338,-27.0136 121.184,-21.6792 125.013,-31.5578 130.338,-27.0136"/>
</g>
<!-- Node7 -->
<g id="node13" class="node"><title>Node7</title>
<a xlink:href="../../d1/dd0/gmacros_8h.html" target="_top" xlink:title="gaia/base/gmacros.h">
<polygon fill="white" stroke="black" points="546.57,-58.5 546.57,-79.5 653.57,-79.5 653.57,-58.5 546.57,-58.5"/>
<text text-anchor="middle" x="600.07" y="-66.5" font-family="Helvetica,sans-Serif" font-size="10.00">gaia/base/gmacros.h</text>
</a>
</g>
<!-- Node6&#45;&gt;Node7 -->
<g id="edge12" class="edge"><title>Node6&#45;&gt;Node7</title>
<path fill="none" stroke="midnightblue" d="M531.477,-116.362C544.028,-107.696 561.962,-95.3126 576.344,-85.3819"/>
<polygon fill="midnightblue" stroke="midnightblue" points="578.52,-88.1327 584.761,-79.5707 574.543,-82.3725 578.52,-88.1327"/>
</g>
<!-- Node8 -->
<g id="node15" class="node"><title>Node8</title>
<a xlink:href="../../d0/d92/_property_animatable_8h.html" target="_top" xlink:title="gaia/core/animator/PropertyAnimatable.h">
<polygon fill="white" stroke="black" points="335.07,-58.5 335.07,-79.5 529.07,-79.5 529.07,-58.5 335.07,-58.5"/>
<text text-anchor="middle" x="432.07" y="-66.5" font-family="Helvetica,sans-Serif" font-size="10.00">gaia/core/animator/PropertyAnimatable.h</text>
</a>
</g>
<!-- Node6&#45;&gt;Node8 -->
<g id="edge14" class="edge"><title>Node6&#45;&gt;Node8</title>
<path fill="none" stroke="midnightblue" d="M500.663,-116.362C488.112,-107.696 470.178,-95.3126 455.795,-85.3819"/>
<polygon fill="midnightblue" stroke="midnightblue" points="457.597,-82.3725 447.379,-79.5707 453.619,-88.1327 457.597,-82.3725"/>
</g>
<!-- Node9 -->
<g id="node18" class="node"><title>Node9</title>
<a xlink:href="../../d8/d50/_widget_core_8h.html" target="_top" xlink:title="gaia/core/vision/WidgetCore.h">
<polygon fill="white" stroke="black" points="671.07,-58.5 671.07,-79.5 819.07,-79.5 819.07,-58.5 671.07,-58.5"/>
<text text-anchor="middle" x="745.07" y="-66.5" font-family="Helvetica,sans-Serif" font-size="10.00">gaia/core/vision/WidgetCore.h</text>
</a>
</g>
<!-- Node6&#45;&gt;Node9 -->
<g id="edge18" class="edge"><title>Node6&#45;&gt;Node9</title>
<path fill="none" stroke="midnightblue" d="M557.54,-116.497C595.762,-106.816 652.618,-92.4156 693.701,-82.0105"/>
<polygon fill="midnightblue" stroke="midnightblue" points="694.687,-85.3712 703.522,-79.5231 692.969,-78.5855 694.687,-85.3712"/>
</g>
<!-- Node8&#45;&gt;Node5 -->
<g id="edge16" class="edge"><title>Node8&#45;&gt;Node5</title>
<path fill="none" stroke="midnightblue" d="M374.12,-58.4966C311.555,-47.1566 213.258,-29.3404 156.517,-19.056"/>
<polygon fill="midnightblue" stroke="midnightblue" points="156.887,-15.5662 146.423,-17.2266 155.639,-22.454 156.887,-15.5662"/>
</g>
<!-- Node10 -->
<g id="node20" class="node"><title>Node10</title>
<polygon fill="white" stroke="#bfbfbf" points="472.57,-0.5 472.57,-21.5 521.57,-21.5 521.57,-0.5 472.57,-0.5"/>
<text text-anchor="middle" x="497.07" y="-8.5" font-family="Helvetica,sans-Serif" font-size="10.00">stdint.h</text>
</g>
<!-- Node9&#45;&gt;Node10 -->
<g id="edge20" class="edge"><title>Node9&#45;&gt;Node10</title>
<path fill="none" stroke="midnightblue" d="M700.159,-58.4966C651.7,-47.1635 575.583,-29.362 531.596,-19.0747"/>
<polygon fill="midnightblue" stroke="midnightblue" points="532.202,-15.622 521.667,-16.7527 530.608,-22.438 532.202,-15.622"/>
</g>
<!-- Node11&#45;&gt;Node5 -->
<g id="edge32" class="edge"><title>Node11&#45;&gt;Node5</title>
<path fill="none" stroke="midnightblue" d="M46.6233,-116.402C21.9983,-103.729 -11.1961,-81.2923 4.06975,-58 18.2913,-36.3011 44.9438,-24.566 68.2124,-18.2483"/>
<polygon fill="midnightblue" stroke="midnightblue" points="69.056,-21.6452 77.9313,-15.8591 67.3849,-14.8476 69.056,-21.6452"/>
</g>
<!-- Node12 -->
<g id="node24" class="node"><title>Node12</title>
<a xlink:href="../../d7/d97/_char_sequence_8h.html" target="_top" xlink:title="gaia/base/CharSequence.h">
<polygon fill="white" stroke="black" points="183.07,-58.5 183.07,-79.5 317.07,-79.5 317.07,-58.5 183.07,-58.5"/>
<text text-anchor="middle" x="250.07" y="-66.5" font-family="Helvetica,sans-Serif" font-size="10.00">gaia/base/CharSequence.h</text>
</a>
</g>
<!-- Node11&#45;&gt;Node12 -->
<g id="edge24" class="edge"><title>Node11&#45;&gt;Node12</title>
<path fill="none" stroke="midnightblue" d="M102.666,-116.497C132.138,-107 175.705,-92.9619 207.836,-82.6087"/>
<polygon fill="midnightblue" stroke="midnightblue" points="208.967,-85.9214 217.412,-79.5231 206.82,-79.2587 208.967,-85.9214"/>
</g>
<!-- Node13 -->
<g id="node27" class="node"><title>Node13</title>
<a xlink:href="../../d6/d83/_hash_func_8h.html" target="_top" xlink:title="gaia/base/HashFunc.h">
<polygon fill="white" stroke="black" points="12.5698,-58.5 12.5698,-79.5 127.57,-79.5 127.57,-58.5 12.5698,-58.5"/>
<text text-anchor="middle" x="70.0698" y="-66.5" font-family="Helvetica,sans-Serif" font-size="10.00">gaia/base/HashFunc.h</text>
</a>
</g>
<!-- Node11&#45;&gt;Node13 -->
<g id="edge28" class="edge"><title>Node11&#45;&gt;Node13</title>
<path fill="none" stroke="midnightblue" d="M70.0698,-116.362C70.0698,-108.922 70.0698,-98.7427 70.0698,-89.7276"/>
<polygon fill="midnightblue" stroke="midnightblue" points="73.5698,-89.5706 70.0698,-79.5707 66.5698,-89.5707 73.5698,-89.5706"/>
</g>
<!-- Node12&#45;&gt;Node10 -->
<g id="edge26" class="edge"><title>Node12&#45;&gt;Node10</title>
<path fill="none" stroke="midnightblue" d="M294.8,-58.4966C342.934,-47.1937 418.469,-29.4569 462.331,-19.1572"/>
<polygon fill="midnightblue" stroke="midnightblue" points="463.304,-22.524 472.239,-16.8306 461.704,-15.7093 463.304,-22.524"/>
</g>
<!-- Node13&#45;&gt;Node5 -->
<g id="edge30" class="edge"><title>Node13&#45;&gt;Node5</title>
<path fill="none" stroke="midnightblue" d="M77.7732,-58.3619C83.516,-50.4313 91.5125,-39.3885 98.3396,-29.9606"/>
<polygon fill="midnightblue" stroke="midnightblue" points="101.385,-31.7229 104.415,-21.5707 95.7152,-27.6173 101.385,-31.7229"/>
</g>
</g>
</svg>
