<?xml version="1.0" encoding="UTF-8" standalone="no"?>
<!DOCTYPE svg PUBLIC "-//W3C//DTD SVG 1.1//EN"
 "http://www.w3.org/Graphics/SVG/1.1/DTD/svg11.dtd">
<!-- Generated by graphviz version 2.26.3 (20100126.1600)
 -->
<!-- Title: G Pages: 1 -->
<svg width="666pt" height="70pt"
 viewBox="0.00 0.00 666.00 70.00" xmlns="http://www.w3.org/2000/svg" xmlns:xlink="http://www.w3.org/1999/xlink">
<g id="graph1" class="graph" transform="scale(1 1) rotate(0) translate(4 66)">
<title>G</title>
<polygon fill="white" stroke="white" points="-4,5 -4,-66 663,-66 663,5 -4,5"/>
<!-- Node1 -->
<g id="node1" class="node"><title>Node1</title>
<polygon fill="#bfbfbf" stroke="black" points="0.5,-20.5 0.5,-41.5 161.5,-41.5 161.5,-20.5 0.5,-20.5"/>
<text text-anchor="middle" x="81" y="-28.5" font-family="Helvetica,sans-Serif" font-size="10.00">gaia::text::TransformationMethod</text>
</g>
<!-- Node2 -->
<g id="node3" class="node"><title>Node2</title>
<a xlink:href="../../d7/d03/classgaia_1_1text_1_1_password_transformation_method.html" target="_top" xlink:title="For Password transformation method.">
<polygon fill="white" stroke="black" points="205,-40.5 205,-61.5 409,-61.5 409,-40.5 205,-40.5"/>
<text text-anchor="middle" x="307" y="-48.5" font-family="Helvetica,sans-Serif" font-size="10.00">gaia::text::PasswordTransformationMethod</text>
</a>
</g>
<!-- Node1&#45;&gt;Node2 -->
<g id="edge2" class="edge"><title>Node1&#45;&gt;Node2</title>
<path fill="none" stroke="midnightblue" d="M171.878,-39.0423C182.667,-39.997 193.735,-40.9765 204.669,-41.9441"/>
<polygon fill="midnightblue" stroke="midnightblue" points="171.904,-35.531 161.634,-38.1358 171.287,-42.5037 171.904,-35.531"/>
</g>
<!-- Node3 -->
<g id="node5" class="node"><title>Node3</title>
<a xlink:href="../../d8/d10/classgaia_1_1text_1_1_replacement_transformation_method.html" target="_top" xlink:title="This transformation method causes the characters in the getOriginal array to be replaced by the corre...">
<polygon fill="white" stroke="black" points="198,-0.5 198,-21.5 416,-21.5 416,-0.5 198,-0.5"/>
<text text-anchor="middle" x="307" y="-8.5" font-family="Helvetica,sans-Serif" font-size="10.00">gaia::text::ReplacementTransformationMethod</text>
</a>
</g>
<!-- Node1&#45;&gt;Node3 -->
<g id="edge4" class="edge"><title>Node1&#45;&gt;Node3</title>
<path fill="none" stroke="midnightblue" d="M171.69,-22.9743C180.338,-22.209 189.168,-21.4276 197.966,-20.649"/>
<polygon fill="midnightblue" stroke="midnightblue" points="171.287,-19.4963 161.634,-23.8642 171.904,-26.469 171.287,-19.4963"/>
</g>
<!-- Node4 -->
<g id="node7" class="node"><title>Node4</title>
<a xlink:href="../../d4/dcc/classgaia_1_1text_1_1_single_line_transformation_method.html" target="_top" xlink:title="Displayed single line characters.">
<polygon fill="white" stroke="black" points="452,-0.5 452,-21.5 658,-21.5 658,-0.5 452,-0.5"/>
<text text-anchor="middle" x="555" y="-8.5" font-family="Helvetica,sans-Serif" font-size="10.00">gaia::text::SingleLineTransformationMethod</text>
</a>
</g>
<!-- Node3&#45;&gt;Node4 -->
<g id="edge6" class="edge"><title>Node3&#45;&gt;Node4</title>
<path fill="none" stroke="midnightblue" d="M426.149,-11C434.698,-11 443.277,-11 451.724,-11"/>
<polygon fill="midnightblue" stroke="midnightblue" points="426.137,-7.5001 416.137,-11 426.137,-14.5001 426.137,-7.5001"/>
</g>
</g>
</svg>
