<?xml version="1.0" encoding="UTF-8" standalone="no"?>
<!DOCTYPE svg PUBLIC "-//W3C//DTD SVG 1.1//EN"
 "http://www.w3.org/Graphics/SVG/1.1/DTD/svg11.dtd">
<!-- Generated by graphviz version 2.26.3 (20100126.1600)
 -->
<!-- Title: G Pages: 1 -->
<svg width="295pt" height="102pt"
 viewBox="0.00 0.00 295.00 102.00" xmlns="http://www.w3.org/2000/svg" xmlns:xlink="http://www.w3.org/1999/xlink">
<g id="graph1" class="graph" transform="scale(1 1) rotate(0) translate(4 98)">
<title>G</title>
<polygon fill="white" stroke="white" points="-4,5 -4,-98 292,-98 292,5 -4,5"/>
<!-- Node1 -->
<g id="node1" class="node"><title>Node1</title>
<polygon fill="#bfbfbf" stroke="black" points="0,-0.5 0,-21.5 238,-21.5 238,-0.5 0,-0.5"/>
<text text-anchor="middle" x="119" y="-8.5" font-family="Helvetica,sans-Serif" font-size="10.00">gaia::base::HashMap&lt; KEY, VAL &gt;::const_iterator</text>
</g>
<!-- Node2 -->
<g id="node2" class="node"><title>Node2</title>
<a xlink:href="../../df/de1/structgaia_1_1base_1_1_hash_map_1_1_hash_node.html" target="_top" xlink:title="gaia::base::HashMap\&lt; KEY, VAL \&gt;::HashNode">
<polygon fill="white" stroke="black" points="6.5,-72.5 6.5,-93.5 231.5,-93.5 231.5,-72.5 6.5,-72.5"/>
<text text-anchor="middle" x="119" y="-80.5" font-family="Helvetica,sans-Serif" font-size="10.00">gaia::base::HashMap&lt; KEY, VAL &gt;::HashNode</text>
</a>
</g>
<!-- Node2&#45;&gt;Node1 -->
<g id="edge2" class="edge"><title>Node2&#45;&gt;Node1</title>
<path fill="none" stroke="#9a32cd" stroke-dasharray="5,2" d="M119,-62.2348C119,-48.969 119,-32.3188 119,-21.6674"/>
<polygon fill="#9a32cd" stroke="#9a32cd" points="115.5,-62.3761 119,-72.3762 122.5,-62.3762 115.5,-62.3761"/>
<text text-anchor="middle" x="139" y="-44.5" font-family="Helvetica,sans-Serif" font-size="10.00"> mpNode</text>
</g>
<!-- Node2&#45;&gt;Node2 -->
<g id="edge4" class="edge"><title>Node2&#45;&gt;Node2</title>
<path fill="none" stroke="#9a32cd" stroke-dasharray="5,2" d="M241.865,-86.8689C246.396,-85.8497 249,-84.5601 249,-83 249,-80.5039 242.334,-78.7001 231.774,-77.5885"/>
<polygon fill="#9a32cd" stroke="#9a32cd" points="241.13,-83.4404 231.774,-88.4115 242.188,-90.3601 241.13,-83.4404"/>
<text text-anchor="middle" x="268" y="-80.5" font-family="Helvetica,sans-Serif" font-size="10.00"> mpNext</text>
</g>
</g>
</svg>
