<?xml version="1.0" encoding="UTF-8" standalone="no"?>
<!DOCTYPE svg PUBLIC "-//W3C//DTD SVG 1.1//EN"
 "http://www.w3.org/Graphics/SVG/1.1/DTD/svg11.dtd">
<!-- Generated by graphviz version 2.26.3 (20100126.1600)
 -->
<!-- Title: G Pages: 1 -->
<svg width="641pt" height="320pt"
 viewBox="0.00 0.00 640.98 320.00" xmlns="http://www.w3.org/2000/svg" xmlns:xlink="http://www.w3.org/1999/xlink">
<g id="graph1" class="graph" transform="scale(1 1) rotate(0) translate(4 316)">
<title>G</title>
<polygon fill="white" stroke="white" points="-4,5 -4,-316 637.984,-316 637.984,5 -4,5"/>
<!-- Node1 -->
<g id="node1" class="node"><title>Node1</title>
<polygon fill="#bfbfbf" stroke="black" points="35.9836,-290.5 35.9836,-311.5 275.984,-311.5 275.984,-290.5 35.9836,-290.5"/>
<text text-anchor="middle" x="155.984" y="-298.5" font-family="Helvetica,sans-Serif" font-size="10.00">/home/vilon_tao/gaia/sdk/include/gaia/text/Layout.h</text>
</g>
<!-- Node2 -->
<g id="node3" class="node"><title>Node2</title>
<polygon fill="white" stroke="#bfbfbf" points="10.4836,-58.5 10.4836,-79.5 59.4836,-79.5 59.4836,-58.5 10.4836,-58.5"/>
<text text-anchor="middle" x="34.9836" y="-66.5" font-family="Helvetica,sans-Serif" font-size="10.00">stdint.h</text>
</g>
<!-- Node1&#45;&gt;Node2 -->
<g id="edge2" class="edge"><title>Node1&#45;&gt;Node2</title>
<path fill="none" stroke="midnightblue" d="M122.32,-290.454C101.169,-282.689 74.1686,-270.589 53.9836,-254 29.3953,-233.792 23.3415,-225.731 11.9836,-196 -0.740673,-162.692 -3.74728,-150.302 5.98358,-116 8.79734,-106.081 14.364,-96.2026 19.8744,-88.0804"/>
<polygon fill="midnightblue" stroke="midnightblue" points="22.8807,-89.8969 25.9221,-79.748 17.2156,-85.7851 22.8807,-89.8969"/>
</g>
<!-- Node3 -->
<g id="node5" class="node"><title>Node3</title>
<a xlink:href="../../d1/dd0/gmacros_8h.html" target="_top" xlink:title="gaia/base/gmacros.h">
<polygon fill="white" stroke="black" points="146.484,-174.5 146.484,-195.5 253.484,-195.5 253.484,-174.5 146.484,-174.5"/>
<text text-anchor="middle" x="199.984" y="-182.5" font-family="Helvetica,sans-Serif" font-size="10.00">gaia/base/gmacros.h</text>
</a>
</g>
<!-- Node1&#45;&gt;Node3 -->
<g id="edge4" class="edge"><title>Node1&#45;&gt;Node3</title>
<path fill="none" stroke="midnightblue" d="M161.454,-290.345C166.171,-280.93 172.99,-266.752 177.984,-254 184.206,-238.11 190.014,-219.675 194.098,-205.86"/>
<polygon fill="midnightblue" stroke="midnightblue" points="197.56,-206.486 196.979,-195.907 190.836,-204.54 197.56,-206.486"/>
</g>
<!-- Node4 -->
<g id="node7" class="node"><title>Node4</title>
<a xlink:href="../../d5/d17/_canvas_8h.html" target="_top" xlink:title="gaia/graphics/Canvas.h">
<polygon fill="white" stroke="black" points="224.484,-232.5 224.484,-253.5 343.484,-253.5 343.484,-232.5 224.484,-232.5"/>
<text text-anchor="middle" x="283.984" y="-240.5" font-family="Helvetica,sans-Serif" font-size="10.00">gaia/graphics/Canvas.h</text>
</a>
</g>
<!-- Node1&#45;&gt;Node4 -->
<g id="edge6" class="edge"><title>Node1&#45;&gt;Node4</title>
<path fill="none" stroke="midnightblue" d="M179.163,-290.497C199.335,-281.356 228.793,-268.008 251.347,-257.788"/>
<polygon fill="midnightblue" stroke="midnightblue" points="252.88,-260.937 260.544,-253.621 249.991,-254.561 252.88,-260.937"/>
</g>
<!-- Node11 -->
<g id="node25" class="node"><title>Node11</title>
<a xlink:href="../../d5/d4f/_text_paint_8h.html" target="_top" xlink:title="gaia/text/TextPaint.h">
<polygon fill="white" stroke="black" points="62.4836,-232.5 62.4836,-253.5 169.484,-253.5 169.484,-232.5 62.4836,-232.5"/>
<text text-anchor="middle" x="115.984" y="-240.5" font-family="Helvetica,sans-Serif" font-size="10.00">gaia/text/TextPaint.h</text>
</a>
</g>
<!-- Node1&#45;&gt;Node11 -->
<g id="edge28" class="edge"><title>Node1&#45;&gt;Node11</title>
<path fill="none" stroke="midnightblue" d="M148.647,-290.362C143.178,-282.431 135.562,-271.389 129.06,-261.961"/>
<polygon fill="midnightblue" stroke="midnightblue" points="131.832,-259.816 123.274,-253.571 126.07,-263.79 131.832,-259.816"/>
</g>
<!-- Node4&#45;&gt;Node3 -->
<g id="edge10" class="edge"><title>Node4&#45;&gt;Node3</title>
<path fill="none" stroke="midnightblue" d="M268.577,-232.362C256.025,-223.696 238.091,-211.313 223.709,-201.382"/>
<polygon fill="midnightblue" stroke="midnightblue" points="225.51,-198.372 215.293,-195.571 221.533,-204.133 225.51,-198.372"/>
</g>
<!-- Node5 -->
<g id="node9" class="node"><title>Node5</title>
<polygon fill="white" stroke="#bfbfbf" points="350.984,-0.5 350.984,-21.5 418.984,-21.5 418.984,-0.5 350.984,-0.5"/>
<text text-anchor="middle" x="384.984" y="-8.5" font-family="Helvetica,sans-Serif" font-size="10.00">sys/types.h</text>
</g>
<!-- Node4&#45;&gt;Node5 -->
<g id="edge8" class="edge"><title>Node4&#45;&gt;Node5</title>
<path fill="none" stroke="midnightblue" d="M283.406,-232.29C282.596,-209.77 282.817,-156.273 299.984,-116 315.003,-80.763 345.454,-47.7507 365.534,-28.4662"/>
<polygon fill="midnightblue" stroke="midnightblue" points="368.021,-30.9323 372.922,-21.5391 363.233,-25.8259 368.021,-30.9323"/>
</g>
<!-- Node6 -->
<g id="node12" class="node"><title>Node6</title>
<a xlink:href="../../d0/db4/_region_8h.html" target="_top" xlink:title="gaia/graphics/Region.h">
<polygon fill="white" stroke="black" points="308.984,-116.5 308.984,-137.5 424.984,-137.5 424.984,-116.5 308.984,-116.5"/>
<text text-anchor="middle" x="366.984" y="-124.5" font-family="Helvetica,sans-Serif" font-size="10.00">gaia/graphics/Region.h</text>
</a>
</g>
<!-- Node4&#45;&gt;Node6 -->
<g id="edge12" class="edge"><title>Node4&#45;&gt;Node6</title>
<path fill="none" stroke="midnightblue" d="M291.643,-232.295C305.726,-212.613 335.894,-170.45 353.484,-145.867"/>
<polygon fill="midnightblue" stroke="midnightblue" points="356.37,-147.848 359.342,-137.679 350.677,-143.775 356.37,-147.848"/>
</g>
<!-- Node7 -->
<g id="node15" class="node"><title>Node7</title>
<a xlink:href="../../d1/df6/_porter_duff_8h.html" target="_top" xlink:title="gaia/graphics/PorterDuff.h">
<polygon fill="white" stroke="black" points="389.484,-174.5 389.484,-195.5 520.484,-195.5 520.484,-174.5 389.484,-174.5"/>
<text text-anchor="middle" x="454.984" y="-182.5" font-family="Helvetica,sans-Serif" font-size="10.00">gaia/graphics/PorterDuff.h</text>
</a>
</g>
<!-- Node4&#45;&gt;Node7 -->
<g id="edge16" class="edge"><title>Node4&#45;&gt;Node7</title>
<path fill="none" stroke="midnightblue" d="M314.95,-232.497C342.828,-223.041 383.981,-209.083 414.466,-198.743"/>
<polygon fill="midnightblue" stroke="midnightblue" points="415.613,-202.05 423.959,-195.523 413.364,-195.421 415.613,-202.05"/>
</g>
<!-- Node6&#45;&gt;Node5 -->
<g id="edge14" class="edge"><title>Node6&#45;&gt;Node5</title>
<path fill="none" stroke="midnightblue" d="M364.217,-116.089C361.182,-102.355 357.323,-78.1257 361.984,-58 364.193,-48.4584 368.621,-38.6176 373.007,-30.4219"/>
<polygon fill="midnightblue" stroke="midnightblue" points="376.083,-32.0929 378,-21.673 370.003,-28.6228 376.083,-32.0929"/>
</g>
<!-- Node8 -->
<g id="node17" class="node"><title>Node8</title>
<a xlink:href="../../dd/d0b/_hash_map_8h.html" target="_top" xlink:title="gaia/base/HashMap.h">
<polygon fill="white" stroke="black" points="442.984,-116.5 442.984,-137.5 554.984,-137.5 554.984,-116.5 442.984,-116.5"/>
<text text-anchor="middle" x="498.984" y="-124.5" font-family="Helvetica,sans-Serif" font-size="10.00">gaia/base/HashMap.h</text>
</a>
</g>
<!-- Node7&#45;&gt;Node8 -->
<g id="edge18" class="edge"><title>Node7&#45;&gt;Node8</title>
<path fill="none" stroke="midnightblue" d="M463.054,-174.362C469.132,-166.35 477.62,-155.161 484.82,-145.67"/>
<polygon fill="midnightblue" stroke="midnightblue" points="487.709,-147.653 490.964,-137.571 482.132,-143.422 487.709,-147.653"/>
</g>
<!-- Node9 -->
<g id="node19" class="node"><title>Node9</title>
<a xlink:href="../../d6/d83/_hash_func_8h.html" target="_top" xlink:title="gaia/base/HashFunc.h">
<polygon fill="white" stroke="black" points="370.484,-58.5 370.484,-79.5 485.484,-79.5 485.484,-58.5 370.484,-58.5"/>
<text text-anchor="middle" x="427.984" y="-66.5" font-family="Helvetica,sans-Serif" font-size="10.00">gaia/base/HashFunc.h</text>
</a>
</g>
<!-- Node8&#45;&gt;Node9 -->
<g id="edge20" class="edge"><title>Node8&#45;&gt;Node9</title>
<path fill="none" stroke="midnightblue" d="M485.961,-116.362C475.552,-107.859 460.764,-95.7785 448.728,-85.9466"/>
<polygon fill="midnightblue" stroke="midnightblue" points="450.882,-83.1866 440.924,-79.5707 446.454,-88.6077 450.882,-83.1866"/>
</g>
<!-- Node10 -->
<g id="node22" class="node"><title>Node10</title>
<a xlink:href="../../dc/d11/_hash_map_impl_8h.html" target="_top" xlink:title="gaia/base/HashMapImpl.h">
<polygon fill="white" stroke="black" points="502.484,-58.5 502.484,-79.5 633.484,-79.5 633.484,-58.5 502.484,-58.5"/>
<text text-anchor="middle" x="567.984" y="-66.5" font-family="Helvetica,sans-Serif" font-size="10.00">gaia/base/HashMapImpl.h</text>
</a>
</g>
<!-- Node8&#45;&gt;Node10 -->
<g id="edge24" class="edge"><title>Node8&#45;&gt;Node10</title>
<path fill="none" stroke="midnightblue" d="M511.639,-116.362C521.657,-107.941 535.85,-96.0105 547.485,-86.2308"/>
<polygon fill="midnightblue" stroke="midnightblue" points="550.005,-88.6844 555.408,-79.5707 545.501,-83.326 550.005,-88.6844"/>
</g>
<!-- Node9&#45;&gt;Node5 -->
<g id="edge22" class="edge"><title>Node9&#45;&gt;Node5</title>
<path fill="none" stroke="midnightblue" d="M420.097,-58.3619C414.157,-50.3496 405.861,-39.1605 398.825,-29.6696"/>
<polygon fill="midnightblue" stroke="midnightblue" points="401.588,-27.5193 392.82,-21.5707 395.964,-31.6883 401.588,-27.5193"/>
</g>
<!-- Node10&#45;&gt;Node5 -->
<g id="edge26" class="edge"><title>Node10&#45;&gt;Node5</title>
<path fill="none" stroke="midnightblue" d="M534.844,-58.4966C504.881,-49.0001 460.588,-34.9619 427.921,-24.6087"/>
<polygon fill="midnightblue" stroke="midnightblue" points="428.776,-21.208 418.186,-21.5231 426.661,-27.8809 428.776,-21.208"/>
</g>
<!-- Node11&#45;&gt;Node3 -->
<g id="edge36" class="edge"><title>Node11&#45;&gt;Node3</title>
<path fill="none" stroke="midnightblue" d="M131.39,-232.362C143.942,-223.696 161.876,-211.313 176.258,-201.382"/>
<polygon fill="midnightblue" stroke="midnightblue" points="178.434,-204.133 184.674,-195.571 174.457,-198.372 178.434,-204.133"/>
</g>
<!-- Node12 -->
<g id="node27" class="node"><title>Node12</title>
<a xlink:href="../../db/d7d/_paint_8h.html" target="_top" xlink:title="gaia/graphics/Paint.h">
<polygon fill="white" stroke="black" points="20.9836,-174.5 20.9836,-195.5 128.984,-195.5 128.984,-174.5 20.9836,-174.5"/>
<text text-anchor="middle" x="74.9836" y="-182.5" font-family="Helvetica,sans-Serif" font-size="10.00">gaia/graphics/Paint.h</text>
</a>
</g>
<!-- Node11&#45;&gt;Node12 -->
<g id="edge30" class="edge"><title>Node11&#45;&gt;Node12</title>
<path fill="none" stroke="midnightblue" d="M108.464,-232.362C102.857,-224.431 95.0513,-213.389 88.3868,-203.961"/>
<polygon fill="midnightblue" stroke="midnightblue" points="91.0864,-201.716 82.4559,-195.571 85.3703,-205.757 91.0864,-201.716"/>
</g>
<!-- Node13 -->
<g id="node29" class="node"><title>Node13</title>
<a xlink:href="../../d7/d97/_char_sequence_8h.html" target="_top" xlink:title="gaia/base/CharSequence.h">
<polygon fill="white" stroke="black" points="14.9836,-116.5 14.9836,-137.5 148.984,-137.5 148.984,-116.5 14.9836,-116.5"/>
<text text-anchor="middle" x="81.9836" y="-124.5" font-family="Helvetica,sans-Serif" font-size="10.00">gaia/base/CharSequence.h</text>
</a>
</g>
<!-- Node12&#45;&gt;Node13 -->
<g id="edge32" class="edge"><title>Node12&#45;&gt;Node13</title>
<path fill="none" stroke="midnightblue" d="M76.2675,-174.362C77.1654,-166.922 78.3939,-156.743 79.482,-147.728"/>
<polygon fill="midnightblue" stroke="midnightblue" points="82.9843,-147.918 80.7078,-137.571 76.0347,-147.079 82.9843,-147.918"/>
</g>
<!-- Node13&#45;&gt;Node2 -->
<g id="edge34" class="edge"><title>Node13&#45;&gt;Node2</title>
<path fill="none" stroke="midnightblue" d="M73.3631,-116.362C66.8041,-108.268 57.618,-96.9318 49.8774,-87.3796"/>
<polygon fill="midnightblue" stroke="midnightblue" points="52.5646,-85.1364 43.5495,-79.5707 47.1261,-89.5436 52.5646,-85.1364"/>
</g>
</g>
</svg>
