<?xml version="1.0" encoding="UTF-8" standalone="no"?>
<!DOCTYPE svg PUBLIC "-//W3C//DTD SVG 1.1//EN"
 "http://www.w3.org/Graphics/SVG/1.1/DTD/svg11.dtd">
<!-- Generated by graphviz version 2.26.3 (20100126.1600)
 -->
<!-- Title: G Pages: 1 -->
<svg width="652pt" height="146pt"
 viewBox="0.00 0.00 652.00 146.00" xmlns="http://www.w3.org/2000/svg" xmlns:xlink="http://www.w3.org/1999/xlink">
<g id="graph1" class="graph" transform="scale(1 1) rotate(0) translate(4 142)">
<title>G</title>
<polygon fill="white" stroke="white" points="-4,5 -4,-142 649,-142 649,5 -4,5"/>
<!-- Node1 -->
<g id="node1" class="node"><title>Node1</title>
<polygon fill="#bfbfbf" stroke="black" points="172.5,-116.5 172.5,-137.5 465.5,-137.5 465.5,-116.5 172.5,-116.5"/>
<text text-anchor="middle" x="319" y="-124.5" font-family="Helvetica,sans-Serif" font-size="10.00">/home/vilon_tao/gaia/sdk/include/gaia/core/animator/Animator.h</text>
</g>
<!-- Node2 -->
<g id="node3" class="node"><title>Node2</title>
<a xlink:href="../../d2/d71/_animator_set_8h.html" target="_top" xlink:title="/home/vilon_tao/gaia/sdk/include/gaia/core/animator/AnimatorSet.h">
<polygon fill="white" stroke="black" points="0,-58.5 0,-79.5 308,-79.5 308,-58.5 0,-58.5"/>
<text text-anchor="middle" x="154" y="-66.5" font-family="Helvetica,sans-Serif" font-size="10.00">/home/vilon_tao/gaia/sdk/include/gaia/core/animator/AnimatorSet.h</text>
</a>
</g>
<!-- Node1&#45;&gt;Node2 -->
<g id="edge2" class="edge"><title>Node1&#45;&gt;Node2</title>
<path fill="none" stroke="midnightblue" d="M279.583,-113.144C250.22,-102.823 210.737,-88.9439 183.936,-79.5231"/>
<polygon fill="midnightblue" stroke="midnightblue" points="278.525,-116.482 289.12,-116.497 280.846,-109.878 278.525,-116.482"/>
</g>
<!-- Node3 -->
<g id="node5" class="node"><title>Node3</title>
<a xlink:href="../../d0/d75/_value_animator_8h.html" target="_top" xlink:title="/home/vilon_tao/gaia/sdk/include/gaia/core/animator/ValueAnimator.h">
<polygon fill="white" stroke="black" points="325.5,-58.5 325.5,-79.5 642.5,-79.5 642.5,-58.5 325.5,-58.5"/>
<text text-anchor="middle" x="484" y="-66.5" font-family="Helvetica,sans-Serif" font-size="10.00">/home/vilon_tao/gaia/sdk/include/gaia/core/animator/ValueAnimator.h</text>
</a>
</g>
<!-- Node1&#45;&gt;Node3 -->
<g id="edge4" class="edge"><title>Node1&#45;&gt;Node3</title>
<path fill="none" stroke="midnightblue" d="M358.417,-113.144C387.78,-102.823 427.263,-88.9439 454.064,-79.5231"/>
<polygon fill="midnightblue" stroke="midnightblue" points="357.154,-109.878 348.88,-116.497 359.475,-116.482 357.154,-109.878"/>
</g>
<!-- Node4 -->
<g id="node7" class="node"><title>Node4</title>
<a xlink:href="../../d5/d07/_object_animator_8h.html" target="_top" xlink:title="/home/vilon_tao/gaia/sdk/include/gaia/core/animator/ObjectAnimator.h">
<polygon fill="white" stroke="black" points="323.5,-0.5 323.5,-21.5 644.5,-21.5 644.5,-0.5 323.5,-0.5"/>
<text text-anchor="middle" x="484" y="-8.5" font-family="Helvetica,sans-Serif" font-size="10.00">/home/vilon_tao/gaia/sdk/include/gaia/core/animator/ObjectAnimator.h</text>
</a>
</g>
<!-- Node3&#45;&gt;Node4 -->
<g id="edge6" class="edge"><title>Node3&#45;&gt;Node4</title>
<path fill="none" stroke="midnightblue" d="M484,-48.1906C484,-39.1684 484,-28.9941 484,-21.5707"/>
<polygon fill="midnightblue" stroke="midnightblue" points="480.5,-48.3619 484,-58.3619 487.5,-48.3619 480.5,-48.3619"/>
</g>
</g>
</svg>
