<?xml version="1.0" encoding="UTF-8" standalone="no"?>
<!DOCTYPE svg PUBLIC "-//W3C//DTD SVG 1.1//EN"
 "http://www.w3.org/Graphics/SVG/1.1/DTD/svg11.dtd">
<!-- Generated by graphviz version 2.26.3 (20100126.1600)
 -->
<!-- Title: G Pages: 1 -->
<svg width="646pt" height="262pt"
 viewBox="0.00 0.00 646.00 262.00" xmlns="http://www.w3.org/2000/svg" xmlns:xlink="http://www.w3.org/1999/xlink">
<g id="graph1" class="graph" transform="scale(1 1) rotate(0) translate(4 258)">
<title>G</title>
<polygon fill="white" stroke="white" points="-4,5 -4,-258 643,-258 643,5 -4,5"/>
<!-- Node1 -->
<g id="node1" class="node"><title>Node1</title>
<polygon fill="#bfbfbf" stroke="black" points="227,-232.5 227,-253.5 577,-253.5 577,-232.5 227,-232.5"/>
<text text-anchor="middle" x="402" y="-240.5" font-family="Helvetica,sans-Serif" font-size="10.00">/home/vilon_tao/gaia/sdk/include/gaia/accounts/AccountAuthenticatorPage.h</text>
</g>
<!-- Node2 -->
<g id="node3" class="node"><title>Node2</title>
<a xlink:href="../../db/ded/_page_8h.html" target="_top" xlink:title="gaia/core/Page.h">
<polygon fill="white" stroke="black" points="357,-174.5 357,-195.5 447,-195.5 447,-174.5 357,-174.5"/>
<text text-anchor="middle" x="402" y="-182.5" font-family="Helvetica,sans-Serif" font-size="10.00">gaia/core/Page.h</text>
</a>
</g>
<!-- Node1&#45;&gt;Node2 -->
<g id="edge2" class="edge"><title>Node1&#45;&gt;Node2</title>
<path fill="none" stroke="midnightblue" d="M402,-232.362C402,-224.922 402,-214.743 402,-205.728"/>
<polygon fill="midnightblue" stroke="midnightblue" points="405.5,-205.571 402,-195.571 398.5,-205.571 405.5,-205.571"/>
</g>
<!-- Node3 -->
<g id="node5" class="node"><title>Node3</title>
<a xlink:href="../../d4/d7f/_vector_8h.html" target="_top" xlink:title="gaia/base/Vector.h">
<polygon fill="white" stroke="black" points="174,-116.5 174,-137.5 272,-137.5 272,-116.5 174,-116.5"/>
<text text-anchor="middle" x="223" y="-124.5" font-family="Helvetica,sans-Serif" font-size="10.00">gaia/base/Vector.h</text>
</a>
</g>
<!-- Node2&#45;&gt;Node3 -->
<g id="edge4" class="edge"><title>Node2&#45;&gt;Node3</title>
<path fill="none" stroke="midnightblue" d="M369.584,-174.497C340.276,-165 296.952,-150.962 264.999,-140.609"/>
<polygon fill="midnightblue" stroke="midnightblue" points="266.068,-137.276 255.476,-137.523 263.911,-143.935 266.068,-137.276"/>
</g>
<!-- Node7 -->
<g id="node13" class="node"><title>Node7</title>
<polygon fill="white" stroke="#bfbfbf" points="232,-0.5 232,-21.5 300,-21.5 300,-0.5 232,-0.5"/>
<text text-anchor="middle" x="266" y="-8.5" font-family="Helvetica,sans-Serif" font-size="10.00">sys/types.h</text>
</g>
<!-- Node2&#45;&gt;Node7 -->
<g id="edge32" class="edge"><title>Node2&#45;&gt;Node7</title>
<path fill="none" stroke="midnightblue" d="M394.42,-174.44C387.856,-165.086 378.295,-150.943 371,-138 351.672,-103.709 358.396,-88.0744 333,-58 322.599,-45.6829 308.257,-35.0516 295.51,-27.0311"/>
<polygon fill="midnightblue" stroke="midnightblue" points="296.962,-23.8206 286.589,-21.6657 293.354,-29.8192 296.962,-23.8206"/>
</g>
<!-- Node10 -->
<g id="node21" class="node"><title>Node10</title>
<a xlink:href="../../d7/def/_component_name_8h.html" target="_top" xlink:title="gaia/core/ComponentName.h">
<polygon fill="white" stroke="black" points="380,-116.5 380,-137.5 524,-137.5 524,-116.5 380,-116.5"/>
<text text-anchor="middle" x="452" y="-124.5" font-family="Helvetica,sans-Serif" font-size="10.00">gaia/core/ComponentName.h</text>
</a>
</g>
<!-- Node2&#45;&gt;Node10 -->
<g id="edge22" class="edge"><title>Node2&#45;&gt;Node10</title>
<path fill="none" stroke="midnightblue" d="M411.171,-174.362C418.148,-166.268 427.921,-154.932 436.156,-145.38"/>
<polygon fill="midnightblue" stroke="midnightblue" points="439.009,-147.43 442.887,-137.571 433.707,-142.859 439.009,-147.43"/>
</g>
<!-- Node11 -->
<g id="node23" class="node"><title>Node11</title>
<a xlink:href="../../db/dbd/_export_8h.html" target="_top" xlink:title="gaia/core/Export.h">
<polygon fill="white" stroke="black" points="542,-116.5 542,-137.5 638,-137.5 638,-116.5 542,-116.5"/>
<text text-anchor="middle" x="590" y="-124.5" font-family="Helvetica,sans-Serif" font-size="10.00">gaia/core/Export.h</text>
</a>
</g>
<!-- Node2&#45;&gt;Node11 -->
<g id="edge24" class="edge"><title>Node2&#45;&gt;Node11</title>
<path fill="none" stroke="midnightblue" d="M436.045,-174.497C466.96,-164.959 512.723,-150.841 546.322,-140.475"/>
<polygon fill="midnightblue" stroke="midnightblue" points="547.367,-143.816 555.891,-137.523 545.303,-137.127 547.367,-143.816"/>
</g>
<!-- Node4 -->
<g id="node7" class="node"><title>Node4</title>
<a xlink:href="../../d1/d86/_type_helpers_8h.html" target="_top" xlink:title="gaia/base/TypeHelpers.h">
<polygon fill="white" stroke="black" points="27.5,-58.5 27.5,-79.5 152.5,-79.5 152.5,-58.5 27.5,-58.5"/>
<text text-anchor="middle" x="90" y="-66.5" font-family="Helvetica,sans-Serif" font-size="10.00">gaia/base/TypeHelpers.h</text>
</a>
</g>
<!-- Node3&#45;&gt;Node4 -->
<g id="edge6" class="edge"><title>Node3&#45;&gt;Node4</title>
<path fill="none" stroke="midnightblue" d="M198.915,-116.497C177.861,-107.315 147.073,-93.8889 123.598,-83.6516"/>
<polygon fill="midnightblue" stroke="midnightblue" points="124.921,-80.4104 114.356,-79.6212 122.123,-86.8268 124.921,-80.4104"/>
</g>
<!-- Node3&#45;&gt;Node7 -->
<g id="edge20" class="edge"><title>Node3&#45;&gt;Node7</title>
<path fill="none" stroke="midnightblue" d="M214.056,-116.324C203.565,-102.419 188.818,-77.5795 199,-58 206.016,-44.5087 218.875,-34.0833 231.467,-26.5183"/>
<polygon fill="midnightblue" stroke="midnightblue" points="233.45,-29.4209 240.5,-21.5125 230.057,-23.2982 233.45,-29.4209"/>
</g>
<!-- Node9 -->
<g id="node17" class="node"><title>Node9</title>
<a xlink:href="../../dc/da9/_vector_impl_8h.html" target="_top" xlink:title="gaia/base/VectorImpl.h">
<polygon fill="white" stroke="black" points="207.5,-58.5 207.5,-79.5 324.5,-79.5 324.5,-58.5 207.5,-58.5"/>
<text text-anchor="middle" x="266" y="-66.5" font-family="Helvetica,sans-Serif" font-size="10.00">gaia/base/VectorImpl.h</text>
</a>
</g>
<!-- Node3&#45;&gt;Node9 -->
<g id="edge16" class="edge"><title>Node3&#45;&gt;Node9</title>
<path fill="none" stroke="midnightblue" d="M230.887,-116.362C236.827,-108.35 245.122,-97.1605 252.159,-87.6696"/>
<polygon fill="midnightblue" stroke="midnightblue" points="255.019,-89.6883 258.163,-79.5707 249.396,-85.5193 255.019,-89.6883"/>
</g>
<!-- Node5 -->
<g id="node9" class="node"><title>Node5</title>
<polygon fill="white" stroke="#bfbfbf" points="-0.5,-0.5 -0.5,-21.5 48.5,-21.5 48.5,-0.5 -0.5,-0.5"/>
<text text-anchor="middle" x="24" y="-8.5" font-family="Helvetica,sans-Serif" font-size="10.00">stdint.h</text>
</g>
<!-- Node4&#45;&gt;Node5 -->
<g id="edge8" class="edge"><title>Node4&#45;&gt;Node5</title>
<path fill="none" stroke="midnightblue" d="M77.8946,-58.3619C68.3119,-49.9408 54.7361,-38.0105 43.6074,-28.2308"/>
<polygon fill="midnightblue" stroke="midnightblue" points="45.8508,-25.5427 36.0287,-21.5707 41.2299,-30.8009 45.8508,-25.5427"/>
</g>
<!-- Node6 -->
<g id="node11" class="node"><title>Node6</title>
<polygon fill="white" stroke="#bfbfbf" points="65.5,-0.5 65.5,-21.5 114.5,-21.5 114.5,-0.5 65.5,-0.5"/>
<text text-anchor="middle" x="90" y="-8.5" font-family="Helvetica,sans-Serif" font-size="10.00">string.h</text>
</g>
<!-- Node4&#45;&gt;Node6 -->
<g id="edge10" class="edge"><title>Node4&#45;&gt;Node6</title>
<path fill="none" stroke="midnightblue" d="M90,-58.3619C90,-50.9219 90,-40.7427 90,-31.7276"/>
<polygon fill="midnightblue" stroke="midnightblue" points="93.5001,-31.5706 90,-21.5707 86.5001,-31.5707 93.5001,-31.5706"/>
</g>
<!-- Node4&#45;&gt;Node7 -->
<g id="edge12" class="edge"><title>Node4&#45;&gt;Node7</title>
<path fill="none" stroke="midnightblue" d="M121.872,-58.4966C150.565,-49.0411 192.921,-35.0829 224.298,-24.7428"/>
<polygon fill="midnightblue" stroke="midnightblue" points="225.666,-27.9772 234.068,-21.5231 223.475,-21.3289 225.666,-27.9772"/>
</g>
<!-- Node8 -->
<g id="node15" class="node"><title>Node8</title>
<polygon fill="white" stroke="#bfbfbf" points="131.5,-0.5 131.5,-21.5 166.5,-21.5 166.5,-0.5 131.5,-0.5"/>
<text text-anchor="middle" x="149" y="-8.5" font-family="Helvetica,sans-Serif" font-size="10.00">new</text>
</g>
<!-- Node4&#45;&gt;Node8 -->
<g id="edge14" class="edge"><title>Node4&#45;&gt;Node8</title>
<path fill="none" stroke="midnightblue" d="M100.822,-58.3619C109.221,-50.1043 121.054,-38.4725 130.89,-28.8029"/>
<polygon fill="midnightblue" stroke="midnightblue" points="133.569,-31.077 138.247,-21.5707 128.662,-26.0851 133.569,-31.077"/>
</g>
<!-- Node9&#45;&gt;Node7 -->
<g id="edge18" class="edge"><title>Node9&#45;&gt;Node7</title>
<path fill="none" stroke="midnightblue" d="M266,-58.3619C266,-50.9219 266,-40.7427 266,-31.7276"/>
<polygon fill="midnightblue" stroke="midnightblue" points="269.5,-31.5706 266,-21.5707 262.5,-31.5707 269.5,-31.5706"/>
</g>
<!-- Node12 -->
<g id="node25" class="node"><title>Node12</title>
<a xlink:href="../../de/d8c/_component_loader_8h.html" target="_top" xlink:title="gaia/core/ComponentLoader.h">
<polygon fill="white" stroke="black" points="390.5,-58.5 390.5,-79.5 537.5,-79.5 537.5,-58.5 390.5,-58.5"/>
<text text-anchor="middle" x="464" y="-66.5" font-family="Helvetica,sans-Serif" font-size="10.00">gaia/core/ComponentLoader.h</text>
</a>
</g>
<!-- Node11&#45;&gt;Node12 -->
<g id="edge26" class="edge"><title>Node11&#45;&gt;Node12</title>
<path fill="none" stroke="midnightblue" d="M567.182,-116.497C547.414,-107.397 518.587,-94.1273 496.424,-83.9253"/>
<polygon fill="midnightblue" stroke="midnightblue" points="497.621,-80.6234 487.074,-79.6212 494.694,-86.982 497.621,-80.6234"/>
</g>
<!-- Node13 -->
<g id="node28" class="node"><title>Node13</title>
<polygon fill="white" stroke="#bfbfbf" points="564.5,-58.5 564.5,-79.5 615.5,-79.5 615.5,-58.5 564.5,-58.5"/>
<text text-anchor="middle" x="590" y="-66.5" font-family="Helvetica,sans-Serif" font-size="10.00">typeinfo</text>
</g>
<!-- Node11&#45;&gt;Node13 -->
<g id="edge30" class="edge"><title>Node11&#45;&gt;Node13</title>
<path fill="none" stroke="midnightblue" d="M590,-116.362C590,-108.922 590,-98.7427 590,-89.7276"/>
<polygon fill="midnightblue" stroke="midnightblue" points="593.5,-89.5706 590,-79.5707 586.5,-89.5707 593.5,-89.5706"/>
</g>
<!-- Node12&#45;&gt;Node7 -->
<g id="edge28" class="edge"><title>Node12&#45;&gt;Node7</title>
<path fill="none" stroke="midnightblue" d="M428.144,-58.4966C394.936,-48.7691 345.46,-34.2761 309.9,-23.8597"/>
<polygon fill="midnightblue" stroke="midnightblue" points="310.845,-20.4895 300.265,-21.0371 308.877,-27.2072 310.845,-20.4895"/>
</g>
</g>
</svg>
