<?xml version="1.0" encoding="UTF-8" standalone="no"?>
<!DOCTYPE svg PUBLIC "-//W3C//DTD SVG 1.1//EN"
 "http://www.w3.org/Graphics/SVG/1.1/DTD/svg11.dtd">
<!-- Generated by graphviz version 2.26.3 (20100126.1600)
 -->
<!-- Title: G Pages: 1 -->
<svg width="596pt" height="204pt"
 viewBox="0.00 0.00 596.00 204.00" xmlns="http://www.w3.org/2000/svg" xmlns:xlink="http://www.w3.org/1999/xlink">
<g id="graph1" class="graph" transform="scale(1 1) rotate(0) translate(4 200)">
<title>G</title>
<polygon fill="white" stroke="white" points="-4,5 -4,-200 593,-200 593,5 -4,5"/>
<!-- Node1 -->
<g id="node1" class="node"><title>Node1</title>
<polygon fill="#bfbfbf" stroke="black" points="-0.5,-174.5 -0.5,-195.5 310.5,-195.5 310.5,-174.5 -0.5,-174.5"/>
<text text-anchor="middle" x="155" y="-182.5" font-family="Helvetica,sans-Serif" font-size="10.00">/home/vilon_tao/gaia/sdk/include/gaia/core/vision/WidgetReplacer.h</text>
</g>
<!-- Node2 -->
<g id="node3" class="node"><title>Node2</title>
<polygon fill="white" stroke="#bfbfbf" points="164.5,-0.5 164.5,-21.5 213.5,-21.5 213.5,-0.5 164.5,-0.5"/>
<text text-anchor="middle" x="189" y="-8.5" font-family="Helvetica,sans-Serif" font-size="10.00">stdint.h</text>
</g>
<!-- Node1&#45;&gt;Node2 -->
<g id="edge2" class="edge"><title>Node1&#45;&gt;Node2</title>
<path fill="none" stroke="midnightblue" d="M142.884,-174.384C118.889,-152.043 69.7443,-98.8646 95,-58 108.001,-36.964 133.584,-25.0282 154.782,-18.4531"/>
<polygon fill="midnightblue" stroke="midnightblue" points="155.786,-21.8066 164.456,-15.7177 153.881,-15.0707 155.786,-21.8066"/>
</g>
<!-- Node3 -->
<g id="node5" class="node"><title>Node3</title>
<a xlink:href="../../d4/d75/_widget_8h.html" target="_top" xlink:title="gaia/core/vision/Widget.h">
<polygon fill="white" stroke="black" points="170.5,-116.5 170.5,-137.5 297.5,-137.5 297.5,-116.5 170.5,-116.5"/>
<text text-anchor="middle" x="234" y="-124.5" font-family="Helvetica,sans-Serif" font-size="10.00">gaia/core/vision/Widget.h</text>
</a>
</g>
<!-- Node1&#45;&gt;Node3 -->
<g id="edge4" class="edge"><title>Node1&#45;&gt;Node3</title>
<path fill="none" stroke="midnightblue" d="M169.49,-174.362C181.183,-165.777 197.843,-153.546 211.303,-143.664"/>
<polygon fill="midnightblue" stroke="midnightblue" points="213.613,-146.31 219.602,-137.571 209.47,-140.667 213.613,-146.31"/>
</g>
<!-- Node4 -->
<g id="node7" class="node"><title>Node4</title>
<a xlink:href="../../d1/dd0/gmacros_8h.html" target="_top" xlink:title="gaia/base/gmacros.h">
<polygon fill="white" stroke="black" points="103.5,-58.5 103.5,-79.5 210.5,-79.5 210.5,-58.5 103.5,-58.5"/>
<text text-anchor="middle" x="157" y="-66.5" font-family="Helvetica,sans-Serif" font-size="10.00">gaia/base/gmacros.h</text>
</a>
</g>
<!-- Node3&#45;&gt;Node4 -->
<g id="edge6" class="edge"><title>Node3&#45;&gt;Node4</title>
<path fill="none" stroke="midnightblue" d="M219.877,-116.362C208.48,-107.777 192.242,-95.5459 179.122,-85.6636"/>
<polygon fill="midnightblue" stroke="midnightblue" points="181.127,-82.7916 171.033,-79.5707 176.915,-88.3829 181.127,-82.7916"/>
</g>
<!-- Node5 -->
<g id="node9" class="node"><title>Node5</title>
<a xlink:href="../../d0/d92/_property_animatable_8h.html" target="_top" xlink:title="gaia/core/animator/PropertyAnimatable.h">
<polygon fill="white" stroke="black" points="394,-58.5 394,-79.5 588,-79.5 588,-58.5 394,-58.5"/>
<text text-anchor="middle" x="491" y="-66.5" font-family="Helvetica,sans-Serif" font-size="10.00">gaia/core/animator/PropertyAnimatable.h</text>
</a>
</g>
<!-- Node3&#45;&gt;Node5 -->
<g id="edge8" class="edge"><title>Node3&#45;&gt;Node5</title>
<path fill="none" stroke="midnightblue" d="M280.541,-116.497C323.799,-106.734 388.325,-92.1718 434.516,-81.7474"/>
<polygon fill="midnightblue" stroke="midnightblue" points="435.388,-85.1387 444.372,-79.5231 433.847,-78.3104 435.388,-85.1387"/>
</g>
<!-- Node7 -->
<g id="node13" class="node"><title>Node7</title>
<a xlink:href="../../d8/d50/_widget_core_8h.html" target="_top" xlink:title="gaia/core/vision/WidgetCore.h">
<polygon fill="white" stroke="black" points="228,-58.5 228,-79.5 376,-79.5 376,-58.5 228,-58.5"/>
<text text-anchor="middle" x="302" y="-66.5" font-family="Helvetica,sans-Serif" font-size="10.00">gaia/core/vision/WidgetCore.h</text>
</a>
</g>
<!-- Node3&#45;&gt;Node7 -->
<g id="edge12" class="edge"><title>Node3&#45;&gt;Node7</title>
<path fill="none" stroke="midnightblue" d="M246.472,-116.362C256.345,-107.941 270.333,-96.0105 281.798,-86.2308"/>
<polygon fill="midnightblue" stroke="midnightblue" points="284.27,-88.7231 289.607,-79.5707 279.727,-83.3972 284.27,-88.7231"/>
</g>
<!-- Node6 -->
<g id="node11" class="node"><title>Node6</title>
<polygon fill="white" stroke="#bfbfbf" points="457,-0.5 457,-21.5 525,-21.5 525,-0.5 457,-0.5"/>
<text text-anchor="middle" x="491" y="-8.5" font-family="Helvetica,sans-Serif" font-size="10.00">sys/types.h</text>
</g>
<!-- Node5&#45;&gt;Node6 -->
<g id="edge10" class="edge"><title>Node5&#45;&gt;Node6</title>
<path fill="none" stroke="midnightblue" d="M491,-58.3619C491,-50.9219 491,-40.7427 491,-31.7276"/>
<polygon fill="midnightblue" stroke="midnightblue" points="494.5,-31.5706 491,-21.5707 487.5,-31.5707 494.5,-31.5706"/>
</g>
<!-- Node7&#45;&gt;Node2 -->
<g id="edge14" class="edge"><title>Node7&#45;&gt;Node2</title>
<path fill="none" stroke="midnightblue" d="M281.537,-58.4966C263.967,-49.4786 238.418,-36.3649 218.615,-26.2006"/>
<polygon fill="midnightblue" stroke="midnightblue" points="220.188,-23.0738 209.693,-21.6212 216.991,-29.3014 220.188,-23.0738"/>
</g>
</g>
</svg>
