<?xml version="1.0" encoding="UTF-8" standalone="no"?>
<!DOCTYPE svg PUBLIC "-//W3C//DTD SVG 1.1//EN"
 "http://www.w3.org/Graphics/SVG/1.1/DTD/svg11.dtd">
<!-- Generated by graphviz version 2.26.3 (20100126.1600)
 -->
<!-- Title: G Pages: 1 -->
<svg width="4141pt" height="262pt"
 viewBox="0.00 0.00 4141.00 262.00" xmlns="http://www.w3.org/2000/svg" xmlns:xlink="http://www.w3.org/1999/xlink">
<g id="graph1" class="graph" transform="scale(1 1) rotate(0) translate(4 258)">
<title>G</title>
<polygon fill="white" stroke="white" points="-4,5 -4,-258 4138,-258 4138,5 -4,5"/>
<!-- Node1 -->
<g id="node1" class="node"><title>Node1</title>
<polygon fill="#bfbfbf" stroke="black" points="2356,-232.5 2356,-253.5 2632,-253.5 2632,-232.5 2356,-232.5"/>
<text text-anchor="middle" x="2494" y="-240.5" font-family="Helvetica,sans-Serif" font-size="10.00">/home/vilon_tao/gaia/sdk/include/gaia/graphics/PorterDuff.h</text>
</g>
<!-- Node2 -->
<g id="node3" class="node"><title>Node2</title>
<a xlink:href="../../d5/d17/_canvas_8h.html" target="_top" xlink:title="/home/vilon_tao/gaia/sdk/include/gaia/graphics/Canvas.h">
<polygon fill="white" stroke="black" points="528.5,-174.5 528.5,-195.5 793.5,-195.5 793.5,-174.5 528.5,-174.5"/>
<text text-anchor="middle" x="661" y="-182.5" font-family="Helvetica,sans-Serif" font-size="10.00">/home/vilon_tao/gaia/sdk/include/gaia/graphics/Canvas.h</text>
</a>
</g>
<!-- Node1&#45;&gt;Node2 -->
<g id="edge2" class="edge"><title>Node1&#45;&gt;Node2</title>
<path fill="none" stroke="midnightblue" d="M2345.67,-238.307C1996.47,-227.257 1126.92,-199.743 793.776,-189.201"/>
<polygon fill="midnightblue" stroke="midnightblue" points="2345.75,-241.811 2355.85,-238.629 2345.97,-234.814 2345.75,-241.811"/>
</g>
<!-- Node9 -->
<g id="node18" class="node"><title>Node9</title>
<a xlink:href="../../d7/dc0/_drawer_8h.html" target="_top" xlink:title="/home/vilon_tao/gaia/sdk/include/gaia/graphics/Drawer.h">
<polygon fill="white" stroke="black" points="2109.5,-174.5 2109.5,-195.5 2372.5,-195.5 2372.5,-174.5 2109.5,-174.5"/>
<text text-anchor="middle" x="2241" y="-182.5" font-family="Helvetica,sans-Serif" font-size="10.00">/home/vilon_tao/gaia/sdk/include/gaia/graphics/Drawer.h</text>
</a>
</g>
<!-- Node1&#45;&gt;Node9 -->
<g id="edge18" class="edge"><title>Node1&#45;&gt;Node9</title>
<path fill="none" stroke="midnightblue" d="M2438.2,-230.208C2392.77,-219.794 2329.43,-205.272 2286.9,-195.523"/>
<polygon fill="midnightblue" stroke="midnightblue" points="2437.65,-233.674 2448.18,-232.497 2439.22,-226.851 2437.65,-233.674"/>
</g>
<!-- Node23 -->
<g id="node47" class="node"><title>Node23</title>
<a xlink:href="../../d8/d37/_image_widget_8h.html" target="_top" xlink:title="/home/vilon_tao/gaia/sdk/include/gaia/ui/ImageWidget.h">
<polygon fill="white" stroke="black" points="3508,-116.5 3508,-137.5 3768,-137.5 3768,-116.5 3508,-116.5"/>
<text text-anchor="middle" x="3638" y="-124.5" font-family="Helvetica,sans-Serif" font-size="10.00">/home/vilon_tao/gaia/sdk/include/gaia/ui/ImageWidget.h</text>
</a>
</g>
<!-- Node1&#45;&gt;Node23 -->
<g id="edge60" class="edge"><title>Node1&#45;&gt;Node23</title>
<path fill="none" stroke="midnightblue" d="M2458.55,-228.097C2430.9,-214.476 2400.1,-193.538 2419,-174 2460.74,-130.849 3439.06,-141.369 3499,-138 3501.9,-137.837 3504.83,-137.665 3507.79,-137.485"/>
<polygon fill="midnightblue" stroke="midnightblue" points="2457.19,-231.326 2467.73,-232.423 2460.18,-224.994 2457.19,-231.326"/>
</g>
<!-- Node27 -->
<g id="node55" class="node"><title>Node27</title>
<a xlink:href="../../db/d14/_porter_duff_color_filter_8h.html" target="_top" xlink:title="/home/vilon_tao/gaia/sdk/include/gaia/graphics/PorterDuffColorFilter.h">
<polygon fill="white" stroke="black" points="2427.5,-174.5 2427.5,-195.5 2748.5,-195.5 2748.5,-174.5 2427.5,-174.5"/>
<text text-anchor="middle" x="2588" y="-182.5" font-family="Helvetica,sans-Serif" font-size="10.00">/home/vilon_tao/gaia/sdk/include/gaia/graphics/PorterDuffColorFilter.h</text>
</a>
</g>
<!-- Node1&#45;&gt;Node27 -->
<g id="edge56" class="edge"><title>Node1&#45;&gt;Node27</title>
<path fill="none" stroke="midnightblue" d="M2519.77,-227.101C2536.03,-217.066 2556.59,-204.381 2570.87,-195.571"/>
<polygon fill="midnightblue" stroke="midnightblue" points="2517.91,-224.132 2511.24,-232.362 2521.59,-230.089 2517.91,-224.132"/>
</g>
<!-- Node28 -->
<g id="node57" class="node"><title>Node28</title>
<a xlink:href="../../db/d9f/_porter_duff_xfermode_8h.html" target="_top" xlink:title="/home/vilon_tao/gaia/sdk/include/gaia/graphics/PorterDuffXfermode.h">
<polygon fill="white" stroke="black" points="2766,-174.5 2766,-195.5 3084,-195.5 3084,-174.5 2766,-174.5"/>
<text text-anchor="middle" x="2925" y="-182.5" font-family="Helvetica,sans-Serif" font-size="10.00">/home/vilon_tao/gaia/sdk/include/gaia/graphics/PorterDuffXfermode.h</text>
</a>
</g>
<!-- Node1&#45;&gt;Node28 -->
<g id="edge58" class="edge"><title>Node1&#45;&gt;Node28</title>
<path fill="none" stroke="midnightblue" d="M2582.31,-231.116C2660.07,-220.652 2772.23,-205.558 2846.8,-195.523"/>
<polygon fill="midnightblue" stroke="midnightblue" points="2581.49,-227.694 2572.05,-232.497 2582.43,-234.632 2581.49,-227.694"/>
</g>
<!-- Node29 -->
<g id="node60" class="node"><title>Node29</title>
<a xlink:href="../../d7/d9d/_remote_widget_8h.html" target="_top" xlink:title="/home/vilon_tao/gaia/sdk/include/gaia/ui/RemoteWidget.h">
<polygon fill="white" stroke="black" points="3101.5,-174.5 3101.5,-195.5 3368.5,-195.5 3368.5,-174.5 3101.5,-174.5"/>
<text text-anchor="middle" x="3235" y="-182.5" font-family="Helvetica,sans-Serif" font-size="10.00">/home/vilon_tao/gaia/sdk/include/gaia/ui/RemoteWidget.h</text>
</a>
</g>
<!-- Node1&#45;&gt;Node29 -->
<g id="edge62" class="edge"><title>Node1&#45;&gt;Node29</title>
<path fill="none" stroke="midnightblue" d="M2638.55,-231.686C2772.75,-221.181 2970.95,-205.668 3101.5,-195.45"/>
<polygon fill="midnightblue" stroke="midnightblue" points="2637.89,-228.227 2628.19,-232.497 2638.43,-235.206 2637.89,-228.227"/>
</g>
<!-- Node3 -->
<g id="node5" class="node"><title>Node3</title>
<a xlink:href="../../d6/d48/_layout_8h.html" target="_top" xlink:title="/home/vilon_tao/gaia/sdk/include/gaia/text/Layout.h">
<polygon fill="white" stroke="black" points="300,-116.5 300,-137.5 540,-137.5 540,-116.5 300,-116.5"/>
<text text-anchor="middle" x="420" y="-124.5" font-family="Helvetica,sans-Serif" font-size="10.00">/home/vilon_tao/gaia/sdk/include/gaia/text/Layout.h</text>
</a>
</g>
<!-- Node2&#45;&gt;Node3 -->
<g id="edge4" class="edge"><title>Node2&#45;&gt;Node3</title>
<path fill="none" stroke="midnightblue" d="M607.574,-172.142C564.321,-161.733 504.147,-147.251 463.725,-137.523"/>
<polygon fill="midnightblue" stroke="midnightblue" points="606.815,-175.56 617.357,-174.497 608.453,-168.754 606.815,-175.56"/>
</g>
<!-- Node6 -->
<g id="node11" class="node"><title>Node6</title>
<a xlink:href="../../dd/d32/_dynamic_drawer_span_8h.html" target="_top" xlink:title="/home/vilon_tao/gaia/sdk/include/gaia/text/style/DynamicDrawerSpan.h">
<polygon fill="white" stroke="black" points="589,-58.5 589,-79.5 917,-79.5 917,-58.5 589,-58.5"/>
<text text-anchor="middle" x="753" y="-66.5" font-family="Helvetica,sans-Serif" font-size="10.00">/home/vilon_tao/gaia/sdk/include/gaia/text/style/DynamicDrawerSpan.h</text>
</a>
</g>
<!-- Node2&#45;&gt;Node6 -->
<g id="edge10" class="edge"><title>Node2&#45;&gt;Node6</title>
<path fill="none" stroke="midnightblue" d="M625.418,-170.19C599.351,-157.169 571.078,-137.056 587,-116 599.33,-99.6945 645.706,-87.4149 686.315,-79.5038"/>
<polygon fill="midnightblue" stroke="midnightblue" points="623.935,-173.36 634.47,-174.49 626.939,-167.037 623.935,-173.36"/>
</g>
<!-- Node8 -->
<g id="node15" class="node"><title>Node8</title>
<a xlink:href="../../d7/d25/_replacement_span_8h.html" target="_top" xlink:title="/home/vilon_tao/gaia/sdk/include/gaia/text/style/ReplacementSpan.h">
<polygon fill="white" stroke="black" points="595.5,-116.5 595.5,-137.5 910.5,-137.5 910.5,-116.5 595.5,-116.5"/>
<text text-anchor="middle" x="753" y="-124.5" font-family="Helvetica,sans-Serif" font-size="10.00">/home/vilon_tao/gaia/sdk/include/gaia/text/style/ReplacementSpan.h</text>
</a>
</g>
<!-- Node2&#45;&gt;Node8 -->
<g id="edge14" class="edge"><title>Node2&#45;&gt;Node8</title>
<path fill="none" stroke="midnightblue" d="M686.662,-168.821C702.509,-158.831 722.387,-146.299 736.233,-137.571"/>
<polygon fill="midnightblue" stroke="midnightblue" points="684.467,-166.068 677.874,-174.362 688.2,-171.99 684.467,-166.068"/>
</g>
<!-- Node4 -->
<g id="node7" class="node"><title>Node4</title>
<a xlink:href="../../d1/dc1/_dynamic_layout_8h.html" target="_top" xlink:title="/home/vilon_tao/gaia/sdk/include/gaia/text/DynamicLayout.h">
<polygon fill="white" stroke="black" points="-0.5,-58.5 -0.5,-79.5 278.5,-79.5 278.5,-58.5 -0.5,-58.5"/>
<text text-anchor="middle" x="139" y="-66.5" font-family="Helvetica,sans-Serif" font-size="10.00">/home/vilon_tao/gaia/sdk/include/gaia/text/DynamicLayout.h</text>
</a>
</g>
<!-- Node3&#45;&gt;Node4 -->
<g id="edge6" class="edge"><title>Node3&#45;&gt;Node4</title>
<path fill="none" stroke="midnightblue" d="M359.293,-114.47C308.754,-104.038 237.609,-89.3535 189.982,-79.5231"/>
<polygon fill="midnightblue" stroke="midnightblue" points="358.612,-117.903 369.113,-116.497 360.027,-111.047 358.612,-117.903"/>
</g>
<!-- Node5 -->
<g id="node9" class="node"><title>Node5</title>
<a xlink:href="../../df/d0d/_static_layout_8h.html" target="_top" xlink:title="/home/vilon_tao/gaia/sdk/include/gaia/text/StaticLayout.h">
<polygon fill="white" stroke="black" points="296,-58.5 296,-79.5 562,-79.5 562,-58.5 296,-58.5"/>
<text text-anchor="middle" x="429" y="-66.5" font-family="Helvetica,sans-Serif" font-size="10.00">/home/vilon_tao/gaia/sdk/include/gaia/text/StaticLayout.h</text>
</a>
</g>
<!-- Node3&#45;&gt;Node5 -->
<g id="edge8" class="edge"><title>Node3&#45;&gt;Node5</title>
<path fill="none" stroke="midnightblue" d="M423.229,-106.191C424.629,-97.1684 426.208,-86.9941 427.36,-79.5707"/>
<polygon fill="midnightblue" stroke="midnightblue" points="419.726,-105.943 421.651,-116.362 426.643,-107.017 419.726,-105.943"/>
</g>
<!-- Node7 -->
<g id="node13" class="node"><title>Node7</title>
<a xlink:href="../../da/d07/_image_span_8h.html" target="_top" xlink:title="/home/vilon_tao/gaia/sdk/include/gaia/text/style/ImageSpan.h">
<polygon fill="white" stroke="black" points="611,-0.5 611,-21.5 895,-21.5 895,-0.5 611,-0.5"/>
<text text-anchor="middle" x="753" y="-8.5" font-family="Helvetica,sans-Serif" font-size="10.00">/home/vilon_tao/gaia/sdk/include/gaia/text/style/ImageSpan.h</text>
</a>
</g>
<!-- Node6&#45;&gt;Node7 -->
<g id="edge12" class="edge"><title>Node6&#45;&gt;Node7</title>
<path fill="none" stroke="midnightblue" d="M753,-48.1906C753,-39.1684 753,-28.9941 753,-21.5707"/>
<polygon fill="midnightblue" stroke="midnightblue" points="749.5,-48.3619 753,-58.3619 756.5,-48.3619 749.5,-48.3619"/>
</g>
<!-- Node8&#45;&gt;Node6 -->
<g id="edge16" class="edge"><title>Node8&#45;&gt;Node6</title>
<path fill="none" stroke="midnightblue" d="M753,-106.191C753,-97.1684 753,-86.9941 753,-79.5707"/>
<polygon fill="midnightblue" stroke="midnightblue" points="749.5,-106.362 753,-116.362 756.5,-106.362 749.5,-106.362"/>
</g>
<!-- Node9&#45;&gt;Node6 -->
<g id="edge46" class="edge"><title>Node9&#45;&gt;Node6</title>
<path fill="none" stroke="midnightblue" d="M2098.84,-183.671C1787.42,-180.202 1064.16,-168.894 957,-138 938.249,-132.594 936.972,-123.606 919,-116 881.072,-99.9486 835.998,-87.5811 802.397,-79.5707"/>
<polygon fill="midnightblue" stroke="midnightblue" points="2099.25,-187.176 2109.29,-183.786 2099.33,-180.176 2099.25,-187.176"/>
</g>
<!-- Node10 -->
<g id="node20" class="node"><title>Node10</title>
<a xlink:href="../../de/d5a/_animated_rotate_drawer_8h.html" target="_top" xlink:title="/home/vilon_tao/gaia/sdk/include/gaia/graphics/AnimatedRotateDrawer.h">
<polygon fill="white" stroke="black" points="965.5,-116.5 965.5,-137.5 1298.5,-137.5 1298.5,-116.5 965.5,-116.5"/>
<text text-anchor="middle" x="1132" y="-124.5" font-family="Helvetica,sans-Serif" font-size="10.00">/home/vilon_tao/gaia/sdk/include/gaia/graphics/AnimatedRotateDrawer.h</text>
</a>
</g>
<!-- Node9&#45;&gt;Node10 -->
<g id="edge20" class="edge"><title>Node9&#45;&gt;Node10</title>
<path fill="none" stroke="midnightblue" d="M2099.27,-178.42C1916.23,-169.795 1587.8,-153.889 1307,-138 1304.11,-137.837 1301.2,-137.67 1298.26,-137.501"/>
<polygon fill="midnightblue" stroke="midnightblue" points="2099.34,-181.927 2109.5,-178.901 2099.67,-174.935 2099.34,-181.927"/>
</g>
<!-- Node11 -->
<g id="node22" class="node"><title>Node11</title>
<a xlink:href="../../d1/d72/_bitmap_drawer_8h.html" target="_top" xlink:title="/home/vilon_tao/gaia/sdk/include/gaia/graphics/BitmapDrawer.h">
<polygon fill="white" stroke="black" points="1315.5,-116.5 1315.5,-137.5 1608.5,-137.5 1608.5,-116.5 1315.5,-116.5"/>
<text text-anchor="middle" x="1462" y="-124.5" font-family="Helvetica,sans-Serif" font-size="10.00">/home/vilon_tao/gaia/sdk/include/gaia/graphics/BitmapDrawer.h</text>
</a>
</g>
<!-- Node9&#45;&gt;Node11 -->
<g id="edge22" class="edge"><title>Node9&#45;&gt;Node11</title>
<path fill="none" stroke="midnightblue" d="M2099.29,-174.449C1958.49,-163.966 1743.82,-147.983 1603.2,-137.513"/>
<polygon fill="midnightblue" stroke="midnightblue" points="2099.06,-177.942 2109.29,-175.194 2099.58,-170.961 2099.06,-177.942"/>
</g>
<!-- Node13 -->
<g id="node26" class="node"><title>Node13</title>
<a xlink:href="../../d3/d10/_color_drawer_8h.html" target="_top" xlink:title="/home/vilon_tao/gaia/sdk/include/gaia/graphics/ColorDrawer.h">
<polygon fill="white" stroke="black" points="1626,-116.5 1626,-137.5 1912,-137.5 1912,-116.5 1626,-116.5"/>
<text text-anchor="middle" x="1769" y="-124.5" font-family="Helvetica,sans-Serif" font-size="10.00">/home/vilon_tao/gaia/sdk/include/gaia/graphics/ColorDrawer.h</text>
</a>
</g>
<!-- Node9&#45;&gt;Node13 -->
<g id="edge26" class="edge"><title>Node9&#45;&gt;Node13</title>
<path fill="none" stroke="midnightblue" d="M2145.59,-173.276C2060.39,-162.806 1936.72,-147.61 1854.64,-137.523"/>
<polygon fill="midnightblue" stroke="midnightblue" points="2145.17,-176.751 2155.52,-174.497 2146.03,-169.803 2145.17,-176.751"/>
</g>
<!-- Node14 -->
<g id="node28" class="node"><title>Node14</title>
<a xlink:href="../../d5/d17/_drawer_container_8h.html" target="_top" xlink:title="/home/vilon_tao/gaia/sdk/include/gaia/graphics/DrawerContainer.h">
<polygon fill="white" stroke="black" points="1929.5,-116.5 1929.5,-137.5 2234.5,-137.5 2234.5,-116.5 1929.5,-116.5"/>
<text text-anchor="middle" x="2082" y="-124.5" font-family="Helvetica,sans-Serif" font-size="10.00">/home/vilon_tao/gaia/sdk/include/gaia/graphics/DrawerContainer.h</text>
</a>
</g>
<!-- Node9&#45;&gt;Node14 -->
<g id="edge28" class="edge"><title>Node9&#45;&gt;Node14</title>
<path fill="none" stroke="midnightblue" d="M2202.65,-171.009C2174.39,-160.702 2136.56,-146.903 2110.85,-137.523"/>
<polygon fill="midnightblue" stroke="midnightblue" points="2201.61,-174.358 2212.21,-174.497 2204.01,-167.782 2201.61,-174.358"/>
</g>
<!-- Node18 -->
<g id="node36" class="node"><title>Node18</title>
<a xlink:href="../../d6/d34/_gradient_drawer_8h.html" target="_top" xlink:title="/home/vilon_tao/gaia/sdk/include/gaia/graphics/GradientDrawer.h">
<polygon fill="white" stroke="black" points="2251.5,-116.5 2251.5,-137.5 2550.5,-137.5 2550.5,-116.5 2251.5,-116.5"/>
<text text-anchor="middle" x="2401" y="-124.5" font-family="Helvetica,sans-Serif" font-size="10.00">/home/vilon_tao/gaia/sdk/include/gaia/graphics/GradientDrawer.h</text>
</a>
</g>
<!-- Node9&#45;&gt;Node18 -->
<g id="edge36" class="edge"><title>Node9&#45;&gt;Node18</title>
<path fill="none" stroke="midnightblue" d="M2279.59,-171.009C2308.03,-160.702 2346.1,-146.903 2371.97,-137.523"/>
<polygon fill="midnightblue" stroke="midnightblue" points="2278.18,-167.798 2269.97,-174.497 2280.57,-174.379 2278.18,-167.798"/>
</g>
<!-- Node19 -->
<g id="node38" class="node"><title>Node19</title>
<a xlink:href="../../d7/d00/_layer_drawer_8h.html" target="_top" xlink:title="/home/vilon_tao/gaia/sdk/include/gaia/graphics/LayerDrawer.h">
<polygon fill="white" stroke="black" points="2567.5,-116.5 2567.5,-137.5 2854.5,-137.5 2854.5,-116.5 2567.5,-116.5"/>
<text text-anchor="middle" x="2711" y="-124.5" font-family="Helvetica,sans-Serif" font-size="10.00">/home/vilon_tao/gaia/sdk/include/gaia/graphics/LayerDrawer.h</text>
</a>
</g>
<!-- Node9&#45;&gt;Node19 -->
<g id="edge38" class="edge"><title>Node9&#45;&gt;Node19</title>
<path fill="none" stroke="midnightblue" d="M2336.26,-173.244C2421.1,-162.775 2544.07,-147.599 2625.73,-137.523"/>
<polygon fill="midnightblue" stroke="midnightblue" points="2335.61,-169.798 2326.11,-174.497 2336.47,-176.745 2335.61,-169.798"/>
</g>
<!-- Node20 -->
<g id="node40" class="node"><title>Node20</title>
<a xlink:href="../../d7/d6a/_nine_patch_drawer_8h.html" target="_top" xlink:title="/home/vilon_tao/gaia/sdk/include/gaia/graphics/NinePatchDrawer.h">
<polygon fill="white" stroke="black" points="2872,-116.5 2872,-137.5 3180,-137.5 3180,-116.5 2872,-116.5"/>
<text text-anchor="middle" x="3026" y="-124.5" font-family="Helvetica,sans-Serif" font-size="10.00">/home/vilon_tao/gaia/sdk/include/gaia/graphics/NinePatchDrawer.h</text>
</a>
</g>
<!-- Node9&#45;&gt;Node20 -->
<g id="edge40" class="edge"><title>Node9&#45;&gt;Node20</title>
<path fill="none" stroke="midnightblue" d="M2382.68,-174.248C2383.79,-174.165 2384.9,-174.082 2386,-174 2556.12,-161.3 2751.71,-146.978 2881.43,-137.517"/>
<polygon fill="midnightblue" stroke="midnightblue" points="2382.3,-170.767 2372.59,-175.004 2382.82,-177.747 2382.3,-170.767"/>
</g>
<!-- Node22 -->
<g id="node44" class="node"><title>Node22</title>
<a xlink:href="../../d5/deb/_rotate_drawer_8h.html" target="_top" xlink:title="/home/vilon_tao/gaia/sdk/include/gaia/graphics/RotateDrawer.h">
<polygon fill="white" stroke="black" points="3198,-116.5 3198,-137.5 3490,-137.5 3490,-116.5 3198,-116.5"/>
<text text-anchor="middle" x="3344" y="-124.5" font-family="Helvetica,sans-Serif" font-size="10.00">/home/vilon_tao/gaia/sdk/include/gaia/graphics/RotateDrawer.h</text>
</a>
</g>
<!-- Node9&#45;&gt;Node22 -->
<g id="edge44" class="edge"><title>Node9&#45;&gt;Node22</title>
<path fill="none" stroke="midnightblue" d="M2382.68,-174.202C2383.79,-174.134 2384.9,-174.067 2386,-174 2742.6,-152.485 2832.35,-158.646 3189,-138 3191.96,-137.828 3194.96,-137.651 3197.97,-137.47"/>
<polygon fill="midnightblue" stroke="midnightblue" points="2382.34,-170.717 2372.58,-174.84 2382.78,-177.703 2382.34,-170.717"/>
</g>
<!-- Node9&#45;&gt;Node23 -->
<g id="edge48" class="edge"><title>Node9&#45;&gt;Node23</title>
<path fill="none" stroke="midnightblue" d="M2382.68,-174.182C2383.79,-174.12 2384.9,-174.06 2386,-174 2880.2,-147.274 3004.84,-165.53 3499,-138 3501.9,-137.838 3504.83,-137.668 3507.79,-137.489"/>
<polygon fill="midnightblue" stroke="midnightblue" points="2382.35,-170.695 2372.57,-174.768 2382.76,-177.683 2382.35,-170.695"/>
</g>
<!-- Node12 -->
<g id="node24" class="node"><title>Node12</title>
<a xlink:href="../../db/d24/_bitmap_drawer_plus_8h.html" target="_top" xlink:title="/home/vilon_tao/gaia/sdk/include/gaia/graphics/BitmapDrawerPlus.h">
<polygon fill="white" stroke="black" points="1290.5,-58.5 1290.5,-79.5 1603.5,-79.5 1603.5,-58.5 1290.5,-58.5"/>
<text text-anchor="middle" x="1447" y="-66.5" font-family="Helvetica,sans-Serif" font-size="10.00">/home/vilon_tao/gaia/sdk/include/gaia/graphics/BitmapDrawerPlus.h</text>
</a>
</g>
<!-- Node11&#45;&gt;Node12 -->
<g id="edge24" class="edge"><title>Node11&#45;&gt;Node12</title>
<path fill="none" stroke="midnightblue" d="M1456.7,-106.488C1454.34,-97.3924 1451.67,-87.0756 1449.73,-79.5707"/>
<polygon fill="midnightblue" stroke="midnightblue" points="1453.36,-107.557 1459.25,-116.362 1460.13,-105.804 1453.36,-107.557"/>
</g>
<!-- Node15 -->
<g id="node30" class="node"><title>Node15</title>
<a xlink:href="../../d8/d2f/_animation_drawer_8h.html" target="_top" xlink:title="/home/vilon_tao/gaia/sdk/include/gaia/graphics/AnimationDrawer.h">
<polygon fill="white" stroke="black" points="1621,-58.5 1621,-79.5 1927,-79.5 1927,-58.5 1621,-58.5"/>
<text text-anchor="middle" x="1774" y="-66.5" font-family="Helvetica,sans-Serif" font-size="10.00">/home/vilon_tao/gaia/sdk/include/gaia/graphics/AnimationDrawer.h</text>
</a>
</g>
<!-- Node14&#45;&gt;Node15 -->
<g id="edge30" class="edge"><title>Node14&#45;&gt;Node15</title>
<path fill="none" stroke="midnightblue" d="M2016.15,-114.6C1960.72,-104.161 1882.3,-89.3945 1829.88,-79.5231"/>
<polygon fill="midnightblue" stroke="midnightblue" points="2015.75,-118.086 2026.22,-116.497 2017.04,-111.206 2015.75,-118.086"/>
</g>
<!-- Node16 -->
<g id="node32" class="node"><title>Node16</title>
<a xlink:href="../../d4/da1/_level_list_drawer_8h.html" target="_top" xlink:title="/home/vilon_tao/gaia/sdk/include/gaia/graphics/LevelListDrawer.h">
<polygon fill="white" stroke="black" points="1945,-58.5 1945,-79.5 2247,-79.5 2247,-58.5 1945,-58.5"/>
<text text-anchor="middle" x="2096" y="-66.5" font-family="Helvetica,sans-Serif" font-size="10.00">/home/vilon_tao/gaia/sdk/include/gaia/graphics/LevelListDrawer.h</text>
</a>
</g>
<!-- Node14&#45;&gt;Node16 -->
<g id="edge32" class="edge"><title>Node14&#45;&gt;Node16</title>
<path fill="none" stroke="midnightblue" d="M2086.95,-106.488C2089.15,-97.3924 2091.64,-87.0756 2093.45,-79.5707"/>
<polygon fill="midnightblue" stroke="midnightblue" points="2083.51,-105.82 2084.57,-116.362 2090.32,-107.462 2083.51,-105.82"/>
</g>
<!-- Node17 -->
<g id="node34" class="node"><title>Node17</title>
<a xlink:href="../../d2/d15/_state_list_drawer_8h.html" target="_top" xlink:title="/home/vilon_tao/gaia/sdk/include/gaia/graphics/StateListDrawer.h">
<polygon fill="white" stroke="black" points="2265,-58.5 2265,-79.5 2567,-79.5 2567,-58.5 2265,-58.5"/>
<text text-anchor="middle" x="2416" y="-66.5" font-family="Helvetica,sans-Serif" font-size="10.00">/home/vilon_tao/gaia/sdk/include/gaia/graphics/StateListDrawer.h</text>
</a>
</g>
<!-- Node14&#45;&gt;Node17 -->
<g id="edge34" class="edge"><title>Node14&#45;&gt;Node17</title>
<path fill="none" stroke="midnightblue" d="M2152.66,-114.73C2212.82,-104.283 2298.32,-89.4354 2355.4,-79.5231"/>
<polygon fill="midnightblue" stroke="midnightblue" points="2151.74,-111.337 2142.48,-116.497 2152.94,-118.234 2151.74,-111.337"/>
</g>
<!-- Node21 -->
<g id="node42" class="node"><title>Node21</title>
<a xlink:href="../../d5/d93/_nine_patch_drawer_plus_8h.html" target="_top" xlink:title="/home/vilon_tao/gaia/sdk/include/gaia/graphics/NinePatchDrawerPlus.h">
<polygon fill="white" stroke="black" points="2862,-58.5 2862,-79.5 3190,-79.5 3190,-58.5 2862,-58.5"/>
<text text-anchor="middle" x="3026" y="-66.5" font-family="Helvetica,sans-Serif" font-size="10.00">/home/vilon_tao/gaia/sdk/include/gaia/graphics/NinePatchDrawerPlus.h</text>
</a>
</g>
<!-- Node20&#45;&gt;Node21 -->
<g id="edge42" class="edge"><title>Node20&#45;&gt;Node21</title>
<path fill="none" stroke="midnightblue" d="M3026,-106.191C3026,-97.1684 3026,-86.9941 3026,-79.5707"/>
<polygon fill="midnightblue" stroke="midnightblue" points="3022.5,-106.362 3026,-116.362 3029.5,-106.362 3022.5,-106.362"/>
</g>
<!-- Node24 -->
<g id="node49" class="node"><title>Node24</title>
<a xlink:href="../../de/d70/_image_button_8h.html" target="_top" xlink:title="/home/vilon_tao/gaia/sdk/include/gaia/ui/ImageButton.h">
<polygon fill="white" stroke="black" points="3218.5,-58.5 3218.5,-79.5 3475.5,-79.5 3475.5,-58.5 3218.5,-58.5"/>
<text text-anchor="middle" x="3347" y="-66.5" font-family="Helvetica,sans-Serif" font-size="10.00">/home/vilon_tao/gaia/sdk/include/gaia/ui/ImageButton.h</text>
</a>
</g>
<!-- Node23&#45;&gt;Node24 -->
<g id="edge50" class="edge"><title>Node23&#45;&gt;Node24</title>
<path fill="none" stroke="midnightblue" d="M3575.46,-114.535C3523.1,-104.099 3449.22,-89.374 3399.8,-79.5231"/>
<polygon fill="midnightblue" stroke="midnightblue" points="3574.81,-117.974 3585.3,-116.497 3576.18,-111.109 3574.81,-117.974"/>
</g>
<!-- Node25 -->
<g id="node51" class="node"><title>Node25</title>
<a xlink:href="../../d1/de8/_quick_contact_badge_8h.html" target="_top" xlink:title="/home/vilon_tao/gaia/sdk/include/gaia/ui/QuickContactBadge.h">
<polygon fill="white" stroke="black" points="3493,-58.5 3493,-79.5 3783,-79.5 3783,-58.5 3493,-58.5"/>
<text text-anchor="middle" x="3638" y="-66.5" font-family="Helvetica,sans-Serif" font-size="10.00">/home/vilon_tao/gaia/sdk/include/gaia/ui/QuickContactBadge.h</text>
</a>
</g>
<!-- Node23&#45;&gt;Node25 -->
<g id="edge52" class="edge"><title>Node23&#45;&gt;Node25</title>
<path fill="none" stroke="midnightblue" d="M3638,-106.191C3638,-97.1684 3638,-86.9941 3638,-79.5707"/>
<polygon fill="midnightblue" stroke="midnightblue" points="3634.5,-106.362 3638,-116.362 3641.5,-106.362 3634.5,-106.362"/>
</g>
<!-- Node26 -->
<g id="node53" class="node"><title>Node26</title>
<a xlink:href="../../db/daf/_simple_cursor_list_item_provider_8h.html" target="_top" xlink:title="/home/vilon_tao/gaia/sdk/include/gaia/ui/SimpleCursorListItemProvider.h">
<polygon fill="white" stroke="black" points="3801,-58.5 3801,-79.5 4133,-79.5 4133,-58.5 3801,-58.5"/>
<text text-anchor="middle" x="3967" y="-66.5" font-family="Helvetica,sans-Serif" font-size="10.00">/home/vilon_tao/gaia/sdk/include/gaia/ui/SimpleCursorListItemProvider.h</text>
</a>
</g>
<!-- Node23&#45;&gt;Node26 -->
<g id="edge54" class="edge"><title>Node23&#45;&gt;Node26</title>
<path fill="none" stroke="midnightblue" d="M3707.6,-114.73C3766.86,-104.283 3851.08,-89.4354 3907.31,-79.5231"/>
<polygon fill="midnightblue" stroke="midnightblue" points="3706.82,-111.314 3697.58,-116.497 3708.04,-118.207 3706.82,-111.314"/>
</g>
</g>
</svg>
