<?xml version="1.0" encoding="UTF-8" standalone="no"?>
<!DOCTYPE svg PUBLIC "-//W3C//DTD SVG 1.1//EN"
 "http://www.w3.org/Graphics/SVG/1.1/DTD/svg11.dtd">
<!-- Generated by graphviz version 2.26.3 (20100126.1600)
 -->
<!-- Title: G Pages: 1 -->
<svg width="7477pt" height="320pt"
 viewBox="0.00 0.00 7477.00 320.00" xmlns="http://www.w3.org/2000/svg" xmlns:xlink="http://www.w3.org/1999/xlink">
<g id="graph1" class="graph" transform="scale(1 1) rotate(0) translate(4 316)">
<title>G</title>
<polygon fill="white" stroke="white" points="-4,5 -4,-316 7474,-316 7474,5 -4,5"/>
<!-- Node1 -->
<g id="node1" class="node"><title>Node1</title>
<polygon fill="#bfbfbf" stroke="black" points="3561.5,-290.5 3561.5,-311.5 3800.5,-311.5 3800.5,-290.5 3561.5,-290.5"/>
<text text-anchor="middle" x="3681" y="-298.5" font-family="Helvetica,sans-Serif" font-size="10.00">/home/vilon_tao/gaia/sdk/include/gaia/base/Array.h</text>
</g>
<!-- Node2 -->
<g id="node3" class="node"><title>Node2</title>
<a xlink:href="../../d7/d86/_app_widget_manager_8h.html" target="_top" xlink:title="/home/vilon_tao/gaia/sdk/include/gaia/core/appwidget/AppWidgetManager.h">
<polygon fill="white" stroke="black" points="0,-232.5 0,-253.5 346,-253.5 346,-232.5 0,-232.5"/>
<text text-anchor="middle" x="173" y="-240.5" font-family="Helvetica,sans-Serif" font-size="10.00">/home/vilon_tao/gaia/sdk/include/gaia/core/appwidget/AppWidgetManager.h</text>
</a>
</g>
<!-- Node1&#45;&gt;Node2 -->
<g id="edge2" class="edge"><title>Node1&#45;&gt;Node2</title>
<path fill="none" stroke="midnightblue" d="M3551.05,-299.968C3017.62,-295.609 994.189,-277.82 355,-254 350.888,-253.847 346.724,-253.681 342.524,-253.504"/>
<polygon fill="midnightblue" stroke="midnightblue" points="3551.06,-303.468 3561.09,-300.05 3551.12,-296.469 3551.06,-303.468"/>
</g>
<!-- Node3 -->
<g id="node5" class="node"><title>Node3</title>
<a xlink:href="../../db/df1/_app_widget_provider_8h.html" target="_top" xlink:title="/home/vilon_tao/gaia/sdk/include/gaia/core/appwidget/AppWidgetProvider.h">
<polygon fill="white" stroke="black" points="364,-232.5 364,-253.5 708,-253.5 708,-232.5 364,-232.5"/>
<text text-anchor="middle" x="536" y="-240.5" font-family="Helvetica,sans-Serif" font-size="10.00">/home/vilon_tao/gaia/sdk/include/gaia/core/appwidget/AppWidgetProvider.h</text>
</a>
</g>
<!-- Node1&#45;&gt;Node3 -->
<g id="edge4" class="edge"><title>Node1&#45;&gt;Node3</title>
<path fill="none" stroke="midnightblue" d="M3551.35,-299.719C3055.82,-294.704 1281.23,-275.608 717,-254 713.068,-253.849 709.088,-253.687 705.075,-253.515"/>
<polygon fill="midnightblue" stroke="midnightblue" points="3551.36,-303.22 3561.4,-299.821 3551.43,-296.22 3551.36,-303.22"/>
</g>
<!-- Node4 -->
<g id="node7" class="node"><title>Node4</title>
<a xlink:href="../../dc/d63/_demand_8h.html" target="_top" xlink:title="/home/vilon_tao/gaia/sdk/include/gaia/core/Demand.h">
<polygon fill="white" stroke="black" points="726,-232.5 726,-253.5 976,-253.5 976,-232.5 726,-232.5"/>
<text text-anchor="middle" x="851" y="-240.5" font-family="Helvetica,sans-Serif" font-size="10.00">/home/vilon_tao/gaia/sdk/include/gaia/core/Demand.h</text>
</a>
</g>
<!-- Node1&#45;&gt;Node4 -->
<g id="edge6" class="edge"><title>Node1&#45;&gt;Node4</title>
<path fill="none" stroke="midnightblue" d="M3551.04,-299.847C3084.3,-295.532 1493.51,-279.278 985,-254 981.969,-253.849 978.901,-253.686 975.806,-253.511"/>
<polygon fill="midnightblue" stroke="midnightblue" points="3551.16,-303.348 3561.19,-299.94 3551.22,-296.348 3551.16,-303.348"/>
</g>
<!-- Node10 -->
<g id="node20" class="node"><title>Node10</title>
<a xlink:href="../../d7/d7e/_g_l10_8h.html" target="_top" xlink:title="/home/vilon_tao/gaia/sdk/include/gaia/core/GL10.h">
<polygon fill="white" stroke="black" points="1276,-232.5 1276,-253.5 1512,-253.5 1512,-232.5 1276,-232.5"/>
<text text-anchor="middle" x="1394" y="-240.5" font-family="Helvetica,sans-Serif" font-size="10.00">/home/vilon_tao/gaia/sdk/include/gaia/core/GL10.h</text>
</a>
</g>
<!-- Node1&#45;&gt;Node10 -->
<g id="edge20" class="edge"><title>Node1&#45;&gt;Node10</title>
<path fill="none" stroke="midnightblue" d="M3551.23,-299.279C3147.9,-293.755 1919.49,-275.57 1521,-254 1518.13,-253.844 1515.22,-253.676 1512.29,-253.497"/>
<polygon fill="midnightblue" stroke="midnightblue" points="3551.42,-302.782 3561.47,-299.419 3551.52,-295.782 3551.42,-302.782"/>
</g>
<!-- Node12 -->
<g id="node24" class="node"><title>Node12</title>
<a xlink:href="../../d6/d78/_g_l11_ext_8h.html" target="_top" xlink:title="/home/vilon_tao/gaia/sdk/include/gaia/core/GL11Ext.h">
<polygon fill="white" stroke="black" points="1529.5,-232.5 1529.5,-253.5 1780.5,-253.5 1780.5,-232.5 1529.5,-232.5"/>
<text text-anchor="middle" x="1655" y="-240.5" font-family="Helvetica,sans-Serif" font-size="10.00">/home/vilon_tao/gaia/sdk/include/gaia/core/GL11Ext.h</text>
</a>
</g>
<!-- Node1&#45;&gt;Node12 -->
<g id="edge24" class="edge"><title>Node1&#45;&gt;Node12</title>
<path fill="none" stroke="midnightblue" d="M3551.11,-300.325C3244.31,-298.175 2450.82,-289.356 1789,-254 1786.09,-253.844 1783.14,-253.678 1780.16,-253.501"/>
<polygon fill="midnightblue" stroke="midnightblue" points="3551.35,-303.827 3561.37,-300.396 3551.4,-296.827 3551.35,-303.827"/>
</g>
<!-- Node13 -->
<g id="node26" class="node"><title>Node13</title>
<a xlink:href="../../df/dcf/_g_l11_extension_pack_8h.html" target="_top" xlink:title="/home/vilon_tao/gaia/sdk/include/gaia/core/GL11ExtensionPack.h">
<polygon fill="white" stroke="black" points="1798,-232.5 1798,-253.5 2100,-253.5 2100,-232.5 1798,-232.5"/>
<text text-anchor="middle" x="1949" y="-240.5" font-family="Helvetica,sans-Serif" font-size="10.00">/home/vilon_tao/gaia/sdk/include/gaia/core/GL11ExtensionPack.h</text>
</a>
</g>
<!-- Node1&#45;&gt;Node13 -->
<g id="edge26" class="edge"><title>Node1&#45;&gt;Node13</title>
<path fill="none" stroke="midnightblue" d="M3550.93,-298.816C3281.7,-293.918 2643.79,-280.368 2109,-254 2105.8,-253.842 2102.57,-253.677 2099.31,-253.504"/>
<polygon fill="midnightblue" stroke="midnightblue" points="3551.07,-302.319 3561.13,-299 3551.2,-295.32 3551.07,-302.319"/>
</g>
<!-- Node14 -->
<g id="node28" class="node"><title>Node14</title>
<a xlink:href="../../d5/de8/_page_manager_8h.html" target="_top" xlink:title="/home/vilon_tao/gaia/sdk/include/gaia/core/PageManager.h">
<polygon fill="white" stroke="black" points="2117.5,-232.5 2117.5,-253.5 2390.5,-253.5 2390.5,-232.5 2117.5,-232.5"/>
<text text-anchor="middle" x="2254" y="-240.5" font-family="Helvetica,sans-Serif" font-size="10.00">/home/vilon_tao/gaia/sdk/include/gaia/core/PageManager.h</text>
</a>
</g>
<!-- Node1&#45;&gt;Node14 -->
<g id="edge28" class="edge"><title>Node1&#45;&gt;Node14</title>
<path fill="none" stroke="midnightblue" d="M3551.03,-297.913C3319.39,-292.037 2819.97,-277.675 2399,-254 2396.23,-253.844 2393.43,-253.681 2390.6,-253.512"/>
<polygon fill="midnightblue" stroke="midnightblue" points="3551.1,-301.416 3561.18,-298.17 3551.27,-294.418 3551.1,-301.416"/>
</g>
<!-- Node15 -->
<g id="node30" class="node"><title>Node15</title>
<a xlink:href="../../df/d57/_parcel_8h.html" target="_top" xlink:title="/home/vilon_tao/gaia/sdk/include/gaia/core/Parcel.h">
<polygon fill="white" stroke="black" points="2407.5,-232.5 2407.5,-253.5 2648.5,-253.5 2648.5,-232.5 2407.5,-232.5"/>
<text text-anchor="middle" x="2528" y="-240.5" font-family="Helvetica,sans-Serif" font-size="10.00">/home/vilon_tao/gaia/sdk/include/gaia/core/Parcel.h</text>
</a>
</g>
<!-- Node1&#45;&gt;Node15 -->
<g id="edge30" class="edge"><title>Node1&#45;&gt;Node15</title>
<path fill="none" stroke="midnightblue" d="M3551.08,-296.499C3357.34,-289.448 2981.26,-274.46 2662,-254 2657.57,-253.716 2653.07,-253.414 2648.52,-253.098"/>
<polygon fill="midnightblue" stroke="midnightblue" points="3551.19,-300.005 3561.31,-296.869 3551.44,-293.009 3551.19,-300.005"/>
</g>
<!-- Node20 -->
<g id="node40" class="node"><title>Node20</title>
<a xlink:href="../../d6/d9e/_i_media_container_delegate_8h.html" target="_top" xlink:title="/home/vilon_tao/gaia/sdk/include/gaia/defcontainer/IMediaContainerDelegate.h">
<polygon fill="white" stroke="black" points="2419,-58.5 2419,-79.5 2777,-79.5 2777,-58.5 2419,-58.5"/>
<text text-anchor="middle" x="2598" y="-66.5" font-family="Helvetica,sans-Serif" font-size="10.00">/home/vilon_tao/gaia/sdk/include/gaia/defcontainer/IMediaContainerDelegate.h</text>
</a>
</g>
<!-- Node1&#45;&gt;Node20 -->
<g id="edge58" class="edge"><title>Node1&#45;&gt;Node20</title>
<path fill="none" stroke="midnightblue" d="M3550.8,-298.816C3290.5,-293.899 2727.85,-280.283 2695,-254 2645.33,-214.253 2692.04,-169.093 2657,-116 2646.83,-100.589 2629.96,-87.8965 2616.86,-79.6027"/>
<polygon fill="midnightblue" stroke="midnightblue" points="3551.01,-302.321 3561.07,-299.009 3551.14,-295.322 3551.01,-302.321"/>
</g>
<!-- Node21 -->
<g id="node42" class="node"><title>Node21</title>
<a xlink:href="../../d5/d54/_persistence_8h.html" target="_top" xlink:title="/home/vilon_tao/gaia/sdk/include/gaia/core/Persistence.h">
<polygon fill="white" stroke="black" points="993.5,-232.5 993.5,-253.5 1258.5,-253.5 1258.5,-232.5 993.5,-232.5"/>
<text text-anchor="middle" x="1126" y="-240.5" font-family="Helvetica,sans-Serif" font-size="10.00">/home/vilon_tao/gaia/sdk/include/gaia/core/Persistence.h</text>
</a>
</g>
<!-- Node1&#45;&gt;Node21 -->
<g id="edge42" class="edge"><title>Node1&#45;&gt;Node21</title>
<path fill="none" stroke="midnightblue" d="M3551.18,-299.474C3117.01,-294.213 1717.59,-275.944 1267,-254 1263.93,-253.851 1260.83,-253.69 1257.7,-253.519"/>
<polygon fill="midnightblue" stroke="midnightblue" points="3551.22,-302.975 3561.26,-299.596 3551.3,-295.975 3551.22,-302.975"/>
</g>
<!-- Node23 -->
<g id="node50" class="node"><title>Node23</title>
<a xlink:href="../../de/db2/_anim_scale_8h.html" target="_top" xlink:title="/home/vilon_tao/gaia/sdk/include/gaia/core/vision/AnimScale.h">
<polygon fill="white" stroke="black" points="2703.5,-232.5 2703.5,-253.5 2992.5,-253.5 2992.5,-232.5 2703.5,-232.5"/>
<text text-anchor="middle" x="2848" y="-240.5" font-family="Helvetica,sans-Serif" font-size="10.00">/home/vilon_tao/gaia/sdk/include/gaia/core/vision/AnimScale.h</text>
</a>
</g>
<!-- Node1&#45;&gt;Node23 -->
<g id="edge54" class="edge"><title>Node1&#45;&gt;Node23</title>
<path fill="none" stroke="midnightblue" d="M3551.12,-292.13C3414.27,-282.759 3192.46,-267.499 3001,-254 2998.21,-253.803 2995.39,-253.604 2992.55,-253.403"/>
<polygon fill="midnightblue" stroke="midnightblue" points="3551.01,-295.631 3561.23,-292.822 3551.49,-288.647 3551.01,-295.631"/>
</g>
<!-- Node24 -->
<g id="node52" class="node"><title>Node24</title>
<a xlink:href="../../df/dde/_display_8h.html" target="_top" xlink:title="/home/vilon_tao/gaia/sdk/include/gaia/core/vision/Display.h">
<polygon fill="white" stroke="black" points="3009.5,-232.5 3009.5,-253.5 3284.5,-253.5 3284.5,-232.5 3009.5,-232.5"/>
<text text-anchor="middle" x="3147" y="-240.5" font-family="Helvetica,sans-Serif" font-size="10.00">/home/vilon_tao/gaia/sdk/include/gaia/core/vision/Display.h</text>
</a>
</g>
<!-- Node1&#45;&gt;Node24 -->
<g id="edge56" class="edge"><title>Node1&#45;&gt;Node24</title>
<path fill="none" stroke="midnightblue" d="M3574.23,-289.403C3477.8,-278.93 3337.13,-263.65 3243.88,-253.523"/>
<polygon fill="midnightblue" stroke="midnightblue" points="3573.98,-292.896 3584.3,-290.497 3574.73,-285.937 3573.98,-292.896"/>
</g>
<!-- Node25 -->
<g id="node55" class="node"><title>Node25</title>
<a xlink:href="../../d4/db7/_d_n_s_8h.html" target="_top" xlink:title="/home/vilon_tao/gaia/sdk/include/gaia/net/DNS.h">
<polygon fill="white" stroke="black" points="3302,-232.5 3302,-253.5 3532,-253.5 3532,-232.5 3302,-232.5"/>
<text text-anchor="middle" x="3417" y="-240.5" font-family="Helvetica,sans-Serif" font-size="10.00">/home/vilon_tao/gaia/sdk/include/gaia/net/DNS.h</text>
</a>
</g>
<!-- Node1&#45;&gt;Node25 -->
<g id="edge60" class="edge"><title>Node1&#45;&gt;Node25</title>
<path fill="none" stroke="midnightblue" d="M3623.37,-288.339C3575.93,-277.916 3509.46,-263.313 3464.9,-253.523"/>
<polygon fill="midnightblue" stroke="midnightblue" points="3622.67,-291.769 3633.19,-290.497 3624.18,-284.932 3622.67,-291.769"/>
</g>
<!-- Node26 -->
<g id="node57" class="node"><title>Node26</title>
<a xlink:href="../../d5/d28/_i_p_host_entry_8h.html" target="_top" xlink:title="/home/vilon_tao/gaia/sdk/include/gaia/net/IPHostEntry.h">
<polygon fill="white" stroke="black" points="3550,-232.5 3550,-253.5 3812,-253.5 3812,-232.5 3550,-232.5"/>
<text text-anchor="middle" x="3681" y="-240.5" font-family="Helvetica,sans-Serif" font-size="10.00">/home/vilon_tao/gaia/sdk/include/gaia/net/IPHostEntry.h</text>
</a>
</g>
<!-- Node1&#45;&gt;Node26 -->
<g id="edge62" class="edge"><title>Node1&#45;&gt;Node26</title>
<path fill="none" stroke="midnightblue" d="M3681,-280.191C3681,-271.168 3681,-260.994 3681,-253.571"/>
<polygon fill="midnightblue" stroke="midnightblue" points="3677.5,-280.362 3681,-290.362 3684.5,-280.362 3677.5,-280.362"/>
</g>
<!-- Node27 -->
<g id="node59" class="node"><title>Node27</title>
<a xlink:href="../../d9/d38/_s_s_l_info_8h.html" target="_top" xlink:title="/home/vilon_tao/gaia/sdk/include/gaia/net/SSLInfo.h">
<polygon fill="white" stroke="black" points="3829.5,-232.5 3829.5,-253.5 4072.5,-253.5 4072.5,-232.5 3829.5,-232.5"/>
<text text-anchor="middle" x="3951" y="-240.5" font-family="Helvetica,sans-Serif" font-size="10.00">/home/vilon_tao/gaia/sdk/include/gaia/net/SSLInfo.h</text>
</a>
</g>
<!-- Node1&#45;&gt;Node27 -->
<g id="edge64" class="edge"><title>Node1&#45;&gt;Node27</title>
<path fill="none" stroke="midnightblue" d="M3739.94,-288.339C3788.46,-277.916 3856.44,-263.313 3902.01,-253.523"/>
<polygon fill="midnightblue" stroke="midnightblue" points="3738.94,-284.974 3729.89,-290.497 3740.41,-291.818 3738.94,-284.974"/>
</g>
<!-- Node28 -->
<g id="node61" class="node"><title>Node28</title>
<a xlink:href="../../d3/d02/_s_s_l_request_info_8h.html" target="_top" xlink:title="/home/vilon_tao/gaia/sdk/include/gaia/net/SSLRequestInfo.h">
<polygon fill="white" stroke="black" points="4090,-232.5 4090,-253.5 4370,-253.5 4370,-232.5 4090,-232.5"/>
<text text-anchor="middle" x="4230" y="-240.5" font-family="Helvetica,sans-Serif" font-size="10.00">/home/vilon_tao/gaia/sdk/include/gaia/net/SSLRequestInfo.h</text>
</a>
</g>
<!-- Node1&#45;&gt;Node28 -->
<g id="edge66" class="edge"><title>Node1&#45;&gt;Node28</title>
<path fill="none" stroke="midnightblue" d="M3790.47,-289.435C3889.61,-278.961 4034.44,-263.661 4130.39,-253.523"/>
<polygon fill="midnightblue" stroke="midnightblue" points="3790,-285.965 3780.42,-290.497 3790.73,-292.927 3790,-285.965"/>
</g>
<!-- Node29 -->
<g id="node63" class="node"><title>Node29</title>
<a xlink:href="../../d6/d00/_s_q_lite_query_builder_8h.html" target="_top" xlink:title="/home/vilon_tao/gaia/sdk/include/gaia/storage/SQLiteQueryBuilder.h">
<polygon fill="white" stroke="black" points="4387.5,-232.5 4387.5,-253.5 4700.5,-253.5 4700.5,-232.5 4387.5,-232.5"/>
<text text-anchor="middle" x="4544" y="-240.5" font-family="Helvetica,sans-Serif" font-size="10.00">/home/vilon_tao/gaia/sdk/include/gaia/storage/SQLiteQueryBuilder.h</text>
</a>
</g>
<!-- Node1&#45;&gt;Node29 -->
<g id="edge68" class="edge"><title>Node1&#45;&gt;Node29</title>
<path fill="none" stroke="midnightblue" d="M3810.55,-292.293C3964.84,-281.924 4222.39,-264.615 4387.62,-253.51"/>
<polygon fill="midnightblue" stroke="midnightblue" points="3810.29,-288.803 3800.54,-292.966 3810.76,-295.787 3810.29,-288.803"/>
</g>
<!-- Node30 -->
<g id="node65" class="node"><title>Node30</title>
<a xlink:href="../../df/d25/_storage_manager_8h.html" target="_top" xlink:title="/home/vilon_tao/gaia/sdk/include/gaia/storage/StorageManager.h">
<polygon fill="white" stroke="black" points="4718,-232.5 4718,-253.5 5016,-253.5 5016,-232.5 4718,-232.5"/>
<text text-anchor="middle" x="4867" y="-240.5" font-family="Helvetica,sans-Serif" font-size="10.00">/home/vilon_tao/gaia/sdk/include/gaia/storage/StorageManager.h</text>
</a>
</g>
<!-- Node1&#45;&gt;Node30 -->
<g id="edge70" class="edge"><title>Node1&#45;&gt;Node30</title>
<path fill="none" stroke="midnightblue" d="M3810.55,-296.068C4005.52,-288.42 4385.98,-272.626 4709,-254 4711.88,-253.834 4714.79,-253.663 4717.73,-253.487"/>
<polygon fill="midnightblue" stroke="midnightblue" points="3810.4,-292.571 3800.55,-296.459 3810.68,-299.565 3810.4,-292.571"/>
</g>
<!-- Node31 -->
<g id="node67" class="node"><title>Node31</title>
<a xlink:href="../../d4/d31/_sensor_data_8h.html" target="_top" xlink:title="/home/vilon_tao/gaia/sdk/include/gaia/system/SensorData.h">
<polygon fill="white" stroke="black" points="5034,-232.5 5034,-253.5 5312,-253.5 5312,-232.5 5034,-232.5"/>
<text text-anchor="middle" x="5173" y="-240.5" font-family="Helvetica,sans-Serif" font-size="10.00">/home/vilon_tao/gaia/sdk/include/gaia/system/SensorData.h</text>
</a>
</g>
<!-- Node1&#45;&gt;Node31 -->
<g id="edge72" class="edge"><title>Node1&#45;&gt;Node31</title>
<path fill="none" stroke="midnightblue" d="M3810.79,-298.154C4050.7,-292.516 4579.71,-278.325 5025,-254 5027.96,-253.838 5030.95,-253.669 5033.97,-253.493"/>
<polygon fill="midnightblue" stroke="midnightblue" points="3810.55,-294.658 3800.64,-298.391 3810.72,-301.656 3810.55,-294.658"/>
</g>
<!-- Node32 -->
<g id="node69" class="node"><title>Node32</title>
<a xlink:href="../../d9/dc2/_number_key_listener_8h.html" target="_top" xlink:title="/home/vilon_tao/gaia/sdk/include/gaia/text/method/NumberKeyListener.h">
<polygon fill="white" stroke="black" points="4982,-58.5 4982,-79.5 5314,-79.5 5314,-58.5 4982,-58.5"/>
<text text-anchor="middle" x="5148" y="-66.5" font-family="Helvetica,sans-Serif" font-size="10.00">/home/vilon_tao/gaia/sdk/include/gaia/text/method/NumberKeyListener.h</text>
</a>
</g>
<!-- Node1&#45;&gt;Node32 -->
<g id="edge74" class="edge"><title>Node1&#45;&gt;Node32</title>
<path fill="none" stroke="midnightblue" d="M3810.73,-299.674C4193.77,-295.451 5294.78,-280.987 5321,-254 5327.81,-246.988 5327.4,-239.388 5321,-232 5247.18,-146.842 5143.82,-281.158 5070,-196 5036.44,-157.287 5101.45,-102.486 5132.64,-79.6415"/>
<polygon fill="midnightblue" stroke="midnightblue" points="3810.67,-296.174 3800.71,-299.783 3810.75,-303.173 3810.67,-296.174"/>
</g>
<!-- Node35 -->
<g id="node75" class="node"><title>Node35</title>
<a xlink:href="../../dd/d89/_replacement_transformation_method_8h.html" target="_top" xlink:title="/home/vilon_tao/gaia/sdk/include/gaia/text/method/ReplacementTransformationMethod.h">
<polygon fill="white" stroke="black" points="5674.5,-232.5 5674.5,-253.5 6075.5,-253.5 6075.5,-232.5 5674.5,-232.5"/>
<text text-anchor="middle" x="5875" y="-240.5" font-family="Helvetica,sans-Serif" font-size="10.00">/home/vilon_tao/gaia/sdk/include/gaia/text/method/ReplacementTransformationMethod.h</text>
</a>
</g>
<!-- Node1&#45;&gt;Node35 -->
<g id="edge80" class="edge"><title>Node1&#45;&gt;Node35</title>
<path fill="none" stroke="midnightblue" d="M3810.85,-299.158C4127.3,-294.4 4963.54,-280.198 5661,-254 5665.37,-253.836 5669.79,-253.664 5674.24,-253.485"/>
<polygon fill="midnightblue" stroke="midnightblue" points="3810.67,-295.661 3800.72,-299.31 3810.77,-302.66 3810.67,-295.661"/>
</g>
<!-- Node37 -->
<g id="node79" class="node"><title>Node37</title>
<a xlink:href="../../dc/d40/_text_key_listener_8h.html" target="_top" xlink:title="/home/vilon_tao/gaia/sdk/include/gaia/text/method/TextKeyListener.h">
<polygon fill="white" stroke="black" points="5413.5,-58.5 5413.5,-79.5 5730.5,-79.5 5730.5,-58.5 5413.5,-58.5"/>
<text text-anchor="middle" x="5572" y="-66.5" font-family="Helvetica,sans-Serif" font-size="10.00">/home/vilon_tao/gaia/sdk/include/gaia/text/method/TextKeyListener.h</text>
</a>
</g>
<!-- Node1&#45;&gt;Node37 -->
<g id="edge84" class="edge"><title>Node1&#45;&gt;Node37</title>
<path fill="none" stroke="midnightblue" d="M3810.82,-300.038C4240.37,-296.577 5590.38,-283.381 5625,-254 5678.75,-208.383 5607.89,-112.285 5581.32,-79.9107"/>
<polygon fill="midnightblue" stroke="midnightblue" points="3810.51,-296.54 3800.54,-300.12 3810.56,-303.54 3810.51,-296.54"/>
</g>
<!-- Node38 -->
<g id="node81" class="node"><title>Node38</title>
<a xlink:href="../../d7/dc2/_spanned_8h.html" target="_top" xlink:title="/home/vilon_tao/gaia/sdk/include/gaia/text/Spanned.h">
<polygon fill="white" stroke="black" points="5367.5,-232.5 5367.5,-253.5 5616.5,-253.5 5616.5,-232.5 5367.5,-232.5"/>
<text text-anchor="middle" x="5492" y="-240.5" font-family="Helvetica,sans-Serif" font-size="10.00">/home/vilon_tao/gaia/sdk/include/gaia/text/Spanned.h</text>
</a>
</g>
<!-- Node1&#45;&gt;Node38 -->
<g id="edge86" class="edge"><title>Node1&#45;&gt;Node38</title>
<path fill="none" stroke="midnightblue" d="M3810.76,-299.627C4092.1,-296.151 4779.18,-284.963 5354,-254 5358.32,-253.767 5362.71,-253.513 5367.15,-253.241"/>
<polygon fill="midnightblue" stroke="midnightblue" points="3810.48,-296.13 3800.52,-299.752 3810.56,-303.13 3810.48,-296.13"/>
</g>
<!-- Node42 -->
<g id="node92" class="node"><title>Node42</title>
<a xlink:href="../../d0/db9/_linkify_8h.html" target="_top" xlink:title="/home/vilon_tao/gaia/sdk/include/gaia/text/util/Linkify.h">
<polygon fill="white" stroke="black" points="6092.5,-232.5 6092.5,-253.5 6347.5,-253.5 6347.5,-232.5 6092.5,-232.5"/>
<text text-anchor="middle" x="6220" y="-240.5" font-family="Helvetica,sans-Serif" font-size="10.00">/home/vilon_tao/gaia/sdk/include/gaia/text/util/Linkify.h</text>
</a>
</g>
<!-- Node1&#45;&gt;Node42 -->
<g id="edge100" class="edge"><title>Node1&#45;&gt;Node42</title>
<path fill="none" stroke="midnightblue" d="M3810.6,-299.512C4243.24,-294.381 5635.62,-276.497 6084,-254 6087.08,-253.846 6090.19,-253.679 6093.33,-253.501"/>
<polygon fill="midnightblue" stroke="midnightblue" points="3810.52,-296.013 3800.56,-299.631 3810.6,-303.012 3810.52,-296.013"/>
</g>
<!-- Node43 -->
<g id="node94" class="node"><title>Node43</title>
<a xlink:href="../../d8/db4/_compound_button_8h.html" target="_top" xlink:title="/home/vilon_tao/gaia/sdk/include/gaia/ui/CompoundButton.h">
<polygon fill="white" stroke="black" points="6365,-232.5 6365,-253.5 6643,-253.5 6643,-232.5 6365,-232.5"/>
<text text-anchor="middle" x="6504" y="-240.5" font-family="Helvetica,sans-Serif" font-size="10.00">/home/vilon_tao/gaia/sdk/include/gaia/ui/CompoundButton.h</text>
</a>
</g>
<!-- Node1&#45;&gt;Node43 -->
<g id="edge102" class="edge"><title>Node1&#45;&gt;Node43</title>
<path fill="none" stroke="midnightblue" d="M3810.73,-299.696C4274.83,-294.877 5851.65,-277.155 6356,-254 6359.35,-253.846 6362.73,-253.68 6366.15,-253.503"/>
<polygon fill="midnightblue" stroke="midnightblue" points="3810.61,-296.197 3800.64,-299.8 3810.68,-303.196 3810.61,-296.197"/>
</g>
<!-- Node48 -->
<g id="node104" class="node"><title>Node48</title>
<a xlink:href="../../d8/de3/_i_simple_list_item_provider_8h.html" target="_top" xlink:title="/home/vilon_tao/gaia/sdk/include/gaia/ui/ISimpleListItemProvider.h">
<polygon fill="white" stroke="black" points="6661,-232.5 6661,-253.5 6967,-253.5 6967,-232.5 6661,-232.5"/>
<text text-anchor="middle" x="6814" y="-240.5" font-family="Helvetica,sans-Serif" font-size="10.00">/home/vilon_tao/gaia/sdk/include/gaia/ui/ISimpleListItemProvider.h</text>
</a>
</g>
<!-- Node1&#45;&gt;Node48 -->
<g id="edge112" class="edge"><title>Node1&#45;&gt;Node48</title>
<path fill="none" stroke="midnightblue" d="M3810.96,-299.845C4307.68,-295.289 6086.52,-277.655 6652,-254 6655.66,-253.847 6659.37,-253.681 6663.11,-253.504"/>
<polygon fill="midnightblue" stroke="midnightblue" points="3810.86,-296.345 3800.89,-299.937 3810.92,-303.345 3810.86,-296.345"/>
</g>
<!-- Node50 -->
<g id="node108" class="node"><title>Node50</title>
<a xlink:href="../../db/daf/_simple_cursor_list_item_provider_8h.html" target="_top" xlink:title="/home/vilon_tao/gaia/sdk/include/gaia/ui/SimpleCursorListItemProvider.h">
<polygon fill="white" stroke="black" points="6985,-232.5 6985,-253.5 7317,-253.5 7317,-232.5 6985,-232.5"/>
<text text-anchor="middle" x="7151" y="-240.5" font-family="Helvetica,sans-Serif" font-size="10.00">/home/vilon_tao/gaia/sdk/include/gaia/ui/SimpleCursorListItemProvider.h</text>
</a>
</g>
<!-- Node1&#45;&gt;Node50 -->
<g id="edge116" class="edge"><title>Node1&#45;&gt;Node50</title>
<path fill="none" stroke="midnightblue" d="M3811.02,-299.99C4341.44,-295.738 6343.31,-278.383 6976,-254 6979.95,-253.848 6983.96,-253.682 6988,-253.506"/>
<polygon fill="midnightblue" stroke="midnightblue" points="3810.63,-296.493 3800.66,-300.073 3810.69,-303.492 3810.63,-296.493"/>
</g>
<!-- Node5 -->
<g id="node9" class="node"><title>Node5</title>
<a xlink:href="../../d0/d54/_instrumentation_test_case_8h.html" target="_top" xlink:title="/home/vilon_tao/gaia/sdk/include/gaia/testing/InstrumentationTestCase.h">
<polygon fill="white" stroke="black" points="704,-174.5 704,-195.5 1038,-195.5 1038,-174.5 704,-174.5"/>
<text text-anchor="middle" x="871" y="-182.5" font-family="Helvetica,sans-Serif" font-size="10.00">/home/vilon_tao/gaia/sdk/include/gaia/testing/InstrumentationTestCase.h</text>
</a>
</g>
<!-- Node4&#45;&gt;Node5 -->
<g id="edge8" class="edge"><title>Node4&#45;&gt;Node5</title>
<path fill="none" stroke="midnightblue" d="M857.971,-222.784C861.132,-213.617 864.739,-203.157 867.355,-195.571"/>
<polygon fill="midnightblue" stroke="midnightblue" points="854.619,-221.767 854.668,-232.362 861.237,-224.049 854.619,-221.767"/>
</g>
<!-- Node8 -->
<g id="node15" class="node"><title>Node8</title>
<a xlink:href="../../db/deb/_page_unit_test_case_8h.html" target="_top" xlink:title="/home/vilon_tao/gaia/sdk/include/gaia/testing/PageUnitTestCase.h">
<polygon fill="white" stroke="black" points="364.5,-58.5 364.5,-79.5 671.5,-79.5 671.5,-58.5 364.5,-58.5"/>
<text text-anchor="middle" x="518" y="-66.5" font-family="Helvetica,sans-Serif" font-size="10.00">/home/vilon_tao/gaia/sdk/include/gaia/testing/PageUnitTestCase.h</text>
</a>
</g>
<!-- Node4&#45;&gt;Node8 -->
<g id="edge18" class="edge"><title>Node4&#45;&gt;Node8</title>
<path fill="none" stroke="midnightblue" d="M739.172,-231.402C640.754,-220.647 511.855,-204.991 504,-196 474.811,-162.591 499.775,-103.869 512.093,-79.7766"/>
<polygon fill="midnightblue" stroke="midnightblue" points="738.878,-234.891 749.198,-232.492 739.635,-227.932 738.878,-234.891"/>
</g>
<!-- Node6 -->
<g id="node11" class="node"><title>Node6</title>
<a xlink:href="../../d5/db9/_page_test_case_8h.html" target="_top" xlink:title="/home/vilon_tao/gaia/sdk/include/gaia/testing/PageTestCase.h">
<polygon fill="white" stroke="black" points="545.5,-116.5 545.5,-137.5 834.5,-137.5 834.5,-116.5 545.5,-116.5"/>
<text text-anchor="middle" x="690" y="-124.5" font-family="Helvetica,sans-Serif" font-size="10.00">/home/vilon_tao/gaia/sdk/include/gaia/testing/PageTestCase.h</text>
</a>
</g>
<!-- Node5&#45;&gt;Node6 -->
<g id="edge10" class="edge"><title>Node5&#45;&gt;Node6</title>
<path fill="none" stroke="midnightblue" d="M828.598,-171.413C796.305,-161.065 752.494,-147.026 722.839,-137.523"/>
<polygon fill="midnightblue" stroke="midnightblue" points="827.631,-174.778 838.222,-174.497 829.767,-168.112 827.631,-174.778"/>
</g>
<!-- Node9 -->
<g id="node17" class="node"><title>Node9</title>
<a xlink:href="../../d2/dc6/_single_launch_page_test_case_8h.html" target="_top" xlink:title="/home/vilon_tao/gaia/sdk/include/gaia/testing/SingleLaunchPageTestCase.h">
<polygon fill="white" stroke="black" points="851.5,-116.5 851.5,-137.5 1198.5,-137.5 1198.5,-116.5 851.5,-116.5"/>
<text text-anchor="middle" x="1025" y="-124.5" font-family="Helvetica,sans-Serif" font-size="10.00">/home/vilon_tao/gaia/sdk/include/gaia/testing/SingleLaunchPageTestCase.h</text>
</a>
</g>
<!-- Node5&#45;&gt;Node9 -->
<g id="edge16" class="edge"><title>Node5&#45;&gt;Node9</title>
<path fill="none" stroke="midnightblue" d="M908.506,-170.874C935.834,-160.582 972.263,-146.862 997.059,-137.523"/>
<polygon fill="midnightblue" stroke="midnightblue" points="907.013,-167.697 898.888,-174.497 909.48,-174.247 907.013,-167.697"/>
</g>
<!-- Node7 -->
<g id="node13" class="node"><title>Node7</title>
<a xlink:href="../../d2/d74/_page_instrumentation_test_case_8h.html" target="_top" xlink:title="/home/vilon_tao/gaia/sdk/include/gaia/testing/PageInstrumentationTestCase.h">
<polygon fill="white" stroke="black" points="869,-58.5 869,-79.5 1225,-79.5 1225,-58.5 869,-58.5"/>
<text text-anchor="middle" x="1047" y="-66.5" font-family="Helvetica,sans-Serif" font-size="10.00">/home/vilon_tao/gaia/sdk/include/gaia/testing/PageInstrumentationTestCase.h</text>
</a>
</g>
<!-- Node6&#45;&gt;Node7 -->
<g id="edge12" class="edge"><title>Node6&#45;&gt;Node7</title>
<path fill="none" stroke="midnightblue" d="M764.731,-114.859C829.069,-104.406 920.964,-89.4764 982.229,-79.5231"/>
<polygon fill="midnightblue" stroke="midnightblue" points="763.959,-111.438 754.65,-116.497 765.082,-118.348 763.959,-111.438"/>
</g>
<!-- Node6&#45;&gt;Node8 -->
<g id="edge14" class="edge"><title>Node6&#45;&gt;Node8</title>
<path fill="none" stroke="midnightblue" d="M649.309,-113.279C618.661,-102.944 577.265,-88.9849 549.206,-79.5231"/>
<polygon fill="midnightblue" stroke="midnightblue" points="648.258,-116.618 658.852,-116.497 650.495,-109.985 648.258,-116.618"/>
</g>
<!-- Node11 -->
<g id="node22" class="node"><title>Node11</title>
<a xlink:href="../../db/d1d/_g_l11_8h.html" target="_top" xlink:title="/home/vilon_tao/gaia/sdk/include/gaia/core/GL11.h">
<polygon fill="white" stroke="black" points="1606,-174.5 1606,-195.5 1842,-195.5 1842,-174.5 1606,-174.5"/>
<text text-anchor="middle" x="1724" y="-182.5" font-family="Helvetica,sans-Serif" font-size="10.00">/home/vilon_tao/gaia/sdk/include/gaia/core/GL11.h</text>
</a>
</g>
<!-- Node10&#45;&gt;Node11 -->
<g id="edge22" class="edge"><title>Node10&#45;&gt;Node11</title>
<path fill="none" stroke="midnightblue" d="M1463.81,-230.73C1523.25,-220.283 1607.73,-205.435 1664.13,-195.523"/>
<polygon fill="midnightblue" stroke="midnightblue" points="1463,-227.318 1453.76,-232.497 1464.22,-234.213 1463,-227.318"/>
</g>
<!-- Node16 -->
<g id="node32" class="node"><title>Node16</title>
<a xlink:href="../../d2/de0/_application_error_report_8h.html" target="_top" xlink:title="/home/vilon_tao/gaia/sdk/include/gaia/core/ApplicationErrorReport.h">
<polygon fill="white" stroke="black" points="2059.5,-174.5 2059.5,-195.5 2370.5,-195.5 2370.5,-174.5 2059.5,-174.5"/>
<text text-anchor="middle" x="2215" y="-182.5" font-family="Helvetica,sans-Serif" font-size="10.00">/home/vilon_tao/gaia/sdk/include/gaia/core/ApplicationErrorReport.h</text>
</a>
</g>
<!-- Node15&#45;&gt;Node16 -->
<g id="edge32" class="edge"><title>Node15&#45;&gt;Node16</title>
<path fill="none" stroke="midnightblue" d="M2461.43,-230.665C2405.08,-220.222 2325.17,-205.415 2271.79,-195.523"/>
<polygon fill="midnightblue" stroke="midnightblue" points="2460.85,-234.116 2471.32,-232.497 2462.12,-227.233 2460.85,-234.116"/>
</g>
<!-- Node17 -->
<g id="node34" class="node"><title>Node17</title>
<a xlink:href="../../d1/dbb/_i_binder_8h.html" target="_top" xlink:title="/home/vilon_tao/gaia/sdk/include/gaia/core/ipc/IBinder.h">
<polygon fill="white" stroke="black" points="2388,-174.5 2388,-195.5 2648,-195.5 2648,-174.5 2388,-174.5"/>
<text text-anchor="middle" x="2518" y="-182.5" font-family="Helvetica,sans-Serif" font-size="10.00">/home/vilon_tao/gaia/sdk/include/gaia/core/ipc/IBinder.h</text>
</a>
</g>
<!-- Node15&#45;&gt;Node17 -->
<g id="edge34" class="edge"><title>Node15&#45;&gt;Node17</title>
<path fill="none" stroke="midnightblue" d="M2524.46,-222.488C2522.9,-213.392 2521.12,-203.076 2519.82,-195.571"/>
<polygon fill="midnightblue" stroke="midnightblue" points="2521.02,-223.102 2526.17,-232.362 2527.92,-221.913 2521.02,-223.102"/>
</g>
<!-- Node18 -->
<g id="node36" class="node"><title>Node18</title>
<a xlink:href="../../de/dc3/_delegate_connection_8h.html" target="_top" xlink:title="/home/vilon_tao/gaia/sdk/include/gaia/core/DelegateConnection.h">
<polygon fill="white" stroke="black" points="2072,-116.5 2072,-137.5 2374,-137.5 2374,-116.5 2072,-116.5"/>
<text text-anchor="middle" x="2223" y="-124.5" font-family="Helvetica,sans-Serif" font-size="10.00">/home/vilon_tao/gaia/sdk/include/gaia/core/DelegateConnection.h</text>
</a>
</g>
<!-- Node17&#45;&gt;Node18 -->
<g id="edge36" class="edge"><title>Node17&#45;&gt;Node18</title>
<path fill="none" stroke="midnightblue" d="M2454.6,-172.535C2401.52,-162.099 2326.63,-147.374 2276.52,-137.523"/>
<polygon fill="midnightblue" stroke="midnightblue" points="2454.09,-176.002 2464.58,-174.497 2455.44,-169.133 2454.09,-176.002"/>
</g>
<!-- Node19 -->
<g id="node38" class="node"><title>Node19</title>
<a xlink:href="../../da/de3/_binder_8h.html" target="_top" xlink:title="/home/vilon_tao/gaia/sdk/include/gaia/core/ipc/Binder.h">
<polygon fill="white" stroke="red" points="2391.5,-116.5 2391.5,-137.5 2648.5,-137.5 2648.5,-116.5 2391.5,-116.5"/>
<text text-anchor="middle" x="2520" y="-124.5" font-family="Helvetica,sans-Serif" font-size="10.00">/home/vilon_tao/gaia/sdk/include/gaia/core/ipc/Binder.h</text>
</a>
</g>
<!-- Node17&#45;&gt;Node19 -->
<g id="edge38" class="edge"><title>Node17&#45;&gt;Node19</title>
<path fill="none" stroke="midnightblue" d="M2518.72,-164.191C2519.03,-155.168 2519.38,-144.994 2519.64,-137.571"/>
<polygon fill="midnightblue" stroke="midnightblue" points="2515.21,-164.247 2518.37,-174.362 2522.21,-164.488 2515.21,-164.247"/>
</g>
<!-- Node19&#45;&gt;Node20 -->
<g id="edge40" class="edge"><title>Node19&#45;&gt;Node20</title>
<path fill="none" stroke="midnightblue" d="M2542.51,-110.259C2555.82,-100.364 2572.27,-88.1361 2583.78,-79.5707"/>
<polygon fill="midnightblue" stroke="midnightblue" points="2540.24,-107.586 2534.31,-116.362 2544.42,-113.203 2540.24,-107.586"/>
</g>
<!-- Node21&#45;&gt;Node5 -->
<g id="edge46" class="edge"><title>Node21&#45;&gt;Node5</title>
<path fill="none" stroke="midnightblue" d="M1070.05,-230.274C1024.24,-219.855 960.215,-205.292 917.265,-195.523"/>
<polygon fill="midnightblue" stroke="midnightblue" points="1069.29,-233.692 1079.82,-232.497 1070.85,-226.866 1069.29,-233.692"/>
</g>
<!-- Node21&#45;&gt;Node7 -->
<g id="edge48" class="edge"><title>Node21&#45;&gt;Node7</title>
<path fill="none" stroke="midnightblue" d="M1150.17,-226.377C1183.22,-201.606 1235.34,-153.861 1207,-116 1195.03,-100.007 1149.47,-87.5991 1110.01,-79.5581"/>
<polygon fill="midnightblue" stroke="midnightblue" points="1147.87,-223.728 1141.84,-232.444 1151.99,-229.387 1147.87,-223.728"/>
</g>
<!-- Node21&#45;&gt;Node8 -->
<g id="edge50" class="edge"><title>Node21&#45;&gt;Node8</title>
<path fill="none" stroke="midnightblue" d="M987.957,-231.607C883.437,-222.294 748.955,-208.646 695,-196 622.169,-178.93 587.651,-193.046 537,-138 522.024,-121.725 518.689,-94.7237 518.046,-79.7807"/>
<polygon fill="midnightblue" stroke="midnightblue" points="987.705,-235.099 997.975,-232.495 988.323,-228.126 987.705,-235.099"/>
</g>
<!-- Node21&#45;&gt;Node9 -->
<g id="edge52" class="edge"><title>Node21&#45;&gt;Node9</title>
<path fill="none" stroke="midnightblue" d="M1110.1,-224.744C1088.77,-200.243 1051.57,-157.513 1034.3,-137.679"/>
<polygon fill="midnightblue" stroke="midnightblue" points="1107.47,-227.051 1116.68,-232.295 1112.75,-222.455 1107.47,-227.051"/>
</g>
<!-- Node22 -->
<g id="node44" class="node"><title>Node22</title>
<a xlink:href="../../d3/dda/_account_manager_future_8h.html" target="_top" xlink:title="/home/vilon_tao/gaia/sdk/include/gaia/accounts/AccountManagerFuture.h">
<polygon fill="white" stroke="black" points="1253.5,-174.5 1253.5,-195.5 1588.5,-195.5 1588.5,-174.5 1253.5,-174.5"/>
<text text-anchor="middle" x="1421" y="-182.5" font-family="Helvetica,sans-Serif" font-size="10.00">/home/vilon_tao/gaia/sdk/include/gaia/accounts/AccountManagerFuture.h</text>
</a>
</g>
<!-- Node21&#45;&gt;Node22 -->
<g id="edge44" class="edge"><title>Node21&#45;&gt;Node22</title>
<path fill="none" stroke="midnightblue" d="M1189.4,-230.535C1242.48,-220.099 1317.37,-205.374 1367.48,-195.523"/>
<polygon fill="midnightblue" stroke="midnightblue" points="1188.56,-227.133 1179.42,-232.497 1189.91,-234.002 1188.56,-227.133"/>
</g>
<!-- Node33 -->
<g id="node71" class="node"><title>Node33</title>
<a xlink:href="../../d1/dd7/_dialer_key_listener_8h.html" target="_top" xlink:title="/home/vilon_tao/gaia/sdk/include/gaia/text/method/DialerKeyListener.h">
<polygon fill="white" stroke="black" points="4816.5,-0.5 4816.5,-21.5 5139.5,-21.5 5139.5,-0.5 4816.5,-0.5"/>
<text text-anchor="middle" x="4978" y="-8.5" font-family="Helvetica,sans-Serif" font-size="10.00">/home/vilon_tao/gaia/sdk/include/gaia/text/method/DialerKeyListener.h</text>
</a>
</g>
<!-- Node32&#45;&gt;Node33 -->
<g id="edge76" class="edge"><title>Node32&#45;&gt;Node33</title>
<path fill="none" stroke="midnightblue" d="M5107.39,-55.1443C5077.14,-44.8229 5036.46,-30.9439 5008.84,-21.5231"/>
<polygon fill="midnightblue" stroke="midnightblue" points="5106.62,-58.5801 5117.21,-58.4966 5108.88,-51.955 5106.62,-58.5801"/>
</g>
<!-- Node34 -->
<g id="node73" class="node"><title>Node34</title>
<a xlink:href="../../dc/da7/_digits_key_listener_8h.html" target="_top" xlink:title="/home/vilon_tao/gaia/sdk/include/gaia/text/method/DigitsKeyListener.h">
<polygon fill="white" stroke="black" points="5156.5,-0.5 5156.5,-21.5 5479.5,-21.5 5479.5,-0.5 5156.5,-0.5"/>
<text text-anchor="middle" x="5318" y="-8.5" font-family="Helvetica,sans-Serif" font-size="10.00">/home/vilon_tao/gaia/sdk/include/gaia/text/method/DigitsKeyListener.h</text>
</a>
</g>
<!-- Node32&#45;&gt;Node34 -->
<g id="edge78" class="edge"><title>Node32&#45;&gt;Node34</title>
<path fill="none" stroke="midnightblue" d="M5188.61,-55.1443C5218.86,-44.8229 5259.54,-30.9439 5287.16,-21.5231"/>
<polygon fill="midnightblue" stroke="midnightblue" points="5187.12,-51.955 5178.79,-58.4966 5189.38,-58.5801 5187.12,-51.955"/>
</g>
<!-- Node36 -->
<g id="node77" class="node"><title>Node36</title>
<a xlink:href="../../d3/d9f/_single_line_transformation_method_8h.html" target="_top" xlink:title="/home/vilon_tao/gaia/sdk/include/gaia/text/method/SingleLineTransformationMethod.h">
<polygon fill="white" stroke="black" points="5682.5,-174.5 5682.5,-195.5 6071.5,-195.5 6071.5,-174.5 5682.5,-174.5"/>
<text text-anchor="middle" x="5877" y="-182.5" font-family="Helvetica,sans-Serif" font-size="10.00">/home/vilon_tao/gaia/sdk/include/gaia/text/method/SingleLineTransformationMethod.h</text>
</a>
</g>
<!-- Node35&#45;&gt;Node36 -->
<g id="edge82" class="edge"><title>Node35&#45;&gt;Node36</title>
<path fill="none" stroke="midnightblue" d="M5875.72,-222.191C5876.03,-213.168 5876.38,-202.994 5876.64,-195.571"/>
<polygon fill="midnightblue" stroke="midnightblue" points="5872.21,-222.247 5875.37,-232.362 5879.21,-222.488 5872.21,-222.247"/>
</g>
<!-- Node39 -->
<g id="node83" class="node"><title>Node39</title>
<a xlink:href="../../d7/d1c/_spannable_8h.html" target="_top" xlink:title="/home/vilon_tao/gaia/sdk/include/gaia/text/Spannable.h">
<polygon fill="white" stroke="red" points="5078.5,-174.5 5078.5,-195.5 5335.5,-195.5 5335.5,-174.5 5078.5,-174.5"/>
<text text-anchor="middle" x="5207" y="-182.5" font-family="Helvetica,sans-Serif" font-size="10.00">/home/vilon_tao/gaia/sdk/include/gaia/text/Spannable.h</text>
</a>
</g>
<!-- Node38&#45;&gt;Node39 -->
<g id="edge88" class="edge"><title>Node38&#45;&gt;Node39</title>
<path fill="none" stroke="midnightblue" d="M5430.43,-230.47C5379.17,-220.038 5307.01,-205.354 5258.71,-195.523"/>
<polygon fill="midnightblue" stroke="midnightblue" points="5429.89,-233.932 5440.39,-232.497 5431.29,-227.073 5429.89,-233.932"/>
</g>
<!-- Node41 -->
<g id="node90" class="node"><title>Node41</title>
<a xlink:href="../../d4/d09/_spanned_string_8h.html" target="_top" xlink:title="/home/vilon_tao/gaia/sdk/include/gaia/text/SpannedString.h">
<polygon fill="white" stroke="black" points="5352.5,-174.5 5352.5,-195.5 5627.5,-195.5 5627.5,-174.5 5352.5,-174.5"/>
<text text-anchor="middle" x="5490" y="-182.5" font-family="Helvetica,sans-Serif" font-size="10.00">/home/vilon_tao/gaia/sdk/include/gaia/text/SpannedString.h</text>
</a>
</g>
<!-- Node38&#45;&gt;Node41 -->
<g id="edge98" class="edge"><title>Node38&#45;&gt;Node41</title>
<path fill="none" stroke="midnightblue" d="M5491.28,-222.191C5490.97,-213.168 5490.62,-202.994 5490.36,-195.571"/>
<polygon fill="midnightblue" stroke="midnightblue" points="5487.79,-222.488 5491.63,-232.362 5494.79,-222.247 5487.79,-222.488"/>
</g>
<!-- Node39&#45;&gt;Node32 -->
<g id="edge96" class="edge"><title>Node39&#45;&gt;Node32</title>
<path fill="none" stroke="midnightblue" d="M5188.63,-167.219C5181,-158.957 5172.62,-148.621 5167,-138 5156.88,-118.893 5151.74,-93.8833 5149.49,-79.8218"/>
<polygon fill="midnightblue" stroke="midnightblue" points="5186.15,-169.684 5195.61,-174.446 5191.18,-164.821 5186.15,-169.684"/>
</g>
<!-- Node40 -->
<g id="node85" class="node"><title>Node40</title>
<a xlink:href="../../d6/dc5/_editable_8h.html" target="_top" xlink:title="/home/vilon_tao/gaia/sdk/include/gaia/text/Editable.h">
<polygon fill="white" stroke="red" points="5176,-116.5 5176,-137.5 5422,-137.5 5422,-116.5 5176,-116.5"/>
<text text-anchor="middle" x="5299" y="-124.5" font-family="Helvetica,sans-Serif" font-size="10.00">/home/vilon_tao/gaia/sdk/include/gaia/text/Editable.h</text>
</a>
</g>
<!-- Node39&#45;&gt;Node40 -->
<g id="edge90" class="edge"><title>Node39&#45;&gt;Node40</title>
<path fill="none" stroke="midnightblue" d="M5232.66,-168.821C5248.51,-158.831 5268.39,-146.299 5282.23,-137.571"/>
<polygon fill="midnightblue" stroke="midnightblue" points="5230.47,-166.068 5223.87,-174.362 5234.2,-171.99 5230.47,-166.068"/>
</g>
<!-- Node40&#45;&gt;Node32 -->
<g id="edge92" class="edge"><title>Node40&#45;&gt;Node32</title>
<path fill="none" stroke="midnightblue" d="M5262.22,-112.874C5235.43,-102.582 5199.71,-88.862 5175.4,-79.5231"/>
<polygon fill="midnightblue" stroke="midnightblue" points="5261.06,-116.178 5271.66,-116.497 5263.57,-109.644 5261.06,-116.178"/>
</g>
<!-- Node40&#45;&gt;Node37 -->
<g id="edge94" class="edge"><title>Node40&#45;&gt;Node37</title>
<path fill="none" stroke="midnightblue" d="M5358.29,-114.404C5407.37,-103.977 5476.29,-89.333 5522.47,-79.5231"/>
<polygon fill="midnightblue" stroke="midnightblue" points="5357.49,-110.995 5348.44,-116.497 5358.95,-117.842 5357.49,-110.995"/>
</g>
<!-- Node44 -->
<g id="node96" class="node"><title>Node44</title>
<a xlink:href="../../d3/d23/_check_box_8h.html" target="_top" xlink:title="/home/vilon_tao/gaia/sdk/include/gaia/ui/CheckBox.h">
<polygon fill="white" stroke="black" points="6089,-174.5 6089,-195.5 6337,-195.5 6337,-174.5 6089,-174.5"/>
<text text-anchor="middle" x="6213" y="-182.5" font-family="Helvetica,sans-Serif" font-size="10.00">/home/vilon_tao/gaia/sdk/include/gaia/ui/CheckBox.h</text>
</a>
</g>
<!-- Node43&#45;&gt;Node44 -->
<g id="edge104" class="edge"><title>Node43&#45;&gt;Node44</title>
<path fill="none" stroke="midnightblue" d="M6441.46,-230.535C6389.1,-220.099 6315.22,-205.374 6265.8,-195.523"/>
<polygon fill="midnightblue" stroke="midnightblue" points="6440.81,-233.974 6451.3,-232.497 6442.18,-227.109 6440.81,-233.974"/>
</g>
<!-- Node45 -->
<g id="node98" class="node"><title>Node45</title>
<a xlink:href="../../d0/d74/_radio_button_8h.html" target="_top" xlink:title="/home/vilon_tao/gaia/sdk/include/gaia/ui/RadioButton.h">
<polygon fill="white" stroke="black" points="6355,-174.5 6355,-195.5 6611,-195.5 6611,-174.5 6355,-174.5"/>
<text text-anchor="middle" x="6483" y="-182.5" font-family="Helvetica,sans-Serif" font-size="10.00">/home/vilon_tao/gaia/sdk/include/gaia/ui/RadioButton.h</text>
</a>
</g>
<!-- Node43&#45;&gt;Node45 -->
<g id="edge106" class="edge"><title>Node43&#45;&gt;Node45</title>
<path fill="none" stroke="midnightblue" d="M6496.68,-222.784C6493.36,-213.617 6489.57,-203.157 6486.83,-195.571"/>
<polygon fill="midnightblue" stroke="midnightblue" points="6493.45,-224.151 6500.15,-232.362 6500.03,-221.768 6493.45,-224.151"/>
</g>
<!-- Node46 -->
<g id="node100" class="node"><title>Node46</title>
<a xlink:href="../../d0/d26/_switch_8h.html" target="_top" xlink:title="/home/vilon_tao/gaia/sdk/include/gaia/ui/Switch.h">
<polygon fill="white" stroke="black" points="6629,-174.5 6629,-195.5 6861,-195.5 6861,-174.5 6629,-174.5"/>
<text text-anchor="middle" x="6745" y="-182.5" font-family="Helvetica,sans-Serif" font-size="10.00">/home/vilon_tao/gaia/sdk/include/gaia/ui/Switch.h</text>
</a>
</g>
<!-- Node43&#45;&gt;Node46 -->
<g id="edge108" class="edge"><title>Node43&#45;&gt;Node46</title>
<path fill="none" stroke="midnightblue" d="M6557.43,-230.142C6600.68,-219.733 6660.85,-205.251 6701.27,-195.523"/>
<polygon fill="midnightblue" stroke="midnightblue" points="6556.55,-226.754 6547.64,-232.497 6558.18,-233.56 6556.55,-226.754"/>
</g>
<!-- Node47 -->
<g id="node102" class="node"><title>Node47</title>
<a xlink:href="../../de/dd2/_toggle_button_8h.html" target="_top" xlink:title="/home/vilon_tao/gaia/sdk/include/gaia/ui/ToggleButton.h">
<polygon fill="white" stroke="black" points="6879,-174.5 6879,-195.5 7139,-195.5 7139,-174.5 6879,-174.5"/>
<text text-anchor="middle" x="7009" y="-182.5" font-family="Helvetica,sans-Serif" font-size="10.00">/home/vilon_tao/gaia/sdk/include/gaia/ui/ToggleButton.h</text>
</a>
</g>
<!-- Node43&#45;&gt;Node47 -->
<g id="edge110" class="edge"><title>Node43&#45;&gt;Node47</title>
<path fill="none" stroke="midnightblue" d="M6605.53,-231.34C6696.7,-220.868 6829.38,-205.63 6917.38,-195.523"/>
<polygon fill="midnightblue" stroke="midnightblue" points="6604.99,-227.878 6595.45,-232.497 6605.79,-234.833 6604.99,-227.878"/>
</g>
<!-- Node49 -->
<g id="node106" class="node"><title>Node49</title>
<a xlink:href="../../d4/da1/_auto_complete_edit_widget_8h.html" target="_top" xlink:title="/home/vilon_tao/gaia/sdk/include/gaia/ui/AutoCompleteEditWidget.h">
<polygon fill="white" stroke="black" points="7157,-174.5 7157,-195.5 7469,-195.5 7469,-174.5 7157,-174.5"/>
<text text-anchor="middle" x="7313" y="-182.5" font-family="Helvetica,sans-Serif" font-size="10.00">/home/vilon_tao/gaia/sdk/include/gaia/ui/AutoCompleteEditWidget.h</text>
</a>
</g>
<!-- Node48&#45;&gt;Node49 -->
<g id="edge114" class="edge"><title>Node48&#45;&gt;Node49</title>
<path fill="none" stroke="midnightblue" d="M6914.32,-231.34C7004.41,-220.868 7135.51,-205.63 7222.47,-195.523"/>
<polygon fill="midnightblue" stroke="midnightblue" points="6913.89,-227.865 6904.37,-232.497 6914.7,-234.819 6913.89,-227.865"/>
</g>
</g>
</svg>
