<?xml version="1.0" encoding="UTF-8" standalone="no"?>
<!DOCTYPE svg PUBLIC "-//W3C//DTD SVG 1.1//EN"
 "http://www.w3.org/Graphics/SVG/1.1/DTD/svg11.dtd">
<!-- Generated by graphviz version 2.26.3 (20100126.1600)
 -->
<!-- Title: G Pages: 1 -->
<svg width="320pt" height="146pt"
 viewBox="0.00 0.00 320.00 146.00" xmlns="http://www.w3.org/2000/svg" xmlns:xlink="http://www.w3.org/1999/xlink">
<g id="graph1" class="graph" transform="scale(1 1) rotate(0) translate(4 142)">
<title>G</title>
<polygon fill="white" stroke="white" points="-4,5 -4,-142 317,-142 317,5 -4,5"/>
<!-- Node1 -->
<g id="node1" class="node"><title>Node1</title>
<polygon fill="#bfbfbf" stroke="black" points="17,-116.5 17,-137.5 287,-137.5 287,-116.5 17,-116.5"/>
<text text-anchor="middle" x="152" y="-124.5" font-family="Helvetica,sans-Serif" font-size="10.00">/home/vilon_tao/gaia/sdk/include/gaia/telephony/CellInfo.h</text>
</g>
<!-- Node2 -->
<g id="node3" class="node"><title>Node2</title>
<a xlink:href="../../d7/dd2/_cell_identity_8h.html" target="_top" xlink:title="gaia/telephony/CellIdentity.h">
<polygon fill="white" stroke="black" points="0,-58.5 0,-79.5 140,-79.5 140,-58.5 0,-58.5"/>
<text text-anchor="middle" x="70" y="-66.5" font-family="Helvetica,sans-Serif" font-size="10.00">gaia/telephony/CellIdentity.h</text>
</a>
</g>
<!-- Node1&#45;&gt;Node2 -->
<g id="edge2" class="edge"><title>Node1&#45;&gt;Node2</title>
<path fill="none" stroke="midnightblue" d="M136.96,-116.362C124.707,-107.696 107.201,-95.3126 93.1606,-85.3819"/>
<polygon fill="midnightblue" stroke="midnightblue" points="95.13,-82.4879 84.9447,-79.5707 91.0877,-88.2028 95.13,-82.4879"/>
</g>
<!-- Node5 -->
<g id="node9" class="node"><title>Node5</title>
<a xlink:href="../../de/d8a/_signal_strength_8h.html" target="_top" xlink:title="gaia/telephony/SignalStrength.h">
<polygon fill="white" stroke="black" points="157.5,-58.5 157.5,-79.5 312.5,-79.5 312.5,-58.5 157.5,-58.5"/>
<text text-anchor="middle" x="235" y="-66.5" font-family="Helvetica,sans-Serif" font-size="10.00">gaia/telephony/SignalStrength.h</text>
</a>
</g>
<!-- Node1&#45;&gt;Node5 -->
<g id="edge8" class="edge"><title>Node1&#45;&gt;Node5</title>
<path fill="none" stroke="midnightblue" d="M167.223,-116.362C179.625,-107.696 197.346,-95.3126 211.557,-85.3819"/>
<polygon fill="midnightblue" stroke="midnightblue" points="213.681,-88.1676 219.873,-79.5707 209.671,-82.4297 213.681,-88.1676"/>
</g>
<!-- Node3 -->
<g id="node5" class="node"><title>Node3</title>
<polygon fill="white" stroke="#bfbfbf" points="65,-0.5 65,-21.5 111,-21.5 111,-0.5 65,-0.5"/>
<text text-anchor="middle" x="88" y="-8.5" font-family="Helvetica,sans-Serif" font-size="10.00">cstdint</text>
</g>
<!-- Node2&#45;&gt;Node3 -->
<g id="edge4" class="edge"><title>Node2&#45;&gt;Node3</title>
<path fill="none" stroke="midnightblue" d="M73.3015,-58.3619C75.6612,-50.7584 78.9088,-40.294 81.7512,-31.1349"/>
<polygon fill="midnightblue" stroke="midnightblue" points="85.0981,-32.1587 84.7195,-21.5707 78.4127,-30.0839 85.0981,-32.1587"/>
</g>
<!-- Node4 -->
<g id="node7" class="node"><title>Node4</title>
<a xlink:href="../../d1/dd0/gmacros_8h.html" target="_top" xlink:title="gaia/base/gmacros.h">
<polygon fill="white" stroke="black" points="163.5,-0.5 163.5,-21.5 270.5,-21.5 270.5,-0.5 163.5,-0.5"/>
<text text-anchor="middle" x="217" y="-8.5" font-family="Helvetica,sans-Serif" font-size="10.00">gaia/base/gmacros.h</text>
</a>
</g>
<!-- Node2&#45;&gt;Node4 -->
<g id="edge6" class="edge"><title>Node2&#45;&gt;Node4</title>
<path fill="none" stroke="midnightblue" d="M96.6206,-58.4966C120.097,-49.2337 154.525,-35.6499 180.556,-25.3793"/>
<polygon fill="midnightblue" stroke="midnightblue" points="182.063,-28.5473 190.081,-21.6212 179.494,-22.0358 182.063,-28.5473"/>
</g>
<!-- Node5&#45;&gt;Node3 -->
<g id="edge10" class="edge"><title>Node5&#45;&gt;Node3</title>
<path fill="none" stroke="midnightblue" d="M208.379,-58.4966C183.729,-48.7706 147.004,-34.2807 120.605,-23.8646"/>
<polygon fill="midnightblue" stroke="midnightblue" points="121.626,-20.5049 111.039,-20.0904 119.057,-27.0164 121.626,-20.5049"/>
</g>
<!-- Node5&#45;&gt;Node4 -->
<g id="edge12" class="edge"><title>Node5&#45;&gt;Node4</title>
<path fill="none" stroke="midnightblue" d="M231.699,-58.3619C229.339,-50.7584 226.091,-40.294 223.249,-31.1349"/>
<polygon fill="midnightblue" stroke="midnightblue" points="226.587,-30.0839 220.281,-21.5707 219.902,-32.1587 226.587,-30.0839"/>
</g>
</g>
</svg>
