<?xml version="1.0" encoding="UTF-8" standalone="no"?>
<!DOCTYPE svg PUBLIC "-//W3C//DTD SVG 1.1//EN"
 "http://www.w3.org/Graphics/SVG/1.1/DTD/svg11.dtd">
<!-- Generated by graphviz version 2.26.3 (20100126.1600)
 -->
<!-- Title: G Pages: 1 -->
<svg width="1956pt" height="88pt"
 viewBox="0.00 0.00 1956.00 88.00" xmlns="http://www.w3.org/2000/svg" xmlns:xlink="http://www.w3.org/1999/xlink">
<g id="graph1" class="graph" transform="scale(1 1) rotate(0) translate(4 84)">
<title>G</title>
<polygon fill="white" stroke="white" points="-4,5 -4,-84 1953,-84 1953,5 -4,5"/>
<!-- Node1 -->
<g id="node1" class="node"><title>Node1</title>
<polygon fill="#bfbfbf" stroke="black" points="835,-58.5 835,-79.5 1113,-79.5 1113,-58.5 835,-58.5"/>
<text text-anchor="middle" x="974" y="-66.5" font-family="Helvetica,sans-Serif" font-size="10.00">/home/vilon_tao/gaia/sdk/include/gaia/graphics/PathEffect.h</text>
</g>
<!-- Node2 -->
<g id="node3" class="node"><title>Node2</title>
<a xlink:href="../../d8/dce/_compose_path_effect_8h.html" target="_top" xlink:title="/home/vilon_tao/gaia/sdk/include/gaia/graphics/ComposePathEffect.h">
<polygon fill="white" stroke="black" points="0,-0.5 0,-21.5 320,-21.5 320,-0.5 0,-0.5"/>
<text text-anchor="middle" x="160" y="-8.5" font-family="Helvetica,sans-Serif" font-size="10.00">/home/vilon_tao/gaia/sdk/include/gaia/graphics/ComposePathEffect.h</text>
</a>
</g>
<!-- Node1&#45;&gt;Node2 -->
<g id="edge2" class="edge"><title>Node1&#45;&gt;Node2</title>
<path fill="none" stroke="midnightblue" d="M824.97,-58.3812C677.775,-47.893 453.993,-31.9479 307.375,-21.5009"/>
<polygon fill="midnightblue" stroke="midnightblue" points="824.77,-61.8757 834.993,-59.0953 825.267,-54.8934 824.77,-61.8757"/>
</g>
<!-- Node3 -->
<g id="node5" class="node"><title>Node3</title>
<a xlink:href="../../d2/d64/_corner_path_effect_8h.html" target="_top" xlink:title="/home/vilon_tao/gaia/sdk/include/gaia/graphics/CornerPathEffect.h">
<polygon fill="white" stroke="black" points="337.5,-0.5 337.5,-21.5 644.5,-21.5 644.5,-0.5 337.5,-0.5"/>
<text text-anchor="middle" x="491" y="-8.5" font-family="Helvetica,sans-Serif" font-size="10.00">/home/vilon_tao/gaia/sdk/include/gaia/graphics/CornerPathEffect.h</text>
</a>
</g>
<!-- Node1&#45;&gt;Node3 -->
<g id="edge4" class="edge"><title>Node1&#45;&gt;Node3</title>
<path fill="none" stroke="midnightblue" d="M876.366,-57.2759C789.18,-46.8063 662.628,-31.6095 578.632,-21.5231"/>
<polygon fill="midnightblue" stroke="midnightblue" points="876.186,-60.7793 886.532,-58.4966 877.021,-53.8293 876.186,-60.7793"/>
</g>
<!-- Node4 -->
<g id="node7" class="node"><title>Node4</title>
<a xlink:href="../../d6/d0f/_dash_path_effect_8h.html" target="_top" xlink:title="/home/vilon_tao/gaia/sdk/include/gaia/graphics/DashPathEffect.h">
<polygon fill="white" stroke="black" points="661.5,-0.5 661.5,-21.5 962.5,-21.5 962.5,-0.5 661.5,-0.5"/>
<text text-anchor="middle" x="812" y="-8.5" font-family="Helvetica,sans-Serif" font-size="10.00">/home/vilon_tao/gaia/sdk/include/gaia/graphics/DashPathEffect.h</text>
</a>
</g>
<!-- Node1&#45;&gt;Node4 -->
<g id="edge6" class="edge"><title>Node1&#45;&gt;Node4</title>
<path fill="none" stroke="midnightblue" d="M934.923,-55.0095C906.134,-44.7023 867.591,-30.903 841.392,-21.5231"/>
<polygon fill="midnightblue" stroke="midnightblue" points="934.068,-58.421 944.663,-58.4966 936.428,-51.8307 934.068,-58.421"/>
</g>
<!-- Node5 -->
<g id="node9" class="node"><title>Node5</title>
<a xlink:href="../../dc/d6a/_discrete_path_effect_8h.html" target="_top" xlink:title="/home/vilon_tao/gaia/sdk/include/gaia/graphics/DiscretePathEffect.h">
<polygon fill="white" stroke="black" points="980,-0.5 980,-21.5 1294,-21.5 1294,-0.5 980,-0.5"/>
<text text-anchor="middle" x="1137" y="-8.5" font-family="Helvetica,sans-Serif" font-size="10.00">/home/vilon_tao/gaia/sdk/include/gaia/graphics/DiscretePathEffect.h</text>
</a>
</g>
<!-- Node1&#45;&gt;Node5 -->
<g id="edge8" class="edge"><title>Node1&#45;&gt;Node5</title>
<path fill="none" stroke="midnightblue" d="M1013.32,-55.0095C1042.28,-44.7023 1081.07,-30.903 1107.43,-21.5231"/>
<polygon fill="midnightblue" stroke="midnightblue" points="1011.77,-51.8467 1003.52,-58.4966 1014.11,-58.4417 1011.77,-51.8467"/>
</g>
<!-- Node6 -->
<g id="node11" class="node"><title>Node6</title>
<a xlink:href="../../d9/d1a/_path_dash_path_effect_8h.html" target="_top" xlink:title="/home/vilon_tao/gaia/sdk/include/gaia/graphics/PathDashPathEffect.h">
<polygon fill="white" stroke="black" points="1311.5,-0.5 1311.5,-21.5 1632.5,-21.5 1632.5,-0.5 1311.5,-0.5"/>
<text text-anchor="middle" x="1472" y="-8.5" font-family="Helvetica,sans-Serif" font-size="10.00">/home/vilon_tao/gaia/sdk/include/gaia/graphics/PathDashPathEffect.h</text>
</a>
</g>
<!-- Node1&#45;&gt;Node6 -->
<g id="edge10" class="edge"><title>Node1&#45;&gt;Node6</title>
<path fill="none" stroke="midnightblue" d="M1074.12,-57.3396C1164.03,-46.8681 1294.87,-31.63 1381.65,-21.5231"/>
<polygon fill="midnightblue" stroke="midnightblue" points="1073.71,-53.8632 1064.18,-58.4966 1074.52,-60.8162 1073.71,-53.8632"/>
</g>
<!-- Node7 -->
<g id="node13" class="node"><title>Node7</title>
<a xlink:href="../../da/dcf/_sum_path_effect_8h.html" target="_top" xlink:title="/home/vilon_tao/gaia/sdk/include/gaia/graphics/SumPathEffect.h">
<polygon fill="white" stroke="black" points="1650,-0.5 1650,-21.5 1948,-21.5 1948,-0.5 1650,-0.5"/>
<text text-anchor="middle" x="1799" y="-8.5" font-family="Helvetica,sans-Serif" font-size="10.00">/home/vilon_tao/gaia/sdk/include/gaia/graphics/SumPathEffect.h</text>
</a>
</g>
<!-- Node1&#45;&gt;Node7 -->
<g id="edge12" class="edge"><title>Node1&#45;&gt;Node7</title>
<path fill="none" stroke="midnightblue" d="M1123.18,-58.5122C1272.45,-48.0179 1500.78,-31.966 1649.99,-21.4759"/>
<polygon fill="midnightblue" stroke="midnightblue" points="1122.75,-55.0339 1113.02,-59.2267 1123.24,-62.0167 1122.75,-55.0339"/>
</g>
</g>
</svg>
