<?xml version="1.0" encoding="UTF-8" standalone="no"?>
<!DOCTYPE svg PUBLIC "-//W3C//DTD SVG 1.1//EN"
 "http://www.w3.org/Graphics/SVG/1.1/DTD/svg11.dtd">
<!-- Generated by graphviz version 2.26.3 (20100126.1600)
 -->
<!-- Title: G Pages: 1 -->
<svg width="289pt" height="204pt"
 viewBox="0.00 0.00 289.00 204.00" xmlns="http://www.w3.org/2000/svg" xmlns:xlink="http://www.w3.org/1999/xlink">
<g id="graph1" class="graph" transform="scale(1 1) rotate(0) translate(4 200)">
<title>G</title>
<polygon fill="white" stroke="white" points="-4,5 -4,-200 286,-200 286,5 -4,5"/>
<!-- Node1 -->
<g id="node1" class="node"><title>Node1</title>
<polygon fill="#bfbfbf" stroke="black" points="82,-58.5 82,-79.5 194,-79.5 194,-58.5 82,-58.5"/>
<text text-anchor="middle" x="138" y="-66.5" font-family="Helvetica,sans-Serif" font-size="10.00">gaia::ui::ImageWidget</text>
</g>
<!-- Node5 -->
<g id="node9" class="node"><title>Node5</title>
<a xlink:href="../../dc/dad/classgaia_1_1ui_1_1_image_button.html" target="_top" xlink:title="Displays a button with an image (instead of text) that can be pressed or clicked by the user...">
<polygon fill="white" stroke="black" points="11,-0.5 11,-21.5 121,-21.5 121,-0.5 11,-0.5"/>
<text text-anchor="middle" x="66" y="-8.5" font-family="Helvetica,sans-Serif" font-size="10.00">gaia::ui::ImageButton</text>
</a>
</g>
<!-- Node1&#45;&gt;Node5 -->
<g id="edge8" class="edge"><title>Node1&#45;&gt;Node5</title>
<path fill="none" stroke="midnightblue" d="M116.866,-51.9753C104.646,-42.1315 89.6539,-30.0545 79.1222,-21.5707"/>
<polygon fill="midnightblue" stroke="midnightblue" points="114.811,-54.8142 124.794,-58.3619 119.202,-49.3629 114.811,-54.8142"/>
</g>
<!-- Node6 -->
<g id="node11" class="node"><title>Node6</title>
<a xlink:href="../../df/d92/classgaia_1_1ui_1_1_quick_contact_badge.html" target="_top" xlink:title="Displays a button with an image (instead of text) that can be pressed or clicked by the user...">
<polygon fill="white" stroke="black" points="139,-0.5 139,-21.5 281,-21.5 281,-0.5 139,-0.5"/>
<text text-anchor="middle" x="210" y="-8.5" font-family="Helvetica,sans-Serif" font-size="10.00">gaia::ui::QuickContactBadge</text>
</a>
</g>
<!-- Node1&#45;&gt;Node6 -->
<g id="edge10" class="edge"><title>Node1&#45;&gt;Node6</title>
<path fill="none" stroke="midnightblue" d="M159.134,-51.9753C171.354,-42.1315 186.346,-30.0545 196.878,-21.5707"/>
<polygon fill="midnightblue" stroke="midnightblue" points="156.798,-49.3629 151.206,-58.3619 161.189,-54.8142 156.798,-49.3629"/>
</g>
<!-- Node2 -->
<g id="node2" class="node"><title>Node2</title>
<a xlink:href="../../d8/dac/classgaia_1_1core_1_1_widget.html" target="_top" xlink:title="The Widget class is the base class of all user interface component.">
<polygon fill="white" stroke="black" points="27,-116.5 27,-137.5 123,-137.5 123,-116.5 27,-116.5"/>
<text text-anchor="middle" x="75" y="-124.5" font-family="Helvetica,sans-Serif" font-size="10.00">gaia::core::Widget</text>
</a>
</g>
<!-- Node2&#45;&gt;Node1 -->
<g id="edge2" class="edge"><title>Node2&#45;&gt;Node1</title>
<path fill="none" stroke="midnightblue" d="M94.1118,-109.405C104.688,-99.6683 117.48,-87.8914 126.518,-79.5707"/>
<polygon fill="midnightblue" stroke="midnightblue" points="91.5416,-107.014 86.5552,-116.362 96.2828,-112.164 91.5416,-107.014"/>
</g>
<!-- Node3 -->
<g id="node4" class="node"><title>Node3</title>
<a xlink:href="../../d0/db2/classgaia_1_1core_1_1_property_animatable.html" target="_top" xlink:title="Any animation object need to implement PropertyAnimatable because of setting value.">
<polygon fill="white" stroke="black" points="-0.5,-174.5 -0.5,-195.5 150.5,-195.5 150.5,-174.5 -0.5,-174.5"/>
<text text-anchor="middle" x="75" y="-182.5" font-family="Helvetica,sans-Serif" font-size="10.00">gaia::core::PropertyAnimatable</text>
</a>
</g>
<!-- Node3&#45;&gt;Node2 -->
<g id="edge4" class="edge"><title>Node3&#45;&gt;Node2</title>
<path fill="none" stroke="midnightblue" d="M75,-164.191C75,-155.168 75,-144.994 75,-137.571"/>
<polygon fill="midnightblue" stroke="midnightblue" points="71.5001,-164.362 75,-174.362 78.5001,-164.362 71.5001,-164.362"/>
</g>
<!-- Node4 -->
<g id="node6" class="node"><title>Node4</title>
<a xlink:href="../../dd/de0/classgaia_1_1core_1_1_event_control.html" target="_top" xlink:title="EventControl is used to dispatch event and register listener.">
<polygon fill="white" stroke="black" points="141,-116.5 141,-137.5 263,-137.5 263,-116.5 141,-116.5"/>
<text text-anchor="middle" x="202" y="-124.5" font-family="Helvetica,sans-Serif" font-size="10.00">gaia::core::EventControl</text>
</a>
</g>
<!-- Node4&#45;&gt;Node1 -->
<g id="edge6" class="edge"><title>Node4&#45;&gt;Node1</title>
<path fill="none" stroke="midnightblue" d="M182.585,-109.405C171.841,-99.6683 158.846,-87.8914 149.664,-79.5707"/>
<polygon fill="midnightblue" stroke="midnightblue" points="180.501,-112.24 190.261,-116.362 185.202,-107.053 180.501,-112.24"/>
</g>
</g>
</svg>
