<?xml version="1.0" encoding="UTF-8" standalone="no"?>
<!DOCTYPE svg PUBLIC "-//W3C//DTD SVG 1.1//EN"
 "http://www.w3.org/Graphics/SVG/1.1/DTD/svg11.dtd">
<!-- Generated by graphviz version 2.26.3 (20100126.1600)
 -->
<!-- Title: G Pages: 1 -->
<svg width="1387pt" height="204pt"
 viewBox="0.00 0.00 1387.00 204.00" xmlns="http://www.w3.org/2000/svg" xmlns:xlink="http://www.w3.org/1999/xlink">
<g id="graph1" class="graph" transform="scale(1 1) rotate(0) translate(4 200)">
<title>G</title>
<polygon fill="white" stroke="white" points="-4,5 -4,-200 1384,-200 1384,5 -4,5"/>
<!-- Node1 -->
<g id="node1" class="node"><title>Node1</title>
<polygon fill="#bfbfbf" stroke="black" points="417.5,-174.5 417.5,-195.5 712.5,-195.5 712.5,-174.5 417.5,-174.5"/>
<text text-anchor="middle" x="565" y="-182.5" font-family="Helvetica,sans-Serif" font-size="10.00">/home/vilon_tao/gaia/sdk/include/gaia/core/event/MotionEvent.h</text>
</g>
<!-- Node2 -->
<g id="node3" class="node"><title>Node2</title>
<a xlink:href="../../d7/dca/_touch_helper_8h.html" target="_top" xlink:title="/home/vilon_tao/gaia/sdk/include/gaia/core/vision/TouchHelper.h">
<polygon fill="white" stroke="black" points="88.5,-116.5 88.5,-137.5 385.5,-137.5 385.5,-116.5 88.5,-116.5"/>
<text text-anchor="middle" x="237" y="-124.5" font-family="Helvetica,sans-Serif" font-size="10.00">/home/vilon_tao/gaia/sdk/include/gaia/core/vision/TouchHelper.h</text>
</a>
</g>
<!-- Node1&#45;&gt;Node2 -->
<g id="edge2" class="edge"><title>Node1&#45;&gt;Node2</title>
<path fill="none" stroke="midnightblue" d="M495.609,-172.73C436.533,-162.283 352.566,-147.435 296.51,-137.523"/>
<polygon fill="midnightblue" stroke="midnightblue" points="495.145,-176.202 505.602,-174.497 496.364,-169.309 495.145,-176.202"/>
</g>
<!-- Node3 -->
<g id="node5" class="node"><title>Node3</title>
<a xlink:href="../../d5/d96/_movement_method_8h.html" target="_top" xlink:title="/home/vilon_tao/gaia/sdk/include/gaia/text/method/MovementMethod.h">
<polygon fill="white" stroke="black" points="403,-116.5 403,-137.5 727,-137.5 727,-116.5 403,-116.5"/>
<text text-anchor="middle" x="565" y="-124.5" font-family="Helvetica,sans-Serif" font-size="10.00">/home/vilon_tao/gaia/sdk/include/gaia/text/method/MovementMethod.h</text>
</a>
</g>
<!-- Node1&#45;&gt;Node3 -->
<g id="edge4" class="edge"><title>Node1&#45;&gt;Node3</title>
<path fill="none" stroke="midnightblue" d="M565,-164.191C565,-155.168 565,-144.994 565,-137.571"/>
<polygon fill="midnightblue" stroke="midnightblue" points="561.5,-164.362 565,-174.362 568.5,-164.362 561.5,-164.362"/>
</g>
<!-- Node7 -->
<g id="node13" class="node"><title>Node7</title>
<a xlink:href="../../d6/d10/_web_view_8h.html" target="_top" xlink:title="/home/vilon_tao/gaia/sdk/include/gaia/webkit/WebView.h">
<polygon fill="white" stroke="black" points="782.5,-116.5 782.5,-137.5 1047.5,-137.5 1047.5,-116.5 782.5,-116.5"/>
<text text-anchor="middle" x="915" y="-124.5" font-family="Helvetica,sans-Serif" font-size="10.00">/home/vilon_tao/gaia/sdk/include/gaia/webkit/WebView.h</text>
</a>
</g>
<!-- Node1&#45;&gt;Node7 -->
<g id="edge12" class="edge"><title>Node1&#45;&gt;Node7</title>
<path fill="none" stroke="midnightblue" d="M638.265,-172.859C701.343,-162.406 791.436,-147.476 851.499,-137.523"/>
<polygon fill="midnightblue" stroke="midnightblue" points="637.676,-169.409 628.382,-174.497 638.82,-176.315 637.676,-169.409"/>
</g>
<!-- Node4 -->
<g id="node7" class="node"><title>Node4</title>
<a xlink:href="../../dd/dbe/_arrow_key_movement_method_8h.html" target="_top" xlink:title="/home/vilon_tao/gaia/sdk/include/gaia/text/method/ArrowKeyMovementMethod.h">
<polygon fill="white" stroke="black" points="-0.5,-58.5 -0.5,-79.5 366.5,-79.5 366.5,-58.5 -0.5,-58.5"/>
<text text-anchor="middle" x="183" y="-66.5" font-family="Helvetica,sans-Serif" font-size="10.00">/home/vilon_tao/gaia/sdk/include/gaia/text/method/ArrowKeyMovementMethod.h</text>
</a>
</g>
<!-- Node3&#45;&gt;Node4 -->
<g id="edge6" class="edge"><title>Node3&#45;&gt;Node4</title>
<path fill="none" stroke="midnightblue" d="M485.885,-114.988C417.002,-104.529 318.132,-89.5174 252.307,-79.5231"/>
<polygon fill="midnightblue" stroke="midnightblue" points="485.411,-118.456 495.823,-116.497 486.461,-111.535 485.411,-118.456"/>
</g>
<!-- Node5 -->
<g id="node9" class="node"><title>Node5</title>
<a xlink:href="../../df/d3c/_scrolling_movement_method_8h.html" target="_top" xlink:title="/home/vilon_tao/gaia/sdk/include/gaia/text/method/ScrollingMovementMethod.h">
<polygon fill="white" stroke="black" points="384,-58.5 384,-79.5 746,-79.5 746,-58.5 384,-58.5"/>
<text text-anchor="middle" x="565" y="-66.5" font-family="Helvetica,sans-Serif" font-size="10.00">/home/vilon_tao/gaia/sdk/include/gaia/text/method/ScrollingMovementMethod.h</text>
</a>
</g>
<!-- Node3&#45;&gt;Node5 -->
<g id="edge8" class="edge"><title>Node3&#45;&gt;Node5</title>
<path fill="none" stroke="midnightblue" d="M565,-106.191C565,-97.1684 565,-86.9941 565,-79.5707"/>
<polygon fill="midnightblue" stroke="midnightblue" points="561.5,-106.362 565,-116.362 568.5,-106.362 561.5,-106.362"/>
</g>
<!-- Node6 -->
<g id="node11" class="node"><title>Node6</title>
<a xlink:href="../../d8/dc4/_link_movement_method_8h.html" target="_top" xlink:title="/home/vilon_tao/gaia/sdk/include/gaia/text/method/LinkMovementMethod.h">
<polygon fill="white" stroke="black" points="394,-0.5 394,-21.5 736,-21.5 736,-0.5 394,-0.5"/>
<text text-anchor="middle" x="565" y="-8.5" font-family="Helvetica,sans-Serif" font-size="10.00">/home/vilon_tao/gaia/sdk/include/gaia/text/method/LinkMovementMethod.h</text>
</a>
</g>
<!-- Node5&#45;&gt;Node6 -->
<g id="edge10" class="edge"><title>Node5&#45;&gt;Node6</title>
<path fill="none" stroke="midnightblue" d="M565,-48.1906C565,-39.1684 565,-28.9941 565,-21.5707"/>
<polygon fill="midnightblue" stroke="midnightblue" points="561.5,-48.3619 565,-58.3619 568.5,-48.3619 561.5,-48.3619"/>
</g>
<!-- Node8 -->
<g id="node15" class="node"><title>Node8</title>
<a xlink:href="../../db/d4a/_web_chrome_client_8h.html" target="_top" xlink:title="/home/vilon_tao/gaia/sdk/include/gaia/webkit/WebChromeClient.h">
<polygon fill="white" stroke="black" points="763.5,-58.5 763.5,-79.5 1066.5,-79.5 1066.5,-58.5 763.5,-58.5"/>
<text text-anchor="middle" x="915" y="-66.5" font-family="Helvetica,sans-Serif" font-size="10.00">/home/vilon_tao/gaia/sdk/include/gaia/webkit/WebChromeClient.h</text>
</a>
</g>
<!-- Node7&#45;&gt;Node8 -->
<g id="edge14" class="edge"><title>Node7&#45;&gt;Node8</title>
<path fill="none" stroke="midnightblue" d="M915,-106.191C915,-97.1684 915,-86.9941 915,-79.5707"/>
<polygon fill="midnightblue" stroke="midnightblue" points="911.5,-106.362 915,-116.362 918.5,-106.362 911.5,-106.362"/>
</g>
<!-- Node9 -->
<g id="node17" class="node"><title>Node9</title>
<a xlink:href="../../d2/dcb/_web_settings_8h.html" target="_top" xlink:title="/home/vilon_tao/gaia/sdk/include/gaia/webkit/WebSettings.h">
<polygon fill="white" stroke="black" points="1083.5,-58.5 1083.5,-79.5 1362.5,-79.5 1362.5,-58.5 1083.5,-58.5"/>
<text text-anchor="middle" x="1223" y="-66.5" font-family="Helvetica,sans-Serif" font-size="10.00">/home/vilon_tao/gaia/sdk/include/gaia/webkit/WebSettings.h</text>
</a>
</g>
<!-- Node7&#45;&gt;Node9 -->
<g id="edge16" class="edge"><title>Node7&#45;&gt;Node9</title>
<path fill="none" stroke="midnightblue" d="M980.849,-114.6C1036.28,-104.161 1114.7,-89.3945 1167.12,-79.5231"/>
<polygon fill="midnightblue" stroke="midnightblue" points="979.956,-111.206 970.776,-116.497 981.251,-118.086 979.956,-111.206"/>
</g>
<!-- Node10 -->
<g id="node19" class="node"><title>Node10</title>
<a xlink:href="../../d0/dd7/_web_settings_classic_8h.html" target="_top" xlink:title="/home/vilon_tao/gaia/sdk/include/gaia/webkit/WebSettingsClassic.h">
<polygon fill="white" stroke="black" points="1067,-0.5 1067,-21.5 1379,-21.5 1379,-0.5 1067,-0.5"/>
<text text-anchor="middle" x="1223" y="-8.5" font-family="Helvetica,sans-Serif" font-size="10.00">/home/vilon_tao/gaia/sdk/include/gaia/webkit/WebSettingsClassic.h</text>
</a>
</g>
<!-- Node9&#45;&gt;Node10 -->
<g id="edge18" class="edge"><title>Node9&#45;&gt;Node10</title>
<path fill="none" stroke="midnightblue" d="M1223,-48.1906C1223,-39.1684 1223,-28.9941 1223,-21.5707"/>
<polygon fill="midnightblue" stroke="midnightblue" points="1219.5,-48.3619 1223,-58.3619 1226.5,-48.3619 1219.5,-48.3619"/>
</g>
</g>
</svg>
