<?xml version="1.0" encoding="UTF-8" standalone="no"?>
<!DOCTYPE svg PUBLIC "-//W3C//DTD SVG 1.1//EN"
 "http://www.w3.org/Graphics/SVG/1.1/DTD/svg11.dtd">
<!-- Generated by graphviz version 2.26.3 (20100126.1600)
 -->
<!-- Title: G Pages: 1 -->
<svg width="390pt" height="146pt"
 viewBox="0.00 0.00 390.00 146.00" xmlns="http://www.w3.org/2000/svg" xmlns:xlink="http://www.w3.org/1999/xlink">
<g id="graph1" class="graph" transform="scale(1 1) rotate(0) translate(4 142)">
<title>G</title>
<polygon fill="white" stroke="white" points="-4,5 -4,-142 387,-142 387,5 -4,5"/>
<!-- Node1 -->
<g id="node1" class="node"><title>Node1</title>
<polygon fill="#bfbfbf" stroke="black" points="-0.5,-116.5 -0.5,-137.5 382.5,-137.5 382.5,-116.5 -0.5,-116.5"/>
<text text-anchor="middle" x="191" y="-124.5" font-family="Helvetica,sans-Serif" font-size="10.00">/home/vilon_tao/gaia/sdk/include/gaia/connectivity/bluetooth/BluetoothInputDevice.h</text>
</g>
<!-- Node2 -->
<g id="node3" class="node"><title>Node2</title>
<polygon fill="white" stroke="#bfbfbf" points="51.5,-0.5 51.5,-21.5 100.5,-21.5 100.5,-0.5 51.5,-0.5"/>
<text text-anchor="middle" x="76" y="-8.5" font-family="Helvetica,sans-Serif" font-size="10.00">stdint.h</text>
</g>
<!-- Node1&#45;&gt;Node2 -->
<g id="edge2" class="edge"><title>Node1&#45;&gt;Node2</title>
<path fill="none" stroke="midnightblue" d="M130.141,-116.465C109.421,-109.653 88.3858,-98.4423 76,-80 66.6331,-66.0527 67.5295,-46.6778 70.2551,-32.0084"/>
<polygon fill="midnightblue" stroke="midnightblue" points="73.7547,-32.4026 72.5563,-21.8757 66.9285,-30.8523 73.7547,-32.4026"/>
</g>
<!-- Node3 -->
<g id="node5" class="node"><title>Node3</title>
<a xlink:href="../../d1/dd0/gmacros_8h.html" target="_top" xlink:title="gaia/base/gmacros.h">
<polygon fill="white" stroke="black" points="204.5,-0.5 204.5,-21.5 311.5,-21.5 311.5,-0.5 204.5,-0.5"/>
<text text-anchor="middle" x="258" y="-8.5" font-family="Helvetica,sans-Serif" font-size="10.00">gaia/base/gmacros.h</text>
</a>
</g>
<!-- Node1&#45;&gt;Node3 -->
<g id="edge4" class="edge"><title>Node1&#45;&gt;Node3</title>
<path fill="none" stroke="midnightblue" d="M251.859,-116.465C272.579,-109.653 293.614,-98.4423 306,-80 318.026,-62.0937 300.162,-41.862 282.916,-27.9598"/>
<polygon fill="midnightblue" stroke="midnightblue" points="284.716,-24.9327 274.632,-21.6815 280.488,-30.5114 284.716,-24.9327"/>
</g>
<!-- Node4 -->
<g id="node7" class="node"><title>Node4</title>
<a xlink:href="../../d6/dcc/_bluetooth_profile_8h.html" target="_top" xlink:title="gaia/connectivity/bluetooth/BluetoothProfile.h">
<polygon fill="white" stroke="black" points="84.5,-58.5 84.5,-79.5 297.5,-79.5 297.5,-58.5 84.5,-58.5"/>
<text text-anchor="middle" x="191" y="-66.5" font-family="Helvetica,sans-Serif" font-size="10.00">gaia/connectivity/bluetooth/BluetoothProfile.h</text>
</a>
</g>
<!-- Node1&#45;&gt;Node4 -->
<g id="edge6" class="edge"><title>Node1&#45;&gt;Node4</title>
<path fill="none" stroke="midnightblue" d="M191,-116.362C191,-108.922 191,-98.7427 191,-89.7276"/>
<polygon fill="midnightblue" stroke="midnightblue" points="194.5,-89.5706 191,-79.5707 187.5,-89.5707 194.5,-89.5706"/>
</g>
<!-- Node4&#45;&gt;Node2 -->
<g id="edge8" class="edge"><title>Node4&#45;&gt;Node2</title>
<path fill="none" stroke="midnightblue" d="M170.174,-58.4966C152.294,-49.4786 126.293,-36.3649 106.139,-26.2006"/>
<polygon fill="midnightblue" stroke="midnightblue" points="107.564,-22.9994 97.0593,-21.6212 104.412,-29.2495 107.564,-22.9994"/>
</g>
<!-- Node4&#45;&gt;Node3 -->
<g id="edge10" class="edge"><title>Node4&#45;&gt;Node3</title>
<path fill="none" stroke="midnightblue" d="M203.289,-58.3619C213.017,-49.9408 226.798,-38.0105 238.095,-28.2308"/>
<polygon fill="midnightblue" stroke="midnightblue" points="240.519,-30.7619 245.789,-21.5707 235.938,-25.4695 240.519,-30.7619"/>
</g>
</g>
</svg>
