<?xml version="1.0" encoding="UTF-8" standalone="no"?>
<!DOCTYPE svg PUBLIC "-//W3C//DTD SVG 1.1//EN"
 "http://www.w3.org/Graphics/SVG/1.1/DTD/svg11.dtd">
<!-- Generated by graphviz version 2.26.3 (20100126.1600)
 -->
<!-- Title: G Pages: 1 -->
<svg width="1086pt" height="195pt"
 viewBox="0.00 0.00 1086.00 194.93" xmlns="http://www.w3.org/2000/svg" xmlns:xlink="http://www.w3.org/1999/xlink">
<g id="graph1" class="graph" transform="scale(1 1) rotate(0) translate(4 190.935)">
<title>G</title>
<polygon fill="white" stroke="white" points="-4,5 -4,-190.935 1083,-190.935 1083,5 -4,5"/>
<!-- Node1 -->
<g id="node1" class="node"><title>Node1</title>
<polygon fill="#bfbfbf" stroke="black" points="557,-38.4349 557,-59.4349 667,-59.4349 667,-38.4349 557,-38.4349"/>
<text text-anchor="middle" x="612" y="-46.4349" font-family="Helvetica,sans-Serif" font-size="10.00">gaia::ui::Chronometer</text>
</g>
<!-- Node2 -->
<g id="node2" class="node"><title>Node2</title>
<a xlink:href="../../d8/dac/classgaia_1_1core_1_1_widget.html" target="_top" xlink:title="The Widget class is the base class of all user interface component.">
<polygon fill="white" stroke="black" points="244,-35.4349 244,-56.4349 340,-56.4349 340,-35.4349 244,-35.4349"/>
<text text-anchor="middle" x="292" y="-43.4349" font-family="Helvetica,sans-Serif" font-size="10.00">gaia::core::Widget</text>
</a>
</g>
<!-- Node2&#45;&gt;Node1 -->
<g id="edge2" class="edge"><title>Node2&#45;&gt;Node1</title>
<path fill="none" stroke="midnightblue" d="M350.498,-46.4833C409.319,-47.0347 499.316,-47.8785 556.9,-48.4183"/>
<polygon fill="midnightblue" stroke="midnightblue" points="350.286,-42.9812 340.254,-46.3873 350.22,-49.9809 350.286,-42.9812"/>
</g>
<!-- Node5 -->
<g id="node8" class="node"><title>Node5</title>
<a xlink:href="../../db/d6c/classgaia_1_1core_1_1_widget_controller.html" target="_top" xlink:title="Define the default widget layout to put sets of layout in it.">
<polygon fill="white" stroke="black" points="543,-80.4349 543,-101.435 681,-101.435 681,-80.4349 543,-80.4349"/>
<text text-anchor="middle" x="612" y="-88.4349" font-family="Helvetica,sans-Serif" font-size="10.00">gaia::core::WidgetController</text>
</a>
</g>
<!-- Node2&#45;&gt;Node5 -->
<g id="edge10" class="edge"><title>Node2&#45;&gt;Node5</title>
<path fill="none" stroke="midnightblue" d="M350.395,-54.1467C404.63,-61.7734 485.431,-73.1361 542.865,-81.2128"/>
<polygon fill="midnightblue" stroke="midnightblue" points="350.644,-50.6473 340.254,-52.7205 349.669,-57.5791 350.644,-50.6473"/>
</g>
<!-- Node3 -->
<g id="node4" class="node"><title>Node3</title>
<a xlink:href="../../d0/db2/classgaia_1_1core_1_1_property_animatable.html" target="_top" xlink:title="Any animation object need to implement PropertyAnimatable because of setting value.">
<polygon fill="white" stroke="black" points="0.5,-55.4349 0.5,-76.4349 151.5,-76.4349 151.5,-55.4349 0.5,-55.4349"/>
<text text-anchor="middle" x="76" y="-63.4349" font-family="Helvetica,sans-Serif" font-size="10.00">gaia::core::PropertyAnimatable</text>
</a>
</g>
<!-- Node3&#45;&gt;Node2 -->
<g id="edge4" class="edge"><title>Node3&#45;&gt;Node2</title>
<path fill="none" stroke="midnightblue" d="M161.729,-57.997C189.663,-55.4105 219.676,-52.6316 243.845,-50.3937"/>
<polygon fill="midnightblue" stroke="midnightblue" points="161.181,-54.5327 151.546,-58.9398 161.826,-61.5029 161.181,-54.5327"/>
</g>
<!-- Node4 -->
<g id="node6" class="node"><title>Node4</title>
<a xlink:href="../../d5/dfb/classgaia_1_1core_1_1_scene.html" target="_top" xlink:title="A Scene is used to build a visual interface.">
<polygon fill="white" stroke="black" points="814.5,-89.4349 814.5,-110.435 907.5,-110.435 907.5,-89.4349 814.5,-89.4349"/>
<text text-anchor="middle" x="861" y="-97.4349" font-family="Helvetica,sans-Serif" font-size="10.00">gaia::core::Scene</text>
</a>
</g>
<!-- Node4&#45;&gt;Node2 -->
<g id="edge6" class="edge"><title>Node4&#45;&gt;Node2</title>
<path fill="none" stroke="#9a32cd" stroke-dasharray="5,2" d="M839.854,-83.054C812.625,-62.5049 762.962,-28.9375 714,-15.9349 575.573,20.8264 403.18,-15.8223 328.883,-35.3749"/>
<polygon fill="#9a32cd" stroke="#9a32cd" points="837.816,-85.9025 847.876,-89.2258 842.084,-80.3542 837.816,-85.9025"/>
<text text-anchor="middle" x="612" y="-19.9349" font-family="Helvetica,sans-Serif" font-size="10.00"> mpScene</text>
</g>
<!-- Node4&#45;&gt;Node5 -->
<g id="edge14" class="edge"><title>Node4&#45;&gt;Node5</title>
<path fill="none" stroke="#9a32cd" stroke-dasharray="5,2" d="M826.484,-85.9279C816.785,-82.6349 806.121,-79.6012 796,-77.9349 753.026,-70.8595 703.782,-74.9706 667.059,-80.3795"/>
<polygon fill="#9a32cd" stroke="#9a32cd" points="825.583,-89.3231 836.178,-89.4069 827.948,-82.7346 825.583,-89.3231"/>
<text text-anchor="middle" x="764" y="-81.9349" font-family="Helvetica,sans-Serif" font-size="10.00"> mpScene</text>
</g>
<!-- Node11 -->
<g id="node23" class="node"><title>Node11</title>
<a xlink:href="../../db/d3f/classgaia_1_1core_1_1_page.html" target="_top" xlink:title="An page is a single, focused thing that the user can do.">
<polygon fill="white" stroke="black" points="990,-89.4349 990,-110.435 1078,-110.435 1078,-89.4349 990,-89.4349"/>
<text text-anchor="middle" x="1034" y="-97.4349" font-family="Helvetica,sans-Serif" font-size="10.00">gaia::core::Page</text>
</a>
</g>
<!-- Node4&#45;&gt;Node11 -->
<g id="edge28" class="edge"><title>Node4&#45;&gt;Node11</title>
<path fill="none" stroke="#9a32cd" stroke-dasharray="5,2" d="M917.951,-99.9349C941.324,-99.9349 967.968,-99.9349 989.826,-99.9349"/>
<polygon fill="#9a32cd" stroke="#9a32cd" points="917.816,-96.435 907.816,-99.9349 917.816,-103.435 917.816,-96.435"/>
<text text-anchor="middle" x="949" y="-103.935" font-family="Helvetica,sans-Serif" font-size="10.00"> mpScene</text>
</g>
<!-- Node5&#45;&gt;Node4 -->
<g id="edge8" class="edge"><title>Node5&#45;&gt;Node4</title>
<path fill="none" stroke="#9a32cd" stroke-dasharray="5,2" d="M691.166,-93.7963C731.716,-95.262 779.698,-96.9962 814.299,-98.2469"/>
<polygon fill="#9a32cd" stroke="#9a32cd" points="691.15,-90.2935 681.03,-93.4299 690.897,-97.2889 691.15,-90.2935"/>
<text text-anchor="middle" x="764" y="-100.935" font-family="Helvetica,sans-Serif" font-size="10.00"> mpController</text>
</g>
<!-- Node6 -->
<g id="node11" class="node"><title>Node6</title>
<a xlink:href="../../dd/de0/classgaia_1_1core_1_1_event_control.html" target="_top" xlink:title="EventControl is used to dispatch event and register listener.">
<polygon fill="white" stroke="black" points="231,-85.4349 231,-106.435 353,-106.435 353,-85.4349 231,-85.4349"/>
<text text-anchor="middle" x="292" y="-93.4349" font-family="Helvetica,sans-Serif" font-size="10.00">gaia::core::EventControl</text>
</a>
</g>
<!-- Node6&#45;&gt;Node5 -->
<g id="edge12" class="edge"><title>Node6&#45;&gt;Node5</title>
<path fill="none" stroke="midnightblue" d="M363.422,-94.8189C416.968,-93.9823 489.839,-92.8436 542.831,-92.0156"/>
<polygon fill="midnightblue" stroke="midnightblue" points="363.265,-91.3208 353.321,-94.9767 363.374,-98.32 363.265,-91.3208"/>
</g>
<!-- Node7 -->
<g id="node14" class="node"><title>Node7</title>
<a xlink:href="../../de/dad/classgaia_1_1content_1_1_resources.html" target="_top" xlink:title="Class for accessing an application&#39;s resources.">
<polygon fill="white" stroke="black" points="549,-165.435 549,-186.435 675,-186.435 675,-165.435 549,-165.435"/>
<text text-anchor="middle" x="612" y="-173.435" font-family="Helvetica,sans-Serif" font-size="10.00">gaia::content::Resources</text>
</a>
</g>
<!-- Node7&#45;&gt;Node4 -->
<g id="edge16" class="edge"><title>Node7&#45;&gt;Node4</title>
<path fill="none" stroke="#9a32cd" stroke-dasharray="5,2" d="M685.272,-167.187C719.682,-161.581 760.78,-152.694 796,-138.935 814.51,-131.704 833.798,-119.435 846.507,-110.586"/>
<polygon fill="#9a32cd" stroke="#9a32cd" points="684.626,-163.746 675.289,-168.753 685.711,-170.661 684.626,-163.746"/>
<text text-anchor="middle" x="764" y="-159.935" font-family="Helvetica,sans-Serif" font-size="10.00"> mpResources</text>
</g>
<!-- Node8 -->
<g id="node16" class="node"><title>Node8</title>
<a xlink:href="../../df/d5d/classgaia_1_1base_1_1_vector.html" target="_top" xlink:title="gaia::base::Vector\&lt; gaia::ui::DialogBox * \&gt;">
<polygon fill="white" stroke="black" points="510.5,-125.435 510.5,-146.435 713.5,-146.435 713.5,-125.435 510.5,-125.435"/>
<text text-anchor="middle" x="612" y="-133.435" font-family="Helvetica,sans-Serif" font-size="10.00">gaia::base::Vector&lt; gaia::ui::DialogBox * &gt;</text>
</a>
</g>
<!-- Node8&#45;&gt;Node4 -->
<g id="edge18" class="edge"><title>Node8&#45;&gt;Node4</title>
<path fill="none" stroke="#9a32cd" stroke-dasharray="5,2" d="M724.075,-124.223C747.878,-121.264 772.816,-117.809 796,-113.935 802.034,-112.927 808.356,-111.736 814.588,-110.481"/>
<polygon fill="#9a32cd" stroke="#9a32cd" points="723.454,-120.773 713.952,-125.461 724.303,-127.721 723.454,-120.773"/>
<text text-anchor="middle" x="764" y="-125.935" font-family="Helvetica,sans-Serif" font-size="10.00"> mDialogList</text>
</g>
<!-- Node9 -->
<g id="node18" class="node"><title>Node9</title>
<a xlink:href="../../d0/d21/classgaia_1_1base_1_1_vector_impl.html" target="_top" xlink:title="Implements vector data structure equipped with copy&#45;on&#45;write mechanism.">
<polygon fill="white" stroke="black" points="18.5,-145.435 18.5,-166.435 133.5,-166.435 133.5,-145.435 18.5,-145.435"/>
<text text-anchor="middle" x="76" y="-153.435" font-family="Helvetica,sans-Serif" font-size="10.00">gaia::base::VectorImpl</text>
</a>
</g>
<!-- Node9&#45;&gt;Node8 -->
<g id="edge20" class="edge"><title>Node9&#45;&gt;Node8</title>
<path fill="none" stroke="#8b1a1a" d="M143.899,-158.548C226.37,-161.007 369.645,-162.978 492,-152.935 510.14,-151.446 529.721,-149.022 547.7,-146.466"/>
<polygon fill="#8b1a1a" stroke="#8b1a1a" points="143.76,-155.042 133.657,-158.231 143.544,-162.039 143.76,-155.042"/>
</g>
<!-- Node10 -->
<g id="node20" class="node"><title>Node10</title>
<a xlink:href="../../df/d5d/classgaia_1_1base_1_1_vector.html" target="_top" xlink:title="This class implements the vector data structure.">
<polygon fill="white" stroke="black" points="222,-125.435 222,-146.435 362,-146.435 362,-125.435 222,-125.435"/>
<text text-anchor="middle" x="292" y="-133.435" font-family="Helvetica,sans-Serif" font-size="10.00">gaia::base::Vector&lt; TYPE &gt;</text>
</a>
</g>
<!-- Node9&#45;&gt;Node10 -->
<g id="edge24" class="edge"><title>Node9&#45;&gt;Node10</title>
<path fill="none" stroke="#8b1a1a" d="M143.676,-149.669C168.552,-147.365 196.761,-144.753 221.851,-142.43"/>
<polygon fill="#8b1a1a" stroke="#8b1a1a" points="143.235,-146.194 133.6,-150.602 143.88,-153.165 143.235,-146.194"/>
</g>
<!-- Node10&#45;&gt;Node8 -->
<g id="edge22" class="edge"><title>Node10&#45;&gt;Node8</title>
<path fill="none" stroke="orange" stroke-dasharray="5,2" d="M372.365,-135.935C414.198,-135.935 465.78,-135.935 510.358,-135.935"/>
<polygon fill="orange" stroke="orange" points="372.225,-132.435 362.225,-135.935 372.225,-139.435 372.225,-132.435"/>
<text text-anchor="middle" x="436" y="-139.935" font-family="Helvetica,sans-Serif" font-size="10.00"> &lt; gaia::ui::DialogBox * &gt;</text>
</g>
<!-- Node11&#45;&gt;Node4 -->
<g id="edge26" class="edge"><title>Node11&#45;&gt;Node4</title>
<path fill="none" stroke="#9a32cd" stroke-dasharray="5,2" d="M991.756,-86.7401C985.2,-85.1623 978.461,-83.8045 972,-82.9349 951.738,-80.2074 946.277,-80.3271 926,-82.9349 915.704,-84.2591 904.71,-86.7172 894.749,-89.3608"/>
<polygon fill="#9a32cd" stroke="#9a32cd" points="991.28,-90.2326 1001.84,-89.3622 993.042,-83.4579 991.28,-90.2326"/>
<text text-anchor="middle" x="949" y="-86.9349" font-family="Helvetica,sans-Serif" font-size="10.00"> mpPage</text>
</g>
<!-- Node12 -->
<g id="node26" class="node"><title>Node12</title>
<a xlink:href="../../db/d88/classgaia_1_1core_1_1_widget_tag.html" target="_top" xlink:title="gaia::core::WidgetTag">
<polygon fill="white" stroke="black" points="19.5,-15.4349 19.5,-36.4349 132.5,-36.4349 132.5,-15.4349 19.5,-15.4349"/>
<text text-anchor="middle" x="76" y="-23.4349" font-family="Helvetica,sans-Serif" font-size="10.00">gaia::core::WidgetTag</text>
</a>
</g>
<!-- Node12&#45;&gt;Node2 -->
<g id="edge30" class="edge"><title>Node12&#45;&gt;Node2</title>
<path fill="none" stroke="#9a32cd" stroke-dasharray="5,2" d="M142.84,-31.4731C162.544,-33.1614 184.145,-35.0665 204,-36.9349 216.844,-38.1434 230.733,-39.5279 243.599,-40.8426"/>
<polygon fill="#9a32cd" stroke="#9a32cd" points="142.989,-27.9732 132.728,-30.6113 142.395,-34.9479 142.989,-27.9732"/>
<text text-anchor="middle" x="187" y="-40.9349" font-family="Helvetica,sans-Serif" font-size="10.00"> mpTag</text>
</g>
</g>
</svg>
