<?xml version="1.0" encoding="UTF-8" standalone="no"?>
<!DOCTYPE svg PUBLIC "-//W3C//DTD SVG 1.1//EN"
 "http://www.w3.org/Graphics/SVG/1.1/DTD/svg11.dtd">
<!-- Generated by graphviz version 2.26.3 (20100126.1600)
 -->
<!-- Title: G Pages: 1 -->
<svg width="284pt" height="102pt"
 viewBox="0.00 0.00 284.00 102.00" xmlns="http://www.w3.org/2000/svg" xmlns:xlink="http://www.w3.org/1999/xlink">
<g id="graph1" class="graph" transform="scale(1 1) rotate(0) translate(4 98)">
<title>G</title>
<polygon fill="white" stroke="white" points="-4,5 -4,-98 281,-98 281,5 -4,5"/>
<!-- Node1 -->
<g id="node1" class="node"><title>Node1</title>
<polygon fill="#bfbfbf" stroke="black" points="17.5,-0.5 17.5,-21.5 180.5,-21.5 180.5,-0.5 17.5,-0.5"/>
<text text-anchor="middle" x="99" y="-8.5" font-family="Helvetica,sans-Serif" font-size="10.00">gaia::security::CipherInputStream</text>
</g>
<!-- Node2 -->
<g id="node2" class="node"><title>Node2</title>
<a xlink:href="../../db/d26/classgaia_1_1storage_1_1_input_stream.html" target="_top" xlink:title="gaia::storage::InputStream">
<polygon fill="white" stroke="black" points="0,-72.5 0,-93.5 132,-93.5 132,-72.5 0,-72.5"/>
<text text-anchor="middle" x="66" y="-80.5" font-family="Helvetica,sans-Serif" font-size="10.00">gaia::storage::InputStream</text>
</a>
</g>
<!-- Node2&#45;&gt;Node1 -->
<g id="edge2" class="edge"><title>Node2&#45;&gt;Node1</title>
<path fill="none" stroke="midnightblue" d="M71.4241,-62.6131C73.6795,-55.3148 76.5771,-47.1336 80,-40 83.0726,-33.5965 87.3494,-26.9348 91.0676,-21.6134"/>
<polygon fill="midnightblue" stroke="midnightblue" points="67.9955,-61.8714 68.5927,-72.4494 74.7224,-63.8078 67.9955,-61.8714"/>
</g>
<!-- Node2&#45;&gt;Node1 -->
<g id="edge4" class="edge"><title>Node2&#45;&gt;Node1</title>
<path fill="none" stroke="#9a32cd" stroke-dasharray="5,2" d="M75.1545,-63.0266C81.2912,-49.6374 89.1312,-32.5318 94.1108,-21.6674"/>
<polygon fill="#9a32cd" stroke="#9a32cd" points="71.8541,-61.8272 70.8693,-72.3762 78.2176,-64.7438 71.8541,-61.8272"/>
<text text-anchor="middle" x="121" y="-44.5" font-family="Helvetica,sans-Serif" font-size="10.00"> mpInputStream</text>
</g>
<!-- Node3 -->
<g id="node5" class="node"><title>Node3</title>
<a xlink:href="../../d3/db5/classgaia_1_1security_1_1_secret_key.html" target="_top" xlink:title="Provide interface for symmetrical encryption.">
<polygon fill="white" stroke="black" points="149.5,-72.5 149.5,-93.5 276.5,-93.5 276.5,-72.5 149.5,-72.5"/>
<text text-anchor="middle" x="213" y="-80.5" font-family="Helvetica,sans-Serif" font-size="10.00">gaia::security::SecretKey</text>
</a>
</g>
<!-- Node3&#45;&gt;Node1 -->
<g id="edge6" class="edge"><title>Node3&#45;&gt;Node1</title>
<path fill="none" stroke="#9a32cd" stroke-dasharray="5,2" d="M193.602,-65.3954C183.92,-57.1054 171.782,-47.4311 160,-40 148.892,-32.9938 135.827,-26.5673 124.645,-21.5542"/>
<polygon fill="#9a32cd" stroke="#9a32cd" points="191.58,-68.2766 201.408,-72.233 196.192,-63.0111 191.58,-68.2766"/>
<text text-anchor="middle" x="209.5" y="-44.5" font-family="Helvetica,sans-Serif" font-size="10.00"> mpSecretKey</text>
</g>
</g>
</svg>
