<?xml version="1.0" encoding="UTF-8" standalone="no"?>
<!DOCTYPE svg PUBLIC "-//W3C//DTD SVG 1.1//EN"
 "http://www.w3.org/Graphics/SVG/1.1/DTD/svg11.dtd">
<!-- Generated by graphviz version 2.26.3 (20100126.1600)
 -->
<!-- Title: G Pages: 1 -->
<svg width="354pt" height="146pt"
 viewBox="0.00 0.00 354.00 146.00" xmlns="http://www.w3.org/2000/svg" xmlns:xlink="http://www.w3.org/1999/xlink">
<g id="graph1" class="graph" transform="scale(1 1) rotate(0) translate(4 142)">
<title>G</title>
<polygon fill="white" stroke="white" points="-4,5 -4,-142 351,-142 351,5 -4,5"/>
<!-- Node1 -->
<g id="node1" class="node"><title>Node1</title>
<polygon fill="#bfbfbf" stroke="black" points="-0.5,-116.5 -0.5,-137.5 326.5,-137.5 326.5,-116.5 -0.5,-116.5"/>
<text text-anchor="middle" x="163" y="-124.5" font-family="Helvetica,sans-Serif" font-size="10.00">/home/vilon_tao/gaia/sdk/include/gaia/media/MediaMetadataRetriever.h</text>
</g>
<!-- Node2 -->
<g id="node3" class="node"><title>Node2</title>
<polygon fill="white" stroke="#bfbfbf" points="43.5,-58.5 43.5,-79.5 92.5,-79.5 92.5,-58.5 43.5,-58.5"/>
<text text-anchor="middle" x="68" y="-66.5" font-family="Helvetica,sans-Serif" font-size="10.00">stdint.h</text>
</g>
<!-- Node1&#45;&gt;Node2 -->
<g id="edge2" class="edge"><title>Node1&#45;&gt;Node2</title>
<path fill="none" stroke="midnightblue" d="M145.576,-116.362C131.113,-107.532 110.331,-94.844 93.916,-84.8224"/>
<polygon fill="midnightblue" stroke="midnightblue" points="95.6729,-81.7943 85.314,-79.5707 92.0252,-87.7688 95.6729,-81.7943"/>
</g>
<!-- Node3 -->
<g id="node5" class="node"><title>Node3</title>
<a xlink:href="../../d1/dd0/gmacros_8h.html" target="_top" xlink:title="gaia/base/gmacros.h">
<polygon fill="white" stroke="black" points="109.5,-58.5 109.5,-79.5 216.5,-79.5 216.5,-58.5 109.5,-58.5"/>
<text text-anchor="middle" x="163" y="-66.5" font-family="Helvetica,sans-Serif" font-size="10.00">gaia/base/gmacros.h</text>
</a>
</g>
<!-- Node1&#45;&gt;Node3 -->
<g id="edge4" class="edge"><title>Node1&#45;&gt;Node3</title>
<path fill="none" stroke="midnightblue" d="M163,-116.362C163,-108.922 163,-98.7427 163,-89.7276"/>
<polygon fill="midnightblue" stroke="midnightblue" points="166.5,-89.5706 163,-79.5707 159.5,-89.5707 166.5,-89.5706"/>
</g>
<!-- Node4 -->
<g id="node7" class="node"><title>Node4</title>
<a xlink:href="../../d1/d97/_byte_array_8h.html" target="_top" xlink:title="gaia/base/ByteArray.h">
<polygon fill="white" stroke="black" points="233.5,-58.5 233.5,-79.5 346.5,-79.5 346.5,-58.5 233.5,-58.5"/>
<text text-anchor="middle" x="290" y="-66.5" font-family="Helvetica,sans-Serif" font-size="10.00">gaia/base/ByteArray.h</text>
</a>
</g>
<!-- Node1&#45;&gt;Node4 -->
<g id="edge6" class="edge"><title>Node1&#45;&gt;Node4</title>
<path fill="none" stroke="midnightblue" d="M185.999,-116.497C206.013,-107.356 235.241,-94.0082 257.619,-83.7883"/>
<polygon fill="midnightblue" stroke="midnightblue" points="259.101,-86.9592 266.743,-79.6212 256.193,-80.5918 259.101,-86.9592"/>
</g>
<!-- Node5 -->
<g id="node9" class="node"><title>Node5</title>
<polygon fill="white" stroke="#bfbfbf" points="256,-0.5 256,-21.5 324,-21.5 324,-0.5 256,-0.5"/>
<text text-anchor="middle" x="290" y="-8.5" font-family="Helvetica,sans-Serif" font-size="10.00">sys/types.h</text>
</g>
<!-- Node4&#45;&gt;Node5 -->
<g id="edge8" class="edge"><title>Node4&#45;&gt;Node5</title>
<path fill="none" stroke="midnightblue" d="M290,-58.3619C290,-50.9219 290,-40.7427 290,-31.7276"/>
<polygon fill="midnightblue" stroke="midnightblue" points="293.5,-31.5706 290,-21.5707 286.5,-31.5707 293.5,-31.5706"/>
</g>
</g>
</svg>
