<?xml version="1.0" encoding="UTF-8" standalone="no"?>
<!DOCTYPE svg PUBLIC "-//W3C//DTD SVG 1.1//EN"
 "http://www.w3.org/Graphics/SVG/1.1/DTD/svg11.dtd">
<!-- Generated by graphviz version 2.26.3 (20100126.1600)
 -->
<!-- Title: G Pages: 1 -->
<svg width="322pt" height="146pt"
 viewBox="0.00 0.00 322.00 146.00" xmlns="http://www.w3.org/2000/svg" xmlns:xlink="http://www.w3.org/1999/xlink">
<g id="graph1" class="graph" transform="scale(1 1) rotate(0) translate(4 142)">
<title>G</title>
<polygon fill="white" stroke="white" points="-4,5 -4,-142 319,-142 319,5 -4,5"/>
<!-- Node1 -->
<g id="node1" class="node"><title>Node1</title>
<polygon fill="#bfbfbf" stroke="black" points="-0.5,-116.5 -0.5,-137.5 314.5,-137.5 314.5,-116.5 -0.5,-116.5"/>
<text text-anchor="middle" x="157" y="-124.5" font-family="Helvetica,sans-Serif" font-size="10.00">/home/vilon_tao/gaia/sdk/include/gaia/storage/ParcelFileDescriptor.h</text>
</g>
<!-- Node2 -->
<g id="node3" class="node"><title>Node2</title>
<a xlink:href="../../d4/d71/_file_input_stream_8h.html" target="_top" xlink:title="gaia/storage/FileInputStream.h">
<polygon fill="white" stroke="black" points="19,-58.5 19,-79.5 169,-79.5 169,-58.5 19,-58.5"/>
<text text-anchor="middle" x="94" y="-66.5" font-family="Helvetica,sans-Serif" font-size="10.00">gaia/storage/FileInputStream.h</text>
</a>
</g>
<!-- Node1&#45;&gt;Node2 -->
<g id="edge2" class="edge"><title>Node1&#45;&gt;Node2</title>
<path fill="none" stroke="midnightblue" d="M145.445,-116.362C136.387,-108.023 123.59,-96.2418 113.026,-86.5162"/>
<polygon fill="midnightblue" stroke="midnightblue" points="115.21,-83.7688 105.482,-79.5707 110.468,-88.9187 115.21,-83.7688"/>
</g>
<!-- Node4 -->
<g id="node7" class="node"><title>Node4</title>
<polygon fill="white" stroke="#bfbfbf" points="187,-58.5 187,-79.5 255,-79.5 255,-58.5 187,-58.5"/>
<text text-anchor="middle" x="221" y="-66.5" font-family="Helvetica,sans-Serif" font-size="10.00">sys/types.h</text>
</g>
<!-- Node1&#45;&gt;Node4 -->
<g id="edge6" class="edge"><title>Node1&#45;&gt;Node4</title>
<path fill="none" stroke="midnightblue" d="M168.739,-116.362C177.941,-108.023 190.94,-96.2418 201.672,-86.5162"/>
<polygon fill="midnightblue" stroke="midnightblue" points="204.276,-88.8793 209.336,-79.5707 199.576,-83.6924 204.276,-88.8793"/>
</g>
<!-- Node3 -->
<g id="node5" class="node"><title>Node3</title>
<a xlink:href="../../d0/dd7/_input_stream_8h.html" target="_top" xlink:title="gaia/storage/InputStream.h">
<polygon fill="white" stroke="black" points="27,-0.5 27,-21.5 161,-21.5 161,-0.5 27,-0.5"/>
<text text-anchor="middle" x="94" y="-8.5" font-family="Helvetica,sans-Serif" font-size="10.00">gaia/storage/InputStream.h</text>
</a>
</g>
<!-- Node2&#45;&gt;Node3 -->
<g id="edge4" class="edge"><title>Node2&#45;&gt;Node3</title>
<path fill="none" stroke="midnightblue" d="M94,-58.3619C94,-50.9219 94,-40.7427 94,-31.7276"/>
<polygon fill="midnightblue" stroke="midnightblue" points="97.5001,-31.5706 94,-21.5707 90.5001,-31.5707 97.5001,-31.5706"/>
</g>
</g>
</svg>
