<?xml version="1.0" encoding="UTF-8" standalone="no"?>
<!DOCTYPE svg PUBLIC "-//W3C//DTD SVG 1.1//EN"
 "http://www.w3.org/Graphics/SVG/1.1/DTD/svg11.dtd">
<!-- Generated by graphviz version 2.26.3 (20100126.1600)
 -->
<!-- Title: G Pages: 1 -->
<svg width="847pt" height="204pt"
 viewBox="0.00 0.00 847.23 204.00" xmlns="http://www.w3.org/2000/svg" xmlns:xlink="http://www.w3.org/1999/xlink">
<g id="graph1" class="graph" transform="scale(1 1) rotate(0) translate(4 200)">
<title>G</title>
<polygon fill="white" stroke="white" points="-4,5 -4,-200 844.228,-200 844.228,5 -4,5"/>
<!-- Node1 -->
<g id="node1" class="node"><title>Node1</title>
<polygon fill="#bfbfbf" stroke="black" points="61.7283,-174.5 61.7283,-195.5 334.728,-195.5 334.728,-174.5 61.7283,-174.5"/>
<text text-anchor="middle" x="198.228" y="-182.5" font-family="Helvetica,sans-Serif" font-size="10.00">/home/vilon_tao/gaia/sdk/include/gaia/core/PageManager.h</text>
</g>
<!-- Node2 -->
<g id="node3" class="node"><title>Node2</title>
<a xlink:href="../../d3/dc5/_array_8h.html" target="_top" xlink:title="gaia/base/Array.h">
<polygon fill="white" stroke="black" points="598.728,-116.5 598.728,-137.5 691.728,-137.5 691.728,-116.5 598.728,-116.5"/>
<text text-anchor="middle" x="645.228" y="-124.5" font-family="Helvetica,sans-Serif" font-size="10.00">gaia/base/Array.h</text>
</a>
</g>
<!-- Node1&#45;&gt;Node2 -->
<g id="edge2" class="edge"><title>Node1&#45;&gt;Node2</title>
<path fill="none" stroke="midnightblue" d="M279.177,-174.497C368.505,-162.906 509.976,-144.55 588.312,-134.385"/>
<polygon fill="midnightblue" stroke="midnightblue" points="589.005,-137.825 598.471,-133.067 588.104,-130.883 589.005,-137.825"/>
</g>
<!-- Node4 -->
<g id="node7" class="node"><title>Node4</title>
<polygon fill="white" stroke="#bfbfbf" points="351.228,-0.5 351.228,-21.5 419.228,-21.5 419.228,-0.5 351.228,-0.5"/>
<text text-anchor="middle" x="385.228" y="-8.5" font-family="Helvetica,sans-Serif" font-size="10.00">sys/types.h</text>
</g>
<!-- Node1&#45;&gt;Node4 -->
<g id="edge46" class="edge"><title>Node1&#45;&gt;Node4</title>
<path fill="none" stroke="midnightblue" d="M112.397,-174.459C67.7872,-167.028 19.7872,-155.278 6.22833,-138 -13.1953,-113.248 18.9499,-69.0714 34.2283,-58 82.3289,-23.1443 257.801,-14.1297 340.952,-11.8047"/>
<polygon fill="midnightblue" stroke="midnightblue" points="341.191,-15.2997 351.097,-11.5415 341.01,-8.30208 341.191,-15.2997"/>
</g>
<!-- Node9 -->
<g id="node19" class="node"><title>Node9</title>
<a xlink:href="../../db/db5/_string_8h.html" target="_top" xlink:title="gaia/base/String.h">
<polygon fill="white" stroke="black" points="150.728,-116.5 150.728,-137.5 245.728,-137.5 245.728,-116.5 150.728,-116.5"/>
<text text-anchor="middle" x="198.228" y="-124.5" font-family="Helvetica,sans-Serif" font-size="10.00">gaia/base/String.h</text>
</a>
</g>
<!-- Node1&#45;&gt;Node9 -->
<g id="edge20" class="edge"><title>Node1&#45;&gt;Node9</title>
<path fill="none" stroke="midnightblue" d="M198.228,-174.362C198.228,-166.922 198.228,-156.743 198.228,-147.728"/>
<polygon fill="midnightblue" stroke="midnightblue" points="201.728,-147.571 198.228,-137.571 194.728,-147.571 201.728,-147.571"/>
</g>
<!-- Node12 -->
<g id="node28" class="node"><title>Node12</title>
<a xlink:href="../../db/d53/_string_array_8h.html" target="_top" xlink:title="gaia/base/StringArray.h">
<polygon fill="white" stroke="black" points="14.7283,-116.5 14.7283,-137.5 133.728,-137.5 133.728,-116.5 14.7283,-116.5"/>
<text text-anchor="middle" x="74.2283" y="-124.5" font-family="Helvetica,sans-Serif" font-size="10.00">gaia/base/StringArray.h</text>
</a>
</g>
<!-- Node1&#45;&gt;Node12 -->
<g id="edge32" class="edge"><title>Node1&#45;&gt;Node12</title>
<path fill="none" stroke="midnightblue" d="M175.773,-174.497C156.318,-165.397 127.949,-152.127 106.138,-141.925"/>
<polygon fill="midnightblue" stroke="midnightblue" points="107.477,-138.688 96.9358,-137.621 104.511,-145.028 107.477,-138.688"/>
</g>
<!-- Node13 -->
<g id="node31" class="node"><title>Node13</title>
<a xlink:href="../../d4/d7f/_vector_8h.html" target="_top" xlink:title="gaia/base/Vector.h">
<polygon fill="white" stroke="black" points="379.228,-116.5 379.228,-137.5 477.228,-137.5 477.228,-116.5 379.228,-116.5"/>
<text text-anchor="middle" x="428.228" y="-124.5" font-family="Helvetica,sans-Serif" font-size="10.00">gaia/base/Vector.h</text>
</a>
</g>
<!-- Node1&#45;&gt;Node13 -->
<g id="edge36" class="edge"><title>Node1&#45;&gt;Node13</title>
<path fill="none" stroke="midnightblue" d="M239.88,-174.497C278.269,-164.816 335.373,-150.416 376.635,-140.01"/>
<polygon fill="midnightblue" stroke="midnightblue" points="377.658,-143.362 386.499,-137.523 375.947,-136.575 377.658,-143.362"/>
</g>
<!-- Node3 -->
<g id="node5" class="node"><title>Node3</title>
<a xlink:href="../../d8/dae/_array_impl_8h.html" target="_top" xlink:title="gaia/base/ArrayImpl.h">
<polygon fill="white" stroke="black" points="547.228,-58.5 547.228,-79.5 659.228,-79.5 659.228,-58.5 547.228,-58.5"/>
<text text-anchor="middle" x="603.228" y="-66.5" font-family="Helvetica,sans-Serif" font-size="10.00">gaia/base/ArrayImpl.h</text>
</a>
</g>
<!-- Node2&#45;&gt;Node3 -->
<g id="edge4" class="edge"><title>Node2&#45;&gt;Node3</title>
<path fill="none" stroke="midnightblue" d="M637.525,-116.362C631.782,-108.431 623.786,-97.3885 616.958,-87.9606"/>
<polygon fill="midnightblue" stroke="midnightblue" points="619.583,-85.6173 610.883,-79.5707 613.913,-89.7229 619.583,-85.6173"/>
</g>
<!-- Node2&#45;&gt;Node4 -->
<g id="edge18" class="edge"><title>Node2&#45;&gt;Node4</title>
<path fill="none" stroke="midnightblue" d="M654.38,-116.462C665.965,-101.807 682.761,-75.1457 668.228,-58 652.984,-40.0157 505.476,-22.9235 429.695,-15.242"/>
<polygon fill="midnightblue" stroke="midnightblue" points="429.798,-11.7349 419.499,-14.2215 429.1,-18.7001 429.798,-11.7349"/>
</g>
<!-- Node5 -->
<g id="node9" class="node"><title>Node5</title>
<a xlink:href="../../d1/d86/_type_helpers_8h.html" target="_top" xlink:title="gaia/base/TypeHelpers.h">
<polygon fill="white" stroke="black" points="714.728,-58.5 714.728,-79.5 839.728,-79.5 839.728,-58.5 714.728,-58.5"/>
<text text-anchor="middle" x="777.228" y="-66.5" font-family="Helvetica,sans-Serif" font-size="10.00">gaia/base/TypeHelpers.h</text>
</a>
</g>
<!-- Node2&#45;&gt;Node5 -->
<g id="edge8" class="edge"><title>Node2&#45;&gt;Node5</title>
<path fill="none" stroke="midnightblue" d="M669.133,-116.497C690.028,-107.315 720.585,-93.8889 743.883,-83.6516"/>
<polygon fill="midnightblue" stroke="midnightblue" points="745.309,-86.8483 753.056,-79.6212 742.493,-80.4397 745.309,-86.8483"/>
</g>
<!-- Node3&#45;&gt;Node4 -->
<g id="edge6" class="edge"><title>Node3&#45;&gt;Node4</title>
<path fill="none" stroke="midnightblue" d="M563.75,-58.4966C525.825,-48.4064 468.628,-33.1888 429.25,-22.7121"/>
<polygon fill="midnightblue" stroke="midnightblue" points="429.959,-19.2792 419.396,-20.0904 428.16,-26.0439 429.959,-19.2792"/>
</g>
<!-- Node5&#45;&gt;Node4 -->
<g id="edge14" class="edge"><title>Node5&#45;&gt;Node4</title>
<path fill="none" stroke="midnightblue" d="M714.681,-59.7456C635.01,-47.9576 499.315,-27.8801 429.544,-17.5569"/>
<polygon fill="midnightblue" stroke="midnightblue" points="429.742,-14.0481 419.337,-16.0467 428.717,-20.9727 429.742,-14.0481"/>
</g>
<!-- Node6 -->
<g id="node11" class="node"><title>Node6</title>
<polygon fill="white" stroke="#bfbfbf" points="561.728,-0.5 561.728,-21.5 610.728,-21.5 610.728,-0.5 561.728,-0.5"/>
<text text-anchor="middle" x="586.228" y="-8.5" font-family="Helvetica,sans-Serif" font-size="10.00">stdint.h</text>
</g>
<!-- Node5&#45;&gt;Node6 -->
<g id="edge10" class="edge"><title>Node5&#45;&gt;Node6</title>
<path fill="none" stroke="midnightblue" d="M742.64,-58.4966C708.003,-47.9787 655.02,-31.8896 620.497,-21.4062"/>
<polygon fill="midnightblue" stroke="midnightblue" points="621.434,-18.0329 610.848,-18.4762 619.4,-24.7309 621.434,-18.0329"/>
</g>
<!-- Node7 -->
<g id="node13" class="node"><title>Node7</title>
<polygon fill="white" stroke="#bfbfbf" points="722.728,-0.5 722.728,-21.5 771.728,-21.5 771.728,-0.5 722.728,-0.5"/>
<text text-anchor="middle" x="747.228" y="-8.5" font-family="Helvetica,sans-Serif" font-size="10.00">string.h</text>
</g>
<!-- Node5&#45;&gt;Node7 -->
<g id="edge12" class="edge"><title>Node5&#45;&gt;Node7</title>
<path fill="none" stroke="midnightblue" d="M771.726,-58.3619C767.708,-50.5949 762.147,-39.8426 757.338,-30.5458"/>
<polygon fill="midnightblue" stroke="midnightblue" points="760.399,-28.8448 752.696,-21.5707 754.181,-32.0608 760.399,-28.8448"/>
</g>
<!-- Node8 -->
<g id="node16" class="node"><title>Node8</title>
<polygon fill="white" stroke="#bfbfbf" points="788.728,-0.5 788.728,-21.5 823.728,-21.5 823.728,-0.5 788.728,-0.5"/>
<text text-anchor="middle" x="806.228" y="-8.5" font-family="Helvetica,sans-Serif" font-size="10.00">new</text>
</g>
<!-- Node5&#45;&gt;Node8 -->
<g id="edge16" class="edge"><title>Node5&#45;&gt;Node8</title>
<path fill="none" stroke="midnightblue" d="M782.547,-58.3619C786.431,-50.5949 791.807,-39.8426 796.455,-30.5458"/>
<polygon fill="midnightblue" stroke="midnightblue" points="799.601,-32.0802 800.943,-21.5707 793.34,-28.9497 799.601,-32.0802"/>
</g>
<!-- Node9&#45;&gt;Node4 -->
<g id="edge30" class="edge"><title>Node9&#45;&gt;Node4</title>
<path fill="none" stroke="midnightblue" d="M197.562,-116.337C197.234,-101.285 198.981,-73.8756 214.228,-58 231.64,-39.8711 296.405,-25.7479 341.035,-17.8957"/>
<polygon fill="midnightblue" stroke="midnightblue" points="341.801,-21.3155 351.066,-16.176 340.618,-14.4162 341.801,-21.3155"/>
</g>
<!-- Node10 -->
<g id="node21" class="node"><title>Node10</title>
<a xlink:href="../../d7/d97/_char_sequence_8h.html" target="_top" xlink:title="gaia/base/CharSequence.h">
<polygon fill="white" stroke="black" points="223.228,-58.5 223.228,-79.5 357.228,-79.5 357.228,-58.5 223.228,-58.5"/>
<text text-anchor="middle" x="290.228" y="-66.5" font-family="Helvetica,sans-Serif" font-size="10.00">gaia/base/CharSequence.h</text>
</a>
</g>
<!-- Node9&#45;&gt;Node10 -->
<g id="edge22" class="edge"><title>Node9&#45;&gt;Node10</title>
<path fill="none" stroke="midnightblue" d="M215.103,-116.362C228.979,-107.614 248.862,-95.0786 264.688,-85.1015"/>
<polygon fill="midnightblue" stroke="midnightblue" points="266.868,-87.8645 273.461,-79.5707 263.135,-81.943 266.868,-87.8645"/>
</g>
<!-- Node11 -->
<g id="node24" class="node"><title>Node11</title>
<a xlink:href="../../d6/d83/_hash_func_8h.html" target="_top" xlink:title="gaia/base/HashFunc.h">
<polygon fill="white" stroke="black" points="52.7283,-58.5 52.7283,-79.5 167.728,-79.5 167.728,-58.5 52.7283,-58.5"/>
<text text-anchor="middle" x="110.228" y="-66.5" font-family="Helvetica,sans-Serif" font-size="10.00">gaia/base/HashFunc.h</text>
</a>
</g>
<!-- Node9&#45;&gt;Node11 -->
<g id="edge26" class="edge"><title>Node9&#45;&gt;Node11</title>
<path fill="none" stroke="midnightblue" d="M182.088,-116.362C168.815,-107.614 149.796,-95.0786 134.658,-85.1015"/>
<polygon fill="midnightblue" stroke="midnightblue" points="136.542,-82.1515 126.267,-79.5707 132.69,-87.9962 136.542,-82.1515"/>
</g>
<!-- Node10&#45;&gt;Node6 -->
<g id="edge24" class="edge"><title>Node10&#45;&gt;Node6</title>
<path fill="none" stroke="midnightblue" d="M343.832,-58.4966C404.15,-46.6775 500.372,-27.8233 551.557,-17.7938"/>
<polygon fill="midnightblue" stroke="midnightblue" points="552.328,-21.2093 561.468,-15.8517 550.982,-14.34 552.328,-21.2093"/>
</g>
<!-- Node11&#45;&gt;Node4 -->
<g id="edge28" class="edge"><title>Node11&#45;&gt;Node4</title>
<path fill="none" stroke="midnightblue" d="M160.029,-58.4966C211.616,-47.6164 291.469,-30.7746 340.928,-20.3433"/>
<polygon fill="midnightblue" stroke="midnightblue" points="341.937,-23.7075 351,-18.2191 340.493,-16.8582 341.937,-23.7075"/>
</g>
<!-- Node12&#45;&gt;Node4 -->
<g id="edge34" class="edge"><title>Node12&#45;&gt;Node4</title>
<path fill="none" stroke="midnightblue" d="M62.8448,-116.074C48.9669,-101.445 29.1226,-75.3306 44.2283,-58 63.4721,-35.9219 253.196,-20.097 341.027,-13.8944"/>
<polygon fill="midnightblue" stroke="midnightblue" points="341.481,-17.3713 351.214,-13.1859 340.995,-10.3882 341.481,-17.3713"/>
</g>
<!-- Node13&#45;&gt;Node4 -->
<g id="edge44" class="edge"><title>Node13&#45;&gt;Node4</title>
<path fill="none" stroke="midnightblue" d="M422.06,-116.459C416.785,-107.117 409.27,-92.9817 404.228,-80 398.124,-64.2806 393.152,-45.8353 389.827,-31.9726"/>
<polygon fill="midnightblue" stroke="midnightblue" points="393.18,-30.9357 387.524,-21.977 386.359,-32.5075 393.18,-30.9357"/>
</g>
<!-- Node13&#45;&gt;Node5 -->
<g id="edge38" class="edge"><title>Node13&#45;&gt;Node5</title>
<path fill="none" stroke="midnightblue" d="M477.491,-118.813C536.648,-108.982 636.389,-92.4059 704.434,-81.0976"/>
<polygon fill="midnightblue" stroke="midnightblue" points="705.362,-84.4914 714.653,-79.3993 704.215,-77.5862 705.362,-84.4914"/>
</g>
<!-- Node14 -->
<g id="node34" class="node"><title>Node14</title>
<a xlink:href="../../dc/da9/_vector_impl_8h.html" target="_top" xlink:title="gaia/base/VectorImpl.h">
<polygon fill="white" stroke="black" points="412.728,-58.5 412.728,-79.5 529.728,-79.5 529.728,-58.5 412.728,-58.5"/>
<text text-anchor="middle" x="471.228" y="-66.5" font-family="Helvetica,sans-Serif" font-size="10.00">gaia/base/VectorImpl.h</text>
</a>
</g>
<!-- Node13&#45;&gt;Node14 -->
<g id="edge40" class="edge"><title>Node13&#45;&gt;Node14</title>
<path fill="none" stroke="midnightblue" d="M436.115,-116.362C442.055,-108.35 450.351,-97.1605 457.387,-87.6696"/>
<polygon fill="midnightblue" stroke="midnightblue" points="460.247,-89.6883 463.391,-79.5707 454.624,-85.5193 460.247,-89.6883"/>
</g>
<!-- Node14&#45;&gt;Node4 -->
<g id="edge42" class="edge"><title>Node14&#45;&gt;Node4</title>
<path fill="none" stroke="midnightblue" d="M455.455,-58.3619C442.604,-49.6955 424.243,-37.3126 409.519,-27.3819"/>
<polygon fill="midnightblue" stroke="midnightblue" points="411.15,-24.2604 400.902,-21.5707 407.236,-30.0639 411.15,-24.2604"/>
</g>
</g>
</svg>
