<?xml version="1.0" encoding="UTF-8" standalone="no"?>
<!DOCTYPE svg PUBLIC "-//W3C//DTD SVG 1.1//EN"
 "http://www.w3.org/Graphics/SVG/1.1/DTD/svg11.dtd">
<!-- Generated by graphviz version 2.26.3 (20100126.1600)
 -->
<!-- Title: G Pages: 1 -->
<svg width="1054pt" height="88pt"
 viewBox="0.00 0.00 1054.00 88.00" xmlns="http://www.w3.org/2000/svg" xmlns:xlink="http://www.w3.org/1999/xlink">
<g id="graph1" class="graph" transform="scale(1 1) rotate(0) translate(4 84)">
<title>G</title>
<polygon fill="white" stroke="white" points="-4,5 -4,-84 1051,-84 1051,5 -4,5"/>
<!-- Node1 -->
<g id="node1" class="node"><title>Node1</title>
<polygon fill="#bfbfbf" stroke="black" points="346,-58.5 346,-79.5 672,-79.5 672,-58.5 346,-58.5"/>
<text text-anchor="middle" x="509" y="-66.5" font-family="Helvetica,sans-Serif" font-size="10.00">/home/vilon_tao/gaia/sdk/include/gaia/ui/preference/DialogPreference.h</text>
</g>
<!-- Node2 -->
<g id="node3" class="node"><title>Node2</title>
<a xlink:href="../../db/da0/_edit_text_preference_8h.html" target="_top" xlink:title="/home/vilon_tao/gaia/sdk/include/gaia/ui/preference/EditTextPreference.h">
<polygon fill="white" stroke="black" points="-0.5,-0.5 -0.5,-21.5 334.5,-21.5 334.5,-0.5 -0.5,-0.5"/>
<text text-anchor="middle" x="167" y="-8.5" font-family="Helvetica,sans-Serif" font-size="10.00">/home/vilon_tao/gaia/sdk/include/gaia/ui/preference/EditTextPreference.h</text>
</a>
</g>
<!-- Node1&#45;&gt;Node2 -->
<g id="edge2" class="edge"><title>Node1&#45;&gt;Node2</title>
<path fill="none" stroke="midnightblue" d="M437.029,-56.7943C375.412,-46.3447 287.619,-31.4559 229.05,-21.5231"/>
<polygon fill="midnightblue" stroke="midnightblue" points="436.622,-60.2753 447.066,-58.4966 437.792,-53.3738 436.622,-60.2753"/>
</g>
<!-- Node3 -->
<g id="node5" class="node"><title>Node3</title>
<a xlink:href="../../d6/dc3/_list_preference_8h.html" target="_top" xlink:title="/home/vilon_tao/gaia/sdk/include/gaia/ui/preference/ListPreference.h">
<polygon fill="white" stroke="black" points="352,-0.5 352,-21.5 666,-21.5 666,-0.5 352,-0.5"/>
<text text-anchor="middle" x="509" y="-8.5" font-family="Helvetica,sans-Serif" font-size="10.00">/home/vilon_tao/gaia/sdk/include/gaia/ui/preference/ListPreference.h</text>
</a>
</g>
<!-- Node1&#45;&gt;Node3 -->
<g id="edge4" class="edge"><title>Node1&#45;&gt;Node3</title>
<path fill="none" stroke="midnightblue" d="M509,-48.1906C509,-39.1684 509,-28.9941 509,-21.5707"/>
<polygon fill="midnightblue" stroke="midnightblue" points="505.5,-48.3619 509,-58.3619 512.5,-48.3619 505.5,-48.3619"/>
</g>
<!-- Node4 -->
<g id="node7" class="node"><title>Node4</title>
<a xlink:href="../../d0/d18/_multi_select_list_preference_8h.html" target="_top" xlink:title="/home/vilon_tao/gaia/sdk/include/gaia/ui/preference/MultiSelectListPreference.h">
<polygon fill="white" stroke="black" points="684,-0.5 684,-21.5 1046,-21.5 1046,-0.5 684,-0.5"/>
<text text-anchor="middle" x="865" y="-8.5" font-family="Helvetica,sans-Serif" font-size="10.00">/home/vilon_tao/gaia/sdk/include/gaia/ui/preference/MultiSelectListPreference.h</text>
</a>
</g>
<!-- Node1&#45;&gt;Node4 -->
<g id="edge6" class="edge"><title>Node1&#45;&gt;Node4</title>
<path fill="none" stroke="midnightblue" d="M583.521,-56.8589C647.68,-46.4061 739.317,-31.4764 800.41,-21.5231"/>
<polygon fill="midnightblue" stroke="midnightblue" points="582.776,-53.4341 573.469,-58.4966 583.902,-60.343 582.776,-53.4341"/>
</g>
</g>
</svg>
