<?xml version="1.0" encoding="UTF-8" standalone="no"?>
<!DOCTYPE svg PUBLIC "-//W3C//DTD SVG 1.1//EN"
 "http://www.w3.org/Graphics/SVG/1.1/DTD/svg11.dtd">
<!-- Generated by graphviz version 2.26.3 (20100126.1600)
 -->
<!-- Title: G Pages: 1 -->
<svg width="735pt" height="204pt"
 viewBox="0.00 0.00 735.00 204.00" xmlns="http://www.w3.org/2000/svg" xmlns:xlink="http://www.w3.org/1999/xlink">
<g id="graph1" class="graph" transform="scale(1 1) rotate(0) translate(4 200)">
<title>G</title>
<polygon fill="white" stroke="white" points="-4,5 -4,-200 732,-200 732,5 -4,5"/>
<!-- Node1 -->
<g id="node1" class="node"><title>Node1</title>
<polygon fill="#bfbfbf" stroke="black" points="115.5,-174.5 115.5,-195.5 406.5,-195.5 406.5,-174.5 115.5,-174.5"/>
<text text-anchor="middle" x="261" y="-182.5" font-family="Helvetica,sans-Serif" font-size="10.00">/home/vilon_tao/gaia/sdk/include/gaia/telephony/CallManager.h</text>
</g>
<!-- Node2 -->
<g id="node3" class="node"><title>Node2</title>
<a xlink:href="../../d1/dd0/gmacros_8h.html" target="_top" xlink:title="gaia/base/gmacros.h">
<polygon fill="white" stroke="black" points="121.5,-58.5 121.5,-79.5 228.5,-79.5 228.5,-58.5 121.5,-58.5"/>
<text text-anchor="middle" x="175" y="-66.5" font-family="Helvetica,sans-Serif" font-size="10.00">gaia/base/gmacros.h</text>
</a>
</g>
<!-- Node1&#45;&gt;Node2 -->
<g id="edge2" class="edge"><title>Node1&#45;&gt;Node2</title>
<path fill="none" stroke="midnightblue" d="M237.887,-174.416C222.955,-166.436 204.273,-154.108 193,-138 183.045,-123.774 178.595,-104.426 176.606,-89.8377"/>
<polygon fill="midnightblue" stroke="midnightblue" points="180.073,-89.3377 175.515,-79.7734 173.113,-90.0925 180.073,-89.3377"/>
</g>
<!-- Node3 -->
<g id="node5" class="node"><title>Node3</title>
<a xlink:href="../../db/db5/_string_8h.html" target="_top" xlink:title="gaia/base/String.h">
<polygon fill="white" stroke="black" points="466.5,-116.5 466.5,-137.5 561.5,-137.5 561.5,-116.5 466.5,-116.5"/>
<text text-anchor="middle" x="514" y="-124.5" font-family="Helvetica,sans-Serif" font-size="10.00">gaia/base/String.h</text>
</a>
</g>
<!-- Node1&#45;&gt;Node3 -->
<g id="edge4" class="edge"><title>Node1&#45;&gt;Node3</title>
<path fill="none" stroke="midnightblue" d="M306.816,-174.497C349.312,-164.755 412.657,-150.233 458.109,-139.813"/>
<polygon fill="midnightblue" stroke="midnightblue" points="459.133,-143.169 468.098,-137.523 457.568,-136.346 459.133,-143.169"/>
</g>
<!-- Node8 -->
<g id="node16" class="node"><title>Node8</title>
<a xlink:href="../../d8/d93/_service_state_8h.html" target="_top" xlink:title="gaia/telephony/ServiceState.h">
<polygon fill="white" stroke="black" points="-0.5,-116.5 -0.5,-137.5 146.5,-137.5 146.5,-116.5 -0.5,-116.5"/>
<text text-anchor="middle" x="73" y="-124.5" font-family="Helvetica,sans-Serif" font-size="10.00">gaia/telephony/ServiceState.h</text>
</a>
</g>
<!-- Node1&#45;&gt;Node8 -->
<g id="edge16" class="edge"><title>Node1&#45;&gt;Node8</title>
<path fill="none" stroke="midnightblue" d="M226.955,-174.497C196.04,-164.959 150.277,-150.841 116.678,-140.475"/>
<polygon fill="midnightblue" stroke="midnightblue" points="117.697,-137.127 107.109,-137.523 115.633,-143.816 117.697,-137.127"/>
</g>
<!-- Node10 -->
<g id="node21" class="node"><title>Node10</title>
<a xlink:href="../../d9/d50/_phone_8h.html" target="_top" xlink:title="gaia/telephony/Phone.h">
<polygon fill="white" stroke="black" points="201.5,-116.5 201.5,-137.5 320.5,-137.5 320.5,-116.5 201.5,-116.5"/>
<text text-anchor="middle" x="261" y="-124.5" font-family="Helvetica,sans-Serif" font-size="10.00">gaia/telephony/Phone.h</text>
</a>
</g>
<!-- Node1&#45;&gt;Node10 -->
<g id="edge22" class="edge"><title>Node1&#45;&gt;Node10</title>
<path fill="none" stroke="midnightblue" d="M261,-174.362C261,-166.922 261,-156.743 261,-147.728"/>
<polygon fill="midnightblue" stroke="midnightblue" points="264.5,-147.571 261,-137.571 257.5,-147.571 264.5,-147.571"/>
</g>
<!-- Node11 -->
<g id="node25" class="node"><title>Node11</title>
<a xlink:href="../../dc/dd0/_call_8h.html" target="_top" xlink:title="gaia/telephony/Call.h">
<polygon fill="white" stroke="black" points="338,-116.5 338,-137.5 446,-137.5 446,-116.5 338,-116.5"/>
<text text-anchor="middle" x="392" y="-124.5" font-family="Helvetica,sans-Serif" font-size="10.00">gaia/telephony/Call.h</text>
</a>
</g>
<!-- Node1&#45;&gt;Node11 -->
<g id="edge28" class="edge"><title>Node1&#45;&gt;Node11</title>
<path fill="none" stroke="midnightblue" d="M284.723,-174.497C305.368,-165.356 335.516,-152.008 358.599,-141.788"/>
<polygon fill="midnightblue" stroke="midnightblue" points="360.284,-144.87 368.011,-137.621 357.45,-138.469 360.284,-144.87"/>
</g>
<!-- Node4 -->
<g id="node7" class="node"><title>Node4</title>
<a xlink:href="../../d7/d97/_char_sequence_8h.html" target="_top" xlink:title="gaia/base/CharSequence.h">
<polygon fill="white" stroke="black" points="593,-58.5 593,-79.5 727,-79.5 727,-58.5 593,-58.5"/>
<text text-anchor="middle" x="660" y="-66.5" font-family="Helvetica,sans-Serif" font-size="10.00">gaia/base/CharSequence.h</text>
</a>
</g>
<!-- Node3&#45;&gt;Node4 -->
<g id="edge6" class="edge"><title>Node3&#45;&gt;Node4</title>
<path fill="none" stroke="midnightblue" d="M540.439,-116.497C563.756,-107.234 597.95,-93.6499 623.804,-83.3793"/>
<polygon fill="midnightblue" stroke="midnightblue" points="625.263,-86.566 633.264,-79.6212 622.678,-80.0605 625.263,-86.566"/>
</g>
<!-- Node6 -->
<g id="node11" class="node"><title>Node6</title>
<a xlink:href="../../d6/d83/_hash_func_8h.html" target="_top" xlink:title="gaia/base/HashFunc.h">
<polygon fill="white" stroke="black" points="460.5,-58.5 460.5,-79.5 575.5,-79.5 575.5,-58.5 460.5,-58.5"/>
<text text-anchor="middle" x="518" y="-66.5" font-family="Helvetica,sans-Serif" font-size="10.00">gaia/base/HashFunc.h</text>
</a>
</g>
<!-- Node3&#45;&gt;Node6 -->
<g id="edge10" class="edge"><title>Node3&#45;&gt;Node6</title>
<path fill="none" stroke="midnightblue" d="M514.734,-116.362C515.247,-108.922 515.949,-98.7427 516.571,-89.7276"/>
<polygon fill="midnightblue" stroke="midnightblue" points="520.075,-89.7878 517.271,-79.5707 513.091,-89.3061 520.075,-89.7878"/>
</g>
<!-- Node7 -->
<g id="node13" class="node"><title>Node7</title>
<polygon fill="white" stroke="#bfbfbf" points="442,-0.5 442,-21.5 510,-21.5 510,-0.5 442,-0.5"/>
<text text-anchor="middle" x="476" y="-8.5" font-family="Helvetica,sans-Serif" font-size="10.00">sys/types.h</text>
</g>
<!-- Node3&#45;&gt;Node7 -->
<g id="edge14" class="edge"><title>Node3&#45;&gt;Node7</title>
<path fill="none" stroke="midnightblue" d="M490.978,-116.371C476.911,-108.508 460.113,-96.3304 452,-80 443.946,-63.7873 452.334,-44.2036 461.333,-30.048"/>
<polygon fill="midnightblue" stroke="midnightblue" points="464.353,-31.8337 467.168,-21.6196 458.598,-27.8491 464.353,-31.8337"/>
</g>
<!-- Node5 -->
<g id="node9" class="node"><title>Node5</title>
<polygon fill="white" stroke="#bfbfbf" points="635.5,-0.5 635.5,-21.5 684.5,-21.5 684.5,-0.5 635.5,-0.5"/>
<text text-anchor="middle" x="660" y="-8.5" font-family="Helvetica,sans-Serif" font-size="10.00">stdint.h</text>
</g>
<!-- Node4&#45;&gt;Node5 -->
<g id="edge8" class="edge"><title>Node4&#45;&gt;Node5</title>
<path fill="none" stroke="midnightblue" d="M660,-58.3619C660,-50.9219 660,-40.7427 660,-31.7276"/>
<polygon fill="midnightblue" stroke="midnightblue" points="663.5,-31.5706 660,-21.5707 656.5,-31.5707 663.5,-31.5706"/>
</g>
<!-- Node6&#45;&gt;Node7 -->
<g id="edge12" class="edge"><title>Node6&#45;&gt;Node7</title>
<path fill="none" stroke="midnightblue" d="M510.297,-58.3619C504.554,-50.4313 496.557,-39.3885 489.73,-29.9606"/>
<polygon fill="midnightblue" stroke="midnightblue" points="492.355,-27.6173 483.655,-21.5707 486.685,-31.7229 492.355,-27.6173"/>
</g>
<!-- Node8&#45;&gt;Node2 -->
<g id="edge20" class="edge"><title>Node8&#45;&gt;Node2</title>
<path fill="none" stroke="midnightblue" d="M91.7084,-116.362C107.381,-107.45 129.964,-94.6087 147.663,-84.5447"/>
<polygon fill="midnightblue" stroke="midnightblue" points="149.447,-87.5562 156.41,-79.5707 145.987,-81.4712 149.447,-87.5562"/>
</g>
<!-- Node9 -->
<g id="node18" class="node"><title>Node9</title>
<polygon fill="white" stroke="#bfbfbf" points="236,-0.5 236,-21.5 282,-21.5 282,-0.5 236,-0.5"/>
<text text-anchor="middle" x="259" y="-8.5" font-family="Helvetica,sans-Serif" font-size="10.00">cstdint</text>
</g>
<!-- Node8&#45;&gt;Node9 -->
<g id="edge18" class="edge"><title>Node8&#45;&gt;Node9</title>
<path fill="none" stroke="midnightblue" d="M76.4421,-116.25C81.8356,-101.092 93.7033,-73.5546 113,-58 145.782,-31.5754 193.769,-19.8628 225.67,-14.7694"/>
<polygon fill="midnightblue" stroke="midnightblue" points="226.439,-18.1943 235.827,-13.2841 225.426,-11.268 226.439,-18.1943"/>
</g>
<!-- Node10&#45;&gt;Node2 -->
<g id="edge26" class="edge"><title>Node10&#45;&gt;Node2</title>
<path fill="none" stroke="midnightblue" d="M245.226,-116.362C232.376,-107.696 214.015,-95.3126 199.29,-85.3819"/>
<polygon fill="midnightblue" stroke="midnightblue" points="200.921,-82.2604 190.674,-79.5707 197.007,-88.0639 200.921,-82.2604"/>
</g>
<!-- Node10&#45;&gt;Node9 -->
<g id="edge24" class="edge"><title>Node10&#45;&gt;Node9</title>
<path fill="none" stroke="midnightblue" d="M260.815,-116.295C260.485,-97.1314 259.787,-56.654 259.359,-31.8434"/>
<polygon fill="midnightblue" stroke="midnightblue" points="262.856,-31.6173 259.184,-21.6792 255.857,-31.7381 262.856,-31.6173"/>
</g>
<!-- Node11&#45;&gt;Node2 -->
<g id="edge34" class="edge"><title>Node11&#45;&gt;Node2</title>
<path fill="none" stroke="midnightblue" d="M352.703,-116.497C316.713,-106.877 263.29,-92.5981 224.42,-82.209"/>
<polygon fill="midnightblue" stroke="midnightblue" points="224.935,-78.724 214.371,-79.5231 223.128,-85.4866 224.935,-78.724"/>
</g>
<!-- Node12 -->
<g id="node27" class="node"><title>Node12</title>
<a xlink:href="../../d9/d28/_enum_base_8h.html" target="_top" xlink:title="gaia/base/EnumBase.h">
<polygon fill="white" stroke="black" points="287,-58.5 287,-79.5 405,-79.5 405,-58.5 287,-58.5"/>
<text text-anchor="middle" x="346" y="-66.5" font-family="Helvetica,sans-Serif" font-size="10.00">gaia/base/EnumBase.h</text>
</a>
</g>
<!-- Node11&#45;&gt;Node12 -->
<g id="edge30" class="edge"><title>Node11&#45;&gt;Node12</title>
<path fill="none" stroke="midnightblue" d="M383.563,-116.362C377.208,-108.35 368.334,-97.1605 360.807,-87.6696"/>
<polygon fill="midnightblue" stroke="midnightblue" points="363.34,-85.2308 354.384,-79.5707 357.855,-89.5805 363.34,-85.2308"/>
</g>
<!-- Node12&#45;&gt;Node9 -->
<g id="edge32" class="edge"><title>Node12&#45;&gt;Node9</title>
<path fill="none" stroke="midnightblue" d="M330.043,-58.3619C317.043,-49.6955 298.469,-37.3126 283.573,-27.3819"/>
<polygon fill="midnightblue" stroke="midnightblue" points="285.118,-24.2055 274.856,-21.5707 281.235,-30.0299 285.118,-24.2055"/>
</g>
</g>
</svg>
