<?xml version="1.0" encoding="UTF-8" standalone="no"?>
<!DOCTYPE svg PUBLIC "-//W3C//DTD SVG 1.1//EN"
 "http://www.w3.org/Graphics/SVG/1.1/DTD/svg11.dtd">
<!-- Generated by graphviz version 2.26.3 (20100126.1600)
 -->
<!-- Title: G Pages: 1 -->
<svg width="330pt" height="146pt"
 viewBox="0.00 0.00 330.00 146.00" xmlns="http://www.w3.org/2000/svg" xmlns:xlink="http://www.w3.org/1999/xlink">
<g id="graph1" class="graph" transform="scale(1 1) rotate(0) translate(4 142)">
<title>G</title>
<polygon fill="white" stroke="white" points="-4,5 -4,-142 327,-142 327,5 -4,5"/>
<!-- Node1 -->
<g id="node1" class="node"><title>Node1</title>
<polygon fill="#bfbfbf" stroke="black" points="0,-116.5 0,-137.5 322,-137.5 322,-116.5 0,-116.5"/>
<text text-anchor="middle" x="161" y="-124.5" font-family="Helvetica,sans-Serif" font-size="10.00">/home/vilon_tao/gaia/sdk/include/gaia/telephony/NeighboringCellInfo.h</text>
</g>
<!-- Node2 -->
<g id="node3" class="node"><title>Node2</title>
<a xlink:href="../../de/d2b/_telephony_manager_8h.html" target="_top" xlink:title="gaia/telephony/TelephonyManager.h">
<polygon fill="white" stroke="black" points="74.5,-58.5 74.5,-79.5 247.5,-79.5 247.5,-58.5 74.5,-58.5"/>
<text text-anchor="middle" x="161" y="-66.5" font-family="Helvetica,sans-Serif" font-size="10.00">gaia/telephony/TelephonyManager.h</text>
</a>
</g>
<!-- Node1&#45;&gt;Node2 -->
<g id="edge2" class="edge"><title>Node1&#45;&gt;Node2</title>
<path fill="none" stroke="midnightblue" d="M161,-116.362C161,-108.922 161,-98.7427 161,-89.7276"/>
<polygon fill="midnightblue" stroke="midnightblue" points="164.5,-89.5706 161,-79.5707 157.5,-89.5707 164.5,-89.5706"/>
</g>
<!-- Node3 -->
<g id="node5" class="node"><title>Node3</title>
<polygon fill="white" stroke="#bfbfbf" points="91,-0.5 91,-21.5 137,-21.5 137,-0.5 91,-0.5"/>
<text text-anchor="middle" x="114" y="-8.5" font-family="Helvetica,sans-Serif" font-size="10.00">cstdint</text>
</g>
<!-- Node2&#45;&gt;Node3 -->
<g id="edge4" class="edge"><title>Node2&#45;&gt;Node3</title>
<path fill="none" stroke="midnightblue" d="M152.379,-58.3619C145.82,-50.2678 136.634,-38.9318 128.894,-29.3796"/>
<polygon fill="midnightblue" stroke="midnightblue" points="131.581,-27.1364 122.566,-21.5707 126.142,-31.5436 131.581,-27.1364"/>
</g>
<!-- Node4 -->
<g id="node7" class="node"><title>Node4</title>
<a xlink:href="../../d1/dd0/gmacros_8h.html" target="_top" xlink:title="gaia/base/gmacros.h">
<polygon fill="white" stroke="black" points="154.5,-0.5 154.5,-21.5 261.5,-21.5 261.5,-0.5 154.5,-0.5"/>
<text text-anchor="middle" x="208" y="-8.5" font-family="Helvetica,sans-Serif" font-size="10.00">gaia/base/gmacros.h</text>
</a>
</g>
<!-- Node2&#45;&gt;Node4 -->
<g id="edge6" class="edge"><title>Node2&#45;&gt;Node4</title>
<path fill="none" stroke="midnightblue" d="M169.621,-58.3619C176.18,-50.2678 185.366,-38.9318 193.106,-29.3796"/>
<polygon fill="midnightblue" stroke="midnightblue" points="195.858,-31.5436 199.434,-21.5707 190.419,-27.1364 195.858,-31.5436"/>
</g>
</g>
</svg>
