<?xml version="1.0" encoding="UTF-8" standalone="no"?>
<!DOCTYPE svg PUBLIC "-//W3C//DTD SVG 1.1//EN"
 "http://www.w3.org/Graphics/SVG/1.1/DTD/svg11.dtd">
<!-- Generated by graphviz version 2.26.3 (20100126.1600)
 -->
<!-- Title: G Pages: 1 -->
<svg width="172pt" height="146pt"
 viewBox="0.00 0.00 172.00 146.00" xmlns="http://www.w3.org/2000/svg" xmlns:xlink="http://www.w3.org/1999/xlink">
<g id="graph1" class="graph" transform="scale(1 1) rotate(0) translate(4 142)">
<title>G</title>
<polygon fill="white" stroke="white" points="-4,5 -4,-142 169,-142 169,5 -4,5"/>
<!-- Node1 -->
<g id="node1" class="node"><title>Node1</title>
<polygon fill="#bfbfbf" stroke="black" points="9,-58.5 9,-79.5 155,-79.5 155,-58.5 9,-58.5"/>
<text text-anchor="middle" x="82" y="-66.5" font-family="Helvetica,sans-Serif" font-size="10.00">gaia::graphics::BitmapDrawer</text>
</g>
<!-- Node3 -->
<g id="node5" class="node"><title>Node3</title>
<a xlink:href="../../d3/d44/classgaia_1_1graphics_1_1_bitmap_drawer_plus.html" target="_top" xlink:title="A BitmapDrawerPlus only can be defined in an XML file with the &lt;bitmap&#45;plus&gt; element.">
<polygon fill="white" stroke="black" points="-0.5,-0.5 -0.5,-21.5 164.5,-21.5 164.5,-0.5 -0.5,-0.5"/>
<text text-anchor="middle" x="82" y="-8.5" font-family="Helvetica,sans-Serif" font-size="10.00">gaia::graphics::BitmapDrawerPlus</text>
</a>
</g>
<!-- Node1&#45;&gt;Node3 -->
<g id="edge4" class="edge"><title>Node1&#45;&gt;Node3</title>
<path fill="none" stroke="midnightblue" d="M82,-48.1906C82,-39.1684 82,-28.9941 82,-21.5707"/>
<polygon fill="midnightblue" stroke="midnightblue" points="78.5001,-48.3619 82,-58.3619 85.5001,-48.3619 78.5001,-48.3619"/>
</g>
<!-- Node2 -->
<g id="node2" class="node"><title>Node2</title>
<a xlink:href="../../df/d4b/classgaia_1_1graphics_1_1_drawer.html" target="_top" xlink:title="A Drawer is a general abstraction for &quot;an object used to draw something.&quot; Most often you will deal wi...">
<polygon fill="white" stroke="black" points="24.5,-116.5 24.5,-137.5 139.5,-137.5 139.5,-116.5 24.5,-116.5"/>
<text text-anchor="middle" x="82" y="-124.5" font-family="Helvetica,sans-Serif" font-size="10.00">gaia::graphics::Drawer</text>
</a>
</g>
<!-- Node2&#45;&gt;Node1 -->
<g id="edge2" class="edge"><title>Node2&#45;&gt;Node1</title>
<path fill="none" stroke="midnightblue" d="M82,-106.191C82,-97.1684 82,-86.9941 82,-79.5707"/>
<polygon fill="midnightblue" stroke="midnightblue" points="78.5001,-106.362 82,-116.362 85.5001,-106.362 78.5001,-106.362"/>
</g>
</g>
</svg>
