<?xml version="1.0" encoding="UTF-8" standalone="no"?>
<!DOCTYPE svg PUBLIC "-//W3C//DTD SVG 1.1//EN"
 "http://www.w3.org/Graphics/SVG/1.1/DTD/svg11.dtd">
<!-- Generated by graphviz version 2.26.3 (20100126.1600)
 -->
<!-- Title: G Pages: 1 -->
<svg width="886pt" height="304pt"
 viewBox="0.00 0.00 886.00 304.47" xmlns="http://www.w3.org/2000/svg" xmlns:xlink="http://www.w3.org/1999/xlink">
<g id="graph1" class="graph" transform="scale(1 1) rotate(0) translate(4 300.471)">
<title>G</title>
<polygon fill="white" stroke="white" points="-4,5 -4,-300.471 883,-300.471 883,5 -4,5"/>
<!-- Node1 -->
<g id="node1" class="node"><title>Node1</title>
<polygon fill="#bfbfbf" stroke="black" points="0,-101.611 0,-122.611 128,-122.611 128,-101.611 0,-101.611"/>
<text text-anchor="middle" x="64" y="-109.611" font-family="Helvetica,sans-Serif" font-size="10.00">gaia::base::HashMapImpl</text>
</g>
<!-- Node2 -->
<g id="node3" class="node"><title>Node2</title>
<a xlink:href="../../d3/d57/classgaia_1_1base_1_1_hash_map.html" target="_top" xlink:title="Implements hashmap data structure and operation functions.">
<polygon fill="white" stroke="black" points="166.5,-136.611 166.5,-157.611 339.5,-157.611 339.5,-136.611 166.5,-136.611"/>
<text text-anchor="middle" x="253" y="-144.611" font-family="Helvetica,sans-Serif" font-size="10.00">gaia::base::HashMap&lt; KEY, VAL &gt;</text>
</a>
</g>
<!-- Node1&#45;&gt;Node2 -->
<g id="edge2" class="edge"><title>Node1&#45;&gt;Node2</title>
<path fill="none" stroke="#8b1a1a" d="M130.668,-124.457C152.007,-128.409 175.424,-132.745 196.007,-136.557"/>
<polygon fill="#8b1a1a" stroke="#8b1a1a" points="131.176,-120.992 120.706,-122.612 129.902,-127.875 131.176,-120.992"/>
</g>
<!-- Node3 -->
<g id="node5" class="node"><title>Node3</title>
<a xlink:href="../../d3/d57/classgaia_1_1base_1_1_hash_map.html" target="_top" xlink:title="gaia::base::HashMap\&lt; gaia::base::String, gaia::base::String \&gt;">
<polygon fill="white" stroke="black" points="582.5,-198.611 582.5,-219.611 869.5,-219.611 869.5,-198.611 582.5,-198.611"/>
<text text-anchor="middle" x="726" y="-206.611" font-family="Helvetica,sans-Serif" font-size="10.00">gaia::base::HashMap&lt; gaia::base::String, gaia::base::String &gt;</text>
</a>
</g>
<!-- Node1&#45;&gt;Node3 -->
<g id="edge18" class="edge"><title>Node1&#45;&gt;Node3</title>
<path fill="none" stroke="#8b1a1a" d="M88.9859,-128.19C138.094,-158.658 251.684,-223.587 358,-244.111 477.411,-267.163 621.682,-236.909 688.578,-219.636"/>
<polygon fill="#8b1a1a" stroke="#8b1a1a" points="90.6447,-125.099 80.3136,-122.75 86.9248,-131.029 90.6447,-125.099"/>
</g>
<!-- Node4 -->
<g id="node7" class="node"><title>Node4</title>
<a xlink:href="../../d3/d57/classgaia_1_1base_1_1_hash_map.html" target="_top" xlink:title="gaia::base::HashMap\&lt; gaia::base::String, ByteBuffer * \&gt;">
<polygon fill="white" stroke="black" points="594.5,-269.611 594.5,-290.611 857.5,-290.611 857.5,-269.611 594.5,-269.611"/>
<text text-anchor="middle" x="726" y="-277.611" font-family="Helvetica,sans-Serif" font-size="10.00">gaia::base::HashMap&lt; gaia::base::String, ByteBuffer * &gt;</text>
</a>
</g>
<!-- Node1&#45;&gt;Node4 -->
<g id="edge14" class="edge"><title>Node1&#45;&gt;Node4</title>
<path fill="none" stroke="#8b1a1a" d="M76.4662,-131.166C93.5944,-155.737 126.784,-197.935 166,-220.111 317.5,-305.783 529.058,-301.325 643.911,-290.655"/>
<polygon fill="#8b1a1a" stroke="#8b1a1a" points="79.2233,-128.996 70.7089,-122.691 73.4329,-132.93 79.2233,-128.996"/>
</g>
<!-- Node5 -->
<g id="node9" class="node"><title>Node5</title>
<a xlink:href="../../d3/d57/classgaia_1_1base_1_1_hash_map.html" target="_top" xlink:title="gaia::base::HashMap\&lt; gaia::base::String, ByteBuffer \&gt;">
<polygon fill="white" stroke="black" points="597.5,-66.6109 597.5,-87.6109 854.5,-87.6109 854.5,-66.6109 597.5,-66.6109"/>
<text text-anchor="middle" x="726" y="-74.6109" font-family="Helvetica,sans-Serif" font-size="10.00">gaia::base::HashMap&lt; gaia::base::String, ByteBuffer &gt;</text>
</a>
</g>
<!-- Node1&#45;&gt;Node5 -->
<g id="edge16" class="edge"><title>Node1&#45;&gt;Node5</title>
<path fill="none" stroke="#8b1a1a" d="M103.324,-98.4287C186.842,-71.1467 388.031,-14.8534 556,-42.1109 564.324,-43.4617 565.84,-45.9827 574,-48.1109 602.075,-55.4334 633.514,-61.739 660.483,-66.5823"/>
<polygon fill="#8b1a1a" stroke="#8b1a1a" points="102.125,-95.1386 93.732,-101.604 104.325,-101.784 102.125,-95.1386"/>
</g>
<!-- Node6 -->
<g id="node11" class="node"><title>Node6</title>
<a xlink:href="../../d3/d57/classgaia_1_1base_1_1_hash_map.html" target="_top" xlink:title="gaia::base::HashMap\&lt; gaia::base::String, PluginMetaDataInfo * \&gt;">
<polygon fill="white" stroke="black" points="574.5,-17.6109 574.5,-38.6109 877.5,-38.6109 877.5,-17.6109 574.5,-17.6109"/>
<text text-anchor="middle" x="726" y="-25.6109" font-family="Helvetica,sans-Serif" font-size="10.00">gaia::base::HashMap&lt; gaia::base::String, PluginMetaDataInfo * &gt;</text>
</a>
</g>
<!-- Node1&#45;&gt;Node6 -->
<g id="edge20" class="edge"><title>Node1&#45;&gt;Node6</title>
<path fill="none" stroke="#8b1a1a" d="M81.709,-94.4137C100.706,-76.733 132.668,-50.5805 166,-39.1109 339.325,20.5303 561.022,-1.69554 665.883,-17.5626"/>
<polygon fill="#8b1a1a" stroke="#8b1a1a" points="79.2053,-91.9651 74.3949,-101.405 84.0422,-97.0253 79.2053,-91.9651"/>
</g>
<!-- Node7 -->
<g id="node13" class="node"><title>Node7</title>
<a xlink:href="../../d3/d57/classgaia_1_1base_1_1_hash_map.html" target="_top" xlink:title="gaia::base::HashMap\&lt; T, HashSet\&lt; T \&gt; * \&gt;">
<polygon fill="white" stroke="black" points="621.5,-111.611 621.5,-132.611 830.5,-132.611 830.5,-111.611 621.5,-111.611"/>
<text text-anchor="middle" x="726" y="-119.611" font-family="Helvetica,sans-Serif" font-size="10.00">gaia::base::HashMap&lt; T, HashSet&lt; T &gt; * &gt;</text>
</a>
</g>
<!-- Node1&#45;&gt;Node7 -->
<g id="edge22" class="edge"><title>Node1&#45;&gt;Node7</title>
<path fill="none" stroke="#8b1a1a" d="M138.363,-107.334C234.765,-101.925 408.066,-94.8697 556,-103.111 586.245,-104.796 619.376,-108.154 648.292,-111.585"/>
<polygon fill="#8b1a1a" stroke="#8b1a1a" points="137.92,-103.854 128.136,-107.918 138.319,-110.842 137.92,-103.854"/>
</g>
<!-- Node2&#45;&gt;Node3 -->
<g id="edge4" class="edge"><title>Node2&#45;&gt;Node3</title>
<path fill="none" stroke="orange" stroke-dasharray="5,2" d="M341.755,-158.963C347.252,-159.691 352.701,-160.412 358,-161.111 456.69,-174.127 570.295,-188.915 644.866,-198.596"/>
<polygon fill="orange" stroke="orange" points="342.205,-155.492 331.832,-157.647 341.285,-162.431 342.205,-155.492"/>
<text text-anchor="middle" x="457" y="-189.111" font-family="Helvetica,sans-Serif" font-size="10.00"> &lt; gaia::base::String, gaia::base::String &gt;</text>
</g>
<!-- Node2&#45;&gt;Node4 -->
<g id="edge6" class="edge"><title>Node2&#45;&gt;Node4</title>
<path fill="none" stroke="orange" stroke-dasharray="5,2" d="M278.606,-163.07C299.326,-175.348 329.625,-191.892 358,-202.111 454.007,-236.688 569.909,-258.114 645.654,-269.562"/>
<polygon fill="orange" stroke="orange" points="280.173,-159.928 269.801,-157.767 276.562,-165.924 280.173,-159.928"/>
<text text-anchor="middle" x="457" y="-257.111" font-family="Helvetica,sans-Serif" font-size="10.00"> &lt; gaia::base::String, ByteBuffer * &gt;</text>
</g>
<!-- Node2&#45;&gt;Node5 -->
<g id="edge8" class="edge"><title>Node2&#45;&gt;Node5</title>
<path fill="none" stroke="orange" stroke-dasharray="5,2" d="M297.374,-133.729C315.962,-128.529 337.888,-122.919 358,-119.111 436.818,-104.188 526.207,-93.8353 597.148,-87.1426"/>
<polygon fill="orange" stroke="orange" points="296.365,-130.377 287.705,-136.48 298.281,-137.11 296.365,-130.377"/>
<text text-anchor="middle" x="457" y="-123.111" font-family="Helvetica,sans-Serif" font-size="10.00"> &lt; gaia::base::String, ByteBuffer &gt;</text>
</g>
<!-- Node2&#45;&gt;Node6 -->
<g id="edge10" class="edge"><title>Node2&#45;&gt;Node6</title>
<path fill="none" stroke="orange" stroke-dasharray="5,2" d="M271.857,-129.698C291.697,-112.477 324.622,-86.9014 358,-74.1109 426.24,-47.9616 506.307,-35.9573 574.3,-30.6954"/>
<polygon fill="orange" stroke="orange" points="269.346,-127.247 264.193,-136.505 273.994,-132.481 269.346,-127.247"/>
<text text-anchor="middle" x="457" y="-78.1109" font-family="Helvetica,sans-Serif" font-size="10.00"> &lt; gaia::base::String, PluginMetaDataInfo * &gt;</text>
</g>
<!-- Node2&#45;&gt;Node7 -->
<g id="edge12" class="edge"><title>Node2&#45;&gt;Node7</title>
<path fill="none" stroke="orange" stroke-dasharray="5,2" d="M349.719,-144.73C409.243,-142.984 487.079,-140.198 556,-136.111 577.137,-134.858 599.728,-133.212 621.312,-131.492"/>
<polygon fill="orange" stroke="orange" points="349.472,-141.236 339.577,-145.023 349.674,-148.233 349.472,-141.236"/>
<text text-anchor="middle" x="457" y="-148.111" font-family="Helvetica,sans-Serif" font-size="10.00"> &lt; T, HashSet&lt; T &gt; * &gt;</text>
</g>
</g>
</svg>
