<?xml version="1.0" encoding="UTF-8" standalone="no"?>
<!DOCTYPE svg PUBLIC "-//W3C//DTD SVG 1.1//EN"
 "http://www.w3.org/Graphics/SVG/1.1/DTD/svg11.dtd">
<!-- Generated by graphviz version 2.26.3 (20100126.1600)
 -->
<!-- Title: G Pages: 1 -->
<svg width="190pt" height="204pt"
 viewBox="0.00 0.00 190.00 204.00" xmlns="http://www.w3.org/2000/svg" xmlns:xlink="http://www.w3.org/1999/xlink">
<g id="graph1" class="graph" transform="scale(1 1) rotate(0) translate(4 200)">
<title>G</title>
<polygon fill="white" stroke="white" points="-4,5 -4,-200 187,-200 187,5 -4,5"/>
<!-- Node1 -->
<g id="node1" class="node"><title>Node1</title>
<polygon fill="#bfbfbf" stroke="black" points="0,-0.5 0,-21.5 182,-21.5 182,-0.5 0,-0.5"/>
<text text-anchor="middle" x="91" y="-8.5" font-family="Helvetica,sans-Serif" font-size="10.00">gaia::ui::RadioGroupControllerParams</text>
</g>
<!-- Node2 -->
<g id="node2" class="node"><title>Node2</title>
<a xlink:href="../../dd/dee/classgaia_1_1ui_1_1_linear_controller_params.html" target="_top" xlink:title="LinearControllerParams are used by widgets to tell their LinearLayout how they want to be laid out...">
<polygon fill="white" stroke="black" points="13,-58.5 13,-79.5 169,-79.5 169,-58.5 13,-58.5"/>
<text text-anchor="middle" x="91" y="-66.5" font-family="Helvetica,sans-Serif" font-size="10.00">gaia::ui::LinearControllerParams</text>
</a>
</g>
<!-- Node2&#45;&gt;Node1 -->
<g id="edge2" class="edge"><title>Node2&#45;&gt;Node1</title>
<path fill="none" stroke="midnightblue" d="M91,-48.1906C91,-39.1684 91,-28.9941 91,-21.5707"/>
<polygon fill="midnightblue" stroke="midnightblue" points="87.5001,-48.3619 91,-58.3619 94.5001,-48.3619 87.5001,-48.3619"/>
</g>
<!-- Node3 -->
<g id="node4" class="node"><title>Node3</title>
<a xlink:href="../../de/dd1/classgaia_1_1ui_1_1_margin_controller_params.html" target="_top" xlink:title="Per&#45;child layout information for layouts that support margins.">
<polygon fill="white" stroke="black" points="11.5,-116.5 11.5,-137.5 170.5,-137.5 170.5,-116.5 11.5,-116.5"/>
<text text-anchor="middle" x="91" y="-124.5" font-family="Helvetica,sans-Serif" font-size="10.00">gaia::ui::MarginControllerParams</text>
</a>
</g>
<!-- Node3&#45;&gt;Node2 -->
<g id="edge4" class="edge"><title>Node3&#45;&gt;Node2</title>
<path fill="none" stroke="midnightblue" d="M91,-106.191C91,-97.1684 91,-86.9941 91,-79.5707"/>
<polygon fill="midnightblue" stroke="midnightblue" points="87.5001,-106.362 91,-116.362 94.5001,-106.362 87.5001,-106.362"/>
</g>
<!-- Node4 -->
<g id="node6" class="node"><title>Node4</title>
<a xlink:href="../../de/d2f/classgaia_1_1ui_1_1_controller_params.html" target="_top" xlink:title="ControllerParams are used by widgets to tell their parents how they want to be laid out...">
<polygon fill="white" stroke="black" points="26,-174.5 26,-195.5 156,-195.5 156,-174.5 26,-174.5"/>
<text text-anchor="middle" x="91" y="-182.5" font-family="Helvetica,sans-Serif" font-size="10.00">gaia::ui::ControllerParams</text>
</a>
</g>
<!-- Node4&#45;&gt;Node3 -->
<g id="edge6" class="edge"><title>Node4&#45;&gt;Node3</title>
<path fill="none" stroke="midnightblue" d="M91,-164.191C91,-155.168 91,-144.994 91,-137.571"/>
<polygon fill="midnightblue" stroke="midnightblue" points="87.5001,-164.362 91,-174.362 94.5001,-164.362 87.5001,-164.362"/>
</g>
</g>
</svg>
