<?xml version="1.0" encoding="UTF-8" standalone="no"?>
<!DOCTYPE svg PUBLIC "-//W3C//DTD SVG 1.1//EN"
 "http://www.w3.org/Graphics/SVG/1.1/DTD/svg11.dtd">
<!-- Generated by graphviz version 2.26.3 (20100126.1600)
 -->
<!-- Title: G Pages: 1 -->
<svg width="276pt" height="320pt"
 viewBox="0.00 0.00 276.00 320.00" xmlns="http://www.w3.org/2000/svg" xmlns:xlink="http://www.w3.org/1999/xlink">
<g id="graph1" class="graph" transform="scale(1 1) rotate(0) translate(4 316)">
<title>G</title>
<polygon fill="white" stroke="white" points="-4,5 -4,-316 273,-316 273,5 -4,5"/>
<!-- Node1 -->
<g id="node1" class="node"><title>Node1</title>
<polygon fill="#bfbfbf" stroke="black" points="76,-116.5 76,-137.5 200,-137.5 200,-116.5 76,-116.5"/>
<text text-anchor="middle" x="138" y="-124.5" font-family="Helvetica,sans-Serif" font-size="10.00">gaia::ui::FrameController</text>
</g>
<!-- Node6 -->
<g id="node11" class="node"><title>Node6</title>
<a xlink:href="../../df/d4c/classgaia_1_1ui_1_1_media_control.html" target="_top" xlink:title="A view containing controls for a MediaPlayer.">
<polygon fill="white" stroke="black" points="14,-58.5 14,-79.5 126,-79.5 126,-58.5 14,-58.5"/>
<text text-anchor="middle" x="70" y="-66.5" font-family="Helvetica,sans-Serif" font-size="10.00">gaia::ui::MediaControl</text>
</a>
</g>
<!-- Node1&#45;&gt;Node6 -->
<g id="edge10" class="edge"><title>Node1&#45;&gt;Node6</title>
<path fill="none" stroke="midnightblue" d="M117.706,-109.691C106.227,-99.8996 92.2442,-87.973 82.3932,-79.5707"/>
<polygon fill="midnightblue" stroke="midnightblue" points="115.648,-112.535 125.528,-116.362 120.191,-107.209 115.648,-112.535"/>
</g>
<!-- Node7 -->
<g id="node13" class="node"><title>Node7</title>
<a xlink:href="../../d4/d9a/classgaia_1_1ui_1_1_widget_animator.html" target="_top" xlink:title="Base class for a FrameController container that will perform animations when switching between its vi...">
<polygon fill="white" stroke="black" points="144,-58.5 144,-79.5 268,-79.5 268,-58.5 144,-58.5"/>
<text text-anchor="middle" x="206" y="-66.5" font-family="Helvetica,sans-Serif" font-size="10.00">gaia::ui::WidgetAnimator</text>
</a>
</g>
<!-- Node1&#45;&gt;Node7 -->
<g id="edge12" class="edge"><title>Node1&#45;&gt;Node7</title>
<path fill="none" stroke="midnightblue" d="M158.294,-109.691C169.773,-99.8996 183.756,-87.973 193.607,-79.5707"/>
<polygon fill="midnightblue" stroke="midnightblue" points="155.809,-107.209 150.472,-116.362 160.352,-112.535 155.809,-107.209"/>
</g>
<!-- Node2 -->
<g id="node2" class="node"><title>Node2</title>
<a xlink:href="../../db/d6c/classgaia_1_1core_1_1_widget_controller.html" target="_top" xlink:title="Define the default widget layout to put sets of layout in it.">
<polygon fill="white" stroke="black" points="69,-174.5 69,-195.5 207,-195.5 207,-174.5 69,-174.5"/>
<text text-anchor="middle" x="138" y="-182.5" font-family="Helvetica,sans-Serif" font-size="10.00">gaia::core::WidgetController</text>
</a>
</g>
<!-- Node2&#45;&gt;Node1 -->
<g id="edge2" class="edge"><title>Node2&#45;&gt;Node1</title>
<path fill="none" stroke="midnightblue" d="M138,-164.191C138,-155.168 138,-144.994 138,-137.571"/>
<polygon fill="midnightblue" stroke="midnightblue" points="134.5,-164.362 138,-174.362 141.5,-164.362 134.5,-164.362"/>
</g>
<!-- Node3 -->
<g id="node4" class="node"><title>Node3</title>
<a xlink:href="../../d8/dac/classgaia_1_1core_1_1_widget.html" target="_top" xlink:title="The Widget class is the base class of all user interface component.">
<polygon fill="white" stroke="black" points="27,-232.5 27,-253.5 123,-253.5 123,-232.5 27,-232.5"/>
<text text-anchor="middle" x="75" y="-240.5" font-family="Helvetica,sans-Serif" font-size="10.00">gaia::core::Widget</text>
</a>
</g>
<!-- Node3&#45;&gt;Node2 -->
<g id="edge4" class="edge"><title>Node3&#45;&gt;Node2</title>
<path fill="none" stroke="midnightblue" d="M94.1118,-225.405C104.688,-215.668 117.48,-203.891 126.518,-195.571"/>
<polygon fill="midnightblue" stroke="midnightblue" points="91.5416,-223.014 86.5552,-232.362 96.2828,-228.164 91.5416,-223.014"/>
</g>
<!-- Node4 -->
<g id="node6" class="node"><title>Node4</title>
<a xlink:href="../../d0/db2/classgaia_1_1core_1_1_property_animatable.html" target="_top" xlink:title="Any animation object need to implement PropertyAnimatable because of setting value.">
<polygon fill="white" stroke="black" points="-0.5,-290.5 -0.5,-311.5 150.5,-311.5 150.5,-290.5 -0.5,-290.5"/>
<text text-anchor="middle" x="75" y="-298.5" font-family="Helvetica,sans-Serif" font-size="10.00">gaia::core::PropertyAnimatable</text>
</a>
</g>
<!-- Node4&#45;&gt;Node3 -->
<g id="edge6" class="edge"><title>Node4&#45;&gt;Node3</title>
<path fill="none" stroke="midnightblue" d="M75,-280.191C75,-271.168 75,-260.994 75,-253.571"/>
<polygon fill="midnightblue" stroke="midnightblue" points="71.5001,-280.362 75,-290.362 78.5001,-280.362 71.5001,-280.362"/>
</g>
<!-- Node5 -->
<g id="node8" class="node"><title>Node5</title>
<a xlink:href="../../dd/de0/classgaia_1_1core_1_1_event_control.html" target="_top" xlink:title="EventControl is used to dispatch event and register listener.">
<polygon fill="white" stroke="black" points="141,-232.5 141,-253.5 263,-253.5 263,-232.5 141,-232.5"/>
<text text-anchor="middle" x="202" y="-240.5" font-family="Helvetica,sans-Serif" font-size="10.00">gaia::core::EventControl</text>
</a>
</g>
<!-- Node5&#45;&gt;Node2 -->
<g id="edge8" class="edge"><title>Node5&#45;&gt;Node2</title>
<path fill="none" stroke="midnightblue" d="M182.585,-225.405C171.841,-215.668 158.846,-203.891 149.664,-195.571"/>
<polygon fill="midnightblue" stroke="midnightblue" points="180.501,-228.24 190.261,-232.362 185.202,-223.053 180.501,-228.24"/>
</g>
<!-- Node8 -->
<g id="node15" class="node"><title>Node8</title>
<a xlink:href="../../d8/d67/classgaia_1_1ui_1_1_widget_switcher.html" target="_top" xlink:title="WidgetSwitcher that switches between two views, and has a factory from which these widgets are create...">
<polygon fill="white" stroke="black" points="144.5,-0.5 144.5,-21.5 267.5,-21.5 267.5,-0.5 144.5,-0.5"/>
<text text-anchor="middle" x="206" y="-8.5" font-family="Helvetica,sans-Serif" font-size="10.00">gaia::ui::WidgetSwitcher</text>
</a>
</g>
<!-- Node7&#45;&gt;Node8 -->
<g id="edge14" class="edge"><title>Node7&#45;&gt;Node8</title>
<path fill="none" stroke="midnightblue" d="M206,-48.1906C206,-39.1684 206,-28.9941 206,-21.5707"/>
<polygon fill="midnightblue" stroke="midnightblue" points="202.5,-48.3619 206,-58.3619 209.5,-48.3619 202.5,-48.3619"/>
</g>
</g>
</svg>
