<?xml version="1.0" encoding="UTF-8" standalone="no"?>
<!DOCTYPE svg PUBLIC "-//W3C//DTD SVG 1.1//EN"
 "http://www.w3.org/Graphics/SVG/1.1/DTD/svg11.dtd">
<!-- Generated by graphviz version 2.26.3 (20100126.1600)
 -->
<!-- Title: G Pages: 1 -->
<svg width="627pt" height="320pt"
 viewBox="0.00 0.00 627.00 320.00" xmlns="http://www.w3.org/2000/svg" xmlns:xlink="http://www.w3.org/1999/xlink">
<g id="graph1" class="graph" transform="scale(1 1) rotate(0) translate(4 316)">
<title>G</title>
<polygon fill="white" stroke="white" points="-4,5 -4,-316 624,-316 624,5 -4,5"/>
<!-- Node1 -->
<g id="node1" class="node"><title>Node1</title>
<polygon fill="#bfbfbf" stroke="black" points="63,-290.5 63,-311.5 359,-311.5 359,-290.5 63,-290.5"/>
<text text-anchor="middle" x="211" y="-298.5" font-family="Helvetica,sans-Serif" font-size="10.00">/home/vilon_tao/gaia/sdk/include/gaia/ui/GridControllerParams.h</text>
</g>
<!-- Node2 -->
<g id="node3" class="node"><title>Node2</title>
<a xlink:href="../../d3/db0/_margin_controller_params_8h.html" target="_top" xlink:title="gaia/ui/MarginControllerParams.h">
<polygon fill="white" stroke="black" points="19.5,-232.5 19.5,-253.5 180.5,-253.5 180.5,-232.5 19.5,-232.5"/>
<text text-anchor="middle" x="100" y="-240.5" font-family="Helvetica,sans-Serif" font-size="10.00">gaia/ui/MarginControllerParams.h</text>
</a>
</g>
<!-- Node1&#45;&gt;Node2 -->
<g id="edge2" class="edge"><title>Node1&#45;&gt;Node2</title>
<path fill="none" stroke="midnightblue" d="M190.899,-290.497C173.718,-281.519 148.77,-268.484 129.355,-258.339"/>
<polygon fill="midnightblue" stroke="midnightblue" points="130.811,-255.15 120.327,-253.621 127.569,-261.354 130.811,-255.15"/>
</g>
<!-- Node5 -->
<g id="node9" class="node"><title>Node5</title>
<a xlink:href="../../d5/db2/_grid_controller_8h.html" target="_top" xlink:title="gaia/ui/GridController.h">
<polygon fill="white" stroke="black" points="265,-232.5 265,-253.5 381,-253.5 381,-232.5 265,-232.5"/>
<text text-anchor="middle" x="323" y="-240.5" font-family="Helvetica,sans-Serif" font-size="10.00">gaia/ui/GridController.h</text>
</a>
</g>
<!-- Node1&#45;&gt;Node5 -->
<g id="edge8" class="edge"><title>Node1&#45;&gt;Node5</title>
<path fill="none" stroke="midnightblue" d="M231.282,-290.497C248.618,-281.519 273.79,-268.484 293.38,-258.339"/>
<polygon fill="midnightblue" stroke="midnightblue" points="295.22,-261.328 302.49,-253.621 292.001,-255.112 295.22,-261.328"/>
</g>
<!-- Node3 -->
<g id="node5" class="node"><title>Node3</title>
<a xlink:href="../../d9/de8/_controller_params_8h.html" target="_top" xlink:title="gaia/ui/ControllerParams.h">
<polygon fill="white" stroke="black" points="0,-174.5 0,-195.5 132,-195.5 132,-174.5 0,-174.5"/>
<text text-anchor="middle" x="66" y="-182.5" font-family="Helvetica,sans-Serif" font-size="10.00">gaia/ui/ControllerParams.h</text>
</a>
</g>
<!-- Node2&#45;&gt;Node3 -->
<g id="edge4" class="edge"><title>Node2&#45;&gt;Node3</title>
<path fill="none" stroke="midnightblue" d="M93.7639,-232.362C89.1629,-224.513 82.7748,-213.616 77.2861,-204.253"/>
<polygon fill="midnightblue" stroke="midnightblue" points="80.2733,-202.428 72.1966,-195.571 74.2344,-205.968 80.2733,-202.428"/>
</g>
<!-- Node4 -->
<g id="node7" class="node"><title>Node4</title>
<polygon fill="white" stroke="#bfbfbf" points="75.5,-0.5 75.5,-21.5 124.5,-21.5 124.5,-0.5 75.5,-0.5"/>
<text text-anchor="middle" x="100" y="-8.5" font-family="Helvetica,sans-Serif" font-size="10.00">stdint.h</text>
</g>
<!-- Node3&#45;&gt;Node4 -->
<g id="edge6" class="edge"><title>Node3&#45;&gt;Node4</title>
<path fill="none" stroke="midnightblue" d="M64.1795,-174.471C60.7692,-152.296 54.8823,-99.4133 68,-58 71.2398,-47.7718 77.4966,-37.7568 83.6248,-29.6175"/>
<polygon fill="midnightblue" stroke="midnightblue" points="86.5333,-31.5859 90.075,-21.6005 81.0794,-27.1978 86.5333,-31.5859"/>
</g>
<!-- Node6 -->
<g id="node11" class="node"><title>Node6</title>
<a xlink:href="../../d6/d52/_widget_controller_8h.html" target="_top" xlink:title="gaia/core/vision/WidgetController.h">
<polygon fill="white" stroke="black" points="255.5,-174.5 255.5,-195.5 424.5,-195.5 424.5,-174.5 255.5,-174.5"/>
<text text-anchor="middle" x="340" y="-182.5" font-family="Helvetica,sans-Serif" font-size="10.00">gaia/core/vision/WidgetController.h</text>
</a>
</g>
<!-- Node5&#45;&gt;Node6 -->
<g id="edge10" class="edge"><title>Node5&#45;&gt;Node6</title>
<path fill="none" stroke="midnightblue" d="M326.118,-232.362C328.323,-224.84 331.348,-214.519 334.012,-205.431"/>
<polygon fill="midnightblue" stroke="midnightblue" points="337.448,-206.151 336.902,-195.571 330.73,-204.182 337.448,-206.151"/>
</g>
<!-- Node7 -->
<g id="node13" class="node"><title>Node7</title>
<a xlink:href="../../d3/dd0/_event_control_8h.html" target="_top" xlink:title="gaia/core/event/EventControl.h">
<polygon fill="white" stroke="black" points="467,-116.5 467,-137.5 619,-137.5 619,-116.5 467,-116.5"/>
<text text-anchor="middle" x="543" y="-124.5" font-family="Helvetica,sans-Serif" font-size="10.00">gaia/core/event/EventControl.h</text>
</a>
</g>
<!-- Node6&#45;&gt;Node7 -->
<g id="edge12" class="edge"><title>Node6&#45;&gt;Node7</title>
<path fill="none" stroke="midnightblue" d="M376.762,-174.497C410.286,-164.918 459.982,-150.72 496.304,-140.342"/>
<polygon fill="midnightblue" stroke="midnightblue" points="497.516,-143.636 506.169,-137.523 495.592,-136.905 497.516,-143.636"/>
</g>
<!-- Node9 -->
<g id="node17" class="node"><title>Node9</title>
<a xlink:href="../../d4/d75/_widget_8h.html" target="_top" xlink:title="gaia/core/vision/Widget.h">
<polygon fill="white" stroke="black" points="276.5,-116.5 276.5,-137.5 403.5,-137.5 403.5,-116.5 276.5,-116.5"/>
<text text-anchor="middle" x="340" y="-124.5" font-family="Helvetica,sans-Serif" font-size="10.00">gaia/core/vision/Widget.h</text>
</a>
</g>
<!-- Node6&#45;&gt;Node9 -->
<g id="edge16" class="edge"><title>Node6&#45;&gt;Node9</title>
<path fill="none" stroke="midnightblue" d="M340,-174.362C340,-166.922 340,-156.743 340,-147.728"/>
<polygon fill="midnightblue" stroke="midnightblue" points="343.5,-147.571 340,-137.571 336.5,-147.571 343.5,-147.571"/>
</g>
<!-- Node8 -->
<g id="node15" class="node"><title>Node8</title>
<polygon fill="white" stroke="#bfbfbf" points="430,-0.5 430,-21.5 498,-21.5 498,-0.5 430,-0.5"/>
<text text-anchor="middle" x="464" y="-8.5" font-family="Helvetica,sans-Serif" font-size="10.00">sys/types.h</text>
</g>
<!-- Node7&#45;&gt;Node8 -->
<g id="edge14" class="edge"><title>Node7&#45;&gt;Node8</title>
<path fill="none" stroke="midnightblue" d="M553.293,-116.072C565.345,-101.896 582.205,-76.7624 570,-58 556.231,-36.8329 530.506,-25.1249 507.847,-18.6883"/>
<polygon fill="midnightblue" stroke="midnightblue" points="508.595,-15.2667 498.038,-16.1635 506.85,-22.0458 508.595,-15.2667"/>
</g>
<!-- Node10 -->
<g id="node19" class="node"><title>Node10</title>
<a xlink:href="../../d1/dd0/gmacros_8h.html" target="_top" xlink:title="gaia/base/gmacros.h">
<polygon fill="white" stroke="black" points="454.5,-58.5 454.5,-79.5 561.5,-79.5 561.5,-58.5 454.5,-58.5"/>
<text text-anchor="middle" x="508" y="-66.5" font-family="Helvetica,sans-Serif" font-size="10.00">gaia/base/gmacros.h</text>
</a>
</g>
<!-- Node9&#45;&gt;Node10 -->
<g id="edge18" class="edge"><title>Node9&#45;&gt;Node10</title>
<path fill="none" stroke="midnightblue" d="M370.424,-116.497C397.694,-107.082 437.893,-93.2036 467.804,-82.8773"/>
<polygon fill="midnightblue" stroke="midnightblue" points="469.209,-86.0949 477.519,-79.5231 466.925,-79.4781 469.209,-86.0949"/>
</g>
<!-- Node11 -->
<g id="node21" class="node"><title>Node11</title>
<a xlink:href="../../d0/d92/_property_animatable_8h.html" target="_top" xlink:title="gaia/core/animator/PropertyAnimatable.h">
<polygon fill="white" stroke="black" points="243,-58.5 243,-79.5 437,-79.5 437,-58.5 243,-58.5"/>
<text text-anchor="middle" x="340" y="-66.5" font-family="Helvetica,sans-Serif" font-size="10.00">gaia/core/animator/PropertyAnimatable.h</text>
</a>
</g>
<!-- Node9&#45;&gt;Node11 -->
<g id="edge20" class="edge"><title>Node9&#45;&gt;Node11</title>
<path fill="none" stroke="midnightblue" d="M340,-116.362C340,-108.922 340,-98.7427 340,-89.7276"/>
<polygon fill="midnightblue" stroke="midnightblue" points="343.5,-89.5706 340,-79.5707 336.5,-89.5707 343.5,-89.5706"/>
</g>
<!-- Node12 -->
<g id="node24" class="node"><title>Node12</title>
<a xlink:href="../../d8/d50/_widget_core_8h.html" target="_top" xlink:title="gaia/core/vision/WidgetCore.h">
<polygon fill="white" stroke="black" points="77,-58.5 77,-79.5 225,-79.5 225,-58.5 77,-58.5"/>
<text text-anchor="middle" x="151" y="-66.5" font-family="Helvetica,sans-Serif" font-size="10.00">gaia/core/vision/WidgetCore.h</text>
</a>
</g>
<!-- Node9&#45;&gt;Node12 -->
<g id="edge24" class="edge"><title>Node9&#45;&gt;Node12</title>
<path fill="none" stroke="midnightblue" d="M305.774,-116.497C274.695,-106.959 228.688,-92.8408 194.91,-82.475"/>
<polygon fill="midnightblue" stroke="midnightblue" points="195.877,-79.1109 185.291,-79.5231 193.824,-85.8029 195.877,-79.1109"/>
</g>
<!-- Node11&#45;&gt;Node8 -->
<g id="edge22" class="edge"><title>Node11&#45;&gt;Node8</title>
<path fill="none" stroke="midnightblue" d="M362.455,-58.4966C381.91,-49.397 410.28,-36.1273 432.091,-25.9253"/>
<polygon fill="midnightblue" stroke="midnightblue" points="433.717,-29.0285 441.293,-21.6212 430.752,-22.6878 433.717,-29.0285"/>
</g>
<!-- Node12&#45;&gt;Node4 -->
<g id="edge26" class="edge"><title>Node12&#45;&gt;Node4</title>
<path fill="none" stroke="midnightblue" d="M141.646,-58.3619C134.457,-50.1861 124.359,-38.7025 115.907,-29.0907"/>
<polygon fill="midnightblue" stroke="midnightblue" points="118.527,-26.7692 109.295,-21.5707 113.27,-31.3916 118.527,-26.7692"/>
</g>
</g>
</svg>
