<?xml version="1.0" encoding="UTF-8" standalone="no"?>
<!DOCTYPE svg PUBLIC "-//W3C//DTD SVG 1.1//EN"
 "http://www.w3.org/Graphics/SVG/1.1/DTD/svg11.dtd">
<!-- Generated by graphviz version 2.26.3 (20100126.1600)
 -->
<!-- Title: G Pages: 1 -->
<svg width="362pt" height="88pt"
 viewBox="0.00 0.00 362.00 88.00" xmlns="http://www.w3.org/2000/svg" xmlns:xlink="http://www.w3.org/1999/xlink">
<g id="graph1" class="graph" transform="scale(1 1) rotate(0) translate(4 84)">
<title>G</title>
<polygon fill="white" stroke="white" points="-4,5 -4,-84 359,-84 359,5 -4,5"/>
<!-- Node1 -->
<g id="node1" class="node"><title>Node1</title>
<polygon fill="#bfbfbf" stroke="black" points="0,-58.5 0,-79.5 354,-79.5 354,-58.5 0,-58.5"/>
<text text-anchor="middle" x="177" y="-66.5" font-family="Helvetica,sans-Serif" font-size="10.00">/home/vilon_tao/gaia/sdk/include/gaia/media/videoeditor/VideoEditorFactory.h</text>
</g>
<!-- Node2 -->
<g id="node3" class="node"><title>Node2</title>
<polygon fill="white" stroke="#bfbfbf" points="105.5,-0.5 105.5,-21.5 154.5,-21.5 154.5,-0.5 105.5,-0.5"/>
<text text-anchor="middle" x="130" y="-8.5" font-family="Helvetica,sans-Serif" font-size="10.00">stdint.h</text>
</g>
<!-- Node1&#45;&gt;Node2 -->
<g id="edge2" class="edge"><title>Node1&#45;&gt;Node2</title>
<path fill="none" stroke="midnightblue" d="M168.379,-58.3619C161.82,-50.2678 152.634,-38.9318 144.894,-29.3796"/>
<polygon fill="midnightblue" stroke="midnightblue" points="147.581,-27.1364 138.566,-21.5707 142.142,-31.5436 147.581,-27.1364"/>
</g>
<!-- Node3 -->
<g id="node5" class="node"><title>Node3</title>
<a xlink:href="../../d1/dd0/gmacros_8h.html" target="_top" xlink:title="gaia/base/gmacros.h">
<polygon fill="white" stroke="black" points="171.5,-0.5 171.5,-21.5 278.5,-21.5 278.5,-0.5 171.5,-0.5"/>
<text text-anchor="middle" x="225" y="-8.5" font-family="Helvetica,sans-Serif" font-size="10.00">gaia/base/gmacros.h</text>
</a>
</g>
<!-- Node1&#45;&gt;Node3 -->
<g id="edge4" class="edge"><title>Node1&#45;&gt;Node3</title>
<path fill="none" stroke="midnightblue" d="M185.804,-58.3619C192.502,-50.2678 201.884,-38.9318 209.789,-29.3796"/>
<polygon fill="midnightblue" stroke="midnightblue" points="212.573,-31.5061 216.252,-21.5707 207.18,-27.0431 212.573,-31.5061"/>
</g>
</g>
</svg>
