<?xml version="1.0" encoding="UTF-8" standalone="no"?>
<!DOCTYPE svg PUBLIC "-//W3C//DTD SVG 1.1//EN"
 "http://www.w3.org/Graphics/SVG/1.1/DTD/svg11.dtd">
<!-- Generated by graphviz version 2.26.3 (20100126.1600)
 -->
<!-- Title: G Pages: 1 -->
<svg width="307pt" height="204pt"
 viewBox="0.00 0.00 307.00 204.00" xmlns="http://www.w3.org/2000/svg" xmlns:xlink="http://www.w3.org/1999/xlink">
<g id="graph1" class="graph" transform="scale(1 1) rotate(0) translate(4 200)">
<title>G</title>
<polygon fill="white" stroke="white" points="-4,5 -4,-200 304,-200 304,5 -4,5"/>
<!-- Node1 -->
<g id="node1" class="node"><title>Node1</title>
<polygon fill="#bfbfbf" stroke="black" points="3,-174.5 3,-195.5 299,-195.5 299,-174.5 3,-174.5"/>
<text text-anchor="middle" x="151" y="-182.5" font-family="Helvetica,sans-Serif" font-size="10.00">/home/vilon_tao/gaia/sdk/include/gaia/ui/dialog/DatePickerBox.h</text>
</g>
<!-- Node2 -->
<g id="node3" class="node"><title>Node2</title>
<a xlink:href="../../db/d62/_alert_box_8h.html" target="_top" xlink:title="gaia/ui/dialog/AlertBox.h">
<polygon fill="white" stroke="black" points="46,-116.5 46,-137.5 168,-137.5 168,-116.5 46,-116.5"/>
<text text-anchor="middle" x="107" y="-124.5" font-family="Helvetica,sans-Serif" font-size="10.00">gaia/ui/dialog/AlertBox.h</text>
</a>
</g>
<!-- Node1&#45;&gt;Node2 -->
<g id="edge2" class="edge"><title>Node1&#45;&gt;Node2</title>
<path fill="none" stroke="midnightblue" d="M142.93,-174.362C136.851,-166.35 128.363,-155.161 121.163,-145.67"/>
<polygon fill="midnightblue" stroke="midnightblue" points="123.851,-143.422 115.019,-137.571 118.275,-147.653 123.851,-143.422"/>
</g>
<!-- Node4 -->
<g id="node7" class="node"><title>Node4</title>
<polygon fill="white" stroke="#bfbfbf" points="124,-0.5 124,-21.5 192,-21.5 192,-0.5 124,-0.5"/>
<text text-anchor="middle" x="158" y="-8.5" font-family="Helvetica,sans-Serif" font-size="10.00">sys/types.h</text>
</g>
<!-- Node1&#45;&gt;Node4 -->
<g id="edge10" class="edge"><title>Node1&#45;&gt;Node4</title>
<path fill="none" stroke="midnightblue" d="M158.883,-174.465C165.178,-165.352 173.504,-151.544 177,-138 186.557,-100.98 174.782,-56.5637 165.967,-31.2758"/>
<polygon fill="midnightblue" stroke="midnightblue" points="169.178,-29.8644 162.442,-21.6865 162.608,-32.28 169.178,-29.8644"/>
</g>
<!-- Node3 -->
<g id="node5" class="node"><title>Node3</title>
<a xlink:href="../../dc/de0/_dialog_box_8h.html" target="_top" xlink:title="gaia/ui/dialog/DialogBox.h">
<polygon fill="white" stroke="black" points="0,-58.5 0,-79.5 130,-79.5 130,-58.5 0,-58.5"/>
<text text-anchor="middle" x="65" y="-66.5" font-family="Helvetica,sans-Serif" font-size="10.00">gaia/ui/dialog/DialogBox.h</text>
</a>
</g>
<!-- Node2&#45;&gt;Node3 -->
<g id="edge4" class="edge"><title>Node2&#45;&gt;Node3</title>
<path fill="none" stroke="midnightblue" d="M99.2966,-116.362C93.5537,-108.431 85.5572,-97.3885 78.7301,-87.9606"/>
<polygon fill="midnightblue" stroke="midnightblue" points="81.3546,-85.6173 72.6546,-79.5707 75.6849,-89.7229 81.3546,-85.6173"/>
</g>
<!-- Node2&#45;&gt;Node4 -->
<g id="edge8" class="edge"><title>Node2&#45;&gt;Node4</title>
<path fill="none" stroke="midnightblue" d="M115.718,-116.411C122.866,-107.265 132.784,-93.4392 139,-80 146.162,-64.5169 151.106,-45.7946 154.152,-31.7611"/>
<polygon fill="midnightblue" stroke="midnightblue" points="157.643,-32.1586 156.194,-21.6633 150.782,-30.7712 157.643,-32.1586"/>
</g>
<!-- Node3&#45;&gt;Node4 -->
<g id="edge6" class="edge"><title>Node3&#45;&gt;Node4</title>
<path fill="none" stroke="midnightblue" d="M82.0576,-58.3619C96.0848,-49.6138 116.184,-37.0786 132.182,-27.1015"/>
<polygon fill="midnightblue" stroke="midnightblue" points="134.418,-29.8323 141.051,-21.5707 130.713,-23.8927 134.418,-29.8323"/>
</g>
</g>
</svg>
