<?xml version="1.0" encoding="UTF-8" standalone="no"?>
<!DOCTYPE svg PUBLIC "-//W3C//DTD SVG 1.1//EN"
 "http://www.w3.org/Graphics/SVG/1.1/DTD/svg11.dtd">
<!-- Generated by graphviz version 2.26.3 (20100126.1600)
 -->
<!-- Title: G Pages: 1 -->
<svg width="358pt" height="146pt"
 viewBox="0.00 0.00 358.00 146.00" xmlns="http://www.w3.org/2000/svg" xmlns:xlink="http://www.w3.org/1999/xlink">
<g id="graph1" class="graph" transform="scale(1 1) rotate(0) translate(4 142)">
<title>G</title>
<polygon fill="white" stroke="white" points="-4,5 -4,-142 355,-142 355,5 -4,5"/>
<!-- Node1 -->
<g id="node1" class="node"><title>Node1</title>
<polygon fill="#bfbfbf" stroke="black" points="0,-116.5 0,-137.5 350,-137.5 350,-116.5 0,-116.5"/>
<text text-anchor="middle" x="175" y="-124.5" font-family="Helvetica,sans-Serif" font-size="10.00">/home/vilon_tao/gaia/sdk/include/gaia/core/animation/AnticipateInterpolator.h</text>
</g>
<!-- Node2 -->
<g id="node3" class="node"><title>Node2</title>
<a xlink:href="../../da/d25/_i_interpolator_8h.html" target="_top" xlink:title="gaia/core/animation/IInterpolator.h">
<polygon fill="white" stroke="black" points="93,-58.5 93,-79.5 257,-79.5 257,-58.5 93,-58.5"/>
<text text-anchor="middle" x="175" y="-66.5" font-family="Helvetica,sans-Serif" font-size="10.00">gaia/core/animation/IInterpolator.h</text>
</a>
</g>
<!-- Node1&#45;&gt;Node2 -->
<g id="edge2" class="edge"><title>Node1&#45;&gt;Node2</title>
<path fill="none" stroke="midnightblue" d="M175,-116.362C175,-108.922 175,-98.7427 175,-89.7276"/>
<polygon fill="midnightblue" stroke="midnightblue" points="178.5,-89.5706 175,-79.5707 171.5,-89.5707 178.5,-89.5706"/>
</g>
<!-- Node3 -->
<g id="node5" class="node"><title>Node3</title>
<polygon fill="white" stroke="#bfbfbf" points="70,-0.5 70,-21.5 138,-21.5 138,-0.5 70,-0.5"/>
<text text-anchor="middle" x="104" y="-8.5" font-family="Helvetica,sans-Serif" font-size="10.00">sys/types.h</text>
</g>
<!-- Node2&#45;&gt;Node3 -->
<g id="edge4" class="edge"><title>Node2&#45;&gt;Node3</title>
<path fill="none" stroke="midnightblue" d="M161.978,-58.3619C151.569,-49.859 136.781,-37.7785 124.745,-27.9466"/>
<polygon fill="midnightblue" stroke="midnightblue" points="126.899,-25.1866 116.94,-21.5707 122.47,-30.6077 126.899,-25.1866"/>
</g>
<!-- Node4 -->
<g id="node7" class="node"><title>Node4</title>
<a xlink:href="../../d7/dba/_i_time_interpolator_8h.html" target="_top" xlink:title="gaia/core/animator/ITimeInterpolator.h">
<polygon fill="white" stroke="black" points="156,-0.5 156,-21.5 338,-21.5 338,-0.5 156,-0.5"/>
<text text-anchor="middle" x="247" y="-8.5" font-family="Helvetica,sans-Serif" font-size="10.00">gaia/core/animator/ITimeInterpolator.h</text>
</a>
</g>
<!-- Node2&#45;&gt;Node4 -->
<g id="edge6" class="edge"><title>Node2&#45;&gt;Node4</title>
<path fill="none" stroke="midnightblue" d="M188.206,-58.3619C198.761,-49.859 213.758,-37.7785 225.963,-27.9466"/>
<polygon fill="midnightblue" stroke="midnightblue" points="228.286,-30.5696 233.878,-21.5707 223.895,-25.1183 228.286,-30.5696"/>
</g>
</g>
</svg>
