<?xml version="1.0" encoding="UTF-8" standalone="no"?>
<!DOCTYPE svg PUBLIC "-//W3C//DTD SVG 1.1//EN"
 "http://www.w3.org/Graphics/SVG/1.1/DTD/svg11.dtd">
<!-- Generated by graphviz version 2.26.3 (20100126.1600)
 -->
<!-- Title: G Pages: 1 -->
<svg width="792pt" height="262pt"
 viewBox="0.00 0.00 792.00 262.00" xmlns="http://www.w3.org/2000/svg" xmlns:xlink="http://www.w3.org/1999/xlink">
<g id="graph1" class="graph" transform="scale(1 1) rotate(0) translate(4 258)">
<title>G</title>
<polygon fill="white" stroke="white" points="-4,5 -4,-258 789,-258 789,5 -4,5"/>
<!-- Node1 -->
<g id="node1" class="node"><title>Node1</title>
<polygon fill="#bfbfbf" stroke="black" points="185.5,-232.5 185.5,-253.5 426.5,-253.5 426.5,-232.5 185.5,-232.5"/>
<text text-anchor="middle" x="306" y="-240.5" font-family="Helvetica,sans-Serif" font-size="10.00">/home/vilon_tao/gaia/sdk/include/gaia/core/Parcel.h</text>
</g>
<!-- Node2 -->
<g id="node3" class="node"><title>Node2</title>
<a xlink:href="../../d2/de0/_application_error_report_8h.html" target="_top" xlink:title="/home/vilon_tao/gaia/sdk/include/gaia/core/ApplicationErrorReport.h">
<polygon fill="white" stroke="black" points="-0.5,-174.5 -0.5,-195.5 310.5,-195.5 310.5,-174.5 -0.5,-174.5"/>
<text text-anchor="middle" x="155" y="-182.5" font-family="Helvetica,sans-Serif" font-size="10.00">/home/vilon_tao/gaia/sdk/include/gaia/core/ApplicationErrorReport.h</text>
</a>
</g>
<!-- Node1&#45;&gt;Node2 -->
<g id="edge2" class="edge"><title>Node1&#45;&gt;Node2</title>
<path fill="none" stroke="midnightblue" d="M269.224,-228.874C242.429,-218.582 206.71,-204.862 182.396,-195.523"/>
<polygon fill="midnightblue" stroke="midnightblue" points="268.065,-232.178 278.655,-232.497 270.575,-225.644 268.065,-232.178"/>
</g>
<!-- Node3 -->
<g id="node5" class="node"><title>Node3</title>
<a xlink:href="../../d1/dbb/_i_binder_8h.html" target="_top" xlink:title="/home/vilon_tao/gaia/sdk/include/gaia/core/ipc/IBinder.h">
<polygon fill="white" stroke="black" points="328,-174.5 328,-195.5 588,-195.5 588,-174.5 328,-174.5"/>
<text text-anchor="middle" x="458" y="-182.5" font-family="Helvetica,sans-Serif" font-size="10.00">/home/vilon_tao/gaia/sdk/include/gaia/core/ipc/IBinder.h</text>
</a>
</g>
<!-- Node1&#45;&gt;Node3 -->
<g id="edge4" class="edge"><title>Node1&#45;&gt;Node3</title>
<path fill="none" stroke="midnightblue" d="M343.019,-228.874C369.992,-218.582 405.948,-204.862 430.422,-195.523"/>
<polygon fill="midnightblue" stroke="midnightblue" points="341.621,-225.661 333.526,-232.497 344.117,-232.202 341.621,-225.661"/>
</g>
<!-- Node4 -->
<g id="node7" class="node"><title>Node4</title>
<a xlink:href="../../de/dc3/_delegate_connection_8h.html" target="_top" xlink:title="/home/vilon_tao/gaia/sdk/include/gaia/core/DelegateConnection.h">
<polygon fill="white" stroke="black" points="158,-116.5 158,-137.5 460,-137.5 460,-116.5 158,-116.5"/>
<text text-anchor="middle" x="309" y="-124.5" font-family="Helvetica,sans-Serif" font-size="10.00">/home/vilon_tao/gaia/sdk/include/gaia/core/DelegateConnection.h</text>
</a>
</g>
<!-- Node3&#45;&gt;Node4 -->
<g id="edge6" class="edge"><title>Node3&#45;&gt;Node4</title>
<path fill="none" stroke="midnightblue" d="M421.363,-170.739C394.962,-160.462 359.92,-146.821 336.033,-137.523"/>
<polygon fill="midnightblue" stroke="midnightblue" points="420.429,-174.131 431.017,-174.497 422.968,-167.607 420.429,-174.131"/>
</g>
<!-- Node5 -->
<g id="node9" class="node"><title>Node5</title>
<a xlink:href="../../da/de3/_binder_8h.html" target="_top" xlink:title="/home/vilon_tao/gaia/sdk/include/gaia/core/ipc/Binder.h">
<polygon fill="white" stroke="black" points="477.5,-116.5 477.5,-137.5 734.5,-137.5 734.5,-116.5 477.5,-116.5"/>
<text text-anchor="middle" x="606" y="-124.5" font-family="Helvetica,sans-Serif" font-size="10.00">/home/vilon_tao/gaia/sdk/include/gaia/core/ipc/Binder.h</text>
</a>
</g>
<!-- Node3&#45;&gt;Node5 -->
<g id="edge8" class="edge"><title>Node3&#45;&gt;Node5</title>
<path fill="none" stroke="midnightblue" d="M494.36,-170.751C520.495,-160.509 555.168,-146.921 578.898,-137.621"/>
<polygon fill="midnightblue" stroke="midnightblue" points="492.835,-167.589 484.802,-174.497 495.389,-174.107 492.835,-167.589"/>
</g>
<!-- Node6 -->
<g id="node11" class="node"><title>Node6</title>
<a xlink:href="../../da/d82/_i_interface_8h.html" target="_top" xlink:title="/home/vilon_tao/gaia/sdk/include/gaia/core/ipc/IInterface.h">
<polygon fill="white" stroke="black" points="389,-58.5 389,-79.5 659,-79.5 659,-58.5 389,-58.5"/>
<text text-anchor="middle" x="524" y="-66.5" font-family="Helvetica,sans-Serif" font-size="10.00">/home/vilon_tao/gaia/sdk/include/gaia/core/ipc/IInterface.h</text>
</a>
</g>
<!-- Node5&#45;&gt;Node6 -->
<g id="edge10" class="edge"><title>Node5&#45;&gt;Node6</title>
<path fill="none" stroke="midnightblue" d="M582.73,-110.541C568.672,-100.597 551.17,-88.2177 538.945,-79.5707"/>
<polygon fill="midnightblue" stroke="midnightblue" points="580.775,-113.445 590.96,-116.362 584.817,-107.73 580.775,-113.445"/>
</g>
<!-- Node7 -->
<g id="node13" class="node"><title>Node7</title>
<a xlink:href="../../d6/d9e/_i_media_container_delegate_8h.html" target="_top" xlink:title="/home/vilon_tao/gaia/sdk/include/gaia/defcontainer/IMediaContainerDelegate.h">
<polygon fill="white" stroke="black" points="426,-0.5 426,-21.5 784,-21.5 784,-0.5 426,-0.5"/>
<text text-anchor="middle" x="605" y="-8.5" font-family="Helvetica,sans-Serif" font-size="10.00">/home/vilon_tao/gaia/sdk/include/gaia/defcontainer/IMediaContainerDelegate.h</text>
</a>
</g>
<!-- Node5&#45;&gt;Node7 -->
<g id="edge14" class="edge"><title>Node5&#45;&gt;Node7</title>
<path fill="none" stroke="midnightblue" d="M636.29,-111.404C656.857,-98.5377 678.551,-79.0352 668,-58 659.741,-41.5334 642.672,-29.3636 628.383,-21.5381"/>
<polygon fill="midnightblue" stroke="midnightblue" points="634.483,-108.406 627.643,-116.496 638.036,-114.438 634.483,-108.406"/>
</g>
<!-- Node6&#45;&gt;Node7 -->
<g id="edge12" class="edge"><title>Node6&#45;&gt;Node7</title>
<path fill="none" stroke="midnightblue" d="M547.38,-52.2587C561.198,-42.3641 578.275,-30.1361 590.238,-21.5707"/>
<polygon fill="midnightblue" stroke="midnightblue" points="544.95,-49.6943 538.857,-58.3619 549.025,-55.3857 544.95,-49.6943"/>
</g>
</g>
</svg>
