<?xml version="1.0" encoding="UTF-8" standalone="no"?>
<!DOCTYPE svg PUBLIC "-//W3C//DTD SVG 1.1//EN"
 "http://www.w3.org/Graphics/SVG/1.1/DTD/svg11.dtd">
<!-- Generated by graphviz version 2.26.3 (20100126.1600)
 -->
<!-- Title: G Pages: 1 -->
<svg width="1100pt" height="146pt"
 viewBox="0.00 0.00 1100.00 146.00" xmlns="http://www.w3.org/2000/svg" xmlns:xlink="http://www.w3.org/1999/xlink">
<g id="graph1" class="graph" transform="scale(1 1) rotate(0) translate(4 142)">
<title>G</title>
<polygon fill="white" stroke="white" points="-4,5 -4,-142 1097,-142 1097,5 -4,5"/>
<!-- Node1 -->
<g id="node1" class="node"><title>Node1</title>
<polygon fill="#bfbfbf" stroke="black" points="400,-116.5 400,-137.5 626,-137.5 626,-116.5 400,-116.5"/>
<text text-anchor="middle" x="513" y="-124.5" font-family="Helvetica,sans-Serif" font-size="10.00">/home/vilon_tao/gaia/sdk/include/gaia/core/GL.h</text>
</g>
<!-- Node2 -->
<g id="node3" class="node"><title>Node2</title>
<a xlink:href="../../d7/d7e/_g_l10_8h.html" target="_top" xlink:title="/home/vilon_tao/gaia/sdk/include/gaia/core/GL10.h">
<polygon fill="white" stroke="black" points="0,-58.5 0,-79.5 236,-79.5 236,-58.5 0,-58.5"/>
<text text-anchor="middle" x="118" y="-66.5" font-family="Helvetica,sans-Serif" font-size="10.00">/home/vilon_tao/gaia/sdk/include/gaia/core/GL10.h</text>
</a>
</g>
<!-- Node1&#45;&gt;Node2 -->
<g id="edge2" class="edge"><title>Node1&#45;&gt;Node2</title>
<path fill="none" stroke="midnightblue" d="M431.192,-114.988C359.965,-104.529 257.73,-89.5174 189.666,-79.5231"/>
<polygon fill="midnightblue" stroke="midnightblue" points="431.066,-118.507 441.468,-116.497 432.083,-111.581 431.066,-118.507"/>
</g>
<!-- Node4 -->
<g id="node7" class="node"><title>Node4</title>
<a xlink:href="../../db/d02/_g_l10_ext_8h.html" target="_top" xlink:title="/home/vilon_tao/gaia/sdk/include/gaia/core/GL10Ext.h">
<polygon fill="white" stroke="black" points="253.5,-58.5 253.5,-79.5 504.5,-79.5 504.5,-58.5 253.5,-58.5"/>
<text text-anchor="middle" x="379" y="-66.5" font-family="Helvetica,sans-Serif" font-size="10.00">/home/vilon_tao/gaia/sdk/include/gaia/core/GL10Ext.h</text>
</a>
</g>
<!-- Node1&#45;&gt;Node4 -->
<g id="edge6" class="edge"><title>Node1&#45;&gt;Node4</title>
<path fill="none" stroke="midnightblue" d="M479.452,-112.479C455.864,-102.269 424.834,-88.8386 403.539,-79.6212"/>
<polygon fill="midnightblue" stroke="midnightblue" points="478.166,-115.736 488.734,-116.497 480.947,-109.312 478.166,-115.736"/>
</g>
<!-- Node5 -->
<g id="node9" class="node"><title>Node5</title>
<a xlink:href="../../d6/d78/_g_l11_ext_8h.html" target="_top" xlink:title="/home/vilon_tao/gaia/sdk/include/gaia/core/GL11Ext.h">
<polygon fill="white" stroke="black" points="521.5,-58.5 521.5,-79.5 772.5,-79.5 772.5,-58.5 521.5,-58.5"/>
<text text-anchor="middle" x="647" y="-66.5" font-family="Helvetica,sans-Serif" font-size="10.00">/home/vilon_tao/gaia/sdk/include/gaia/core/GL11Ext.h</text>
</a>
</g>
<!-- Node1&#45;&gt;Node5 -->
<g id="edge8" class="edge"><title>Node1&#45;&gt;Node5</title>
<path fill="none" stroke="midnightblue" d="M546.548,-112.479C570.136,-102.269 601.166,-88.8386 622.461,-79.6212"/>
<polygon fill="midnightblue" stroke="midnightblue" points="545.053,-109.312 537.266,-116.497 547.834,-115.736 545.053,-109.312"/>
</g>
<!-- Node6 -->
<g id="node11" class="node"><title>Node6</title>
<a xlink:href="../../df/dcf/_g_l11_extension_pack_8h.html" target="_top" xlink:title="/home/vilon_tao/gaia/sdk/include/gaia/core/GL11ExtensionPack.h">
<polygon fill="white" stroke="black" points="790,-58.5 790,-79.5 1092,-79.5 1092,-58.5 790,-58.5"/>
<text text-anchor="middle" x="941" y="-66.5" font-family="Helvetica,sans-Serif" font-size="10.00">/home/vilon_tao/gaia/sdk/include/gaia/core/GL11ExtensionPack.h</text>
</a>
</g>
<!-- Node1&#45;&gt;Node6 -->
<g id="edge10" class="edge"><title>Node1&#45;&gt;Node6</title>
<path fill="none" stroke="midnightblue" d="M600.695,-115.116C677.912,-104.652 789.294,-89.5583 863.347,-79.5231"/>
<polygon fill="midnightblue" stroke="midnightblue" points="599.947,-111.685 590.508,-116.497 600.887,-118.622 599.947,-111.685"/>
</g>
<!-- Node3 -->
<g id="node5" class="node"><title>Node3</title>
<a xlink:href="../../db/d1d/_g_l11_8h.html" target="_top" xlink:title="/home/vilon_tao/gaia/sdk/include/gaia/core/GL11.h">
<polygon fill="white" stroke="black" points="0,-0.5 0,-21.5 236,-21.5 236,-0.5 0,-0.5"/>
<text text-anchor="middle" x="118" y="-8.5" font-family="Helvetica,sans-Serif" font-size="10.00">/home/vilon_tao/gaia/sdk/include/gaia/core/GL11.h</text>
</a>
</g>
<!-- Node2&#45;&gt;Node3 -->
<g id="edge4" class="edge"><title>Node2&#45;&gt;Node3</title>
<path fill="none" stroke="midnightblue" d="M118,-48.1906C118,-39.1684 118,-28.9941 118,-21.5707"/>
<polygon fill="midnightblue" stroke="midnightblue" points="114.5,-48.3619 118,-58.3619 121.5,-48.3619 114.5,-48.3619"/>
</g>
</g>
</svg>
