<?xml version="1.0" encoding="UTF-8" standalone="no"?>
<!DOCTYPE svg PUBLIC "-//W3C//DTD SVG 1.1//EN"
 "http://www.w3.org/Graphics/SVG/1.1/DTD/svg11.dtd">
<!-- Generated by graphviz version 2.26.3 (20100126.1600)
 -->
<!-- Title: G Pages: 1 -->
<svg width="376pt" height="146pt"
 viewBox="0.00 0.00 376.00 146.00" xmlns="http://www.w3.org/2000/svg" xmlns:xlink="http://www.w3.org/1999/xlink">
<g id="graph1" class="graph" transform="scale(1 1) rotate(0) translate(4 142)">
<title>G</title>
<polygon fill="white" stroke="white" points="-4,5 -4,-142 373,-142 373,5 -4,5"/>
<!-- Node1 -->
<g id="node1" class="node"><title>Node1</title>
<polygon fill="#bfbfbf" stroke="black" points="0,-116.5 0,-137.5 368,-137.5 368,-116.5 0,-116.5"/>
<text text-anchor="middle" x="184" y="-124.5" font-family="Helvetica,sans-Serif" font-size="10.00">/home/vilon_tao/gaia/sdk/include/gaia/connectivity/bluetooth/BluetoothHeadset.h</text>
</g>
<!-- Node2 -->
<g id="node3" class="node"><title>Node2</title>
<polygon fill="white" stroke="#bfbfbf" points="98.5,-0.5 98.5,-21.5 147.5,-21.5 147.5,-0.5 98.5,-0.5"/>
<text text-anchor="middle" x="123" y="-8.5" font-family="Helvetica,sans-Serif" font-size="10.00">stdint.h</text>
</g>
<!-- Node1&#45;&gt;Node2 -->
<g id="edge2" class="edge"><title>Node1&#45;&gt;Node2</title>
<path fill="none" stroke="midnightblue" d="M164.631,-116.366C151.848,-108.216 136.029,-95.7101 128,-80 120.496,-65.3162 119.603,-46.5359 120.388,-32.2767"/>
<polygon fill="midnightblue" stroke="midnightblue" points="123.904,-32.2406 121.283,-21.9751 116.93,-31.6345 123.904,-32.2406"/>
</g>
<!-- Node3 -->
<g id="node5" class="node"><title>Node3</title>
<a xlink:href="../../d1/dd0/gmacros_8h.html" target="_top" xlink:title="gaia/base/gmacros.h">
<polygon fill="white" stroke="black" points="191.5,-0.5 191.5,-21.5 298.5,-21.5 298.5,-0.5 191.5,-0.5"/>
<text text-anchor="middle" x="245" y="-8.5" font-family="Helvetica,sans-Serif" font-size="10.00">gaia/base/gmacros.h</text>
</a>
</g>
<!-- Node1&#45;&gt;Node3 -->
<g id="edge4" class="edge"><title>Node1&#45;&gt;Node3</title>
<path fill="none" stroke="midnightblue" d="M203.369,-116.366C216.152,-108.216 231.971,-95.7101 240,-80 247.504,-65.3162 248.397,-46.5359 247.612,-32.2767"/>
<polygon fill="midnightblue" stroke="midnightblue" points="251.07,-31.6345 246.717,-21.9751 244.096,-32.2406 251.07,-31.6345"/>
</g>
<!-- Node4 -->
<g id="node7" class="node"><title>Node4</title>
<a xlink:href="../../d6/dcc/_bluetooth_profile_8h.html" target="_top" xlink:title="BluetoothProfile.h">
<polygon fill="white" stroke="black" points="137,-58.5 137,-79.5 231,-79.5 231,-58.5 137,-58.5"/>
<text text-anchor="middle" x="184" y="-66.5" font-family="Helvetica,sans-Serif" font-size="10.00">BluetoothProfile.h</text>
</a>
</g>
<!-- Node1&#45;&gt;Node4 -->
<g id="edge6" class="edge"><title>Node1&#45;&gt;Node4</title>
<path fill="none" stroke="midnightblue" d="M184,-116.362C184,-108.922 184,-98.7427 184,-89.7276"/>
<polygon fill="midnightblue" stroke="midnightblue" points="187.5,-89.5706 184,-79.5707 180.5,-89.5707 187.5,-89.5706"/>
</g>
<!-- Node4&#45;&gt;Node2 -->
<g id="edge8" class="edge"><title>Node4&#45;&gt;Node2</title>
<path fill="none" stroke="midnightblue" d="M172.812,-58.3619C164.041,-50.0226 151.651,-38.2418 141.422,-28.5162"/>
<polygon fill="midnightblue" stroke="midnightblue" points="143.776,-25.9248 134.117,-21.5707 138.953,-30.9978 143.776,-25.9248"/>
</g>
<!-- Node4&#45;&gt;Node3 -->
<g id="edge10" class="edge"><title>Node4&#45;&gt;Node3</title>
<path fill="none" stroke="midnightblue" d="M195.188,-58.3619C203.959,-50.0226 216.349,-38.2418 226.578,-28.5162"/>
<polygon fill="midnightblue" stroke="midnightblue" points="229.047,-30.9978 233.883,-21.5707 224.224,-25.9248 229.047,-30.9978"/>
</g>
</g>
</svg>
