<?xml version="1.0" encoding="UTF-8" standalone="no"?>
<!DOCTYPE svg PUBLIC "-//W3C//DTD SVG 1.1//EN"
 "http://www.w3.org/Graphics/SVG/1.1/DTD/svg11.dtd">
<!-- Generated by graphviz version 2.26.3 (20100126.1600)
 -->
<!-- Title: G Pages: 1 -->
<svg width="602pt" height="378pt"
 viewBox="0.00 0.00 601.95 378.00" xmlns="http://www.w3.org/2000/svg" xmlns:xlink="http://www.w3.org/1999/xlink">
<g id="graph1" class="graph" transform="scale(1 1) rotate(0) translate(4 374)">
<title>G</title>
<polygon fill="white" stroke="white" points="-4,5 -4,-374 598.946,-374 598.946,5 -4,5"/>
<!-- Node1 -->
<g id="node1" class="node"><title>Node1</title>
<polygon fill="#bfbfbf" stroke="black" points="0,-348.5 0,-369.5 342,-369.5 342,-348.5 0,-348.5"/>
<text text-anchor="middle" x="171" y="-356.5" font-family="Helvetica,sans-Serif" font-size="10.00">/home/vilon_tao/gaia/sdk/include/gaia/text/method/LinkMovementMethod.h</text>
</g>
<!-- Node2 -->
<g id="node3" class="node"><title>Node2</title>
<a xlink:href="../../df/d3c/_scrolling_movement_method_8h.html" target="_top" xlink:title="gaia/text/method/ScrollingMovementMethod.h">
<polygon fill="white" stroke="black" points="131,-290.5 131,-311.5 347,-311.5 347,-290.5 131,-290.5"/>
<text text-anchor="middle" x="239" y="-298.5" font-family="Helvetica,sans-Serif" font-size="10.00">gaia/text/method/ScrollingMovementMethod.h</text>
</a>
</g>
<!-- Node1&#45;&gt;Node2 -->
<g id="edge2" class="edge"><title>Node1&#45;&gt;Node2</title>
<path fill="none" stroke="midnightblue" d="M183.472,-348.362C193.345,-339.941 207.333,-328.011 218.798,-318.231"/>
<polygon fill="midnightblue" stroke="midnightblue" points="221.27,-320.723 226.607,-311.571 216.727,-315.397 221.27,-320.723"/>
</g>
<!-- Node4 -->
<g id="node7" class="node"><title>Node4</title>
<a xlink:href="../../d1/dd0/gmacros_8h.html" target="_top" xlink:title="gaia/base/gmacros.h">
<polygon fill="white" stroke="black" points="68.5,-174.5 68.5,-195.5 175.5,-195.5 175.5,-174.5 68.5,-174.5"/>
<text text-anchor="middle" x="122" y="-182.5" font-family="Helvetica,sans-Serif" font-size="10.00">gaia/base/gmacros.h</text>
</a>
</g>
<!-- Node1&#45;&gt;Node4 -->
<g id="edge32" class="edge"><title>Node1&#45;&gt;Node4</title>
<path fill="none" stroke="midnightblue" d="M154.41,-348.5C142.924,-340.174 128.566,-327.397 122,-312 107.091,-277.04 112.259,-231.58 117.227,-205.61"/>
<polygon fill="midnightblue" stroke="midnightblue" points="120.666,-206.266 119.285,-195.761 113.814,-204.834 120.666,-206.266"/>
</g>
<!-- Node3 -->
<g id="node5" class="node"><title>Node3</title>
<a xlink:href="../../d5/d96/_movement_method_8h.html" target="_top" xlink:title="gaia/text/method/MovementMethod.h">
<polygon fill="white" stroke="black" points="168.5,-232.5 168.5,-253.5 347.5,-253.5 347.5,-232.5 168.5,-232.5"/>
<text text-anchor="middle" x="258" y="-240.5" font-family="Helvetica,sans-Serif" font-size="10.00">gaia/text/method/MovementMethod.h</text>
</a>
</g>
<!-- Node2&#45;&gt;Node3 -->
<g id="edge4" class="edge"><title>Node2&#45;&gt;Node3</title>
<path fill="none" stroke="midnightblue" d="M242.485,-290.362C244.976,-282.758 248.404,-272.294 251.404,-263.135"/>
<polygon fill="midnightblue" stroke="midnightblue" points="254.75,-264.163 254.537,-253.571 248.098,-261.984 254.75,-264.163"/>
</g>
<!-- Node2&#45;&gt;Node4 -->
<g id="edge30" class="edge"><title>Node2&#45;&gt;Node4</title>
<path fill="none" stroke="midnightblue" d="M213.879,-290.338C197.072,-282.251 175.312,-269.83 160,-254 146.404,-239.943 136.14,-220.061 129.728,-205.247"/>
<polygon fill="midnightblue" stroke="midnightblue" points="132.942,-203.86 125.911,-195.935 126.465,-206.515 132.942,-203.86"/>
</g>
<!-- Node3&#45;&gt;Node4 -->
<g id="edge6" class="edge"><title>Node3&#45;&gt;Node4</title>
<path fill="none" stroke="midnightblue" d="M233.371,-232.497C211.843,-223.315 180.36,-209.889 156.355,-199.652"/>
<polygon fill="midnightblue" stroke="midnightblue" points="157.476,-196.325 146.905,-195.621 154.73,-202.764 157.476,-196.325"/>
</g>
<!-- Node5 -->
<g id="node9" class="node"><title>Node5</title>
<a xlink:href="../../dc/de9/_motion_event_8h.html" target="_top" xlink:title="gaia/core/event/MotionEvent.h">
<polygon fill="white" stroke="black" points="72.5,-116.5 72.5,-137.5 221.5,-137.5 221.5,-116.5 72.5,-116.5"/>
<text text-anchor="middle" x="147" y="-124.5" font-family="Helvetica,sans-Serif" font-size="10.00">gaia/core/event/MotionEvent.h</text>
</a>
</g>
<!-- Node3&#45;&gt;Node5 -->
<g id="edge8" class="edge"><title>Node3&#45;&gt;Node5</title>
<path fill="none" stroke="midnightblue" d="M247.756,-232.295C228.675,-212.355 187.512,-169.337 164.134,-144.906"/>
<polygon fill="midnightblue" stroke="midnightblue" points="166.661,-142.485 157.219,-137.679 161.604,-147.324 166.661,-142.485"/>
</g>
<!-- Node7 -->
<g id="node13" class="node"><title>Node7</title>
<a xlink:href="../../dd/d79/_key_event_8h.html" target="_top" xlink:title="gaia/core/event/KeyEvent.h">
<polygon fill="white" stroke="black" points="230.5,-174.5 230.5,-195.5 367.5,-195.5 367.5,-174.5 230.5,-174.5"/>
<text text-anchor="middle" x="299" y="-182.5" font-family="Helvetica,sans-Serif" font-size="10.00">gaia/core/event/KeyEvent.h</text>
</a>
</g>
<!-- Node3&#45;&gt;Node7 -->
<g id="edge12" class="edge"><title>Node3&#45;&gt;Node7</title>
<path fill="none" stroke="midnightblue" d="M265.52,-232.362C271.126,-224.431 278.932,-213.389 285.597,-203.961"/>
<polygon fill="midnightblue" stroke="midnightblue" points="288.613,-205.757 291.528,-195.571 282.897,-201.716 288.613,-205.757"/>
</g>
<!-- Node10 -->
<g id="node19" class="node"><title>Node10</title>
<polygon fill="white" stroke="#bfbfbf" points="536.5,-0.5 536.5,-21.5 585.5,-21.5 585.5,-0.5 536.5,-0.5"/>
<text text-anchor="middle" x="561" y="-8.5" font-family="Helvetica,sans-Serif" font-size="10.00">stdint.h</text>
</g>
<!-- Node3&#45;&gt;Node10 -->
<g id="edge28" class="edge"><title>Node3&#45;&gt;Node10</title>
<path fill="none" stroke="midnightblue" d="M323.875,-232.447C403.43,-215.737 533.58,-174.758 590,-80 599.579,-63.912 589.187,-44.0743 578.271,-29.805"/>
<polygon fill="midnightblue" stroke="midnightblue" points="580.653,-27.1943 571.58,-21.7233 575.261,-31.6582 580.653,-27.1943"/>
</g>
<!-- Node6 -->
<g id="node11" class="node"><title>Node6</title>
<polygon fill="white" stroke="#bfbfbf" points="234,-0.5 234,-21.5 302,-21.5 302,-0.5 234,-0.5"/>
<text text-anchor="middle" x="268" y="-8.5" font-family="Helvetica,sans-Serif" font-size="10.00">sys/types.h</text>
</g>
<!-- Node5&#45;&gt;Node6 -->
<g id="edge10" class="edge"><title>Node5&#45;&gt;Node6</title>
<path fill="none" stroke="midnightblue" d="M158.167,-116.295C178.966,-96.3545 223.838,-53.337 249.323,-28.9056"/>
<polygon fill="midnightblue" stroke="midnightblue" points="252.064,-31.1261 256.86,-21.6792 247.22,-26.073 252.064,-31.1261"/>
</g>
<!-- Node7&#45;&gt;Node6 -->
<g id="edge26" class="edge"><title>Node7&#45;&gt;Node6</title>
<path fill="none" stroke="midnightblue" d="M297.107,-174.377C292.104,-146.293 278.453,-69.6735 271.777,-32.2027"/>
<polygon fill="midnightblue" stroke="midnightblue" points="275.147,-31.1588 269.947,-21.9277 268.255,-32.3866 275.147,-31.1588"/>
</g>
<!-- Node8 -->
<g id="node15" class="node"><title>Node8</title>
<a xlink:href="../../db/db5/_string_8h.html" target="_top" xlink:title="gaia/base/String.h">
<polygon fill="white" stroke="black" points="300.5,-116.5 300.5,-137.5 395.5,-137.5 395.5,-116.5 300.5,-116.5"/>
<text text-anchor="middle" x="348" y="-124.5" font-family="Helvetica,sans-Serif" font-size="10.00">gaia/base/String.h</text>
</a>
</g>
<!-- Node7&#45;&gt;Node8 -->
<g id="edge14" class="edge"><title>Node7&#45;&gt;Node8</title>
<path fill="none" stroke="midnightblue" d="M307.987,-174.362C314.825,-166.268 324.402,-154.932 332.472,-145.38"/>
<polygon fill="midnightblue" stroke="midnightblue" points="335.29,-147.468 339.07,-137.571 329.942,-142.951 335.29,-147.468"/>
</g>
<!-- Node8&#45;&gt;Node6 -->
<g id="edge24" class="edge"><title>Node8&#45;&gt;Node6</title>
<path fill="none" stroke="midnightblue" d="M337.241,-116.388C328.277,-107.228 315.488,-93.3943 306,-80 294.931,-64.3752 284.603,-45.2013 277.516,-31.0346"/>
<polygon fill="midnightblue" stroke="midnightblue" points="280.502,-29.1724 272.965,-21.7263 274.213,-32.2474 280.502,-29.1724"/>
</g>
<!-- Node9 -->
<g id="node17" class="node"><title>Node9</title>
<a xlink:href="../../d7/d97/_char_sequence_8h.html" target="_top" xlink:title="gaia/base/CharSequence.h">
<polygon fill="white" stroke="black" points="447,-58.5 447,-79.5 581,-79.5 581,-58.5 447,-58.5"/>
<text text-anchor="middle" x="514" y="-66.5" font-family="Helvetica,sans-Serif" font-size="10.00">gaia/base/CharSequence.h</text>
</a>
</g>
<!-- Node8&#45;&gt;Node9 -->
<g id="edge16" class="edge"><title>Node8&#45;&gt;Node9</title>
<path fill="none" stroke="midnightblue" d="M378.061,-116.497C405.007,-107.082 444.728,-93.2036 474.282,-82.8773"/>
<polygon fill="midnightblue" stroke="midnightblue" points="475.596,-86.1257 483.882,-79.5231 473.287,-79.5174 475.596,-86.1257"/>
</g>
<!-- Node11 -->
<g id="node21" class="node"><title>Node11</title>
<a xlink:href="../../d6/d83/_hash_func_8h.html" target="_top" xlink:title="gaia/base/HashFunc.h">
<polygon fill="white" stroke="black" points="314.5,-58.5 314.5,-79.5 429.5,-79.5 429.5,-58.5 314.5,-58.5"/>
<text text-anchor="middle" x="372" y="-66.5" font-family="Helvetica,sans-Serif" font-size="10.00">gaia/base/HashFunc.h</text>
</a>
</g>
<!-- Node8&#45;&gt;Node11 -->
<g id="edge20" class="edge"><title>Node8&#45;&gt;Node11</title>
<path fill="none" stroke="midnightblue" d="M352.402,-116.362C355.582,-108.677 359.972,-98.0686 363.79,-88.8399"/>
<polygon fill="midnightblue" stroke="midnightblue" points="367.036,-90.1491 367.626,-79.5707 360.568,-87.4726 367.036,-90.1491"/>
</g>
<!-- Node9&#45;&gt;Node10 -->
<g id="edge18" class="edge"><title>Node9&#45;&gt;Node10</title>
<path fill="none" stroke="midnightblue" d="M522.621,-58.3619C529.18,-50.2678 538.366,-38.9318 546.106,-29.3796"/>
<polygon fill="midnightblue" stroke="midnightblue" points="548.858,-31.5436 552.434,-21.5707 543.419,-27.1364 548.858,-31.5436"/>
</g>
<!-- Node11&#45;&gt;Node6 -->
<g id="edge22" class="edge"><title>Node11&#45;&gt;Node6</title>
<path fill="none" stroke="midnightblue" d="M352.925,-58.3619C336.945,-49.4502 313.919,-36.6087 295.873,-26.5447"/>
<polygon fill="midnightblue" stroke="midnightblue" points="297.393,-23.3846 286.954,-21.5707 293.983,-29.4982 297.393,-23.3846"/>
</g>
</g>
</svg>
