<?xml version="1.0" encoding="UTF-8" standalone="no"?>
<!DOCTYPE svg PUBLIC "-//W3C//DTD SVG 1.1//EN"
 "http://www.w3.org/Graphics/SVG/1.1/DTD/svg11.dtd">
<!-- Generated by graphviz version 2.26.3 (20100126.1600)
 -->
<!-- Title: G Pages: 1 -->
<svg width="1189pt" height="320pt"
 viewBox="0.00 0.00 1188.64 320.00" xmlns="http://www.w3.org/2000/svg" xmlns:xlink="http://www.w3.org/1999/xlink">
<g id="graph1" class="graph" transform="scale(1 1) rotate(0) translate(4 316)">
<title>G</title>
<polygon fill="white" stroke="white" points="-4,5 -4,-316 1185.64,-316 1185.64,5 -4,5"/>
<!-- Node1 -->
<g id="node1" class="node"><title>Node1</title>
<polygon fill="#bfbfbf" stroke="black" points="446.135,-290.5 446.135,-311.5 707.135,-311.5 707.135,-290.5 446.135,-290.5"/>
<text text-anchor="middle" x="576.635" y="-298.5" font-family="Helvetica,sans-Serif" font-size="10.00">/home/vilon_tao/gaia/sdk/include/gaia/ui/ComboPicker.h</text>
</g>
<!-- Node2 -->
<g id="node3" class="node"><title>Node2</title>
<a xlink:href="../../db/db5/_string_8h.html" target="_top" xlink:title="gaia/base/String.h">
<polygon fill="white" stroke="black" points="893.135,-116.5 893.135,-137.5 988.135,-137.5 988.135,-116.5 893.135,-116.5"/>
<text text-anchor="middle" x="940.635" y="-124.5" font-family="Helvetica,sans-Serif" font-size="10.00">gaia/base/String.h</text>
</a>
</g>
<!-- Node1&#45;&gt;Node2 -->
<g id="edge2" class="edge"><title>Node1&#45;&gt;Node2</title>
<path fill="none" stroke="midnightblue" d="M634.631,-290.447C669.522,-282.884 714.268,-271.003 751.635,-254 818.027,-223.791 886.897,-171.154 920.183,-144.112"/>
<polygon fill="midnightblue" stroke="midnightblue" points="922.718,-146.56 928.227,-137.51 918.277,-141.149 922.718,-146.56"/>
</g>
<!-- Node7 -->
<g id="node14" class="node"><title>Node7</title>
<a xlink:href="../../db/d53/_string_array_8h.html" target="_top" xlink:title="gaia/base/StringArray.h">
<polygon fill="white" stroke="black" points="0.13519,-232.5 0.13519,-253.5 119.135,-253.5 119.135,-232.5 0.13519,-232.5"/>
<text text-anchor="middle" x="59.6352" y="-240.5" font-family="Helvetica,sans-Serif" font-size="10.00">gaia/base/StringArray.h</text>
</a>
</g>
<!-- Node1&#45;&gt;Node7 -->
<g id="edge14" class="edge"><title>Node1&#45;&gt;Node7</title>
<path fill="none" stroke="midnightblue" d="M483.01,-290.497C381.199,-279.075 220.825,-261.083 129.472,-250.835"/>
<polygon fill="midnightblue" stroke="midnightblue" points="129.824,-247.352 119.496,-249.716 129.044,-254.309 129.824,-247.352"/>
</g>
<!-- Node8 -->
<g id="node17" class="node"><title>Node8</title>
<a xlink:href="../../d3/dd0/_event_control_8h.html" target="_top" xlink:title="gaia/core/event/EventControl.h">
<polygon fill="white" stroke="black" points="421.635,-232.5 421.635,-253.5 573.635,-253.5 573.635,-232.5 421.635,-232.5"/>
<text text-anchor="middle" x="497.635" y="-240.5" font-family="Helvetica,sans-Serif" font-size="10.00">gaia/core/event/EventControl.h</text>
</a>
</g>
<!-- Node1&#45;&gt;Node8 -->
<g id="edge18" class="edge"><title>Node1&#45;&gt;Node8</title>
<path fill="none" stroke="midnightblue" d="M562.145,-290.362C550.453,-281.777 533.792,-269.546 520.332,-259.664"/>
<polygon fill="midnightblue" stroke="midnightblue" points="522.165,-256.667 512.033,-253.571 518.023,-262.31 522.165,-256.667"/>
</g>
<!-- Node9 -->
<g id="node20" class="node"><title>Node9</title>
<a xlink:href="../../db/ded/_page_8h.html" target="_top" xlink:title="gaia/core/Page.h">
<polygon fill="white" stroke="black" points="195.635,-174.5 195.635,-195.5 285.635,-195.5 285.635,-174.5 195.635,-174.5"/>
<text text-anchor="middle" x="240.635" y="-182.5" font-family="Helvetica,sans-Serif" font-size="10.00">gaia/core/Page.h</text>
</a>
</g>
<!-- Node1&#45;&gt;Node9 -->
<g id="edge22" class="edge"><title>Node1&#45;&gt;Node9</title>
<path fill="none" stroke="midnightblue" d="M446.111,-293.436C375.882,-286.975 298.149,-275.201 270.635,-254 255.419,-242.275 247.785,-221.25 244.043,-205.48"/>
<polygon fill="midnightblue" stroke="midnightblue" points="247.452,-204.682 242.029,-195.581 240.593,-206.078 247.452,-204.682"/>
</g>
<!-- Node19 -->
<g id="node46" class="node"><title>Node19</title>
<a xlink:href="../../de/d56/_scene_8h.html" target="_top" xlink:title="gaia/core/vision/Scene.h">
<polygon fill="white" stroke="black" points="279.635,-232.5 279.635,-253.5 403.635,-253.5 403.635,-232.5 279.635,-232.5"/>
<text text-anchor="middle" x="341.635" y="-240.5" font-family="Helvetica,sans-Serif" font-size="10.00">gaia/core/vision/Scene.h</text>
</a>
</g>
<!-- Node1&#45;&gt;Node19 -->
<g id="edge54" class="edge"><title>Node1&#45;&gt;Node19</title>
<path fill="none" stroke="midnightblue" d="M534.078,-290.497C494.772,-280.795 436.262,-266.355 394.083,-255.945"/>
<polygon fill="midnightblue" stroke="midnightblue" points="394.819,-252.521 384.272,-253.523 393.142,-259.317 394.819,-252.521"/>
</g>
<!-- Node20 -->
<g id="node49" class="node"><title>Node20</title>
<a xlink:href="../../d4/d75/_widget_8h.html" target="_top" xlink:title="gaia/core/vision/Widget.h">
<polygon fill="white" stroke="black" points="692.135,-174.5 692.135,-195.5 819.135,-195.5 819.135,-174.5 692.135,-174.5"/>
<text text-anchor="middle" x="755.635" y="-182.5" font-family="Helvetica,sans-Serif" font-size="10.00">gaia/core/vision/Widget.h</text>
</a>
</g>
<!-- Node1&#45;&gt;Node20 -->
<g id="edge58" class="edge"><title>Node1&#45;&gt;Node20</title>
<path fill="none" stroke="midnightblue" d="M628.121,-290.48C666.841,-281.638 715.688,-268.198 730.635,-254 743.941,-241.361 750.188,-221.101 753.108,-205.797"/>
<polygon fill="midnightblue" stroke="midnightblue" points="756.598,-206.132 754.699,-195.709 749.683,-205.042 756.598,-206.132"/>
</g>
<!-- Node24 -->
<g id="node59" class="node"><title>Node24</title>
<a xlink:href="../../d9/d3d/_combo_click_listener_8h.html" target="_top" xlink:title="gaia/ui/ComboClickListener.h">
<polygon fill="white" stroke="black" points="874.135,-232.5 874.135,-253.5 1019.14,-253.5 1019.14,-232.5 874.135,-232.5"/>
<text text-anchor="middle" x="946.635" y="-240.5" font-family="Helvetica,sans-Serif" font-size="10.00">gaia/ui/ComboClickListener.h</text>
</a>
</g>
<!-- Node1&#45;&gt;Node24 -->
<g id="edge70" class="edge"><title>Node1&#45;&gt;Node24</title>
<path fill="none" stroke="midnightblue" d="M643.639,-290.497C707.223,-280.529 802.724,-265.559 869.463,-255.097"/>
<polygon fill="midnightblue" stroke="midnightblue" points="870.168,-258.53 879.505,-253.523 869.084,-251.614 870.168,-258.53"/>
</g>
<!-- Node25 -->
<g id="node62" class="node"><title>Node25</title>
<a xlink:href="../../d4/d8b/_i_list_item_provider_8h.html" target="_top" xlink:title="gaia/ui/IListItemProvider.h">
<polygon fill="white" stroke="black" points="591.135,-232.5 591.135,-253.5 722.135,-253.5 722.135,-232.5 591.135,-232.5"/>
<text text-anchor="middle" x="656.635" y="-240.5" font-family="Helvetica,sans-Serif" font-size="10.00">gaia/ui/IListItemProvider.h</text>
</a>
</g>
<!-- Node1&#45;&gt;Node25 -->
<g id="edge74" class="edge"><title>Node1&#45;&gt;Node25</title>
<path fill="none" stroke="midnightblue" d="M591.308,-290.362C603.149,-281.777 620.02,-269.546 633.651,-259.664"/>
<polygon fill="midnightblue" stroke="midnightblue" points="636.013,-262.274 642.055,-253.571 631.904,-256.607 636.013,-262.274"/>
</g>
<!-- Node3 -->
<g id="node5" class="node"><title>Node3</title>
<a xlink:href="../../d7/d97/_char_sequence_8h.html" target="_top" xlink:title="gaia/base/CharSequence.h">
<polygon fill="white" stroke="black" points="1046.64,-58.5 1046.64,-79.5 1180.64,-79.5 1180.64,-58.5 1046.64,-58.5"/>
<text text-anchor="middle" x="1113.64" y="-66.5" font-family="Helvetica,sans-Serif" font-size="10.00">gaia/base/CharSequence.h</text>
</a>
</g>
<!-- Node2&#45;&gt;Node3 -->
<g id="edge4" class="edge"><title>Node2&#45;&gt;Node3</title>
<path fill="none" stroke="midnightblue" d="M971.964,-116.497C1000.17,-107.041 1041.8,-93.0829 1072.64,-82.7428"/>
<polygon fill="midnightblue" stroke="midnightblue" points="1073.88,-86.0203 1082.25,-79.5231 1071.65,-79.3834 1073.88,-86.0203"/>
</g>
<!-- Node5 -->
<g id="node9" class="node"><title>Node5</title>
<a xlink:href="../../d6/d83/_hash_func_8h.html" target="_top" xlink:title="gaia/base/HashFunc.h">
<polygon fill="white" stroke="black" points="734.135,-58.5 734.135,-79.5 849.135,-79.5 849.135,-58.5 734.135,-58.5"/>
<text text-anchor="middle" x="791.635" y="-66.5" font-family="Helvetica,sans-Serif" font-size="10.00">gaia/base/HashFunc.h</text>
</a>
</g>
<!-- Node2&#45;&gt;Node5 -->
<g id="edge8" class="edge"><title>Node2&#45;&gt;Node5</title>
<path fill="none" stroke="midnightblue" d="M913.652,-116.497C889.782,-107.205 854.742,-93.5649 828.328,-83.2832"/>
<polygon fill="midnightblue" stroke="midnightblue" points="829.257,-79.889 818.669,-79.5231 826.718,-86.4122 829.257,-79.889"/>
</g>
<!-- Node6 -->
<g id="node11" class="node"><title>Node6</title>
<polygon fill="white" stroke="#bfbfbf" points="403.635,-0.5 403.635,-21.5 471.635,-21.5 471.635,-0.5 403.635,-0.5"/>
<text text-anchor="middle" x="437.635" y="-8.5" font-family="Helvetica,sans-Serif" font-size="10.00">sys/types.h</text>
</g>
<!-- Node2&#45;&gt;Node6 -->
<g id="edge12" class="edge"><title>Node2&#45;&gt;Node6</title>
<path fill="none" stroke="midnightblue" d="M893.107,-117.421C834.617,-105.507 741.109,-86.0017 725.635,-80 707.441,-72.9429 705.931,-64.789 687.635,-58 618.298,-32.2716 532.696,-20.0918 481.779,-14.7444"/>
<polygon fill="midnightblue" stroke="midnightblue" points="482.067,-11.2558 471.766,-13.7343 481.364,-18.2204 482.067,-11.2558"/>
</g>
<!-- Node4 -->
<g id="node7" class="node"><title>Node4</title>
<polygon fill="white" stroke="#bfbfbf" points="994.135,-0.5 994.135,-21.5 1043.14,-21.5 1043.14,-0.5 994.135,-0.5"/>
<text text-anchor="middle" x="1018.64" y="-8.5" font-family="Helvetica,sans-Serif" font-size="10.00">stdint.h</text>
</g>
<!-- Node3&#45;&gt;Node4 -->
<g id="edge6" class="edge"><title>Node3&#45;&gt;Node4</title>
<path fill="none" stroke="midnightblue" d="M1096.21,-58.3619C1081.75,-49.532 1060.97,-36.844 1044.55,-26.8224"/>
<polygon fill="midnightblue" stroke="midnightblue" points="1046.31,-23.7943 1035.95,-21.5707 1042.66,-29.7688 1046.31,-23.7943"/>
</g>
<!-- Node5&#45;&gt;Node6 -->
<g id="edge10" class="edge"><title>Node5&#45;&gt;Node6</title>
<path fill="none" stroke="midnightblue" d="M733.971,-59.5522C663.448,-47.9976 545.615,-28.6916 481.853,-18.2447"/>
<polygon fill="midnightblue" stroke="midnightblue" points="482.158,-14.7481 471.724,-16.5851 481.026,-21.656 482.158,-14.7481"/>
</g>
<!-- Node7&#45;&gt;Node6 -->
<g id="edge16" class="edge"><title>Node7&#45;&gt;Node6</title>
<path fill="none" stroke="midnightblue" d="M51.5882,-232.221C29.3278,-201.016 -28.4717,-109.554 17.6352,-58 42.4022,-30.3069 290.889,-17.0137 393.583,-12.6696"/>
<polygon fill="midnightblue" stroke="midnightblue" points="393.787,-16.1643 403.633,-12.2535 393.497,-9.17032 393.787,-16.1643"/>
</g>
<!-- Node8&#45;&gt;Node6 -->
<g id="edge20" class="edge"><title>Node8&#45;&gt;Node6</title>
<path fill="none" stroke="midnightblue" d="M494.901,-232.429C485.628,-196.573 455.265,-79.1689 442.923,-31.4458"/>
<polygon fill="midnightblue" stroke="midnightblue" points="446.278,-30.4386 440.385,-21.6335 439.501,-32.1913 446.278,-30.4386"/>
</g>
<!-- Node9&#45;&gt;Node6 -->
<g id="edge52" class="edge"><title>Node9&#45;&gt;Node6</title>
<path fill="none" stroke="midnightblue" d="M195.47,-179.73C144.528,-172.853 66.1017,-159.143 45.6352,-138 20.6288,-112.167 9.72632,-84.8516 33.6352,-58 57.2748,-31.4508 293.704,-17.5877 393.529,-12.8803"/>
<polygon fill="midnightblue" stroke="midnightblue" points="393.771,-16.3729 403.598,-12.4147 393.447,-9.38038 393.771,-16.3729"/>
</g>
<!-- Node10 -->
<g id="node22" class="node"><title>Node10</title>
<a xlink:href="../../d4/d7f/_vector_8h.html" target="_top" xlink:title="gaia/base/Vector.h">
<polygon fill="white" stroke="black" points="330.635,-116.5 330.635,-137.5 428.635,-137.5 428.635,-116.5 330.635,-116.5"/>
<text text-anchor="middle" x="379.635" y="-124.5" font-family="Helvetica,sans-Serif" font-size="10.00">gaia/base/Vector.h</text>
</a>
</g>
<!-- Node9&#45;&gt;Node10 -->
<g id="edge24" class="edge"><title>Node9&#45;&gt;Node10</title>
<path fill="none" stroke="midnightblue" d="M265.807,-174.497C287.908,-165.275 320.274,-151.769 344.849,-141.515"/>
<polygon fill="midnightblue" stroke="midnightblue" points="346.3,-144.702 354.181,-137.621 343.604,-138.242 346.3,-144.702"/>
</g>
<!-- Node15 -->
<g id="node36" class="node"><title>Node15</title>
<a xlink:href="../../d7/def/_component_name_8h.html" target="_top" xlink:title="gaia/core/ComponentName.h">
<polygon fill="white" stroke="black" points="168.635,-116.5 168.635,-137.5 312.635,-137.5 312.635,-116.5 168.635,-116.5"/>
<text text-anchor="middle" x="240.635" y="-124.5" font-family="Helvetica,sans-Serif" font-size="10.00">gaia/core/ComponentName.h</text>
</a>
</g>
<!-- Node9&#45;&gt;Node15 -->
<g id="edge42" class="edge"><title>Node9&#45;&gt;Node15</title>
<path fill="none" stroke="midnightblue" d="M240.635,-174.362C240.635,-166.922 240.635,-156.743 240.635,-147.728"/>
<polygon fill="midnightblue" stroke="midnightblue" points="244.135,-147.571 240.635,-137.571 237.135,-147.571 244.135,-147.571"/>
</g>
<!-- Node16 -->
<g id="node38" class="node"><title>Node16</title>
<a xlink:href="../../db/dbd/_export_8h.html" target="_top" xlink:title="gaia/core/Export.h">
<polygon fill="white" stroke="black" points="54.6352,-116.5 54.6352,-137.5 150.635,-137.5 150.635,-116.5 54.6352,-116.5"/>
<text text-anchor="middle" x="102.635" y="-124.5" font-family="Helvetica,sans-Serif" font-size="10.00">gaia/core/Export.h</text>
</a>
</g>
<!-- Node9&#45;&gt;Node16 -->
<g id="edge44" class="edge"><title>Node9&#45;&gt;Node16</title>
<path fill="none" stroke="midnightblue" d="M215.644,-174.497C193.702,-165.275 161.569,-151.769 137.172,-141.515"/>
<polygon fill="midnightblue" stroke="midnightblue" points="138.481,-138.269 127.906,-137.621 135.769,-144.722 138.481,-138.269"/>
</g>
<!-- Node10&#45;&gt;Node6 -->
<g id="edge40" class="edge"><title>Node10&#45;&gt;Node6</title>
<path fill="none" stroke="midnightblue" d="M384.988,-116.295C394.699,-96.8724 415.357,-55.5561 427.712,-30.8462"/>
<polygon fill="midnightblue" stroke="midnightblue" points="430.954,-32.1888 432.296,-21.6792 424.693,-29.0582 430.954,-32.1888"/>
</g>
<!-- Node11 -->
<g id="node24" class="node"><title>Node11</title>
<a xlink:href="../../d1/d86/_type_helpers_8h.html" target="_top" xlink:title="gaia/base/TypeHelpers.h">
<polygon fill="white" stroke="black" points="866.135,-58.5 866.135,-79.5 991.135,-79.5 991.135,-58.5 866.135,-58.5"/>
<text text-anchor="middle" x="928.635" y="-66.5" font-family="Helvetica,sans-Serif" font-size="10.00">gaia/base/TypeHelpers.h</text>
</a>
</g>
<!-- Node10&#45;&gt;Node11 -->
<g id="edge26" class="edge"><title>Node10&#45;&gt;Node11</title>
<path fill="none" stroke="midnightblue" d="M428.707,-121.836C446.62,-119.97 467.042,-117.864 485.635,-116 647.684,-99.7509 691.143,-100.68 855.947,-80.164"/>
<polygon fill="midnightblue" stroke="midnightblue" points="856.455,-83.6278 865.943,-78.9121 855.585,-76.6821 856.455,-83.6278"/>
</g>
<!-- Node14 -->
<g id="node32" class="node"><title>Node14</title>
<a xlink:href="../../dc/da9/_vector_impl_8h.html" target="_top" xlink:title="gaia/base/VectorImpl.h">
<polygon fill="white" stroke="black" points="274.135,-58.5 274.135,-79.5 391.135,-79.5 391.135,-58.5 274.135,-58.5"/>
<text text-anchor="middle" x="332.635" y="-66.5" font-family="Helvetica,sans-Serif" font-size="10.00">gaia/base/VectorImpl.h</text>
</a>
</g>
<!-- Node10&#45;&gt;Node14 -->
<g id="edge36" class="edge"><title>Node10&#45;&gt;Node14</title>
<path fill="none" stroke="midnightblue" d="M371.015,-116.362C364.456,-108.268 355.27,-96.9318 347.529,-87.3796"/>
<polygon fill="midnightblue" stroke="midnightblue" points="350.216,-85.1364 341.201,-79.5707 344.778,-89.5436 350.216,-85.1364"/>
</g>
<!-- Node11&#45;&gt;Node4 -->
<g id="edge28" class="edge"><title>Node11&#45;&gt;Node4</title>
<path fill="none" stroke="midnightblue" d="M945.143,-58.3619C958.717,-49.6138 978.168,-37.0786 993.65,-27.1015"/>
<polygon fill="midnightblue" stroke="midnightblue" points="995.723,-29.9297 1002.23,-21.5707 991.931,-24.0457 995.723,-29.9297"/>
</g>
<!-- Node11&#45;&gt;Node6 -->
<g id="edge32" class="edge"><title>Node11&#45;&gt;Node6</title>
<path fill="none" stroke="midnightblue" d="M865.936,-59.139C863.132,-58.7444 860.355,-58.3627 857.635,-58 720.971,-39.7749 558.642,-22.9818 481.96,-15.338"/>
<polygon fill="midnightblue" stroke="midnightblue" points="482.017,-11.8266 471.72,-14.321 481.325,-18.7923 482.017,-11.8266"/>
</g>
<!-- Node12 -->
<g id="node27" class="node"><title>Node12</title>
<polygon fill="white" stroke="#bfbfbf" points="860.135,-0.5 860.135,-21.5 909.135,-21.5 909.135,-0.5 860.135,-0.5"/>
<text text-anchor="middle" x="884.635" y="-8.5" font-family="Helvetica,sans-Serif" font-size="10.00">string.h</text>
</g>
<!-- Node11&#45;&gt;Node12 -->
<g id="edge30" class="edge"><title>Node11&#45;&gt;Node12</title>
<path fill="none" stroke="midnightblue" d="M920.565,-58.3619C914.487,-50.3496 905.998,-39.1605 898.798,-29.6696"/>
<polygon fill="midnightblue" stroke="midnightblue" points="901.487,-27.4222 892.654,-21.5707 895.91,-31.653 901.487,-27.4222"/>
</g>
<!-- Node13 -->
<g id="node30" class="node"><title>Node13</title>
<polygon fill="white" stroke="#bfbfbf" points="926.135,-0.5 926.135,-21.5 961.135,-21.5 961.135,-0.5 926.135,-0.5"/>
<text text-anchor="middle" x="943.635" y="-8.5" font-family="Helvetica,sans-Serif" font-size="10.00">new</text>
</g>
<!-- Node11&#45;&gt;Node13 -->
<g id="edge34" class="edge"><title>Node11&#45;&gt;Node13</title>
<path fill="none" stroke="midnightblue" d="M931.386,-58.3619C933.332,-50.8401 936.001,-40.5187 938.351,-31.4308"/>
<polygon fill="midnightblue" stroke="midnightblue" points="941.786,-32.1285 940.901,-21.5707 935.009,-30.3758 941.786,-32.1285"/>
</g>
<!-- Node14&#45;&gt;Node6 -->
<g id="edge38" class="edge"><title>Node14&#45;&gt;Node6</title>
<path fill="none" stroke="midnightblue" d="M351.894,-58.3619C368.101,-49.4094 391.488,-36.4908 409.744,-26.4064"/>
<polygon fill="midnightblue" stroke="midnightblue" points="411.438,-29.4696 418.499,-21.5707 408.053,-23.3422 411.438,-29.4696"/>
</g>
<!-- Node17 -->
<g id="node40" class="node"><title>Node17</title>
<a xlink:href="../../de/d8c/_component_loader_8h.html" target="_top" xlink:title="gaia/core/ComponentLoader.h">
<polygon fill="white" stroke="black" points="42.1352,-58.5 42.1352,-79.5 189.135,-79.5 189.135,-58.5 42.1352,-58.5"/>
<text text-anchor="middle" x="115.635" y="-66.5" font-family="Helvetica,sans-Serif" font-size="10.00">gaia/core/ComponentLoader.h</text>
</a>
</g>
<!-- Node16&#45;&gt;Node17 -->
<g id="edge46" class="edge"><title>Node16&#45;&gt;Node17</title>
<path fill="none" stroke="midnightblue" d="M105.02,-116.362C106.706,-108.84 109.019,-98.5187 111.056,-89.4308"/>
<polygon fill="midnightblue" stroke="midnightblue" points="114.494,-90.0941 113.266,-79.5707 107.663,-88.563 114.494,-90.0941"/>
</g>
<!-- Node18 -->
<g id="node43" class="node"><title>Node18</title>
<polygon fill="white" stroke="#bfbfbf" points="206.135,-58.5 206.135,-79.5 257.135,-79.5 257.135,-58.5 206.135,-58.5"/>
<text text-anchor="middle" x="231.635" y="-66.5" font-family="Helvetica,sans-Serif" font-size="10.00">typeinfo</text>
</g>
<!-- Node16&#45;&gt;Node18 -->
<g id="edge50" class="edge"><title>Node16&#45;&gt;Node18</title>
<path fill="none" stroke="midnightblue" d="M125.996,-116.497C146.326,-107.356 176.014,-94.0082 198.744,-83.7883"/>
<polygon fill="midnightblue" stroke="midnightblue" points="200.327,-86.9142 208.012,-79.6212 197.456,-80.5298 200.327,-86.9142"/>
</g>
<!-- Node17&#45;&gt;Node6 -->
<g id="edge48" class="edge"><title>Node17&#45;&gt;Node6</title>
<path fill="none" stroke="midnightblue" d="M173.947,-58.4966C237.074,-47.1259 336.351,-29.2438 393.374,-18.9726"/>
<polygon fill="midnightblue" stroke="midnightblue" points="394.29,-22.3639 403.511,-17.1465 393.049,-15.4748 394.29,-22.3639"/>
</g>
<!-- Node19&#45;&gt;Node10 -->
<g id="edge56" class="edge"><title>Node19&#45;&gt;Node10</title>
<path fill="none" stroke="midnightblue" d="M345.142,-232.295C351.448,-213.045 364.799,-172.289 372.917,-147.509"/>
<polygon fill="midnightblue" stroke="midnightblue" points="376.35,-148.272 376.137,-137.679 369.698,-146.093 376.35,-148.272"/>
</g>
<!-- Node21 -->
<g id="node51" class="node"><title>Node21</title>
<a xlink:href="../../d1/dd0/gmacros_8h.html" target="_top" xlink:title="gaia/base/gmacros.h">
<polygon fill="white" stroke="black" points="565.135,-116.5 565.135,-137.5 672.135,-137.5 672.135,-116.5 565.135,-116.5"/>
<text text-anchor="middle" x="618.635" y="-124.5" font-family="Helvetica,sans-Serif" font-size="10.00">gaia/base/gmacros.h</text>
</a>
</g>
<!-- Node20&#45;&gt;Node21 -->
<g id="edge60" class="edge"><title>Node20&#45;&gt;Node21</title>
<path fill="none" stroke="midnightblue" d="M730.826,-174.497C709.139,-165.315 677.424,-151.889 653.243,-141.652"/>
<polygon fill="midnightblue" stroke="midnightblue" points="654.297,-138.297 643.723,-137.621 651.567,-144.743 654.297,-138.297"/>
</g>
<!-- Node22 -->
<g id="node53" class="node"><title>Node22</title>
<a xlink:href="../../d0/d92/_property_animatable_8h.html" target="_top" xlink:title="gaia/core/animator/PropertyAnimatable.h">
<polygon fill="white" stroke="black" points="484.635,-58.5 484.635,-79.5 678.635,-79.5 678.635,-58.5 484.635,-58.5"/>
<text text-anchor="middle" x="581.635" y="-66.5" font-family="Helvetica,sans-Serif" font-size="10.00">gaia/core/animator/PropertyAnimatable.h</text>
</a>
</g>
<!-- Node20&#45;&gt;Node22 -->
<g id="edge62" class="edge"><title>Node20&#45;&gt;Node22</title>
<path fill="none" stroke="midnightblue" d="M745.803,-174.099C732.218,-159.498 706.45,-133.415 680.635,-116 661.475,-103.074 638.207,-91.8325 619.044,-83.5872"/>
<polygon fill="midnightblue" stroke="midnightblue" points="620.298,-80.3175 609.722,-79.671 617.586,-86.7711 620.298,-80.3175"/>
</g>
<!-- Node23 -->
<g id="node56" class="node"><title>Node23</title>
<a xlink:href="../../d8/d50/_widget_core_8h.html" target="_top" xlink:title="gaia/core/vision/WidgetCore.h">
<polygon fill="white" stroke="black" points="727.635,-116.5 727.635,-137.5 875.635,-137.5 875.635,-116.5 727.635,-116.5"/>
<text text-anchor="middle" x="801.635" y="-124.5" font-family="Helvetica,sans-Serif" font-size="10.00">gaia/core/vision/WidgetCore.h</text>
</a>
</g>
<!-- Node20&#45;&gt;Node23 -->
<g id="edge66" class="edge"><title>Node20&#45;&gt;Node23</title>
<path fill="none" stroke="midnightblue" d="M764.072,-174.362C770.427,-166.35 779.301,-155.161 786.828,-145.67"/>
<polygon fill="midnightblue" stroke="midnightblue" points="789.78,-147.581 793.252,-137.571 784.295,-143.231 789.78,-147.581"/>
</g>
<!-- Node22&#45;&gt;Node6 -->
<g id="edge64" class="edge"><title>Node22&#45;&gt;Node6</title>
<path fill="none" stroke="midnightblue" d="M555.558,-58.4966C532.56,-49.2337 498.835,-35.6499 473.336,-25.3793"/>
<polygon fill="midnightblue" stroke="midnightblue" points="474.589,-22.1108 464.005,-21.6212 471.973,-28.6039 474.589,-22.1108"/>
</g>
<!-- Node23&#45;&gt;Node4 -->
<g id="edge68" class="edge"><title>Node23&#45;&gt;Node4</title>
<path fill="none" stroke="midnightblue" d="M875.792,-117.373C924.291,-109.62 981.839,-97.1731 999.635,-80 1012.59,-67.5031 1016.96,-47.059 1018.32,-31.6612"/>
<polygon fill="midnightblue" stroke="midnightblue" points="1021.83,-31.698 1018.86,-21.5269 1014.84,-31.3278 1021.83,-31.698"/>
</g>
<!-- Node24&#45;&gt;Node2 -->
<g id="edge72" class="edge"><title>Node24&#45;&gt;Node2</title>
<path fill="none" stroke="midnightblue" d="M946.081,-232.295C945.09,-213.131 942.997,-172.654 941.713,-147.843"/>
<polygon fill="midnightblue" stroke="midnightblue" points="945.2,-147.485 941.188,-137.679 938.209,-147.847 945.2,-147.485"/>
</g>
<!-- Node25&#45;&gt;Node21 -->
<g id="edge86" class="edge"><title>Node25&#45;&gt;Node21</title>
<path fill="none" stroke="midnightblue" d="M656.138,-232.422C655.223,-218.625 652.669,-193.9 645.635,-174 642.217,-164.331 636.816,-154.376 631.74,-146.131"/>
<polygon fill="midnightblue" stroke="midnightblue" points="634.633,-144.16 626.269,-137.656 628.752,-147.956 634.633,-144.16"/>
</g>
<!-- Node26 -->
<g id="node64" class="node"><title>Node26</title>
<polygon fill="white" stroke="#bfbfbf" points="494.635,-116.5 494.635,-137.5 542.635,-137.5 542.635,-116.5 494.635,-116.5"/>
<text text-anchor="middle" x="518.635" y="-124.5" font-family="Helvetica,sans-Serif" font-size="10.00">limits.h</text>
</g>
<!-- Node25&#45;&gt;Node26 -->
<g id="edge76" class="edge"><title>Node25&#45;&gt;Node26</title>
<path fill="none" stroke="midnightblue" d="M604.051,-232.459C567.928,-224.027 524.592,-211.135 513.635,-196 503.66,-182.222 506.252,-162.571 510.56,-147.761"/>
<polygon fill="midnightblue" stroke="midnightblue" points="513.976,-148.581 513.844,-137.987 507.341,-146.351 513.976,-148.581"/>
</g>
<!-- Node27 -->
<g id="node66" class="node"><title>Node27</title>
<a xlink:href="../../d9/d0a/_i_item_provider_8h.html" target="_top" xlink:title="gaia/ui/IItemProvider.h">
<polygon fill="white" stroke="black" points="522.135,-174.5 522.135,-195.5 637.135,-195.5 637.135,-174.5 522.135,-174.5"/>
<text text-anchor="middle" x="579.635" y="-182.5" font-family="Helvetica,sans-Serif" font-size="10.00">gaia/ui/IItemProvider.h</text>
</a>
</g>
<!-- Node25&#45;&gt;Node27 -->
<g id="edge78" class="edge"><title>Node25&#45;&gt;Node27</title>
<path fill="none" stroke="midnightblue" d="M642.512,-232.362C631.115,-223.777 614.877,-211.546 601.758,-201.664"/>
<polygon fill="midnightblue" stroke="midnightblue" points="603.762,-198.792 593.669,-195.571 599.55,-204.383 603.762,-198.792"/>
</g>
<!-- Node27&#45;&gt;Node10 -->
<g id="edge84" class="edge"><title>Node27&#45;&gt;Node10</title>
<path fill="none" stroke="midnightblue" d="M543.417,-174.497C510.388,-164.918 461.427,-150.72 425.641,-140.342"/>
<polygon fill="midnightblue" stroke="midnightblue" points="426.501,-136.947 415.922,-137.523 424.551,-143.67 426.501,-136.947"/>
</g>
<!-- Node27&#45;&gt;Node21 -->
<g id="edge82" class="edge"><title>Node27&#45;&gt;Node21</title>
<path fill="none" stroke="midnightblue" d="M586.788,-174.362C592.121,-166.431 599.546,-155.389 605.886,-145.961"/>
<polygon fill="midnightblue" stroke="midnightblue" points="608.852,-147.822 611.527,-137.571 603.043,-143.916 608.852,-147.822"/>
</g>
<!-- Node27&#45;&gt;Node26 -->
<g id="edge80" class="edge"><title>Node27&#45;&gt;Node26</title>
<path fill="none" stroke="midnightblue" d="M568.447,-174.362C559.676,-166.023 547.286,-154.242 537.057,-144.516"/>
<polygon fill="midnightblue" stroke="midnightblue" points="539.411,-141.925 529.753,-137.571 534.588,-146.998 539.411,-141.925"/>
</g>
</g>
</svg>
