<?xml version="1.0" encoding="UTF-8" standalone="no"?>
<!DOCTYPE svg PUBLIC "-//W3C//DTD SVG 1.1//EN"
 "http://www.w3.org/Graphics/SVG/1.1/DTD/svg11.dtd">
<!-- Generated by graphviz version 2.26.3 (20100126.1600)
 -->
<!-- Title: G Pages: 1 -->
<svg width="378pt" height="204pt"
 viewBox="0.00 0.00 378.00 204.00" xmlns="http://www.w3.org/2000/svg" xmlns:xlink="http://www.w3.org/1999/xlink">
<g id="graph1" class="graph" transform="scale(1 1) rotate(0) translate(4 200)">
<title>G</title>
<polygon fill="white" stroke="white" points="-4,5 -4,-200 375,-200 375,5 -4,5"/>
<!-- Node1 -->
<g id="node1" class="node"><title>Node1</title>
<polygon fill="#bfbfbf" stroke="black" points="-0.5,-174.5 -0.5,-195.5 280.5,-195.5 280.5,-174.5 -0.5,-174.5"/>
<text text-anchor="middle" x="140" y="-182.5" font-family="Helvetica,sans-Serif" font-size="10.00">/home/vilon_tao/gaia/sdk/include/gaia/webkit/NativeRegEx.h</text>
</g>
<!-- Node2 -->
<g id="node3" class="node"><title>Node2</title>
<polygon fill="white" stroke="#bfbfbf" points="79.5,-0.5 79.5,-21.5 128.5,-21.5 128.5,-0.5 79.5,-0.5"/>
<text text-anchor="middle" x="104" y="-8.5" font-family="Helvetica,sans-Serif" font-size="10.00">stdint.h</text>
</g>
<!-- Node1&#45;&gt;Node2 -->
<g id="edge2" class="edge"><title>Node1&#45;&gt;Node2</title>
<path fill="none" stroke="midnightblue" d="M130.669,-174.317C115.655,-156.336 86.7328,-118.23 76,-80 73.3571,-70.5862 73.4048,-67.4271 76,-58 78.7108,-48.153 84.0846,-38.2859 89.4058,-30.1528"/>
<polygon fill="midnightblue" stroke="midnightblue" points="92.384,-32.0015 95.2467,-21.8007 86.6475,-27.9898 92.384,-32.0015"/>
</g>
<!-- Node3 -->
<g id="node5" class="node"><title>Node3</title>
<a xlink:href="../../db/db5/_string_8h.html" target="_top" xlink:title="gaia/base/String.h">
<polygon fill="white" stroke="black" points="175.5,-116.5 175.5,-137.5 270.5,-137.5 270.5,-116.5 175.5,-116.5"/>
<text text-anchor="middle" x="223" y="-124.5" font-family="Helvetica,sans-Serif" font-size="10.00">gaia/base/String.h</text>
</a>
</g>
<!-- Node1&#45;&gt;Node3 -->
<g id="edge4" class="edge"><title>Node1&#45;&gt;Node3</title>
<path fill="none" stroke="midnightblue" d="M155.223,-174.362C167.625,-165.696 185.346,-153.313 199.557,-143.382"/>
<polygon fill="midnightblue" stroke="midnightblue" points="201.681,-146.168 207.873,-137.571 197.671,-140.43 201.681,-146.168"/>
</g>
<!-- Node4 -->
<g id="node7" class="node"><title>Node4</title>
<a xlink:href="../../d7/d97/_char_sequence_8h.html" target="_top" xlink:title="gaia/base/CharSequence.h">
<polygon fill="white" stroke="black" points="85,-58.5 85,-79.5 219,-79.5 219,-58.5 85,-58.5"/>
<text text-anchor="middle" x="152" y="-66.5" font-family="Helvetica,sans-Serif" font-size="10.00">gaia/base/CharSequence.h</text>
</a>
</g>
<!-- Node3&#45;&gt;Node4 -->
<g id="edge6" class="edge"><title>Node3&#45;&gt;Node4</title>
<path fill="none" stroke="midnightblue" d="M209.978,-116.362C199.569,-107.859 184.781,-95.7785 172.745,-85.9466"/>
<polygon fill="midnightblue" stroke="midnightblue" points="174.899,-83.1866 164.94,-79.5707 170.47,-88.6077 174.899,-83.1866"/>
</g>
<!-- Node5 -->
<g id="node10" class="node"><title>Node5</title>
<a xlink:href="../../d6/d83/_hash_func_8h.html" target="_top" xlink:title="gaia/base/HashFunc.h">
<polygon fill="white" stroke="black" points="236.5,-58.5 236.5,-79.5 351.5,-79.5 351.5,-58.5 236.5,-58.5"/>
<text text-anchor="middle" x="294" y="-66.5" font-family="Helvetica,sans-Serif" font-size="10.00">gaia/base/HashFunc.h</text>
</a>
</g>
<!-- Node3&#45;&gt;Node5 -->
<g id="edge10" class="edge"><title>Node3&#45;&gt;Node5</title>
<path fill="none" stroke="midnightblue" d="M236.022,-116.362C246.431,-107.859 261.219,-95.7785 273.255,-85.9466"/>
<polygon fill="midnightblue" stroke="midnightblue" points="275.53,-88.6077 281.06,-79.5707 271.101,-83.1866 275.53,-88.6077"/>
</g>
<!-- Node6 -->
<g id="node12" class="node"><title>Node6</title>
<polygon fill="white" stroke="#bfbfbf" points="302,-0.5 302,-21.5 370,-21.5 370,-0.5 302,-0.5"/>
<text text-anchor="middle" x="336" y="-8.5" font-family="Helvetica,sans-Serif" font-size="10.00">sys/types.h</text>
</g>
<!-- Node3&#45;&gt;Node6 -->
<g id="edge14" class="edge"><title>Node3&#45;&gt;Node6</title>
<path fill="none" stroke="midnightblue" d="M270.518,-116.874C305.681,-108.305 349.259,-95.0404 360,-80 370.743,-64.9566 361.474,-44.6768 351.498,-29.9994"/>
<polygon fill="midnightblue" stroke="midnightblue" points="354.117,-27.6548 345.367,-21.6815 348.483,-31.8079 354.117,-27.6548"/>
</g>
<!-- Node4&#45;&gt;Node2 -->
<g id="edge8" class="edge"><title>Node4&#45;&gt;Node2</title>
<path fill="none" stroke="midnightblue" d="M143.196,-58.3619C136.498,-50.2678 127.116,-38.9318 119.211,-29.3796"/>
<polygon fill="midnightblue" stroke="midnightblue" points="121.82,-27.0431 112.748,-21.5707 116.427,-31.5061 121.82,-27.0431"/>
</g>
<!-- Node5&#45;&gt;Node6 -->
<g id="edge12" class="edge"><title>Node5&#45;&gt;Node6</title>
<path fill="none" stroke="midnightblue" d="M301.703,-58.3619C307.446,-50.4313 315.443,-39.3885 322.27,-29.9606"/>
<polygon fill="midnightblue" stroke="midnightblue" points="325.315,-31.7229 328.345,-21.5707 319.645,-27.6173 325.315,-31.7229"/>
</g>
</g>
</svg>
