<?xml version="1.0" encoding="UTF-8" standalone="no"?>
<!DOCTYPE svg PUBLIC "-//W3C//DTD SVG 1.1//EN"
 "http://www.w3.org/Graphics/SVG/1.1/DTD/svg11.dtd">
<!-- Generated by graphviz version 2.26.3 (20100126.1600)
 -->
<!-- Title: G Pages: 1 -->
<svg width="402pt" height="88pt"
 viewBox="0.00 0.00 402.00 88.00" xmlns="http://www.w3.org/2000/svg" xmlns:xlink="http://www.w3.org/1999/xlink">
<g id="graph1" class="graph" transform="scale(1 1) rotate(0) translate(4 84)">
<title>G</title>
<polygon fill="white" stroke="white" points="-4,5 -4,-84 399,-84 399,5 -4,5"/>
<!-- Node1 -->
<g id="node1" class="node"><title>Node1</title>
<polygon fill="#bfbfbf" stroke="black" points="0,-58.5 0,-79.5 362,-79.5 362,-58.5 0,-58.5"/>
<text text-anchor="middle" x="181" y="-66.5" font-family="Helvetica,sans-Serif" font-size="10.00">/home/vilon_tao/gaia/sdk/include/gaia/connectivity/obex/PrivateOutputStream.h</text>
</g>
<!-- Node2 -->
<g id="node3" class="node"><title>Node2</title>
<polygon fill="white" stroke="#bfbfbf" points="61.5,-0.5 61.5,-21.5 110.5,-21.5 110.5,-0.5 61.5,-0.5"/>
<text text-anchor="middle" x="86" y="-8.5" font-family="Helvetica,sans-Serif" font-size="10.00">stdint.h</text>
</g>
<!-- Node1&#45;&gt;Node2 -->
<g id="edge2" class="edge"><title>Node1&#45;&gt;Node2</title>
<path fill="none" stroke="midnightblue" d="M163.576,-58.3619C149.113,-49.532 128.331,-36.844 111.916,-26.8224"/>
<polygon fill="midnightblue" stroke="midnightblue" points="113.673,-23.7943 103.314,-21.5707 110.025,-29.7688 113.673,-23.7943"/>
</g>
<!-- Node3 -->
<g id="node5" class="node"><title>Node3</title>
<a xlink:href="../../d1/dd0/gmacros_8h.html" target="_top" xlink:title="gaia/base/gmacros.h">
<polygon fill="white" stroke="black" points="127.5,-0.5 127.5,-21.5 234.5,-21.5 234.5,-0.5 127.5,-0.5"/>
<text text-anchor="middle" x="181" y="-8.5" font-family="Helvetica,sans-Serif" font-size="10.00">gaia/base/gmacros.h</text>
</a>
</g>
<!-- Node1&#45;&gt;Node3 -->
<g id="edge4" class="edge"><title>Node1&#45;&gt;Node3</title>
<path fill="none" stroke="midnightblue" d="M181,-58.3619C181,-50.9219 181,-40.7427 181,-31.7276"/>
<polygon fill="midnightblue" stroke="midnightblue" points="184.5,-31.5706 181,-21.5707 177.5,-31.5707 184.5,-31.5706"/>
</g>
<!-- Node4 -->
<g id="node7" class="node"><title>Node4</title>
<a xlink:href="../../da/d1a/_output_stream_8h.html" target="_top" xlink:title="gaia/storage/OutputStream.h">
<polygon fill="white" stroke="black" points="252,-0.5 252,-21.5 394,-21.5 394,-0.5 252,-0.5"/>
<text text-anchor="middle" x="323" y="-8.5" font-family="Helvetica,sans-Serif" font-size="10.00">gaia/storage/OutputStream.h</text>
</a>
</g>
<!-- Node1&#45;&gt;Node4 -->
<g id="edge6" class="edge"><title>Node1&#45;&gt;Node4</title>
<path fill="none" stroke="midnightblue" d="M206.715,-58.4966C229.293,-49.2746 262.358,-35.7695 287.463,-25.5153"/>
<polygon fill="midnightblue" stroke="midnightblue" points="289.062,-28.6427 296.996,-21.6212 286.415,-22.1624 289.062,-28.6427"/>
</g>
</g>
</svg>
