<?xml version="1.0" encoding="UTF-8" standalone="no"?>
<!DOCTYPE svg PUBLIC "-//W3C//DTD SVG 1.1//EN"
 "http://www.w3.org/Graphics/SVG/1.1/DTD/svg11.dtd">
<!-- Generated by graphviz version 2.26.3 (20100126.1600)
 -->
<!-- Title: G Pages: 1 -->
<svg width="906pt" height="262pt"
 viewBox="0.00 0.00 905.57 262.00" xmlns="http://www.w3.org/2000/svg" xmlns:xlink="http://www.w3.org/1999/xlink">
<g id="graph1" class="graph" transform="scale(1 1) rotate(0) translate(4 258)">
<title>G</title>
<polygon fill="white" stroke="white" points="-4,5 -4,-258 902.57,-258 902.57,5 -4,5"/>
<!-- Node1 -->
<g id="node1" class="node"><title>Node1</title>
<polygon fill="#bfbfbf" stroke="black" points="234.57,-232.5 234.57,-253.5 494.57,-253.5 494.57,-232.5 234.57,-232.5"/>
<text text-anchor="middle" x="364.57" y="-240.5" font-family="Helvetica,sans-Serif" font-size="10.00">/home/vilon_tao/gaia/sdk/include/gaia/core/ipc/IBinder.h</text>
</g>
<!-- Node2 -->
<g id="node3" class="node"><title>Node2</title>
<a xlink:href="../../d4/d7f/_vector_8h.html" target="_top" xlink:title="gaia/base/Vector.h">
<polygon fill="white" stroke="black" points="458.57,-116.5 458.57,-137.5 556.57,-137.5 556.57,-116.5 458.57,-116.5"/>
<text text-anchor="middle" x="507.57" y="-124.5" font-family="Helvetica,sans-Serif" font-size="10.00">gaia/base/Vector.h</text>
</a>
</g>
<!-- Node1&#45;&gt;Node2 -->
<g id="edge2" class="edge"><title>Node1&#45;&gt;Node2</title>
<path fill="none" stroke="midnightblue" d="M377.767,-232.295C402.561,-212.182 456.299,-168.59 486.274,-144.275"/>
<polygon fill="midnightblue" stroke="midnightblue" points="488.844,-146.697 494.405,-137.679 484.434,-141.261 488.844,-146.697"/>
</g>
<!-- Node9 -->
<g id="node19" class="node"><title>Node9</title>
<a xlink:href="../../db/db5/_string_8h.html" target="_top" xlink:title="gaia/base/String.h">
<polygon fill="white" stroke="black" points="317.07,-116.5 317.07,-137.5 412.07,-137.5 412.07,-116.5 317.07,-116.5"/>
<text text-anchor="middle" x="364.57" y="-124.5" font-family="Helvetica,sans-Serif" font-size="10.00">gaia/base/String.h</text>
</a>
</g>
<!-- Node1&#45;&gt;Node9 -->
<g id="edge20" class="edge"><title>Node1&#45;&gt;Node9</title>
<path fill="none" stroke="midnightblue" d="M364.57,-232.295C364.57,-213.131 364.57,-172.654 364.57,-147.843"/>
<polygon fill="midnightblue" stroke="midnightblue" points="368.07,-147.679 364.57,-137.679 361.07,-147.679 368.07,-147.679"/>
</g>
<!-- Node12 -->
<g id="node28" class="node"><title>Node12</title>
<a xlink:href="../../df/d57/_parcel_8h.html" target="_top" xlink:title="gaia/core/Parcel.h">
<polygon fill="white" stroke="black" points="212.07,-174.5 212.07,-195.5 307.07,-195.5 307.07,-174.5 212.07,-174.5"/>
<text text-anchor="middle" x="259.57" y="-182.5" font-family="Helvetica,sans-Serif" font-size="10.00">gaia/core/Parcel.h</text>
</a>
</g>
<!-- Node1&#45;&gt;Node12 -->
<g id="edge32" class="edge"><title>Node1&#45;&gt;Node12</title>
<path fill="none" stroke="midnightblue" d="M345.311,-232.362C329.104,-223.409 305.717,-210.491 287.461,-200.406"/>
<polygon fill="midnightblue" stroke="midnightblue" points="289.152,-197.342 278.707,-195.571 285.768,-203.47 289.152,-197.342"/>
</g>
<!-- Node3 -->
<g id="node5" class="node"><title>Node3</title>
<a xlink:href="../../d1/d86/_type_helpers_8h.html" target="_top" xlink:title="gaia/base/TypeHelpers.h">
<polygon fill="white" stroke="black" points="773.07,-58.5 773.07,-79.5 898.07,-79.5 898.07,-58.5 773.07,-58.5"/>
<text text-anchor="middle" x="835.57" y="-66.5" font-family="Helvetica,sans-Serif" font-size="10.00">gaia/base/TypeHelpers.h</text>
</a>
</g>
<!-- Node2&#45;&gt;Node3 -->
<g id="edge4" class="edge"><title>Node2&#45;&gt;Node3</title>
<path fill="none" stroke="midnightblue" d="M556.675,-118.317C612.202,-108.498 703.042,-92.4349 765.888,-81.3219"/>
<polygon fill="midnightblue" stroke="midnightblue" points="766.875,-84.7018 776.112,-79.5139 765.656,-77.8087 766.875,-84.7018"/>
</g>
<!-- Node6 -->
<g id="node11" class="node"><title>Node6</title>
<polygon fill="white" stroke="#bfbfbf" points="302.57,-0.5 302.57,-21.5 370.57,-21.5 370.57,-0.5 302.57,-0.5"/>
<text text-anchor="middle" x="336.57" y="-8.5" font-family="Helvetica,sans-Serif" font-size="10.00">sys/types.h</text>
</g>
<!-- Node2&#45;&gt;Node6 -->
<g id="edge18" class="edge"><title>Node2&#45;&gt;Node6</title>
<path fill="none" stroke="midnightblue" d="M556.802,-123.472C614.713,-118.179 705.641,-105.897 726.57,-80 732.716,-72.3952 733.057,-65.3159 726.57,-58 703.923,-32.4604 478.173,-18.122 380.844,-13.085"/>
<polygon fill="midnightblue" stroke="midnightblue" points="380.898,-9.58332 370.733,-12.5714 380.542,-16.5743 380.898,-9.58332"/>
</g>
<!-- Node8 -->
<g id="node15" class="node"><title>Node8</title>
<a xlink:href="../../dc/da9/_vector_impl_8h.html" target="_top" xlink:title="gaia/base/VectorImpl.h">
<polygon fill="white" stroke="black" points="449.07,-58.5 449.07,-79.5 566.07,-79.5 566.07,-58.5 449.07,-58.5"/>
<text text-anchor="middle" x="507.57" y="-66.5" font-family="Helvetica,sans-Serif" font-size="10.00">gaia/base/VectorImpl.h</text>
</a>
</g>
<!-- Node2&#45;&gt;Node8 -->
<g id="edge14" class="edge"><title>Node2&#45;&gt;Node8</title>
<path fill="none" stroke="midnightblue" d="M507.57,-116.362C507.57,-108.922 507.57,-98.7427 507.57,-89.7276"/>
<polygon fill="midnightblue" stroke="midnightblue" points="511.07,-89.5706 507.57,-79.5707 504.07,-89.5707 511.07,-89.5706"/>
</g>
<!-- Node4 -->
<g id="node7" class="node"><title>Node4</title>
<polygon fill="white" stroke="#bfbfbf" points="670.07,-0.5 670.07,-21.5 719.07,-21.5 719.07,-0.5 670.07,-0.5"/>
<text text-anchor="middle" x="694.57" y="-8.5" font-family="Helvetica,sans-Serif" font-size="10.00">stdint.h</text>
</g>
<!-- Node3&#45;&gt;Node4 -->
<g id="edge6" class="edge"><title>Node3&#45;&gt;Node4</title>
<path fill="none" stroke="midnightblue" d="M810.036,-58.4966C787.337,-49.1593 753.963,-35.4312 728.926,-25.1323"/>
<polygon fill="midnightblue" stroke="midnightblue" points="730.02,-21.7979 719.441,-21.2305 727.357,-28.2716 730.02,-21.7979"/>
</g>
<!-- Node5 -->
<g id="node9" class="node"><title>Node5</title>
<polygon fill="white" stroke="#bfbfbf" points="781.07,-0.5 781.07,-21.5 830.07,-21.5 830.07,-0.5 781.07,-0.5"/>
<text text-anchor="middle" x="805.57" y="-8.5" font-family="Helvetica,sans-Serif" font-size="10.00">string.h</text>
</g>
<!-- Node3&#45;&gt;Node5 -->
<g id="edge8" class="edge"><title>Node3&#45;&gt;Node5</title>
<path fill="none" stroke="midnightblue" d="M830.068,-58.3619C826.05,-50.5949 820.489,-39.8426 815.68,-30.5458"/>
<polygon fill="midnightblue" stroke="midnightblue" points="818.741,-28.8448 811.038,-21.5707 812.523,-32.0608 818.741,-28.8448"/>
</g>
<!-- Node3&#45;&gt;Node6 -->
<g id="edge10" class="edge"><title>Node3&#45;&gt;Node6</title>
<path fill="none" stroke="midnightblue" d="M772.967,-59.7717C768.436,-59.1551 763.934,-58.5581 759.57,-58 621.67,-40.3642 457.981,-23.2637 380.9,-15.438"/>
<polygon fill="midnightblue" stroke="midnightblue" points="380.912,-11.9214 370.61,-14.3962 380.207,-18.8858 380.912,-11.9214"/>
</g>
<!-- Node7 -->
<g id="node13" class="node"><title>Node7</title>
<polygon fill="white" stroke="#bfbfbf" points="847.07,-0.5 847.07,-21.5 882.07,-21.5 882.07,-0.5 847.07,-0.5"/>
<text text-anchor="middle" x="864.57" y="-8.5" font-family="Helvetica,sans-Serif" font-size="10.00">new</text>
</g>
<!-- Node3&#45;&gt;Node7 -->
<g id="edge12" class="edge"><title>Node3&#45;&gt;Node7</title>
<path fill="none" stroke="midnightblue" d="M840.889,-58.3619C844.773,-50.5949 850.149,-39.8426 854.797,-30.5458"/>
<polygon fill="midnightblue" stroke="midnightblue" points="857.943,-32.0802 859.285,-21.5707 851.682,-28.9497 857.943,-32.0802"/>
</g>
<!-- Node8&#45;&gt;Node6 -->
<g id="edge16" class="edge"><title>Node8&#45;&gt;Node6</title>
<path fill="none" stroke="midnightblue" d="M476.603,-58.4966C448.726,-49.0411 407.573,-35.0829 377.088,-24.7428"/>
<polygon fill="midnightblue" stroke="midnightblue" points="378.189,-21.4207 367.595,-21.5231 375.941,-28.0497 378.189,-21.4207"/>
</g>
<!-- Node9&#45;&gt;Node6 -->
<g id="edge30" class="edge"><title>Node9&#45;&gt;Node6</title>
<path fill="none" stroke="midnightblue" d="M377.64,-116.341C392.489,-102.868 413.348,-78.9074 402.57,-58 395.672,-44.6187 383.006,-34.2114 370.601,-26.6302"/>
<polygon fill="midnightblue" stroke="midnightblue" points="372.129,-23.4739 361.7,-21.6072 368.689,-29.5702 372.129,-23.4739"/>
</g>
<!-- Node10 -->
<g id="node21" class="node"><title>Node10</title>
<a xlink:href="../../d7/d97/_char_sequence_8h.html" target="_top" xlink:title="gaia/base/CharSequence.h">
<polygon fill="white" stroke="black" points="583.57,-58.5 583.57,-79.5 717.57,-79.5 717.57,-58.5 583.57,-58.5"/>
<text text-anchor="middle" x="650.57" y="-66.5" font-family="Helvetica,sans-Serif" font-size="10.00">gaia/base/CharSequence.h</text>
</a>
</g>
<!-- Node9&#45;&gt;Node10 -->
<g id="edge22" class="edge"><title>Node9&#45;&gt;Node10</title>
<path fill="none" stroke="midnightblue" d="M412.118,-117.357C460.466,-107.553 535.604,-92.3148 588.591,-81.5691"/>
<polygon fill="midnightblue" stroke="midnightblue" points="589.442,-84.9679 598.547,-79.5501 588.051,-78.1076 589.442,-84.9679"/>
</g>
<!-- Node11 -->
<g id="node24" class="node"><title>Node11</title>
<a xlink:href="../../d6/d83/_hash_func_8h.html" target="_top" xlink:title="gaia/base/HashFunc.h">
<polygon fill="white" stroke="black" points="279.07,-58.5 279.07,-79.5 394.07,-79.5 394.07,-58.5 279.07,-58.5"/>
<text text-anchor="middle" x="336.57" y="-66.5" font-family="Helvetica,sans-Serif" font-size="10.00">gaia/base/HashFunc.h</text>
</a>
</g>
<!-- Node9&#45;&gt;Node11 -->
<g id="edge26" class="edge"><title>Node9&#45;&gt;Node11</title>
<path fill="none" stroke="midnightblue" d="M359.434,-116.362C355.724,-108.677 350.603,-98.0686 346.148,-88.8399"/>
<polygon fill="midnightblue" stroke="midnightblue" points="349.173,-87.0545 341.673,-79.5707 342.869,-90.0978 349.173,-87.0545"/>
</g>
<!-- Node10&#45;&gt;Node4 -->
<g id="edge24" class="edge"><title>Node10&#45;&gt;Node4</title>
<path fill="none" stroke="midnightblue" d="M658.64,-58.3619C664.719,-50.3496 673.207,-39.1605 680.407,-29.6696"/>
<polygon fill="midnightblue" stroke="midnightblue" points="683.295,-31.653 686.551,-21.5707 677.719,-27.4222 683.295,-31.653"/>
</g>
<!-- Node11&#45;&gt;Node6 -->
<g id="edge28" class="edge"><title>Node11&#45;&gt;Node6</title>
<path fill="none" stroke="midnightblue" d="M336.57,-58.3619C336.57,-50.9219 336.57,-40.7427 336.57,-31.7276"/>
<polygon fill="midnightblue" stroke="midnightblue" points="340.07,-31.5706 336.57,-21.5707 333.07,-31.5707 340.07,-31.5706"/>
</g>
<!-- Node12&#45;&gt;Node2 -->
<g id="edge46" class="edge"><title>Node12&#45;&gt;Node2</title>
<path fill="none" stroke="midnightblue" d="M304.481,-174.497C346.137,-164.755 408.23,-150.233 452.783,-139.813"/>
<polygon fill="midnightblue" stroke="midnightblue" points="453.635,-143.208 462.575,-137.523 452.041,-136.392 453.635,-143.208"/>
</g>
<!-- Node12&#45;&gt;Node6 -->
<g id="edge34" class="edge"><title>Node12&#45;&gt;Node6</title>
<path fill="none" stroke="midnightblue" d="M211.884,-183.279C145.267,-179.759 29.5653,-169.202 3.57,-138 -2.68863,-130.488 1.80726,-125.618 3.57,-116 8.54033,-88.8818 4.11719,-75.3169 25.57,-58 65.7458,-25.5697 216.269,-15.4051 292.191,-12.3073"/>
<polygon fill="midnightblue" stroke="midnightblue" points="292.532,-15.7969 302.39,-11.9155 292.263,-8.80209 292.532,-15.7969"/>
</g>
<!-- Node12&#45;&gt;Node9 -->
<g id="edge48" class="edge"><title>Node12&#45;&gt;Node9</title>
<path fill="none" stroke="midnightblue" d="M278.829,-174.362C295.036,-165.409 318.423,-152.491 336.679,-142.406"/>
<polygon fill="midnightblue" stroke="midnightblue" points="338.372,-145.47 345.433,-137.571 334.988,-139.342 338.372,-145.47"/>
</g>
<!-- Node13 -->
<g id="node31" class="node"><title>Node13</title>
<a xlink:href="../../d3/dc5/_array_8h.html" target="_top" xlink:title="gaia/base/Array.h">
<polygon fill="white" stroke="black" points="183.07,-116.5 183.07,-137.5 276.07,-137.5 276.07,-116.5 183.07,-116.5"/>
<text text-anchor="middle" x="229.57" y="-124.5" font-family="Helvetica,sans-Serif" font-size="10.00">gaia/base/Array.h</text>
</a>
</g>
<!-- Node12&#45;&gt;Node13 -->
<g id="edge36" class="edge"><title>Node12&#45;&gt;Node13</title>
<path fill="none" stroke="midnightblue" d="M254.068,-174.362C250.05,-166.595 244.489,-155.843 239.68,-146.546"/>
<polygon fill="midnightblue" stroke="midnightblue" points="242.741,-144.845 235.038,-137.571 236.523,-148.061 242.741,-144.845"/>
</g>
<!-- Node15 -->
<g id="node40" class="node"><title>Node15</title>
<a xlink:href="../../d8/d4d/_parcelable_8h.html" target="_top" xlink:title="gaia/core/Parcelable.h">
<polygon fill="white" stroke="black" points="12.07,-116.5 12.07,-137.5 125.07,-137.5 125.07,-116.5 12.07,-116.5"/>
<text text-anchor="middle" x="68.57" y="-124.5" font-family="Helvetica,sans-Serif" font-size="10.00">gaia/core/Parcelable.h</text>
</a>
</g>
<!-- Node12&#45;&gt;Node15 -->
<g id="edge50" class="edge"><title>Node12&#45;&gt;Node15</title>
<path fill="none" stroke="midnightblue" d="M224.981,-174.497C193.574,-164.959 147.08,-150.841 112.945,-140.475"/>
<polygon fill="midnightblue" stroke="midnightblue" points="113.809,-137.08 103.224,-137.523 111.775,-143.778 113.809,-137.08"/>
</g>
<!-- Node13&#45;&gt;Node3 -->
<g id="edge42" class="edge"><title>Node13&#45;&gt;Node3</title>
<path fill="none" stroke="midnightblue" d="M276.305,-120.079C286.901,-118.626 298.112,-117.178 308.57,-116 493.864,-95.1351 540.915,-97.3617 726.57,-80 738.332,-78.9001 750.802,-77.6864 762.945,-76.4789"/>
<polygon fill="midnightblue" stroke="midnightblue" points="763.444,-79.9466 773.046,-75.4687 762.747,-72.9814 763.444,-79.9466"/>
</g>
<!-- Node13&#45;&gt;Node6 -->
<g id="edge44" class="edge"><title>Node13&#45;&gt;Node6</title>
<path fill="none" stroke="midnightblue" d="M195.656,-116.426C162.826,-104.414 120.716,-83.1776 140.57,-58 159.106,-34.4941 240.413,-21.4142 292.307,-15.3237"/>
<polygon fill="midnightblue" stroke="midnightblue" points="292.723,-18.7991 302.267,-14.1978 291.937,-11.8434 292.723,-18.7991"/>
</g>
<!-- Node14 -->
<g id="node33" class="node"><title>Node14</title>
<a xlink:href="../../d8/dae/_array_impl_8h.html" target="_top" xlink:title="gaia/base/ArrayImpl.h">
<polygon fill="white" stroke="black" points="149.57,-58.5 149.57,-79.5 261.57,-79.5 261.57,-58.5 149.57,-58.5"/>
<text text-anchor="middle" x="205.57" y="-66.5" font-family="Helvetica,sans-Serif" font-size="10.00">gaia/base/ArrayImpl.h</text>
</a>
</g>
<!-- Node13&#45;&gt;Node14 -->
<g id="edge38" class="edge"><title>Node13&#45;&gt;Node14</title>
<path fill="none" stroke="midnightblue" d="M225.168,-116.362C221.988,-108.677 217.598,-98.0686 213.78,-88.8399"/>
<polygon fill="midnightblue" stroke="midnightblue" points="217.002,-87.4726 209.944,-79.5707 210.534,-90.1491 217.002,-87.4726"/>
</g>
<!-- Node14&#45;&gt;Node6 -->
<g id="edge40" class="edge"><title>Node14&#45;&gt;Node6</title>
<path fill="none" stroke="midnightblue" d="M229.293,-58.4966C249.938,-49.3562 280.086,-36.0082 303.169,-25.7883"/>
<polygon fill="midnightblue" stroke="midnightblue" points="304.854,-28.8701 312.581,-21.6212 302.02,-22.4694 304.854,-28.8701"/>
</g>
<!-- Node15&#45;&gt;Node6 -->
<g id="edge54" class="edge"><title>Node15&#45;&gt;Node6</title>
<path fill="none" stroke="midnightblue" d="M56.4623,-116.472C41.3339,-102.066 19.1945,-75.9534 34.57,-58 51.1066,-38.6907 212.132,-21.9519 292.046,-14.7564"/>
<polygon fill="midnightblue" stroke="midnightblue" points="292.648,-18.2168 302.299,-13.8455 292.029,-11.2443 292.648,-18.2168"/>
</g>
<!-- Node16 -->
<g id="node42" class="node"><title>Node16</title>
<polygon fill="white" stroke="#bfbfbf" points="43.07,-58.5 43.07,-79.5 94.07,-79.5 94.07,-58.5 43.07,-58.5"/>
<text text-anchor="middle" x="68.57" y="-66.5" font-family="Helvetica,sans-Serif" font-size="10.00">typeinfo</text>
</g>
<!-- Node15&#45;&gt;Node16 -->
<g id="edge52" class="edge"><title>Node15&#45;&gt;Node16</title>
<path fill="none" stroke="midnightblue" d="M68.57,-116.362C68.57,-108.922 68.57,-98.7427 68.57,-89.7276"/>
<polygon fill="midnightblue" stroke="midnightblue" points="72.0701,-89.5706 68.57,-79.5707 65.0701,-89.5707 72.0701,-89.5706"/>
</g>
</g>
</svg>
