<?xml version="1.0" encoding="UTF-8" standalone="no"?>
<!DOCTYPE svg PUBLIC "-//W3C//DTD SVG 1.1//EN"
 "http://www.w3.org/Graphics/SVG/1.1/DTD/svg11.dtd">
<!-- Generated by graphviz version 2.26.3 (20100126.1600)
 -->
<!-- Title: G Pages: 1 -->
<svg width="526pt" height="88pt"
 viewBox="0.00 0.00 526.00 88.00" xmlns="http://www.w3.org/2000/svg" xmlns:xlink="http://www.w3.org/1999/xlink">
<g id="graph1" class="graph" transform="scale(1 1) rotate(0) translate(4 84)">
<title>G</title>
<polygon fill="white" stroke="white" points="-4,5 -4,-84 523,-84 523,5 -4,5"/>
<!-- Node1 -->
<g id="node1" class="node"><title>Node1</title>
<polygon fill="#bfbfbf" stroke="black" points="146.5,-58.5 146.5,-79.5 377.5,-79.5 377.5,-58.5 146.5,-58.5"/>
<text text-anchor="middle" x="262" y="-66.5" font-family="Helvetica,sans-Serif" font-size="10.00">/home/vilon_tao/gaia/sdk/include/gaia/utility/Zip.h</text>
</g>
<!-- Node2 -->
<g id="node3" class="node"><title>Node2</title>
<a xlink:href="../../d6/d0d/_unzipper_8h.html" target="_top" xlink:title="/home/vilon_tao/gaia/sdk/include/gaia/utility/Unzipper.h">
<polygon fill="white" stroke="black" points="-0.5,-0.5 -0.5,-21.5 256.5,-21.5 256.5,-0.5 -0.5,-0.5"/>
<text text-anchor="middle" x="128" y="-8.5" font-family="Helvetica,sans-Serif" font-size="10.00">/home/vilon_tao/gaia/sdk/include/gaia/utility/Unzipper.h</text>
</a>
</g>
<!-- Node1&#45;&gt;Node2 -->
<g id="edge2" class="edge"><title>Node1&#45;&gt;Node2</title>
<path fill="none" stroke="midnightblue" d="M228.452,-54.4794C204.864,-44.2695 173.834,-30.8386 152.539,-21.6212"/>
<polygon fill="midnightblue" stroke="midnightblue" points="227.166,-57.7364 237.734,-58.4966 229.947,-51.3123 227.166,-57.7364"/>
</g>
<!-- Node3 -->
<g id="node5" class="node"><title>Node3</title>
<a xlink:href="../../d0/d8c/_zipper_8h.html" target="_top" xlink:title="/home/vilon_tao/gaia/sdk/include/gaia/utility/Zipper.h">
<polygon fill="white" stroke="black" points="273.5,-0.5 273.5,-21.5 518.5,-21.5 518.5,-0.5 273.5,-0.5"/>
<text text-anchor="middle" x="396" y="-8.5" font-family="Helvetica,sans-Serif" font-size="10.00">/home/vilon_tao/gaia/sdk/include/gaia/utility/Zipper.h</text>
</a>
</g>
<!-- Node1&#45;&gt;Node3 -->
<g id="edge4" class="edge"><title>Node1&#45;&gt;Node3</title>
<path fill="none" stroke="midnightblue" d="M295.548,-54.4794C319.136,-44.2695 350.166,-30.8386 371.461,-21.6212"/>
<polygon fill="midnightblue" stroke="midnightblue" points="294.053,-51.3123 286.266,-58.4966 296.834,-57.7364 294.053,-51.3123"/>
</g>
</g>
</svg>
