<?xml version="1.0" encoding="UTF-8" standalone="no"?>
<!DOCTYPE svg PUBLIC "-//W3C//DTD SVG 1.1//EN"
 "http://www.w3.org/Graphics/SVG/1.1/DTD/svg11.dtd">
<!-- Generated by graphviz version 2.26.3 (20100126.1600)
 -->
<!-- Title: G Pages: 1 -->
<svg width="288pt" height="146pt"
 viewBox="0.00 0.00 288.00 146.00" xmlns="http://www.w3.org/2000/svg" xmlns:xlink="http://www.w3.org/1999/xlink">
<g id="graph1" class="graph" transform="scale(1 1) rotate(0) translate(4 142)">
<title>G</title>
<polygon fill="white" stroke="white" points="-4,5 -4,-142 285,-142 285,5 -4,5"/>
<!-- Node1 -->
<g id="node1" class="node"><title>Node1</title>
<polygon fill="#bfbfbf" stroke="black" points="-0.5,-116.5 -0.5,-137.5 280.5,-137.5 280.5,-116.5 -0.5,-116.5"/>
<text text-anchor="middle" x="140" y="-124.5" font-family="Helvetica,sans-Serif" font-size="10.00">/home/vilon_tao/gaia/sdk/include/gaia/media/PresetReverb.h</text>
</g>
<!-- Node2 -->
<g id="node3" class="node"><title>Node2</title>
<polygon fill="white" stroke="#bfbfbf" points="46.5,-0.5 46.5,-21.5 95.5,-21.5 95.5,-0.5 46.5,-0.5"/>
<text text-anchor="middle" x="71" y="-8.5" font-family="Helvetica,sans-Serif" font-size="10.00">stdint.h</text>
</g>
<!-- Node1&#45;&gt;Node2 -->
<g id="edge2" class="edge"><title>Node1&#45;&gt;Node2</title>
<path fill="none" stroke="midnightblue" d="M111.558,-116.453C95.662,-108.918 77.2395,-97.0651 68,-80 59.9933,-65.2118 61.66,-45.9173 64.804,-31.4926"/>
<polygon fill="midnightblue" stroke="midnightblue" points="68.2557,-32.1235 67.3606,-21.5666 61.4769,-30.3775 68.2557,-32.1235"/>
</g>
<!-- Node3 -->
<g id="node5" class="node"><title>Node3</title>
<a xlink:href="../../d1/dd0/gmacros_8h.html" target="_top" xlink:title="gaia/base/gmacros.h">
<polygon fill="white" stroke="black" points="155.5,-0.5 155.5,-21.5 262.5,-21.5 262.5,-0.5 155.5,-0.5"/>
<text text-anchor="middle" x="209" y="-8.5" font-family="Helvetica,sans-Serif" font-size="10.00">gaia/base/gmacros.h</text>
</a>
</g>
<!-- Node1&#45;&gt;Node3 -->
<g id="edge4" class="edge"><title>Node1&#45;&gt;Node3</title>
<path fill="none" stroke="midnightblue" d="M168.442,-116.453C184.338,-108.918 202.761,-97.0651 212,-80 220.007,-65.2118 218.34,-45.9173 215.196,-31.4926"/>
<polygon fill="midnightblue" stroke="midnightblue" points="218.523,-30.3775 212.639,-21.5666 211.744,-32.1235 218.523,-30.3775"/>
</g>
<!-- Node4 -->
<g id="node7" class="node"><title>Node4</title>
<a xlink:href="../../d6/db8/_audio_effect_8h.html" target="_top" xlink:title="gaia/media/AudioEffect.h">
<polygon fill="white" stroke="black" points="77,-58.5 77,-79.5 203,-79.5 203,-58.5 77,-58.5"/>
<text text-anchor="middle" x="140" y="-66.5" font-family="Helvetica,sans-Serif" font-size="10.00">gaia/media/AudioEffect.h</text>
</a>
</g>
<!-- Node1&#45;&gt;Node4 -->
<g id="edge6" class="edge"><title>Node1&#45;&gt;Node4</title>
<path fill="none" stroke="midnightblue" d="M140,-116.362C140,-108.922 140,-98.7427 140,-89.7276"/>
<polygon fill="midnightblue" stroke="midnightblue" points="143.5,-89.5706 140,-79.5707 136.5,-89.5707 143.5,-89.5706"/>
</g>
<!-- Node4&#45;&gt;Node2 -->
<g id="edge8" class="edge"><title>Node4&#45;&gt;Node2</title>
<path fill="none" stroke="midnightblue" d="M127.344,-58.3619C117.326,-49.9408 103.133,-38.0105 91.4987,-28.2308"/>
<polygon fill="midnightblue" stroke="midnightblue" points="93.4824,-25.326 83.5754,-21.5707 88.9782,-30.6844 93.4824,-25.326"/>
</g>
<!-- Node4&#45;&gt;Node3 -->
<g id="edge10" class="edge"><title>Node4&#45;&gt;Node3</title>
<path fill="none" stroke="midnightblue" d="M152.656,-58.3619C162.674,-49.9408 176.867,-38.0105 188.501,-28.2308"/>
<polygon fill="midnightblue" stroke="midnightblue" points="191.022,-30.6844 196.425,-21.5707 186.518,-25.326 191.022,-30.6844"/>
</g>
</g>
</svg>
