<?xml version="1.0" encoding="UTF-8" standalone="no"?>
<!DOCTYPE svg PUBLIC "-//W3C//DTD SVG 1.1//EN"
 "http://www.w3.org/Graphics/SVG/1.1/DTD/svg11.dtd">
<!-- Generated by graphviz version 2.26.3 (20100126.1600)
 -->
<!-- Title: G Pages: 1 -->
<svg width="394pt" height="262pt"
 viewBox="0.00 0.00 394.00 262.00" xmlns="http://www.w3.org/2000/svg" xmlns:xlink="http://www.w3.org/1999/xlink">
<g id="graph1" class="graph" transform="scale(1 1) rotate(0) translate(4 258)">
<title>G</title>
<polygon fill="white" stroke="white" points="-4,5 -4,-258 391,-258 391,5 -4,5"/>
<!-- Node1 -->
<g id="node1" class="node"><title>Node1</title>
<polygon fill="#bfbfbf" stroke="black" points="0,-232.5 0,-253.5 386,-253.5 386,-232.5 0,-232.5"/>
<text text-anchor="middle" x="193" y="-240.5" font-family="Helvetica,sans-Serif" font-size="10.00">/home/vilon_tao/gaia/sdk/include/gaia/connectivity/bluetooth/BluetoothPbapService.h</text>
</g>
<!-- Node2 -->
<g id="node3" class="node"><title>Node2</title>
<polygon fill="white" stroke="#bfbfbf" points="73.5,-174.5 73.5,-195.5 122.5,-195.5 122.5,-174.5 73.5,-174.5"/>
<text text-anchor="middle" x="98" y="-182.5" font-family="Helvetica,sans-Serif" font-size="10.00">stdint.h</text>
</g>
<!-- Node1&#45;&gt;Node2 -->
<g id="edge2" class="edge"><title>Node1&#45;&gt;Node2</title>
<path fill="none" stroke="midnightblue" d="M175.576,-232.362C161.113,-223.532 140.331,-210.844 123.916,-200.822"/>
<polygon fill="midnightblue" stroke="midnightblue" points="125.673,-197.794 115.314,-195.571 122.025,-203.769 125.673,-197.794"/>
</g>
<!-- Node3 -->
<g id="node5" class="node"><title>Node3</title>
<a xlink:href="../../d1/dd0/gmacros_8h.html" target="_top" xlink:title="gaia/base/gmacros.h">
<polygon fill="white" stroke="black" points="139.5,-174.5 139.5,-195.5 246.5,-195.5 246.5,-174.5 139.5,-174.5"/>
<text text-anchor="middle" x="193" y="-182.5" font-family="Helvetica,sans-Serif" font-size="10.00">gaia/base/gmacros.h</text>
</a>
</g>
<!-- Node1&#45;&gt;Node3 -->
<g id="edge4" class="edge"><title>Node1&#45;&gt;Node3</title>
<path fill="none" stroke="midnightblue" d="M193,-232.362C193,-224.922 193,-214.743 193,-205.728"/>
<polygon fill="midnightblue" stroke="midnightblue" points="196.5,-205.571 193,-195.571 189.5,-205.571 196.5,-205.571"/>
</g>
<!-- Node4 -->
<g id="node7" class="node"><title>Node4</title>
<a xlink:href="../../d9/dfd/_delegate_8h.html" target="_top" xlink:title="gaia/core/Delegate.h">
<polygon fill="white" stroke="black" points="263.5,-174.5 263.5,-195.5 370.5,-195.5 370.5,-174.5 263.5,-174.5"/>
<text text-anchor="middle" x="317" y="-182.5" font-family="Helvetica,sans-Serif" font-size="10.00">gaia/core/Delegate.h</text>
</a>
</g>
<!-- Node1&#45;&gt;Node4 -->
<g id="edge6" class="edge"><title>Node1&#45;&gt;Node4</title>
<path fill="none" stroke="midnightblue" d="M215.455,-232.497C234.91,-223.397 263.28,-210.127 285.091,-199.925"/>
<polygon fill="midnightblue" stroke="midnightblue" points="286.717,-203.028 294.293,-195.621 283.752,-196.688 286.717,-203.028"/>
</g>
<!-- Node5 -->
<g id="node9" class="node"><title>Node5</title>
<a xlink:href="../../db/dbd/_export_8h.html" target="_top" xlink:title="gaia/core/Export.h">
<polygon fill="white" stroke="black" points="231,-116.5 231,-137.5 327,-137.5 327,-116.5 231,-116.5"/>
<text text-anchor="middle" x="279" y="-124.5" font-family="Helvetica,sans-Serif" font-size="10.00">gaia/core/Export.h</text>
</a>
</g>
<!-- Node4&#45;&gt;Node5 -->
<g id="edge8" class="edge"><title>Node4&#45;&gt;Node5</title>
<path fill="none" stroke="midnightblue" d="M310.03,-174.362C304.834,-166.431 297.599,-155.389 291.422,-145.961"/>
<polygon fill="midnightblue" stroke="midnightblue" points="294.334,-144.017 285.926,-137.571 288.478,-147.853 294.334,-144.017"/>
</g>
<!-- Node7 -->
<g id="node13" class="node"><title>Node7</title>
<polygon fill="white" stroke="#bfbfbf" points="236,-0.5 236,-21.5 304,-21.5 304,-0.5 236,-0.5"/>
<text text-anchor="middle" x="270" y="-8.5" font-family="Helvetica,sans-Serif" font-size="10.00">sys/types.h</text>
</g>
<!-- Node4&#45;&gt;Node7 -->
<g id="edge16" class="edge"><title>Node4&#45;&gt;Node7</title>
<path fill="none" stroke="midnightblue" d="M322.599,-174.439C333.799,-151.751 356.227,-97.2352 336,-58 329.102,-44.6187 316.436,-34.2114 304.031,-26.6302"/>
<polygon fill="midnightblue" stroke="midnightblue" points="305.559,-23.4739 295.13,-21.6072 302.119,-29.5702 305.559,-23.4739"/>
</g>
<!-- Node6 -->
<g id="node11" class="node"><title>Node6</title>
<a xlink:href="../../de/d8c/_component_loader_8h.html" target="_top" xlink:title="gaia/core/ComponentLoader.h">
<polygon fill="white" stroke="black" points="112.5,-58.5 112.5,-79.5 259.5,-79.5 259.5,-58.5 112.5,-58.5"/>
<text text-anchor="middle" x="186" y="-66.5" font-family="Helvetica,sans-Serif" font-size="10.00">gaia/core/ComponentLoader.h</text>
</a>
</g>
<!-- Node5&#45;&gt;Node6 -->
<g id="edge10" class="edge"><title>Node5&#45;&gt;Node6</title>
<path fill="none" stroke="midnightblue" d="M261.942,-116.362C247.915,-107.614 227.816,-95.0786 211.818,-85.1015"/>
<polygon fill="midnightblue" stroke="midnightblue" points="213.287,-81.8927 202.949,-79.5707 209.582,-87.8323 213.287,-81.8927"/>
</g>
<!-- Node8 -->
<g id="node15" class="node"><title>Node8</title>
<polygon fill="white" stroke="#bfbfbf" points="276.5,-58.5 276.5,-79.5 327.5,-79.5 327.5,-58.5 276.5,-58.5"/>
<text text-anchor="middle" x="302" y="-66.5" font-family="Helvetica,sans-Serif" font-size="10.00">typeinfo</text>
</g>
<!-- Node5&#45;&gt;Node8 -->
<g id="edge14" class="edge"><title>Node5&#45;&gt;Node8</title>
<path fill="none" stroke="midnightblue" d="M283.219,-116.362C286.234,-108.758 290.383,-98.294 294.015,-89.1349"/>
<polygon fill="midnightblue" stroke="midnightblue" points="297.375,-90.1567 297.808,-79.5707 290.868,-87.5762 297.375,-90.1567"/>
</g>
<!-- Node6&#45;&gt;Node7 -->
<g id="edge12" class="edge"><title>Node6&#45;&gt;Node7</title>
<path fill="none" stroke="midnightblue" d="M201.407,-58.3619C213.958,-49.6955 231.892,-37.3126 246.275,-27.3819"/>
<polygon fill="midnightblue" stroke="midnightblue" points="248.45,-30.1327 254.691,-21.5707 244.473,-24.3725 248.45,-30.1327"/>
</g>
</g>
</svg>
