<?xml version="1.0" encoding="UTF-8" standalone="no"?>
<!DOCTYPE svg PUBLIC "-//W3C//DTD SVG 1.1//EN"
 "http://www.w3.org/Graphics/SVG/1.1/DTD/svg11.dtd">
<!-- Generated by graphviz version 2.26.3 (20100126.1600)
 -->
<!-- Title: G Pages: 1 -->
<svg width="190pt" height="106pt"
 viewBox="0.00 0.00 190.00 106.00" xmlns="http://www.w3.org/2000/svg" xmlns:xlink="http://www.w3.org/1999/xlink">
<g id="graph1" class="graph" transform="scale(1 1) rotate(0) translate(4 102)">
<title>G</title>
<polygon fill="white" stroke="white" points="-4,5 -4,-102 187,-102 187,5 -4,5"/>
<!-- Node1 -->
<g id="node1" class="node"><title>Node1</title>
<polygon fill="#bfbfbf" stroke="black" points="2,-0.5 2,-21.5 130,-21.5 130,-0.5 2,-0.5"/>
<text text-anchor="middle" x="66" y="-8.5" font-family="Helvetica,sans-Serif" font-size="10.00">gaia::base::LruCacheImpl</text>
</g>
<!-- Node2 -->
<g id="node2" class="node"><title>Node2</title>
<a xlink:href="../../de/de5/classgaia_1_1base_1_1_lru_cache_node.html" target="_top" xlink:title="gaia::base::LruCacheNode">
<polygon fill="white" stroke="black" points="-0.5,-74.5 -0.5,-95.5 132.5,-95.5 132.5,-74.5 -0.5,-74.5"/>
<text text-anchor="middle" x="66" y="-82.5" font-family="Helvetica,sans-Serif" font-size="10.00">gaia::base::LruCacheNode</text>
</a>
</g>
<!-- Node2&#45;&gt;Node1 -->
<g id="edge2" class="edge"><title>Node2&#45;&gt;Node1</title>
<path fill="none" stroke="#9a32cd" stroke-dasharray="5,2" d="M66,-64.2771C66,-50.3872 66,-32.675 66,-21.5827"/>
<polygon fill="#9a32cd" stroke="#9a32cd" points="62.5001,-64.3976 66,-74.3976 69.5001,-64.3976 62.5001,-64.3976"/>
<text text-anchor="middle" x="83.5" y="-44.5" font-family="Helvetica,sans-Serif" font-size="10.00"> mHead</text>
</g>
<!-- Node2&#45;&gt;Node2 -->
<g id="edge4" class="edge"><title>Node2&#45;&gt;Node2</title>
<path fill="none" stroke="#9a32cd" stroke-dasharray="5,2" d="M142.629,-89.9251C147.236,-88.7523 150,-87.1106 150,-85 150,-81.623 142.924,-79.4465 132.545,-78.4703"/>
<polygon fill="#9a32cd" stroke="#9a32cd" points="141.871,-86.5016 132.545,-91.5297 142.971,-93.4146 141.871,-86.5016"/>
<text text-anchor="middle" x="166" y="-89" font-family="Helvetica,sans-Serif" font-size="10.00"> mPrev</text>
<text text-anchor="middle" x="166" y="-76" font-family="Helvetica,sans-Serif" font-size="10.00">mNext</text>
</g>
</g>
</svg>
