<?xml version="1.0" encoding="UTF-8" standalone="no"?>
<!DOCTYPE svg PUBLIC "-//W3C//DTD SVG 1.1//EN"
 "http://www.w3.org/Graphics/SVG/1.1/DTD/svg11.dtd">
<!-- Generated by graphviz version 2.26.3 (20100126.1600)
 -->
<!-- Title: G Pages: 1 -->
<svg width="1332pt" height="337pt"
 viewBox="0.00 0.00 1332.00 336.65" xmlns="http://www.w3.org/2000/svg" xmlns:xlink="http://www.w3.org/1999/xlink">
<g id="graph1" class="graph" transform="scale(1 1) rotate(0) translate(4 332.655)">
<title>G</title>
<polygon fill="white" stroke="white" points="-4,5 -4,-332.655 1329,-332.655 1329,5 -4,5"/>
<!-- Node1 -->
<g id="node1" class="node"><title>Node1</title>
<polygon fill="#bfbfbf" stroke="black" points="1198.5,-227.155 1198.5,-248.155 1311.5,-248.155 1311.5,-227.155 1198.5,-227.155"/>
<text text-anchor="middle" x="1255" y="-235.155" font-family="Helvetica,sans-Serif" font-size="10.00">gaia::ui::PopupWidget</text>
</g>
<!-- Node2 -->
<g id="node2" class="node"><title>Node2</title>
<a xlink:href="../../d5/dfb/classgaia_1_1core_1_1_scene.html" target="_top" xlink:title="A Scene is used to build a visual interface.">
<polygon fill="white" stroke="black" points="775.5,-84.1546 775.5,-105.155 868.5,-105.155 868.5,-84.1546 775.5,-84.1546"/>
<text text-anchor="middle" x="822" y="-92.1546" font-family="Helvetica,sans-Serif" font-size="10.00">gaia::core::Scene</text>
</a>
</g>
<!-- Node2&#45;&gt;Node1 -->
<g id="edge2" class="edge"><title>Node2&#45;&gt;Node1</title>
<path fill="none" stroke="#9a32cd" stroke-dasharray="5,2" d="M845.917,-110.855C875.95,-130.466 929.656,-163.157 980,-181.655 1052.95,-208.456 1141.75,-223.599 1198.33,-231.207"/>
<polygon fill="#9a32cd" stroke="#9a32cd" points="847.66,-107.811 837.387,-105.219 843.801,-113.651 847.66,-107.811"/>
<text text-anchor="middle" x="1041" y="-217.655" font-family="Helvetica,sans-Serif" font-size="10.00"> mpScene</text>
</g>
<!-- Node3 -->
<g id="node4" class="node"><title>Node3</title>
<a xlink:href="../../db/d6c/classgaia_1_1core_1_1_widget_controller.html" target="_top" xlink:title="Define the default widget layout to put sets of layout in it.">
<polygon fill="white" stroke="black" points="1186,-130.155 1186,-151.155 1324,-151.155 1324,-130.155 1186,-130.155"/>
<text text-anchor="middle" x="1255" y="-138.155" font-family="Helvetica,sans-Serif" font-size="10.00">gaia::core::WidgetController</text>
</a>
</g>
<!-- Node2&#45;&gt;Node3 -->
<g id="edge16" class="edge"><title>Node2&#45;&gt;Node3</title>
<path fill="none" stroke="#9a32cd" stroke-dasharray="5,2" d="M879.109,-89.3975C935.954,-85.348 1025.52,-82.172 1102,-93.6546 1147.89,-100.544 1199.02,-118.446 1229.02,-130.061"/>
<polygon fill="#9a32cd" stroke="#9a32cd" points="878.597,-85.9258 868.886,-90.1605 879.119,-92.9064 878.597,-85.9258"/>
<text text-anchor="middle" x="1041" y="-97.6546" font-family="Helvetica,sans-Serif" font-size="10.00"> mpScene</text>
</g>
<!-- Node4 -->
<g id="node6" class="node"><title>Node4</title>
<a xlink:href="../../d8/dac/classgaia_1_1core_1_1_widget.html" target="_top" xlink:title="The Widget class is the base class of all user interface component.">
<polygon fill="white" stroke="black" points="993,-256.155 993,-277.155 1089,-277.155 1089,-256.155 993,-256.155"/>
<text text-anchor="middle" x="1041" y="-264.155" font-family="Helvetica,sans-Serif" font-size="10.00">gaia::core::Widget</text>
</a>
</g>
<!-- Node2&#45;&gt;Node4 -->
<g id="edge10" class="edge"><title>Node2&#45;&gt;Node4</title>
<path fill="none" stroke="#9a32cd" stroke-dasharray="5,2" d="M832.056,-114.27C846.939,-141.498 877.288,-190.661 916,-219.655 939.382,-237.167 970.028,-248.826 995.124,-256.151"/>
<polygon fill="#9a32cd" stroke="#9a32cd" points="835.075,-112.491 827.286,-105.309 828.896,-115.781 835.075,-112.491"/>
<text text-anchor="middle" x="939" y="-247.655" font-family="Helvetica,sans-Serif" font-size="10.00"> mpScene</text>
</g>
<!-- Node12 -->
<g id="node25" class="node"><title>Node12</title>
<a xlink:href="../../db/d3f/classgaia_1_1core_1_1_page.html" target="_top" xlink:title="An page is a single, focused thing that the user can do.">
<polygon fill="white" stroke="black" points="997,-5.15457 997,-26.1546 1085,-26.1546 1085,-5.15457 997,-5.15457"/>
<text text-anchor="middle" x="1041" y="-13.1546" font-family="Helvetica,sans-Serif" font-size="10.00">gaia::core::Page</text>
</a>
</g>
<!-- Node2&#45;&gt;Node12 -->
<g id="edge30" class="edge"><title>Node2&#45;&gt;Node12</title>
<path fill="none" stroke="#9a32cd" stroke-dasharray="5,2" d="M846.965,-78.6266C865.405,-67.4151 891.461,-52.8557 916,-43.6546 942.029,-33.8946 972.442,-26.9902 996.751,-22.4796"/>
<polygon fill="#9a32cd" stroke="#9a32cd" points="844.976,-75.7414 838.315,-83.9804 848.66,-81.6936 844.976,-75.7414"/>
<text text-anchor="middle" x="939" y="-47.6546" font-family="Helvetica,sans-Serif" font-size="10.00"> mpScene</text>
</g>
<!-- Node3&#45;&gt;Node2 -->
<g id="edge4" class="edge"><title>Node3&#45;&gt;Node2</title>
<path fill="none" stroke="#9a32cd" stroke-dasharray="5,2" d="M1175.54,-132.213C1085.65,-122.664 942.237,-107.428 868.75,-99.6211"/>
<polygon fill="#9a32cd" stroke="#9a32cd" points="1175.38,-135.715 1185.69,-133.291 1176.11,-128.754 1175.38,-135.715"/>
<text text-anchor="middle" x="1041" y="-127.655" font-family="Helvetica,sans-Serif" font-size="10.00"> mpController</text>
</g>
<!-- Node4&#45;&gt;Node1 -->
<g id="edge32" class="edge"><title>Node4&#45;&gt;Node1</title>
<path fill="none" stroke="#9a32cd" stroke-dasharray="5,2" d="M1099.21,-258.767C1130.06,-254.586 1167.8,-249.471 1198.41,-245.323"/>
<polygon fill="#9a32cd" stroke="#9a32cd" points="1098.47,-255.335 1089.03,-260.146 1099.41,-262.272 1098.47,-255.335"/>
<text text-anchor="middle" x="1144" y="-258.655" font-family="Helvetica,sans-Serif" font-size="10.00"> mpWidget</text>
</g>
<!-- Node4&#45;&gt;Node3 -->
<g id="edge6" class="edge"><title>Node4&#45;&gt;Node3</title>
<path fill="none" stroke="midnightblue" d="M1067.63,-250.978C1111.86,-224.936 1199.33,-173.434 1237.02,-151.239"/>
<polygon fill="midnightblue" stroke="midnightblue" points="1065.72,-248.039 1058.88,-256.129 1069.27,-254.071 1065.72,-248.039"/>
</g>
<!-- Node5 -->
<g id="node8" class="node"><title>Node5</title>
<a xlink:href="../../d0/db2/classgaia_1_1core_1_1_property_animatable.html" target="_top" xlink:title="Any animation object need to implement PropertyAnimatable because of setting value.">
<polygon fill="white" stroke="black" points="746.5,-307.155 746.5,-328.155 897.5,-328.155 897.5,-307.155 746.5,-307.155"/>
<text text-anchor="middle" x="822" y="-315.155" font-family="Helvetica,sans-Serif" font-size="10.00">gaia::core::PropertyAnimatable</text>
</a>
</g>
<!-- Node5&#45;&gt;Node4 -->
<g id="edge8" class="edge"><title>Node5&#45;&gt;Node4</title>
<path fill="none" stroke="midnightblue" d="M890.437,-305.188C913.287,-300.701 938.827,-295.334 962,-289.655 976.845,-286.016 993.082,-281.401 1006.95,-277.262"/>
<polygon fill="midnightblue" stroke="midnightblue" points="889.635,-301.778 880.486,-307.12 890.97,-308.65 889.635,-301.778"/>
</g>
<!-- Node6 -->
<g id="node11" class="node"><title>Node6</title>
<a xlink:href="../../db/d88/classgaia_1_1core_1_1_widget_tag.html" target="_top" xlink:title="gaia::core::WidgetTag">
<polygon fill="white" stroke="black" points="765.5,-267.155 765.5,-288.155 878.5,-288.155 878.5,-267.155 765.5,-267.155"/>
<text text-anchor="middle" x="822" y="-275.155" font-family="Helvetica,sans-Serif" font-size="10.00">gaia::core::WidgetTag</text>
</a>
</g>
<!-- Node6&#45;&gt;Node4 -->
<g id="edge12" class="edge"><title>Node6&#45;&gt;Node4</title>
<path fill="none" stroke="#9a32cd" stroke-dasharray="5,2" d="M888.865,-274.296C922.384,-272.612 962.219,-270.612 992.718,-269.08"/>
<polygon fill="#9a32cd" stroke="#9a32cd" points="888.495,-270.81 878.683,-274.807 888.846,-277.801 888.495,-270.81"/>
<text text-anchor="middle" x="939" y="-276.655" font-family="Helvetica,sans-Serif" font-size="10.00"> mpTag</text>
</g>
<!-- Node7 -->
<g id="node13" class="node"><title>Node7</title>
<a xlink:href="../../dd/de0/classgaia_1_1core_1_1_event_control.html" target="_top" xlink:title="EventControl is used to dispatch event and register listener.">
<polygon fill="white" stroke="black" points="980,-151.155 980,-172.155 1102,-172.155 1102,-151.155 980,-151.155"/>
<text text-anchor="middle" x="1041" y="-159.155" font-family="Helvetica,sans-Serif" font-size="10.00">gaia::core::EventControl</text>
</a>
</g>
<!-- Node7&#45;&gt;Node3 -->
<g id="edge14" class="edge"><title>Node7&#45;&gt;Node3</title>
<path fill="none" stroke="midnightblue" d="M1112.06,-154.682C1135.85,-152.347 1162.33,-149.748 1185.97,-147.429"/>
<polygon fill="midnightblue" stroke="midnightblue" points="1111.65,-151.205 1102.04,-155.665 1112.33,-158.171 1111.65,-151.205"/>
</g>
<!-- Node8 -->
<g id="node16" class="node"><title>Node8</title>
<a xlink:href="../../de/dad/classgaia_1_1content_1_1_resources.html" target="_top" xlink:title="Class for accessing an application&#39;s resources.">
<polygon fill="white" stroke="black" points="481,-103.155 481,-124.155 607,-124.155 607,-103.155 481,-103.155"/>
<text text-anchor="middle" x="544" y="-111.155" font-family="Helvetica,sans-Serif" font-size="10.00">gaia::content::Resources</text>
</a>
</g>
<!-- Node8&#45;&gt;Node2 -->
<g id="edge18" class="edge"><title>Node8&#45;&gt;Node2</title>
<path fill="none" stroke="#9a32cd" stroke-dasharray="5,2" d="M617.198,-108.652C667.217,-105.233 732.013,-100.805 775.192,-97.8537"/>
<polygon fill="#9a32cd" stroke="#9a32cd" points="616.821,-105.169 607.083,-109.343 617.298,-112.153 616.821,-105.169"/>
<text text-anchor="middle" x="696" y="-108.655" font-family="Helvetica,sans-Serif" font-size="10.00"> mpResources</text>
</g>
<!-- Node9 -->
<g id="node18" class="node"><title>Node9</title>
<a xlink:href="../../df/d5d/classgaia_1_1base_1_1_vector.html" target="_top" xlink:title="gaia::base::Vector\&lt; gaia::ui::DialogBox * \&gt;">
<polygon fill="white" stroke="black" points="442.5,-63.1546 442.5,-84.1546 645.5,-84.1546 645.5,-63.1546 442.5,-63.1546"/>
<text text-anchor="middle" x="544" y="-71.1546" font-family="Helvetica,sans-Serif" font-size="10.00">gaia::base::Vector&lt; gaia::ui::DialogBox * &gt;</text>
</a>
</g>
<!-- Node9&#45;&gt;Node2 -->
<g id="edge20" class="edge"><title>Node9&#45;&gt;Node2</title>
<path fill="none" stroke="#9a32cd" stroke-dasharray="5,2" d="M655.897,-79.5139C679.711,-80.9933 704.699,-82.7197 728,-84.6546 743.374,-85.9312 760.131,-87.6186 775.183,-89.2429"/>
<polygon fill="#9a32cd" stroke="#9a32cd" points="655.966,-76.0117 645.771,-78.8951 655.539,-82.9987 655.966,-76.0117"/>
<text text-anchor="middle" x="696" y="-88.6546" font-family="Helvetica,sans-Serif" font-size="10.00"> mDialogList</text>
</g>
<!-- Node10 -->
<g id="node20" class="node"><title>Node10</title>
<a xlink:href="../../d0/d21/classgaia_1_1base_1_1_vector_impl.html" target="_top" xlink:title="Implements vector data structure equipped with copy&#45;on&#45;write mechanism.">
<polygon fill="white" stroke="black" points="0.5,-64.1546 0.5,-85.1546 115.5,-85.1546 115.5,-64.1546 0.5,-64.1546"/>
<text text-anchor="middle" x="58" y="-72.1546" font-family="Helvetica,sans-Serif" font-size="10.00">gaia::base::VectorImpl</text>
</a>
</g>
<!-- Node10&#45;&gt;Node9 -->
<g id="edge22" class="edge"><title>Node10&#45;&gt;Node9</title>
<path fill="none" stroke="#8b1a1a" d="M125.792,-76.5286C128.564,-76.5767 131.309,-76.6192 134,-76.6546 262.878,-78.35 295.121,-78.2653 424,-76.6546 429.939,-76.5803 436.043,-76.4855 442.201,-76.3755"/>
<polygon fill="#8b1a1a" stroke="#8b1a1a" points="125.743,-73.027 115.677,-76.3317 125.607,-80.0257 125.743,-73.027"/>
</g>
<!-- Node11 -->
<g id="node22" class="node"><title>Node11</title>
<a xlink:href="../../df/d5d/classgaia_1_1base_1_1_vector.html" target="_top" xlink:title="This class implements the vector data structure.">
<polygon fill="white" stroke="black" points="154,-41.1546 154,-62.1546 294,-62.1546 294,-41.1546 154,-41.1546"/>
<text text-anchor="middle" x="224" y="-49.1546" font-family="Helvetica,sans-Serif" font-size="10.00">gaia::base::Vector&lt; TYPE &gt;</text>
</a>
</g>
<!-- Node10&#45;&gt;Node11 -->
<g id="edge26" class="edge"><title>Node10&#45;&gt;Node11</title>
<path fill="none" stroke="#8b1a1a" d="M125.596,-65.2889C134.933,-63.9952 144.54,-62.6642 153.921,-61.3644"/>
<polygon fill="#8b1a1a" stroke="#8b1a1a" points="125.018,-61.8354 115.593,-66.6748 125.979,-68.7692 125.018,-61.8354"/>
</g>
<!-- Node11&#45;&gt;Node9 -->
<g id="edge24" class="edge"><title>Node11&#45;&gt;Node9</title>
<path fill="none" stroke="orange" stroke-dasharray="5,2" d="M304.465,-56.0554C340.966,-58.1617 384.675,-60.8366 424,-63.6546 429.943,-64.0804 436.05,-64.5354 442.211,-65.0077"/>
<polygon fill="orange" stroke="orange" points="304.555,-52.5549 294.371,-55.4768 304.154,-59.5434 304.555,-52.5549"/>
<text text-anchor="middle" x="368" y="-67.6546" font-family="Helvetica,sans-Serif" font-size="10.00"> &lt; gaia::ui::DialogBox * &gt;</text>
</g>
<!-- Node12&#45;&gt;Node2 -->
<g id="edge28" class="edge"><title>Node12&#45;&gt;Node2</title>
<path fill="none" stroke="#9a32cd" stroke-dasharray="5,2" d="M993.668,-3.29496C969.644,0.685866 940.449,1.92323 916,-7.65457 876.247,-23.2275 843.249,-64.3785 829.234,-83.9807"/>
<polygon fill="#9a32cd" stroke="#9a32cd" points="993.148,-6.75806 1003.62,-5.14546 994.428,0.12395 993.148,-6.75806"/>
<text text-anchor="middle" x="939" y="-11.6546" font-family="Helvetica,sans-Serif" font-size="10.00"> mpPage</text>
</g>
</g>
</svg>
