<?xml version="1.0" encoding="UTF-8" standalone="no"?>
<!DOCTYPE svg PUBLIC "-//W3C//DTD SVG 1.1//EN"
 "http://www.w3.org/Graphics/SVG/1.1/DTD/svg11.dtd">
<!-- Generated by graphviz version 2.26.3 (20100126.1600)
 -->
<!-- Title: G Pages: 1 -->
<svg width="1172pt" height="670pt"
 viewBox="0.00 0.00 1172.00 670.00" xmlns="http://www.w3.org/2000/svg" xmlns:xlink="http://www.w3.org/1999/xlink">
<g id="graph1" class="graph" transform="scale(1 1) rotate(0) translate(4 666)">
<title>G</title>
<polygon fill="white" stroke="white" points="-4,5 -4,-666 1169,-666 1169,5 -4,5"/>
<!-- Node1 -->
<g id="node1" class="node"><title>Node1</title>
<polygon fill="#bfbfbf" stroke="black" points="346,-320.5 346,-341.5 484,-341.5 484,-320.5 346,-320.5"/>
<text text-anchor="middle" x="415" y="-328.5" font-family="Helvetica,sans-Serif" font-size="10.00">gaia::core::WidgetController</text>
</g>
<!-- Node5 -->
<g id="node9" class="node"><title>Node5</title>
<a xlink:href="../../d2/dc3/classgaia_1_1core_1_1_app_widget_host_widget.html" target="_top" xlink:title="Provides the glue to show AppWidget widgets.">
<polygon fill="white" stroke="black" points="520.5,-640.5 520.5,-661.5 685.5,-661.5 685.5,-640.5 520.5,-640.5"/>
<text text-anchor="middle" x="603" y="-648.5" font-family="Helvetica,sans-Serif" font-size="10.00">gaia::core::AppWidgetHostWidget</text>
</a>
</g>
<!-- Node1&#45;&gt;Node5 -->
<g id="edge8" class="edge"><title>Node1&#45;&gt;Node5</title>
<path fill="none" stroke="midnightblue" d="M415.788,-351.877C419.027,-406.492 435.563,-554.628 520,-631 524.177,-634.778 528.943,-637.875 534.031,-640.411"/>
<polygon fill="midnightblue" stroke="midnightblue" points="419.275,-351.515 415.28,-341.702 412.284,-351.865 419.275,-351.515"/>
</g>
<!-- Node6 -->
<g id="node11" class="node"><title>Node6</title>
<a xlink:href="../../db/d13/classgaia_1_1core_1_1_gesture_controller.html" target="_top" xlink:title="A transparent overlay for gesture input that can be placed on top of other widgets or contain other w...">
<polygon fill="white" stroke="black" points="532,-600.5 532,-621.5 674,-621.5 674,-600.5 532,-600.5"/>
<text text-anchor="middle" x="603" y="-608.5" font-family="Helvetica,sans-Serif" font-size="10.00">gaia::core::GestureController</text>
</a>
</g>
<!-- Node1&#45;&gt;Node6 -->
<g id="edge10" class="edge"><title>Node1&#45;&gt;Node6</title>
<path fill="none" stroke="midnightblue" d="M417.041,-351.73C423.054,-401.146 445.275,-526.548 520,-591 524.377,-594.776 529.347,-597.865 534.628,-600.39"/>
<polygon fill="midnightblue" stroke="midnightblue" points="420.502,-351.18 415.914,-341.63 413.545,-351.957 420.502,-351.18"/>
</g>
<!-- Node7 -->
<g id="node13" class="node"><title>Node7</title>
<a xlink:href="../../d9/d1a/classgaia_1_1ui_1_1_abs_list_widget.html" target="_top" xlink:title="This is an abstract class for List/Grid ui components.">
<polygon fill="white" stroke="black" points="544,-560.5 544,-581.5 662,-581.5 662,-560.5 544,-560.5"/>
<text text-anchor="middle" x="603" y="-568.5" font-family="Helvetica,sans-Serif" font-size="10.00">gaia::ui::AbsListWidget</text>
</a>
</g>
<!-- Node1&#45;&gt;Node7 -->
<g id="edge12" class="edge"><title>Node1&#45;&gt;Node7</title>
<path fill="none" stroke="midnightblue" d="M418.731,-351.782C427.747,-395.715 454.965,-498.303 520,-551 526.91,-556.599 535.14,-560.672 543.692,-563.627"/>
<polygon fill="midnightblue" stroke="midnightblue" points="422.118,-350.864 416.777,-341.713 415.246,-352.197 422.118,-350.864"/>
</g>
<!-- Node9 -->
<g id="node17" class="node"><title>Node9</title>
<a xlink:href="../../df/d55/classgaia_1_1ui_1_1_absolute_controller.html" target="_top" xlink:title="A layout that lets you specify exact locations (x/y coordinates) of its children.">
<polygon fill="white" stroke="black" points="536,-520.5 536,-541.5 670,-541.5 670,-520.5 536,-520.5"/>
<text text-anchor="middle" x="603" y="-528.5" font-family="Helvetica,sans-Serif" font-size="10.00">gaia::ui::AbsoluteController</text>
</a>
</g>
<!-- Node1&#45;&gt;Node9 -->
<g id="edge16" class="edge"><title>Node1&#45;&gt;Node9</title>
<path fill="none" stroke="midnightblue" d="M420.948,-351.326C433.057,-388.984 464.255,-469.531 520,-511 525.114,-514.804 530.851,-517.895 536.859,-520.404"/>
<polygon fill="midnightblue" stroke="midnightblue" points="424.211,-350.028 417.915,-341.507 417.522,-352.094 424.211,-350.028"/>
</g>
<!-- Node11 -->
<g id="node21" class="node"><title>Node11</title>
<a xlink:href="../../d1/d9e/classgaia_1_1ui_1_1_date_picker.html" target="_top" xlink:title="This class is a widget for selecting a date.">
<polygon fill="white" stroke="black" points="551.5,-480.5 551.5,-501.5 654.5,-501.5 654.5,-480.5 551.5,-480.5"/>
<text text-anchor="middle" x="603" y="-488.5" font-family="Helvetica,sans-Serif" font-size="10.00">gaia::ui::DatePicker</text>
</a>
</g>
<!-- Node1&#45;&gt;Node11 -->
<g id="edge20" class="edge"><title>Node1&#45;&gt;Node11</title>
<path fill="none" stroke="midnightblue" d="M424.343,-351.063C439.751,-381.853 473.479,-440.396 520,-471 529.287,-477.11 540.257,-481.356 551.125,-484.306"/>
<polygon fill="midnightblue" stroke="midnightblue" points="427.344,-349.233 419.828,-341.766 421.048,-352.29 427.344,-349.233"/>
</g>
<!-- Node12 -->
<g id="node23" class="node"><title>Node12</title>
<a xlink:href="../../d5/d48/classgaia_1_1ui_1_1_footer.html" target="_top" xlink:title="From your page, you can retrieve an instance of Footer by calling ActionBar.getFooter().">
<polygon fill="white" stroke="black" points="562,-440.5 562,-461.5 644,-461.5 644,-440.5 562,-440.5"/>
<text text-anchor="middle" x="603" y="-448.5" font-family="Helvetica,sans-Serif" font-size="10.00">gaia::ui::Footer</text>
</a>
</g>
<!-- Node1&#45;&gt;Node12 -->
<g id="edge22" class="edge"><title>Node1&#45;&gt;Node12</title>
<path fill="none" stroke="midnightblue" d="M429.207,-349.536C447.638,-372.257 481.97,-410.287 520,-431 532.756,-437.948 547.909,-442.507 561.755,-445.488"/>
<polygon fill="midnightblue" stroke="midnightblue" points="431.904,-347.304 422.946,-341.645 426.42,-351.654 431.904,-347.304"/>
</g>
<!-- Node13 -->
<g id="node25" class="node"><title>Node13</title>
<a xlink:href="../../d6/d8d/classgaia_1_1ui_1_1_frame_controller.html" target="_top" xlink:title="FrameController is designed to block out an area on the screen to display a single item...">
<polygon fill="white" stroke="black" points="541,-400.5 541,-421.5 665,-421.5 665,-400.5 541,-400.5"/>
<text text-anchor="middle" x="603" y="-408.5" font-family="Helvetica,sans-Serif" font-size="10.00">gaia::ui::FrameController</text>
</a>
</g>
<!-- Node1&#45;&gt;Node13 -->
<g id="edge24" class="edge"><title>Node1&#45;&gt;Node13</title>
<path fill="none" stroke="midnightblue" d="M438.754,-347.179C459.421,-360.607 490.591,-379.329 520,-391 529.368,-394.718 539.616,-397.872 549.615,-400.499"/>
<polygon fill="midnightblue" stroke="midnightblue" points="440.583,-344.193 430.309,-341.606 436.727,-350.035 440.583,-344.193"/>
</g>
<!-- Node17 -->
<g id="node33" class="node"><title>Node17</title>
<a xlink:href="../../d1/dfa/classgaia_1_1ui_1_1_gallery.html" target="_top" xlink:title="A class that shows items in a center&#45;locked, horizontally scrolling list.">
<polygon fill="white" stroke="black" points="560.5,-360.5 560.5,-381.5 645.5,-381.5 645.5,-360.5 560.5,-360.5"/>
<text text-anchor="middle" x="603" y="-368.5" font-family="Helvetica,sans-Serif" font-size="10.00">gaia::ui::Gallery</text>
</a>
</g>
<!-- Node1&#45;&gt;Node17 -->
<g id="edge32" class="edge"><title>Node1&#45;&gt;Node17</title>
<path fill="none" stroke="midnightblue" d="M474.433,-343.645C502.32,-349.579 534.922,-356.515 560.318,-361.919"/>
<polygon fill="midnightblue" stroke="midnightblue" points="474.904,-340.167 464.395,-341.51 473.447,-347.014 474.904,-340.167"/>
</g>
<!-- Node18 -->
<g id="node35" class="node"><title>Node18</title>
<a xlink:href="../../d1/d7c/classgaia_1_1ui_1_1_grid_controller.html" target="_top" xlink:title="A layout that places its children in a rectangular grid.">
<polygon fill="white" stroke="black" points="546,-320.5 546,-341.5 660,-341.5 660,-320.5 546,-320.5"/>
<text text-anchor="middle" x="603" y="-328.5" font-family="Helvetica,sans-Serif" font-size="10.00">gaia::ui::GridController</text>
</a>
</g>
<!-- Node1&#45;&gt;Node18 -->
<g id="edge34" class="edge"><title>Node1&#45;&gt;Node18</title>
<path fill="none" stroke="midnightblue" d="M494.316,-331C511.657,-331 529.682,-331 545.951,-331"/>
<polygon fill="midnightblue" stroke="midnightblue" points="494.203,-327.5 484.203,-331 494.203,-334.5 494.203,-327.5"/>
</g>
<!-- Node19 -->
<g id="node37" class="node"><title>Node19</title>
<a xlink:href="../../da/d1d/classgaia_1_1ui_1_1_linear_controller.html" target="_top" xlink:title="A Layout that arranges its children in a single column or a single row.">
<polygon fill="white" stroke="black" points="542,-280.5 542,-301.5 664,-301.5 664,-280.5 542,-280.5"/>
<text text-anchor="middle" x="603" y="-288.5" font-family="Helvetica,sans-Serif" font-size="10.00">gaia::ui::LinearController</text>
</a>
</g>
<!-- Node1&#45;&gt;Node19 -->
<g id="edge36" class="edge"><title>Node1&#45;&gt;Node19</title>
<path fill="none" stroke="midnightblue" d="M474.324,-318.378C499.836,-312.95 529.311,-306.679 553.609,-301.509"/>
<polygon fill="midnightblue" stroke="midnightblue" points="473.447,-314.986 464.395,-320.49 474.904,-321.833 473.447,-314.986"/>
</g>
<!-- Node23 -->
<g id="node45" class="node"><title>Node23</title>
<a xlink:href="../../da/d3a/classgaia_1_1ui_1_1_number_picker.html" target="_top" xlink:title="A widget that enables the user to select a number form a predefined range.">
<polygon fill="white" stroke="black" points="545,-240.5 545,-261.5 661,-261.5 661,-240.5 545,-240.5"/>
<text text-anchor="middle" x="603" y="-248.5" font-family="Helvetica,sans-Serif" font-size="10.00">gaia::ui::NumberPicker</text>
</a>
</g>
<!-- Node1&#45;&gt;Node23 -->
<g id="edge44" class="edge"><title>Node1&#45;&gt;Node23</title>
<path fill="none" stroke="midnightblue" d="M438.754,-314.821C459.421,-301.393 490.591,-282.671 520,-271 529.368,-267.282 539.616,-264.128 549.615,-261.501"/>
<polygon fill="midnightblue" stroke="midnightblue" points="436.727,-311.965 430.309,-320.394 440.583,-317.807 436.727,-311.965"/>
</g>
<!-- Node24 -->
<g id="node47" class="node"><title>Node24</title>
<a xlink:href="../../d7/d42/classgaia_1_1ui_1_1_pager_tab_strip.html" target="_top" xlink:title="PagerTabStrip is an interactive indicator of the current, next, and previous pages of a WidgetPager...">
<polygon fill="white" stroke="black" points="545,-200.5 545,-221.5 661,-221.5 661,-200.5 545,-200.5"/>
<text text-anchor="middle" x="603" y="-208.5" font-family="Helvetica,sans-Serif" font-size="10.00">gaia::ui::PagerTabStrip</text>
</a>
</g>
<!-- Node1&#45;&gt;Node24 -->
<g id="edge46" class="edge"><title>Node1&#45;&gt;Node24</title>
<path fill="none" stroke="midnightblue" d="M429.207,-312.464C447.638,-289.743 481.97,-251.713 520,-231 527.68,-226.817 536.228,-223.5 544.837,-220.872"/>
<polygon fill="midnightblue" stroke="midnightblue" points="426.42,-310.346 422.946,-320.355 431.904,-314.696 426.42,-310.346"/>
</g>
<!-- Node25 -->
<g id="node49" class="node"><title>Node25</title>
<a xlink:href="../../d8/d8a/classgaia_1_1ui_1_1_relative_controller.html" target="_top" xlink:title="A Layout where the positions of the children can be described in relation to each other or to the par...">
<polygon fill="white" stroke="black" points="537,-160.5 537,-181.5 669,-181.5 669,-160.5 537,-160.5"/>
<text text-anchor="middle" x="603" y="-168.5" font-family="Helvetica,sans-Serif" font-size="10.00">gaia::ui::RelativeController</text>
</a>
</g>
<!-- Node1&#45;&gt;Node25 -->
<g id="edge48" class="edge"><title>Node1&#45;&gt;Node25</title>
<path fill="none" stroke="midnightblue" d="M424.343,-310.937C439.751,-280.147 473.479,-221.604 520,-191 525.82,-187.171 532.301,-184.074 539.003,-181.569"/>
<polygon fill="midnightblue" stroke="midnightblue" points="421.048,-309.71 419.828,-320.234 427.344,-312.767 421.048,-309.71"/>
</g>
<!-- Node27 -->
<g id="node53" class="node"><title>Node27</title>
<a xlink:href="../../da/d88/classgaia_1_1ui_1_1_scroll_widget.html" target="_top" xlink:title="Layout container for a view hierarchy that can be scrolled by the user, allowing it to be larger than...">
<polygon fill="white" stroke="black" points="548,-120.5 548,-141.5 658,-141.5 658,-120.5 548,-120.5"/>
<text text-anchor="middle" x="603" y="-128.5" font-family="Helvetica,sans-Serif" font-size="10.00">gaia::ui::ScrollWidget</text>
</a>
</g>
<!-- Node1&#45;&gt;Node27 -->
<g id="edge52" class="edge"><title>Node1&#45;&gt;Node27</title>
<path fill="none" stroke="midnightblue" d="M420.948,-310.674C433.057,-273.016 464.255,-192.469 520,-151 528.206,-144.896 538.018,-140.629 547.974,-137.653"/>
<polygon fill="midnightblue" stroke="midnightblue" points="417.522,-309.906 417.915,-320.493 424.211,-311.972 417.522,-309.906"/>
</g>
<!-- Node28 -->
<g id="node55" class="node"><title>Node28</title>
<a xlink:href="../../d3/d8a/classgaia_1_1ui_1_1_tab_page_controller.html" target="_top" xlink:title="A layout that associates with fragments.">
<polygon fill="white" stroke="black" points="535.5,-80.5 535.5,-101.5 670.5,-101.5 670.5,-80.5 535.5,-80.5"/>
<text text-anchor="middle" x="603" y="-88.5" font-family="Helvetica,sans-Serif" font-size="10.00">gaia::ui::TabPageController</text>
</a>
</g>
<!-- Node1&#45;&gt;Node28 -->
<g id="edge54" class="edge"><title>Node1&#45;&gt;Node28</title>
<path fill="none" stroke="midnightblue" d="M418.731,-310.218C427.747,-266.285 454.965,-163.697 520,-111 524.722,-107.174 530.06,-104.061 535.696,-101.53"/>
<polygon fill="midnightblue" stroke="midnightblue" points="415.246,-309.803 416.777,-320.287 422.118,-311.136 415.246,-309.803"/>
</g>
<!-- Node29 -->
<g id="node57" class="node"><title>Node29</title>
<a xlink:href="../../db/d31/classgaia_1_1ui_1_1_time_picker.html" target="_top" xlink:title="A view for selecting the time of day, in either 24 hour or AM/PM mode.">
<polygon fill="white" stroke="black" points="551,-40.5 551,-61.5 655,-61.5 655,-40.5 551,-40.5"/>
<text text-anchor="middle" x="603" y="-48.5" font-family="Helvetica,sans-Serif" font-size="10.00">gaia::ui::TimePicker</text>
</a>
</g>
<!-- Node1&#45;&gt;Node29 -->
<g id="edge56" class="edge"><title>Node1&#45;&gt;Node29</title>
<path fill="none" stroke="midnightblue" d="M417.041,-310.27C423.054,-260.854 445.275,-135.452 520,-71 528.642,-63.5457 539.595,-58.7663 550.686,-55.727"/>
<polygon fill="midnightblue" stroke="midnightblue" points="413.545,-310.043 415.914,-320.37 420.502,-310.82 413.545,-310.043"/>
</g>
<!-- Node30 -->
<g id="node59" class="node"><title>Node30</title>
<a xlink:href="../../d5/d3c/classgaia_1_1ui_1_1_widget_pager.html" target="_top" xlink:title="WidgetPager that allows the user to flip left and right through pages of data.">
<polygon fill="white" stroke="black" points="548,-0.5 548,-21.5 658,-21.5 658,-0.5 548,-0.5"/>
<text text-anchor="middle" x="603" y="-8.5" font-family="Helvetica,sans-Serif" font-size="10.00">gaia::ui::WidgetPager</text>
</a>
</g>
<!-- Node1&#45;&gt;Node30 -->
<g id="edge58" class="edge"><title>Node1&#45;&gt;Node30</title>
<path fill="none" stroke="midnightblue" d="M415.788,-310.123C419.027,-255.508 435.563,-107.372 520,-31 527.805,-23.9407 537.665,-19.2587 547.839,-16.1783"/>
<polygon fill="midnightblue" stroke="midnightblue" points="412.284,-310.135 415.28,-320.298 419.275,-310.485 412.284,-310.135"/>
</g>
<!-- Node2 -->
<g id="node2" class="node"><title>Node2</title>
<a xlink:href="../../d8/dac/classgaia_1_1core_1_1_widget.html" target="_top" xlink:title="The Widget class is the base class of all user interface component.">
<polygon fill="white" stroke="black" points="201,-340.5 201,-361.5 297,-361.5 297,-340.5 201,-340.5"/>
<text text-anchor="middle" x="249" y="-348.5" font-family="Helvetica,sans-Serif" font-size="10.00">gaia::core::Widget</text>
</a>
</g>
<!-- Node2&#45;&gt;Node1 -->
<g id="edge2" class="edge"><title>Node2&#45;&gt;Node1</title>
<path fill="none" stroke="midnightblue" d="M307.254,-343.982C319.706,-342.481 332.975,-340.882 345.794,-339.338"/>
<polygon fill="midnightblue" stroke="midnightblue" points="306.524,-340.544 297.014,-345.215 307.361,-347.494 306.524,-340.544"/>
</g>
<!-- Node3 -->
<g id="node4" class="node"><title>Node3</title>
<a xlink:href="../../d0/db2/classgaia_1_1core_1_1_property_animatable.html" target="_top" xlink:title="Any animation object need to implement PropertyAnimatable because of setting value.">
<polygon fill="white" stroke="black" points="0.5,-340.5 0.5,-361.5 151.5,-361.5 151.5,-340.5 0.5,-340.5"/>
<text text-anchor="middle" x="76" y="-348.5" font-family="Helvetica,sans-Serif" font-size="10.00">gaia::core::PropertyAnimatable</text>
</a>
</g>
<!-- Node3&#45;&gt;Node2 -->
<g id="edge4" class="edge"><title>Node3&#45;&gt;Node2</title>
<path fill="none" stroke="midnightblue" d="M161.87,-351C175.296,-351 188.742,-351 200.914,-351"/>
<polygon fill="midnightblue" stroke="midnightblue" points="161.629,-347.5 151.629,-351 161.629,-354.5 161.629,-347.5"/>
</g>
<!-- Node4 -->
<g id="node6" class="node"><title>Node4</title>
<a xlink:href="../../dd/de0/classgaia_1_1core_1_1_event_control.html" target="_top" xlink:title="EventControl is used to dispatch event and register listener.">
<polygon fill="white" stroke="black" points="188,-300.5 188,-321.5 310,-321.5 310,-300.5 188,-300.5"/>
<text text-anchor="middle" x="249" y="-308.5" font-family="Helvetica,sans-Serif" font-size="10.00">gaia::core::EventControl</text>
</a>
</g>
<!-- Node4&#45;&gt;Node1 -->
<g id="edge6" class="edge"><title>Node4&#45;&gt;Node1</title>
<path fill="none" stroke="midnightblue" d="M320.479,-319.612C328.875,-320.624 337.432,-321.654 345.797,-322.662"/>
<polygon fill="midnightblue" stroke="midnightblue" points="320.688,-316.112 310.341,-318.39 319.85,-323.062 320.688,-316.112"/>
</g>
<!-- Node8 -->
<g id="node15" class="node"><title>Node8</title>
<a xlink:href="../../d7/df3/classgaia_1_1ui_1_1_grid_widget.html" target="_top" xlink:title="It has implements the drawing of a special list item separator for Rosie style list view...">
<polygon fill="white" stroke="black" points="811.5,-560.5 811.5,-581.5 914.5,-581.5 914.5,-560.5 811.5,-560.5"/>
<text text-anchor="middle" x="863" y="-568.5" font-family="Helvetica,sans-Serif" font-size="10.00">gaia::ui::GridWidget</text>
</a>
</g>
<!-- Node7&#45;&gt;Node8 -->
<g id="edge14" class="edge"><title>Node7&#45;&gt;Node8</title>
<path fill="none" stroke="midnightblue" d="M672.588,-571C716.265,-571 771.642,-571 811.402,-571"/>
<polygon fill="midnightblue" stroke="midnightblue" points="672.323,-567.5 662.323,-571 672.323,-574.5 672.323,-567.5"/>
</g>
<!-- Node10 -->
<g id="node19" class="node"><title>Node10</title>
<a xlink:href="../../d7/d73/classgaia_1_1webkit_1_1_web_view.html" target="_top" xlink:title="gaia::webkit::WebView">
<polygon fill="white" stroke="black" points="804.5,-520.5 804.5,-541.5 921.5,-541.5 921.5,-520.5 804.5,-520.5"/>
<text text-anchor="middle" x="863" y="-528.5" font-family="Helvetica,sans-Serif" font-size="10.00">gaia::webkit::WebView</text>
</a>
</g>
<!-- Node9&#45;&gt;Node10 -->
<g id="edge18" class="edge"><title>Node9&#45;&gt;Node10</title>
<path fill="none" stroke="midnightblue" d="M680.475,-531C720.188,-531 767.764,-531 804.385,-531"/>
<polygon fill="midnightblue" stroke="midnightblue" points="680.295,-527.5 670.295,-531 680.295,-534.5 680.295,-527.5"/>
</g>
<!-- Node14 -->
<g id="node27" class="node"><title>Node14</title>
<a xlink:href="../../df/d4c/classgaia_1_1ui_1_1_media_control.html" target="_top" xlink:title="A view containing controls for a MediaPlayer.">
<polygon fill="white" stroke="black" points="807,-420.5 807,-441.5 919,-441.5 919,-420.5 807,-420.5"/>
<text text-anchor="middle" x="863" y="-428.5" font-family="Helvetica,sans-Serif" font-size="10.00">gaia::ui::MediaControl</text>
</a>
</g>
<!-- Node13&#45;&gt;Node14 -->
<g id="edge26" class="edge"><title>Node13&#45;&gt;Node14</title>
<path fill="none" stroke="midnightblue" d="M675.356,-416.566C716.974,-419.767 768.475,-423.729 806.988,-426.691"/>
<polygon fill="midnightblue" stroke="midnightblue" points="675.515,-413.068 665.276,-415.79 674.979,-420.047 675.515,-413.068"/>
</g>
<!-- Node15 -->
<g id="node29" class="node"><title>Node15</title>
<a xlink:href="../../d4/d9a/classgaia_1_1ui_1_1_widget_animator.html" target="_top" xlink:title="Base class for a FrameController container that will perform animations when switching between its vi...">
<polygon fill="white" stroke="black" points="801,-380.5 801,-401.5 925,-401.5 925,-380.5 801,-380.5"/>
<text text-anchor="middle" x="863" y="-388.5" font-family="Helvetica,sans-Serif" font-size="10.00">gaia::ui::WidgetAnimator</text>
</a>
</g>
<!-- Node13&#45;&gt;Node15 -->
<g id="edge28" class="edge"><title>Node13&#45;&gt;Node15</title>
<path fill="none" stroke="midnightblue" d="M675.356,-405.434C714.776,-402.402 763.063,-398.687 800.782,-395.786"/>
<polygon fill="midnightblue" stroke="midnightblue" points="674.979,-401.953 665.276,-406.21 675.515,-408.932 674.979,-401.953"/>
</g>
<!-- Node16 -->
<g id="node31" class="node"><title>Node16</title>
<a xlink:href="../../d8/d67/classgaia_1_1ui_1_1_widget_switcher.html" target="_top" xlink:title="WidgetSwitcher that switches between two views, and has a factory from which these widgets are create...">
<polygon fill="white" stroke="black" points="1040.5,-380.5 1040.5,-401.5 1163.5,-401.5 1163.5,-380.5 1040.5,-380.5"/>
<text text-anchor="middle" x="1102" y="-388.5" font-family="Helvetica,sans-Serif" font-size="10.00">gaia::ui::WidgetSwitcher</text>
</a>
</g>
<!-- Node15&#45;&gt;Node16 -->
<g id="edge30" class="edge"><title>Node15&#45;&gt;Node16</title>
<path fill="none" stroke="midnightblue" d="M935.346,-391C968.789,-391 1008.1,-391 1040.14,-391"/>
<polygon fill="midnightblue" stroke="midnightblue" points="935.171,-387.5 925.171,-391 935.17,-394.5 935.171,-387.5"/>
</g>
<!-- Node20 -->
<g id="node39" class="node"><title>Node20</title>
<a xlink:href="../../de/d48/classgaia_1_1ui_1_1_action_drop_down_widget.html" target="_top" xlink:title="The ActionDropDownWidget includes a title, a subtitle, an arrow and contents.">
<polygon fill="white" stroke="black" points="783.5,-320.5 783.5,-341.5 942.5,-341.5 942.5,-320.5 783.5,-320.5"/>
<text text-anchor="middle" x="863" y="-328.5" font-family="Helvetica,sans-Serif" font-size="10.00">gaia::ui::ActionDropDownWidget</text>
</a>
</g>
<!-- Node19&#45;&gt;Node20 -->
<g id="edge38" class="edge"><title>Node19&#45;&gt;Node20</title>
<path fill="none" stroke="midnightblue" d="M674.021,-303.242C689.804,-305.878 706.461,-308.593 722,-311 742.768,-314.218 765.289,-317.503 786.11,-320.457"/>
<polygon fill="midnightblue" stroke="midnightblue" points="674.237,-299.73 663.796,-301.526 673.078,-306.633 674.237,-299.73"/>
</g>
<!-- Node21 -->
<g id="node41" class="node"><title>Node21</title>
<a xlink:href="../../d1/d6d/classgaia_1_1ui_1_1_list_item.html" target="_top" xlink:title="gaia::ui::ListItem\&lt; Panel1, Panel2, Panel3, Panel4, Panel5 \&gt;">
<polygon fill="white" stroke="black" points="722.5,-280.5 722.5,-301.5 1003.5,-301.5 1003.5,-280.5 722.5,-280.5"/>
<text text-anchor="middle" x="863" y="-288.5" font-family="Helvetica,sans-Serif" font-size="10.00">gaia::ui::ListItem&lt; Panel1, Panel2, Panel3, Panel4, Panel5 &gt;</text>
</a>
</g>
<!-- Node19&#45;&gt;Node21 -->
<g id="edge40" class="edge"><title>Node19&#45;&gt;Node21</title>
<path fill="none" stroke="midnightblue" d="M674.446,-291C689.443,-291 705.755,-291 722.299,-291"/>
<polygon fill="midnightblue" stroke="midnightblue" points="674.287,-287.5 664.287,-291 674.287,-294.5 674.287,-287.5"/>
</g>
<!-- Node22 -->
<g id="node43" class="node"><title>Node22</title>
<a xlink:href="../../d1/d87/classgaia_1_1ui_1_1_radio_group.html" target="_top" xlink:title="This class is used to create a multiple&#45;exclusion scope for a set of radio buttons.">
<polygon fill="white" stroke="black" points="810,-240.5 810,-261.5 916,-261.5 916,-240.5 810,-240.5"/>
<text text-anchor="middle" x="863" y="-248.5" font-family="Helvetica,sans-Serif" font-size="10.00">gaia::ui::RadioGroup</text>
</a>
</g>
<!-- Node19&#45;&gt;Node22 -->
<g id="edge42" class="edge"><title>Node19&#45;&gt;Node22</title>
<path fill="none" stroke="midnightblue" d="M674.021,-278.758C689.804,-276.122 706.461,-273.407 722,-271 750.953,-266.514 783.313,-261.896 809.723,-258.229"/>
<polygon fill="midnightblue" stroke="midnightblue" points="673.078,-275.367 663.796,-280.474 674.237,-282.27 673.078,-275.367"/>
</g>
<!-- Node26 -->
<g id="node51" class="node"><title>Node26</title>
<a xlink:href="../../d5/d21/classgaia_1_1ui_1_1_search_edit_widget.html" target="_top" xlink:title="A special EditWidget&#45;like widget with a clear button on its right side.">
<polygon fill="white" stroke="black" points="796.5,-160.5 796.5,-181.5 929.5,-181.5 929.5,-160.5 796.5,-160.5"/>
<text text-anchor="middle" x="863" y="-168.5" font-family="Helvetica,sans-Serif" font-size="10.00">gaia::ui::SearchEditWidget</text>
</a>
</g>
<!-- Node25&#45;&gt;Node26 -->
<g id="edge50" class="edge"><title>Node25&#45;&gt;Node26</title>
<path fill="none" stroke="midnightblue" d="M679.54,-171C716.616,-171 760.717,-171 796.388,-171"/>
<polygon fill="midnightblue" stroke="midnightblue" points="679.282,-167.5 669.282,-171 679.282,-174.5 679.282,-167.5"/>
</g>
</g>
</svg>
