<?xml version="1.0" encoding="UTF-8" standalone="no"?>
<!DOCTYPE svg PUBLIC "-//W3C//DTD SVG 1.1//EN"
 "http://www.w3.org/Graphics/SVG/1.1/DTD/svg11.dtd">
<!-- Generated by graphviz version 2.26.3 (20100126.1600)
 -->
<!-- Title: G Pages: 1 -->
<svg width="1309pt" height="204pt"
 viewBox="0.00 0.00 1309.00 204.00" xmlns="http://www.w3.org/2000/svg" xmlns:xlink="http://www.w3.org/1999/xlink">
<g id="graph1" class="graph" transform="scale(1 1) rotate(0) translate(4 200)">
<title>G</title>
<polygon fill="white" stroke="white" points="-4,5 -4,-200 1306,-200 1306,5 -4,5"/>
<!-- Node1 -->
<g id="node1" class="node"><title>Node1</title>
<polygon fill="#bfbfbf" stroke="black" points="493.5,-174.5 493.5,-195.5 772.5,-195.5 772.5,-174.5 493.5,-174.5"/>
<text text-anchor="middle" x="633" y="-182.5" font-family="Helvetica,sans-Serif" font-size="10.00">/home/vilon_tao/gaia/sdk/include/gaia/testing/MoreAsserts.h</text>
</g>
<!-- Node2 -->
<g id="node3" class="node"><title>Node2</title>
<a xlink:href="../../d1/dba/_gaia_test_case_8h.html" target="_top" xlink:title="/home/vilon_tao/gaia/sdk/include/gaia/testing/GaiaTestCase.h">
<polygon fill="white" stroke="black" points="325.5,-116.5 325.5,-137.5 612.5,-137.5 612.5,-116.5 325.5,-116.5"/>
<text text-anchor="middle" x="469" y="-124.5" font-family="Helvetica,sans-Serif" font-size="10.00">/home/vilon_tao/gaia/sdk/include/gaia/testing/GaiaTestCase.h</text>
</a>
</g>
<!-- Node1&#45;&gt;Node2 -->
<g id="edge2" class="edge"><title>Node1&#45;&gt;Node2</title>
<path fill="none" stroke="midnightblue" d="M593.822,-171.144C564.637,-160.823 525.393,-146.944 498.755,-137.523"/>
<polygon fill="midnightblue" stroke="midnightblue" points="592.706,-174.462 603.301,-174.497 595.04,-167.863 592.706,-174.462"/>
</g>
<!-- Node5 -->
<g id="node9" class="node"><title>Node5</title>
<a xlink:href="../../d0/d54/_instrumentation_test_case_8h.html" target="_top" xlink:title="/home/vilon_tao/gaia/sdk/include/gaia/testing/InstrumentationTestCase.h">
<polygon fill="white" stroke="black" points="630,-116.5 630,-137.5 964,-137.5 964,-116.5 630,-116.5"/>
<text text-anchor="middle" x="797" y="-124.5" font-family="Helvetica,sans-Serif" font-size="10.00">/home/vilon_tao/gaia/sdk/include/gaia/testing/InstrumentationTestCase.h</text>
</a>
</g>
<!-- Node1&#45;&gt;Node5 -->
<g id="edge8" class="edge"><title>Node1&#45;&gt;Node5</title>
<path fill="none" stroke="midnightblue" d="M672.178,-171.144C701.363,-160.823 740.607,-146.944 767.245,-137.523"/>
<polygon fill="midnightblue" stroke="midnightblue" points="670.96,-167.863 662.699,-174.497 673.294,-174.462 670.96,-167.863"/>
</g>
<!-- Node3 -->
<g id="node5" class="node"><title>Node3</title>
<a xlink:href="../../d7/d9b/_delegate_test_case_8h.html" target="_top" xlink:title="/home/vilon_tao/gaia/sdk/include/gaia/testing/DelegateTestCase.h">
<polygon fill="white" stroke="black" points="-0.5,-58.5 -0.5,-79.5 304.5,-79.5 304.5,-58.5 -0.5,-58.5"/>
<text text-anchor="middle" x="152" y="-66.5" font-family="Helvetica,sans-Serif" font-size="10.00">/home/vilon_tao/gaia/sdk/include/gaia/testing/DelegateTestCase.h</text>
</a>
</g>
<!-- Node2&#45;&gt;Node3 -->
<g id="edge4" class="edge"><title>Node2&#45;&gt;Node3</title>
<path fill="none" stroke="midnightblue" d="M401.582,-114.665C344.506,-104.222 263.578,-89.415 209.514,-79.5231"/>
<polygon fill="midnightblue" stroke="midnightblue" points="401.127,-118.14 411.594,-116.497 402.387,-111.254 401.127,-118.14"/>
</g>
<!-- Node4 -->
<g id="node7" class="node"><title>Node4</title>
<a xlink:href="../../d6/d29/_provider_test_case_8h.html" target="_top" xlink:title="/home/vilon_tao/gaia/sdk/include/gaia/testing/ProviderTestCase.h">
<polygon fill="white" stroke="black" points="322,-58.5 322,-79.5 624,-79.5 624,-58.5 322,-58.5"/>
<text text-anchor="middle" x="473" y="-66.5" font-family="Helvetica,sans-Serif" font-size="10.00">/home/vilon_tao/gaia/sdk/include/gaia/testing/ProviderTestCase.h</text>
</a>
</g>
<!-- Node2&#45;&gt;Node4 -->
<g id="edge6" class="edge"><title>Node2&#45;&gt;Node4</title>
<path fill="none" stroke="midnightblue" d="M470.435,-106.191C471.057,-97.1684 471.759,-86.9941 472.271,-79.5707"/>
<polygon fill="midnightblue" stroke="midnightblue" points="466.93,-106.145 469.734,-116.362 473.913,-106.626 466.93,-106.145"/>
</g>
<!-- Node6 -->
<g id="node11" class="node"><title>Node6</title>
<a xlink:href="../../d5/db9/_page_test_case_8h.html" target="_top" xlink:title="/home/vilon_tao/gaia/sdk/include/gaia/testing/PageTestCase.h">
<polygon fill="white" stroke="black" points="648.5,-58.5 648.5,-79.5 937.5,-79.5 937.5,-58.5 648.5,-58.5"/>
<text text-anchor="middle" x="793" y="-66.5" font-family="Helvetica,sans-Serif" font-size="10.00">/home/vilon_tao/gaia/sdk/include/gaia/testing/PageTestCase.h</text>
</a>
</g>
<!-- Node5&#45;&gt;Node6 -->
<g id="edge10" class="edge"><title>Node5&#45;&gt;Node6</title>
<path fill="none" stroke="midnightblue" d="M795.565,-106.191C794.943,-97.1684 794.241,-86.9941 793.729,-79.5707"/>
<polygon fill="midnightblue" stroke="midnightblue" points="792.087,-106.626 796.266,-116.362 799.07,-106.145 792.087,-106.626"/>
</g>
<!-- Node9 -->
<g id="node17" class="node"><title>Node9</title>
<a xlink:href="../../d2/dc6/_single_launch_page_test_case_8h.html" target="_top" xlink:title="/home/vilon_tao/gaia/sdk/include/gaia/testing/SingleLaunchPageTestCase.h">
<polygon fill="white" stroke="black" points="954.5,-58.5 954.5,-79.5 1301.5,-79.5 1301.5,-58.5 954.5,-58.5"/>
<text text-anchor="middle" x="1128" y="-66.5" font-family="Helvetica,sans-Serif" font-size="10.00">/home/vilon_tao/gaia/sdk/include/gaia/testing/SingleLaunchPageTestCase.h</text>
</a>
</g>
<!-- Node5&#45;&gt;Node9 -->
<g id="edge16" class="edge"><title>Node5&#45;&gt;Node9</title>
<path fill="none" stroke="midnightblue" d="M867.026,-114.73C926.642,-104.283 1011.38,-89.4354 1067.95,-79.5231"/>
<polygon fill="midnightblue" stroke="midnightblue" points="866.187,-111.323 856.942,-116.497 867.396,-118.218 866.187,-111.323"/>
</g>
<!-- Node7 -->
<g id="node13" class="node"><title>Node7</title>
<a xlink:href="../../d2/d74/_page_instrumentation_test_case_8h.html" target="_top" xlink:title="/home/vilon_tao/gaia/sdk/include/gaia/testing/PageInstrumentationTestCase.h">
<polygon fill="white" stroke="black" points="440,-0.5 440,-21.5 796,-21.5 796,-0.5 440,-0.5"/>
<text text-anchor="middle" x="618" y="-8.5" font-family="Helvetica,sans-Serif" font-size="10.00">/home/vilon_tao/gaia/sdk/include/gaia/testing/PageInstrumentationTestCase.h</text>
</a>
</g>
<!-- Node6&#45;&gt;Node7 -->
<g id="edge12" class="edge"><title>Node6&#45;&gt;Node7</title>
<path fill="none" stroke="midnightblue" d="M751.6,-55.2787C720.416,-44.9437 678.299,-30.9849 649.751,-21.5231"/>
<polygon fill="midnightblue" stroke="midnightblue" points="750.715,-58.6729 761.309,-58.4966 752.918,-52.0283 750.715,-58.6729"/>
</g>
<!-- Node8 -->
<g id="node15" class="node"><title>Node8</title>
<a xlink:href="../../db/deb/_page_unit_test_case_8h.html" target="_top" xlink:title="/home/vilon_tao/gaia/sdk/include/gaia/testing/PageUnitTestCase.h">
<polygon fill="white" stroke="black" points="813.5,-0.5 813.5,-21.5 1120.5,-21.5 1120.5,-0.5 813.5,-0.5"/>
<text text-anchor="middle" x="967" y="-8.5" font-family="Helvetica,sans-Serif" font-size="10.00">/home/vilon_tao/gaia/sdk/include/gaia/testing/PageUnitTestCase.h</text>
</a>
</g>
<!-- Node6&#45;&gt;Node8 -->
<g id="edge14" class="edge"><title>Node6&#45;&gt;Node8</title>
<path fill="none" stroke="midnightblue" d="M834.164,-55.2787C865.169,-44.9437 907.045,-30.9849 935.431,-21.5231"/>
<polygon fill="midnightblue" stroke="midnightblue" points="832.89,-52.0139 824.51,-58.4966 835.104,-58.6547 832.89,-52.0139"/>
</g>
</g>
</svg>
