<?xml version="1.0" encoding="UTF-8" standalone="no"?>
<!DOCTYPE svg PUBLIC "-//W3C//DTD SVG 1.1//EN"
 "http://www.w3.org/Graphics/SVG/1.1/DTD/svg11.dtd">
<!-- Generated by graphviz version 2.26.3 (20100126.1600)
 -->
<!-- Title: G Pages: 1 -->
<svg width="642pt" height="88pt"
 viewBox="0.00 0.00 642.00 88.00" xmlns="http://www.w3.org/2000/svg" xmlns:xlink="http://www.w3.org/1999/xlink">
<g id="graph1" class="graph" transform="scale(1 1) rotate(0) translate(4 84)">
<title>G</title>
<polygon fill="white" stroke="white" points="-4,5 -4,-84 639,-84 639,5 -4,5"/>
<!-- Node1 -->
<g id="node1" class="node"><title>Node1</title>
<polygon fill="#bfbfbf" stroke="black" points="176,-58.5 176,-79.5 440,-79.5 440,-58.5 176,-58.5"/>
<text text-anchor="middle" x="308" y="-66.5" font-family="Helvetica,sans-Serif" font-size="10.00">/home/vilon_tao/gaia/sdk/include/gaia/telephony/Phone.h</text>
</g>
<!-- Node2 -->
<g id="node3" class="node"><title>Node2</title>
<a xlink:href="../../d0/dbc/_call_manager_8h.html" target="_top" xlink:title="/home/vilon_tao/gaia/sdk/include/gaia/telephony/CallManager.h">
<polygon fill="white" stroke="black" points="-0.5,-0.5 -0.5,-21.5 290.5,-21.5 290.5,-0.5 -0.5,-0.5"/>
<text text-anchor="middle" x="145" y="-8.5" font-family="Helvetica,sans-Serif" font-size="10.00">/home/vilon_tao/gaia/sdk/include/gaia/telephony/CallManager.h</text>
</a>
</g>
<!-- Node1&#45;&gt;Node2 -->
<g id="edge2" class="edge"><title>Node1&#45;&gt;Node2</title>
<path fill="none" stroke="midnightblue" d="M268.682,-55.0095C239.715,-44.7023 200.934,-30.903 174.573,-21.5231"/>
<polygon fill="midnightblue" stroke="midnightblue" points="267.887,-58.4417 278.482,-58.4966 270.234,-51.8467 267.887,-58.4417"/>
</g>
<!-- Node3 -->
<g id="node5" class="node"><title>Node3</title>
<a xlink:href="../../dd/d5a/_default_phone_notifier_8h.html" target="_top" xlink:title="/home/vilon_tao/gaia/sdk/include/gaia/telephony/DefaultPhoneNotifier.h">
<polygon fill="white" stroke="black" points="307.5,-0.5 307.5,-21.5 634.5,-21.5 634.5,-0.5 307.5,-0.5"/>
<text text-anchor="middle" x="471" y="-8.5" font-family="Helvetica,sans-Serif" font-size="10.00">/home/vilon_tao/gaia/sdk/include/gaia/telephony/DefaultPhoneNotifier.h</text>
</a>
</g>
<!-- Node1&#45;&gt;Node3 -->
<g id="edge4" class="edge"><title>Node1&#45;&gt;Node3</title>
<path fill="none" stroke="midnightblue" d="M347.318,-55.0095C376.285,-44.7023 415.066,-30.903 441.427,-21.5231"/>
<polygon fill="midnightblue" stroke="midnightblue" points="345.766,-51.8467 337.518,-58.4966 348.113,-58.4417 345.766,-51.8467"/>
</g>
</g>
</svg>
