<?xml version="1.0" encoding="UTF-8" standalone="no"?>
<!DOCTYPE svg PUBLIC "-//W3C//DTD SVG 1.1//EN"
 "http://www.w3.org/Graphics/SVG/1.1/DTD/svg11.dtd">
<!-- Generated by graphviz version 2.26.3 (20100126.1600)
 -->
<!-- Title: G Pages: 1 -->
<svg width="352pt" height="204pt"
 viewBox="0.00 0.00 352.00 204.00" xmlns="http://www.w3.org/2000/svg" xmlns:xlink="http://www.w3.org/1999/xlink">
<g id="graph1" class="graph" transform="scale(1 1) rotate(0) translate(4 200)">
<title>G</title>
<polygon fill="white" stroke="white" points="-4,5 -4,-200 349,-200 349,5 -4,5"/>
<!-- Node1 -->
<g id="node1" class="node"><title>Node1</title>
<polygon fill="#bfbfbf" stroke="black" points="0,-174.5 0,-195.5 344,-195.5 344,-174.5 0,-174.5"/>
<text text-anchor="middle" x="172" y="-182.5" font-family="Helvetica,sans-Serif" font-size="10.00">/home/vilon_tao/gaia/sdk/include/gaia/ui/preference/CheckBoxPreference.h</text>
</g>
<!-- Node2 -->
<g id="node3" class="node"><title>Node2</title>
<a xlink:href="../../d2/d81/_two_state_preference_8h.html" target="_top" xlink:title="gaia/ui/preference/TwoStatePreference.h">
<polygon fill="white" stroke="black" points="13,-116.5 13,-137.5 207,-137.5 207,-116.5 13,-116.5"/>
<text text-anchor="middle" x="110" y="-124.5" font-family="Helvetica,sans-Serif" font-size="10.00">gaia/ui/preference/TwoStatePreference.h</text>
</a>
</g>
<!-- Node1&#45;&gt;Node2 -->
<g id="edge2" class="edge"><title>Node1&#45;&gt;Node2</title>
<path fill="none" stroke="midnightblue" d="M160.628,-174.362C151.714,-166.023 139.121,-154.242 128.724,-144.516"/>
<polygon fill="midnightblue" stroke="midnightblue" points="130.993,-141.846 121.3,-137.571 126.211,-146.958 130.993,-141.846"/>
</g>
<!-- Node5 -->
<g id="node9" class="node"><title>Node5</title>
<a xlink:href="../../d1/dd0/gmacros_8h.html" target="_top" xlink:title="gaia/base/gmacros.h">
<polygon fill="white" stroke="black" points="143.5,-0.5 143.5,-21.5 250.5,-21.5 250.5,-0.5 143.5,-0.5"/>
<text text-anchor="middle" x="197" y="-8.5" font-family="Helvetica,sans-Serif" font-size="10.00">gaia/base/gmacros.h</text>
</a>
</g>
<!-- Node1&#45;&gt;Node5 -->
<g id="edge12" class="edge"><title>Node1&#45;&gt;Node5</title>
<path fill="none" stroke="midnightblue" d="M186.501,-174.479C196.904,-165.97 210.086,-152.97 216,-138 230.182,-102.099 216.489,-56.6656 206.139,-31.0169"/>
<polygon fill="midnightblue" stroke="midnightblue" points="209.274,-29.4457 202.134,-21.6188 202.835,-32.1905 209.274,-29.4457"/>
</g>
<!-- Node3 -->
<g id="node5" class="node"><title>Node3</title>
<a xlink:href="../../d4/dd7/_preference_8h.html" target="_top" xlink:title="gaia/ui/preference/Preference.h">
<polygon fill="white" stroke="black" points="17,-58.5 17,-79.5 169,-79.5 169,-58.5 17,-58.5"/>
<text text-anchor="middle" x="93" y="-66.5" font-family="Helvetica,sans-Serif" font-size="10.00">gaia/ui/preference/Preference.h</text>
</a>
</g>
<!-- Node2&#45;&gt;Node3 -->
<g id="edge4" class="edge"><title>Node2&#45;&gt;Node3</title>
<path fill="none" stroke="midnightblue" d="M106.882,-116.362C104.677,-108.84 101.652,-98.5187 98.9883,-89.4308"/>
<polygon fill="midnightblue" stroke="midnightblue" points="102.27,-88.1825 96.0983,-79.5707 95.5524,-90.1514 102.27,-88.1825"/>
</g>
<!-- Node2&#45;&gt;Node5 -->
<g id="edge10" class="edge"><title>Node2&#45;&gt;Node5</title>
<path fill="none" stroke="midnightblue" d="M133.042,-116.367C147.944,-108.365 166.619,-96.0317 178,-80 188.088,-65.7906 192.825,-46.4407 195.047,-31.8476"/>
<polygon fill="midnightblue" stroke="midnightblue" points="198.538,-32.1356 196.302,-21.7794 191.591,-31.2694 198.538,-32.1356"/>
</g>
<!-- Node4 -->
<g id="node7" class="node"><title>Node4</title>
<polygon fill="white" stroke="#bfbfbf" points="68.5,-0.5 68.5,-21.5 117.5,-21.5 117.5,-0.5 68.5,-0.5"/>
<text text-anchor="middle" x="93" y="-8.5" font-family="Helvetica,sans-Serif" font-size="10.00">stdint.h</text>
</g>
<!-- Node3&#45;&gt;Node4 -->
<g id="edge6" class="edge"><title>Node3&#45;&gt;Node4</title>
<path fill="none" stroke="midnightblue" d="M93,-58.3619C93,-50.9219 93,-40.7427 93,-31.7276"/>
<polygon fill="midnightblue" stroke="midnightblue" points="96.5001,-31.5706 93,-21.5707 89.5001,-31.5707 96.5001,-31.5706"/>
</g>
<!-- Node3&#45;&gt;Node5 -->
<g id="edge8" class="edge"><title>Node3&#45;&gt;Node5</title>
<path fill="none" stroke="midnightblue" d="M112.075,-58.3619C128.055,-49.4502 151.081,-36.6087 169.127,-26.5447"/>
<polygon fill="midnightblue" stroke="midnightblue" points="171.017,-29.4982 178.046,-21.5707 167.607,-23.3846 171.017,-29.4982"/>
</g>
</g>
</svg>
