<?xml version="1.0" encoding="UTF-8" standalone="no"?>
<!DOCTYPE svg PUBLIC "-//W3C//DTD SVG 1.1//EN"
 "http://www.w3.org/Graphics/SVG/1.1/DTD/svg11.dtd">
<!-- Generated by graphviz version 2.26.3 (20100126.1600)
 -->
<!-- Title: G Pages: 1 -->
<svg width="864pt" height="148pt"
 viewBox="0.00 0.00 864.00 148.00" xmlns="http://www.w3.org/2000/svg" xmlns:xlink="http://www.w3.org/1999/xlink">
<g id="graph1" class="graph" transform="scale(1 1) rotate(0) translate(4 144)">
<title>G</title>
<polygon fill="white" stroke="white" points="-4,5 -4,-144 861,-144 861,5 -4,5"/>
<!-- Node1 -->
<g id="node1" class="node"><title>Node1</title>
<polygon fill="#bfbfbf" stroke="black" points="716,-59.5 716,-80.5 856,-80.5 856,-59.5 716,-59.5"/>
<text text-anchor="middle" x="786" y="-67.5" font-family="Helvetica,sans-Serif" font-size="10.00">gaia::text::DigitsKeyListener</text>
</g>
<!-- Node2 -->
<g id="node2" class="node"><title>Node2</title>
<a xlink:href="../../da/d8a/classgaia_1_1text_1_1_number_key_listener.html" target="_top" xlink:title="For numeric text entry.">
<polygon fill="white" stroke="black" points="448.5,-78.5 448.5,-99.5 597.5,-99.5 597.5,-78.5 448.5,-78.5"/>
<text text-anchor="middle" x="523" y="-86.5" font-family="Helvetica,sans-Serif" font-size="10.00">gaia::text::NumberKeyListener</text>
</a>
</g>
<!-- Node2&#45;&gt;Node1 -->
<g id="edge2" class="edge"><title>Node2&#45;&gt;Node1</title>
<path fill="none" stroke="midnightblue" d="M607.818,-82.8724C642.649,-80.3561 682.502,-77.4771 715.672,-75.0807"/>
<polygon fill="midnightblue" stroke="midnightblue" points="607.384,-79.3946 597.662,-83.6062 607.888,-86.3764 607.384,-79.3946"/>
</g>
<!-- Node3 -->
<g id="node4" class="node"><title>Node3</title>
<a xlink:href="../../d7/d60/classgaia_1_1text_1_1_key_listener.html" target="_top" xlink:title="Interface for converting text key events into edit operations on an Editable class.">
<polygon fill="white" stroke="black" points="158.5,-118.5 158.5,-139.5 273.5,-139.5 273.5,-118.5 158.5,-118.5"/>
<text text-anchor="middle" x="216" y="-126.5" font-family="Helvetica,sans-Serif" font-size="10.00">gaia::text::KeyListener</text>
</a>
</g>
<!-- Node3&#45;&gt;Node2 -->
<g id="edge4" class="edge"><title>Node3&#45;&gt;Node2</title>
<path fill="none" stroke="midnightblue" d="M283.869,-120.157C332.572,-113.811 398.188,-105.262 448.367,-98.7242"/>
<polygon fill="midnightblue" stroke="midnightblue" points="283.208,-116.714 273.744,-121.476 284.113,-123.655 283.208,-116.714"/>
</g>
<!-- Node4 -->
<g id="node6" class="node"><title>Node4</title>
<a xlink:href="../../d8/d3e/classgaia_1_1text_1_1_input_filter.html" target="_top" xlink:title="InputFilters can be attached to Editables to constrain the changes that can be made to them...">
<polygon fill="white" stroke="black" points="162.5,-78.5 162.5,-99.5 269.5,-99.5 269.5,-78.5 162.5,-78.5"/>
<text text-anchor="middle" x="216" y="-86.5" font-family="Helvetica,sans-Serif" font-size="10.00">gaia::text::InputFilter</text>
</a>
</g>
<!-- Node4&#45;&gt;Node2 -->
<g id="edge6" class="edge"><title>Node4&#45;&gt;Node2</title>
<path fill="none" stroke="midnightblue" d="M280.003,-89C329.087,-89 396.933,-89 448.463,-89"/>
<polygon fill="midnightblue" stroke="midnightblue" points="279.827,-85.5001 269.827,-89 279.827,-92.5001 279.827,-85.5001"/>
</g>
<!-- Node5 -->
<g id="node8" class="node"><title>Node5</title>
<a xlink:href="../../d2/db0/classgaia_1_1base_1_1_array.html" target="_top" xlink:title="gaia::base::Array\&lt; DigitsKeyListener * \&gt;">
<polygon fill="white" stroke="black" points="426.5,-38.5 426.5,-59.5 619.5,-59.5 619.5,-38.5 426.5,-38.5"/>
<text text-anchor="middle" x="523" y="-46.5" font-family="Helvetica,sans-Serif" font-size="10.00">gaia::base::Array&lt; DigitsKeyListener * &gt;</text>
</a>
</g>
<!-- Node5&#45;&gt;Node1 -->
<g id="edge8" class="edge"><title>Node5&#45;&gt;Node1</title>
<path fill="none" stroke="#9a32cd" stroke-dasharray="5,2" d="M630.059,-53.9724C652.524,-55.3367 676.055,-57.0037 698,-59 703.827,-59.53 709.863,-60.1451 715.917,-60.8082"/>
<polygon fill="#9a32cd" stroke="#9a32cd" points="630.011,-50.4635 619.822,-53.3667 629.597,-57.4513 630.011,-50.4635"/>
<text text-anchor="middle" x="668" y="-63" font-family="Helvetica,sans-Serif" font-size="10.00"> mspInstance</text>
</g>
<!-- Node6 -->
<g id="node10" class="node"><title>Node6</title>
<a xlink:href="../../d2/d80/classgaia_1_1base_1_1_array_impl.html" target="_top" xlink:title="Implements array data structure and its operation methods.">
<polygon fill="white" stroke="black" points="0,-23.5 0,-44.5 110,-44.5 110,-23.5 0,-23.5"/>
<text text-anchor="middle" x="55" y="-31.5" font-family="Helvetica,sans-Serif" font-size="10.00">gaia::base::ArrayImpl</text>
</a>
</g>
<!-- Node6&#45;&gt;Node5 -->
<g id="edge10" class="edge"><title>Node6&#45;&gt;Node5</title>
<path fill="none" stroke="#8b1a1a" d="M120.428,-36.0971C199.941,-38.6455 334.797,-42.9678 426.305,-45.9008"/>
<polygon fill="#8b1a1a" stroke="#8b1a1a" points="120.169,-32.587 110.062,-35.7648 119.944,-39.5834 120.169,-32.587"/>
</g>
<!-- Node7 -->
<g id="node12" class="node"><title>Node7</title>
<a xlink:href="../../d2/db0/classgaia_1_1base_1_1_array.html" target="_top" xlink:title="Implements array to replace C&#45;style array.">
<polygon fill="white" stroke="black" points="148.5,-0.5 148.5,-21.5 283.5,-21.5 283.5,-0.5 148.5,-0.5"/>
<text text-anchor="middle" x="216" y="-8.5" font-family="Helvetica,sans-Serif" font-size="10.00">gaia::base::Array&lt; TYPE &gt;</text>
</a>
</g>
<!-- Node6&#45;&gt;Node7 -->
<g id="edge14" class="edge"><title>Node6&#45;&gt;Node7</title>
<path fill="none" stroke="#8b1a1a" d="M120.571,-24.6328C129.696,-23.3292 139.086,-21.9877 148.25,-20.6786"/>
<polygon fill="#8b1a1a" stroke="#8b1a1a" points="119.812,-21.2056 110.407,-26.0847 120.802,-28.1352 119.812,-21.2056"/>
</g>
<!-- Node7&#45;&gt;Node5 -->
<g id="edge12" class="edge"><title>Node7&#45;&gt;Node5</title>
<path fill="none" stroke="orange" stroke-dasharray="5,2" d="M293.958,-13.0429C328.959,-14.6863 370.688,-17.6512 408,-23 433.429,-26.6453 461.563,-32.9651 483.64,-38.461"/>
<polygon fill="orange" stroke="orange" points="293.946,-9.53898 283.801,-12.5938 293.636,-16.5321 293.946,-9.53898"/>
<text text-anchor="middle" x="355" y="-27" font-family="Helvetica,sans-Serif" font-size="10.00"> &lt; DigitsKeyListener * &gt;</text>
</g>
</g>
</svg>
