<?xml version="1.0" encoding="UTF-8" standalone="no"?>
<!DOCTYPE svg PUBLIC "-//W3C//DTD SVG 1.1//EN"
 "http://www.w3.org/Graphics/SVG/1.1/DTD/svg11.dtd">
<!-- Generated by graphviz version 2.26.3 (20100126.1600)
 -->
<!-- Title: G Pages: 1 -->
<svg width="646pt" height="88pt"
 viewBox="0.00 0.00 646.00 88.00" xmlns="http://www.w3.org/2000/svg" xmlns:xlink="http://www.w3.org/1999/xlink">
<g id="graph1" class="graph" transform="scale(1 1) rotate(0) translate(4 84)">
<title>G</title>
<polygon fill="white" stroke="white" points="-4,5 -4,-84 643,-84 643,5 -4,5"/>
<!-- Node1 -->
<g id="node1" class="node"><title>Node1</title>
<polygon fill="#bfbfbf" stroke="black" points="140.5,-58.5 140.5,-79.5 505.5,-79.5 505.5,-58.5 140.5,-58.5"/>
<text text-anchor="middle" x="323" y="-66.5" font-family="Helvetica,sans-Serif" font-size="10.00">/home/vilon_tao/gaia/sdk/include/gaia/telephony/mms/MultimediaMessagePdu.h</text>
</g>
<!-- Node2 -->
<g id="node3" class="node"><title>Node2</title>
<a xlink:href="../../d7/d97/_retrieve_conf_8h.html" target="_top" xlink:title="/home/vilon_tao/gaia/sdk/include/gaia/telephony/mms/RetrieveConf.h">
<polygon fill="white" stroke="black" points="-0.5,-0.5 -0.5,-21.5 318.5,-21.5 318.5,-0.5 -0.5,-0.5"/>
<text text-anchor="middle" x="159" y="-8.5" font-family="Helvetica,sans-Serif" font-size="10.00">/home/vilon_tao/gaia/sdk/include/gaia/telephony/mms/RetrieveConf.h</text>
</a>
</g>
<!-- Node1&#45;&gt;Node2 -->
<g id="edge2" class="edge"><title>Node1&#45;&gt;Node2</title>
<path fill="none" stroke="midnightblue" d="M283.822,-55.1443C254.637,-44.8229 215.393,-30.9439 188.755,-21.5231"/>
<polygon fill="midnightblue" stroke="midnightblue" points="282.706,-58.4621 293.301,-58.4966 285.04,-51.8626 282.706,-58.4621"/>
</g>
<!-- Node3 -->
<g id="node5" class="node"><title>Node3</title>
<a xlink:href="../../d7/dbb/_send_req_8h.html" target="_top" xlink:title="/home/vilon_tao/gaia/sdk/include/gaia/telephony/mms/SendReq.h">
<polygon fill="white" stroke="black" points="336,-0.5 336,-21.5 638,-21.5 638,-0.5 336,-0.5"/>
<text text-anchor="middle" x="487" y="-8.5" font-family="Helvetica,sans-Serif" font-size="10.00">/home/vilon_tao/gaia/sdk/include/gaia/telephony/mms/SendReq.h</text>
</a>
</g>
<!-- Node1&#45;&gt;Node3 -->
<g id="edge4" class="edge"><title>Node1&#45;&gt;Node3</title>
<path fill="none" stroke="midnightblue" d="M362.178,-55.1443C391.363,-44.8229 430.607,-30.9439 457.245,-21.5231"/>
<polygon fill="midnightblue" stroke="midnightblue" points="360.96,-51.8626 352.699,-58.4966 363.294,-58.4621 360.96,-51.8626"/>
</g>
</g>
</svg>
