<?xml version="1.0" encoding="UTF-8" standalone="no"?>
<!DOCTYPE svg PUBLIC "-//W3C//DTD SVG 1.1//EN"
 "http://www.w3.org/Graphics/SVG/1.1/DTD/svg11.dtd">
<!-- Generated by graphviz version 2.26.3 (20100126.1600)
 -->
<!-- Title: G Pages: 1 -->
<svg width="280pt" height="146pt"
 viewBox="0.00 0.00 280.00 146.00" xmlns="http://www.w3.org/2000/svg" xmlns:xlink="http://www.w3.org/1999/xlink">
<g id="graph1" class="graph" transform="scale(1 1) rotate(0) translate(4 142)">
<title>G</title>
<polygon fill="white" stroke="white" points="-4,5 -4,-142 277,-142 277,5 -4,5"/>
<!-- Node1 -->
<g id="node1" class="node"><title>Node1</title>
<polygon fill="#bfbfbf" stroke="black" points="0,-116.5 0,-137.5 272,-137.5 272,-116.5 0,-116.5"/>
<text text-anchor="middle" x="136" y="-124.5" font-family="Helvetica,sans-Serif" font-size="10.00">/home/vilon_tao/gaia/sdk/include/gaia/mtp/MtpObjectInfo.h</text>
</g>
<!-- Node2 -->
<g id="node3" class="node"><title>Node2</title>
<a xlink:href="../../d1/dd0/gmacros_8h.html" target="_top" xlink:title="gaia/base/gmacros.h">
<polygon fill="white" stroke="black" points="37.5,-0.5 37.5,-21.5 144.5,-21.5 144.5,-0.5 37.5,-0.5"/>
<text text-anchor="middle" x="91" y="-8.5" font-family="Helvetica,sans-Serif" font-size="10.00">gaia/base/gmacros.h</text>
</a>
</g>
<!-- Node1&#45;&gt;Node2 -->
<g id="edge2" class="edge"><title>Node1&#45;&gt;Node2</title>
<path fill="none" stroke="midnightblue" d="M129.034,-116.161C123.298,-106.863 115.279,-92.9531 110,-80 103.562,-64.2024 98.5643,-45.503 95.3141,-31.5583"/>
<polygon fill="midnightblue" stroke="midnightblue" points="98.6739,-30.5432 93.0879,-21.5406 91.8406,-32.0618 98.6739,-30.5432"/>
</g>
<!-- Node3 -->
<g id="node5" class="node"><title>Node3</title>
<a xlink:href="../../d5/d0a/_mtp_constants_8h.html" target="_top" xlink:title="gaia/mtp/MtpConstants.h">
<polygon fill="white" stroke="black" points="118.5,-58.5 118.5,-79.5 245.5,-79.5 245.5,-58.5 118.5,-58.5"/>
<text text-anchor="middle" x="182" y="-66.5" font-family="Helvetica,sans-Serif" font-size="10.00">gaia/mtp/MtpConstants.h</text>
</a>
</g>
<!-- Node1&#45;&gt;Node3 -->
<g id="edge4" class="edge"><title>Node1&#45;&gt;Node3</title>
<path fill="none" stroke="midnightblue" d="M144.437,-116.362C150.792,-108.35 159.666,-97.1605 167.193,-87.6696"/>
<polygon fill="midnightblue" stroke="midnightblue" points="170.145,-89.5805 173.616,-79.5707 164.66,-85.2308 170.145,-89.5805"/>
</g>
<!-- Node3&#45;&gt;Node2 -->
<g id="edge6" class="edge"><title>Node3&#45;&gt;Node2</title>
<path fill="none" stroke="midnightblue" d="M165.309,-58.3619C151.584,-49.6138 131.916,-37.0786 116.263,-27.1015"/>
<polygon fill="midnightblue" stroke="midnightblue" points="117.899,-23.994 107.585,-21.5707 114.137,-29.8969 117.899,-23.994"/>
</g>
<!-- Node4 -->
<g id="node8" class="node"><title>Node4</title>
<polygon fill="white" stroke="#bfbfbf" points="161.5,-0.5 161.5,-21.5 210.5,-21.5 210.5,-0.5 161.5,-0.5"/>
<text text-anchor="middle" x="186" y="-8.5" font-family="Helvetica,sans-Serif" font-size="10.00">stdint.h</text>
</g>
<!-- Node3&#45;&gt;Node4 -->
<g id="edge8" class="edge"><title>Node3&#45;&gt;Node4</title>
<path fill="none" stroke="midnightblue" d="M182.734,-58.3619C183.247,-50.9219 183.949,-40.7427 184.571,-31.7276"/>
<polygon fill="midnightblue" stroke="midnightblue" points="188.075,-31.7878 185.271,-21.5707 181.091,-31.3061 188.075,-31.7878"/>
</g>
</g>
</svg>
