<?xml version="1.0" encoding="UTF-8" standalone="no"?>
<!DOCTYPE svg PUBLIC "-//W3C//DTD SVG 1.1//EN"
 "http://www.w3.org/Graphics/SVG/1.1/DTD/svg11.dtd">
<!-- Generated by graphviz version 2.26.3 (20100126.1600)
 -->
<!-- Title: G Pages: 1 -->
<svg width="418pt" height="204pt"
 viewBox="0.00 0.00 418.00 204.00" xmlns="http://www.w3.org/2000/svg" xmlns:xlink="http://www.w3.org/1999/xlink">
<g id="graph1" class="graph" transform="scale(1 1) rotate(0) translate(4 200)">
<title>G</title>
<polygon fill="white" stroke="white" points="-4,5 -4,-200 415,-200 415,5 -4,5"/>
<!-- Node1 -->
<g id="node1" class="node"><title>Node1</title>
<polygon fill="#bfbfbf" stroke="black" points="0,-174.5 0,-195.5 250,-195.5 250,-174.5 0,-174.5"/>
<text text-anchor="middle" x="125" y="-182.5" font-family="Helvetica,sans-Serif" font-size="10.00">/home/vilon_tao/gaia/sdk/include/gaia/core/Demand.h</text>
</g>
<!-- Node2 -->
<g id="node3" class="node"><title>Node2</title>
<polygon fill="white" stroke="#bfbfbf" points="119,-0.5 119,-21.5 187,-21.5 187,-0.5 119,-0.5"/>
<text text-anchor="middle" x="153" y="-8.5" font-family="Helvetica,sans-Serif" font-size="10.00">sys/types.h</text>
</g>
<!-- Node1&#45;&gt;Node2 -->
<g id="edge2" class="edge"><title>Node1&#45;&gt;Node2</title>
<path fill="none" stroke="midnightblue" d="M123.227,-174.21C121.76,-164.708 119.793,-150.478 119,-138 116.733,-102.339 115.72,-91.9057 127,-58 130.174,-48.4605 135.286,-38.6201 140.14,-30.424"/>
<polygon fill="midnightblue" stroke="midnightblue" points="143.274,-32.0132 145.59,-21.6746 137.332,-28.3125 143.274,-32.0132"/>
</g>
<!-- Node3 -->
<g id="node5" class="node"><title>Node3</title>
<a xlink:href="../../d3/dc5/_array_8h.html" target="_top" xlink:title="gaia/base/Array.h">
<polygon fill="white" stroke="black" points="127.5,-116.5 127.5,-137.5 220.5,-137.5 220.5,-116.5 127.5,-116.5"/>
<text text-anchor="middle" x="174" y="-124.5" font-family="Helvetica,sans-Serif" font-size="10.00">gaia/base/Array.h</text>
</a>
</g>
<!-- Node1&#45;&gt;Node3 -->
<g id="edge4" class="edge"><title>Node1&#45;&gt;Node3</title>
<path fill="none" stroke="midnightblue" d="M133.987,-174.362C140.825,-166.268 150.402,-154.932 158.472,-145.38"/>
<polygon fill="midnightblue" stroke="midnightblue" points="161.29,-147.468 165.07,-137.571 155.942,-142.951 161.29,-147.468"/>
</g>
<!-- Node3&#45;&gt;Node2 -->
<g id="edge20" class="edge"><title>Node3&#45;&gt;Node2</title>
<path fill="none" stroke="midnightblue" d="M160.467,-116.267C150.762,-107.646 138.473,-94.6003 133,-80 126.882,-63.6792 133.403,-44.615 140.588,-30.6664"/>
<polygon fill="midnightblue" stroke="midnightblue" points="143.655,-32.3528 145.521,-21.9235 137.559,-28.913 143.655,-32.3528"/>
</g>
<!-- Node4 -->
<g id="node7" class="node"><title>Node4</title>
<a xlink:href="../../d8/dae/_array_impl_8h.html" target="_top" xlink:title="gaia/base/ArrayImpl.h">
<polygon fill="white" stroke="black" points="142,-58.5 142,-79.5 254,-79.5 254,-58.5 142,-58.5"/>
<text text-anchor="middle" x="198" y="-66.5" font-family="Helvetica,sans-Serif" font-size="10.00">gaia/base/ArrayImpl.h</text>
</a>
</g>
<!-- Node3&#45;&gt;Node4 -->
<g id="edge6" class="edge"><title>Node3&#45;&gt;Node4</title>
<path fill="none" stroke="midnightblue" d="M178.402,-116.362C181.582,-108.677 185.972,-98.0686 189.79,-88.8399"/>
<polygon fill="midnightblue" stroke="midnightblue" points="193.036,-90.1491 193.626,-79.5707 186.568,-87.4726 193.036,-90.1491"/>
</g>
<!-- Node5 -->
<g id="node10" class="node"><title>Node5</title>
<a xlink:href="../../d1/d86/_type_helpers_8h.html" target="_top" xlink:title="gaia/base/TypeHelpers.h">
<polygon fill="white" stroke="black" points="271.5,-58.5 271.5,-79.5 396.5,-79.5 396.5,-58.5 271.5,-58.5"/>
<text text-anchor="middle" x="334" y="-66.5" font-family="Helvetica,sans-Serif" font-size="10.00">gaia/base/TypeHelpers.h</text>
</a>
</g>
<!-- Node3&#45;&gt;Node5 -->
<g id="edge10" class="edge"><title>Node3&#45;&gt;Node5</title>
<path fill="none" stroke="midnightblue" d="M202.975,-116.497C228.833,-107.123 266.899,-93.3242 295.346,-83.0122"/>
<polygon fill="midnightblue" stroke="midnightblue" points="296.762,-86.2216 304.971,-79.5231 294.377,-79.6406 296.762,-86.2216"/>
</g>
<!-- Node4&#45;&gt;Node2 -->
<g id="edge8" class="edge"><title>Node4&#45;&gt;Node2</title>
<path fill="none" stroke="midnightblue" d="M189.746,-58.3619C183.53,-50.3496 174.849,-39.1605 167.485,-29.6696"/>
<polygon fill="midnightblue" stroke="midnightblue" points="170.097,-27.326 161.201,-21.5707 164.566,-31.617 170.097,-27.326"/>
</g>
<!-- Node5&#45;&gt;Node2 -->
<g id="edge16" class="edge"><title>Node5&#45;&gt;Node2</title>
<path fill="none" stroke="midnightblue" d="M301.222,-58.4966C271.587,-49.0001 227.778,-34.9619 195.469,-24.6087"/>
<polygon fill="midnightblue" stroke="midnightblue" points="196.43,-21.2416 185.839,-21.5231 194.294,-27.9078 196.43,-21.2416"/>
</g>
<!-- Node6 -->
<g id="node12" class="node"><title>Node6</title>
<polygon fill="white" stroke="#bfbfbf" points="243.5,-0.5 243.5,-21.5 292.5,-21.5 292.5,-0.5 243.5,-0.5"/>
<text text-anchor="middle" x="268" y="-8.5" font-family="Helvetica,sans-Serif" font-size="10.00">stdint.h</text>
</g>
<!-- Node5&#45;&gt;Node6 -->
<g id="edge12" class="edge"><title>Node5&#45;&gt;Node6</title>
<path fill="none" stroke="midnightblue" d="M321.895,-58.3619C312.312,-49.9408 298.736,-38.0105 287.607,-28.2308"/>
<polygon fill="midnightblue" stroke="midnightblue" points="289.851,-25.5427 280.029,-21.5707 285.23,-30.8009 289.851,-25.5427"/>
</g>
<!-- Node7 -->
<g id="node14" class="node"><title>Node7</title>
<polygon fill="white" stroke="#bfbfbf" points="309.5,-0.5 309.5,-21.5 358.5,-21.5 358.5,-0.5 309.5,-0.5"/>
<text text-anchor="middle" x="334" y="-8.5" font-family="Helvetica,sans-Serif" font-size="10.00">string.h</text>
</g>
<!-- Node5&#45;&gt;Node7 -->
<g id="edge14" class="edge"><title>Node5&#45;&gt;Node7</title>
<path fill="none" stroke="midnightblue" d="M334,-58.3619C334,-50.9219 334,-40.7427 334,-31.7276"/>
<polygon fill="midnightblue" stroke="midnightblue" points="337.5,-31.5706 334,-21.5707 330.5,-31.5707 337.5,-31.5706"/>
</g>
<!-- Node8 -->
<g id="node17" class="node"><title>Node8</title>
<polygon fill="white" stroke="#bfbfbf" points="375.5,-0.5 375.5,-21.5 410.5,-21.5 410.5,-0.5 375.5,-0.5"/>
<text text-anchor="middle" x="393" y="-8.5" font-family="Helvetica,sans-Serif" font-size="10.00">new</text>
</g>
<!-- Node5&#45;&gt;Node8 -->
<g id="edge18" class="edge"><title>Node5&#45;&gt;Node8</title>
<path fill="none" stroke="midnightblue" d="M344.822,-58.3619C353.221,-50.1043 365.054,-38.4725 374.89,-28.8029"/>
<polygon fill="midnightblue" stroke="midnightblue" points="377.569,-31.077 382.247,-21.5707 372.662,-26.0851 377.569,-31.077"/>
</g>
</g>
</svg>
