<?xml version="1.0" encoding="UTF-8" standalone="no"?>
<!DOCTYPE svg PUBLIC "-//W3C//DTD SVG 1.1//EN"
 "http://www.w3.org/Graphics/SVG/1.1/DTD/svg11.dtd">
<!-- Generated by graphviz version 2.26.3 (20100126.1600)
 -->
<!-- Title: G Pages: 1 -->
<svg width="976pt" height="170pt"
 viewBox="0.00 0.00 976.00 170.00" xmlns="http://www.w3.org/2000/svg" xmlns:xlink="http://www.w3.org/1999/xlink">
<g id="graph1" class="graph" transform="scale(1 1) rotate(0) translate(4 166)">
<title>G</title>
<polygon fill="white" stroke="white" points="-4,5 -4,-166 973,-166 973,5 -4,5"/>
<!-- Node1 -->
<g id="node1" class="node"><title>Node1</title>
<polygon fill="#bfbfbf" stroke="black" points="346,-60.5 346,-81.5 450,-81.5 450,-60.5 346,-60.5"/>
<text text-anchor="middle" x="398" y="-68.5" font-family="Helvetica,sans-Serif" font-size="10.00">gaia::ui::TextWidget</text>
</g>
<!-- Node5 -->
<g id="node9" class="node"><title>Node5</title>
<a xlink:href="../../d8/ddd/classgaia_1_1ui_1_1_bubble_text_widget.html" target="_top" xlink:title="Represents a BubbleText widget.">
<polygon fill="white" stroke="black" points="486,-120.5 486,-141.5 620,-141.5 620,-120.5 486,-120.5"/>
<text text-anchor="middle" x="553" y="-128.5" font-family="Helvetica,sans-Serif" font-size="10.00">gaia::ui::BubbleTextWidget</text>
</a>
</g>
<!-- Node1&#45;&gt;Node5 -->
<g id="edge8" class="edge"><title>Node1&#45;&gt;Node5</title>
<path fill="none" stroke="midnightblue" d="M428.294,-86.0088C445.067,-94.0024 466.425,-103.669 486,-111 495.094,-114.406 505.048,-117.637 514.435,-120.468"/>
<polygon fill="midnightblue" stroke="midnightblue" points="429.524,-82.7164 418.996,-81.5259 426.484,-89.0218 429.524,-82.7164"/>
</g>
<!-- Node6 -->
<g id="node11" class="node"><title>Node6</title>
<a xlink:href="../../dc/d51/classgaia_1_1ui_1_1_button.html" target="_top" xlink:title="Represents a push&#45;button widget.">
<polygon fill="white" stroke="black" points="511.5,-80.5 511.5,-101.5 594.5,-101.5 594.5,-80.5 511.5,-80.5"/>
<text text-anchor="middle" x="553" y="-88.5" font-family="Helvetica,sans-Serif" font-size="10.00">gaia::ui::Button</text>
</a>
</g>
<!-- Node1&#45;&gt;Node6 -->
<g id="edge10" class="edge"><title>Node1&#45;&gt;Node6</title>
<path fill="none" stroke="midnightblue" d="M460.003,-79.0004C477.17,-81.2155 495.395,-83.5671 511.12,-85.5962"/>
<polygon fill="midnightblue" stroke="midnightblue" points="460.41,-75.5239 450.044,-77.7153 459.514,-82.4664 460.41,-75.5239"/>
</g>
<!-- Node12 -->
<g id="node23" class="node"><title>Node12</title>
<a xlink:href="../../d3/d9c/classgaia_1_1ui_1_1_edit_widget.html" target="_top" xlink:title="EditWidget is a thin veneer over TextWidget that configures itself to be editable.">
<polygon fill="white" stroke="black" points="502,-40.5 502,-61.5 604,-61.5 604,-40.5 502,-40.5"/>
<text text-anchor="middle" x="553" y="-48.5" font-family="Helvetica,sans-Serif" font-size="10.00">gaia::ui::EditWidget</text>
</a>
</g>
<!-- Node1&#45;&gt;Node12 -->
<g id="edge22" class="edge"><title>Node1&#45;&gt;Node12</title>
<path fill="none" stroke="midnightblue" d="M460.011,-62.9985C473.905,-61.2058 488.491,-59.3238 501.883,-57.5957"/>
<polygon fill="midnightblue" stroke="midnightblue" points="459.514,-59.5336 450.044,-64.2847 460.41,-66.4761 459.514,-59.5336"/>
</g>
<!-- Node15 -->
<g id="node29" class="node"><title>Node15</title>
<a xlink:href="../../da/d2c/classgaia_1_1ui_1_1_footer_button.html" target="_top" xlink:title="The FooterButton can be pressed, or clicked, by the user to perform an action.">
<polygon fill="white" stroke="black" points="498,-0.5 498,-21.5 608,-21.5 608,-0.5 498,-0.5"/>
<text text-anchor="middle" x="553" y="-8.5" font-family="Helvetica,sans-Serif" font-size="10.00">gaia::ui::FooterButton</text>
</a>
</g>
<!-- Node1&#45;&gt;Node15 -->
<g id="edge28" class="edge"><title>Node1&#45;&gt;Node15</title>
<path fill="none" stroke="midnightblue" d="M428.294,-55.9912C445.067,-47.9976 466.425,-38.3314 486,-31 495.094,-27.5939 505.048,-24.3635 514.435,-21.5316"/>
<polygon fill="midnightblue" stroke="midnightblue" points="426.484,-52.9782 418.996,-60.4741 429.524,-59.2836 426.484,-52.9782"/>
</g>
<!-- Node2 -->
<g id="node2" class="node"><title>Node2</title>
<a xlink:href="../../d8/dac/classgaia_1_1core_1_1_widget.html" target="_top" xlink:title="The Widget class is the base class of all user interface component.">
<polygon fill="white" stroke="black" points="201,-80.5 201,-101.5 297,-101.5 297,-80.5 201,-80.5"/>
<text text-anchor="middle" x="249" y="-88.5" font-family="Helvetica,sans-Serif" font-size="10.00">gaia::core::Widget</text>
</a>
</g>
<!-- Node2&#45;&gt;Node1 -->
<g id="edge2" class="edge"><title>Node2&#45;&gt;Node1</title>
<path fill="none" stroke="midnightblue" d="M307.362,-83.1661C320.027,-81.4662 333.344,-79.6786 345.755,-78.0128"/>
<polygon fill="midnightblue" stroke="midnightblue" points="306.821,-79.7072 297.376,-84.5066 307.753,-86.645 306.821,-79.7072"/>
</g>
<!-- Node3 -->
<g id="node4" class="node"><title>Node3</title>
<a xlink:href="../../d0/db2/classgaia_1_1core_1_1_property_animatable.html" target="_top" xlink:title="Any animation object need to implement PropertyAnimatable because of setting value.">
<polygon fill="white" stroke="black" points="0.5,-80.5 0.5,-101.5 151.5,-101.5 151.5,-80.5 0.5,-80.5"/>
<text text-anchor="middle" x="76" y="-88.5" font-family="Helvetica,sans-Serif" font-size="10.00">gaia::core::PropertyAnimatable</text>
</a>
</g>
<!-- Node3&#45;&gt;Node2 -->
<g id="edge4" class="edge"><title>Node3&#45;&gt;Node2</title>
<path fill="none" stroke="midnightblue" d="M161.87,-91C175.296,-91 188.742,-91 200.914,-91"/>
<polygon fill="midnightblue" stroke="midnightblue" points="161.629,-87.5001 151.629,-91 161.629,-94.5001 161.629,-87.5001"/>
</g>
<!-- Node4 -->
<g id="node6" class="node"><title>Node4</title>
<a xlink:href="../../dd/de0/classgaia_1_1core_1_1_event_control.html" target="_top" xlink:title="EventControl is used to dispatch event and register listener.">
<polygon fill="white" stroke="black" points="188,-40.5 188,-61.5 310,-61.5 310,-40.5 188,-40.5"/>
<text text-anchor="middle" x="249" y="-48.5" font-family="Helvetica,sans-Serif" font-size="10.00">gaia::core::EventControl</text>
</a>
</g>
<!-- Node4&#45;&gt;Node1 -->
<g id="edge6" class="edge"><title>Node4&#45;&gt;Node1</title>
<path fill="none" stroke="midnightblue" d="M320.154,-60.5509C328.823,-61.7145 337.552,-62.8861 345.871,-64.0028"/>
<polygon fill="midnightblue" stroke="midnightblue" points="320.411,-57.054 310.034,-59.1925 319.479,-63.9918 320.411,-57.054"/>
</g>
<!-- Node7 -->
<g id="node13" class="node"><title>Node7</title>
<a xlink:href="../../de/d6f/classgaia_1_1ui_1_1_compound_button.html" target="_top" xlink:title="A button with two states, checked and unchecked.">
<polygon fill="white" stroke="black" points="673,-80.5 673,-101.5 803,-101.5 803,-80.5 673,-80.5"/>
<text text-anchor="middle" x="738" y="-88.5" font-family="Helvetica,sans-Serif" font-size="10.00">gaia::ui::CompoundButton</text>
</a>
</g>
<!-- Node6&#45;&gt;Node7 -->
<g id="edge12" class="edge"><title>Node6&#45;&gt;Node7</title>
<path fill="none" stroke="midnightblue" d="M604.563,-91C625.66,-91 650.316,-91 672.654,-91"/>
<polygon fill="midnightblue" stroke="midnightblue" points="604.518,-87.5001 594.518,-91 604.518,-94.5001 604.518,-87.5001"/>
</g>
<!-- Node8 -->
<g id="node15" class="node"><title>Node8</title>
<a xlink:href="../../da/d14/classgaia_1_1ui_1_1_check_box.html" target="_top" xlink:title="A checkbox is a specific type of two&#45;states button that can be either checked or unchecked.">
<polygon fill="white" stroke="black" points="862,-140.5 862,-161.5 962,-161.5 962,-140.5 862,-140.5"/>
<text text-anchor="middle" x="912" y="-148.5" font-family="Helvetica,sans-Serif" font-size="10.00">gaia::ui::CheckBox</text>
</a>
</g>
<!-- Node7&#45;&gt;Node8 -->
<g id="edge14" class="edge"><title>Node7&#45;&gt;Node8</title>
<path fill="none" stroke="midnightblue" d="M778.464,-104.953C809.856,-115.778 852.701,-130.552 881.308,-140.416"/>
<polygon fill="midnightblue" stroke="midnightblue" points="779.302,-101.54 768.707,-101.589 777.02,-108.157 779.302,-101.54"/>
</g>
<!-- Node9 -->
<g id="node17" class="node"><title>Node9</title>
<a xlink:href="../../df/d02/classgaia_1_1ui_1_1_radio_button.html" target="_top" xlink:title="A radio button is a two&#45;states button that can be either checked or unchecked.">
<polygon fill="white" stroke="black" points="858,-100.5 858,-121.5 966,-121.5 966,-100.5 858,-100.5"/>
<text text-anchor="middle" x="912" y="-108.5" font-family="Helvetica,sans-Serif" font-size="10.00">gaia::ui::RadioButton</text>
</a>
</g>
<!-- Node7&#45;&gt;Node9 -->
<g id="edge16" class="edge"><title>Node7&#45;&gt;Node9</title>
<path fill="none" stroke="midnightblue" d="M813.548,-99.6836C828.508,-101.403 843.928,-103.176 857.997,-104.793"/>
<polygon fill="midnightblue" stroke="midnightblue" points="813.621,-96.169 803.286,-98.5042 812.821,-103.123 813.621,-96.169"/>
</g>
<!-- Node10 -->
<g id="node19" class="node"><title>Node10</title>
<a xlink:href="../../df/dc7/classgaia_1_1ui_1_1_switch.html" target="_top" xlink:title="A Switch is a two&#45;state toggle switch widget that can select between two options.">
<polygon fill="white" stroke="black" points="870,-60.5 870,-81.5 954,-81.5 954,-60.5 870,-60.5"/>
<text text-anchor="middle" x="912" y="-68.5" font-family="Helvetica,sans-Serif" font-size="10.00">gaia::ui::Switch</text>
</a>
</g>
<!-- Node7&#45;&gt;Node10 -->
<g id="edge18" class="edge"><title>Node7&#45;&gt;Node10</title>
<path fill="none" stroke="midnightblue" d="M813.319,-82.3426C832.682,-80.117 852.831,-77.8011 869.835,-75.8465"/>
<polygon fill="midnightblue" stroke="midnightblue" points="812.821,-78.8767 803.286,-83.4958 813.621,-85.8309 812.821,-78.8767"/>
</g>
<!-- Node11 -->
<g id="node21" class="node"><title>Node11</title>
<a xlink:href="../../d0/dde/classgaia_1_1ui_1_1_toggle_button.html" target="_top" xlink:title="Displays checked/unchecked states as a button with a &quot;light&quot; indicator and by default accompanied wit...">
<polygon fill="white" stroke="black" points="856,-20.5 856,-41.5 968,-41.5 968,-20.5 856,-20.5"/>
<text text-anchor="middle" x="912" y="-28.5" font-family="Helvetica,sans-Serif" font-size="10.00">gaia::ui::ToggleButton</text>
</a>
</g>
<!-- Node7&#45;&gt;Node11 -->
<g id="edge20" class="edge"><title>Node7&#45;&gt;Node11</title>
<path fill="none" stroke="midnightblue" d="M800.18,-77.7126C806.951,-75.7121 813.674,-73.4766 820,-71 837.044,-64.3273 839.325,-58.5479 856,-51 863.524,-47.5942 871.814,-44.3639 879.657,-41.532"/>
<polygon fill="midnightblue" stroke="midnightblue" points="798.961,-74.4188 790.269,-80.4761 800.842,-81.1616 798.961,-74.4188"/>
</g>
<!-- Node13 -->
<g id="node25" class="node"><title>Node13</title>
<a xlink:href="../../d8/d8f/classgaia_1_1service_1_1_extract_edit_widget.html" target="_top" xlink:title="Specialization of EditWidget for showing and interacting with the extracted text in a full&#45;screen inp...">
<polygon fill="white" stroke="black" points="659,-40.5 659,-61.5 817,-61.5 817,-40.5 659,-40.5"/>
<text text-anchor="middle" x="738" y="-48.5" font-family="Helvetica,sans-Serif" font-size="10.00">gaia::service::ExtractEditWidget</text>
</a>
</g>
<!-- Node12&#45;&gt;Node13 -->
<g id="edge24" class="edge"><title>Node12&#45;&gt;Node13</title>
<path fill="none" stroke="midnightblue" d="M614.187,-51C628.423,-51 643.78,-51 658.673,-51"/>
<polygon fill="midnightblue" stroke="midnightblue" points="614.042,-47.5001 604.042,-51 614.042,-54.5001 614.042,-47.5001"/>
</g>
<!-- Node14 -->
<g id="node27" class="node"><title>Node14</title>
<a xlink:href="../../d5/d45/classgaia_1_1ui_1_1_auto_complete_edit_widget.html" target="_top" xlink:title="An editable TextView that shows completion suggestions automatically while the user is typing...">
<polygon fill="white" stroke="black" points="656,-0.5 656,-21.5 820,-21.5 820,-0.5 656,-0.5"/>
<text text-anchor="middle" x="738" y="-8.5" font-family="Helvetica,sans-Serif" font-size="10.00">gaia::ui::AutoCompleteEditWidget</text>
</a>
</g>
<!-- Node12&#45;&gt;Node14 -->
<g id="edge26" class="edge"><title>Node12&#45;&gt;Node14</title>
<path fill="none" stroke="midnightblue" d="M611.71,-38.3059C636.738,-32.8944 665.593,-26.6557 689.397,-21.5087"/>
<polygon fill="midnightblue" stroke="midnightblue" points="610.641,-34.9561 601.607,-40.4905 612.12,-41.798 610.641,-34.9561"/>
</g>
</g>
</svg>
