<?xml version="1.0" encoding="UTF-8" standalone="no"?>
<!DOCTYPE svg PUBLIC "-//W3C//DTD SVG 1.1//EN"
 "http://www.w3.org/Graphics/SVG/1.1/DTD/svg11.dtd">
<!-- Generated by graphviz version 2.26.3 (20100126.1600)
 -->
<!-- Title: G Pages: 1 -->
<svg width="466pt" height="320pt"
 viewBox="0.00 0.00 466.00 320.00" xmlns="http://www.w3.org/2000/svg" xmlns:xlink="http://www.w3.org/1999/xlink">
<g id="graph1" class="graph" transform="scale(1 1) rotate(0) translate(4 316)">
<title>G</title>
<polygon fill="white" stroke="white" points="-4,5 -4,-316 463,-316 463,5 -4,5"/>
<!-- Node1 -->
<g id="node1" class="node"><title>Node1</title>
<polygon fill="#bfbfbf" stroke="black" points="164,-58.5 164,-79.5 294,-79.5 294,-58.5 164,-58.5"/>
<text text-anchor="middle" x="229" y="-66.5" font-family="Helvetica,sans-Serif" font-size="10.00">gaia::ui::CompoundButton</text>
</g>
<!-- Node7 -->
<g id="node13" class="node"><title>Node7</title>
<a xlink:href="../../da/d14/classgaia_1_1ui_1_1_check_box.html" target="_top" xlink:title="A checkbox is a specific type of two&#45;states button that can be either checked or unchecked.">
<polygon fill="white" stroke="black" points="0,-0.5 0,-21.5 100,-21.5 100,-0.5 0,-0.5"/>
<text text-anchor="middle" x="50" y="-8.5" font-family="Helvetica,sans-Serif" font-size="10.00">gaia::ui::CheckBox</text>
</a>
</g>
<!-- Node1&#45;&gt;Node7 -->
<g id="edge12" class="edge"><title>Node1&#45;&gt;Node7</title>
<path fill="none" stroke="midnightblue" d="M187.067,-55.4127C155.13,-45.0646 111.804,-31.0258 82.4763,-21.5231"/>
<polygon fill="midnightblue" stroke="midnightblue" points="185.992,-58.7437 196.584,-58.4966 188.15,-52.0845 185.992,-58.7437"/>
</g>
<!-- Node8 -->
<g id="node15" class="node"><title>Node8</title>
<a xlink:href="../../df/d02/classgaia_1_1ui_1_1_radio_button.html" target="_top" xlink:title="A radio button is a two&#45;states button that can be either checked or unchecked.">
<polygon fill="white" stroke="black" points="118,-0.5 118,-21.5 226,-21.5 226,-0.5 118,-0.5"/>
<text text-anchor="middle" x="172" y="-8.5" font-family="Helvetica,sans-Serif" font-size="10.00">gaia::ui::RadioButton</text>
</a>
</g>
<!-- Node1&#45;&gt;Node8 -->
<g id="edge14" class="edge"><title>Node1&#45;&gt;Node8</title>
<path fill="none" stroke="midnightblue" d="M211.426,-51.118C201.913,-41.4377 190.486,-29.8098 182.388,-21.5707"/>
<polygon fill="midnightblue" stroke="midnightblue" points="209.04,-53.6829 218.545,-58.3619 214.032,-48.7763 209.04,-53.6829"/>
</g>
<!-- Node9 -->
<g id="node17" class="node"><title>Node9</title>
<a xlink:href="../../df/dc7/classgaia_1_1ui_1_1_switch.html" target="_top" xlink:title="A Switch is a two&#45;state toggle switch widget that can select between two options.">
<polygon fill="white" stroke="black" points="244,-0.5 244,-21.5 328,-21.5 328,-0.5 244,-0.5"/>
<text text-anchor="middle" x="286" y="-8.5" font-family="Helvetica,sans-Serif" font-size="10.00">gaia::ui::Switch</text>
</a>
</g>
<!-- Node1&#45;&gt;Node9 -->
<g id="edge16" class="edge"><title>Node1&#45;&gt;Node9</title>
<path fill="none" stroke="midnightblue" d="M246.574,-51.118C256.087,-41.4377 267.514,-29.8098 275.612,-21.5707"/>
<polygon fill="midnightblue" stroke="midnightblue" points="243.968,-48.7763 239.455,-58.3619 248.96,-53.6829 243.968,-48.7763"/>
</g>
<!-- Node10 -->
<g id="node19" class="node"><title>Node10</title>
<a xlink:href="../../d0/dde/classgaia_1_1ui_1_1_toggle_button.html" target="_top" xlink:title="Displays checked/unchecked states as a button with a &quot;light&quot; indicator and by default accompanied wit...">
<polygon fill="white" stroke="black" points="346,-0.5 346,-21.5 458,-21.5 458,-0.5 346,-0.5"/>
<text text-anchor="middle" x="402" y="-8.5" font-family="Helvetica,sans-Serif" font-size="10.00">gaia::ui::ToggleButton</text>
</a>
</g>
<!-- Node1&#45;&gt;Node10 -->
<g id="edge18" class="edge"><title>Node1&#45;&gt;Node10</title>
<path fill="none" stroke="midnightblue" d="M269.927,-55.2787C300.754,-44.9437 342.39,-30.9849 370.612,-21.5231"/>
<polygon fill="midnightblue" stroke="midnightblue" points="268.698,-51.9994 260.329,-58.4966 270.923,-58.6363 268.698,-51.9994"/>
</g>
<!-- Node2 -->
<g id="node2" class="node"><title>Node2</title>
<a xlink:href="../../dc/d51/classgaia_1_1ui_1_1_button.html" target="_top" xlink:title="Represents a push&#45;button widget.">
<polygon fill="white" stroke="black" points="187.5,-116.5 187.5,-137.5 270.5,-137.5 270.5,-116.5 187.5,-116.5"/>
<text text-anchor="middle" x="229" y="-124.5" font-family="Helvetica,sans-Serif" font-size="10.00">gaia::ui::Button</text>
</a>
</g>
<!-- Node2&#45;&gt;Node1 -->
<g id="edge2" class="edge"><title>Node2&#45;&gt;Node1</title>
<path fill="none" stroke="midnightblue" d="M229,-106.191C229,-97.1684 229,-86.9941 229,-79.5707"/>
<polygon fill="midnightblue" stroke="midnightblue" points="225.5,-106.362 229,-116.362 232.5,-106.362 225.5,-106.362"/>
</g>
<!-- Node3 -->
<g id="node4" class="node"><title>Node3</title>
<a xlink:href="../../d9/d0f/classgaia_1_1ui_1_1_text_widget.html" target="_top" xlink:title="Displays text to the user and optionally allows them to edit it.">
<polygon fill="white" stroke="black" points="177,-174.5 177,-195.5 281,-195.5 281,-174.5 177,-174.5"/>
<text text-anchor="middle" x="229" y="-182.5" font-family="Helvetica,sans-Serif" font-size="10.00">gaia::ui::TextWidget</text>
</a>
</g>
<!-- Node3&#45;&gt;Node2 -->
<g id="edge4" class="edge"><title>Node3&#45;&gt;Node2</title>
<path fill="none" stroke="midnightblue" d="M229,-164.191C229,-155.168 229,-144.994 229,-137.571"/>
<polygon fill="midnightblue" stroke="midnightblue" points="225.5,-164.362 229,-174.362 232.5,-164.362 225.5,-164.362"/>
</g>
<!-- Node4 -->
<g id="node6" class="node"><title>Node4</title>
<a xlink:href="../../d8/dac/classgaia_1_1core_1_1_widget.html" target="_top" xlink:title="The Widget class is the base class of all user interface component.">
<polygon fill="white" stroke="black" points="118,-232.5 118,-253.5 214,-253.5 214,-232.5 118,-232.5"/>
<text text-anchor="middle" x="166" y="-240.5" font-family="Helvetica,sans-Serif" font-size="10.00">gaia::core::Widget</text>
</a>
</g>
<!-- Node4&#45;&gt;Node3 -->
<g id="edge6" class="edge"><title>Node4&#45;&gt;Node3</title>
<path fill="none" stroke="midnightblue" d="M185.112,-225.405C195.688,-215.668 208.48,-203.891 217.518,-195.571"/>
<polygon fill="midnightblue" stroke="midnightblue" points="182.542,-223.014 177.555,-232.362 187.283,-228.164 182.542,-223.014"/>
</g>
<!-- Node5 -->
<g id="node8" class="node"><title>Node5</title>
<a xlink:href="../../d0/db2/classgaia_1_1core_1_1_property_animatable.html" target="_top" xlink:title="Any animation object need to implement PropertyAnimatable because of setting value.">
<polygon fill="white" stroke="black" points="90.5,-290.5 90.5,-311.5 241.5,-311.5 241.5,-290.5 90.5,-290.5"/>
<text text-anchor="middle" x="166" y="-298.5" font-family="Helvetica,sans-Serif" font-size="10.00">gaia::core::PropertyAnimatable</text>
</a>
</g>
<!-- Node5&#45;&gt;Node4 -->
<g id="edge8" class="edge"><title>Node5&#45;&gt;Node4</title>
<path fill="none" stroke="midnightblue" d="M166,-280.191C166,-271.168 166,-260.994 166,-253.571"/>
<polygon fill="midnightblue" stroke="midnightblue" points="162.5,-280.362 166,-290.362 169.5,-280.362 162.5,-280.362"/>
</g>
<!-- Node6 -->
<g id="node10" class="node"><title>Node6</title>
<a xlink:href="../../dd/de0/classgaia_1_1core_1_1_event_control.html" target="_top" xlink:title="EventControl is used to dispatch event and register listener.">
<polygon fill="white" stroke="black" points="232,-232.5 232,-253.5 354,-253.5 354,-232.5 232,-232.5"/>
<text text-anchor="middle" x="293" y="-240.5" font-family="Helvetica,sans-Serif" font-size="10.00">gaia::core::EventControl</text>
</a>
</g>
<!-- Node6&#45;&gt;Node3 -->
<g id="edge10" class="edge"><title>Node6&#45;&gt;Node3</title>
<path fill="none" stroke="midnightblue" d="M273.585,-225.405C262.841,-215.668 249.846,-203.891 240.664,-195.571"/>
<polygon fill="midnightblue" stroke="midnightblue" points="271.501,-228.24 281.261,-232.362 276.202,-223.053 271.501,-228.24"/>
</g>
</g>
</svg>
