<?xml version="1.0" encoding="UTF-8" standalone="no"?>
<!DOCTYPE svg PUBLIC "-//W3C//DTD SVG 1.1//EN"
 "http://www.w3.org/Graphics/SVG/1.1/DTD/svg11.dtd">
<!-- Generated by graphviz version 2.26.3 (20100126.1600)
 -->
<!-- Title: G Pages: 1 -->
<svg width="802pt" height="434pt"
 viewBox="0.00 0.00 802.00 433.65" xmlns="http://www.w3.org/2000/svg" xmlns:xlink="http://www.w3.org/1999/xlink">
<g id="graph1" class="graph" transform="scale(1 1) rotate(0) translate(4 429.645)">
<title>G</title>
<polygon fill="white" stroke="white" points="-4,5 -4,-429.645 799,-429.645 799,5 -4,5"/>
<!-- Node1 -->
<g id="node1" class="node"><title>Node1</title>
<polygon fill="#bfbfbf" stroke="black" points="0.5,-174.793 0.5,-195.793 115.5,-195.793 115.5,-174.793 0.5,-174.793"/>
<text text-anchor="middle" x="58" y="-182.793" font-family="Helvetica,sans-Serif" font-size="10.00">gaia::base::VectorImpl</text>
</g>
<!-- Node2 -->
<g id="node3" class="node"><title>Node2</title>
<a xlink:href="../../df/d5d/classgaia_1_1base_1_1_vector.html" target="_top" xlink:title="This class implements the vector data structure.">
<polygon fill="white" stroke="black" points="154,-209.793 154,-230.793 294,-230.793 294,-209.793 154,-209.793"/>
<text text-anchor="middle" x="224" y="-217.793" font-family="Helvetica,sans-Serif" font-size="10.00">gaia::base::Vector&lt; TYPE &gt;</text>
</a>
</g>
<!-- Node1&#45;&gt;Node2 -->
<g id="edge2" class="edge"><title>Node1&#45;&gt;Node2</title>
<path fill="none" stroke="#8b1a1a" d="M117.83,-197.908C136.227,-201.786 156.274,-206.013 173.943,-209.739"/>
<polygon fill="#8b1a1a" stroke="#8b1a1a" points="118.312,-194.432 107.805,-195.794 116.868,-201.282 118.312,-194.432"/>
</g>
<!-- Node3 -->
<g id="node5" class="node"><title>Node3</title>
<a xlink:href="../../df/d5d/classgaia_1_1base_1_1_vector.html" target="_top" xlink:title="gaia::base::Vector\&lt; gaia::ui::DialogBox * \&gt;">
<polygon fill="white" stroke="black" points="553.5,-277.793 553.5,-298.793 756.5,-298.793 756.5,-277.793 553.5,-277.793"/>
<text text-anchor="middle" x="655" y="-285.793" font-family="Helvetica,sans-Serif" font-size="10.00">gaia::base::Vector&lt; gaia::ui::DialogBox * &gt;</text>
</a>
</g>
<!-- Node1&#45;&gt;Node3 -->
<g id="edge20" class="edge"><title>Node1&#45;&gt;Node3</title>
<path fill="none" stroke="#8b1a1a" d="M80.043,-201.744C122.316,-232.106 218.87,-295.808 312,-317.293 421.184,-342.482 554.43,-315.216 617.92,-298.821"/>
<polygon fill="#8b1a1a" stroke="#8b1a1a" points="82.0132,-198.849 71.8671,-195.798 77.8962,-204.511 82.0132,-198.849"/>
</g>
<!-- Node4 -->
<g id="node7" class="node"><title>Node4</title>
<a xlink:href="../../df/d5d/classgaia_1_1base_1_1_vector.html" target="_top" xlink:title="gaia::base::Vector\&lt; PluginMetaDataInfo * \&gt;">
<polygon fill="white" stroke="black" points="551.5,-338.793 551.5,-359.793 758.5,-359.793 758.5,-338.793 551.5,-338.793"/>
<text text-anchor="middle" x="655" y="-346.793" font-family="Helvetica,sans-Serif" font-size="10.00">gaia::base::Vector&lt; PluginMetaDataInfo * &gt;</text>
</a>
</g>
<!-- Node1&#45;&gt;Node4 -->
<g id="edge26" class="edge"><title>Node1&#45;&gt;Node4</title>
<path fill="none" stroke="#8b1a1a" d="M71.4524,-204.413C88.6009,-227.784 120.113,-267.519 154,-294.293 216.402,-343.598 234.832,-359.055 312,-378.293 392.212,-398.29 415.678,-385.832 498,-378.293 536.229,-374.792 579.047,-366.591 610.299,-359.8"/>
<polygon fill="#8b1a1a" stroke="#8b1a1a" points="74.1004,-202.101 65.4108,-196.039 68.4238,-206.197 74.1004,-202.101"/>
</g>
<!-- Node5 -->
<g id="node9" class="node"><title>Node5</title>
<a xlink:href="../../df/d5d/classgaia_1_1base_1_1_vector.html" target="_top" xlink:title="gaia::base::Vector\&lt; int32_t \&gt;">
<polygon fill="white" stroke="black" points="583.5,-386.793 583.5,-407.793 726.5,-407.793 726.5,-386.793 583.5,-386.793"/>
<text text-anchor="middle" x="655" y="-394.793" font-family="Helvetica,sans-Serif" font-size="10.00">gaia::base::Vector&lt; int32_t &gt;</text>
</a>
</g>
<!-- Node1&#45;&gt;Node5 -->
<g id="edge22" class="edge"><title>Node1&#45;&gt;Node5</title>
<path fill="none" stroke="#8b1a1a" d="M64.7713,-206.088C77.0355,-240.516 106.18,-309.317 154,-347.293 288.336,-453.976 511.134,-426.476 607.818,-407.828"/>
<polygon fill="#8b1a1a" stroke="#8b1a1a" points="67.9352,-204.524 61.3803,-196.2 61.3138,-206.795 67.9352,-204.524"/>
</g>
<!-- Node6 -->
<g id="node11" class="node"><title>Node6</title>
<a xlink:href="../../df/d5d/classgaia_1_1base_1_1_vector.html" target="_top" xlink:title="gaia::base::Vector\&lt; MediaCodecInfo::CodecProfileLevel * \&gt;">
<polygon fill="white" stroke="black" points="516,-23.7929 516,-44.7929 794,-44.7929 794,-23.7929 516,-23.7929"/>
<text text-anchor="middle" x="655" y="-31.7929" font-family="Helvetica,sans-Serif" font-size="10.00">gaia::base::Vector&lt; MediaCodecInfo::CodecProfileLevel * &gt;</text>
</a>
</g>
<!-- Node1&#45;&gt;Node6 -->
<g id="edge24" class="edge"><title>Node1&#45;&gt;Node6</title>
<path fill="none" stroke="#8b1a1a" d="M65.9926,-165.051C79.1938,-134.672 108.685,-78.2018 154,-53.2929 304.457,29.4116 520.492,-4.05285 611.725,-23.7683"/>
<polygon fill="#8b1a1a" stroke="#8b1a1a" points="62.6233,-164.037 62.0033,-174.613 69.0837,-166.732 62.6233,-164.037"/>
</g>
<!-- Node7 -->
<g id="node13" class="node"><title>Node7</title>
<a xlink:href="../../df/d5d/classgaia_1_1base_1_1_vector.html" target="_top" xlink:title="gaia::base::Vector\&lt; Vector\&lt; TYPE \&gt; \&gt;">
<polygon fill="white" stroke="black" points="561.5,-185.793 561.5,-206.793 748.5,-206.793 748.5,-185.793 561.5,-185.793"/>
<text text-anchor="middle" x="655" y="-193.793" font-family="Helvetica,sans-Serif" font-size="10.00">gaia::base::Vector&lt; Vector&lt; TYPE &gt; &gt;</text>
</a>
</g>
<!-- Node1&#45;&gt;Node7 -->
<g id="edge30" class="edge"><title>Node1&#45;&gt;Node7</title>
<path fill="none" stroke="#8b1a1a" d="M125.932,-180.381C212.436,-174.935 366.475,-167.949 498,-176.293 527.342,-178.154 559.583,-181.954 587.174,-185.746"/>
<polygon fill="#8b1a1a" stroke="#8b1a1a" points="125.479,-176.902 115.724,-181.036 125.928,-183.888 125.479,-176.902"/>
</g>
<!-- Node8 -->
<g id="node15" class="node"><title>Node8</title>
<a xlink:href="../../df/d5d/classgaia_1_1base_1_1_vector.html" target="_top" xlink:title="gaia::base::Vector\&lt; RemovedObject * \&gt;">
<polygon fill="white" stroke="black" points="559.5,-72.7929 559.5,-93.7929 750.5,-93.7929 750.5,-72.7929 559.5,-72.7929"/>
<text text-anchor="middle" x="655" y="-80.7929" font-family="Helvetica,sans-Serif" font-size="10.00">gaia::base::Vector&lt; RemovedObject * &gt;</text>
</a>
</g>
<!-- Node1&#45;&gt;Node8 -->
<g id="edge28" class="edge"><title>Node1&#45;&gt;Node8</title>
<path fill="none" stroke="#8b1a1a" d="M77.4147,-168.084C96.0392,-152.24 125.468,-128.896 154,-113.293 219.766,-77.3268 238.235,-67.6161 312,-54.2929 419.474,-34.8811 548.299,-57.9627 613.222,-72.7609"/>
<polygon fill="#8b1a1a" stroke="#8b1a1a" points="74.9406,-165.596 69.6599,-174.781 79.5159,-170.894 74.9406,-165.596"/>
</g>
<!-- Node9 -->
<g id="node17" class="node"><title>Node9</title>
<a xlink:href="../../df/d5d/classgaia_1_1base_1_1_vector.html" target="_top" xlink:title="gaia::base::Vector\&lt; EmptyTestEventListener * \&gt;">
<polygon fill="white" stroke="black" points="540.5,-117.793 540.5,-138.793 769.5,-138.793 769.5,-117.793 540.5,-117.793"/>
<text text-anchor="middle" x="655" y="-125.793" font-family="Helvetica,sans-Serif" font-size="10.00">gaia::base::Vector&lt; EmptyTestEventListener * &gt;</text>
</a>
</g>
<!-- Node1&#45;&gt;Node9 -->
<g id="edge18" class="edge"><title>Node1&#45;&gt;Node9</title>
<path fill="none" stroke="#8b1a1a" d="M95.9923,-171.357C145.076,-154.164 233.547,-125.905 312,-115.293 393.921,-104.211 415.404,-111.879 498,-115.293 512.073,-115.875 526.838,-116.748 541.447,-117.773"/>
<polygon fill="#8b1a1a" stroke="#8b1a1a" points="94.6836,-168.108 86.4246,-174.744 97.0194,-174.707 94.6836,-168.108"/>
</g>
<!-- Node2&#45;&gt;Node3 -->
<g id="edge4" class="edge"><title>Node2&#45;&gt;Node3</title>
<path fill="none" stroke="orange" stroke-dasharray="5,2" d="M300.241,-232.43C304.218,-233.061 308.156,-233.685 312,-234.293 407.861,-249.464 518.811,-266.911 587.956,-277.771"/>
<polygon fill="orange" stroke="orange" points="300.733,-228.964 290.308,-230.854 299.636,-235.878 300.733,-228.964"/>
<text text-anchor="middle" x="405" y="-266.293" font-family="Helvetica,sans-Serif" font-size="10.00"> &lt; gaia::ui::DialogBox * &gt;</text>
</g>
<!-- Node2&#45;&gt;Node4 -->
<g id="edge6" class="edge"><title>Node2&#45;&gt;Node4</title>
<path fill="none" stroke="orange" stroke-dasharray="5,2" d="M244.596,-237.514C261.63,-250.88 286.999,-268.841 312,-279.293 360.924,-299.746 502.52,-324.84 587.719,-338.745"/>
<polygon fill="orange" stroke="orange" points="246.483,-234.54 236.494,-231.007 242.099,-239.997 246.483,-234.54"/>
<text text-anchor="middle" x="405" y="-325.293" font-family="Helvetica,sans-Serif" font-size="10.00"> &lt; PluginMetaDataInfo * &gt;</text>
</g>
<!-- Node2&#45;&gt;Node5 -->
<g id="edge8" class="edge"><title>Node2&#45;&gt;Node5</title>
<path fill="none" stroke="orange" stroke-dasharray="5,2" d="M232.876,-240.155C246.028,-267.103 273.367,-314.597 312,-338.293 395.183,-389.313 509.921,-399.441 583.295,-399.966"/>
<polygon fill="orange" stroke="orange" points="235.959,-238.486 228.536,-230.926 229.624,-241.465 235.959,-238.486"/>
<text text-anchor="middle" x="405" y="-397.293" font-family="Helvetica,sans-Serif" font-size="10.00"> &lt; int32_t &gt;</text>
</g>
<!-- Node2&#45;&gt;Node6 -->
<g id="edge10" class="edge"><title>Node2&#45;&gt;Node6</title>
<path fill="none" stroke="orange" stroke-dasharray="5,2" d="M230.59,-199.919C241.849,-168.684 267.941,-109.613 312,-81.2929 371.788,-42.8619 449.526,-29.9064 515.875,-27.0912"/>
<polygon fill="orange" stroke="orange" points="227.165,-199.116 227.222,-209.71 233.785,-201.393 227.165,-199.116"/>
<text text-anchor="middle" x="405" y="-85.2929" font-family="Helvetica,sans-Serif" font-size="10.00"> &lt; MediaCodecInfo::CodecProfileLevel * &gt;</text>
</g>
<!-- Node2&#45;&gt;Node7 -->
<g id="edge12" class="edge"><title>Node2&#45;&gt;Node7</title>
<path fill="none" stroke="orange" stroke-dasharray="5,2" d="M304.464,-217.962C359.087,-216.159 432.936,-213.291 498,-209.293 518.474,-208.035 540.427,-206.398 561.235,-204.713"/>
<polygon fill="orange" stroke="orange" points="304.031,-214.474 294.15,-218.297 304.258,-221.471 304.031,-214.474"/>
<text text-anchor="middle" x="405" y="-221.293" font-family="Helvetica,sans-Serif" font-size="10.00"> &lt; Vector&lt; TYPE &gt; &gt;</text>
</g>
<!-- Node2&#45;&gt;Node8 -->
<g id="edge14" class="edge"><title>Node2&#45;&gt;Node8</title>
<path fill="none" stroke="orange" stroke-dasharray="5,2" d="M237.706,-201.704C253.339,-182.003 280.807,-151.659 312,-136.293 354.364,-115.424 473.445,-100.24 559.412,-91.6044"/>
<polygon fill="orange" stroke="orange" points="234.901,-199.611 231.57,-209.668 240.446,-203.883 234.901,-199.611"/>
<text text-anchor="middle" x="405" y="-140.293" font-family="Helvetica,sans-Serif" font-size="10.00"> &lt; RemovedObject * &gt;</text>
</g>
<!-- Node2&#45;&gt;Node9 -->
<g id="edge16" class="edge"><title>Node2&#45;&gt;Node9</title>
<path fill="none" stroke="orange" stroke-dasharray="5,2" d="M263.408,-206.609C278.49,-201.675 295.929,-196.333 312,-192.293 405.264,-168.85 514.758,-149.871 584.488,-138.834"/>
<polygon fill="orange" stroke="orange" points="262.262,-203.301 253.875,-209.775 264.468,-209.944 262.262,-203.301"/>
<text text-anchor="middle" x="405" y="-196.293" font-family="Helvetica,sans-Serif" font-size="10.00"> &lt; EmptyTestEventListener * &gt;</text>
</g>
</g>
</svg>
