<?xml version="1.0" encoding="UTF-8" standalone="no"?>
<!DOCTYPE svg PUBLIC "-//W3C//DTD SVG 1.1//EN"
 "http://www.w3.org/Graphics/SVG/1.1/DTD/svg11.dtd">
<!-- Generated by graphviz version 2.26.3 (20100126.1600)
 -->
<!-- Title: G Pages: 1 -->
<svg width="513pt" height="262pt"
 viewBox="0.00 0.00 513.00 262.00" xmlns="http://www.w3.org/2000/svg" xmlns:xlink="http://www.w3.org/1999/xlink">
<g id="graph1" class="graph" transform="scale(1 1) rotate(0) translate(4 258)">
<title>G</title>
<polygon fill="white" stroke="white" points="-4,5 -4,-258 510,-258 510,5 -4,5"/>
<!-- Node1 -->
<g id="node1" class="node"><title>Node1</title>
<polygon fill="#bfbfbf" stroke="black" points="0,-232.5 0,-253.5 298,-253.5 298,-232.5 0,-232.5"/>
<text text-anchor="middle" x="149" y="-240.5" font-family="Helvetica,sans-Serif" font-size="10.00">/home/vilon_tao/gaia/sdk/include/gaia/text/method/KeyListener.h</text>
</g>
<!-- Node2 -->
<g id="node3" class="node"><title>Node2</title>
<a xlink:href="../../d1/dd0/gmacros_8h.html" target="_top" xlink:title="gaia/base/gmacros.h">
<polygon fill="white" stroke="black" points="14.5,-174.5 14.5,-195.5 121.5,-195.5 121.5,-174.5 14.5,-174.5"/>
<text text-anchor="middle" x="68" y="-182.5" font-family="Helvetica,sans-Serif" font-size="10.00">gaia/base/gmacros.h</text>
</a>
</g>
<!-- Node1&#45;&gt;Node2 -->
<g id="edge2" class="edge"><title>Node1&#45;&gt;Node2</title>
<path fill="none" stroke="midnightblue" d="M134.143,-232.362C122.154,-223.777 105.073,-211.546 91.2715,-201.664"/>
<polygon fill="midnightblue" stroke="midnightblue" points="92.9307,-198.547 82.7625,-195.571 88.8554,-204.238 92.9307,-198.547"/>
</g>
<!-- Node3 -->
<g id="node5" class="node"><title>Node3</title>
<polygon fill="white" stroke="#bfbfbf" points="171.5,-0.5 171.5,-21.5 220.5,-21.5 220.5,-0.5 171.5,-0.5"/>
<text text-anchor="middle" x="196" y="-8.5" font-family="Helvetica,sans-Serif" font-size="10.00">stdint.h</text>
</g>
<!-- Node1&#45;&gt;Node3 -->
<g id="edge4" class="edge"><title>Node1&#45;&gt;Node3</title>
<path fill="none" stroke="midnightblue" d="M148.512,-232.235C147.534,-203.245 146.988,-121.445 168,-58 171.254,-48.1736 176.812,-38.1956 182.123,-29.976"/>
<polygon fill="midnightblue" stroke="midnightblue" points="185.131,-31.7774 187.878,-21.5448 179.349,-27.8312 185.131,-31.7774"/>
</g>
<!-- Node4 -->
<g id="node7" class="node"><title>Node4</title>
<a xlink:href="../../dd/d79/_key_event_8h.html" target="_top" xlink:title="gaia/core/event/KeyEvent.h">
<polygon fill="white" stroke="black" points="317.5,-174.5 317.5,-195.5 454.5,-195.5 454.5,-174.5 317.5,-174.5"/>
<text text-anchor="middle" x="386" y="-182.5" font-family="Helvetica,sans-Serif" font-size="10.00">gaia/core/event/KeyEvent.h</text>
</a>
</g>
<!-- Node1&#45;&gt;Node4 -->
<g id="edge6" class="edge"><title>Node1&#45;&gt;Node4</title>
<path fill="none" stroke="midnightblue" d="M191.919,-232.497C231.56,-222.795 290.568,-208.355 333.106,-197.945"/>
<polygon fill="midnightblue" stroke="midnightblue" points="334.119,-201.3 343.001,-195.523 332.455,-194.501 334.119,-201.3"/>
</g>
<!-- Node5 -->
<g id="node9" class="node"><title>Node5</title>
<a xlink:href="../../db/db5/_string_8h.html" target="_top" xlink:title="gaia/base/String.h">
<polygon fill="white" stroke="black" points="338.5,-116.5 338.5,-137.5 433.5,-137.5 433.5,-116.5 338.5,-116.5"/>
<text text-anchor="middle" x="386" y="-124.5" font-family="Helvetica,sans-Serif" font-size="10.00">gaia/base/String.h</text>
</a>
</g>
<!-- Node4&#45;&gt;Node5 -->
<g id="edge8" class="edge"><title>Node4&#45;&gt;Node5</title>
<path fill="none" stroke="midnightblue" d="M386,-174.362C386,-166.922 386,-156.743 386,-147.728"/>
<polygon fill="midnightblue" stroke="midnightblue" points="389.5,-147.571 386,-137.571 382.5,-147.571 389.5,-147.571"/>
</g>
<!-- Node8 -->
<g id="node16" class="node"><title>Node8</title>
<polygon fill="white" stroke="#bfbfbf" points="437,-0.5 437,-21.5 505,-21.5 505,-0.5 437,-0.5"/>
<text text-anchor="middle" x="471" y="-8.5" font-family="Helvetica,sans-Serif" font-size="10.00">sys/types.h</text>
</g>
<!-- Node4&#45;&gt;Node8 -->
<g id="edge20" class="edge"><title>Node4&#45;&gt;Node8</title>
<path fill="none" stroke="midnightblue" d="M401.774,-174.482C413.92,-165.788 430.52,-152.547 442,-138 459.854,-115.376 464.378,-108.049 471,-80 474.735,-64.1769 474.51,-45.7379 473.474,-31.9039"/>
<polygon fill="midnightblue" stroke="midnightblue" points="476.957,-31.5597 472.529,-21.9345 469.988,-32.2202 476.957,-31.5597"/>
</g>
<!-- Node6 -->
<g id="node11" class="node"><title>Node6</title>
<a xlink:href="../../d7/d97/_char_sequence_8h.html" target="_top" xlink:title="gaia/base/CharSequence.h">
<polygon fill="white" stroke="black" points="177,-58.5 177,-79.5 311,-79.5 311,-58.5 177,-58.5"/>
<text text-anchor="middle" x="244" y="-66.5" font-family="Helvetica,sans-Serif" font-size="10.00">gaia/base/CharSequence.h</text>
</a>
</g>
<!-- Node5&#45;&gt;Node6 -->
<g id="edge10" class="edge"><title>Node5&#45;&gt;Node6</title>
<path fill="none" stroke="midnightblue" d="M360.285,-116.497C337.707,-107.275 304.642,-93.7695 279.537,-83.5153"/>
<polygon fill="midnightblue" stroke="midnightblue" points="280.585,-80.1624 270.004,-79.6212 277.938,-86.6427 280.585,-80.1624"/>
</g>
<!-- Node7 -->
<g id="node14" class="node"><title>Node7</title>
<a xlink:href="../../d6/d83/_hash_func_8h.html" target="_top" xlink:title="gaia/base/HashFunc.h">
<polygon fill="white" stroke="black" points="328.5,-58.5 328.5,-79.5 443.5,-79.5 443.5,-58.5 328.5,-58.5"/>
<text text-anchor="middle" x="386" y="-66.5" font-family="Helvetica,sans-Serif" font-size="10.00">gaia/base/HashFunc.h</text>
</a>
</g>
<!-- Node5&#45;&gt;Node7 -->
<g id="edge14" class="edge"><title>Node5&#45;&gt;Node7</title>
<path fill="none" stroke="midnightblue" d="M386,-116.362C386,-108.922 386,-98.7427 386,-89.7276"/>
<polygon fill="midnightblue" stroke="midnightblue" points="389.5,-89.5706 386,-79.5707 382.5,-89.5707 389.5,-89.5706"/>
</g>
<!-- Node5&#45;&gt;Node8 -->
<g id="edge18" class="edge"><title>Node5&#45;&gt;Node8</title>
<path fill="none" stroke="midnightblue" d="M408.049,-116.387C422.564,-108.322 440.874,-95.9073 452,-80 461.988,-65.7202 466.735,-46.377 468.985,-31.8044"/>
<polygon fill="midnightblue" stroke="midnightblue" points="472.474,-32.1155 470.265,-21.7535 465.53,-31.2312 472.474,-32.1155"/>
</g>
<!-- Node6&#45;&gt;Node3 -->
<g id="edge12" class="edge"><title>Node6&#45;&gt;Node3</title>
<path fill="none" stroke="midnightblue" d="M235.196,-58.3619C228.498,-50.2678 219.116,-38.9318 211.211,-29.3796"/>
<polygon fill="midnightblue" stroke="midnightblue" points="213.82,-27.0431 204.748,-21.5707 208.427,-31.5061 213.82,-27.0431"/>
</g>
<!-- Node7&#45;&gt;Node8 -->
<g id="edge16" class="edge"><title>Node7&#45;&gt;Node8</title>
<path fill="none" stroke="midnightblue" d="M401.59,-58.3619C414.291,-49.6955 432.438,-37.3126 446.992,-27.3819"/>
<polygon fill="midnightblue" stroke="midnightblue" points="449.221,-30.0982 455.509,-21.5707 445.276,-24.316 449.221,-30.0982"/>
</g>
</g>
</svg>
