<?xml version="1.0" encoding="UTF-8" standalone="no"?>
<!DOCTYPE svg PUBLIC "-//W3C//DTD SVG 1.1//EN"
 "http://www.w3.org/Graphics/SVG/1.1/DTD/svg11.dtd">
<!-- Generated by graphviz version 2.26.3 (20100126.1600)
 -->
<!-- Title: G Pages: 1 -->
<svg width="1286pt" height="171pt"
 viewBox="0.00 0.00 1286.00 171.00" xmlns="http://www.w3.org/2000/svg" xmlns:xlink="http://www.w3.org/1999/xlink">
<g id="graph1" class="graph" transform="scale(1 1) rotate(0) translate(4 167)">
<title>G</title>
<polygon fill="white" stroke="white" points="-4,5 -4,-167 1283,-167 1283,5 -4,5"/>
<!-- Node1 -->
<g id="node1" class="node"><title>Node1</title>
<polygon fill="#bfbfbf" stroke="black" points="500,-139.5 500,-160.5 588,-160.5 588,-139.5 500,-139.5"/>
<text text-anchor="middle" x="544" y="-147.5" font-family="Helvetica,sans-Serif" font-size="10.00">gaia::core::Page</text>
</g>
<!-- Node2 -->
<g id="node2" class="node"><title>Node2</title>
<a xlink:href="../../d5/dfb/classgaia_1_1core_1_1_scene.html" target="_top" xlink:title="A Scene is used to build a visual interface.">
<polygon fill="white" stroke="black" points="775.5,-101.5 775.5,-122.5 868.5,-122.5 868.5,-101.5 775.5,-101.5"/>
<text text-anchor="middle" x="822" y="-109.5" font-family="Helvetica,sans-Serif" font-size="10.00">gaia::core::Scene</text>
</a>
</g>
<!-- Node1&#45;&gt;Node2 -->
<g id="edge28" class="edge"><title>Node1&#45;&gt;Node2</title>
<path fill="none" stroke="#9a32cd" stroke-dasharray="5,2" d="M598.3,-152.406C635.176,-153.023 684.889,-151.861 728,-144 752.252,-139.578 778.741,-130.111 797.4,-122.616"/>
<polygon fill="#9a32cd" stroke="#9a32cd" points="598.329,-148.906 588.256,-152.189 598.178,-155.904 598.329,-148.906"/>
<text text-anchor="middle" x="696" y="-154" font-family="Helvetica,sans-Serif" font-size="10.00"> mpPage</text>
</g>
<!-- Node2&#45;&gt;Node1 -->
<g id="edge2" class="edge"><title>Node2&#45;&gt;Node1</title>
<path fill="none" stroke="#9a32cd" stroke-dasharray="5,2" d="M764.966,-118.338C734.896,-121.811 697.413,-126.348 664,-131 638.826,-134.505 610.764,-138.92 588.11,-142.612"/>
<polygon fill="#9a32cd" stroke="#9a32cd" points="765.739,-121.772 775.275,-117.155 764.941,-114.818 765.739,-121.772"/>
<text text-anchor="middle" x="696" y="-135" font-family="Helvetica,sans-Serif" font-size="10.00"> mpScene</text>
</g>
<!-- Node3 -->
<g id="node4" class="node"><title>Node3</title>
<a xlink:href="../../db/d6c/classgaia_1_1core_1_1_widget_controller.html" target="_top" xlink:title="Define the default widget layout to put sets of layout in it.">
<polygon fill="white" stroke="black" points="1140,-83.5 1140,-104.5 1278,-104.5 1278,-83.5 1140,-83.5"/>
<text text-anchor="middle" x="1209" y="-91.5" font-family="Helvetica,sans-Serif" font-size="10.00">gaia::core::WidgetController</text>
</a>
</g>
<!-- Node2&#45;&gt;Node3 -->
<g id="edge16" class="edge"><title>Node2&#45;&gt;Node3</title>
<path fill="none" stroke="#9a32cd" stroke-dasharray="5,2" d="M878.978,-109.35C948.368,-106.122 1065.51,-100.674 1139.95,-97.2116"/>
<polygon fill="#9a32cd" stroke="#9a32cd" points="878.508,-105.868 868.681,-109.829 878.833,-112.86 878.508,-105.868"/>
<text text-anchor="middle" x="1041" y="-108" font-family="Helvetica,sans-Serif" font-size="10.00"> mpScene</text>
</g>
<!-- Node4 -->
<g id="node6" class="node"><title>Node4</title>
<a xlink:href="../../d8/dac/classgaia_1_1core_1_1_widget.html" target="_top" xlink:title="The Widget class is the base class of all user interface component.">
<polygon fill="white" stroke="black" points="993,-54.5 993,-75.5 1089,-75.5 1089,-54.5 993,-54.5"/>
<text text-anchor="middle" x="1041" y="-62.5" font-family="Helvetica,sans-Serif" font-size="10.00">gaia::core::Widget</text>
</a>
</g>
<!-- Node2&#45;&gt;Node4 -->
<g id="edge10" class="edge"><title>Node2&#45;&gt;Node4</title>
<path fill="none" stroke="#9a32cd" stroke-dasharray="5,2" d="M864.837,-98.5119C880.79,-93.8029 899.119,-88.7604 916,-85 941.206,-79.3852 969.607,-74.7113 992.96,-71.2974"/>
<polygon fill="#9a32cd" stroke="#9a32cd" points="863.82,-95.1628 855.246,-101.386 865.83,-101.868 863.82,-95.1628"/>
<text text-anchor="middle" x="939" y="-89" font-family="Helvetica,sans-Serif" font-size="10.00"> mpScene</text>
</g>
<!-- Node3&#45;&gt;Node2 -->
<g id="edge4" class="edge"><title>Node3&#45;&gt;Node2</title>
<path fill="none" stroke="#9a32cd" stroke-dasharray="5,2" d="M1174.91,-108.368C1159.06,-114.572 1139.82,-121.438 1122,-126 1034.62,-148.375 928.333,-134.115 868.601,-122.517"/>
<polygon fill="#9a32cd" stroke="#9a32cd" points="1176.31,-111.578 1184.3,-104.617 1173.72,-105.078 1176.31,-111.578"/>
<text text-anchor="middle" x="1041" y="-141" font-family="Helvetica,sans-Serif" font-size="10.00"> mpController</text>
</g>
<!-- Node4&#45;&gt;Node3 -->
<g id="edge6" class="edge"><title>Node4&#45;&gt;Node3</title>
<path fill="none" stroke="midnightblue" d="M1099.27,-75.0578C1115,-77.7744 1132.08,-80.7214 1147.96,-83.4635"/>
<polygon fill="midnightblue" stroke="midnightblue" points="1099.59,-71.5624 1089.14,-73.3102 1098.4,-78.4603 1099.59,-71.5624"/>
</g>
<!-- Node5 -->
<g id="node8" class="node"><title>Node5</title>
<a xlink:href="../../d0/db2/classgaia_1_1core_1_1_property_animatable.html" target="_top" xlink:title="Any animation object need to implement PropertyAnimatable because of setting value.">
<polygon fill="white" stroke="black" points="746.5,-40.5 746.5,-61.5 897.5,-61.5 897.5,-40.5 746.5,-40.5"/>
<text text-anchor="middle" x="822" y="-48.5" font-family="Helvetica,sans-Serif" font-size="10.00">gaia::core::PropertyAnimatable</text>
</a>
</g>
<!-- Node5&#45;&gt;Node4 -->
<g id="edge8" class="edge"><title>Node5&#45;&gt;Node4</title>
<path fill="none" stroke="midnightblue" d="M907.774,-56.4833C936.639,-58.3285 967.816,-60.3216 992.747,-61.9154"/>
<polygon fill="midnightblue" stroke="midnightblue" points="907.877,-52.9828 897.674,-55.8376 907.43,-59.9685 907.877,-52.9828"/>
</g>
<!-- Node6 -->
<g id="node11" class="node"><title>Node6</title>
<a xlink:href="../../db/d88/classgaia_1_1core_1_1_widget_tag.html" target="_top" xlink:title="gaia::core::WidgetTag">
<polygon fill="white" stroke="black" points="765.5,-0.5 765.5,-21.5 878.5,-21.5 878.5,-0.5 765.5,-0.5"/>
<text text-anchor="middle" x="822" y="-8.5" font-family="Helvetica,sans-Serif" font-size="10.00">gaia::core::WidgetTag</text>
</a>
</g>
<!-- Node6&#45;&gt;Node4 -->
<g id="edge12" class="edge"><title>Node6&#45;&gt;Node4</title>
<path fill="none" stroke="#9a32cd" stroke-dasharray="5,2" d="M888.333,-23.2949C911.733,-28.0131 938.149,-33.7731 962,-40 978.007,-44.1789 995.575,-49.6483 1010.07,-54.4054"/>
<polygon fill="#9a32cd" stroke="#9a32cd" points="888.996,-19.8583 878.505,-21.3383 887.629,-26.7236 888.996,-19.8583"/>
<text text-anchor="middle" x="939" y="-44" font-family="Helvetica,sans-Serif" font-size="10.00"> mpTag</text>
</g>
<!-- Node7 -->
<g id="node13" class="node"><title>Node7</title>
<a xlink:href="../../dd/de0/classgaia_1_1core_1_1_event_control.html" target="_top" xlink:title="EventControl is used to dispatch event and register listener.">
<polygon fill="white" stroke="black" points="980,-14.5 980,-35.5 1102,-35.5 1102,-14.5 980,-14.5"/>
<text text-anchor="middle" x="1041" y="-22.5" font-family="Helvetica,sans-Serif" font-size="10.00">gaia::core::EventControl</text>
</a>
</g>
<!-- Node7&#45;&gt;Node3 -->
<g id="edge14" class="edge"><title>Node7&#45;&gt;Node3</title>
<path fill="none" stroke="midnightblue" d="M1085.02,-38.7746C1090.77,-40.7653 1096.55,-42.8658 1102,-45 1132.25,-56.8423 1166.2,-72.8764 1187.58,-83.327"/>
<polygon fill="midnightblue" stroke="midnightblue" points="1086.03,-35.4238 1075.44,-35.5414 1083.79,-42.0561 1086.03,-35.4238"/>
</g>
<!-- Node8 -->
<g id="node16" class="node"><title>Node8</title>
<a xlink:href="../../de/dad/classgaia_1_1content_1_1_resources.html" target="_top" xlink:title="Class for accessing an application&#39;s resources.">
<polygon fill="white" stroke="black" points="481,-83.5 481,-104.5 607,-104.5 607,-83.5 481,-83.5"/>
<text text-anchor="middle" x="544" y="-91.5" font-family="Helvetica,sans-Serif" font-size="10.00">gaia::content::Resources</text>
</a>
</g>
<!-- Node8&#45;&gt;Node2 -->
<g id="edge18" class="edge"><title>Node8&#45;&gt;Node2</title>
<path fill="none" stroke="#9a32cd" stroke-dasharray="5,2" d="M617.396,-91.4897C651.15,-91.0812 691.678,-91.6424 728,-95 743.523,-96.4349 760.32,-99.1081 775.362,-101.917"/>
<polygon fill="#9a32cd" stroke="#9a32cd" points="617.095,-87.9937 607.15,-91.6455 617.202,-94.9929 617.095,-87.9937"/>
<text text-anchor="middle" x="696" y="-99" font-family="Helvetica,sans-Serif" font-size="10.00"> mpResources</text>
</g>
<!-- Node9 -->
<g id="node18" class="node"><title>Node9</title>
<a xlink:href="../../df/d5d/classgaia_1_1base_1_1_vector.html" target="_top" xlink:title="gaia::base::Vector\&lt; gaia::ui::DialogBox * \&gt;">
<polygon fill="white" stroke="black" points="442.5,-43.5 442.5,-64.5 645.5,-64.5 645.5,-43.5 442.5,-43.5"/>
<text text-anchor="middle" x="544" y="-51.5" font-family="Helvetica,sans-Serif" font-size="10.00">gaia::base::Vector&lt; gaia::ui::DialogBox * &gt;</text>
</a>
</g>
<!-- Node9&#45;&gt;Node2 -->
<g id="edge20" class="edge"><title>Node9&#45;&gt;Node2</title>
<path fill="none" stroke="#9a32cd" stroke-dasharray="5,2" d="M655.858,-61.1722C679.878,-64.0951 704.958,-68.2092 728,-74 753.778,-80.4785 781.85,-92.5352 800.541,-101.336"/>
<polygon fill="#9a32cd" stroke="#9a32cd" points="655.974,-57.6623 645.638,-59.991 655.17,-64.616 655.974,-57.6623"/>
<text text-anchor="middle" x="696" y="-78" font-family="Helvetica,sans-Serif" font-size="10.00"> mDialogList</text>
</g>
<!-- Node10 -->
<g id="node20" class="node"><title>Node10</title>
<a xlink:href="../../d0/d21/classgaia_1_1base_1_1_vector_impl.html" target="_top" xlink:title="Implements vector data structure equipped with copy&#45;on&#45;write mechanism.">
<polygon fill="white" stroke="black" points="0.5,-44.5 0.5,-65.5 115.5,-65.5 115.5,-44.5 0.5,-44.5"/>
<text text-anchor="middle" x="58" y="-52.5" font-family="Helvetica,sans-Serif" font-size="10.00">gaia::base::VectorImpl</text>
</a>
</g>
<!-- Node10&#45;&gt;Node9 -->
<g id="edge22" class="edge"><title>Node10&#45;&gt;Node9</title>
<path fill="none" stroke="#8b1a1a" d="M125.792,-56.874C128.564,-56.9221 131.309,-56.9646 134,-57 262.878,-58.6955 295.121,-58.6107 424,-57 429.939,-56.9258 436.043,-56.8309 442.201,-56.7209"/>
<polygon fill="#8b1a1a" stroke="#8b1a1a" points="125.743,-53.3725 115.677,-56.6771 125.607,-60.3711 125.743,-53.3725"/>
</g>
<!-- Node11 -->
<g id="node22" class="node"><title>Node11</title>
<a xlink:href="../../df/d5d/classgaia_1_1base_1_1_vector.html" target="_top" xlink:title="This class implements the vector data structure.">
<polygon fill="white" stroke="black" points="154,-21.5 154,-42.5 294,-42.5 294,-21.5 154,-21.5"/>
<text text-anchor="middle" x="224" y="-29.5" font-family="Helvetica,sans-Serif" font-size="10.00">gaia::base::Vector&lt; TYPE &gt;</text>
</a>
</g>
<!-- Node10&#45;&gt;Node11 -->
<g id="edge26" class="edge"><title>Node10&#45;&gt;Node11</title>
<path fill="none" stroke="#8b1a1a" d="M125.596,-45.6344C134.933,-44.3406 144.54,-43.0096 153.921,-41.7098"/>
<polygon fill="#8b1a1a" stroke="#8b1a1a" points="125.018,-42.1809 115.593,-47.0203 125.979,-49.1146 125.018,-42.1809"/>
</g>
<!-- Node11&#45;&gt;Node9 -->
<g id="edge24" class="edge"><title>Node11&#45;&gt;Node9</title>
<path fill="none" stroke="orange" stroke-dasharray="5,2" d="M304.465,-36.4009C340.966,-38.5071 384.675,-41.1821 424,-44 429.943,-44.4258 436.05,-44.8808 442.211,-45.3531"/>
<polygon fill="orange" stroke="orange" points="304.555,-32.9003 294.371,-35.8222 304.154,-39.8889 304.555,-32.9003"/>
<text text-anchor="middle" x="368" y="-48" font-family="Helvetica,sans-Serif" font-size="10.00"> &lt; gaia::ui::DialogBox * &gt;</text>
</g>
</g>
</svg>
