<?xml version="1.0" encoding="UTF-8" standalone="no"?>
<!DOCTYPE svg PUBLIC "-//W3C//DTD SVG 1.1//EN"
 "http://www.w3.org/Graphics/SVG/1.1/DTD/svg11.dtd">
<!-- Generated by graphviz version 2.26.3 (20100126.1600)
 -->
<!-- Title: G Pages: 1 -->
<svg width="136pt" height="146pt"
 viewBox="0.00 0.00 136.00 146.00" xmlns="http://www.w3.org/2000/svg" xmlns:xlink="http://www.w3.org/1999/xlink">
<g id="graph1" class="graph" transform="scale(1 1) rotate(0) translate(4 142)">
<title>G</title>
<polygon fill="white" stroke="white" points="-4,5 -4,-142 133,-142 133,5 -4,5"/>
<!-- Node1 -->
<g id="node1" class="node"><title>Node1</title>
<polygon fill="#bfbfbf" stroke="black" points="5.5,-0.5 5.5,-21.5 122.5,-21.5 122.5,-0.5 5.5,-0.5"/>
<text text-anchor="middle" x="64" y="-8.5" font-family="Helvetica,sans-Serif" font-size="10.00">gaia::ui::ListPreference</text>
</g>
<!-- Node2 -->
<g id="node2" class="node"><title>Node2</title>
<a xlink:href="../../d8/dd3/classgaia_1_1ui_1_1_dialog_preference.html" target="_top" xlink:title="A base class for Preference objects that are dialog&#45;based.">
<polygon fill="white" stroke="black" points="-0.5,-58.5 -0.5,-79.5 128.5,-79.5 128.5,-58.5 -0.5,-58.5"/>
<text text-anchor="middle" x="64" y="-66.5" font-family="Helvetica,sans-Serif" font-size="10.00">gaia::ui::DialogPreference</text>
</a>
</g>
<!-- Node2&#45;&gt;Node1 -->
<g id="edge2" class="edge"><title>Node2&#45;&gt;Node1</title>
<path fill="none" stroke="midnightblue" d="M64,-48.1906C64,-39.1684 64,-28.9941 64,-21.5707"/>
<polygon fill="midnightblue" stroke="midnightblue" points="60.5001,-48.3619 64,-58.3619 67.5001,-48.3619 60.5001,-48.3619"/>
</g>
<!-- Node3 -->
<g id="node4" class="node"><title>Node3</title>
<a xlink:href="../../dd/d14/classgaia_1_1ui_1_1_preference.html" target="_top" xlink:title="Interface definition for a callback to be invoked when the value of this Preference has been changed ...">
<polygon fill="white" stroke="black" points="13.5,-116.5 13.5,-137.5 114.5,-137.5 114.5,-116.5 13.5,-116.5"/>
<text text-anchor="middle" x="64" y="-124.5" font-family="Helvetica,sans-Serif" font-size="10.00">gaia::ui::Preference</text>
</a>
</g>
<!-- Node3&#45;&gt;Node2 -->
<g id="edge4" class="edge"><title>Node3&#45;&gt;Node2</title>
<path fill="none" stroke="midnightblue" d="M64,-106.191C64,-97.1684 64,-86.9941 64,-79.5707"/>
<polygon fill="midnightblue" stroke="midnightblue" points="60.5001,-106.362 64,-116.362 67.5001,-106.362 60.5001,-106.362"/>
</g>
</g>
</svg>
