<?xml version="1.0" encoding="UTF-8" standalone="no"?>
<!DOCTYPE svg PUBLIC "-//W3C//DTD SVG 1.1//EN"
 "http://www.w3.org/Graphics/SVG/1.1/DTD/svg11.dtd">
<!-- Generated by graphviz version 2.26.3 (20100126.1600)
 -->
<!-- Title: G Pages: 1 -->
<svg width="356pt" height="204pt"
 viewBox="0.00 0.00 356.00 204.00" xmlns="http://www.w3.org/2000/svg" xmlns:xlink="http://www.w3.org/1999/xlink">
<g id="graph1" class="graph" transform="scale(1 1) rotate(0) translate(4 200)">
<title>G</title>
<polygon fill="white" stroke="white" points="-4,5 -4,-200 353,-200 353,5 -4,5"/>
<!-- Node1 -->
<g id="node1" class="node"><title>Node1</title>
<polygon fill="#bfbfbf" stroke="black" points="-0.5,-174.5 -0.5,-195.5 312.5,-195.5 312.5,-174.5 -0.5,-174.5"/>
<text text-anchor="middle" x="156" y="-182.5" font-family="Helvetica,sans-Serif" font-size="10.00">/home/vilon_tao/gaia/sdk/include/gaia/storage/SQLiteQueryBuilder.h</text>
</g>
<!-- Node2 -->
<g id="node3" class="node"><title>Node2</title>
<a xlink:href="../../d3/dc5/_array_8h.html" target="_top" xlink:title="gaia/base/Array.h">
<polygon fill="white" stroke="black" points="109.5,-116.5 109.5,-137.5 202.5,-137.5 202.5,-116.5 109.5,-116.5"/>
<text text-anchor="middle" x="156" y="-124.5" font-family="Helvetica,sans-Serif" font-size="10.00">gaia/base/Array.h</text>
</a>
</g>
<!-- Node1&#45;&gt;Node2 -->
<g id="edge2" class="edge"><title>Node1&#45;&gt;Node2</title>
<path fill="none" stroke="midnightblue" d="M156,-174.362C156,-166.922 156,-156.743 156,-147.728"/>
<polygon fill="midnightblue" stroke="midnightblue" points="159.5,-147.571 156,-137.571 152.5,-147.571 159.5,-147.571"/>
</g>
<!-- Node3 -->
<g id="node5" class="node"><title>Node3</title>
<a xlink:href="../../d8/dae/_array_impl_8h.html" target="_top" xlink:title="gaia/base/ArrayImpl.h">
<polygon fill="white" stroke="black" points="16,-58.5 16,-79.5 128,-79.5 128,-58.5 16,-58.5"/>
<text text-anchor="middle" x="72" y="-66.5" font-family="Helvetica,sans-Serif" font-size="10.00">gaia/base/ArrayImpl.h</text>
</a>
</g>
<!-- Node2&#45;&gt;Node3 -->
<g id="edge4" class="edge"><title>Node2&#45;&gt;Node3</title>
<path fill="none" stroke="midnightblue" d="M140.593,-116.362C128.042,-107.696 110.108,-95.3126 95.7255,-85.3819"/>
<polygon fill="midnightblue" stroke="midnightblue" points="97.5269,-82.3725 87.3092,-79.5707 93.5495,-88.1327 97.5269,-82.3725"/>
</g>
<!-- Node4 -->
<g id="node7" class="node"><title>Node4</title>
<polygon fill="white" stroke="#bfbfbf" points="96,-0.5 96,-21.5 164,-21.5 164,-0.5 96,-0.5"/>
<text text-anchor="middle" x="130" y="-8.5" font-family="Helvetica,sans-Serif" font-size="10.00">sys/types.h</text>
</g>
<!-- Node2&#45;&gt;Node4 -->
<g id="edge18" class="edge"><title>Node2&#45;&gt;Node4</title>
<path fill="none" stroke="midnightblue" d="M153.601,-116.295C149.286,-97.0451 140.151,-56.2889 134.597,-31.5091"/>
<polygon fill="midnightblue" stroke="midnightblue" points="137.996,-30.6716 132.394,-21.6792 131.166,-32.2026 137.996,-30.6716"/>
</g>
<!-- Node5 -->
<g id="node9" class="node"><title>Node5</title>
<a xlink:href="../../d1/d86/_type_helpers_8h.html" target="_top" xlink:title="gaia/base/TypeHelpers.h">
<polygon fill="white" stroke="black" points="183.5,-58.5 183.5,-79.5 308.5,-79.5 308.5,-58.5 183.5,-58.5"/>
<text text-anchor="middle" x="246" y="-66.5" font-family="Helvetica,sans-Serif" font-size="10.00">gaia/base/TypeHelpers.h</text>
</a>
</g>
<!-- Node2&#45;&gt;Node5 -->
<g id="edge8" class="edge"><title>Node2&#45;&gt;Node5</title>
<path fill="none" stroke="midnightblue" d="M172.507,-116.362C186.082,-107.614 205.533,-95.0786 221.015,-85.1015"/>
<polygon fill="midnightblue" stroke="midnightblue" points="223.088,-87.9297 229.597,-79.5707 219.296,-82.0457 223.088,-87.9297"/>
</g>
<!-- Node3&#45;&gt;Node4 -->
<g id="edge6" class="edge"><title>Node3&#45;&gt;Node4</title>
<path fill="none" stroke="midnightblue" d="M82.6381,-58.3619C90.8957,-50.1043 102.528,-38.4725 112.197,-28.8029"/>
<polygon fill="midnightblue" stroke="midnightblue" points="114.833,-31.1166 119.429,-21.5707 109.883,-26.1669 114.833,-31.1166"/>
</g>
<!-- Node5&#45;&gt;Node4 -->
<g id="edge14" class="edge"><title>Node5&#45;&gt;Node4</title>
<path fill="none" stroke="midnightblue" d="M224.993,-58.4966C206.957,-49.4786 180.73,-36.3649 160.401,-26.2006"/>
<polygon fill="midnightblue" stroke="midnightblue" points="161.752,-22.9629 151.242,-21.6212 158.621,-29.2239 161.752,-22.9629"/>
</g>
<!-- Node6 -->
<g id="node11" class="node"><title>Node6</title>
<polygon fill="white" stroke="#bfbfbf" points="181.5,-0.5 181.5,-21.5 230.5,-21.5 230.5,-0.5 181.5,-0.5"/>
<text text-anchor="middle" x="206" y="-8.5" font-family="Helvetica,sans-Serif" font-size="10.00">stdint.h</text>
</g>
<!-- Node5&#45;&gt;Node6 -->
<g id="edge10" class="edge"><title>Node5&#45;&gt;Node6</title>
<path fill="none" stroke="midnightblue" d="M238.663,-58.3619C233.194,-50.4313 225.578,-39.3885 219.076,-29.9606"/>
<polygon fill="midnightblue" stroke="midnightblue" points="221.849,-27.8157 213.29,-21.5707 216.086,-31.7899 221.849,-27.8157"/>
</g>
<!-- Node7 -->
<g id="node13" class="node"><title>Node7</title>
<polygon fill="white" stroke="#bfbfbf" points="247.5,-0.5 247.5,-21.5 296.5,-21.5 296.5,-0.5 247.5,-0.5"/>
<text text-anchor="middle" x="272" y="-8.5" font-family="Helvetica,sans-Serif" font-size="10.00">string.h</text>
</g>
<!-- Node5&#45;&gt;Node7 -->
<g id="edge12" class="edge"><title>Node5&#45;&gt;Node7</title>
<path fill="none" stroke="midnightblue" d="M250.769,-58.3619C254.214,-50.6766 258.969,-40.0686 263.106,-30.8399"/>
<polygon fill="midnightblue" stroke="midnightblue" points="266.365,-32.1275 267.261,-21.5707 259.977,-29.264 266.365,-32.1275"/>
</g>
<!-- Node8 -->
<g id="node16" class="node"><title>Node8</title>
<polygon fill="white" stroke="#bfbfbf" points="313.5,-0.5 313.5,-21.5 348.5,-21.5 348.5,-0.5 313.5,-0.5"/>
<text text-anchor="middle" x="331" y="-8.5" font-family="Helvetica,sans-Serif" font-size="10.00">new</text>
</g>
<!-- Node5&#45;&gt;Node8 -->
<g id="edge16" class="edge"><title>Node5&#45;&gt;Node8</title>
<path fill="none" stroke="midnightblue" d="M261.59,-58.3619C274.291,-49.6955 292.438,-37.3126 306.992,-27.3819"/>
<polygon fill="midnightblue" stroke="midnightblue" points="309.221,-30.0982 315.509,-21.5707 305.276,-24.316 309.221,-30.0982"/>
</g>
</g>
</svg>
