<?xml version="1.0" encoding="UTF-8" standalone="no"?>
<!DOCTYPE svg PUBLIC "-//W3C//DTD SVG 1.1//EN"
 "http://www.w3.org/Graphics/SVG/1.1/DTD/svg11.dtd">
<!-- Generated by graphviz version 2.26.3 (20100126.1600)
 -->
<!-- Title: G Pages: 1 -->
<svg width="276pt" height="146pt"
 viewBox="0.00 0.00 276.00 146.00" xmlns="http://www.w3.org/2000/svg" xmlns:xlink="http://www.w3.org/1999/xlink">
<g id="graph1" class="graph" transform="scale(1 1) rotate(0) translate(4 142)">
<title>G</title>
<polygon fill="white" stroke="white" points="-4,5 -4,-142 273,-142 273,5 -4,5"/>
<!-- Node1 -->
<g id="node1" class="node"><title>Node1</title>
<polygon fill="#bfbfbf" stroke="black" points="-0.5,-116.5 -0.5,-137.5 268.5,-137.5 268.5,-116.5 -0.5,-116.5"/>
<text text-anchor="middle" x="134" y="-124.5" font-family="Helvetica,sans-Serif" font-size="10.00">/home/vilon_tao/gaia/sdk/include/gaia/core/pm/PageInfo.h</text>
</g>
<!-- Node2 -->
<g id="node3" class="node"><title>Node2</title>
<a xlink:href="../../d5/d6f/_component_info_8h.html" target="_top" xlink:title="gaia/core/pm/ComponentInfo.h">
<polygon fill="white" stroke="black" points="58.5,-58.5 58.5,-79.5 209.5,-79.5 209.5,-58.5 58.5,-58.5"/>
<text text-anchor="middle" x="134" y="-66.5" font-family="Helvetica,sans-Serif" font-size="10.00">gaia/core/pm/ComponentInfo.h</text>
</a>
</g>
<!-- Node1&#45;&gt;Node2 -->
<g id="edge2" class="edge"><title>Node1&#45;&gt;Node2</title>
<path fill="none" stroke="midnightblue" d="M134,-116.362C134,-108.922 134,-98.7427 134,-89.7276"/>
<polygon fill="midnightblue" stroke="midnightblue" points="137.5,-89.5706 134,-79.5707 130.5,-89.5707 137.5,-89.5706"/>
</g>
<!-- Node3 -->
<g id="node5" class="node"><title>Node3</title>
<a xlink:href="../../d0/ddb/_package_item_info_8h.html" target="_top" xlink:title="gaia/core/pm/PackageItemInfo.h">
<polygon fill="white" stroke="black" points="55,-0.5 55,-21.5 213,-21.5 213,-0.5 55,-0.5"/>
<text text-anchor="middle" x="134" y="-8.5" font-family="Helvetica,sans-Serif" font-size="10.00">gaia/core/pm/PackageItemInfo.h</text>
</a>
</g>
<!-- Node2&#45;&gt;Node3 -->
<g id="edge4" class="edge"><title>Node2&#45;&gt;Node3</title>
<path fill="none" stroke="midnightblue" d="M134,-58.3619C134,-50.9219 134,-40.7427 134,-31.7276"/>
<polygon fill="midnightblue" stroke="midnightblue" points="137.5,-31.5706 134,-21.5707 130.5,-31.5707 137.5,-31.5706"/>
</g>
</g>
</svg>
