<?xml version="1.0" encoding="UTF-8" standalone="no"?>
<!DOCTYPE svg PUBLIC "-//W3C//DTD SVG 1.1//EN"
 "http://www.w3.org/Graphics/SVG/1.1/DTD/svg11.dtd">
<!-- Generated by graphviz version 2.26.3 (20100126.1600)
 -->
<!-- Title: G Pages: 1 -->
<svg width="703pt" height="262pt"
 viewBox="0.00 0.00 702.66 262.00" xmlns="http://www.w3.org/2000/svg" xmlns:xlink="http://www.w3.org/1999/xlink">
<g id="graph1" class="graph" transform="scale(1 1) rotate(0) translate(4 258)">
<title>G</title>
<polygon fill="white" stroke="white" points="-4,5 -4,-258 699.658,-258 699.658,5 -4,5"/>
<!-- Node1 -->
<g id="node1" class="node"><title>Node1</title>
<polygon fill="#bfbfbf" stroke="black" points="404.658,-232.5 404.658,-253.5 694.658,-253.5 694.658,-232.5 404.658,-232.5"/>
<text text-anchor="middle" x="549.658" y="-240.5" font-family="Helvetica,sans-Serif" font-size="10.00">/home/vilon_tao/gaia/sdk/include/gaia/core/GLSurfaceWidget.h</text>
</g>
<!-- Node2 -->
<g id="node3" class="node"><title>Node2</title>
<polygon fill="white" stroke="#bfbfbf" points="500.158,-0.5 500.158,-21.5 549.158,-21.5 549.158,-0.5 500.158,-0.5"/>
<text text-anchor="middle" x="524.658" y="-8.5" font-family="Helvetica,sans-Serif" font-size="10.00">stdint.h</text>
</g>
<!-- Node1&#45;&gt;Node2 -->
<g id="edge2" class="edge"><title>Node1&#45;&gt;Node2</title>
<path fill="none" stroke="midnightblue" d="M548.518,-232.429C544.663,-196.648 532.057,-79.6628 526.893,-31.7481"/>
<polygon fill="midnightblue" stroke="midnightblue" points="530.355,-31.2009 525.803,-21.6335 523.395,-31.951 530.355,-31.2009"/>
</g>
<!-- Node3 -->
<g id="node5" class="node"><title>Node3</title>
<a xlink:href="../../d1/dd0/gmacros_8h.html" target="_top" xlink:title="gaia/base/gmacros.h">
<polygon fill="white" stroke="black" points="390.158,-58.5 390.158,-79.5 497.158,-79.5 497.158,-58.5 390.158,-58.5"/>
<text text-anchor="middle" x="443.658" y="-66.5" font-family="Helvetica,sans-Serif" font-size="10.00">gaia/base/gmacros.h</text>
</a>
</g>
<!-- Node1&#45;&gt;Node3 -->
<g id="edge4" class="edge"><title>Node1&#45;&gt;Node3</title>
<path fill="none" stroke="midnightblue" d="M545.656,-232.396C540.268,-218.571 530.036,-193.816 518.658,-174 500.307,-142.043 474.572,-107.8 458.519,-87.405"/>
<polygon fill="midnightblue" stroke="midnightblue" points="461.245,-85.209 452.282,-79.5589 455.765,-89.5649 461.245,-85.209"/>
</g>
<!-- Node4 -->
<g id="node7" class="node"><title>Node4</title>
<a xlink:href="../../d9/d62/_surface_widget_8h.html" target="_top" xlink:title="gaia/core/SurfaceWidget.h">
<polygon fill="white" stroke="black" points="377.658,-174.5 377.658,-195.5 509.658,-195.5 509.658,-174.5 377.658,-174.5"/>
<text text-anchor="middle" x="443.658" y="-182.5" font-family="Helvetica,sans-Serif" font-size="10.00">gaia/core/SurfaceWidget.h</text>
</a>
</g>
<!-- Node1&#45;&gt;Node4 -->
<g id="edge6" class="edge"><title>Node1&#45;&gt;Node4</title>
<path fill="none" stroke="midnightblue" d="M530.215,-232.362C513.854,-223.409 490.244,-210.491 471.814,-200.406"/>
<polygon fill="midnightblue" stroke="midnightblue" points="473.429,-197.3 462.976,-195.571 470.069,-203.441 473.429,-197.3"/>
</g>
<!-- Node4&#45;&gt;Node2 -->
<g id="edge8" class="edge"><title>Node4&#45;&gt;Node2</title>
<path fill="none" stroke="midnightblue" d="M451.168,-174.466C463.967,-156.093 490.121,-116.641 505.658,-80 512.317,-64.2944 517.298,-45.5883 520.486,-31.6177"/>
<polygon fill="midnightblue" stroke="midnightblue" points="523.965,-32.0902 522.656,-21.5765 517.123,-30.6116 523.965,-32.0902"/>
</g>
<!-- Node4&#45;&gt;Node3 -->
<g id="edge10" class="edge"><title>Node4&#45;&gt;Node3</title>
<path fill="none" stroke="midnightblue" d="M443.658,-174.295C443.658,-155.131 443.658,-114.654 443.658,-89.8434"/>
<polygon fill="midnightblue" stroke="midnightblue" points="447.158,-89.6792 443.658,-79.6792 440.158,-89.6792 447.158,-89.6792"/>
</g>
<!-- Node5 -->
<g id="node11" class="node"><title>Node5</title>
<a xlink:href="../../d3/dd0/_event_control_8h.html" target="_top" xlink:title="gaia/core/event/EventControl.h">
<polygon fill="white" stroke="black" points="14.6575,-116.5 14.6575,-137.5 166.658,-137.5 166.658,-116.5 14.6575,-116.5"/>
<text text-anchor="middle" x="90.6575" y="-124.5" font-family="Helvetica,sans-Serif" font-size="10.00">gaia/core/event/EventControl.h</text>
</a>
</g>
<!-- Node4&#45;&gt;Node5 -->
<g id="edge12" class="edge"><title>Node4&#45;&gt;Node5</title>
<path fill="none" stroke="midnightblue" d="M379.732,-174.497C319.194,-164.55 228.331,-149.621 164.677,-139.162"/>
<polygon fill="midnightblue" stroke="midnightblue" points="165.138,-135.691 154.703,-137.523 164.003,-142.598 165.138,-135.691"/>
</g>
<!-- Node7 -->
<g id="node15" class="node"><title>Node7</title>
<a xlink:href="../../d4/d75/_widget_8h.html" target="_top" xlink:title="gaia/core/vision/Widget.h">
<polygon fill="white" stroke="black" points="262.158,-116.5 262.158,-137.5 389.158,-137.5 389.158,-116.5 262.158,-116.5"/>
<text text-anchor="middle" x="325.658" y="-124.5" font-family="Helvetica,sans-Serif" font-size="10.00">gaia/core/vision/Widget.h</text>
</a>
</g>
<!-- Node4&#45;&gt;Node7 -->
<g id="edge16" class="edge"><title>Node4&#45;&gt;Node7</title>
<path fill="none" stroke="midnightblue" d="M422.289,-174.497C403.859,-165.438 377.02,-152.246 356.302,-142.063"/>
<polygon fill="midnightblue" stroke="midnightblue" points="357.785,-138.891 347.266,-137.621 354.697,-145.174 357.785,-138.891"/>
</g>
<!-- Node6 -->
<g id="node13" class="node"><title>Node6</title>
<polygon fill="white" stroke="#bfbfbf" points="12.6575,-0.5 12.6575,-21.5 80.6575,-21.5 80.6575,-0.5 12.6575,-0.5"/>
<text text-anchor="middle" x="46.6575" y="-8.5" font-family="Helvetica,sans-Serif" font-size="10.00">sys/types.h</text>
</g>
<!-- Node5&#45;&gt;Node6 -->
<g id="edge14" class="edge"><title>Node5&#45;&gt;Node6</title>
<path fill="none" stroke="midnightblue" d="M52.4691,-116.458C34.3151,-109.316 14.2971,-97.8408 3.65752,-80 -6.93164,-62.2438 8.67221,-42.2188 23.9631,-28.3336"/>
<polygon fill="midnightblue" stroke="midnightblue" points="26.4402,-30.8215 31.7903,-21.6767 21.9052,-25.4891 26.4402,-30.8215"/>
</g>
<!-- Node7&#45;&gt;Node3 -->
<g id="edge18" class="edge"><title>Node7&#45;&gt;Node3</title>
<path fill="none" stroke="midnightblue" d="M347.026,-116.497C365.457,-107.438 392.295,-94.2462 413.013,-84.0628"/>
<polygon fill="midnightblue" stroke="midnightblue" points="414.618,-87.1735 422.049,-79.6212 411.53,-80.8914 414.618,-87.1735"/>
</g>
<!-- Node8 -->
<g id="node18" class="node"><title>Node8</title>
<a xlink:href="../../d0/d92/_property_animatable_8h.html" target="_top" xlink:title="gaia/core/animator/PropertyAnimatable.h">
<polygon fill="white" stroke="black" points="12.6575,-58.5 12.6575,-79.5 206.658,-79.5 206.658,-58.5 12.6575,-58.5"/>
<text text-anchor="middle" x="109.658" y="-66.5" font-family="Helvetica,sans-Serif" font-size="10.00">gaia/core/animator/PropertyAnimatable.h</text>
</a>
</g>
<!-- Node7&#45;&gt;Node8 -->
<g id="edge20" class="edge"><title>Node7&#45;&gt;Node8</title>
<path fill="none" stroke="midnightblue" d="M286.542,-116.497C250.718,-106.877 197.54,-92.5981 158.849,-82.209"/>
<polygon fill="midnightblue" stroke="midnightblue" points="159.412,-78.7362 148.847,-79.5231 157.597,-85.4967 159.412,-78.7362"/>
</g>
<!-- Node9 -->
<g id="node21" class="node"><title>Node9</title>
<a xlink:href="../../d8/d50/_widget_core_8h.html" target="_top" xlink:title="gaia/core/vision/WidgetCore.h">
<polygon fill="white" stroke="black" points="224.658,-58.5 224.658,-79.5 372.658,-79.5 372.658,-58.5 224.658,-58.5"/>
<text text-anchor="middle" x="298.658" y="-66.5" font-family="Helvetica,sans-Serif" font-size="10.00">gaia/core/vision/WidgetCore.h</text>
</a>
</g>
<!-- Node7&#45;&gt;Node9 -->
<g id="edge24" class="edge"><title>Node7&#45;&gt;Node9</title>
<path fill="none" stroke="midnightblue" d="M320.705,-116.362C317.128,-108.677 312.189,-98.0686 307.893,-88.8399"/>
<polygon fill="midnightblue" stroke="midnightblue" points="310.972,-87.1594 303.578,-79.5707 304.626,-90.1136 310.972,-87.1594"/>
</g>
<!-- Node8&#45;&gt;Node6 -->
<g id="edge22" class="edge"><title>Node8&#45;&gt;Node6</title>
<path fill="none" stroke="midnightblue" d="M98.1023,-58.3619C89.0441,-50.0226 76.2478,-38.2418 65.6838,-28.5162"/>
<polygon fill="midnightblue" stroke="midnightblue" points="67.867,-25.7688 58.1394,-21.5707 63.1258,-30.9187 67.867,-25.7688"/>
</g>
<!-- Node9&#45;&gt;Node2 -->
<g id="edge26" class="edge"><title>Node9&#45;&gt;Node2</title>
<path fill="none" stroke="midnightblue" d="M339.584,-58.4966C382.646,-47.4454 449.673,-30.2438 490.149,-19.8562"/>
<polygon fill="midnightblue" stroke="midnightblue" points="491.266,-23.1831 500.082,-17.307 489.526,-16.4028 491.266,-23.1831"/>
</g>
</g>
</svg>
