<?xml version="1.0" encoding="UTF-8" standalone="no"?>
<!DOCTYPE svg PUBLIC "-//W3C//DTD SVG 1.1//EN"
 "http://www.w3.org/Graphics/SVG/1.1/DTD/svg11.dtd">
<!-- Generated by graphviz version 2.26.3 (20100126.1600)
 -->
<!-- Title: G Pages: 1 -->
<svg width="284pt" height="204pt"
 viewBox="0.00 0.00 284.00 204.00" xmlns="http://www.w3.org/2000/svg" xmlns:xlink="http://www.w3.org/1999/xlink">
<g id="graph1" class="graph" transform="scale(1 1) rotate(0) translate(4 200)">
<title>G</title>
<polygon fill="white" stroke="white" points="-4,5 -4,-200 281,-200 281,5 -4,5"/>
<!-- Node1 -->
<g id="node1" class="node"><title>Node1</title>
<polygon fill="#bfbfbf" stroke="black" points="0,-174.5 0,-195.5 276,-195.5 276,-174.5 0,-174.5"/>
<text text-anchor="middle" x="138" y="-182.5" font-family="Helvetica,sans-Serif" font-size="10.00">/home/vilon_tao/gaia/sdk/include/gaia/graphics/PorterDuff.h</text>
</g>
<!-- Node2 -->
<g id="node3" class="node"><title>Node2</title>
<a xlink:href="../../dd/d0b/_hash_map_8h.html" target="_top" xlink:title="gaia/base/HashMap.h">
<polygon fill="white" stroke="black" points="82,-116.5 82,-137.5 194,-137.5 194,-116.5 82,-116.5"/>
<text text-anchor="middle" x="138" y="-124.5" font-family="Helvetica,sans-Serif" font-size="10.00">gaia/base/HashMap.h</text>
</a>
</g>
<!-- Node1&#45;&gt;Node2 -->
<g id="edge2" class="edge"><title>Node1&#45;&gt;Node2</title>
<path fill="none" stroke="midnightblue" d="M138,-174.362C138,-166.922 138,-156.743 138,-147.728"/>
<polygon fill="midnightblue" stroke="midnightblue" points="141.5,-147.571 138,-137.571 134.5,-147.571 141.5,-147.571"/>
</g>
<!-- Node3 -->
<g id="node5" class="node"><title>Node3</title>
<a xlink:href="../../d6/d83/_hash_func_8h.html" target="_top" xlink:title="gaia/base/HashFunc.h">
<polygon fill="white" stroke="black" points="10.5,-58.5 10.5,-79.5 125.5,-79.5 125.5,-58.5 10.5,-58.5"/>
<text text-anchor="middle" x="68" y="-66.5" font-family="Helvetica,sans-Serif" font-size="10.00">gaia/base/HashFunc.h</text>
</a>
</g>
<!-- Node2&#45;&gt;Node3 -->
<g id="edge4" class="edge"><title>Node2&#45;&gt;Node3</title>
<path fill="none" stroke="midnightblue" d="M125.161,-116.362C114.998,-107.941 100.599,-96.0105 88.7958,-86.2308"/>
<polygon fill="midnightblue" stroke="midnightblue" points="90.691,-83.2558 80.7577,-79.5707 86.2248,-88.6459 90.691,-83.2558"/>
</g>
<!-- Node5 -->
<g id="node9" class="node"><title>Node5</title>
<a xlink:href="../../dc/d11/_hash_map_impl_8h.html" target="_top" xlink:title="gaia/base/HashMapImpl.h">
<polygon fill="white" stroke="black" points="142.5,-58.5 142.5,-79.5 273.5,-79.5 273.5,-58.5 142.5,-58.5"/>
<text text-anchor="middle" x="208" y="-66.5" font-family="Helvetica,sans-Serif" font-size="10.00">gaia/base/HashMapImpl.h</text>
</a>
</g>
<!-- Node2&#45;&gt;Node5 -->
<g id="edge8" class="edge"><title>Node2&#45;&gt;Node5</title>
<path fill="none" stroke="midnightblue" d="M150.839,-116.362C161.002,-107.941 175.401,-96.0105 187.204,-86.2308"/>
<polygon fill="midnightblue" stroke="midnightblue" points="189.775,-88.6459 195.242,-79.5707 185.309,-83.2558 189.775,-88.6459"/>
</g>
<!-- Node4 -->
<g id="node7" class="node"><title>Node4</title>
<polygon fill="white" stroke="#bfbfbf" points="104,-0.5 104,-21.5 172,-21.5 172,-0.5 104,-0.5"/>
<text text-anchor="middle" x="138" y="-8.5" font-family="Helvetica,sans-Serif" font-size="10.00">sys/types.h</text>
</g>
<!-- Node3&#45;&gt;Node4 -->
<g id="edge6" class="edge"><title>Node3&#45;&gt;Node4</title>
<path fill="none" stroke="midnightblue" d="M80.8391,-58.3619C91.0025,-49.9408 105.401,-38.0105 117.204,-28.2308"/>
<polygon fill="midnightblue" stroke="midnightblue" points="119.775,-30.6459 125.242,-21.5707 115.309,-25.2558 119.775,-30.6459"/>
</g>
<!-- Node5&#45;&gt;Node4 -->
<g id="edge10" class="edge"><title>Node5&#45;&gt;Node4</title>
<path fill="none" stroke="midnightblue" d="M195.161,-58.3619C184.998,-49.9408 170.599,-38.0105 158.796,-28.2308"/>
<polygon fill="midnightblue" stroke="midnightblue" points="160.691,-25.2558 150.758,-21.5707 156.225,-30.6459 160.691,-25.2558"/>
</g>
</g>
</svg>
