<?xml version="1.0" encoding="UTF-8" standalone="no"?>
<!DOCTYPE svg PUBLIC "-//W3C//DTD SVG 1.1//EN"
 "http://www.w3.org/Graphics/SVG/1.1/DTD/svg11.dtd">
<!-- Generated by graphviz version 2.26.3 (20100126.1600)
 -->
<!-- Title: G Pages: 1 -->
<svg width="348pt" height="88pt"
 viewBox="0.00 0.00 348.00 88.00" xmlns="http://www.w3.org/2000/svg" xmlns:xlink="http://www.w3.org/1999/xlink">
<g id="graph1" class="graph" transform="scale(1 1) rotate(0) translate(4 84)">
<title>G</title>
<polygon fill="white" stroke="white" points="-4,5 -4,-84 345,-84 345,5 -4,5"/>
<!-- Node1 -->
<g id="node1" class="node"><title>Node1</title>
<polygon fill="#bfbfbf" stroke="black" points="102,-58.5 102,-79.5 240,-79.5 240,-58.5 102,-58.5"/>
<text text-anchor="middle" x="171" y="-66.5" font-family="Helvetica,sans-Serif" font-size="10.00">gaia::telephony::CellIdentity</text>
</g>
<!-- Node2 -->
<g id="node3" class="node"><title>Node2</title>
<a xlink:href="../../d4/d32/classgaia_1_1telephony_1_1_cdma_cell_identity.html" target="_top" xlink:title="CellIdentity is to represent a unique CDMA cell.">
<polygon fill="white" stroke="black" points="0,-0.5 0,-21.5 164,-21.5 164,-0.5 0,-0.5"/>
<text text-anchor="middle" x="82" y="-8.5" font-family="Helvetica,sans-Serif" font-size="10.00">gaia::telephony::CdmaCellIdentity</text>
</a>
</g>
<!-- Node1&#45;&gt;Node2 -->
<g id="edge2" class="edge"><title>Node1&#45;&gt;Node2</title>
<path fill="none" stroke="midnightblue" d="M146.174,-52.8215C130.844,-42.8312 111.614,-30.2993 98.2205,-21.5707"/>
<polygon fill="midnightblue" stroke="midnightblue" points="144.387,-55.8344 154.676,-58.3619 148.209,-49.9698 144.387,-55.8344"/>
</g>
<!-- Node3 -->
<g id="node5" class="node"><title>Node3</title>
<a xlink:href="../../dc/d07/classgaia_1_1telephony_1_1_gsm_cell_identity.html" target="_top" xlink:title="CellIdentity to represent a unique GSM or UMTS cell.">
<polygon fill="white" stroke="black" points="181.5,-0.5 181.5,-21.5 340.5,-21.5 340.5,-0.5 181.5,-0.5"/>
<text text-anchor="middle" x="261" y="-8.5" font-family="Helvetica,sans-Serif" font-size="10.00">gaia::telephony::GsmCellIdentity</text>
</a>
</g>
<!-- Node1&#45;&gt;Node3 -->
<g id="edge4" class="edge"><title>Node1&#45;&gt;Node3</title>
<path fill="none" stroke="midnightblue" d="M196.105,-52.8215C211.607,-42.8312 231.053,-30.2993 244.597,-21.5707"/>
<polygon fill="midnightblue" stroke="midnightblue" points="194.017,-50.0028 187.507,-58.3619 197.809,-55.8869 194.017,-50.0028"/>
</g>
</g>
</svg>
