<?xml version="1.0" encoding="UTF-8" standalone="no"?>
<!DOCTYPE svg PUBLIC "-//W3C//DTD SVG 1.1//EN"
 "http://www.w3.org/Graphics/SVG/1.1/DTD/svg11.dtd">
<!-- Generated by graphviz version 2.26.3 (20100126.1600)
 -->
<!-- Title: G Pages: 1 -->
<svg width="264pt" height="174pt"
 viewBox="0.00 0.00 264.00 174.00" xmlns="http://www.w3.org/2000/svg" xmlns:xlink="http://www.w3.org/1999/xlink">
<g id="graph1" class="graph" transform="scale(1 1) rotate(0) translate(4 170)">
<title>G</title>
<polygon fill="white" stroke="white" points="-4,5 -4,-170 261,-170 261,5 -4,5"/>
<!-- Node1 -->
<g id="node1" class="node"><title>Node1</title>
<polygon fill="#bfbfbf" stroke="black" points="28.5,-0.5 28.5,-21.5 177.5,-21.5 177.5,-0.5 28.5,-0.5"/>
<text text-anchor="middle" x="103" y="-8.5" font-family="Helvetica,sans-Serif" font-size="10.00">gaia::security::X509Certificate</text>
</g>
<!-- Node2 -->
<g id="node2" class="node"><title>Node2</title>
<a xlink:href="../../d9/dd9/classgaia_1_1security_1_1_certificate.html" target="_top" xlink:title="The class describes a certificate , it is a abstract base class, we can not use it constractor a obje...">
<polygon fill="white" stroke="black" points="0,-84.5 0,-105.5 126,-105.5 126,-84.5 0,-84.5"/>
<text text-anchor="middle" x="63" y="-92.5" font-family="Helvetica,sans-Serif" font-size="10.00">gaia::security::Certificate</text>
</a>
</g>
<!-- Node2&#45;&gt;Node1 -->
<g id="edge2" class="edge"><title>Node2&#45;&gt;Node1</title>
<path fill="none" stroke="midnightblue" d="M72.5708,-74.9013C80.557,-58.1303 91.6237,-34.8903 97.9751,-21.5523"/>
<polygon fill="midnightblue" stroke="midnightblue" points="69.2054,-73.8279 68.066,-84.3613 75.5254,-76.8375 69.2054,-73.8279"/>
</g>
<!-- Node3 -->
<g id="node4" class="node"><title>Node3</title>
<a xlink:href="../../d2/ddb/classgaia_1_1base_1_1_string.html" target="_top" xlink:title="A String is represented by array of UTF&#45;16 values, such that Unicode supplementary characters (code p...">
<polygon fill="white" stroke="black" points="143.5,-84.5 143.5,-105.5 236.5,-105.5 236.5,-84.5 143.5,-84.5"/>
<text text-anchor="middle" x="190" y="-92.5" font-family="Helvetica,sans-Serif" font-size="10.00">gaia::base::String</text>
</a>
</g>
<!-- Node3&#45;&gt;Node1 -->
<g id="edge4" class="edge"><title>Node3&#45;&gt;Node1</title>
<path fill="none" stroke="#9a32cd" stroke-dasharray="5,2" d="M171.595,-77.2297C154.107,-60.3447 128.395,-35.5195 113.929,-21.5523"/>
<polygon fill="#9a32cd" stroke="#9a32cd" points="169.356,-79.9333 178.981,-84.3613 174.218,-74.8975 169.356,-79.9333"/>
<text text-anchor="middle" x="192.5" y="-57" font-family="Helvetica,sans-Serif" font-size="10.00"> _subjectName</text>
<text text-anchor="middle" x="192.5" y="-44" font-family="Helvetica,sans-Serif" font-size="10.00">_issuerName</text>
</g>
<!-- Node4 -->
<g id="node6" class="node"><title>Node4</title>
<a xlink:href="../../d1/d0f/classgaia_1_1base_1_1_char_sequence.html" target="_top" xlink:title="This interface represents an ordered set of characters and defines the methods to probe them...">
<polygon fill="white" stroke="black" points="124,-144.5 124,-165.5 256,-165.5 256,-144.5 124,-144.5"/>
<text text-anchor="middle" x="190" y="-152.5" font-family="Helvetica,sans-Serif" font-size="10.00">gaia::base::CharSequence</text>
</a>
</g>
<!-- Node4&#45;&gt;Node3 -->
<g id="edge6" class="edge"><title>Node4&#45;&gt;Node3</title>
<path fill="none" stroke="midnightblue" d="M190,-134.231C190,-124.592 190,-113.544 190,-105.634"/>
<polygon fill="midnightblue" stroke="midnightblue" points="186.5,-134.273 190,-144.273 193.5,-134.273 186.5,-134.273"/>
</g>
</g>
</svg>
