<?xml version="1.0" encoding="UTF-8" standalone="no"?>
<!DOCTYPE svg PUBLIC "-//W3C//DTD SVG 1.1//EN"
 "http://www.w3.org/Graphics/SVG/1.1/DTD/svg11.dtd">
<!-- Generated by graphviz version 2.26.3 (20100126.1600)
 -->
<!-- Title: G Pages: 1 -->
<svg width="402pt" height="204pt"
 viewBox="0.00 0.00 402.00 204.00" xmlns="http://www.w3.org/2000/svg" xmlns:xlink="http://www.w3.org/1999/xlink">
<g id="graph1" class="graph" transform="scale(1 1) rotate(0) translate(4 200)">
<title>G</title>
<polygon fill="white" stroke="white" points="-4,5 -4,-200 399,-200 399,5 -4,5"/>
<!-- Node1 -->
<g id="node1" class="node"><title>Node1</title>
<polygon fill="#bfbfbf" stroke="black" points="0,-174.5 0,-195.5 260,-195.5 260,-174.5 0,-174.5"/>
<text text-anchor="middle" x="130" y="-182.5" font-family="Helvetica,sans-Serif" font-size="10.00">/home/vilon_tao/gaia/sdk/include/gaia/ui/IItemProvider.h</text>
</g>
<!-- Node2 -->
<g id="node3" class="node"><title>Node2</title>
<polygon fill="white" stroke="#bfbfbf" points="11,-116.5 11,-137.5 59,-137.5 59,-116.5 11,-116.5"/>
<text text-anchor="middle" x="35" y="-124.5" font-family="Helvetica,sans-Serif" font-size="10.00">limits.h</text>
</g>
<!-- Node1&#45;&gt;Node2 -->
<g id="edge2" class="edge"><title>Node1&#45;&gt;Node2</title>
<path fill="none" stroke="midnightblue" d="M112.576,-174.362C98.1128,-165.532 77.3306,-152.844 60.916,-142.822"/>
<polygon fill="midnightblue" stroke="midnightblue" points="62.6729,-139.794 52.314,-137.571 59.0252,-145.769 62.6729,-139.794"/>
</g>
<!-- Node3 -->
<g id="node5" class="node"><title>Node3</title>
<a xlink:href="../../d1/dd0/gmacros_8h.html" target="_top" xlink:title="gaia/base/gmacros.h">
<polygon fill="white" stroke="black" points="76.5,-116.5 76.5,-137.5 183.5,-137.5 183.5,-116.5 76.5,-116.5"/>
<text text-anchor="middle" x="130" y="-124.5" font-family="Helvetica,sans-Serif" font-size="10.00">gaia/base/gmacros.h</text>
</a>
</g>
<!-- Node1&#45;&gt;Node3 -->
<g id="edge4" class="edge"><title>Node1&#45;&gt;Node3</title>
<path fill="none" stroke="midnightblue" d="M130,-174.362C130,-166.922 130,-156.743 130,-147.728"/>
<polygon fill="midnightblue" stroke="midnightblue" points="133.5,-147.571 130,-137.571 126.5,-147.571 133.5,-147.571"/>
</g>
<!-- Node4 -->
<g id="node7" class="node"><title>Node4</title>
<a xlink:href="../../d4/d7f/_vector_8h.html" target="_top" xlink:title="gaia/base/Vector.h">
<polygon fill="white" stroke="black" points="201,-116.5 201,-137.5 299,-137.5 299,-116.5 201,-116.5"/>
<text text-anchor="middle" x="250" y="-124.5" font-family="Helvetica,sans-Serif" font-size="10.00">gaia/base/Vector.h</text>
</a>
</g>
<!-- Node1&#45;&gt;Node4 -->
<g id="edge6" class="edge"><title>Node1&#45;&gt;Node4</title>
<path fill="none" stroke="midnightblue" d="M151.731,-174.497C170.474,-165.438 197.767,-152.246 218.836,-142.063"/>
<polygon fill="midnightblue" stroke="midnightblue" points="220.545,-145.124 228.025,-137.621 217.498,-138.822 220.545,-145.124"/>
</g>
<!-- Node5 -->
<g id="node9" class="node"><title>Node5</title>
<a xlink:href="../../d1/d86/_type_helpers_8h.html" target="_top" xlink:title="gaia/base/TypeHelpers.h">
<polygon fill="white" stroke="black" points="97.5,-58.5 97.5,-79.5 222.5,-79.5 222.5,-58.5 97.5,-58.5"/>
<text text-anchor="middle" x="160" y="-66.5" font-family="Helvetica,sans-Serif" font-size="10.00">gaia/base/TypeHelpers.h</text>
</a>
</g>
<!-- Node4&#45;&gt;Node5 -->
<g id="edge8" class="edge"><title>Node4&#45;&gt;Node5</title>
<path fill="none" stroke="midnightblue" d="M233.493,-116.362C219.918,-107.614 200.467,-95.0786 184.985,-85.1015"/>
<polygon fill="midnightblue" stroke="midnightblue" points="186.704,-82.0457 176.403,-79.5707 182.912,-87.9297 186.704,-82.0457"/>
</g>
<!-- Node8 -->
<g id="node15" class="node"><title>Node8</title>
<polygon fill="white" stroke="#bfbfbf" points="235,-0.5 235,-21.5 303,-21.5 303,-0.5 235,-0.5"/>
<text text-anchor="middle" x="269" y="-8.5" font-family="Helvetica,sans-Serif" font-size="10.00">sys/types.h</text>
</g>
<!-- Node4&#45;&gt;Node8 -->
<g id="edge22" class="edge"><title>Node4&#45;&gt;Node8</title>
<path fill="none" stroke="midnightblue" d="M251.753,-116.295C254.892,-97.1314 261.522,-56.654 265.586,-31.8434"/>
<polygon fill="midnightblue" stroke="midnightblue" points="269.088,-32.1135 267.251,-21.6792 262.18,-30.9819 269.088,-32.1135"/>
</g>
<!-- Node10 -->
<g id="node19" class="node"><title>Node10</title>
<a xlink:href="../../dc/da9/_vector_impl_8h.html" target="_top" xlink:title="gaia/base/VectorImpl.h">
<polygon fill="white" stroke="black" points="277.5,-58.5 277.5,-79.5 394.5,-79.5 394.5,-58.5 277.5,-58.5"/>
<text text-anchor="middle" x="336" y="-66.5" font-family="Helvetica,sans-Serif" font-size="10.00">gaia/base/VectorImpl.h</text>
</a>
</g>
<!-- Node4&#45;&gt;Node10 -->
<g id="edge18" class="edge"><title>Node4&#45;&gt;Node10</title>
<path fill="none" stroke="midnightblue" d="M265.774,-116.362C278.624,-107.696 296.985,-95.3126 311.71,-85.3819"/>
<polygon fill="midnightblue" stroke="midnightblue" points="313.993,-88.0639 320.326,-79.5707 310.079,-82.2604 313.993,-88.0639"/>
</g>
<!-- Node6 -->
<g id="node11" class="node"><title>Node6</title>
<polygon fill="white" stroke="#bfbfbf" points="50.5,-0.5 50.5,-21.5 99.5,-21.5 99.5,-0.5 50.5,-0.5"/>
<text text-anchor="middle" x="75" y="-8.5" font-family="Helvetica,sans-Serif" font-size="10.00">stdint.h</text>
</g>
<!-- Node5&#45;&gt;Node6 -->
<g id="edge10" class="edge"><title>Node5&#45;&gt;Node6</title>
<path fill="none" stroke="midnightblue" d="M144.41,-58.3619C131.709,-49.6955 113.562,-37.3126 99.0079,-27.3819"/>
<polygon fill="midnightblue" stroke="midnightblue" points="100.724,-24.316 90.4915,-21.5707 96.779,-30.0982 100.724,-24.316"/>
</g>
<!-- Node7 -->
<g id="node13" class="node"><title>Node7</title>
<polygon fill="white" stroke="#bfbfbf" points="116.5,-0.5 116.5,-21.5 165.5,-21.5 165.5,-0.5 116.5,-0.5"/>
<text text-anchor="middle" x="141" y="-8.5" font-family="Helvetica,sans-Serif" font-size="10.00">string.h</text>
</g>
<!-- Node5&#45;&gt;Node7 -->
<g id="edge12" class="edge"><title>Node5&#45;&gt;Node7</title>
<path fill="none" stroke="midnightblue" d="M156.515,-58.3619C154.024,-50.7584 150.596,-40.294 147.596,-31.1349"/>
<polygon fill="midnightblue" stroke="midnightblue" points="150.902,-29.9841 144.463,-21.5707 144.25,-32.1634 150.902,-29.9841"/>
</g>
<!-- Node5&#45;&gt;Node8 -->
<g id="edge14" class="edge"><title>Node5&#45;&gt;Node8</title>
<path fill="none" stroke="midnightblue" d="M179.739,-58.4966C196.61,-49.5194 221.109,-36.4835 240.174,-26.3387"/>
<polygon fill="midnightblue" stroke="midnightblue" points="241.856,-29.4086 249.039,-21.6212 238.567,-23.2289 241.856,-29.4086"/>
</g>
<!-- Node9 -->
<g id="node17" class="node"><title>Node9</title>
<polygon fill="white" stroke="#bfbfbf" points="182.5,-0.5 182.5,-21.5 217.5,-21.5 217.5,-0.5 182.5,-0.5"/>
<text text-anchor="middle" x="200" y="-8.5" font-family="Helvetica,sans-Serif" font-size="10.00">new</text>
</g>
<!-- Node5&#45;&gt;Node9 -->
<g id="edge16" class="edge"><title>Node5&#45;&gt;Node9</title>
<path fill="none" stroke="midnightblue" d="M167.337,-58.3619C172.806,-50.4313 180.422,-39.3885 186.924,-29.9606"/>
<polygon fill="midnightblue" stroke="midnightblue" points="189.914,-31.7899 192.71,-21.5707 184.151,-27.8157 189.914,-31.7899"/>
</g>
<!-- Node10&#45;&gt;Node8 -->
<g id="edge20" class="edge"><title>Node10&#45;&gt;Node8</title>
<path fill="none" stroke="midnightblue" d="M323.711,-58.3619C313.983,-49.9408 300.202,-38.0105 288.905,-28.2308"/>
<polygon fill="midnightblue" stroke="midnightblue" points="291.062,-25.4695 281.211,-21.5707 286.481,-30.7619 291.062,-25.4695"/>
</g>
</g>
</svg>
