<?xml version="1.0" encoding="UTF-8" standalone="no"?>
<!DOCTYPE svg PUBLIC "-//W3C//DTD SVG 1.1//EN"
 "http://www.w3.org/Graphics/SVG/1.1/DTD/svg11.dtd">
<!-- Generated by graphviz version 2.26.3 (20100126.1600)
 -->
<!-- Title: G Pages: 1 -->
<svg width="1084pt" height="249pt"
 viewBox="0.00 0.00 1084.00 249.35" xmlns="http://www.w3.org/2000/svg" xmlns:xlink="http://www.w3.org/1999/xlink">
<g id="graph1" class="graph" transform="scale(1 1) rotate(0) translate(4 245.348)">
<title>G</title>
<polygon fill="white" stroke="white" points="-4,5 -4,-245.348 1081,-245.348 1081,5 -4,5"/>
<!-- Node1 -->
<g id="node1" class="node"><title>Node1</title>
<polygon fill="#bfbfbf" stroke="black" points="764,-162.5 764,-183.5 880,-183.5 880,-162.5 764,-162.5"/>
<text text-anchor="middle" x="822" y="-170.5" font-family="Helvetica,sans-Serif" font-size="10.00">gaia::ui::PagerTabStrip</text>
</g>
<!-- Node2 -->
<g id="node2" class="node"><title>Node2</title>
<a xlink:href="../../db/d6c/classgaia_1_1core_1_1_widget_controller.html" target="_top" xlink:title="Define the default widget layout to put sets of layout in it.">
<polygon fill="white" stroke="black" points="475,-148.5 475,-169.5 613,-169.5 613,-148.5 475,-148.5"/>
<text text-anchor="middle" x="544" y="-156.5" font-family="Helvetica,sans-Serif" font-size="10.00">gaia::core::WidgetController</text>
</a>
</g>
<!-- Node2&#45;&gt;Node1 -->
<g id="edge2" class="edge"><title>Node2&#45;&gt;Node1</title>
<path fill="none" stroke="midnightblue" d="M623.325,-162.995C668.021,-165.246 722.878,-168.008 763.616,-170.06"/>
<polygon fill="midnightblue" stroke="midnightblue" points="623.24,-159.486 613.076,-162.479 622.888,-166.477 623.24,-159.486"/>
</g>
<!-- Node5 -->
<g id="node8" class="node"><title>Node5</title>
<a xlink:href="../../d5/dfb/classgaia_1_1core_1_1_scene.html" target="_top" xlink:title="A Scene is used to build a visual interface.">
<polygon fill="white" stroke="black" points="775.5,-72.5 775.5,-93.5 868.5,-93.5 868.5,-72.5 775.5,-72.5"/>
<text text-anchor="middle" x="822" y="-80.5" font-family="Helvetica,sans-Serif" font-size="10.00">gaia::core::Scene</text>
</a>
</g>
<!-- Node2&#45;&gt;Node5 -->
<g id="edge10" class="edge"><title>Node2&#45;&gt;Node5</title>
<path fill="none" stroke="#9a32cd" stroke-dasharray="5,2" d="M574.848,-144.216C598.703,-133.326 632.813,-118.916 664,-110 700.79,-99.4822 743.64,-92.4737 775.427,-88.239"/>
<polygon fill="#9a32cd" stroke="#9a32cd" points="573.212,-141.117 565.607,-148.494 576.152,-147.47 573.212,-141.117"/>
<text text-anchor="middle" x="696" y="-114" font-family="Helvetica,sans-Serif" font-size="10.00"> mpController</text>
</g>
<!-- Node3 -->
<g id="node4" class="node"><title>Node3</title>
<a xlink:href="../../d8/dac/classgaia_1_1core_1_1_widget.html" target="_top" xlink:title="The Widget class is the base class of all user interface component.">
<polygon fill="white" stroke="black" points="980,-178.5 980,-199.5 1076,-199.5 1076,-178.5 980,-178.5"/>
<text text-anchor="middle" x="1028" y="-186.5" font-family="Helvetica,sans-Serif" font-size="10.00">gaia::core::Widget</text>
</a>
</g>
<!-- Node3&#45;&gt;Node2 -->
<g id="edge4" class="edge"><title>Node3&#45;&gt;Node2</title>
<path fill="none" stroke="midnightblue" d="M995.361,-203.61C969.54,-214.286 932.253,-227.773 898,-233 831.218,-243.192 812.517,-244.8 746,-233 677.232,-220.8 601.146,-186.938 565.126,-169.571"/>
<polygon fill="midnightblue" stroke="midnightblue" points="996.816,-206.795 1004.67,-199.679 994.092,-200.347 996.816,-206.795"/>
</g>
<!-- Node4 -->
<g id="node6" class="node"><title>Node4</title>
<a xlink:href="../../d0/db2/classgaia_1_1core_1_1_property_animatable.html" target="_top" xlink:title="Any animation object need to implement PropertyAnimatable because of setting value.">
<polygon fill="white" stroke="black" points="746.5,-202.5 746.5,-223.5 897.5,-223.5 897.5,-202.5 746.5,-202.5"/>
<text text-anchor="middle" x="822" y="-210.5" font-family="Helvetica,sans-Serif" font-size="10.00">gaia::core::PropertyAnimatable</text>
</a>
</g>
<!-- Node4&#45;&gt;Node3 -->
<g id="edge6" class="edge"><title>Node4&#45;&gt;Node3</title>
<path fill="none" stroke="midnightblue" d="M907.658,-203.02C932.37,-200.141 958.453,-197.103 979.995,-194.593"/>
<polygon fill="midnightblue" stroke="midnightblue" points="907.065,-199.566 897.537,-204.2 907.875,-206.519 907.065,-199.566"/>
</g>
<!-- Node5&#45;&gt;Node2 -->
<g id="edge30" class="edge"><title>Node5&#45;&gt;Node2</title>
<path fill="none" stroke="#9a32cd" stroke-dasharray="5,2" d="M783.351,-97.126C771.25,-101.849 757.941,-107.356 746,-113 737.726,-116.911 736.596,-119.861 728,-123 691.157,-136.455 648.231,-145.22 613.112,-150.728"/>
<polygon fill="#9a32cd" stroke="#9a32cd" points="784.667,-100.37 792.749,-93.5187 782.158,-93.8349 784.667,-100.37"/>
<text text-anchor="middle" x="696" y="-144" font-family="Helvetica,sans-Serif" font-size="10.00"> mpScene</text>
</g>
<!-- Node5&#45;&gt;Node3 -->
<g id="edge8" class="edge"><title>Node5&#45;&gt;Node3</title>
<path fill="none" stroke="#9a32cd" stroke-dasharray="5,2" d="M863.611,-97.0516C892.168,-107.452 930.457,-122.914 962,-141 981.42,-152.135 1002.01,-167.809 1014.93,-178.178"/>
<polygon fill="#9a32cd" stroke="#9a32cd" points="864.537,-93.6657 853.943,-93.588 862.176,-100.256 864.537,-93.6657"/>
<text text-anchor="middle" x="939" y="-145" font-family="Helvetica,sans-Serif" font-size="10.00"> mpScene</text>
</g>
<!-- Node10 -->
<g id="node20" class="node"><title>Node10</title>
<a xlink:href="../../db/d3f/classgaia_1_1core_1_1_page.html" target="_top" xlink:title="An page is a single, focused thing that the user can do.">
<polygon fill="white" stroke="black" points="984,-54.5 984,-75.5 1072,-75.5 1072,-54.5 984,-54.5"/>
<text text-anchor="middle" x="1028" y="-62.5" font-family="Helvetica,sans-Serif" font-size="10.00">gaia::core::Page</text>
</a>
</g>
<!-- Node5&#45;&gt;Node10 -->
<g id="edge24" class="edge"><title>Node5&#45;&gt;Node10</title>
<path fill="none" stroke="#9a32cd" stroke-dasharray="5,2" d="M858.3,-69.0182C875.507,-63.1156 896.519,-56.9368 916,-54 936.216,-50.9524 941.625,-52.3137 962,-54 969.062,-54.5845 976.506,-55.5149 983.748,-56.5934"/>
<polygon fill="#9a32cd" stroke="#9a32cd" points="856.908,-65.7983 848.649,-72.435 859.244,-72.3969 856.908,-65.7983"/>
<text text-anchor="middle" x="939" y="-58" font-family="Helvetica,sans-Serif" font-size="10.00"> mpScene</text>
</g>
<!-- Node6 -->
<g id="node11" class="node"><title>Node6</title>
<a xlink:href="../../de/dad/classgaia_1_1content_1_1_resources.html" target="_top" xlink:title="Class for accessing an application&#39;s resources.">
<polygon fill="white" stroke="black" points="481,-62.5 481,-83.5 607,-83.5 607,-62.5 481,-62.5"/>
<text text-anchor="middle" x="544" y="-70.5" font-family="Helvetica,sans-Serif" font-size="10.00">gaia::content::Resources</text>
</a>
</g>
<!-- Node6&#45;&gt;Node5 -->
<g id="edge12" class="edge"><title>Node6&#45;&gt;Node5</title>
<path fill="none" stroke="#9a32cd" stroke-dasharray="5,2" d="M617.296,-71.8874C651.03,-71.7633 691.569,-72.1607 728,-74 743.391,-74.777 760.153,-76.1969 775.204,-77.6827"/>
<polygon fill="#9a32cd" stroke="#9a32cd" points="617.038,-68.3886 607.057,-71.9416 617.075,-75.3885 617.038,-68.3886"/>
<text text-anchor="middle" x="696" y="-78" font-family="Helvetica,sans-Serif" font-size="10.00"> mpResources</text>
</g>
<!-- Node7 -->
<g id="node13" class="node"><title>Node7</title>
<a xlink:href="../../df/d5d/classgaia_1_1base_1_1_vector.html" target="_top" xlink:title="gaia::base::Vector\&lt; gaia::ui::DialogBox * \&gt;">
<polygon fill="white" stroke="black" points="442.5,-22.5 442.5,-43.5 645.5,-43.5 645.5,-22.5 442.5,-22.5"/>
<text text-anchor="middle" x="544" y="-30.5" font-family="Helvetica,sans-Serif" font-size="10.00">gaia::base::Vector&lt; gaia::ui::DialogBox * &gt;</text>
</a>
</g>
<!-- Node7&#45;&gt;Node5 -->
<g id="edge14" class="edge"><title>Node7&#45;&gt;Node5</title>
<path fill="none" stroke="#9a32cd" stroke-dasharray="5,2" d="M655.865,-44.162C679.782,-47.3345 704.819,-51.2521 728,-56 748.792,-60.2588 771.691,-66.7959 789.682,-72.3711"/>
<polygon fill="#9a32cd" stroke="#9a32cd" points="656.058,-40.6579 645.692,-42.8477 655.161,-47.6002 656.058,-40.6579"/>
<text text-anchor="middle" x="696" y="-60" font-family="Helvetica,sans-Serif" font-size="10.00"> mDialogList</text>
</g>
<!-- Node8 -->
<g id="node15" class="node"><title>Node8</title>
<a xlink:href="../../d0/d21/classgaia_1_1base_1_1_vector_impl.html" target="_top" xlink:title="Implements vector data structure equipped with copy&#45;on&#45;write mechanism.">
<polygon fill="white" stroke="black" points="0.5,-23.5 0.5,-44.5 115.5,-44.5 115.5,-23.5 0.5,-23.5"/>
<text text-anchor="middle" x="58" y="-31.5" font-family="Helvetica,sans-Serif" font-size="10.00">gaia::base::VectorImpl</text>
</a>
</g>
<!-- Node8&#45;&gt;Node7 -->
<g id="edge16" class="edge"><title>Node8&#45;&gt;Node7</title>
<path fill="none" stroke="#8b1a1a" d="M125.792,-35.874C128.564,-35.9221 131.309,-35.9646 134,-36 262.878,-37.6955 295.121,-37.6107 424,-36 429.939,-35.9258 436.043,-35.8309 442.201,-35.7209"/>
<polygon fill="#8b1a1a" stroke="#8b1a1a" points="125.743,-32.3725 115.677,-35.6771 125.607,-39.3711 125.743,-32.3725"/>
</g>
<!-- Node9 -->
<g id="node17" class="node"><title>Node9</title>
<a xlink:href="../../df/d5d/classgaia_1_1base_1_1_vector.html" target="_top" xlink:title="This class implements the vector data structure.">
<polygon fill="white" stroke="black" points="154,-0.5 154,-21.5 294,-21.5 294,-0.5 154,-0.5"/>
<text text-anchor="middle" x="224" y="-8.5" font-family="Helvetica,sans-Serif" font-size="10.00">gaia::base::Vector&lt; TYPE &gt;</text>
</a>
</g>
<!-- Node8&#45;&gt;Node9 -->
<g id="edge20" class="edge"><title>Node8&#45;&gt;Node9</title>
<path fill="none" stroke="#8b1a1a" d="M125.596,-24.6344C134.933,-23.3406 144.54,-22.0096 153.921,-20.7098"/>
<polygon fill="#8b1a1a" stroke="#8b1a1a" points="125.018,-21.1809 115.593,-26.0203 125.979,-28.1146 125.018,-21.1809"/>
</g>
<!-- Node9&#45;&gt;Node7 -->
<g id="edge18" class="edge"><title>Node9&#45;&gt;Node7</title>
<path fill="none" stroke="orange" stroke-dasharray="5,2" d="M304.465,-15.4009C340.966,-17.5071 384.675,-20.1821 424,-23 429.943,-23.4258 436.05,-23.8808 442.211,-24.3531"/>
<polygon fill="orange" stroke="orange" points="304.555,-11.9003 294.371,-14.8222 304.154,-18.8889 304.555,-11.9003"/>
<text text-anchor="middle" x="368" y="-27" font-family="Helvetica,sans-Serif" font-size="10.00"> &lt; gaia::ui::DialogBox * &gt;</text>
</g>
<!-- Node10&#45;&gt;Node5 -->
<g id="edge22" class="edge"><title>Node10&#45;&gt;Node5</title>
<path fill="none" stroke="#9a32cd" stroke-dasharray="5,2" d="M973.634,-69.7504C941.001,-72.6018 899.915,-76.1919 868.745,-78.9155"/>
<polygon fill="#9a32cd" stroke="#9a32cd" points="974.251,-73.2099 983.909,-68.8526 973.642,-66.2365 974.251,-73.2099"/>
<text text-anchor="middle" x="939" y="-79" font-family="Helvetica,sans-Serif" font-size="10.00"> mpPage</text>
</g>
<!-- Node11 -->
<g id="node23" class="node"><title>Node11</title>
<a xlink:href="../../db/d88/classgaia_1_1core_1_1_widget_tag.html" target="_top" xlink:title="gaia::core::WidgetTag">
<polygon fill="white" stroke="black" points="765.5,-122.5 765.5,-143.5 878.5,-143.5 878.5,-122.5 765.5,-122.5"/>
<text text-anchor="middle" x="822" y="-130.5" font-family="Helvetica,sans-Serif" font-size="10.00">gaia::core::WidgetTag</text>
</a>
</g>
<!-- Node11&#45;&gt;Node3 -->
<g id="edge26" class="edge"><title>Node11&#45;&gt;Node3</title>
<path fill="none" stroke="#9a32cd" stroke-dasharray="5,2" d="M872.499,-146.192C881.016,-148.445 889.763,-150.776 898,-153 929.201,-161.425 964.539,-171.228 990.489,-178.475"/>
<polygon fill="#9a32cd" stroke="#9a32cd" points="873.213,-142.761 862.651,-143.595 871.428,-149.529 873.213,-142.761"/>
<text text-anchor="middle" x="939" y="-173" font-family="Helvetica,sans-Serif" font-size="10.00"> mpTag</text>
</g>
<!-- Node12 -->
<g id="node25" class="node"><title>Node12</title>
<a xlink:href="../../dd/de0/classgaia_1_1core_1_1_event_control.html" target="_top" xlink:title="EventControl is used to dispatch event and register listener.">
<polygon fill="white" stroke="black" points="163,-148.5 163,-169.5 285,-169.5 285,-148.5 163,-148.5"/>
<text text-anchor="middle" x="224" y="-156.5" font-family="Helvetica,sans-Serif" font-size="10.00">gaia::core::EventControl</text>
</a>
</g>
<!-- Node12&#45;&gt;Node2 -->
<g id="edge28" class="edge"><title>Node12&#45;&gt;Node2</title>
<path fill="none" stroke="midnightblue" d="M295.422,-159C348.968,-159 421.839,-159 474.831,-159"/>
<polygon fill="midnightblue" stroke="midnightblue" points="295.321,-155.5 285.321,-159 295.321,-162.5 295.321,-155.5"/>
</g>
</g>
</svg>
