<?xml version="1.0" encoding="UTF-8" standalone="no"?>
<!DOCTYPE svg PUBLIC "-//W3C//DTD SVG 1.1//EN"
 "http://www.w3.org/Graphics/SVG/1.1/DTD/svg11.dtd">
<!-- Generated by graphviz version 2.26.3 (20100126.1600)
 -->
<!-- Title: G Pages: 1 -->
<svg width="326pt" height="240pt"
 viewBox="0.00 0.00 326.00 240.00" xmlns="http://www.w3.org/2000/svg" xmlns:xlink="http://www.w3.org/1999/xlink">
<g id="graph1" class="graph" transform="scale(1 1) rotate(0) translate(4 236)">
<title>G</title>
<polygon fill="white" stroke="white" points="-4,5 -4,-236 323,-236 323,5 -4,5"/>
<!-- Node1 -->
<g id="node1" class="node"><title>Node1</title>
<polygon fill="#bfbfbf" stroke="black" points="80,-0.5 80,-21.5 274,-21.5 274,-0.5 80,-0.5"/>
<text text-anchor="middle" x="177" y="-8.5" font-family="Helvetica,sans-Serif" font-size="10.00">gaia::cloudstorage::CloudStorageFileInfo</text>
</g>
<!-- Node2 -->
<g id="node2" class="node"><title>Node2</title>
<a xlink:href="../../d2/ddb/classgaia_1_1base_1_1_string.html" target="_top" xlink:title="A String is represented by array of UTF&#45;16 values, such that Unicode supplementary characters (code p...">
<polygon fill="white" stroke="black" points="19.5,-150.5 19.5,-171.5 112.5,-171.5 112.5,-150.5 19.5,-150.5"/>
<text text-anchor="middle" x="66" y="-158.5" font-family="Helvetica,sans-Serif" font-size="10.00">gaia::base::String</text>
</a>
</g>
<!-- Node2&#45;&gt;Node1 -->
<g id="edge2" class="edge"><title>Node2&#45;&gt;Node1</title>
<path fill="none" stroke="#9a32cd" stroke-dasharray="5,2" d="M68.9284,-140.115C73.6417,-113.711 85.2549,-68.2966 112,-40 119.639,-31.9177 129.941,-25.9339 140.089,-21.5722"/>
<polygon fill="#9a32cd" stroke="#9a32cd" points="65.445,-139.731 67.3068,-150.161 72.3556,-140.847 65.445,-139.731"/>
<text text-anchor="middle" x="147.5" y="-122.5" font-family="Helvetica,sans-Serif" font-size="10.00"> mDownloadUrl</text>
<text text-anchor="middle" x="147.5" y="-109.5" font-family="Helvetica,sans-Serif" font-size="10.00">mName</text>
<text text-anchor="middle" x="147.5" y="-96.5" font-family="Helvetica,sans-Serif" font-size="10.00">mAccountType</text>
<text text-anchor="middle" x="147.5" y="-83.5" font-family="Helvetica,sans-Serif" font-size="10.00">mAccountName</text>
<text text-anchor="middle" x="147.5" y="-70.5" font-family="Helvetica,sans-Serif" font-size="10.00">mThumbnail</text>
<text text-anchor="middle" x="147.5" y="-57.5" font-family="Helvetica,sans-Serif" font-size="10.00">mPath</text>
<text text-anchor="middle" x="147.5" y="-44.5" font-family="Helvetica,sans-Serif" font-size="10.00">mType</text>
</g>
<!-- Node3 -->
<g id="node4" class="node"><title>Node3</title>
<a xlink:href="../../d1/d0f/classgaia_1_1base_1_1_char_sequence.html" target="_top" xlink:title="This interface represents an ordered set of characters and defines the methods to probe them...">
<polygon fill="white" stroke="black" points="0,-210.5 0,-231.5 132,-231.5 132,-210.5 0,-210.5"/>
<text text-anchor="middle" x="66" y="-218.5" font-family="Helvetica,sans-Serif" font-size="10.00">gaia::base::CharSequence</text>
</a>
</g>
<!-- Node3&#45;&gt;Node2 -->
<g id="edge4" class="edge"><title>Node3&#45;&gt;Node2</title>
<path fill="none" stroke="midnightblue" d="M66,-200.231C66,-190.592 66,-179.544 66,-171.634"/>
<polygon fill="midnightblue" stroke="midnightblue" points="62.5001,-200.273 66,-210.273 69.5001,-200.273 62.5001,-200.273"/>
</g>
<!-- Node4 -->
<g id="node6" class="node"><title>Node4</title>
<a xlink:href="../../d4/df5/classgaia_1_1cloudstorage_1_1_cloud_storage_plugin.html" target="_top" xlink:title="gaia::cloudstorage::CloudStoragePlugin">
<polygon fill="white" stroke="black" points="130,-150.5 130,-171.5 318,-171.5 318,-150.5 130,-150.5"/>
<text text-anchor="middle" x="224" y="-158.5" font-family="Helvetica,sans-Serif" font-size="10.00">gaia::cloudstorage::CloudStoragePlugin</text>
</a>
</g>
<!-- Node4&#45;&gt;Node1 -->
<g id="edge6" class="edge"><title>Node4&#45;&gt;Node1</title>
<path fill="none" stroke="#9a32cd" stroke-dasharray="5,2" d="M217.565,-140.464C207.432,-108.123 188.11,-46.4584 180.349,-21.6899"/>
<polygon fill="#9a32cd" stroke="#9a32cd" points="214.29,-141.716 220.62,-150.212 220.97,-139.623 214.29,-141.716"/>
<text text-anchor="middle" x="264.5" y="-83.5" font-family="Helvetica,sans-Serif" font-size="10.00"> mpCloudStoragePlugin</text>
</g>
</g>
</svg>
