<?xml version="1.0" encoding="UTF-8" standalone="no"?>
<!DOCTYPE svg PUBLIC "-//W3C//DTD SVG 1.1//EN"
 "http://www.w3.org/Graphics/SVG/1.1/DTD/svg11.dtd">
<!-- Generated by graphviz version 2.26.3 (20100126.1600)
 -->
<!-- Title: G Pages: 1 -->
<svg width="193pt" height="106pt"
 viewBox="0.00 0.00 193.00 106.00" xmlns="http://www.w3.org/2000/svg" xmlns:xlink="http://www.w3.org/1999/xlink">
<g id="graph1" class="graph" transform="scale(1 1) rotate(0) translate(4 102)">
<title>G</title>
<polygon fill="white" stroke="white" points="-4,5 -4,-102 190,-102 190,5 -4,5"/>
<!-- Node1 -->
<g id="node1" class="node"><title>Node1</title>
<polygon fill="#bfbfbf" stroke="black" points="14,-0.5 14,-21.5 116,-21.5 116,-0.5 14,-0.5"/>
<text text-anchor="middle" x="65" y="-8.5" font-family="Helvetica,sans-Serif" font-size="10.00">gaia::base::ListImpl</text>
</g>
<!-- Node2 -->
<g id="node2" class="node"><title>Node2</title>
<a xlink:href="../../df/d10/classgaia_1_1base_1_1_list_impl_1_1_node.html" target="_top" xlink:title="A node structure that will be gathered into a list.">
<polygon fill="white" stroke="black" points="-0.5,-74.5 -0.5,-95.5 130.5,-95.5 130.5,-74.5 -0.5,-74.5"/>
<text text-anchor="middle" x="65" y="-82.5" font-family="Helvetica,sans-Serif" font-size="10.00">gaia::base::ListImpl::Node</text>
</a>
</g>
<!-- Node2&#45;&gt;Node1 -->
<g id="edge2" class="edge"><title>Node2&#45;&gt;Node1</title>
<path fill="none" stroke="#9a32cd" stroke-dasharray="5,2" d="M65,-64.2771C65,-50.3872 65,-32.675 65,-21.5827"/>
<polygon fill="#9a32cd" stroke="#9a32cd" points="61.5001,-64.3976 65,-74.3976 68.5001,-64.3976 61.5001,-64.3976"/>
<text text-anchor="middle" x="88" y="-44.5" font-family="Helvetica,sans-Serif" font-size="10.00"> mpMiddle</text>
</g>
<!-- Node2&#45;&gt;Node2 -->
<g id="edge4" class="edge"><title>Node2&#45;&gt;Node2</title>
<path fill="none" stroke="#9a32cd" stroke-dasharray="5,2" d="M140.717,-89.9251C145.269,-88.7523 148,-87.1106 148,-85 148,-81.623 141.008,-79.4465 130.753,-78.4703"/>
<polygon fill="#9a32cd" stroke="#9a32cd" points="140.069,-86.4842 130.753,-91.5297 141.182,-93.3952 140.069,-86.4842"/>
<text text-anchor="middle" x="166.5" y="-89" font-family="Helvetica,sans-Serif" font-size="10.00"> mpPrev</text>
<text text-anchor="middle" x="166.5" y="-76" font-family="Helvetica,sans-Serif" font-size="10.00">mpNext</text>
</g>
</g>
</svg>
