<?xml version="1.0" encoding="UTF-8" standalone="no"?>
<!DOCTYPE svg PUBLIC "-//W3C//DTD SVG 1.1//EN"
 "http://www.w3.org/Graphics/SVG/1.1/DTD/svg11.dtd">
<!-- Generated by graphviz version 2.26.3 (20100126.1600)
 -->
<!-- Title: G Pages: 1 -->
<svg width="346pt" height="146pt"
 viewBox="0.00 0.00 346.00 146.00" xmlns="http://www.w3.org/2000/svg" xmlns:xlink="http://www.w3.org/1999/xlink">
<g id="graph1" class="graph" transform="scale(1 1) rotate(0) translate(4 142)">
<title>G</title>
<polygon fill="white" stroke="white" points="-4,5 -4,-142 343,-142 343,5 -4,5"/>
<!-- Node1 -->
<g id="node1" class="node"><title>Node1</title>
<polygon fill="#bfbfbf" stroke="black" points="-0.5,-116.5 -0.5,-137.5 338.5,-137.5 338.5,-116.5 -0.5,-116.5"/>
<text text-anchor="middle" x="169" y="-124.5" font-family="Helvetica,sans-Serif" font-size="10.00">/home/vilon_tao/gaia/sdk/include/gaia/core/FragmentStatePagerProvider.h</text>
</g>
<!-- Node2 -->
<g id="node3" class="node"><title>Node2</title>
<a xlink:href="../../d8/d36/_i_pager_provider_f_8h.html" target="_top" xlink:title="gaia/ui/IPagerProviderF.h">
<polygon fill="white" stroke="black" points="105.5,-58.5 105.5,-79.5 232.5,-79.5 232.5,-58.5 105.5,-58.5"/>
<text text-anchor="middle" x="169" y="-66.5" font-family="Helvetica,sans-Serif" font-size="10.00">gaia/ui/IPagerProviderF.h</text>
</a>
</g>
<!-- Node1&#45;&gt;Node2 -->
<g id="edge2" class="edge"><title>Node1&#45;&gt;Node2</title>
<path fill="none" stroke="midnightblue" d="M169,-116.362C169,-108.922 169,-98.7427 169,-89.7276"/>
<polygon fill="midnightblue" stroke="midnightblue" points="172.5,-89.5706 169,-79.5707 165.5,-89.5707 172.5,-89.5706"/>
</g>
<!-- Node3 -->
<g id="node5" class="node"><title>Node3</title>
<polygon fill="white" stroke="#bfbfbf" points="144.5,-0.5 144.5,-21.5 193.5,-21.5 193.5,-0.5 144.5,-0.5"/>
<text text-anchor="middle" x="169" y="-8.5" font-family="Helvetica,sans-Serif" font-size="10.00">stdint.h</text>
</g>
<!-- Node2&#45;&gt;Node3 -->
<g id="edge4" class="edge"><title>Node2&#45;&gt;Node3</title>
<path fill="none" stroke="midnightblue" d="M169,-58.3619C169,-50.9219 169,-40.7427 169,-31.7276"/>
<polygon fill="midnightblue" stroke="midnightblue" points="172.5,-31.5706 169,-21.5707 165.5,-31.5707 172.5,-31.5706"/>
</g>
</g>
</svg>
