<?xml version="1.0" encoding="UTF-8" standalone="no"?>
<!DOCTYPE svg PUBLIC "-//W3C//DTD SVG 1.1//EN"
 "http://www.w3.org/Graphics/SVG/1.1/DTD/svg11.dtd">
<!-- Generated by graphviz version 2.26.3 (20100126.1600)
 -->
<!-- Title: G Pages: 1 -->
<svg width="1266pt" height="204pt"
 viewBox="0.00 0.00 1266.00 204.00" xmlns="http://www.w3.org/2000/svg" xmlns:xlink="http://www.w3.org/1999/xlink">
<g id="graph1" class="graph" transform="scale(1 1) rotate(0) translate(4 200)">
<title>G</title>
<polygon fill="white" stroke="white" points="-4,5 -4,-200 1263,-200 1263,5 -4,5"/>
<!-- Node1 -->
<g id="node1" class="node"><title>Node1</title>
<polygon fill="#bfbfbf" stroke="black" points="471,-174.5 471,-195.5 775,-195.5 775,-174.5 471,-174.5"/>
<text text-anchor="middle" x="623" y="-182.5" font-family="Helvetica,sans-Serif" font-size="10.00">/home/vilon_tao/gaia/sdk/include/gaia/core/pm/PackageItemInfo.h</text>
</g>
<!-- Node2 -->
<g id="node3" class="node"><title>Node2</title>
<a xlink:href="../../d0/d27/_application_info_8h.html" target="_top" xlink:title="/home/vilon_tao/gaia/sdk/include/gaia/core/pm/ApplicationInfo.h">
<polygon fill="white" stroke="black" points="0,-116.5 0,-137.5 294,-137.5 294,-116.5 0,-116.5"/>
<text text-anchor="middle" x="147" y="-124.5" font-family="Helvetica,sans-Serif" font-size="10.00">/home/vilon_tao/gaia/sdk/include/gaia/core/pm/ApplicationInfo.h</text>
</a>
</g>
<!-- Node1&#45;&gt;Node2 -->
<g id="edge2" class="edge"><title>Node1&#45;&gt;Node2</title>
<path fill="none" stroke="midnightblue" d="M526.781,-173.276C440.859,-162.806 316.14,-147.61 233.362,-137.523"/>
<polygon fill="midnightblue" stroke="midnightblue" points="526.45,-176.761 536.8,-174.497 527.297,-169.813 526.45,-176.761"/>
</g>
<!-- Node3 -->
<g id="node5" class="node"><title>Node3</title>
<a xlink:href="../../d5/d6f/_component_info_8h.html" target="_top" xlink:title="/home/vilon_tao/gaia/sdk/include/gaia/core/pm/ComponentInfo.h">
<polygon fill="white" stroke="black" points="312,-116.5 312,-137.5 608,-137.5 608,-116.5 312,-116.5"/>
<text text-anchor="middle" x="460" y="-124.5" font-family="Helvetica,sans-Serif" font-size="10.00">/home/vilon_tao/gaia/sdk/include/gaia/core/pm/ComponentInfo.h</text>
</a>
</g>
<!-- Node1&#45;&gt;Node3 -->
<g id="edge4" class="edge"><title>Node1&#45;&gt;Node3</title>
<path fill="none" stroke="midnightblue" d="M583.682,-171.009C554.715,-160.702 515.934,-146.903 489.573,-137.523"/>
<polygon fill="midnightblue" stroke="midnightblue" points="582.887,-174.442 593.482,-174.497 585.234,-167.847 582.887,-174.442"/>
</g>
<!-- Node8 -->
<g id="node15" class="node"><title>Node8</title>
<a xlink:href="../../d1/dfc/_permission_group_info_8h.html" target="_top" xlink:title="/home/vilon_tao/gaia/sdk/include/gaia/core/pm/PermissionGroupInfo.h">
<polygon fill="white" stroke="black" points="625.5,-116.5 625.5,-137.5 946.5,-137.5 946.5,-116.5 625.5,-116.5"/>
<text text-anchor="middle" x="786" y="-124.5" font-family="Helvetica,sans-Serif" font-size="10.00">/home/vilon_tao/gaia/sdk/include/gaia/core/pm/PermissionGroupInfo.h</text>
</a>
</g>
<!-- Node1&#45;&gt;Node8 -->
<g id="edge14" class="edge"><title>Node1&#45;&gt;Node8</title>
<path fill="none" stroke="midnightblue" d="M662.318,-171.009C691.285,-160.702 730.066,-146.903 756.427,-137.523"/>
<polygon fill="midnightblue" stroke="midnightblue" points="660.766,-167.847 652.518,-174.497 663.113,-174.442 660.766,-167.847"/>
</g>
<!-- Node9 -->
<g id="node17" class="node"><title>Node9</title>
<a xlink:href="../../d4/dd5/_permission_info_8h.html" target="_top" xlink:title="/home/vilon_tao/gaia/sdk/include/gaia/core/pm/PermissionInfo.h">
<polygon fill="white" stroke="black" points="963.5,-116.5 963.5,-137.5 1258.5,-137.5 1258.5,-116.5 963.5,-116.5"/>
<text text-anchor="middle" x="1111" y="-124.5" font-family="Helvetica,sans-Serif" font-size="10.00">/home/vilon_tao/gaia/sdk/include/gaia/core/pm/PermissionInfo.h</text>
</a>
</g>
<!-- Node1&#45;&gt;Node9 -->
<g id="edge16" class="edge"><title>Node1&#45;&gt;Node9</title>
<path fill="none" stroke="midnightblue" d="M721.376,-173.308C809.473,-162.837 937.51,-147.62 1022.46,-137.523"/>
<polygon fill="midnightblue" stroke="midnightblue" points="720.89,-169.841 711.373,-174.497 721.716,-176.792 720.89,-169.841"/>
</g>
<!-- Node4 -->
<g id="node7" class="node"><title>Node4</title>
<a xlink:href="../../db/d07/_delegate_info_8h.html" target="_top" xlink:title="/home/vilon_tao/gaia/sdk/include/gaia/core/pm/DelegateInfo.h">
<polygon fill="white" stroke="black" points="23.5,-58.5 23.5,-79.5 308.5,-79.5 308.5,-58.5 23.5,-58.5"/>
<text text-anchor="middle" x="166" y="-66.5" font-family="Helvetica,sans-Serif" font-size="10.00">/home/vilon_tao/gaia/sdk/include/gaia/core/pm/DelegateInfo.h</text>
</a>
</g>
<!-- Node3&#45;&gt;Node4 -->
<g id="edge6" class="edge"><title>Node3&#45;&gt;Node4</title>
<path fill="none" stroke="midnightblue" d="M396.815,-114.535C343.918,-104.099 269.275,-89.374 219.341,-79.5231"/>
<polygon fill="midnightblue" stroke="midnightblue" points="396.27,-117.995 406.759,-116.497 397.625,-111.127 396.27,-117.995"/>
</g>
<!-- Node5 -->
<g id="node9" class="node"><title>Node5</title>
<a xlink:href="../../d7/dbc/_page_info_8h.html" target="_top" xlink:title="/home/vilon_tao/gaia/sdk/include/gaia/core/pm/PageInfo.h">
<polygon fill="white" stroke="black" points="325.5,-58.5 325.5,-79.5 594.5,-79.5 594.5,-58.5 325.5,-58.5"/>
<text text-anchor="middle" x="460" y="-66.5" font-family="Helvetica,sans-Serif" font-size="10.00">/home/vilon_tao/gaia/sdk/include/gaia/core/pm/PageInfo.h</text>
</a>
</g>
<!-- Node3&#45;&gt;Node5 -->
<g id="edge8" class="edge"><title>Node3&#45;&gt;Node5</title>
<path fill="none" stroke="midnightblue" d="M460,-106.191C460,-97.1684 460,-86.9941 460,-79.5707"/>
<polygon fill="midnightblue" stroke="midnightblue" points="456.5,-106.362 460,-116.362 463.5,-106.362 456.5,-106.362"/>
</g>
<!-- Node7 -->
<g id="node13" class="node"><title>Node7</title>
<a xlink:href="../../d0/d00/_provider_info_8h.html" target="_top" xlink:title="/home/vilon_tao/gaia/sdk/include/gaia/core/pm/ProviderInfo.h">
<polygon fill="white" stroke="black" points="612,-58.5 612,-79.5 894,-79.5 894,-58.5 612,-58.5"/>
<text text-anchor="middle" x="753" y="-66.5" font-family="Helvetica,sans-Serif" font-size="10.00">/home/vilon_tao/gaia/sdk/include/gaia/core/pm/ProviderInfo.h</text>
</a>
</g>
<!-- Node3&#45;&gt;Node7 -->
<g id="edge12" class="edge"><title>Node3&#45;&gt;Node7</title>
<path fill="none" stroke="midnightblue" d="M522.97,-114.535C575.687,-104.099 650.076,-89.374 699.84,-79.5231"/>
<polygon fill="midnightblue" stroke="midnightblue" points="522.19,-111.121 513.06,-116.497 523.549,-117.988 522.19,-111.121"/>
</g>
<!-- Node6 -->
<g id="node11" class="node"><title>Node6</title>
<a xlink:href="../../db/deb/_page_unit_test_case_8h.html" target="_top" xlink:title="/home/vilon_tao/gaia/sdk/include/gaia/testing/PageUnitTestCase.h">
<polygon fill="white" stroke="black" points="306.5,-0.5 306.5,-21.5 613.5,-21.5 613.5,-0.5 306.5,-0.5"/>
<text text-anchor="middle" x="460" y="-8.5" font-family="Helvetica,sans-Serif" font-size="10.00">/home/vilon_tao/gaia/sdk/include/gaia/testing/PageUnitTestCase.h</text>
</a>
</g>
<!-- Node5&#45;&gt;Node6 -->
<g id="edge10" class="edge"><title>Node5&#45;&gt;Node6</title>
<path fill="none" stroke="midnightblue" d="M460,-48.1906C460,-39.1684 460,-28.9941 460,-21.5707"/>
<polygon fill="midnightblue" stroke="midnightblue" points="456.5,-48.3619 460,-58.3619 463.5,-48.3619 456.5,-48.3619"/>
</g>
</g>
</svg>
