<?xml version="1.0" encoding="UTF-8" standalone="no"?>
<!DOCTYPE svg PUBLIC "-//W3C//DTD SVG 1.1//EN"
 "http://www.w3.org/Graphics/SVG/1.1/DTD/svg11.dtd">
<!-- Generated by graphviz version 2.26.3 (20100126.1600)
 -->
<!-- Title: G Pages: 1 -->
<svg width="340pt" height="88pt"
 viewBox="0.00 0.00 340.00 88.00" xmlns="http://www.w3.org/2000/svg" xmlns:xlink="http://www.w3.org/1999/xlink">
<g id="graph1" class="graph" transform="scale(1 1) rotate(0) translate(4 84)">
<title>G</title>
<polygon fill="white" stroke="white" points="-4,5 -4,-84 337,-84 337,5 -4,5"/>
<!-- Node1 -->
<g id="node1" class="node"><title>Node1</title>
<polygon fill="#bfbfbf" stroke="black" points="0,-58.5 0,-79.5 332,-79.5 332,-58.5 0,-58.5"/>
<text text-anchor="middle" x="166" y="-66.5" font-family="Helvetica,sans-Serif" font-size="10.00">/home/vilon_tao/gaia/sdk/include/gaia/core/pm/PackageMoveObserver.h</text>
</g>
<!-- Node2 -->
<g id="node3" class="node"><title>Node2</title>
<a xlink:href="../../d1/dd0/gmacros_8h.html" target="_top" xlink:title="gaia/base/gmacros.h">
<polygon fill="white" stroke="black" points="60.5,-0.5 60.5,-21.5 167.5,-21.5 167.5,-0.5 60.5,-0.5"/>
<text text-anchor="middle" x="114" y="-8.5" font-family="Helvetica,sans-Serif" font-size="10.00">gaia/base/gmacros.h</text>
</a>
</g>
<!-- Node1&#45;&gt;Node2 -->
<g id="edge2" class="edge"><title>Node1&#45;&gt;Node2</title>
<path fill="none" stroke="midnightblue" d="M156.462,-58.3619C149.132,-50.1861 138.837,-38.7025 130.219,-29.0907"/>
<polygon fill="midnightblue" stroke="midnightblue" points="132.759,-26.68 123.477,-21.5707 127.547,-31.3528 132.759,-26.68"/>
</g>
<!-- Node3 -->
<g id="node5" class="node"><title>Node3</title>
<polygon fill="white" stroke="#bfbfbf" points="185,-0.5 185,-21.5 253,-21.5 253,-0.5 185,-0.5"/>
<text text-anchor="middle" x="219" y="-8.5" font-family="Helvetica,sans-Serif" font-size="10.00">sys/types.h</text>
</g>
<!-- Node1&#45;&gt;Node3 -->
<g id="edge4" class="edge"><title>Node1&#45;&gt;Node3</title>
<path fill="none" stroke="midnightblue" d="M175.721,-58.3619C183.192,-50.1861 193.686,-38.7025 202.469,-29.0907"/>
<polygon fill="midnightblue" stroke="midnightblue" points="205.179,-31.3138 209.341,-21.5707 200.011,-26.5918 205.179,-31.3138"/>
</g>
</g>
</svg>
