<?xml version="1.0" encoding="UTF-8" standalone="no"?>
<!DOCTYPE svg PUBLIC "-//W3C//DTD SVG 1.1//EN"
 "http://www.w3.org/Graphics/SVG/1.1/DTD/svg11.dtd">
<!-- Generated by graphviz version 2.26.3 (20100126.1600)
 -->
<!-- Title: G Pages: 1 -->
<svg width="277pt" height="150pt"
 viewBox="0.00 0.00 277.00 150.00" xmlns="http://www.w3.org/2000/svg" xmlns:xlink="http://www.w3.org/1999/xlink">
<g id="graph1" class="graph" transform="scale(1 1) rotate(0) translate(4 146)">
<title>G</title>
<polygon fill="white" stroke="white" points="-4,5 -4,-146 274,-146 274,5 -4,5"/>
<!-- Node1 -->
<g id="node1" class="node"><title>Node1</title>
<polygon fill="#bfbfbf" stroke="black" points="51,-0.5 51,-21.5 191,-21.5 191,-0.5 51,-0.5"/>
<text text-anchor="middle" x="121" y="-8.5" font-family="Helvetica,sans-Serif" font-size="10.00">gaia::text::DialerKeyListener</text>
</g>
<!-- Node1&#45;&gt;Node1 -->
<g id="edge8" class="edge"><title>Node1&#45;&gt;Node1</title>
<path fill="none" stroke="#9a32cd" stroke-dasharray="5,2" d="M201.078,-14.9262C206.024,-13.9979 209,-12.6891 209,-11 209,-8.36328 201.749,-6.65353 191.071,-5.87076"/>
<polygon fill="#9a32cd" stroke="#9a32cd" points="200.582,-11.4605 191.071,-16.1292 201.417,-18.4105 200.582,-11.4605"/>
<text text-anchor="middle" x="239" y="-8.5" font-family="Helvetica,sans-Serif" font-size="10.00"> mspInstance</text>
</g>
<!-- Node2 -->
<g id="node2" class="node"><title>Node2</title>
<a xlink:href="../../da/d8a/classgaia_1_1text_1_1_number_key_listener.html" target="_top" xlink:title="For numeric text entry.">
<polygon fill="white" stroke="black" points="46.5,-60.5 46.5,-81.5 195.5,-81.5 195.5,-60.5 46.5,-60.5"/>
<text text-anchor="middle" x="121" y="-68.5" font-family="Helvetica,sans-Serif" font-size="10.00">gaia::text::NumberKeyListener</text>
</a>
</g>
<!-- Node2&#45;&gt;Node1 -->
<g id="edge2" class="edge"><title>Node2&#45;&gt;Node1</title>
<path fill="none" stroke="midnightblue" d="M121,-50.2312C121,-40.5922 121,-29.5444 121,-21.6339"/>
<polygon fill="midnightblue" stroke="midnightblue" points="117.5,-50.2732 121,-60.2732 124.5,-50.2732 117.5,-50.2732"/>
</g>
<!-- Node3 -->
<g id="node4" class="node"><title>Node3</title>
<a xlink:href="../../d7/d60/classgaia_1_1text_1_1_key_listener.html" target="_top" xlink:title="Interface for converting text key events into edit operations on an Editable class.">
<polygon fill="white" stroke="black" points="-0.5,-120.5 -0.5,-141.5 114.5,-141.5 114.5,-120.5 -0.5,-120.5"/>
<text text-anchor="middle" x="57" y="-128.5" font-family="Helvetica,sans-Serif" font-size="10.00">gaia::text::KeyListener</text>
</a>
</g>
<!-- Node3&#45;&gt;Node2 -->
<g id="edge4" class="edge"><title>Node3&#45;&gt;Node2</title>
<path fill="none" stroke="midnightblue" d="M75.8948,-113.286C86.8621,-103.004 100.312,-90.395 109.657,-81.6339"/>
<polygon fill="midnightblue" stroke="midnightblue" points="73.3435,-110.88 68.4419,-120.273 78.1311,-115.987 73.3435,-110.88"/>
</g>
<!-- Node4 -->
<g id="node6" class="node"><title>Node4</title>
<a xlink:href="../../d8/d3e/classgaia_1_1text_1_1_input_filter.html" target="_top" xlink:title="InputFilters can be attached to Editables to constrain the changes that can be made to them...">
<polygon fill="white" stroke="black" points="131.5,-120.5 131.5,-141.5 238.5,-141.5 238.5,-120.5 131.5,-120.5"/>
<text text-anchor="middle" x="185" y="-128.5" font-family="Helvetica,sans-Serif" font-size="10.00">gaia::text::InputFilter</text>
</a>
</g>
<!-- Node4&#45;&gt;Node2 -->
<g id="edge6" class="edge"><title>Node4&#45;&gt;Node2</title>
<path fill="none" stroke="midnightblue" d="M166.105,-113.286C155.138,-103.004 141.688,-90.395 132.343,-81.6339"/>
<polygon fill="midnightblue" stroke="midnightblue" points="163.869,-115.987 173.558,-120.273 168.656,-110.88 163.869,-115.987"/>
</g>
</g>
</svg>
