<?xml version="1.0" encoding="UTF-8" standalone="no"?>
<!DOCTYPE svg PUBLIC "-//W3C//DTD SVG 1.1//EN"
 "http://www.w3.org/Graphics/SVG/1.1/DTD/svg11.dtd">
<!-- Generated by graphviz version 2.26.3 (20100126.1600)
 -->
<!-- Title: G Pages: 1 -->
<svg width="319pt" height="378pt"
 viewBox="0.00 0.00 319.00 378.00" xmlns="http://www.w3.org/2000/svg" xmlns:xlink="http://www.w3.org/1999/xlink">
<g id="graph1" class="graph" transform="scale(1 1) rotate(0) translate(4 374)">
<title>G</title>
<polygon fill="white" stroke="white" points="-4,5 -4,-374 316,-374 316,5 -4,5"/>
<!-- Node1 -->
<g id="node1" class="node"><title>Node1</title>
<polygon fill="#bfbfbf" stroke="black" points="-0.5,-348.5 -0.5,-369.5 306.5,-369.5 306.5,-348.5 -0.5,-348.5"/>
<text text-anchor="middle" x="153" y="-356.5" font-family="Helvetica,sans-Serif" font-size="10.00">/home/vilon_tao/gaia/sdk/include/gaia/text/style/SuperscriptSpan.h</text>
</g>
<!-- Node2 -->
<g id="node3" class="node"><title>Node2</title>
<a xlink:href="../../d6/d5c/_metric_affecting_span_8h.html" target="_top" xlink:title="gaia/text/style/MetricAffectingSpan.h">
<polygon fill="white" stroke="black" points="64,-290.5 64,-311.5 242,-311.5 242,-290.5 64,-290.5"/>
<text text-anchor="middle" x="153" y="-298.5" font-family="Helvetica,sans-Serif" font-size="10.00">gaia/text/style/MetricAffectingSpan.h</text>
</a>
</g>
<!-- Node1&#45;&gt;Node2 -->
<g id="edge2" class="edge"><title>Node1&#45;&gt;Node2</title>
<path fill="none" stroke="midnightblue" d="M153,-348.362C153,-340.922 153,-330.743 153,-321.728"/>
<polygon fill="midnightblue" stroke="midnightblue" points="156.5,-321.571 153,-311.571 149.5,-321.571 156.5,-321.571"/>
</g>
<!-- Node3 -->
<g id="node5" class="node"><title>Node3</title>
<a xlink:href="../../d5/dc5/_character_style_8h.html" target="_top" xlink:title="gaia/text/style/CharacterStyle.h">
<polygon fill="white" stroke="black" points="75.5,-232.5 75.5,-253.5 230.5,-253.5 230.5,-232.5 75.5,-232.5"/>
<text text-anchor="middle" x="153" y="-240.5" font-family="Helvetica,sans-Serif" font-size="10.00">gaia/text/style/CharacterStyle.h</text>
</a>
</g>
<!-- Node2&#45;&gt;Node3 -->
<g id="edge4" class="edge"><title>Node2&#45;&gt;Node3</title>
<path fill="none" stroke="midnightblue" d="M153,-290.362C153,-282.922 153,-272.743 153,-263.728"/>
<polygon fill="midnightblue" stroke="midnightblue" points="156.5,-263.571 153,-253.571 149.5,-263.571 156.5,-263.571"/>
</g>
<!-- Node4 -->
<g id="node7" class="node"><title>Node4</title>
<a xlink:href="../../d1/d81/_object_style_8h.html" target="_top" xlink:title="gaia/text/style/ObjectStyle.h">
<polygon fill="white" stroke="black" points="13,-174.5 13,-195.5 153,-195.5 153,-174.5 13,-174.5"/>
<text text-anchor="middle" x="83" y="-182.5" font-family="Helvetica,sans-Serif" font-size="10.00">gaia/text/style/ObjectStyle.h</text>
</a>
</g>
<!-- Node3&#45;&gt;Node4 -->
<g id="edge6" class="edge"><title>Node3&#45;&gt;Node4</title>
<path fill="none" stroke="midnightblue" d="M140.161,-232.362C129.998,-223.941 115.599,-212.011 103.796,-202.231"/>
<polygon fill="midnightblue" stroke="midnightblue" points="105.691,-199.256 95.7577,-195.571 101.225,-204.646 105.691,-199.256"/>
</g>
<!-- Node7 -->
<g id="node13" class="node"><title>Node7</title>
<a xlink:href="../../d5/d4f/_text_paint_8h.html" target="_top" xlink:title="gaia/text/TextPaint.h">
<polygon fill="white" stroke="black" points="170.5,-174.5 170.5,-195.5 277.5,-195.5 277.5,-174.5 170.5,-174.5"/>
<text text-anchor="middle" x="224" y="-182.5" font-family="Helvetica,sans-Serif" font-size="10.00">gaia/text/TextPaint.h</text>
</a>
</g>
<!-- Node3&#45;&gt;Node7 -->
<g id="edge12" class="edge"><title>Node3&#45;&gt;Node7</title>
<path fill="none" stroke="midnightblue" d="M166.022,-232.362C176.431,-223.859 191.219,-211.779 203.255,-201.947"/>
<polygon fill="midnightblue" stroke="midnightblue" points="205.53,-204.608 211.06,-195.571 201.101,-199.187 205.53,-204.608"/>
</g>
<!-- Node5 -->
<g id="node9" class="node"><title>Node5</title>
<polygon fill="white" stroke="#bfbfbf" points="101.5,-0.5 101.5,-21.5 150.5,-21.5 150.5,-0.5 101.5,-0.5"/>
<text text-anchor="middle" x="126" y="-8.5" font-family="Helvetica,sans-Serif" font-size="10.00">stdint.h</text>
</g>
<!-- Node4&#45;&gt;Node5 -->
<g id="edge8" class="edge"><title>Node4&#45;&gt;Node5</title>
<path fill="none" stroke="midnightblue" d="M78.0771,-174.158C72.5313,-160.496 64.9148,-136.341 70,-116 78.1256,-83.4977 98.4275,-50.0401 112.219,-29.8795"/>
<polygon fill="midnightblue" stroke="midnightblue" points="115.148,-31.7987 118.03,-21.6034 109.419,-27.776 115.148,-31.7987"/>
</g>
<!-- Node6 -->
<g id="node11" class="node"><title>Node6</title>
<a xlink:href="../../d1/dd0/gmacros_8h.html" target="_top" xlink:title="gaia/base/gmacros.h">
<polygon fill="white" stroke="black" points="78.5,-116.5 78.5,-137.5 185.5,-137.5 185.5,-116.5 78.5,-116.5"/>
<text text-anchor="middle" x="132" y="-124.5" font-family="Helvetica,sans-Serif" font-size="10.00">gaia/base/gmacros.h</text>
</a>
</g>
<!-- Node4&#45;&gt;Node6 -->
<g id="edge10" class="edge"><title>Node4&#45;&gt;Node6</title>
<path fill="none" stroke="midnightblue" d="M91.9874,-174.362C98.8255,-166.268 108.402,-154.932 116.472,-145.38"/>
<polygon fill="midnightblue" stroke="midnightblue" points="119.29,-147.468 123.07,-137.571 113.942,-142.951 119.29,-147.468"/>
</g>
<!-- Node7&#45;&gt;Node6 -->
<g id="edge20" class="edge"><title>Node7&#45;&gt;Node6</title>
<path fill="none" stroke="midnightblue" d="M207.126,-174.362C193.249,-165.614 173.366,-153.079 157.54,-143.101"/>
<polygon fill="midnightblue" stroke="midnightblue" points="159.093,-139.943 148.767,-137.571 155.36,-145.864 159.093,-139.943"/>
</g>
<!-- Node8 -->
<g id="node15" class="node"><title>Node8</title>
<a xlink:href="../../db/d7d/_paint_8h.html" target="_top" xlink:title="gaia/graphics/Paint.h">
<polygon fill="white" stroke="black" points="203,-116.5 203,-137.5 311,-137.5 311,-116.5 203,-116.5"/>
<text text-anchor="middle" x="257" y="-124.5" font-family="Helvetica,sans-Serif" font-size="10.00">gaia/graphics/Paint.h</text>
</a>
</g>
<!-- Node7&#45;&gt;Node8 -->
<g id="edge14" class="edge"><title>Node7&#45;&gt;Node8</title>
<path fill="none" stroke="midnightblue" d="M230.053,-174.362C234.472,-166.595 240.59,-155.843 245.879,-146.546"/>
<polygon fill="midnightblue" stroke="midnightblue" points="249.082,-147.993 250.986,-137.571 242.998,-144.531 249.082,-147.993"/>
</g>
<!-- Node9 -->
<g id="node17" class="node"><title>Node9</title>
<a xlink:href="../../d7/d97/_char_sequence_8h.html" target="_top" xlink:title="gaia/base/CharSequence.h">
<polygon fill="white" stroke="black" points="134,-58.5 134,-79.5 268,-79.5 268,-58.5 134,-58.5"/>
<text text-anchor="middle" x="201" y="-66.5" font-family="Helvetica,sans-Serif" font-size="10.00">gaia/base/CharSequence.h</text>
</a>
</g>
<!-- Node8&#45;&gt;Node9 -->
<g id="edge16" class="edge"><title>Node8&#45;&gt;Node9</title>
<path fill="none" stroke="midnightblue" d="M246.729,-116.362C238.756,-108.104 227.525,-96.4725 218.189,-86.8029"/>
<polygon fill="midnightblue" stroke="midnightblue" points="220.67,-84.3336 211.206,-79.5707 215.634,-89.1958 220.67,-84.3336"/>
</g>
<!-- Node9&#45;&gt;Node5 -->
<g id="edge18" class="edge"><title>Node9&#45;&gt;Node5</title>
<path fill="none" stroke="midnightblue" d="M187.244,-58.3619C176.249,-49.859 160.627,-37.7785 147.914,-27.9466"/>
<polygon fill="midnightblue" stroke="midnightblue" points="149.721,-24.9195 139.669,-21.5707 145.438,-30.4569 149.721,-24.9195"/>
</g>
</g>
</svg>
