<?xml version="1.0" encoding="UTF-8" standalone="no"?>
<!DOCTYPE svg PUBLIC "-//W3C//DTD SVG 1.1//EN"
 "http://www.w3.org/Graphics/SVG/1.1/DTD/svg11.dtd">
<!-- Generated by graphviz version 2.26.3 (20100126.1600)
 -->
<!-- Title: G Pages: 1 -->
<svg width="364pt" height="146pt"
 viewBox="0.00 0.00 364.00 146.00" xmlns="http://www.w3.org/2000/svg" xmlns:xlink="http://www.w3.org/1999/xlink">
<g id="graph1" class="graph" transform="scale(1 1) rotate(0) translate(4 142)">
<title>G</title>
<polygon fill="white" stroke="white" points="-4,5 -4,-142 361,-142 361,5 -4,5"/>
<!-- Node1 -->
<g id="node1" class="node"><title>Node1</title>
<polygon fill="#bfbfbf" stroke="black" points="0,-116.5 0,-137.5 356,-137.5 356,-116.5 0,-116.5"/>
<text text-anchor="middle" x="178" y="-124.5" font-family="Helvetica,sans-Serif" font-size="10.00">/home/vilon_tao/gaia/sdk/include/gaia/connectivity/wifi/p2p/WifiP2pManager.h</text>
</g>
<!-- Node2 -->
<g id="node3" class="node"><title>Node2</title>
<polygon fill="white" stroke="#bfbfbf" points="31.5,-0.5 31.5,-21.5 80.5,-21.5 80.5,-0.5 31.5,-0.5"/>
<text text-anchor="middle" x="56" y="-8.5" font-family="Helvetica,sans-Serif" font-size="10.00">stdint.h</text>
</g>
<!-- Node1&#45;&gt;Node2 -->
<g id="edge2" class="edge"><title>Node1&#45;&gt;Node2</title>
<path fill="none" stroke="midnightblue" d="M132.881,-116.41C99.8111,-107.628 59.0122,-94.3039 49,-80 39.2213,-66.0297 42.4046,-46.399 47.201,-31.6465"/>
<polygon fill="midnightblue" stroke="midnightblue" points="50.6138,-32.5101 50.8163,-21.9172 44.0522,-30.0718 50.6138,-32.5101"/>
</g>
<!-- Node3 -->
<g id="node5" class="node"><title>Node3</title>
<a xlink:href="../../d1/dd0/gmacros_8h.html" target="_top" xlink:title="gaia/base/gmacros.h">
<polygon fill="white" stroke="black" points="198.5,-0.5 198.5,-21.5 305.5,-21.5 305.5,-0.5 198.5,-0.5"/>
<text text-anchor="middle" x="252" y="-8.5" font-family="Helvetica,sans-Serif" font-size="10.00">gaia/base/gmacros.h</text>
</a>
</g>
<!-- Node1&#45;&gt;Node3 -->
<g id="edge4" class="edge"><title>Node1&#45;&gt;Node3</title>
<path fill="none" stroke="midnightblue" d="M223.119,-116.41C256.189,-107.628 296.988,-94.3039 307,-80 320.085,-61.3057 299.322,-41.0054 279.67,-27.2974"/>
<polygon fill="midnightblue" stroke="midnightblue" points="281.408,-24.2511 271.132,-21.6714 277.556,-30.0962 281.408,-24.2511"/>
</g>
<!-- Node4 -->
<g id="node7" class="node"><title>Node4</title>
<a xlink:href="../../de/d62/_wifi_p2p_service_info_8h.html" target="_top" xlink:title="gaia/connectivity/wifi/p2p/nsd/WifiP2pServiceInfo.h">
<polygon fill="white" stroke="black" points="57.5,-58.5 57.5,-79.5 298.5,-79.5 298.5,-58.5 57.5,-58.5"/>
<text text-anchor="middle" x="178" y="-66.5" font-family="Helvetica,sans-Serif" font-size="10.00">gaia/connectivity/wifi/p2p/nsd/WifiP2pServiceInfo.h</text>
</a>
</g>
<!-- Node1&#45;&gt;Node4 -->
<g id="edge6" class="edge"><title>Node1&#45;&gt;Node4</title>
<path fill="none" stroke="midnightblue" d="M178,-116.362C178,-108.922 178,-98.7427 178,-89.7276"/>
<polygon fill="midnightblue" stroke="midnightblue" points="181.5,-89.5706 178,-79.5707 174.5,-89.5707 181.5,-89.5706"/>
</g>
<!-- Node4&#45;&gt;Node2 -->
<g id="edge8" class="edge"><title>Node4&#45;&gt;Node2</title>
<path fill="none" stroke="midnightblue" d="M155.907,-58.4966C136.766,-49.397 108.854,-36.1273 87.3947,-25.9253"/>
<polygon fill="midnightblue" stroke="midnightblue" points="88.8753,-22.7539 78.3412,-21.6212 85.8698,-29.0758 88.8753,-22.7539"/>
</g>
<!-- Node4&#45;&gt;Node3 -->
<g id="edge10" class="edge"><title>Node4&#45;&gt;Node3</title>
<path fill="none" stroke="midnightblue" d="M191.573,-58.3619C202.421,-49.859 217.834,-37.7785 230.379,-27.9466"/>
<polygon fill="midnightblue" stroke="midnightblue" points="232.802,-30.4942 238.513,-21.5707 228.484,-24.9848 232.802,-30.4942"/>
</g>
</g>
</svg>
