<?xml version="1.0" encoding="UTF-8" standalone="no"?>
<!DOCTYPE svg PUBLIC "-//W3C//DTD SVG 1.1//EN"
 "http://www.w3.org/Graphics/SVG/1.1/DTD/svg11.dtd">
<!-- Generated by graphviz version 2.26.3 (20100126.1600)
 -->
<!-- Title: G Pages: 1 -->
<svg width="770pt" height="190pt"
 viewBox="0.00 0.00 770.00 190.00" xmlns="http://www.w3.org/2000/svg" xmlns:xlink="http://www.w3.org/1999/xlink">
<g id="graph1" class="graph" transform="scale(1 1) rotate(0) translate(4 186)">
<title>G</title>
<polygon fill="white" stroke="white" points="-4,5 -4,-186 767,-186 767,5 -4,5"/>
<!-- Node1 -->
<g id="node1" class="node"><title>Node1</title>
<polygon fill="#bfbfbf" stroke="black" points="0,-120.5 0,-141.5 130,-141.5 130,-120.5 0,-120.5"/>
<text text-anchor="middle" x="65" y="-128.5" font-family="Helvetica,sans-Serif" font-size="10.00">gaia::ui::ControllerParams</text>
</g>
<!-- Node2 -->
<g id="node3" class="node"><title>Node2</title>
<a xlink:href="../../d0/df5/classgaia_1_1ui_1_1_absolute_controller_params.html" target="_top" xlink:title="AbsoluteControllerParams are used by widgets to tell their AbsoluteController how they want to be lai...">
<polygon fill="white" stroke="black" points="166,-160.5 166,-181.5 334,-181.5 334,-160.5 166,-160.5"/>
<text text-anchor="middle" x="250" y="-168.5" font-family="Helvetica,sans-Serif" font-size="10.00">gaia::ui::AbsoluteControllerParams</text>
</a>
</g>
<!-- Node1&#45;&gt;Node2 -->
<g id="edge2" class="edge"><title>Node1&#45;&gt;Node2</title>
<path fill="none" stroke="midnightblue" d="M123.71,-143.694C148.738,-149.106 177.593,-155.344 201.397,-160.491"/>
<polygon fill="midnightblue" stroke="midnightblue" points="124.12,-140.202 113.607,-141.51 122.641,-147.044 124.12,-140.202"/>
</g>
<!-- Node3 -->
<g id="node5" class="node"><title>Node3</title>
<a xlink:href="../../d1/dec/classgaia_1_1ui_1_1_list_item_controller_params.html" target="_top" xlink:title="ListItemControllerParams are used by widgets to tell their parents how they want to be laid out...">
<polygon fill="white" stroke="black" points="167.5,-120.5 167.5,-141.5 332.5,-141.5 332.5,-120.5 167.5,-120.5"/>
<text text-anchor="middle" x="250" y="-128.5" font-family="Helvetica,sans-Serif" font-size="10.00">gaia::ui::ListItemControllerParams</text>
</a>
</g>
<!-- Node1&#45;&gt;Node3 -->
<g id="edge4" class="edge"><title>Node1&#45;&gt;Node3</title>
<path fill="none" stroke="midnightblue" d="M140.457,-131C149.274,-131 158.306,-131 167.216,-131"/>
<polygon fill="midnightblue" stroke="midnightblue" points="140.224,-127.5 130.224,-131 140.224,-134.5 140.224,-127.5"/>
</g>
<!-- Node4 -->
<g id="node7" class="node"><title>Node4</title>
<a xlink:href="../../de/dd1/classgaia_1_1ui_1_1_margin_controller_params.html" target="_top" xlink:title="Per&#45;child layout information for layouts that support margins.">
<polygon fill="white" stroke="black" points="170.5,-80.5 170.5,-101.5 329.5,-101.5 329.5,-80.5 170.5,-80.5"/>
<text text-anchor="middle" x="250" y="-88.5" font-family="Helvetica,sans-Serif" font-size="10.00">gaia::ui::MarginControllerParams</text>
</a>
</g>
<!-- Node1&#45;&gt;Node4 -->
<g id="edge6" class="edge"><title>Node1&#45;&gt;Node4</title>
<path fill="none" stroke="midnightblue" d="M123.71,-118.306C148.738,-112.894 177.593,-106.656 201.397,-101.509"/>
<polygon fill="midnightblue" stroke="midnightblue" points="122.641,-114.956 113.607,-120.49 124.12,-121.798 122.641,-114.956"/>
</g>
<!-- Node5 -->
<g id="node9" class="node"><title>Node5</title>
<a xlink:href="../../da/dcf/classgaia_1_1ui_1_1_action_bar_controller_params.html" target="_top" xlink:title="ActionBarControllerParams are used by widgets to tell their RadioGroupController how they want to be ...">
<polygon fill="white" stroke="black" points="370.5,-160.5 370.5,-181.5 543.5,-181.5 543.5,-160.5 370.5,-160.5"/>
<text text-anchor="middle" x="457" y="-168.5" font-family="Helvetica,sans-Serif" font-size="10.00">gaia::ui::ActionBarControllerParams</text>
</a>
</g>
<!-- Node4&#45;&gt;Node5 -->
<g id="edge8" class="edge"><title>Node4&#45;&gt;Node5</title>
<path fill="none" stroke="midnightblue" d="M322.564,-105.212C326.532,-106.926 330.375,-108.847 334,-111 354.565,-123.212 349.388,-138.868 370,-151 376.545,-154.852 383.771,-157.962 391.179,-160.473"/>
<polygon fill="midnightblue" stroke="midnightblue" points="323.709,-101.902 313.119,-101.575 321.193,-108.435 323.709,-101.902"/>
</g>
<!-- Node6 -->
<g id="node11" class="node"><title>Node6</title>
<a xlink:href="../../d7/d11/classgaia_1_1ui_1_1_frame_controller_params.html" target="_top" xlink:title="FrameControllerParams are used by widgets to tell their FrameController how they want to be laid out...">
<polygon fill="white" stroke="black" points="378,-120.5 378,-141.5 536,-141.5 536,-120.5 378,-120.5"/>
<text text-anchor="middle" x="457" y="-128.5" font-family="Helvetica,sans-Serif" font-size="10.00">gaia::ui::FrameControllerParams</text>
</a>
</g>
<!-- Node4&#45;&gt;Node6 -->
<g id="edge10" class="edge"><title>Node4&#45;&gt;Node6</title>
<path fill="none" stroke="midnightblue" d="M314.574,-103.478C342.834,-108.939 375.627,-115.276 402.617,-120.491"/>
<polygon fill="midnightblue" stroke="midnightblue" points="314.869,-99.9704 304.387,-101.51 313.541,-106.843 314.869,-99.9704"/>
</g>
<!-- Node7 -->
<g id="node13" class="node"><title>Node7</title>
<a xlink:href="../../d9/dfe/classgaia_1_1ui_1_1_grid_controller_params.html" target="_top" xlink:title="Layout information associated with each of the children of a GridLayout.">
<polygon fill="white" stroke="black" points="383,-80.5 383,-101.5 531,-101.5 531,-80.5 383,-80.5"/>
<text text-anchor="middle" x="457" y="-88.5" font-family="Helvetica,sans-Serif" font-size="10.00">gaia::ui::GridControllerParams</text>
</a>
</g>
<!-- Node4&#45;&gt;Node7 -->
<g id="edge12" class="edge"><title>Node4&#45;&gt;Node7</title>
<path fill="none" stroke="midnightblue" d="M340.039,-91C354.294,-91 368.896,-91 382.738,-91"/>
<polygon fill="midnightblue" stroke="midnightblue" points="339.736,-87.5001 329.736,-91 339.735,-94.5001 339.736,-87.5001"/>
</g>
<!-- Node8 -->
<g id="node15" class="node"><title>Node8</title>
<a xlink:href="../../dd/dee/classgaia_1_1ui_1_1_linear_controller_params.html" target="_top" xlink:title="LinearControllerParams are used by widgets to tell their LinearLayout how they want to be laid out...">
<polygon fill="white" stroke="black" points="379,-40.5 379,-61.5 535,-61.5 535,-40.5 379,-40.5"/>
<text text-anchor="middle" x="457" y="-48.5" font-family="Helvetica,sans-Serif" font-size="10.00">gaia::ui::LinearControllerParams</text>
</a>
</g>
<!-- Node4&#45;&gt;Node8 -->
<g id="edge14" class="edge"><title>Node4&#45;&gt;Node8</title>
<path fill="none" stroke="midnightblue" d="M314.574,-78.5219C342.834,-73.061 375.627,-66.7243 402.617,-61.5087"/>
<polygon fill="midnightblue" stroke="midnightblue" points="313.541,-75.1567 304.387,-80.4905 314.869,-82.0296 313.541,-75.1567"/>
</g>
<!-- Node10 -->
<g id="node19" class="node"><title>Node10</title>
<a xlink:href="../../d9/d61/classgaia_1_1ui_1_1_relative_controller_params.html" target="_top" xlink:title="RelativeControllerParams are used by widgets to tell their RelativeController how they want to be lai...">
<polygon fill="white" stroke="black" points="374,-0.5 374,-21.5 540,-21.5 540,-0.5 374,-0.5"/>
<text text-anchor="middle" x="457" y="-8.5" font-family="Helvetica,sans-Serif" font-size="10.00">gaia::ui::RelativeControllerParams</text>
</a>
</g>
<!-- Node4&#45;&gt;Node10 -->
<g id="edge18" class="edge"><title>Node4&#45;&gt;Node10</title>
<path fill="none" stroke="midnightblue" d="M276.485,-75.4553C300.278,-62.0565 336.52,-43.0243 370,-31 380.21,-27.333 391.341,-24.1761 402.127,-21.5244"/>
<polygon fill="midnightblue" stroke="midnightblue" points="274.656,-72.4691 267.703,-80.4638 278.124,-78.5497 274.656,-72.4691"/>
</g>
<!-- Node9 -->
<g id="node17" class="node"><title>Node9</title>
<a xlink:href="../../df/d81/classgaia_1_1ui_1_1_radio_group_controller_params.html" target="_top" xlink:title="RadioGroupControllerParams are used by widgets to tell their RadioGroupController how they want to be...">
<polygon fill="white" stroke="black" points="580,-40.5 580,-61.5 762,-61.5 762,-40.5 580,-40.5"/>
<text text-anchor="middle" x="671" y="-48.5" font-family="Helvetica,sans-Serif" font-size="10.00">gaia::ui::RadioGroupControllerParams</text>
</a>
</g>
<!-- Node8&#45;&gt;Node9 -->
<g id="edge16" class="edge"><title>Node8&#45;&gt;Node9</title>
<path fill="none" stroke="midnightblue" d="M545.173,-51C556.662,-51 568.45,-51 579.984,-51"/>
<polygon fill="midnightblue" stroke="midnightblue" points="545.167,-47.5001 535.167,-51 545.167,-54.5001 545.167,-47.5001"/>
</g>
</g>
</svg>
