<?xml version="1.0" encoding="UTF-8" standalone="no"?>
<!DOCTYPE svg PUBLIC "-//W3C//DTD SVG 1.1//EN"
 "http://www.w3.org/Graphics/SVG/1.1/DTD/svg11.dtd">
<!-- Generated by graphviz version 2.26.3 (20100126.1600)
 -->
<!-- Title: G Pages: 1 -->
<svg width="304pt" height="146pt"
 viewBox="0.00 0.00 304.00 146.00" xmlns="http://www.w3.org/2000/svg" xmlns:xlink="http://www.w3.org/1999/xlink">
<g id="graph1" class="graph" transform="scale(1 1) rotate(0) translate(4 142)">
<title>G</title>
<polygon fill="white" stroke="white" points="-4,5 -4,-142 301,-142 301,5 -4,5"/>
<!-- Node1 -->
<g id="node1" class="node"><title>Node1</title>
<polygon fill="#bfbfbf" stroke="black" points="0,-116.5 0,-137.5 296,-137.5 296,-116.5 0,-116.5"/>
<text text-anchor="middle" x="148" y="-124.5" font-family="Helvetica,sans-Serif" font-size="10.00">/home/vilon_tao/gaia/sdk/include/gaia/media/NoiseSuppressor.h</text>
</g>
<!-- Node2 -->
<g id="node3" class="node"><title>Node2</title>
<polygon fill="white" stroke="#bfbfbf" points="54.5,-0.5 54.5,-21.5 103.5,-21.5 103.5,-0.5 54.5,-0.5"/>
<text text-anchor="middle" x="79" y="-8.5" font-family="Helvetica,sans-Serif" font-size="10.00">stdint.h</text>
</g>
<!-- Node1&#45;&gt;Node2 -->
<g id="edge2" class="edge"><title>Node1&#45;&gt;Node2</title>
<path fill="none" stroke="midnightblue" d="M119.558,-116.453C103.662,-108.918 85.2395,-97.0651 76,-80 67.9933,-65.2118 69.66,-45.9173 72.804,-31.4926"/>
<polygon fill="midnightblue" stroke="midnightblue" points="76.2557,-32.1235 75.3606,-21.5666 69.4769,-30.3775 76.2557,-32.1235"/>
</g>
<!-- Node3 -->
<g id="node5" class="node"><title>Node3</title>
<a xlink:href="../../d1/dd0/gmacros_8h.html" target="_top" xlink:title="gaia/base/gmacros.h">
<polygon fill="white" stroke="black" points="163.5,-0.5 163.5,-21.5 270.5,-21.5 270.5,-0.5 163.5,-0.5"/>
<text text-anchor="middle" x="217" y="-8.5" font-family="Helvetica,sans-Serif" font-size="10.00">gaia/base/gmacros.h</text>
</a>
</g>
<!-- Node1&#45;&gt;Node3 -->
<g id="edge4" class="edge"><title>Node1&#45;&gt;Node3</title>
<path fill="none" stroke="midnightblue" d="M176.442,-116.453C192.338,-108.918 210.761,-97.0651 220,-80 228.007,-65.2118 226.34,-45.9173 223.196,-31.4926"/>
<polygon fill="midnightblue" stroke="midnightblue" points="226.523,-30.3775 220.639,-21.5666 219.744,-32.1235 226.523,-30.3775"/>
</g>
<!-- Node4 -->
<g id="node7" class="node"><title>Node4</title>
<a xlink:href="../../d6/db8/_audio_effect_8h.html" target="_top" xlink:title="gaia/media/AudioEffect.h">
<polygon fill="white" stroke="black" points="85,-58.5 85,-79.5 211,-79.5 211,-58.5 85,-58.5"/>
<text text-anchor="middle" x="148" y="-66.5" font-family="Helvetica,sans-Serif" font-size="10.00">gaia/media/AudioEffect.h</text>
</a>
</g>
<!-- Node1&#45;&gt;Node4 -->
<g id="edge6" class="edge"><title>Node1&#45;&gt;Node4</title>
<path fill="none" stroke="midnightblue" d="M148,-116.362C148,-108.922 148,-98.7427 148,-89.7276"/>
<polygon fill="midnightblue" stroke="midnightblue" points="151.5,-89.5706 148,-79.5707 144.5,-89.5707 151.5,-89.5706"/>
</g>
<!-- Node4&#45;&gt;Node2 -->
<g id="edge8" class="edge"><title>Node4&#45;&gt;Node2</title>
<path fill="none" stroke="midnightblue" d="M135.344,-58.3619C125.326,-49.9408 111.133,-38.0105 99.4987,-28.2308"/>
<polygon fill="midnightblue" stroke="midnightblue" points="101.482,-25.326 91.5754,-21.5707 96.9782,-30.6844 101.482,-25.326"/>
</g>
<!-- Node4&#45;&gt;Node3 -->
<g id="edge10" class="edge"><title>Node4&#45;&gt;Node3</title>
<path fill="none" stroke="midnightblue" d="M160.656,-58.3619C170.674,-49.9408 184.867,-38.0105 196.501,-28.2308"/>
<polygon fill="midnightblue" stroke="midnightblue" points="199.022,-30.6844 204.425,-21.5707 194.518,-25.326 199.022,-30.6844"/>
</g>
</g>
</svg>
