<?xml version="1.0" encoding="UTF-8" standalone="no"?>
<!DOCTYPE svg PUBLIC "-//W3C//DTD SVG 1.1//EN"
 "http://www.w3.org/Graphics/SVG/1.1/DTD/svg11.dtd">
<!-- Generated by graphviz version 2.26.3 (20100126.1600)
 -->
<!-- Title: G Pages: 1 -->
<svg width="290pt" height="146pt"
 viewBox="0.00 0.00 290.00 146.00" xmlns="http://www.w3.org/2000/svg" xmlns:xlink="http://www.w3.org/1999/xlink">
<g id="graph1" class="graph" transform="scale(1 1) rotate(0) translate(4 142)">
<title>G</title>
<polygon fill="white" stroke="white" points="-4,5 -4,-142 287,-142 287,5 -4,5"/>
<!-- Node1 -->
<g id="node1" class="node"><title>Node1</title>
<polygon fill="#bfbfbf" stroke="black" points="0,-116.5 0,-137.5 282,-137.5 282,-116.5 0,-116.5"/>
<text text-anchor="middle" x="141" y="-124.5" font-family="Helvetica,sans-Serif" font-size="10.00">/home/vilon_tao/gaia/sdk/include/gaia/webkit/glue/Callback.h</text>
</g>
<!-- Node2 -->
<g id="node3" class="node"><title>Node2</title>
<a xlink:href="../../df/d8d/_cpp_variant_8h.html" target="_top" xlink:title="CppVariant.h">
<polygon fill="white" stroke="black" points="104,-58.5 104,-79.5 178,-79.5 178,-58.5 104,-58.5"/>
<text text-anchor="middle" x="141" y="-66.5" font-family="Helvetica,sans-Serif" font-size="10.00">CppVariant.h</text>
</a>
</g>
<!-- Node1&#45;&gt;Node2 -->
<g id="edge2" class="edge"><title>Node1&#45;&gt;Node2</title>
<path fill="none" stroke="midnightblue" d="M141,-116.362C141,-108.922 141,-98.7427 141,-89.7276"/>
<polygon fill="midnightblue" stroke="midnightblue" points="144.5,-89.5706 141,-79.5707 137.5,-89.5707 144.5,-89.5706"/>
</g>
<!-- Node3 -->
<g id="node5" class="node"><title>Node3</title>
<polygon fill="white" stroke="#bfbfbf" points="90.5,-0.5 90.5,-21.5 131.5,-21.5 131.5,-0.5 90.5,-0.5"/>
<text text-anchor="middle" x="111" y="-8.5" font-family="Helvetica,sans-Serif" font-size="10.00">string</text>
</g>
<!-- Node2&#45;&gt;Node3 -->
<g id="edge4" class="edge"><title>Node2&#45;&gt;Node3</title>
<path fill="none" stroke="midnightblue" d="M135.498,-58.3619C131.48,-50.5949 125.919,-39.8426 121.11,-30.5458"/>
<polygon fill="midnightblue" stroke="midnightblue" points="124.171,-28.8448 116.468,-21.5707 117.953,-32.0608 124.171,-28.8448"/>
</g>
<!-- Node4 -->
<g id="node7" class="node"><title>Node4</title>
<polygon fill="white" stroke="#bfbfbf" points="149,-0.5 149,-21.5 193,-21.5 193,-0.5 149,-0.5"/>
<text text-anchor="middle" x="171" y="-8.5" font-family="Helvetica,sans-Serif" font-size="10.00">vector</text>
</g>
<!-- Node2&#45;&gt;Node4 -->
<g id="edge6" class="edge"><title>Node2&#45;&gt;Node4</title>
<path fill="none" stroke="midnightblue" d="M146.502,-58.3619C150.52,-50.5949 156.081,-39.8426 160.89,-30.5458"/>
<polygon fill="midnightblue" stroke="midnightblue" points="164.047,-32.0608 165.532,-21.5707 157.829,-28.8448 164.047,-32.0608"/>
</g>
</g>
</svg>
