<?xml version="1.0" encoding="UTF-8" standalone="no"?>
<!DOCTYPE svg PUBLIC "-//W3C//DTD SVG 1.1//EN"
 "http://www.w3.org/Graphics/SVG/1.1/DTD/svg11.dtd">
<!-- Generated by graphviz version 2.26.3 (20100126.1600)
 -->
<!-- Title: G Pages: 1 -->
<svg width="322pt" height="150pt"
 viewBox="0.00 0.00 322.00 150.00" xmlns="http://www.w3.org/2000/svg" xmlns:xlink="http://www.w3.org/1999/xlink">
<g id="graph1" class="graph" transform="scale(1 1) rotate(0) translate(4 146)">
<title>G</title>
<polygon fill="white" stroke="white" points="-4,5 -4,-146 319,-146 319,5 -4,5"/>
<!-- Node1 -->
<g id="node1" class="node"><title>Node1</title>
<polygon fill="#bfbfbf" stroke="black" points="0,-60.5 0,-81.5 116,-81.5 116,-60.5 0,-60.5"/>
<text text-anchor="middle" x="58" y="-68.5" font-family="Helvetica,sans-Serif" font-size="10.00">gaia::media::Transition</text>
</g>
<!-- Node2 -->
<g id="node3" class="node"><title>Node2</title>
<a xlink:href="../../da/d36/classgaia_1_1media_1_1_transition_alpha.html" target="_top" xlink:title="This class allows to render an &quot;alpha blending&quot; transition according to a bitmap mask.">
<polygon fill="white" stroke="black" points="163,-120.5 163,-141.5 303,-141.5 303,-120.5 163,-120.5"/>
<text text-anchor="middle" x="233" y="-128.5" font-family="Helvetica,sans-Serif" font-size="10.00">gaia::media::TransitionAlpha</text>
</a>
</g>
<!-- Node1&#45;&gt;Node2 -->
<g id="edge2" class="edge"><title>Node1&#45;&gt;Node2</title>
<path fill="none" stroke="midnightblue" d="M89.4624,-85.8857C107.494,-94.0358 130.708,-103.892 152,-111 162.442,-114.486 173.823,-117.665 184.665,-120.412"/>
<polygon fill="midnightblue" stroke="midnightblue" points="90.5722,-82.5444 80.023,-81.5617 87.6569,-88.9084 90.5722,-82.5444"/>
</g>
<!-- Node3 -->
<g id="node5" class="node"><title>Node3</title>
<a xlink:href="../../d2/dd8/classgaia_1_1media_1_1_transition_crossfade.html" target="_top" xlink:title="This class allows to render a crossfade (dissolve) effect transition between two videos {}...">
<polygon fill="white" stroke="black" points="152.5,-80.5 152.5,-101.5 313.5,-101.5 313.5,-80.5 152.5,-80.5"/>
<text text-anchor="middle" x="233" y="-88.5" font-family="Helvetica,sans-Serif" font-size="10.00">gaia::media::TransitionCrossfade</text>
</a>
</g>
<!-- Node1&#45;&gt;Node3 -->
<g id="edge4" class="edge"><title>Node1&#45;&gt;Node3</title>
<path fill="none" stroke="midnightblue" d="M126.444,-78.8221C134.902,-79.7888 143.611,-80.7841 152.231,-81.7693"/>
<polygon fill="midnightblue" stroke="midnightblue" points="126.605,-75.3179 116.272,-77.6597 125.81,-82.2726 126.605,-75.3179"/>
</g>
<!-- Node4 -->
<g id="node7" class="node"><title>Node4</title>
<a xlink:href="../../df/dbb/classgaia_1_1media_1_1_transition_fade_black.html" target="_top" xlink:title="This class is used to render a fade to black and fade from black transition between two media items...">
<polygon fill="white" stroke="black" points="152,-40.5 152,-61.5 314,-61.5 314,-40.5 152,-40.5"/>
<text text-anchor="middle" x="233" y="-48.5" font-family="Helvetica,sans-Serif" font-size="10.00">gaia::media::TransitionFadeBlack</text>
</a>
</g>
<!-- Node1&#45;&gt;Node4 -->
<g id="edge6" class="edge"><title>Node1&#45;&gt;Node4</title>
<path fill="none" stroke="midnightblue" d="M126.355,-63.188C134.739,-62.2299 143.369,-61.2435 151.918,-60.2666"/>
<polygon fill="midnightblue" stroke="midnightblue" points="125.81,-59.7274 116.272,-64.3403 126.605,-66.6821 125.81,-59.7274"/>
</g>
<!-- Node5 -->
<g id="node9" class="node"><title>Node5</title>
<a xlink:href="../../d9/dfc/classgaia_1_1media_1_1_transition_sliding.html" target="_top" xlink:title="This class allows to create sliding transitions {}.">
<polygon fill="white" stroke="black" points="160.5,-0.5 160.5,-21.5 305.5,-21.5 305.5,-0.5 160.5,-0.5"/>
<text text-anchor="middle" x="233" y="-8.5" font-family="Helvetica,sans-Serif" font-size="10.00">gaia::media::TransitionSliding</text>
</a>
</g>
<!-- Node1&#45;&gt;Node5 -->
<g id="edge8" class="edge"><title>Node1&#45;&gt;Node5</title>
<path fill="none" stroke="midnightblue" d="M89.4624,-56.1143C107.494,-47.9642 130.708,-38.1077 152,-31 162.442,-27.5142 173.823,-24.3353 184.665,-21.5885"/>
<polygon fill="midnightblue" stroke="midnightblue" points="87.6569,-53.0916 80.023,-60.4383 90.5722,-59.4556 87.6569,-53.0916"/>
</g>
</g>
</svg>
