<?xml version="1.0" encoding="UTF-8" standalone="no"?>
<!DOCTYPE svg PUBLIC "-//W3C//DTD SVG 1.1//EN"
 "http://www.w3.org/Graphics/SVG/1.1/DTD/svg11.dtd">
<!-- Generated by graphviz version 2.26.3 (20100126.1600)
 -->
<!-- Title: G Pages: 1 -->
<svg width="1000pt" height="262pt"
 viewBox="0.00 0.00 1000.00 262.00" xmlns="http://www.w3.org/2000/svg" xmlns:xlink="http://www.w3.org/1999/xlink">
<g id="graph1" class="graph" transform="scale(1 1) rotate(0) translate(4 258)">
<title>G</title>
<polygon fill="white" stroke="white" points="-4,5 -4,-258 997,-258 997,5 -4,5"/>
<!-- Node1 -->
<g id="node1" class="node"><title>Node1</title>
<polygon fill="#bfbfbf" stroke="black" points="-0.5,-232.5 -0.5,-253.5 310.5,-253.5 310.5,-232.5 -0.5,-232.5"/>
<text text-anchor="middle" x="155" y="-240.5" font-family="Helvetica,sans-Serif" font-size="10.00">/home/vilon_tao/gaia/sdk/include/gaia/core/ApplicationErrorReport.h</text>
</g>
<!-- Node2 -->
<g id="node3" class="node"><title>Node2</title>
<polygon fill="white" stroke="#bfbfbf" points="287,-0.5 287,-21.5 355,-21.5 355,-0.5 287,-0.5"/>
<text text-anchor="middle" x="321" y="-8.5" font-family="Helvetica,sans-Serif" font-size="10.00">sys/types.h</text>
</g>
<!-- Node1&#45;&gt;Node2 -->
<g id="edge2" class="edge"><title>Node1&#45;&gt;Node2</title>
<path fill="none" stroke="midnightblue" d="M146.864,-232.477C124.32,-201.968 65.4974,-112.203 109,-58 129.604,-32.3283 220.748,-19.8101 276.606,-14.4458"/>
<polygon fill="midnightblue" stroke="midnightblue" points="276.964,-17.9278 286.601,-13.5258 276.322,-10.9572 276.964,-17.9278"/>
</g>
<!-- Node3 -->
<g id="node5" class="node"><title>Node3</title>
<a xlink:href="../../df/d57/_parcel_8h.html" target="_top" xlink:title="gaia/core/Parcel.h">
<polygon fill="white" stroke="black" points="228.5,-174.5 228.5,-195.5 323.5,-195.5 323.5,-174.5 228.5,-174.5"/>
<text text-anchor="middle" x="276" y="-182.5" font-family="Helvetica,sans-Serif" font-size="10.00">gaia/core/Parcel.h</text>
</a>
</g>
<!-- Node1&#45;&gt;Node3 -->
<g id="edge4" class="edge"><title>Node1&#45;&gt;Node3</title>
<path fill="none" stroke="midnightblue" d="M176.912,-232.497C195.811,-223.438 223.331,-210.246 244.576,-200.063"/>
<polygon fill="midnightblue" stroke="midnightblue" points="246.337,-203.1 253.842,-195.621 243.311,-196.788 246.337,-203.1"/>
</g>
<!-- Node3&#45;&gt;Node2 -->
<g id="edge6" class="edge"><title>Node3&#45;&gt;Node2</title>
<path fill="none" stroke="midnightblue" d="M231.613,-174.474C207.872,-167.184 179.241,-155.567 158,-138 127.812,-113.034 96.6736,-88.7058 121,-58 140.052,-33.9521 223.814,-21.0002 276.713,-15.0908"/>
<polygon fill="midnightblue" stroke="midnightblue" points="277.284,-18.5497 286.853,-14.0017 276.536,-11.5898 277.284,-18.5497"/>
</g>
<!-- Node4 -->
<g id="node8" class="node"><title>Node4</title>
<a xlink:href="../../d3/dc5/_array_8h.html" target="_top" xlink:title="gaia/base/Array.h">
<polygon fill="white" stroke="black" points="166.5,-116.5 166.5,-137.5 259.5,-137.5 259.5,-116.5 166.5,-116.5"/>
<text text-anchor="middle" x="213" y="-124.5" font-family="Helvetica,sans-Serif" font-size="10.00">gaia/base/Array.h</text>
</a>
</g>
<!-- Node3&#45;&gt;Node4 -->
<g id="edge8" class="edge"><title>Node3&#45;&gt;Node4</title>
<path fill="none" stroke="midnightblue" d="M264.445,-174.362C255.387,-166.023 242.59,-154.242 232.026,-144.516"/>
<polygon fill="midnightblue" stroke="midnightblue" points="234.21,-141.769 224.482,-137.571 229.468,-146.919 234.21,-141.769"/>
</g>
<!-- Node10 -->
<g id="node23" class="node"><title>Node10</title>
<a xlink:href="../../d4/d7f/_vector_8h.html" target="_top" xlink:title="gaia/base/Vector.h">
<polygon fill="white" stroke="black" points="291,-116.5 291,-137.5 389,-137.5 389,-116.5 291,-116.5"/>
<text text-anchor="middle" x="340" y="-124.5" font-family="Helvetica,sans-Serif" font-size="10.00">gaia/base/Vector.h</text>
</a>
</g>
<!-- Node3&#45;&gt;Node10 -->
<g id="edge26" class="edge"><title>Node3&#45;&gt;Node10</title>
<path fill="none" stroke="midnightblue" d="M287.739,-174.362C296.941,-166.023 309.94,-154.242 320.672,-144.516"/>
<polygon fill="midnightblue" stroke="midnightblue" points="323.276,-146.879 328.336,-137.571 318.576,-141.692 323.276,-146.879"/>
</g>
<!-- Node12 -->
<g id="node30" class="node"><title>Node12</title>
<a xlink:href="../../db/db5/_string_8h.html" target="_top" xlink:title="gaia/base/String.h">
<polygon fill="white" stroke="black" points="426.5,-116.5 426.5,-137.5 521.5,-137.5 521.5,-116.5 426.5,-116.5"/>
<text text-anchor="middle" x="474" y="-124.5" font-family="Helvetica,sans-Serif" font-size="10.00">gaia/base/String.h</text>
</a>
</g>
<!-- Node3&#45;&gt;Node12 -->
<g id="edge36" class="edge"><title>Node3&#45;&gt;Node12</title>
<path fill="none" stroke="midnightblue" d="M311.856,-174.497C344.555,-164.918 393.026,-150.72 428.454,-140.342"/>
<polygon fill="midnightblue" stroke="midnightblue" points="429.464,-143.693 438.076,-137.523 427.496,-136.975 429.464,-143.693"/>
</g>
<!-- Node15 -->
<g id="node39" class="node"><title>Node15</title>
<a xlink:href="../../d8/d4d/_parcelable_8h.html" target="_top" xlink:title="gaia/core/Parcelable.h">
<polygon fill="white" stroke="black" points="563.5,-116.5 563.5,-137.5 676.5,-137.5 676.5,-116.5 563.5,-116.5"/>
<text text-anchor="middle" x="620" y="-124.5" font-family="Helvetica,sans-Serif" font-size="10.00">gaia/core/Parcelable.h</text>
</a>
</g>
<!-- Node3&#45;&gt;Node15 -->
<g id="edge48" class="edge"><title>Node3&#45;&gt;Node15</title>
<path fill="none" stroke="midnightblue" d="M323.832,-176.935C383.535,-166.869 485.978,-149.597 553.349,-138.238"/>
<polygon fill="midnightblue" stroke="midnightblue" points="554.157,-141.651 563.436,-136.537 552.994,-134.748 554.157,-141.651"/>
</g>
<!-- Node4&#45;&gt;Node2 -->
<g id="edge24" class="edge"><title>Node4&#45;&gt;Node2</title>
<path fill="none" stroke="midnightblue" d="M181.7,-116.44C150.474,-104.211 109.718,-82.5717 129,-58 147.036,-35.0159 226.017,-21.8141 276.893,-15.5497"/>
<polygon fill="midnightblue" stroke="midnightblue" points="277.461,-19.0069 286.979,-14.3528 276.636,-12.0557 277.461,-19.0069"/>
</g>
<!-- Node5 -->
<g id="node10" class="node"><title>Node5</title>
<a xlink:href="../../d8/dae/_array_impl_8h.html" target="_top" xlink:title="gaia/base/ArrayImpl.h">
<polygon fill="white" stroke="black" points="138,-58.5 138,-79.5 250,-79.5 250,-58.5 138,-58.5"/>
<text text-anchor="middle" x="194" y="-66.5" font-family="Helvetica,sans-Serif" font-size="10.00">gaia/base/ArrayImpl.h</text>
</a>
</g>
<!-- Node4&#45;&gt;Node5 -->
<g id="edge10" class="edge"><title>Node4&#45;&gt;Node5</title>
<path fill="none" stroke="midnightblue" d="M209.515,-116.362C207.024,-108.758 203.596,-98.294 200.596,-89.1349"/>
<polygon fill="midnightblue" stroke="midnightblue" points="203.902,-87.9841 197.463,-79.5707 197.25,-90.1634 203.902,-87.9841"/>
</g>
<!-- Node6 -->
<g id="node13" class="node"><title>Node6</title>
<a xlink:href="../../d1/d86/_type_helpers_8h.html" target="_top" xlink:title="gaia/base/TypeHelpers.h">
<polygon fill="white" stroke="black" points="647.5,-58.5 647.5,-79.5 772.5,-79.5 772.5,-58.5 647.5,-58.5"/>
<text text-anchor="middle" x="710" y="-66.5" font-family="Helvetica,sans-Serif" font-size="10.00">gaia/base/TypeHelpers.h</text>
</a>
</g>
<!-- Node4&#45;&gt;Node6 -->
<g id="edge14" class="edge"><title>Node4&#45;&gt;Node6</title>
<path fill="none" stroke="midnightblue" d="M259.721,-119.236C267.164,-118.09 274.787,-116.97 282,-116 348.768,-107.017 533.694,-87.3838 637.289,-76.551"/>
<polygon fill="midnightblue" stroke="midnightblue" points="637.778,-80.019 647.361,-75.4988 637.051,-73.0569 637.778,-80.019"/>
</g>
<!-- Node5&#45;&gt;Node2 -->
<g id="edge12" class="edge"><title>Node5&#45;&gt;Node2</title>
<path fill="none" stroke="midnightblue" d="M216.999,-58.4966C237.013,-49.3562 266.241,-36.0082 288.619,-25.7883"/>
<polygon fill="midnightblue" stroke="midnightblue" points="290.101,-28.9592 297.743,-21.6212 287.193,-22.5918 290.101,-28.9592"/>
</g>
<!-- Node6&#45;&gt;Node2 -->
<g id="edge20" class="edge"><title>Node6&#45;&gt;Node2</title>
<path fill="none" stroke="midnightblue" d="M647.068,-59.6168C568.017,-47.8303 434.38,-27.905 365.301,-17.6052"/>
<polygon fill="midnightblue" stroke="midnightblue" points="365.595,-14.1106 355.189,-16.0975 364.563,-21.034 365.595,-14.1106"/>
</g>
<!-- Node7 -->
<g id="node15" class="node"><title>Node7</title>
<polygon fill="white" stroke="#bfbfbf" points="810.5,-0.5 810.5,-21.5 859.5,-21.5 859.5,-0.5 810.5,-0.5"/>
<text text-anchor="middle" x="835" y="-8.5" font-family="Helvetica,sans-Serif" font-size="10.00">stdint.h</text>
</g>
<!-- Node6&#45;&gt;Node7 -->
<g id="edge16" class="edge"><title>Node6&#45;&gt;Node7</title>
<path fill="none" stroke="midnightblue" d="M732.637,-58.4966C752.248,-49.397 780.846,-36.1273 802.833,-25.9253"/>
<polygon fill="midnightblue" stroke="midnightblue" points="804.512,-29.0051 812.109,-21.6212 801.565,-22.6554 804.512,-29.0051"/>
</g>
<!-- Node8 -->
<g id="node17" class="node"><title>Node8</title>
<polygon fill="white" stroke="#bfbfbf" points="648.5,-0.5 648.5,-21.5 697.5,-21.5 697.5,-0.5 648.5,-0.5"/>
<text text-anchor="middle" x="673" y="-8.5" font-family="Helvetica,sans-Serif" font-size="10.00">string.h</text>
</g>
<!-- Node6&#45;&gt;Node8 -->
<g id="edge18" class="edge"><title>Node6&#45;&gt;Node8</title>
<path fill="none" stroke="midnightblue" d="M703.214,-58.3619C698.207,-50.5131 691.255,-39.6159 685.282,-30.2527"/>
<polygon fill="midnightblue" stroke="midnightblue" points="688.072,-28.1189 679.743,-21.5707 682.171,-31.8837 688.072,-28.1189"/>
</g>
<!-- Node9 -->
<g id="node20" class="node"><title>Node9</title>
<polygon fill="white" stroke="#bfbfbf" points="714.5,-0.5 714.5,-21.5 749.5,-21.5 749.5,-0.5 714.5,-0.5"/>
<text text-anchor="middle" x="732" y="-8.5" font-family="Helvetica,sans-Serif" font-size="10.00">new</text>
</g>
<!-- Node6&#45;&gt;Node9 -->
<g id="edge22" class="edge"><title>Node6&#45;&gt;Node9</title>
<path fill="none" stroke="midnightblue" d="M714.035,-58.3619C716.919,-50.7584 720.888,-40.294 724.363,-31.1349"/>
<polygon fill="midnightblue" stroke="midnightblue" points="727.716,-32.1619 727.99,-21.5707 721.171,-29.6793 727.716,-32.1619"/>
</g>
<!-- Node10&#45;&gt;Node2 -->
<g id="edge34" class="edge"><title>Node10&#45;&gt;Node2</title>
<path fill="none" stroke="midnightblue" d="M325.821,-116.408C315.651,-107.861 302.766,-94.845 297,-80 290.582,-63.478 298.324,-44.4323 306.678,-30.5419"/>
<polygon fill="midnightblue" stroke="midnightblue" points="309.827,-32.123 312.393,-21.8435 303.976,-28.2792 309.827,-32.123"/>
</g>
<!-- Node10&#45;&gt;Node6 -->
<g id="edge28" class="edge"><title>Node10&#45;&gt;Node6</title>
<path fill="none" stroke="midnightblue" d="M389.133,-119.298C452.685,-109.336 563.912,-91.9003 637.267,-80.4013"/>
<polygon fill="midnightblue" stroke="midnightblue" points="638.021,-83.8261 647.358,-78.8196 636.937,-76.9105 638.021,-83.8261"/>
</g>
<!-- Node11 -->
<g id="node26" class="node"><title>Node11</title>
<a xlink:href="../../dc/da9/_vector_impl_8h.html" target="_top" xlink:title="gaia/base/VectorImpl.h">
<polygon fill="white" stroke="black" points="305.5,-58.5 305.5,-79.5 422.5,-79.5 422.5,-58.5 305.5,-58.5"/>
<text text-anchor="middle" x="364" y="-66.5" font-family="Helvetica,sans-Serif" font-size="10.00">gaia/base/VectorImpl.h</text>
</a>
</g>
<!-- Node10&#45;&gt;Node11 -->
<g id="edge30" class="edge"><title>Node10&#45;&gt;Node11</title>
<path fill="none" stroke="midnightblue" d="M344.402,-116.362C347.582,-108.677 351.972,-98.0686 355.79,-88.8399"/>
<polygon fill="midnightblue" stroke="midnightblue" points="359.036,-90.1491 359.626,-79.5707 352.568,-87.4726 359.036,-90.1491"/>
</g>
<!-- Node11&#45;&gt;Node2 -->
<g id="edge32" class="edge"><title>Node11&#45;&gt;Node2</title>
<path fill="none" stroke="midnightblue" d="M356.113,-58.3619C350.173,-50.3496 341.878,-39.1605 334.841,-29.6696"/>
<polygon fill="midnightblue" stroke="midnightblue" points="337.604,-27.5193 328.837,-21.5707 331.981,-31.6883 337.604,-27.5193"/>
</g>
<!-- Node12&#45;&gt;Node2 -->
<g id="edge46" class="edge"><title>Node12&#45;&gt;Node2</title>
<path fill="none" stroke="midnightblue" d="M469.77,-116.241C463.413,-101.323 450.076,-74.3512 431,-58 411.994,-41.7084 386.499,-30.3387 364.839,-22.8677"/>
<polygon fill="midnightblue" stroke="midnightblue" points="365.787,-19.4953 355.194,-19.7058 363.606,-26.1469 365.787,-19.4953"/>
</g>
<!-- Node13 -->
<g id="node32" class="node"><title>Node13</title>
<a xlink:href="../../d7/d97/_char_sequence_8h.html" target="_top" xlink:title="gaia/base/CharSequence.h">
<polygon fill="white" stroke="black" points="790,-58.5 790,-79.5 924,-79.5 924,-58.5 790,-58.5"/>
<text text-anchor="middle" x="857" y="-66.5" font-family="Helvetica,sans-Serif" font-size="10.00">gaia/base/CharSequence.h</text>
</a>
</g>
<!-- Node12&#45;&gt;Node13 -->
<g id="edge38" class="edge"><title>Node12&#45;&gt;Node13</title>
<path fill="none" stroke="midnightblue" d="M521.733,-119.772C586.407,-109.978 702.636,-92.3763 779.806,-80.6899"/>
<polygon fill="midnightblue" stroke="midnightblue" points="780.593,-84.1108 789.956,-79.1529 779.545,-77.1897 780.593,-84.1108"/>
</g>
<!-- Node14 -->
<g id="node35" class="node"><title>Node14</title>
<a xlink:href="../../d6/d83/_hash_func_8h.html" target="_top" xlink:title="gaia/base/HashFunc.h">
<polygon fill="white" stroke="black" points="477.5,-58.5 477.5,-79.5 592.5,-79.5 592.5,-58.5 477.5,-58.5"/>
<text text-anchor="middle" x="535" y="-66.5" font-family="Helvetica,sans-Serif" font-size="10.00">gaia/base/HashFunc.h</text>
</a>
</g>
<!-- Node12&#45;&gt;Node14 -->
<g id="edge42" class="edge"><title>Node12&#45;&gt;Node14</title>
<path fill="none" stroke="midnightblue" d="M485.188,-116.362C493.959,-108.023 506.349,-96.2418 516.578,-86.5162"/>
<polygon fill="midnightblue" stroke="midnightblue" points="519.047,-88.9978 523.883,-79.5707 514.224,-83.9248 519.047,-88.9978"/>
</g>
<!-- Node13&#45;&gt;Node7 -->
<g id="edge40" class="edge"><title>Node13&#45;&gt;Node7</title>
<path fill="none" stroke="midnightblue" d="M852.965,-58.3619C850.081,-50.7584 846.112,-40.294 842.637,-31.1349"/>
<polygon fill="midnightblue" stroke="midnightblue" points="845.829,-29.6793 839.01,-21.5707 839.284,-32.1619 845.829,-29.6793"/>
</g>
<!-- Node14&#45;&gt;Node2 -->
<g id="edge44" class="edge"><title>Node14&#45;&gt;Node2</title>
<path fill="none" stroke="midnightblue" d="M496.246,-58.4966C459.317,-48.4878 403.773,-33.4339 365.152,-22.9664"/>
<polygon fill="midnightblue" stroke="midnightblue" points="365.796,-19.5148 355.229,-20.277 363.965,-26.2711 365.796,-19.5148"/>
</g>
<!-- Node15&#45;&gt;Node2 -->
<g id="edge52" class="edge"><title>Node15&#45;&gt;Node2</title>
<path fill="none" stroke="midnightblue" d="M620.361,-116.329C620.251,-101.01 617.603,-72.9844 601,-58 567.065,-27.3731 435.321,-16.4541 365.312,-12.7624"/>
<polygon fill="midnightblue" stroke="midnightblue" points="365.202,-9.25267 355.04,-12.2493 364.853,-16.244 365.202,-9.25267"/>
</g>
<!-- Node16 -->
<g id="node41" class="node"><title>Node16</title>
<polygon fill="white" stroke="#bfbfbf" points="941.5,-58.5 941.5,-79.5 992.5,-79.5 992.5,-58.5 941.5,-58.5"/>
<text text-anchor="middle" x="967" y="-66.5" font-family="Helvetica,sans-Serif" font-size="10.00">typeinfo</text>
</g>
<!-- Node15&#45;&gt;Node16 -->
<g id="edge50" class="edge"><title>Node15&#45;&gt;Node16</title>
<path fill="none" stroke="midnightblue" d="M676.503,-121.337C737.437,-114.601 837.353,-101.737 931.197,-80.1733"/>
<polygon fill="midnightblue" stroke="midnightblue" points="932.194,-83.5347 941.135,-77.8512 930.601,-76.7183 932.194,-83.5347"/>
</g>
</g>
</svg>
