<?xml version="1.0" encoding="UTF-8" standalone="no"?>
<!DOCTYPE svg PUBLIC "-//W3C//DTD SVG 1.1//EN"
 "http://www.w3.org/Graphics/SVG/1.1/DTD/svg11.dtd">
<!-- Generated by graphviz version 2.26.3 (20100126.1600)
 -->
<!-- Title: G Pages: 1 -->
<svg width="518pt" height="320pt"
 viewBox="0.00 0.00 518.00 320.00" xmlns="http://www.w3.org/2000/svg" xmlns:xlink="http://www.w3.org/1999/xlink">
<g id="graph1" class="graph" transform="scale(1 1) rotate(0) translate(4 316)">
<title>G</title>
<polygon fill="white" stroke="white" points="-4,5 -4,-316 515,-316 515,5 -4,5"/>
<!-- Node1 -->
<g id="node1" class="node"><title>Node1</title>
<polygon fill="#bfbfbf" stroke="black" points="182.5,-290.5 182.5,-311.5 433.5,-311.5 433.5,-290.5 182.5,-290.5"/>
<text text-anchor="middle" x="308" y="-298.5" font-family="Helvetica,sans-Serif" font-size="10.00">/home/vilon_tao/gaia/sdk/include/gaia/ui/GridWidget.h</text>
</g>
<!-- Node2 -->
<g id="node3" class="node"><title>Node2</title>
<polygon fill="white" stroke="#bfbfbf" points="158,-174.5 158,-195.5 206,-195.5 206,-174.5 158,-174.5"/>
<text text-anchor="middle" x="182" y="-182.5" font-family="Helvetica,sans-Serif" font-size="10.00">limits.h</text>
</g>
<!-- Node1&#45;&gt;Node2 -->
<g id="edge2" class="edge"><title>Node1&#45;&gt;Node2</title>
<path fill="none" stroke="midnightblue" d="M289.392,-290.321C274.883,-281.538 254.639,-268.256 239,-254 222.263,-238.744 206.108,-218.493 195.297,-203.881"/>
<polygon fill="midnightblue" stroke="midnightblue" points="198.002,-201.649 189.299,-195.606 192.334,-205.757 198.002,-201.649"/>
</g>
<!-- Node3 -->
<g id="node5" class="node"><title>Node3</title>
<a xlink:href="../../d1/d14/_abs_list_widget_8h.html" target="_top" xlink:title="gaia/ui/AbsListWidget.h">
<polygon fill="white" stroke="black" points="248,-232.5 248,-253.5 368,-253.5 368,-232.5 248,-232.5"/>
<text text-anchor="middle" x="308" y="-240.5" font-family="Helvetica,sans-Serif" font-size="10.00">gaia/ui/AbsListWidget.h</text>
</a>
</g>
<!-- Node1&#45;&gt;Node3 -->
<g id="edge4" class="edge"><title>Node1&#45;&gt;Node3</title>
<path fill="none" stroke="midnightblue" d="M308,-290.362C308,-282.922 308,-272.743 308,-263.728"/>
<polygon fill="midnightblue" stroke="midnightblue" points="311.5,-263.571 308,-253.571 304.5,-263.571 311.5,-263.571"/>
</g>
<!-- Node8 -->
<g id="node15" class="node"><title>Node8</title>
<a xlink:href="../../d1/dd0/gmacros_8h.html" target="_top" xlink:title="gaia/base/gmacros.h">
<polygon fill="white" stroke="black" points="403.5,-58.5 403.5,-79.5 510.5,-79.5 510.5,-58.5 403.5,-58.5"/>
<text text-anchor="middle" x="457" y="-66.5" font-family="Helvetica,sans-Serif" font-size="10.00">gaia/base/gmacros.h</text>
</a>
</g>
<!-- Node1&#45;&gt;Node8 -->
<g id="edge28" class="edge"><title>Node1&#45;&gt;Node8</title>
<path fill="none" stroke="midnightblue" d="M326.774,-290.498C341.374,-281.814 361.66,-268.577 377,-254 420.16,-212.988 427.439,-195.188 444,-138 448.602,-122.109 451.978,-103.674 454.135,-89.8589"/>
<polygon fill="midnightblue" stroke="midnightblue" points="457.606,-90.3105 455.603,-79.9067 450.681,-89.2887 457.606,-90.3105"/>
</g>
<!-- Node3&#45;&gt;Node2 -->
<g id="edge26" class="edge"><title>Node3&#45;&gt;Node2</title>
<path fill="none" stroke="midnightblue" d="M285.182,-232.497C265.414,-223.397 236.587,-210.127 214.424,-199.925"/>
<polygon fill="midnightblue" stroke="midnightblue" points="215.621,-196.623 205.074,-195.621 212.694,-202.982 215.621,-196.623"/>
</g>
<!-- Node4 -->
<g id="node7" class="node"><title>Node4</title>
<a xlink:href="../../d6/d52/_widget_controller_8h.html" target="_top" xlink:title="gaia/core/vision/WidgetController.h">
<polygon fill="white" stroke="black" points="223.5,-174.5 223.5,-195.5 392.5,-195.5 392.5,-174.5 223.5,-174.5"/>
<text text-anchor="middle" x="308" y="-182.5" font-family="Helvetica,sans-Serif" font-size="10.00">gaia/core/vision/WidgetController.h</text>
</a>
</g>
<!-- Node3&#45;&gt;Node4 -->
<g id="edge6" class="edge"><title>Node3&#45;&gt;Node4</title>
<path fill="none" stroke="midnightblue" d="M308,-232.362C308,-224.922 308,-214.743 308,-205.728"/>
<polygon fill="midnightblue" stroke="midnightblue" points="311.5,-205.571 308,-195.571 304.5,-205.571 311.5,-205.571"/>
</g>
<!-- Node3&#45;&gt;Node8 -->
<g id="edge24" class="edge"><title>Node3&#45;&gt;Node8</title>
<path fill="none" stroke="midnightblue" d="M341.647,-232.45C361.085,-224.915 384.814,-213.061 401,-196 416.347,-179.823 438.773,-120.657 450.021,-89.1163"/>
<polygon fill="midnightblue" stroke="midnightblue" points="453.359,-90.1757 453.381,-79.5809 446.756,-87.8496 453.359,-90.1757"/>
</g>
<!-- Node5 -->
<g id="node9" class="node"><title>Node5</title>
<a xlink:href="../../d3/dd0/_event_control_8h.html" target="_top" xlink:title="gaia/core/event/EventControl.h">
<polygon fill="white" stroke="black" points="0,-116.5 0,-137.5 152,-137.5 152,-116.5 0,-116.5"/>
<text text-anchor="middle" x="76" y="-124.5" font-family="Helvetica,sans-Serif" font-size="10.00">gaia/core/event/EventControl.h</text>
</a>
</g>
<!-- Node4&#45;&gt;Node5 -->
<g id="edge8" class="edge"><title>Node4&#45;&gt;Node5</title>
<path fill="none" stroke="midnightblue" d="M265.987,-174.497C227.264,-164.816 169.663,-150.416 128.042,-140.01"/>
<polygon fill="midnightblue" stroke="midnightblue" points="128.643,-136.553 118.092,-137.523 126.945,-143.344 128.643,-136.553"/>
</g>
<!-- Node7 -->
<g id="node13" class="node"><title>Node7</title>
<a xlink:href="../../d4/d75/_widget_8h.html" target="_top" xlink:title="gaia/core/vision/Widget.h">
<polygon fill="white" stroke="black" points="246.5,-116.5 246.5,-137.5 373.5,-137.5 373.5,-116.5 246.5,-116.5"/>
<text text-anchor="middle" x="310" y="-124.5" font-family="Helvetica,sans-Serif" font-size="10.00">gaia/core/vision/Widget.h</text>
</a>
</g>
<!-- Node4&#45;&gt;Node7 -->
<g id="edge12" class="edge"><title>Node4&#45;&gt;Node7</title>
<path fill="none" stroke="midnightblue" d="M308.367,-174.362C308.623,-166.922 308.974,-156.743 309.285,-147.728"/>
<polygon fill="midnightblue" stroke="midnightblue" points="312.789,-147.685 309.635,-137.571 305.793,-147.444 312.789,-147.685"/>
</g>
<!-- Node6 -->
<g id="node11" class="node"><title>Node6</title>
<polygon fill="white" stroke="#bfbfbf" points="26,-0.5 26,-21.5 94,-21.5 94,-0.5 26,-0.5"/>
<text text-anchor="middle" x="60" y="-8.5" font-family="Helvetica,sans-Serif" font-size="10.00">sys/types.h</text>
</g>
<!-- Node5&#45;&gt;Node6 -->
<g id="edge10" class="edge"><title>Node5&#45;&gt;Node6</title>
<path fill="none" stroke="midnightblue" d="M54.6551,-116.452C41.1382,-108.487 24.7887,-96.1625 17,-80 8.15904,-61.6539 22.9423,-42.0701 37.5288,-28.4712"/>
<polygon fill="midnightblue" stroke="midnightblue" points="40.2087,-30.7793 45.4609,-21.5779 35.617,-25.4956 40.2087,-30.7793"/>
</g>
<!-- Node7&#45;&gt;Node8 -->
<g id="edge14" class="edge"><title>Node7&#45;&gt;Node8</title>
<path fill="none" stroke="midnightblue" d="M336.621,-116.497C360.097,-107.234 394.525,-93.6499 420.556,-83.3793"/>
<polygon fill="midnightblue" stroke="midnightblue" points="422.063,-86.5473 430.081,-79.6212 419.494,-80.0358 422.063,-86.5473"/>
</g>
<!-- Node9 -->
<g id="node17" class="node"><title>Node9</title>
<a xlink:href="../../d0/d92/_property_animatable_8h.html" target="_top" xlink:title="gaia/core/animator/PropertyAnimatable.h">
<polygon fill="white" stroke="black" points="26,-58.5 26,-79.5 220,-79.5 220,-58.5 26,-58.5"/>
<text text-anchor="middle" x="123" y="-66.5" font-family="Helvetica,sans-Serif" font-size="10.00">gaia/core/animator/PropertyAnimatable.h</text>
</a>
</g>
<!-- Node7&#45;&gt;Node9 -->
<g id="edge16" class="edge"><title>Node7&#45;&gt;Node9</title>
<path fill="none" stroke="midnightblue" d="M276.136,-116.497C245.518,-107 200.257,-92.9619 166.876,-82.6087"/>
<polygon fill="midnightblue" stroke="midnightblue" points="167.516,-79.1426 156.928,-79.5231 165.442,-85.8284 167.516,-79.1426"/>
</g>
<!-- Node10 -->
<g id="node20" class="node"><title>Node10</title>
<a xlink:href="../../d8/d50/_widget_core_8h.html" target="_top" xlink:title="gaia/core/vision/WidgetCore.h">
<polygon fill="white" stroke="black" points="238,-58.5 238,-79.5 386,-79.5 386,-58.5 238,-58.5"/>
<text text-anchor="middle" x="312" y="-66.5" font-family="Helvetica,sans-Serif" font-size="10.00">gaia/core/vision/WidgetCore.h</text>
</a>
</g>
<!-- Node7&#45;&gt;Node10 -->
<g id="edge20" class="edge"><title>Node7&#45;&gt;Node10</title>
<path fill="none" stroke="midnightblue" d="M310.367,-116.362C310.623,-108.922 310.974,-98.7427 311.285,-89.7276"/>
<polygon fill="midnightblue" stroke="midnightblue" points="314.789,-89.6854 311.635,-79.5707 307.793,-89.4441 314.789,-89.6854"/>
</g>
<!-- Node9&#45;&gt;Node6 -->
<g id="edge18" class="edge"><title>Node9&#45;&gt;Node6</title>
<path fill="none" stroke="midnightblue" d="M111.445,-58.3619C102.387,-50.0226 89.5903,-38.2418 79.0263,-28.5162"/>
<polygon fill="midnightblue" stroke="midnightblue" points="81.2095,-25.7688 71.4819,-21.5707 76.4683,-30.9187 81.2095,-25.7688"/>
</g>
<!-- Node11 -->
<g id="node22" class="node"><title>Node11</title>
<polygon fill="white" stroke="#bfbfbf" points="287.5,-0.5 287.5,-21.5 336.5,-21.5 336.5,-0.5 287.5,-0.5"/>
<text text-anchor="middle" x="312" y="-8.5" font-family="Helvetica,sans-Serif" font-size="10.00">stdint.h</text>
</g>
<!-- Node10&#45;&gt;Node11 -->
<g id="edge22" class="edge"><title>Node10&#45;&gt;Node11</title>
<path fill="none" stroke="midnightblue" d="M312,-58.3619C312,-50.9219 312,-40.7427 312,-31.7276"/>
<polygon fill="midnightblue" stroke="midnightblue" points="315.5,-31.5706 312,-21.5707 308.5,-31.5707 315.5,-31.5706"/>
</g>
</g>
</svg>
