<?xml version="1.0" encoding="UTF-8" standalone="no"?>
<!DOCTYPE svg PUBLIC "-//W3C//DTD SVG 1.1//EN"
 "http://www.w3.org/Graphics/SVG/1.1/DTD/svg11.dtd">
<!-- Generated by graphviz version 2.26.3 (20100126.1600)
 -->
<!-- Title: G Pages: 1 -->
<svg width="377pt" height="262pt"
 viewBox="0.00 0.00 377.00 262.00" xmlns="http://www.w3.org/2000/svg" xmlns:xlink="http://www.w3.org/1999/xlink">
<g id="graph1" class="graph" transform="scale(1 1) rotate(0) translate(4 258)">
<title>G</title>
<polygon fill="white" stroke="white" points="-4,5 -4,-258 374,-258 374,5 -4,5"/>
<!-- Node1 -->
<g id="node1" class="node"><title>Node1</title>
<polygon fill="#bfbfbf" stroke="black" points="-0.5,-232.5 -0.5,-253.5 320.5,-253.5 320.5,-232.5 -0.5,-232.5"/>
<text text-anchor="middle" x="160" y="-240.5" font-family="Helvetica,sans-Serif" font-size="10.00">/home/vilon_tao/gaia/sdk/include/gaia/graphics/PorterDuffColorFilter.h</text>
</g>
<!-- Node2 -->
<g id="node3" class="node"><title>Node2</title>
<a xlink:href="../../d7/dcf/_color_filter_8h.html" target="_top" xlink:title="gaia/graphics/ColorFilter.h">
<polygon fill="white" stroke="black" points="20.5,-174.5 20.5,-195.5 151.5,-195.5 151.5,-174.5 20.5,-174.5"/>
<text text-anchor="middle" x="86" y="-182.5" font-family="Helvetica,sans-Serif" font-size="10.00">gaia/graphics/ColorFilter.h</text>
</a>
</g>
<!-- Node1&#45;&gt;Node2 -->
<g id="edge2" class="edge"><title>Node1&#45;&gt;Node2</title>
<path fill="none" stroke="midnightblue" d="M146.427,-232.362C135.579,-223.859 120.166,-211.779 107.621,-201.947"/>
<polygon fill="midnightblue" stroke="midnightblue" points="109.516,-198.985 99.4867,-195.571 105.198,-204.494 109.516,-198.985"/>
</g>
<!-- Node4 -->
<g id="node7" class="node"><title>Node4</title>
<a xlink:href="../../d1/df6/_porter_duff_8h.html" target="_top" xlink:title="gaia/graphics/PorterDuff.h">
<polygon fill="white" stroke="black" points="168.5,-174.5 168.5,-195.5 299.5,-195.5 299.5,-174.5 168.5,-174.5"/>
<text text-anchor="middle" x="234" y="-182.5" font-family="Helvetica,sans-Serif" font-size="10.00">gaia/graphics/PorterDuff.h</text>
</a>
</g>
<!-- Node1&#45;&gt;Node4 -->
<g id="edge6" class="edge"><title>Node1&#45;&gt;Node4</title>
<path fill="none" stroke="midnightblue" d="M173.573,-232.362C184.421,-223.859 199.834,-211.779 212.379,-201.947"/>
<polygon fill="midnightblue" stroke="midnightblue" points="214.802,-204.494 220.513,-195.571 210.484,-198.985 214.802,-204.494"/>
</g>
<!-- Node3 -->
<g id="node5" class="node"><title>Node3</title>
<a xlink:href="../../d1/dd0/gmacros_8h.html" target="_top" xlink:title="gaia/base/gmacros.h">
<polygon fill="white" stroke="black" points="32.5,-116.5 32.5,-137.5 139.5,-137.5 139.5,-116.5 32.5,-116.5"/>
<text text-anchor="middle" x="86" y="-124.5" font-family="Helvetica,sans-Serif" font-size="10.00">gaia/base/gmacros.h</text>
</a>
</g>
<!-- Node2&#45;&gt;Node3 -->
<g id="edge4" class="edge"><title>Node2&#45;&gt;Node3</title>
<path fill="none" stroke="midnightblue" d="M86,-174.362C86,-166.922 86,-156.743 86,-147.728"/>
<polygon fill="midnightblue" stroke="midnightblue" points="89.5001,-147.571 86,-137.571 82.5001,-147.571 89.5001,-147.571"/>
</g>
<!-- Node5 -->
<g id="node9" class="node"><title>Node5</title>
<a xlink:href="../../dd/d0b/_hash_map_8h.html" target="_top" xlink:title="gaia/base/HashMap.h">
<polygon fill="white" stroke="black" points="178,-116.5 178,-137.5 290,-137.5 290,-116.5 178,-116.5"/>
<text text-anchor="middle" x="234" y="-124.5" font-family="Helvetica,sans-Serif" font-size="10.00">gaia/base/HashMap.h</text>
</a>
</g>
<!-- Node4&#45;&gt;Node5 -->
<g id="edge8" class="edge"><title>Node4&#45;&gt;Node5</title>
<path fill="none" stroke="midnightblue" d="M234,-174.362C234,-166.922 234,-156.743 234,-147.728"/>
<polygon fill="midnightblue" stroke="midnightblue" points="237.5,-147.571 234,-137.571 230.5,-147.571 237.5,-147.571"/>
</g>
<!-- Node6 -->
<g id="node11" class="node"><title>Node6</title>
<a xlink:href="../../d6/d83/_hash_func_8h.html" target="_top" xlink:title="gaia/base/HashFunc.h">
<polygon fill="white" stroke="black" points="106.5,-58.5 106.5,-79.5 221.5,-79.5 221.5,-58.5 106.5,-58.5"/>
<text text-anchor="middle" x="164" y="-66.5" font-family="Helvetica,sans-Serif" font-size="10.00">gaia/base/HashFunc.h</text>
</a>
</g>
<!-- Node5&#45;&gt;Node6 -->
<g id="edge10" class="edge"><title>Node5&#45;&gt;Node6</title>
<path fill="none" stroke="midnightblue" d="M221.161,-116.362C210.998,-107.941 196.599,-96.0105 184.796,-86.2308"/>
<polygon fill="midnightblue" stroke="midnightblue" points="186.691,-83.2558 176.758,-79.5707 182.225,-88.6459 186.691,-83.2558"/>
</g>
<!-- Node8 -->
<g id="node15" class="node"><title>Node8</title>
<a xlink:href="../../dc/d11/_hash_map_impl_8h.html" target="_top" xlink:title="gaia/base/HashMapImpl.h">
<polygon fill="white" stroke="black" points="238.5,-58.5 238.5,-79.5 369.5,-79.5 369.5,-58.5 238.5,-58.5"/>
<text text-anchor="middle" x="304" y="-66.5" font-family="Helvetica,sans-Serif" font-size="10.00">gaia/base/HashMapImpl.h</text>
</a>
</g>
<!-- Node5&#45;&gt;Node8 -->
<g id="edge14" class="edge"><title>Node5&#45;&gt;Node8</title>
<path fill="none" stroke="midnightblue" d="M246.839,-116.362C257.002,-107.941 271.401,-96.0105 283.204,-86.2308"/>
<polygon fill="midnightblue" stroke="midnightblue" points="285.775,-88.6459 291.242,-79.5707 281.309,-83.2558 285.775,-88.6459"/>
</g>
<!-- Node7 -->
<g id="node13" class="node"><title>Node7</title>
<polygon fill="white" stroke="#bfbfbf" points="200,-0.5 200,-21.5 268,-21.5 268,-0.5 200,-0.5"/>
<text text-anchor="middle" x="234" y="-8.5" font-family="Helvetica,sans-Serif" font-size="10.00">sys/types.h</text>
</g>
<!-- Node6&#45;&gt;Node7 -->
<g id="edge12" class="edge"><title>Node6&#45;&gt;Node7</title>
<path fill="none" stroke="midnightblue" d="M176.839,-58.3619C187.002,-49.9408 201.401,-38.0105 213.204,-28.2308"/>
<polygon fill="midnightblue" stroke="midnightblue" points="215.775,-30.6459 221.242,-21.5707 211.309,-25.2558 215.775,-30.6459"/>
</g>
<!-- Node8&#45;&gt;Node7 -->
<g id="edge16" class="edge"><title>Node8&#45;&gt;Node7</title>
<path fill="none" stroke="midnightblue" d="M291.161,-58.3619C280.998,-49.9408 266.599,-38.0105 254.796,-28.2308"/>
<polygon fill="midnightblue" stroke="midnightblue" points="256.691,-25.2558 246.758,-21.5707 252.225,-30.6459 256.691,-25.2558"/>
</g>
</g>
</svg>
