<?xml version="1.0" encoding="UTF-8" standalone="no"?>
<!DOCTYPE svg PUBLIC "-//W3C//DTD SVG 1.1//EN"
 "http://www.w3.org/Graphics/SVG/1.1/DTD/svg11.dtd">
<!-- Generated by graphviz version 2.26.3 (20100126.1600)
 -->
<!-- Title: G Pages: 1 -->
<svg width="288pt" height="262pt"
 viewBox="0.00 0.00 288.00 262.00" xmlns="http://www.w3.org/2000/svg" xmlns:xlink="http://www.w3.org/1999/xlink">
<g id="graph1" class="graph" transform="scale(1 1) rotate(0) translate(4 258)">
<title>G</title>
<polygon fill="white" stroke="white" points="-4,5 -4,-258 285,-258 285,5 -4,5"/>
<!-- Node1 -->
<g id="node1" class="node"><title>Node1</title>
<polygon fill="#bfbfbf" stroke="black" points="-0.5,-0.5 -0.5,-21.5 280.5,-21.5 280.5,-0.5 -0.5,-0.5"/>
<text text-anchor="middle" x="140" y="-8.5" font-family="Helvetica,sans-Serif" font-size="10.00">gaia::ui::ListItem&lt; Panel1, Panel2, Panel3, Panel4, Panel5 &gt;</text>
</g>
<!-- Node2 -->
<g id="node2" class="node"><title>Node2</title>
<a xlink:href="../../da/d1d/classgaia_1_1ui_1_1_linear_controller.html" target="_top" xlink:title="A Layout that arranges its children in a single column or a single row.">
<polygon fill="white" stroke="black" points="79,-58.5 79,-79.5 201,-79.5 201,-58.5 79,-58.5"/>
<text text-anchor="middle" x="140" y="-66.5" font-family="Helvetica,sans-Serif" font-size="10.00">gaia::ui::LinearController</text>
</a>
</g>
<!-- Node2&#45;&gt;Node1 -->
<g id="edge2" class="edge"><title>Node2&#45;&gt;Node1</title>
<path fill="none" stroke="midnightblue" d="M140,-48.1906C140,-39.1684 140,-28.9941 140,-21.5707"/>
<polygon fill="midnightblue" stroke="midnightblue" points="136.5,-48.3619 140,-58.3619 143.5,-48.3619 136.5,-48.3619"/>
</g>
<!-- Node3 -->
<g id="node4" class="node"><title>Node3</title>
<a xlink:href="../../db/d6c/classgaia_1_1core_1_1_widget_controller.html" target="_top" xlink:title="Define the default widget layout to put sets of layout in it.">
<polygon fill="white" stroke="black" points="71,-116.5 71,-137.5 209,-137.5 209,-116.5 71,-116.5"/>
<text text-anchor="middle" x="140" y="-124.5" font-family="Helvetica,sans-Serif" font-size="10.00">gaia::core::WidgetController</text>
</a>
</g>
<!-- Node3&#45;&gt;Node2 -->
<g id="edge4" class="edge"><title>Node3&#45;&gt;Node2</title>
<path fill="none" stroke="midnightblue" d="M140,-106.191C140,-97.1684 140,-86.9941 140,-79.5707"/>
<polygon fill="midnightblue" stroke="midnightblue" points="136.5,-106.362 140,-116.362 143.5,-106.362 136.5,-106.362"/>
</g>
<!-- Node4 -->
<g id="node6" class="node"><title>Node4</title>
<a xlink:href="../../d8/dac/classgaia_1_1core_1_1_widget.html" target="_top" xlink:title="The Widget class is the base class of all user interface component.">
<polygon fill="white" stroke="black" points="29,-174.5 29,-195.5 125,-195.5 125,-174.5 29,-174.5"/>
<text text-anchor="middle" x="77" y="-182.5" font-family="Helvetica,sans-Serif" font-size="10.00">gaia::core::Widget</text>
</a>
</g>
<!-- Node4&#45;&gt;Node3 -->
<g id="edge6" class="edge"><title>Node4&#45;&gt;Node3</title>
<path fill="none" stroke="midnightblue" d="M96.1118,-167.405C106.688,-157.668 119.48,-145.891 128.518,-137.571"/>
<polygon fill="midnightblue" stroke="midnightblue" points="93.5416,-165.014 88.5552,-174.362 98.2828,-170.164 93.5416,-165.014"/>
</g>
<!-- Node5 -->
<g id="node8" class="node"><title>Node5</title>
<a xlink:href="../../d0/db2/classgaia_1_1core_1_1_property_animatable.html" target="_top" xlink:title="Any animation object need to implement PropertyAnimatable because of setting value.">
<polygon fill="white" stroke="black" points="1.5,-232.5 1.5,-253.5 152.5,-253.5 152.5,-232.5 1.5,-232.5"/>
<text text-anchor="middle" x="77" y="-240.5" font-family="Helvetica,sans-Serif" font-size="10.00">gaia::core::PropertyAnimatable</text>
</a>
</g>
<!-- Node5&#45;&gt;Node4 -->
<g id="edge8" class="edge"><title>Node5&#45;&gt;Node4</title>
<path fill="none" stroke="midnightblue" d="M77,-222.191C77,-213.168 77,-202.994 77,-195.571"/>
<polygon fill="midnightblue" stroke="midnightblue" points="73.5001,-222.362 77,-232.362 80.5001,-222.362 73.5001,-222.362"/>
</g>
<!-- Node6 -->
<g id="node10" class="node"><title>Node6</title>
<a xlink:href="../../dd/de0/classgaia_1_1core_1_1_event_control.html" target="_top" xlink:title="EventControl is used to dispatch event and register listener.">
<polygon fill="white" stroke="black" points="143,-174.5 143,-195.5 265,-195.5 265,-174.5 143,-174.5"/>
<text text-anchor="middle" x="204" y="-182.5" font-family="Helvetica,sans-Serif" font-size="10.00">gaia::core::EventControl</text>
</a>
</g>
<!-- Node6&#45;&gt;Node3 -->
<g id="edge10" class="edge"><title>Node6&#45;&gt;Node3</title>
<path fill="none" stroke="midnightblue" d="M184.585,-167.405C173.841,-157.668 160.846,-145.891 151.664,-137.571"/>
<polygon fill="midnightblue" stroke="midnightblue" points="182.501,-170.24 192.261,-174.362 187.202,-165.053 182.501,-170.24"/>
</g>
</g>
</svg>
