<?xml version="1.0" encoding="UTF-8" standalone="no"?>
<!DOCTYPE svg PUBLIC "-//W3C//DTD SVG 1.1//EN"
 "http://www.w3.org/Graphics/SVG/1.1/DTD/svg11.dtd">
<!-- Generated by graphviz version 2.26.3 (20100126.1600)
 -->
<!-- Title: G Pages: 1 -->
<svg width="464pt" height="204pt"
 viewBox="0.00 0.00 464.35 204.00" xmlns="http://www.w3.org/2000/svg" xmlns:xlink="http://www.w3.org/1999/xlink">
<g id="graph1" class="graph" transform="scale(1 1) rotate(0) translate(4 200)">
<title>G</title>
<polygon fill="white" stroke="white" points="-4,5 -4,-200 461.35,-200 461.35,5 -4,5"/>
<!-- Node1 -->
<g id="node1" class="node"><title>Node1</title>
<polygon fill="#bfbfbf" stroke="black" points="0,-174.5 0,-195.5 236,-195.5 236,-174.5 0,-174.5"/>
<text text-anchor="middle" x="118" y="-182.5" font-family="Helvetica,sans-Serif" font-size="10.00">/home/vilon_tao/gaia/sdk/include/gaia/core/GL10.h</text>
</g>
<!-- Node2 -->
<g id="node3" class="node"><title>Node2</title>
<polygon fill="white" stroke="#bfbfbf" points="89.5,-0.5 89.5,-21.5 138.5,-21.5 138.5,-0.5 89.5,-0.5"/>
<text text-anchor="middle" x="114" y="-8.5" font-family="Helvetica,sans-Serif" font-size="10.00">stdint.h</text>
</g>
<!-- Node1&#45;&gt;Node2 -->
<g id="edge2" class="edge"><title>Node1&#45;&gt;Node2</title>
<path fill="none" stroke="midnightblue" d="M102.857,-174.374C91.7981,-165.809 77.3362,-152.786 69,-138 56.0262,-114.988 58.9065,-106.257 56,-80 54.9242,-70.2816 51.7921,-66.826 56,-58 62.0295,-45.3533 73.309,-35.0066 84.3296,-27.2724"/>
<polygon fill="midnightblue" stroke="midnightblue" points="86.5274,-30.0184 93.007,-21.6359 82.7143,-24.1481 86.5274,-30.0184"/>
</g>
<!-- Node3 -->
<g id="node5" class="node"><title>Node3</title>
<a xlink:href="../../d9/dd7/_g_l_8h.html" target="_top" xlink:title="gaia/core/GL.h">
<polygon fill="white" stroke="black" points="78,-116.5 78,-137.5 158,-137.5 158,-116.5 78,-116.5"/>
<text text-anchor="middle" x="118" y="-124.5" font-family="Helvetica,sans-Serif" font-size="10.00">gaia/core/GL.h</text>
</a>
</g>
<!-- Node1&#45;&gt;Node3 -->
<g id="edge4" class="edge"><title>Node1&#45;&gt;Node3</title>
<path fill="none" stroke="midnightblue" d="M118,-174.362C118,-166.922 118,-156.743 118,-147.728"/>
<polygon fill="midnightblue" stroke="midnightblue" points="121.5,-147.571 118,-137.571 114.5,-147.571 121.5,-147.571"/>
</g>
<!-- Node5 -->
<g id="node9" class="node"><title>Node5</title>
<a xlink:href="../../d3/dc5/_array_8h.html" target="_top" xlink:title="gaia/base/Array.h">
<polygon fill="white" stroke="black" points="272.5,-116.5 272.5,-137.5 365.5,-137.5 365.5,-116.5 272.5,-116.5"/>
<text text-anchor="middle" x="319" y="-124.5" font-family="Helvetica,sans-Serif" font-size="10.00">gaia/base/Array.h</text>
</a>
</g>
<!-- Node1&#45;&gt;Node5 -->
<g id="edge8" class="edge"><title>Node1&#45;&gt;Node5</title>
<path fill="none" stroke="midnightblue" d="M154.4,-174.497C187.594,-164.918 236.799,-150.72 272.764,-140.342"/>
<polygon fill="midnightblue" stroke="midnightblue" points="273.895,-143.658 282.532,-137.523 271.954,-136.933 273.895,-143.658"/>
</g>
<!-- Node4 -->
<g id="node7" class="node"><title>Node4</title>
<a xlink:href="../../d1/dd0/gmacros_8h.html" target="_top" xlink:title="gaia/base/gmacros.h">
<polygon fill="white" stroke="black" points="64.5,-58.5 64.5,-79.5 171.5,-79.5 171.5,-58.5 64.5,-58.5"/>
<text text-anchor="middle" x="118" y="-66.5" font-family="Helvetica,sans-Serif" font-size="10.00">gaia/base/gmacros.h</text>
</a>
</g>
<!-- Node3&#45;&gt;Node4 -->
<g id="edge6" class="edge"><title>Node3&#45;&gt;Node4</title>
<path fill="none" stroke="midnightblue" d="M118,-116.362C118,-108.922 118,-98.7427 118,-89.7276"/>
<polygon fill="midnightblue" stroke="midnightblue" points="121.5,-89.5706 118,-79.5707 114.5,-89.5707 121.5,-89.5706"/>
</g>
<!-- Node6 -->
<g id="node11" class="node"><title>Node6</title>
<a xlink:href="../../d8/dae/_array_impl_8h.html" target="_top" xlink:title="gaia/base/ArrayImpl.h">
<polygon fill="white" stroke="black" points="331,-58.5 331,-79.5 443,-79.5 443,-58.5 331,-58.5"/>
<text text-anchor="middle" x="387" y="-66.5" font-family="Helvetica,sans-Serif" font-size="10.00">gaia/base/ArrayImpl.h</text>
</a>
</g>
<!-- Node5&#45;&gt;Node6 -->
<g id="edge10" class="edge"><title>Node5&#45;&gt;Node6</title>
<path fill="none" stroke="midnightblue" d="M331.472,-116.362C341.345,-107.941 355.333,-96.0105 366.798,-86.2308"/>
<polygon fill="midnightblue" stroke="midnightblue" points="369.27,-88.7231 374.607,-79.5707 364.727,-83.3972 369.27,-88.7231"/>
</g>
<!-- Node7 -->
<g id="node13" class="node"><title>Node7</title>
<polygon fill="white" stroke="#bfbfbf" points="353,-0.5 353,-21.5 421,-21.5 421,-0.5 353,-0.5"/>
<text text-anchor="middle" x="387" y="-8.5" font-family="Helvetica,sans-Serif" font-size="10.00">sys/types.h</text>
</g>
<!-- Node5&#45;&gt;Node7 -->
<g id="edge24" class="edge"><title>Node5&#45;&gt;Node7</title>
<path fill="none" stroke="midnightblue" d="M365.847,-116.509C399.87,-107.831 441.677,-94.5961 452,-80 466.178,-59.9531 441.753,-39.8369 418.905,-26.541"/>
<polygon fill="midnightblue" stroke="midnightblue" points="420.43,-23.3855 409.983,-21.6228 417.051,-29.5157 420.43,-23.3855"/>
</g>
<!-- Node8 -->
<g id="node15" class="node"><title>Node8</title>
<a xlink:href="../../d1/d86/_type_helpers_8h.html" target="_top" xlink:title="gaia/base/TypeHelpers.h">
<polygon fill="white" stroke="black" points="188.5,-58.5 188.5,-79.5 313.5,-79.5 313.5,-58.5 188.5,-58.5"/>
<text text-anchor="middle" x="251" y="-66.5" font-family="Helvetica,sans-Serif" font-size="10.00">gaia/base/TypeHelpers.h</text>
</a>
</g>
<!-- Node5&#45;&gt;Node8 -->
<g id="edge14" class="edge"><title>Node5&#45;&gt;Node8</title>
<path fill="none" stroke="midnightblue" d="M306.528,-116.362C296.655,-107.941 282.667,-96.0105 271.202,-86.2308"/>
<polygon fill="midnightblue" stroke="midnightblue" points="273.273,-83.3972 263.393,-79.5707 268.73,-88.7231 273.273,-83.3972"/>
</g>
<!-- Node6&#45;&gt;Node7 -->
<g id="edge12" class="edge"><title>Node6&#45;&gt;Node7</title>
<path fill="none" stroke="midnightblue" d="M387,-58.3619C387,-50.9219 387,-40.7427 387,-31.7276"/>
<polygon fill="midnightblue" stroke="midnightblue" points="390.5,-31.5706 387,-21.5707 383.5,-31.5707 390.5,-31.5706"/>
</g>
<!-- Node8&#45;&gt;Node2 -->
<g id="edge16" class="edge"><title>Node8&#45;&gt;Node2</title>
<path fill="none" stroke="midnightblue" d="M226.19,-58.4966C204.368,-49.258 172.392,-35.7209 148.156,-25.46"/>
<polygon fill="midnightblue" stroke="midnightblue" points="149.198,-22.1008 138.625,-21.4252 146.469,-28.5469 149.198,-22.1008"/>
</g>
<!-- Node8&#45;&gt;Node7 -->
<g id="edge20" class="edge"><title>Node8&#45;&gt;Node7</title>
<path fill="none" stroke="midnightblue" d="M275.629,-58.4966C297.157,-49.3154 328.64,-35.8889 352.645,-25.6516"/>
<polygon fill="midnightblue" stroke="midnightblue" points="354.27,-28.7636 362.095,-21.6212 351.524,-22.3247 354.27,-28.7636"/>
</g>
<!-- Node9 -->
<g id="node18" class="node"><title>Node9</title>
<polygon fill="white" stroke="#bfbfbf" points="255.5,-0.5 255.5,-21.5 304.5,-21.5 304.5,-0.5 255.5,-0.5"/>
<text text-anchor="middle" x="280" y="-8.5" font-family="Helvetica,sans-Serif" font-size="10.00">string.h</text>
</g>
<!-- Node8&#45;&gt;Node9 -->
<g id="edge18" class="edge"><title>Node8&#45;&gt;Node9</title>
<path fill="none" stroke="midnightblue" d="M256.319,-58.3619C260.203,-50.5949 265.579,-39.8426 270.227,-30.5458"/>
<polygon fill="midnightblue" stroke="midnightblue" points="273.373,-32.0802 274.715,-21.5707 267.112,-28.9497 273.373,-32.0802"/>
</g>
<!-- Node10 -->
<g id="node21" class="node"><title>Node10</title>
<polygon fill="white" stroke="#bfbfbf" points="203.5,-0.5 203.5,-21.5 238.5,-21.5 238.5,-0.5 203.5,-0.5"/>
<text text-anchor="middle" x="221" y="-8.5" font-family="Helvetica,sans-Serif" font-size="10.00">new</text>
</g>
<!-- Node8&#45;&gt;Node10 -->
<g id="edge22" class="edge"><title>Node8&#45;&gt;Node10</title>
<path fill="none" stroke="midnightblue" d="M245.498,-58.3619C241.48,-50.5949 235.919,-39.8426 231.11,-30.5458"/>
<polygon fill="midnightblue" stroke="midnightblue" points="234.171,-28.8448 226.468,-21.5707 227.953,-32.0608 234.171,-28.8448"/>
</g>
</g>
</svg>
