<?xml version="1.0" encoding="UTF-8" standalone="no"?>
<!DOCTYPE svg PUBLIC "-//W3C//DTD SVG 1.1//EN"
 "http://www.w3.org/Graphics/SVG/1.1/DTD/svg11.dtd">
<!-- Generated by graphviz version 2.26.3 (20100126.1600)
 -->
<!-- Title: G Pages: 1 -->
<svg width="816pt" height="378pt"
 viewBox="0.00 0.00 815.54 378.00" xmlns="http://www.w3.org/2000/svg" xmlns:xlink="http://www.w3.org/1999/xlink">
<g id="graph1" class="graph" transform="scale(1 1) rotate(0) translate(4 374)">
<title>G</title>
<polygon fill="white" stroke="white" points="-4,5 -4,-374 812.543,-374 812.543,5 -4,5"/>
<!-- Node1 -->
<g id="node1" class="node"><title>Node1</title>
<polygon fill="#bfbfbf" stroke="black" points="22.5431,-348.5 22.5431,-369.5 254.543,-369.5 254.543,-348.5 22.5431,-348.5"/>
<text text-anchor="middle" x="138.543" y="-356.5" font-family="Helvetica,sans-Serif" font-size="10.00">/home/vilon_tao/gaia/sdk/include/gaia/ui/Switch.h</text>
</g>
<!-- Node2 -->
<g id="node3" class="node"><title>Node2</title>
<a xlink:href="../../d8/db4/_compound_button_8h.html" target="_top" xlink:title="gaia/ui/CompoundButton.h">
<polygon fill="white" stroke="black" points="72.5431,-290.5 72.5431,-311.5 204.543,-311.5 204.543,-290.5 72.5431,-290.5"/>
<text text-anchor="middle" x="138.543" y="-298.5" font-family="Helvetica,sans-Serif" font-size="10.00">gaia/ui/CompoundButton.h</text>
</a>
</g>
<!-- Node1&#45;&gt;Node2 -->
<g id="edge2" class="edge"><title>Node1&#45;&gt;Node2</title>
<path fill="none" stroke="midnightblue" d="M138.543,-348.362C138.543,-340.922 138.543,-330.743 138.543,-321.728"/>
<polygon fill="midnightblue" stroke="midnightblue" points="142.043,-321.571 138.543,-311.571 135.043,-321.571 142.043,-321.571"/>
</g>
<!-- Node3 -->
<g id="node5" class="node"><title>Node3</title>
<a xlink:href="../../d3/dc5/_array_8h.html" target="_top" xlink:title="gaia/base/Array.h">
<polygon fill="white" stroke="black" points="23.0431,-116.5 23.0431,-137.5 116.043,-137.5 116.043,-116.5 23.0431,-116.5"/>
<text text-anchor="middle" x="69.5431" y="-124.5" font-family="Helvetica,sans-Serif" font-size="10.00">gaia/base/Array.h</text>
</a>
</g>
<!-- Node2&#45;&gt;Node3 -->
<g id="edge4" class="edge"><title>Node2&#45;&gt;Node3</title>
<path fill="none" stroke="midnightblue" d="M134.331,-290.377C123.098,-262.051 92.2849,-184.349 77.5702,-147.242"/>
<polygon fill="midnightblue" stroke="midnightblue" points="80.8163,-145.933 73.8765,-137.928 74.3093,-148.514 80.8163,-145.933"/>
</g>
<!-- Node10 -->
<g id="node21" class="node"><title>Node10</title>
<a xlink:href="../../d2/daa/_button_8h.html" target="_top" xlink:title="gaia/ui/Button.h">
<polygon fill="white" stroke="black" points="149.043,-232.5 149.043,-253.5 234.043,-253.5 234.043,-232.5 149.043,-232.5"/>
<text text-anchor="middle" x="191.543" y="-240.5" font-family="Helvetica,sans-Serif" font-size="10.00">gaia/ui/Button.h</text>
</a>
</g>
<!-- Node2&#45;&gt;Node10 -->
<g id="edge22" class="edge"><title>Node2&#45;&gt;Node10</title>
<path fill="none" stroke="midnightblue" d="M148.264,-290.362C155.735,-282.186 166.229,-270.702 175.012,-261.091"/>
<polygon fill="midnightblue" stroke="midnightblue" points="177.722,-263.314 181.884,-253.571 172.554,-258.592 177.722,-263.314"/>
</g>
<!-- Node4 -->
<g id="node7" class="node"><title>Node4</title>
<a xlink:href="../../d8/dae/_array_impl_8h.html" target="_top" xlink:title="gaia/base/ArrayImpl.h">
<polygon fill="white" stroke="black" points="13.5431,-58.5 13.5431,-79.5 125.543,-79.5 125.543,-58.5 13.5431,-58.5"/>
<text text-anchor="middle" x="69.5431" y="-66.5" font-family="Helvetica,sans-Serif" font-size="10.00">gaia/base/ArrayImpl.h</text>
</a>
</g>
<!-- Node3&#45;&gt;Node4 -->
<g id="edge6" class="edge"><title>Node3&#45;&gt;Node4</title>
<path fill="none" stroke="midnightblue" d="M69.5431,-116.362C69.5431,-108.922 69.5431,-98.7427 69.5431,-89.7276"/>
<polygon fill="midnightblue" stroke="midnightblue" points="73.0432,-89.5706 69.5431,-79.5707 66.0432,-89.5707 73.0432,-89.5706"/>
</g>
<!-- Node5 -->
<g id="node9" class="node"><title>Node5</title>
<polygon fill="white" stroke="#bfbfbf" points="119.543,-0.5 119.543,-21.5 187.543,-21.5 187.543,-0.5 119.543,-0.5"/>
<text text-anchor="middle" x="153.543" y="-8.5" font-family="Helvetica,sans-Serif" font-size="10.00">sys/types.h</text>
</g>
<!-- Node3&#45;&gt;Node5 -->
<g id="edge20" class="edge"><title>Node3&#45;&gt;Node5</title>
<path fill="none" stroke="midnightblue" d="M46.4265,-116.281C21.6932,-103.316 -11.9016,-80.4307 4.54308,-58 17.1203,-40.8446 70.2174,-27.068 109.462,-18.9697"/>
<polygon fill="midnightblue" stroke="midnightblue" points="110.242,-22.3829 119.359,-16.9854 108.866,-15.5194 110.242,-22.3829"/>
</g>
<!-- Node6 -->
<g id="node11" class="node"><title>Node6</title>
<a xlink:href="../../d1/d86/_type_helpers_8h.html" target="_top" xlink:title="gaia/base/TypeHelpers.h">
<polygon fill="white" stroke="black" points="393.043,-58.5 393.043,-79.5 518.043,-79.5 518.043,-58.5 393.043,-58.5"/>
<text text-anchor="middle" x="455.543" y="-66.5" font-family="Helvetica,sans-Serif" font-size="10.00">gaia/base/TypeHelpers.h</text>
</a>
</g>
<!-- Node3&#45;&gt;Node6 -->
<g id="edge10" class="edge"><title>Node3&#45;&gt;Node6</title>
<path fill="none" stroke="midnightblue" d="M116.316,-117.448C119.096,-116.941 121.855,-116.455 124.543,-116 236.423,-97.0838 267.44,-96.925 382.891,-80.2208"/>
<polygon fill="midnightblue" stroke="midnightblue" points="383.441,-83.6777 392.832,-78.772 382.431,-76.7509 383.441,-83.6777"/>
</g>
<!-- Node4&#45;&gt;Node5 -->
<g id="edge8" class="edge"><title>Node4&#45;&gt;Node5</title>
<path fill="none" stroke="midnightblue" d="M84.95,-58.3619C97.5013,-49.6955 115.435,-37.3126 129.818,-27.3819"/>
<polygon fill="midnightblue" stroke="midnightblue" points="131.994,-30.1327 138.234,-21.5707 128.016,-24.3725 131.994,-30.1327"/>
</g>
<!-- Node6&#45;&gt;Node5 -->
<g id="edge16" class="edge"><title>Node6&#45;&gt;Node5</title>
<path fill="none" stroke="midnightblue" d="M400.853,-58.4966C342.568,-47.3028 251.426,-29.7987 197.58,-19.4575"/>
<polygon fill="midnightblue" stroke="midnightblue" points="198.134,-15.9999 187.653,-17.5509 196.813,-22.8742 198.134,-15.9999"/>
</g>
<!-- Node7 -->
<g id="node13" class="node"><title>Node7</title>
<polygon fill="white" stroke="#bfbfbf" points="561.043,-0.5 561.043,-21.5 610.043,-21.5 610.043,-0.5 561.043,-0.5"/>
<text text-anchor="middle" x="585.543" y="-8.5" font-family="Helvetica,sans-Serif" font-size="10.00">stdint.h</text>
</g>
<!-- Node6&#45;&gt;Node7 -->
<g id="edge12" class="edge"><title>Node6&#45;&gt;Node7</title>
<path fill="none" stroke="midnightblue" d="M479.085,-58.4966C499.572,-49.3562 529.49,-36.0082 552.397,-25.7883"/>
<polygon fill="midnightblue" stroke="midnightblue" points="554.031,-28.892 561.737,-21.6212 551.179,-22.4994 554.031,-28.892"/>
</g>
<!-- Node8 -->
<g id="node15" class="node"><title>Node8</title>
<polygon fill="white" stroke="#bfbfbf" points="396.043,-0.5 396.043,-21.5 445.043,-21.5 445.043,-0.5 396.043,-0.5"/>
<text text-anchor="middle" x="420.543" y="-8.5" font-family="Helvetica,sans-Serif" font-size="10.00">string.h</text>
</g>
<!-- Node6&#45;&gt;Node8 -->
<g id="edge14" class="edge"><title>Node6&#45;&gt;Node8</title>
<path fill="none" stroke="midnightblue" d="M449.124,-58.3619C444.387,-50.5131 437.811,-39.6159 432.161,-30.2527"/>
<polygon fill="midnightblue" stroke="midnightblue" points="435.085,-28.3242 426.922,-21.5707 429.092,-31.9409 435.085,-28.3242"/>
</g>
<!-- Node9 -->
<g id="node18" class="node"><title>Node9</title>
<polygon fill="white" stroke="#bfbfbf" points="462.043,-0.5 462.043,-21.5 497.043,-21.5 497.043,-0.5 462.043,-0.5"/>
<text text-anchor="middle" x="479.543" y="-8.5" font-family="Helvetica,sans-Serif" font-size="10.00">new</text>
</g>
<!-- Node6&#45;&gt;Node9 -->
<g id="edge18" class="edge"><title>Node6&#45;&gt;Node9</title>
<path fill="none" stroke="midnightblue" d="M459.945,-58.3619C463.125,-50.6766 467.515,-40.0686 471.333,-30.8399"/>
<polygon fill="midnightblue" stroke="midnightblue" points="474.58,-32.1491 475.169,-21.5707 468.111,-29.4726 474.58,-32.1491"/>
</g>
<!-- Node11 -->
<g id="node23" class="node"><title>Node11</title>
<a xlink:href="../../d8/d13/_text_widget_8h.html" target="_top" xlink:title="gaia/ui/TextWidget.h">
<polygon fill="white" stroke="black" points="156.043,-174.5 156.043,-195.5 263.043,-195.5 263.043,-174.5 156.043,-174.5"/>
<text text-anchor="middle" x="209.543" y="-182.5" font-family="Helvetica,sans-Serif" font-size="10.00">gaia/ui/TextWidget.h</text>
</a>
</g>
<!-- Node10&#45;&gt;Node11 -->
<g id="edge24" class="edge"><title>Node10&#45;&gt;Node11</title>
<path fill="none" stroke="midnightblue" d="M194.845,-232.362C197.204,-224.758 200.452,-214.294 203.294,-205.135"/>
<polygon fill="midnightblue" stroke="midnightblue" points="206.641,-206.159 206.263,-195.571 199.956,-204.084 206.641,-206.159"/>
</g>
<!-- Node12 -->
<g id="node25" class="node"><title>Node12</title>
<a xlink:href="../../d3/dd0/_event_control_8h.html" target="_top" xlink:title="gaia/core/event/EventControl.h">
<polygon fill="white" stroke="black" points="133.543,-116.5 133.543,-137.5 285.543,-137.5 285.543,-116.5 133.543,-116.5"/>
<text text-anchor="middle" x="209.543" y="-124.5" font-family="Helvetica,sans-Serif" font-size="10.00">gaia/core/event/EventControl.h</text>
</a>
</g>
<!-- Node11&#45;&gt;Node12 -->
<g id="edge26" class="edge"><title>Node11&#45;&gt;Node12</title>
<path fill="none" stroke="midnightblue" d="M209.543,-174.362C209.543,-166.922 209.543,-156.743 209.543,-147.728"/>
<polygon fill="midnightblue" stroke="midnightblue" points="213.043,-147.571 209.543,-137.571 206.043,-147.571 213.043,-147.571"/>
</g>
<!-- Node13 -->
<g id="node28" class="node"><title>Node13</title>
<a xlink:href="../../d4/d75/_widget_8h.html" target="_top" xlink:title="gaia/core/vision/Widget.h">
<polygon fill="white" stroke="black" points="424.043,-116.5 424.043,-137.5 551.043,-137.5 551.043,-116.5 424.043,-116.5"/>
<text text-anchor="middle" x="487.543" y="-124.5" font-family="Helvetica,sans-Serif" font-size="10.00">gaia/core/vision/Widget.h</text>
</a>
</g>
<!-- Node11&#45;&gt;Node13 -->
<g id="edge30" class="edge"><title>Node11&#45;&gt;Node13</title>
<path fill="none" stroke="midnightblue" d="M259.887,-174.497C306.876,-164.693 377.064,-150.05 427.071,-139.616"/>
<polygon fill="midnightblue" stroke="midnightblue" points="428.031,-142.992 437.105,-137.523 426.601,-136.139 428.031,-142.992"/>
</g>
<!-- Node12&#45;&gt;Node5 -->
<g id="edge28" class="edge"><title>Node12&#45;&gt;Node5</title>
<path fill="none" stroke="midnightblue" d="M199.044,-116.288C190.757,-107.283 179.474,-93.7182 172.543,-80 164.851,-64.7737 159.944,-46.0328 157.048,-31.9268"/>
<polygon fill="midnightblue" stroke="midnightblue" points="160.425,-30.9467 155.142,-21.7634 153.545,-32.2373 160.425,-30.9467"/>
</g>
<!-- Node14 -->
<g id="node30" class="node"><title>Node14</title>
<a xlink:href="../../d1/dd0/gmacros_8h.html" target="_top" xlink:title="gaia/base/gmacros.h">
<polygon fill="white" stroke="black" points="701.043,-58.5 701.043,-79.5 808.043,-79.5 808.043,-58.5 701.043,-58.5"/>
<text text-anchor="middle" x="754.543" y="-66.5" font-family="Helvetica,sans-Serif" font-size="10.00">gaia/base/gmacros.h</text>
</a>
</g>
<!-- Node13&#45;&gt;Node14 -->
<g id="edge32" class="edge"><title>Node13&#45;&gt;Node14</title>
<path fill="none" stroke="midnightblue" d="M535.895,-116.497C580.93,-106.714 648.154,-92.1107 696.163,-81.6819"/>
<polygon fill="midnightblue" stroke="midnightblue" points="697.072,-85.0661 706.101,-79.5231 695.586,-78.2257 697.072,-85.0661"/>
</g>
<!-- Node15 -->
<g id="node32" class="node"><title>Node15</title>
<a xlink:href="../../d0/d92/_property_animatable_8h.html" target="_top" xlink:title="gaia/core/animator/PropertyAnimatable.h">
<polygon fill="white" stroke="black" points="181.543,-58.5 181.543,-79.5 375.543,-79.5 375.543,-58.5 181.543,-58.5"/>
<text text-anchor="middle" x="278.543" y="-66.5" font-family="Helvetica,sans-Serif" font-size="10.00">gaia/core/animator/PropertyAnimatable.h</text>
</a>
</g>
<!-- Node13&#45;&gt;Node15 -->
<g id="edge34" class="edge"><title>Node13&#45;&gt;Node15</title>
<path fill="none" stroke="midnightblue" d="M449.695,-116.497C415.032,-106.877 363.578,-92.5981 326.141,-82.209"/>
<polygon fill="midnightblue" stroke="midnightblue" points="327.034,-78.8246 316.462,-79.5231 325.162,-85.5697 327.034,-78.8246"/>
</g>
<!-- Node16 -->
<g id="node35" class="node"><title>Node16</title>
<a xlink:href="../../d8/d50/_widget_core_8h.html" target="_top" xlink:title="gaia/core/vision/WidgetCore.h">
<polygon fill="white" stroke="black" points="535.543,-58.5 535.543,-79.5 683.543,-79.5 683.543,-58.5 535.543,-58.5"/>
<text text-anchor="middle" x="609.543" y="-66.5" font-family="Helvetica,sans-Serif" font-size="10.00">gaia/core/vision/WidgetCore.h</text>
</a>
</g>
<!-- Node13&#45;&gt;Node16 -->
<g id="edge38" class="edge"><title>Node13&#45;&gt;Node16</title>
<path fill="none" stroke="midnightblue" d="M509.636,-116.497C528.777,-107.397 556.689,-94.1273 578.148,-83.9253"/>
<polygon fill="midnightblue" stroke="midnightblue" points="579.673,-87.0758 587.202,-79.6212 576.668,-80.7539 579.673,-87.0758"/>
</g>
<!-- Node15&#45;&gt;Node5 -->
<g id="edge36" class="edge"><title>Node15&#45;&gt;Node5</title>
<path fill="none" stroke="midnightblue" d="M255.907,-58.4966C236.295,-49.397 207.697,-36.1273 185.71,-25.9253"/>
<polygon fill="midnightblue" stroke="midnightblue" points="186.978,-22.6554 176.434,-21.6212 184.032,-29.0051 186.978,-22.6554"/>
</g>
<!-- Node16&#45;&gt;Node7 -->
<g id="edge40" class="edge"><title>Node16&#45;&gt;Node7</title>
<path fill="none" stroke="midnightblue" d="M605.141,-58.3619C601.961,-50.6766 597.571,-40.0686 593.753,-30.8399"/>
<polygon fill="midnightblue" stroke="midnightblue" points="596.975,-29.4726 589.917,-21.5707 590.507,-32.1491 596.975,-29.4726"/>
</g>
</g>
</svg>
