<?xml version="1.0" encoding="UTF-8" standalone="no"?>
<!DOCTYPE svg PUBLIC "-//W3C//DTD SVG 1.1//EN"
 "http://www.w3.org/Graphics/SVG/1.1/DTD/svg11.dtd">
<!-- Generated by graphviz version 2.26.3 (20100126.1600)
 -->
<!-- Title: G Pages: 1 -->
<svg width="444pt" height="146pt"
 viewBox="0.00 0.00 443.53 146.00" xmlns="http://www.w3.org/2000/svg" xmlns:xlink="http://www.w3.org/1999/xlink">
<g id="graph1" class="graph" transform="scale(1 1) rotate(0) translate(4 142)">
<title>G</title>
<polygon fill="white" stroke="white" points="-4,5 -4,-142 440.53,-142 440.53,5 -4,5"/>
<!-- Node1 -->
<g id="node1" class="node"><title>Node1</title>
<polygon fill="#bfbfbf" stroke="black" points="22.5299,-116.5 22.5299,-137.5 322.53,-137.5 322.53,-116.5 22.5299,-116.5"/>
<text text-anchor="middle" x="172.53" y="-124.5" font-family="Helvetica,sans-Serif" font-size="10.00">/home/vilon_tao/gaia/sdk/include/gaia/connectivity/NetworkInfo.h</text>
</g>
<!-- Node2 -->
<g id="node3" class="node"><title>Node2</title>
<polygon fill="white" stroke="#bfbfbf" points="13.5299,-0.5 13.5299,-21.5 81.5299,-21.5 81.5299,-0.5 13.5299,-0.5"/>
<text text-anchor="middle" x="47.5299" y="-8.5" font-family="Helvetica,sans-Serif" font-size="10.00">sys/types.h</text>
</g>
<!-- Node1&#45;&gt;Node2 -->
<g id="edge2" class="edge"><title>Node1&#45;&gt;Node2</title>
<path fill="none" stroke="midnightblue" d="M104.147,-116.429C63.271,-108.557 16.9315,-96.3473 4.52991,-80 -8.22654,-63.185 8.59002,-42.472 24.7843,-28.1517"/>
<polygon fill="midnightblue" stroke="midnightblue" points="27.1091,-30.7704 32.5519,-21.6804 22.6285,-25.3922 27.1091,-30.7704"/>
</g>
<!-- Node3 -->
<g id="node5" class="node"><title>Node3</title>
<a xlink:href="../../d1/dd0/gmacros_8h.html" target="_top" xlink:title="gaia/base/gmacros.h">
<polygon fill="white" stroke="black" points="182.03,-0.5 182.03,-21.5 289.03,-21.5 289.03,-0.5 182.03,-0.5"/>
<text text-anchor="middle" x="235.53" y="-8.5" font-family="Helvetica,sans-Serif" font-size="10.00">gaia/base/gmacros.h</text>
</a>
</g>
<!-- Node1&#45;&gt;Node3 -->
<g id="edge4" class="edge"><title>Node1&#45;&gt;Node3</title>
<path fill="none" stroke="midnightblue" d="M185.503,-116.311C195.365,-107.523 208.555,-94.2377 216.53,-80 224.866,-65.1165 229.726,-46.3507 232.44,-32.1479"/>
<polygon fill="midnightblue" stroke="midnightblue" points="235.957,-32.3423 234.182,-21.8972 229.056,-31.1693 235.957,-32.3423"/>
</g>
<!-- Node4 -->
<g id="node7" class="node"><title>Node4</title>
<a xlink:href="../../db/df3/_connectivity_manager_8h.html" target="_top" xlink:title="gaia/connectivity/ConnectivityManager.h">
<polygon fill="white" stroke="black" points="13.5299,-58.5 13.5299,-79.5 207.53,-79.5 207.53,-58.5 13.5299,-58.5"/>
<text text-anchor="middle" x="110.53" y="-66.5" font-family="Helvetica,sans-Serif" font-size="10.00">gaia/connectivity/ConnectivityManager.h</text>
</a>
</g>
<!-- Node1&#45;&gt;Node4 -->
<g id="edge6" class="edge"><title>Node1&#45;&gt;Node4</title>
<path fill="none" stroke="midnightblue" d="M161.158,-116.362C152.244,-108.023 139.65,-96.2418 129.254,-86.5162"/>
<polygon fill="midnightblue" stroke="midnightblue" points="131.523,-83.8463 121.83,-79.5707 126.741,-88.9582 131.523,-83.8463"/>
</g>
<!-- Node5 -->
<g id="node11" class="node"><title>Node5</title>
<a xlink:href="../../de/d2b/_telephony_manager_8h.html" target="_top" xlink:title="gaia/telephony/TelephonyManager.h">
<polygon fill="white" stroke="black" points="263.03,-58.5 263.03,-79.5 436.03,-79.5 436.03,-58.5 263.03,-58.5"/>
<text text-anchor="middle" x="349.53" y="-66.5" font-family="Helvetica,sans-Serif" font-size="10.00">gaia/telephony/TelephonyManager.h</text>
</a>
</g>
<!-- Node1&#45;&gt;Node5 -->
<g id="edge12" class="edge"><title>Node1&#45;&gt;Node5</title>
<path fill="none" stroke="midnightblue" d="M204.583,-116.497C233.439,-107.041 276.036,-93.0829 307.591,-82.7428"/>
<polygon fill="midnightblue" stroke="midnightblue" points="309.004,-85.963 317.416,-79.5231 306.824,-79.3111 309.004,-85.963"/>
</g>
<!-- Node4&#45;&gt;Node2 -->
<g id="edge8" class="edge"><title>Node4&#45;&gt;Node2</title>
<path fill="none" stroke="midnightblue" d="M98.9747,-58.3619C89.9165,-50.0226 77.1202,-38.2418 66.5562,-28.5162"/>
<polygon fill="midnightblue" stroke="midnightblue" points="68.7394,-25.7688 59.0118,-21.5707 63.9982,-30.9187 68.7394,-25.7688"/>
</g>
<!-- Node4&#45;&gt;Node3 -->
<g id="edge10" class="edge"><title>Node4&#45;&gt;Node3</title>
<path fill="none" stroke="midnightblue" d="M133.166,-58.4966C152.778,-49.397 181.376,-36.1273 203.363,-25.9253"/>
<polygon fill="midnightblue" stroke="midnightblue" points="205.041,-29.0051 212.639,-21.6212 202.095,-22.6554 205.041,-29.0051"/>
</g>
<!-- Node5&#45;&gt;Node3 -->
<g id="edge16" class="edge"><title>Node5&#45;&gt;Node3</title>
<path fill="none" stroke="midnightblue" d="M328.885,-58.4966C311.16,-49.4786 285.385,-36.3649 265.407,-26.2006"/>
<polygon fill="midnightblue" stroke="midnightblue" points="266.906,-23.0364 256.406,-21.6212 263.732,-29.2753 266.906,-23.0364"/>
</g>
<!-- Node6 -->
<g id="node13" class="node"><title>Node6</title>
<polygon fill="white" stroke="#bfbfbf" points="326.53,-0.5 326.53,-21.5 372.53,-21.5 372.53,-0.5 326.53,-0.5"/>
<text text-anchor="middle" x="349.53" y="-8.5" font-family="Helvetica,sans-Serif" font-size="10.00">cstdint</text>
</g>
<!-- Node5&#45;&gt;Node6 -->
<g id="edge14" class="edge"><title>Node5&#45;&gt;Node6</title>
<path fill="none" stroke="midnightblue" d="M349.53,-58.3619C349.53,-50.9219 349.53,-40.7427 349.53,-31.7276"/>
<polygon fill="midnightblue" stroke="midnightblue" points="353.03,-31.5706 349.53,-21.5707 346.03,-31.5707 353.03,-31.5706"/>
</g>
</g>
</svg>
