<?xml version="1.0" encoding="UTF-8" standalone="no"?>
<!DOCTYPE svg PUBLIC "-//W3C//DTD SVG 1.1//EN"
 "http://www.w3.org/Graphics/SVG/1.1/DTD/svg11.dtd">
<!-- Generated by graphviz version 2.26.3 (20100126.1600)
 -->
<!-- Title: G Pages: 1 -->
<svg width="1644pt" height="436pt"
 viewBox="0.00 0.00 1644.00 436.00" xmlns="http://www.w3.org/2000/svg" xmlns:xlink="http://www.w3.org/1999/xlink">
<g id="graph1" class="graph" transform="scale(1 1) rotate(0) translate(4 432)">
<title>G</title>
<polygon fill="white" stroke="white" points="-4,5 -4,-432 1641,-432 1641,5 -4,5"/>
<!-- Node1 -->
<g id="node1" class="node"><title>Node1</title>
<polygon fill="#bfbfbf" stroke="black" points="323,-406.5 323,-427.5 635,-427.5 635,-406.5 323,-406.5"/>
<text text-anchor="middle" x="479" y="-414.5" font-family="Helvetica,sans-Serif" font-size="10.00">/home/vilon_tao/gaia/sdk/include/gaia/webkit/WebSettingsClassic.h</text>
</g>
<!-- Node2 -->
<g id="node3" class="node"><title>Node2</title>
<a xlink:href="../../d1/dd0/gmacros_8h.html" target="_top" xlink:title="gaia/base/gmacros.h">
<polygon fill="white" stroke="black" points="481.5,-58.5 481.5,-79.5 588.5,-79.5 588.5,-58.5 481.5,-58.5"/>
<text text-anchor="middle" x="535" y="-66.5" font-family="Helvetica,sans-Serif" font-size="10.00">gaia/base/gmacros.h</text>
</a>
</g>
<!-- Node1&#45;&gt;Node2 -->
<g id="edge2" class="edge"><title>Node1&#45;&gt;Node2</title>
<path fill="none" stroke="midnightblue" d="M322.82,-408.79C183.039,-397.029 0,-368.702 0,-301 0,-301 0,-301 0,-185 0,-173.065 329.575,-108.406 471.375,-81.1384"/>
<polygon fill="midnightblue" stroke="midnightblue" points="472.092,-84.5646 481.253,-79.241 470.772,-77.6902 472.092,-84.5646"/>
</g>
<!-- Node3 -->
<g id="node5" class="node"><title>Node3</title>
<a xlink:href="../../d2/dcb/_web_settings_8h.html" target="_top" xlink:title="gaia/webkit/WebSettings.h">
<polygon fill="white" stroke="black" points="891,-348.5 891,-369.5 1025,-369.5 1025,-348.5 891,-348.5"/>
<text text-anchor="middle" x="958" y="-356.5" font-family="Helvetica,sans-Serif" font-size="10.00">gaia/webkit/WebSettings.h</text>
</a>
</g>
<!-- Node1&#45;&gt;Node3 -->
<g id="edge4" class="edge"><title>Node1&#45;&gt;Node3</title>
<path fill="none" stroke="midnightblue" d="M565.743,-406.497C655.601,-395.616 794.697,-378.774 880.845,-368.342"/>
<polygon fill="midnightblue" stroke="midnightblue" points="881.316,-371.811 890.823,-367.134 880.474,-364.862 881.316,-371.811"/>
</g>
<!-- Node4 -->
<g id="node7" class="node"><title>Node4</title>
<a xlink:href="../../d4/d98/_context_8h.html" target="_top" xlink:title="gaia/core/Context.h">
<polygon fill="white" stroke="black" points="1374,-174.5 1374,-195.5 1476,-195.5 1476,-174.5 1374,-174.5"/>
<text text-anchor="middle" x="1425" y="-182.5" font-family="Helvetica,sans-Serif" font-size="10.00">gaia/core/Context.h</text>
</a>
</g>
<!-- Node3&#45;&gt;Node4 -->
<g id="edge6" class="edge"><title>Node3&#45;&gt;Node4</title>
<path fill="none" stroke="midnightblue" d="M1014.68,-348.478C1088.18,-333.554 1219.22,-302.533 1323,-254 1353.2,-239.878 1384.45,-217.361 1404.27,-201.915"/>
<polygon fill="midnightblue" stroke="midnightblue" points="1406.61,-204.525 1412.28,-195.572 1402.26,-199.038 1406.61,-204.525"/>
</g>
<!-- Node6 -->
<g id="node11" class="node"><title>Node6</title>
<a xlink:href="../../d0/d18/_handler_8h.html" target="_top" xlink:title="gaia/core/Handler.h">
<polygon fill="white" stroke="black" points="1411.5,-290.5 1411.5,-311.5 1512.5,-311.5 1512.5,-290.5 1411.5,-290.5"/>
<text text-anchor="middle" x="1462" y="-298.5" font-family="Helvetica,sans-Serif" font-size="10.00">gaia/core/Handler.h</text>
</a>
</g>
<!-- Node3&#45;&gt;Node6 -->
<g id="edge10" class="edge"><title>Node3&#45;&gt;Node6</title>
<path fill="none" stroke="midnightblue" d="M1025.25,-353.161C1111.7,-345.346 1266.36,-330.324 1398,-312 1399.09,-311.848 1400.19,-311.692 1401.29,-311.533"/>
<polygon fill="midnightblue" stroke="midnightblue" points="1402.03,-314.962 1411.39,-310.005 1400.98,-308.04 1402.03,-314.962"/>
</g>
<!-- Node7 -->
<g id="node14" class="node"><title>Node7</title>
<a xlink:href="../../db/db5/_string_8h.html" target="_top" xlink:title="gaia/base/String.h">
<polygon fill="white" stroke="black" points="366.5,-116.5 366.5,-137.5 461.5,-137.5 461.5,-116.5 366.5,-116.5"/>
<text text-anchor="middle" x="414" y="-124.5" font-family="Helvetica,sans-Serif" font-size="10.00">gaia/base/String.h</text>
</a>
</g>
<!-- Node3&#45;&gt;Node7 -->
<g id="edge14" class="edge"><title>Node3&#45;&gt;Node7</title>
<path fill="none" stroke="midnightblue" d="M890.815,-352.72C768.174,-340.065 514.349,-308.004 446,-254 414.185,-228.862 411.166,-177.12 412.264,-148.036"/>
<polygon fill="midnightblue" stroke="midnightblue" points="415.774,-147.954 412.86,-137.768 408.786,-147.548 415.774,-147.954"/>
</g>
<!-- Node9 -->
<g id="node18" class="node"><title>Node9</title>
<polygon fill="white" stroke="#bfbfbf" points="145.5,-0.5 145.5,-21.5 194.5,-21.5 194.5,-0.5 145.5,-0.5"/>
<text text-anchor="middle" x="170" y="-8.5" font-family="Helvetica,sans-Serif" font-size="10.00">stdint.h</text>
</g>
<!-- Node3&#45;&gt;Node9 -->
<g id="edge30" class="edge"><title>Node3&#45;&gt;Node9</title>
<path fill="none" stroke="midnightblue" d="M890.723,-357.584C678.637,-352.239 38,-328.977 38,-243 38,-243 38,-243 38,-127 38,-74.8286 96.9014,-40.5963 136.012,-23.6165"/>
<polygon fill="midnightblue" stroke="midnightblue" points="137.597,-26.748 145.481,-19.6709 134.904,-20.2865 137.597,-26.748"/>
</g>
<!-- Node11 -->
<g id="node24" class="node"><title>Node11</title>
<a xlink:href="../../db/db6/_message_8h.html" target="_top" xlink:title="gaia/core/Message.h">
<polygon fill="white" stroke="black" points="1529.5,-290.5 1529.5,-311.5 1636.5,-311.5 1636.5,-290.5 1529.5,-290.5"/>
<text text-anchor="middle" x="1583" y="-298.5" font-family="Helvetica,sans-Serif" font-size="10.00">gaia/core/Message.h</text>
</a>
</g>
<!-- Node3&#45;&gt;Node11 -->
<g id="edge26" class="edge"><title>Node3&#45;&gt;Node11</title>
<path fill="none" stroke="midnightblue" d="M1025.38,-355.391C1129.31,-349.379 1335.16,-335.706 1519.15,-312.154"/>
<polygon fill="midnightblue" stroke="midnightblue" points="1519.81,-315.597 1529.28,-310.844 1518.91,-308.655 1519.81,-315.597"/>
</g>
<!-- Node12 -->
<g id="node28" class="node"><title>Node12</title>
<a xlink:href="../../d6/d10/_web_view_8h.html" target="_top" xlink:title="gaia/webkit/WebView.h">
<polygon fill="white" stroke="black" points="898.5,-290.5 898.5,-311.5 1017.5,-311.5 1017.5,-290.5 898.5,-290.5"/>
<text text-anchor="middle" x="958" y="-298.5" font-family="Helvetica,sans-Serif" font-size="10.00">gaia/webkit/WebView.h</text>
</a>
</g>
<!-- Node3&#45;&gt;Node12 -->
<g id="edge32" class="edge"><title>Node3&#45;&gt;Node12</title>
<path fill="none" stroke="midnightblue" d="M958,-348.362C958,-340.922 958,-330.743 958,-321.728"/>
<polygon fill="midnightblue" stroke="midnightblue" points="961.5,-321.571 958,-311.571 954.5,-321.571 961.5,-321.571"/>
</g>
<!-- Node5 -->
<g id="node9" class="node"><title>Node5</title>
<polygon fill="white" stroke="#bfbfbf" points="1114,-0.5 1114,-21.5 1182,-21.5 1182,-0.5 1114,-0.5"/>
<text text-anchor="middle" x="1148" y="-8.5" font-family="Helvetica,sans-Serif" font-size="10.00">sys/types.h</text>
</g>
<!-- Node4&#45;&gt;Node5 -->
<g id="edge8" class="edge"><title>Node4&#45;&gt;Node5</title>
<path fill="none" stroke="midnightblue" d="M1428.71,-174.1C1432.95,-159.5 1437.88,-133.419 1426,-116 1398.88,-76.2412 1263.63,-38.6637 1192.26,-21.2062"/>
<polygon fill="midnightblue" stroke="midnightblue" points="1192.76,-17.7258 1182.22,-18.7787 1191.12,-24.5299 1192.76,-17.7258"/>
</g>
<!-- Node6&#45;&gt;Node5 -->
<g id="edge12" class="edge"><title>Node6&#45;&gt;Node5</title>
<path fill="none" stroke="midnightblue" d="M1468.75,-290.275C1480.62,-270.346 1504,-225.909 1504,-185 1504,-185 1504,-185 1504,-127 1504,-62.152 1287.76,-27.9244 1192.34,-15.978"/>
<polygon fill="midnightblue" stroke="midnightblue" points="1192.49,-12.47 1182.13,-14.728 1191.63,-19.4181 1192.49,-12.47"/>
</g>
<!-- Node7&#45;&gt;Node5 -->
<g id="edge24" class="edge"><title>Node7&#45;&gt;Node5</title>
<path fill="none" stroke="midnightblue" d="M461.773,-118.463C499.383,-110.862 552.671,-98.1232 597,-80 615.064,-72.615 616.404,-63.9175 635,-58 721.808,-30.3766 995.313,-16.9543 1103.41,-12.6239"/>
<polygon fill="midnightblue" stroke="midnightblue" points="1103.79,-16.1117 1113.64,-12.2214 1103.52,-9.11713 1103.79,-16.1117"/>
</g>
<!-- Node8 -->
<g id="node16" class="node"><title>Node8</title>
<a xlink:href="../../d7/d97/_char_sequence_8h.html" target="_top" xlink:title="gaia/base/CharSequence.h">
<polygon fill="white" stroke="black" points="198,-58.5 198,-79.5 332,-79.5 332,-58.5 198,-58.5"/>
<text text-anchor="middle" x="265" y="-66.5" font-family="Helvetica,sans-Serif" font-size="10.00">gaia/base/CharSequence.h</text>
</a>
</g>
<!-- Node7&#45;&gt;Node8 -->
<g id="edge16" class="edge"><title>Node7&#45;&gt;Node8</title>
<path fill="none" stroke="midnightblue" d="M387.017,-116.497C363.147,-107.205 328.106,-93.5649 301.693,-83.2832"/>
<polygon fill="midnightblue" stroke="midnightblue" points="302.622,-79.889 292.033,-79.5231 300.083,-86.4122 302.622,-79.889"/>
</g>
<!-- Node10 -->
<g id="node20" class="node"><title>Node10</title>
<a xlink:href="../../d6/d83/_hash_func_8h.html" target="_top" xlink:title="gaia/base/HashFunc.h">
<polygon fill="white" stroke="black" points="349.5,-58.5 349.5,-79.5 464.5,-79.5 464.5,-58.5 349.5,-58.5"/>
<text text-anchor="middle" x="407" y="-66.5" font-family="Helvetica,sans-Serif" font-size="10.00">gaia/base/HashFunc.h</text>
</a>
</g>
<!-- Node7&#45;&gt;Node10 -->
<g id="edge20" class="edge"><title>Node7&#45;&gt;Node10</title>
<path fill="none" stroke="midnightblue" d="M412.716,-116.362C411.818,-108.922 410.59,-98.7427 409.502,-89.7276"/>
<polygon fill="midnightblue" stroke="midnightblue" points="412.949,-89.0792 408.276,-79.5707 405.999,-89.918 412.949,-89.0792"/>
</g>
<!-- Node8&#45;&gt;Node9 -->
<g id="edge18" class="edge"><title>Node8&#45;&gt;Node9</title>
<path fill="none" stroke="midnightblue" d="M247.576,-58.3619C233.113,-49.532 212.331,-36.844 195.916,-26.8224"/>
<polygon fill="midnightblue" stroke="midnightblue" points="197.673,-23.7943 187.314,-21.5707 194.025,-29.7688 197.673,-23.7943"/>
</g>
<!-- Node10&#45;&gt;Node5 -->
<g id="edge22" class="edge"><title>Node10&#45;&gt;Node5</title>
<path fill="none" stroke="midnightblue" d="M464.547,-59.076C467.402,-58.6882 470.231,-58.3264 473,-58 709.816,-30.0855 995.474,-16.8888 1103.62,-12.6204"/>
<polygon fill="midnightblue" stroke="midnightblue" points="1103.97,-16.1096 1113.83,-12.2235 1103.7,-9.11489 1103.97,-16.1096"/>
</g>
<!-- Node11&#45;&gt;Node5 -->
<g id="edge28" class="edge"><title>Node11&#45;&gt;Node5</title>
<path fill="none" stroke="midnightblue" d="M1579.72,-290.243C1573.81,-269.898 1562,-224.295 1562,-185 1562,-185 1562,-185 1562,-127 1562,-50.8796 1299.21,-22.4203 1192.37,-13.9951"/>
<polygon fill="midnightblue" stroke="midnightblue" points="1192.47,-10.4926 1182.23,-13.2191 1191.94,-17.4721 1192.47,-10.4926"/>
</g>
<!-- Node12&#45;&gt;Node7 -->
<g id="edge62" class="edge"><title>Node12&#45;&gt;Node7</title>
<path fill="none" stroke="midnightblue" d="M898.16,-298.463C775.599,-292.806 504.603,-277.754 470,-254 434.239,-229.452 421.082,-176.636 416.421,-147.441"/>
<polygon fill="midnightblue" stroke="midnightblue" points="419.883,-146.93 415.021,-137.517 412.952,-147.907 419.883,-146.93"/>
</g>
<!-- Node13 -->
<g id="node30" class="node"><title>Node13</title>
<a xlink:href="../../df/d94/_i_focus_change_listener_8h.html" target="_top" xlink:title="gaia/core/vision/IFocusChangeListener.h">
<polygon fill="white" stroke="black" points="642,-232.5 642,-253.5 836,-253.5 836,-232.5 642,-232.5"/>
<text text-anchor="middle" x="739" y="-240.5" font-family="Helvetica,sans-Serif" font-size="10.00">gaia/core/vision/IFocusChangeListener.h</text>
</a>
</g>
<!-- Node12&#45;&gt;Node13 -->
<g id="edge34" class="edge"><title>Node12&#45;&gt;Node13</title>
<path fill="none" stroke="midnightblue" d="M918.341,-290.497C881.942,-280.857 827.874,-266.537 788.625,-256.143"/>
<polygon fill="midnightblue" stroke="midnightblue" points="789.296,-252.7 778.734,-253.523 787.504,-259.467 789.296,-252.7"/>
</g>
<!-- Node14 -->
<g id="node32" class="node"><title>Node14</title>
<a xlink:href="../../d7/dba/_i_hierarchy_change_listener_8h.html" target="_top" xlink:title="gaia/core/vision/IHierarchyChangeListener.h">
<polygon fill="white" stroke="black" points="853.5,-232.5 853.5,-253.5 1062.5,-253.5 1062.5,-232.5 853.5,-232.5"/>
<text text-anchor="middle" x="958" y="-240.5" font-family="Helvetica,sans-Serif" font-size="10.00">gaia/core/vision/IHierarchyChangeListener.h</text>
</a>
</g>
<!-- Node12&#45;&gt;Node14 -->
<g id="edge36" class="edge"><title>Node12&#45;&gt;Node14</title>
<path fill="none" stroke="midnightblue" d="M958,-290.362C958,-282.922 958,-272.743 958,-263.728"/>
<polygon fill="midnightblue" stroke="midnightblue" points="961.5,-263.571 958,-253.571 954.5,-263.571 961.5,-263.571"/>
</g>
<!-- Node15 -->
<g id="node34" class="node"><title>Node15</title>
<a xlink:href="../../db/df1/_absolute_controller_8h.html" target="_top" xlink:title="gaia/ui/AbsoluteController.h">
<polygon fill="white" stroke="black" points="487.5,-232.5 487.5,-253.5 624.5,-253.5 624.5,-232.5 487.5,-232.5"/>
<text text-anchor="middle" x="556" y="-240.5" font-family="Helvetica,sans-Serif" font-size="10.00">gaia/ui/AbsoluteController.h</text>
</a>
</g>
<!-- Node12&#45;&gt;Node15 -->
<g id="edge38" class="edge"><title>Node12&#45;&gt;Node15</title>
<path fill="none" stroke="midnightblue" d="M898.251,-292.379C828.232,-282.277 711.974,-265.504 634.671,-254.351"/>
<polygon fill="midnightblue" stroke="midnightblue" points="634.899,-250.847 624.502,-252.883 633.9,-257.776 634.899,-250.847"/>
</g>
<!-- Node21 -->
<g id="node50" class="node"><title>Node21</title>
<a xlink:href="../../db/d53/_string_array_8h.html" target="_top" xlink:title="gaia/base/StringArray.h">
<polygon fill="white" stroke="black" points="1088.5,-116.5 1088.5,-137.5 1207.5,-137.5 1207.5,-116.5 1088.5,-116.5"/>
<text text-anchor="middle" x="1148" y="-124.5" font-family="Helvetica,sans-Serif" font-size="10.00">gaia/base/StringArray.h</text>
</a>
</g>
<!-- Node12&#45;&gt;Node21 -->
<g id="edge58" class="edge"><title>Node12&#45;&gt;Node21</title>
<path fill="none" stroke="midnightblue" d="M1017.52,-295.564C1098.75,-287.533 1236.04,-271.546 1251,-254 1291.32,-206.703 1209.55,-255.036 1161,-196 1150.02,-182.645 1147.21,-162.907 1146.9,-147.958"/>
<polygon fill="midnightblue" stroke="midnightblue" points="1150.4,-147.695 1147.05,-137.646 1143.4,-147.594 1150.4,-147.695"/>
</g>
<!-- Node22 -->
<g id="node54" class="node"><title>Node22</title>
<a xlink:href="../../dd/d79/_key_event_8h.html" target="_top" xlink:title="gaia/core/event/KeyEvent.h">
<polygon fill="white" stroke="black" points="449.5,-174.5 449.5,-195.5 586.5,-195.5 586.5,-174.5 449.5,-174.5"/>
<text text-anchor="middle" x="518" y="-182.5" font-family="Helvetica,sans-Serif" font-size="10.00">gaia/core/event/KeyEvent.h</text>
</a>
</g>
<!-- Node12&#45;&gt;Node22 -->
<g id="edge64" class="edge"><title>Node12&#45;&gt;Node22</title>
<path fill="none" stroke="midnightblue" d="M898.27,-299.533C776.077,-295.914 506.677,-284.526 479,-254 464.941,-238.494 481.358,-217.054 496.998,-202.207"/>
<polygon fill="midnightblue" stroke="midnightblue" points="499.367,-204.784 504.477,-195.502 494.694,-199.571 499.367,-204.784"/>
</g>
<!-- Node23 -->
<g id="node58" class="node"><title>Node23</title>
<a xlink:href="../../dc/de9/_motion_event_8h.html" target="_top" xlink:title="gaia/core/event/MotionEvent.h">
<polygon fill="white" stroke="black" points="1169.5,-174.5 1169.5,-195.5 1318.5,-195.5 1318.5,-174.5 1169.5,-174.5"/>
<text text-anchor="middle" x="1244" y="-182.5" font-family="Helvetica,sans-Serif" font-size="10.00">gaia/core/event/MotionEvent.h</text>
</a>
</g>
<!-- Node12&#45;&gt;Node23 -->
<g id="edge70" class="edge"><title>Node12&#45;&gt;Node23</title>
<path fill="none" stroke="midnightblue" d="M1017.86,-296.568C1107.21,-289.337 1266.85,-273.801 1284,-254 1297.71,-238.17 1281.26,-216.959 1265.5,-202.252"/>
<polygon fill="midnightblue" stroke="midnightblue" points="1267.77,-199.589 1257.95,-195.607 1263.14,-204.842 1267.77,-199.589"/>
</g>
<!-- Node24 -->
<g id="node61" class="node"><title>Node24</title>
<a xlink:href="../../d9/de8/_controller_params_8h.html" target="_top" xlink:title="gaia/ui/ControllerParams.h">
<polygon fill="white" stroke="black" points="66,-174.5 66,-195.5 198,-195.5 198,-174.5 66,-174.5"/>
<text text-anchor="middle" x="132" y="-182.5" font-family="Helvetica,sans-Serif" font-size="10.00">gaia/ui/ControllerParams.h</text>
</a>
</g>
<!-- Node12&#45;&gt;Node24 -->
<g id="edge74" class="edge"><title>Node12&#45;&gt;Node24</title>
<path fill="none" stroke="midnightblue" d="M898.375,-298.043C767.389,-291.27 458.008,-273.696 355,-254 287.975,-241.184 212.644,-215.376 168.931,-199.211"/>
<polygon fill="midnightblue" stroke="midnightblue" points="169.902,-195.838 159.31,-195.62 167.454,-202.396 169.902,-195.838"/>
</g>
<!-- Node25 -->
<g id="node64" class="node"><title>Node25</title>
<a xlink:href="../../d2/dfb/_configuration_8h.html" target="_top" xlink:title="gaia/content/res/Configuration.h">
<polygon fill="white" stroke="black" points="1262.5,-116.5 1262.5,-137.5 1417.5,-137.5 1417.5,-116.5 1262.5,-116.5"/>
<text text-anchor="middle" x="1340" y="-124.5" font-family="Helvetica,sans-Serif" font-size="10.00">gaia/content/res/Configuration.h</text>
</a>
</g>
<!-- Node12&#45;&gt;Node25 -->
<g id="edge78" class="edge"><title>Node12&#45;&gt;Node25</title>
<path fill="none" stroke="midnightblue" d="M1017.63,-299.555C1103.47,-296.368 1256.36,-286.21 1300,-254 1333.17,-229.52 1339.54,-177.519 1340.35,-148.218"/>
<polygon fill="midnightblue" stroke="midnightblue" points="1343.85,-147.893 1340.43,-137.867 1336.85,-147.84 1343.85,-147.893"/>
</g>
<!-- Node26 -->
<g id="node67" class="node"><title>Node26</title>
<a xlink:href="../../de/dca/_web_view_inner_8h.html" target="_top" xlink:title="gaia/webkit/WebViewInner.h">
<polygon fill="white" stroke="black" points="215.5,-174.5 215.5,-195.5 356.5,-195.5 356.5,-174.5 215.5,-174.5"/>
<text text-anchor="middle" x="286" y="-182.5" font-family="Helvetica,sans-Serif" font-size="10.00">gaia/webkit/WebViewInner.h</text>
</a>
</g>
<!-- Node12&#45;&gt;Node26 -->
<g id="edge82" class="edge"><title>Node12&#45;&gt;Node26</title>
<path fill="none" stroke="midnightblue" d="M898.195,-299.106C775.266,-294.69 498.181,-281.895 408,-254 370.484,-242.396 331.785,-218.001 308.303,-201.554"/>
<polygon fill="midnightblue" stroke="midnightblue" points="310.255,-198.647 300.083,-195.683 306.186,-204.343 310.255,-198.647"/>
</g>
<!-- Node27 -->
<g id="node70" class="node"><title>Node27</title>
<polygon fill="white" stroke="#bfbfbf" points="1079.5,-232.5 1079.5,-253.5 1120.5,-253.5 1120.5,-232.5 1079.5,-232.5"/>
<text text-anchor="middle" x="1100" y="-240.5" font-family="Helvetica,sans-Serif" font-size="10.00">string</text>
</g>
<!-- Node12&#45;&gt;Node27 -->
<g id="edge86" class="edge"><title>Node12&#45;&gt;Node27</title>
<path fill="none" stroke="midnightblue" d="M983.715,-290.497C1007.85,-280.641 1043.95,-265.892 1069.52,-255.449"/>
<polygon fill="midnightblue" stroke="midnightblue" points="1071.16,-258.561 1079.09,-251.539 1068.51,-252.08 1071.16,-258.561"/>
</g>
<!-- Node28 -->
<g id="node72" class="node"><title>Node28</title>
<polygon fill="white" stroke="#bfbfbf" points="1137.5,-232.5 1137.5,-253.5 1172.5,-253.5 1172.5,-232.5 1137.5,-232.5"/>
<text text-anchor="middle" x="1155" y="-240.5" font-family="Helvetica,sans-Serif" font-size="10.00">map</text>
</g>
<!-- Node12&#45;&gt;Node28 -->
<g id="edge88" class="edge"><title>Node12&#45;&gt;Node28</title>
<path fill="none" stroke="midnightblue" d="M1002.78,-290.414C1035.33,-282.335 1080.54,-270.319 1127.49,-254.264"/>
<polygon fill="midnightblue" stroke="midnightblue" points="1128.92,-257.474 1137.22,-250.888 1126.62,-250.861 1128.92,-257.474"/>
</g>
<!-- Node29 -->
<g id="node74" class="node"><title>Node29</title>
<polygon fill="white" stroke="#bfbfbf" points="1190,-232.5 1190,-253.5 1242,-253.5 1242,-232.5 1190,-232.5"/>
<text text-anchor="middle" x="1216" y="-240.5" font-family="Helvetica,sans-Serif" font-size="10.00">memory</text>
</g>
<!-- Node12&#45;&gt;Node29 -->
<g id="edge90" class="edge"><title>Node12&#45;&gt;Node29</title>
<path fill="none" stroke="midnightblue" d="M1015.65,-290.441C1058.59,-282.212 1118.82,-269.911 1179.9,-254.127"/>
<polygon fill="midnightblue" stroke="midnightblue" points="1180.92,-257.479 1189.71,-251.564 1179.15,-250.706 1180.92,-257.479"/>
</g>
<!-- Node16 -->
<g id="node36" class="node"><title>Node16</title>
<a xlink:href="../../d6/d52/_widget_controller_8h.html" target="_top" xlink:title="gaia/core/vision/WidgetController.h">
<polygon fill="white" stroke="black" points="633.5,-174.5 633.5,-195.5 802.5,-195.5 802.5,-174.5 633.5,-174.5"/>
<text text-anchor="middle" x="718" y="-182.5" font-family="Helvetica,sans-Serif" font-size="10.00">gaia/core/vision/WidgetController.h</text>
</a>
</g>
<!-- Node15&#45;&gt;Node16 -->
<g id="edge40" class="edge"><title>Node15&#45;&gt;Node16</title>
<path fill="none" stroke="midnightblue" d="M585.337,-232.497C611.519,-223.123 650.06,-209.324 678.863,-199.012"/>
<polygon fill="midnightblue" stroke="midnightblue" points="680.373,-202.189 688.608,-195.523 678.013,-195.599 680.373,-202.189"/>
</g>
<!-- Node17 -->
<g id="node38" class="node"><title>Node17</title>
<a xlink:href="../../d3/dd0/_event_control_8h.html" target="_top" xlink:title="gaia/core/event/EventControl.h">
<polygon fill="white" stroke="black" points="919,-116.5 919,-137.5 1071,-137.5 1071,-116.5 919,-116.5"/>
<text text-anchor="middle" x="995" y="-124.5" font-family="Helvetica,sans-Serif" font-size="10.00">gaia/core/event/EventControl.h</text>
</a>
</g>
<!-- Node16&#45;&gt;Node17 -->
<g id="edge42" class="edge"><title>Node16&#45;&gt;Node17</title>
<path fill="none" stroke="midnightblue" d="M768.163,-174.497C814.983,-164.693 884.919,-150.05 934.746,-139.616"/>
<polygon fill="midnightblue" stroke="midnightblue" points="935.673,-142.998 944.743,-137.523 934.238,-136.147 935.673,-142.998"/>
</g>
<!-- Node18 -->
<g id="node41" class="node"><title>Node18</title>
<a xlink:href="../../d4/d75/_widget_8h.html" target="_top" xlink:title="gaia/core/vision/Widget.h">
<polygon fill="white" stroke="black" points="654.5,-116.5 654.5,-137.5 781.5,-137.5 781.5,-116.5 654.5,-116.5"/>
<text text-anchor="middle" x="718" y="-124.5" font-family="Helvetica,sans-Serif" font-size="10.00">gaia/core/vision/Widget.h</text>
</a>
</g>
<!-- Node16&#45;&gt;Node18 -->
<g id="edge46" class="edge"><title>Node16&#45;&gt;Node18</title>
<path fill="none" stroke="midnightblue" d="M718,-174.362C718,-166.922 718,-156.743 718,-147.728"/>
<polygon fill="midnightblue" stroke="midnightblue" points="721.5,-147.571 718,-137.571 714.5,-147.571 721.5,-147.571"/>
</g>
<!-- Node17&#45;&gt;Node5 -->
<g id="edge44" class="edge"><title>Node17&#45;&gt;Node5</title>
<path fill="none" stroke="midnightblue" d="M1009.12,-116.295C1035.76,-96.0955 1093.64,-52.2158 1125.63,-27.9632"/>
<polygon fill="midnightblue" stroke="midnightblue" points="1128.06,-30.5099 1133.91,-21.6792 1123.83,-24.9318 1128.06,-30.5099"/>
</g>
<!-- Node18&#45;&gt;Node2 -->
<g id="edge48" class="edge"><title>Node18&#45;&gt;Node2</title>
<path fill="none" stroke="midnightblue" d="M684.86,-116.497C654.897,-107 610.604,-92.9619 577.938,-82.6087"/>
<polygon fill="midnightblue" stroke="midnightblue" points="578.792,-79.208 568.202,-79.5231 576.677,-85.8809 578.792,-79.208"/>
</g>
<!-- Node19 -->
<g id="node44" class="node"><title>Node19</title>
<a xlink:href="../../d0/d92/_property_animatable_8h.html" target="_top" xlink:title="gaia/core/animator/PropertyAnimatable.h">
<polygon fill="white" stroke="black" points="810,-58.5 810,-79.5 1004,-79.5 1004,-58.5 810,-58.5"/>
<text text-anchor="middle" x="907" y="-66.5" font-family="Helvetica,sans-Serif" font-size="10.00">gaia/core/animator/PropertyAnimatable.h</text>
</a>
</g>
<!-- Node18&#45;&gt;Node19 -->
<g id="edge50" class="edge"><title>Node18&#45;&gt;Node19</title>
<path fill="none" stroke="midnightblue" d="M752.226,-116.497C783.305,-106.959 829.312,-92.8408 863.09,-82.475"/>
<polygon fill="midnightblue" stroke="midnightblue" points="864.176,-85.8029 872.709,-79.5231 862.123,-79.1109 864.176,-85.8029"/>
</g>
<!-- Node20 -->
<g id="node47" class="node"><title>Node20</title>
<a xlink:href="../../d8/d50/_widget_core_8h.html" target="_top" xlink:title="gaia/core/vision/WidgetCore.h">
<polygon fill="white" stroke="black" points="644,-58.5 644,-79.5 792,-79.5 792,-58.5 644,-58.5"/>
<text text-anchor="middle" x="718" y="-66.5" font-family="Helvetica,sans-Serif" font-size="10.00">gaia/core/vision/WidgetCore.h</text>
</a>
</g>
<!-- Node18&#45;&gt;Node20 -->
<g id="edge54" class="edge"><title>Node18&#45;&gt;Node20</title>
<path fill="none" stroke="midnightblue" d="M718,-116.362C718,-108.922 718,-98.7427 718,-89.7276"/>
<polygon fill="midnightblue" stroke="midnightblue" points="721.5,-89.5706 718,-79.5707 714.5,-89.5707 721.5,-89.5706"/>
</g>
<!-- Node19&#45;&gt;Node5 -->
<g id="edge52" class="edge"><title>Node19&#45;&gt;Node5</title>
<path fill="none" stroke="midnightblue" d="M950.643,-58.4966C994.059,-48.0482 1060.32,-32.1018 1103.89,-21.6145"/>
<polygon fill="midnightblue" stroke="midnightblue" points="1104.74,-25.0111 1113.64,-19.2683 1103.1,-18.2054 1104.74,-25.0111"/>
</g>
<!-- Node20&#45;&gt;Node9 -->
<g id="edge56" class="edge"><title>Node20&#45;&gt;Node9</title>
<path fill="none" stroke="midnightblue" d="M643.809,-61.1477C523.955,-48.4624 292.322,-23.9465 204.71,-14.6736"/>
<polygon fill="midnightblue" stroke="midnightblue" points="204.83,-11.1669 194.517,-13.5949 204.093,-18.128 204.83,-11.1669"/>
</g>
<!-- Node21&#45;&gt;Node5 -->
<g id="edge60" class="edge"><title>Node21&#45;&gt;Node5</title>
<path fill="none" stroke="midnightblue" d="M1148,-116.295C1148,-97.1314 1148,-56.654 1148,-31.8434"/>
<polygon fill="midnightblue" stroke="midnightblue" points="1151.5,-31.6792 1148,-21.6792 1144.5,-31.6792 1151.5,-31.6792"/>
</g>
<!-- Node22&#45;&gt;Node5 -->
<g id="edge68" class="edge"><title>Node22&#45;&gt;Node5</title>
<path fill="none" stroke="midnightblue" d="M586.569,-177.895C684.122,-166.146 867.296,-137.968 1013,-80 1031.85,-72.4998 1035.01,-67.3896 1053,-58 1074.11,-46.9774 1098.16,-35.0858 1116.78,-26.0218"/>
<polygon fill="midnightblue" stroke="midnightblue" points="1118.51,-29.0736 1125.98,-21.5593 1115.45,-22.7758 1118.51,-29.0736"/>
</g>
<!-- Node22&#45;&gt;Node7 -->
<g id="edge66" class="edge"><title>Node22&#45;&gt;Node7</title>
<path fill="none" stroke="midnightblue" d="M498.925,-174.362C482.945,-165.45 459.919,-152.609 441.873,-142.545"/>
<polygon fill="midnightblue" stroke="midnightblue" points="443.393,-139.385 432.954,-137.571 439.983,-145.498 443.393,-139.385"/>
</g>
<!-- Node23&#45;&gt;Node5 -->
<g id="edge72" class="edge"><title>Node23&#45;&gt;Node5</title>
<path fill="none" stroke="midnightblue" d="M1240.42,-174.438C1235.59,-160.658 1226.39,-135.952 1216,-116 1199.57,-84.4541 1176.34,-50.2997 1161.72,-29.7836"/>
<polygon fill="midnightblue" stroke="midnightblue" points="1164.53,-27.6976 1155.85,-21.6242 1158.85,-31.7857 1164.53,-27.6976"/>
</g>
<!-- Node24&#45;&gt;Node9 -->
<g id="edge76" class="edge"><title>Node24&#45;&gt;Node9</title>
<path fill="none" stroke="midnightblue" d="M133.627,-174.384C137.069,-152.479 145.625,-100.739 156,-58 158.123,-49.2557 160.879,-39.7208 163.384,-31.5385"/>
<polygon fill="midnightblue" stroke="midnightblue" points="166.803,-32.3306 166.457,-21.7414 160.124,-30.2352 166.803,-32.3306"/>
</g>
<!-- Node25&#45;&gt;Node5 -->
<g id="edge80" class="edge"><title>Node25&#45;&gt;Node5</title>
<path fill="none" stroke="midnightblue" d="M1327.65,-116.271C1310.69,-101.866 1278.89,-76.005 1249,-58 1228.21,-45.4793 1203.54,-33.9418 1183.79,-25.4314"/>
<polygon fill="midnightblue" stroke="midnightblue" points="1185.09,-22.1845 1174.52,-21.5056 1182.36,-28.6298 1185.09,-22.1845"/>
</g>
<!-- Node26&#45;&gt;Node9 -->
<g id="edge84" class="edge"><title>Node26&#45;&gt;Node9</title>
<path fill="none" stroke="midnightblue" d="M272.561,-174.227C251.588,-156.695 211.183,-119.914 189,-80 180.713,-65.0889 175.85,-46.3251 173.122,-32.1301"/>
<polygon fill="midnightblue" stroke="midnightblue" points="176.505,-31.1518 171.367,-21.8864 169.606,-32.3338 176.505,-31.1518"/>
</g>
</g>
</svg>
