<?xml version="1.0" encoding="UTF-8" standalone="no"?>
<!DOCTYPE svg PUBLIC "-//W3C//DTD SVG 1.1//EN"
 "http://www.w3.org/Graphics/SVG/1.1/DTD/svg11.dtd">
<!-- Generated by graphviz version 2.26.3 (20100126.1600)
 -->
<!-- Title: G Pages: 1 -->
<svg width="390pt" height="146pt"
 viewBox="0.00 0.00 390.00 146.00" xmlns="http://www.w3.org/2000/svg" xmlns:xlink="http://www.w3.org/1999/xlink">
<g id="graph1" class="graph" transform="scale(1 1) rotate(0) translate(4 142)">
<title>G</title>
<polygon fill="white" stroke="white" points="-4,5 -4,-142 387,-142 387,5 -4,5"/>
<!-- Node1 -->
<g id="node1" class="node"><title>Node1</title>
<polygon fill="#bfbfbf" stroke="black" points="0,-116.5 0,-137.5 382,-137.5 382,-116.5 0,-116.5"/>
<text text-anchor="middle" x="191" y="-124.5" font-family="Helvetica,sans-Serif" font-size="10.00">/home/vilon_tao/gaia/sdk/include/gaia/ui/preference/IOnPreferenceChangeListener.h</text>
</g>
<!-- Node2 -->
<g id="node3" class="node"><title>Node2</title>
<a xlink:href="../../d4/dd7/_preference_8h.html" target="_top" xlink:title="gaia/ui/preference/Preference.h">
<polygon fill="white" stroke="black" points="115,-58.5 115,-79.5 267,-79.5 267,-58.5 115,-58.5"/>
<text text-anchor="middle" x="191" y="-66.5" font-family="Helvetica,sans-Serif" font-size="10.00">gaia/ui/preference/Preference.h</text>
</a>
</g>
<!-- Node1&#45;&gt;Node2 -->
<g id="edge2" class="edge"><title>Node1&#45;&gt;Node2</title>
<path fill="none" stroke="midnightblue" d="M191,-116.362C191,-108.922 191,-98.7427 191,-89.7276"/>
<polygon fill="midnightblue" stroke="midnightblue" points="194.5,-89.5706 191,-79.5707 187.5,-89.5707 194.5,-89.5706"/>
</g>
<!-- Node3 -->
<g id="node5" class="node"><title>Node3</title>
<polygon fill="white" stroke="#bfbfbf" points="119.5,-0.5 119.5,-21.5 168.5,-21.5 168.5,-0.5 119.5,-0.5"/>
<text text-anchor="middle" x="144" y="-8.5" font-family="Helvetica,sans-Serif" font-size="10.00">stdint.h</text>
</g>
<!-- Node2&#45;&gt;Node3 -->
<g id="edge4" class="edge"><title>Node2&#45;&gt;Node3</title>
<path fill="none" stroke="midnightblue" d="M182.379,-58.3619C175.82,-50.2678 166.634,-38.9318 158.894,-29.3796"/>
<polygon fill="midnightblue" stroke="midnightblue" points="161.581,-27.1364 152.566,-21.5707 156.142,-31.5436 161.581,-27.1364"/>
</g>
<!-- Node4 -->
<g id="node7" class="node"><title>Node4</title>
<a xlink:href="../../d1/dd0/gmacros_8h.html" target="_top" xlink:title="gaia/base/gmacros.h">
<polygon fill="white" stroke="black" points="185.5,-0.5 185.5,-21.5 292.5,-21.5 292.5,-0.5 185.5,-0.5"/>
<text text-anchor="middle" x="239" y="-8.5" font-family="Helvetica,sans-Serif" font-size="10.00">gaia/base/gmacros.h</text>
</a>
</g>
<!-- Node2&#45;&gt;Node4 -->
<g id="edge6" class="edge"><title>Node2&#45;&gt;Node4</title>
<path fill="none" stroke="midnightblue" d="M199.804,-58.3619C206.502,-50.2678 215.884,-38.9318 223.789,-29.3796"/>
<polygon fill="midnightblue" stroke="midnightblue" points="226.573,-31.5061 230.252,-21.5707 221.18,-27.0431 226.573,-31.5061"/>
</g>
</g>
</svg>
