<?xml version="1.0" encoding="UTF-8" standalone="no"?>
<!DOCTYPE svg PUBLIC "-//W3C//DTD SVG 1.1//EN"
 "http://www.w3.org/Graphics/SVG/1.1/DTD/svg11.dtd">
<!-- Generated by graphviz version 2.26.3 (20100126.1600)
 -->
<!-- Title: G Pages: 1 -->
<svg width="258pt" height="88pt"
 viewBox="0.00 0.00 258.00 88.00" xmlns="http://www.w3.org/2000/svg" xmlns:xlink="http://www.w3.org/1999/xlink">
<g id="graph1" class="graph" transform="scale(1 1) rotate(0) translate(4 84)">
<title>G</title>
<polygon fill="white" stroke="white" points="-4,5 -4,-84 255,-84 255,5 -4,5"/>
<!-- Node1 -->
<g id="node1" class="node"><title>Node1</title>
<polygon fill="#bfbfbf" stroke="black" points="65,-58.5 65,-79.5 161,-79.5 161,-58.5 65,-58.5"/>
<text text-anchor="middle" x="113" y="-66.5" font-family="Helvetica,sans-Serif" font-size="10.00">gaia::core::IBinder</text>
</g>
<!-- Node2 -->
<g id="node3" class="node"><title>Node2</title>
<a xlink:href="../../df/ded/classgaia_1_1core_1_1_binder.html" target="_top" xlink:title="Base class for a remotable object, the core part of a lightweight remote procedure call mechanism def...">
<polygon fill="white" stroke="black" points="-0.5,-0.5 -0.5,-21.5 92.5,-21.5 92.5,-0.5 -0.5,-0.5"/>
<text text-anchor="middle" x="46" y="-8.5" font-family="Helvetica,sans-Serif" font-size="10.00">gaia::core::Binder</text>
</a>
</g>
<!-- Node1&#45;&gt;Node2 -->
<g id="edge2" class="edge"><title>Node1&#45;&gt;Node2</title>
<path fill="none" stroke="midnightblue" d="M93.0048,-51.6908C81.6944,-41.8996 67.917,-29.973 58.2109,-21.5707"/>
<polygon fill="midnightblue" stroke="midnightblue" points="90.8598,-54.4631 100.711,-58.3619 95.4413,-49.1706 90.8598,-54.4631"/>
</g>
<!-- Node3 -->
<g id="node5" class="node"><title>Node3</title>
<a xlink:href="../../d5/de4/classgaia_1_1core_1_1_binder_s_d_k_proxy.html" target="_top" xlink:title="Base class for a remotable object, this class is an implementation of Binder Proxy side that provides...">
<polygon fill="white" stroke="black" points="110,-0.5 110,-21.5 250,-21.5 250,-0.5 110,-0.5"/>
<text text-anchor="middle" x="180" y="-8.5" font-family="Helvetica,sans-Serif" font-size="10.00">gaia::core::BinderSDKProxy</text>
</a>
</g>
<!-- Node1&#45;&gt;Node3 -->
<g id="edge4" class="edge"><title>Node1&#45;&gt;Node3</title>
<path fill="none" stroke="midnightblue" d="M132.995,-51.6908C144.306,-41.8996 158.083,-29.973 167.789,-21.5707"/>
<polygon fill="midnightblue" stroke="midnightblue" points="130.559,-49.1706 125.289,-58.3619 135.14,-54.4631 130.559,-49.1706"/>
</g>
</g>
</svg>
