<?xml version="1.0" encoding="UTF-8" standalone="no"?>
<!DOCTYPE svg PUBLIC "-//W3C//DTD SVG 1.1//EN"
 "http://www.w3.org/Graphics/SVG/1.1/DTD/svg11.dtd">
<!-- Generated by graphviz version 2.26.3 (20100126.1600)
 -->
<!-- Title: G Pages: 1 -->
<svg width="1169pt" height="262pt"
 viewBox="0.00 0.00 1169.00 262.00" xmlns="http://www.w3.org/2000/svg" xmlns:xlink="http://www.w3.org/1999/xlink">
<g id="graph1" class="graph" transform="scale(1 1) rotate(0) translate(4 258)">
<title>G</title>
<polygon fill="white" stroke="white" points="-4,5 -4,-258 1166,-258 1166,5 -4,5"/>
<!-- Node1 -->
<g id="node1" class="node"><title>Node1</title>
<polygon fill="#bfbfbf" stroke="black" points="641.5,-232.5 641.5,-253.5 890.5,-253.5 890.5,-232.5 641.5,-232.5"/>
<text text-anchor="middle" x="766" y="-240.5" font-family="Helvetica,sans-Serif" font-size="10.00">/home/vilon_tao/gaia/sdk/include/gaia/text/Spanned.h</text>
</g>
<!-- Node2 -->
<g id="node3" class="node"><title>Node2</title>
<a xlink:href="../../d7/d1c/_spannable_8h.html" target="_top" xlink:title="/home/vilon_tao/gaia/sdk/include/gaia/text/Spannable.h">
<polygon fill="white" stroke="black" points="496.5,-174.5 496.5,-195.5 753.5,-195.5 753.5,-174.5 496.5,-174.5"/>
<text text-anchor="middle" x="625" y="-182.5" font-family="Helvetica,sans-Serif" font-size="10.00">/home/vilon_tao/gaia/sdk/include/gaia/text/Spannable.h</text>
</a>
</g>
<!-- Node1&#45;&gt;Node2 -->
<g id="edge2" class="edge"><title>Node1&#45;&gt;Node2</title>
<path fill="none" stroke="midnightblue" d="M731.03,-228.615C706.17,-218.389 673.328,-204.88 650.821,-195.621"/>
<polygon fill="midnightblue" stroke="midnightblue" points="729.886,-231.929 740.466,-232.497 732.549,-225.456 729.886,-231.929"/>
</g>
<!-- Node10 -->
<g id="node20" class="node"><title>Node10</title>
<a xlink:href="../../d4/d09/_spanned_string_8h.html" target="_top" xlink:title="/home/vilon_tao/gaia/sdk/include/gaia/text/SpannedString.h">
<polygon fill="white" stroke="black" points="770.5,-174.5 770.5,-195.5 1045.5,-195.5 1045.5,-174.5 770.5,-174.5"/>
<text text-anchor="middle" x="908" y="-182.5" font-family="Helvetica,sans-Serif" font-size="10.00">/home/vilon_tao/gaia/sdk/include/gaia/text/SpannedString.h</text>
</a>
</g>
<!-- Node1&#45;&gt;Node10 -->
<g id="edge20" class="edge"><title>Node1&#45;&gt;Node10</title>
<path fill="none" stroke="midnightblue" d="M801.218,-228.615C826.255,-218.389 859.329,-204.88 881.996,-195.621"/>
<polygon fill="midnightblue" stroke="midnightblue" points="799.649,-225.475 791.715,-232.497 802.296,-231.955 799.649,-225.475"/>
</g>
<!-- Node3 -->
<g id="node5" class="node"><title>Node3</title>
<a xlink:href="../../d6/dc5/_editable_8h.html" target="_top" xlink:title="/home/vilon_tao/gaia/sdk/include/gaia/text/Editable.h">
<polygon fill="white" stroke="black" points="502,-116.5 502,-137.5 748,-137.5 748,-116.5 502,-116.5"/>
<text text-anchor="middle" x="625" y="-124.5" font-family="Helvetica,sans-Serif" font-size="10.00">/home/vilon_tao/gaia/sdk/include/gaia/text/Editable.h</text>
</a>
</g>
<!-- Node2&#45;&gt;Node3 -->
<g id="edge4" class="edge"><title>Node2&#45;&gt;Node3</title>
<path fill="none" stroke="midnightblue" d="M625,-164.191C625,-155.168 625,-144.994 625,-137.571"/>
<polygon fill="midnightblue" stroke="midnightblue" points="621.5,-164.362 625,-174.362 628.5,-164.362 621.5,-164.362"/>
</g>
<!-- Node4 -->
<g id="node7" class="node"><title>Node4</title>
<a xlink:href="../../d9/dc2/_number_key_listener_8h.html" target="_top" xlink:title="/home/vilon_tao/gaia/sdk/include/gaia/text/method/NumberKeyListener.h">
<polygon fill="white" stroke="black" points="165,-58.5 165,-79.5 497,-79.5 497,-58.5 165,-58.5"/>
<text text-anchor="middle" x="331" y="-66.5" font-family="Helvetica,sans-Serif" font-size="10.00">/home/vilon_tao/gaia/sdk/include/gaia/text/method/NumberKeyListener.h</text>
</a>
</g>
<!-- Node2&#45;&gt;Node4 -->
<g id="edge16" class="edge"><title>Node2&#45;&gt;Node4</title>
<path fill="none" stroke="midnightblue" d="M584.002,-171.12C557.822,-162.08 523.239,-149.811 493,-138 443.169,-118.537 385.764,-93.4398 354.426,-79.5065"/>
<polygon fill="midnightblue" stroke="midnightblue" points="583.003,-174.478 593.598,-174.419 585.279,-167.858 583.003,-174.478"/>
</g>
<!-- Node9 -->
<g id="node18" class="node"><title>Node9</title>
<a xlink:href="../../d6/d01/_spannable_string_8h.html" target="_top" xlink:title="/home/vilon_tao/gaia/sdk/include/gaia/text/SpannableString.h">
<polygon fill="white" stroke="black" points="766,-116.5 766,-137.5 1048,-137.5 1048,-116.5 766,-116.5"/>
<text text-anchor="middle" x="907" y="-124.5" font-family="Helvetica,sans-Serif" font-size="10.00">/home/vilon_tao/gaia/sdk/include/gaia/text/SpannableString.h</text>
</a>
</g>
<!-- Node2&#45;&gt;Node9 -->
<g id="edge18" class="edge"><title>Node2&#45;&gt;Node9</title>
<path fill="none" stroke="midnightblue" d="M685.923,-172.47C736.642,-162.038 808.04,-147.354 855.836,-137.523"/>
<polygon fill="midnightblue" stroke="midnightblue" points="685.158,-169.054 676.068,-174.497 686.568,-175.91 685.158,-169.054"/>
</g>
<!-- Node3&#45;&gt;Node4 -->
<g id="edge6" class="edge"><title>Node3&#45;&gt;Node4</title>
<path fill="none" stroke="midnightblue" d="M561.815,-114.535C508.918,-104.099 434.275,-89.374 384.341,-79.5231"/>
<polygon fill="midnightblue" stroke="midnightblue" points="561.27,-117.995 571.759,-116.497 562.625,-111.127 561.27,-117.995"/>
</g>
<!-- Node7 -->
<g id="node13" class="node"><title>Node7</title>
<a xlink:href="../../dc/d40/_text_key_listener_8h.html" target="_top" xlink:title="/home/vilon_tao/gaia/sdk/include/gaia/text/method/TextKeyListener.h">
<polygon fill="white" stroke="black" points="514.5,-58.5 514.5,-79.5 831.5,-79.5 831.5,-58.5 514.5,-58.5"/>
<text text-anchor="middle" x="673" y="-66.5" font-family="Helvetica,sans-Serif" font-size="10.00">/home/vilon_tao/gaia/sdk/include/gaia/text/method/TextKeyListener.h</text>
</a>
</g>
<!-- Node3&#45;&gt;Node7 -->
<g id="edge12" class="edge"><title>Node3&#45;&gt;Node7</title>
<path fill="none" stroke="midnightblue" d="M640.277,-108.541C648.19,-98.9786 657.568,-87.6467 664.252,-79.5707"/>
<polygon fill="midnightblue" stroke="midnightblue" points="637.483,-106.426 633.804,-116.362 642.876,-110.889 637.483,-106.426"/>
</g>
<!-- Node8 -->
<g id="node15" class="node"><title>Node8</title>
<a xlink:href="../../d7/de1/_spannable_string_builder_8h.html" target="_top" xlink:title="/home/vilon_tao/gaia/sdk/include/gaia/text/SpannableStringBuilder.h">
<polygon fill="white" stroke="black" points="849,-58.5 849,-79.5 1161,-79.5 1161,-58.5 849,-58.5"/>
<text text-anchor="middle" x="1005" y="-66.5" font-family="Helvetica,sans-Serif" font-size="10.00">/home/vilon_tao/gaia/sdk/include/gaia/text/SpannableStringBuilder.h</text>
</a>
</g>
<!-- Node3&#45;&gt;Node8 -->
<g id="edge14" class="edge"><title>Node3&#45;&gt;Node8</title>
<path fill="none" stroke="midnightblue" d="M703.701,-114.988C772.224,-104.529 870.576,-89.5174 936.056,-79.5231"/>
<polygon fill="midnightblue" stroke="midnightblue" points="703.173,-111.528 693.815,-116.497 704.229,-118.448 703.173,-111.528"/>
</g>
<!-- Node5 -->
<g id="node9" class="node"><title>Node5</title>
<a xlink:href="../../d1/dd7/_dialer_key_listener_8h.html" target="_top" xlink:title="/home/vilon_tao/gaia/sdk/include/gaia/text/method/DialerKeyListener.h">
<polygon fill="white" stroke="black" points="-0.5,-0.5 -0.5,-21.5 322.5,-21.5 322.5,-0.5 -0.5,-0.5"/>
<text text-anchor="middle" x="161" y="-8.5" font-family="Helvetica,sans-Serif" font-size="10.00">/home/vilon_tao/gaia/sdk/include/gaia/text/method/DialerKeyListener.h</text>
</a>
</g>
<!-- Node4&#45;&gt;Node5 -->
<g id="edge8" class="edge"><title>Node4&#45;&gt;Node5</title>
<path fill="none" stroke="midnightblue" d="M290.388,-55.1443C260.136,-44.8229 219.456,-30.9439 191.843,-21.5231"/>
<polygon fill="midnightblue" stroke="midnightblue" points="289.62,-58.5801 300.214,-58.4966 291.88,-51.955 289.62,-58.5801"/>
</g>
<!-- Node6 -->
<g id="node11" class="node"><title>Node6</title>
<a xlink:href="../../dc/da7/_digits_key_listener_8h.html" target="_top" xlink:title="/home/vilon_tao/gaia/sdk/include/gaia/text/method/DigitsKeyListener.h">
<polygon fill="white" stroke="black" points="339.5,-0.5 339.5,-21.5 662.5,-21.5 662.5,-0.5 339.5,-0.5"/>
<text text-anchor="middle" x="501" y="-8.5" font-family="Helvetica,sans-Serif" font-size="10.00">/home/vilon_tao/gaia/sdk/include/gaia/text/method/DigitsKeyListener.h</text>
</a>
</g>
<!-- Node4&#45;&gt;Node6 -->
<g id="edge10" class="edge"><title>Node4&#45;&gt;Node6</title>
<path fill="none" stroke="midnightblue" d="M371.612,-55.1443C401.864,-44.8229 442.544,-30.9439 470.157,-21.5231"/>
<polygon fill="midnightblue" stroke="midnightblue" points="370.12,-51.955 361.786,-58.4966 372.38,-58.5801 370.12,-51.955"/>
</g>
</g>
</svg>
