<?xml version="1.0" encoding="UTF-8" standalone="no"?>
<!DOCTYPE svg PUBLIC "-//W3C//DTD SVG 1.1//EN"
 "http://www.w3.org/Graphics/SVG/1.1/DTD/svg11.dtd">
<!-- Generated by graphviz version 2.26.3 (20100126.1600)
 -->
<!-- Title: G Pages: 1 -->
<svg width="847pt" height="204pt"
 viewBox="0.00 0.00 847.00 204.00" xmlns="http://www.w3.org/2000/svg" xmlns:xlink="http://www.w3.org/1999/xlink">
<g id="graph1" class="graph" transform="scale(1 1) rotate(0) translate(4 200)">
<title>G</title>
<polygon fill="white" stroke="white" points="-4,5 -4,-200 844,-200 844,5 -4,5"/>
<!-- Node1 -->
<g id="node1" class="node"><title>Node1</title>
<polygon fill="#bfbfbf" stroke="black" points="417,-174.5 417,-195.5 659,-195.5 659,-174.5 417,-174.5"/>
<text text-anchor="middle" x="538" y="-182.5" font-family="Helvetica,sans-Serif" font-size="10.00">/home/vilon_tao/gaia/sdk/include/gaia/base/gloger.h</text>
</g>
<!-- Node2 -->
<g id="node3" class="node"><title>Node2</title>
<a xlink:href="../../db/d4c/_lru_cache_8h.html" target="_top" xlink:title="/home/vilon_tao/gaia/sdk/include/gaia/base/LruCache.h">
<polygon fill="white" stroke="black" points="-0.5,-116.5 -0.5,-137.5 256.5,-137.5 256.5,-116.5 -0.5,-116.5"/>
<text text-anchor="middle" x="128" y="-124.5" font-family="Helvetica,sans-Serif" font-size="10.00">/home/vilon_tao/gaia/sdk/include/gaia/base/LruCache.h</text>
</a>
</g>
<!-- Node1&#45;&gt;Node2 -->
<g id="edge2" class="edge"><title>Node1&#45;&gt;Node2</title>
<path fill="none" stroke="midnightblue" d="M453.54,-173.052C379.589,-162.591 273.181,-147.538 202.387,-137.523"/>
<polygon fill="midnightblue" stroke="midnightblue" points="453.36,-176.561 463.752,-174.497 454.341,-169.63 453.36,-176.561"/>
</g>
<!-- Node3 -->
<g id="node5" class="node"><title>Node3</title>
<a xlink:href="../../d0/d54/_instrumentation_test_case_8h.html" target="_top" xlink:title="/home/vilon_tao/gaia/sdk/include/gaia/testing/InstrumentationTestCase.h">
<polygon fill="white" stroke="black" points="274,-116.5 274,-137.5 608,-137.5 608,-116.5 274,-116.5"/>
<text text-anchor="middle" x="441" y="-124.5" font-family="Helvetica,sans-Serif" font-size="10.00">/home/vilon_tao/gaia/sdk/include/gaia/testing/InstrumentationTestCase.h</text>
</a>
</g>
<!-- Node1&#45;&gt;Node3 -->
<g id="edge4" class="edge"><title>Node1&#45;&gt;Node3</title>
<path fill="none" stroke="midnightblue" d="M511.41,-169.101C494.627,-159.066 473.413,-146.381 458.679,-137.571"/>
<polygon fill="midnightblue" stroke="midnightblue" points="509.83,-172.234 520.209,-174.362 513.422,-166.226 509.83,-172.234"/>
</g>
<!-- Node5 -->
<g id="node9" class="node"><title>Node5</title>
<a xlink:href="../../d2/d74/_page_instrumentation_test_case_8h.html" target="_top" xlink:title="/home/vilon_tao/gaia/sdk/include/gaia/testing/PageInstrumentationTestCase.h">
<polygon fill="white" stroke="black" points="483,-0.5 483,-21.5 839,-21.5 839,-0.5 483,-0.5"/>
<text text-anchor="middle" x="661" y="-8.5" font-family="Helvetica,sans-Serif" font-size="10.00">/home/vilon_tao/gaia/sdk/include/gaia/testing/PageInstrumentationTestCase.h</text>
</a>
</g>
<!-- Node1&#45;&gt;Node5 -->
<g id="edge14" class="edge"><title>Node1&#45;&gt;Node5</title>
<path fill="none" stroke="midnightblue" d="M597.114,-171.61C644.069,-157.497 706.566,-130.117 736,-80 750.695,-54.9795 715.782,-33.6989 688.79,-21.6349"/>
<polygon fill="midnightblue" stroke="midnightblue" points="595.988,-168.292 587.348,-174.424 597.926,-175.019 595.988,-168.292"/>
</g>
<!-- Node7 -->
<g id="node13" class="node"><title>Node7</title>
<a xlink:href="../../d2/dc6/_single_launch_page_test_case_8h.html" target="_top" xlink:title="/home/vilon_tao/gaia/sdk/include/gaia/testing/SingleLaunchPageTestCase.h">
<polygon fill="white" stroke="black" points="380.5,-58.5 380.5,-79.5 727.5,-79.5 727.5,-58.5 380.5,-58.5"/>
<text text-anchor="middle" x="554" y="-66.5" font-family="Helvetica,sans-Serif" font-size="10.00">/home/vilon_tao/gaia/sdk/include/gaia/testing/SingleLaunchPageTestCase.h</text>
</a>
</g>
<!-- Node1&#45;&gt;Node7 -->
<g id="edge16" class="edge"><title>Node1&#45;&gt;Node7</title>
<path fill="none" stroke="midnightblue" d="M580.068,-170.091C594.398,-162.761 608.846,-152.339 617,-138 630.391,-114.452 599.501,-92.2634 576.404,-79.6818"/>
<polygon fill="midnightblue" stroke="midnightblue" points="578.301,-167.054 570.736,-174.472 581.275,-173.391 578.301,-167.054"/>
</g>
<!-- Node4 -->
<g id="node7" class="node"><title>Node4</title>
<a xlink:href="../../d5/db9/_page_test_case_8h.html" target="_top" xlink:title="/home/vilon_tao/gaia/sdk/include/gaia/testing/PageTestCase.h">
<polygon fill="white" stroke="black" points="74.5,-58.5 74.5,-79.5 363.5,-79.5 363.5,-58.5 74.5,-58.5"/>
<text text-anchor="middle" x="219" y="-66.5" font-family="Helvetica,sans-Serif" font-size="10.00">/home/vilon_tao/gaia/sdk/include/gaia/testing/PageTestCase.h</text>
</a>
</g>
<!-- Node3&#45;&gt;Node4 -->
<g id="edge6" class="edge"><title>Node3&#45;&gt;Node4</title>
<path fill="none" stroke="midnightblue" d="M391.03,-113.945C351.243,-103.55 296.278,-89.1897 259.278,-79.5231"/>
<polygon fill="midnightblue" stroke="midnightblue" points="390.237,-117.355 400.797,-116.497 392.007,-110.582 390.237,-117.355"/>
</g>
<!-- Node3&#45;&gt;Node7 -->
<g id="edge12" class="edge"><title>Node3&#45;&gt;Node7</title>
<path fill="none" stroke="midnightblue" d="M470.625,-111.794C490.341,-101.675 515.748,-88.6338 533.307,-79.6212"/>
<polygon fill="midnightblue" stroke="midnightblue" points="468.762,-108.816 461.463,-116.497 471.958,-115.044 468.762,-108.816"/>
</g>
<!-- Node4&#45;&gt;Node5 -->
<g id="edge8" class="edge"><title>Node4&#45;&gt;Node5</title>
<path fill="none" stroke="midnightblue" d="M309.076,-57.1801C388.836,-46.7138 504.175,-31.5788 580.807,-21.5231"/>
<polygon fill="midnightblue" stroke="midnightblue" points="308.502,-53.7252 299.043,-58.4966 309.413,-60.6657 308.502,-53.7252"/>
</g>
<!-- Node6 -->
<g id="node11" class="node"><title>Node6</title>
<a xlink:href="../../db/deb/_page_unit_test_case_8h.html" target="_top" xlink:title="/home/vilon_tao/gaia/sdk/include/gaia/testing/PageUnitTestCase.h">
<polygon fill="white" stroke="black" points="65.5,-0.5 65.5,-21.5 372.5,-21.5 372.5,-0.5 65.5,-0.5"/>
<text text-anchor="middle" x="219" y="-8.5" font-family="Helvetica,sans-Serif" font-size="10.00">/home/vilon_tao/gaia/sdk/include/gaia/testing/PageUnitTestCase.h</text>
</a>
</g>
<!-- Node4&#45;&gt;Node6 -->
<g id="edge10" class="edge"><title>Node4&#45;&gt;Node6</title>
<path fill="none" stroke="midnightblue" d="M219,-48.1906C219,-39.1684 219,-28.9941 219,-21.5707"/>
<polygon fill="midnightblue" stroke="midnightblue" points="215.5,-48.3619 219,-58.3619 222.5,-48.3619 215.5,-48.3619"/>
</g>
</g>
</svg>
