<?xml version="1.0" encoding="UTF-8" standalone="no"?>
<!DOCTYPE svg PUBLIC "-//W3C//DTD SVG 1.1//EN"
 "http://www.w3.org/Graphics/SVG/1.1/DTD/svg11.dtd">
<!-- Generated by graphviz version 2.26.3 (20100126.1600)
 -->
<!-- Title: G Pages: 1 -->
<svg width="3627pt" height="320pt"
 viewBox="0.00 0.00 3627.00 320.00" xmlns="http://www.w3.org/2000/svg" xmlns:xlink="http://www.w3.org/1999/xlink">
<g id="graph1" class="graph" transform="scale(1 1) rotate(0) translate(4 316)">
<title>G</title>
<polygon fill="white" stroke="white" points="-4,5 -4,-316 3624,-316 3624,5 -4,5"/>
<!-- Node1 -->
<g id="node1" class="node"><title>Node1</title>
<polygon fill="#bfbfbf" stroke="black" points="1921,-290.5 1921,-311.5 2207,-311.5 2207,-290.5 1921,-290.5"/>
<text text-anchor="middle" x="2064" y="-298.5" font-family="Helvetica,sans-Serif" font-size="10.00">/home/vilon_tao/gaia/sdk/include/gaia/text/style/ObjectStyle.h</text>
</g>
<!-- Node2 -->
<g id="node3" class="node"><title>Node2</title>
<a xlink:href="../../d7/dc2/_spanned_8h.html" target="_top" xlink:title="/home/vilon_tao/gaia/sdk/include/gaia/text/Spanned.h">
<polygon fill="white" stroke="black" points="783.5,-232.5 783.5,-253.5 1032.5,-253.5 1032.5,-232.5 783.5,-232.5"/>
<text text-anchor="middle" x="908" y="-240.5" font-family="Helvetica,sans-Serif" font-size="10.00">/home/vilon_tao/gaia/sdk/include/gaia/text/Spanned.h</text>
</a>
</g>
<!-- Node1&#45;&gt;Node2 -->
<g id="edge2" class="edge"><title>Node1&#45;&gt;Node2</title>
<path fill="none" stroke="midnightblue" d="M1910.63,-293.305C1679.41,-281.704 1246.02,-259.959 1032.86,-249.265"/>
<polygon fill="midnightblue" stroke="midnightblue" points="1910.64,-296.81 1920.8,-293.815 1910.99,-289.819 1910.64,-296.81"/>
</g>
<!-- Node12 -->
<g id="node24" class="node"><title>Node12</title>
<a xlink:href="../../d5/dc5/_character_style_8h.html" target="_top" xlink:title="/home/vilon_tao/gaia/sdk/include/gaia/text/style/CharacterStyle.h">
<polygon fill="white" stroke="black" points="1914,-232.5 1914,-253.5 2214,-253.5 2214,-232.5 1914,-232.5"/>
<text text-anchor="middle" x="2064" y="-240.5" font-family="Helvetica,sans-Serif" font-size="10.00">/home/vilon_tao/gaia/sdk/include/gaia/text/style/CharacterStyle.h</text>
</a>
</g>
<!-- Node1&#45;&gt;Node12 -->
<g id="edge24" class="edge"><title>Node1&#45;&gt;Node12</title>
<path fill="none" stroke="midnightblue" d="M2064,-280.191C2064,-271.168 2064,-260.994 2064,-253.571"/>
<polygon fill="midnightblue" stroke="midnightblue" points="2060.5,-280.362 2064,-290.362 2067.5,-280.362 2060.5,-280.362"/>
</g>
<!-- Node29 -->
<g id="node58" class="node"><title>Node29</title>
<a xlink:href="../../de/d1c/_paragraph_style_8h.html" target="_top" xlink:title="/home/vilon_tao/gaia/sdk/include/gaia/text/style/ParagraphStyle.h">
<polygon fill="white" stroke="black" points="2732,-232.5 2732,-253.5 3034,-253.5 3034,-232.5 2732,-232.5"/>
<text text-anchor="middle" x="2883" y="-240.5" font-family="Helvetica,sans-Serif" font-size="10.00">/home/vilon_tao/gaia/sdk/include/gaia/text/style/ParagraphStyle.h</text>
</a>
</g>
<!-- Node1&#45;&gt;Node29 -->
<g id="edge58" class="edge"><title>Node1&#45;&gt;Node29</title>
<path fill="none" stroke="midnightblue" d="M2217.21,-290.15C2365.28,-279.664 2588.11,-263.884 2734.55,-253.513"/>
<polygon fill="midnightblue" stroke="midnightblue" points="2216.85,-286.666 2207.13,-290.864 2217.35,-293.649 2216.85,-286.666"/>
</g>
<!-- Node3 -->
<g id="node5" class="node"><title>Node3</title>
<a xlink:href="../../d7/d1c/_spannable_8h.html" target="_top" xlink:title="/home/vilon_tao/gaia/sdk/include/gaia/text/Spannable.h">
<polygon fill="white" stroke="black" points="496.5,-174.5 496.5,-195.5 753.5,-195.5 753.5,-174.5 496.5,-174.5"/>
<text text-anchor="middle" x="625" y="-182.5" font-family="Helvetica,sans-Serif" font-size="10.00">/home/vilon_tao/gaia/sdk/include/gaia/text/Spannable.h</text>
</a>
</g>
<!-- Node2&#45;&gt;Node3 -->
<g id="edge4" class="edge"><title>Node2&#45;&gt;Node3</title>
<path fill="none" stroke="midnightblue" d="M846.861,-230.47C795.962,-220.038 724.311,-205.354 676.345,-195.523"/>
<polygon fill="midnightblue" stroke="midnightblue" points="846.252,-233.918 856.751,-232.497 847.657,-227.06 846.252,-233.918"/>
</g>
<!-- Node11 -->
<g id="node22" class="node"><title>Node11</title>
<a xlink:href="../../d4/d09/_spanned_string_8h.html" target="_top" xlink:title="/home/vilon_tao/gaia/sdk/include/gaia/text/SpannedString.h">
<polygon fill="white" stroke="black" points="770.5,-174.5 770.5,-195.5 1045.5,-195.5 1045.5,-174.5 770.5,-174.5"/>
<text text-anchor="middle" x="908" y="-182.5" font-family="Helvetica,sans-Serif" font-size="10.00">/home/vilon_tao/gaia/sdk/include/gaia/text/SpannedString.h</text>
</a>
</g>
<!-- Node2&#45;&gt;Node11 -->
<g id="edge22" class="edge"><title>Node2&#45;&gt;Node11</title>
<path fill="none" stroke="midnightblue" d="M908,-222.191C908,-213.168 908,-202.994 908,-195.571"/>
<polygon fill="midnightblue" stroke="midnightblue" points="904.5,-222.362 908,-232.362 911.5,-222.362 904.5,-222.362"/>
</g>
<!-- Node4 -->
<g id="node7" class="node"><title>Node4</title>
<a xlink:href="../../d6/dc5/_editable_8h.html" target="_top" xlink:title="/home/vilon_tao/gaia/sdk/include/gaia/text/Editable.h">
<polygon fill="white" stroke="black" points="502,-116.5 502,-137.5 748,-137.5 748,-116.5 502,-116.5"/>
<text text-anchor="middle" x="625" y="-124.5" font-family="Helvetica,sans-Serif" font-size="10.00">/home/vilon_tao/gaia/sdk/include/gaia/text/Editable.h</text>
</a>
</g>
<!-- Node3&#45;&gt;Node4 -->
<g id="edge6" class="edge"><title>Node3&#45;&gt;Node4</title>
<path fill="none" stroke="midnightblue" d="M625,-164.191C625,-155.168 625,-144.994 625,-137.571"/>
<polygon fill="midnightblue" stroke="midnightblue" points="621.5,-164.362 625,-174.362 628.5,-164.362 621.5,-164.362"/>
</g>
<!-- Node5 -->
<g id="node9" class="node"><title>Node5</title>
<a xlink:href="../../d9/dc2/_number_key_listener_8h.html" target="_top" xlink:title="/home/vilon_tao/gaia/sdk/include/gaia/text/method/NumberKeyListener.h">
<polygon fill="white" stroke="black" points="165,-58.5 165,-79.5 497,-79.5 497,-58.5 165,-58.5"/>
<text text-anchor="middle" x="331" y="-66.5" font-family="Helvetica,sans-Serif" font-size="10.00">/home/vilon_tao/gaia/sdk/include/gaia/text/method/NumberKeyListener.h</text>
</a>
</g>
<!-- Node3&#45;&gt;Node5 -->
<g id="edge18" class="edge"><title>Node3&#45;&gt;Node5</title>
<path fill="none" stroke="midnightblue" d="M584.002,-171.12C557.822,-162.08 523.239,-149.811 493,-138 443.169,-118.537 385.764,-93.4398 354.426,-79.5065"/>
<polygon fill="midnightblue" stroke="midnightblue" points="583.003,-174.478 593.598,-174.419 585.279,-167.858 583.003,-174.478"/>
</g>
<!-- Node10 -->
<g id="node20" class="node"><title>Node10</title>
<a xlink:href="../../d6/d01/_spannable_string_8h.html" target="_top" xlink:title="/home/vilon_tao/gaia/sdk/include/gaia/text/SpannableString.h">
<polygon fill="white" stroke="black" points="766,-116.5 766,-137.5 1048,-137.5 1048,-116.5 766,-116.5"/>
<text text-anchor="middle" x="907" y="-124.5" font-family="Helvetica,sans-Serif" font-size="10.00">/home/vilon_tao/gaia/sdk/include/gaia/text/SpannableString.h</text>
</a>
</g>
<!-- Node3&#45;&gt;Node10 -->
<g id="edge20" class="edge"><title>Node3&#45;&gt;Node10</title>
<path fill="none" stroke="midnightblue" d="M685.923,-172.47C736.642,-162.038 808.04,-147.354 855.836,-137.523"/>
<polygon fill="midnightblue" stroke="midnightblue" points="685.158,-169.054 676.068,-174.497 686.568,-175.91 685.158,-169.054"/>
</g>
<!-- Node4&#45;&gt;Node5 -->
<g id="edge8" class="edge"><title>Node4&#45;&gt;Node5</title>
<path fill="none" stroke="midnightblue" d="M561.815,-114.535C508.918,-104.099 434.275,-89.374 384.341,-79.5231"/>
<polygon fill="midnightblue" stroke="midnightblue" points="561.27,-117.995 571.759,-116.497 562.625,-111.127 561.27,-117.995"/>
</g>
<!-- Node8 -->
<g id="node15" class="node"><title>Node8</title>
<a xlink:href="../../dc/d40/_text_key_listener_8h.html" target="_top" xlink:title="/home/vilon_tao/gaia/sdk/include/gaia/text/method/TextKeyListener.h">
<polygon fill="white" stroke="black" points="514.5,-58.5 514.5,-79.5 831.5,-79.5 831.5,-58.5 514.5,-58.5"/>
<text text-anchor="middle" x="673" y="-66.5" font-family="Helvetica,sans-Serif" font-size="10.00">/home/vilon_tao/gaia/sdk/include/gaia/text/method/TextKeyListener.h</text>
</a>
</g>
<!-- Node4&#45;&gt;Node8 -->
<g id="edge14" class="edge"><title>Node4&#45;&gt;Node8</title>
<path fill="none" stroke="midnightblue" d="M640.277,-108.541C648.19,-98.9786 657.568,-87.6467 664.252,-79.5707"/>
<polygon fill="midnightblue" stroke="midnightblue" points="637.483,-106.426 633.804,-116.362 642.876,-110.889 637.483,-106.426"/>
</g>
<!-- Node9 -->
<g id="node17" class="node"><title>Node9</title>
<a xlink:href="../../d7/de1/_spannable_string_builder_8h.html" target="_top" xlink:title="/home/vilon_tao/gaia/sdk/include/gaia/text/SpannableStringBuilder.h">
<polygon fill="white" stroke="black" points="849,-58.5 849,-79.5 1161,-79.5 1161,-58.5 849,-58.5"/>
<text text-anchor="middle" x="1005" y="-66.5" font-family="Helvetica,sans-Serif" font-size="10.00">/home/vilon_tao/gaia/sdk/include/gaia/text/SpannableStringBuilder.h</text>
</a>
</g>
<!-- Node4&#45;&gt;Node9 -->
<g id="edge16" class="edge"><title>Node4&#45;&gt;Node9</title>
<path fill="none" stroke="midnightblue" d="M703.701,-114.988C772.224,-104.529 870.576,-89.5174 936.056,-79.5231"/>
<polygon fill="midnightblue" stroke="midnightblue" points="703.173,-111.528 693.815,-116.497 704.229,-118.448 703.173,-111.528"/>
</g>
<!-- Node6 -->
<g id="node11" class="node"><title>Node6</title>
<a xlink:href="../../d1/dd7/_dialer_key_listener_8h.html" target="_top" xlink:title="/home/vilon_tao/gaia/sdk/include/gaia/text/method/DialerKeyListener.h">
<polygon fill="white" stroke="black" points="-0.5,-0.5 -0.5,-21.5 322.5,-21.5 322.5,-0.5 -0.5,-0.5"/>
<text text-anchor="middle" x="161" y="-8.5" font-family="Helvetica,sans-Serif" font-size="10.00">/home/vilon_tao/gaia/sdk/include/gaia/text/method/DialerKeyListener.h</text>
</a>
</g>
<!-- Node5&#45;&gt;Node6 -->
<g id="edge10" class="edge"><title>Node5&#45;&gt;Node6</title>
<path fill="none" stroke="midnightblue" d="M290.388,-55.1443C260.136,-44.8229 219.456,-30.9439 191.843,-21.5231"/>
<polygon fill="midnightblue" stroke="midnightblue" points="289.62,-58.5801 300.214,-58.4966 291.88,-51.955 289.62,-58.5801"/>
</g>
<!-- Node7 -->
<g id="node13" class="node"><title>Node7</title>
<a xlink:href="../../dc/da7/_digits_key_listener_8h.html" target="_top" xlink:title="/home/vilon_tao/gaia/sdk/include/gaia/text/method/DigitsKeyListener.h">
<polygon fill="white" stroke="black" points="339.5,-0.5 339.5,-21.5 662.5,-21.5 662.5,-0.5 339.5,-0.5"/>
<text text-anchor="middle" x="501" y="-8.5" font-family="Helvetica,sans-Serif" font-size="10.00">/home/vilon_tao/gaia/sdk/include/gaia/text/method/DigitsKeyListener.h</text>
</a>
</g>
<!-- Node5&#45;&gt;Node7 -->
<g id="edge12" class="edge"><title>Node5&#45;&gt;Node7</title>
<path fill="none" stroke="midnightblue" d="M371.612,-55.1443C401.864,-44.8229 442.544,-30.9439 470.157,-21.5231"/>
<polygon fill="midnightblue" stroke="midnightblue" points="370.12,-51.955 361.786,-58.4966 372.38,-58.5801 370.12,-51.955"/>
</g>
<!-- Node13 -->
<g id="node26" class="node"><title>Node13</title>
<a xlink:href="../../d6/da2/_background_color_span_8h.html" target="_top" xlink:title="/home/vilon_tao/gaia/sdk/include/gaia/text/style/BackgroundColorSpan.h">
<polygon fill="white" stroke="black" points="1063,-174.5 1063,-195.5 1395,-195.5 1395,-174.5 1063,-174.5"/>
<text text-anchor="middle" x="1229" y="-182.5" font-family="Helvetica,sans-Serif" font-size="10.00">/home/vilon_tao/gaia/sdk/include/gaia/text/style/BackgroundColorSpan.h</text>
</a>
</g>
<!-- Node12&#45;&gt;Node13 -->
<g id="edge26" class="edge"><title>Node12&#45;&gt;Node13</title>
<path fill="none" stroke="midnightblue" d="M1903.47,-231.849C1752.57,-221.368 1528.39,-205.796 1380.5,-195.524"/>
<polygon fill="midnightblue" stroke="midnightblue" points="1903.54,-235.362 1913.75,-232.564 1904.02,-228.379 1903.54,-235.362"/>
</g>
<!-- Node14 -->
<g id="node28" class="node"><title>Node14</title>
<a xlink:href="../../d9/d43/_clickable_span_8h.html" target="_top" xlink:title="/home/vilon_tao/gaia/sdk/include/gaia/text/style/ClickableSpan.h">
<polygon fill="white" stroke="black" points="1413,-174.5 1413,-195.5 1711,-195.5 1711,-174.5 1413,-174.5"/>
<text text-anchor="middle" x="1562" y="-182.5" font-family="Helvetica,sans-Serif" font-size="10.00">/home/vilon_tao/gaia/sdk/include/gaia/text/style/ClickableSpan.h</text>
</a>
</g>
<!-- Node12&#45;&gt;Node14 -->
<g id="edge28" class="edge"><title>Node12&#45;&gt;Node14</title>
<path fill="none" stroke="midnightblue" d="M1963.08,-231.34C1872.44,-220.868 1740.56,-205.63 1653.08,-195.523"/>
<polygon fill="midnightblue" stroke="midnightblue" points="1962.76,-234.826 1973.09,-232.497 1963.56,-227.872 1962.76,-234.826"/>
</g>
<!-- Node16 -->
<g id="node32" class="node"><title>Node16</title>
<a xlink:href="../../d0/dbb/_foreground_color_span_8h.html" target="_top" xlink:title="/home/vilon_tao/gaia/sdk/include/gaia/text/style/ForegroundColorSpan.h">
<polygon fill="white" stroke="black" points="1728.5,-174.5 1728.5,-195.5 2057.5,-195.5 2057.5,-174.5 1728.5,-174.5"/>
<text text-anchor="middle" x="1893" y="-182.5" font-family="Helvetica,sans-Serif" font-size="10.00">/home/vilon_tao/gaia/sdk/include/gaia/text/style/ForegroundColorSpan.h</text>
</a>
</g>
<!-- Node12&#45;&gt;Node16 -->
<g id="edge32" class="edge"><title>Node12&#45;&gt;Node16</title>
<path fill="none" stroke="midnightblue" d="M2023.55,-229.279C1993.08,-218.944 1951.92,-204.985 1924.02,-195.523"/>
<polygon fill="midnightblue" stroke="midnightblue" points="2022.44,-232.599 2033.03,-232.497 2024.69,-225.97 2022.44,-232.599"/>
</g>
<!-- Node17 -->
<g id="node34" class="node"><title>Node17</title>
<a xlink:href="../../d6/d5c/_metric_affecting_span_8h.html" target="_top" xlink:title="/home/vilon_tao/gaia/sdk/include/gaia/text/style/MetricAffectingSpan.h">
<polygon fill="white" stroke="black" points="2074.5,-174.5 2074.5,-195.5 2397.5,-195.5 2397.5,-174.5 2074.5,-174.5"/>
<text text-anchor="middle" x="2236" y="-182.5" font-family="Helvetica,sans-Serif" font-size="10.00">/home/vilon_tao/gaia/sdk/include/gaia/text/style/MetricAffectingSpan.h</text>
</a>
</g>
<!-- Node12&#45;&gt;Node17 -->
<g id="edge34" class="edge"><title>Node12&#45;&gt;Node17</title>
<path fill="none" stroke="midnightblue" d="M2104.69,-229.279C2135.34,-218.944 2176.73,-204.985 2204.79,-195.523"/>
<polygon fill="midnightblue" stroke="midnightblue" points="2103.51,-225.985 2095.15,-232.497 2105.74,-232.618 2103.51,-225.985"/>
</g>
<!-- Node27 -->
<g id="node54" class="node"><title>Node27</title>
<a xlink:href="../../dd/df5/_strikethrough_span_8h.html" target="_top" xlink:title="/home/vilon_tao/gaia/sdk/include/gaia/text/style/StrikethroughSpan.h">
<polygon fill="white" stroke="black" points="2414.5,-174.5 2414.5,-195.5 2729.5,-195.5 2729.5,-174.5 2414.5,-174.5"/>
<text text-anchor="middle" x="2572" y="-182.5" font-family="Helvetica,sans-Serif" font-size="10.00">/home/vilon_tao/gaia/sdk/include/gaia/text/style/StrikethroughSpan.h</text>
</a>
</g>
<!-- Node12&#45;&gt;Node27 -->
<g id="edge54" class="edge"><title>Node12&#45;&gt;Node27</title>
<path fill="none" stroke="midnightblue" d="M2166.13,-231.34C2257.85,-220.868 2391.31,-205.63 2479.83,-195.523"/>
<polygon fill="midnightblue" stroke="midnightblue" points="2165.53,-227.885 2155.99,-232.497 2166.33,-234.84 2165.53,-227.885"/>
</g>
<!-- Node28 -->
<g id="node56" class="node"><title>Node28</title>
<a xlink:href="../../d9/d28/_underline_span_8h.html" target="_top" xlink:title="/home/vilon_tao/gaia/sdk/include/gaia/text/style/UnderlineSpan.h">
<polygon fill="white" stroke="black" points="2746.5,-174.5 2746.5,-195.5 3045.5,-195.5 3045.5,-174.5 2746.5,-174.5"/>
<text text-anchor="middle" x="2896" y="-182.5" font-family="Helvetica,sans-Serif" font-size="10.00">/home/vilon_tao/gaia/sdk/include/gaia/text/style/UnderlineSpan.h</text>
</a>
</g>
<!-- Node12&#45;&gt;Node28 -->
<g id="edge56" class="edge"><title>Node12&#45;&gt;Node28</title>
<path fill="none" stroke="midnightblue" d="M2224.46,-231.814C2375.23,-221.304 2599.1,-205.697 2746.27,-195.438"/>
<polygon fill="midnightblue" stroke="midnightblue" points="2223.92,-228.343 2214.19,-232.53 2224.41,-235.326 2223.92,-228.343"/>
</g>
<!-- Node15 -->
<g id="node30" class="node"><title>Node15</title>
<a xlink:href="../../d3/d8d/_u_r_l_span_8h.html" target="_top" xlink:title="/home/vilon_tao/gaia/sdk/include/gaia/text/style/URLSpan.h">
<polygon fill="white" stroke="black" points="1093,-116.5 1093,-137.5 1371,-137.5 1371,-116.5 1093,-116.5"/>
<text text-anchor="middle" x="1232" y="-124.5" font-family="Helvetica,sans-Serif" font-size="10.00">/home/vilon_tao/gaia/sdk/include/gaia/text/style/URLSpan.h</text>
</a>
</g>
<!-- Node14&#45;&gt;Node15 -->
<g id="edge30" class="edge"><title>Node14&#45;&gt;Node15</title>
<path fill="none" stroke="midnightblue" d="M1492.19,-172.73C1432.75,-162.283 1348.27,-147.435 1291.87,-137.523"/>
<polygon fill="midnightblue" stroke="midnightblue" points="1491.78,-176.213 1502.24,-174.497 1493,-169.318 1491.78,-176.213"/>
</g>
<!-- Node18 -->
<g id="node36" class="node"><title>Node18</title>
<a xlink:href="../../dc/dd0/_absolute_size_span_8h.html" target="_top" xlink:title="/home/vilon_tao/gaia/sdk/include/gaia/text/style/AbsoluteSizeSpan.h">
<polygon fill="white" stroke="black" points="1388.5,-116.5 1388.5,-137.5 1703.5,-137.5 1703.5,-116.5 1388.5,-116.5"/>
<text text-anchor="middle" x="1546" y="-124.5" font-family="Helvetica,sans-Serif" font-size="10.00">/home/vilon_tao/gaia/sdk/include/gaia/text/style/AbsoluteSizeSpan.h</text>
</a>
</g>
<!-- Node17&#45;&gt;Node18 -->
<g id="edge36" class="edge"><title>Node17&#45;&gt;Node18</title>
<path fill="none" stroke="midnightblue" d="M2101.05,-173.656C1976.39,-163.177 1792.64,-147.732 1671.19,-137.523"/>
<polygon fill="midnightblue" stroke="midnightblue" points="2100.79,-177.147 2111.05,-174.497 2101.37,-170.171 2100.79,-177.147"/>
</g>
<!-- Node19 -->
<g id="node38" class="node"><title>Node19</title>
<a xlink:href="../../d5/de5/_relative_size_span_8h.html" target="_top" xlink:title="/home/vilon_tao/gaia/sdk/include/gaia/text/style/RelativeSizeSpan.h">
<polygon fill="white" stroke="black" points="1720.5,-116.5 1720.5,-137.5 2033.5,-137.5 2033.5,-116.5 1720.5,-116.5"/>
<text text-anchor="middle" x="1877" y="-124.5" font-family="Helvetica,sans-Serif" font-size="10.00">/home/vilon_tao/gaia/sdk/include/gaia/text/style/RelativeSizeSpan.h</text>
</a>
</g>
<!-- Node17&#45;&gt;Node19 -->
<g id="edge38" class="edge"><title>Node17&#45;&gt;Node19</title>
<path fill="none" stroke="midnightblue" d="M2160.85,-172.859C2096.15,-162.406 2003.74,-147.476 1942.13,-137.523"/>
<polygon fill="midnightblue" stroke="midnightblue" points="2160.56,-176.357 2170.99,-174.497 2161.67,-169.446 2160.56,-176.357"/>
</g>
<!-- Node20 -->
<g id="node40" class="node"><title>Node20</title>
<a xlink:href="../../d7/d25/_replacement_span_8h.html" target="_top" xlink:title="/home/vilon_tao/gaia/sdk/include/gaia/text/style/ReplacementSpan.h">
<polygon fill="white" stroke="black" points="2050.5,-116.5 2050.5,-137.5 2365.5,-137.5 2365.5,-116.5 2050.5,-116.5"/>
<text text-anchor="middle" x="2208" y="-124.5" font-family="Helvetica,sans-Serif" font-size="10.00">/home/vilon_tao/gaia/sdk/include/gaia/text/style/ReplacementSpan.h</text>
</a>
</g>
<!-- Node17&#45;&gt;Node20 -->
<g id="edge40" class="edge"><title>Node17&#45;&gt;Node20</title>
<path fill="none" stroke="midnightblue" d="M2226.38,-165.079C2221.92,-155.842 2216.8,-145.239 2213.1,-137.571"/>
<polygon fill="midnightblue" stroke="midnightblue" points="2223.36,-166.878 2230.86,-174.362 2229.67,-163.835 2223.36,-166.878"/>
</g>
<!-- Node23 -->
<g id="node46" class="node"><title>Node23</title>
<a xlink:href="../../d2/def/_style_span_8h.html" target="_top" xlink:title="/home/vilon_tao/gaia/sdk/include/gaia/text/style/StyleSpan.h">
<polygon fill="white" stroke="black" points="2383,-116.5 2383,-137.5 2663,-137.5 2663,-116.5 2383,-116.5"/>
<text text-anchor="middle" x="2523" y="-124.5" font-family="Helvetica,sans-Serif" font-size="10.00">/home/vilon_tao/gaia/sdk/include/gaia/text/style/StyleSpan.h</text>
</a>
</g>
<!-- Node17&#45;&gt;Node23 -->
<g id="edge46" class="edge"><title>Node17&#45;&gt;Node23</title>
<path fill="none" stroke="midnightblue" d="M2298,-172.47C2349.62,-162.038 2422.29,-147.354 2470.93,-137.523"/>
<polygon fill="midnightblue" stroke="midnightblue" points="2297.08,-169.085 2287.97,-174.497 2298.47,-175.946 2297.08,-169.085"/>
</g>
<!-- Node24 -->
<g id="node48" class="node"><title>Node24</title>
<a xlink:href="../../d2/d7b/_subscript_span_8h.html" target="_top" xlink:title="/home/vilon_tao/gaia/sdk/include/gaia/text/style/SubscriptSpan.h">
<polygon fill="white" stroke="black" points="2680.5,-116.5 2680.5,-137.5 2979.5,-137.5 2979.5,-116.5 2680.5,-116.5"/>
<text text-anchor="middle" x="2830" y="-124.5" font-family="Helvetica,sans-Serif" font-size="10.00">/home/vilon_tao/gaia/sdk/include/gaia/text/style/SubscriptSpan.h</text>
</a>
</g>
<!-- Node17&#45;&gt;Node24 -->
<g id="edge48" class="edge"><title>Node17&#45;&gt;Node24</title>
<path fill="none" stroke="midnightblue" d="M2353.79,-173.498C2461.08,-163.023 2618.2,-147.681 2722.23,-137.523"/>
<polygon fill="midnightblue" stroke="midnightblue" points="2353.18,-170.041 2343.57,-174.497 2353.86,-177.008 2353.18,-170.041"/>
</g>
<!-- Node25 -->
<g id="node50" class="node"><title>Node25</title>
<a xlink:href="../../d4/dbd/_superscript_span_8h.html" target="_top" xlink:title="/home/vilon_tao/gaia/sdk/include/gaia/text/style/SuperscriptSpan.h">
<polygon fill="white" stroke="black" points="2996.5,-116.5 2996.5,-137.5 3303.5,-137.5 3303.5,-116.5 2996.5,-116.5"/>
<text text-anchor="middle" x="3150" y="-124.5" font-family="Helvetica,sans-Serif" font-size="10.00">/home/vilon_tao/gaia/sdk/include/gaia/text/style/SuperscriptSpan.h</text>
</a>
</g>
<!-- Node17&#45;&gt;Node25 -->
<g id="edge50" class="edge"><title>Node17&#45;&gt;Node25</title>
<path fill="none" stroke="midnightblue" d="M2407.59,-173.901C2666.32,-157.558 2732.67,-154.566 2988,-138 2990.67,-137.827 2993.37,-137.651 2996.09,-137.473"/>
<polygon fill="midnightblue" stroke="midnightblue" points="2407.27,-170.414 2397.52,-174.538 2407.72,-177.4 2407.27,-170.414"/>
</g>
<!-- Node26 -->
<g id="node52" class="node"><title>Node26</title>
<a xlink:href="../../da/d19/_typeface_span_8h.html" target="_top" xlink:title="/home/vilon_tao/gaia/sdk/include/gaia/text/style/TypefaceSpan.h">
<polygon fill="white" stroke="black" points="3321,-116.5 3321,-137.5 3619,-137.5 3619,-116.5 3321,-116.5"/>
<text text-anchor="middle" x="3470" y="-124.5" font-family="Helvetica,sans-Serif" font-size="10.00">/home/vilon_tao/gaia/sdk/include/gaia/text/style/TypefaceSpan.h</text>
</a>
</g>
<!-- Node17&#45;&gt;Node26 -->
<g id="edge52" class="edge"><title>Node17&#45;&gt;Node26</title>
<path fill="none" stroke="midnightblue" d="M2407.24,-173.947C2810.14,-153.102 2912.96,-159.814 3312,-138 3314.88,-137.842 3317.8,-137.679 3320.73,-137.511"/>
<polygon fill="midnightblue" stroke="midnightblue" points="2406.86,-170.462 2397.06,-174.476 2407.23,-177.452 2406.86,-170.462"/>
</g>
<!-- Node21 -->
<g id="node42" class="node"><title>Node21</title>
<a xlink:href="../../dd/d32/_dynamic_drawer_span_8h.html" target="_top" xlink:title="/home/vilon_tao/gaia/sdk/include/gaia/text/style/DynamicDrawerSpan.h">
<polygon fill="white" stroke="black" points="2044,-58.5 2044,-79.5 2372,-79.5 2372,-58.5 2044,-58.5"/>
<text text-anchor="middle" x="2208" y="-66.5" font-family="Helvetica,sans-Serif" font-size="10.00">/home/vilon_tao/gaia/sdk/include/gaia/text/style/DynamicDrawerSpan.h</text>
</a>
</g>
<!-- Node20&#45;&gt;Node21 -->
<g id="edge42" class="edge"><title>Node20&#45;&gt;Node21</title>
<path fill="none" stroke="midnightblue" d="M2208,-106.191C2208,-97.1684 2208,-86.9941 2208,-79.5707"/>
<polygon fill="midnightblue" stroke="midnightblue" points="2204.5,-106.362 2208,-116.362 2211.5,-106.362 2204.5,-106.362"/>
</g>
<!-- Node22 -->
<g id="node44" class="node"><title>Node22</title>
<a xlink:href="../../da/d07/_image_span_8h.html" target="_top" xlink:title="/home/vilon_tao/gaia/sdk/include/gaia/text/style/ImageSpan.h">
<polygon fill="white" stroke="black" points="2066,-0.5 2066,-21.5 2350,-21.5 2350,-0.5 2066,-0.5"/>
<text text-anchor="middle" x="2208" y="-8.5" font-family="Helvetica,sans-Serif" font-size="10.00">/home/vilon_tao/gaia/sdk/include/gaia/text/style/ImageSpan.h</text>
</a>
</g>
<!-- Node21&#45;&gt;Node22 -->
<g id="edge44" class="edge"><title>Node21&#45;&gt;Node22</title>
<path fill="none" stroke="midnightblue" d="M2208,-48.1906C2208,-39.1684 2208,-28.9941 2208,-21.5707"/>
<polygon fill="midnightblue" stroke="midnightblue" points="2204.5,-48.3619 2208,-58.3619 2211.5,-48.3619 2204.5,-48.3619"/>
</g>
<!-- Node30 -->
<g id="node60" class="node"><title>Node30</title>
<a xlink:href="../../da/da9/_alignment_span_8h.html" target="_top" xlink:title="/home/vilon_tao/gaia/sdk/include/gaia/text/style/AlignmentSpan.h">
<polygon fill="white" stroke="black" points="3062.5,-174.5 3062.5,-195.5 3363.5,-195.5 3363.5,-174.5 3062.5,-174.5"/>
<text text-anchor="middle" x="3213" y="-182.5" font-family="Helvetica,sans-Serif" font-size="10.00">/home/vilon_tao/gaia/sdk/include/gaia/text/style/AlignmentSpan.h</text>
</a>
</g>
<!-- Node29&#45;&gt;Node30 -->
<g id="edge60" class="edge"><title>Node29&#45;&gt;Node30</title>
<path fill="none" stroke="midnightblue" d="M2952.81,-230.73C3012.25,-220.283 3096.73,-205.435 3153.13,-195.523"/>
<polygon fill="midnightblue" stroke="midnightblue" points="2952,-227.318 2942.76,-232.497 2953.22,-234.213 2952,-227.318"/>
</g>
</g>
</svg>
