<?xml version="1.0" encoding="UTF-8" standalone="no"?>
<!DOCTYPE svg PUBLIC "-//W3C//DTD SVG 1.1//EN"
 "http://www.w3.org/Graphics/SVG/1.1/DTD/svg11.dtd">
<!-- Generated by graphviz version 2.26.3 (20100126.1600)
 -->
<!-- Title: G Pages: 1 -->
<svg width="340pt" height="204pt"
 viewBox="0.00 0.00 340.00 204.00" xmlns="http://www.w3.org/2000/svg" xmlns:xlink="http://www.w3.org/1999/xlink">
<g id="graph1" class="graph" transform="scale(1 1) rotate(0) translate(4 200)">
<title>G</title>
<polygon fill="white" stroke="white" points="-4,5 -4,-200 337,-200 337,5 -4,5"/>
<!-- Node1 -->
<g id="node1" class="node"><title>Node1</title>
<polygon fill="#bfbfbf" stroke="black" points="18.5,-174.5 18.5,-195.5 261.5,-195.5 261.5,-174.5 18.5,-174.5"/>
<text text-anchor="middle" x="140" y="-182.5" font-family="Helvetica,sans-Serif" font-size="10.00">/home/vilon_tao/gaia/sdk/include/gaia/net/SSLInfo.h</text>
</g>
<!-- Node2 -->
<g id="node3" class="node"><title>Node2</title>
<a xlink:href="../../d3/dc5/_array_8h.html" target="_top" xlink:title="gaia/base/Array.h">
<polygon fill="white" stroke="black" points="93.5,-116.5 93.5,-137.5 186.5,-137.5 186.5,-116.5 93.5,-116.5"/>
<text text-anchor="middle" x="140" y="-124.5" font-family="Helvetica,sans-Serif" font-size="10.00">gaia/base/Array.h</text>
</a>
</g>
<!-- Node1&#45;&gt;Node2 -->
<g id="edge2" class="edge"><title>Node1&#45;&gt;Node2</title>
<path fill="none" stroke="midnightblue" d="M140,-174.362C140,-166.922 140,-156.743 140,-147.728"/>
<polygon fill="midnightblue" stroke="midnightblue" points="143.5,-147.571 140,-137.571 136.5,-147.571 143.5,-147.571"/>
</g>
<!-- Node3 -->
<g id="node5" class="node"><title>Node3</title>
<a xlink:href="../../d8/dae/_array_impl_8h.html" target="_top" xlink:title="gaia/base/ArrayImpl.h">
<polygon fill="white" stroke="black" points="0,-58.5 0,-79.5 112,-79.5 112,-58.5 0,-58.5"/>
<text text-anchor="middle" x="56" y="-66.5" font-family="Helvetica,sans-Serif" font-size="10.00">gaia/base/ArrayImpl.h</text>
</a>
</g>
<!-- Node2&#45;&gt;Node3 -->
<g id="edge4" class="edge"><title>Node2&#45;&gt;Node3</title>
<path fill="none" stroke="midnightblue" d="M124.593,-116.362C112.042,-107.696 94.1078,-95.3126 79.7255,-85.3819"/>
<polygon fill="midnightblue" stroke="midnightblue" points="81.5269,-82.3725 71.3092,-79.5707 77.5495,-88.1327 81.5269,-82.3725"/>
</g>
<!-- Node4 -->
<g id="node7" class="node"><title>Node4</title>
<polygon fill="white" stroke="#bfbfbf" points="80,-0.5 80,-21.5 148,-21.5 148,-0.5 80,-0.5"/>
<text text-anchor="middle" x="114" y="-8.5" font-family="Helvetica,sans-Serif" font-size="10.00">sys/types.h</text>
</g>
<!-- Node2&#45;&gt;Node4 -->
<g id="edge18" class="edge"><title>Node2&#45;&gt;Node4</title>
<path fill="none" stroke="midnightblue" d="M137.601,-116.295C133.286,-97.0451 124.151,-56.2889 118.597,-31.5091"/>
<polygon fill="midnightblue" stroke="midnightblue" points="121.996,-30.6716 116.394,-21.6792 115.166,-32.2026 121.996,-30.6716"/>
</g>
<!-- Node5 -->
<g id="node9" class="node"><title>Node5</title>
<a xlink:href="../../d1/d86/_type_helpers_8h.html" target="_top" xlink:title="gaia/base/TypeHelpers.h">
<polygon fill="white" stroke="black" points="167.5,-58.5 167.5,-79.5 292.5,-79.5 292.5,-58.5 167.5,-58.5"/>
<text text-anchor="middle" x="230" y="-66.5" font-family="Helvetica,sans-Serif" font-size="10.00">gaia/base/TypeHelpers.h</text>
</a>
</g>
<!-- Node2&#45;&gt;Node5 -->
<g id="edge8" class="edge"><title>Node2&#45;&gt;Node5</title>
<path fill="none" stroke="midnightblue" d="M156.507,-116.362C170.082,-107.614 189.533,-95.0786 205.015,-85.1015"/>
<polygon fill="midnightblue" stroke="midnightblue" points="207.088,-87.9297 213.597,-79.5707 203.296,-82.0457 207.088,-87.9297"/>
</g>
<!-- Node3&#45;&gt;Node4 -->
<g id="edge6" class="edge"><title>Node3&#45;&gt;Node4</title>
<path fill="none" stroke="midnightblue" d="M66.6381,-58.3619C74.8957,-50.1043 86.5275,-38.4725 96.1971,-28.8029"/>
<polygon fill="midnightblue" stroke="midnightblue" points="98.8331,-31.1166 103.429,-21.5707 93.8834,-26.1669 98.8331,-31.1166"/>
</g>
<!-- Node5&#45;&gt;Node4 -->
<g id="edge14" class="edge"><title>Node5&#45;&gt;Node4</title>
<path fill="none" stroke="midnightblue" d="M208.993,-58.4966C190.957,-49.4786 164.73,-36.3649 144.401,-26.2006"/>
<polygon fill="midnightblue" stroke="midnightblue" points="145.752,-22.9629 135.242,-21.6212 142.621,-29.2239 145.752,-22.9629"/>
</g>
<!-- Node6 -->
<g id="node11" class="node"><title>Node6</title>
<polygon fill="white" stroke="#bfbfbf" points="165.5,-0.5 165.5,-21.5 214.5,-21.5 214.5,-0.5 165.5,-0.5"/>
<text text-anchor="middle" x="190" y="-8.5" font-family="Helvetica,sans-Serif" font-size="10.00">stdint.h</text>
</g>
<!-- Node5&#45;&gt;Node6 -->
<g id="edge10" class="edge"><title>Node5&#45;&gt;Node6</title>
<path fill="none" stroke="midnightblue" d="M222.663,-58.3619C217.194,-50.4313 209.578,-39.3885 203.076,-29.9606"/>
<polygon fill="midnightblue" stroke="midnightblue" points="205.849,-27.8157 197.29,-21.5707 200.086,-31.7899 205.849,-27.8157"/>
</g>
<!-- Node7 -->
<g id="node13" class="node"><title>Node7</title>
<polygon fill="white" stroke="#bfbfbf" points="231.5,-0.5 231.5,-21.5 280.5,-21.5 280.5,-0.5 231.5,-0.5"/>
<text text-anchor="middle" x="256" y="-8.5" font-family="Helvetica,sans-Serif" font-size="10.00">string.h</text>
</g>
<!-- Node5&#45;&gt;Node7 -->
<g id="edge12" class="edge"><title>Node5&#45;&gt;Node7</title>
<path fill="none" stroke="midnightblue" d="M234.769,-58.3619C238.214,-50.6766 242.969,-40.0686 247.106,-30.8399"/>
<polygon fill="midnightblue" stroke="midnightblue" points="250.365,-32.1275 251.261,-21.5707 243.977,-29.264 250.365,-32.1275"/>
</g>
<!-- Node8 -->
<g id="node16" class="node"><title>Node8</title>
<polygon fill="white" stroke="#bfbfbf" points="297.5,-0.5 297.5,-21.5 332.5,-21.5 332.5,-0.5 297.5,-0.5"/>
<text text-anchor="middle" x="315" y="-8.5" font-family="Helvetica,sans-Serif" font-size="10.00">new</text>
</g>
<!-- Node5&#45;&gt;Node8 -->
<g id="edge16" class="edge"><title>Node5&#45;&gt;Node8</title>
<path fill="none" stroke="midnightblue" d="M245.59,-58.3619C258.291,-49.6955 276.438,-37.3126 290.992,-27.3819"/>
<polygon fill="midnightblue" stroke="midnightblue" points="293.221,-30.0982 299.509,-21.5707 289.276,-24.316 293.221,-30.0982"/>
</g>
</g>
</svg>
