<?xml version="1.0" encoding="UTF-8" standalone="no"?>
<!DOCTYPE svg PUBLIC "-//W3C//DTD SVG 1.1//EN"
 "http://www.w3.org/Graphics/SVG/1.1/DTD/svg11.dtd">
<!-- Generated by graphviz version 2.26.3 (20100126.1600)
 -->
<!-- Title: G Pages: 1 -->
<svg width="7618pt" height="320pt"
 viewBox="0.00 0.00 7618.00 320.00" xmlns="http://www.w3.org/2000/svg" xmlns:xlink="http://www.w3.org/1999/xlink">
<g id="graph1" class="graph" transform="scale(1 1) rotate(0) translate(4 316)">
<title>G</title>
<polygon fill="white" stroke="white" points="-4,5 -4,-316 7615,-316 7615,5 -4,5"/>
<!-- Node1 -->
<g id="node1" class="node"><title>Node1</title>
<polygon fill="#bfbfbf" stroke="black" points="3552.5,-290.5 3552.5,-311.5 3809.5,-311.5 3809.5,-290.5 3552.5,-290.5"/>
<text text-anchor="middle" x="3681" y="-298.5" font-family="Helvetica,sans-Serif" font-size="10.00">/home/vilon_tao/gaia/sdk/include/gaia/base/ArrayImpl.h</text>
</g>
<!-- Node2 -->
<g id="node3" class="node"><title>Node2</title>
<a xlink:href="../../d3/dc5/_array_8h.html" target="_top" xlink:title="/home/vilon_tao/gaia/sdk/include/gaia/base/Array.h">
<polygon fill="white" stroke="black" points="3561.5,-232.5 3561.5,-253.5 3800.5,-253.5 3800.5,-232.5 3561.5,-232.5"/>
<text text-anchor="middle" x="3681" y="-240.5" font-family="Helvetica,sans-Serif" font-size="10.00">/home/vilon_tao/gaia/sdk/include/gaia/base/Array.h</text>
</a>
</g>
<!-- Node1&#45;&gt;Node2 -->
<g id="edge2" class="edge"><title>Node1&#45;&gt;Node2</title>
<path fill="none" stroke="midnightblue" d="M3681,-280.191C3681,-271.168 3681,-260.994 3681,-253.571"/>
<polygon fill="midnightblue" stroke="midnightblue" points="3677.5,-280.362 3681,-290.362 3684.5,-280.362 3677.5,-280.362"/>
</g>
<!-- Node3 -->
<g id="node5" class="node"><title>Node3</title>
<a xlink:href="../../d7/d86/_app_widget_manager_8h.html" target="_top" xlink:title="/home/vilon_tao/gaia/sdk/include/gaia/core/appwidget/AppWidgetManager.h">
<polygon fill="white" stroke="black" points="0,-174.5 0,-195.5 346,-195.5 346,-174.5 0,-174.5"/>
<text text-anchor="middle" x="173" y="-182.5" font-family="Helvetica,sans-Serif" font-size="10.00">/home/vilon_tao/gaia/sdk/include/gaia/core/appwidget/AppWidgetManager.h</text>
</a>
</g>
<!-- Node2&#45;&gt;Node3 -->
<g id="edge4" class="edge"><title>Node2&#45;&gt;Node3</title>
<path fill="none" stroke="midnightblue" d="M3551.05,-241.968C3017.62,-237.609 994.189,-219.82 355,-196 350.888,-195.847 346.724,-195.681 342.524,-195.504"/>
<polygon fill="midnightblue" stroke="midnightblue" points="3551.06,-245.468 3561.09,-242.05 3551.12,-238.469 3551.06,-245.468"/>
</g>
<!-- Node4 -->
<g id="node7" class="node"><title>Node4</title>
<a xlink:href="../../db/df1/_app_widget_provider_8h.html" target="_top" xlink:title="/home/vilon_tao/gaia/sdk/include/gaia/core/appwidget/AppWidgetProvider.h">
<polygon fill="white" stroke="black" points="364,-174.5 364,-195.5 708,-195.5 708,-174.5 364,-174.5"/>
<text text-anchor="middle" x="536" y="-182.5" font-family="Helvetica,sans-Serif" font-size="10.00">/home/vilon_tao/gaia/sdk/include/gaia/core/appwidget/AppWidgetProvider.h</text>
</a>
</g>
<!-- Node2&#45;&gt;Node4 -->
<g id="edge6" class="edge"><title>Node2&#45;&gt;Node4</title>
<path fill="none" stroke="midnightblue" d="M3551.35,-241.719C3055.82,-236.704 1281.23,-217.608 717,-196 713.068,-195.849 709.088,-195.687 705.075,-195.515"/>
<polygon fill="midnightblue" stroke="midnightblue" points="3551.36,-245.22 3561.4,-241.821 3551.43,-238.22 3551.36,-245.22"/>
</g>
<!-- Node5 -->
<g id="node9" class="node"><title>Node5</title>
<a xlink:href="../../dc/d63/_demand_8h.html" target="_top" xlink:title="/home/vilon_tao/gaia/sdk/include/gaia/core/Demand.h">
<polygon fill="white" stroke="black" points="726,-174.5 726,-195.5 976,-195.5 976,-174.5 726,-174.5"/>
<text text-anchor="middle" x="851" y="-182.5" font-family="Helvetica,sans-Serif" font-size="10.00">/home/vilon_tao/gaia/sdk/include/gaia/core/Demand.h</text>
</a>
</g>
<!-- Node2&#45;&gt;Node5 -->
<g id="edge8" class="edge"><title>Node2&#45;&gt;Node5</title>
<path fill="none" stroke="midnightblue" d="M3551.04,-241.847C3084.3,-237.532 1493.51,-221.278 985,-196 981.969,-195.849 978.901,-195.686 975.806,-195.511"/>
<polygon fill="midnightblue" stroke="midnightblue" points="3551.16,-245.348 3561.19,-241.94 3551.22,-238.348 3551.16,-245.348"/>
</g>
<!-- Node11 -->
<g id="node22" class="node"><title>Node11</title>
<a xlink:href="../../d7/d7e/_g_l10_8h.html" target="_top" xlink:title="/home/vilon_tao/gaia/sdk/include/gaia/core/GL10.h">
<polygon fill="white" stroke="black" points="1276,-174.5 1276,-195.5 1512,-195.5 1512,-174.5 1276,-174.5"/>
<text text-anchor="middle" x="1394" y="-182.5" font-family="Helvetica,sans-Serif" font-size="10.00">/home/vilon_tao/gaia/sdk/include/gaia/core/GL10.h</text>
</a>
</g>
<!-- Node2&#45;&gt;Node11 -->
<g id="edge22" class="edge"><title>Node2&#45;&gt;Node11</title>
<path fill="none" stroke="midnightblue" d="M3551.23,-241.279C3147.9,-235.755 1919.49,-217.57 1521,-196 1518.13,-195.844 1515.22,-195.676 1512.29,-195.497"/>
<polygon fill="midnightblue" stroke="midnightblue" points="3551.42,-244.782 3561.47,-241.419 3551.52,-237.782 3551.42,-244.782"/>
</g>
<!-- Node13 -->
<g id="node26" class="node"><title>Node13</title>
<a xlink:href="../../d6/d78/_g_l11_ext_8h.html" target="_top" xlink:title="/home/vilon_tao/gaia/sdk/include/gaia/core/GL11Ext.h">
<polygon fill="white" stroke="black" points="1529.5,-174.5 1529.5,-195.5 1780.5,-195.5 1780.5,-174.5 1529.5,-174.5"/>
<text text-anchor="middle" x="1655" y="-182.5" font-family="Helvetica,sans-Serif" font-size="10.00">/home/vilon_tao/gaia/sdk/include/gaia/core/GL11Ext.h</text>
</a>
</g>
<!-- Node2&#45;&gt;Node13 -->
<g id="edge26" class="edge"><title>Node2&#45;&gt;Node13</title>
<path fill="none" stroke="midnightblue" d="M3551.11,-242.325C3244.31,-240.175 2450.82,-231.356 1789,-196 1786.09,-195.844 1783.14,-195.678 1780.16,-195.501"/>
<polygon fill="midnightblue" stroke="midnightblue" points="3551.35,-245.827 3561.37,-242.396 3551.4,-238.827 3551.35,-245.827"/>
</g>
<!-- Node14 -->
<g id="node28" class="node"><title>Node14</title>
<a xlink:href="../../df/dcf/_g_l11_extension_pack_8h.html" target="_top" xlink:title="/home/vilon_tao/gaia/sdk/include/gaia/core/GL11ExtensionPack.h">
<polygon fill="white" stroke="black" points="1798,-174.5 1798,-195.5 2100,-195.5 2100,-174.5 1798,-174.5"/>
<text text-anchor="middle" x="1949" y="-182.5" font-family="Helvetica,sans-Serif" font-size="10.00">/home/vilon_tao/gaia/sdk/include/gaia/core/GL11ExtensionPack.h</text>
</a>
</g>
<!-- Node2&#45;&gt;Node14 -->
<g id="edge28" class="edge"><title>Node2&#45;&gt;Node14</title>
<path fill="none" stroke="midnightblue" d="M3550.93,-240.816C3281.7,-235.918 2643.79,-222.368 2109,-196 2105.8,-195.842 2102.57,-195.677 2099.31,-195.504"/>
<polygon fill="midnightblue" stroke="midnightblue" points="3551.07,-244.319 3561.13,-241 3551.2,-237.32 3551.07,-244.319"/>
</g>
<!-- Node15 -->
<g id="node30" class="node"><title>Node15</title>
<a xlink:href="../../d5/de8/_page_manager_8h.html" target="_top" xlink:title="/home/vilon_tao/gaia/sdk/include/gaia/core/PageManager.h">
<polygon fill="white" stroke="black" points="2117.5,-174.5 2117.5,-195.5 2390.5,-195.5 2390.5,-174.5 2117.5,-174.5"/>
<text text-anchor="middle" x="2254" y="-182.5" font-family="Helvetica,sans-Serif" font-size="10.00">/home/vilon_tao/gaia/sdk/include/gaia/core/PageManager.h</text>
</a>
</g>
<!-- Node2&#45;&gt;Node15 -->
<g id="edge30" class="edge"><title>Node2&#45;&gt;Node15</title>
<path fill="none" stroke="midnightblue" d="M3551.09,-239.781C3320.17,-233.711 2823.08,-219.071 2404,-196 2399.57,-195.756 2395.06,-195.496 2390.51,-195.223"/>
<polygon fill="midnightblue" stroke="midnightblue" points="3551.13,-243.283 3561.21,-240.046 3551.31,-236.286 3551.13,-243.283"/>
</g>
<!-- Node16 -->
<g id="node32" class="node"><title>Node16</title>
<a xlink:href="../../df/d57/_parcel_8h.html" target="_top" xlink:title="/home/vilon_tao/gaia/sdk/include/gaia/core/Parcel.h">
<polygon fill="white" stroke="black" points="2445.5,-174.5 2445.5,-195.5 2686.5,-195.5 2686.5,-174.5 2445.5,-174.5"/>
<text text-anchor="middle" x="2566" y="-182.5" font-family="Helvetica,sans-Serif" font-size="10.00">/home/vilon_tao/gaia/sdk/include/gaia/core/Parcel.h</text>
</a>
</g>
<!-- Node2&#45;&gt;Node16 -->
<g id="edge32" class="edge"><title>Node2&#45;&gt;Node16</title>
<path fill="none" stroke="midnightblue" d="M3551.16,-238.36C3362.5,-231.267 3001.64,-216.375 2695,-196 2692.31,-195.821 2689.59,-195.635 2686.84,-195.442"/>
<polygon fill="midnightblue" stroke="midnightblue" points="3551.27,-241.867 3561.39,-238.744 3551.53,-234.872 3551.27,-241.867"/>
</g>
<!-- Node21 -->
<g id="node42" class="node"><title>Node21</title>
<a xlink:href="../../d6/d9e/_i_media_container_delegate_8h.html" target="_top" xlink:title="/home/vilon_tao/gaia/sdk/include/gaia/defcontainer/IMediaContainerDelegate.h">
<polygon fill="white" stroke="black" points="2482,-0.5 2482,-21.5 2840,-21.5 2840,-0.5 2482,-0.5"/>
<text text-anchor="middle" x="2661" y="-8.5" font-family="Helvetica,sans-Serif" font-size="10.00">/home/vilon_tao/gaia/sdk/include/gaia/defcontainer/IMediaContainerDelegate.h</text>
</a>
</g>
<!-- Node2&#45;&gt;Node21 -->
<g id="edge60" class="edge"><title>Node2&#45;&gt;Node21</title>
<path fill="none" stroke="midnightblue" d="M3551.25,-240.448C3236.4,-233.948 2456.13,-215.871 2437,-196 2394.35,-151.704 2404.52,-102.46 2447,-58 2463.65,-40.5709 2516.28,-28.8791 2565.17,-21.5159"/>
<polygon fill="midnightblue" stroke="midnightblue" points="3551.28,-243.949 3561.35,-240.656 3551.42,-236.951 3551.28,-243.949"/>
</g>
<!-- Node22 -->
<g id="node44" class="node"><title>Node22</title>
<a xlink:href="../../d5/d54/_persistence_8h.html" target="_top" xlink:title="/home/vilon_tao/gaia/sdk/include/gaia/core/Persistence.h">
<polygon fill="white" stroke="black" points="993.5,-174.5 993.5,-195.5 1258.5,-195.5 1258.5,-174.5 993.5,-174.5"/>
<text text-anchor="middle" x="1126" y="-182.5" font-family="Helvetica,sans-Serif" font-size="10.00">/home/vilon_tao/gaia/sdk/include/gaia/core/Persistence.h</text>
</a>
</g>
<!-- Node2&#45;&gt;Node22 -->
<g id="edge44" class="edge"><title>Node2&#45;&gt;Node22</title>
<path fill="none" stroke="midnightblue" d="M3551.18,-241.474C3117.01,-236.213 1717.59,-217.944 1267,-196 1263.93,-195.851 1260.83,-195.69 1257.7,-195.519"/>
<polygon fill="midnightblue" stroke="midnightblue" points="3551.22,-244.975 3561.26,-241.596 3551.3,-237.975 3551.22,-244.975"/>
</g>
<!-- Node24 -->
<g id="node52" class="node"><title>Node24</title>
<a xlink:href="../../de/db2/_anim_scale_8h.html" target="_top" xlink:title="/home/vilon_tao/gaia/sdk/include/gaia/core/vision/AnimScale.h">
<polygon fill="white" stroke="black" points="2703.5,-174.5 2703.5,-195.5 2992.5,-195.5 2992.5,-174.5 2703.5,-174.5"/>
<text text-anchor="middle" x="2848" y="-182.5" font-family="Helvetica,sans-Serif" font-size="10.00">/home/vilon_tao/gaia/sdk/include/gaia/core/vision/AnimScale.h</text>
</a>
</g>
<!-- Node2&#45;&gt;Node24 -->
<g id="edge56" class="edge"><title>Node2&#45;&gt;Node24</title>
<path fill="none" stroke="midnightblue" d="M3551.12,-234.13C3414.27,-224.759 3192.46,-209.499 3001,-196 2998.21,-195.803 2995.39,-195.604 2992.55,-195.403"/>
<polygon fill="midnightblue" stroke="midnightblue" points="3551.01,-237.631 3561.23,-234.822 3551.49,-230.647 3551.01,-237.631"/>
</g>
<!-- Node25 -->
<g id="node54" class="node"><title>Node25</title>
<a xlink:href="../../df/dde/_display_8h.html" target="_top" xlink:title="/home/vilon_tao/gaia/sdk/include/gaia/core/vision/Display.h">
<polygon fill="white" stroke="black" points="3009.5,-174.5 3009.5,-195.5 3284.5,-195.5 3284.5,-174.5 3009.5,-174.5"/>
<text text-anchor="middle" x="3147" y="-182.5" font-family="Helvetica,sans-Serif" font-size="10.00">/home/vilon_tao/gaia/sdk/include/gaia/core/vision/Display.h</text>
</a>
</g>
<!-- Node2&#45;&gt;Node25 -->
<g id="edge58" class="edge"><title>Node2&#45;&gt;Node25</title>
<path fill="none" stroke="midnightblue" d="M3574.23,-231.403C3477.8,-220.93 3337.13,-205.65 3243.88,-195.523"/>
<polygon fill="midnightblue" stroke="midnightblue" points="3573.98,-234.896 3584.3,-232.497 3574.73,-227.937 3573.98,-234.896"/>
</g>
<!-- Node26 -->
<g id="node57" class="node"><title>Node26</title>
<a xlink:href="../../d4/db7/_d_n_s_8h.html" target="_top" xlink:title="/home/vilon_tao/gaia/sdk/include/gaia/net/DNS.h">
<polygon fill="white" stroke="black" points="3302,-174.5 3302,-195.5 3532,-195.5 3532,-174.5 3302,-174.5"/>
<text text-anchor="middle" x="3417" y="-182.5" font-family="Helvetica,sans-Serif" font-size="10.00">/home/vilon_tao/gaia/sdk/include/gaia/net/DNS.h</text>
</a>
</g>
<!-- Node2&#45;&gt;Node26 -->
<g id="edge62" class="edge"><title>Node2&#45;&gt;Node26</title>
<path fill="none" stroke="midnightblue" d="M3623.37,-230.339C3575.93,-219.916 3509.46,-205.313 3464.9,-195.523"/>
<polygon fill="midnightblue" stroke="midnightblue" points="3622.67,-233.769 3633.19,-232.497 3624.18,-226.932 3622.67,-233.769"/>
</g>
<!-- Node27 -->
<g id="node59" class="node"><title>Node27</title>
<a xlink:href="../../d5/d28/_i_p_host_entry_8h.html" target="_top" xlink:title="/home/vilon_tao/gaia/sdk/include/gaia/net/IPHostEntry.h">
<polygon fill="white" stroke="black" points="3550,-174.5 3550,-195.5 3812,-195.5 3812,-174.5 3550,-174.5"/>
<text text-anchor="middle" x="3681" y="-182.5" font-family="Helvetica,sans-Serif" font-size="10.00">/home/vilon_tao/gaia/sdk/include/gaia/net/IPHostEntry.h</text>
</a>
</g>
<!-- Node2&#45;&gt;Node27 -->
<g id="edge64" class="edge"><title>Node2&#45;&gt;Node27</title>
<path fill="none" stroke="midnightblue" d="M3681,-222.191C3681,-213.168 3681,-202.994 3681,-195.571"/>
<polygon fill="midnightblue" stroke="midnightblue" points="3677.5,-222.362 3681,-232.362 3684.5,-222.362 3677.5,-222.362"/>
</g>
<!-- Node28 -->
<g id="node61" class="node"><title>Node28</title>
<a xlink:href="../../d9/d38/_s_s_l_info_8h.html" target="_top" xlink:title="/home/vilon_tao/gaia/sdk/include/gaia/net/SSLInfo.h">
<polygon fill="white" stroke="black" points="3829.5,-174.5 3829.5,-195.5 4072.5,-195.5 4072.5,-174.5 3829.5,-174.5"/>
<text text-anchor="middle" x="3951" y="-182.5" font-family="Helvetica,sans-Serif" font-size="10.00">/home/vilon_tao/gaia/sdk/include/gaia/net/SSLInfo.h</text>
</a>
</g>
<!-- Node2&#45;&gt;Node28 -->
<g id="edge66" class="edge"><title>Node2&#45;&gt;Node28</title>
<path fill="none" stroke="midnightblue" d="M3739.94,-230.339C3788.46,-219.916 3856.44,-205.313 3902.01,-195.523"/>
<polygon fill="midnightblue" stroke="midnightblue" points="3738.94,-226.974 3729.89,-232.497 3740.41,-233.818 3738.94,-226.974"/>
</g>
<!-- Node29 -->
<g id="node63" class="node"><title>Node29</title>
<a xlink:href="../../d3/d02/_s_s_l_request_info_8h.html" target="_top" xlink:title="/home/vilon_tao/gaia/sdk/include/gaia/net/SSLRequestInfo.h">
<polygon fill="white" stroke="black" points="4090,-174.5 4090,-195.5 4370,-195.5 4370,-174.5 4090,-174.5"/>
<text text-anchor="middle" x="4230" y="-182.5" font-family="Helvetica,sans-Serif" font-size="10.00">/home/vilon_tao/gaia/sdk/include/gaia/net/SSLRequestInfo.h</text>
</a>
</g>
<!-- Node2&#45;&gt;Node29 -->
<g id="edge68" class="edge"><title>Node2&#45;&gt;Node29</title>
<path fill="none" stroke="midnightblue" d="M3790.47,-231.435C3889.61,-220.961 4034.44,-205.661 4130.39,-195.523"/>
<polygon fill="midnightblue" stroke="midnightblue" points="3790,-227.965 3780.42,-232.497 3790.73,-234.927 3790,-227.965"/>
</g>
<!-- Node30 -->
<g id="node65" class="node"><title>Node30</title>
<a xlink:href="../../d6/d00/_s_q_lite_query_builder_8h.html" target="_top" xlink:title="/home/vilon_tao/gaia/sdk/include/gaia/storage/SQLiteQueryBuilder.h">
<polygon fill="white" stroke="black" points="4387.5,-174.5 4387.5,-195.5 4700.5,-195.5 4700.5,-174.5 4387.5,-174.5"/>
<text text-anchor="middle" x="4544" y="-182.5" font-family="Helvetica,sans-Serif" font-size="10.00">/home/vilon_tao/gaia/sdk/include/gaia/storage/SQLiteQueryBuilder.h</text>
</a>
</g>
<!-- Node2&#45;&gt;Node30 -->
<g id="edge70" class="edge"><title>Node2&#45;&gt;Node30</title>
<path fill="none" stroke="midnightblue" d="M3810.55,-234.293C3964.84,-223.924 4222.39,-206.615 4387.62,-195.51"/>
<polygon fill="midnightblue" stroke="midnightblue" points="3810.29,-230.803 3800.54,-234.966 3810.76,-237.787 3810.29,-230.803"/>
</g>
<!-- Node31 -->
<g id="node67" class="node"><title>Node31</title>
<a xlink:href="../../df/d25/_storage_manager_8h.html" target="_top" xlink:title="/home/vilon_tao/gaia/sdk/include/gaia/storage/StorageManager.h">
<polygon fill="white" stroke="black" points="4718,-174.5 4718,-195.5 5016,-195.5 5016,-174.5 4718,-174.5"/>
<text text-anchor="middle" x="4867" y="-182.5" font-family="Helvetica,sans-Serif" font-size="10.00">/home/vilon_tao/gaia/sdk/include/gaia/storage/StorageManager.h</text>
</a>
</g>
<!-- Node2&#45;&gt;Node31 -->
<g id="edge72" class="edge"><title>Node2&#45;&gt;Node31</title>
<path fill="none" stroke="midnightblue" d="M3810.55,-238.068C4005.52,-230.42 4385.98,-214.626 4709,-196 4711.88,-195.834 4714.79,-195.663 4717.73,-195.487"/>
<polygon fill="midnightblue" stroke="midnightblue" points="3810.4,-234.571 3800.55,-238.459 3810.68,-241.565 3810.4,-234.571"/>
</g>
<!-- Node32 -->
<g id="node69" class="node"><title>Node32</title>
<a xlink:href="../../d4/d31/_sensor_data_8h.html" target="_top" xlink:title="/home/vilon_tao/gaia/sdk/include/gaia/system/SensorData.h">
<polygon fill="white" stroke="black" points="5034,-174.5 5034,-195.5 5312,-195.5 5312,-174.5 5034,-174.5"/>
<text text-anchor="middle" x="5173" y="-182.5" font-family="Helvetica,sans-Serif" font-size="10.00">/home/vilon_tao/gaia/sdk/include/gaia/system/SensorData.h</text>
</a>
</g>
<!-- Node2&#45;&gt;Node32 -->
<g id="edge74" class="edge"><title>Node2&#45;&gt;Node32</title>
<path fill="none" stroke="midnightblue" d="M3810.79,-240.154C4050.7,-234.516 4579.71,-220.325 5025,-196 5027.96,-195.838 5030.95,-195.669 5033.97,-195.493"/>
<polygon fill="midnightblue" stroke="midnightblue" points="3810.55,-236.658 3800.64,-240.391 3810.72,-243.656 3810.55,-236.658"/>
</g>
<!-- Node33 -->
<g id="node71" class="node"><title>Node33</title>
<a xlink:href="../../d9/dc2/_number_key_listener_8h.html" target="_top" xlink:title="/home/vilon_tao/gaia/sdk/include/gaia/text/method/NumberKeyListener.h">
<polygon fill="white" stroke="black" points="5216,-58.5 5216,-79.5 5548,-79.5 5548,-58.5 5216,-58.5"/>
<text text-anchor="middle" x="5382" y="-66.5" font-family="Helvetica,sans-Serif" font-size="10.00">/home/vilon_tao/gaia/sdk/include/gaia/text/method/NumberKeyListener.h</text>
</a>
</g>
<!-- Node2&#45;&gt;Node33 -->
<g id="edge76" class="edge"><title>Node2&#45;&gt;Node33</title>
<path fill="none" stroke="midnightblue" d="M3810.69,-242.212C4234.92,-239.329 5555.97,-227.809 5587,-196 5611.83,-170.55 5609.15,-143.809 5587,-116 5572.92,-98.3293 5524.55,-86.7599 5478.33,-79.5223"/>
<polygon fill="midnightblue" stroke="midnightblue" points="3810.51,-238.713 3800.54,-242.281 3810.56,-245.713 3810.51,-238.713"/>
</g>
<!-- Node36 -->
<g id="node77" class="node"><title>Node36</title>
<a xlink:href="../../dd/d89/_replacement_transformation_method_8h.html" target="_top" xlink:title="/home/vilon_tao/gaia/sdk/include/gaia/text/method/ReplacementTransformationMethod.h">
<polygon fill="white" stroke="black" points="5633.5,-174.5 5633.5,-195.5 6034.5,-195.5 6034.5,-174.5 5633.5,-174.5"/>
<text text-anchor="middle" x="5834" y="-182.5" font-family="Helvetica,sans-Serif" font-size="10.00">/home/vilon_tao/gaia/sdk/include/gaia/text/method/ReplacementTransformationMethod.h</text>
</a>
</g>
<!-- Node2&#45;&gt;Node36 -->
<g id="edge82" class="edge"><title>Node2&#45;&gt;Node36</title>
<path fill="none" stroke="midnightblue" d="M3811.18,-241.063C4123.35,-236.153 4939.19,-221.744 5620,-196 5624.37,-195.835 5628.79,-195.662 5633.24,-195.482"/>
<polygon fill="midnightblue" stroke="midnightblue" points="3810.68,-237.57 3800.74,-241.227 3810.79,-244.57 3810.68,-237.57"/>
</g>
<!-- Node38 -->
<g id="node81" class="node"><title>Node38</title>
<a xlink:href="../../dc/d40/_text_key_listener_8h.html" target="_top" xlink:title="/home/vilon_tao/gaia/sdk/include/gaia/text/method/TextKeyListener.h">
<polygon fill="white" stroke="black" points="6051.5,-174.5 6051.5,-195.5 6368.5,-195.5 6368.5,-174.5 6051.5,-174.5"/>
<text text-anchor="middle" x="6210" y="-182.5" font-family="Helvetica,sans-Serif" font-size="10.00">/home/vilon_tao/gaia/sdk/include/gaia/text/method/TextKeyListener.h</text>
</a>
</g>
<!-- Node2&#45;&gt;Node38 -->
<g id="edge86" class="edge"><title>Node2&#45;&gt;Node38</title>
<path fill="none" stroke="midnightblue" d="M3810.67,-242.508C4167.14,-240.702 5191.94,-232.477 6043,-196 6046.63,-195.844 6050.3,-195.678 6054,-195.502"/>
<polygon fill="midnightblue" stroke="midnightblue" points="3810.56,-239.008 3800.58,-242.558 3810.59,-246.008 3810.56,-239.008"/>
</g>
<!-- Node39 -->
<g id="node83" class="node"><title>Node39</title>
<a xlink:href="../../d7/dc2/_spanned_8h.html" target="_top" xlink:title="/home/vilon_tao/gaia/sdk/include/gaia/text/Spanned.h">
<polygon fill="white" stroke="black" points="5329.5,-174.5 5329.5,-195.5 5578.5,-195.5 5578.5,-174.5 5329.5,-174.5"/>
<text text-anchor="middle" x="5454" y="-182.5" font-family="Helvetica,sans-Serif" font-size="10.00">/home/vilon_tao/gaia/sdk/include/gaia/text/Spanned.h</text>
</a>
</g>
<!-- Node2&#45;&gt;Node39 -->
<g id="edge88" class="edge"><title>Node2&#45;&gt;Node39</title>
<path fill="none" stroke="midnightblue" d="M3810.8,-241.655C4088.2,-238.257 4759.32,-227.253 5321,-196 5323.78,-195.846 5326.58,-195.681 5329.41,-195.509"/>
<polygon fill="midnightblue" stroke="midnightblue" points="3810.65,-238.156 3800.7,-241.777 3810.74,-245.156 3810.65,-238.156"/>
</g>
<!-- Node42 -->
<g id="node90" class="node"><title>Node42</title>
<a xlink:href="../../d0/db9/_linkify_8h.html" target="_top" xlink:title="/home/vilon_tao/gaia/sdk/include/gaia/text/util/Linkify.h">
<polygon fill="white" stroke="black" points="6385.5,-174.5 6385.5,-195.5 6640.5,-195.5 6640.5,-174.5 6385.5,-174.5"/>
<text text-anchor="middle" x="6513" y="-182.5" font-family="Helvetica,sans-Serif" font-size="10.00">/home/vilon_tao/gaia/sdk/include/gaia/text/util/Linkify.h</text>
</a>
</g>
<!-- Node2&#45;&gt;Node42 -->
<g id="edge96" class="edge"><title>Node2&#45;&gt;Node42</title>
<path fill="none" stroke="midnightblue" d="M3810.96,-241.826C4277.7,-237.44 5868.48,-220.973 6377,-196 6380.08,-195.849 6383.19,-195.685 6386.33,-195.509"/>
<polygon fill="midnightblue" stroke="midnightblue" points="3810.78,-238.328 3800.81,-241.921 3810.84,-245.327 3810.78,-238.328"/>
</g>
<!-- Node43 -->
<g id="node92" class="node"><title>Node43</title>
<a xlink:href="../../d8/db4/_compound_button_8h.html" target="_top" xlink:title="/home/vilon_tao/gaia/sdk/include/gaia/ui/CompoundButton.h">
<polygon fill="white" stroke="black" points="6658,-174.5 6658,-195.5 6936,-195.5 6936,-174.5 6658,-174.5"/>
<text text-anchor="middle" x="6797" y="-182.5" font-family="Helvetica,sans-Serif" font-size="10.00">/home/vilon_tao/gaia/sdk/include/gaia/ui/CompoundButton.h</text>
</a>
</g>
<!-- Node2&#45;&gt;Node43 -->
<g id="edge98" class="edge"><title>Node2&#45;&gt;Node43</title>
<path fill="none" stroke="midnightblue" d="M3810.84,-241.954C4307.07,-237.799 6084.17,-221.441 6649,-196 6652.35,-195.849 6655.73,-195.686 6659.15,-195.51"/>
<polygon fill="midnightblue" stroke="midnightblue" points="3810.74,-238.455 3800.77,-242.038 3810.8,-245.454 3810.74,-238.455"/>
</g>
<!-- Node48 -->
<g id="node102" class="node"><title>Node48</title>
<a xlink:href="../../d8/de3/_i_simple_list_item_provider_8h.html" target="_top" xlink:title="/home/vilon_tao/gaia/sdk/include/gaia/ui/ISimpleListItemProvider.h">
<polygon fill="white" stroke="black" points="6954,-174.5 6954,-195.5 7260,-195.5 7260,-174.5 6954,-174.5"/>
<text text-anchor="middle" x="7107" y="-182.5" font-family="Helvetica,sans-Serif" font-size="10.00">/home/vilon_tao/gaia/sdk/include/gaia/ui/ISimpleListItemProvider.h</text>
</a>
</g>
<!-- Node2&#45;&gt;Node48 -->
<g id="edge108" class="edge"><title>Node2&#45;&gt;Node48</title>
<path fill="none" stroke="midnightblue" d="M3811.13,-242.056C4338.58,-238.086 6318.85,-221.748 6945,-196 6948.66,-195.849 6952.37,-195.686 6956.11,-195.511"/>
<polygon fill="midnightblue" stroke="midnightblue" points="3810.8,-238.558 3800.83,-242.133 3810.85,-245.558 3810.8,-238.558"/>
</g>
<!-- Node50 -->
<g id="node106" class="node"><title>Node50</title>
<a xlink:href="../../db/daf/_simple_cursor_list_item_provider_8h.html" target="_top" xlink:title="/home/vilon_tao/gaia/sdk/include/gaia/ui/SimpleCursorListItemProvider.h">
<polygon fill="white" stroke="black" points="7278,-174.5 7278,-195.5 7610,-195.5 7610,-174.5 7278,-174.5"/>
<text text-anchor="middle" x="7444" y="-182.5" font-family="Helvetica,sans-Serif" font-size="10.00">/home/vilon_tao/gaia/sdk/include/gaia/ui/SimpleCursorListItemProvider.h</text>
</a>
</g>
<!-- Node2&#45;&gt;Node50 -->
<g id="edge112" class="edge"><title>Node2&#45;&gt;Node50</title>
<path fill="none" stroke="midnightblue" d="M3810.78,-242.166C4369.81,-238.439 6575.26,-222.331 7269,-196 7272.95,-195.85 7276.96,-195.687 7281,-195.512"/>
<polygon fill="midnightblue" stroke="midnightblue" points="3810.65,-238.666 3800.67,-242.233 3810.69,-245.666 3810.65,-238.666"/>
</g>
<!-- Node6 -->
<g id="node11" class="node"><title>Node6</title>
<a xlink:href="../../d0/d54/_instrumentation_test_case_8h.html" target="_top" xlink:title="/home/vilon_tao/gaia/sdk/include/gaia/testing/InstrumentationTestCase.h">
<polygon fill="white" stroke="black" points="704,-116.5 704,-137.5 1038,-137.5 1038,-116.5 704,-116.5"/>
<text text-anchor="middle" x="871" y="-124.5" font-family="Helvetica,sans-Serif" font-size="10.00">/home/vilon_tao/gaia/sdk/include/gaia/testing/InstrumentationTestCase.h</text>
</a>
</g>
<!-- Node5&#45;&gt;Node6 -->
<g id="edge10" class="edge"><title>Node5&#45;&gt;Node6</title>
<path fill="none" stroke="midnightblue" d="M857.971,-164.784C861.132,-155.617 864.739,-145.157 867.355,-137.571"/>
<polygon fill="midnightblue" stroke="midnightblue" points="854.619,-163.767 854.668,-174.362 861.237,-166.049 854.619,-163.767"/>
</g>
<!-- Node9 -->
<g id="node17" class="node"><title>Node9</title>
<a xlink:href="../../db/deb/_page_unit_test_case_8h.html" target="_top" xlink:title="/home/vilon_tao/gaia/sdk/include/gaia/testing/PageUnitTestCase.h">
<polygon fill="white" stroke="black" points="364.5,-0.5 364.5,-21.5 671.5,-21.5 671.5,-0.5 364.5,-0.5"/>
<text text-anchor="middle" x="518" y="-8.5" font-family="Helvetica,sans-Serif" font-size="10.00">/home/vilon_tao/gaia/sdk/include/gaia/testing/PageUnitTestCase.h</text>
</a>
</g>
<!-- Node5&#45;&gt;Node9 -->
<g id="edge20" class="edge"><title>Node5&#45;&gt;Node9</title>
<path fill="none" stroke="midnightblue" d="M739.172,-173.402C640.754,-162.647 511.855,-146.991 504,-138 474.811,-104.591 499.775,-45.8688 512.093,-21.7766"/>
<polygon fill="midnightblue" stroke="midnightblue" points="738.878,-176.891 749.198,-174.492 739.635,-169.932 738.878,-176.891"/>
</g>
<!-- Node7 -->
<g id="node13" class="node"><title>Node7</title>
<a xlink:href="../../d5/db9/_page_test_case_8h.html" target="_top" xlink:title="/home/vilon_tao/gaia/sdk/include/gaia/testing/PageTestCase.h">
<polygon fill="white" stroke="black" points="545.5,-58.5 545.5,-79.5 834.5,-79.5 834.5,-58.5 545.5,-58.5"/>
<text text-anchor="middle" x="690" y="-66.5" font-family="Helvetica,sans-Serif" font-size="10.00">/home/vilon_tao/gaia/sdk/include/gaia/testing/PageTestCase.h</text>
</a>
</g>
<!-- Node6&#45;&gt;Node7 -->
<g id="edge12" class="edge"><title>Node6&#45;&gt;Node7</title>
<path fill="none" stroke="midnightblue" d="M828.598,-113.413C796.305,-103.065 752.494,-89.0258 722.839,-79.5231"/>
<polygon fill="midnightblue" stroke="midnightblue" points="827.631,-116.778 838.222,-116.497 829.767,-110.112 827.631,-116.778"/>
</g>
<!-- Node10 -->
<g id="node19" class="node"><title>Node10</title>
<a xlink:href="../../d2/dc6/_single_launch_page_test_case_8h.html" target="_top" xlink:title="/home/vilon_tao/gaia/sdk/include/gaia/testing/SingleLaunchPageTestCase.h">
<polygon fill="white" stroke="black" points="851.5,-58.5 851.5,-79.5 1198.5,-79.5 1198.5,-58.5 851.5,-58.5"/>
<text text-anchor="middle" x="1025" y="-66.5" font-family="Helvetica,sans-Serif" font-size="10.00">/home/vilon_tao/gaia/sdk/include/gaia/testing/SingleLaunchPageTestCase.h</text>
</a>
</g>
<!-- Node6&#45;&gt;Node10 -->
<g id="edge18" class="edge"><title>Node6&#45;&gt;Node10</title>
<path fill="none" stroke="midnightblue" d="M908.506,-112.874C935.834,-102.582 972.263,-88.862 997.059,-79.5231"/>
<polygon fill="midnightblue" stroke="midnightblue" points="907.013,-109.697 898.888,-116.497 909.48,-116.247 907.013,-109.697"/>
</g>
<!-- Node8 -->
<g id="node15" class="node"><title>Node8</title>
<a xlink:href="../../d2/d74/_page_instrumentation_test_case_8h.html" target="_top" xlink:title="/home/vilon_tao/gaia/sdk/include/gaia/testing/PageInstrumentationTestCase.h">
<polygon fill="white" stroke="black" points="869,-0.5 869,-21.5 1225,-21.5 1225,-0.5 869,-0.5"/>
<text text-anchor="middle" x="1047" y="-8.5" font-family="Helvetica,sans-Serif" font-size="10.00">/home/vilon_tao/gaia/sdk/include/gaia/testing/PageInstrumentationTestCase.h</text>
</a>
</g>
<!-- Node7&#45;&gt;Node8 -->
<g id="edge14" class="edge"><title>Node7&#45;&gt;Node8</title>
<path fill="none" stroke="midnightblue" d="M764.731,-56.8589C829.069,-46.4061 920.964,-31.4764 982.229,-21.5231"/>
<polygon fill="midnightblue" stroke="midnightblue" points="763.959,-53.4382 754.65,-58.4966 765.082,-60.3476 763.959,-53.4382"/>
</g>
<!-- Node7&#45;&gt;Node9 -->
<g id="edge16" class="edge"><title>Node7&#45;&gt;Node9</title>
<path fill="none" stroke="midnightblue" d="M649.309,-55.2787C618.661,-44.9437 577.265,-30.9849 549.206,-21.5231"/>
<polygon fill="midnightblue" stroke="midnightblue" points="648.258,-58.6178 658.852,-58.4966 650.495,-51.9847 648.258,-58.6178"/>
</g>
<!-- Node12 -->
<g id="node24" class="node"><title>Node12</title>
<a xlink:href="../../db/d1d/_g_l11_8h.html" target="_top" xlink:title="/home/vilon_tao/gaia/sdk/include/gaia/core/GL11.h">
<polygon fill="white" stroke="black" points="1606,-116.5 1606,-137.5 1842,-137.5 1842,-116.5 1606,-116.5"/>
<text text-anchor="middle" x="1724" y="-124.5" font-family="Helvetica,sans-Serif" font-size="10.00">/home/vilon_tao/gaia/sdk/include/gaia/core/GL11.h</text>
</a>
</g>
<!-- Node11&#45;&gt;Node12 -->
<g id="edge24" class="edge"><title>Node11&#45;&gt;Node12</title>
<path fill="none" stroke="midnightblue" d="M1463.81,-172.73C1523.25,-162.283 1607.73,-147.435 1664.13,-137.523"/>
<polygon fill="midnightblue" stroke="midnightblue" points="1463,-169.318 1453.76,-174.497 1464.22,-176.213 1463,-169.318"/>
</g>
<!-- Node17 -->
<g id="node34" class="node"><title>Node17</title>
<a xlink:href="../../d2/de0/_application_error_report_8h.html" target="_top" xlink:title="/home/vilon_tao/gaia/sdk/include/gaia/core/ApplicationErrorReport.h">
<polygon fill="white" stroke="black" points="2445.5,-116.5 2445.5,-137.5 2756.5,-137.5 2756.5,-116.5 2445.5,-116.5"/>
<text text-anchor="middle" x="2601" y="-124.5" font-family="Helvetica,sans-Serif" font-size="10.00">/home/vilon_tao/gaia/sdk/include/gaia/core/ApplicationErrorReport.h</text>
</a>
</g>
<!-- Node16&#45;&gt;Node17 -->
<g id="edge34" class="edge"><title>Node16&#45;&gt;Node17</title>
<path fill="none" stroke="midnightblue" d="M2577.67,-165.667C2583.32,-156.295 2589.9,-145.402 2594.62,-137.571"/>
<polygon fill="midnightblue" stroke="midnightblue" points="2574.59,-163.992 2572.42,-174.362 2580.58,-167.608 2574.59,-163.992"/>
</g>
<!-- Node18 -->
<g id="node36" class="node"><title>Node18</title>
<a xlink:href="../../d1/dbb/_i_binder_8h.html" target="_top" xlink:title="/home/vilon_tao/gaia/sdk/include/gaia/core/ipc/IBinder.h">
<polygon fill="white" stroke="black" points="2774,-116.5 2774,-137.5 3034,-137.5 3034,-116.5 2774,-116.5"/>
<text text-anchor="middle" x="2904" y="-124.5" font-family="Helvetica,sans-Serif" font-size="10.00">/home/vilon_tao/gaia/sdk/include/gaia/core/ipc/IBinder.h</text>
</a>
</g>
<!-- Node16&#45;&gt;Node18 -->
<g id="edge36" class="edge"><title>Node16&#45;&gt;Node18</title>
<path fill="none" stroke="midnightblue" d="M2637.13,-172.794C2698.03,-162.345 2784.79,-147.456 2842.68,-137.523"/>
<polygon fill="midnightblue" stroke="midnightblue" points="2636.47,-169.356 2627.21,-174.497 2637.66,-176.255 2636.47,-169.356"/>
</g>
<!-- Node19 -->
<g id="node38" class="node"><title>Node19</title>
<a xlink:href="../../de/dc3/_delegate_connection_8h.html" target="_top" xlink:title="/home/vilon_tao/gaia/sdk/include/gaia/core/DelegateConnection.h">
<polygon fill="white" stroke="black" points="2456,-58.5 2456,-79.5 2758,-79.5 2758,-58.5 2456,-58.5"/>
<text text-anchor="middle" x="2607" y="-66.5" font-family="Helvetica,sans-Serif" font-size="10.00">/home/vilon_tao/gaia/sdk/include/gaia/core/DelegateConnection.h</text>
</a>
</g>
<!-- Node18&#45;&gt;Node19 -->
<g id="edge38" class="edge"><title>Node18&#45;&gt;Node19</title>
<path fill="none" stroke="midnightblue" d="M2840.17,-114.535C2786.73,-104.099 2711.33,-89.374 2660.89,-79.5231"/>
<polygon fill="midnightblue" stroke="midnightblue" points="2839.73,-118.015 2850.22,-116.497 2841.07,-111.145 2839.73,-118.015"/>
</g>
<!-- Node20 -->
<g id="node40" class="node"><title>Node20</title>
<a xlink:href="../../da/de3/_binder_8h.html" target="_top" xlink:title="/home/vilon_tao/gaia/sdk/include/gaia/core/ipc/Binder.h">
<polygon fill="white" stroke="red" points="2775.5,-58.5 2775.5,-79.5 3032.5,-79.5 3032.5,-58.5 2775.5,-58.5"/>
<text text-anchor="middle" x="2904" y="-66.5" font-family="Helvetica,sans-Serif" font-size="10.00">/home/vilon_tao/gaia/sdk/include/gaia/core/ipc/Binder.h</text>
</a>
</g>
<!-- Node18&#45;&gt;Node20 -->
<g id="edge40" class="edge"><title>Node18&#45;&gt;Node20</title>
<path fill="none" stroke="midnightblue" d="M2904,-106.191C2904,-97.1684 2904,-86.9941 2904,-79.5707"/>
<polygon fill="midnightblue" stroke="midnightblue" points="2900.5,-106.362 2904,-116.362 2907.5,-106.362 2900.5,-106.362"/>
</g>
<!-- Node20&#45;&gt;Node21 -->
<g id="edge42" class="edge"><title>Node20&#45;&gt;Node21</title>
<path fill="none" stroke="midnightblue" d="M2850.13,-56.1424C2806.52,-45.7328 2745.85,-31.2511 2705.09,-21.5231"/>
<polygon fill="midnightblue" stroke="midnightblue" points="2849.46,-59.5793 2859.99,-58.4966 2851.08,-52.7706 2849.46,-59.5793"/>
</g>
<!-- Node22&#45;&gt;Node6 -->
<g id="edge48" class="edge"><title>Node22&#45;&gt;Node6</title>
<path fill="none" stroke="midnightblue" d="M1070.05,-172.274C1024.24,-161.855 960.215,-147.292 917.265,-137.523"/>
<polygon fill="midnightblue" stroke="midnightblue" points="1069.29,-175.692 1079.82,-174.497 1070.85,-168.866 1069.29,-175.692"/>
</g>
<!-- Node22&#45;&gt;Node8 -->
<g id="edge50" class="edge"><title>Node22&#45;&gt;Node8</title>
<path fill="none" stroke="midnightblue" d="M1150.17,-168.377C1183.22,-143.606 1235.34,-95.8609 1207,-58 1195.03,-42.0073 1149.47,-29.5991 1110.01,-21.5581"/>
<polygon fill="midnightblue" stroke="midnightblue" points="1147.87,-165.728 1141.84,-174.444 1151.99,-171.387 1147.87,-165.728"/>
</g>
<!-- Node22&#45;&gt;Node9 -->
<g id="edge52" class="edge"><title>Node22&#45;&gt;Node9</title>
<path fill="none" stroke="midnightblue" d="M987.957,-173.607C883.437,-164.294 748.955,-150.646 695,-138 622.169,-120.93 587.651,-135.046 537,-80 522.024,-63.725 518.689,-36.7237 518.046,-21.7807"/>
<polygon fill="midnightblue" stroke="midnightblue" points="987.705,-177.099 997.975,-174.495 988.323,-170.126 987.705,-177.099"/>
</g>
<!-- Node22&#45;&gt;Node10 -->
<g id="edge54" class="edge"><title>Node22&#45;&gt;Node10</title>
<path fill="none" stroke="midnightblue" d="M1110.1,-166.744C1088.77,-142.243 1051.57,-99.5134 1034.3,-79.6792"/>
<polygon fill="midnightblue" stroke="midnightblue" points="1107.47,-169.051 1116.68,-174.295 1112.75,-164.455 1107.47,-169.051"/>
</g>
<!-- Node23 -->
<g id="node46" class="node"><title>Node23</title>
<a xlink:href="../../d3/dda/_account_manager_future_8h.html" target="_top" xlink:title="/home/vilon_tao/gaia/sdk/include/gaia/accounts/AccountManagerFuture.h">
<polygon fill="white" stroke="black" points="1253.5,-116.5 1253.5,-137.5 1588.5,-137.5 1588.5,-116.5 1253.5,-116.5"/>
<text text-anchor="middle" x="1421" y="-124.5" font-family="Helvetica,sans-Serif" font-size="10.00">/home/vilon_tao/gaia/sdk/include/gaia/accounts/AccountManagerFuture.h</text>
</a>
</g>
<!-- Node22&#45;&gt;Node23 -->
<g id="edge46" class="edge"><title>Node22&#45;&gt;Node23</title>
<path fill="none" stroke="midnightblue" d="M1189.4,-172.535C1242.48,-162.099 1317.37,-147.374 1367.48,-137.523"/>
<polygon fill="midnightblue" stroke="midnightblue" points="1188.56,-169.133 1179.42,-174.497 1189.91,-176.002 1188.56,-169.133"/>
</g>
<!-- Node34 -->
<g id="node73" class="node"><title>Node34</title>
<a xlink:href="../../d1/dd7/_dialer_key_listener_8h.html" target="_top" xlink:title="/home/vilon_tao/gaia/sdk/include/gaia/text/method/DialerKeyListener.h">
<polygon fill="white" stroke="black" points="5390.5,-0.5 5390.5,-21.5 5713.5,-21.5 5713.5,-0.5 5390.5,-0.5"/>
<text text-anchor="middle" x="5552" y="-8.5" font-family="Helvetica,sans-Serif" font-size="10.00">/home/vilon_tao/gaia/sdk/include/gaia/text/method/DialerKeyListener.h</text>
</a>
</g>
<!-- Node33&#45;&gt;Node34 -->
<g id="edge78" class="edge"><title>Node33&#45;&gt;Node34</title>
<path fill="none" stroke="midnightblue" d="M5422.61,-55.1443C5452.86,-44.8229 5493.54,-30.9439 5521.16,-21.5231"/>
<polygon fill="midnightblue" stroke="midnightblue" points="5421.12,-51.955 5412.79,-58.4966 5423.38,-58.5801 5421.12,-51.955"/>
</g>
<!-- Node35 -->
<g id="node75" class="node"><title>Node35</title>
<a xlink:href="../../dc/da7/_digits_key_listener_8h.html" target="_top" xlink:title="/home/vilon_tao/gaia/sdk/include/gaia/text/method/DigitsKeyListener.h">
<polygon fill="white" stroke="black" points="5050.5,-0.5 5050.5,-21.5 5373.5,-21.5 5373.5,-0.5 5050.5,-0.5"/>
<text text-anchor="middle" x="5212" y="-8.5" font-family="Helvetica,sans-Serif" font-size="10.00">/home/vilon_tao/gaia/sdk/include/gaia/text/method/DigitsKeyListener.h</text>
</a>
</g>
<!-- Node33&#45;&gt;Node35 -->
<g id="edge80" class="edge"><title>Node33&#45;&gt;Node35</title>
<path fill="none" stroke="midnightblue" d="M5341.39,-55.1443C5311.14,-44.8229 5270.46,-30.9439 5242.84,-21.5231"/>
<polygon fill="midnightblue" stroke="midnightblue" points="5340.62,-58.5801 5351.21,-58.4966 5342.88,-51.955 5340.62,-58.5801"/>
</g>
<!-- Node37 -->
<g id="node79" class="node"><title>Node37</title>
<a xlink:href="../../d3/d9f/_single_line_transformation_method_8h.html" target="_top" xlink:title="/home/vilon_tao/gaia/sdk/include/gaia/text/method/SingleLineTransformationMethod.h">
<polygon fill="white" stroke="black" points="5639.5,-116.5 5639.5,-137.5 6028.5,-137.5 6028.5,-116.5 5639.5,-116.5"/>
<text text-anchor="middle" x="5834" y="-124.5" font-family="Helvetica,sans-Serif" font-size="10.00">/home/vilon_tao/gaia/sdk/include/gaia/text/method/SingleLineTransformationMethod.h</text>
</a>
</g>
<!-- Node36&#45;&gt;Node37 -->
<g id="edge84" class="edge"><title>Node36&#45;&gt;Node37</title>
<path fill="none" stroke="midnightblue" d="M5834,-164.191C5834,-155.168 5834,-144.994 5834,-137.571"/>
<polygon fill="midnightblue" stroke="midnightblue" points="5830.5,-164.362 5834,-174.362 5837.5,-164.362 5830.5,-164.362"/>
</g>
<!-- Node40 -->
<g id="node85" class="node"><title>Node40</title>
<a xlink:href="../../d7/d1c/_spannable_8h.html" target="_top" xlink:title="/home/vilon_tao/gaia/sdk/include/gaia/text/Spannable.h">
<polygon fill="white" stroke="red" points="5029.5,-116.5 5029.5,-137.5 5286.5,-137.5 5286.5,-116.5 5029.5,-116.5"/>
<text text-anchor="middle" x="5158" y="-124.5" font-family="Helvetica,sans-Serif" font-size="10.00">/home/vilon_tao/gaia/sdk/include/gaia/text/Spannable.h</text>
</a>
</g>
<!-- Node39&#45;&gt;Node40 -->
<g id="edge90" class="edge"><title>Node39&#45;&gt;Node40</title>
<path fill="none" stroke="midnightblue" d="M5390.38,-172.535C5337.13,-162.099 5261.98,-147.374 5211.7,-137.523"/>
<polygon fill="midnightblue" stroke="midnightblue" points="5389.91,-176.008 5400.4,-174.497 5391.26,-169.139 5389.91,-176.008"/>
</g>
<!-- Node41 -->
<g id="node88" class="node"><title>Node41</title>
<a xlink:href="../../d4/d09/_spanned_string_8h.html" target="_top" xlink:title="/home/vilon_tao/gaia/sdk/include/gaia/text/SpannedString.h">
<polygon fill="white" stroke="black" points="5303.5,-116.5 5303.5,-137.5 5578.5,-137.5 5578.5,-116.5 5303.5,-116.5"/>
<text text-anchor="middle" x="5441" y="-124.5" font-family="Helvetica,sans-Serif" font-size="10.00">/home/vilon_tao/gaia/sdk/include/gaia/text/SpannedString.h</text>
</a>
</g>
<!-- Node39&#45;&gt;Node41 -->
<g id="edge94" class="edge"><title>Node39&#45;&gt;Node41</title>
<path fill="none" stroke="midnightblue" d="M5449.4,-164.488C5447.36,-155.392 5445.05,-145.076 5443.37,-137.571"/>
<polygon fill="midnightblue" stroke="midnightblue" points="5446.01,-165.37 5451.62,-174.362 5452.84,-163.838 5446.01,-165.37"/>
</g>
<!-- Node40&#45;&gt;Node33 -->
<g id="edge92" class="edge"><title>Node40&#45;&gt;Node33</title>
<path fill="none" stroke="midnightblue" d="M5208.42,-113.945C5248.57,-103.55 5304.03,-89.1897 5341.36,-79.5231"/>
<polygon fill="midnightblue" stroke="midnightblue" points="5207.37,-110.602 5198.56,-116.497 5209.12,-117.378 5207.37,-110.602"/>
</g>
<!-- Node44 -->
<g id="node94" class="node"><title>Node44</title>
<a xlink:href="../../d3/d23/_check_box_8h.html" target="_top" xlink:title="/home/vilon_tao/gaia/sdk/include/gaia/ui/CheckBox.h">
<polygon fill="white" stroke="black" points="6945,-116.5 6945,-137.5 7193,-137.5 7193,-116.5 6945,-116.5"/>
<text text-anchor="middle" x="7069" y="-124.5" font-family="Helvetica,sans-Serif" font-size="10.00">/home/vilon_tao/gaia/sdk/include/gaia/ui/CheckBox.h</text>
</a>
</g>
<!-- Node43&#45;&gt;Node44 -->
<g id="edge100" class="edge"><title>Node43&#45;&gt;Node44</title>
<path fill="none" stroke="midnightblue" d="M6856.07,-172.404C6904.97,-161.977 6973.65,-147.333 7019.65,-137.523"/>
<polygon fill="midnightblue" stroke="midnightblue" points="6855.31,-168.988 6846.26,-174.497 6856.77,-175.834 6855.31,-168.988"/>
</g>
<!-- Node45 -->
<g id="node96" class="node"><title>Node45</title>
<a xlink:href="../../d0/d74/_radio_button_8h.html" target="_top" xlink:title="/home/vilon_tao/gaia/sdk/include/gaia/ui/RadioButton.h">
<polygon fill="white" stroke="black" points="6143,-116.5 6143,-137.5 6399,-137.5 6399,-116.5 6143,-116.5"/>
<text text-anchor="middle" x="6271" y="-124.5" font-family="Helvetica,sans-Serif" font-size="10.00">/home/vilon_tao/gaia/sdk/include/gaia/ui/RadioButton.h</text>
</a>
</g>
<!-- Node43&#45;&gt;Node45 -->
<g id="edge102" class="edge"><title>Node43&#45;&gt;Node45</title>
<path fill="none" stroke="midnightblue" d="M6691.54,-173.371C6596.57,-162.899 6458.19,-147.64 6366.43,-137.523"/>
<polygon fill="midnightblue" stroke="midnightblue" points="6691.42,-176.879 6701.75,-174.497 6692.19,-169.922 6691.42,-176.879"/>
</g>
<!-- Node46 -->
<g id="node98" class="node"><title>Node46</title>
<a xlink:href="../../d0/d26/_switch_8h.html" target="_top" xlink:title="/home/vilon_tao/gaia/sdk/include/gaia/ui/Switch.h">
<polygon fill="white" stroke="black" points="6417,-116.5 6417,-137.5 6649,-137.5 6649,-116.5 6417,-116.5"/>
<text text-anchor="middle" x="6533" y="-124.5" font-family="Helvetica,sans-Serif" font-size="10.00">/home/vilon_tao/gaia/sdk/include/gaia/ui/Switch.h</text>
</a>
</g>
<!-- Node43&#45;&gt;Node46 -->
<g id="edge104" class="edge"><title>Node43&#45;&gt;Node46</title>
<path fill="none" stroke="midnightblue" d="M6739.37,-172.339C6691.93,-161.916 6625.46,-147.313 6580.9,-137.523"/>
<polygon fill="midnightblue" stroke="midnightblue" points="6738.67,-175.769 6749.19,-174.497 6740.18,-168.932 6738.67,-175.769"/>
</g>
<!-- Node47 -->
<g id="node100" class="node"><title>Node47</title>
<a xlink:href="../../de/dd2/_toggle_button_8h.html" target="_top" xlink:title="/home/vilon_tao/gaia/sdk/include/gaia/ui/ToggleButton.h">
<polygon fill="white" stroke="black" points="6667,-116.5 6667,-137.5 6927,-137.5 6927,-116.5 6667,-116.5"/>
<text text-anchor="middle" x="6797" y="-124.5" font-family="Helvetica,sans-Serif" font-size="10.00">/home/vilon_tao/gaia/sdk/include/gaia/ui/ToggleButton.h</text>
</a>
</g>
<!-- Node43&#45;&gt;Node47 -->
<g id="edge106" class="edge"><title>Node43&#45;&gt;Node47</title>
<path fill="none" stroke="midnightblue" d="M6797,-164.191C6797,-155.168 6797,-144.994 6797,-137.571"/>
<polygon fill="midnightblue" stroke="midnightblue" points="6793.5,-164.362 6797,-174.362 6800.5,-164.362 6793.5,-164.362"/>
</g>
<!-- Node49 -->
<g id="node104" class="node"><title>Node49</title>
<a xlink:href="../../d4/da1/_auto_complete_edit_widget_8h.html" target="_top" xlink:title="/home/vilon_tao/gaia/sdk/include/gaia/ui/AutoCompleteEditWidget.h">
<polygon fill="white" stroke="black" points="7211,-116.5 7211,-137.5 7523,-137.5 7523,-116.5 7211,-116.5"/>
<text text-anchor="middle" x="7367" y="-124.5" font-family="Helvetica,sans-Serif" font-size="10.00">/home/vilon_tao/gaia/sdk/include/gaia/ui/AutoCompleteEditWidget.h</text>
</a>
</g>
<!-- Node48&#45;&gt;Node49 -->
<g id="edge110" class="edge"><title>Node48&#45;&gt;Node49</title>
<path fill="none" stroke="midnightblue" d="M7164.05,-172.274C7210.75,-161.855 7276.04,-147.292 7319.83,-137.523"/>
<polygon fill="midnightblue" stroke="midnightblue" points="7163.08,-168.903 7154.08,-174.497 7164.61,-175.735 7163.08,-168.903"/>
</g>
</g>
</svg>
