<?xml version="1.0" encoding="UTF-8" standalone="no"?>
<!DOCTYPE svg PUBLIC "-//W3C//DTD SVG 1.1//EN"
 "http://www.w3.org/Graphics/SVG/1.1/DTD/svg11.dtd">
<!-- Generated by graphviz version 2.26.3 (20100126.1600)
 -->
<!-- Title: G Pages: 1 -->
<svg width="330pt" height="146pt"
 viewBox="0.00 0.00 330.00 146.00" xmlns="http://www.w3.org/2000/svg" xmlns:xlink="http://www.w3.org/1999/xlink">
<g id="graph1" class="graph" transform="scale(1 1) rotate(0) translate(4 142)">
<title>G</title>
<polygon fill="white" stroke="white" points="-4,5 -4,-142 327,-142 327,5 -4,5"/>
<!-- Node1 -->
<g id="node1" class="node"><title>Node1</title>
<polygon fill="#bfbfbf" stroke="black" points="-0.5,-116.5 -0.5,-137.5 322.5,-137.5 322.5,-116.5 -0.5,-116.5"/>
<text text-anchor="middle" x="161" y="-124.5" font-family="Helvetica,sans-Serif" font-size="10.00">/home/vilon_tao/gaia/sdk/include/gaia/graphics/PaintFlagsDrawFilter.h</text>
</g>
<!-- Node2 -->
<g id="node3" class="node"><title>Node2</title>
<polygon fill="white" stroke="#bfbfbf" points="10,-58.5 10,-79.5 78,-79.5 78,-58.5 10,-58.5"/>
<text text-anchor="middle" x="44" y="-66.5" font-family="Helvetica,sans-Serif" font-size="10.00">sys/types.h</text>
</g>
<!-- Node1&#45;&gt;Node2 -->
<g id="edge2" class="edge"><title>Node1&#45;&gt;Node2</title>
<path fill="none" stroke="midnightblue" d="M139.812,-116.497C121.538,-107.438 94.9276,-94.2462 74.3852,-84.0628"/>
<polygon fill="midnightblue" stroke="midnightblue" points="75.9396,-80.9269 65.4256,-79.6212 72.8306,-87.1986 75.9396,-80.9269"/>
</g>
<!-- Node3 -->
<g id="node5" class="node"><title>Node3</title>
<a xlink:href="../../d9/d53/_draw_filter_8h.html" target="_top" xlink:title="gaia/graphics/DrawFilter.h">
<polygon fill="white" stroke="black" points="95.5,-58.5 95.5,-79.5 226.5,-79.5 226.5,-58.5 95.5,-58.5"/>
<text text-anchor="middle" x="161" y="-66.5" font-family="Helvetica,sans-Serif" font-size="10.00">gaia/graphics/DrawFilter.h</text>
</a>
</g>
<!-- Node1&#45;&gt;Node3 -->
<g id="edge4" class="edge"><title>Node1&#45;&gt;Node3</title>
<path fill="none" stroke="midnightblue" d="M161,-116.362C161,-108.922 161,-98.7427 161,-89.7276"/>
<polygon fill="midnightblue" stroke="midnightblue" points="164.5,-89.5706 161,-79.5707 157.5,-89.5707 164.5,-89.5706"/>
</g>
<!-- Node4 -->
<g id="node7" class="node"><title>Node4</title>
<a xlink:href="../../d1/dd0/gmacros_8h.html" target="_top" xlink:title="gaia/base/gmacros.h">
<polygon fill="white" stroke="black" points="153.5,-0.5 153.5,-21.5 260.5,-21.5 260.5,-0.5 153.5,-0.5"/>
<text text-anchor="middle" x="207" y="-8.5" font-family="Helvetica,sans-Serif" font-size="10.00">gaia/base/gmacros.h</text>
</a>
</g>
<!-- Node1&#45;&gt;Node4 -->
<g id="edge8" class="edge"><title>Node1&#45;&gt;Node4</title>
<path fill="none" stroke="midnightblue" d="M190.585,-116.479C206.829,-109.006 225.545,-97.2064 235,-80 243.971,-63.6742 233.972,-43.8664 223.516,-29.6688"/>
<polygon fill="midnightblue" stroke="midnightblue" points="226.083,-27.273 217.112,-21.635 220.609,-31.6363 226.083,-27.273"/>
</g>
<!-- Node3&#45;&gt;Node4 -->
<g id="edge6" class="edge"><title>Node3&#45;&gt;Node4</title>
<path fill="none" stroke="midnightblue" d="M169.437,-58.3619C175.792,-50.3496 184.666,-39.1605 192.193,-29.6696"/>
<polygon fill="midnightblue" stroke="midnightblue" points="195.145,-31.5805 198.616,-21.5707 189.66,-27.2308 195.145,-31.5805"/>
</g>
</g>
</svg>
