<?xml version="1.0" encoding="UTF-8" standalone="no"?>
<!DOCTYPE svg PUBLIC "-//W3C//DTD SVG 1.1//EN"
 "http://www.w3.org/Graphics/SVG/1.1/DTD/svg11.dtd">
<!-- Generated by graphviz version 2.26.3 (20100126.1600)
 -->
<!-- Title: G Pages: 1 -->
<svg width="308pt" height="200pt"
 viewBox="0.00 0.00 308.00 200.00" xmlns="http://www.w3.org/2000/svg" xmlns:xlink="http://www.w3.org/1999/xlink">
<g id="graph1" class="graph" transform="scale(1 1) rotate(0) translate(4 196)">
<title>G</title>
<polygon fill="white" stroke="white" points="-4,5 -4,-196 305,-196 305,5 -4,5"/>
<!-- Node1 -->
<g id="node1" class="node"><title>Node1</title>
<polygon fill="#bfbfbf" stroke="black" points="146,-0.5 146,-21.5 270,-21.5 270,-0.5 146,-0.5"/>
<text text-anchor="middle" x="208" y="-8.5" font-family="Helvetica,sans-Serif" font-size="10.00">gaia::security::KeyChain</text>
</g>
<!-- Node2 -->
<g id="node2" class="node"><title>Node2</title>
<a xlink:href="../../d5/da3/classgaia_1_1security_1_1_trusted_certificate_store.html" target="_top" xlink:title="gaia::security::TrustedCertificateStore">
<polygon fill="white" stroke="black" points="0,-72.5 0,-93.5 182,-93.5 182,-72.5 0,-72.5"/>
<text text-anchor="middle" x="91" y="-80.5" font-family="Helvetica,sans-Serif" font-size="10.00">gaia::security::TrustedCertificateStore</text>
</a>
</g>
<!-- Node2&#45;&gt;Node1 -->
<g id="edge2" class="edge"><title>Node2&#45;&gt;Node1</title>
<path fill="none" stroke="#9a32cd" stroke-dasharray="5,2" d="M116.947,-67.0325C139.384,-53.2252 171.193,-33.6502 190.665,-21.6674"/>
<polygon fill="#9a32cd" stroke="#9a32cd" points="114.946,-64.1543 108.264,-72.3762 118.615,-70.1159 114.946,-64.1543"/>
<text text-anchor="middle" x="189.5" y="-44.5" font-family="Helvetica,sans-Serif" font-size="10.00"> mpCertStore</text>
</g>
<!-- Node3 -->
<g id="node4" class="node"><title>Node3</title>
<a xlink:href="../../d4/d31/classgaia_1_1storage_1_1_file.html" target="_top" xlink:title="An &quot;abstract&quot; representation of a file system entity identified by a pathname.">
<polygon fill="white" stroke="black" points="43.5,-170.5 43.5,-191.5 138.5,-191.5 138.5,-170.5 43.5,-170.5"/>
<text text-anchor="middle" x="91" y="-178.5" font-family="Helvetica,sans-Serif" font-size="10.00">gaia::storage::File</text>
</a>
</g>
<!-- Node3&#45;&gt;Node2 -->
<g id="edge4" class="edge"><title>Node3&#45;&gt;Node2</title>
<path fill="none" stroke="#9a32cd" stroke-dasharray="5,2" d="M91,-159.957C91,-139.557 91,-109.443 91,-93.6129"/>
<polygon fill="#9a32cd" stroke="#9a32cd" points="87.5001,-160.138 91,-170.138 94.5001,-160.138 87.5001,-160.138"/>
<text text-anchor="middle" x="123" y="-142.5" font-family="Helvetica,sans-Serif" font-size="10.00"> mpDeletedDir</text>
<text text-anchor="middle" x="123" y="-129.5" font-family="Helvetica,sans-Serif" font-size="10.00">mpAddedDir</text>
<text text-anchor="middle" x="123" y="-116.5" font-family="Helvetica,sans-Serif" font-size="10.00">mpSystemDir</text>
</g>
<!-- Node4 -->
<g id="node6" class="node"><title>Node4</title>
<a xlink:href="../../d0/d05/classgaia_1_1core_1_1_context.html" target="_top" xlink:title="Interface to global information about an application environment.">
<polygon fill="white" stroke="black" points="200,-72.5 200,-93.5 300,-93.5 300,-72.5 200,-72.5"/>
<text text-anchor="middle" x="250" y="-80.5" font-family="Helvetica,sans-Serif" font-size="10.00">gaia::core::Context</text>
</a>
</g>
<!-- Node4&#45;&gt;Node1 -->
<g id="edge6" class="edge"><title>Node4&#45;&gt;Node1</title>
<path fill="none" stroke="#9a32cd" stroke-dasharray="5,2" d="M238.578,-63.4193C230.734,-49.9734 220.622,-32.6384 214.223,-21.6674"/>
<polygon fill="#9a32cd" stroke="#9a32cd" points="235.741,-65.5019 243.803,-72.3762 241.787,-61.9748 235.741,-65.5019"/>
<text text-anchor="middle" x="258" y="-44.5" font-family="Helvetica,sans-Serif" font-size="10.00"> mpContext</text>
</g>
</g>
</svg>
