<?xml version="1.0" encoding="UTF-8" standalone="no"?>
<!DOCTYPE svg PUBLIC "-//W3C//DTD SVG 1.1//EN"
 "http://www.w3.org/Graphics/SVG/1.1/DTD/svg11.dtd">
<!-- Generated by graphviz version 2.26.3 (20100126.1600)
 -->
<!-- Title: G Pages: 1 -->
<svg width="573pt" height="320pt"
 viewBox="0.00 0.00 573.00 320.00" xmlns="http://www.w3.org/2000/svg" xmlns:xlink="http://www.w3.org/1999/xlink">
<g id="graph1" class="graph" transform="scale(1 1) rotate(0) translate(4 316)">
<title>G</title>
<polygon fill="white" stroke="white" points="-4,5 -4,-316 570,-316 570,5 -4,5"/>
<!-- Node1 -->
<g id="node1" class="node"><title>Node1</title>
<polygon fill="#bfbfbf" stroke="black" points="0,-290.5 0,-311.5 346,-311.5 346,-290.5 0,-290.5"/>
<text text-anchor="middle" x="173" y="-298.5" font-family="Helvetica,sans-Serif" font-size="10.00">/home/vilon_tao/gaia/sdk/include/gaia/ui/IGalleryOnItemLongClickListener.h</text>
</g>
<!-- Node2 -->
<g id="node3" class="node"><title>Node2</title>
<a xlink:href="../../d1/d14/_abs_list_widget_8h.html" target="_top" xlink:title="gaia/ui/AbsListWidget.h">
<polygon fill="white" stroke="black" points="173,-232.5 173,-253.5 293,-253.5 293,-232.5 173,-232.5"/>
<text text-anchor="middle" x="233" y="-240.5" font-family="Helvetica,sans-Serif" font-size="10.00">gaia/ui/AbsListWidget.h</text>
</a>
</g>
<!-- Node1&#45;&gt;Node2 -->
<g id="edge2" class="edge"><title>Node1&#45;&gt;Node2</title>
<path fill="none" stroke="midnightblue" d="M184.005,-290.362C192.547,-282.104 204.58,-270.472 214.583,-260.803"/>
<polygon fill="midnightblue" stroke="midnightblue" points="217.308,-263.037 222.065,-253.571 212.442,-258.004 217.308,-263.037"/>
</g>
<!-- Node6 -->
<g id="node11" class="node"><title>Node6</title>
<a xlink:href="../../d4/d75/_widget_8h.html" target="_top" xlink:title="gaia/core/vision/Widget.h">
<polygon fill="white" stroke="black" points="190.5,-116.5 190.5,-137.5 317.5,-137.5 317.5,-116.5 190.5,-116.5"/>
<text text-anchor="middle" x="254" y="-124.5" font-family="Helvetica,sans-Serif" font-size="10.00">gaia/core/vision/Widget.h</text>
</a>
</g>
<!-- Node1&#45;&gt;Node6 -->
<g id="edge26" class="edge"><title>Node1&#45;&gt;Node6</title>
<path fill="none" stroke="midnightblue" d="M169.127,-290.346C161.372,-267.003 146.665,-210.516 171,-174 180.582,-159.621 196.142,-149.156 211.215,-141.802"/>
<polygon fill="midnightblue" stroke="midnightblue" points="212.806,-144.924 220.479,-137.618 209.925,-138.545 212.806,-144.924"/>
</g>
<!-- Node3 -->
<g id="node5" class="node"><title>Node3</title>
<a xlink:href="../../d6/d52/_widget_controller_8h.html" target="_top" xlink:title="gaia/core/vision/WidgetController.h">
<polygon fill="white" stroke="black" points="179.5,-174.5 179.5,-195.5 348.5,-195.5 348.5,-174.5 179.5,-174.5"/>
<text text-anchor="middle" x="264" y="-182.5" font-family="Helvetica,sans-Serif" font-size="10.00">gaia/core/vision/WidgetController.h</text>
</a>
</g>
<!-- Node2&#45;&gt;Node3 -->
<g id="edge4" class="edge"><title>Node2&#45;&gt;Node3</title>
<path fill="none" stroke="midnightblue" d="M238.686,-232.362C242.837,-224.595 248.584,-213.843 253.553,-204.546"/>
<polygon fill="midnightblue" stroke="midnightblue" points="256.723,-206.04 258.35,-195.571 250.55,-202.74 256.723,-206.04"/>
</g>
<!-- Node7 -->
<g id="node13" class="node"><title>Node7</title>
<a xlink:href="../../d1/dd0/gmacros_8h.html" target="_top" xlink:title="gaia/base/gmacros.h">
<polygon fill="white" stroke="black" points="55.5,-58.5 55.5,-79.5 162.5,-79.5 162.5,-58.5 55.5,-58.5"/>
<text text-anchor="middle" x="109" y="-66.5" font-family="Helvetica,sans-Serif" font-size="10.00">gaia/base/gmacros.h</text>
</a>
</g>
<!-- Node2&#45;&gt;Node7 -->
<g id="edge22" class="edge"><title>Node2&#45;&gt;Node7</title>
<path fill="none" stroke="midnightblue" d="M214.595,-232.333C201.175,-223.836 183.267,-210.919 171,-196 143.882,-163.019 124.982,-116.191 115.659,-89.5823"/>
<polygon fill="midnightblue" stroke="midnightblue" points="118.877,-88.1733 112.354,-79.8245 112.247,-90.4188 118.877,-88.1733"/>
</g>
<!-- Node11 -->
<g id="node23" class="node"><title>Node11</title>
<polygon fill="white" stroke="#bfbfbf" points="366,-174.5 366,-195.5 414,-195.5 414,-174.5 366,-174.5"/>
<text text-anchor="middle" x="390" y="-182.5" font-family="Helvetica,sans-Serif" font-size="10.00">limits.h</text>
</g>
<!-- Node2&#45;&gt;Node11 -->
<g id="edge24" class="edge"><title>Node2&#45;&gt;Node11</title>
<path fill="none" stroke="midnightblue" d="M261.432,-232.497C288.149,-222.627 328.147,-207.85 356.423,-197.404"/>
<polygon fill="midnightblue" stroke="midnightblue" points="357.727,-200.654 365.895,-193.905 355.301,-194.087 357.727,-200.654"/>
</g>
<!-- Node4 -->
<g id="node7" class="node"><title>Node4</title>
<a xlink:href="../../d3/dd0/_event_control_8h.html" target="_top" xlink:title="gaia/core/event/EventControl.h">
<polygon fill="white" stroke="black" points="413,-116.5 413,-137.5 565,-137.5 565,-116.5 413,-116.5"/>
<text text-anchor="middle" x="489" y="-124.5" font-family="Helvetica,sans-Serif" font-size="10.00">gaia/core/event/EventControl.h</text>
</a>
</g>
<!-- Node3&#45;&gt;Node4 -->
<g id="edge6" class="edge"><title>Node3&#45;&gt;Node4</title>
<path fill="none" stroke="midnightblue" d="M304.746,-174.497C342.221,-164.836 397.927,-150.477 438.272,-140.077"/>
<polygon fill="midnightblue" stroke="midnightblue" points="439.368,-143.409 448.178,-137.523 437.621,-136.63 439.368,-143.409"/>
</g>
<!-- Node3&#45;&gt;Node6 -->
<g id="edge10" class="edge"><title>Node3&#45;&gt;Node6</title>
<path fill="none" stroke="midnightblue" d="M262.166,-174.362C260.869,-166.84 259.089,-156.519 257.523,-147.431"/>
<polygon fill="midnightblue" stroke="midnightblue" points="260.971,-146.831 255.823,-137.571 254.073,-148.02 260.971,-146.831"/>
</g>
<!-- Node5 -->
<g id="node9" class="node"><title>Node5</title>
<polygon fill="white" stroke="#bfbfbf" points="471,-0.5 471,-21.5 539,-21.5 539,-0.5 471,-0.5"/>
<text text-anchor="middle" x="505" y="-8.5" font-family="Helvetica,sans-Serif" font-size="10.00">sys/types.h</text>
</g>
<!-- Node4&#45;&gt;Node5 -->
<g id="edge8" class="edge"><title>Node4&#45;&gt;Node5</title>
<path fill="none" stroke="midnightblue" d="M510.998,-116.365C524.68,-108.433 541.122,-96.1794 549,-80 558.057,-61.3995 542.575,-41.6344 527.539,-28.0479"/>
<polygon fill="midnightblue" stroke="midnightblue" points="529.745,-25.3297 519.849,-21.5451 525.225,-30.6748 529.745,-25.3297"/>
</g>
<!-- Node6&#45;&gt;Node7 -->
<g id="edge12" class="edge"><title>Node6&#45;&gt;Node7</title>
<path fill="none" stroke="midnightblue" d="M227.742,-116.497C204.584,-107.234 170.625,-93.6499 144.948,-83.3793"/>
<polygon fill="midnightblue" stroke="midnightblue" points="146.138,-80.0855 135.553,-79.6212 143.538,-86.5849 146.138,-80.0855"/>
</g>
<!-- Node8 -->
<g id="node15" class="node"><title>Node8</title>
<a xlink:href="../../d0/d92/_property_animatable_8h.html" target="_top" xlink:title="gaia/core/animator/PropertyAnimatable.h">
<polygon fill="white" stroke="black" points="346,-58.5 346,-79.5 540,-79.5 540,-58.5 346,-58.5"/>
<text text-anchor="middle" x="443" y="-66.5" font-family="Helvetica,sans-Serif" font-size="10.00">gaia/core/animator/PropertyAnimatable.h</text>
</a>
</g>
<!-- Node6&#45;&gt;Node8 -->
<g id="edge14" class="edge"><title>Node6&#45;&gt;Node8</title>
<path fill="none" stroke="midnightblue" d="M288.226,-116.497C319.305,-106.959 365.312,-92.8408 399.09,-82.475"/>
<polygon fill="midnightblue" stroke="midnightblue" points="400.176,-85.8029 408.709,-79.5231 398.123,-79.1109 400.176,-85.8029"/>
</g>
<!-- Node9 -->
<g id="node18" class="node"><title>Node9</title>
<a xlink:href="../../d8/d50/_widget_core_8h.html" target="_top" xlink:title="gaia/core/vision/WidgetCore.h">
<polygon fill="white" stroke="black" points="180,-58.5 180,-79.5 328,-79.5 328,-58.5 180,-58.5"/>
<text text-anchor="middle" x="254" y="-66.5" font-family="Helvetica,sans-Serif" font-size="10.00">gaia/core/vision/WidgetCore.h</text>
</a>
</g>
<!-- Node6&#45;&gt;Node9 -->
<g id="edge18" class="edge"><title>Node6&#45;&gt;Node9</title>
<path fill="none" stroke="midnightblue" d="M254,-116.362C254,-108.922 254,-98.7427 254,-89.7276"/>
<polygon fill="midnightblue" stroke="midnightblue" points="257.5,-89.5706 254,-79.5707 250.5,-89.5707 257.5,-89.5706"/>
</g>
<!-- Node8&#45;&gt;Node5 -->
<g id="edge16" class="edge"><title>Node8&#45;&gt;Node5</title>
<path fill="none" stroke="midnightblue" d="M454.372,-58.3619C463.286,-50.0226 475.879,-38.2418 486.276,-28.5162"/>
<polygon fill="midnightblue" stroke="midnightblue" points="488.789,-30.9582 493.7,-21.5707 484.007,-25.8463 488.789,-30.9582"/>
</g>
<!-- Node10 -->
<g id="node20" class="node"><title>Node10</title>
<polygon fill="white" stroke="#bfbfbf" points="229.5,-0.5 229.5,-21.5 278.5,-21.5 278.5,-0.5 229.5,-0.5"/>
<text text-anchor="middle" x="254" y="-8.5" font-family="Helvetica,sans-Serif" font-size="10.00">stdint.h</text>
</g>
<!-- Node9&#45;&gt;Node10 -->
<g id="edge20" class="edge"><title>Node9&#45;&gt;Node10</title>
<path fill="none" stroke="midnightblue" d="M254,-58.3619C254,-50.9219 254,-40.7427 254,-31.7276"/>
<polygon fill="midnightblue" stroke="midnightblue" points="257.5,-31.5706 254,-21.5707 250.5,-31.5707 257.5,-31.5706"/>
</g>
</g>
</svg>
