<?xml version="1.0" encoding="UTF-8" standalone="no"?>
<!DOCTYPE svg PUBLIC "-//W3C//DTD SVG 1.1//EN"
 "http://www.w3.org/Graphics/SVG/1.1/DTD/svg11.dtd">
<!-- Generated by graphviz version 2.26.3 (20100126.1600)
 -->
<!-- Title: G Pages: 1 -->
<svg width="1286pt" height="234pt"
 viewBox="0.00 0.00 1286.00 233.86" xmlns="http://www.w3.org/2000/svg" xmlns:xlink="http://www.w3.org/1999/xlink">
<g id="graph1" class="graph" transform="scale(1 1) rotate(0) translate(4 229.864)">
<title>G</title>
<polygon fill="white" stroke="white" points="-4,5 -4,-229.864 1283,-229.864 1283,5 -4,5"/>
<!-- Node1 -->
<g id="node1" class="node"><title>Node1</title>
<polygon fill="#bfbfbf" stroke="black" points="775.5,-58.3643 775.5,-79.3643 868.5,-79.3643 868.5,-58.3643 775.5,-58.3643"/>
<text text-anchor="middle" x="822" y="-66.3643" font-family="Helvetica,sans-Serif" font-size="10.00">gaia::core::Scene</text>
</g>
<!-- Node2 -->
<g id="node2" class="node"><title>Node2</title>
<a xlink:href="../../db/d6c/classgaia_1_1core_1_1_widget_controller.html" target="_top" xlink:title="Define the default widget layout to put sets of layout in it.">
<polygon fill="white" stroke="black" points="1140,-107.364 1140,-128.364 1278,-128.364 1278,-107.364 1140,-107.364"/>
<text text-anchor="middle" x="1209" y="-115.364" font-family="Helvetica,sans-Serif" font-size="10.00">gaia::core::WidgetController</text>
</a>
</g>
<!-- Node1&#45;&gt;Node2 -->
<g id="edge14" class="edge"><title>Node1&#45;&gt;Node2</title>
<path fill="none" stroke="#9a32cd" stroke-dasharray="5,2" d="M878.978,-76.0786C948.368,-84.8644 1065.51,-99.6957 1139.95,-109.122"/>
<polygon fill="#9a32cd" stroke="#9a32cd" points="879.042,-72.5588 868.681,-74.7748 878.162,-79.5033 879.042,-72.5588"/>
<text text-anchor="middle" x="1041" y="-107.864" font-family="Helvetica,sans-Serif" font-size="10.00"> mpScene</text>
</g>
<!-- Node3 -->
<g id="node4" class="node"><title>Node3</title>
<a xlink:href="../../d8/dac/classgaia_1_1core_1_1_widget.html" target="_top" xlink:title="The Widget class is the base class of all user interface component.">
<polygon fill="white" stroke="black" points="993,-168.364 993,-189.364 1089,-189.364 1089,-168.364 993,-168.364"/>
<text text-anchor="middle" x="1041" y="-176.364" font-family="Helvetica,sans-Serif" font-size="10.00">gaia::core::Widget</text>
</a>
</g>
<!-- Node1&#45;&gt;Node3 -->
<g id="edge8" class="edge"><title>Node1&#45;&gt;Node3</title>
<path fill="none" stroke="#9a32cd" stroke-dasharray="5,2" d="M846.701,-85.0184C877.126,-104.419 930.831,-137.065 980,-158.864 987.845,-162.342 996.49,-165.538 1004.74,-168.305"/>
<polygon fill="#9a32cd" stroke="#9a32cd" points="848.342,-81.9123 838.037,-79.4496 844.557,-87.8009 848.342,-81.9123"/>
<text text-anchor="middle" x="939" y="-151.864" font-family="Helvetica,sans-Serif" font-size="10.00"> mpScene</text>
</g>
<!-- Node11 -->
<g id="node23" class="node"><title>Node11</title>
<a xlink:href="../../db/d3f/classgaia_1_1core_1_1_page.html" target="_top" xlink:title="An page is a single, focused thing that the user can do.">
<polygon fill="white" stroke="black" points="997,-35.3643 997,-56.3643 1085,-56.3643 1085,-35.3643 997,-35.3643"/>
<text text-anchor="middle" x="1041" y="-43.3643" font-family="Helvetica,sans-Serif" font-size="10.00">gaia::core::Page</text>
</a>
</g>
<!-- Node1&#45;&gt;Node11 -->
<g id="edge28" class="edge"><title>Node1&#45;&gt;Node11</title>
<path fill="none" stroke="#9a32cd" stroke-dasharray="5,2" d="M878.81,-62.898C915.663,-59.0275 962.971,-54.0591 996.971,-50.4883"/>
<polygon fill="#9a32cd" stroke="#9a32cd" points="878.292,-59.433 868.712,-63.9584 879.023,-66.3947 878.292,-59.433"/>
<text text-anchor="middle" x="939" y="-61.8643" font-family="Helvetica,sans-Serif" font-size="10.00"> mpScene</text>
</g>
<!-- Node2&#45;&gt;Node1 -->
<g id="edge2" class="edge"><title>Node2&#45;&gt;Node1</title>
<path fill="none" stroke="#9a32cd" stroke-dasharray="5,2" d="M1196.71,-98.7362C1179.21,-73.4928 1144.49,-30.2279 1102,-12.8643 1008.16,25.4893 885.567,-33.168 840.042,-58.3206"/>
<polygon fill="#9a32cd" stroke="#9a32cd" points="1193.87,-100.793 1202.36,-107.14 1199.68,-96.8879 1193.87,-100.793"/>
<text text-anchor="middle" x="1041" y="-16.8643" font-family="Helvetica,sans-Serif" font-size="10.00"> mpController</text>
</g>
<!-- Node3&#45;&gt;Node2 -->
<g id="edge4" class="edge"><title>Node3&#45;&gt;Node2</title>
<path fill="none" stroke="midnightblue" d="M1083.61,-165.191C1089.79,-163.119 1096.07,-160.97 1102,-158.864 1129.56,-149.074 1160.75,-137.009 1182.31,-128.509"/>
<polygon fill="midnightblue" stroke="midnightblue" points="1082.42,-161.898 1074.02,-168.364 1084.62,-168.543 1082.42,-161.898"/>
</g>
<!-- Node4 -->
<g id="node6" class="node"><title>Node4</title>
<a xlink:href="../../d0/db2/classgaia_1_1core_1_1_property_animatable.html" target="_top" xlink:title="Any animation object need to implement PropertyAnimatable because of setting value.">
<polygon fill="white" stroke="black" points="746.5,-204.364 746.5,-225.364 897.5,-225.364 897.5,-204.364 746.5,-204.364"/>
<text text-anchor="middle" x="822" y="-212.364" font-family="Helvetica,sans-Serif" font-size="10.00">gaia::core::PropertyAnimatable</text>
</a>
</g>
<!-- Node4&#45;&gt;Node3 -->
<g id="edge6" class="edge"><title>Node4&#45;&gt;Node3</title>
<path fill="none" stroke="midnightblue" d="M905.726,-202.847C924.277,-200.033 943.823,-196.952 962,-193.864 971.909,-192.181 982.494,-190.258 992.59,-188.363"/>
<polygon fill="midnightblue" stroke="midnightblue" points="905.201,-199.387 895.833,-204.337 906.243,-206.309 905.201,-199.387"/>
</g>
<!-- Node5 -->
<g id="node9" class="node"><title>Node5</title>
<a xlink:href="../../db/d88/classgaia_1_1core_1_1_widget_tag.html" target="_top" xlink:title="gaia::core::WidgetTag">
<polygon fill="white" stroke="black" points="765.5,-164.364 765.5,-185.364 878.5,-185.364 878.5,-164.364 765.5,-164.364"/>
<text text-anchor="middle" x="822" y="-172.364" font-family="Helvetica,sans-Serif" font-size="10.00">gaia::core::WidgetTag</text>
</a>
</g>
<!-- Node5&#45;&gt;Node3 -->
<g id="edge10" class="edge"><title>Node5&#45;&gt;Node3</title>
<path fill="none" stroke="#9a32cd" stroke-dasharray="5,2" d="M888.865,-176.086C922.384,-176.698 962.219,-177.425 992.718,-177.982"/>
<polygon fill="#9a32cd" stroke="#9a32cd" points="888.745,-172.583 878.683,-175.9 888.617,-179.582 888.745,-172.583"/>
<text text-anchor="middle" x="939" y="-180.864" font-family="Helvetica,sans-Serif" font-size="10.00"> mpTag</text>
</g>
<!-- Node6 -->
<g id="node11" class="node"><title>Node6</title>
<a xlink:href="../../dd/de0/classgaia_1_1core_1_1_event_control.html" target="_top" xlink:title="EventControl is used to dispatch event and register listener.">
<polygon fill="white" stroke="black" points="980,-128.364 980,-149.364 1102,-149.364 1102,-128.364 980,-128.364"/>
<text text-anchor="middle" x="1041" y="-136.364" font-family="Helvetica,sans-Serif" font-size="10.00">gaia::core::EventControl</text>
</a>
</g>
<!-- Node6&#45;&gt;Node2 -->
<g id="edge12" class="edge"><title>Node6&#45;&gt;Node2</title>
<path fill="none" stroke="midnightblue" d="M1112.34,-129.946C1121.49,-128.803 1130.84,-127.634 1139.95,-126.495"/>
<polygon fill="midnightblue" stroke="midnightblue" points="1111.62,-126.51 1102.13,-131.223 1112.48,-133.456 1111.62,-126.51"/>
</g>
<!-- Node7 -->
<g id="node14" class="node"><title>Node7</title>
<a xlink:href="../../de/dad/classgaia_1_1content_1_1_resources.html" target="_top" xlink:title="Class for accessing an application&#39;s resources.">
<polygon fill="white" stroke="black" points="481,-77.3643 481,-98.3643 607,-98.3643 607,-77.3643 481,-77.3643"/>
<text text-anchor="middle" x="544" y="-85.3643" font-family="Helvetica,sans-Serif" font-size="10.00">gaia::content::Resources</text>
</a>
</g>
<!-- Node7&#45;&gt;Node1 -->
<g id="edge16" class="edge"><title>Node7&#45;&gt;Node1</title>
<path fill="none" stroke="#9a32cd" stroke-dasharray="5,2" d="M617.198,-82.8616C667.217,-79.443 732.013,-75.0145 775.192,-72.0634"/>
<polygon fill="#9a32cd" stroke="#9a32cd" points="616.821,-79.3791 607.083,-83.5529 617.298,-86.3628 616.821,-79.3791"/>
<text text-anchor="middle" x="696" y="-82.8643" font-family="Helvetica,sans-Serif" font-size="10.00"> mpResources</text>
</g>
<!-- Node8 -->
<g id="node16" class="node"><title>Node8</title>
<a xlink:href="../../df/d5d/classgaia_1_1base_1_1_vector.html" target="_top" xlink:title="gaia::base::Vector\&lt; gaia::ui::DialogBox * \&gt;">
<polygon fill="white" stroke="black" points="442.5,-37.3643 442.5,-58.3643 645.5,-58.3643 645.5,-37.3643 442.5,-37.3643"/>
<text text-anchor="middle" x="544" y="-45.3643" font-family="Helvetica,sans-Serif" font-size="10.00">gaia::base::Vector&lt; gaia::ui::DialogBox * &gt;</text>
</a>
</g>
<!-- Node8&#45;&gt;Node1 -->
<g id="edge18" class="edge"><title>Node8&#45;&gt;Node1</title>
<path fill="none" stroke="#9a32cd" stroke-dasharray="5,2" d="M655.915,-52.8316C679.728,-54.2006 704.711,-55.8708 728,-57.8643 743.389,-59.1816 760.15,-61.0146 775.201,-62.807"/>
<polygon fill="#9a32cd" stroke="#9a32cd" points="655.97,-49.3293 645.79,-52.2633 655.578,-56.3183 655.97,-49.3293"/>
<text text-anchor="middle" x="696" y="-61.8643" font-family="Helvetica,sans-Serif" font-size="10.00"> mDialogList</text>
</g>
<!-- Node9 -->
<g id="node18" class="node"><title>Node9</title>
<a xlink:href="../../d0/d21/classgaia_1_1base_1_1_vector_impl.html" target="_top" xlink:title="Implements vector data structure equipped with copy&#45;on&#45;write mechanism.">
<polygon fill="white" stroke="black" points="0.5,-38.3643 0.5,-59.3643 115.5,-59.3643 115.5,-38.3643 0.5,-38.3643"/>
<text text-anchor="middle" x="58" y="-46.3643" font-family="Helvetica,sans-Serif" font-size="10.00">gaia::base::VectorImpl</text>
</a>
</g>
<!-- Node9&#45;&gt;Node8 -->
<g id="edge20" class="edge"><title>Node9&#45;&gt;Node8</title>
<path fill="none" stroke="#8b1a1a" d="M125.792,-50.7383C128.564,-50.7864 131.309,-50.8289 134,-50.8643 262.878,-52.5598 295.121,-52.475 424,-50.8643 429.939,-50.7901 436.043,-50.6952 442.201,-50.5852"/>
<polygon fill="#8b1a1a" stroke="#8b1a1a" points="125.743,-47.2368 115.677,-50.5414 125.607,-54.2354 125.743,-47.2368"/>
</g>
<!-- Node10 -->
<g id="node20" class="node"><title>Node10</title>
<a xlink:href="../../df/d5d/classgaia_1_1base_1_1_vector.html" target="_top" xlink:title="This class implements the vector data structure.">
<polygon fill="white" stroke="black" points="154,-15.3643 154,-36.3643 294,-36.3643 294,-15.3643 154,-15.3643"/>
<text text-anchor="middle" x="224" y="-23.3643" font-family="Helvetica,sans-Serif" font-size="10.00">gaia::base::Vector&lt; TYPE &gt;</text>
</a>
</g>
<!-- Node9&#45;&gt;Node10 -->
<g id="edge24" class="edge"><title>Node9&#45;&gt;Node10</title>
<path fill="none" stroke="#8b1a1a" d="M125.596,-39.4987C134.933,-38.2049 144.54,-36.8739 153.921,-35.5741"/>
<polygon fill="#8b1a1a" stroke="#8b1a1a" points="125.018,-36.0452 115.593,-40.8846 125.979,-42.9789 125.018,-36.0452"/>
</g>
<!-- Node10&#45;&gt;Node8 -->
<g id="edge22" class="edge"><title>Node10&#45;&gt;Node8</title>
<path fill="none" stroke="orange" stroke-dasharray="5,2" d="M304.465,-30.2652C340.966,-32.3714 384.675,-35.0464 424,-37.8643 429.943,-38.2901 436.05,-38.7451 442.211,-39.2174"/>
<polygon fill="orange" stroke="orange" points="304.555,-26.7646 294.371,-29.6865 304.154,-33.7532 304.555,-26.7646"/>
<text text-anchor="middle" x="368" y="-41.8643" font-family="Helvetica,sans-Serif" font-size="10.00"> &lt; gaia::ui::DialogBox * &gt;</text>
</g>
<!-- Node11&#45;&gt;Node1 -->
<g id="edge26" class="edge"><title>Node11&#45;&gt;Node1</title>
<path fill="none" stroke="#9a32cd" stroke-dasharray="5,2" d="M986.618,-34.2023C964.584,-31.1481 938.968,-29.7271 916,-33.8643 890.293,-38.4949 862.439,-49.7153 843.78,-58.2133"/>
<polygon fill="#9a32cd" stroke="#9a32cd" points="986.377,-37.7062 996.792,-35.7607 987.437,-30.7869 986.377,-37.7062"/>
<text text-anchor="middle" x="939" y="-37.8643" font-family="Helvetica,sans-Serif" font-size="10.00"> mpPage</text>
</g>
</g>
</svg>
