<?xml version="1.0" encoding="UTF-8" standalone="no"?>
<!DOCTYPE svg PUBLIC "-//W3C//DTD SVG 1.1//EN"
 "http://www.w3.org/Graphics/SVG/1.1/DTD/svg11.dtd">
<!-- Generated by graphviz version 2.26.3 (20100126.1600)
 -->
<!-- Title: G Pages: 1 -->
<svg width="760pt" height="88pt"
 viewBox="0.00 0.00 760.00 88.00" xmlns="http://www.w3.org/2000/svg" xmlns:xlink="http://www.w3.org/1999/xlink">
<g id="graph1" class="graph" transform="scale(1 1) rotate(0) translate(4 84)">
<title>G</title>
<polygon fill="white" stroke="white" points="-4,5 -4,-84 757,-84 757,5 -4,5"/>
<!-- Node1 -->
<g id="node1" class="node"><title>Node1</title>
<polygon fill="#bfbfbf" stroke="black" points="201.5,-58.5 201.5,-79.5 522.5,-79.5 522.5,-58.5 201.5,-58.5"/>
<text text-anchor="middle" x="362" y="-66.5" font-family="Helvetica,sans-Serif" font-size="10.00">/home/vilon_tao/gaia/sdk/include/gaia/media/videoeditor/VideoEditor.h</text>
</g>
<!-- Node2 -->
<g id="node3" class="node"><title>Node2</title>
<a xlink:href="../../d1/d39/_video_editor_impl_8h.html" target="_top" xlink:title="/home/vilon_tao/gaia/sdk/include/gaia/media/videoeditor/VideoEditorImpl.h">
<polygon fill="white" stroke="black" points="0,-0.5 0,-21.5 340,-21.5 340,-0.5 0,-0.5"/>
<text text-anchor="middle" x="170" y="-8.5" font-family="Helvetica,sans-Serif" font-size="10.00">/home/vilon_tao/gaia/sdk/include/gaia/media/videoeditor/VideoEditorImpl.h</text>
</a>
</g>
<!-- Node1&#45;&gt;Node2 -->
<g id="edge2" class="edge"><title>Node1&#45;&gt;Node2</title>
<path fill="none" stroke="midnightblue" d="M317.464,-55.5464C283.167,-45.1857 236.428,-31.0668 204.835,-21.5231"/>
<polygon fill="midnightblue" stroke="midnightblue" points="316.645,-58.9553 327.23,-58.4966 318.67,-52.2543 316.645,-58.9553"/>
</g>
<!-- Node3 -->
<g id="node5" class="node"><title>Node3</title>
<a xlink:href="../../d4/dec/_video_editor_progress_listener_8h.html" target="_top" xlink:title="/home/vilon_tao/gaia/sdk/include/gaia/media/videoeditor/VideoEditorProgressListener.h">
<polygon fill="white" stroke="black" points="357.5,-0.5 357.5,-21.5 752.5,-21.5 752.5,-0.5 357.5,-0.5"/>
<text text-anchor="middle" x="555" y="-8.5" font-family="Helvetica,sans-Serif" font-size="10.00">/home/vilon_tao/gaia/sdk/include/gaia/media/videoeditor/VideoEditorProgressListener.h</text>
</a>
</g>
<!-- Node1&#45;&gt;Node3 -->
<g id="edge4" class="edge"><title>Node1&#45;&gt;Node3</title>
<path fill="none" stroke="midnightblue" d="M406.768,-55.5464C441.244,-45.1857 488.226,-31.0668 519.984,-21.5231"/>
<polygon fill="midnightblue" stroke="midnightblue" points="405.52,-52.2666 396.951,-58.4966 407.535,-58.9705 405.52,-52.2666"/>
</g>
</g>
</svg>
