<?xml version="1.0" encoding="UTF-8" standalone="no"?>
<!DOCTYPE svg PUBLIC "-//W3C//DTD SVG 1.1//EN"
 "http://www.w3.org/Graphics/SVG/1.1/DTD/svg11.dtd">
<!-- Generated by graphviz version 2.26.3 (20100126.1600)
 -->
<!-- Title: G Pages: 1 -->
<svg width="393pt" height="146pt"
 viewBox="0.00 0.00 393.00 146.00" xmlns="http://www.w3.org/2000/svg" xmlns:xlink="http://www.w3.org/1999/xlink">
<g id="graph1" class="graph" transform="scale(1 1) rotate(0) translate(4 142)">
<title>G</title>
<polygon fill="white" stroke="white" points="-4,5 -4,-142 390,-142 390,5 -4,5"/>
<!-- Node1 -->
<g id="node1" class="node"><title>Node1</title>
<polygon fill="#bfbfbf" stroke="black" points="-0.5,-116.5 -0.5,-137.5 326.5,-137.5 326.5,-116.5 -0.5,-116.5"/>
<text text-anchor="middle" x="163" y="-124.5" font-family="Helvetica,sans-Serif" font-size="10.00">/home/vilon_tao/gaia/sdk/include/gaia/telephony/DefaultPhoneNotifier.h</text>
</g>
<!-- Node2 -->
<g id="node3" class="node"><title>Node2</title>
<a xlink:href="../../d1/dd0/gmacros_8h.html" target="_top" xlink:title="gaia/base/gmacros.h">
<polygon fill="white" stroke="black" points="109.5,-0.5 109.5,-21.5 216.5,-21.5 216.5,-0.5 109.5,-0.5"/>
<text text-anchor="middle" x="163" y="-8.5" font-family="Helvetica,sans-Serif" font-size="10.00">gaia/base/gmacros.h</text>
</a>
</g>
<!-- Node1&#45;&gt;Node2 -->
<g id="edge2" class="edge"><title>Node1&#45;&gt;Node2</title>
<path fill="none" stroke="midnightblue" d="M118.943,-116.475C99.8214,-109.484 79.2602,-98.1337 68,-80 52.6027,-55.2038 84.15,-36.5596 114.944,-24.9428"/>
<polygon fill="midnightblue" stroke="midnightblue" points="116.179,-28.2183 124.424,-21.5641 113.829,-21.6245 116.179,-28.2183"/>
</g>
<!-- Node3 -->
<g id="node5" class="node"><title>Node3</title>
<a xlink:href="../../d9/d50/_phone_8h.html" target="_top" xlink:title="gaia/telephony/Phone.h">
<polygon fill="white" stroke="black" points="266.5,-58.5 266.5,-79.5 385.5,-79.5 385.5,-58.5 266.5,-58.5"/>
<text text-anchor="middle" x="326" y="-66.5" font-family="Helvetica,sans-Serif" font-size="10.00">gaia/telephony/Phone.h</text>
</a>
</g>
<!-- Node1&#45;&gt;Node3 -->
<g id="edge4" class="edge"><title>Node1&#45;&gt;Node3</title>
<path fill="none" stroke="midnightblue" d="M192.518,-116.497C218.976,-107.082 257.979,-93.2036 287,-82.8773"/>
<polygon fill="midnightblue" stroke="midnightblue" points="288.179,-86.173 296.427,-79.5231 285.832,-79.578 288.179,-86.173"/>
</g>
<!-- Node5 -->
<g id="node10" class="node"><title>Node5</title>
<a xlink:href="../../de/d2b/_telephony_manager_8h.html" target="_top" xlink:title="gaia/telephony/TelephonyManager.h">
<polygon fill="white" stroke="black" points="76.5,-58.5 76.5,-79.5 249.5,-79.5 249.5,-58.5 76.5,-58.5"/>
<text text-anchor="middle" x="163" y="-66.5" font-family="Helvetica,sans-Serif" font-size="10.00">gaia/telephony/TelephonyManager.h</text>
</a>
</g>
<!-- Node1&#45;&gt;Node5 -->
<g id="edge10" class="edge"><title>Node1&#45;&gt;Node5</title>
<path fill="none" stroke="midnightblue" d="M163,-116.362C163,-108.922 163,-98.7427 163,-89.7276"/>
<polygon fill="midnightblue" stroke="midnightblue" points="166.5,-89.5706 163,-79.5707 159.5,-89.5707 166.5,-89.5706"/>
</g>
<!-- Node3&#45;&gt;Node2 -->
<g id="edge8" class="edge"><title>Node3&#45;&gt;Node2</title>
<path fill="none" stroke="midnightblue" d="M296.482,-58.4966C270.024,-49.082 231.021,-35.2036 202,-24.8773"/>
<polygon fill="midnightblue" stroke="midnightblue" points="203.168,-21.578 192.573,-21.5231 200.821,-28.173 203.168,-21.578"/>
</g>
<!-- Node4 -->
<g id="node7" class="node"><title>Node4</title>
<polygon fill="white" stroke="#bfbfbf" points="268,-0.5 268,-21.5 314,-21.5 314,-0.5 268,-0.5"/>
<text text-anchor="middle" x="291" y="-8.5" font-family="Helvetica,sans-Serif" font-size="10.00">cstdint</text>
</g>
<!-- Node3&#45;&gt;Node4 -->
<g id="edge6" class="edge"><title>Node3&#45;&gt;Node4</title>
<path fill="none" stroke="midnightblue" d="M319.58,-58.3619C314.844,-50.5131 308.268,-39.6159 302.618,-30.2527"/>
<polygon fill="midnightblue" stroke="midnightblue" points="305.542,-28.3242 297.379,-21.5707 299.549,-31.9409 305.542,-28.3242"/>
</g>
<!-- Node5&#45;&gt;Node2 -->
<g id="edge14" class="edge"><title>Node5&#45;&gt;Node2</title>
<path fill="none" stroke="midnightblue" d="M163,-58.3619C163,-50.9219 163,-40.7427 163,-31.7276"/>
<polygon fill="midnightblue" stroke="midnightblue" points="166.5,-31.5706 163,-21.5707 159.5,-31.5707 166.5,-31.5706"/>
</g>
<!-- Node5&#45;&gt;Node4 -->
<g id="edge12" class="edge"><title>Node5&#45;&gt;Node4</title>
<path fill="none" stroke="midnightblue" d="M186.18,-58.4966C206.478,-49.299 236.178,-35.8411 258.786,-25.597"/>
<polygon fill="midnightblue" stroke="midnightblue" points="260.329,-28.7406 267.993,-21.4252 257.439,-22.3646 260.329,-28.7406"/>
</g>
</g>
</svg>
