<?xml version="1.0" encoding="UTF-8" standalone="no"?>
<!DOCTYPE svg PUBLIC "-//W3C//DTD SVG 1.1//EN"
 "http://www.w3.org/Graphics/SVG/1.1/DTD/svg11.dtd">
<!-- Generated by graphviz version 2.26.3 (20100126.1600)
 -->
<!-- Title: G Pages: 1 -->
<svg width="448pt" height="204pt"
 viewBox="0.00 0.00 448.00 204.00" xmlns="http://www.w3.org/2000/svg" xmlns:xlink="http://www.w3.org/1999/xlink">
<g id="graph1" class="graph" transform="scale(1 1) rotate(0) translate(4 200)">
<title>G</title>
<polygon fill="white" stroke="white" points="-4,5 -4,-200 445,-200 445,5 -4,5"/>
<!-- Node1 -->
<g id="node1" class="node"><title>Node1</title>
<polygon fill="#bfbfbf" stroke="black" points="148,-174.5 148,-195.5 440,-195.5 440,-174.5 148,-174.5"/>
<text text-anchor="middle" x="294" y="-182.5" font-family="Helvetica,sans-Serif" font-size="10.00">/home/vilon_tao/gaia/sdk/include/gaia/core/FragmentManager.h</text>
</g>
<!-- Node2 -->
<g id="node3" class="node"><title>Node2</title>
<a xlink:href="../../db/db5/_string_8h.html" target="_top" xlink:title="gaia/base/String.h">
<polygon fill="white" stroke="black" points="185.5,-116.5 185.5,-137.5 280.5,-137.5 280.5,-116.5 185.5,-116.5"/>
<text text-anchor="middle" x="233" y="-124.5" font-family="Helvetica,sans-Serif" font-size="10.00">gaia/base/String.h</text>
</a>
</g>
<!-- Node1&#45;&gt;Node2 -->
<g id="edge2" class="edge"><title>Node1&#45;&gt;Node2</title>
<path fill="none" stroke="midnightblue" d="M282.812,-174.362C274.041,-166.023 261.651,-154.242 251.422,-144.516"/>
<polygon fill="midnightblue" stroke="midnightblue" points="253.776,-141.925 244.117,-137.571 248.953,-146.998 253.776,-141.925"/>
</g>
<!-- Node6 -->
<g id="node11" class="node"><title>Node6</title>
<polygon fill="white" stroke="#bfbfbf" points="260,-0.5 260,-21.5 328,-21.5 328,-0.5 260,-0.5"/>
<text text-anchor="middle" x="294" y="-8.5" font-family="Helvetica,sans-Serif" font-size="10.00">sys/types.h</text>
</g>
<!-- Node1&#45;&gt;Node6 -->
<g id="edge14" class="edge"><title>Node1&#45;&gt;Node6</title>
<path fill="none" stroke="midnightblue" d="M294,-174.377C294,-146.293 294,-69.6735 294,-32.2027"/>
<polygon fill="midnightblue" stroke="midnightblue" points="297.5,-31.9277 294,-21.9277 290.5,-31.9278 297.5,-31.9277"/>
</g>
<!-- Node3 -->
<g id="node5" class="node"><title>Node3</title>
<a xlink:href="../../d7/d97/_char_sequence_8h.html" target="_top" xlink:title="gaia/base/CharSequence.h">
<polygon fill="white" stroke="black" points="0,-58.5 0,-79.5 134,-79.5 134,-58.5 0,-58.5"/>
<text text-anchor="middle" x="67" y="-66.5" font-family="Helvetica,sans-Serif" font-size="10.00">gaia/base/CharSequence.h</text>
</a>
</g>
<!-- Node2&#45;&gt;Node3 -->
<g id="edge4" class="edge"><title>Node2&#45;&gt;Node3</title>
<path fill="none" stroke="midnightblue" d="M202.939,-116.497C175.993,-107.082 136.272,-93.2036 106.718,-82.8773"/>
<polygon fill="midnightblue" stroke="midnightblue" points="107.713,-79.5174 97.1177,-79.5231 105.404,-86.1257 107.713,-79.5174"/>
</g>
<!-- Node5 -->
<g id="node9" class="node"><title>Node5</title>
<a xlink:href="../../d6/d83/_hash_func_8h.html" target="_top" xlink:title="gaia/base/HashFunc.h">
<polygon fill="white" stroke="black" points="151.5,-58.5 151.5,-79.5 266.5,-79.5 266.5,-58.5 151.5,-58.5"/>
<text text-anchor="middle" x="209" y="-66.5" font-family="Helvetica,sans-Serif" font-size="10.00">gaia/base/HashFunc.h</text>
</a>
</g>
<!-- Node2&#45;&gt;Node5 -->
<g id="edge8" class="edge"><title>Node2&#45;&gt;Node5</title>
<path fill="none" stroke="midnightblue" d="M228.598,-116.362C225.418,-108.677 221.028,-98.0686 217.21,-88.8399"/>
<polygon fill="midnightblue" stroke="midnightblue" points="220.432,-87.4726 213.374,-79.5707 213.964,-90.1491 220.432,-87.4726"/>
</g>
<!-- Node2&#45;&gt;Node6 -->
<g id="edge12" class="edge"><title>Node2&#45;&gt;Node6</title>
<path fill="none" stroke="midnightblue" d="M245.365,-116.195C254.769,-107.343 267.354,-94.0287 275,-80 283.163,-65.0209 288.036,-46.2621 290.799,-32.0863"/>
<polygon fill="midnightblue" stroke="midnightblue" points="294.312,-32.313 292.585,-21.8599 287.416,-31.1084 294.312,-32.313"/>
</g>
<!-- Node4 -->
<g id="node7" class="node"><title>Node4</title>
<polygon fill="white" stroke="#bfbfbf" points="42.5,-0.5 42.5,-21.5 91.5,-21.5 91.5,-0.5 42.5,-0.5"/>
<text text-anchor="middle" x="67" y="-8.5" font-family="Helvetica,sans-Serif" font-size="10.00">stdint.h</text>
</g>
<!-- Node3&#45;&gt;Node4 -->
<g id="edge6" class="edge"><title>Node3&#45;&gt;Node4</title>
<path fill="none" stroke="midnightblue" d="M67,-58.3619C67,-50.9219 67,-40.7427 67,-31.7276"/>
<polygon fill="midnightblue" stroke="midnightblue" points="70.5001,-31.5706 67,-21.5707 63.5001,-31.5707 70.5001,-31.5706"/>
</g>
<!-- Node5&#45;&gt;Node6 -->
<g id="edge10" class="edge"><title>Node5&#45;&gt;Node6</title>
<path fill="none" stroke="midnightblue" d="M224.59,-58.3619C237.291,-49.6955 255.438,-37.3126 269.992,-27.3819"/>
<polygon fill="midnightblue" stroke="midnightblue" points="272.221,-30.0982 278.509,-21.5707 268.276,-24.316 272.221,-30.0982"/>
</g>
</g>
</svg>
