<?xml version="1.0" encoding="UTF-8" standalone="no"?>
<!DOCTYPE svg PUBLIC "-//W3C//DTD SVG 1.1//EN"
 "http://www.w3.org/Graphics/SVG/1.1/DTD/svg11.dtd">
<!-- Generated by graphviz version 2.26.3 (20100126.1600)
 -->
<!-- Title: G Pages: 1 -->
<svg width="471pt" height="204pt"
 viewBox="0.00 0.00 471.00 204.00" xmlns="http://www.w3.org/2000/svg" xmlns:xlink="http://www.w3.org/1999/xlink">
<g id="graph1" class="graph" transform="scale(1 1) rotate(0) translate(4 200)">
<title>G</title>
<polygon fill="white" stroke="white" points="-4,5 -4,-200 468,-200 468,5 -4,5"/>
<!-- Node1 -->
<g id="node1" class="node"><title>Node1</title>
<polygon fill="#bfbfbf" stroke="black" points="-0.5,-174.5 -0.5,-195.5 320.5,-195.5 320.5,-174.5 -0.5,-174.5"/>
<text text-anchor="middle" x="160" y="-182.5" font-family="Helvetica,sans-Serif" font-size="10.00">/home/vilon_tao/gaia/sdk/include/gaia/core/animator/ObjectAnimator.h</text>
</g>
<!-- Node2 -->
<g id="node3" class="node"><title>Node2</title>
<a xlink:href="../../d0/d75/_value_animator_8h.html" target="_top" xlink:title="gaia/core/animator/ValueAnimator.h">
<polygon fill="white" stroke="black" points="74,-116.5 74,-137.5 246,-137.5 246,-116.5 74,-116.5"/>
<text text-anchor="middle" x="160" y="-124.5" font-family="Helvetica,sans-Serif" font-size="10.00">gaia/core/animator/ValueAnimator.h</text>
</a>
</g>
<!-- Node1&#45;&gt;Node2 -->
<g id="edge2" class="edge"><title>Node1&#45;&gt;Node2</title>
<path fill="none" stroke="midnightblue" d="M160,-174.362C160,-166.922 160,-156.743 160,-147.728"/>
<polygon fill="midnightblue" stroke="midnightblue" points="163.5,-147.571 160,-137.571 156.5,-147.571 163.5,-147.571"/>
</g>
<!-- Node3 -->
<g id="node5" class="node"><title>Node3</title>
<polygon fill="white" stroke="#bfbfbf" points="85,-0.5 85,-21.5 153,-21.5 153,-0.5 85,-0.5"/>
<text text-anchor="middle" x="119" y="-8.5" font-family="Helvetica,sans-Serif" font-size="10.00">sys/types.h</text>
</g>
<!-- Node2&#45;&gt;Node3 -->
<g id="edge4" class="edge"><title>Node2&#45;&gt;Node3</title>
<path fill="none" stroke="midnightblue" d="M114.881,-116.41C81.8111,-107.628 41.0122,-94.3039 31,-80 14.6757,-56.6784 45.9222,-37.4359 75.6002,-25.2508"/>
<polygon fill="midnightblue" stroke="midnightblue" points="77.0688,-28.435 85.1185,-21.5464 74.5299,-21.9117 77.0688,-28.435"/>
</g>
<!-- Node4 -->
<g id="node7" class="node"><title>Node4</title>
<a xlink:href="../../dc/d04/_i_value_animator_update_listener_8h.html" target="_top" xlink:title="gaia/core/animator/IValueAnimatorUpdateListener.h">
<polygon fill="white" stroke="black" points="39.5,-58.5 39.5,-79.5 280.5,-79.5 280.5,-58.5 39.5,-58.5"/>
<text text-anchor="middle" x="160" y="-66.5" font-family="Helvetica,sans-Serif" font-size="10.00">gaia/core/animator/IValueAnimatorUpdateListener.h</text>
</a>
</g>
<!-- Node2&#45;&gt;Node4 -->
<g id="edge6" class="edge"><title>Node2&#45;&gt;Node4</title>
<path fill="none" stroke="midnightblue" d="M160,-116.362C160,-108.922 160,-98.7427 160,-89.7276"/>
<polygon fill="midnightblue" stroke="midnightblue" points="163.5,-89.5706 160,-79.5707 156.5,-89.5707 163.5,-89.5706"/>
</g>
<!-- Node5 -->
<g id="node9" class="node"><title>Node5</title>
<a xlink:href="../../de/d70/_animator_8h.html" target="_top" xlink:title="gaia/core/animator/Animator.h">
<polygon fill="white" stroke="black" points="297.5,-58.5 297.5,-79.5 444.5,-79.5 444.5,-58.5 297.5,-58.5"/>
<text text-anchor="middle" x="371" y="-66.5" font-family="Helvetica,sans-Serif" font-size="10.00">gaia/core/animator/Animator.h</text>
</a>
</g>
<!-- Node2&#45;&gt;Node5 -->
<g id="edge8" class="edge"><title>Node2&#45;&gt;Node5</title>
<path fill="none" stroke="midnightblue" d="M198.211,-116.497C233.205,-106.877 285.152,-92.5981 322.947,-82.209"/>
<polygon fill="midnightblue" stroke="midnightblue" points="324.003,-85.5485 332.718,-79.5231 322.148,-78.7988 324.003,-85.5485"/>
</g>
<!-- Node5&#45;&gt;Node3 -->
<g id="edge12" class="edge"><title>Node5&#45;&gt;Node3</title>
<path fill="none" stroke="midnightblue" d="M325.365,-58.4966C279.345,-47.9048 208.777,-31.663 163.256,-21.1858"/>
<polygon fill="midnightblue" stroke="midnightblue" points="163.909,-17.7447 153.378,-18.9125 162.339,-24.5664 163.909,-17.7447"/>
</g>
<!-- Node6 -->
<g id="node11" class="node"><title>Node6</title>
<a xlink:href="../../d1/d7b/_i_animator_listener_8h.html" target="_top" xlink:title="gaia/core/animator/IAnimatorListener.h">
<polygon fill="white" stroke="black" points="278.5,-0.5 278.5,-21.5 463.5,-21.5 463.5,-0.5 278.5,-0.5"/>
<text text-anchor="middle" x="371" y="-8.5" font-family="Helvetica,sans-Serif" font-size="10.00">gaia/core/animator/IAnimatorListener.h</text>
</a>
</g>
<!-- Node5&#45;&gt;Node6 -->
<g id="edge10" class="edge"><title>Node5&#45;&gt;Node6</title>
<path fill="none" stroke="midnightblue" d="M371,-58.3619C371,-50.9219 371,-40.7427 371,-31.7276"/>
<polygon fill="midnightblue" stroke="midnightblue" points="374.5,-31.5706 371,-21.5707 367.5,-31.5707 374.5,-31.5706"/>
</g>
</g>
</svg>
