<?xml version="1.0" encoding="UTF-8" standalone="no"?>
<!DOCTYPE svg PUBLIC "-//W3C//DTD SVG 1.1//EN"
 "http://www.w3.org/Graphics/SVG/1.1/DTD/svg11.dtd">
<!-- Generated by graphviz version 2.26.3 (20100126.1600)
 -->
<!-- Title: G Pages: 1 -->
<svg width="290pt" height="88pt"
 viewBox="0.00 0.00 290.00 88.00" xmlns="http://www.w3.org/2000/svg" xmlns:xlink="http://www.w3.org/1999/xlink">
<g id="graph1" class="graph" transform="scale(1 1) rotate(0) translate(4 84)">
<title>G</title>
<polygon fill="white" stroke="white" points="-4,5 -4,-84 287,-84 287,5 -4,5"/>
<!-- Node1 -->
<g id="node1" class="node"><title>Node1</title>
<polygon fill="#bfbfbf" stroke="black" points="86.5,-58.5 86.5,-79.5 185.5,-79.5 185.5,-58.5 86.5,-58.5"/>
<text text-anchor="middle" x="136" y="-66.5" font-family="Helvetica,sans-Serif" font-size="10.00">gaia::media::Effect</text>
</g>
<!-- Node2 -->
<g id="node3" class="node"><title>Node2</title>
<a xlink:href="../../d5/d6e/classgaia_1_1media_1_1_effect_color.html" target="_top" xlink:title="This class allows to apply color effect on a media item.">
<polygon fill="white" stroke="black" points="0,-0.5 0,-21.5 122,-21.5 122,-0.5 0,-0.5"/>
<text text-anchor="middle" x="61" y="-8.5" font-family="Helvetica,sans-Serif" font-size="10.00">gaia::media::EffectColor</text>
</a>
</g>
<!-- Node1&#45;&gt;Node2 -->
<g id="edge2" class="edge"><title>Node1&#45;&gt;Node2</title>
<path fill="none" stroke="midnightblue" d="M113.985,-51.9753C101.256,-42.1315 85.6395,-30.0545 74.6689,-21.5707"/>
<polygon fill="midnightblue" stroke="midnightblue" points="112.192,-55.0131 122.244,-58.3619 116.474,-49.4757 112.192,-55.0131"/>
</g>
<!-- Node3 -->
<g id="node5" class="node"><title>Node3</title>
<a xlink:href="../../dd/d51/classgaia_1_1media_1_1_effect_ken_burns.html" target="_top" xlink:title="This class represents a Ken Burns effect.">
<polygon fill="white" stroke="black" points="140,-0.5 140,-21.5 282,-21.5 282,-0.5 140,-0.5"/>
<text text-anchor="middle" x="211" y="-8.5" font-family="Helvetica,sans-Serif" font-size="10.00">gaia::media::EffectKenBurns</text>
</a>
</g>
<!-- Node1&#45;&gt;Node3 -->
<g id="edge4" class="edge"><title>Node1&#45;&gt;Node3</title>
<path fill="none" stroke="midnightblue" d="M158.015,-51.9753C170.744,-42.1315 186.361,-30.0545 197.331,-21.5707"/>
<polygon fill="midnightblue" stroke="midnightblue" points="155.526,-49.4757 149.756,-58.3619 159.808,-55.0131 155.526,-49.4757"/>
</g>
</g>
</svg>
