<?xml version="1.0" encoding="UTF-8" standalone="no"?>
<!DOCTYPE svg PUBLIC "-//W3C//DTD SVG 1.1//EN"
 "http://www.w3.org/Graphics/SVG/1.1/DTD/svg11.dtd">
<!-- Generated by graphviz version 2.26.3 (20100126.1600)
 -->
<!-- Title: G Pages: 1 -->
<svg width="304pt" height="146pt"
 viewBox="0.00 0.00 304.00 146.00" xmlns="http://www.w3.org/2000/svg" xmlns:xlink="http://www.w3.org/1999/xlink">
<g id="graph1" class="graph" transform="scale(1 1) rotate(0) translate(4 142)">
<title>G</title>
<polygon fill="white" stroke="white" points="-4,5 -4,-142 301,-142 301,5 -4,5"/>
<!-- Node1 -->
<g id="node1" class="node"><title>Node1</title>
<polygon fill="#bfbfbf" stroke="black" points="-0.5,-116.5 -0.5,-137.5 296.5,-137.5 296.5,-116.5 -0.5,-116.5"/>
<text text-anchor="middle" x="148" y="-124.5" font-family="Helvetica,sans-Serif" font-size="10.00">/home/vilon_tao/gaia/sdk/include/gaia/telephony/PhoneFactory.h</text>
</g>
<!-- Node2 -->
<g id="node3" class="node"><title>Node2</title>
<a xlink:href="../../d1/dd0/gmacros_8h.html" target="_top" xlink:title="gaia/base/gmacros.h">
<polygon fill="white" stroke="black" points="47.5,-0.5 47.5,-21.5 154.5,-21.5 154.5,-0.5 47.5,-0.5"/>
<text text-anchor="middle" x="101" y="-8.5" font-family="Helvetica,sans-Serif" font-size="10.00">gaia/base/gmacros.h</text>
</a>
</g>
<!-- Node1&#45;&gt;Node2 -->
<g id="edge2" class="edge"><title>Node1&#45;&gt;Node2</title>
<path fill="none" stroke="midnightblue" d="M136.323,-116.224C127.545,-107.389 116.034,-94.0817 110,-80 103.468,-64.7542 101.353,-46.0147 100.797,-31.9142"/>
<polygon fill="midnightblue" stroke="midnightblue" points="104.294,-31.697 100.63,-21.7558 97.2951,-31.8119 104.294,-31.697"/>
</g>
<!-- Node3 -->
<g id="node5" class="node"><title>Node3</title>
<a xlink:href="../../de/d2b/_telephony_manager_8h.html" target="_top" xlink:title="gaia/telephony/TelephonyManager.h">
<polygon fill="white" stroke="black" points="118.5,-58.5 118.5,-79.5 291.5,-79.5 291.5,-58.5 118.5,-58.5"/>
<text text-anchor="middle" x="205" y="-66.5" font-family="Helvetica,sans-Serif" font-size="10.00">gaia/telephony/TelephonyManager.h</text>
</a>
</g>
<!-- Node1&#45;&gt;Node3 -->
<g id="edge4" class="edge"><title>Node1&#45;&gt;Node3</title>
<path fill="none" stroke="midnightblue" d="M158.455,-116.362C166.57,-108.104 178.001,-96.4725 187.504,-86.8029"/>
<polygon fill="midnightblue" stroke="midnightblue" points="190.099,-89.1562 194.612,-79.5707 185.106,-84.2497 190.099,-89.1562"/>
</g>
<!-- Node3&#45;&gt;Node2 -->
<g id="edge8" class="edge"><title>Node3&#45;&gt;Node2</title>
<path fill="none" stroke="midnightblue" d="M185.925,-58.3619C169.945,-49.4502 146.919,-36.6087 128.873,-26.5447"/>
<polygon fill="midnightblue" stroke="midnightblue" points="130.393,-23.3846 119.954,-21.5707 126.983,-29.4982 130.393,-23.3846"/>
</g>
<!-- Node4 -->
<g id="node7" class="node"><title>Node4</title>
<polygon fill="white" stroke="#bfbfbf" points="182,-0.5 182,-21.5 228,-21.5 228,-0.5 182,-0.5"/>
<text text-anchor="middle" x="205" y="-8.5" font-family="Helvetica,sans-Serif" font-size="10.00">cstdint</text>
</g>
<!-- Node3&#45;&gt;Node4 -->
<g id="edge6" class="edge"><title>Node3&#45;&gt;Node4</title>
<path fill="none" stroke="midnightblue" d="M205,-58.3619C205,-50.9219 205,-40.7427 205,-31.7276"/>
<polygon fill="midnightblue" stroke="midnightblue" points="208.5,-31.5706 205,-21.5707 201.5,-31.5707 208.5,-31.5706"/>
</g>
</g>
</svg>
