<?xml version="1.0" encoding="UTF-8" standalone="no"?>
<!DOCTYPE svg PUBLIC "-//W3C//DTD SVG 1.1//EN"
 "http://www.w3.org/Graphics/SVG/1.1/DTD/svg11.dtd">
<!-- Generated by graphviz version 2.26.3 (20100126.1600)
 -->
<!-- Title: G Pages: 1 -->
<svg width="3358pt" height="146pt"
 viewBox="0.00 0.00 3358.00 146.00" xmlns="http://www.w3.org/2000/svg" xmlns:xlink="http://www.w3.org/1999/xlink">
<g id="graph1" class="graph" transform="scale(1 1) rotate(0) translate(4 142)">
<title>G</title>
<polygon fill="white" stroke="white" points="-4,5 -4,-142 3355,-142 3355,5 -4,5"/>
<!-- Node1 -->
<g id="node1" class="node"><title>Node1</title>
<polygon fill="#bfbfbf" stroke="black" points="1574.5,-116.5 1574.5,-137.5 1901.5,-137.5 1901.5,-116.5 1574.5,-116.5"/>
<text text-anchor="middle" x="1738" y="-124.5" font-family="Helvetica,sans-Serif" font-size="10.00">/home/vilon_tao/gaia/sdk/include/gaia/core/animator/ITimeInterpolator.h</text>
</g>
<!-- Node2 -->
<g id="node3" class="node"><title>Node2</title>
<a xlink:href="../../da/d25/_i_interpolator_8h.html" target="_top" xlink:title="/home/vilon_tao/gaia/sdk/include/gaia/core/animation/IInterpolator.h">
<polygon fill="white" stroke="black" points="1583,-58.5 1583,-79.5 1893,-79.5 1893,-58.5 1583,-58.5"/>
<text text-anchor="middle" x="1738" y="-66.5" font-family="Helvetica,sans-Serif" font-size="10.00">/home/vilon_tao/gaia/sdk/include/gaia/core/animation/IInterpolator.h</text>
</a>
</g>
<!-- Node1&#45;&gt;Node2 -->
<g id="edge2" class="edge"><title>Node1&#45;&gt;Node2</title>
<path fill="none" stroke="midnightblue" d="M1738,-106.191C1738,-97.1684 1738,-86.9941 1738,-79.5707"/>
<polygon fill="midnightblue" stroke="midnightblue" points="1734.5,-106.362 1738,-116.362 1741.5,-106.362 1734.5,-106.362"/>
</g>
<!-- Node3 -->
<g id="node5" class="node"><title>Node3</title>
<a xlink:href="../../de/d4b/_accelerate_decelerate_interpolator_8h.html" target="_top" xlink:title="/home/vilon_tao/gaia/sdk/include/gaia/core/animation/AccelerateDecelerateInterpolator.h">
<polygon fill="white" stroke="black" points="-0.5,-0.5 -0.5,-21.5 400.5,-21.5 400.5,-0.5 -0.5,-0.5"/>
<text text-anchor="middle" x="200" y="-8.5" font-family="Helvetica,sans-Serif" font-size="10.00">/home/vilon_tao/gaia/sdk/include/gaia/core/animation/AccelerateDecelerateInterpolator.h</text>
</a>
</g>
<!-- Node2&#45;&gt;Node3 -->
<g id="edge4" class="edge"><title>Node2&#45;&gt;Node3</title>
<path fill="none" stroke="midnightblue" d="M1572.66,-64.0685C1321.27,-56.3635 827.879,-40.4286 409,-22 405.37,-21.8403 401.705,-21.6763 398.012,-21.5086"/>
<polygon fill="midnightblue" stroke="midnightblue" points="1572.87,-67.5765 1582.97,-64.3842 1573.08,-60.5798 1572.87,-67.5765"/>
</g>
<!-- Node4 -->
<g id="node7" class="node"><title>Node4</title>
<a xlink:href="../../d1/dc6/_accelerate_interpolator_8h.html" target="_top" xlink:title="/home/vilon_tao/gaia/sdk/include/gaia/core/animation/AccelerateInterpolator.h">
<polygon fill="white" stroke="black" points="417.5,-0.5 417.5,-21.5 770.5,-21.5 770.5,-0.5 417.5,-0.5"/>
<text text-anchor="middle" x="594" y="-8.5" font-family="Helvetica,sans-Serif" font-size="10.00">/home/vilon_tao/gaia/sdk/include/gaia/core/animation/AccelerateInterpolator.h</text>
</a>
</g>
<!-- Node2&#45;&gt;Node4 -->
<g id="edge6" class="edge"><title>Node2&#45;&gt;Node4</title>
<path fill="none" stroke="midnightblue" d="M1572.54,-61.4151C1381.38,-52.5303 1057.4,-37.0983 779,-22 776.109,-21.8432 773.192,-21.6838 770.255,-21.5222"/>
<polygon fill="midnightblue" stroke="midnightblue" points="1572.52,-64.9179 1582.67,-61.8857 1572.84,-57.9254 1572.52,-64.9179"/>
</g>
<!-- Node5 -->
<g id="node9" class="node"><title>Node5</title>
<a xlink:href="../../d4/dd8/_anticipate_interpolator_8h.html" target="_top" xlink:title="/home/vilon_tao/gaia/sdk/include/gaia/core/animation/AnticipateInterpolator.h">
<polygon fill="white" stroke="black" points="788,-0.5 788,-21.5 1138,-21.5 1138,-0.5 788,-0.5"/>
<text text-anchor="middle" x="963" y="-8.5" font-family="Helvetica,sans-Serif" font-size="10.00">/home/vilon_tao/gaia/sdk/include/gaia/core/animation/AnticipateInterpolator.h</text>
</a>
</g>
<!-- Node2&#45;&gt;Node5 -->
<g id="edge8" class="edge"><title>Node2&#45;&gt;Node5</title>
<path fill="none" stroke="midnightblue" d="M1587.27,-57.7194C1447.23,-47.2393 1240.3,-31.7529 1103.61,-21.5231"/>
<polygon fill="midnightblue" stroke="midnightblue" points="1587.42,-61.2405 1597.65,-58.4966 1587.94,-54.26 1587.42,-61.2405"/>
</g>
<!-- Node6 -->
<g id="node11" class="node"><title>Node6</title>
<a xlink:href="../../d6/d1d/_anticipate_overshoot_interpolator_8h.html" target="_top" xlink:title="/home/vilon_tao/gaia/sdk/include/gaia/core/animation/AnticipateOvershootInterpolator.h">
<polygon fill="white" stroke="black" points="1155.5,-0.5 1155.5,-21.5 1550.5,-21.5 1550.5,-0.5 1155.5,-0.5"/>
<text text-anchor="middle" x="1353" y="-8.5" font-family="Helvetica,sans-Serif" font-size="10.00">/home/vilon_tao/gaia/sdk/include/gaia/core/animation/AnticipateOvershootInterpolator.h</text>
</a>
</g>
<!-- Node2&#45;&gt;Node6 -->
<g id="edge10" class="edge"><title>Node2&#45;&gt;Node6</title>
<path fill="none" stroke="midnightblue" d="M1658.26,-56.9877C1588.84,-46.529 1489.19,-31.5174 1422.85,-21.5231"/>
<polygon fill="midnightblue" stroke="midnightblue" points="1657.87,-60.4678 1668.28,-58.4966 1658.91,-53.5459 1657.87,-60.4678"/>
</g>
<!-- Node7 -->
<g id="node13" class="node"><title>Node7</title>
<a xlink:href="../../d1/de0/_bounce_interpolator_8h.html" target="_top" xlink:title="/home/vilon_tao/gaia/sdk/include/gaia/core/animation/BounceInterpolator.h">
<polygon fill="white" stroke="black" points="1568,-0.5 1568,-21.5 1908,-21.5 1908,-0.5 1568,-0.5"/>
<text text-anchor="middle" x="1738" y="-8.5" font-family="Helvetica,sans-Serif" font-size="10.00">/home/vilon_tao/gaia/sdk/include/gaia/core/animation/BounceInterpolator.h</text>
</a>
</g>
<!-- Node2&#45;&gt;Node7 -->
<g id="edge12" class="edge"><title>Node2&#45;&gt;Node7</title>
<path fill="none" stroke="midnightblue" d="M1738,-48.1906C1738,-39.1684 1738,-28.9941 1738,-21.5707"/>
<polygon fill="midnightblue" stroke="midnightblue" points="1734.5,-48.3619 1738,-58.3619 1741.5,-48.3619 1734.5,-48.3619"/>
</g>
<!-- Node8 -->
<g id="node15" class="node"><title>Node8</title>
<a xlink:href="../../d7/d52/_cycle_interpolator_8h.html" target="_top" xlink:title="/home/vilon_tao/gaia/sdk/include/gaia/core/animation/CycleInterpolator.h">
<polygon fill="white" stroke="black" points="1926,-0.5 1926,-21.5 2258,-21.5 2258,-0.5 1926,-0.5"/>
<text text-anchor="middle" x="2092" y="-8.5" font-family="Helvetica,sans-Serif" font-size="10.00">/home/vilon_tao/gaia/sdk/include/gaia/core/animation/CycleInterpolator.h</text>
</a>
</g>
<!-- Node2&#45;&gt;Node8 -->
<g id="edge14" class="edge"><title>Node2&#45;&gt;Node8</title>
<path fill="none" stroke="midnightblue" d="M1812.1,-56.8589C1875.9,-46.4061 1967.02,-31.4764 2027.77,-21.5231"/>
<polygon fill="midnightblue" stroke="midnightblue" points="1811.41,-53.4257 1802.11,-58.4966 1812.54,-60.3336 1811.41,-53.4257"/>
</g>
<!-- Node9 -->
<g id="node17" class="node"><title>Node9</title>
<a xlink:href="../../dd/dea/_decelerate_interpolator_8h.html" target="_top" xlink:title="/home/vilon_tao/gaia/sdk/include/gaia/core/animation/DecelerateInterpolator.h">
<polygon fill="white" stroke="black" points="2276,-0.5 2276,-21.5 2630,-21.5 2630,-0.5 2276,-0.5"/>
<text text-anchor="middle" x="2453" y="-8.5" font-family="Helvetica,sans-Serif" font-size="10.00">/home/vilon_tao/gaia/sdk/include/gaia/core/animation/DecelerateInterpolator.h</text>
</a>
</g>
<!-- Node2&#45;&gt;Node9 -->
<g id="edge16" class="edge"><title>Node2&#45;&gt;Node9</title>
<path fill="none" stroke="midnightblue" d="M1877.45,-57.6879C2006.64,-47.2083 2197.29,-31.7426 2323.28,-21.5231"/>
<polygon fill="midnightblue" stroke="midnightblue" points="1877.17,-54.1995 1867.48,-58.4966 1877.73,-61.1766 1877.17,-54.1995"/>
</g>
<!-- Node10 -->
<g id="node19" class="node"><title>Node10</title>
<a xlink:href="../../db/d64/_linear_interpolator_8h.html" target="_top" xlink:title="/home/vilon_tao/gaia/sdk/include/gaia/core/animation/LinearInterpolator.h">
<polygon fill="white" stroke="black" points="2647.5,-0.5 2647.5,-21.5 2980.5,-21.5 2980.5,-0.5 2647.5,-0.5"/>
<text text-anchor="middle" x="2814" y="-8.5" font-family="Helvetica,sans-Serif" font-size="10.00">/home/vilon_tao/gaia/sdk/include/gaia/core/animation/LinearInterpolator.h</text>
</a>
</g>
<!-- Node2&#45;&gt;Node10 -->
<g id="edge18" class="edge"><title>Node2&#45;&gt;Node10</title>
<path fill="none" stroke="midnightblue" d="M1903.2,-60.9113C2083.92,-51.9392 2382.12,-36.773 2639,-22 2641.74,-21.8427 2644.49,-21.6829 2647.27,-21.5209"/>
<polygon fill="midnightblue" stroke="midnightblue" points="1902.89,-57.4222 1893.08,-61.4135 1903.24,-64.4136 1902.89,-57.4222"/>
</g>
<!-- Node11 -->
<g id="node21" class="node"><title>Node11</title>
<a xlink:href="../../d9/d7b/_overshoot_interpolator_8h.html" target="_top" xlink:title="/home/vilon_tao/gaia/sdk/include/gaia/core/animation/OvershootInterpolator.h">
<polygon fill="white" stroke="black" points="2998,-0.5 2998,-21.5 3350,-21.5 3350,-0.5 2998,-0.5"/>
<text text-anchor="middle" x="3174" y="-8.5" font-family="Helvetica,sans-Serif" font-size="10.00">/home/vilon_tao/gaia/sdk/include/gaia/core/animation/OvershootInterpolator.h</text>
</a>
</g>
<!-- Node2&#45;&gt;Node11 -->
<g id="edge20" class="edge"><title>Node2&#45;&gt;Node11</title>
<path fill="none" stroke="midnightblue" d="M1903.28,-63.9401C2142.72,-56.3484 2600.03,-40.8683 2989,-22 2992.21,-21.8441 2995.46,-21.6836 2998.73,-21.5191"/>
<polygon fill="midnightblue" stroke="midnightblue" points="1902.98,-60.4477 1893.09,-64.2624 1903.2,-67.4442 1902.98,-60.4477"/>
</g>
</g>
</svg>
