<?xml version="1.0" encoding="UTF-8" standalone="no"?>
<!DOCTYPE svg PUBLIC "-//W3C//DTD SVG 1.1//EN"
 "http://www.w3.org/Graphics/SVG/1.1/DTD/svg11.dtd">
<!-- Generated by graphviz version 2.26.3 (20100126.1600)
 -->
<!-- Title: G Pages: 1 -->
<svg width="363pt" height="204pt"
 viewBox="0.00 0.00 363.00 204.00" xmlns="http://www.w3.org/2000/svg" xmlns:xlink="http://www.w3.org/1999/xlink">
<g id="graph1" class="graph" transform="scale(1 1) rotate(0) translate(4 200)">
<title>G</title>
<polygon fill="white" stroke="white" points="-4,5 -4,-200 360,-200 360,5 -4,5"/>
<!-- Node1 -->
<g id="node1" class="node"><title>Node1</title>
<polygon fill="#bfbfbf" stroke="black" points="43,-174.5 43,-195.5 355,-195.5 355,-174.5 43,-174.5"/>
<text text-anchor="middle" x="199" y="-182.5" font-family="Helvetica,sans-Serif" font-size="10.00">/home/vilon_tao/gaia/sdk/include/gaia/core/pm/wrt/WrtLicenseInfo.h</text>
</g>
<!-- Node2 -->
<g id="node3" class="node"><title>Node2</title>
<a xlink:href="../../d4/d7f/_vector_8h.html" target="_top" xlink:title="gaia/base/Vector.h">
<polygon fill="white" stroke="black" points="150,-116.5 150,-137.5 248,-137.5 248,-116.5 150,-116.5"/>
<text text-anchor="middle" x="199" y="-124.5" font-family="Helvetica,sans-Serif" font-size="10.00">gaia/base/Vector.h</text>
</a>
</g>
<!-- Node1&#45;&gt;Node2 -->
<g id="edge2" class="edge"><title>Node1&#45;&gt;Node2</title>
<path fill="none" stroke="midnightblue" d="M199,-174.362C199,-166.922 199,-156.743 199,-147.728"/>
<polygon fill="midnightblue" stroke="midnightblue" points="202.5,-147.571 199,-137.571 195.5,-147.571 202.5,-147.571"/>
</g>
<!-- Node3 -->
<g id="node5" class="node"><title>Node3</title>
<a xlink:href="../../d1/d86/_type_helpers_8h.html" target="_top" xlink:title="gaia/base/TypeHelpers.h">
<polygon fill="white" stroke="black" points="46.5,-58.5 46.5,-79.5 171.5,-79.5 171.5,-58.5 46.5,-58.5"/>
<text text-anchor="middle" x="109" y="-66.5" font-family="Helvetica,sans-Serif" font-size="10.00">gaia/base/TypeHelpers.h</text>
</a>
</g>
<!-- Node2&#45;&gt;Node3 -->
<g id="edge4" class="edge"><title>Node2&#45;&gt;Node3</title>
<path fill="none" stroke="midnightblue" d="M182.493,-116.362C168.918,-107.614 149.467,-95.0786 133.985,-85.1015"/>
<polygon fill="midnightblue" stroke="midnightblue" points="135.704,-82.0457 125.403,-79.5707 131.912,-87.9297 135.704,-82.0457"/>
</g>
<!-- Node6 -->
<g id="node11" class="node"><title>Node6</title>
<polygon fill="white" stroke="#bfbfbf" points="184,-0.5 184,-21.5 252,-21.5 252,-0.5 184,-0.5"/>
<text text-anchor="middle" x="218" y="-8.5" font-family="Helvetica,sans-Serif" font-size="10.00">sys/types.h</text>
</g>
<!-- Node2&#45;&gt;Node6 -->
<g id="edge18" class="edge"><title>Node2&#45;&gt;Node6</title>
<path fill="none" stroke="midnightblue" d="M200.753,-116.295C203.892,-97.1314 210.522,-56.654 214.586,-31.8434"/>
<polygon fill="midnightblue" stroke="midnightblue" points="218.088,-32.1135 216.251,-21.6792 211.18,-30.9819 218.088,-32.1135"/>
</g>
<!-- Node8 -->
<g id="node15" class="node"><title>Node8</title>
<a xlink:href="../../dc/da9/_vector_impl_8h.html" target="_top" xlink:title="gaia/base/VectorImpl.h">
<polygon fill="white" stroke="black" points="226.5,-58.5 226.5,-79.5 343.5,-79.5 343.5,-58.5 226.5,-58.5"/>
<text text-anchor="middle" x="285" y="-66.5" font-family="Helvetica,sans-Serif" font-size="10.00">gaia/base/VectorImpl.h</text>
</a>
</g>
<!-- Node2&#45;&gt;Node8 -->
<g id="edge14" class="edge"><title>Node2&#45;&gt;Node8</title>
<path fill="none" stroke="midnightblue" d="M214.774,-116.362C227.624,-107.696 245.985,-95.3126 260.71,-85.3819"/>
<polygon fill="midnightblue" stroke="midnightblue" points="262.993,-88.0639 269.326,-79.5707 259.079,-82.2604 262.993,-88.0639"/>
</g>
<!-- Node4 -->
<g id="node7" class="node"><title>Node4</title>
<polygon fill="white" stroke="#bfbfbf" points="-0.5,-0.5 -0.5,-21.5 48.5,-21.5 48.5,-0.5 -0.5,-0.5"/>
<text text-anchor="middle" x="24" y="-8.5" font-family="Helvetica,sans-Serif" font-size="10.00">stdint.h</text>
</g>
<!-- Node3&#45;&gt;Node4 -->
<g id="edge6" class="edge"><title>Node3&#45;&gt;Node4</title>
<path fill="none" stroke="midnightblue" d="M93.4097,-58.3619C80.709,-49.6955 62.5615,-37.3126 48.0079,-27.3819"/>
<polygon fill="midnightblue" stroke="midnightblue" points="49.7245,-24.316 39.4915,-21.5707 45.779,-30.0982 49.7245,-24.316"/>
</g>
<!-- Node5 -->
<g id="node9" class="node"><title>Node5</title>
<polygon fill="white" stroke="#bfbfbf" points="65.5,-0.5 65.5,-21.5 114.5,-21.5 114.5,-0.5 65.5,-0.5"/>
<text text-anchor="middle" x="90" y="-8.5" font-family="Helvetica,sans-Serif" font-size="10.00">string.h</text>
</g>
<!-- Node3&#45;&gt;Node5 -->
<g id="edge8" class="edge"><title>Node3&#45;&gt;Node5</title>
<path fill="none" stroke="midnightblue" d="M105.515,-58.3619C103.024,-50.7584 99.5963,-40.294 96.5959,-31.1349"/>
<polygon fill="midnightblue" stroke="midnightblue" points="99.902,-29.9841 93.4628,-21.5707 93.2499,-32.1634 99.902,-29.9841"/>
</g>
<!-- Node3&#45;&gt;Node6 -->
<g id="edge10" class="edge"><title>Node3&#45;&gt;Node6</title>
<path fill="none" stroke="midnightblue" d="M128.739,-58.4966C145.61,-49.5194 170.109,-36.4835 189.174,-26.3387"/>
<polygon fill="midnightblue" stroke="midnightblue" points="190.856,-29.4086 198.039,-21.6212 187.567,-23.2289 190.856,-29.4086"/>
</g>
<!-- Node7 -->
<g id="node13" class="node"><title>Node7</title>
<polygon fill="white" stroke="#bfbfbf" points="131.5,-0.5 131.5,-21.5 166.5,-21.5 166.5,-0.5 131.5,-0.5"/>
<text text-anchor="middle" x="149" y="-8.5" font-family="Helvetica,sans-Serif" font-size="10.00">new</text>
</g>
<!-- Node3&#45;&gt;Node7 -->
<g id="edge12" class="edge"><title>Node3&#45;&gt;Node7</title>
<path fill="none" stroke="midnightblue" d="M116.337,-58.3619C121.806,-50.4313 129.422,-39.3885 135.924,-29.9606"/>
<polygon fill="midnightblue" stroke="midnightblue" points="138.914,-31.7899 141.71,-21.5707 133.151,-27.8157 138.914,-31.7899"/>
</g>
<!-- Node8&#45;&gt;Node6 -->
<g id="edge16" class="edge"><title>Node8&#45;&gt;Node6</title>
<path fill="none" stroke="midnightblue" d="M272.711,-58.3619C262.983,-49.9408 249.202,-38.0105 237.905,-28.2308"/>
<polygon fill="midnightblue" stroke="midnightblue" points="240.062,-25.4695 230.211,-21.5707 235.481,-30.7619 240.062,-25.4695"/>
</g>
</g>
</svg>
