<?xml version="1.0" encoding="UTF-8" standalone="no"?>
<!DOCTYPE svg PUBLIC "-//W3C//DTD SVG 1.1//EN"
 "http://www.w3.org/Graphics/SVG/1.1/DTD/svg11.dtd">
<!-- Generated by graphviz version 2.26.3 (20100126.1600)
 -->
<!-- Title: G Pages: 1 -->
<svg width="634pt" height="204pt"
 viewBox="0.00 0.00 634.00 204.00" xmlns="http://www.w3.org/2000/svg" xmlns:xlink="http://www.w3.org/1999/xlink">
<g id="graph1" class="graph" transform="scale(1 1) rotate(0) translate(4 200)">
<title>G</title>
<polygon fill="white" stroke="white" points="-4,5 -4,-200 631,-200 631,5 -4,5"/>
<!-- Node1 -->
<g id="node1" class="node"><title>Node1</title>
<polygon fill="#bfbfbf" stroke="black" points="169,-174.5 169,-195.5 429,-195.5 429,-174.5 169,-174.5"/>
<text text-anchor="middle" x="299" y="-182.5" font-family="Helvetica,sans-Serif" font-size="10.00">/home/vilon_tao/gaia/sdk/include/gaia/core/ipc/IBinder.h</text>
</g>
<!-- Node2 -->
<g id="node3" class="node"><title>Node2</title>
<a xlink:href="../../de/dc3/_delegate_connection_8h.html" target="_top" xlink:title="/home/vilon_tao/gaia/sdk/include/gaia/core/DelegateConnection.h">
<polygon fill="white" stroke="black" points="0,-116.5 0,-137.5 302,-137.5 302,-116.5 0,-116.5"/>
<text text-anchor="middle" x="151" y="-124.5" font-family="Helvetica,sans-Serif" font-size="10.00">/home/vilon_tao/gaia/sdk/include/gaia/core/DelegateConnection.h</text>
</a>
</g>
<!-- Node1&#45;&gt;Node2 -->
<g id="edge2" class="edge"><title>Node1&#45;&gt;Node2</title>
<path fill="none" stroke="midnightblue" d="M262.64,-170.751C236.505,-160.509 201.832,-146.921 178.102,-137.621"/>
<polygon fill="midnightblue" stroke="midnightblue" points="261.611,-174.107 272.198,-174.497 264.165,-167.589 261.611,-174.107"/>
</g>
<!-- Node3 -->
<g id="node5" class="node"><title>Node3</title>
<a xlink:href="../../da/de3/_binder_8h.html" target="_top" xlink:title="/home/vilon_tao/gaia/sdk/include/gaia/core/ipc/Binder.h">
<polygon fill="white" stroke="black" points="319.5,-116.5 319.5,-137.5 576.5,-137.5 576.5,-116.5 319.5,-116.5"/>
<text text-anchor="middle" x="448" y="-124.5" font-family="Helvetica,sans-Serif" font-size="10.00">/home/vilon_tao/gaia/sdk/include/gaia/core/ipc/Binder.h</text>
</a>
</g>
<!-- Node1&#45;&gt;Node3 -->
<g id="edge4" class="edge"><title>Node1&#45;&gt;Node3</title>
<path fill="none" stroke="midnightblue" d="M335.637,-170.739C362.038,-160.462 397.08,-146.821 420.967,-137.523"/>
<polygon fill="midnightblue" stroke="midnightblue" points="334.032,-167.607 325.983,-174.497 336.571,-174.131 334.032,-167.607"/>
</g>
<!-- Node4 -->
<g id="node7" class="node"><title>Node4</title>
<a xlink:href="../../da/d82/_i_interface_8h.html" target="_top" xlink:title="/home/vilon_tao/gaia/sdk/include/gaia/core/ipc/IInterface.h">
<polygon fill="white" stroke="black" points="231,-58.5 231,-79.5 501,-79.5 501,-58.5 231,-58.5"/>
<text text-anchor="middle" x="366" y="-66.5" font-family="Helvetica,sans-Serif" font-size="10.00">/home/vilon_tao/gaia/sdk/include/gaia/core/ipc/IInterface.h</text>
</a>
</g>
<!-- Node3&#45;&gt;Node4 -->
<g id="edge6" class="edge"><title>Node3&#45;&gt;Node4</title>
<path fill="none" stroke="midnightblue" d="M424.73,-110.541C410.672,-100.597 393.17,-88.2177 380.945,-79.5707"/>
<polygon fill="midnightblue" stroke="midnightblue" points="422.775,-113.445 432.96,-116.362 426.817,-107.73 422.775,-113.445"/>
</g>
<!-- Node5 -->
<g id="node9" class="node"><title>Node5</title>
<a xlink:href="../../d6/d9e/_i_media_container_delegate_8h.html" target="_top" xlink:title="/home/vilon_tao/gaia/sdk/include/gaia/defcontainer/IMediaContainerDelegate.h">
<polygon fill="white" stroke="black" points="268,-0.5 268,-21.5 626,-21.5 626,-0.5 268,-0.5"/>
<text text-anchor="middle" x="447" y="-8.5" font-family="Helvetica,sans-Serif" font-size="10.00">/home/vilon_tao/gaia/sdk/include/gaia/defcontainer/IMediaContainerDelegate.h</text>
</a>
</g>
<!-- Node3&#45;&gt;Node5 -->
<g id="edge10" class="edge"><title>Node3&#45;&gt;Node5</title>
<path fill="none" stroke="midnightblue" d="M478.29,-111.404C498.857,-98.5377 520.551,-79.0352 510,-58 501.741,-41.5334 484.672,-29.3636 470.383,-21.5381"/>
<polygon fill="midnightblue" stroke="midnightblue" points="476.483,-108.406 469.643,-116.496 480.036,-114.438 476.483,-108.406"/>
</g>
<!-- Node4&#45;&gt;Node5 -->
<g id="edge8" class="edge"><title>Node4&#45;&gt;Node5</title>
<path fill="none" stroke="midnightblue" d="M389.38,-52.2587C403.198,-42.3641 420.275,-30.1361 432.238,-21.5707"/>
<polygon fill="midnightblue" stroke="midnightblue" points="386.95,-49.6943 380.857,-58.3619 391.025,-55.3857 386.95,-49.6943"/>
</g>
</g>
</svg>
