<?xml version="1.0" encoding="UTF-8" standalone="no"?>
<!DOCTYPE svg PUBLIC "-//W3C//DTD SVG 1.1//EN"
 "http://www.w3.org/Graphics/SVG/1.1/DTD/svg11.dtd">
<!-- Generated by graphviz version 2.26.3 (20100126.1600)
 -->
<!-- Title: G Pages: 1 -->
<svg width="762pt" height="186pt"
 viewBox="0.00 0.00 762.00 186.00" xmlns="http://www.w3.org/2000/svg" xmlns:xlink="http://www.w3.org/1999/xlink">
<g id="graph1" class="graph" transform="scale(1 1) rotate(0) translate(4 182)">
<title>G</title>
<polygon fill="white" stroke="white" points="-4,5 -4,-182 759,-182 759,5 -4,5"/>
<!-- Node1 -->
<g id="node1" class="node"><title>Node1</title>
<polygon fill="#bfbfbf" stroke="black" points="650,-63.5 650,-84.5 754,-84.5 754,-63.5 650,-63.5"/>
<text text-anchor="middle" x="702" y="-71.5" font-family="Helvetica,sans-Serif" font-size="10.00">gaia::net::HttpClient</text>
</g>
<!-- Node2 -->
<g id="node2" class="node"><title>Node2</title>
<a xlink:href="../../d2/ddb/classgaia_1_1base_1_1_string.html" target="_top" xlink:title="A String is represented by array of UTF&#45;16 values, such that Unicode supplementary characters (code p...">
<polygon fill="white" stroke="black" points="187.5,-102.5 187.5,-123.5 280.5,-123.5 280.5,-102.5 187.5,-102.5"/>
<text text-anchor="middle" x="234" y="-110.5" font-family="Helvetica,sans-Serif" font-size="10.00">gaia::base::String</text>
</a>
</g>
<!-- Node2&#45;&gt;Node1 -->
<g id="edge2" class="edge"><title>Node2&#45;&gt;Node1</title>
<path fill="none" stroke="#9a32cd" stroke-dasharray="5,2" d="M290.641,-109.672C367.901,-104.917 510.608,-95.3702 632,-83 637.729,-82.4162 643.714,-81.7434 649.668,-81.0339"/>
<polygon fill="#9a32cd" stroke="#9a32cd" points="290.406,-106.179 280.638,-110.283 290.833,-113.166 290.406,-106.179"/>
<text text-anchor="middle" x="491" y="-104" font-family="Helvetica,sans-Serif" font-size="10.00"> mStatusLine</text>
</g>
<!-- Node4 -->
<g id="node6" class="node"><title>Node4</title>
<a xlink:href="../../d3/d34/classgaia_1_1net_1_1_http_context.html" target="_top" xlink:title="A context for executing a request.">
<polygon fill="white" stroke="black" points="434.5,-129.5 434.5,-150.5 547.5,-150.5 547.5,-129.5 434.5,-129.5"/>
<text text-anchor="middle" x="491" y="-137.5" font-family="Helvetica,sans-Serif" font-size="10.00">gaia::net::HttpContext</text>
</a>
</g>
<!-- Node2&#45;&gt;Node4 -->
<g id="edge8" class="edge"><title>Node2&#45;&gt;Node4</title>
<path fill="none" stroke="#9a32cd" stroke-dasharray="5,2" d="M290.506,-118.936C333.266,-123.429 391.729,-129.571 434.49,-134.063"/>
<polygon fill="#9a32cd" stroke="#9a32cd" points="290.852,-115.454 280.541,-117.889 290.12,-122.415 290.852,-115.454"/>
<text text-anchor="middle" x="359" y="-134" font-family="Helvetica,sans-Serif" font-size="10.00"> mUserAgent</text>
</g>
<!-- Node3 -->
<g id="node4" class="node"><title>Node3</title>
<a xlink:href="../../d1/d0f/classgaia_1_1base_1_1_char_sequence.html" target="_top" xlink:title="This interface represents an ordered set of characters and defines the methods to probe them...">
<polygon fill="white" stroke="black" points="0,-102.5 0,-123.5 132,-123.5 132,-102.5 0,-102.5"/>
<text text-anchor="middle" x="66" y="-110.5" font-family="Helvetica,sans-Serif" font-size="10.00">gaia::base::CharSequence</text>
</a>
</g>
<!-- Node3&#45;&gt;Node2 -->
<g id="edge4" class="edge"><title>Node3&#45;&gt;Node2</title>
<path fill="none" stroke="midnightblue" d="M142.429,-113C157.8,-113 173.513,-113 187.485,-113"/>
<polygon fill="midnightblue" stroke="midnightblue" points="142.398,-109.5 132.398,-113 142.398,-116.5 142.398,-109.5"/>
</g>
<!-- Node4&#45;&gt;Node1 -->
<g id="edge6" class="edge"><title>Node4&#45;&gt;Node1</title>
<path fill="none" stroke="#9a32cd" stroke-dasharray="5,2" d="M557.67,-131.007C581.545,-126.684 608.381,-120.533 632,-112 651.508,-104.952 672.188,-93.1173 685.968,-84.5248"/>
<polygon fill="#9a32cd" stroke="#9a32cd" points="556.891,-127.59 547.637,-132.75 558.089,-134.487 556.891,-127.59"/>
<text text-anchor="middle" x="606" y="-129" font-family="Helvetica,sans-Serif" font-size="10.00"> mpContext</text>
</g>
<!-- Node5 -->
<g id="node9" class="node"><title>Node5</title>
<a xlink:href="../../da/dac/classgaia_1_1net_1_1_cookie_manager.html" target="_top" xlink:title="The class CacheManager often use to store cookies.">
<polygon fill="white" stroke="black" points="170,-156.5 170,-177.5 298,-177.5 298,-156.5 170,-156.5"/>
<text text-anchor="middle" x="234" y="-164.5" font-family="Helvetica,sans-Serif" font-size="10.00">gaia::net::CookieManager</text>
</a>
</g>
<!-- Node5&#45;&gt;Node4 -->
<g id="edge10" class="edge"><title>Node5&#45;&gt;Node4</title>
<path fill="none" stroke="#9a32cd" stroke-dasharray="5,2" d="M308.192,-159.206C348.32,-154.99 397.106,-149.864 434.184,-145.969"/>
<polygon fill="#9a32cd" stroke="#9a32cd" points="307.769,-155.731 298.189,-160.256 308.5,-162.692 307.769,-155.731"/>
<text text-anchor="middle" x="359" y="-162" font-family="Helvetica,sans-Serif" font-size="10.00"> mpCookieManager</text>
</g>
<!-- Node6 -->
<g id="node11" class="node"><title>Node6</title>
<a xlink:href="../../d5/dbd/classgaia_1_1net_1_1_i_http_client_listener.html" target="_top" xlink:title="IHttpClientListener handles callback functions in each stage of HttpClient.">
<polygon fill="white" stroke="black" points="420,-40.5 420,-61.5 562,-61.5 562,-40.5 420,-40.5"/>
<text text-anchor="middle" x="491" y="-48.5" font-family="Helvetica,sans-Serif" font-size="10.00">gaia::net::IHttpClientListener</text>
</a>
</g>
<!-- Node6&#45;&gt;Node1 -->
<g id="edge12" class="edge"><title>Node6&#45;&gt;Node1</title>
<path fill="none" stroke="#9a32cd" stroke-dasharray="5,2" d="M572.377,-59.8704C598.394,-62.7065 626.48,-65.7679 649.834,-68.3137"/>
<polygon fill="#9a32cd" stroke="#9a32cd" points="572.461,-56.359 562.141,-58.7547 571.703,-63.3178 572.461,-56.359"/>
<text text-anchor="middle" x="606" y="-70" font-family="Helvetica,sans-Serif" font-size="10.00"> mpListener</text>
</g>
<!-- Node7 -->
<g id="node13" class="node"><title>Node7</title>
<a xlink:href="../../d2/d98/classgaia_1_1net_1_1_url.html" target="_top" xlink:title="A Uniform Resource Locator that identifies the location of an Internet resource.">
<polygon fill="white" stroke="black" points="454.5,-0.5 454.5,-21.5 527.5,-21.5 527.5,-0.5 454.5,-0.5"/>
<text text-anchor="middle" x="491" y="-8.5" font-family="Helvetica,sans-Serif" font-size="10.00">gaia::net::Url</text>
</a>
</g>
<!-- Node7&#45;&gt;Node1 -->
<g id="edge14" class="edge"><title>Node7&#45;&gt;Node1</title>
<path fill="none" stroke="#9a32cd" stroke-dasharray="5,2" d="M537.492,-20.2957C565.227,-26.3133 600.972,-34.9001 632,-45 648.011,-50.2116 665.511,-57.4616 679.008,-63.4087"/>
<polygon fill="#9a32cd" stroke="#9a32cd" points="538.17,-16.8616 527.659,-18.1969 536.708,-23.7074 538.17,-16.8616"/>
<text text-anchor="middle" x="606" y="-49" font-family="Helvetica,sans-Serif" font-size="10.00"> mUrl</text>
</g>
</g>
</svg>
