<?xml version="1.0" encoding="UTF-8" standalone="no"?>
<!DOCTYPE svg PUBLIC "-//W3C//DTD SVG 1.1//EN"
 "http://www.w3.org/Graphics/SVG/1.1/DTD/svg11.dtd">
<!-- Generated by graphviz version 2.26.3 (20100126.1600)
 -->
<!-- Title: G Pages: 1 -->
<svg width="722pt" height="378pt"
 viewBox="0.00 0.00 722.00 378.00" xmlns="http://www.w3.org/2000/svg" xmlns:xlink="http://www.w3.org/1999/xlink">
<g id="graph1" class="graph" transform="scale(1 1) rotate(0) translate(4 374)">
<title>G</title>
<polygon fill="white" stroke="white" points="-4,5 -4,-374 719,-374 719,5 -4,5"/>
<!-- Node1 -->
<g id="node1" class="node"><title>Node1</title>
<polygon fill="#bfbfbf" stroke="black" points="-0.5,-348.5 -0.5,-369.5 278.5,-369.5 278.5,-348.5 -0.5,-348.5"/>
<text text-anchor="middle" x="139" y="-356.5" font-family="Helvetica,sans-Serif" font-size="10.00">/home/vilon_tao/gaia/sdk/include/gaia/text/DynamicLayout.h</text>
</g>
<!-- Node2 -->
<g id="node3" class="node"><title>Node2</title>
<polygon fill="white" stroke="#bfbfbf" points="89.5,-58.5 89.5,-79.5 138.5,-79.5 138.5,-58.5 89.5,-58.5"/>
<text text-anchor="middle" x="114" y="-66.5" font-family="Helvetica,sans-Serif" font-size="10.00">stdint.h</text>
</g>
<!-- Node1&#45;&gt;Node2 -->
<g id="edge2" class="edge"><title>Node1&#45;&gt;Node2</title>
<path fill="none" stroke="midnightblue" d="M96.9685,-348.482C76.5014,-341.346 53.1112,-329.869 38,-312 17.4606,-287.712 19,-274.808 19,-243 19,-243 19,-243 19,-185 19,-153.192 18.9324,-141.459 38,-116 48.7819,-101.604 65.3857,-90.6073 80.3267,-82.884"/>
<polygon fill="midnightblue" stroke="midnightblue" points="81.8855,-86.0179 89.3478,-78.4969 78.8241,-79.7228 81.8855,-86.0179"/>
</g>
<!-- Node3 -->
<g id="node5" class="node"><title>Node3</title>
<a xlink:href="../../d6/d48/_layout_8h.html" target="_top" xlink:title="gaia/text/Layout.h">
<polygon fill="white" stroke="black" points="206.5,-290.5 206.5,-311.5 301.5,-311.5 301.5,-290.5 206.5,-290.5"/>
<text text-anchor="middle" x="254" y="-298.5" font-family="Helvetica,sans-Serif" font-size="10.00">gaia/text/Layout.h</text>
</a>
</g>
<!-- Node1&#45;&gt;Node3 -->
<g id="edge4" class="edge"><title>Node1&#45;&gt;Node3</title>
<path fill="none" stroke="midnightblue" d="M159.826,-348.497C177.706,-339.479 203.707,-326.365 223.861,-316.201"/>
<polygon fill="midnightblue" stroke="midnightblue" points="225.588,-319.249 232.941,-311.621 222.436,-312.999 225.588,-319.249"/>
</g>
<!-- Node12 -->
<g id="node28" class="node"><title>Node12</title>
<a xlink:href="../../d5/d4f/_text_paint_8h.html" target="_top" xlink:title="gaia/text/TextPaint.h">
<polygon fill="white" stroke="black" points="74.5,-232.5 74.5,-253.5 181.5,-253.5 181.5,-232.5 74.5,-232.5"/>
<text text-anchor="middle" x="128" y="-240.5" font-family="Helvetica,sans-Serif" font-size="10.00">gaia/text/TextPaint.h</text>
</a>
</g>
<!-- Node1&#45;&gt;Node12 -->
<g id="edge46" class="edge"><title>Node1&#45;&gt;Node12</title>
<path fill="none" stroke="midnightblue" d="M146.348,-348.236C154.682,-334.655 166.342,-310.582 160,-290 156.841,-279.747 150.596,-269.728 144.455,-261.593"/>
<polygon fill="midnightblue" stroke="midnightblue" points="146.991,-259.161 137.984,-253.582 141.546,-263.56 146.991,-259.161"/>
</g>
<!-- Node15 -->
<g id="node36" class="node"><title>Node15</title>
<a xlink:href="../../d5/d6d/_text_utils_8h.html" target="_top" xlink:title="gaia/text/TextUtils.h">
<polygon fill="white" stroke="black" points="46.5,-290.5 46.5,-311.5 151.5,-311.5 151.5,-290.5 46.5,-290.5"/>
<text text-anchor="middle" x="99" y="-298.5" font-family="Helvetica,sans-Serif" font-size="10.00">gaia/text/TextUtils.h</text>
</a>
</g>
<!-- Node1&#45;&gt;Node15 -->
<g id="edge42" class="edge"><title>Node1&#45;&gt;Node15</title>
<path fill="none" stroke="midnightblue" d="M131.663,-348.362C126.194,-340.431 118.578,-329.389 112.076,-319.961"/>
<polygon fill="midnightblue" stroke="midnightblue" points="114.849,-317.816 106.29,-311.571 109.086,-321.79 114.849,-317.816"/>
</g>
<!-- Node3&#45;&gt;Node2 -->
<g id="edge6" class="edge"><title>Node3&#45;&gt;Node2</title>
<path fill="none" stroke="midnightblue" d="M251.358,-290.479C242.454,-255.624 212.83,-144.523 190,-116 178.946,-102.19 162.662,-91.3579 147.999,-83.5907"/>
<polygon fill="midnightblue" stroke="midnightblue" points="149.179,-80.2678 138.67,-78.9287 146.05,-86.5296 149.179,-80.2678"/>
</g>
<!-- Node4 -->
<g id="node8" class="node"><title>Node4</title>
<a xlink:href="../../d1/dd0/gmacros_8h.html" target="_top" xlink:title="gaia/base/gmacros.h">
<polygon fill="white" stroke="black" points="236.5,-174.5 236.5,-195.5 343.5,-195.5 343.5,-174.5 236.5,-174.5"/>
<text text-anchor="middle" x="290" y="-182.5" font-family="Helvetica,sans-Serif" font-size="10.00">gaia/base/gmacros.h</text>
</a>
</g>
<!-- Node3&#45;&gt;Node4 -->
<g id="edge8" class="edge"><title>Node3&#45;&gt;Node4</title>
<path fill="none" stroke="midnightblue" d="M257.322,-290.295C263.296,-271.045 275.945,-230.289 283.635,-205.509"/>
<polygon fill="midnightblue" stroke="midnightblue" points="287.064,-206.267 286.686,-195.679 280.379,-204.192 287.064,-206.267"/>
</g>
<!-- Node5 -->
<g id="node10" class="node"><title>Node5</title>
<a xlink:href="../../d5/d17/_canvas_8h.html" target="_top" xlink:title="gaia/graphics/Canvas.h">
<polygon fill="white" stroke="black" points="311.5,-232.5 311.5,-253.5 430.5,-253.5 430.5,-232.5 311.5,-232.5"/>
<text text-anchor="middle" x="371" y="-240.5" font-family="Helvetica,sans-Serif" font-size="10.00">gaia/graphics/Canvas.h</text>
</a>
</g>
<!-- Node3&#45;&gt;Node5 -->
<g id="edge10" class="edge"><title>Node3&#45;&gt;Node5</title>
<path fill="none" stroke="midnightblue" d="M275.188,-290.497C293.462,-281.438 320.072,-268.246 340.615,-258.063"/>
<polygon fill="midnightblue" stroke="midnightblue" points="342.169,-261.199 349.574,-253.621 339.06,-254.927 342.169,-261.199"/>
</g>
<!-- Node3&#45;&gt;Node12 -->
<g id="edge32" class="edge"><title>Node3&#45;&gt;Node12</title>
<path fill="none" stroke="midnightblue" d="M231.182,-290.497C211.414,-281.397 182.587,-268.127 160.424,-257.925"/>
<polygon fill="midnightblue" stroke="midnightblue" points="161.621,-254.623 151.074,-253.621 158.694,-260.982 161.621,-254.623"/>
</g>
<!-- Node5&#45;&gt;Node4 -->
<g id="edge14" class="edge"><title>Node5&#45;&gt;Node4</title>
<path fill="none" stroke="midnightblue" d="M356.143,-232.362C344.154,-223.777 327.073,-211.546 313.272,-201.664"/>
<polygon fill="midnightblue" stroke="midnightblue" points="314.931,-198.547 304.762,-195.571 310.855,-204.238 314.931,-198.547"/>
</g>
<!-- Node6 -->
<g id="node12" class="node"><title>Node6</title>
<polygon fill="white" stroke="#bfbfbf" points="492,-0.5 492,-21.5 560,-21.5 560,-0.5 492,-0.5"/>
<text text-anchor="middle" x="526" y="-8.5" font-family="Helvetica,sans-Serif" font-size="10.00">sys/types.h</text>
</g>
<!-- Node5&#45;&gt;Node6 -->
<g id="edge12" class="edge"><title>Node5&#45;&gt;Node6</title>
<path fill="none" stroke="midnightblue" d="M368.541,-232.374C362.08,-201.585 347.885,-111.137 390,-58 401.687,-43.2549 446.706,-29.5897 481.786,-20.8386"/>
<polygon fill="midnightblue" stroke="midnightblue" points="482.951,-24.1572 491.842,-18.3944 481.298,-17.3552 482.951,-24.1572"/>
</g>
<!-- Node7 -->
<g id="node15" class="node"><title>Node7</title>
<a xlink:href="../../d0/db4/_region_8h.html" target="_top" xlink:title="gaia/graphics/Region.h">
<polygon fill="white" stroke="black" points="598,-116.5 598,-137.5 714,-137.5 714,-116.5 598,-116.5"/>
<text text-anchor="middle" x="656" y="-124.5" font-family="Helvetica,sans-Serif" font-size="10.00">gaia/graphics/Region.h</text>
</a>
</g>
<!-- Node5&#45;&gt;Node7 -->
<g id="edge16" class="edge"><title>Node5&#45;&gt;Node7</title>
<path fill="none" stroke="midnightblue" d="M421.089,-232.434C454.865,-224.461 500.022,-212.135 538,-196 572.323,-181.418 608.97,-158.74 632.155,-143.399"/>
<polygon fill="midnightblue" stroke="midnightblue" points="634.281,-146.187 640.64,-137.713 630.384,-140.372 634.281,-146.187"/>
</g>
<!-- Node8 -->
<g id="node18" class="node"><title>Node8</title>
<a xlink:href="../../d1/df6/_porter_duff_8h.html" target="_top" xlink:title="gaia/graphics/PorterDuff.h">
<polygon fill="white" stroke="black" points="398.5,-174.5 398.5,-195.5 529.5,-195.5 529.5,-174.5 398.5,-174.5"/>
<text text-anchor="middle" x="464" y="-182.5" font-family="Helvetica,sans-Serif" font-size="10.00">gaia/graphics/PorterDuff.h</text>
</a>
</g>
<!-- Node5&#45;&gt;Node8 -->
<g id="edge20" class="edge"><title>Node5&#45;&gt;Node8</title>
<path fill="none" stroke="midnightblue" d="M388.058,-232.362C402.085,-223.614 422.184,-211.079 438.182,-201.101"/>
<polygon fill="midnightblue" stroke="midnightblue" points="440.418,-203.832 447.051,-195.571 436.713,-197.893 440.418,-203.832"/>
</g>
<!-- Node7&#45;&gt;Node6 -->
<g id="edge18" class="edge"><title>Node7&#45;&gt;Node6</title>
<path fill="none" stroke="midnightblue" d="M662.948,-116.098C671.279,-101.496 682.633,-75.4127 670,-58 658.021,-41.489 607.678,-27.7292 569.868,-19.4496"/>
<polygon fill="midnightblue" stroke="midnightblue" points="570.578,-16.0223 560.068,-17.3632 569.12,-22.8689 570.578,-16.0223"/>
</g>
<!-- Node9 -->
<g id="node20" class="node"><title>Node9</title>
<a xlink:href="../../dd/d0b/_hash_map_8h.html" target="_top" xlink:title="gaia/base/HashMap.h">
<polygon fill="white" stroke="black" points="408,-116.5 408,-137.5 520,-137.5 520,-116.5 408,-116.5"/>
<text text-anchor="middle" x="464" y="-124.5" font-family="Helvetica,sans-Serif" font-size="10.00">gaia/base/HashMap.h</text>
</a>
</g>
<!-- Node8&#45;&gt;Node9 -->
<g id="edge22" class="edge"><title>Node8&#45;&gt;Node9</title>
<path fill="none" stroke="midnightblue" d="M464,-174.362C464,-166.922 464,-156.743 464,-147.728"/>
<polygon fill="midnightblue" stroke="midnightblue" points="467.5,-147.571 464,-137.571 460.5,-147.571 467.5,-147.571"/>
</g>
<!-- Node10 -->
<g id="node22" class="node"><title>Node10</title>
<a xlink:href="../../d6/d83/_hash_func_8h.html" target="_top" xlink:title="gaia/base/HashFunc.h">
<polygon fill="white" stroke="black" points="398.5,-58.5 398.5,-79.5 513.5,-79.5 513.5,-58.5 398.5,-58.5"/>
<text text-anchor="middle" x="456" y="-66.5" font-family="Helvetica,sans-Serif" font-size="10.00">gaia/base/HashFunc.h</text>
</a>
</g>
<!-- Node9&#45;&gt;Node10 -->
<g id="edge24" class="edge"><title>Node9&#45;&gt;Node10</title>
<path fill="none" stroke="midnightblue" d="M462.533,-116.362C461.506,-108.922 460.102,-98.7427 458.859,-89.7276"/>
<polygon fill="midnightblue" stroke="midnightblue" points="462.292,-88.9986 457.458,-79.5707 455.357,-89.9551 462.292,-88.9986"/>
</g>
<!-- Node11 -->
<g id="node25" class="node"><title>Node11</title>
<a xlink:href="../../dc/d11/_hash_map_impl_8h.html" target="_top" xlink:title="gaia/base/HashMapImpl.h">
<polygon fill="white" stroke="black" points="530.5,-58.5 530.5,-79.5 661.5,-79.5 661.5,-58.5 530.5,-58.5"/>
<text text-anchor="middle" x="596" y="-66.5" font-family="Helvetica,sans-Serif" font-size="10.00">gaia/base/HashMapImpl.h</text>
</a>
</g>
<!-- Node9&#45;&gt;Node11 -->
<g id="edge28" class="edge"><title>Node9&#45;&gt;Node11</title>
<path fill="none" stroke="midnightblue" d="M487.904,-116.497C508.8,-107.315 539.356,-93.8889 562.655,-83.6516"/>
<polygon fill="midnightblue" stroke="midnightblue" points="564.08,-86.8483 571.828,-79.6212 561.264,-80.4397 564.08,-86.8483"/>
</g>
<!-- Node10&#45;&gt;Node6 -->
<g id="edge26" class="edge"><title>Node10&#45;&gt;Node6</title>
<path fill="none" stroke="midnightblue" d="M468.839,-58.3619C479.002,-49.9408 493.401,-38.0105 505.204,-28.2308"/>
<polygon fill="midnightblue" stroke="midnightblue" points="507.775,-30.6459 513.242,-21.5707 503.309,-25.2558 507.775,-30.6459"/>
</g>
<!-- Node11&#45;&gt;Node6 -->
<g id="edge30" class="edge"><title>Node11&#45;&gt;Node6</title>
<path fill="none" stroke="midnightblue" d="M583.161,-58.3619C572.998,-49.9408 558.599,-38.0105 546.796,-28.2308"/>
<polygon fill="midnightblue" stroke="midnightblue" points="548.691,-25.2558 538.758,-21.5707 544.225,-30.6459 548.691,-25.2558"/>
</g>
<!-- Node12&#45;&gt;Node4 -->
<g id="edge40" class="edge"><title>Node12&#45;&gt;Node4</title>
<path fill="none" stroke="midnightblue" d="M157.337,-232.497C183.519,-223.123 222.06,-209.324 250.863,-199.012"/>
<polygon fill="midnightblue" stroke="midnightblue" points="252.373,-202.189 260.608,-195.523 250.013,-195.599 252.373,-202.189"/>
</g>
<!-- Node13 -->
<g id="node30" class="node"><title>Node13</title>
<a xlink:href="../../db/d7d/_paint_8h.html" target="_top" xlink:title="gaia/graphics/Paint.h">
<polygon fill="white" stroke="black" points="66,-174.5 66,-195.5 174,-195.5 174,-174.5 66,-174.5"/>
<text text-anchor="middle" x="120" y="-182.5" font-family="Helvetica,sans-Serif" font-size="10.00">gaia/graphics/Paint.h</text>
</a>
</g>
<!-- Node12&#45;&gt;Node13 -->
<g id="edge34" class="edge"><title>Node12&#45;&gt;Node13</title>
<path fill="none" stroke="midnightblue" d="M126.533,-232.362C125.506,-224.922 124.102,-214.743 122.859,-205.728"/>
<polygon fill="midnightblue" stroke="midnightblue" points="126.292,-204.999 121.458,-195.571 119.357,-205.955 126.292,-204.999"/>
</g>
<!-- Node14 -->
<g id="node32" class="node"><title>Node14</title>
<a xlink:href="../../d7/d97/_char_sequence_8h.html" target="_top" xlink:title="gaia/base/CharSequence.h">
<polygon fill="white" stroke="black" points="47,-116.5 47,-137.5 181,-137.5 181,-116.5 47,-116.5"/>
<text text-anchor="middle" x="114" y="-124.5" font-family="Helvetica,sans-Serif" font-size="10.00">gaia/base/CharSequence.h</text>
</a>
</g>
<!-- Node13&#45;&gt;Node14 -->
<g id="edge36" class="edge"><title>Node13&#45;&gt;Node14</title>
<path fill="none" stroke="midnightblue" d="M118.9,-174.362C118.13,-166.922 117.077,-156.743 116.144,-147.728"/>
<polygon fill="midnightblue" stroke="midnightblue" points="119.604,-147.157 115.094,-137.571 112.641,-147.878 119.604,-147.157"/>
</g>
<!-- Node14&#45;&gt;Node2 -->
<g id="edge38" class="edge"><title>Node14&#45;&gt;Node2</title>
<path fill="none" stroke="midnightblue" d="M114,-116.362C114,-108.922 114,-98.7427 114,-89.7276"/>
<polygon fill="midnightblue" stroke="midnightblue" points="117.5,-89.5706 114,-79.5707 110.5,-89.5707 117.5,-89.5706"/>
</g>
<!-- Node15&#45;&gt;Node12 -->
<g id="edge44" class="edge"><title>Node15&#45;&gt;Node12</title>
<path fill="none" stroke="midnightblue" d="M104.319,-290.362C108.203,-282.595 113.579,-271.843 118.227,-262.546"/>
<polygon fill="midnightblue" stroke="midnightblue" points="121.373,-264.08 122.715,-253.571 115.112,-260.95 121.373,-264.08"/>
</g>
</g>
</svg>
