<?xml version="1.0" encoding="UTF-8" standalone="no"?>
<!DOCTYPE svg PUBLIC "-//W3C//DTD SVG 1.1//EN"
 "http://www.w3.org/Graphics/SVG/1.1/DTD/svg11.dtd">
<!-- Generated by graphviz version 2.26.3 (20100126.1600)
 -->
<!-- Title: G Pages: 1 -->
<svg width="434pt" height="262pt"
 viewBox="0.00 0.00 434.00 262.00" xmlns="http://www.w3.org/2000/svg" xmlns:xlink="http://www.w3.org/1999/xlink">
<g id="graph1" class="graph" transform="scale(1 1) rotate(0) translate(4 258)">
<title>G</title>
<polygon fill="white" stroke="white" points="-4,5 -4,-258 431,-258 431,5 -4,5"/>
<!-- Node1 -->
<g id="node1" class="node"><title>Node1</title>
<polygon fill="#bfbfbf" stroke="black" points="145,-232.5 145,-253.5 413,-253.5 413,-232.5 145,-232.5"/>
<text text-anchor="middle" x="279" y="-240.5" font-family="Helvetica,sans-Serif" font-size="10.00">/home/vilon_tao/gaia/sdk/include/gaia/net/HttpFileEntity.h</text>
</g>
<!-- Node2 -->
<g id="node3" class="node"><title>Node2</title>
<a xlink:href="../../db/db5/_string_8h.html" target="_top" xlink:title="gaia/base/String.h">
<polygon fill="white" stroke="black" points="172.5,-116.5 172.5,-137.5 267.5,-137.5 267.5,-116.5 172.5,-116.5"/>
<text text-anchor="middle" x="220" y="-124.5" font-family="Helvetica,sans-Serif" font-size="10.00">gaia/base/String.h</text>
</a>
</g>
<!-- Node1&#45;&gt;Node2 -->
<g id="edge2" class="edge"><title>Node1&#45;&gt;Node2</title>
<path fill="none" stroke="midnightblue" d="M273.555,-232.295C263.676,-212.872 242.662,-171.556 230.094,-146.846"/>
<polygon fill="midnightblue" stroke="midnightblue" points="233.085,-145.006 225.432,-137.679 226.846,-148.179 233.085,-145.006"/>
</g>
<!-- Node7 -->
<g id="node14" class="node"><title>Node7</title>
<a xlink:href="../../d8/d2d/_http_entity_8h.html" target="_top" xlink:title="gaia/net/HttpEntity.h">
<polygon fill="white" stroke="black" points="275.5,-174.5 275.5,-195.5 382.5,-195.5 382.5,-174.5 275.5,-174.5"/>
<text text-anchor="middle" x="329" y="-182.5" font-family="Helvetica,sans-Serif" font-size="10.00">gaia/net/HttpEntity.h</text>
</a>
</g>
<!-- Node1&#45;&gt;Node7 -->
<g id="edge14" class="edge"><title>Node1&#45;&gt;Node7</title>
<path fill="none" stroke="midnightblue" d="M288.171,-232.362C295.148,-224.268 304.921,-212.932 313.156,-203.38"/>
<polygon fill="midnightblue" stroke="midnightblue" points="316.009,-205.43 319.887,-195.571 310.707,-200.859 316.009,-205.43"/>
</g>
<!-- Node3 -->
<g id="node5" class="node"><title>Node3</title>
<a xlink:href="../../d7/d97/_char_sequence_8h.html" target="_top" xlink:title="gaia/base/CharSequence.h">
<polygon fill="white" stroke="black" points="0,-58.5 0,-79.5 134,-79.5 134,-58.5 0,-58.5"/>
<text text-anchor="middle" x="67" y="-66.5" font-family="Helvetica,sans-Serif" font-size="10.00">gaia/base/CharSequence.h</text>
</a>
</g>
<!-- Node2&#45;&gt;Node3 -->
<g id="edge4" class="edge"><title>Node2&#45;&gt;Node3</title>
<path fill="none" stroke="midnightblue" d="M192.293,-116.497C167.674,-107.164 131.483,-93.4447 104.32,-83.1475"/>
<polygon fill="midnightblue" stroke="midnightblue" points="105.35,-79.7951 94.7591,-79.5231 102.869,-86.3406 105.35,-79.7951"/>
</g>
<!-- Node5 -->
<g id="node9" class="node"><title>Node5</title>
<a xlink:href="../../d6/d83/_hash_func_8h.html" target="_top" xlink:title="gaia/base/HashFunc.h">
<polygon fill="white" stroke="black" points="151.5,-58.5 151.5,-79.5 266.5,-79.5 266.5,-58.5 151.5,-58.5"/>
<text text-anchor="middle" x="209" y="-66.5" font-family="Helvetica,sans-Serif" font-size="10.00">gaia/base/HashFunc.h</text>
</a>
</g>
<!-- Node2&#45;&gt;Node5 -->
<g id="edge8" class="edge"><title>Node2&#45;&gt;Node5</title>
<path fill="none" stroke="midnightblue" d="M217.982,-116.362C216.556,-108.84 214.598,-98.5187 212.875,-89.4308"/>
<polygon fill="midnightblue" stroke="midnightblue" points="216.307,-88.7433 211.005,-79.5707 209.429,-90.0477 216.307,-88.7433"/>
</g>
<!-- Node6 -->
<g id="node11" class="node"><title>Node6</title>
<polygon fill="white" stroke="#bfbfbf" points="260,-0.5 260,-21.5 328,-21.5 328,-0.5 260,-0.5"/>
<text text-anchor="middle" x="294" y="-8.5" font-family="Helvetica,sans-Serif" font-size="10.00">sys/types.h</text>
</g>
<!-- Node2&#45;&gt;Node6 -->
<g id="edge12" class="edge"><title>Node2&#45;&gt;Node6</title>
<path fill="none" stroke="midnightblue" d="M237.057,-116.472C249.333,-108.047 265.365,-95.1582 275,-80 284.348,-65.2932 289.156,-45.9909 291.593,-31.5426"/>
<polygon fill="midnightblue" stroke="midnightblue" points="295.064,-31.9943 293.03,-21.5965 288.136,-30.9931 295.064,-31.9943"/>
</g>
<!-- Node4 -->
<g id="node7" class="node"><title>Node4</title>
<polygon fill="white" stroke="#bfbfbf" points="42.5,-0.5 42.5,-21.5 91.5,-21.5 91.5,-0.5 42.5,-0.5"/>
<text text-anchor="middle" x="67" y="-8.5" font-family="Helvetica,sans-Serif" font-size="10.00">stdint.h</text>
</g>
<!-- Node3&#45;&gt;Node4 -->
<g id="edge6" class="edge"><title>Node3&#45;&gt;Node4</title>
<path fill="none" stroke="midnightblue" d="M67,-58.3619C67,-50.9219 67,-40.7427 67,-31.7276"/>
<polygon fill="midnightblue" stroke="midnightblue" points="70.5001,-31.5706 67,-21.5707 63.5001,-31.5707 70.5001,-31.5706"/>
</g>
<!-- Node5&#45;&gt;Node6 -->
<g id="edge10" class="edge"><title>Node5&#45;&gt;Node6</title>
<path fill="none" stroke="midnightblue" d="M224.59,-58.3619C237.291,-49.6955 255.438,-37.3126 269.992,-27.3819"/>
<polygon fill="midnightblue" stroke="midnightblue" points="272.221,-30.0982 278.509,-21.5707 268.276,-24.316 272.221,-30.0982"/>
</g>
<!-- Node8 -->
<g id="node16" class="node"><title>Node8</title>
<a xlink:href="../../df/d29/_http_types_8h.html" target="_top" xlink:title="gaia/net/HttpTypes.h">
<polygon fill="white" stroke="black" points="308,-116.5 308,-137.5 416,-137.5 416,-116.5 308,-116.5"/>
<text text-anchor="middle" x="362" y="-124.5" font-family="Helvetica,sans-Serif" font-size="10.00">gaia/net/HttpTypes.h</text>
</a>
</g>
<!-- Node7&#45;&gt;Node8 -->
<g id="edge16" class="edge"><title>Node7&#45;&gt;Node8</title>
<path fill="none" stroke="midnightblue" d="M335.053,-174.362C339.472,-166.595 345.59,-155.843 350.879,-146.546"/>
<polygon fill="midnightblue" stroke="midnightblue" points="354.082,-147.993 355.986,-137.571 347.998,-144.531 354.082,-147.993"/>
</g>
<!-- Node9 -->
<g id="node18" class="node"><title>Node9</title>
<a xlink:href="../../d1/d88/_net_types_8h.html" target="_top" xlink:title="gaia/net/NetTypes.h">
<polygon fill="white" stroke="black" points="321.5,-58.5 321.5,-79.5 426.5,-79.5 426.5,-58.5 321.5,-58.5"/>
<text text-anchor="middle" x="374" y="-66.5" font-family="Helvetica,sans-Serif" font-size="10.00">gaia/net/NetTypes.h</text>
</a>
</g>
<!-- Node8&#45;&gt;Node9 -->
<g id="edge18" class="edge"><title>Node8&#45;&gt;Node9</title>
<path fill="none" stroke="midnightblue" d="M364.201,-116.362C365.757,-108.84 367.893,-98.5187 369.773,-89.4308"/>
<polygon fill="midnightblue" stroke="midnightblue" points="373.214,-90.0724 371.813,-79.5707 366.359,-88.6541 373.214,-90.0724"/>
</g>
<!-- Node9&#45;&gt;Node6 -->
<g id="edge20" class="edge"><title>Node9&#45;&gt;Node6</title>
<path fill="none" stroke="midnightblue" d="M359.327,-58.3619C347.486,-49.7773 330.615,-37.5459 316.984,-27.6636"/>
<polygon fill="midnightblue" stroke="midnightblue" points="318.731,-24.6067 308.58,-21.5707 314.622,-30.274 318.731,-24.6067"/>
</g>
</g>
</svg>
