<?xml version="1.0" encoding="UTF-8" standalone="no"?>
<!DOCTYPE svg PUBLIC "-//W3C//DTD SVG 1.1//EN"
 "http://www.w3.org/Graphics/SVG/1.1/DTD/svg11.dtd">
<!-- Generated by graphviz version 2.26.3 (20100126.1600)
 -->
<!-- Title: G Pages: 1 -->
<svg width="142pt" height="204pt"
 viewBox="0.00 0.00 142.00 204.00" xmlns="http://www.w3.org/2000/svg" xmlns:xlink="http://www.w3.org/1999/xlink">
<g id="graph1" class="graph" transform="scale(1 1) rotate(0) translate(4 200)">
<title>G</title>
<polygon fill="white" stroke="white" points="-4,5 -4,-200 139,-200 139,5 -4,5"/>
<!-- Node1 -->
<g id="node1" class="node"><title>Node1</title>
<polygon fill="#bfbfbf" stroke="black" points="0,-0.5 0,-21.5 134,-21.5 134,-0.5 0,-0.5"/>
<text text-anchor="middle" x="67" y="-8.5" font-family="Helvetica,sans-Serif" font-size="10.00">gaia::text::SpannableString</text>
</g>
<!-- Node2 -->
<g id="node2" class="node"><title>Node2</title>
<a xlink:href="../../dc/d83/classgaia_1_1text_1_1_spannable.html" target="_top" xlink:title="This is the interface for text to which markup objects can be attached and detached.">
<polygon fill="white" stroke="black" points="12.5,-58.5 12.5,-79.5 121.5,-79.5 121.5,-58.5 12.5,-58.5"/>
<text text-anchor="middle" x="67" y="-66.5" font-family="Helvetica,sans-Serif" font-size="10.00">gaia::text::Spannable</text>
</a>
</g>
<!-- Node2&#45;&gt;Node1 -->
<g id="edge2" class="edge"><title>Node2&#45;&gt;Node1</title>
<path fill="none" stroke="midnightblue" d="M67,-48.1906C67,-39.1684 67,-28.9941 67,-21.5707"/>
<polygon fill="midnightblue" stroke="midnightblue" points="63.5001,-48.3619 67,-58.3619 70.5001,-48.3619 63.5001,-48.3619"/>
</g>
<!-- Node3 -->
<g id="node4" class="node"><title>Node3</title>
<a xlink:href="../../d3/d76/classgaia_1_1text_1_1_spanned.html" target="_top" xlink:title="This is the interface for text that has markup objects attached to ranges of it.">
<polygon fill="white" stroke="black" points="16.5,-116.5 16.5,-137.5 117.5,-137.5 117.5,-116.5 16.5,-116.5"/>
<text text-anchor="middle" x="67" y="-124.5" font-family="Helvetica,sans-Serif" font-size="10.00">gaia::text::Spanned</text>
</a>
</g>
<!-- Node3&#45;&gt;Node2 -->
<g id="edge4" class="edge"><title>Node3&#45;&gt;Node2</title>
<path fill="none" stroke="midnightblue" d="M67,-106.191C67,-97.1684 67,-86.9941 67,-79.5707"/>
<polygon fill="midnightblue" stroke="midnightblue" points="63.5001,-106.362 67,-116.362 70.5001,-106.362 63.5001,-106.362"/>
</g>
<!-- Node4 -->
<g id="node6" class="node"><title>Node4</title>
<a xlink:href="../../d1/d0f/classgaia_1_1base_1_1_char_sequence.html" target="_top" xlink:title="This interface represents an ordered set of characters and defines the methods to probe them...">
<polygon fill="white" stroke="black" points="1,-174.5 1,-195.5 133,-195.5 133,-174.5 1,-174.5"/>
<text text-anchor="middle" x="67" y="-182.5" font-family="Helvetica,sans-Serif" font-size="10.00">gaia::base::CharSequence</text>
</a>
</g>
<!-- Node4&#45;&gt;Node3 -->
<g id="edge6" class="edge"><title>Node4&#45;&gt;Node3</title>
<path fill="none" stroke="midnightblue" d="M67,-164.191C67,-155.168 67,-144.994 67,-137.571"/>
<polygon fill="midnightblue" stroke="midnightblue" points="63.5001,-164.362 67,-174.362 70.5001,-164.362 63.5001,-164.362"/>
</g>
</g>
</svg>
