<?xml version="1.0" encoding="UTF-8" standalone="no"?>
<!DOCTYPE svg PUBLIC "-//W3C//DTD SVG 1.1//EN"
 "http://www.w3.org/Graphics/SVG/1.1/DTD/svg11.dtd">
<!-- Generated by graphviz version 2.26.3 (20100126.1600)
 -->
<!-- Title: G Pages: 1 -->
<svg width="1954pt" height="88pt"
 viewBox="0.00 0.00 1954.00 88.00" xmlns="http://www.w3.org/2000/svg" xmlns:xlink="http://www.w3.org/1999/xlink">
<g id="graph1" class="graph" transform="scale(1 1) rotate(0) translate(4 84)">
<title>G</title>
<polygon fill="white" stroke="white" points="-4,5 -4,-84 1951,-84 1951,5 -4,5"/>
<!-- Node1 -->
<g id="node1" class="node"><title>Node1</title>
<polygon fill="#bfbfbf" stroke="black" points="792.5,-58.5 792.5,-79.5 1027.5,-79.5 1027.5,-58.5 792.5,-58.5"/>
<text text-anchor="middle" x="910" y="-66.5" font-family="Helvetica,sans-Serif" font-size="10.00">/home/vilon_tao/gaia/sdk/include/gaia/utility/Xml.h</text>
</g>
<!-- Node2 -->
<g id="node3" class="node"><title>Node2</title>
<polygon fill="white" stroke="#bfbfbf" points="0,-0.5 0,-21.5 52,-21.5 52,-0.5 0,-0.5"/>
<text text-anchor="middle" x="26" y="-8.5" font-family="Helvetica,sans-Serif" font-size="10.00">stdarg.h</text>
</g>
<!-- Node1&#45;&gt;Node2 -->
<g id="edge2" class="edge"><title>Node1&#45;&gt;Node2</title>
<path fill="none" stroke="midnightblue" d="M792.206,-66.102C597.447,-60.7168 215.45,-47.4916 62.3803,-21.7949"/>
<polygon fill="midnightblue" stroke="midnightblue" points="62.6517,-18.289 52.1966,-20.0038 61.4391,-25.1832 62.6517,-18.289"/>
</g>
<!-- Node3 -->
<g id="node5" class="node"><title>Node3</title>
<polygon fill="white" stroke="#bfbfbf" points="70,-0.5 70,-21.5 116,-21.5 116,-0.5 70,-0.5"/>
<text text-anchor="middle" x="93" y="-8.5" font-family="Helvetica,sans-Serif" font-size="10.00">stdio.h</text>
</g>
<!-- Node1&#45;&gt;Node3 -->
<g id="edge4" class="edge"><title>Node1&#45;&gt;Node3</title>
<path fill="none" stroke="midnightblue" d="M792.45,-65.8651C610.151,-60.3606 266.519,-47.2533 126.352,-21.736"/>
<polygon fill="midnightblue" stroke="midnightblue" points="126.697,-18.2385 116.217,-19.7969 125.382,-25.1138 126.697,-18.2385"/>
</g>
<!-- Node4 -->
<g id="node7" class="node"><title>Node4</title>
<polygon fill="white" stroke="#bfbfbf" points="134,-0.5 134,-21.5 226,-21.5 226,-0.5 134,-0.5"/>
<text text-anchor="middle" x="180" y="-8.5" font-family="Helvetica,sans-Serif" font-size="10.00">libxml/encoding.h</text>
</g>
<!-- Node1&#45;&gt;Node4 -->
<g id="edge6" class="edge"><title>Node1&#45;&gt;Node4</title>
<path fill="none" stroke="midnightblue" d="M792.475,-65.3728C659.681,-60.2377 436.977,-48.5016 236.286,-22.0268"/>
<polygon fill="midnightblue" stroke="midnightblue" points="236.517,-18.5266 226.142,-20.6734 235.591,-25.4652 236.517,-18.5266"/>
</g>
<!-- Node5 -->
<g id="node9" class="node"><title>Node5</title>
<polygon fill="white" stroke="#bfbfbf" points="243.5,-0.5 243.5,-21.5 350.5,-21.5 350.5,-0.5 243.5,-0.5"/>
<text text-anchor="middle" x="297" y="-8.5" font-family="Helvetica,sans-Serif" font-size="10.00">libxml/HTMLparser.h</text>
</g>
<!-- Node1&#45;&gt;Node5 -->
<g id="edge8" class="edge"><title>Node1&#45;&gt;Node5</title>
<path fill="none" stroke="midnightblue" d="M792.24,-62.0518C682.853,-54.8818 515.246,-42.0781 360.871,-22.1603"/>
<polygon fill="midnightblue" stroke="midnightblue" points="361.091,-18.6595 350.722,-20.8381 360.186,-25.6008 361.091,-18.6595"/>
</g>
<!-- Node6 -->
<g id="node11" class="node"><title>Node6</title>
<polygon fill="white" stroke="#bfbfbf" points="368,-0.5 368,-21.5 448,-21.5 448,-0.5 368,-0.5"/>
<text text-anchor="middle" x="408" y="-8.5" font-family="Helvetica,sans-Serif" font-size="10.00">libxml/parser.h</text>
</g>
<!-- Node1&#45;&gt;Node6 -->
<g id="edge10" class="edge"><title>Node1&#45;&gt;Node6</title>
<path fill="none" stroke="midnightblue" d="M792.173,-60.5905C702.956,-53.3289 577.243,-41.1903 458.071,-22.0233"/>
<polygon fill="midnightblue" stroke="midnightblue" points="458.469,-18.5421 448.037,-20.3901 457.344,-25.4512 458.469,-18.5421"/>
</g>
<!-- Node7 -->
<g id="node13" class="node"><title>Node7</title>
<polygon fill="white" stroke="#bfbfbf" points="466,-0.5 466,-21.5 584,-21.5 584,-0.5 466,-0.5"/>
<text text-anchor="middle" x="525" y="-8.5" font-family="Helvetica,sans-Serif" font-size="10.00">libxml/parserInternals.h</text>
</g>
<!-- Node1&#45;&gt;Node7 -->
<g id="edge12" class="edge"><title>Node1&#45;&gt;Node7</title>
<path fill="none" stroke="midnightblue" d="M837.249,-58.4917C775.294,-49.4788 683.621,-35.9926 594.358,-22.1974"/>
<polygon fill="midnightblue" stroke="midnightblue" points="594.749,-18.7163 584.331,-20.6449 593.678,-25.6338 594.749,-18.7163"/>
</g>
<!-- Node8 -->
<g id="node15" class="node"><title>Node8</title>
<polygon fill="white" stroke="#bfbfbf" points="602,-0.5 602,-21.5 676,-21.5 676,-0.5 602,-0.5"/>
<text text-anchor="middle" x="639" y="-8.5" font-family="Helvetica,sans-Serif" font-size="10.00">libxml/SAX.h</text>
</g>
<!-- Node1&#45;&gt;Node8 -->
<g id="edge14" class="edge"><title>Node1&#45;&gt;Node8</title>
<path fill="none" stroke="midnightblue" d="M857.172,-58.4121C813.745,-49.6068 750.361,-36.5236 686.045,-22.1936"/>
<polygon fill="midnightblue" stroke="midnightblue" points="686.659,-18.7443 676.136,-19.9772 685.131,-25.5756 686.659,-18.7443"/>
</g>
<!-- Node9 -->
<g id="node17" class="node"><title>Node9</title>
<polygon fill="white" stroke="#bfbfbf" points="693.5,-0.5 693.5,-21.5 772.5,-21.5 772.5,-0.5 693.5,-0.5"/>
<text text-anchor="middle" x="733" y="-8.5" font-family="Helvetica,sans-Serif" font-size="10.00">libxml/SAX2.h</text>
</g>
<!-- Node1&#45;&gt;Node9 -->
<g id="edge16" class="edge"><title>Node1&#45;&gt;Node9</title>
<path fill="none" stroke="midnightblue" d="M877.947,-58.4966C849.091,-49.0411 806.494,-35.0829 774.939,-24.7428"/>
<polygon fill="midnightblue" stroke="midnightblue" points="775.706,-21.3111 765.113,-21.5231 773.526,-27.963 775.706,-21.3111"/>
</g>
<!-- Node10 -->
<g id="node19" class="node"><title>Node10</title>
<polygon fill="white" stroke="#bfbfbf" points="790,-0.5 790,-21.5 860,-21.5 860,-0.5 790,-0.5"/>
<text text-anchor="middle" x="825" y="-8.5" font-family="Helvetica,sans-Serif" font-size="10.00">libxml/tree.h</text>
</g>
<!-- Node1&#45;&gt;Node10 -->
<g id="edge18" class="edge"><title>Node1&#45;&gt;Node10</title>
<path fill="none" stroke="midnightblue" d="M894.41,-58.3619C881.709,-49.6955 863.562,-37.3126 849.008,-27.3819"/>
<polygon fill="midnightblue" stroke="midnightblue" points="850.724,-24.316 840.491,-21.5707 846.779,-30.0982 850.724,-24.316"/>
</g>
<!-- Node11 -->
<g id="node21" class="node"><title>Node11</title>
<polygon fill="white" stroke="#bfbfbf" points="878,-0.5 878,-21.5 942,-21.5 942,-0.5 878,-0.5"/>
<text text-anchor="middle" x="910" y="-8.5" font-family="Helvetica,sans-Serif" font-size="10.00">libxml/uri.h</text>
</g>
<!-- Node1&#45;&gt;Node11 -->
<g id="edge20" class="edge"><title>Node1&#45;&gt;Node11</title>
<path fill="none" stroke="midnightblue" d="M910,-58.3619C910,-50.9219 910,-40.7427 910,-31.7276"/>
<polygon fill="midnightblue" stroke="midnightblue" points="913.5,-31.5706 910,-21.5707 906.5,-31.5707 913.5,-31.5706"/>
</g>
<!-- Node12 -->
<g id="node23" class="node"><title>Node12</title>
<polygon fill="white" stroke="#bfbfbf" points="959.5,-0.5 959.5,-21.5 1048.5,-21.5 1048.5,-0.5 959.5,-0.5"/>
<text text-anchor="middle" x="1004" y="-8.5" font-family="Helvetica,sans-Serif" font-size="10.00">libxml/xmlerror.h</text>
</g>
<!-- Node1&#45;&gt;Node12 -->
<g id="edge22" class="edge"><title>Node1&#45;&gt;Node12</title>
<path fill="none" stroke="midnightblue" d="M927.241,-58.3619C941.552,-49.532 962.115,-36.844 978.357,-26.8224"/>
<polygon fill="midnightblue" stroke="midnightblue" points="980.196,-29.8004 986.868,-21.5707 976.52,-23.8431 980.196,-29.8004"/>
</g>
<!-- Node13 -->
<g id="node25" class="node"><title>Node13</title>
<polygon fill="white" stroke="#bfbfbf" points="1066,-0.5 1066,-21.5 1146,-21.5 1146,-0.5 1066,-0.5"/>
<text text-anchor="middle" x="1106" y="-8.5" font-family="Helvetica,sans-Serif" font-size="10.00">libxml/xmlIO.h</text>
</g>
<!-- Node1&#45;&gt;Node13 -->
<g id="edge24" class="edge"><title>Node1&#45;&gt;Node13</title>
<path fill="none" stroke="midnightblue" d="M945.494,-58.4966C977.724,-48.9592 1025.43,-34.8408 1060.46,-24.475"/>
<polygon fill="midnightblue" stroke="midnightblue" points="1061.84,-27.7168 1070.44,-21.5231 1059.86,-21.0045 1061.84,-27.7168"/>
</g>
<!-- Node14 -->
<g id="node27" class="node"><title>Node14</title>
<polygon fill="white" stroke="#bfbfbf" points="1164,-0.5 1164,-21.5 1268,-21.5 1268,-0.5 1164,-0.5"/>
<text text-anchor="middle" x="1216" y="-8.5" font-family="Helvetica,sans-Serif" font-size="10.00">libxml/xmlmemory.h</text>
</g>
<!-- Node1&#45;&gt;Node14 -->
<g id="edge26" class="edge"><title>Node1&#45;&gt;Node14</title>
<path fill="none" stroke="midnightblue" d="M965.414,-58.4966C1018.51,-48.432 1098.53,-33.2659 1153.79,-22.7918"/>
<polygon fill="midnightblue" stroke="midnightblue" points="1154.63,-26.1941 1163.81,-20.893 1153.33,-19.3165 1154.63,-26.1941"/>
</g>
<!-- Node15 -->
<g id="node29" class="node"><title>Node15</title>
<polygon fill="white" stroke="#bfbfbf" points="1286,-0.5 1286,-21.5 1382,-21.5 1382,-0.5 1286,-0.5"/>
<text text-anchor="middle" x="1334" y="-8.5" font-family="Helvetica,sans-Serif" font-size="10.00">libxml/xmlreader.h</text>
</g>
<!-- Node1&#45;&gt;Node15 -->
<g id="edge28" class="edge"><title>Node1&#45;&gt;Node15</title>
<path fill="none" stroke="midnightblue" d="M1005.29,-58.472C1077.04,-50.1531 1178.06,-37.614 1275.78,-22.1233"/>
<polygon fill="midnightblue" stroke="midnightblue" points="1276.51,-25.5507 1285.84,-20.5169 1275.41,-18.6384 1276.51,-25.5507"/>
</g>
<!-- Node16 -->
<g id="node31" class="node"><title>Node16</title>
<polygon fill="white" stroke="#bfbfbf" points="1400,-0.5 1400,-21.5 1490,-21.5 1490,-0.5 1400,-0.5"/>
<text text-anchor="middle" x="1445" y="-8.5" font-family="Helvetica,sans-Serif" font-size="10.00">libxml/xmlsave.h</text>
</g>
<!-- Node1&#45;&gt;Node16 -->
<g id="edge30" class="edge"><title>Node1&#45;&gt;Node16</title>
<path fill="none" stroke="midnightblue" d="M1027.54,-60.9316C1122.71,-53.602 1260.38,-41.1995 1389.88,-22.0445"/>
<polygon fill="midnightblue" stroke="midnightblue" points="1390.61,-25.4741 1399.98,-20.5336 1389.57,-18.5511 1390.61,-25.4741"/>
</g>
<!-- Node17 -->
<g id="node33" class="node"><title>Node17</title>
<polygon fill="white" stroke="#bfbfbf" points="1507.5,-0.5 1507.5,-21.5 1610.5,-21.5 1610.5,-0.5 1507.5,-0.5"/>
<text text-anchor="middle" x="1559" y="-8.5" font-family="Helvetica,sans-Serif" font-size="10.00">libxml/xmlunicode.h</text>
</g>
<!-- Node1&#45;&gt;Node17 -->
<g id="edge32" class="edge"><title>Node1&#45;&gt;Node17</title>
<path fill="none" stroke="midnightblue" d="M1027.71,-63.1377C1144.54,-56.507 1328.89,-43.8603 1497.3,-22.1249"/>
<polygon fill="midnightblue" stroke="midnightblue" points="1497.88,-25.5789 1507.34,-20.8152 1496.97,-18.6377 1497.88,-25.5789"/>
</g>
<!-- Node18 -->
<g id="node35" class="node"><title>Node18</title>
<polygon fill="white" stroke="#bfbfbf" points="1627.5,-0.5 1627.5,-21.5 1720.5,-21.5 1720.5,-0.5 1627.5,-0.5"/>
<text text-anchor="middle" x="1674" y="-8.5" font-family="Helvetica,sans-Serif" font-size="10.00">libxml/xmlwriter.h</text>
</g>
<!-- Node1&#45;&gt;Node18 -->
<g id="edge34" class="edge"><title>Node1&#45;&gt;Node18</title>
<path fill="none" stroke="midnightblue" d="M1027.77,-65.9186C1166.62,-61.2136 1404.45,-49.8015 1617.15,-22.1122"/>
<polygon fill="midnightblue" stroke="midnightblue" points="1617.8,-25.5567 1627.26,-20.7814 1616.89,-18.6166 1617.8,-25.5567"/>
</g>
<!-- Node19 -->
<g id="node37" class="node"><title>Node19</title>
<polygon fill="white" stroke="#bfbfbf" points="1737.5,-0.5 1737.5,-21.5 1814.5,-21.5 1814.5,-0.5 1737.5,-0.5"/>
<text text-anchor="middle" x="1776" y="-8.5" font-family="Helvetica,sans-Serif" font-size="10.00">libxml/xpath.h</text>
</g>
<!-- Node1&#45;&gt;Node19 -->
<g id="edge36" class="edge"><title>Node1&#45;&gt;Node19</title>
<path fill="none" stroke="midnightblue" d="M1027.7,-64.751C1216.42,-57.5257 1579.67,-41.8175 1727.13,-22.0295"/>
<polygon fill="midnightblue" stroke="midnightblue" points="1727.95,-25.449 1737.37,-20.5978 1726.98,-18.5164 1727.95,-25.449"/>
</g>
<!-- Node20 -->
<g id="node39" class="node"><title>Node20</title>
<polygon fill="white" stroke="#bfbfbf" points="1831.5,-0.5 1831.5,-21.5 1946.5,-21.5 1946.5,-0.5 1831.5,-0.5"/>
<text text-anchor="middle" x="1889" y="-8.5" font-family="Helvetica,sans-Serif" font-size="10.00">libxml/xpathInternals.h</text>
</g>
<!-- Node1&#45;&gt;Node20 -->
<g id="edge38" class="edge"><title>Node1&#45;&gt;Node20</title>
<path fill="none" stroke="midnightblue" d="M1027.8,-67.2117C1200.02,-63.6414 1530.72,-53.1694 1821.15,-22.0996"/>
<polygon fill="midnightblue" stroke="midnightblue" points="1821.89,-25.5393 1831.46,-20.9857 1821.14,-18.5798 1821.89,-25.5393"/>
</g>
</g>
</svg>
