<?xml version="1.0" encoding="UTF-8" standalone="no"?>
<!DOCTYPE svg PUBLIC "-//W3C//DTD SVG 1.1//EN"
 "http://www.w3.org/Graphics/SVG/1.1/DTD/svg11.dtd">
<!-- Generated by graphviz version 2.26.3 (20100126.1600)
 -->
<!-- Title: G Pages: 1 -->
<svg width="348pt" height="146pt"
 viewBox="0.00 0.00 348.00 146.00" xmlns="http://www.w3.org/2000/svg" xmlns:xlink="http://www.w3.org/1999/xlink">
<g id="graph1" class="graph" transform="scale(1 1) rotate(0) translate(4 142)">
<title>G</title>
<polygon fill="white" stroke="white" points="-4,5 -4,-142 345,-142 345,5 -4,5"/>
<!-- Node1 -->
<g id="node1" class="node"><title>Node1</title>
<polygon fill="#bfbfbf" stroke="black" points="0,-116.5 0,-137.5 340,-137.5 340,-116.5 0,-116.5"/>
<text text-anchor="middle" x="170" y="-124.5" font-family="Helvetica,sans-Serif" font-size="10.00">/home/vilon_tao/gaia/sdk/include/gaia/core/animation/BounceInterpolator.h</text>
</g>
<!-- Node2 -->
<g id="node3" class="node"><title>Node2</title>
<a xlink:href="../../da/d25/_i_interpolator_8h.html" target="_top" xlink:title="gaia/core/animation/IInterpolator.h">
<polygon fill="white" stroke="black" points="88,-58.5 88,-79.5 252,-79.5 252,-58.5 88,-58.5"/>
<text text-anchor="middle" x="170" y="-66.5" font-family="Helvetica,sans-Serif" font-size="10.00">gaia/core/animation/IInterpolator.h</text>
</a>
</g>
<!-- Node1&#45;&gt;Node2 -->
<g id="edge2" class="edge"><title>Node1&#45;&gt;Node2</title>
<path fill="none" stroke="midnightblue" d="M170,-116.362C170,-108.922 170,-98.7427 170,-89.7276"/>
<polygon fill="midnightblue" stroke="midnightblue" points="173.5,-89.5706 170,-79.5707 166.5,-89.5707 173.5,-89.5706"/>
</g>
<!-- Node3 -->
<g id="node5" class="node"><title>Node3</title>
<polygon fill="white" stroke="#bfbfbf" points="65,-0.5 65,-21.5 133,-21.5 133,-0.5 65,-0.5"/>
<text text-anchor="middle" x="99" y="-8.5" font-family="Helvetica,sans-Serif" font-size="10.00">sys/types.h</text>
</g>
<!-- Node2&#45;&gt;Node3 -->
<g id="edge4" class="edge"><title>Node2&#45;&gt;Node3</title>
<path fill="none" stroke="midnightblue" d="M156.978,-58.3619C146.569,-49.859 131.781,-37.7785 119.745,-27.9466"/>
<polygon fill="midnightblue" stroke="midnightblue" points="121.899,-25.1866 111.94,-21.5707 117.47,-30.6077 121.899,-25.1866"/>
</g>
<!-- Node4 -->
<g id="node7" class="node"><title>Node4</title>
<a xlink:href="../../d7/dba/_i_time_interpolator_8h.html" target="_top" xlink:title="gaia/core/animator/ITimeInterpolator.h">
<polygon fill="white" stroke="black" points="151,-0.5 151,-21.5 333,-21.5 333,-0.5 151,-0.5"/>
<text text-anchor="middle" x="242" y="-8.5" font-family="Helvetica,sans-Serif" font-size="10.00">gaia/core/animator/ITimeInterpolator.h</text>
</a>
</g>
<!-- Node2&#45;&gt;Node4 -->
<g id="edge6" class="edge"><title>Node2&#45;&gt;Node4</title>
<path fill="none" stroke="midnightblue" d="M183.206,-58.3619C193.761,-49.859 208.758,-37.7785 220.963,-27.9466"/>
<polygon fill="midnightblue" stroke="midnightblue" points="223.286,-30.5696 228.878,-21.5707 218.895,-25.1183 223.286,-30.5696"/>
</g>
</g>
</svg>
