<?xml version="1.0" encoding="UTF-8" standalone="no"?>
<!DOCTYPE svg PUBLIC "-//W3C//DTD SVG 1.1//EN"
 "http://www.w3.org/Graphics/SVG/1.1/DTD/svg11.dtd">
<!-- Generated by graphviz version 2.26.3 (20100126.1600)
 -->
<!-- Title: G Pages: 1 -->
<svg width="538pt" height="270pt"
 viewBox="0.00 0.00 538.00 270.00" xmlns="http://www.w3.org/2000/svg" xmlns:xlink="http://www.w3.org/1999/xlink">
<g id="graph1" class="graph" transform="scale(1 1) rotate(0) translate(4 266)">
<title>G</title>
<polygon fill="white" stroke="white" points="-4,5 -4,-266 535,-266 535,5 -4,5"/>
<!-- Node1 -->
<g id="node1" class="node"><title>Node1</title>
<polygon fill="#bfbfbf" stroke="black" points="0.5,-120.5 0.5,-141.5 115.5,-141.5 115.5,-120.5 0.5,-120.5"/>
<text text-anchor="middle" x="58" y="-128.5" font-family="Helvetica,sans-Serif" font-size="10.00">gaia::graphics::Drawer</text>
</g>
<!-- Node2 -->
<g id="node3" class="node"><title>Node2</title>
<a xlink:href="../../d8/d3e/classgaia_1_1graphics_1_1_bitmap_drawer.html" target="_top" xlink:title="A Drawer that wraps a bitmap and can be tiled, stretched, or aligned.">
<polygon fill="white" stroke="black" points="160,-240.5 160,-261.5 306,-261.5 306,-240.5 160,-240.5"/>
<text text-anchor="middle" x="233" y="-248.5" font-family="Helvetica,sans-Serif" font-size="10.00">gaia::graphics::BitmapDrawer</text>
</a>
</g>
<!-- Node1&#45;&gt;Node2 -->
<g id="edge2" class="edge"><title>Node1&#45;&gt;Node2</title>
<path fill="none" stroke="midnightblue" d="M70.7146,-150.147C86.8765,-172.939 116.93,-210.49 152,-231 158.502,-234.802 165.704,-237.885 173.055,-240.384"/>
<polygon fill="midnightblue" stroke="midnightblue" points="73.4101,-147.89 64.8487,-141.649 67.6494,-151.867 73.4101,-147.89"/>
</g>
<!-- Node4 -->
<g id="node7" class="node"><title>Node4</title>
<a xlink:href="../../d6/dcd/classgaia_1_1graphics_1_1_color_drawer.html" target="_top" xlink:title="A specialized Drawer that fills the Canvas with a specified color.">
<polygon fill="white" stroke="black" points="164,-200.5 164,-221.5 302,-221.5 302,-200.5 164,-200.5"/>
<text text-anchor="middle" x="233" y="-208.5" font-family="Helvetica,sans-Serif" font-size="10.00">gaia::graphics::ColorDrawer</text>
</a>
</g>
<!-- Node1&#45;&gt;Node4 -->
<g id="edge6" class="edge"><title>Node1&#45;&gt;Node4</title>
<path fill="none" stroke="midnightblue" d="M79.7637,-147.814C98.1148,-161.252 125.546,-179.656 152,-191 160.653,-194.711 170.134,-197.826 179.465,-200.41"/>
<polygon fill="midnightblue" stroke="midnightblue" points="81.6362,-144.844 71.5284,-141.669 77.4498,-150.455 81.6362,-144.844"/>
</g>
<!-- Node5 -->
<g id="node9" class="node"><title>Node5</title>
<a xlink:href="../../d0/da6/classgaia_1_1graphics_1_1_drawer_container.html" target="_top" xlink:title="A helper class that contains several Drawers and selects which one to use.">
<polygon fill="white" stroke="black" points="154.5,-160.5 154.5,-181.5 311.5,-181.5 311.5,-160.5 154.5,-160.5"/>
<text text-anchor="middle" x="233" y="-168.5" font-family="Helvetica,sans-Serif" font-size="10.00">gaia::graphics::DrawerContainer</text>
</a>
</g>
<!-- Node1&#45;&gt;Node5 -->
<g id="edge8" class="edge"><title>Node1&#45;&gt;Node5</title>
<path fill="none" stroke="midnightblue" d="M113.853,-143.766C137.454,-149.161 164.607,-155.367 187.024,-160.491"/>
<polygon fill="midnightblue" stroke="midnightblue" points="114.508,-140.326 103.979,-141.51 112.948,-147.15 114.508,-140.326"/>
</g>
<!-- Node9 -->
<g id="node17" class="node"><title>Node9</title>
<a xlink:href="../../d7/df9/classgaia_1_1graphics_1_1_gradient_drawer.html" target="_top" xlink:title="A Drawer with a color gradient for buttons, backgrounds, etc.">
<polygon fill="white" stroke="black" points="157,-120.5 157,-141.5 309,-141.5 309,-120.5 157,-120.5"/>
<text text-anchor="middle" x="233" y="-128.5" font-family="Helvetica,sans-Serif" font-size="10.00">gaia::graphics::GradientDrawer</text>
</a>
</g>
<!-- Node1&#45;&gt;Node9 -->
<g id="edge16" class="edge"><title>Node1&#45;&gt;Node9</title>
<path fill="none" stroke="midnightblue" d="M125.811,-131C135.982,-131 146.528,-131 156.859,-131"/>
<polygon fill="midnightblue" stroke="midnightblue" points="125.787,-127.5 115.787,-131 125.787,-134.5 125.787,-127.5"/>
</g>
<!-- Node10 -->
<g id="node19" class="node"><title>Node10</title>
<a xlink:href="../../d1/d24/classgaia_1_1graphics_1_1_layer_drawer.html" target="_top" xlink:title="A Drawer that manages an array of other Drawers.">
<polygon fill="white" stroke="black" points="163.5,-80.5 163.5,-101.5 302.5,-101.5 302.5,-80.5 163.5,-80.5"/>
<text text-anchor="middle" x="233" y="-88.5" font-family="Helvetica,sans-Serif" font-size="10.00">gaia::graphics::LayerDrawer</text>
</a>
</g>
<!-- Node1&#45;&gt;Node10 -->
<g id="edge18" class="edge"><title>Node1&#45;&gt;Node10</title>
<path fill="none" stroke="midnightblue" d="M113.853,-118.234C137.454,-112.839 164.607,-106.633 187.024,-101.509"/>
<polygon fill="midnightblue" stroke="midnightblue" points="112.948,-114.85 103.979,-120.49 114.508,-121.674 112.948,-114.85"/>
</g>
<!-- Node11 -->
<g id="node21" class="node"><title>Node11</title>
<a xlink:href="../../dc/dd7/classgaia_1_1graphics_1_1_nine_patch_drawer.html" target="_top" xlink:title="A resizeable bitmap, with stretchable areas that you define.">
<polygon fill="white" stroke="black" points="152.5,-40.5 152.5,-61.5 313.5,-61.5 313.5,-40.5 152.5,-40.5"/>
<text text-anchor="middle" x="233" y="-48.5" font-family="Helvetica,sans-Serif" font-size="10.00">gaia::graphics::NinePatchDrawer</text>
</a>
</g>
<!-- Node1&#45;&gt;Node11 -->
<g id="edge20" class="edge"><title>Node1&#45;&gt;Node11</title>
<path fill="none" stroke="midnightblue" d="M79.7637,-114.186C98.1148,-100.748 125.546,-82.3437 152,-71 160.653,-67.2895 170.134,-64.1739 179.465,-61.5902"/>
<polygon fill="midnightblue" stroke="midnightblue" points="77.4498,-111.545 71.5284,-120.331 81.6362,-117.156 77.4498,-111.545"/>
</g>
<!-- Node13 -->
<g id="node25" class="node"><title>Node13</title>
<a xlink:href="../../de/d00/classgaia_1_1graphics_1_1_rotate_drawer.html" target="_top" xlink:title="A Drawer that can rotate another Drawer based on the current level value.">
<polygon fill="white" stroke="black" points="161,-0.5 161,-21.5 305,-21.5 305,-0.5 161,-0.5"/>
<text text-anchor="middle" x="233" y="-8.5" font-family="Helvetica,sans-Serif" font-size="10.00">gaia::graphics::RotateDrawer</text>
</a>
</g>
<!-- Node1&#45;&gt;Node13 -->
<g id="edge24" class="edge"><title>Node1&#45;&gt;Node13</title>
<path fill="none" stroke="midnightblue" d="M70.7146,-111.853C86.8765,-89.0606 116.93,-51.5101 152,-31 158.502,-27.1975 165.704,-24.1146 173.055,-21.6158"/>
<polygon fill="midnightblue" stroke="midnightblue" points="67.6494,-110.133 64.8487,-120.351 73.4101,-114.11 67.6494,-110.133"/>
</g>
<!-- Node3 -->
<g id="node5" class="node"><title>Node3</title>
<a xlink:href="../../d3/d44/classgaia_1_1graphics_1_1_bitmap_drawer_plus.html" target="_top" xlink:title="A BitmapDrawerPlus only can be defined in an XML file with the &lt;bitmap&#45;plus&gt; element.">
<polygon fill="white" stroke="black" points="357.5,-240.5 357.5,-261.5 522.5,-261.5 522.5,-240.5 357.5,-240.5"/>
<text text-anchor="middle" x="440" y="-248.5" font-family="Helvetica,sans-Serif" font-size="10.00">gaia::graphics::BitmapDrawerPlus</text>
</a>
</g>
<!-- Node2&#45;&gt;Node3 -->
<g id="edge4" class="edge"><title>Node2&#45;&gt;Node3</title>
<path fill="none" stroke="midnightblue" d="M316.459,-251C329.922,-251 343.855,-251 357.299,-251"/>
<polygon fill="midnightblue" stroke="midnightblue" points="316.272,-247.5 306.272,-251 316.272,-254.5 316.272,-247.5"/>
</g>
<!-- Node6 -->
<g id="node11" class="node"><title>Node6</title>
<a xlink:href="../../d4/d9c/classgaia_1_1graphics_1_1_animation_drawer.html" target="_top" xlink:title="An object used to create frame&#45;by&#45;frame animations, defined by a series of Drawer objects...">
<polygon fill="white" stroke="black" points="361,-200.5 361,-221.5 519,-221.5 519,-200.5 361,-200.5"/>
<text text-anchor="middle" x="440" y="-208.5" font-family="Helvetica,sans-Serif" font-size="10.00">gaia::graphics::AnimationDrawer</text>
</a>
</g>
<!-- Node5&#45;&gt;Node6 -->
<g id="edge10" class="edge"><title>Node5&#45;&gt;Node6</title>
<path fill="none" stroke="midnightblue" d="M297.574,-183.478C325.834,-188.939 358.627,-195.276 385.617,-200.491"/>
<polygon fill="midnightblue" stroke="midnightblue" points="297.869,-179.97 287.387,-181.51 296.541,-186.843 297.869,-179.97"/>
</g>
<!-- Node7 -->
<g id="node13" class="node"><title>Node7</title>
<a xlink:href="../../d2/dde/classgaia_1_1graphics_1_1_level_list_drawer.html" target="_top" xlink:title="A resource that manages a number of alternate Drawers, each assigned a maximum numerical value...">
<polygon fill="white" stroke="black" points="363,-160.5 363,-181.5 517,-181.5 517,-160.5 363,-160.5"/>
<text text-anchor="middle" x="440" y="-168.5" font-family="Helvetica,sans-Serif" font-size="10.00">gaia::graphics::LevelListDrawer</text>
</a>
</g>
<!-- Node5&#45;&gt;Node7 -->
<g id="edge12" class="edge"><title>Node5&#45;&gt;Node7</title>
<path fill="none" stroke="midnightblue" d="M321.898,-171C335.535,-171 349.516,-171 362.871,-171"/>
<polygon fill="midnightblue" stroke="midnightblue" points="321.553,-167.5 311.553,-171 321.553,-174.5 321.553,-167.5"/>
</g>
<!-- Node8 -->
<g id="node15" class="node"><title>Node8</title>
<a xlink:href="../../da/dbc/classgaia_1_1graphics_1_1_state_list_drawer.html" target="_top" xlink:title="Lets you assign a number of graphic images to a single Drawer and swap out the visible item by a stri...">
<polygon fill="white" stroke="black" points="363,-120.5 363,-141.5 517,-141.5 517,-120.5 363,-120.5"/>
<text text-anchor="middle" x="440" y="-128.5" font-family="Helvetica,sans-Serif" font-size="10.00">gaia::graphics::StateListDrawer</text>
</a>
</g>
<!-- Node5&#45;&gt;Node8 -->
<g id="edge14" class="edge"><title>Node5&#45;&gt;Node8</title>
<path fill="none" stroke="midnightblue" d="M297.574,-158.522C325.834,-153.061 358.627,-146.724 385.617,-141.509"/>
<polygon fill="midnightblue" stroke="midnightblue" points="296.541,-155.157 287.387,-160.49 297.869,-162.03 296.541,-155.157"/>
</g>
<!-- Node12 -->
<g id="node23" class="node"><title>Node12</title>
<a xlink:href="../../d6/d08/classgaia_1_1graphics_1_1_nine_patch_drawer_plus.html" target="_top" xlink:title="A NinePatchDrawerPlus only can be defined in an XML file with the &lt;bitmap&#45;plus&gt; element.">
<polygon fill="white" stroke="black" points="350,-40.5 350,-61.5 530,-61.5 530,-40.5 350,-40.5"/>
<text text-anchor="middle" x="440" y="-48.5" font-family="Helvetica,sans-Serif" font-size="10.00">gaia::graphics::NinePatchDrawerPlus</text>
</a>
</g>
<!-- Node11&#45;&gt;Node12 -->
<g id="edge22" class="edge"><title>Node11&#45;&gt;Node12</title>
<path fill="none" stroke="midnightblue" d="M323.768,-51C332.469,-51 341.292,-51 349.985,-51"/>
<polygon fill="midnightblue" stroke="midnightblue" points="323.624,-47.5001 313.624,-51 323.624,-54.5001 323.624,-47.5001"/>
</g>
</g>
</svg>
