<?xml version="1.0" encoding="UTF-8" standalone="no"?>
<!DOCTYPE svg PUBLIC "-//W3C//DTD SVG 1.1//EN"
 "http://www.w3.org/Graphics/SVG/1.1/DTD/svg11.dtd">
<!-- Generated by graphviz version 2.26.3 (20100126.1600)
 -->
<!-- Title: G Pages: 1 -->
<svg width="1052pt" height="75pt"
 viewBox="0.00 0.00 1052.00 74.64" xmlns="http://www.w3.org/2000/svg" xmlns:xlink="http://www.w3.org/1999/xlink">
<g id="graph1" class="graph" transform="scale(1 1) rotate(0) translate(4 70.6352)">
<title>G</title>
<polygon fill="white" stroke="white" points="-4,5 -4,-70.6352 1049,-70.6352 1049,5 -4,5"/>
<!-- Node1 -->
<g id="node1" class="node"><title>Node1</title>
<polygon fill="#bfbfbf" stroke="black" points="892,-23.6986 892,-44.6986 1044,-44.6986 1044,-23.6986 892,-23.6986"/>
<text text-anchor="middle" x="968" y="-31.6986" font-family="Helvetica,sans-Serif" font-size="10.00">gaia::media::CodecCapabilities</text>
</g>
<!-- Node2 -->
<g id="node2" class="node"><title>Node2</title>
<a xlink:href="../../df/d5d/classgaia_1_1base_1_1_vector.html" target="_top" xlink:title="gaia::base::Vector\&lt; MediaCodecInfo::CodecProfileLevel * \&gt;">
<polygon fill="white" stroke="black" points="516,-43.6986 516,-64.6986 794,-64.6986 794,-43.6986 516,-43.6986"/>
<text text-anchor="middle" x="655" y="-51.6986" font-family="Helvetica,sans-Serif" font-size="10.00">gaia::base::Vector&lt; MediaCodecInfo::CodecProfileLevel * &gt;</text>
</a>
</g>
<!-- Node2&#45;&gt;Node1 -->
<g id="edge2" class="edge"><title>Node2&#45;&gt;Node1</title>
<path fill="none" stroke="#9a32cd" stroke-dasharray="5,2" d="M804.384,-44.6533C834.741,-42.7135 865.456,-40.7509 891.947,-39.0582"/>
<polygon fill="#9a32cd" stroke="#9a32cd" points="803.866,-41.1792 794.109,-45.3098 804.312,-48.1649 803.866,-41.1792"/>
<text text-anchor="middle" x="843" y="-47.1986" font-family="Helvetica,sans-Serif" font-size="10.00"> profileLevels</text>
</g>
<!-- Node3 -->
<g id="node4" class="node"><title>Node3</title>
<a xlink:href="../../d0/d21/classgaia_1_1base_1_1_vector_impl.html" target="_top" xlink:title="Implements vector data structure equipped with copy&#45;on&#45;write mechanism.">
<polygon fill="white" stroke="black" points="0.5,-20.6986 0.5,-41.6986 115.5,-41.6986 115.5,-20.6986 0.5,-20.6986"/>
<text text-anchor="middle" x="58" y="-28.6986" font-family="Helvetica,sans-Serif" font-size="10.00">gaia::base::VectorImpl</text>
</a>
</g>
<!-- Node3&#45;&gt;Node2 -->
<g id="edge4" class="edge"><title>Node3&#45;&gt;Node2</title>
<path fill="none" stroke="#8b1a1a" d="M112.36,-43.8635C125.9,-46.6473 140.427,-49.3211 154,-51.1986 305.524,-72.158 345.083,-66.092 498,-62.1986 503.866,-62.0492 509.854,-61.8685 515.902,-61.6628"/>
<polygon fill="#8b1a1a" stroke="#8b1a1a" points="112.738,-40.3662 102.23,-41.7246 111.291,-47.2152 112.738,-40.3662"/>
</g>
<!-- Node4 -->
<g id="node6" class="node"><title>Node4</title>
<a xlink:href="../../df/d5d/classgaia_1_1base_1_1_vector.html" target="_top" xlink:title="This class implements the vector data structure.">
<polygon fill="white" stroke="black" points="154,-20.6986 154,-41.6986 294,-41.6986 294,-20.6986 154,-20.6986"/>
<text text-anchor="middle" x="224" y="-28.6986" font-family="Helvetica,sans-Serif" font-size="10.00">gaia::base::Vector&lt; TYPE &gt;</text>
</a>
</g>
<!-- Node3&#45;&gt;Node4 -->
<g id="edge8" class="edge"><title>Node3&#45;&gt;Node4</title>
<path fill="none" stroke="#8b1a1a" d="M125.596,-31.1986C134.933,-31.1986 144.54,-31.1986 153.921,-31.1986"/>
<polygon fill="#8b1a1a" stroke="#8b1a1a" points="125.593,-27.6987 115.593,-31.1986 125.593,-34.6987 125.593,-27.6987"/>
</g>
<!-- Node5 -->
<g id="node9" class="node"><title>Node5</title>
<a xlink:href="../../df/d5d/classgaia_1_1base_1_1_vector.html" target="_top" xlink:title="gaia::base::Vector\&lt; int32_t \&gt;">
<polygon fill="white" stroke="black" points="583.5,-3.69858 583.5,-24.6986 726.5,-24.6986 726.5,-3.69858 583.5,-3.69858"/>
<text text-anchor="middle" x="655" y="-11.6986" font-family="Helvetica,sans-Serif" font-size="10.00">gaia::base::Vector&lt; int32_t &gt;</text>
</a>
</g>
<!-- Node3&#45;&gt;Node5 -->
<g id="edge12" class="edge"><title>Node3&#45;&gt;Node5</title>
<path fill="none" stroke="#8b1a1a" d="M110.701,-18.5028C124.696,-15.6037 139.853,-12.8832 154,-11.1986 306.012,6.902 485.808,-1.30368 583.336,-8.19987"/>
<polygon fill="#8b1a1a" stroke="#8b1a1a" points="109.794,-15.1177 100.748,-20.6331 111.259,-21.9627 109.794,-15.1177"/>
</g>
<!-- Node4&#45;&gt;Node2 -->
<g id="edge6" class="edge"><title>Node4&#45;&gt;Node2</title>
<path fill="none" stroke="orange" stroke-dasharray="5,2" d="M304.274,-35.4823C363.649,-38.6508 446.006,-43.0458 515.994,-46.7806"/>
<polygon fill="orange" stroke="orange" points="304.379,-31.9831 294.207,-34.9451 304.006,-38.9731 304.379,-31.9831"/>
<text text-anchor="middle" x="405" y="-49.1986" font-family="Helvetica,sans-Serif" font-size="10.00"> &lt; MediaCodecInfo::CodecProfileLevel * &gt;</text>
</g>
<!-- Node4&#45;&gt;Node5 -->
<g id="edge14" class="edge"><title>Node4&#45;&gt;Node5</title>
<path fill="none" stroke="orange" stroke-dasharray="5,2" d="M292.726,-19.2579C299.226,-18.4327 305.727,-17.722 312,-17.1986 405.468,-9.39866 513.756,-10.0608 583.251,-11.725"/>
<polygon fill="orange" stroke="orange" points="291.987,-15.8261 282.548,-20.6385 292.928,-22.7626 291.987,-15.8261"/>
<text text-anchor="middle" x="405" y="-21.1986" font-family="Helvetica,sans-Serif" font-size="10.00"> &lt; int32_t &gt;</text>
</g>
<!-- Node5&#45;&gt;Node1 -->
<g id="edge10" class="edge"><title>Node5&#45;&gt;Node1</title>
<path fill="none" stroke="#9a32cd" stroke-dasharray="5,2" d="M736.586,-16.0892C777.822,-17.4161 828.616,-19.6157 874,-23.1986 879.815,-23.6576 885.825,-24.2009 891.863,-24.7962"/>
<polygon fill="#9a32cd" stroke="#9a32cd" points="736.693,-12.591 726.589,-15.7786 736.476,-19.5876 736.693,-12.591"/>
<text text-anchor="middle" x="843" y="-27.1986" font-family="Helvetica,sans-Serif" font-size="10.00"> colorFormats</text>
</g>
</g>
</svg>
