<?xml version="1.0" encoding="UTF-8" standalone="no"?>
<!DOCTYPE svg PUBLIC "-//W3C//DTD SVG 1.1//EN"
 "http://www.w3.org/Graphics/SVG/1.1/DTD/svg11.dtd">
<!-- Generated by graphviz version 2.26.3 (20100126.1600)
 -->
<!-- Title: G Pages: 1 -->
<svg width="468pt" height="204pt"
 viewBox="0.00 0.00 468.00 204.00" xmlns="http://www.w3.org/2000/svg" xmlns:xlink="http://www.w3.org/1999/xlink">
<g id="graph1" class="graph" transform="scale(1 1) rotate(0) translate(4 200)">
<title>G</title>
<polygon fill="white" stroke="white" points="-4,5 -4,-200 465,-200 465,5 -4,5"/>
<!-- Node1 -->
<g id="node1" class="node"><title>Node1</title>
<polygon fill="#bfbfbf" stroke="black" points="116.5,-174.5 116.5,-195.5 367.5,-195.5 367.5,-174.5 116.5,-174.5"/>
<text text-anchor="middle" x="242" y="-182.5" font-family="Helvetica,sans-Serif" font-size="10.00">/home/vilon_tao/gaia/sdk/include/gaia/core/GL11Ext.h</text>
</g>
<!-- Node2 -->
<g id="node3" class="node"><title>Node2</title>
<polygon fill="white" stroke="#bfbfbf" points="-0.5,-0.5 -0.5,-21.5 48.5,-21.5 48.5,-0.5 -0.5,-0.5"/>
<text text-anchor="middle" x="24" y="-8.5" font-family="Helvetica,sans-Serif" font-size="10.00">stdint.h</text>
</g>
<!-- Node1&#45;&gt;Node2 -->
<g id="edge2" class="edge"><title>Node1&#45;&gt;Node2</title>
<path fill="none" stroke="midnightblue" d="M194.764,-174.39C146.576,-160.965 73.5639,-132.922 35,-80 24.9806,-66.2504 22.638,-46.8565 22.5678,-32.1296"/>
<polygon fill="midnightblue" stroke="midnightblue" points="26.0717,-32.0471 22.8677,-21.9484 19.0747,-31.841 26.0717,-32.0471"/>
</g>
<!-- Node3 -->
<g id="node5" class="node"><title>Node3</title>
<a xlink:href="../../d3/dc5/_array_8h.html" target="_top" xlink:title="gaia/base/Array.h">
<polygon fill="white" stroke="black" points="195.5,-116.5 195.5,-137.5 288.5,-137.5 288.5,-116.5 195.5,-116.5"/>
<text text-anchor="middle" x="242" y="-124.5" font-family="Helvetica,sans-Serif" font-size="10.00">gaia/base/Array.h</text>
</a>
</g>
<!-- Node1&#45;&gt;Node3 -->
<g id="edge4" class="edge"><title>Node1&#45;&gt;Node3</title>
<path fill="none" stroke="midnightblue" d="M242,-174.362C242,-166.922 242,-156.743 242,-147.728"/>
<polygon fill="midnightblue" stroke="midnightblue" points="245.5,-147.571 242,-137.571 238.5,-147.571 245.5,-147.571"/>
</g>
<!-- Node9 -->
<g id="node20" class="node"><title>Node9</title>
<a xlink:href="../../d9/dd7/_g_l_8h.html" target="_top" xlink:title="gaia/core/GL.h">
<polygon fill="white" stroke="black" points="336,-116.5 336,-137.5 416,-137.5 416,-116.5 336,-116.5"/>
<text text-anchor="middle" x="376" y="-124.5" font-family="Helvetica,sans-Serif" font-size="10.00">gaia/core/GL.h</text>
</a>
</g>
<!-- Node1&#45;&gt;Node9 -->
<g id="edge22" class="edge"><title>Node1&#45;&gt;Node9</title>
<path fill="none" stroke="midnightblue" d="M266.266,-174.497C287.478,-165.315 318.498,-151.889 342.15,-141.652"/>
<polygon fill="midnightblue" stroke="midnightblue" points="343.674,-144.806 351.461,-137.621 340.894,-138.381 343.674,-144.806"/>
</g>
<!-- Node4 -->
<g id="node7" class="node"><title>Node4</title>
<a xlink:href="../../d8/dae/_array_impl_8h.html" target="_top" xlink:title="gaia/base/ArrayImpl.h">
<polygon fill="white" stroke="black" points="186,-58.5 186,-79.5 298,-79.5 298,-58.5 186,-58.5"/>
<text text-anchor="middle" x="242" y="-66.5" font-family="Helvetica,sans-Serif" font-size="10.00">gaia/base/ArrayImpl.h</text>
</a>
</g>
<!-- Node3&#45;&gt;Node4 -->
<g id="edge6" class="edge"><title>Node3&#45;&gt;Node4</title>
<path fill="none" stroke="midnightblue" d="M242,-116.362C242,-108.922 242,-98.7427 242,-89.7276"/>
<polygon fill="midnightblue" stroke="midnightblue" points="245.5,-89.5706 242,-79.5707 238.5,-89.5707 245.5,-89.5706"/>
</g>
<!-- Node5 -->
<g id="node9" class="node"><title>Node5</title>
<polygon fill="white" stroke="#bfbfbf" points="208,-0.5 208,-21.5 276,-21.5 276,-0.5 208,-0.5"/>
<text text-anchor="middle" x="242" y="-8.5" font-family="Helvetica,sans-Serif" font-size="10.00">sys/types.h</text>
</g>
<!-- Node3&#45;&gt;Node5 -->
<g id="edge20" class="edge"><title>Node3&#45;&gt;Node5</title>
<path fill="none" stroke="midnightblue" d="M266.432,-116.473C281.098,-108.715 298.509,-96.617 307,-80 317.877,-58.7134 295.486,-39.3694 274.077,-26.6163"/>
<polygon fill="midnightblue" stroke="midnightblue" points="275.497,-23.4 265.062,-21.5677 272.076,-29.5076 275.497,-23.4"/>
</g>
<!-- Node6 -->
<g id="node11" class="node"><title>Node6</title>
<a xlink:href="../../d1/d86/_type_helpers_8h.html" target="_top" xlink:title="gaia/base/TypeHelpers.h">
<polygon fill="white" stroke="black" points="43.5,-58.5 43.5,-79.5 168.5,-79.5 168.5,-58.5 43.5,-58.5"/>
<text text-anchor="middle" x="106" y="-66.5" font-family="Helvetica,sans-Serif" font-size="10.00">gaia/base/TypeHelpers.h</text>
</a>
</g>
<!-- Node3&#45;&gt;Node6 -->
<g id="edge10" class="edge"><title>Node3&#45;&gt;Node6</title>
<path fill="none" stroke="midnightblue" d="M217.371,-116.497C195.843,-107.315 164.36,-93.8889 140.355,-83.6516"/>
<polygon fill="midnightblue" stroke="midnightblue" points="141.476,-80.3247 130.905,-79.6212 138.73,-86.7636 141.476,-80.3247"/>
</g>
<!-- Node4&#45;&gt;Node5 -->
<g id="edge8" class="edge"><title>Node4&#45;&gt;Node5</title>
<path fill="none" stroke="midnightblue" d="M242,-58.3619C242,-50.9219 242,-40.7427 242,-31.7276"/>
<polygon fill="midnightblue" stroke="midnightblue" points="245.5,-31.5706 242,-21.5707 238.5,-31.5707 245.5,-31.5706"/>
</g>
<!-- Node6&#45;&gt;Node2 -->
<g id="edge12" class="edge"><title>Node6&#45;&gt;Node2</title>
<path fill="none" stroke="midnightblue" d="M90.9599,-58.3619C78.7075,-49.6955 61.2005,-37.3126 47.1606,-27.3819"/>
<polygon fill="midnightblue" stroke="midnightblue" points="49.13,-24.4879 38.9447,-21.5707 45.0877,-30.2028 49.13,-24.4879"/>
</g>
<!-- Node6&#45;&gt;Node5 -->
<g id="edge16" class="edge"><title>Node6&#45;&gt;Node5</title>
<path fill="none" stroke="midnightblue" d="M130.629,-58.4966C152.157,-49.3154 183.64,-35.8889 207.645,-25.6516"/>
<polygon fill="midnightblue" stroke="midnightblue" points="209.27,-28.7636 217.095,-21.6212 206.524,-22.3247 209.27,-28.7636"/>
</g>
<!-- Node7 -->
<g id="node14" class="node"><title>Node7</title>
<polygon fill="white" stroke="#bfbfbf" points="125.5,-0.5 125.5,-21.5 174.5,-21.5 174.5,-0.5 125.5,-0.5"/>
<text text-anchor="middle" x="150" y="-8.5" font-family="Helvetica,sans-Serif" font-size="10.00">string.h</text>
</g>
<!-- Node6&#45;&gt;Node7 -->
<g id="edge14" class="edge"><title>Node6&#45;&gt;Node7</title>
<path fill="none" stroke="midnightblue" d="M114.07,-58.3619C120.149,-50.3496 128.637,-39.1605 135.837,-29.6696"/>
<polygon fill="midnightblue" stroke="midnightblue" points="138.725,-31.653 141.981,-21.5707 133.149,-27.4222 138.725,-31.653"/>
</g>
<!-- Node8 -->
<g id="node17" class="node"><title>Node8</title>
<polygon fill="white" stroke="#bfbfbf" points="73.5,-0.5 73.5,-21.5 108.5,-21.5 108.5,-0.5 73.5,-0.5"/>
<text text-anchor="middle" x="91" y="-8.5" font-family="Helvetica,sans-Serif" font-size="10.00">new</text>
</g>
<!-- Node6&#45;&gt;Node8 -->
<g id="edge18" class="edge"><title>Node6&#45;&gt;Node8</title>
<path fill="none" stroke="midnightblue" d="M103.249,-58.3619C101.303,-50.8401 98.6341,-40.5187 96.2838,-31.4308"/>
<polygon fill="midnightblue" stroke="midnightblue" points="99.6262,-30.3758 93.7338,-21.5707 92.8492,-32.1285 99.6262,-30.3758"/>
</g>
<!-- Node10 -->
<g id="node22" class="node"><title>Node10</title>
<a xlink:href="../../d1/dd0/gmacros_8h.html" target="_top" xlink:title="gaia/base/gmacros.h">
<polygon fill="white" stroke="black" points="353.5,-58.5 353.5,-79.5 460.5,-79.5 460.5,-58.5 353.5,-58.5"/>
<text text-anchor="middle" x="407" y="-66.5" font-family="Helvetica,sans-Serif" font-size="10.00">gaia/base/gmacros.h</text>
</a>
</g>
<!-- Node9&#45;&gt;Node10 -->
<g id="edge24" class="edge"><title>Node9&#45;&gt;Node10</title>
<path fill="none" stroke="midnightblue" d="M381.686,-116.362C385.837,-108.595 391.584,-97.8426 396.553,-88.5458"/>
<polygon fill="midnightblue" stroke="midnightblue" points="399.723,-90.0398 401.35,-79.5707 393.55,-86.7401 399.723,-90.0398"/>
</g>
</g>
</svg>
