<?xml version="1.0" encoding="UTF-8" standalone="no"?>
<!DOCTYPE svg PUBLIC "-//W3C//DTD SVG 1.1//EN"
 "http://www.w3.org/Graphics/SVG/1.1/DTD/svg11.dtd">
<!-- Generated by graphviz version 2.26.3 (20100126.1600)
 -->
<!-- Title: G Pages: 1 -->
<svg width="320pt" height="146pt"
 viewBox="0.00 0.00 320.00 146.00" xmlns="http://www.w3.org/2000/svg" xmlns:xlink="http://www.w3.org/1999/xlink">
<g id="graph1" class="graph" transform="scale(1 1) rotate(0) translate(4 142)">
<title>G</title>
<polygon fill="white" stroke="white" points="-4,5 -4,-142 317,-142 317,5 -4,5"/>
<!-- Node1 -->
<g id="node1" class="node"><title>Node1</title>
<polygon fill="#bfbfbf" stroke="black" points="-0.5,-116.5 -0.5,-137.5 312.5,-137.5 312.5,-116.5 -0.5,-116.5"/>
<text text-anchor="middle" x="156" y="-124.5" font-family="Helvetica,sans-Serif" font-size="10.00">/home/vilon_tao/gaia/sdk/include/gaia/ui/ListItemControllerParams.h</text>
</g>
<!-- Node2 -->
<g id="node3" class="node"><title>Node2</title>
<polygon fill="white" stroke="#bfbfbf" points="131.5,-0.5 131.5,-21.5 180.5,-21.5 180.5,-0.5 131.5,-0.5"/>
<text text-anchor="middle" x="156" y="-8.5" font-family="Helvetica,sans-Serif" font-size="10.00">stdint.h</text>
</g>
<!-- Node1&#45;&gt;Node2 -->
<g id="edge2" class="edge"><title>Node1&#45;&gt;Node2</title>
<path fill="none" stroke="midnightblue" d="M147.247,-116.199C140.506,-107.144 131.731,-93.5528 128,-80 125.405,-70.5729 125.405,-67.4271 128,-58 130.711,-48.153 136.085,-38.2859 141.406,-30.1528"/>
<polygon fill="midnightblue" stroke="midnightblue" points="144.384,-32.0015 147.247,-21.8007 138.648,-27.9898 144.384,-32.0015"/>
</g>
<!-- Node3 -->
<g id="node5" class="node"><title>Node3</title>
<a xlink:href="../../d9/de8/_controller_params_8h.html" target="_top" xlink:title="gaia/ui/ControllerParams.h">
<polygon fill="white" stroke="black" points="137,-58.5 137,-79.5 269,-79.5 269,-58.5 137,-58.5"/>
<text text-anchor="middle" x="203" y="-66.5" font-family="Helvetica,sans-Serif" font-size="10.00">gaia/ui/ControllerParams.h</text>
</a>
</g>
<!-- Node1&#45;&gt;Node3 -->
<g id="edge4" class="edge"><title>Node1&#45;&gt;Node3</title>
<path fill="none" stroke="midnightblue" d="M164.621,-116.362C171.18,-108.268 180.366,-96.9318 188.106,-87.3796"/>
<polygon fill="midnightblue" stroke="midnightblue" points="190.858,-89.5436 194.434,-79.5707 185.419,-85.1364 190.858,-89.5436"/>
</g>
<!-- Node3&#45;&gt;Node2 -->
<g id="edge6" class="edge"><title>Node3&#45;&gt;Node2</title>
<path fill="none" stroke="midnightblue" d="M194.379,-58.3619C187.82,-50.2678 178.634,-38.9318 170.894,-29.3796"/>
<polygon fill="midnightblue" stroke="midnightblue" points="173.581,-27.1364 164.566,-21.5707 168.142,-31.5436 173.581,-27.1364"/>
</g>
</g>
</svg>
