<?xml version="1.0" encoding="UTF-8" standalone="no"?>
<!DOCTYPE svg PUBLIC "-//W3C//DTD SVG 1.1//EN"
 "http://www.w3.org/Graphics/SVG/1.1/DTD/svg11.dtd">
<!-- Generated by graphviz version 2.26.3 (20100126.1600)
 -->
<!-- Title: G Pages: 1 -->
<svg width="364pt" height="204pt"
 viewBox="0.00 0.00 364.00 204.00" xmlns="http://www.w3.org/2000/svg" xmlns:xlink="http://www.w3.org/1999/xlink">
<g id="graph1" class="graph" transform="scale(1 1) rotate(0) translate(4 200)">
<title>G</title>
<polygon fill="white" stroke="white" points="-4,5 -4,-200 361,-200 361,5 -4,5"/>
<!-- Node1 -->
<g id="node1" class="node"><title>Node1</title>
<polygon fill="#bfbfbf" stroke="black" points="0,-174.5 0,-195.5 272,-195.5 272,-174.5 0,-174.5"/>
<text text-anchor="middle" x="136" y="-182.5" font-family="Helvetica,sans-Serif" font-size="10.00">/home/vilon_tao/gaia/sdk/include/gaia/ui/AlphabetIndexer.h</text>
</g>
<!-- Node2 -->
<g id="node3" class="node"><title>Node2</title>
<a xlink:href="../../db/d53/_string_array_8h.html" target="_top" xlink:title="gaia/base/StringArray.h">
<polygon fill="white" stroke="black" points="51.5,-58.5 51.5,-79.5 170.5,-79.5 170.5,-58.5 51.5,-58.5"/>
<text text-anchor="middle" x="111" y="-66.5" font-family="Helvetica,sans-Serif" font-size="10.00">gaia/base/StringArray.h</text>
</a>
</g>
<!-- Node1&#45;&gt;Node2 -->
<g id="edge2" class="edge"><title>Node1&#45;&gt;Node2</title>
<path fill="none" stroke="midnightblue" d="M97.8116,-174.458C79.6576,-167.316 59.6396,-155.841 49,-138 36.8743,-117.667 59.1173,-97.9342 80.2568,-84.8164"/>
<polygon fill="midnightblue" stroke="midnightblue" points="82.281,-87.6872 89.1457,-79.6171 78.7467,-81.645 82.281,-87.6872"/>
</g>
<!-- Node4 -->
<g id="node7" class="node"><title>Node4</title>
<a xlink:href="../../d4/d95/_data_set_observer_8h.html" target="_top" xlink:title="gaia/storage/DataSetObserver.h">
<polygon fill="white" stroke="black" points="57.5,-116.5 57.5,-137.5 214.5,-137.5 214.5,-116.5 57.5,-116.5"/>
<text text-anchor="middle" x="136" y="-124.5" font-family="Helvetica,sans-Serif" font-size="10.00">gaia/storage/DataSetObserver.h</text>
</a>
</g>
<!-- Node1&#45;&gt;Node4 -->
<g id="edge6" class="edge"><title>Node1&#45;&gt;Node4</title>
<path fill="none" stroke="midnightblue" d="M136,-174.362C136,-166.922 136,-156.743 136,-147.728"/>
<polygon fill="midnightblue" stroke="midnightblue" points="139.5,-147.571 136,-137.571 132.5,-147.571 139.5,-147.571"/>
</g>
<!-- Node5 -->
<g id="node9" class="node"><title>Node5</title>
<a xlink:href="../../d3/d48/_i_section_indexer_8h.html" target="_top" xlink:title="gaia/ui/ISectionIndexer.h">
<polygon fill="white" stroke="black" points="231.5,-116.5 231.5,-137.5 356.5,-137.5 356.5,-116.5 231.5,-116.5"/>
<text text-anchor="middle" x="294" y="-124.5" font-family="Helvetica,sans-Serif" font-size="10.00">gaia/ui/ISectionIndexer.h</text>
</a>
</g>
<!-- Node1&#45;&gt;Node5 -->
<g id="edge8" class="edge"><title>Node1&#45;&gt;Node5</title>
<path fill="none" stroke="midnightblue" d="M164.613,-174.497C190.148,-165.123 227.737,-151.324 255.829,-141.012"/>
<polygon fill="midnightblue" stroke="midnightblue" points="257.152,-144.255 265.334,-137.523 254.74,-137.684 257.152,-144.255"/>
</g>
<!-- Node3 -->
<g id="node5" class="node"><title>Node3</title>
<polygon fill="white" stroke="#bfbfbf" points="77,-0.5 77,-21.5 145,-21.5 145,-0.5 77,-0.5"/>
<text text-anchor="middle" x="111" y="-8.5" font-family="Helvetica,sans-Serif" font-size="10.00">sys/types.h</text>
</g>
<!-- Node2&#45;&gt;Node3 -->
<g id="edge4" class="edge"><title>Node2&#45;&gt;Node3</title>
<path fill="none" stroke="midnightblue" d="M111,-58.3619C111,-50.9219 111,-40.7427 111,-31.7276"/>
<polygon fill="midnightblue" stroke="midnightblue" points="114.5,-31.5706 111,-21.5707 107.5,-31.5707 114.5,-31.5706"/>
</g>
<!-- Node5&#45;&gt;Node2 -->
<g id="edge12" class="edge"><title>Node5&#45;&gt;Node2</title>
<path fill="none" stroke="midnightblue" d="M260.86,-116.497C230.897,-107 186.604,-92.9619 153.938,-82.6087"/>
<polygon fill="midnightblue" stroke="midnightblue" points="154.792,-79.208 144.202,-79.5231 152.677,-85.8809 154.792,-79.208"/>
</g>
<!-- Node6 -->
<g id="node11" class="node"><title>Node6</title>
<polygon fill="white" stroke="#bfbfbf" points="270,-58.5 270,-79.5 318,-79.5 318,-58.5 270,-58.5"/>
<text text-anchor="middle" x="294" y="-66.5" font-family="Helvetica,sans-Serif" font-size="10.00">limits.h</text>
</g>
<!-- Node5&#45;&gt;Node6 -->
<g id="edge10" class="edge"><title>Node5&#45;&gt;Node6</title>
<path fill="none" stroke="midnightblue" d="M294,-116.362C294,-108.922 294,-98.7427 294,-89.7276"/>
<polygon fill="midnightblue" stroke="midnightblue" points="297.5,-89.5706 294,-79.5707 290.5,-89.5707 297.5,-89.5706"/>
</g>
</g>
</svg>
