<?xml version="1.0" encoding="UTF-8" standalone="no"?>
<!DOCTYPE svg PUBLIC "-//W3C//DTD SVG 1.1//EN"
 "http://www.w3.org/Graphics/SVG/1.1/DTD/svg11.dtd">
<!-- Generated by graphviz version 2.26.3 (20100126.1600)
 -->
<!-- Title: G Pages: 1 -->
<svg width="378pt" height="146pt"
 viewBox="0.00 0.00 378.00 146.00" xmlns="http://www.w3.org/2000/svg" xmlns:xlink="http://www.w3.org/1999/xlink">
<g id="graph1" class="graph" transform="scale(1 1) rotate(0) translate(4 142)">
<title>G</title>
<polygon fill="white" stroke="white" points="-4,5 -4,-142 375,-142 375,5 -4,5"/>
<!-- Node1 -->
<g id="node1" class="node"><title>Node1</title>
<polygon fill="#bfbfbf" stroke="black" points="0,-116.5 0,-137.5 370,-137.5 370,-116.5 0,-116.5"/>
<text text-anchor="middle" x="185" y="-124.5" font-family="Helvetica,sans-Serif" font-size="10.00">/home/vilon_tao/gaia/sdk/include/gaia/connectivity/obex/ServerRequestHandler.h</text>
</g>
<!-- Node2 -->
<g id="node3" class="node"><title>Node2</title>
<polygon fill="white" stroke="#bfbfbf" points="49.5,-0.5 49.5,-21.5 98.5,-21.5 98.5,-0.5 49.5,-0.5"/>
<text text-anchor="middle" x="74" y="-8.5" font-family="Helvetica,sans-Serif" font-size="10.00">stdint.h</text>
</g>
<!-- Node1&#45;&gt;Node2 -->
<g id="edge2" class="edge"><title>Node1&#45;&gt;Node2</title>
<path fill="none" stroke="midnightblue" d="M131.548,-116.479C111.073,-109.62 89.62,-98.372 77,-80 67.4784,-66.1386 67.4892,-46.7554 69.4456,-32.0611"/>
<polygon fill="midnightblue" stroke="midnightblue" points="72.9462,-32.3564 71.1952,-21.9073 66.0478,-31.1677 72.9462,-32.3564"/>
</g>
<!-- Node3 -->
<g id="node5" class="node"><title>Node3</title>
<a xlink:href="../../d1/dd0/gmacros_8h.html" target="_top" xlink:title="gaia/base/gmacros.h">
<polygon fill="white" stroke="black" points="194.5,-0.5 194.5,-21.5 301.5,-21.5 301.5,-0.5 194.5,-0.5"/>
<text text-anchor="middle" x="248" y="-8.5" font-family="Helvetica,sans-Serif" font-size="10.00">gaia/base/gmacros.h</text>
</a>
</g>
<!-- Node1&#45;&gt;Node3 -->
<g id="edge4" class="edge"><title>Node1&#45;&gt;Node3</title>
<path fill="none" stroke="midnightblue" d="M239.698,-116.462C259.976,-109.618 280.95,-98.3853 293,-80 304.655,-62.2167 287.596,-41.817 271.243,-27.8377"/>
<polygon fill="midnightblue" stroke="midnightblue" points="273.387,-25.0704 263.401,-21.5305 268.999,-30.5251 273.387,-25.0704"/>
</g>
<!-- Node4 -->
<g id="node7" class="node"><title>Node4</title>
<a xlink:href="../../de/d0f/_response_codes_8h.html" target="_top" xlink:title="gaia/connectivity/obex/ResponseCodes.h">
<polygon fill="white" stroke="black" points="86,-58.5 86,-79.5 284,-79.5 284,-58.5 86,-58.5"/>
<text text-anchor="middle" x="185" y="-66.5" font-family="Helvetica,sans-Serif" font-size="10.00">gaia/connectivity/obex/ResponseCodes.h</text>
</a>
</g>
<!-- Node1&#45;&gt;Node4 -->
<g id="edge6" class="edge"><title>Node1&#45;&gt;Node4</title>
<path fill="none" stroke="midnightblue" d="M185,-116.362C185,-108.922 185,-98.7427 185,-89.7276"/>
<polygon fill="midnightblue" stroke="midnightblue" points="188.5,-89.5706 185,-79.5707 181.5,-89.5707 188.5,-89.5706"/>
</g>
<!-- Node4&#45;&gt;Node2 -->
<g id="edge8" class="edge"><title>Node4&#45;&gt;Node2</title>
<path fill="none" stroke="midnightblue" d="M164.899,-58.4966C147.718,-49.5194 122.77,-36.4835 103.355,-26.3387"/>
<polygon fill="midnightblue" stroke="midnightblue" points="104.811,-23.1503 94.3268,-21.6212 101.569,-29.3544 104.811,-23.1503"/>
</g>
<!-- Node4&#45;&gt;Node3 -->
<g id="edge10" class="edge"><title>Node4&#45;&gt;Node3</title>
<path fill="none" stroke="midnightblue" d="M196.555,-58.3619C205.613,-50.0226 218.41,-38.2418 228.974,-28.5162"/>
<polygon fill="midnightblue" stroke="midnightblue" points="231.532,-30.9187 236.518,-21.5707 226.79,-25.7688 231.532,-30.9187"/>
</g>
</g>
</svg>
