<?xml version="1.0" encoding="UTF-8" standalone="no"?>
<!DOCTYPE svg PUBLIC "-//W3C//DTD SVG 1.1//EN"
 "http://www.w3.org/Graphics/SVG/1.1/DTD/svg11.dtd">
<!-- Generated by graphviz version 2.26.3 (20100126.1600)
 -->
<!-- Title: G Pages: 1 -->
<svg width="328pt" height="146pt"
 viewBox="0.00 0.00 328.00 146.00" xmlns="http://www.w3.org/2000/svg" xmlns:xlink="http://www.w3.org/1999/xlink">
<g id="graph1" class="graph" transform="scale(1 1) rotate(0) translate(4 142)">
<title>G</title>
<polygon fill="white" stroke="white" points="-4,5 -4,-142 325,-142 325,5 -4,5"/>
<!-- Node1 -->
<g id="node1" class="node"><title>Node1</title>
<polygon fill="#bfbfbf" stroke="black" points="0,-116.5 0,-137.5 296,-137.5 296,-116.5 0,-116.5"/>
<text text-anchor="middle" x="148" y="-124.5" font-family="Helvetica,sans-Serif" font-size="10.00">/home/vilon_tao/gaia/sdk/include/gaia/security/X509Certificate.h</text>
</g>
<!-- Node2 -->
<g id="node3" class="node"><title>Node2</title>
<a xlink:href="../../d1/dfa/_certificate_8h.html" target="_top" xlink:title="gaia/security/Certificate.h">
<polygon fill="white" stroke="black" points="84,-58.5 84,-79.5 212,-79.5 212,-58.5 84,-58.5"/>
<text text-anchor="middle" x="148" y="-66.5" font-family="Helvetica,sans-Serif" font-size="10.00">gaia/security/Certificate.h</text>
</a>
</g>
<!-- Node1&#45;&gt;Node2 -->
<g id="edge2" class="edge"><title>Node1&#45;&gt;Node2</title>
<path fill="none" stroke="midnightblue" d="M148,-116.362C148,-108.922 148,-98.7427 148,-89.7276"/>
<polygon fill="midnightblue" stroke="midnightblue" points="151.5,-89.5706 148,-79.5707 144.5,-89.5707 151.5,-89.5706"/>
</g>
<!-- Node3 -->
<g id="node5" class="node"><title>Node3</title>
<polygon fill="white" stroke="#bfbfbf" points="32,-0.5 32,-21.5 112,-21.5 112,-0.5 32,-0.5"/>
<text text-anchor="middle" x="72" y="-8.5" font-family="Helvetica,sans-Serif" font-size="10.00">openssl/pem.h</text>
</g>
<!-- Node2&#45;&gt;Node3 -->
<g id="edge4" class="edge"><title>Node2&#45;&gt;Node3</title>
<path fill="none" stroke="midnightblue" d="M134.06,-58.3619C122.812,-49.7773 106.784,-37.5459 93.835,-27.6636"/>
<polygon fill="midnightblue" stroke="midnightblue" points="95.9241,-24.8551 85.8512,-21.5707 91.6774,-30.4198 95.9241,-24.8551"/>
</g>
<!-- Node4 -->
<g id="node7" class="node"><title>Node4</title>
<a xlink:href="../../d8/d47/_security_common_header_8h.html" target="_top" xlink:title="gaia/security/SecurityCommonHeader.h">
<polygon fill="white" stroke="black" points="129.5,-0.5 129.5,-21.5 320.5,-21.5 320.5,-0.5 129.5,-0.5"/>
<text text-anchor="middle" x="225" y="-8.5" font-family="Helvetica,sans-Serif" font-size="10.00">gaia/security/SecurityCommonHeader.h</text>
</a>
</g>
<!-- Node2&#45;&gt;Node4 -->
<g id="edge6" class="edge"><title>Node2&#45;&gt;Node4</title>
<path fill="none" stroke="midnightblue" d="M162.123,-58.3619C173.52,-49.7773 189.758,-37.5459 202.878,-27.6636"/>
<polygon fill="midnightblue" stroke="midnightblue" points="205.085,-30.3829 210.967,-21.5707 200.873,-24.7916 205.085,-30.3829"/>
</g>
</g>
</svg>
