<?xml version="1.0" encoding="UTF-8" standalone="no"?>
<!DOCTYPE svg PUBLIC "-//W3C//DTD SVG 1.1//EN"
 "http://www.w3.org/Graphics/SVG/1.1/DTD/svg11.dtd">
<!-- Generated by graphviz version 2.26.3 (20100126.1600)
 -->
<!-- Title: G Pages: 1 -->
<svg width="932pt" height="88pt"
 viewBox="0.00 0.00 932.00 88.00" xmlns="http://www.w3.org/2000/svg" xmlns:xlink="http://www.w3.org/1999/xlink">
<g id="graph1" class="graph" transform="scale(1 1) rotate(0) translate(4 84)">
<title>G</title>
<polygon fill="white" stroke="white" points="-4,5 -4,-84 929,-84 929,5 -4,5"/>
<!-- Node1 -->
<g id="node1" class="node"><title>Node1</title>
<polygon fill="#bfbfbf" stroke="black" points="322,-58.5 322,-79.5 608,-79.5 608,-58.5 322,-58.5"/>
<text text-anchor="middle" x="465" y="-66.5" font-family="Helvetica,sans-Serif" font-size="10.00">/home/vilon_tao/gaia/sdk/include/gaia/telephony/CellIdentity.h</text>
</g>
<!-- Node2 -->
<g id="node3" class="node"><title>Node2</title>
<a xlink:href="../../d0/d12/_cdma_cell_identity_8h.html" target="_top" xlink:title="/home/vilon_tao/gaia/sdk/include/gaia/telephony/CdmaCellIdentity.h">
<polygon fill="white" stroke="black" points="0,-0.5 0,-21.5 312,-21.5 312,-0.5 0,-0.5"/>
<text text-anchor="middle" x="156" y="-8.5" font-family="Helvetica,sans-Serif" font-size="10.00">/home/vilon_tao/gaia/sdk/include/gaia/telephony/CdmaCellIdentity.h</text>
</a>
</g>
<!-- Node1&#45;&gt;Node2 -->
<g id="edge2" class="edge"><title>Node1&#45;&gt;Node2</title>
<path fill="none" stroke="midnightblue" d="M398.937,-56.5999C343.321,-46.1607 264.653,-31.3945 212.063,-21.5231"/>
<polygon fill="midnightblue" stroke="midnightblue" points="398.568,-60.0917 409.042,-58.4966 399.86,-53.2118 398.568,-60.0917"/>
</g>
<!-- Node3 -->
<g id="node5" class="node"><title>Node3</title>
<a xlink:href="../../d6/d59/_cell_info_8h.html" target="_top" xlink:title="/home/vilon_tao/gaia/sdk/include/gaia/telephony/CellInfo.h">
<polygon fill="white" stroke="black" points="330,-0.5 330,-21.5 600,-21.5 600,-0.5 330,-0.5"/>
<text text-anchor="middle" x="465" y="-8.5" font-family="Helvetica,sans-Serif" font-size="10.00">/home/vilon_tao/gaia/sdk/include/gaia/telephony/CellInfo.h</text>
</a>
</g>
<!-- Node1&#45;&gt;Node3 -->
<g id="edge4" class="edge"><title>Node1&#45;&gt;Node3</title>
<path fill="none" stroke="midnightblue" d="M465,-48.1906C465,-39.1684 465,-28.9941 465,-21.5707"/>
<polygon fill="midnightblue" stroke="midnightblue" points="461.5,-48.3619 465,-58.3619 468.5,-48.3619 461.5,-48.3619"/>
</g>
<!-- Node4 -->
<g id="node7" class="node"><title>Node4</title>
<a xlink:href="../../d4/d16/_gsm_cell_identity_8h.html" target="_top" xlink:title="/home/vilon_tao/gaia/sdk/include/gaia/telephony/GsmCellIdentity.h">
<polygon fill="white" stroke="black" points="617.5,-0.5 617.5,-21.5 924.5,-21.5 924.5,-0.5 617.5,-0.5"/>
<text text-anchor="middle" x="771" y="-8.5" font-family="Helvetica,sans-Serif" font-size="10.00">/home/vilon_tao/gaia/sdk/include/gaia/telephony/GsmCellIdentity.h</text>
</a>
</g>
<!-- Node1&#45;&gt;Node4 -->
<g id="edge6" class="edge"><title>Node1&#45;&gt;Node4</title>
<path fill="none" stroke="midnightblue" d="M530.421,-56.5999C585.497,-46.1607 663.402,-31.3945 715.482,-21.5231"/>
<polygon fill="midnightblue" stroke="midnightblue" points="529.588,-53.1955 520.414,-58.4966 530.891,-60.0731 529.588,-53.1955"/>
</g>
</g>
</svg>
