<?xml version="1.0" encoding="UTF-8" standalone="no"?>
<!DOCTYPE svg PUBLIC "-//W3C//DTD SVG 1.1//EN"
 "http://www.w3.org/Graphics/SVG/1.1/DTD/svg11.dtd">
<!-- Generated by graphviz version 2.26.3 (20100126.1600)
 -->
<!-- Title: G Pages: 1 -->
<svg width="2236pt" height="204pt"
 viewBox="0.00 0.00 2236.00 204.00" xmlns="http://www.w3.org/2000/svg" xmlns:xlink="http://www.w3.org/1999/xlink">
<g id="graph1" class="graph" transform="scale(1 1) rotate(0) translate(4 200)">
<title>G</title>
<polygon fill="white" stroke="white" points="-4,5 -4,-200 2233,-200 2233,5 -4,5"/>
<!-- Node1 -->
<g id="node1" class="node"><title>Node1</title>
<polygon fill="#bfbfbf" stroke="black" points="1081.5,-174.5 1081.5,-195.5 1364.5,-195.5 1364.5,-174.5 1081.5,-174.5"/>
<text text-anchor="middle" x="1223" y="-182.5" font-family="Helvetica,sans-Serif" font-size="10.00">/home/vilon_tao/gaia/sdk/include/gaia/core/event/KeyEvent.h</text>
</g>
<!-- Node2 -->
<g id="node3" class="node"><title>Node2</title>
<a xlink:href="../../d5/d49/_key_listener_8h.html" target="_top" xlink:title="/home/vilon_tao/gaia/sdk/include/gaia/text/method/KeyListener.h">
<polygon fill="white" stroke="black" points="524,-116.5 524,-137.5 822,-137.5 822,-116.5 524,-116.5"/>
<text text-anchor="middle" x="673" y="-124.5" font-family="Helvetica,sans-Serif" font-size="10.00">/home/vilon_tao/gaia/sdk/include/gaia/text/method/KeyListener.h</text>
</a>
</g>
<!-- Node1&#45;&gt;Node2 -->
<g id="edge2" class="edge"><title>Node1&#45;&gt;Node2</title>
<path fill="none" stroke="midnightblue" d="M1113.33,-173.435C1014.01,-162.961 868.921,-147.661 772.788,-137.523"/>
<polygon fill="midnightblue" stroke="midnightblue" points="1113.09,-176.929 1123.4,-174.497 1113.82,-169.967 1113.09,-176.929"/>
</g>
<!-- Node7 -->
<g id="node13" class="node"><title>Node7</title>
<a xlink:href="../../d5/d96/_movement_method_8h.html" target="_top" xlink:title="/home/vilon_tao/gaia/sdk/include/gaia/text/method/MovementMethod.h">
<polygon fill="white" stroke="black" points="1061,-116.5 1061,-137.5 1385,-137.5 1385,-116.5 1061,-116.5"/>
<text text-anchor="middle" x="1223" y="-124.5" font-family="Helvetica,sans-Serif" font-size="10.00">/home/vilon_tao/gaia/sdk/include/gaia/text/method/MovementMethod.h</text>
</a>
</g>
<!-- Node1&#45;&gt;Node7 -->
<g id="edge12" class="edge"><title>Node1&#45;&gt;Node7</title>
<path fill="none" stroke="midnightblue" d="M1223,-164.191C1223,-155.168 1223,-144.994 1223,-137.571"/>
<polygon fill="midnightblue" stroke="midnightblue" points="1219.5,-164.362 1223,-174.362 1226.5,-164.362 1219.5,-164.362"/>
</g>
<!-- Node11 -->
<g id="node21" class="node"><title>Node11</title>
<a xlink:href="../../d6/d10/_web_view_8h.html" target="_top" xlink:title="/home/vilon_tao/gaia/sdk/include/gaia/webkit/WebView.h">
<polygon fill="white" stroke="black" points="1631.5,-116.5 1631.5,-137.5 1896.5,-137.5 1896.5,-116.5 1631.5,-116.5"/>
<text text-anchor="middle" x="1764" y="-124.5" font-family="Helvetica,sans-Serif" font-size="10.00">/home/vilon_tao/gaia/sdk/include/gaia/webkit/WebView.h</text>
</a>
</g>
<!-- Node1&#45;&gt;Node11 -->
<g id="edge20" class="edge"><title>Node1&#45;&gt;Node11</title>
<path fill="none" stroke="midnightblue" d="M1331.17,-173.403C1428.86,-162.93 1571.38,-147.65 1665.85,-137.523"/>
<polygon fill="midnightblue" stroke="midnightblue" points="1330.54,-169.951 1320.97,-174.497 1331.29,-176.911 1330.54,-169.951"/>
</g>
<!-- Node3 -->
<g id="node5" class="node"><title>Node3</title>
<a xlink:href="../../d9/dc2/_number_key_listener_8h.html" target="_top" xlink:title="/home/vilon_tao/gaia/sdk/include/gaia/text/method/NumberKeyListener.h">
<polygon fill="white" stroke="black" points="165,-58.5 165,-79.5 497,-79.5 497,-58.5 165,-58.5"/>
<text text-anchor="middle" x="331" y="-66.5" font-family="Helvetica,sans-Serif" font-size="10.00">/home/vilon_tao/gaia/sdk/include/gaia/text/method/NumberKeyListener.h</text>
</a>
</g>
<!-- Node2&#45;&gt;Node3 -->
<g id="edge4" class="edge"><title>Node2&#45;&gt;Node3</title>
<path fill="none" stroke="midnightblue" d="M601.029,-114.794C539.412,-104.345 451.619,-89.4559 393.05,-79.5231"/>
<polygon fill="midnightblue" stroke="midnightblue" points="600.622,-118.275 611.066,-116.497 601.792,-111.374 600.622,-118.275"/>
</g>
<!-- Node6 -->
<g id="node11" class="node"><title>Node6</title>
<a xlink:href="../../dc/d40/_text_key_listener_8h.html" target="_top" xlink:title="/home/vilon_tao/gaia/sdk/include/gaia/text/method/TextKeyListener.h">
<polygon fill="white" stroke="black" points="514.5,-58.5 514.5,-79.5 831.5,-79.5 831.5,-58.5 514.5,-58.5"/>
<text text-anchor="middle" x="673" y="-66.5" font-family="Helvetica,sans-Serif" font-size="10.00">/home/vilon_tao/gaia/sdk/include/gaia/text/method/TextKeyListener.h</text>
</a>
</g>
<!-- Node2&#45;&gt;Node6 -->
<g id="edge10" class="edge"><title>Node2&#45;&gt;Node6</title>
<path fill="none" stroke="midnightblue" d="M673,-106.191C673,-97.1684 673,-86.9941 673,-79.5707"/>
<polygon fill="midnightblue" stroke="midnightblue" points="669.5,-106.362 673,-116.362 676.5,-106.362 669.5,-106.362"/>
</g>
<!-- Node4 -->
<g id="node7" class="node"><title>Node4</title>
<a xlink:href="../../d1/dd7/_dialer_key_listener_8h.html" target="_top" xlink:title="/home/vilon_tao/gaia/sdk/include/gaia/text/method/DialerKeyListener.h">
<polygon fill="white" stroke="black" points="-0.5,-0.5 -0.5,-21.5 322.5,-21.5 322.5,-0.5 -0.5,-0.5"/>
<text text-anchor="middle" x="161" y="-8.5" font-family="Helvetica,sans-Serif" font-size="10.00">/home/vilon_tao/gaia/sdk/include/gaia/text/method/DialerKeyListener.h</text>
</a>
</g>
<!-- Node3&#45;&gt;Node4 -->
<g id="edge6" class="edge"><title>Node3&#45;&gt;Node4</title>
<path fill="none" stroke="midnightblue" d="M290.388,-55.1443C260.136,-44.8229 219.456,-30.9439 191.843,-21.5231"/>
<polygon fill="midnightblue" stroke="midnightblue" points="289.62,-58.5801 300.214,-58.4966 291.88,-51.955 289.62,-58.5801"/>
</g>
<!-- Node5 -->
<g id="node9" class="node"><title>Node5</title>
<a xlink:href="../../dc/da7/_digits_key_listener_8h.html" target="_top" xlink:title="/home/vilon_tao/gaia/sdk/include/gaia/text/method/DigitsKeyListener.h">
<polygon fill="white" stroke="black" points="339.5,-0.5 339.5,-21.5 662.5,-21.5 662.5,-0.5 339.5,-0.5"/>
<text text-anchor="middle" x="501" y="-8.5" font-family="Helvetica,sans-Serif" font-size="10.00">/home/vilon_tao/gaia/sdk/include/gaia/text/method/DigitsKeyListener.h</text>
</a>
</g>
<!-- Node3&#45;&gt;Node5 -->
<g id="edge8" class="edge"><title>Node3&#45;&gt;Node5</title>
<path fill="none" stroke="midnightblue" d="M371.612,-55.1443C401.864,-44.8229 442.544,-30.9439 470.157,-21.5231"/>
<polygon fill="midnightblue" stroke="midnightblue" points="370.12,-51.955 361.786,-58.4966 372.38,-58.5801 370.12,-51.955"/>
</g>
<!-- Node8 -->
<g id="node15" class="node"><title>Node8</title>
<a xlink:href="../../dd/dbe/_arrow_key_movement_method_8h.html" target="_top" xlink:title="/home/vilon_tao/gaia/sdk/include/gaia/text/method/ArrowKeyMovementMethod.h">
<polygon fill="white" stroke="black" points="848.5,-58.5 848.5,-79.5 1215.5,-79.5 1215.5,-58.5 848.5,-58.5"/>
<text text-anchor="middle" x="1032" y="-66.5" font-family="Helvetica,sans-Serif" font-size="10.00">/home/vilon_tao/gaia/sdk/include/gaia/text/method/ArrowKeyMovementMethod.h</text>
</a>
</g>
<!-- Node7&#45;&gt;Node8 -->
<g id="edge14" class="edge"><title>Node7&#45;&gt;Node8</title>
<path fill="none" stroke="midnightblue" d="M1178.7,-113.546C1144.58,-103.186 1098.08,-89.0668 1066.65,-79.5231"/>
<polygon fill="midnightblue" stroke="midnightblue" points="1177.83,-116.94 1188.41,-116.497 1179.86,-110.242 1177.83,-116.94"/>
</g>
<!-- Node9 -->
<g id="node17" class="node"><title>Node9</title>
<a xlink:href="../../df/d3c/_scrolling_movement_method_8h.html" target="_top" xlink:title="/home/vilon_tao/gaia/sdk/include/gaia/text/method/ScrollingMovementMethod.h">
<polygon fill="white" stroke="black" points="1233,-58.5 1233,-79.5 1595,-79.5 1595,-58.5 1233,-58.5"/>
<text text-anchor="middle" x="1414" y="-66.5" font-family="Helvetica,sans-Serif" font-size="10.00">/home/vilon_tao/gaia/sdk/include/gaia/text/method/ScrollingMovementMethod.h</text>
</a>
</g>
<!-- Node7&#45;&gt;Node9 -->
<g id="edge16" class="edge"><title>Node7&#45;&gt;Node9</title>
<path fill="none" stroke="midnightblue" d="M1267.3,-113.546C1301.42,-103.186 1347.92,-89.0668 1379.35,-79.5231"/>
<polygon fill="midnightblue" stroke="midnightblue" points="1266.14,-110.242 1257.59,-116.497 1268.17,-116.94 1266.14,-110.242"/>
</g>
<!-- Node10 -->
<g id="node19" class="node"><title>Node10</title>
<a xlink:href="../../d8/dc4/_link_movement_method_8h.html" target="_top" xlink:title="/home/vilon_tao/gaia/sdk/include/gaia/text/method/LinkMovementMethod.h">
<polygon fill="white" stroke="black" points="1243,-0.5 1243,-21.5 1585,-21.5 1585,-0.5 1243,-0.5"/>
<text text-anchor="middle" x="1414" y="-8.5" font-family="Helvetica,sans-Serif" font-size="10.00">/home/vilon_tao/gaia/sdk/include/gaia/text/method/LinkMovementMethod.h</text>
</a>
</g>
<!-- Node9&#45;&gt;Node10 -->
<g id="edge18" class="edge"><title>Node9&#45;&gt;Node10</title>
<path fill="none" stroke="midnightblue" d="M1414,-48.1906C1414,-39.1684 1414,-28.9941 1414,-21.5707"/>
<polygon fill="midnightblue" stroke="midnightblue" points="1410.5,-48.3619 1414,-58.3619 1417.5,-48.3619 1410.5,-48.3619"/>
</g>
<!-- Node12 -->
<g id="node23" class="node"><title>Node12</title>
<a xlink:href="../../db/d4a/_web_chrome_client_8h.html" target="_top" xlink:title="/home/vilon_tao/gaia/sdk/include/gaia/webkit/WebChromeClient.h">
<polygon fill="white" stroke="black" points="1612.5,-58.5 1612.5,-79.5 1915.5,-79.5 1915.5,-58.5 1612.5,-58.5"/>
<text text-anchor="middle" x="1764" y="-66.5" font-family="Helvetica,sans-Serif" font-size="10.00">/home/vilon_tao/gaia/sdk/include/gaia/webkit/WebChromeClient.h</text>
</a>
</g>
<!-- Node11&#45;&gt;Node12 -->
<g id="edge22" class="edge"><title>Node11&#45;&gt;Node12</title>
<path fill="none" stroke="midnightblue" d="M1764,-106.191C1764,-97.1684 1764,-86.9941 1764,-79.5707"/>
<polygon fill="midnightblue" stroke="midnightblue" points="1760.5,-106.362 1764,-116.362 1767.5,-106.362 1760.5,-106.362"/>
</g>
<!-- Node13 -->
<g id="node25" class="node"><title>Node13</title>
<a xlink:href="../../d2/dcb/_web_settings_8h.html" target="_top" xlink:title="/home/vilon_tao/gaia/sdk/include/gaia/webkit/WebSettings.h">
<polygon fill="white" stroke="black" points="1932.5,-58.5 1932.5,-79.5 2211.5,-79.5 2211.5,-58.5 1932.5,-58.5"/>
<text text-anchor="middle" x="2072" y="-66.5" font-family="Helvetica,sans-Serif" font-size="10.00">/home/vilon_tao/gaia/sdk/include/gaia/webkit/WebSettings.h</text>
</a>
</g>
<!-- Node11&#45;&gt;Node13 -->
<g id="edge24" class="edge"><title>Node11&#45;&gt;Node13</title>
<path fill="none" stroke="midnightblue" d="M1829.85,-114.6C1885.28,-104.161 1963.7,-89.3945 2016.12,-79.5231"/>
<polygon fill="midnightblue" stroke="midnightblue" points="1828.96,-111.206 1819.78,-116.497 1830.25,-118.086 1828.96,-111.206"/>
</g>
<!-- Node14 -->
<g id="node27" class="node"><title>Node14</title>
<a xlink:href="../../d0/dd7/_web_settings_classic_8h.html" target="_top" xlink:title="/home/vilon_tao/gaia/sdk/include/gaia/webkit/WebSettingsClassic.h">
<polygon fill="white" stroke="black" points="1916,-0.5 1916,-21.5 2228,-21.5 2228,-0.5 1916,-0.5"/>
<text text-anchor="middle" x="2072" y="-8.5" font-family="Helvetica,sans-Serif" font-size="10.00">/home/vilon_tao/gaia/sdk/include/gaia/webkit/WebSettingsClassic.h</text>
</a>
</g>
<!-- Node13&#45;&gt;Node14 -->
<g id="edge26" class="edge"><title>Node13&#45;&gt;Node14</title>
<path fill="none" stroke="midnightblue" d="M2072,-48.1906C2072,-39.1684 2072,-28.9941 2072,-21.5707"/>
<polygon fill="midnightblue" stroke="midnightblue" points="2068.5,-48.3619 2072,-58.3619 2075.5,-48.3619 2068.5,-48.3619"/>
</g>
</g>
</svg>
