<?xml version="1.0" encoding="UTF-8" standalone="no"?>
<!DOCTYPE svg PUBLIC "-//W3C//DTD SVG 1.1//EN"
 "http://www.w3.org/Graphics/SVG/1.1/DTD/svg11.dtd">
<!-- Generated by graphviz version 2.26.3 (20100126.1600)
 -->
<!-- Title: G Pages: 1 -->
<svg width="253pt" height="234pt"
 viewBox="0.00 0.00 253.00 234.00" xmlns="http://www.w3.org/2000/svg" xmlns:xlink="http://www.w3.org/1999/xlink">
<g id="graph1" class="graph" transform="scale(1 1) rotate(0) translate(4 230)">
<title>G</title>
<polygon fill="white" stroke="white" points="-4,5 -4,-230 250,-230 250,5 -4,5"/>
<!-- Node1 -->
<g id="node1" class="node"><title>Node1</title>
<polygon fill="#bfbfbf" stroke="black" points="16.5,-0.5 16.5,-21.5 169.5,-21.5 169.5,-0.5 16.5,-0.5"/>
<text text-anchor="middle" x="93" y="-8.5" font-family="Helvetica,sans-Serif" font-size="10.00">gaia::base::Vector2D&lt; TYPE &gt;</text>
</g>
<!-- Node2 -->
<g id="node2" class="node"><title>Node2</title>
<a xlink:href="../../df/d5d/classgaia_1_1base_1_1_vector.html" target="_top" xlink:title="gaia::base::Vector\&lt; Vector\&lt; TYPE \&gt; \&gt;">
<polygon fill="white" stroke="black" points="-0.5,-72.5 -0.5,-93.5 186.5,-93.5 186.5,-72.5 -0.5,-72.5"/>
<text text-anchor="middle" x="93" y="-80.5" font-family="Helvetica,sans-Serif" font-size="10.00">gaia::base::Vector&lt; Vector&lt; TYPE &gt; &gt;</text>
</a>
</g>
<!-- Node2&#45;&gt;Node1 -->
<g id="edge2" class="edge"><title>Node2&#45;&gt;Node1</title>
<path fill="none" stroke="#9a32cd" stroke-dasharray="5,2" d="M93,-62.2348C93,-48.969 93,-32.3188 93,-21.6674"/>
<polygon fill="#9a32cd" stroke="#9a32cd" points="89.5001,-62.3761 93,-72.3762 96.5001,-62.3762 89.5001,-62.3761"/>
<text text-anchor="middle" x="109.5" y="-44.5" font-family="Helvetica,sans-Serif" font-size="10.00"> mData</text>
</g>
<!-- Node3 -->
<g id="node4" class="node"><title>Node3</title>
<a xlink:href="../../d0/d21/classgaia_1_1base_1_1_vector_impl.html" target="_top" xlink:title="Implements vector data structure equipped with copy&#45;on&#45;write mechanism.">
<polygon fill="white" stroke="black" points="49.5,-204.5 49.5,-225.5 164.5,-225.5 164.5,-204.5 49.5,-204.5"/>
<text text-anchor="middle" x="107" y="-212.5" font-family="Helvetica,sans-Serif" font-size="10.00">gaia::base::VectorImpl</text>
</a>
</g>
<!-- Node3&#45;&gt;Node2 -->
<g id="edge4" class="edge"><title>Node3&#45;&gt;Node2</title>
<path fill="none" stroke="#8b1a1a" d="M101.447,-194.236C99.3639,-185.572 97.2096,-175.363 96,-166 92.6561,-140.116 92.541,-109.343 92.7606,-93.5329"/>
<polygon fill="#8b1a1a" stroke="#8b1a1a" points="98.1239,-195.369 103.972,-204.204 104.91,-193.651 98.1239,-195.369"/>
</g>
<!-- Node4 -->
<g id="node6" class="node"><title>Node4</title>
<a xlink:href="../../df/d5d/classgaia_1_1base_1_1_vector.html" target="_top" xlink:title="This class implements the vector data structure.">
<polygon fill="white" stroke="black" points="105,-144.5 105,-165.5 245,-165.5 245,-144.5 105,-144.5"/>
<text text-anchor="middle" x="175" y="-152.5" font-family="Helvetica,sans-Serif" font-size="10.00">gaia::base::Vector&lt; TYPE &gt;</text>
</a>
</g>
<!-- Node3&#45;&gt;Node4 -->
<g id="edge8" class="edge"><title>Node3&#45;&gt;Node4</title>
<path fill="none" stroke="#8b1a1a" d="M126.737,-197.585C138.451,-187.25 152.923,-174.48 162.948,-165.634"/>
<polygon fill="#8b1a1a" stroke="#8b1a1a" points="124.34,-195.033 119.157,-204.273 128.971,-200.281 124.34,-195.033"/>
</g>
<!-- Node4&#45;&gt;Node2 -->
<g id="edge6" class="edge"><title>Node4&#45;&gt;Node2</title>
<path fill="none" stroke="orange" stroke-dasharray="5,2" d="M155.329,-137.728C139.711,-124.015 118.372,-105.277 105.149,-93.6674"/>
<polygon fill="orange" stroke="orange" points="153.077,-140.408 162.901,-144.376 157.696,-135.148 153.077,-140.408"/>
<text text-anchor="middle" x="188" y="-116.5" font-family="Helvetica,sans-Serif" font-size="10.00"> &lt; Vector&lt; TYPE &gt; &gt;</text>
</g>
</g>
</svg>
