<?xml version="1.0" encoding="UTF-8" standalone="no"?>
<!DOCTYPE svg PUBLIC "-//W3C//DTD SVG 1.1//EN"
 "http://www.w3.org/Graphics/SVG/1.1/DTD/svg11.dtd">
<!-- Generated by graphviz version 2.26.3 (20100126.1600)
 -->
<!-- Title: G Pages: 1 -->
<svg width="510pt" height="88pt"
 viewBox="0.00 0.00 510.00 88.00" xmlns="http://www.w3.org/2000/svg" xmlns:xlink="http://www.w3.org/1999/xlink">
<g id="graph1" class="graph" transform="scale(1 1) rotate(0) translate(4 84)">
<title>G</title>
<polygon fill="white" stroke="white" points="-4,5 -4,-84 507,-84 507,5 -4,5"/>
<!-- Node1 -->
<g id="node1" class="node"><title>Node1</title>
<polygon fill="#bfbfbf" stroke="black" points="175.5,-58.5 175.5,-79.5 452.5,-79.5 452.5,-58.5 175.5,-58.5"/>
<text text-anchor="middle" x="314" y="-66.5" font-family="Helvetica,sans-Serif" font-size="10.00">/home/vilon_tao/gaia/sdk/include/gaia/webkit/WebStorage.h</text>
</g>
<!-- Node2 -->
<g id="node3" class="node"><title>Node2</title>
<polygon fill="white" stroke="#bfbfbf" points="-0.5,-0.5 -0.5,-21.5 48.5,-21.5 48.5,-0.5 -0.5,-0.5"/>
<text text-anchor="middle" x="24" y="-8.5" font-family="Helvetica,sans-Serif" font-size="10.00">stdint.h</text>
</g>
<!-- Node1&#45;&gt;Node2 -->
<g id="edge2" class="edge"><title>Node1&#45;&gt;Node2</title>
<path fill="none" stroke="midnightblue" d="M241.126,-58.4783C191.775,-50.7047 125.006,-38.9309 58.5545,-22.1759"/>
<polygon fill="midnightblue" stroke="midnightblue" points="59.3102,-18.7565 48.7546,-19.6676 57.5744,-25.5379 59.3102,-18.7565"/>
</g>
<!-- Node3 -->
<g id="node5" class="node"><title>Node3</title>
<a xlink:href="../../d1/dd0/gmacros_8h.html" target="_top" xlink:title="gaia/base/gmacros.h">
<polygon fill="white" stroke="black" points="65.5,-0.5 65.5,-21.5 172.5,-21.5 172.5,-0.5 65.5,-0.5"/>
<text text-anchor="middle" x="119" y="-8.5" font-family="Helvetica,sans-Serif" font-size="10.00">gaia/base/gmacros.h</text>
</a>
</g>
<!-- Node1&#45;&gt;Node3 -->
<g id="edge4" class="edge"><title>Node1&#45;&gt;Node3</title>
<path fill="none" stroke="midnightblue" d="M278.687,-58.4966C246.621,-48.9592 199.155,-34.8408 164.304,-24.475"/>
<polygon fill="midnightblue" stroke="midnightblue" points="164.962,-21.0193 154.379,-21.5231 162.966,-27.7288 164.962,-21.0193"/>
</g>
<!-- Node4 -->
<g id="node7" class="node"><title>Node4</title>
<a xlink:href="../../d7/de0/_value_callback_8h.html" target="_top" xlink:title="gaia/webkit/ValueCallback.h">
<polygon fill="white" stroke="black" points="190,-0.5 190,-21.5 330,-21.5 330,-0.5 190,-0.5"/>
<text text-anchor="middle" x="260" y="-8.5" font-family="Helvetica,sans-Serif" font-size="10.00">gaia/webkit/ValueCallback.h</text>
</a>
</g>
<!-- Node1&#45;&gt;Node4 -->
<g id="edge6" class="edge"><title>Node1&#45;&gt;Node4</title>
<path fill="none" stroke="midnightblue" d="M304.096,-58.3619C296.484,-50.1861 285.792,-38.7025 276.843,-29.0907"/>
<polygon fill="midnightblue" stroke="midnightblue" points="279.217,-26.5046 269.842,-21.5707 274.094,-31.2746 279.217,-26.5046"/>
</g>
<!-- Node5 -->
<g id="node9" class="node"><title>Node5</title>
<polygon fill="white" stroke="#bfbfbf" points="347.5,-0.5 347.5,-21.5 388.5,-21.5 388.5,-0.5 347.5,-0.5"/>
<text text-anchor="middle" x="368" y="-8.5" font-family="Helvetica,sans-Serif" font-size="10.00">string</text>
</g>
<!-- Node1&#45;&gt;Node5 -->
<g id="edge8" class="edge"><title>Node1&#45;&gt;Node5</title>
<path fill="none" stroke="midnightblue" d="M323.904,-58.3619C331.516,-50.1861 342.208,-38.7025 351.157,-29.0907"/>
<polygon fill="midnightblue" stroke="midnightblue" points="353.906,-31.2746 358.158,-21.5707 348.783,-26.5046 353.906,-31.2746"/>
</g>
<!-- Node6 -->
<g id="node11" class="node"><title>Node6</title>
<polygon fill="white" stroke="#bfbfbf" points="405.5,-0.5 405.5,-21.5 440.5,-21.5 440.5,-0.5 405.5,-0.5"/>
<text text-anchor="middle" x="423" y="-8.5" font-family="Helvetica,sans-Serif" font-size="10.00">map</text>
</g>
<!-- Node1&#45;&gt;Node6 -->
<g id="edge10" class="edge"><title>Node1&#45;&gt;Node6</title>
<path fill="none" stroke="midnightblue" d="M333.739,-58.4966C351.243,-49.1827 376.957,-35.5001 396.295,-25.21"/>
<polygon fill="midnightblue" stroke="midnightblue" points="398.028,-28.2523 405.212,-20.465 394.74,-22.0727 398.028,-28.2523"/>
</g>
<!-- Node7 -->
<g id="node13" class="node"><title>Node7</title>
<polygon fill="white" stroke="#bfbfbf" points="458,-0.5 458,-21.5 502,-21.5 502,-0.5 458,-0.5"/>
<text text-anchor="middle" x="480" y="-8.5" font-family="Helvetica,sans-Serif" font-size="10.00">vector</text>
</g>
<!-- Node1&#45;&gt;Node7 -->
<g id="edge12" class="edge"><title>Node1&#45;&gt;Node7</title>
<path fill="none" stroke="midnightblue" d="M344.579,-58.412C369.975,-49.6059 407.292,-36.6368 448.335,-22.2217"/>
<polygon fill="midnightblue" stroke="midnightblue" points="449.717,-25.4461 457.99,-18.8281 447.395,-18.8422 449.717,-25.4461"/>
</g>
</g>
</svg>
