<?xml version="1.0" encoding="UTF-8" standalone="no"?>
<!DOCTYPE svg PUBLIC "-//W3C//DTD SVG 1.1//EN"
 "http://www.w3.org/Graphics/SVG/1.1/DTD/svg11.dtd">
<!-- Generated by graphviz version 2.26.3 (20100126.1600)
 -->
<!-- Title: G Pages: 1 -->
<svg width="326pt" height="312pt"
 viewBox="0.00 0.00 326.00 312.00" xmlns="http://www.w3.org/2000/svg" xmlns:xlink="http://www.w3.org/1999/xlink">
<g id="graph1" class="graph" transform="scale(1 1) rotate(0) translate(4 308)">
<title>G</title>
<polygon fill="white" stroke="white" points="-4,5 -4,-308 323,-308 323,5 -4,5"/>
<!-- Node1 -->
<g id="node1" class="node"><title>Node1</title>
<polygon fill="#bfbfbf" stroke="black" points="88.5,-0.5 88.5,-21.5 265.5,-21.5 265.5,-0.5 88.5,-0.5"/>
<text text-anchor="middle" x="177" y="-8.5" font-family="Helvetica,sans-Serif" font-size="10.00">gaia::cloudstorage::CloudStorageFile</text>
</g>
<!-- Node2 -->
<g id="node2" class="node"><title>Node2</title>
<a xlink:href="../../d7/d60/classgaia_1_1cloudstorage_1_1_cloud_storage_file_info.html" target="_top" xlink:title="CloudStorageFileInfo is supposed to be used by CloudStorage plugin developers, not by developers who ...">
<polygon fill="white" stroke="black" points="80,-72.5 80,-93.5 274,-93.5 274,-72.5 80,-72.5"/>
<text text-anchor="middle" x="177" y="-80.5" font-family="Helvetica,sans-Serif" font-size="10.00">gaia::cloudstorage::CloudStorageFileInfo</text>
</a>
</g>
<!-- Node2&#45;&gt;Node1 -->
<g id="edge2" class="edge"><title>Node2&#45;&gt;Node1</title>
<path fill="none" stroke="#9a32cd" stroke-dasharray="5,2" d="M177,-62.2348C177,-48.969 177,-32.3188 177,-21.6674"/>
<polygon fill="#9a32cd" stroke="#9a32cd" points="173.5,-62.3761 177,-72.3762 180.5,-62.3762 173.5,-62.3761"/>
<text text-anchor="middle" x="201.5" y="-44.5" font-family="Helvetica,sans-Serif" font-size="10.00"> mpFileInfo</text>
</g>
<!-- Node3 -->
<g id="node4" class="node"><title>Node3</title>
<a xlink:href="../../d2/ddb/classgaia_1_1base_1_1_string.html" target="_top" xlink:title="A String is represented by array of UTF&#45;16 values, such that Unicode supplementary characters (code p...">
<polygon fill="white" stroke="black" points="19.5,-222.5 19.5,-243.5 112.5,-243.5 112.5,-222.5 19.5,-222.5"/>
<text text-anchor="middle" x="66" y="-230.5" font-family="Helvetica,sans-Serif" font-size="10.00">gaia::base::String</text>
</a>
</g>
<!-- Node3&#45;&gt;Node2 -->
<g id="edge4" class="edge"><title>Node3&#45;&gt;Node2</title>
<path fill="none" stroke="#9a32cd" stroke-dasharray="5,2" d="M68.9284,-212.115C73.6417,-185.711 85.2549,-140.297 112,-112 119.639,-103.918 129.941,-97.9339 140.089,-93.5722"/>
<polygon fill="#9a32cd" stroke="#9a32cd" points="65.445,-211.731 67.3068,-222.161 72.3556,-212.847 65.445,-211.731"/>
<text text-anchor="middle" x="147.5" y="-194.5" font-family="Helvetica,sans-Serif" font-size="10.00"> mDownloadUrl</text>
<text text-anchor="middle" x="147.5" y="-181.5" font-family="Helvetica,sans-Serif" font-size="10.00">mName</text>
<text text-anchor="middle" x="147.5" y="-168.5" font-family="Helvetica,sans-Serif" font-size="10.00">mAccountType</text>
<text text-anchor="middle" x="147.5" y="-155.5" font-family="Helvetica,sans-Serif" font-size="10.00">mAccountName</text>
<text text-anchor="middle" x="147.5" y="-142.5" font-family="Helvetica,sans-Serif" font-size="10.00">mThumbnail</text>
<text text-anchor="middle" x="147.5" y="-129.5" font-family="Helvetica,sans-Serif" font-size="10.00">mPath</text>
<text text-anchor="middle" x="147.5" y="-116.5" font-family="Helvetica,sans-Serif" font-size="10.00">mType</text>
</g>
<!-- Node4 -->
<g id="node6" class="node"><title>Node4</title>
<a xlink:href="../../d1/d0f/classgaia_1_1base_1_1_char_sequence.html" target="_top" xlink:title="This interface represents an ordered set of characters and defines the methods to probe them...">
<polygon fill="white" stroke="black" points="0,-282.5 0,-303.5 132,-303.5 132,-282.5 0,-282.5"/>
<text text-anchor="middle" x="66" y="-290.5" font-family="Helvetica,sans-Serif" font-size="10.00">gaia::base::CharSequence</text>
</a>
</g>
<!-- Node4&#45;&gt;Node3 -->
<g id="edge6" class="edge"><title>Node4&#45;&gt;Node3</title>
<path fill="none" stroke="midnightblue" d="M66,-272.231C66,-262.592 66,-251.544 66,-243.634"/>
<polygon fill="midnightblue" stroke="midnightblue" points="62.5001,-272.273 66,-282.273 69.5001,-272.273 62.5001,-272.273"/>
</g>
<!-- Node5 -->
<g id="node8" class="node"><title>Node5</title>
<a xlink:href="../../d4/df5/classgaia_1_1cloudstorage_1_1_cloud_storage_plugin.html" target="_top" xlink:title="gaia::cloudstorage::CloudStoragePlugin">
<polygon fill="white" stroke="black" points="130,-222.5 130,-243.5 318,-243.5 318,-222.5 130,-222.5"/>
<text text-anchor="middle" x="224" y="-230.5" font-family="Helvetica,sans-Serif" font-size="10.00">gaia::cloudstorage::CloudStoragePlugin</text>
</a>
</g>
<!-- Node5&#45;&gt;Node2 -->
<g id="edge8" class="edge"><title>Node5&#45;&gt;Node2</title>
<path fill="none" stroke="#9a32cd" stroke-dasharray="5,2" d="M217.565,-212.464C207.432,-180.123 188.11,-118.458 180.349,-93.6899"/>
<polygon fill="#9a32cd" stroke="#9a32cd" points="214.29,-213.716 220.62,-222.212 220.97,-211.623 214.29,-213.716"/>
<text text-anchor="middle" x="264.5" y="-155.5" font-family="Helvetica,sans-Serif" font-size="10.00"> mpCloudStoragePlugin</text>
</g>
</g>
</svg>
