<?xml version="1.0" encoding="UTF-8" standalone="no"?>
<!DOCTYPE svg PUBLIC "-//W3C//DTD SVG 1.1//EN"
 "http://www.w3.org/Graphics/SVG/1.1/DTD/svg11.dtd">
<!-- Generated by graphviz version 2.26.3 (20100126.1600)
 -->
<!-- Title: G Pages: 1 -->
<svg width="781pt" height="204pt"
 viewBox="0.00 0.00 781.00 204.00" xmlns="http://www.w3.org/2000/svg" xmlns:xlink="http://www.w3.org/1999/xlink">
<g id="graph1" class="graph" transform="scale(1 1) rotate(0) translate(4 200)">
<title>G</title>
<polygon fill="white" stroke="white" points="-4,5 -4,-200 778,-200 778,5 -4,5"/>
<!-- Node1 -->
<g id="node1" class="node"><title>Node1</title>
<polygon fill="#bfbfbf" stroke="black" points="488,-174.5 488,-195.5 738,-195.5 738,-174.5 488,-174.5"/>
<text text-anchor="middle" x="613" y="-182.5" font-family="Helvetica,sans-Serif" font-size="10.00">/home/vilon_tao/gaia/sdk/include/gaia/core/Demand.h</text>
</g>
<!-- Node2 -->
<g id="node3" class="node"><title>Node2</title>
<a xlink:href="../../d0/d54/_instrumentation_test_case_8h.html" target="_top" xlink:title="/home/vilon_tao/gaia/sdk/include/gaia/testing/InstrumentationTestCase.h">
<polygon fill="white" stroke="black" points="346,-116.5 346,-137.5 680,-137.5 680,-116.5 346,-116.5"/>
<text text-anchor="middle" x="513" y="-124.5" font-family="Helvetica,sans-Serif" font-size="10.00">/home/vilon_tao/gaia/sdk/include/gaia/testing/InstrumentationTestCase.h</text>
</a>
</g>
<!-- Node1&#45;&gt;Node2 -->
<g id="edge2" class="edge"><title>Node1&#45;&gt;Node2</title>
<path fill="none" stroke="midnightblue" d="M585.588,-169.101C568.286,-159.066 546.415,-146.381 531.225,-137.571"/>
<polygon fill="midnightblue" stroke="midnightblue" points="584.252,-172.372 594.658,-174.362 587.764,-166.317 584.252,-172.372"/>
</g>
<!-- Node5 -->
<g id="node9" class="node"><title>Node5</title>
<a xlink:href="../../db/deb/_page_unit_test_case_8h.html" target="_top" xlink:title="/home/vilon_tao/gaia/sdk/include/gaia/testing/PageUnitTestCase.h">
<polygon fill="white" stroke="black" points="466.5,-0.5 466.5,-21.5 773.5,-21.5 773.5,-0.5 466.5,-0.5"/>
<text text-anchor="middle" x="620" y="-8.5" font-family="Helvetica,sans-Serif" font-size="10.00">/home/vilon_tao/gaia/sdk/include/gaia/testing/PageUnitTestCase.h</text>
</a>
</g>
<!-- Node1&#45;&gt;Node5 -->
<g id="edge12" class="edge"><title>Node1&#45;&gt;Node5</title>
<path fill="none" stroke="midnightblue" d="M651.449,-169.986C665.557,-162.512 680.212,-152.017 689,-138 702.766,-116.043 693.665,-105.881 695,-80 695.504,-70.2352 699.735,-66.5549 695,-58 685.475,-40.7911 666.725,-29.0411 650.357,-21.5933"/>
<polygon fill="midnightblue" stroke="midnightblue" points="649.756,-166.918 642.324,-174.469 652.843,-173.201 649.756,-166.918"/>
</g>
<!-- Node3 -->
<g id="node5" class="node"><title>Node3</title>
<a xlink:href="../../d5/db9/_page_test_case_8h.html" target="_top" xlink:title="/home/vilon_tao/gaia/sdk/include/gaia/testing/PageTestCase.h">
<polygon fill="white" stroke="black" points="33.5,-58.5 33.5,-79.5 322.5,-79.5 322.5,-58.5 33.5,-58.5"/>
<text text-anchor="middle" x="178" y="-66.5" font-family="Helvetica,sans-Serif" font-size="10.00">/home/vilon_tao/gaia/sdk/include/gaia/testing/PageTestCase.h</text>
</a>
</g>
<!-- Node2&#45;&gt;Node3 -->
<g id="edge4" class="edge"><title>Node2&#45;&gt;Node3</title>
<path fill="none" stroke="midnightblue" d="M442.128,-114.73C381.791,-104.283 296.032,-89.4354 238.78,-79.5231"/>
<polygon fill="midnightblue" stroke="midnightblue" points="441.884,-118.239 452.334,-116.497 443.078,-111.342 441.884,-118.239"/>
</g>
<!-- Node6 -->
<g id="node11" class="node"><title>Node6</title>
<a xlink:href="../../d2/dc6/_single_launch_page_test_case_8h.html" target="_top" xlink:title="/home/vilon_tao/gaia/sdk/include/gaia/testing/SingleLaunchPageTestCase.h">
<polygon fill="white" stroke="black" points="339.5,-58.5 339.5,-79.5 686.5,-79.5 686.5,-58.5 339.5,-58.5"/>
<text text-anchor="middle" x="513" y="-66.5" font-family="Helvetica,sans-Serif" font-size="10.00">/home/vilon_tao/gaia/sdk/include/gaia/testing/SingleLaunchPageTestCase.h</text>
</a>
</g>
<!-- Node2&#45;&gt;Node6 -->
<g id="edge10" class="edge"><title>Node2&#45;&gt;Node6</title>
<path fill="none" stroke="midnightblue" d="M513,-106.191C513,-97.1684 513,-86.9941 513,-79.5707"/>
<polygon fill="midnightblue" stroke="midnightblue" points="509.5,-106.362 513,-116.362 516.5,-106.362 509.5,-106.362"/>
</g>
<!-- Node4 -->
<g id="node7" class="node"><title>Node4</title>
<a xlink:href="../../d2/d74/_page_instrumentation_test_case_8h.html" target="_top" xlink:title="/home/vilon_tao/gaia/sdk/include/gaia/testing/PageInstrumentationTestCase.h">
<polygon fill="white" stroke="black" points="0,-0.5 0,-21.5 356,-21.5 356,-0.5 0,-0.5"/>
<text text-anchor="middle" x="178" y="-8.5" font-family="Helvetica,sans-Serif" font-size="10.00">/home/vilon_tao/gaia/sdk/include/gaia/testing/PageInstrumentationTestCase.h</text>
</a>
</g>
<!-- Node3&#45;&gt;Node4 -->
<g id="edge6" class="edge"><title>Node3&#45;&gt;Node4</title>
<path fill="none" stroke="midnightblue" d="M178,-48.1906C178,-39.1684 178,-28.9941 178,-21.5707"/>
<polygon fill="midnightblue" stroke="midnightblue" points="174.5,-48.3619 178,-58.3619 181.5,-48.3619 174.5,-48.3619"/>
</g>
<!-- Node3&#45;&gt;Node5 -->
<g id="edge8" class="edge"><title>Node3&#45;&gt;Node5</title>
<path fill="none" stroke="midnightblue" d="M268.076,-57.1801C347.836,-46.7138 463.175,-31.5788 539.807,-21.5231"/>
<polygon fill="midnightblue" stroke="midnightblue" points="267.502,-53.7252 258.043,-58.4966 268.413,-60.6657 267.502,-53.7252"/>
</g>
</g>
</svg>
