<?xml version="1.0" encoding="UTF-8" standalone="no"?>
<!DOCTYPE svg PUBLIC "-//W3C//DTD SVG 1.1//EN"
 "http://www.w3.org/Graphics/SVG/1.1/DTD/svg11.dtd">
<!-- Generated by graphviz version 2.26.3 (20100126.1600)
 -->
<!-- Title: G Pages: 1 -->
<svg width="561pt" height="204pt"
 viewBox="0.00 0.00 561.00 204.00" xmlns="http://www.w3.org/2000/svg" xmlns:xlink="http://www.w3.org/1999/xlink">
<g id="graph1" class="graph" transform="scale(1 1) rotate(0) translate(4 200)">
<title>G</title>
<polygon fill="white" stroke="white" points="-4,5 -4,-200 558,-200 558,5 -4,5"/>
<!-- Node1 -->
<g id="node1" class="node"><title>Node1</title>
<polygon fill="#bfbfbf" stroke="black" points="180,-174.5 180,-195.5 524,-195.5 524,-174.5 180,-174.5"/>
<text text-anchor="middle" x="352" y="-182.5" font-family="Helvetica,sans-Serif" font-size="10.00">/home/vilon_tao/gaia/sdk/include/gaia/core/appwidget/AppWidgetProvider.h</text>
</g>
<!-- Node2 -->
<g id="node3" class="node"><title>Node2</title>
<a xlink:href="../../d4/d7f/_vector_8h.html" target="_top" xlink:title="gaia/base/Vector.h">
<polygon fill="white" stroke="black" points="160,-116.5 160,-137.5 258,-137.5 258,-116.5 160,-116.5"/>
<text text-anchor="middle" x="209" y="-124.5" font-family="Helvetica,sans-Serif" font-size="10.00">gaia/base/Vector.h</text>
</a>
</g>
<!-- Node1&#45;&gt;Node2 -->
<g id="edge2" class="edge"><title>Node1&#45;&gt;Node2</title>
<path fill="none" stroke="midnightblue" d="M326.104,-174.497C303.367,-165.275 270.07,-151.769 244.788,-141.515"/>
<polygon fill="midnightblue" stroke="midnightblue" points="245.769,-138.136 235.187,-137.621 243.138,-144.623 245.769,-138.136"/>
</g>
<!-- Node9 -->
<g id="node19" class="node"><title>Node9</title>
<a xlink:href="../../d3/dc5/_array_8h.html" target="_top" xlink:title="gaia/base/Array.h">
<polygon fill="white" stroke="black" points="305.5,-116.5 305.5,-137.5 398.5,-137.5 398.5,-116.5 305.5,-116.5"/>
<text text-anchor="middle" x="352" y="-124.5" font-family="Helvetica,sans-Serif" font-size="10.00">gaia/base/Array.h</text>
</a>
</g>
<!-- Node1&#45;&gt;Node9 -->
<g id="edge20" class="edge"><title>Node1&#45;&gt;Node9</title>
<path fill="none" stroke="midnightblue" d="M352,-174.362C352,-166.922 352,-156.743 352,-147.728"/>
<polygon fill="midnightblue" stroke="midnightblue" points="355.5,-147.571 352,-137.571 348.5,-147.571 355.5,-147.571"/>
</g>
<!-- Node11 -->
<g id="node26" class="node"><title>Node11</title>
<a xlink:href="../../da/d21/_subscriber_8h.html" target="_top" xlink:title="gaia/core/Subscriber.h">
<polygon fill="white" stroke="black" points="439,-116.5 439,-137.5 553,-137.5 553,-116.5 439,-116.5"/>
<text text-anchor="middle" x="496" y="-124.5" font-family="Helvetica,sans-Serif" font-size="10.00">gaia/core/Subscriber.h</text>
</a>
</g>
<!-- Node1&#45;&gt;Node11 -->
<g id="edge30" class="edge"><title>Node1&#45;&gt;Node11</title>
<path fill="none" stroke="midnightblue" d="M378.077,-174.497C401.075,-165.234 434.8,-151.65 460.3,-141.379"/>
<polygon fill="midnightblue" stroke="midnightblue" points="461.662,-144.604 469.63,-137.621 459.047,-138.111 461.662,-144.604"/>
</g>
<!-- Node3 -->
<g id="node5" class="node"><title>Node3</title>
<a xlink:href="../../d1/d86/_type_helpers_8h.html" target="_top" xlink:title="gaia/base/TypeHelpers.h">
<polygon fill="white" stroke="black" points="27.5,-58.5 27.5,-79.5 152.5,-79.5 152.5,-58.5 27.5,-58.5"/>
<text text-anchor="middle" x="90" y="-66.5" font-family="Helvetica,sans-Serif" font-size="10.00">gaia/base/TypeHelpers.h</text>
</a>
</g>
<!-- Node2&#45;&gt;Node3 -->
<g id="edge4" class="edge"><title>Node2&#45;&gt;Node3</title>
<path fill="none" stroke="midnightblue" d="M187.45,-116.497C168.864,-107.438 141.798,-94.2462 120.905,-84.0628"/>
<polygon fill="midnightblue" stroke="midnightblue" points="122.314,-80.8563 111.792,-79.6212 119.247,-87.1487 122.314,-80.8563"/>
</g>
<!-- Node6 -->
<g id="node11" class="node"><title>Node6</title>
<polygon fill="white" stroke="#bfbfbf" points="275,-0.5 275,-21.5 343,-21.5 343,-0.5 275,-0.5"/>
<text text-anchor="middle" x="309" y="-8.5" font-family="Helvetica,sans-Serif" font-size="10.00">sys/types.h</text>
</g>
<!-- Node2&#45;&gt;Node6 -->
<g id="edge18" class="edge"><title>Node2&#45;&gt;Node6</title>
<path fill="none" stroke="midnightblue" d="M203.242,-116.205C196.391,-101.725 187.263,-75.7787 199,-58 213.617,-35.8594 241.038,-24.112 264.844,-17.8985"/>
<polygon fill="midnightblue" stroke="midnightblue" points="265.846,-21.2584 274.778,-15.5602 264.242,-14.4447 265.846,-21.2584"/>
</g>
<!-- Node8 -->
<g id="node15" class="node"><title>Node8</title>
<a xlink:href="../../dc/da9/_vector_impl_8h.html" target="_top" xlink:title="gaia/base/VectorImpl.h">
<polygon fill="white" stroke="black" points="207.5,-58.5 207.5,-79.5 324.5,-79.5 324.5,-58.5 207.5,-58.5"/>
<text text-anchor="middle" x="266" y="-66.5" font-family="Helvetica,sans-Serif" font-size="10.00">gaia/base/VectorImpl.h</text>
</a>
</g>
<!-- Node2&#45;&gt;Node8 -->
<g id="edge14" class="edge"><title>Node2&#45;&gt;Node8</title>
<path fill="none" stroke="midnightblue" d="M219.455,-116.362C227.57,-108.104 239.001,-96.4725 248.504,-86.8029"/>
<polygon fill="midnightblue" stroke="midnightblue" points="251.099,-89.1562 255.612,-79.5707 246.106,-84.2497 251.099,-89.1562"/>
</g>
<!-- Node4 -->
<g id="node7" class="node"><title>Node4</title>
<polygon fill="white" stroke="#bfbfbf" points="-0.5,-0.5 -0.5,-21.5 48.5,-21.5 48.5,-0.5 -0.5,-0.5"/>
<text text-anchor="middle" x="24" y="-8.5" font-family="Helvetica,sans-Serif" font-size="10.00">stdint.h</text>
</g>
<!-- Node3&#45;&gt;Node4 -->
<g id="edge6" class="edge"><title>Node3&#45;&gt;Node4</title>
<path fill="none" stroke="midnightblue" d="M77.8946,-58.3619C68.3119,-49.9408 54.7361,-38.0105 43.6074,-28.2308"/>
<polygon fill="midnightblue" stroke="midnightblue" points="45.8508,-25.5427 36.0287,-21.5707 41.2299,-30.8009 45.8508,-25.5427"/>
</g>
<!-- Node5 -->
<g id="node9" class="node"><title>Node5</title>
<polygon fill="white" stroke="#bfbfbf" points="65.5,-0.5 65.5,-21.5 114.5,-21.5 114.5,-0.5 65.5,-0.5"/>
<text text-anchor="middle" x="90" y="-8.5" font-family="Helvetica,sans-Serif" font-size="10.00">string.h</text>
</g>
<!-- Node3&#45;&gt;Node5 -->
<g id="edge8" class="edge"><title>Node3&#45;&gt;Node5</title>
<path fill="none" stroke="midnightblue" d="M90,-58.3619C90,-50.9219 90,-40.7427 90,-31.7276"/>
<polygon fill="midnightblue" stroke="midnightblue" points="93.5001,-31.5706 90,-21.5707 86.5001,-31.5707 93.5001,-31.5706"/>
</g>
<!-- Node3&#45;&gt;Node6 -->
<g id="edge10" class="edge"><title>Node3&#45;&gt;Node6</title>
<path fill="none" stroke="midnightblue" d="M129.659,-58.4966C167.759,-48.4064 225.218,-33.1888 264.777,-22.7121"/>
<polygon fill="midnightblue" stroke="midnightblue" points="265.905,-26.034 274.676,-20.0904 264.113,-19.2672 265.905,-26.034"/>
</g>
<!-- Node7 -->
<g id="node13" class="node"><title>Node7</title>
<polygon fill="white" stroke="#bfbfbf" points="131.5,-0.5 131.5,-21.5 166.5,-21.5 166.5,-0.5 131.5,-0.5"/>
<text text-anchor="middle" x="149" y="-8.5" font-family="Helvetica,sans-Serif" font-size="10.00">new</text>
</g>
<!-- Node3&#45;&gt;Node7 -->
<g id="edge12" class="edge"><title>Node3&#45;&gt;Node7</title>
<path fill="none" stroke="midnightblue" d="M100.822,-58.3619C109.221,-50.1043 121.054,-38.4725 130.89,-28.8029"/>
<polygon fill="midnightblue" stroke="midnightblue" points="133.569,-31.077 138.247,-21.5707 128.662,-26.0851 133.569,-31.077"/>
</g>
<!-- Node8&#45;&gt;Node6 -->
<g id="edge16" class="edge"><title>Node8&#45;&gt;Node6</title>
<path fill="none" stroke="midnightblue" d="M273.887,-58.3619C279.827,-50.3496 288.122,-39.1605 295.159,-29.6696"/>
<polygon fill="midnightblue" stroke="midnightblue" points="298.019,-31.6883 301.163,-21.5707 292.396,-27.5193 298.019,-31.6883"/>
</g>
<!-- Node9&#45;&gt;Node3 -->
<g id="edge26" class="edge"><title>Node9&#45;&gt;Node3</title>
<path fill="none" stroke="midnightblue" d="M305.462,-116.698C261.394,-106.942 195.097,-92.2657 147.69,-81.7711"/>
<polygon fill="midnightblue" stroke="midnightblue" points="148.396,-78.3426 137.876,-79.5984 146.883,-85.1772 148.396,-78.3426"/>
</g>
<!-- Node9&#45;&gt;Node6 -->
<g id="edge28" class="edge"><title>Node9&#45;&gt;Node6</title>
<path fill="none" stroke="midnightblue" d="M349.704,-116.023C346.654,-102.221 340.736,-77.9216 333,-58 329.377,-48.6694 324.475,-38.7428 320.046,-30.4283"/>
<polygon fill="midnightblue" stroke="midnightblue" points="323.048,-28.6235 315.169,-21.5406 316.911,-31.9912 323.048,-28.6235"/>
</g>
<!-- Node10 -->
<g id="node21" class="node"><title>Node10</title>
<a xlink:href="../../d8/dae/_array_impl_8h.html" target="_top" xlink:title="gaia/base/ArrayImpl.h">
<polygon fill="white" stroke="black" points="380,-58.5 380,-79.5 492,-79.5 492,-58.5 380,-58.5"/>
<text text-anchor="middle" x="436" y="-66.5" font-family="Helvetica,sans-Serif" font-size="10.00">gaia/base/ArrayImpl.h</text>
</a>
</g>
<!-- Node9&#45;&gt;Node10 -->
<g id="edge22" class="edge"><title>Node9&#45;&gt;Node10</title>
<path fill="none" stroke="midnightblue" d="M367.407,-116.362C379.958,-107.696 397.892,-95.3126 412.275,-85.3819"/>
<polygon fill="midnightblue" stroke="midnightblue" points="414.45,-88.1327 420.691,-79.5707 410.473,-82.3725 414.45,-88.1327"/>
</g>
<!-- Node10&#45;&gt;Node6 -->
<g id="edge24" class="edge"><title>Node10&#45;&gt;Node6</title>
<path fill="none" stroke="midnightblue" d="M413.001,-58.4966C392.987,-49.3562 363.759,-36.0082 341.381,-25.7883"/>
<polygon fill="midnightblue" stroke="midnightblue" points="342.807,-22.5918 332.257,-21.6212 339.899,-28.9592 342.807,-22.5918"/>
</g>
<!-- Node11&#45;&gt;Node6 -->
<g id="edge32" class="edge"><title>Node11&#45;&gt;Node6</title>
<path fill="none" stroke="midnightblue" d="M500.785,-116.371C506.625,-101.608 514.198,-74.8186 501,-58 482.964,-35.0159 403.983,-21.8141 353.107,-15.5497"/>
<polygon fill="midnightblue" stroke="midnightblue" points="353.364,-12.0557 343.021,-14.3528 352.539,-19.0069 353.364,-12.0557"/>
</g>
</g>
</svg>
