<?xml version="1.0" encoding="UTF-8" standalone="no"?>
<!DOCTYPE svg PUBLIC "-//W3C//DTD SVG 1.1//EN"
 "http://www.w3.org/Graphics/SVG/1.1/DTD/svg11.dtd">
<!-- Generated by graphviz version 2.26.3 (20100126.1600)
 -->
<!-- Title: G Pages: 1 -->
<svg width="154pt" height="146pt"
 viewBox="0.00 0.00 154.00 146.00" xmlns="http://www.w3.org/2000/svg" xmlns:xlink="http://www.w3.org/1999/xlink">
<g id="graph1" class="graph" transform="scale(1 1) rotate(0) translate(4 142)">
<title>G</title>
<polygon fill="white" stroke="white" points="-4,5 -4,-142 151,-142 151,5 -4,5"/>
<!-- Node1 -->
<g id="node1" class="node"><title>Node1</title>
<polygon fill="#bfbfbf" stroke="black" points="-0.5,-0.5 -0.5,-21.5 146.5,-21.5 146.5,-0.5 -0.5,-0.5"/>
<text text-anchor="middle" x="73" y="-8.5" font-family="Helvetica,sans-Serif" font-size="10.00">gaia::core::BounceInterpolator</text>
</g>
<!-- Node2 -->
<g id="node2" class="node"><title>Node2</title>
<a xlink:href="../../dd/dbe/classgaia_1_1core_1_1_i_interpolator.html" target="_top" xlink:title="An interpolator defines the rate of change of an animation.">
<polygon fill="white" stroke="black" points="14.5,-58.5 14.5,-79.5 131.5,-79.5 131.5,-58.5 14.5,-58.5"/>
<text text-anchor="middle" x="73" y="-66.5" font-family="Helvetica,sans-Serif" font-size="10.00">gaia::core::IInterpolator</text>
</a>
</g>
<!-- Node2&#45;&gt;Node1 -->
<g id="edge2" class="edge"><title>Node2&#45;&gt;Node1</title>
<path fill="none" stroke="midnightblue" d="M73,-48.1906C73,-39.1684 73,-28.9941 73,-21.5707"/>
<polygon fill="midnightblue" stroke="midnightblue" points="69.5001,-48.3619 73,-58.3619 76.5001,-48.3619 69.5001,-48.3619"/>
</g>
<!-- Node3 -->
<g id="node4" class="node"><title>Node3</title>
<a xlink:href="../../d3/dd6/classgaia_1_1core_1_1_i_time_interpolator.html" target="_top" xlink:title="A time interpolator defines the rate of change of an animation.">
<polygon fill="white" stroke="black" points="3.5,-116.5 3.5,-137.5 142.5,-137.5 142.5,-116.5 3.5,-116.5"/>
<text text-anchor="middle" x="73" y="-124.5" font-family="Helvetica,sans-Serif" font-size="10.00">gaia::core::ITimeInterpolator</text>
</a>
</g>
<!-- Node3&#45;&gt;Node2 -->
<g id="edge4" class="edge"><title>Node3&#45;&gt;Node2</title>
<path fill="none" stroke="midnightblue" d="M73,-106.191C73,-97.1684 73,-86.9941 73,-79.5707"/>
<polygon fill="midnightblue" stroke="midnightblue" points="69.5001,-106.362 73,-116.362 76.5001,-106.362 69.5001,-106.362"/>
</g>
</g>
</svg>
