<?xml version="1.0" encoding="UTF-8" standalone="no"?>
<!DOCTYPE svg PUBLIC "-//W3C//DTD SVG 1.1//EN"
 "http://www.w3.org/Graphics/SVG/1.1/DTD/svg11.dtd">
<!-- Generated by graphviz version 2.26.3 (20100126.1600)
 -->
<!-- Title: G Pages: 1 -->
<svg width="193pt" height="166pt"
 viewBox="0.00 0.00 193.00 166.00" xmlns="http://www.w3.org/2000/svg" xmlns:xlink="http://www.w3.org/1999/xlink">
<g id="graph1" class="graph" transform="scale(1 1) rotate(0) translate(4 162)">
<title>G</title>
<polygon fill="white" stroke="white" points="-4,5 -4,-162 190,-162 190,5 -4,5"/>
<!-- Node1 -->
<g id="node1" class="node"><title>Node1</title>
<polygon fill="#bfbfbf" stroke="black" points="1,-0.5 1,-21.5 129,-21.5 129,-0.5 1,-0.5"/>
<text text-anchor="middle" x="65" y="-8.5" font-family="Helvetica,sans-Serif" font-size="10.00">gaia::base::List&lt; TYPE &gt;</text>
</g>
<!-- Node2 -->
<g id="node2" class="node"><title>Node2</title>
<a xlink:href="../../d8/d95/classgaia_1_1base_1_1_list_impl.html" target="_top" xlink:title="Implements list data structure.">
<polygon fill="white" stroke="black" points="14,-60.5 14,-81.5 116,-81.5 116,-60.5 14,-60.5"/>
<text text-anchor="middle" x="65" y="-68.5" font-family="Helvetica,sans-Serif" font-size="10.00">gaia::base::ListImpl</text>
</a>
</g>
<!-- Node2&#45;&gt;Node1 -->
<g id="edge2" class="edge"><title>Node2&#45;&gt;Node1</title>
<path fill="none" stroke="#8b1a1a" d="M65,-50.2312C65,-40.5922 65,-29.5444 65,-21.6339"/>
<polygon fill="#8b1a1a" stroke="#8b1a1a" points="61.5001,-50.2732 65,-60.2732 68.5001,-50.2732 61.5001,-50.2732"/>
</g>
<!-- Node3 -->
<g id="node4" class="node"><title>Node3</title>
<a xlink:href="../../df/d10/classgaia_1_1base_1_1_list_impl_1_1_node.html" target="_top" xlink:title="A node structure that will be gathered into a list.">
<polygon fill="white" stroke="black" points="-0.5,-134.5 -0.5,-155.5 130.5,-155.5 130.5,-134.5 -0.5,-134.5"/>
<text text-anchor="middle" x="65" y="-142.5" font-family="Helvetica,sans-Serif" font-size="10.00">gaia::base::ListImpl::Node</text>
</a>
</g>
<!-- Node3&#45;&gt;Node2 -->
<g id="edge4" class="edge"><title>Node3&#45;&gt;Node2</title>
<path fill="none" stroke="#9a32cd" stroke-dasharray="5,2" d="M65,-124.277C65,-110.387 65,-92.675 65,-81.5827"/>
<polygon fill="#9a32cd" stroke="#9a32cd" points="61.5001,-124.398 65,-134.398 68.5001,-124.398 61.5001,-124.398"/>
<text text-anchor="middle" x="88" y="-104.5" font-family="Helvetica,sans-Serif" font-size="10.00"> mpMiddle</text>
</g>
<!-- Node3&#45;&gt;Node3 -->
<g id="edge6" class="edge"><title>Node3&#45;&gt;Node3</title>
<path fill="none" stroke="#9a32cd" stroke-dasharray="5,2" d="M140.717,-149.925C145.269,-148.752 148,-147.111 148,-145 148,-141.623 141.008,-139.446 130.753,-138.47"/>
<polygon fill="#9a32cd" stroke="#9a32cd" points="140.069,-146.484 130.753,-151.53 141.182,-153.395 140.069,-146.484"/>
<text text-anchor="middle" x="166.5" y="-149" font-family="Helvetica,sans-Serif" font-size="10.00"> mpPrev</text>
<text text-anchor="middle" x="166.5" y="-136" font-family="Helvetica,sans-Serif" font-size="10.00">mpNext</text>
</g>
</g>
</svg>
