<?xml version="1.0" encoding="UTF-8" standalone="no"?>
<!DOCTYPE svg PUBLIC "-//W3C//DTD SVG 1.1//EN"
 "http://www.w3.org/Graphics/SVG/1.1/DTD/svg11.dtd">
<!-- Generated by graphviz version 2.26.3 (20100126.1600)
 -->
<!-- Title: G Pages: 1 -->
<svg width="246pt" height="146pt"
 viewBox="0.00 0.00 246.00 146.00" xmlns="http://www.w3.org/2000/svg" xmlns:xlink="http://www.w3.org/1999/xlink">
<g id="graph1" class="graph" transform="scale(1 1) rotate(0) translate(4 142)">
<title>G</title>
<polygon fill="white" stroke="white" points="-4,5 -4,-142 243,-142 243,5 -4,5"/>
<!-- Node1 -->
<g id="node1" class="node"><title>Node1</title>
<polygon fill="#bfbfbf" stroke="black" points="51,-0.5 51,-21.5 191,-21.5 191,-0.5 51,-0.5"/>
<text text-anchor="middle" x="121" y="-8.5" font-family="Helvetica,sans-Serif" font-size="10.00">gaia::text::DigitsKeyListener</text>
</g>
<!-- Node2 -->
<g id="node2" class="node"><title>Node2</title>
<a xlink:href="../../da/d8a/classgaia_1_1text_1_1_number_key_listener.html" target="_top" xlink:title="For numeric text entry.">
<polygon fill="white" stroke="black" points="46.5,-58.5 46.5,-79.5 195.5,-79.5 195.5,-58.5 46.5,-58.5"/>
<text text-anchor="middle" x="121" y="-66.5" font-family="Helvetica,sans-Serif" font-size="10.00">gaia::text::NumberKeyListener</text>
</a>
</g>
<!-- Node2&#45;&gt;Node1 -->
<g id="edge2" class="edge"><title>Node2&#45;&gt;Node1</title>
<path fill="none" stroke="midnightblue" d="M121,-48.1906C121,-39.1684 121,-28.9941 121,-21.5707"/>
<polygon fill="midnightblue" stroke="midnightblue" points="117.5,-48.3619 121,-58.3619 124.5,-48.3619 117.5,-48.3619"/>
</g>
<!-- Node3 -->
<g id="node4" class="node"><title>Node3</title>
<a xlink:href="../../d7/d60/classgaia_1_1text_1_1_key_listener.html" target="_top" xlink:title="Interface for converting text key events into edit operations on an Editable class.">
<polygon fill="white" stroke="black" points="-0.5,-116.5 -0.5,-137.5 114.5,-137.5 114.5,-116.5 -0.5,-116.5"/>
<text text-anchor="middle" x="57" y="-124.5" font-family="Helvetica,sans-Serif" font-size="10.00">gaia::text::KeyListener</text>
</a>
</g>
<!-- Node3&#45;&gt;Node2 -->
<g id="edge4" class="edge"><title>Node3&#45;&gt;Node2</title>
<path fill="none" stroke="midnightblue" d="M76.4152,-109.405C87.1591,-99.6683 100.154,-87.8914 109.336,-79.5707"/>
<polygon fill="midnightblue" stroke="midnightblue" points="73.7982,-107.053 68.7386,-116.362 78.4988,-112.24 73.7982,-107.053"/>
</g>
<!-- Node4 -->
<g id="node6" class="node"><title>Node4</title>
<a xlink:href="../../d8/d3e/classgaia_1_1text_1_1_input_filter.html" target="_top" xlink:title="InputFilters can be attached to Editables to constrain the changes that can be made to them...">
<polygon fill="white" stroke="black" points="131.5,-116.5 131.5,-137.5 238.5,-137.5 238.5,-116.5 131.5,-116.5"/>
<text text-anchor="middle" x="185" y="-124.5" font-family="Helvetica,sans-Serif" font-size="10.00">gaia::text::InputFilter</text>
</a>
</g>
<!-- Node4&#45;&gt;Node2 -->
<g id="edge6" class="edge"><title>Node4&#45;&gt;Node2</title>
<path fill="none" stroke="midnightblue" d="M165.585,-109.405C154.841,-99.6683 141.846,-87.8914 132.664,-79.5707"/>
<polygon fill="midnightblue" stroke="midnightblue" points="163.501,-112.24 173.261,-116.362 168.202,-107.053 163.501,-112.24"/>
</g>
</g>
</svg>
