<?xml version="1.0" encoding="UTF-8" standalone="no"?>
<!DOCTYPE svg PUBLIC "-//W3C//DTD SVG 1.1//EN"
 "http://www.w3.org/Graphics/SVG/1.1/DTD/svg11.dtd">
<!-- Generated by graphviz version 2.26.3 (20100126.1600)
 -->
<!-- Title: G Pages: 1 -->
<svg width="1098pt" height="250pt"
 viewBox="0.00 0.00 1098.00 250.28" xmlns="http://www.w3.org/2000/svg" xmlns:xlink="http://www.w3.org/1999/xlink">
<g id="graph1" class="graph" transform="scale(1 1) rotate(0) translate(4 246.278)">
<title>G</title>
<polygon fill="white" stroke="white" points="-4,5 -4,-246.278 1095,-246.278 1095,5 -4,5"/>
<!-- Node1 -->
<g id="node1" class="node"><title>Node1</title>
<polygon fill="#bfbfbf" stroke="black" points="746.5,-162.5 746.5,-183.5 911.5,-183.5 911.5,-162.5 746.5,-162.5"/>
<text text-anchor="middle" x="829" y="-170.5" font-family="Helvetica,sans-Serif" font-size="10.00">gaia::core::AppWidgetHostWidget</text>
</g>
<!-- Node2 -->
<g id="node2" class="node"><title>Node2</title>
<a xlink:href="../../db/d6c/classgaia_1_1core_1_1_widget_controller.html" target="_top" xlink:title="Define the default widget layout to put sets of layout in it.">
<polygon fill="white" stroke="black" points="475,-148.5 475,-169.5 613,-169.5 613,-148.5 475,-148.5"/>
<text text-anchor="middle" x="544" y="-156.5" font-family="Helvetica,sans-Serif" font-size="10.00">gaia::core::WidgetController</text>
</a>
</g>
<!-- Node2&#45;&gt;Node1 -->
<g id="edge2" class="edge"><title>Node2&#45;&gt;Node1</title>
<path fill="none" stroke="midnightblue" d="M623.432,-162.902C661.741,-164.784 707.669,-167.04 746.387,-168.942"/>
<polygon fill="midnightblue" stroke="midnightblue" points="623.514,-159.402 613.354,-162.407 623.171,-166.393 623.514,-159.402"/>
</g>
<!-- Node5 -->
<g id="node8" class="node"><title>Node5</title>
<a xlink:href="../../d5/dfb/classgaia_1_1core_1_1_scene.html" target="_top" xlink:title="A Scene is used to build a visual interface.">
<polygon fill="white" stroke="black" points="782.5,-72.5 782.5,-93.5 875.5,-93.5 875.5,-72.5 782.5,-72.5"/>
<text text-anchor="middle" x="829" y="-80.5" font-family="Helvetica,sans-Serif" font-size="10.00">gaia::core::Scene</text>
</a>
</g>
<!-- Node2&#45;&gt;Node5 -->
<g id="edge10" class="edge"><title>Node2&#45;&gt;Node5</title>
<path fill="none" stroke="#9a32cd" stroke-dasharray="5,2" d="M574.83,-144.153C598.676,-133.23 632.782,-118.806 664,-110 703.111,-98.9676 748.792,-91.9269 782.159,-87.8115"/>
<polygon fill="#9a32cd" stroke="#9a32cd" points="573.187,-141.057 565.593,-148.445 576.137,-147.406 573.187,-141.057"/>
<text text-anchor="middle" x="696" y="-114" font-family="Helvetica,sans-Serif" font-size="10.00"> mpController</text>
</g>
<!-- Node3 -->
<g id="node4" class="node"><title>Node3</title>
<a xlink:href="../../d8/dac/classgaia_1_1core_1_1_widget.html" target="_top" xlink:title="The Widget class is the base class of all user interface component.">
<polygon fill="white" stroke="black" points="994,-178.5 994,-199.5 1090,-199.5 1090,-178.5 994,-178.5"/>
<text text-anchor="middle" x="1042" y="-186.5" font-family="Helvetica,sans-Serif" font-size="10.00">gaia::core::Widget</text>
</a>
</g>
<!-- Node3&#45;&gt;Node2 -->
<g id="edge4" class="edge"><title>Node3&#45;&gt;Node2</title>
<path fill="none" stroke="midnightblue" d="M1009.34,-203.474C983.508,-214.076 946.215,-227.53 912,-233 839.147,-244.647 818.644,-245.887 746,-233 677.232,-220.8 601.146,-186.938 565.126,-169.571"/>
<polygon fill="midnightblue" stroke="midnightblue" points="1010.78,-206.666 1018.65,-199.573 1008.07,-200.21 1010.78,-206.666"/>
</g>
<!-- Node4 -->
<g id="node6" class="node"><title>Node4</title>
<a xlink:href="../../d0/db2/classgaia_1_1core_1_1_property_animatable.html" target="_top" xlink:title="Any animation object need to implement PropertyAnimatable because of setting value.">
<polygon fill="white" stroke="black" points="753.5,-202.5 753.5,-223.5 904.5,-223.5 904.5,-202.5 753.5,-202.5"/>
<text text-anchor="middle" x="829" y="-210.5" font-family="Helvetica,sans-Serif" font-size="10.00">gaia::core::PropertyAnimatable</text>
</a>
</g>
<!-- Node4&#45;&gt;Node3 -->
<g id="edge6" class="edge"><title>Node4&#45;&gt;Node3</title>
<path fill="none" stroke="midnightblue" d="M914.893,-203.322C941.771,-200.293 970.47,-197.06 993.783,-194.433"/>
<polygon fill="midnightblue" stroke="midnightblue" points="914.241,-199.873 904.696,-204.471 915.025,-206.829 914.241,-199.873"/>
</g>
<!-- Node5&#45;&gt;Node2 -->
<g id="edge30" class="edge"><title>Node5&#45;&gt;Node2</title>
<path fill="none" stroke="#9a32cd" stroke-dasharray="5,2" d="M786.098,-97.029C773.047,-101.689 758.781,-107.185 746,-113 737.67,-116.79 736.596,-119.861 728,-123 691.157,-136.455 648.231,-145.22 613.112,-150.728"/>
<polygon fill="#9a32cd" stroke="#9a32cd" points="787.512,-100.242 795.796,-93.6366 785.201,-93.6347 787.512,-100.242"/>
<text text-anchor="middle" x="696" y="-144" font-family="Helvetica,sans-Serif" font-size="10.00"> mpScene</text>
</g>
<!-- Node5&#45;&gt;Node3 -->
<g id="edge8" class="edge"><title>Node5&#45;&gt;Node3</title>
<path fill="none" stroke="#9a32cd" stroke-dasharray="5,2" d="M873.616,-96.8245C903.579,-107.005 943.39,-122.303 976,-141 995.42,-152.135 1016.01,-167.809 1028.93,-178.178"/>
<polygon fill="#9a32cd" stroke="#9a32cd" points="874.45,-93.4134 863.857,-93.5705 872.236,-100.054 874.45,-93.4134"/>
<text text-anchor="middle" x="953" y="-145" font-family="Helvetica,sans-Serif" font-size="10.00"> mpScene</text>
</g>
<!-- Node10 -->
<g id="node20" class="node"><title>Node10</title>
<a xlink:href="../../db/d3f/classgaia_1_1core_1_1_page.html" target="_top" xlink:title="An page is a single, focused thing that the user can do.">
<polygon fill="white" stroke="black" points="998,-54.5 998,-75.5 1086,-75.5 1086,-54.5 998,-54.5"/>
<text text-anchor="middle" x="1042" y="-62.5" font-family="Helvetica,sans-Serif" font-size="10.00">gaia::core::Page</text>
</a>
</g>
<!-- Node5&#45;&gt;Node10 -->
<g id="edge24" class="edge"><title>Node5&#45;&gt;Node10</title>
<path fill="none" stroke="#9a32cd" stroke-dasharray="5,2" d="M867.311,-69.2625C885.96,-63.2849 908.868,-56.9737 930,-54 950.245,-51.1511 955.625,-52.3137 976,-54 983.062,-54.5845 990.506,-55.5149 997.748,-56.5934"/>
<polygon fill="#9a32cd" stroke="#9a32cd" points="866.104,-65.9751 857.704,-72.4318 868.297,-72.6227 866.104,-65.9751"/>
<text text-anchor="middle" x="953" y="-58" font-family="Helvetica,sans-Serif" font-size="10.00"> mpScene</text>
</g>
<!-- Node6 -->
<g id="node11" class="node"><title>Node6</title>
<a xlink:href="../../de/dad/classgaia_1_1content_1_1_resources.html" target="_top" xlink:title="Class for accessing an application&#39;s resources.">
<polygon fill="white" stroke="black" points="481,-62.5 481,-83.5 607,-83.5 607,-62.5 481,-62.5"/>
<text text-anchor="middle" x="544" y="-70.5" font-family="Helvetica,sans-Serif" font-size="10.00">gaia::content::Resources</text>
</a>
</g>
<!-- Node6&#45;&gt;Node5 -->
<g id="edge12" class="edge"><title>Node6&#45;&gt;Node5</title>
<path fill="none" stroke="#9a32cd" stroke-dasharray="5,2" d="M617.29,-71.9977C651.024,-71.8961 691.563,-72.2806 728,-74 745.76,-74.8381 765.228,-76.4158 782.291,-78.019"/>
<polygon fill="#9a32cd" stroke="#9a32cd" points="617.036,-68.4987 607.052,-72.0439 617.068,-75.4987 617.036,-68.4987"/>
<text text-anchor="middle" x="696" y="-78" font-family="Helvetica,sans-Serif" font-size="10.00"> mpResources</text>
</g>
<!-- Node7 -->
<g id="node13" class="node"><title>Node7</title>
<a xlink:href="../../df/d5d/classgaia_1_1base_1_1_vector.html" target="_top" xlink:title="gaia::base::Vector\&lt; gaia::ui::DialogBox * \&gt;">
<polygon fill="white" stroke="black" points="442.5,-22.5 442.5,-43.5 645.5,-43.5 645.5,-22.5 442.5,-22.5"/>
<text text-anchor="middle" x="544" y="-30.5" font-family="Helvetica,sans-Serif" font-size="10.00">gaia::base::Vector&lt; gaia::ui::DialogBox * &gt;</text>
</a>
</g>
<!-- Node7&#45;&gt;Node5 -->
<g id="edge14" class="edge"><title>Node7&#45;&gt;Node5</title>
<path fill="none" stroke="#9a32cd" stroke-dasharray="5,2" d="M655.8,-44.4889C679.721,-47.6403 704.776,-51.4665 728,-56 750.268,-60.3469 774.87,-66.8861 794.218,-72.4403"/>
<polygon fill="#9a32cd" stroke="#9a32cd" points="655.991,-40.9848 645.626,-43.1796 655.097,-47.9275 655.991,-40.9848"/>
<text text-anchor="middle" x="696" y="-60" font-family="Helvetica,sans-Serif" font-size="10.00"> mDialogList</text>
</g>
<!-- Node8 -->
<g id="node15" class="node"><title>Node8</title>
<a xlink:href="../../d0/d21/classgaia_1_1base_1_1_vector_impl.html" target="_top" xlink:title="Implements vector data structure equipped with copy&#45;on&#45;write mechanism.">
<polygon fill="white" stroke="black" points="0.5,-23.5 0.5,-44.5 115.5,-44.5 115.5,-23.5 0.5,-23.5"/>
<text text-anchor="middle" x="58" y="-31.5" font-family="Helvetica,sans-Serif" font-size="10.00">gaia::base::VectorImpl</text>
</a>
</g>
<!-- Node8&#45;&gt;Node7 -->
<g id="edge16" class="edge"><title>Node8&#45;&gt;Node7</title>
<path fill="none" stroke="#8b1a1a" d="M125.792,-35.874C128.564,-35.9221 131.309,-35.9646 134,-36 262.878,-37.6955 295.121,-37.6107 424,-36 429.939,-35.9258 436.043,-35.8309 442.201,-35.7209"/>
<polygon fill="#8b1a1a" stroke="#8b1a1a" points="125.743,-32.3725 115.677,-35.6771 125.607,-39.3711 125.743,-32.3725"/>
</g>
<!-- Node9 -->
<g id="node17" class="node"><title>Node9</title>
<a xlink:href="../../df/d5d/classgaia_1_1base_1_1_vector.html" target="_top" xlink:title="This class implements the vector data structure.">
<polygon fill="white" stroke="black" points="154,-0.5 154,-21.5 294,-21.5 294,-0.5 154,-0.5"/>
<text text-anchor="middle" x="224" y="-8.5" font-family="Helvetica,sans-Serif" font-size="10.00">gaia::base::Vector&lt; TYPE &gt;</text>
</a>
</g>
<!-- Node8&#45;&gt;Node9 -->
<g id="edge20" class="edge"><title>Node8&#45;&gt;Node9</title>
<path fill="none" stroke="#8b1a1a" d="M125.596,-24.6344C134.933,-23.3406 144.54,-22.0096 153.921,-20.7098"/>
<polygon fill="#8b1a1a" stroke="#8b1a1a" points="125.018,-21.1809 115.593,-26.0203 125.979,-28.1146 125.018,-21.1809"/>
</g>
<!-- Node9&#45;&gt;Node7 -->
<g id="edge18" class="edge"><title>Node9&#45;&gt;Node7</title>
<path fill="none" stroke="orange" stroke-dasharray="5,2" d="M304.465,-15.4009C340.966,-17.5071 384.675,-20.1821 424,-23 429.943,-23.4258 436.05,-23.8808 442.211,-24.3531"/>
<polygon fill="orange" stroke="orange" points="304.555,-11.9003 294.371,-14.8222 304.154,-18.8889 304.555,-11.9003"/>
<text text-anchor="middle" x="368" y="-27" font-family="Helvetica,sans-Serif" font-size="10.00"> &lt; gaia::ui::DialogBox * &gt;</text>
</g>
<!-- Node10&#45;&gt;Node5 -->
<g id="edge22" class="edge"><title>Node10&#45;&gt;Node5</title>
<path fill="none" stroke="#9a32cd" stroke-dasharray="5,2" d="M987.52,-69.604C952.957,-72.5248 908.705,-76.2644 875.744,-79.0498"/>
<polygon fill="#9a32cd" stroke="#9a32cd" points="988.242,-73.0555 997.912,-68.7258 987.652,-66.0804 988.242,-73.0555"/>
<text text-anchor="middle" x="953" y="-78" font-family="Helvetica,sans-Serif" font-size="10.00"> mpPage</text>
</g>
<!-- Node11 -->
<g id="node23" class="node"><title>Node11</title>
<a xlink:href="../../db/d88/classgaia_1_1core_1_1_widget_tag.html" target="_top" xlink:title="gaia::core::WidgetTag">
<polygon fill="white" stroke="black" points="772.5,-122.5 772.5,-143.5 885.5,-143.5 885.5,-122.5 772.5,-122.5"/>
<text text-anchor="middle" x="829" y="-130.5" font-family="Helvetica,sans-Serif" font-size="10.00">gaia::core::WidgetTag</text>
</a>
</g>
<!-- Node11&#45;&gt;Node3 -->
<g id="edge26" class="edge"><title>Node11&#45;&gt;Node3</title>
<path fill="none" stroke="#9a32cd" stroke-dasharray="5,2" d="M883.611,-145.882C893.09,-148.197 902.841,-150.629 912,-153 943.513,-161.158 979.131,-171.07 1005.11,-178.426"/>
<polygon fill="#9a32cd" stroke="#9a32cd" points="884.411,-142.475 873.867,-143.519 882.761,-149.277 884.411,-142.475"/>
<text text-anchor="middle" x="953" y="-173" font-family="Helvetica,sans-Serif" font-size="10.00"> mpTag</text>
</g>
<!-- Node12 -->
<g id="node25" class="node"><title>Node12</title>
<a xlink:href="../../dd/de0/classgaia_1_1core_1_1_event_control.html" target="_top" xlink:title="EventControl is used to dispatch event and register listener.">
<polygon fill="white" stroke="black" points="163,-148.5 163,-169.5 285,-169.5 285,-148.5 163,-148.5"/>
<text text-anchor="middle" x="224" y="-156.5" font-family="Helvetica,sans-Serif" font-size="10.00">gaia::core::EventControl</text>
</a>
</g>
<!-- Node12&#45;&gt;Node2 -->
<g id="edge28" class="edge"><title>Node12&#45;&gt;Node2</title>
<path fill="none" stroke="midnightblue" d="M295.422,-159C348.968,-159 421.839,-159 474.831,-159"/>
<polygon fill="midnightblue" stroke="midnightblue" points="295.321,-155.5 285.321,-159 295.321,-162.5 295.321,-155.5"/>
</g>
</g>
</svg>
