<?xml version="1.0" encoding="UTF-8" standalone="no"?>
<!DOCTYPE svg PUBLIC "-//W3C//DTD SVG 1.1//EN"
 "http://www.w3.org/Graphics/SVG/1.1/DTD/svg11.dtd">
<!-- Generated by graphviz version 2.26.3 (20100126.1600)
 -->
<!-- Title: G Pages: 1 -->
<svg width="190pt" height="128pt"
 viewBox="0.00 0.00 190.00 128.00" xmlns="http://www.w3.org/2000/svg" xmlns:xlink="http://www.w3.org/1999/xlink">
<g id="graph1" class="graph" transform="scale(1 1) rotate(0) translate(4 124)">
<title>G</title>
<polygon fill="white" stroke="white" points="-4,5 -4,-124 187,-124 187,5 -4,5"/>
<!-- Node1 -->
<g id="node1" class="node"><title>Node1</title>
<polygon fill="#bfbfbf" stroke="black" points="0,-0.5 0,-21.5 182,-21.5 182,-0.5 0,-0.5"/>
<text text-anchor="middle" x="91" y="-8.5" font-family="Helvetica,sans-Serif" font-size="10.00">gaia::security::TrustedCertificateStore</text>
</g>
<!-- Node2 -->
<g id="node2" class="node"><title>Node2</title>
<a xlink:href="../../d4/d31/classgaia_1_1storage_1_1_file.html" target="_top" xlink:title="An &quot;abstract&quot; representation of a file system entity identified by a pathname.">
<polygon fill="white" stroke="black" points="43.5,-98.5 43.5,-119.5 138.5,-119.5 138.5,-98.5 43.5,-98.5"/>
<text text-anchor="middle" x="91" y="-106.5" font-family="Helvetica,sans-Serif" font-size="10.00">gaia::storage::File</text>
</a>
</g>
<!-- Node2&#45;&gt;Node1 -->
<g id="edge2" class="edge"><title>Node2&#45;&gt;Node1</title>
<path fill="none" stroke="#9a32cd" stroke-dasharray="5,2" d="M91,-87.9567C91,-67.5572 91,-37.4427 91,-21.6129"/>
<polygon fill="#9a32cd" stroke="#9a32cd" points="87.5001,-88.1378 91,-98.1378 94.5001,-88.1379 87.5001,-88.1378"/>
<text text-anchor="middle" x="123" y="-70.5" font-family="Helvetica,sans-Serif" font-size="10.00"> mpDeletedDir</text>
<text text-anchor="middle" x="123" y="-57.5" font-family="Helvetica,sans-Serif" font-size="10.00">mpAddedDir</text>
<text text-anchor="middle" x="123" y="-44.5" font-family="Helvetica,sans-Serif" font-size="10.00">mpSystemDir</text>
</g>
</g>
</svg>
