<?xml version="1.0" encoding="UTF-8" standalone="no"?>
<!DOCTYPE svg PUBLIC "-//W3C//DTD SVG 1.1//EN"
 "http://www.w3.org/Graphics/SVG/1.1/DTD/svg11.dtd">
<!-- Generated by graphviz version 2.26.3 (20100126.1600)
 -->
<!-- Title: G Pages: 1 -->
<svg width="572pt" height="88pt"
 viewBox="0.00 0.00 572.00 88.00" xmlns="http://www.w3.org/2000/svg" xmlns:xlink="http://www.w3.org/1999/xlink">
<g id="graph1" class="graph" transform="scale(1 1) rotate(0) translate(4 84)">
<title>G</title>
<polygon fill="white" stroke="white" points="-4,5 -4,-84 569,-84 569,5 -4,5"/>
<!-- Node1 -->
<g id="node1" class="node"><title>Node1</title>
<polygon fill="#bfbfbf" stroke="black" points="151,-58.5 151,-79.5 429,-79.5 429,-58.5 151,-58.5"/>
<text text-anchor="middle" x="290" y="-66.5" font-family="Helvetica,sans-Serif" font-size="10.00">/home/vilon_tao/gaia/sdk/include/gaia/core/SurfaceWidget.h</text>
</g>
<!-- Node2 -->
<g id="node3" class="node"><title>Node2</title>
<a xlink:href="../../d0/d01/_g_l_surface_widget_8h.html" target="_top" xlink:title="/home/vilon_tao/gaia/sdk/include/gaia/core/GLSurfaceWidget.h">
<polygon fill="white" stroke="black" points="0,-0.5 0,-21.5 290,-21.5 290,-0.5 0,-0.5"/>
<text text-anchor="middle" x="145" y="-8.5" font-family="Helvetica,sans-Serif" font-size="10.00">/home/vilon_tao/gaia/sdk/include/gaia/core/GLSurfaceWidget.h</text>
</a>
</g>
<!-- Node1&#45;&gt;Node2 -->
<g id="edge2" class="edge"><title>Node1&#45;&gt;Node2</title>
<path fill="none" stroke="midnightblue" d="M254.377,-54.7509C228.771,-44.5086 194.801,-30.9206 171.553,-21.6212"/>
<polygon fill="midnightblue" stroke="midnightblue" points="253.157,-58.0323 263.742,-58.4966 255.757,-51.533 253.157,-58.0323"/>
</g>
<!-- Node3 -->
<g id="node5" class="node"><title>Node3</title>
<a xlink:href="../../d4/db3/_video_widget_8h.html" target="_top" xlink:title="/home/vilon_tao/gaia/sdk/include/gaia/ui/VideoWidget.h">
<polygon fill="white" stroke="black" points="307.5,-0.5 307.5,-21.5 564.5,-21.5 564.5,-0.5 307.5,-0.5"/>
<text text-anchor="middle" x="436" y="-8.5" font-family="Helvetica,sans-Serif" font-size="10.00">/home/vilon_tao/gaia/sdk/include/gaia/ui/VideoWidget.h</text>
</a>
</g>
<!-- Node1&#45;&gt;Node3 -->
<g id="edge4" class="edge"><title>Node1&#45;&gt;Node3</title>
<path fill="none" stroke="midnightblue" d="M325.868,-54.7509C351.651,-44.5086 385.855,-30.9206 409.264,-21.6212"/>
<polygon fill="midnightblue" stroke="midnightblue" points="324.441,-51.5519 316.439,-58.4966 327.025,-58.0574 324.441,-51.5519"/>
</g>
</g>
</svg>
