<?xml version="1.0" encoding="UTF-8" standalone="no"?>
<!DOCTYPE svg PUBLIC "-//W3C//DTD SVG 1.1//EN"
 "http://www.w3.org/Graphics/SVG/1.1/DTD/svg11.dtd">
<!-- Generated by graphviz version 2.26.3 (20100126.1600)
 -->
<!-- Title: G Pages: 1 -->
<svg width="9944pt" height="262pt"
 viewBox="0.00 0.00 9944.00 262.00" xmlns="http://www.w3.org/2000/svg" xmlns:xlink="http://www.w3.org/1999/xlink">
<g id="graph1" class="graph" transform="scale(1 1) rotate(0) translate(4 258)">
<title>G</title>
<polygon fill="white" stroke="white" points="-4,5 -4,-258 9941,-258 9941,5 -4,5"/>
<!-- Node1 -->
<g id="node1" class="node"><title>Node1</title>
<polygon fill="#bfbfbf" stroke="black" points="4776.5,-232.5 4776.5,-253.5 5039.5,-253.5 5039.5,-232.5 4776.5,-232.5"/>
<text text-anchor="middle" x="4908" y="-240.5" font-family="Helvetica,sans-Serif" font-size="10.00">/home/vilon_tao/gaia/sdk/include/gaia/base/VectorImpl.h</text>
</g>
<!-- Node2 -->
<g id="node3" class="node"><title>Node2</title>
<a xlink:href="../../d4/d7f/_vector_8h.html" target="_top" xlink:title="/home/vilon_tao/gaia/sdk/include/gaia/base/Vector.h">
<polygon fill="white" stroke="black" points="4786,-174.5 4786,-195.5 5030,-195.5 5030,-174.5 4786,-174.5"/>
<text text-anchor="middle" x="4908" y="-182.5" font-family="Helvetica,sans-Serif" font-size="10.00">/home/vilon_tao/gaia/sdk/include/gaia/base/Vector.h</text>
</a>
</g>
<!-- Node1&#45;&gt;Node2 -->
<g id="edge2" class="edge"><title>Node1&#45;&gt;Node2</title>
<path fill="none" stroke="midnightblue" d="M4908,-222.191C4908,-213.168 4908,-202.994 4908,-195.571"/>
<polygon fill="midnightblue" stroke="midnightblue" points="4904.5,-222.362 4908,-232.362 4911.5,-222.362 4904.5,-222.362"/>
</g>
<!-- Node3 -->
<g id="node5" class="node"><title>Node3</title>
<a xlink:href="../../d1/dae/_vector2_d_8h.html" target="_top" xlink:title="/home/vilon_tao/gaia/sdk/include/gaia/base/Vector2D.h">
<polygon fill="white" stroke="black" points="-0.5,-116.5 -0.5,-137.5 256.5,-137.5 256.5,-116.5 -0.5,-116.5"/>
<text text-anchor="middle" x="128" y="-124.5" font-family="Helvetica,sans-Serif" font-size="10.00">/home/vilon_tao/gaia/sdk/include/gaia/base/Vector2D.h</text>
</a>
</g>
<!-- Node2&#45;&gt;Node3 -->
<g id="edge4" class="edge"><title>Node2&#45;&gt;Node3</title>
<path fill="none" stroke="midnightblue" d="M4775.93,-184.914C4116.74,-184.295 1178.08,-179.227 265,-138 261.663,-137.849 258.281,-137.682 254.869,-137.501"/>
<polygon fill="midnightblue" stroke="midnightblue" points="4775.94,-188.414 4785.94,-184.923 4775.94,-181.414 4775.94,-188.414"/>
</g>
<!-- Node4 -->
<g id="node7" class="node"><title>Node4</title>
<a xlink:href="../../d6/d2c/_cloud_storage_manager_8h.html" target="_top" xlink:title="/home/vilon_tao/gaia/sdk/include/gaia/cloudstorage/CloudStorageManager.h">
<polygon fill="white" stroke="black" points="273.5,-116.5 273.5,-137.5 620.5,-137.5 620.5,-116.5 273.5,-116.5"/>
<text text-anchor="middle" x="447" y="-124.5" font-family="Helvetica,sans-Serif" font-size="10.00">/home/vilon_tao/gaia/sdk/include/gaia/cloudstorage/CloudStorageManager.h</text>
</a>
</g>
<!-- Node2&#45;&gt;Node4 -->
<g id="edge6" class="edge"><title>Node2&#45;&gt;Node4</title>
<path fill="none" stroke="midnightblue" d="M4775.45,-184.428C4147.31,-181.58 1465.92,-167.869 629,-138 624.729,-137.848 620.403,-137.681 616.039,-137.501"/>
<polygon fill="midnightblue" stroke="midnightblue" points="4775.88,-187.93 4785.9,-184.475 4775.91,-180.93 4775.88,-187.93"/>
</g>
<!-- Node5 -->
<g id="node9" class="node"><title>Node5</title>
<a xlink:href="../../d7/d86/_app_widget_manager_8h.html" target="_top" xlink:title="/home/vilon_tao/gaia/sdk/include/gaia/core/appwidget/AppWidgetManager.h">
<polygon fill="white" stroke="black" points="638,-116.5 638,-137.5 984,-137.5 984,-116.5 638,-116.5"/>
<text text-anchor="middle" x="811" y="-124.5" font-family="Helvetica,sans-Serif" font-size="10.00">/home/vilon_tao/gaia/sdk/include/gaia/core/appwidget/AppWidgetManager.h</text>
</a>
</g>
<!-- Node2&#45;&gt;Node5 -->
<g id="edge8" class="edge"><title>Node2&#45;&gt;Node5</title>
<path fill="none" stroke="midnightblue" d="M4775.38,-184.271C4180.46,-180.869 1753.78,-165.541 993,-138 988.888,-137.851 984.723,-137.689 980.524,-137.515"/>
<polygon fill="midnightblue" stroke="midnightblue" points="4775.69,-187.773 4785.71,-184.33 4775.73,-180.773 4775.69,-187.773"/>
</g>
<!-- Node6 -->
<g id="node11" class="node"><title>Node6</title>
<a xlink:href="../../db/df1/_app_widget_provider_8h.html" target="_top" xlink:title="/home/vilon_tao/gaia/sdk/include/gaia/core/appwidget/AppWidgetProvider.h">
<polygon fill="white" stroke="black" points="1002,-116.5 1002,-137.5 1346,-137.5 1346,-116.5 1002,-116.5"/>
<text text-anchor="middle" x="1174" y="-124.5" font-family="Helvetica,sans-Serif" font-size="10.00">/home/vilon_tao/gaia/sdk/include/gaia/core/appwidget/AppWidgetProvider.h</text>
</a>
</g>
<!-- Node2&#45;&gt;Node6 -->
<g id="edge10" class="edge"><title>Node2&#45;&gt;Node6</title>
<path fill="none" stroke="midnightblue" d="M4775.76,-184.093C4216.19,-180.124 2040.47,-163.349 1355,-138 1350.91,-137.849 1346.77,-137.685 1342.59,-137.509"/>
<polygon fill="midnightblue" stroke="midnightblue" points="4775.86,-187.594 4785.88,-184.165 4775.91,-180.594 4775.86,-187.594"/>
</g>
<!-- Node7 -->
<g id="node13" class="node"><title>Node7</title>
<a xlink:href="../../d7/d03/_gesture_8h.html" target="_top" xlink:title="/home/vilon_tao/gaia/sdk/include/gaia/core/gesture/Gesture.h">
<polygon fill="white" stroke="black" points="1363.5,-116.5 1363.5,-137.5 1646.5,-137.5 1646.5,-116.5 1363.5,-116.5"/>
<text text-anchor="middle" x="1505" y="-124.5" font-family="Helvetica,sans-Serif" font-size="10.00">/home/vilon_tao/gaia/sdk/include/gaia/core/gesture/Gesture.h</text>
</a>
</g>
<!-- Node2&#45;&gt;Node7 -->
<g id="edge12" class="edge"><title>Node2&#45;&gt;Node7</title>
<path fill="none" stroke="midnightblue" d="M4775.63,-184.127C4245.97,-180.474 2277.92,-165.317 1655,-138 1651.61,-137.851 1648.18,-137.689 1644.71,-137.516"/>
<polygon fill="midnightblue" stroke="midnightblue" points="4775.96,-187.63 4785.99,-184.199 4776.01,-180.63 4775.96,-187.63"/>
</g>
<!-- Node8 -->
<g id="node15" class="node"><title>Node8</title>
<a xlink:href="../../d6/dee/_gesture_recognizer_8h.html" target="_top" xlink:title="/home/vilon_tao/gaia/sdk/include/gaia/core/gesture/GestureRecognizer.h">
<polygon fill="white" stroke="black" points="1664,-116.5 1664,-137.5 1996,-137.5 1996,-116.5 1664,-116.5"/>
<text text-anchor="middle" x="1830" y="-124.5" font-family="Helvetica,sans-Serif" font-size="10.00">/home/vilon_tao/gaia/sdk/include/gaia/core/gesture/GestureRecognizer.h</text>
</a>
</g>
<!-- Node2&#45;&gt;Node8 -->
<g id="edge14" class="edge"><title>Node2&#45;&gt;Node8</title>
<path fill="none" stroke="midnightblue" d="M4775.25,-183.674C4282.06,-178.619 2555.42,-159.743 2005,-138 2001.2,-137.85 1997.35,-137.688 1993.47,-137.516"/>
<polygon fill="midnightblue" stroke="midnightblue" points="4775.57,-187.177 4785.61,-183.78 4775.64,-180.178 4775.57,-187.177"/>
</g>
<!-- Node9 -->
<g id="node17" class="node"><title>Node9</title>
<a xlink:href="../../dd/d8e/_gesture_stroke_8h.html" target="_top" xlink:title="/home/vilon_tao/gaia/sdk/include/gaia/core/gesture/GestureStroke.h">
<polygon fill="white" stroke="black" points="2013.5,-116.5 2013.5,-137.5 2324.5,-137.5 2324.5,-116.5 2013.5,-116.5"/>
<text text-anchor="middle" x="2169" y="-124.5" font-family="Helvetica,sans-Serif" font-size="10.00">/home/vilon_tao/gaia/sdk/include/gaia/core/gesture/GestureStroke.h</text>
</a>
</g>
<!-- Node2&#45;&gt;Node9 -->
<g id="edge16" class="edge"><title>Node2&#45;&gt;Node9</title>
<path fill="none" stroke="midnightblue" d="M4775.68,-183.399C4320.38,-177.76 2819.9,-158.079 2338,-138 2333.59,-137.816 2329.12,-137.617 2324.61,-137.403"/>
<polygon fill="midnightblue" stroke="midnightblue" points="4775.87,-186.901 4785.92,-183.525 4775.96,-179.902 4775.87,-186.901"/>
</g>
<!-- Node10 -->
<g id="node19" class="node"><title>Node10</title>
<a xlink:href="../../d1/dbb/_i_binder_8h.html" target="_top" xlink:title="/home/vilon_tao/gaia/sdk/include/gaia/core/ipc/IBinder.h">
<polygon fill="white" stroke="black" points="713,-58.5 713,-79.5 973,-79.5 973,-58.5 713,-58.5"/>
<text text-anchor="middle" x="843" y="-66.5" font-family="Helvetica,sans-Serif" font-size="10.00">/home/vilon_tao/gaia/sdk/include/gaia/core/ipc/IBinder.h</text>
</a>
</g>
<!-- Node2&#45;&gt;Node10 -->
<g id="edge18" class="edge"><title>Node2&#45;&gt;Node10</title>
<path fill="none" stroke="midnightblue" d="M4775.44,-184.386C4270.17,-181.807 2487.46,-170.441 2371,-138 2352.2,-132.763 2351.78,-121.313 2333,-116 2188.51,-75.1195 1131.96,-87.926 982,-80 979.099,-79.8467 976.165,-79.6836 973.207,-79.5119"/>
<polygon fill="midnightblue" stroke="midnightblue" points="4775.67,-187.887 4785.69,-184.438 4775.71,-180.887 4775.67,-187.887"/>
</g>
<!-- Node13 -->
<g id="node25" class="node"><title>Node13</title>
<a xlink:href="../../db/ded/_page_8h.html" target="_top" xlink:title="/home/vilon_tao/gaia/sdk/include/gaia/core/Page.h">
<polygon fill="white" stroke="black" points="2950,-116.5 2950,-137.5 3186,-137.5 3186,-116.5 2950,-116.5"/>
<text text-anchor="middle" x="3068" y="-124.5" font-family="Helvetica,sans-Serif" font-size="10.00">/home/vilon_tao/gaia/sdk/include/gaia/core/Page.h</text>
</a>
</g>
<!-- Node2&#45;&gt;Node13 -->
<g id="edge24" class="edge"><title>Node2&#45;&gt;Node13</title>
<path fill="none" stroke="midnightblue" d="M4775.81,-184.027C4488.16,-181.326 3783.93,-171.555 3195,-138 3192.13,-137.836 3189.22,-137.661 3186.29,-137.475"/>
<polygon fill="midnightblue" stroke="midnightblue" points="4775.84,-187.527 4785.87,-184.12 4775.9,-180.527 4775.84,-187.527"/>
</g>
<!-- Node25 -->
<g id="node51" class="node"><title>Node25</title>
<a xlink:href="../../d5/de8/_page_manager_8h.html" target="_top" xlink:title="/home/vilon_tao/gaia/sdk/include/gaia/core/PageManager.h">
<polygon fill="white" stroke="black" points="3489.5,-116.5 3489.5,-137.5 3762.5,-137.5 3762.5,-116.5 3489.5,-116.5"/>
<text text-anchor="middle" x="3626" y="-124.5" font-family="Helvetica,sans-Serif" font-size="10.00">/home/vilon_tao/gaia/sdk/include/gaia/core/PageManager.h</text>
</a>
</g>
<!-- Node2&#45;&gt;Node25 -->
<g id="edge52" class="edge"><title>Node2&#45;&gt;Node25</title>
<path fill="none" stroke="midnightblue" d="M4775.7,-181.008C4563.59,-174.276 4134.36,-159.286 3771,-138 3768.23,-137.838 3765.43,-137.669 3762.6,-137.495"/>
<polygon fill="midnightblue" stroke="midnightblue" points="4775.84,-184.514 4785.94,-181.332 4776.06,-177.518 4775.84,-184.514"/>
</g>
<!-- Node26 -->
<g id="node53" class="node"><title>Node26</title>
<a xlink:href="../../df/d57/_parcel_8h.html" target="_top" xlink:title="/home/vilon_tao/gaia/sdk/include/gaia/core/Parcel.h">
<polygon fill="white" stroke="black" points="2379.5,-116.5 2379.5,-137.5 2620.5,-137.5 2620.5,-116.5 2379.5,-116.5"/>
<text text-anchor="middle" x="2500" y="-124.5" font-family="Helvetica,sans-Serif" font-size="10.00">/home/vilon_tao/gaia/sdk/include/gaia/core/Parcel.h</text>
</a>
</g>
<!-- Node2&#45;&gt;Node26 -->
<g id="edge54" class="edge"><title>Node2&#45;&gt;Node26</title>
<path fill="none" stroke="midnightblue" d="M4775.76,-183.395C4355.14,-178.112 3051.02,-160.322 2629,-138 2626.08,-137.846 2623.13,-137.679 2620.15,-137.501"/>
<polygon fill="midnightblue" stroke="midnightblue" points="4775.79,-186.895 4785.83,-183.521 4775.88,-179.896 4775.79,-186.895"/>
</g>
<!-- Node28 -->
<g id="node58" class="node"><title>Node28</title>
<a xlink:href="../../d3/d70/_package_info_8h.html" target="_top" xlink:title="/home/vilon_tao/gaia/sdk/include/gaia/core/pm/PackageInfo.h">
<polygon fill="white" stroke="black" points="3780,-116.5 3780,-137.5 4064,-137.5 4064,-116.5 3780,-116.5"/>
<text text-anchor="middle" x="3922" y="-124.5" font-family="Helvetica,sans-Serif" font-size="10.00">/home/vilon_tao/gaia/sdk/include/gaia/core/pm/PackageInfo.h</text>
</a>
</g>
<!-- Node2&#45;&gt;Node28 -->
<g id="edge60" class="edge"><title>Node2&#45;&gt;Node28</title>
<path fill="none" stroke="midnightblue" d="M4775.75,-178.23C4611.07,-169.646 4321.19,-154.024 4073,-138 4070.11,-137.814 4067.2,-137.623 4064.26,-137.429"/>
<polygon fill="midnightblue" stroke="midnightblue" points="4775.75,-181.736 4785.92,-178.76 4776.12,-174.745 4775.75,-181.736"/>
</g>
<!-- Node29 -->
<g id="node60" class="node"><title>Node29</title>
<a xlink:href="../../d2/d9d/_package_manager_8h.html" target="_top" xlink:title="/home/vilon_tao/gaia/sdk/include/gaia/core/pm/PackageManager.h">
<polygon fill="white" stroke="black" points="4081.5,-116.5 4081.5,-137.5 4386.5,-137.5 4386.5,-116.5 4081.5,-116.5"/>
<text text-anchor="middle" x="4234" y="-124.5" font-family="Helvetica,sans-Serif" font-size="10.00">/home/vilon_tao/gaia/sdk/include/gaia/core/pm/PackageManager.h</text>
</a>
</g>
<!-- Node2&#45;&gt;Node29 -->
<g id="edge62" class="edge"><title>Node2&#45;&gt;Node29</title>
<path fill="none" stroke="midnightblue" d="M4775.81,-173.625C4654.05,-163.146 4474.81,-147.722 4356.29,-137.523"/>
<polygon fill="midnightblue" stroke="midnightblue" points="4775.68,-177.126 4785.94,-174.497 4776.28,-170.152 4775.68,-177.126"/>
</g>
<!-- Node31 -->
<g id="node64" class="node"><title>Node31</title>
<a xlink:href="../../da/d11/_package_manager_priv_8h.html" target="_top" xlink:title="/home/vilon_tao/gaia/sdk/include/gaia/core/pm/PackageManagerPriv.h">
<polygon fill="white" stroke="black" points="4403.5,-116.5 4403.5,-137.5 4726.5,-137.5 4726.5,-116.5 4403.5,-116.5"/>
<text text-anchor="middle" x="4565" y="-124.5" font-family="Helvetica,sans-Serif" font-size="10.00">/home/vilon_tao/gaia/sdk/include/gaia/core/pm/PackageManagerPriv.h</text>
</a>
</g>
<!-- Node2&#45;&gt;Node31 -->
<g id="edge66" class="edge"><title>Node2&#45;&gt;Node31</title>
<path fill="none" stroke="midnightblue" d="M4835.82,-172.794C4774.02,-162.345 4685.97,-147.456 4627.23,-137.523"/>
<polygon fill="midnightblue" stroke="midnightblue" points="4835.44,-176.28 4845.89,-174.497 4836.61,-169.378 4835.44,-176.28"/>
</g>
<!-- Node32 -->
<g id="node66" class="node"><title>Node32</title>
<a xlink:href="../../df/d6a/_wrt_description_info_8h.html" target="_top" xlink:title="/home/vilon_tao/gaia/sdk/include/gaia/core/pm/wrt/WrtDescriptionInfo.h">
<polygon fill="white" stroke="black" points="4744,-116.5 4744,-137.5 5072,-137.5 5072,-116.5 4744,-116.5"/>
<text text-anchor="middle" x="4908" y="-124.5" font-family="Helvetica,sans-Serif" font-size="10.00">/home/vilon_tao/gaia/sdk/include/gaia/core/pm/wrt/WrtDescriptionInfo.h</text>
</a>
</g>
<!-- Node2&#45;&gt;Node32 -->
<g id="edge68" class="edge"><title>Node2&#45;&gt;Node32</title>
<path fill="none" stroke="midnightblue" d="M4908,-164.191C4908,-155.168 4908,-144.994 4908,-137.571"/>
<polygon fill="midnightblue" stroke="midnightblue" points="4904.5,-164.362 4908,-174.362 4911.5,-164.362 4904.5,-164.362"/>
</g>
<!-- Node33 -->
<g id="node68" class="node"><title>Node33</title>
<a xlink:href="../../d2/dad/_wrt_feature_info_8h.html" target="_top" xlink:title="/home/vilon_tao/gaia/sdk/include/gaia/core/pm/wrt/WrtFeatureInfo.h">
<polygon fill="white" stroke="black" points="5089.5,-116.5 5089.5,-137.5 5400.5,-137.5 5400.5,-116.5 5089.5,-116.5"/>
<text text-anchor="middle" x="5245" y="-124.5" font-family="Helvetica,sans-Serif" font-size="10.00">/home/vilon_tao/gaia/sdk/include/gaia/core/pm/wrt/WrtFeatureInfo.h</text>
</a>
</g>
<!-- Node2&#45;&gt;Node33 -->
<g id="edge70" class="edge"><title>Node2&#45;&gt;Node33</title>
<path fill="none" stroke="midnightblue" d="M4978.92,-172.794C5039.64,-162.345 5126.14,-147.456 5183.86,-137.523"/>
<polygon fill="midnightblue" stroke="midnightblue" points="4978.29,-169.351 4969.03,-174.497 4979.48,-176.25 4978.29,-169.351"/>
</g>
<!-- Node34 -->
<g id="node70" class="node"><title>Node34</title>
<a xlink:href="../../d0/d20/_wrt_license_info_8h.html" target="_top" xlink:title="/home/vilon_tao/gaia/sdk/include/gaia/core/pm/wrt/WrtLicenseInfo.h">
<polygon fill="white" stroke="black" points="5418,-116.5 5418,-137.5 5730,-137.5 5730,-116.5 5418,-116.5"/>
<text text-anchor="middle" x="5574" y="-124.5" font-family="Helvetica,sans-Serif" font-size="10.00">/home/vilon_tao/gaia/sdk/include/gaia/core/pm/wrt/WrtLicenseInfo.h</text>
</a>
</g>
<!-- Node2&#45;&gt;Node34 -->
<g id="edge72" class="edge"><title>Node2&#45;&gt;Node34</title>
<path fill="none" stroke="midnightblue" d="M5038.62,-173.625C5158.94,-163.146 5336.05,-147.722 5453.17,-137.523"/>
<polygon fill="midnightblue" stroke="midnightblue" points="5038.27,-170.142 5028.61,-174.497 5038.87,-177.116 5038.27,-170.142"/>
</g>
<!-- Node35 -->
<g id="node72" class="node"><title>Node35</title>
<a xlink:href="../../d1/d11/_wrt_package_info_8h.html" target="_top" xlink:title="/home/vilon_tao/gaia/sdk/include/gaia/core/pm/wrt/WrtPackageInfo.h">
<polygon fill="white" stroke="black" points="5747.5,-116.5 5747.5,-137.5 6064.5,-137.5 6064.5,-116.5 5747.5,-116.5"/>
<text text-anchor="middle" x="5906" y="-124.5" font-family="Helvetica,sans-Serif" font-size="10.00">/home/vilon_tao/gaia/sdk/include/gaia/core/pm/wrt/WrtPackageInfo.h</text>
</a>
</g>
<!-- Node2&#45;&gt;Node35 -->
<g id="edge74" class="edge"><title>Node2&#45;&gt;Node35</title>
<path fill="none" stroke="midnightblue" d="M5040.31,-177.896C5204.29,-169.004 5492.3,-153.101 5739,-138 5741.76,-137.831 5744.54,-137.66 5747.34,-137.487"/>
<polygon fill="midnightblue" stroke="midnightblue" points="5039.97,-174.409 5030.17,-178.446 5040.35,-181.399 5039.97,-174.409"/>
</g>
<!-- Node36 -->
<g id="node74" class="node"><title>Node36</title>
<a xlink:href="../../dd/dfa/_wrt_package_name_8h.html" target="_top" xlink:title="/home/vilon_tao/gaia/sdk/include/gaia/core/pm/wrt/WrtPackageName.h">
<polygon fill="white" stroke="black" points="6082,-116.5 6082,-137.5 6408,-137.5 6408,-116.5 6082,-116.5"/>
<text text-anchor="middle" x="6245" y="-124.5" font-family="Helvetica,sans-Serif" font-size="10.00">/home/vilon_tao/gaia/sdk/include/gaia/core/pm/wrt/WrtPackageName.h</text>
</a>
</g>
<!-- Node2&#45;&gt;Node36 -->
<g id="edge76" class="edge"><title>Node2&#45;&gt;Node36</title>
<path fill="none" stroke="midnightblue" d="M5040.18,-180.681C5256.28,-173.393 5698.65,-157.519 6073,-138 6075.99,-137.844 6079.01,-137.684 6082.04,-137.519"/>
<polygon fill="midnightblue" stroke="midnightblue" points="5039.94,-177.187 5030.06,-181.022 5040.17,-184.183 5039.94,-177.187"/>
</g>
<!-- Node37 -->
<g id="node76" class="node"><title>Node37</title>
<a xlink:href="../../de/d56/_scene_8h.html" target="_top" xlink:title="/home/vilon_tao/gaia/sdk/include/gaia/core/vision/Scene.h">
<polygon fill="white" stroke="red" points="3203.5,-116.5 3203.5,-137.5 3472.5,-137.5 3472.5,-116.5 3203.5,-116.5"/>
<text text-anchor="middle" x="3338" y="-124.5" font-family="Helvetica,sans-Serif" font-size="10.00">/home/vilon_tao/gaia/sdk/include/gaia/core/vision/Scene.h</text>
</a>
</g>
<!-- Node2&#45;&gt;Node37 -->
<g id="edge78" class="edge"><title>Node2&#45;&gt;Node37</title>
<path fill="none" stroke="midnightblue" d="M4775.45,-182.575C4523.26,-177.529 3957.04,-164.136 3481,-138 3478.14,-137.843 3475.25,-137.678 3472.34,-137.506"/>
<polygon fill="midnightblue" stroke="midnightblue" points="4775.69,-186.08 4785.75,-182.78 4775.83,-179.081 4775.69,-186.08"/>
</g>
<!-- Node38 -->
<g id="node82" class="node"><title>Node38</title>
<a xlink:href="../../d8/d17/_media_codec_info_8h.html" target="_top" xlink:title="/home/vilon_tao/gaia/sdk/include/gaia/media/MediaCodecInfo.h">
<polygon fill="white" stroke="black" points="6426,-116.5 6426,-137.5 6718,-137.5 6718,-116.5 6426,-116.5"/>
<text text-anchor="middle" x="6572" y="-124.5" font-family="Helvetica,sans-Serif" font-size="10.00">/home/vilon_tao/gaia/sdk/include/gaia/media/MediaCodecInfo.h</text>
</a>
</g>
<!-- Node2&#45;&gt;Node38 -->
<g id="edge88" class="edge"><title>Node2&#45;&gt;Node38</title>
<path fill="none" stroke="midnightblue" d="M5040.66,-182.638C5303.46,-177.567 5908.77,-163.939 6417,-138 6420.1,-137.842 6423.23,-137.676 6426.39,-137.503"/>
<polygon fill="midnightblue" stroke="midnightblue" points="5040.25,-179.145 5030.32,-182.837 5040.38,-186.144 5040.25,-179.145"/>
</g>
<!-- Node39 -->
<g id="node84" class="node"><title>Node39</title>
<a xlink:href="../../da/dd0/_on_keyboard_action_listener_8h.html" target="_top" xlink:title="/home/vilon_tao/gaia/sdk/include/gaia/service/OnKeyboardActionListener.h">
<polygon fill="white" stroke="black" points="6736,-116.5 6736,-137.5 7078,-137.5 7078,-116.5 6736,-116.5"/>
<text text-anchor="middle" x="6907" y="-124.5" font-family="Helvetica,sans-Serif" font-size="10.00">/home/vilon_tao/gaia/sdk/include/gaia/service/OnKeyboardActionListener.h</text>
</a>
</g>
<!-- Node2&#45;&gt;Node39 -->
<g id="edge90" class="edge"><title>Node2&#45;&gt;Node39</title>
<path fill="none" stroke="midnightblue" d="M5040.25,-183.178C5340.31,-178.694 6095.66,-165.439 6727,-138 6730.6,-137.844 6734.23,-137.679 6737.9,-137.508"/>
<polygon fill="midnightblue" stroke="midnightblue" points="5040.15,-179.679 5030.2,-183.327 5040.25,-186.678 5040.15,-179.679"/>
</g>
<!-- Node40 -->
<g id="node86" class="node"><title>Node40</title>
<a xlink:href="../../df/d0e/_sensor_manager_8h.html" target="_top" xlink:title="/home/vilon_tao/gaia/sdk/include/gaia/system/SensorManager.h">
<polygon fill="white" stroke="red" points="7095.5,-116.5 7095.5,-137.5 7390.5,-137.5 7390.5,-116.5 7095.5,-116.5"/>
<text text-anchor="middle" x="7243" y="-124.5" font-family="Helvetica,sans-Serif" font-size="10.00">/home/vilon_tao/gaia/sdk/include/gaia/system/SensorManager.h</text>
</a>
</g>
<!-- Node2&#45;&gt;Node40 -->
<g id="edge92" class="edge"><title>Node2&#45;&gt;Node40</title>
<path fill="none" stroke="midnightblue" d="M5040.16,-184.396C5379.94,-182.355 6311.7,-173.674 7087,-138 7090.39,-137.844 7093.82,-137.677 7097.28,-137.5"/>
<polygon fill="midnightblue" stroke="midnightblue" points="5040.01,-180.897 5030.03,-184.456 5040.06,-187.896 5040.01,-180.897"/>
</g>
<!-- Node41 -->
<g id="node88" class="node"><title>Node41</title>
<a xlink:href="../../d5/df3/_gaia_test_runner_8h.html" target="_top" xlink:title="/home/vilon_tao/gaia/sdk/include/gaia/testing/GaiaTestRunner.h">
<polygon fill="white" stroke="red" points="2637.5,-116.5 2637.5,-137.5 2932.5,-137.5 2932.5,-116.5 2637.5,-116.5"/>
<text text-anchor="middle" x="2785" y="-124.5" font-family="Helvetica,sans-Serif" font-size="10.00">/home/vilon_tao/gaia/sdk/include/gaia/testing/GaiaTestRunner.h</text>
</a>
</g>
<!-- Node2&#45;&gt;Node41 -->
<g id="edge94" class="edge"><title>Node2&#45;&gt;Node41</title>
<path fill="none" stroke="midnightblue" d="M4775.79,-183.962C4458.95,-181.013 3631.28,-170.566 2941,-138 2937.75,-137.846 2934.45,-137.683 2931.13,-137.511"/>
<polygon fill="midnightblue" stroke="midnightblue" points="4775.9,-187.463 4785.93,-184.056 4775.96,-180.464 4775.9,-187.463"/>
</g>
<!-- Node42 -->
<g id="node91" class="node"><title>Node42</title>
<a xlink:href="../../de/d30/_i_expandable_list_provider_8h.html" target="_top" xlink:title="/home/vilon_tao/gaia/sdk/include/gaia/ui/IExpandableListProvider.h">
<polygon fill="white" stroke="red" points="7408,-116.5 7408,-137.5 7716,-137.5 7716,-116.5 7408,-116.5"/>
<text text-anchor="middle" x="7562" y="-124.5" font-family="Helvetica,sans-Serif" font-size="10.00">/home/vilon_tao/gaia/sdk/include/gaia/ui/IExpandableListProvider.h</text>
</a>
</g>
<!-- Node2&#45;&gt;Node42 -->
<g id="edge98" class="edge"><title>Node2&#45;&gt;Node42</title>
<path fill="none" stroke="midnightblue" d="M5040.08,-183.355C5485.91,-177.671 6933.27,-158.096 7399,-138 7402.54,-137.847 7406.13,-137.683 7409.74,-137.509"/>
<polygon fill="midnightblue" stroke="midnightblue" points="5040.01,-179.856 5030.05,-183.483 5040.1,-186.855 5040.01,-179.856"/>
</g>
<!-- Node43 -->
<g id="node93" class="node"><title>Node43</title>
<a xlink:href="../../d9/d0a/_i_item_provider_8h.html" target="_top" xlink:title="/home/vilon_tao/gaia/sdk/include/gaia/ui/IItemProvider.h">
<polygon fill="white" stroke="red" points="7734,-116.5 7734,-137.5 7994,-137.5 7994,-116.5 7734,-116.5"/>
<text text-anchor="middle" x="7864" y="-124.5" font-family="Helvetica,sans-Serif" font-size="10.00">/home/vilon_tao/gaia/sdk/include/gaia/ui/IItemProvider.h</text>
</a>
</g>
<!-- Node2&#45;&gt;Node43 -->
<g id="edge100" class="edge"><title>Node2&#45;&gt;Node43</title>
<path fill="none" stroke="midnightblue" d="M5040.53,-183.886C5524.01,-179.651 7192.44,-163.491 7725,-138 7728.14,-137.85 7731.33,-137.686 7734.54,-137.511"/>
<polygon fill="midnightblue" stroke="midnightblue" points="5040.33,-180.387 5030.36,-183.975 5040.39,-187.387 5040.33,-180.387"/>
</g>
<!-- Node44 -->
<g id="node95" class="node"><title>Node44</title>
<a xlink:href="../../d8/de3/_i_simple_list_item_provider_8h.html" target="_top" xlink:title="/home/vilon_tao/gaia/sdk/include/gaia/ui/ISimpleListItemProvider.h">
<polygon fill="white" stroke="red" points="8012,-116.5 8012,-137.5 8318,-137.5 8318,-116.5 8012,-116.5"/>
<text text-anchor="middle" x="8165" y="-124.5" font-family="Helvetica,sans-Serif" font-size="10.00">/home/vilon_tao/gaia/sdk/include/gaia/ui/ISimpleListItemProvider.h</text>
</a>
</g>
<!-- Node2&#45;&gt;Node44 -->
<g id="edge102" class="edge"><title>Node2&#45;&gt;Node44</title>
<path fill="none" stroke="midnightblue" d="M5040.38,-183.919C5553.63,-179.584 7412.77,-162.503 8003,-138 8006.66,-137.848 8010.37,-137.683 8014.11,-137.507"/>
<polygon fill="midnightblue" stroke="midnightblue" points="5040.32,-180.419 5030.35,-184.004 5040.38,-187.419 5040.32,-180.419"/>
</g>
<!-- Node45 -->
<g id="node97" class="node"><title>Node45</title>
<a xlink:href="../../d7/d59/_list_item_lite_8h.html" target="_top" xlink:title="/home/vilon_tao/gaia/sdk/include/gaia/ui/ListItemLite.h">
<polygon fill="white" stroke="black" points="8422.5,-58.5 8422.5,-79.5 8675.5,-79.5 8675.5,-58.5 8422.5,-58.5"/>
<text text-anchor="middle" x="8549" y="-66.5" font-family="Helvetica,sans-Serif" font-size="10.00">/home/vilon_tao/gaia/sdk/include/gaia/ui/ListItemLite.h</text>
</a>
</g>
<!-- Node2&#45;&gt;Node45 -->
<g id="edge104" class="edge"><title>Node2&#45;&gt;Node45</title>
<path fill="none" stroke="midnightblue" d="M5040.5,-184.57C5697.89,-182.284 8578.99,-170.422 8611,-138 8630.69,-118.06 8594.97,-93.3496 8570.07,-79.5654"/>
<polygon fill="midnightblue" stroke="midnightblue" points="5040.04,-181.071 5030.05,-184.606 5040.06,-188.071 5040.04,-181.071"/>
</g>
<!-- Node46 -->
<g id="node99" class="node"><title>Node46</title>
<a xlink:href="../../d6/d77/_list_item_panels_8h.html" target="_top" xlink:title="/home/vilon_tao/gaia/sdk/include/gaia/ui/ListItemPanels.h">
<polygon fill="white" stroke="black" points="8335.5,-116.5 8335.5,-137.5 8602.5,-137.5 8602.5,-116.5 8335.5,-116.5"/>
<text text-anchor="middle" x="8469" y="-124.5" font-family="Helvetica,sans-Serif" font-size="10.00">/home/vilon_tao/gaia/sdk/include/gaia/ui/ListItemPanels.h</text>
</a>
</g>
<!-- Node2&#45;&gt;Node46 -->
<g id="edge106" class="edge"><title>Node2&#45;&gt;Node46</title>
<path fill="none" stroke="midnightblue" d="M5040.68,-184.306C5587.66,-181.268 7669.8,-167.942 8327,-138 8330.33,-137.848 8333.71,-137.682 8337.12,-137.502"/>
<polygon fill="midnightblue" stroke="midnightblue" points="5040.36,-180.807 5030.38,-184.363 5040.4,-187.807 5040.36,-180.807"/>
</g>
<!-- Node47 -->
<g id="node102" class="node"><title>Node47</title>
<a xlink:href="../../d6/dc3/_list_preference_8h.html" target="_top" xlink:title="/home/vilon_tao/gaia/sdk/include/gaia/ui/preference/ListPreference.h">
<polygon fill="white" stroke="black" points="8658,-116.5 8658,-137.5 8972,-137.5 8972,-116.5 8658,-116.5"/>
<text text-anchor="middle" x="8815" y="-124.5" font-family="Helvetica,sans-Serif" font-size="10.00">/home/vilon_tao/gaia/sdk/include/gaia/ui/preference/ListPreference.h</text>
</a>
</g>
<!-- Node2&#45;&gt;Node47 -->
<g id="edge110" class="edge"><title>Node2&#45;&gt;Node47</title>
<path fill="none" stroke="midnightblue" d="M5040.29,-184.254C5617.69,-180.857 7920.48,-165.804 8644,-138 8648.46,-137.829 8652.98,-137.64 8657.55,-137.436"/>
<polygon fill="midnightblue" stroke="midnightblue" points="5040.24,-180.754 5030.26,-184.313 5040.28,-187.754 5040.24,-180.754"/>
</g>
<!-- Node48 -->
<g id="node104" class="node"><title>Node48</title>
<a xlink:href="../../d0/d18/_multi_select_list_preference_8h.html" target="_top" xlink:title="/home/vilon_tao/gaia/sdk/include/gaia/ui/preference/MultiSelectListPreference.h">
<polygon fill="white" stroke="black" points="8990,-116.5 8990,-137.5 9352,-137.5 9352,-116.5 8990,-116.5"/>
<text text-anchor="middle" x="9171" y="-124.5" font-family="Helvetica,sans-Serif" font-size="10.00">/home/vilon_tao/gaia/sdk/include/gaia/ui/preference/MultiSelectListPreference.h</text>
</a>
</g>
<!-- Node2&#45;&gt;Node48 -->
<g id="edge112" class="edge"><title>Node2&#45;&gt;Node48</title>
<path fill="none" stroke="midnightblue" d="M5040.42,-184.298C5649.63,-180.943 8187.09,-165.548 8981,-138 8985.38,-137.848 8989.81,-137.683 8994.28,-137.505"/>
<polygon fill="midnightblue" stroke="midnightblue" points="5040.26,-180.799 5030.28,-184.354 5040.3,-187.799 5040.26,-180.799"/>
</g>
<!-- Node49 -->
<g id="node106" class="node"><title>Node49</title>
<a xlink:href="../../df/db6/_tab_page_controller_8h.html" target="_top" xlink:title="/home/vilon_tao/gaia/sdk/include/gaia/ui/TabPageController.h">
<polygon fill="white" stroke="black" points="9369.5,-116.5 9369.5,-137.5 9652.5,-137.5 9652.5,-116.5 9369.5,-116.5"/>
<text text-anchor="middle" x="9511" y="-124.5" font-family="Helvetica,sans-Serif" font-size="10.00">/home/vilon_tao/gaia/sdk/include/gaia/ui/TabPageController.h</text>
</a>
</g>
<!-- Node2&#45;&gt;Node49 -->
<g id="edge114" class="edge"><title>Node2&#45;&gt;Node49</title>
<path fill="none" stroke="midnightblue" d="M5040.38,-184.724C5683.67,-183.209 8487.77,-174.591 9361,-138 9364.52,-137.852 9368.09,-137.69 9371.69,-137.514"/>
<polygon fill="midnightblue" stroke="midnightblue" points="5040.14,-181.224 5030.15,-184.748 5040.16,-188.224 5040.14,-181.224"/>
</g>
<!-- Node50 -->
<g id="node108" class="node"><title>Node50</title>
<a xlink:href="../../d3/d32/_usb_manager_8h.html" target="_top" xlink:title="/home/vilon_tao/gaia/sdk/include/gaia/usb/UsbManager.h">
<polygon fill="white" stroke="black" points="9670,-116.5 9670,-137.5 9936,-137.5 9936,-116.5 9670,-116.5"/>
<text text-anchor="middle" x="9803" y="-124.5" font-family="Helvetica,sans-Serif" font-size="10.00">/home/vilon_tao/gaia/sdk/include/gaia/usb/UsbManager.h</text>
</a>
</g>
<!-- Node2&#45;&gt;Node50 -->
<g id="edge116" class="edge"><title>Node2&#45;&gt;Node50</title>
<path fill="none" stroke="midnightblue" d="M5040.16,-184.9C5708.91,-184.209 8724.82,-178.843 9661,-138 9664.46,-137.849 9667.96,-137.682 9671.5,-137.5"/>
<polygon fill="midnightblue" stroke="midnightblue" points="5040,-181.4 5030.01,-184.91 5040.01,-188.4 5040,-181.4"/>
</g>
<!-- Node11 -->
<g id="node21" class="node"><title>Node11</title>
<a xlink:href="../../de/dc3/_delegate_connection_8h.html" target="_top" xlink:title="/home/vilon_tao/gaia/sdk/include/gaia/core/DelegateConnection.h">
<polygon fill="white" stroke="black" points="544,-0.5 544,-21.5 846,-21.5 846,-0.5 544,-0.5"/>
<text text-anchor="middle" x="695" y="-8.5" font-family="Helvetica,sans-Serif" font-size="10.00">/home/vilon_tao/gaia/sdk/include/gaia/core/DelegateConnection.h</text>
</a>
</g>
<!-- Node10&#45;&gt;Node11 -->
<g id="edge20" class="edge"><title>Node10&#45;&gt;Node11</title>
<path fill="none" stroke="midnightblue" d="M806.64,-54.7509C780.505,-44.5086 745.832,-30.9206 722.102,-21.6212"/>
<polygon fill="midnightblue" stroke="midnightblue" points="805.611,-58.1065 816.198,-58.4966 808.165,-51.5891 805.611,-58.1065"/>
</g>
<!-- Node12 -->
<g id="node23" class="node"><title>Node12</title>
<a xlink:href="../../da/de3/_binder_8h.html" target="_top" xlink:title="/home/vilon_tao/gaia/sdk/include/gaia/core/ipc/Binder.h">
<polygon fill="white" stroke="red" points="863.5,-0.5 863.5,-21.5 1120.5,-21.5 1120.5,-0.5 863.5,-0.5"/>
<text text-anchor="middle" x="992" y="-8.5" font-family="Helvetica,sans-Serif" font-size="10.00">/home/vilon_tao/gaia/sdk/include/gaia/core/ipc/Binder.h</text>
</a>
</g>
<!-- Node10&#45;&gt;Node12 -->
<g id="edge22" class="edge"><title>Node10&#45;&gt;Node12</title>
<path fill="none" stroke="midnightblue" d="M879.637,-54.7386C906.038,-44.4616 941.08,-30.821 964.967,-21.5231"/>
<polygon fill="midnightblue" stroke="midnightblue" points="878.032,-51.6075 869.983,-58.4966 880.571,-58.1307 878.032,-51.6075"/>
</g>
<!-- Node14 -->
<g id="node27" class="node"><title>Node14</title>
<a xlink:href="../../d9/d48/_account_authenticator_page_8h.html" target="_top" xlink:title="/home/vilon_tao/gaia/sdk/include/gaia/accounts/AccountAuthenticatorPage.h">
<polygon fill="white" stroke="black" points="1969,-58.5 1969,-79.5 2319,-79.5 2319,-58.5 1969,-58.5"/>
<text text-anchor="middle" x="2144" y="-66.5" font-family="Helvetica,sans-Serif" font-size="10.00">/home/vilon_tao/gaia/sdk/include/gaia/accounts/AccountAuthenticatorPage.h</text>
</a>
</g>
<!-- Node13&#45;&gt;Node14 -->
<g id="edge26" class="edge"><title>Node13&#45;&gt;Node14</title>
<path fill="none" stroke="midnightblue" d="M2939.55,-115.958C2868.18,-111.304 2531.56,-91.601 2319.46,-79.2244"/>
<polygon fill="midnightblue" stroke="midnightblue" points="2939.49,-119.462 2949.71,-116.647 2939.97,-112.478 2939.49,-119.462"/>
</g>
<!-- Node15 -->
<g id="node29" class="node"><title>Node15</title>
<a xlink:href="../../d0/d54/_instrumentation_test_case_8h.html" target="_top" xlink:title="/home/vilon_tao/gaia/sdk/include/gaia/testing/InstrumentationTestCase.h">
<polygon fill="white" stroke="red" points="1319,-58.5 1319,-79.5 1653,-79.5 1653,-58.5 1319,-58.5"/>
<text text-anchor="middle" x="1486" y="-66.5" font-family="Helvetica,sans-Serif" font-size="10.00">/home/vilon_tao/gaia/sdk/include/gaia/testing/InstrumentationTestCase.h</text>
</a>
</g>
<!-- Node13&#45;&gt;Node15 -->
<g id="edge28" class="edge"><title>Node13&#45;&gt;Node15</title>
<path fill="none" stroke="midnightblue" d="M2939.62,-115.952C2371.57,-83.7102 2226.76,-105.589 1662,-80 1658.64,-79.8476 1655.24,-79.6879 1651.81,-79.522"/>
<polygon fill="midnightblue" stroke="midnightblue" points="2939.53,-119.452 2949.71,-116.527 2939.93,-112.463 2939.53,-119.452"/>
</g>
<!-- Node16 -->
<g id="node31" class="node"><title>Node16</title>
<a xlink:href="../../d2/dc6/_single_launch_page_test_case_8h.html" target="_top" xlink:title="/home/vilon_tao/gaia/sdk/include/gaia/testing/SingleLaunchPageTestCase.h">
<polygon fill="white" stroke="black" points="1742.5,-0.5 1742.5,-21.5 2089.5,-21.5 2089.5,-0.5 1742.5,-0.5"/>
<text text-anchor="middle" x="1916" y="-8.5" font-family="Helvetica,sans-Serif" font-size="10.00">/home/vilon_tao/gaia/sdk/include/gaia/testing/SingleLaunchPageTestCase.h</text>
</a>
</g>
<!-- Node13&#45;&gt;Node16 -->
<g id="edge36" class="edge"><title>Node13&#45;&gt;Node16</title>
<path fill="none" stroke="midnightblue" d="M2939.38,-115.951C2797.59,-106.964 2485.56,-116.154 2366,-80 2347.32,-74.3512 2346.53,-64.1238 2328,-58 2280.24,-42.2146 2161.84,-29.6574 2064.17,-21.508"/>
<polygon fill="midnightblue" stroke="midnightblue" points="2939.49,-119.466 2949.7,-116.661 2939.97,-112.483 2939.49,-119.466"/>
</g>
<!-- Node17 -->
<g id="node33" class="node"><title>Node17</title>
<a xlink:href="../../d2/d74/_page_instrumentation_test_case_8h.html" target="_top" xlink:title="/home/vilon_tao/gaia/sdk/include/gaia/testing/PageInstrumentationTestCase.h">
<polygon fill="white" stroke="black" points="2375,-58.5 2375,-79.5 2731,-79.5 2731,-58.5 2375,-58.5"/>
<text text-anchor="middle" x="2553" y="-66.5" font-family="Helvetica,sans-Serif" font-size="10.00">/home/vilon_tao/gaia/sdk/include/gaia/testing/PageInstrumentationTestCase.h</text>
</a>
</g>
<!-- Node13&#45;&gt;Node17 -->
<g id="edge32" class="edge"><title>Node13&#45;&gt;Node17</title>
<path fill="none" stroke="midnightblue" d="M2964.75,-115.371C2871.76,-104.899 2736.27,-89.6402 2646.44,-79.5231"/>
<polygon fill="midnightblue" stroke="midnightblue" points="2964.41,-118.855 2974.74,-116.497 2965.19,-111.899 2964.41,-118.855"/>
</g>
<!-- Node18 -->
<g id="node35" class="node"><title>Node18</title>
<a xlink:href="../../db/deb/_page_unit_test_case_8h.html" target="_top" xlink:title="/home/vilon_tao/gaia/sdk/include/gaia/testing/PageUnitTestCase.h">
<polygon fill="white" stroke="black" points="2748.5,-58.5 2748.5,-79.5 3055.5,-79.5 3055.5,-58.5 2748.5,-58.5"/>
<text text-anchor="middle" x="2902" y="-66.5" font-family="Helvetica,sans-Serif" font-size="10.00">/home/vilon_tao/gaia/sdk/include/gaia/testing/PageUnitTestCase.h</text>
</a>
</g>
<!-- Node13&#45;&gt;Node18 -->
<g id="edge34" class="edge"><title>Node13&#45;&gt;Node18</title>
<path fill="none" stroke="midnightblue" d="M3028.34,-113.144C2998.8,-102.823 2959.08,-88.9439 2932.12,-79.5231"/>
<polygon fill="midnightblue" stroke="midnightblue" points="3027.34,-116.502 3037.94,-116.497 3029.65,-109.894 3027.34,-116.502"/>
</g>
<!-- Node19 -->
<g id="node38" class="node"><title>Node19</title>
<a xlink:href="../../d3/d9b/_combo_picker_8h.html" target="_top" xlink:title="/home/vilon_tao/gaia/sdk/include/gaia/ui/ComboPicker.h">
<polygon fill="white" stroke="black" points="3448.5,-58.5 3448.5,-79.5 3709.5,-79.5 3709.5,-58.5 3448.5,-58.5"/>
<text text-anchor="middle" x="3579" y="-66.5" font-family="Helvetica,sans-Serif" font-size="10.00">/home/vilon_tao/gaia/sdk/include/gaia/ui/ComboPicker.h</text>
</a>
</g>
<!-- Node13&#45;&gt;Node19 -->
<g id="edge38" class="edge"><title>Node13&#45;&gt;Node19</title>
<path fill="none" stroke="midnightblue" d="M3170.73,-115.34C3262.99,-104.868 3397.24,-89.63 3486.29,-79.5231"/>
<polygon fill="midnightblue" stroke="midnightblue" points="3170.08,-111.891 3160.54,-116.497 3170.87,-118.846 3170.08,-111.891"/>
</g>
<!-- Node20 -->
<g id="node40" class="node"><title>Node20</title>
<a xlink:href="../../d4/d1e/_hint_box_8h.html" target="_top" xlink:title="/home/vilon_tao/gaia/sdk/include/gaia/ui/HintBox.h">
<polygon fill="white" stroke="black" points="4016.5,-58.5 4016.5,-79.5 4253.5,-79.5 4253.5,-58.5 4016.5,-58.5"/>
<text text-anchor="middle" x="4135" y="-66.5" font-family="Helvetica,sans-Serif" font-size="10.00">/home/vilon_tao/gaia/sdk/include/gaia/ui/HintBox.h</text>
</a>
</g>
<!-- Node13&#45;&gt;Node20 -->
<g id="edge40" class="edge"><title>Node13&#45;&gt;Node20</title>
<path fill="none" stroke="midnightblue" d="M3196.51,-115.925C3557.63,-92.5948 3650.43,-103.391 4008,-80 4010.76,-79.8194 4013.55,-79.6302 4016.37,-79.4337"/>
<polygon fill="midnightblue" stroke="midnightblue" points="3196.04,-112.448 3186.29,-116.59 3196.5,-119.433 3196.04,-112.448"/>
</g>
<!-- Node21 -->
<g id="node42" class="node"><title>Node21</title>
<a xlink:href="../../d3/dc6/_preference_page_8h.html" target="_top" xlink:title="/home/vilon_tao/gaia/sdk/include/gaia/ui/preference/PreferencePage.h">
<polygon fill="white" stroke="black" points="3073,-58.5 3073,-79.5 3393,-79.5 3393,-58.5 3073,-58.5"/>
<text text-anchor="middle" x="3233" y="-66.5" font-family="Helvetica,sans-Serif" font-size="10.00">/home/vilon_tao/gaia/sdk/include/gaia/ui/preference/PreferencePage.h</text>
</a>
</g>
<!-- Node13&#45;&gt;Node21 -->
<g id="edge42" class="edge"><title>Node13&#45;&gt;Node21</title>
<path fill="none" stroke="midnightblue" d="M3107.42,-113.144C3136.78,-102.823 3176.26,-88.9439 3203.06,-79.5231"/>
<polygon fill="midnightblue" stroke="midnightblue" points="3106.15,-109.878 3097.88,-116.497 3108.48,-116.482 3106.15,-109.878"/>
</g>
<!-- Node22 -->
<g id="node44" class="node"><title>Node22</title>
<a xlink:href="../../d5/db8/_search_edit_widget_8h.html" target="_top" xlink:title="/home/vilon_tao/gaia/sdk/include/gaia/ui/SearchEditWidget.h">
<polygon fill="white" stroke="black" points="1670.5,-58.5 1670.5,-79.5 1951.5,-79.5 1951.5,-58.5 1670.5,-58.5"/>
<text text-anchor="middle" x="1811" y="-66.5" font-family="Helvetica,sans-Serif" font-size="10.00">/home/vilon_tao/gaia/sdk/include/gaia/ui/SearchEditWidget.h</text>
</a>
</g>
<!-- Node13&#45;&gt;Node22 -->
<g id="edge44" class="edge"><title>Node13&#45;&gt;Node22</title>
<path fill="none" stroke="midnightblue" d="M2939.68,-115.946C2503.85,-89.3909 2392.33,-103.883 1960,-80 1957.15,-79.8426 1954.27,-79.6785 1951.37,-79.5084"/>
<polygon fill="midnightblue" stroke="midnightblue" points="2939.52,-119.442 2949.71,-116.56 2939.94,-112.455 2939.52,-119.442"/>
</g>
<!-- Node23 -->
<g id="node46" class="node"><title>Node23</title>
<a xlink:href="../../d5/d80/_widget_animator_8h.html" target="_top" xlink:title="/home/vilon_tao/gaia/sdk/include/gaia/ui/WidgetAnimator.h">
<polygon fill="white" stroke="black" points="3727,-58.5 3727,-79.5 3999,-79.5 3999,-58.5 3727,-58.5"/>
<text text-anchor="middle" x="3863" y="-66.5" font-family="Helvetica,sans-Serif" font-size="10.00">/home/vilon_tao/gaia/sdk/include/gaia/ui/WidgetAnimator.h</text>
</a>
</g>
<!-- Node13&#45;&gt;Node23 -->
<g id="edge46" class="edge"><title>Node13&#45;&gt;Node23</title>
<path fill="none" stroke="midnightblue" d="M3196.43,-115.899C3428.98,-97.9114 3488.9,-96.5744 3718,-80 3720.9,-79.7905 3723.82,-79.5776 3726.78,-79.3621"/>
<polygon fill="midnightblue" stroke="midnightblue" points="3196,-112.422 3186.3,-116.685 3196.54,-119.401 3196,-112.422"/>
</g>
<!-- Node24 -->
<g id="node48" class="node"><title>Node24</title>
<a xlink:href="../../dd/de8/_widget_switcher_8h.html" target="_top" xlink:title="/home/vilon_tao/gaia/sdk/include/gaia/ui/WidgetSwitcher.h">
<polygon fill="white" stroke="black" points="3727.5,-0.5 3727.5,-21.5 3998.5,-21.5 3998.5,-0.5 3727.5,-0.5"/>
<text text-anchor="middle" x="3863" y="-8.5" font-family="Helvetica,sans-Serif" font-size="10.00">/home/vilon_tao/gaia/sdk/include/gaia/ui/WidgetSwitcher.h</text>
</a>
</g>
<!-- Node13&#45;&gt;Node24 -->
<g id="edge50" class="edge"><title>Node13&#45;&gt;Node24</title>
<path fill="none" stroke="midnightblue" d="M3184.85,-115.351C3264.66,-106.483 3362.78,-93.5331 3402,-80 3420.45,-73.6339 3421.46,-64.0967 3440,-58 3491.77,-40.9758 3624.3,-27.9666 3727.35,-19.9973"/>
<polygon fill="midnightblue" stroke="midnightblue" points="3184.28,-111.893 3174.72,-116.466 3185.04,-118.851 3184.28,-111.893"/>
</g>
<!-- Node15&#45;&gt;Node16 -->
<g id="edge30" class="edge"><title>Node15&#45;&gt;Node16</title>
<path fill="none" stroke="midnightblue" d="M1574.1,-57.1161C1651.68,-46.6522 1763.58,-31.5583 1837.98,-21.5231"/>
<polygon fill="midnightblue" stroke="midnightblue" points="1573.31,-53.6912 1563.87,-58.4966 1574.25,-60.6284 1573.31,-53.6912"/>
</g>
<!-- Node23&#45;&gt;Node24 -->
<g id="edge48" class="edge"><title>Node23&#45;&gt;Node24</title>
<path fill="none" stroke="midnightblue" d="M3863,-48.1906C3863,-39.1684 3863,-28.9941 3863,-21.5707"/>
<polygon fill="midnightblue" stroke="midnightblue" points="3859.5,-48.3619 3863,-58.3619 3866.5,-48.3619 3859.5,-48.3619"/>
</g>
<!-- Node26&#45;&gt;Node10 -->
<g id="edge58" class="edge"><title>Node26&#45;&gt;Node10</title>
<path fill="none" stroke="midnightblue" d="M2369.34,-116.184C2368.22,-116.121 2367.11,-116.06 2366,-116 1751.58,-82.8161 1596.47,-112.283 982,-80 979.099,-79.8476 976.165,-79.6853 973.206,-79.5144"/>
<polygon fill="midnightblue" stroke="midnightblue" points="2369.3,-119.688 2379.49,-116.788 2369.72,-112.7 2369.3,-119.688"/>
</g>
<!-- Node27 -->
<g id="node55" class="node"><title>Node27</title>
<a xlink:href="../../d2/de0/_application_error_report_8h.html" target="_top" xlink:title="/home/vilon_tao/gaia/sdk/include/gaia/core/ApplicationErrorReport.h">
<polygon fill="white" stroke="black" points="990.5,-58.5 990.5,-79.5 1301.5,-79.5 1301.5,-58.5 990.5,-58.5"/>
<text text-anchor="middle" x="1146" y="-66.5" font-family="Helvetica,sans-Serif" font-size="10.00">/home/vilon_tao/gaia/sdk/include/gaia/core/ApplicationErrorReport.h</text>
</a>
</g>
<!-- Node26&#45;&gt;Node27 -->
<g id="edge56" class="edge"><title>Node26&#45;&gt;Node27</title>
<path fill="none" stroke="midnightblue" d="M2369.34,-116.197C2368.22,-116.13 2367.11,-116.064 2366,-116 1897.18,-88.782 1779.01,-103.717 1310,-80 1306.87,-79.8415 1303.7,-79.6763 1300.5,-79.5052"/>
<polygon fill="midnightblue" stroke="midnightblue" points="2369.29,-119.701 2379.49,-116.834 2369.73,-112.715 2369.29,-119.701"/>
</g>
<!-- Node30 -->
<g id="node62" class="node"><title>Node30</title>
<a xlink:href="../../d0/d27/_application_info_8h.html" target="_top" xlink:title="/home/vilon_tao/gaia/sdk/include/gaia/core/pm/ApplicationInfo.h">
<polygon fill="white" stroke="black" points="4309,-58.5 4309,-79.5 4603,-79.5 4603,-58.5 4309,-58.5"/>
<text text-anchor="middle" x="4456" y="-66.5" font-family="Helvetica,sans-Serif" font-size="10.00">/home/vilon_tao/gaia/sdk/include/gaia/core/pm/ApplicationInfo.h</text>
</a>
</g>
<!-- Node29&#45;&gt;Node30 -->
<g id="edge64" class="edge"><title>Node29&#45;&gt;Node30</title>
<path fill="none" stroke="midnightblue" d="M4283.97,-113.945C4323.76,-103.55 4378.72,-89.1897 4415.72,-79.5231"/>
<polygon fill="midnightblue" stroke="midnightblue" points="4282.99,-110.582 4274.2,-116.497 4284.76,-117.355 4282.99,-110.582"/>
</g>
<!-- Node37&#45;&gt;Node19 -->
<g id="edge80" class="edge"><title>Node37&#45;&gt;Node19</title>
<path fill="none" stroke="midnightblue" d="M3391.43,-114.142C3434.68,-103.733 3494.85,-89.2511 3535.27,-79.5231"/>
<polygon fill="midnightblue" stroke="midnightblue" points="3390.55,-110.754 3381.64,-116.497 3392.18,-117.56 3390.55,-110.754"/>
</g>
<!-- Node37&#45;&gt;Node20 -->
<g id="edge82" class="edge"><title>Node37&#45;&gt;Node20</title>
<path fill="none" stroke="midnightblue" d="M3482.91,-115.866C3716.85,-98.9689 3777.25,-97.8732 4008,-80 4010.76,-79.7864 4013.55,-79.5674 4016.36,-79.344"/>
<polygon fill="midnightblue" stroke="midnightblue" points="3482.45,-112.391 3472.72,-116.604 3482.95,-119.373 3482.45,-112.391"/>
</g>
<!-- Node37&#45;&gt;Node23 -->
<g id="edge84" class="edge"><title>Node37&#45;&gt;Node23</title>
<path fill="none" stroke="midnightblue" d="M3443.26,-115.371C3538.05,-104.899 3676.17,-89.6402 3767.75,-79.5231"/>
<polygon fill="midnightblue" stroke="midnightblue" points="3442.63,-111.92 3433.07,-116.497 3443.4,-118.877 3442.63,-111.92"/>
</g>
<!-- Node37&#45;&gt;Node24 -->
<g id="edge86" class="edge"><title>Node37&#45;&gt;Node24</title>
<path fill="none" stroke="midnightblue" d="M3482.9,-116.115C3583.92,-113.114 4233.29,-110.063 4262,-80 4301.54,-38.5968 4129.26,-21.9471 3998.68,-15.3126"/>
<polygon fill="midnightblue" stroke="midnightblue" points="3482.57,-112.625 3472.72,-116.521 3482.85,-119.62 3482.57,-112.625"/>
</g>
<!-- Node41&#45;&gt;Node15 -->
<g id="edge96" class="edge"><title>Node41&#45;&gt;Node15</title>
<path fill="none" stroke="midnightblue" d="M2627.41,-115.93C2197.84,-93.0031 2088.19,-101.248 1662,-80 1658.79,-79.8399 1655.55,-79.6745 1652.28,-79.5044"/>
<polygon fill="midnightblue" stroke="midnightblue" points="2627.45,-119.436 2637.62,-116.477 2627.82,-112.446 2627.45,-119.436"/>
</g>
<!-- Node46&#45;&gt;Node45 -->
<g id="edge108" class="edge"><title>Node46&#45;&gt;Node45</title>
<path fill="none" stroke="midnightblue" d="M8492.09,-110.259C8505.74,-100.364 8522.61,-88.1361 8534.42,-79.5707"/>
<polygon fill="midnightblue" stroke="midnightblue" points="8489.71,-107.659 8483.67,-116.362 8493.82,-113.326 8489.71,-107.659"/>
</g>
</g>
</svg>
