<?xml version="1.0" encoding="UTF-8" standalone="no"?>
<!DOCTYPE svg PUBLIC "-//W3C//DTD SVG 1.1//EN"
 "http://www.w3.org/Graphics/SVG/1.1/DTD/svg11.dtd">
<!-- Generated by graphviz version 2.26.3 (20100126.1600)
 -->
<!-- Title: G Pages: 1 -->
<svg width="394pt" height="146pt"
 viewBox="0.00 0.00 394.00 146.00" xmlns="http://www.w3.org/2000/svg" xmlns:xlink="http://www.w3.org/1999/xlink">
<g id="graph1" class="graph" transform="scale(1 1) rotate(0) translate(4 142)">
<title>G</title>
<polygon fill="white" stroke="white" points="-4,5 -4,-142 391,-142 391,5 -4,5"/>
<!-- Node1 -->
<g id="node1" class="node"><title>Node1</title>
<polygon fill="#bfbfbf" stroke="black" points="147,-58.5 147,-79.5 239,-79.5 239,-58.5 147,-58.5"/>
<text text-anchor="middle" x="193" y="-66.5" font-family="Helvetica,sans-Serif" font-size="10.00">gaia::ui::AlertBox</text>
</g>
<!-- Node3 -->
<g id="node5" class="node"><title>Node3</title>
<a xlink:href="../../d2/dd5/classgaia_1_1ui_1_1_date_picker_box.html" target="_top" xlink:title="A subclass of AlertBox that can display a date picker area.">
<polygon fill="white" stroke="black" points="0,-0.5 0,-21.5 120,-21.5 120,-0.5 0,-0.5"/>
<text text-anchor="middle" x="60" y="-8.5" font-family="Helvetica,sans-Serif" font-size="10.00">gaia::ui::DatePickerBox</text>
</a>
</g>
<!-- Node1&#45;&gt;Node3 -->
<g id="edge4" class="edge"><title>Node1&#45;&gt;Node3</title>
<path fill="none" stroke="midnightblue" d="M159.703,-54.4794C136.29,-44.2695 105.492,-30.8386 84.3556,-21.6212"/>
<polygon fill="midnightblue" stroke="midnightblue" points="158.349,-57.7075 168.915,-58.4966 161.147,-51.291 158.349,-57.7075"/>
</g>
<!-- Node4 -->
<g id="node7" class="node"><title>Node4</title>
<a xlink:href="../../d3/d23/classgaia_1_1ui_1_1_progress_box.html" target="_top" xlink:title="A subclass of AlertBox that can display a progress bar.">
<polygon fill="white" stroke="black" points="138,-0.5 138,-21.5 248,-21.5 248,-0.5 138,-0.5"/>
<text text-anchor="middle" x="193" y="-8.5" font-family="Helvetica,sans-Serif" font-size="10.00">gaia::ui::ProgressBox</text>
</a>
</g>
<!-- Node1&#45;&gt;Node4 -->
<g id="edge6" class="edge"><title>Node1&#45;&gt;Node4</title>
<path fill="none" stroke="midnightblue" d="M193,-48.1906C193,-39.1684 193,-28.9941 193,-21.5707"/>
<polygon fill="midnightblue" stroke="midnightblue" points="189.5,-48.3619 193,-58.3619 196.5,-48.3619 189.5,-48.3619"/>
</g>
<!-- Node5 -->
<g id="node9" class="node"><title>Node5</title>
<a xlink:href="../../d9/d5b/classgaia_1_1ui_1_1_time_picker_box.html" target="_top" xlink:title="A subclass of AlertBox that can display a time picker area.">
<polygon fill="white" stroke="black" points="265.5,-0.5 265.5,-21.5 386.5,-21.5 386.5,-0.5 265.5,-0.5"/>
<text text-anchor="middle" x="326" y="-8.5" font-family="Helvetica,sans-Serif" font-size="10.00">gaia::ui::TimePickerBox</text>
</a>
</g>
<!-- Node1&#45;&gt;Node5 -->
<g id="edge8" class="edge"><title>Node1&#45;&gt;Node5</title>
<path fill="none" stroke="midnightblue" d="M226.297,-54.4794C249.71,-44.2695 280.508,-30.8386 301.644,-21.6212"/>
<polygon fill="midnightblue" stroke="midnightblue" points="224.853,-51.291 217.085,-58.4966 227.651,-57.7075 224.853,-51.291"/>
</g>
<!-- Node2 -->
<g id="node2" class="node"><title>Node2</title>
<a xlink:href="../../d7/dd4/classgaia_1_1ui_1_1_dialog_box.html" target="_top" xlink:title="Base class for showing dialog on screen.">
<polygon fill="white" stroke="black" points="143.5,-116.5 143.5,-137.5 242.5,-137.5 242.5,-116.5 143.5,-116.5"/>
<text text-anchor="middle" x="193" y="-124.5" font-family="Helvetica,sans-Serif" font-size="10.00">gaia::ui::DialogBox</text>
</a>
</g>
<!-- Node2&#45;&gt;Node1 -->
<g id="edge2" class="edge"><title>Node2&#45;&gt;Node1</title>
<path fill="none" stroke="midnightblue" d="M193,-106.191C193,-97.1684 193,-86.9941 193,-79.5707"/>
<polygon fill="midnightblue" stroke="midnightblue" points="189.5,-106.362 193,-116.362 196.5,-106.362 189.5,-106.362"/>
</g>
</g>
</svg>
