<?xml version="1.0" encoding="UTF-8" standalone="no"?>
<!DOCTYPE svg PUBLIC "-//W3C//DTD SVG 1.1//EN"
 "http://www.w3.org/Graphics/SVG/1.1/DTD/svg11.dtd">
<!-- Generated by graphviz version 2.26.3 (20100126.1600)
 -->
<!-- Title: G Pages: 1 -->
<svg width="284pt" height="146pt"
 viewBox="0.00 0.00 284.00 146.00" xmlns="http://www.w3.org/2000/svg" xmlns:xlink="http://www.w3.org/1999/xlink">
<g id="graph1" class="graph" transform="scale(1 1) rotate(0) translate(4 142)">
<title>G</title>
<polygon fill="white" stroke="white" points="-4,5 -4,-142 281,-142 281,5 -4,5"/>
<!-- Node1 -->
<g id="node1" class="node"><title>Node1</title>
<polygon fill="#bfbfbf" stroke="black" points="-0.5,-116.5 -0.5,-137.5 256.5,-137.5 256.5,-116.5 -0.5,-116.5"/>
<text text-anchor="middle" x="128" y="-124.5" font-family="Helvetica,sans-Serif" font-size="10.00">/home/vilon_tao/gaia/sdk/include/gaia/base/LruCache.h</text>
</g>
<!-- Node2 -->
<g id="node3" class="node"><title>Node2</title>
<a xlink:href="../../d9/d05/_lru_cache_impl_8h.html" target="_top" xlink:title="LruCacheImpl.h">
<polygon fill="white" stroke="black" points="31,-58.5 31,-79.5 117,-79.5 117,-58.5 31,-58.5"/>
<text text-anchor="middle" x="74" y="-66.5" font-family="Helvetica,sans-Serif" font-size="10.00">LruCacheImpl.h</text>
</a>
</g>
<!-- Node1&#45;&gt;Node2 -->
<g id="edge2" class="edge"><title>Node1&#45;&gt;Node2</title>
<path fill="none" stroke="midnightblue" d="M118.096,-116.362C110.484,-108.186 99.792,-96.7025 90.843,-87.0907"/>
<polygon fill="midnightblue" stroke="midnightblue" points="93.2175,-84.5046 83.8416,-79.5707 88.0942,-89.2746 93.2175,-84.5046"/>
</g>
<!-- Node4 -->
<g id="node7" class="node"><title>Node4</title>
<a xlink:href="../../d4/d0b/gloger_8h.html" target="_top" xlink:title="gaia/base/gloger.h">
<polygon fill="white" stroke="black" points="135,-58.5 135,-79.5 231,-79.5 231,-58.5 135,-58.5"/>
<text text-anchor="middle" x="183" y="-66.5" font-family="Helvetica,sans-Serif" font-size="10.00">gaia/base/gloger.h</text>
</a>
</g>
<!-- Node1&#45;&gt;Node4 -->
<g id="edge6" class="edge"><title>Node1&#45;&gt;Node4</title>
<path fill="none" stroke="midnightblue" d="M138.088,-116.362C145.841,-108.186 156.73,-96.7025 165.845,-87.0907"/>
<polygon fill="midnightblue" stroke="midnightblue" points="168.635,-89.2352 172.976,-79.5707 163.555,-84.4186 168.635,-89.2352"/>
</g>
<!-- Node3 -->
<g id="node5" class="node"><title>Node3</title>
<polygon fill="white" stroke="#bfbfbf" points="40,-0.5 40,-21.5 108,-21.5 108,-0.5 40,-0.5"/>
<text text-anchor="middle" x="74" y="-8.5" font-family="Helvetica,sans-Serif" font-size="10.00">sys/types.h</text>
</g>
<!-- Node2&#45;&gt;Node3 -->
<g id="edge4" class="edge"><title>Node2&#45;&gt;Node3</title>
<path fill="none" stroke="midnightblue" d="M74,-58.3619C74,-50.9219 74,-40.7427 74,-31.7276"/>
<polygon fill="midnightblue" stroke="midnightblue" points="77.5001,-31.5706 74,-21.5707 70.5001,-31.5707 77.5001,-31.5706"/>
</g>
<!-- Node5 -->
<g id="node9" class="node"><title>Node5</title>
<polygon fill="white" stroke="#bfbfbf" points="136,-0.5 136,-21.5 210,-21.5 210,-0.5 136,-0.5"/>
<text text-anchor="middle" x="173" y="-8.5" font-family="Helvetica,sans-Serif" font-size="10.00">sys/syscall.h</text>
</g>
<!-- Node4&#45;&gt;Node5 -->
<g id="edge8" class="edge"><title>Node4&#45;&gt;Node5</title>
<path fill="none" stroke="midnightblue" d="M181.166,-58.3619C179.869,-50.8401 178.089,-40.5187 176.523,-31.4308"/>
<polygon fill="midnightblue" stroke="midnightblue" points="179.971,-30.8306 174.823,-21.5707 173.073,-32.02 179.971,-30.8306"/>
</g>
<!-- Node6 -->
<g id="node11" class="node"><title>Node6</title>
<polygon fill="white" stroke="#bfbfbf" points="228,-0.5 228,-21.5 276,-21.5 276,-0.5 228,-0.5"/>
<text text-anchor="middle" x="252" y="-8.5" font-family="Helvetica,sans-Serif" font-size="10.00">stdlib.h</text>
</g>
<!-- Node4&#45;&gt;Node6 -->
<g id="edge10" class="edge"><title>Node4&#45;&gt;Node6</title>
<path fill="none" stroke="midnightblue" d="M195.656,-58.3619C205.674,-49.9408 219.867,-38.0105 231.501,-28.2308"/>
<polygon fill="midnightblue" stroke="midnightblue" points="234.022,-30.6844 239.425,-21.5707 229.518,-25.326 234.022,-30.6844"/>
</g>
</g>
</svg>
