<?xml version="1.0" encoding="UTF-8" standalone="no"?>
<!DOCTYPE svg PUBLIC "-//W3C//DTD SVG 1.1//EN"
 "http://www.w3.org/Graphics/SVG/1.1/DTD/svg11.dtd">
<!-- Generated by graphviz version 2.26.3 (20100126.1600)
 -->
<!-- Title: G Pages: 1 -->
<svg width="546pt" height="350pt"
 viewBox="0.00 0.00 546.00 350.00" xmlns="http://www.w3.org/2000/svg" xmlns:xlink="http://www.w3.org/1999/xlink">
<g id="graph1" class="graph" transform="scale(1 1) rotate(0) translate(4 346)">
<title>G</title>
<polygon fill="white" stroke="white" points="-4,5 -4,-346 543,-346 543,5 -4,5"/>
<!-- Node1 -->
<g id="node1" class="node"><title>Node1</title>
<polygon fill="#bfbfbf" stroke="black" points="176.5,-160.5 176.5,-181.5 293.5,-181.5 293.5,-160.5 176.5,-160.5"/>
<text text-anchor="middle" x="235" y="-168.5" font-family="Helvetica,sans-Serif" font-size="10.00">gaia::core::IInterpolator</text>
</g>
<!-- Node3 -->
<g id="node5" class="node"><title>Node3</title>
<a xlink:href="../../dd/db1/classgaia_1_1core_1_1_accelerate_decelerate_interpolator.html" target="_top" xlink:title="An interpolator where the rate of change starts and ends slowly but accelerates through the middle...">
<polygon fill="white" stroke="black" points="330,-320.5 330,-341.5 538,-341.5 538,-320.5 330,-320.5"/>
<text text-anchor="middle" x="434" y="-328.5" font-family="Helvetica,sans-Serif" font-size="10.00">gaia::core::AccelerateDecelerateInterpolator</text>
</a>
</g>
<!-- Node1&#45;&gt;Node3 -->
<g id="edge4" class="edge"><title>Node1&#45;&gt;Node3</title>
<path fill="none" stroke="midnightblue" d="M242.567,-190.849C255.474,-221.841 284.816,-281.249 330,-311 335.759,-314.792 342.062,-317.902 348.626,-320.449"/>
<polygon fill="midnightblue" stroke="midnightblue" points="245.793,-189.49 238.821,-181.512 239.296,-192.097 245.793,-189.49"/>
</g>
<!-- Node4 -->
<g id="node7" class="node"><title>Node4</title>
<a xlink:href="../../d9/d4b/classgaia_1_1core_1_1_accelerate_interpolator.html" target="_top" xlink:title="An interpolator where the rate of change starts out slowly and and then accelerates.">
<polygon fill="white" stroke="black" points="353.5,-280.5 353.5,-301.5 514.5,-301.5 514.5,-280.5 353.5,-280.5"/>
<text text-anchor="middle" x="434" y="-288.5" font-family="Helvetica,sans-Serif" font-size="10.00">gaia::core::AccelerateInterpolator</text>
</a>
</g>
<!-- Node1&#45;&gt;Node4 -->
<g id="edge6" class="edge"><title>Node1&#45;&gt;Node4</title>
<path fill="none" stroke="midnightblue" d="M247.259,-189.791C263.349,-212.821 293.833,-251.218 330,-271 337.259,-274.97 345.179,-278.163 353.305,-280.728"/>
<polygon fill="midnightblue" stroke="midnightblue" points="250.148,-187.815 241.633,-181.511 244.358,-191.749 250.148,-187.815"/>
</g>
<!-- Node5 -->
<g id="node9" class="node"><title>Node5</title>
<a xlink:href="../../de/d66/classgaia_1_1core_1_1_anticipate_interpolator.html" target="_top" xlink:title="An interpolator where the change starts backward then flings forward.">
<polygon fill="white" stroke="black" points="355,-240.5 355,-261.5 513,-261.5 513,-240.5 355,-240.5"/>
<text text-anchor="middle" x="434" y="-248.5" font-family="Helvetica,sans-Serif" font-size="10.00">gaia::core::AnticipateInterpolator</text>
</a>
</g>
<!-- Node1&#45;&gt;Node5 -->
<g id="edge8" class="edge"><title>Node1&#45;&gt;Node5</title>
<path fill="none" stroke="midnightblue" d="M256.302,-187.749C274.773,-201.435 302.752,-220.223 330,-231 339.66,-234.821 350.122,-237.929 360.561,-240.454"/>
<polygon fill="midnightblue" stroke="midnightblue" points="258.368,-184.923 248.282,-181.682 254.145,-190.506 258.368,-184.923"/>
</g>
<!-- Node6 -->
<g id="node11" class="node"><title>Node6</title>
<a xlink:href="../../dc/d6e/classgaia_1_1core_1_1_anticipate_overshoot_interpolator.html" target="_top" xlink:title="An interpolator where the change starts backward then flings forward and overshoots the target value ...">
<polygon fill="white" stroke="black" points="332.5,-200.5 332.5,-221.5 535.5,-221.5 535.5,-200.5 332.5,-200.5"/>
<text text-anchor="middle" x="434" y="-208.5" font-family="Helvetica,sans-Serif" font-size="10.00">gaia::core::AnticipateOvershootInterpolator</text>
</a>
</g>
<!-- Node1&#45;&gt;Node6 -->
<g id="edge10" class="edge"><title>Node1&#45;&gt;Node6</title>
<path fill="none" stroke="midnightblue" d="M294.1,-183.61C305.98,-186.097 318.382,-188.66 330,-191 345.681,-194.158 362.716,-197.48 378.372,-200.489"/>
<polygon fill="midnightblue" stroke="midnightblue" points="294.779,-180.176 284.273,-181.544 293.34,-187.026 294.779,-180.176"/>
</g>
<!-- Node7 -->
<g id="node13" class="node"><title>Node7</title>
<a xlink:href="../../d3/d38/classgaia_1_1core_1_1_bounce_interpolator.html" target="_top" xlink:title="An interpolator where the change bounces at the end.">
<polygon fill="white" stroke="black" points="360.5,-160.5 360.5,-181.5 507.5,-181.5 507.5,-160.5 360.5,-160.5"/>
<text text-anchor="middle" x="434" y="-168.5" font-family="Helvetica,sans-Serif" font-size="10.00">gaia::core::BounceInterpolator</text>
</a>
</g>
<!-- Node1&#45;&gt;Node7 -->
<g id="edge12" class="edge"><title>Node1&#45;&gt;Node7</title>
<path fill="none" stroke="midnightblue" d="M303.86,-171C322.064,-171 341.783,-171 360.236,-171"/>
<polygon fill="midnightblue" stroke="midnightblue" points="303.63,-167.5 293.63,-171 303.63,-174.5 303.63,-167.5"/>
</g>
<!-- Node8 -->
<g id="node15" class="node"><title>Node8</title>
<a xlink:href="../../d2/d0a/classgaia_1_1core_1_1_cycle_interpolator.html" target="_top" xlink:title="Repeats the animation for a specified number of cycles.">
<polygon fill="white" stroke="black" points="364,-120.5 364,-141.5 504,-141.5 504,-120.5 364,-120.5"/>
<text text-anchor="middle" x="434" y="-128.5" font-family="Helvetica,sans-Serif" font-size="10.00">gaia::core::CycleInterpolator</text>
</a>
</g>
<!-- Node1&#45;&gt;Node8 -->
<g id="edge14" class="edge"><title>Node1&#45;&gt;Node8</title>
<path fill="none" stroke="midnightblue" d="M294.1,-158.39C305.98,-155.903 318.382,-153.34 330,-151 345.681,-147.842 362.716,-144.52 378.372,-141.511"/>
<polygon fill="midnightblue" stroke="midnightblue" points="293.34,-154.974 284.273,-160.456 294.779,-161.824 293.34,-154.974"/>
</g>
<!-- Node9 -->
<g id="node17" class="node"><title>Node9</title>
<a xlink:href="../../de/da1/classgaia_1_1core_1_1_decelerate_interpolator.html" target="_top" xlink:title="An interpolator where the rate of change starts out quickly and and then decelerates.">
<polygon fill="white" stroke="black" points="353.5,-80.5 353.5,-101.5 514.5,-101.5 514.5,-80.5 353.5,-80.5"/>
<text text-anchor="middle" x="434" y="-88.5" font-family="Helvetica,sans-Serif" font-size="10.00">gaia::core::DecelerateInterpolator</text>
</a>
</g>
<!-- Node1&#45;&gt;Node9 -->
<g id="edge16" class="edge"><title>Node1&#45;&gt;Node9</title>
<path fill="none" stroke="midnightblue" d="M256.302,-154.251C274.773,-140.565 302.752,-121.777 330,-111 339.66,-107.179 350.122,-104.071 360.561,-101.546"/>
<polygon fill="midnightblue" stroke="midnightblue" points="254.145,-151.494 248.282,-160.318 258.368,-157.077 254.145,-151.494"/>
</g>
<!-- Node10 -->
<g id="node19" class="node"><title>Node10</title>
<a xlink:href="../../d6/d46/classgaia_1_1core_1_1_linear_interpolator.html" target="_top" xlink:title="An interpolator where the rate of change is constant.">
<polygon fill="white" stroke="black" points="364,-40.5 364,-61.5 504,-61.5 504,-40.5 364,-40.5"/>
<text text-anchor="middle" x="434" y="-48.5" font-family="Helvetica,sans-Serif" font-size="10.00">gaia::core::LinearInterpolator</text>
</a>
</g>
<!-- Node1&#45;&gt;Node10 -->
<g id="edge18" class="edge"><title>Node1&#45;&gt;Node10</title>
<path fill="none" stroke="midnightblue" d="M247.259,-152.209C263.349,-129.179 293.833,-90.782 330,-71 340.405,-65.3091 352.168,-61.2162 363.945,-58.2774"/>
<polygon fill="midnightblue" stroke="midnightblue" points="244.358,-150.251 241.633,-160.489 250.148,-154.185 244.358,-150.251"/>
</g>
<!-- Node11 -->
<g id="node21" class="node"><title>Node11</title>
<a xlink:href="../../d9/d84/classgaia_1_1core_1_1_overshoot_interpolator.html" target="_top" xlink:title="An interpolator where the change flings forward and overshoots the last value then comes back...">
<polygon fill="white" stroke="black" points="354.5,-0.5 354.5,-21.5 513.5,-21.5 513.5,-0.5 354.5,-0.5"/>
<text text-anchor="middle" x="434" y="-8.5" font-family="Helvetica,sans-Serif" font-size="10.00">gaia::core::OvershootInterpolator</text>
</a>
</g>
<!-- Node1&#45;&gt;Node11 -->
<g id="edge20" class="edge"><title>Node1&#45;&gt;Node11</title>
<path fill="none" stroke="midnightblue" d="M242.567,-151.151C255.474,-120.159 284.816,-60.7514 330,-31 337.448,-26.096 345.806,-22.3322 354.463,-19.4528"/>
<polygon fill="midnightblue" stroke="midnightblue" points="239.296,-149.903 238.821,-160.488 245.793,-152.51 239.296,-149.903"/>
</g>
<!-- Node2 -->
<g id="node2" class="node"><title>Node2</title>
<a xlink:href="../../d3/dd6/classgaia_1_1core_1_1_i_time_interpolator.html" target="_top" xlink:title="A time interpolator defines the rate of change of an animation.">
<polygon fill="white" stroke="black" points="0.5,-160.5 0.5,-181.5 139.5,-181.5 139.5,-160.5 0.5,-160.5"/>
<text text-anchor="middle" x="70" y="-168.5" font-family="Helvetica,sans-Serif" font-size="10.00">gaia::core::ITimeInterpolator</text>
</a>
</g>
<!-- Node2&#45;&gt;Node1 -->
<g id="edge2" class="edge"><title>Node2&#45;&gt;Node1</title>
<path fill="none" stroke="midnightblue" d="M149.979,-171C158.873,-171 167.807,-171 176.366,-171"/>
<polygon fill="midnightblue" stroke="midnightblue" points="149.975,-167.5 139.975,-171 149.975,-174.5 149.975,-167.5"/>
</g>
</g>
</svg>
