<?xml version="1.0" encoding="UTF-8" standalone="no"?>
<!DOCTYPE svg PUBLIC "-//W3C//DTD SVG 1.1//EN"
 "http://www.w3.org/Graphics/SVG/1.1/DTD/svg11.dtd">
<!-- Generated by graphviz version 2.26.3 (20100126.1600)
 -->
<!-- Title: G Pages: 1 -->
<svg width="1533pt" height="378pt"
 viewBox="0.00 0.00 1533.17 378.00" xmlns="http://www.w3.org/2000/svg" xmlns:xlink="http://www.w3.org/1999/xlink">
<g id="graph1" class="graph" transform="scale(1 1) rotate(0) translate(4 374)">
<title>G</title>
<polygon fill="white" stroke="white" points="-4,5 -4,-374 1530.17,-374 1530.17,5 -4,5"/>
<!-- Node1 -->
<g id="node1" class="node"><title>Node1</title>
<polygon fill="#bfbfbf" stroke="black" points="792.5,-348.5 792.5,-369.5 1063.5,-369.5 1063.5,-348.5 792.5,-348.5"/>
<text text-anchor="middle" x="928" y="-356.5" font-family="Helvetica,sans-Serif" font-size="10.00">/home/vilon_tao/gaia/sdk/include/gaia/ui/WidgetSwitcher.h</text>
</g>
<!-- Node2 -->
<g id="node3" class="node"><title>Node2</title>
<a xlink:href="../../db/db5/_string_8h.html" target="_top" xlink:title="gaia/base/String.h">
<polygon fill="white" stroke="black" points="523.5,-116.5 523.5,-137.5 618.5,-137.5 618.5,-116.5 523.5,-116.5"/>
<text text-anchor="middle" x="571" y="-124.5" font-family="Helvetica,sans-Serif" font-size="10.00">gaia/base/String.h</text>
</a>
</g>
<!-- Node1&#45;&gt;Node2 -->
<g id="edge2" class="edge"><title>Node1&#45;&gt;Node2</title>
<path fill="none" stroke="midnightblue" d="M851.374,-348.412C818.015,-341.485 779.446,-330.204 748,-312 673.17,-268.682 609.867,-184.385 583.776,-146.392"/>
<polygon fill="midnightblue" stroke="midnightblue" points="586.459,-144.11 577.96,-137.784 580.658,-148.029 586.459,-144.11"/>
</g>
<!-- Node7 -->
<g id="node14" class="node"><title>Node7</title>
<a xlink:href="../../db/d53/_string_array_8h.html" target="_top" xlink:title="gaia/base/StringArray.h">
<polygon fill="white" stroke="black" points="1211.5,-232.5 1211.5,-253.5 1330.5,-253.5 1330.5,-232.5 1211.5,-232.5"/>
<text text-anchor="middle" x="1271" y="-240.5" font-family="Helvetica,sans-Serif" font-size="10.00">gaia/base/StringArray.h</text>
</a>
</g>
<!-- Node1&#45;&gt;Node7 -->
<g id="edge14" class="edge"><title>Node1&#45;&gt;Node7</title>
<path fill="none" stroke="midnightblue" d="M959.348,-348.398C1021.61,-327.342 1160.82,-280.263 1230.14,-256.817"/>
<polygon fill="midnightblue" stroke="midnightblue" points="1231.5,-260.054 1239.85,-253.535 1229.25,-253.423 1231.5,-260.054"/>
</g>
<!-- Node8 -->
<g id="node17" class="node"><title>Node8</title>
<a xlink:href="../../d3/dd0/_event_control_8h.html" target="_top" xlink:title="gaia/core/event/EventControl.h">
<polygon fill="white" stroke="black" points="1202,-116.5 1202,-137.5 1354,-137.5 1354,-116.5 1202,-116.5"/>
<text text-anchor="middle" x="1278" y="-124.5" font-family="Helvetica,sans-Serif" font-size="10.00">gaia/core/event/EventControl.h</text>
</a>
</g>
<!-- Node1&#45;&gt;Node8 -->
<g id="edge18" class="edge"><title>Node1&#45;&gt;Node8</title>
<path fill="none" stroke="midnightblue" d="M1063.68,-354.137C1218.29,-345.407 1456.87,-321.143 1513,-254 1563.98,-193.017 1441.36,-156.765 1354.74,-139.463"/>
<polygon fill="midnightblue" stroke="midnightblue" points="1355.38,-136.023 1344.9,-137.547 1354.05,-142.894 1355.38,-136.023"/>
</g>
<!-- Node9 -->
<g id="node20" class="node"><title>Node9</title>
<a xlink:href="../../db/ded/_page_8h.html" target="_top" xlink:title="gaia/core/Page.h">
<polygon fill="white" stroke="black" points="643,-174.5 643,-195.5 733,-195.5 733,-174.5 643,-174.5"/>
<text text-anchor="middle" x="688" y="-182.5" font-family="Helvetica,sans-Serif" font-size="10.00">gaia/core/Page.h</text>
</a>
</g>
<!-- Node1&#45;&gt;Node9 -->
<g id="edge22" class="edge"><title>Node1&#45;&gt;Node9</title>
<path fill="none" stroke="midnightblue" d="M881.615,-348.439C832.199,-334.83 755.024,-306.423 710,-254 698.38,-240.471 692.883,-220.751 690.291,-205.854"/>
<polygon fill="midnightblue" stroke="midnightblue" points="693.703,-204.988 688.821,-195.585 686.773,-205.98 693.703,-204.988"/>
</g>
<!-- Node19 -->
<g id="node46" class="node"><title>Node19</title>
<a xlink:href="../../de/d56/_scene_8h.html" target="_top" xlink:title="gaia/core/vision/Scene.h">
<polygon fill="white" stroke="black" points="719,-232.5 719,-253.5 843,-253.5 843,-232.5 719,-232.5"/>
<text text-anchor="middle" x="781" y="-240.5" font-family="Helvetica,sans-Serif" font-size="10.00">gaia/core/vision/Scene.h</text>
</a>
</g>
<!-- Node1&#45;&gt;Node19 -->
<g id="edge54" class="edge"><title>Node1&#45;&gt;Node19</title>
<path fill="none" stroke="midnightblue" d="M910.271,-348.318C895.587,-339.224 874.387,-325.521 857,-312 836.346,-295.939 814.386,-275.606 799.411,-261.184"/>
<polygon fill="midnightblue" stroke="midnightblue" points="801.472,-258.306 791.863,-253.844 796.592,-263.325 801.472,-258.306"/>
</g>
<!-- Node20 -->
<g id="node49" class="node"><title>Node20</title>
<a xlink:href="../../d4/d75/_widget_8h.html" target="_top" xlink:title="gaia/core/vision/Widget.h">
<polygon fill="white" stroke="black" points="972.5,-116.5 972.5,-137.5 1099.5,-137.5 1099.5,-116.5 972.5,-116.5"/>
<text text-anchor="middle" x="1036" y="-124.5" font-family="Helvetica,sans-Serif" font-size="10.00">gaia/core/vision/Widget.h</text>
</a>
</g>
<!-- Node1&#45;&gt;Node20 -->
<g id="edge58" class="edge"><title>Node1&#45;&gt;Node20</title>
<path fill="none" stroke="midnightblue" d="M922.171,-348.085C915.619,-334.347 906.673,-310.114 913,-290 932.351,-228.486 986.302,-172.095 1015.91,-144.603"/>
<polygon fill="midnightblue" stroke="midnightblue" points="1018.53,-146.954 1023.57,-137.635 1013.82,-141.777 1018.53,-146.954"/>
</g>
<!-- Node24 -->
<g id="node59" class="node"><title>Node24</title>
<a xlink:href="../../dc/d8b/_animation_8h.html" target="_top" xlink:title="gaia/core/animation/Animation.h">
<polygon fill="white" stroke="black" points="1348,-232.5 1348,-253.5 1504,-253.5 1504,-232.5 1348,-232.5"/>
<text text-anchor="middle" x="1426" y="-240.5" font-family="Helvetica,sans-Serif" font-size="10.00">gaia/core/animation/Animation.h</text>
</a>
</g>
<!-- Node1&#45;&gt;Node24 -->
<g id="edge70" class="edge"><title>Node1&#45;&gt;Node24</title>
<path fill="none" stroke="midnightblue" d="M973.514,-348.398C1065.21,-327.04 1271.85,-278.907 1370.95,-255.823"/>
<polygon fill="midnightblue" stroke="midnightblue" points="1371.83,-259.213 1380.77,-253.535 1370.24,-252.395 1371.83,-259.213"/>
</g>
<!-- Node25 -->
<g id="node62" class="node"><title>Node25</title>
<a xlink:href="../../d5/d80/_widget_animator_8h.html" target="_top" xlink:title="gaia/ui/WidgetAnimator.h">
<polygon fill="white" stroke="black" points="922,-290.5 922,-311.5 1048,-311.5 1048,-290.5 922,-290.5"/>
<text text-anchor="middle" x="985" y="-298.5" font-family="Helvetica,sans-Serif" font-size="10.00">gaia/ui/WidgetAnimator.h</text>
</a>
</g>
<!-- Node1&#45;&gt;Node25 -->
<g id="edge74" class="edge"><title>Node1&#45;&gt;Node25</title>
<path fill="none" stroke="midnightblue" d="M938.455,-348.362C946.57,-340.104 958.001,-328.472 967.504,-318.803"/>
<polygon fill="midnightblue" stroke="midnightblue" points="970.099,-321.156 974.612,-311.571 965.106,-316.25 970.099,-321.156"/>
</g>
<!-- Node3 -->
<g id="node5" class="node"><title>Node3</title>
<a xlink:href="../../d7/d97/_char_sequence_8h.html" target="_top" xlink:title="gaia/base/CharSequence.h">
<polygon fill="white" stroke="black" points="314,-58.5 314,-79.5 448,-79.5 448,-58.5 314,-58.5"/>
<text text-anchor="middle" x="381" y="-66.5" font-family="Helvetica,sans-Serif" font-size="10.00">gaia/base/CharSequence.h</text>
</a>
</g>
<!-- Node2&#45;&gt;Node3 -->
<g id="edge4" class="edge"><title>Node2&#45;&gt;Node3</title>
<path fill="none" stroke="midnightblue" d="M536.592,-116.497C505.349,-106.959 459.099,-92.8408 425.142,-82.475"/>
<polygon fill="midnightblue" stroke="midnightblue" points="426.058,-79.0953 415.472,-79.5231 424.015,-85.7903 426.058,-79.0953"/>
</g>
<!-- Node5 -->
<g id="node9" class="node"><title>Node5</title>
<a xlink:href="../../d6/d83/_hash_func_8h.html" target="_top" xlink:title="gaia/base/HashFunc.h">
<polygon fill="white" stroke="black" points="465.5,-58.5 465.5,-79.5 580.5,-79.5 580.5,-58.5 465.5,-58.5"/>
<text text-anchor="middle" x="523" y="-66.5" font-family="Helvetica,sans-Serif" font-size="10.00">gaia/base/HashFunc.h</text>
</a>
</g>
<!-- Node2&#45;&gt;Node5 -->
<g id="edge8" class="edge"><title>Node2&#45;&gt;Node5</title>
<path fill="none" stroke="midnightblue" d="M562.196,-116.362C555.498,-108.268 546.116,-96.9318 538.211,-87.3796"/>
<polygon fill="midnightblue" stroke="midnightblue" points="540.82,-85.0431 531.748,-79.5707 535.427,-89.5061 540.82,-85.0431"/>
</g>
<!-- Node6 -->
<g id="node11" class="node"><title>Node6</title>
<polygon fill="white" stroke="#bfbfbf" points="612,-0.5 612,-21.5 680,-21.5 680,-0.5 612,-0.5"/>
<text text-anchor="middle" x="646" y="-8.5" font-family="Helvetica,sans-Serif" font-size="10.00">sys/types.h</text>
</g>
<!-- Node2&#45;&gt;Node6 -->
<g id="edge12" class="edge"><title>Node2&#45;&gt;Node6</title>
<path fill="none" stroke="midnightblue" d="M577.921,-116.295C590.591,-96.6998 617.668,-54.8198 633.592,-30.1913"/>
<polygon fill="midnightblue" stroke="midnightblue" points="636.605,-31.9772 639.095,-21.6792 630.727,-28.1765 636.605,-31.9772"/>
</g>
<!-- Node4 -->
<g id="node7" class="node"><title>Node4</title>
<polygon fill="white" stroke="#bfbfbf" points="356.5,-0.5 356.5,-21.5 405.5,-21.5 405.5,-0.5 356.5,-0.5"/>
<text text-anchor="middle" x="381" y="-8.5" font-family="Helvetica,sans-Serif" font-size="10.00">stdint.h</text>
</g>
<!-- Node3&#45;&gt;Node4 -->
<g id="edge6" class="edge"><title>Node3&#45;&gt;Node4</title>
<path fill="none" stroke="midnightblue" d="M381,-58.3619C381,-50.9219 381,-40.7427 381,-31.7276"/>
<polygon fill="midnightblue" stroke="midnightblue" points="384.5,-31.5706 381,-21.5707 377.5,-31.5707 384.5,-31.5706"/>
</g>
<!-- Node5&#45;&gt;Node6 -->
<g id="edge10" class="edge"><title>Node5&#45;&gt;Node6</title>
<path fill="none" stroke="midnightblue" d="M545.274,-58.4966C564.572,-49.397 592.713,-36.1273 614.348,-25.9253"/>
<polygon fill="midnightblue" stroke="midnightblue" points="615.924,-29.052 623.476,-21.6212 612.938,-22.7206 615.924,-29.052"/>
</g>
<!-- Node7&#45;&gt;Node6 -->
<g id="edge16" class="edge"><title>Node7&#45;&gt;Node6</title>
<path fill="none" stroke="midnightblue" d="M1290.52,-232.447C1342.09,-203.312 1474.16,-119.821 1416,-58 1391.02,-31.45 851.459,-16.0621 690.767,-12.0562"/>
<polygon fill="midnightblue" stroke="midnightblue" points="690.384,-8.54581 680.301,-11.7981 690.212,-15.5437 690.384,-8.54581"/>
</g>
<!-- Node8&#45;&gt;Node6 -->
<g id="edge20" class="edge"><title>Node8&#45;&gt;Node6</title>
<path fill="none" stroke="midnightblue" d="M1329.95,-116.438C1373.6,-105.353 1425,-85.6699 1399,-58 1374.62,-32.0463 848.111,-16.2671 690.31,-12.1082"/>
<polygon fill="midnightblue" stroke="midnightblue" points="690.115,-8.602 680.027,-11.8399 689.933,-15.5996 690.115,-8.602"/>
</g>
<!-- Node9&#45;&gt;Node6 -->
<g id="edge52" class="edge"><title>Node9&#45;&gt;Node6</title>
<path fill="none" stroke="midnightblue" d="M681.519,-174.191C676.251,-164.911 669.05,-151.011 665,-138 653.686,-101.657 649.012,-57.3012 647.154,-31.786"/>
<polygon fill="midnightblue" stroke="midnightblue" points="650.645,-31.5343 646.501,-21.7834 643.66,-31.99 650.645,-31.5343"/>
</g>
<!-- Node10 -->
<g id="node22" class="node"><title>Node10</title>
<a xlink:href="../../d4/d7f/_vector_8h.html" target="_top" xlink:title="gaia/base/Vector.h">
<polygon fill="white" stroke="black" points="237,-116.5 237,-137.5 335,-137.5 335,-116.5 237,-116.5"/>
<text text-anchor="middle" x="286" y="-124.5" font-family="Helvetica,sans-Serif" font-size="10.00">gaia/base/Vector.h</text>
</a>
</g>
<!-- Node9&#45;&gt;Node10 -->
<g id="edge24" class="edge"><title>Node9&#45;&gt;Node10</title>
<path fill="none" stroke="midnightblue" d="M642.831,-176.463C637.833,-175.595 632.813,-174.756 628,-174 506.227,-154.88 474.946,-155.987 353,-138 350.358,-137.61 347.659,-137.203 344.933,-136.785"/>
<polygon fill="midnightblue" stroke="midnightblue" points="345.425,-133.32 335.004,-135.234 344.344,-140.236 345.425,-133.32"/>
</g>
<!-- Node15 -->
<g id="node36" class="node"><title>Node15</title>
<a xlink:href="../../d7/def/_component_name_8h.html" target="_top" xlink:title="gaia/core/ComponentName.h">
<polygon fill="white" stroke="black" points="362,-116.5 362,-137.5 506,-137.5 506,-116.5 362,-116.5"/>
<text text-anchor="middle" x="434" y="-124.5" font-family="Helvetica,sans-Serif" font-size="10.00">gaia/core/ComponentName.h</text>
</a>
</g>
<!-- Node9&#45;&gt;Node15 -->
<g id="edge42" class="edge"><title>Node9&#45;&gt;Node15</title>
<path fill="none" stroke="midnightblue" d="M642.883,-174.698C600.25,-164.963 536.156,-150.327 490.217,-139.837"/>
<polygon fill="midnightblue" stroke="midnightblue" points="490.942,-136.412 480.414,-137.598 489.384,-143.237 490.942,-136.412"/>
</g>
<!-- Node16 -->
<g id="node38" class="node"><title>Node16</title>
<a xlink:href="../../db/dbd/_export_8h.html" target="_top" xlink:title="gaia/core/Export.h">
<polygon fill="white" stroke="black" points="674,-116.5 674,-137.5 770,-137.5 770,-116.5 674,-116.5"/>
<text text-anchor="middle" x="722" y="-124.5" font-family="Helvetica,sans-Serif" font-size="10.00">gaia/core/Export.h</text>
</a>
</g>
<!-- Node9&#45;&gt;Node16 -->
<g id="edge44" class="edge"><title>Node9&#45;&gt;Node16</title>
<path fill="none" stroke="midnightblue" d="M694.236,-174.362C698.837,-166.513 705.225,-155.616 710.714,-146.253"/>
<polygon fill="midnightblue" stroke="midnightblue" points="713.766,-147.968 715.803,-137.571 707.727,-144.428 713.766,-147.968"/>
</g>
<!-- Node10&#45;&gt;Node6 -->
<g id="edge40" class="edge"><title>Node10&#45;&gt;Node6</title>
<path fill="none" stroke="midnightblue" d="M285.582,-116.264C285.619,-100.864 288.179,-72.7393 305,-58 326.974,-38.7459 514.35,-21.4827 601.615,-14.4035"/>
<polygon fill="midnightblue" stroke="midnightblue" points="602.055,-17.8796 611.743,-13.5912 601.495,-10.902 602.055,-17.8796"/>
</g>
<!-- Node11 -->
<g id="node24" class="node"><title>Node11</title>
<a xlink:href="../../d1/d86/_type_helpers_8h.html" target="_top" xlink:title="gaia/base/TypeHelpers.h">
<polygon fill="white" stroke="black" points="-0.5,-58.5 -0.5,-79.5 124.5,-79.5 124.5,-58.5 -0.5,-58.5"/>
<text text-anchor="middle" x="62" y="-66.5" font-family="Helvetica,sans-Serif" font-size="10.00">gaia/base/TypeHelpers.h</text>
</a>
</g>
<!-- Node10&#45;&gt;Node11 -->
<g id="edge26" class="edge"><title>Node10&#45;&gt;Node11</title>
<path fill="none" stroke="midnightblue" d="M245.435,-116.497C208.127,-106.836 152.668,-92.4765 112.502,-82.0765"/>
<polygon fill="midnightblue" stroke="midnightblue" points="113.199,-78.6415 102.641,-79.5231 111.444,-85.418 113.199,-78.6415"/>
</g>
<!-- Node14 -->
<g id="node32" class="node"><title>Node14</title>
<a xlink:href="../../dc/da9/_vector_impl_8h.html" target="_top" xlink:title="gaia/base/VectorImpl.h">
<polygon fill="white" stroke="black" points="141.5,-58.5 141.5,-79.5 258.5,-79.5 258.5,-58.5 141.5,-58.5"/>
<text text-anchor="middle" x="200" y="-66.5" font-family="Helvetica,sans-Serif" font-size="10.00">gaia/base/VectorImpl.h</text>
</a>
</g>
<!-- Node10&#45;&gt;Node14 -->
<g id="edge36" class="edge"><title>Node10&#45;&gt;Node14</title>
<path fill="none" stroke="midnightblue" d="M270.226,-116.362C257.376,-107.696 239.015,-95.3126 224.29,-85.3819"/>
<polygon fill="midnightblue" stroke="midnightblue" points="225.921,-82.2604 215.674,-79.5707 222.007,-88.0639 225.921,-82.2604"/>
</g>
<!-- Node11&#45;&gt;Node4 -->
<g id="edge28" class="edge"><title>Node11&#45;&gt;Node4</title>
<path fill="none" stroke="midnightblue" d="M119.768,-58.4966C185.889,-46.4748 292.04,-27.1745 346.429,-17.2856"/>
<polygon fill="midnightblue" stroke="midnightblue" points="347.063,-20.7279 356.275,-15.4954 345.811,-13.8408 347.063,-20.7279"/>
</g>
<!-- Node11&#45;&gt;Node6 -->
<g id="edge32" class="edge"><title>Node11&#45;&gt;Node6</title>
<path fill="none" stroke="midnightblue" d="M124.69,-59.0705C127.497,-58.6944 130.276,-58.3354 133,-58 305.903,-36.7066 512.688,-20.6063 601.692,-14.1242"/>
<polygon fill="midnightblue" stroke="midnightblue" points="601.98,-17.6126 611.701,-13.3997 601.474,-10.6309 601.98,-17.6126"/>
</g>
<!-- Node12 -->
<g id="node27" class="node"><title>Node12</title>
<polygon fill="white" stroke="#bfbfbf" points="67.5,-0.5 67.5,-21.5 116.5,-21.5 116.5,-0.5 67.5,-0.5"/>
<text text-anchor="middle" x="92" y="-8.5" font-family="Helvetica,sans-Serif" font-size="10.00">string.h</text>
</g>
<!-- Node11&#45;&gt;Node12 -->
<g id="edge30" class="edge"><title>Node11&#45;&gt;Node12</title>
<path fill="none" stroke="midnightblue" d="M67.5025,-58.3619C71.5199,-50.5949 77.0814,-39.8426 81.8901,-30.5458"/>
<polygon fill="midnightblue" stroke="midnightblue" points="85.0469,-32.0608 86.5324,-21.5707 78.8294,-28.8448 85.0469,-32.0608"/>
</g>
<!-- Node13 -->
<g id="node30" class="node"><title>Node13</title>
<polygon fill="white" stroke="#bfbfbf" points="15.5,-0.5 15.5,-21.5 50.5,-21.5 50.5,-0.5 15.5,-0.5"/>
<text text-anchor="middle" x="33" y="-8.5" font-family="Helvetica,sans-Serif" font-size="10.00">new</text>
</g>
<!-- Node11&#45;&gt;Node13 -->
<g id="edge34" class="edge"><title>Node11&#45;&gt;Node13</title>
<path fill="none" stroke="midnightblue" d="M56.681,-58.3619C52.7974,-50.5949 47.4213,-39.8426 42.7729,-30.5458"/>
<polygon fill="midnightblue" stroke="midnightblue" points="45.888,-28.9497 38.2853,-21.5707 39.627,-32.0802 45.888,-28.9497"/>
</g>
<!-- Node14&#45;&gt;Node6 -->
<g id="edge38" class="edge"><title>Node14&#45;&gt;Node6</title>
<path fill="none" stroke="midnightblue" d="M258.53,-59.9248C263.086,-59.2591 267.616,-58.6102 272,-58 390.987,-41.4372 531.644,-24.46 601.706,-16.1798"/>
<polygon fill="midnightblue" stroke="midnightblue" points="602.404,-19.6218 611.926,-14.9746 601.584,-12.67 602.404,-19.6218"/>
</g>
<!-- Node17 -->
<g id="node40" class="node"><title>Node17</title>
<a xlink:href="../../de/d8c/_component_loader_8h.html" target="_top" xlink:title="gaia/core/ComponentLoader.h">
<polygon fill="white" stroke="black" points="741.5,-58.5 741.5,-79.5 888.5,-79.5 888.5,-58.5 741.5,-58.5"/>
<text text-anchor="middle" x="815" y="-66.5" font-family="Helvetica,sans-Serif" font-size="10.00">gaia/core/ComponentLoader.h</text>
</a>
</g>
<!-- Node16&#45;&gt;Node17 -->
<g id="edge46" class="edge"><title>Node16&#45;&gt;Node17</title>
<path fill="none" stroke="midnightblue" d="M739.058,-116.362C753.085,-107.614 773.184,-95.0786 789.182,-85.1015"/>
<polygon fill="midnightblue" stroke="midnightblue" points="791.418,-87.8323 798.051,-79.5707 787.713,-81.8927 791.418,-87.8323"/>
</g>
<!-- Node18 -->
<g id="node43" class="node"><title>Node18</title>
<polygon fill="white" stroke="#bfbfbf" points="673.5,-58.5 673.5,-79.5 724.5,-79.5 724.5,-58.5 673.5,-58.5"/>
<text text-anchor="middle" x="699" y="-66.5" font-family="Helvetica,sans-Serif" font-size="10.00">typeinfo</text>
</g>
<!-- Node16&#45;&gt;Node18 -->
<g id="edge50" class="edge"><title>Node16&#45;&gt;Node18</title>
<path fill="none" stroke="midnightblue" d="M717.781,-116.362C714.766,-108.758 710.617,-98.294 706.985,-89.1349"/>
<polygon fill="midnightblue" stroke="midnightblue" points="710.132,-87.5762 703.192,-79.5707 703.625,-90.1567 710.132,-87.5762"/>
</g>
<!-- Node17&#45;&gt;Node6 -->
<g id="edge48" class="edge"><title>Node17&#45;&gt;Node6</title>
<path fill="none" stroke="midnightblue" d="M784.395,-58.4966C756.963,-49.082 716.524,-35.2036 686.436,-24.8773"/>
<polygon fill="midnightblue" stroke="midnightblue" points="687.257,-21.4588 676.662,-21.5231 684.984,-28.0797 687.257,-21.4588"/>
</g>
<!-- Node19&#45;&gt;Node10 -->
<g id="edge56" class="edge"><title>Node19&#45;&gt;Node10</title>
<path fill="none" stroke="midnightblue" d="M735.76,-232.398C644.617,-211.04 439.225,-162.907 340.718,-139.823"/>
<polygon fill="midnightblue" stroke="midnightblue" points="341.491,-136.409 330.956,-137.535 339.894,-143.225 341.491,-136.409"/>
</g>
<!-- Node21 -->
<g id="node51" class="node"><title>Node21</title>
<a xlink:href="../../d1/dd0/gmacros_8h.html" target="_top" xlink:title="gaia/base/gmacros.h">
<polygon fill="white" stroke="black" points="1283.5,-58.5 1283.5,-79.5 1390.5,-79.5 1390.5,-58.5 1283.5,-58.5"/>
<text text-anchor="middle" x="1337" y="-66.5" font-family="Helvetica,sans-Serif" font-size="10.00">gaia/base/gmacros.h</text>
</a>
</g>
<!-- Node20&#45;&gt;Node21 -->
<g id="edge60" class="edge"><title>Node20&#45;&gt;Node21</title>
<path fill="none" stroke="midnightblue" d="M1090.51,-116.497C1142.02,-106.57 1219.29,-91.6817 1273.55,-81.2262"/>
<polygon fill="midnightblue" stroke="midnightblue" points="1274.25,-84.6567 1283.4,-79.3277 1272.92,-77.7831 1274.25,-84.6567"/>
</g>
<!-- Node22 -->
<g id="node53" class="node"><title>Node22</title>
<a xlink:href="../../d0/d92/_property_animatable_8h.html" target="_top" xlink:title="gaia/core/animator/PropertyAnimatable.h">
<polygon fill="white" stroke="black" points="1072,-58.5 1072,-79.5 1266,-79.5 1266,-58.5 1072,-58.5"/>
<text text-anchor="middle" x="1169" y="-66.5" font-family="Helvetica,sans-Serif" font-size="10.00">gaia/core/animator/PropertyAnimatable.h</text>
</a>
</g>
<!-- Node20&#45;&gt;Node22 -->
<g id="edge62" class="edge"><title>Node20&#45;&gt;Node22</title>
<path fill="none" stroke="midnightblue" d="M1060.09,-116.497C1081.14,-107.315 1111.93,-93.8889 1135.4,-83.6516"/>
<polygon fill="midnightblue" stroke="midnightblue" points="1136.88,-86.8268 1144.64,-79.6212 1134.08,-80.4104 1136.88,-86.8268"/>
</g>
<!-- Node23 -->
<g id="node56" class="node"><title>Node23</title>
<a xlink:href="../../d8/d50/_widget_core_8h.html" target="_top" xlink:title="gaia/core/vision/WidgetCore.h">
<polygon fill="white" stroke="black" points="906,-58.5 906,-79.5 1054,-79.5 1054,-58.5 906,-58.5"/>
<text text-anchor="middle" x="980" y="-66.5" font-family="Helvetica,sans-Serif" font-size="10.00">gaia/core/vision/WidgetCore.h</text>
</a>
</g>
<!-- Node20&#45;&gt;Node23 -->
<g id="edge66" class="edge"><title>Node20&#45;&gt;Node23</title>
<path fill="none" stroke="midnightblue" d="M1025.73,-116.362C1017.76,-108.104 1006.53,-96.4725 997.189,-86.8029"/>
<polygon fill="midnightblue" stroke="midnightblue" points="999.67,-84.3336 990.206,-79.5707 994.634,-89.1958 999.67,-84.3336"/>
</g>
<!-- Node22&#45;&gt;Node6 -->
<g id="edge64" class="edge"><title>Node22&#45;&gt;Node6</title>
<path fill="none" stroke="midnightblue" d="M1074.29,-58.4966C960.551,-45.8833 774.566,-25.2578 690.152,-15.8964"/>
<polygon fill="midnightblue" stroke="midnightblue" points="690.457,-12.4088 680.132,-14.7852 689.685,-19.3662 690.457,-12.4088"/>
</g>
<!-- Node23&#45;&gt;Node4 -->
<g id="edge68" class="edge"><title>Node23&#45;&gt;Node4</title>
<path fill="none" stroke="midnightblue" d="M905.807,-59.0142C902.833,-58.6625 899.889,-58.3229 897,-58 716.292,-37.804 499.245,-20.1983 415.914,-13.684"/>
<polygon fill="midnightblue" stroke="midnightblue" points="415.983,-10.1788 405.741,-12.892 415.439,-17.1577 415.983,-10.1788"/>
</g>
<!-- Node24&#45;&gt;Node6 -->
<g id="edge72" class="edge"><title>Node24&#45;&gt;Node6</title>
<path fill="none" stroke="midnightblue" d="M1431.13,-232.439C1445.57,-201.042 1482.54,-107.394 1436,-58 1410.27,-30.6943 853.191,-15.7659 690.335,-11.9744"/>
<polygon fill="midnightblue" stroke="midnightblue" points="690.266,-8.47193 680.188,-11.7407 690.105,-15.4701 690.266,-8.47193"/>
</g>
<!-- Node25&#45;&gt;Node2 -->
<g id="edge76" class="edge"><title>Node25&#45;&gt;Node2</title>
<path fill="none" stroke="midnightblue" d="M972.327,-290.314C954.575,-275.725 920.891,-249.401 889,-232 803.683,-185.446 694.192,-154.919 628.478,-139.338"/>
<polygon fill="midnightblue" stroke="midnightblue" points="629.247,-135.924 618.713,-137.057 627.654,-142.74 629.247,-135.924"/>
</g>
<!-- Node25&#45;&gt;Node7 -->
<g id="edge78" class="edge"><title>Node25&#45;&gt;Node7</title>
<path fill="none" stroke="midnightblue" d="M1036.79,-290.497C1085.23,-280.673 1157.64,-265.988 1209.11,-255.551"/>
<polygon fill="midnightblue" stroke="midnightblue" points="1210.01,-258.941 1219.11,-253.523 1208.61,-252.08 1210.01,-258.941"/>
</g>
<!-- Node25&#45;&gt;Node8 -->
<g id="edge80" class="edge"><title>Node25&#45;&gt;Node8</title>
<path fill="none" stroke="midnightblue" d="M1048.3,-292.574C1082.86,-285.91 1125.34,-274.219 1159,-254 1205.78,-225.906 1245.77,-174.251 1265.28,-146.256"/>
<polygon fill="midnightblue" stroke="midnightblue" points="1268.35,-147.971 1271.09,-137.737 1262.57,-144.027 1268.35,-147.971"/>
</g>
<!-- Node25&#45;&gt;Node9 -->
<g id="edge82" class="edge"><title>Node25&#45;&gt;Node9</title>
<path fill="none" stroke="midnightblue" d="M967.464,-290.456C942.515,-275.794 895.02,-249.125 852,-232 816.463,-217.854 775.045,-206.02 742.724,-197.764"/>
<polygon fill="midnightblue" stroke="midnightblue" points="743.553,-194.364 733.002,-195.319 741.846,-201.153 743.553,-194.364"/>
</g>
<!-- Node25&#45;&gt;Node19 -->
<g id="edge84" class="edge"><title>Node25&#45;&gt;Node19</title>
<path fill="none" stroke="midnightblue" d="M948.057,-290.497C914.368,-280.918 864.427,-266.72 827.926,-256.342"/>
<polygon fill="midnightblue" stroke="midnightblue" points="828.588,-252.891 818.012,-253.523 826.674,-259.624 828.588,-252.891"/>
</g>
<!-- Node25&#45;&gt;Node20 -->
<g id="edge86" class="edge"><title>Node25&#45;&gt;Node20</title>
<path fill="none" stroke="midnightblue" d="M985.011,-290.389C985.369,-268.058 987.99,-214.897 1004,-174 1007.91,-164.009 1014.27,-154.03 1020.29,-145.853"/>
<polygon fill="midnightblue" stroke="midnightblue" points="1023.2,-147.819 1026.56,-137.773 1017.67,-143.527 1023.2,-147.819"/>
</g>
<!-- Node25&#45;&gt;Node24 -->
<g id="edge88" class="edge"><title>Node25&#45;&gt;Node24</title>
<path fill="none" stroke="midnightblue" d="M1048.18,-292.69C1124.13,-282.702 1252.02,-265.881 1337.7,-254.613"/>
<polygon fill="midnightblue" stroke="midnightblue" points="1338.22,-258.075 1347.68,-253.301 1337.31,-251.135 1338.22,-258.075"/>
</g>
<!-- Node26 -->
<g id="node71" class="node"><title>Node26</title>
<a xlink:href="../../d1/d40/_frame_controller_8h.html" target="_top" xlink:title="gaia/ui/FrameController.h">
<polygon fill="white" stroke="black" points="1024,-232.5 1024,-253.5 1150,-253.5 1150,-232.5 1024,-232.5"/>
<text text-anchor="middle" x="1087" y="-240.5" font-family="Helvetica,sans-Serif" font-size="10.00">gaia/ui/FrameController.h</text>
</a>
</g>
<!-- Node25&#45;&gt;Node26 -->
<g id="edge90" class="edge"><title>Node25&#45;&gt;Node26</title>
<path fill="none" stroke="midnightblue" d="M1003.71,-290.362C1019.38,-281.45 1041.96,-268.609 1059.66,-258.545"/>
<polygon fill="midnightblue" stroke="midnightblue" points="1061.45,-261.556 1068.41,-253.571 1057.99,-255.471 1061.45,-261.556"/>
</g>
<!-- Node27 -->
<g id="node73" class="node"><title>Node27</title>
<a xlink:href="../../d6/d52/_widget_controller_8h.html" target="_top" xlink:title="gaia/core/vision/WidgetController.h">
<polygon fill="white" stroke="black" points="1012.5,-174.5 1012.5,-195.5 1181.5,-195.5 1181.5,-174.5 1012.5,-174.5"/>
<text text-anchor="middle" x="1097" y="-182.5" font-family="Helvetica,sans-Serif" font-size="10.00">gaia/core/vision/WidgetController.h</text>
</a>
</g>
<!-- Node26&#45;&gt;Node27 -->
<g id="edge92" class="edge"><title>Node26&#45;&gt;Node27</title>
<path fill="none" stroke="midnightblue" d="M1088.83,-232.362C1090.13,-224.84 1091.91,-214.519 1093.48,-205.431"/>
<polygon fill="midnightblue" stroke="midnightblue" points="1096.93,-206.02 1095.18,-195.571 1090.03,-204.831 1096.93,-206.02"/>
</g>
<!-- Node27&#45;&gt;Node8 -->
<g id="edge94" class="edge"><title>Node27&#45;&gt;Node8</title>
<path fill="none" stroke="midnightblue" d="M1129.78,-174.497C1159.41,-165 1203.22,-150.962 1235.53,-140.609"/>
<polygon fill="midnightblue" stroke="midnightblue" points="1236.71,-143.908 1245.16,-137.523 1234.57,-137.242 1236.71,-143.908"/>
</g>
<!-- Node27&#45;&gt;Node20 -->
<g id="edge96" class="edge"><title>Node27&#45;&gt;Node20</title>
<path fill="none" stroke="midnightblue" d="M1085.81,-174.362C1077.04,-166.023 1064.65,-154.242 1054.42,-144.516"/>
<polygon fill="midnightblue" stroke="midnightblue" points="1056.78,-141.925 1047.12,-137.571 1051.95,-146.998 1056.78,-141.925"/>
</g>
</g>
</svg>
