<?xml version="1.0" encoding="UTF-8" standalone="no"?>
<!DOCTYPE svg PUBLIC "-//W3C//DTD SVG 1.1//EN"
 "http://www.w3.org/Graphics/SVG/1.1/DTD/svg11.dtd">
<!-- Generated by graphviz version 2.26.3 (20100126.1600)
 -->
<!-- Title: G Pages: 1 -->
<svg width="405pt" height="88pt"
 viewBox="0.00 0.00 405.00 88.00" xmlns="http://www.w3.org/2000/svg" xmlns:xlink="http://www.w3.org/1999/xlink">
<g id="graph1" class="graph" transform="scale(1 1) rotate(0) translate(4 84)">
<title>G</title>
<polygon fill="white" stroke="white" points="-4,5 -4,-84 402,-84 402,5 -4,5"/>
<!-- Node1 -->
<g id="node1" class="node"><title>Node1</title>
<polygon fill="#bfbfbf" stroke="black" points="0,-58.5 0,-79.5 384,-79.5 384,-58.5 0,-58.5"/>
<text text-anchor="middle" x="192" y="-66.5" font-family="Helvetica,sans-Serif" font-size="10.00">/home/vilon_tao/gaia/sdk/include/gaia/connectivity/bluetooth/BluetoothInputStream.h</text>
</g>
<!-- Node2 -->
<g id="node3" class="node"><title>Node2</title>
<polygon fill="white" stroke="#bfbfbf" points="72.5,-0.5 72.5,-21.5 121.5,-21.5 121.5,-0.5 72.5,-0.5"/>
<text text-anchor="middle" x="97" y="-8.5" font-family="Helvetica,sans-Serif" font-size="10.00">stdint.h</text>
</g>
<!-- Node1&#45;&gt;Node2 -->
<g id="edge2" class="edge"><title>Node1&#45;&gt;Node2</title>
<path fill="none" stroke="midnightblue" d="M174.576,-58.3619C160.113,-49.532 139.331,-36.844 122.916,-26.8224"/>
<polygon fill="midnightblue" stroke="midnightblue" points="124.673,-23.7943 114.314,-21.5707 121.025,-29.7688 124.673,-23.7943"/>
</g>
<!-- Node3 -->
<g id="node5" class="node"><title>Node3</title>
<a xlink:href="../../d1/dd0/gmacros_8h.html" target="_top" xlink:title="gaia/base/gmacros.h">
<polygon fill="white" stroke="black" points="138.5,-0.5 138.5,-21.5 245.5,-21.5 245.5,-0.5 138.5,-0.5"/>
<text text-anchor="middle" x="192" y="-8.5" font-family="Helvetica,sans-Serif" font-size="10.00">gaia/base/gmacros.h</text>
</a>
</g>
<!-- Node1&#45;&gt;Node3 -->
<g id="edge4" class="edge"><title>Node1&#45;&gt;Node3</title>
<path fill="none" stroke="midnightblue" d="M192,-58.3619C192,-50.9219 192,-40.7427 192,-31.7276"/>
<polygon fill="midnightblue" stroke="midnightblue" points="195.5,-31.5706 192,-21.5707 188.5,-31.5707 195.5,-31.5706"/>
</g>
<!-- Node4 -->
<g id="node7" class="node"><title>Node4</title>
<a xlink:href="../../d0/dd7/_input_stream_8h.html" target="_top" xlink:title="gaia/storage/InputStream.h">
<polygon fill="white" stroke="black" points="263,-0.5 263,-21.5 397,-21.5 397,-0.5 263,-0.5"/>
<text text-anchor="middle" x="330" y="-8.5" font-family="Helvetica,sans-Serif" font-size="10.00">gaia/storage/InputStream.h</text>
</a>
</g>
<!-- Node1&#45;&gt;Node4 -->
<g id="edge6" class="edge"><title>Node1&#45;&gt;Node4</title>
<path fill="none" stroke="midnightblue" d="M216.991,-58.4966C238.933,-49.2746 271.066,-35.7695 295.464,-25.5153"/>
<polygon fill="midnightblue" stroke="midnightblue" points="296.866,-28.7225 304.729,-21.6212 294.154,-22.2693 296.866,-28.7225"/>
</g>
</g>
</svg>
