<?xml version="1.0" encoding="UTF-8" standalone="no"?>
<!DOCTYPE svg PUBLIC "-//W3C//DTD SVG 1.1//EN"
 "http://www.w3.org/Graphics/SVG/1.1/DTD/svg11.dtd">
<!-- Generated by graphviz version 2.26.3 (20100126.1600)
 -->
<!-- Title: G Pages: 1 -->
<svg width="332pt" height="162pt"
 viewBox="0.00 0.00 332.00 162.00" xmlns="http://www.w3.org/2000/svg" xmlns:xlink="http://www.w3.org/1999/xlink">
<g id="graph1" class="graph" transform="scale(1 1) rotate(0) translate(4 158)">
<title>G</title>
<polygon fill="white" stroke="white" points="-4,5 -4,-158 329,-158 329,5 -4,5"/>
<!-- Node1 -->
<g id="node1" class="node"><title>Node1</title>
<polygon fill="#bfbfbf" stroke="black" points="124,-0.5 124,-21.5 240,-21.5 240,-0.5 124,-0.5"/>
<text text-anchor="middle" x="182" y="-8.5" font-family="Helvetica,sans-Serif" font-size="10.00">gaia::net::HttpRequest</text>
</g>
<!-- Node2 -->
<g id="node2" class="node"><title>Node2</title>
<a xlink:href="../../d2/ddb/classgaia_1_1base_1_1_string.html" target="_top" xlink:title="A String is represented by array of UTF&#45;16 values, such that Unicode supplementary characters (code p...">
<polygon fill="white" stroke="black" points="19.5,-72.5 19.5,-93.5 112.5,-93.5 112.5,-72.5 19.5,-72.5"/>
<text text-anchor="middle" x="66" y="-80.5" font-family="Helvetica,sans-Serif" font-size="10.00">gaia::base::String</text>
</a>
</g>
<!-- Node2&#45;&gt;Node1 -->
<g id="edge2" class="edge"><title>Node2&#45;&gt;Node1</title>
<path fill="none" stroke="#9a32cd" stroke-dasharray="5,2" d="M91.1445,-66.9285C103.937,-58.7956 119.755,-48.806 134,-40 143.938,-33.8567 155.106,-27.1007 164.167,-21.6562"/>
<polygon fill="#9a32cd" stroke="#9a32cd" points="88.9843,-64.1547 82.43,-72.4789 92.7447,-70.0589 88.9843,-64.1547"/>
<text text-anchor="middle" x="156" y="-44.5" font-family="Helvetica,sans-Serif" font-size="10.00"> mMethod</text>
</g>
<!-- Node3 -->
<g id="node4" class="node"><title>Node3</title>
<a xlink:href="../../d1/d0f/classgaia_1_1base_1_1_char_sequence.html" target="_top" xlink:title="This interface represents an ordered set of characters and defines the methods to probe them...">
<polygon fill="white" stroke="black" points="0,-132.5 0,-153.5 132,-153.5 132,-132.5 0,-132.5"/>
<text text-anchor="middle" x="66" y="-140.5" font-family="Helvetica,sans-Serif" font-size="10.00">gaia::base::CharSequence</text>
</a>
</g>
<!-- Node3&#45;&gt;Node2 -->
<g id="edge4" class="edge"><title>Node3&#45;&gt;Node2</title>
<path fill="none" stroke="midnightblue" d="M66,-122.231C66,-112.592 66,-101.544 66,-93.6339"/>
<polygon fill="midnightblue" stroke="midnightblue" points="62.5001,-122.273 66,-132.273 69.5001,-122.273 62.5001,-122.273"/>
</g>
<!-- Node4 -->
<g id="node6" class="node"><title>Node4</title>
<a xlink:href="../../d3/d5f/classgaia_1_1net_1_1_http_entity.html" target="_top" xlink:title="An entity represent data that will be put in content field during request.">
<polygon fill="white" stroke="black" points="130,-72.5 130,-93.5 234,-93.5 234,-72.5 130,-72.5"/>
<text text-anchor="middle" x="182" y="-80.5" font-family="Helvetica,sans-Serif" font-size="10.00">gaia::net::HttpEntity</text>
</a>
</g>
<!-- Node4&#45;&gt;Node1 -->
<g id="edge6" class="edge"><title>Node4&#45;&gt;Node1</title>
<path fill="none" stroke="#9a32cd" stroke-dasharray="5,2" d="M182,-62.2348C182,-48.969 182,-32.3188 182,-21.6674"/>
<polygon fill="#9a32cd" stroke="#9a32cd" points="178.5,-62.3761 182,-72.3762 185.5,-62.3762 178.5,-62.3761"/>
<text text-anchor="middle" x="203.5" y="-44.5" font-family="Helvetica,sans-Serif" font-size="10.00"> mpEntity</text>
</g>
<!-- Node5 -->
<g id="node8" class="node"><title>Node5</title>
<a xlink:href="../../d2/d98/classgaia_1_1net_1_1_url.html" target="_top" xlink:title="A Uniform Resource Locator that identifies the location of an Internet resource.">
<polygon fill="white" stroke="black" points="251.5,-72.5 251.5,-93.5 324.5,-93.5 324.5,-72.5 251.5,-72.5"/>
<text text-anchor="middle" x="288" y="-80.5" font-family="Helvetica,sans-Serif" font-size="10.00">gaia::net::Url</text>
</a>
</g>
<!-- Node5&#45;&gt;Node1 -->
<g id="edge8" class="edge"><title>Node5&#45;&gt;Node1</title>
<path fill="none" stroke="#9a32cd" stroke-dasharray="5,2" d="M265.974,-66.3282C255.004,-58.1844 241.455,-48.3629 229,-40 219.607,-33.693 208.888,-27.0388 200.06,-21.6975"/>
<polygon fill="#9a32cd" stroke="#9a32cd" points="264.044,-69.255 274.149,-72.4397 268.236,-63.6486 264.044,-69.255"/>
<text text-anchor="middle" x="260.5" y="-44.5" font-family="Helvetica,sans-Serif" font-size="10.00"> mUrl</text>
</g>
</g>
</svg>
