<?xml version="1.0" encoding="UTF-8" standalone="no"?>
<!DOCTYPE svg PUBLIC "-//W3C//DTD SVG 1.1//EN"
 "http://www.w3.org/Graphics/SVG/1.1/DTD/svg11.dtd">
<!-- Generated by graphviz version 2.26.3 (20100126.1600)
 -->
<!-- Title: G Pages: 1 -->
<svg width="812pt" height="146pt"
 viewBox="0.00 0.00 812.00 146.00" xmlns="http://www.w3.org/2000/svg" xmlns:xlink="http://www.w3.org/1999/xlink">
<g id="graph1" class="graph" transform="scale(1 1) rotate(0) translate(4 142)">
<title>G</title>
<polygon fill="white" stroke="white" points="-4,5 -4,-142 809,-142 809,5 -4,5"/>
<!-- Node1 -->
<g id="node1" class="node"><title>Node1</title>
<polygon fill="#bfbfbf" stroke="black" points="226,-116.5 226,-137.5 570,-137.5 570,-116.5 226,-116.5"/>
<text text-anchor="middle" x="398" y="-124.5" font-family="Helvetica,sans-Serif" font-size="10.00">/home/vilon_tao/gaia/sdk/include/gaia/text/method/TransformationMethod.h</text>
</g>
<!-- Node2 -->
<g id="node3" class="node"><title>Node2</title>
<a xlink:href="../../d0/dd3/_password_transformation_method_8h.html" target="_top" xlink:title="/home/vilon_tao/gaia/sdk/include/gaia/text/method/PasswordTransformationMethod.h">
<polygon fill="white" stroke="black" points="-0.5,-58.5 -0.5,-79.5 386.5,-79.5 386.5,-58.5 -0.5,-58.5"/>
<text text-anchor="middle" x="193" y="-66.5" font-family="Helvetica,sans-Serif" font-size="10.00">/home/vilon_tao/gaia/sdk/include/gaia/text/method/PasswordTransformationMethod.h</text>
</a>
</g>
<!-- Node1&#45;&gt;Node2 -->
<g id="edge2" class="edge"><title>Node1&#45;&gt;Node2</title>
<path fill="none" stroke="midnightblue" d="M350.919,-113.68C314.258,-103.307 264.071,-89.1078 230.194,-79.5231"/>
<polygon fill="midnightblue" stroke="midnightblue" points="350.301,-117.142 360.876,-116.497 352.207,-110.406 350.301,-117.142"/>
</g>
<!-- Node3 -->
<g id="node5" class="node"><title>Node3</title>
<a xlink:href="../../dd/d89/_replacement_transformation_method_8h.html" target="_top" xlink:title="/home/vilon_tao/gaia/sdk/include/gaia/text/method/ReplacementTransformationMethod.h">
<polygon fill="white" stroke="black" points="403.5,-58.5 403.5,-79.5 804.5,-79.5 804.5,-58.5 403.5,-58.5"/>
<text text-anchor="middle" x="604" y="-66.5" font-family="Helvetica,sans-Serif" font-size="10.00">/home/vilon_tao/gaia/sdk/include/gaia/text/method/ReplacementTransformationMethod.h</text>
</a>
</g>
<!-- Node1&#45;&gt;Node3 -->
<g id="edge4" class="edge"><title>Node1&#45;&gt;Node3</title>
<path fill="none" stroke="midnightblue" d="M445.311,-113.68C482.151,-103.307 532.583,-89.1078 566.625,-79.5231"/>
<polygon fill="midnightblue" stroke="midnightblue" points="443.982,-110.417 435.305,-116.497 445.879,-117.155 443.982,-110.417"/>
</g>
<!-- Node4 -->
<g id="node7" class="node"><title>Node4</title>
<a xlink:href="../../d3/d9f/_single_line_transformation_method_8h.html" target="_top" xlink:title="/home/vilon_tao/gaia/sdk/include/gaia/text/method/SingleLineTransformationMethod.h">
<polygon fill="white" stroke="black" points="409.5,-0.5 409.5,-21.5 798.5,-21.5 798.5,-0.5 409.5,-0.5"/>
<text text-anchor="middle" x="604" y="-8.5" font-family="Helvetica,sans-Serif" font-size="10.00">/home/vilon_tao/gaia/sdk/include/gaia/text/method/SingleLineTransformationMethod.h</text>
</a>
</g>
<!-- Node3&#45;&gt;Node4 -->
<g id="edge6" class="edge"><title>Node3&#45;&gt;Node4</title>
<path fill="none" stroke="midnightblue" d="M604,-48.1906C604,-39.1684 604,-28.9941 604,-21.5707"/>
<polygon fill="midnightblue" stroke="midnightblue" points="600.5,-48.3619 604,-58.3619 607.5,-48.3619 600.5,-48.3619"/>
</g>
</g>
</svg>
