<?xml version="1.0" encoding="UTF-8" standalone="no"?>
<!DOCTYPE svg PUBLIC "-//W3C//DTD SVG 1.1//EN"
 "http://www.w3.org/Graphics/SVG/1.1/DTD/svg11.dtd">
<!-- Generated by graphviz version 2.26.3 (20100126.1600)
 -->
<!-- Title: G Pages: 1 -->
<svg width="367pt" height="262pt"
 viewBox="0.00 0.00 367.00 262.00" xmlns="http://www.w3.org/2000/svg" xmlns:xlink="http://www.w3.org/1999/xlink">
<g id="graph1" class="graph" transform="scale(1 1) rotate(0) translate(4 258)">
<title>G</title>
<polygon fill="white" stroke="white" points="-4,5 -4,-258 364,-258 364,5 -4,5"/>
<!-- Node1 -->
<g id="node1" class="node"><title>Node1</title>
<polygon fill="#bfbfbf" stroke="black" points="41,-232.5 41,-253.5 359,-253.5 359,-232.5 41,-232.5"/>
<text text-anchor="middle" x="200" y="-240.5" font-family="Helvetica,sans-Serif" font-size="10.00">/home/vilon_tao/gaia/sdk/include/gaia/graphics/PorterDuffXfermode.h</text>
</g>
<!-- Node2 -->
<g id="node3" class="node"><title>Node2</title>
<a xlink:href="../../d1/df6/_porter_duff_8h.html" target="_top" xlink:title="gaia/graphics/PorterDuff.h">
<polygon fill="white" stroke="black" points="61.5,-174.5 61.5,-195.5 192.5,-195.5 192.5,-174.5 61.5,-174.5"/>
<text text-anchor="middle" x="127" y="-182.5" font-family="Helvetica,sans-Serif" font-size="10.00">gaia/graphics/PorterDuff.h</text>
</a>
</g>
<!-- Node1&#45;&gt;Node2 -->
<g id="edge2" class="edge"><title>Node1&#45;&gt;Node2</title>
<path fill="none" stroke="midnightblue" d="M186.611,-232.362C175.909,-223.859 160.704,-211.779 148.329,-201.947"/>
<polygon fill="midnightblue" stroke="midnightblue" points="150.311,-199.051 140.304,-195.571 145.957,-204.532 150.311,-199.051"/>
</g>
<!-- Node7 -->
<g id="node14" class="node"><title>Node7</title>
<a xlink:href="../../de/dc9/_xfermode_8h.html" target="_top" xlink:title="gaia/graphics/Xfermode.h">
<polygon fill="white" stroke="black" points="210,-174.5 210,-195.5 338,-195.5 338,-174.5 210,-174.5"/>
<text text-anchor="middle" x="274" y="-182.5" font-family="Helvetica,sans-Serif" font-size="10.00">gaia/graphics/Xfermode.h</text>
</a>
</g>
<!-- Node1&#45;&gt;Node7 -->
<g id="edge14" class="edge"><title>Node1&#45;&gt;Node7</title>
<path fill="none" stroke="midnightblue" d="M213.573,-232.362C224.421,-223.859 239.834,-211.779 252.379,-201.947"/>
<polygon fill="midnightblue" stroke="midnightblue" points="254.802,-204.494 260.513,-195.571 250.484,-198.985 254.802,-204.494"/>
</g>
<!-- Node3 -->
<g id="node5" class="node"><title>Node3</title>
<a xlink:href="../../dd/d0b/_hash_map_8h.html" target="_top" xlink:title="gaia/base/HashMap.h">
<polygon fill="white" stroke="black" points="71,-116.5 71,-137.5 183,-137.5 183,-116.5 71,-116.5"/>
<text text-anchor="middle" x="127" y="-124.5" font-family="Helvetica,sans-Serif" font-size="10.00">gaia/base/HashMap.h</text>
</a>
</g>
<!-- Node2&#45;&gt;Node3 -->
<g id="edge4" class="edge"><title>Node2&#45;&gt;Node3</title>
<path fill="none" stroke="midnightblue" d="M127,-174.362C127,-166.922 127,-156.743 127,-147.728"/>
<polygon fill="midnightblue" stroke="midnightblue" points="130.5,-147.571 127,-137.571 123.5,-147.571 130.5,-147.571"/>
</g>
<!-- Node4 -->
<g id="node7" class="node"><title>Node4</title>
<a xlink:href="../../d6/d83/_hash_func_8h.html" target="_top" xlink:title="gaia/base/HashFunc.h">
<polygon fill="white" stroke="black" points="-0.5,-58.5 -0.5,-79.5 114.5,-79.5 114.5,-58.5 -0.5,-58.5"/>
<text text-anchor="middle" x="57" y="-66.5" font-family="Helvetica,sans-Serif" font-size="10.00">gaia/base/HashFunc.h</text>
</a>
</g>
<!-- Node3&#45;&gt;Node4 -->
<g id="edge6" class="edge"><title>Node3&#45;&gt;Node4</title>
<path fill="none" stroke="midnightblue" d="M114.161,-116.362C103.998,-107.941 89.5989,-96.0105 77.7958,-86.2308"/>
<polygon fill="midnightblue" stroke="midnightblue" points="79.691,-83.2558 69.7577,-79.5707 75.2248,-88.6459 79.691,-83.2558"/>
</g>
<!-- Node6 -->
<g id="node11" class="node"><title>Node6</title>
<a xlink:href="../../dc/d11/_hash_map_impl_8h.html" target="_top" xlink:title="gaia/base/HashMapImpl.h">
<polygon fill="white" stroke="black" points="131.5,-58.5 131.5,-79.5 262.5,-79.5 262.5,-58.5 131.5,-58.5"/>
<text text-anchor="middle" x="197" y="-66.5" font-family="Helvetica,sans-Serif" font-size="10.00">gaia/base/HashMapImpl.h</text>
</a>
</g>
<!-- Node3&#45;&gt;Node6 -->
<g id="edge10" class="edge"><title>Node3&#45;&gt;Node6</title>
<path fill="none" stroke="midnightblue" d="M139.839,-116.362C150.002,-107.941 164.401,-96.0105 176.204,-86.2308"/>
<polygon fill="midnightblue" stroke="midnightblue" points="178.775,-88.6459 184.242,-79.5707 174.309,-83.2558 178.775,-88.6459"/>
</g>
<!-- Node5 -->
<g id="node9" class="node"><title>Node5</title>
<polygon fill="white" stroke="#bfbfbf" points="93,-0.5 93,-21.5 161,-21.5 161,-0.5 93,-0.5"/>
<text text-anchor="middle" x="127" y="-8.5" font-family="Helvetica,sans-Serif" font-size="10.00">sys/types.h</text>
</g>
<!-- Node4&#45;&gt;Node5 -->
<g id="edge8" class="edge"><title>Node4&#45;&gt;Node5</title>
<path fill="none" stroke="midnightblue" d="M69.8391,-58.3619C80.0025,-49.9408 94.4011,-38.0105 106.204,-28.2308"/>
<polygon fill="midnightblue" stroke="midnightblue" points="108.775,-30.6459 114.242,-21.5707 104.309,-25.2558 108.775,-30.6459"/>
</g>
<!-- Node6&#45;&gt;Node5 -->
<g id="edge12" class="edge"><title>Node6&#45;&gt;Node5</title>
<path fill="none" stroke="midnightblue" d="M184.161,-58.3619C173.998,-49.9408 159.599,-38.0105 147.796,-28.2308"/>
<polygon fill="midnightblue" stroke="midnightblue" points="149.691,-25.2558 139.758,-21.5707 145.225,-30.6459 149.691,-25.2558"/>
</g>
</g>
</svg>
