<?xml version="1.0" encoding="UTF-8" standalone="no"?>
<!DOCTYPE svg PUBLIC "-//W3C//DTD SVG 1.1//EN"
 "http://www.w3.org/Graphics/SVG/1.1/DTD/svg11.dtd">
<!-- Generated by graphviz version 2.26.3 (20100126.1600)
 -->
<!-- Title: G Pages: 1 -->
<svg width="262pt" height="146pt"
 viewBox="0.00 0.00 262.00 146.00" xmlns="http://www.w3.org/2000/svg" xmlns:xlink="http://www.w3.org/1999/xlink">
<g id="graph1" class="graph" transform="scale(1 1) rotate(0) translate(4 142)">
<title>G</title>
<polygon fill="white" stroke="white" points="-4,5 -4,-142 259,-142 259,5 -4,5"/>
<!-- Node1 -->
<g id="node1" class="node"><title>Node1</title>
<polygon fill="#bfbfbf" stroke="black" points="0,-116.5 0,-137.5 254,-137.5 254,-116.5 0,-116.5"/>
<text text-anchor="middle" x="127" y="-124.5" font-family="Helvetica,sans-Serif" font-size="10.00">/home/vilon_tao/gaia/sdk/include/gaia/telephony/Call.h</text>
</g>
<!-- Node2 -->
<g id="node3" class="node"><title>Node2</title>
<a xlink:href="../../d9/d28/_enum_base_8h.html" target="_top" xlink:title="gaia/base/EnumBase.h">
<polygon fill="white" stroke="black" points="3,-58.5 3,-79.5 121,-79.5 121,-58.5 3,-58.5"/>
<text text-anchor="middle" x="62" y="-66.5" font-family="Helvetica,sans-Serif" font-size="10.00">gaia/base/EnumBase.h</text>
</a>
</g>
<!-- Node1&#45;&gt;Node2 -->
<g id="edge2" class="edge"><title>Node1&#45;&gt;Node2</title>
<path fill="none" stroke="midnightblue" d="M115.078,-116.362C105.641,-107.941 92.2704,-96.0105 81.3104,-86.2308"/>
<polygon fill="midnightblue" stroke="midnightblue" points="83.6381,-83.6171 73.8464,-79.5707 78.9776,-88.8401 83.6381,-83.6171"/>
</g>
<!-- Node4 -->
<g id="node7" class="node"><title>Node4</title>
<a xlink:href="../../d1/dd0/gmacros_8h.html" target="_top" xlink:title="gaia/base/gmacros.h">
<polygon fill="white" stroke="black" points="138.5,-58.5 138.5,-79.5 245.5,-79.5 245.5,-58.5 138.5,-58.5"/>
<text text-anchor="middle" x="192" y="-66.5" font-family="Helvetica,sans-Serif" font-size="10.00">gaia/base/gmacros.h</text>
</a>
</g>
<!-- Node1&#45;&gt;Node4 -->
<g id="edge6" class="edge"><title>Node1&#45;&gt;Node4</title>
<path fill="none" stroke="midnightblue" d="M138.922,-116.362C148.359,-107.941 161.73,-96.0105 172.69,-86.2308"/>
<polygon fill="midnightblue" stroke="midnightblue" points="175.022,-88.8401 180.154,-79.5707 170.362,-83.6171 175.022,-88.8401"/>
</g>
<!-- Node3 -->
<g id="node5" class="node"><title>Node3</title>
<polygon fill="white" stroke="#bfbfbf" points="39,-0.5 39,-21.5 85,-21.5 85,-0.5 39,-0.5"/>
<text text-anchor="middle" x="62" y="-8.5" font-family="Helvetica,sans-Serif" font-size="10.00">cstdint</text>
</g>
<!-- Node2&#45;&gt;Node3 -->
<g id="edge4" class="edge"><title>Node2&#45;&gt;Node3</title>
<path fill="none" stroke="midnightblue" d="M62,-58.3619C62,-50.9219 62,-40.7427 62,-31.7276"/>
<polygon fill="midnightblue" stroke="midnightblue" points="65.5001,-31.5706 62,-21.5707 58.5001,-31.5707 65.5001,-31.5706"/>
</g>
</g>
</svg>
