<?xml version="1.0" encoding="UTF-8" standalone="no"?>
<!DOCTYPE svg PUBLIC "-//W3C//DTD SVG 1.1//EN"
 "http://www.w3.org/Graphics/SVG/1.1/DTD/svg11.dtd">
<!-- Generated by graphviz version 2.26.3 (20100126.1600)
 -->
<!-- Title: G Pages: 1 -->
<svg width="268pt" height="146pt"
 viewBox="0.00 0.00 268.00 146.00" xmlns="http://www.w3.org/2000/svg" xmlns:xlink="http://www.w3.org/1999/xlink">
<g id="graph1" class="graph" transform="scale(1 1) rotate(0) translate(4 142)">
<title>G</title>
<polygon fill="white" stroke="white" points="-4,5 -4,-142 265,-142 265,5 -4,5"/>
<!-- Node1 -->
<g id="node1" class="node"><title>Node1</title>
<polygon fill="#bfbfbf" stroke="black" points="-0.5,-116.5 -0.5,-137.5 260.5,-137.5 260.5,-116.5 -0.5,-116.5"/>
<text text-anchor="middle" x="130" y="-124.5" font-family="Helvetica,sans-Serif" font-size="10.00">/home/vilon_tao/gaia/sdk/include/gaia/media/Equalizer.h</text>
</g>
<!-- Node2 -->
<g id="node3" class="node"><title>Node2</title>
<polygon fill="white" stroke="#bfbfbf" points="36.5,-0.5 36.5,-21.5 85.5,-21.5 85.5,-0.5 36.5,-0.5"/>
<text text-anchor="middle" x="61" y="-8.5" font-family="Helvetica,sans-Serif" font-size="10.00">stdint.h</text>
</g>
<!-- Node1&#45;&gt;Node2 -->
<g id="edge2" class="edge"><title>Node1&#45;&gt;Node2</title>
<path fill="none" stroke="midnightblue" d="M101.558,-116.453C85.662,-108.918 67.2395,-97.0651 58,-80 49.9933,-65.2118 51.66,-45.9173 54.804,-31.4926"/>
<polygon fill="midnightblue" stroke="midnightblue" points="58.2557,-32.1235 57.3606,-21.5666 51.4769,-30.3775 58.2557,-32.1235"/>
</g>
<!-- Node3 -->
<g id="node5" class="node"><title>Node3</title>
<a xlink:href="../../d1/dd0/gmacros_8h.html" target="_top" xlink:title="gaia/base/gmacros.h">
<polygon fill="white" stroke="black" points="145.5,-0.5 145.5,-21.5 252.5,-21.5 252.5,-0.5 145.5,-0.5"/>
<text text-anchor="middle" x="199" y="-8.5" font-family="Helvetica,sans-Serif" font-size="10.00">gaia/base/gmacros.h</text>
</a>
</g>
<!-- Node1&#45;&gt;Node3 -->
<g id="edge4" class="edge"><title>Node1&#45;&gt;Node3</title>
<path fill="none" stroke="midnightblue" d="M158.442,-116.453C174.338,-108.918 192.761,-97.0651 202,-80 210.007,-65.2118 208.34,-45.9173 205.196,-31.4926"/>
<polygon fill="midnightblue" stroke="midnightblue" points="208.523,-30.3775 202.639,-21.5666 201.744,-32.1235 208.523,-30.3775"/>
</g>
<!-- Node4 -->
<g id="node7" class="node"><title>Node4</title>
<a xlink:href="../../d6/db8/_audio_effect_8h.html" target="_top" xlink:title="gaia/media/AudioEffect.h">
<polygon fill="white" stroke="black" points="67,-58.5 67,-79.5 193,-79.5 193,-58.5 67,-58.5"/>
<text text-anchor="middle" x="130" y="-66.5" font-family="Helvetica,sans-Serif" font-size="10.00">gaia/media/AudioEffect.h</text>
</a>
</g>
<!-- Node1&#45;&gt;Node4 -->
<g id="edge6" class="edge"><title>Node1&#45;&gt;Node4</title>
<path fill="none" stroke="midnightblue" d="M130,-116.362C130,-108.922 130,-98.7427 130,-89.7276"/>
<polygon fill="midnightblue" stroke="midnightblue" points="133.5,-89.5706 130,-79.5707 126.5,-89.5707 133.5,-89.5706"/>
</g>
<!-- Node4&#45;&gt;Node2 -->
<g id="edge8" class="edge"><title>Node4&#45;&gt;Node2</title>
<path fill="none" stroke="midnightblue" d="M117.344,-58.3619C107.326,-49.9408 93.1332,-38.0105 81.4987,-28.2308"/>
<polygon fill="midnightblue" stroke="midnightblue" points="83.4824,-25.326 73.5754,-21.5707 78.9782,-30.6844 83.4824,-25.326"/>
</g>
<!-- Node4&#45;&gt;Node3 -->
<g id="edge10" class="edge"><title>Node4&#45;&gt;Node3</title>
<path fill="none" stroke="midnightblue" d="M142.656,-58.3619C152.674,-49.9408 166.867,-38.0105 178.501,-28.2308"/>
<polygon fill="midnightblue" stroke="midnightblue" points="181.022,-30.6844 186.425,-21.5707 176.518,-25.326 181.022,-30.6844"/>
</g>
</g>
</svg>
