<?xml version="1.0" encoding="UTF-8" standalone="no"?>
<!DOCTYPE svg PUBLIC "-//W3C//DTD SVG 1.1//EN"
 "http://www.w3.org/Graphics/SVG/1.1/DTD/svg11.dtd">
<!-- Generated by graphviz version 2.26.3 (20100126.1600)
 -->
<!-- Title: G Pages: 1 -->
<svg width="302pt" height="146pt"
 viewBox="0.00 0.00 302.00 146.00" xmlns="http://www.w3.org/2000/svg" xmlns:xlink="http://www.w3.org/1999/xlink">
<g id="graph1" class="graph" transform="scale(1 1) rotate(0) translate(4 142)">
<title>G</title>
<polygon fill="white" stroke="white" points="-4,5 -4,-142 299,-142 299,5 -4,5"/>
<!-- Node1 -->
<g id="node1" class="node"><title>Node1</title>
<polygon fill="#bfbfbf" stroke="black" points="79.5,-58.5 79.5,-79.5 222.5,-79.5 222.5,-58.5 79.5,-58.5"/>
<text text-anchor="middle" x="151" y="-66.5" font-family="Helvetica,sans-Serif" font-size="10.00">gaia::ui::TwoStatePreference</text>
</g>
<!-- Node3 -->
<g id="node5" class="node"><title>Node3</title>
<a xlink:href="../../da/db2/classgaia_1_1ui_1_1_check_box_preference.html" target="_top" xlink:title="A Preference that provides checkbox widget functionality.">
<polygon fill="white" stroke="black" points="-0.5,-0.5 -0.5,-21.5 146.5,-21.5 146.5,-0.5 -0.5,-0.5"/>
<text text-anchor="middle" x="73" y="-8.5" font-family="Helvetica,sans-Serif" font-size="10.00">gaia::ui::CheckBoxPreference</text>
</a>
</g>
<!-- Node1&#45;&gt;Node3 -->
<g id="edge4" class="edge"><title>Node1&#45;&gt;Node3</title>
<path fill="none" stroke="midnightblue" d="M128.486,-52.2587C115.179,-42.3641 98.7348,-30.1361 87.2157,-21.5707"/>
<polygon fill="midnightblue" stroke="midnightblue" points="126.58,-55.2035 136.694,-58.3619 130.757,-49.5862 126.58,-55.2035"/>
</g>
<!-- Node4 -->
<g id="node7" class="node"><title>Node4</title>
<a xlink:href="../../dc/dc7/classgaia_1_1ui_1_1_toggle_preference.html" target="_top" xlink:title="A Preference that provides checkbox widget functionality.">
<polygon fill="white" stroke="black" points="163.5,-0.5 163.5,-21.5 294.5,-21.5 294.5,-0.5 163.5,-0.5"/>
<text text-anchor="middle" x="229" y="-8.5" font-family="Helvetica,sans-Serif" font-size="10.00">gaia::ui::TogglePreference</text>
</a>
</g>
<!-- Node1&#45;&gt;Node4 -->
<g id="edge6" class="edge"><title>Node1&#45;&gt;Node4</title>
<path fill="none" stroke="midnightblue" d="M173.514,-52.2587C186.821,-42.3641 203.265,-30.1361 214.784,-21.5707"/>
<polygon fill="midnightblue" stroke="midnightblue" points="171.243,-49.5862 165.306,-58.3619 175.42,-55.2035 171.243,-49.5862"/>
</g>
<!-- Node2 -->
<g id="node2" class="node"><title>Node2</title>
<a xlink:href="../../dd/d14/classgaia_1_1ui_1_1_preference.html" target="_top" xlink:title="Interface definition for a callback to be invoked when the value of this Preference has been changed ...">
<polygon fill="white" stroke="black" points="100.5,-116.5 100.5,-137.5 201.5,-137.5 201.5,-116.5 100.5,-116.5"/>
<text text-anchor="middle" x="151" y="-124.5" font-family="Helvetica,sans-Serif" font-size="10.00">gaia::ui::Preference</text>
</a>
</g>
<!-- Node2&#45;&gt;Node1 -->
<g id="edge2" class="edge"><title>Node2&#45;&gt;Node1</title>
<path fill="none" stroke="midnightblue" d="M151,-106.191C151,-97.1684 151,-86.9941 151,-79.5707"/>
<polygon fill="midnightblue" stroke="midnightblue" points="147.5,-106.362 151,-116.362 154.5,-106.362 147.5,-106.362"/>
</g>
</g>
</svg>
