<?xml version="1.0" encoding="UTF-8" standalone="no"?>
<!DOCTYPE svg PUBLIC "-//W3C//DTD SVG 1.1//EN"
 "http://www.w3.org/Graphics/SVG/1.1/DTD/svg11.dtd">
<!-- Generated by graphviz version 2.26.3 (20100126.1600)
 -->
<!-- Title: G Pages: 1 -->
<svg width="242pt" height="162pt"
 viewBox="0.00 0.00 242.00 162.00" xmlns="http://www.w3.org/2000/svg" xmlns:xlink="http://www.w3.org/1999/xlink">
<g id="graph1" class="graph" transform="scale(1 1) rotate(0) translate(4 158)">
<title>G</title>
<polygon fill="white" stroke="white" points="-4,5 -4,-158 239,-158 239,5 -4,5"/>
<!-- Node1 -->
<g id="node1" class="node"><title>Node1</title>
<polygon fill="#bfbfbf" stroke="black" points="29,-0.5 29,-21.5 149,-21.5 149,-0.5 29,-0.5"/>
<text text-anchor="middle" x="89" y="-8.5" font-family="Helvetica,sans-Serif" font-size="10.00">gaia::net::HttpFileEntity</text>
</g>
<!-- Node2 -->
<g id="node2" class="node"><title>Node2</title>
<a xlink:href="../../d3/d5f/classgaia_1_1net_1_1_http_entity.html" target="_top" xlink:title="An entity represent data that will be put in content field during request.">
<polygon fill="white" stroke="black" points="0,-72.5 0,-93.5 104,-93.5 104,-72.5 0,-72.5"/>
<text text-anchor="middle" x="52" y="-80.5" font-family="Helvetica,sans-Serif" font-size="10.00">gaia::net::HttpEntity</text>
</a>
</g>
<!-- Node2&#45;&gt;Node1 -->
<g id="edge2" class="edge"><title>Node2&#45;&gt;Node1</title>
<path fill="none" stroke="midnightblue" d="M62.0623,-63.4193C68.972,-49.9734 77.8803,-32.6384 83.5181,-21.6674"/>
<polygon fill="midnightblue" stroke="midnightblue" points="58.9172,-61.8821 57.4595,-72.3762 65.1432,-65.0816 58.9172,-61.8821"/>
</g>
<!-- Node3 -->
<g id="node4" class="node"><title>Node3</title>
<a xlink:href="../../d2/ddb/classgaia_1_1base_1_1_string.html" target="_top" xlink:title="A String is represented by array of UTF&#45;16 values, such that Unicode supplementary characters (code p...">
<polygon fill="white" stroke="black" points="121.5,-72.5 121.5,-93.5 214.5,-93.5 214.5,-72.5 121.5,-72.5"/>
<text text-anchor="middle" x="168" y="-80.5" font-family="Helvetica,sans-Serif" font-size="10.00">gaia::base::String</text>
</a>
</g>
<!-- Node3&#45;&gt;Node1 -->
<g id="edge4" class="edge"><title>Node3&#45;&gt;Node1</title>
<path fill="none" stroke="#9a32cd" stroke-dasharray="5,2" d="M148.633,-65.3488C133.626,-51.6714 113.326,-33.1709 100.705,-21.6674"/>
<polygon fill="#9a32cd" stroke="#9a32cd" points="146.595,-68.2269 156.343,-72.3762 151.31,-63.0533 146.595,-68.2269"/>
<text text-anchor="middle" x="161" y="-44.5" font-family="Helvetica,sans-Serif" font-size="10.00"> mFilename</text>
</g>
<!-- Node4 -->
<g id="node6" class="node"><title>Node4</title>
<a xlink:href="../../d1/d0f/classgaia_1_1base_1_1_char_sequence.html" target="_top" xlink:title="This interface represents an ordered set of characters and defines the methods to probe them...">
<polygon fill="white" stroke="black" points="102,-132.5 102,-153.5 234,-153.5 234,-132.5 102,-132.5"/>
<text text-anchor="middle" x="168" y="-140.5" font-family="Helvetica,sans-Serif" font-size="10.00">gaia::base::CharSequence</text>
</a>
</g>
<!-- Node4&#45;&gt;Node3 -->
<g id="edge6" class="edge"><title>Node4&#45;&gt;Node3</title>
<path fill="none" stroke="midnightblue" d="M168,-122.231C168,-112.592 168,-101.544 168,-93.6339"/>
<polygon fill="midnightblue" stroke="midnightblue" points="164.5,-122.273 168,-132.273 171.5,-122.273 164.5,-122.273"/>
</g>
</g>
</svg>
