<?xml version="1.0" encoding="UTF-8" standalone="no"?>
<!DOCTYPE svg PUBLIC "-//W3C//DTD SVG 1.1//EN"
 "http://www.w3.org/Graphics/SVG/1.1/DTD/svg11.dtd">
<!-- Generated by graphviz version 2.26.3 (20100126.1600)
 -->
<!-- Title: G Pages: 1 -->
<svg width="478pt" height="110pt"
 viewBox="0.00 0.00 478.00 110.00" xmlns="http://www.w3.org/2000/svg" xmlns:xlink="http://www.w3.org/1999/xlink">
<g id="graph1" class="graph" transform="scale(1 1) rotate(0) translate(4 106)">
<title>G</title>
<polygon fill="white" stroke="white" points="-4,5 -4,-106 475,-106 475,5 -4,5"/>
<!-- Node1 -->
<g id="node1" class="node"><title>Node1</title>
<polygon fill="#bfbfbf" stroke="black" points="138.5,-40.5 138.5,-61.5 267.5,-61.5 267.5,-40.5 138.5,-40.5"/>
<text text-anchor="middle" x="203" y="-48.5" font-family="Helvetica,sans-Serif" font-size="10.00">gaia::ui::DialogPreference</text>
</g>
<!-- Node3 -->
<g id="node5" class="node"><title>Node3</title>
<a xlink:href="../../df/d6d/classgaia_1_1ui_1_1_edit_text_preference.html" target="_top" xlink:title="A Preference that allows for string input.">
<polygon fill="white" stroke="black" points="318,-80.5 318,-101.5 456,-101.5 456,-80.5 318,-80.5"/>
<text text-anchor="middle" x="387" y="-88.5" font-family="Helvetica,sans-Serif" font-size="10.00">gaia::ui::EditTextPreference</text>
</a>
</g>
<!-- Node1&#45;&gt;Node3 -->
<g id="edge4" class="edge"><title>Node1&#45;&gt;Node3</title>
<path fill="none" stroke="midnightblue" d="M261.393,-63.6941C286.286,-69.1056 314.984,-75.3443 338.66,-80.4913"/>
<polygon fill="midnightblue" stroke="midnightblue" points="261.859,-60.2138 251.344,-61.5095 260.372,-67.054 261.859,-60.2138"/>
</g>
<!-- Node4 -->
<g id="node7" class="node"><title>Node4</title>
<a xlink:href="../../d4/df3/classgaia_1_1ui_1_1_list_preference.html" target="_top" xlink:title="A Preference that displays a list of entries as a dialog.">
<polygon fill="white" stroke="black" points="328.5,-40.5 328.5,-61.5 445.5,-61.5 445.5,-40.5 328.5,-40.5"/>
<text text-anchor="middle" x="387" y="-48.5" font-family="Helvetica,sans-Serif" font-size="10.00">gaia::ui::ListPreference</text>
</a>
</g>
<!-- Node1&#45;&gt;Node4 -->
<g id="edge6" class="edge"><title>Node1&#45;&gt;Node4</title>
<path fill="none" stroke="midnightblue" d="M277.955,-51C294.761,-51 312.354,-51 328.383,-51"/>
<polygon fill="midnightblue" stroke="midnightblue" points="277.613,-47.5001 267.613,-51 277.613,-54.5001 277.613,-47.5001"/>
</g>
<!-- Node5 -->
<g id="node9" class="node"><title>Node5</title>
<a xlink:href="../../d7/dc7/classgaia_1_1ui_1_1_multi_select_list_preference.html" target="_top" xlink:title="A Preference that displays a list of entries as a dialog.">
<polygon fill="white" stroke="black" points="304,-0.5 304,-21.5 470,-21.5 470,-0.5 304,-0.5"/>
<text text-anchor="middle" x="387" y="-8.5" font-family="Helvetica,sans-Serif" font-size="10.00">gaia::ui::MultiSelectListPreference</text>
</a>
</g>
<!-- Node1&#45;&gt;Node5 -->
<g id="edge8" class="edge"><title>Node1&#45;&gt;Node5</title>
<path fill="none" stroke="midnightblue" d="M261.393,-38.3059C286.286,-32.8944 314.984,-26.6557 338.66,-21.5087"/>
<polygon fill="midnightblue" stroke="midnightblue" points="260.372,-34.946 251.344,-40.4905 261.859,-41.7862 260.372,-34.946"/>
</g>
<!-- Node2 -->
<g id="node2" class="node"><title>Node2</title>
<a xlink:href="../../dd/d14/classgaia_1_1ui_1_1_preference.html" target="_top" xlink:title="Interface definition for a callback to be invoked when the value of this Preference has been changed ...">
<polygon fill="white" stroke="black" points="0.5,-40.5 0.5,-61.5 101.5,-61.5 101.5,-40.5 0.5,-40.5"/>
<text text-anchor="middle" x="51" y="-48.5" font-family="Helvetica,sans-Serif" font-size="10.00">gaia::ui::Preference</text>
</a>
</g>
<!-- Node2&#45;&gt;Node1 -->
<g id="edge2" class="edge"><title>Node2&#45;&gt;Node1</title>
<path fill="none" stroke="midnightblue" d="M111.711,-51C120.448,-51 129.466,-51 138.277,-51"/>
<polygon fill="midnightblue" stroke="midnightblue" points="111.614,-47.5001 101.614,-51 111.614,-54.5001 111.614,-47.5001"/>
</g>
</g>
</svg>
