<?xml version="1.0" encoding="UTF-8" standalone="no"?>
<!DOCTYPE svg PUBLIC "-//W3C//DTD SVG 1.1//EN"
 "http://www.w3.org/Graphics/SVG/1.1/DTD/svg11.dtd">
<!-- Generated by graphviz version 2.26.3 (20100126.1600)
 -->
<!-- Title: G Pages: 1 -->
<svg width="296pt" height="234pt"
 viewBox="0.00 0.00 296.00 234.00" xmlns="http://www.w3.org/2000/svg" xmlns:xlink="http://www.w3.org/1999/xlink">
<g id="graph1" class="graph" transform="scale(1 1) rotate(0) translate(4 230)">
<title>G</title>
<polygon fill="white" stroke="white" points="-4,5 -4,-230 293,-230 293,5 -4,5"/>
<!-- Node1 -->
<g id="node1" class="node"><title>Node1</title>
<polygon fill="#bfbfbf" stroke="black" points="21,-0.5 21,-21.5 187,-21.5 187,-0.5 21,-0.5"/>
<text text-anchor="middle" x="104" y="-8.5" font-family="Helvetica,sans-Serif" font-size="10.00">gaia::base::HashSet&lt; T &gt;::iterator</text>
</g>
<!-- Node2 -->
<g id="node2" class="node"><title>Node2</title>
<a xlink:href="../../d3/d57/classgaia_1_1base_1_1_hash_map.html" target="_top" xlink:title="gaia::base::HashMap\&lt; T, HashSet\&lt; T \&gt; * \&gt;">
<polygon fill="white" stroke="black" points="-0.5,-72.5 -0.5,-93.5 208.5,-93.5 208.5,-72.5 -0.5,-72.5"/>
<text text-anchor="middle" x="104" y="-80.5" font-family="Helvetica,sans-Serif" font-size="10.00">gaia::base::HashMap&lt; T, HashSet&lt; T &gt; * &gt;</text>
</a>
</g>
<!-- Node2&#45;&gt;Node1 -->
<g id="edge2" class="edge"><title>Node2&#45;&gt;Node1</title>
<path fill="none" stroke="#9a32cd" stroke-dasharray="5,2" d="M104,-62.2348C104,-48.969 104,-32.3188 104,-21.6674"/>
<polygon fill="#9a32cd" stroke="#9a32cd" points="100.5,-62.3761 104,-72.3762 107.5,-62.3762 100.5,-62.3761"/>
<text text-anchor="middle" x="119.5" y="-44.5" font-family="Helvetica,sans-Serif" font-size="10.00"> mpIter</text>
</g>
<!-- Node3 -->
<g id="node4" class="node"><title>Node3</title>
<a xlink:href="../../d3/d6e/classgaia_1_1base_1_1_hash_map_impl.html" target="_top" xlink:title="gaia::base::HashMapImpl">
<polygon fill="white" stroke="black" points="58,-204.5 58,-225.5 186,-225.5 186,-204.5 58,-204.5"/>
<text text-anchor="middle" x="122" y="-212.5" font-family="Helvetica,sans-Serif" font-size="10.00">gaia::base::HashMapImpl</text>
</a>
</g>
<!-- Node3&#45;&gt;Node2 -->
<g id="edge4" class="edge"><title>Node3&#45;&gt;Node2</title>
<path fill="none" stroke="#8b1a1a" d="M114.471,-194.66C111.592,-185.957 108.615,-175.606 107,-166 102.672,-140.263 102.964,-109.428 103.507,-93.5705"/>
<polygon fill="#8b1a1a" stroke="#8b1a1a" points="111.235,-196.01 117.836,-204.297 117.844,-193.702 111.235,-196.01"/>
</g>
<!-- Node4 -->
<g id="node6" class="node"><title>Node4</title>
<a xlink:href="../../d3/d57/classgaia_1_1base_1_1_hash_map.html" target="_top" xlink:title="Implements hashmap data structure and operation functions.">
<polygon fill="white" stroke="black" points="115.5,-144.5 115.5,-165.5 288.5,-165.5 288.5,-144.5 115.5,-144.5"/>
<text text-anchor="middle" x="202" y="-152.5" font-family="Helvetica,sans-Serif" font-size="10.00">gaia::base::HashMap&lt; KEY, VAL &gt;</text>
</a>
</g>
<!-- Node3&#45;&gt;Node4 -->
<g id="edge8" class="edge"><title>Node3&#45;&gt;Node4</title>
<path fill="none" stroke="#8b1a1a" d="M144.429,-198.178C158.344,-187.742 175.8,-174.65 187.821,-165.634"/>
<polygon fill="#8b1a1a" stroke="#8b1a1a" points="142.202,-195.473 136.302,-204.273 146.402,-201.073 142.202,-195.473"/>
</g>
<!-- Node4&#45;&gt;Node2 -->
<g id="edge6" class="edge"><title>Node4&#45;&gt;Node2</title>
<path fill="none" stroke="orange" stroke-dasharray="5,2" d="M179.257,-138.291C160.529,-124.532 134.54,-105.437 118.52,-93.6674"/>
<polygon fill="orange" stroke="orange" points="177.409,-141.276 187.54,-144.376 181.553,-135.635 177.409,-141.276"/>
<text text-anchor="middle" x="212.5" y="-116.5" font-family="Helvetica,sans-Serif" font-size="10.00"> &lt; T, HashSet&lt; T &gt; * &gt;</text>
</g>
</g>
</svg>
