<?xml version="1.0" encoding="UTF-8" standalone="no"?>
<!DOCTYPE svg PUBLIC "-//W3C//DTD SVG 1.1//EN"
 "http://www.w3.org/Graphics/SVG/1.1/DTD/svg11.dtd">
<!-- Generated by graphviz version 2.26.3 (20100126.1600)
 -->
<!-- Title: G Pages: 1 -->
<svg width="404pt" height="150pt"
 viewBox="0.00 0.00 404.00 150.00" xmlns="http://www.w3.org/2000/svg" xmlns:xlink="http://www.w3.org/1999/xlink">
<g id="graph1" class="graph" transform="scale(1 1) rotate(0) translate(4 146)">
<title>G</title>
<polygon fill="white" stroke="white" points="-4,5 -4,-146 401,-146 401,5 -4,5"/>
<!-- Node1 -->
<g id="node1" class="node"><title>Node1</title>
<polygon fill="#bfbfbf" stroke="black" points="0,-60.5 0,-81.5 78,-81.5 78,-60.5 0,-60.5"/>
<text text-anchor="middle" x="39" y="-68.5" font-family="Helvetica,sans-Serif" font-size="10.00">gaia::core::GL</text>
</g>
<!-- Node2 -->
<g id="node3" class="node"><title>Node2</title>
<a xlink:href="../../da/d11/classgaia_1_1core_1_1_g_l10.html" target="_top" xlink:title="gaia::core::GL10">
<polygon fill="white" stroke="black" points="147.5,-120.5 147.5,-141.5 236.5,-141.5 236.5,-120.5 147.5,-120.5"/>
<text text-anchor="middle" x="192" y="-128.5" font-family="Helvetica,sans-Serif" font-size="10.00">gaia::core::GL10</text>
</a>
</g>
<!-- Node1&#45;&gt;Node2 -->
<g id="edge2" class="edge"><title>Node1&#45;&gt;Node2</title>
<path fill="none" stroke="midnightblue" d="M64.6979,-86.679C78.8522,-94.8035 96.9612,-104.382 114,-111 124.555,-115.1 136.24,-118.608 147.282,-121.487"/>
<polygon fill="midnightblue" stroke="midnightblue" points="66.4163,-83.6293 56.0185,-81.5957 62.8786,-89.6696 66.4163,-83.6293"/>
</g>
<!-- Node4 -->
<g id="node7" class="node"><title>Node4</title>
<a xlink:href="../../d8/d4b/classgaia_1_1core_1_1_g_l10_ext.html" target="_top" xlink:title="gaia::core::GL10Ext">
<polygon fill="white" stroke="black" points="140,-80.5 140,-101.5 244,-101.5 244,-80.5 140,-80.5"/>
<text text-anchor="middle" x="192" y="-88.5" font-family="Helvetica,sans-Serif" font-size="10.00">gaia::core::GL10Ext</text>
</a>
</g>
<!-- Node1&#45;&gt;Node4 -->
<g id="edge6" class="edge"><title>Node1&#45;&gt;Node4</title>
<path fill="none" stroke="midnightblue" d="M88.0037,-77.4057C104.526,-79.5655 123.023,-81.9834 139.784,-84.1744"/>
<polygon fill="midnightblue" stroke="midnightblue" points="88.3736,-73.9244 78.0042,-76.0986 87.4662,-80.8653 88.3736,-73.9244"/>
</g>
<!-- Node5 -->
<g id="node9" class="node"><title>Node5</title>
<a xlink:href="../../db/ddc/classgaia_1_1core_1_1_g_l11_ext.html" target="_top" xlink:title="gaia::core::GL11Ext">
<polygon fill="white" stroke="black" points="140,-40.5 140,-61.5 244,-61.5 244,-40.5 140,-40.5"/>
<text text-anchor="middle" x="192" y="-48.5" font-family="Helvetica,sans-Serif" font-size="10.00">gaia::core::GL11Ext</text>
</a>
</g>
<!-- Node1&#45;&gt;Node5 -->
<g id="edge8" class="edge"><title>Node1&#45;&gt;Node5</title>
<path fill="none" stroke="midnightblue" d="M88.0037,-64.5943C104.526,-62.4345 123.023,-60.0166 139.784,-57.8256"/>
<polygon fill="midnightblue" stroke="midnightblue" points="87.4662,-61.1347 78.0042,-65.9014 88.3736,-68.0756 87.4662,-61.1347"/>
</g>
<!-- Node6 -->
<g id="node11" class="node"><title>Node6</title>
<a xlink:href="../../d7/d16/classgaia_1_1core_1_1_g_l11_extension_pack.html" target="_top" xlink:title="gaia::core::GL11ExtensionPack">
<polygon fill="white" stroke="black" points="114.5,-0.5 114.5,-21.5 269.5,-21.5 269.5,-0.5 114.5,-0.5"/>
<text text-anchor="middle" x="192" y="-8.5" font-family="Helvetica,sans-Serif" font-size="10.00">gaia::core::GL11ExtensionPack</text>
</a>
</g>
<!-- Node1&#45;&gt;Node6 -->
<g id="edge10" class="edge"><title>Node1&#45;&gt;Node6</title>
<path fill="none" stroke="midnightblue" d="M64.6979,-55.321C78.8522,-47.1965 96.9612,-37.6182 114,-31 123.252,-27.4063 133.372,-24.2676 143.167,-21.6079"/>
<polygon fill="midnightblue" stroke="midnightblue" points="62.8786,-52.3304 56.0185,-60.4043 66.4163,-58.3707 62.8786,-52.3304"/>
</g>
<!-- Node3 -->
<g id="node5" class="node"><title>Node3</title>
<a xlink:href="../../d3/d23/classgaia_1_1core_1_1_g_l11.html" target="_top" xlink:title="gaia::core::GL11">
<polygon fill="white" stroke="black" points="306.5,-120.5 306.5,-141.5 395.5,-141.5 395.5,-120.5 306.5,-120.5"/>
<text text-anchor="middle" x="351" y="-128.5" font-family="Helvetica,sans-Serif" font-size="10.00">gaia::core::GL11</text>
</a>
</g>
<!-- Node2&#45;&gt;Node3 -->
<g id="edge4" class="edge"><title>Node2&#45;&gt;Node3</title>
<path fill="none" stroke="midnightblue" d="M246.934,-131C266.335,-131 287.901,-131 306.347,-131"/>
<polygon fill="midnightblue" stroke="midnightblue" points="246.714,-127.5 236.713,-131 246.713,-134.5 246.714,-127.5"/>
</g>
</g>
</svg>
