<?xml version="1.0" encoding="UTF-8" standalone="no"?>
<!DOCTYPE svg PUBLIC "-//W3C//DTD SVG 1.1//EN"
 "http://www.w3.org/Graphics/SVG/1.1/DTD/svg11.dtd">
<!-- Generated by graphviz version 2.26.3 (20100126.1600)
 -->
<!-- Title: G Pages: 1 -->
<svg width="421pt" height="204pt"
 viewBox="0.00 0.00 421.00 204.00" xmlns="http://www.w3.org/2000/svg" xmlns:xlink="http://www.w3.org/1999/xlink">
<g id="graph1" class="graph" transform="scale(1 1) rotate(0) translate(4 200)">
<title>G</title>
<polygon fill="white" stroke="white" points="-4,5 -4,-200 418,-200 418,5 -4,5"/>
<!-- Node1 -->
<g id="node1" class="node"><title>Node1</title>
<polygon fill="#bfbfbf" stroke="black" points="127,-174.5 127,-195.5 413,-195.5 413,-174.5 127,-174.5"/>
<text text-anchor="middle" x="270" y="-182.5" font-family="Helvetica,sans-Serif" font-size="10.00">/home/vilon_tao/gaia/sdk/include/gaia/ui/FilterQueryProvider.h</text>
</g>
<!-- Node2 -->
<g id="node3" class="node"><title>Node2</title>
<a xlink:href="../../db/db5/_string_8h.html" target="_top" xlink:title="gaia/base/String.h">
<polygon fill="white" stroke="black" points="162.5,-116.5 162.5,-137.5 257.5,-137.5 257.5,-116.5 162.5,-116.5"/>
<text text-anchor="middle" x="210" y="-124.5" font-family="Helvetica,sans-Serif" font-size="10.00">gaia/base/String.h</text>
</a>
</g>
<!-- Node1&#45;&gt;Node2 -->
<g id="edge2" class="edge"><title>Node1&#45;&gt;Node2</title>
<path fill="none" stroke="midnightblue" d="M258.995,-174.362C250.453,-166.104 238.42,-154.472 228.417,-144.803"/>
<polygon fill="midnightblue" stroke="midnightblue" points="230.558,-142.004 220.935,-137.571 225.692,-147.037 230.558,-142.004"/>
</g>
<!-- Node7 -->
<g id="node14" class="node"><title>Node7</title>
<a xlink:href="../../da/dd4/_cursor_8h.html" target="_top" xlink:title="gaia/storage/Cursor.h">
<polygon fill="white" stroke="black" points="276,-116.5 276,-137.5 386,-137.5 386,-116.5 276,-116.5"/>
<text text-anchor="middle" x="331" y="-124.5" font-family="Helvetica,sans-Serif" font-size="10.00">gaia/storage/Cursor.h</text>
</a>
</g>
<!-- Node1&#45;&gt;Node7 -->
<g id="edge14" class="edge"><title>Node1&#45;&gt;Node7</title>
<path fill="none" stroke="midnightblue" d="M281.188,-174.362C289.959,-166.023 302.349,-154.242 312.578,-144.516"/>
<polygon fill="midnightblue" stroke="midnightblue" points="315.047,-146.998 319.883,-137.571 310.224,-141.925 315.047,-146.998"/>
</g>
<!-- Node3 -->
<g id="node5" class="node"><title>Node3</title>
<a xlink:href="../../d7/d97/_char_sequence_8h.html" target="_top" xlink:title="gaia/base/CharSequence.h">
<polygon fill="white" stroke="black" points="0,-58.5 0,-79.5 134,-79.5 134,-58.5 0,-58.5"/>
<text text-anchor="middle" x="67" y="-66.5" font-family="Helvetica,sans-Serif" font-size="10.00">gaia/base/CharSequence.h</text>
</a>
</g>
<!-- Node2&#45;&gt;Node3 -->
<g id="edge4" class="edge"><title>Node2&#45;&gt;Node3</title>
<path fill="none" stroke="midnightblue" d="M184.104,-116.497C161.367,-107.275 128.07,-93.7695 102.788,-83.5153"/>
<polygon fill="midnightblue" stroke="midnightblue" points="103.769,-80.1365 93.1868,-79.6212 101.138,-86.6232 103.769,-80.1365"/>
</g>
<!-- Node5 -->
<g id="node9" class="node"><title>Node5</title>
<a xlink:href="../../d6/d83/_hash_func_8h.html" target="_top" xlink:title="gaia/base/HashFunc.h">
<polygon fill="white" stroke="black" points="151.5,-58.5 151.5,-79.5 266.5,-79.5 266.5,-58.5 151.5,-58.5"/>
<text text-anchor="middle" x="209" y="-66.5" font-family="Helvetica,sans-Serif" font-size="10.00">gaia/base/HashFunc.h</text>
</a>
</g>
<!-- Node2&#45;&gt;Node5 -->
<g id="edge8" class="edge"><title>Node2&#45;&gt;Node5</title>
<path fill="none" stroke="midnightblue" d="M209.817,-116.362C209.688,-108.922 209.513,-98.7427 209.357,-89.7276"/>
<polygon fill="midnightblue" stroke="midnightblue" points="212.854,-89.5088 209.182,-79.5707 205.855,-89.6295 212.854,-89.5088"/>
</g>
<!-- Node6 -->
<g id="node11" class="node"><title>Node6</title>
<polygon fill="white" stroke="#bfbfbf" points="260,-0.5 260,-21.5 328,-21.5 328,-0.5 260,-0.5"/>
<text text-anchor="middle" x="294" y="-8.5" font-family="Helvetica,sans-Serif" font-size="10.00">sys/types.h</text>
</g>
<!-- Node2&#45;&gt;Node6 -->
<g id="edge12" class="edge"><title>Node2&#45;&gt;Node6</title>
<path fill="none" stroke="midnightblue" d="M231.405,-116.487C245.749,-108.392 263.963,-95.902 275,-80 284.936,-65.6841 289.688,-46.3445 291.954,-31.7824"/>
<polygon fill="midnightblue" stroke="midnightblue" points="295.441,-32.1053 293.246,-21.7402 288.498,-31.2115 295.441,-32.1053"/>
</g>
<!-- Node4 -->
<g id="node7" class="node"><title>Node4</title>
<polygon fill="white" stroke="#bfbfbf" points="42.5,-0.5 42.5,-21.5 91.5,-21.5 91.5,-0.5 42.5,-0.5"/>
<text text-anchor="middle" x="67" y="-8.5" font-family="Helvetica,sans-Serif" font-size="10.00">stdint.h</text>
</g>
<!-- Node3&#45;&gt;Node4 -->
<g id="edge6" class="edge"><title>Node3&#45;&gt;Node4</title>
<path fill="none" stroke="midnightblue" d="M67,-58.3619C67,-50.9219 67,-40.7427 67,-31.7276"/>
<polygon fill="midnightblue" stroke="midnightblue" points="70.5001,-31.5706 67,-21.5707 63.5001,-31.5707 70.5001,-31.5706"/>
</g>
<!-- Node5&#45;&gt;Node6 -->
<g id="edge10" class="edge"><title>Node5&#45;&gt;Node6</title>
<path fill="none" stroke="midnightblue" d="M224.59,-58.3619C237.291,-49.6955 255.438,-37.3126 269.992,-27.3819"/>
<polygon fill="midnightblue" stroke="midnightblue" points="272.221,-30.0982 278.509,-21.5707 268.276,-24.316 272.221,-30.0982"/>
</g>
<!-- Node7&#45;&gt;Node6 -->
<g id="edge16" class="edge"><title>Node7&#45;&gt;Node6</title>
<path fill="none" stroke="midnightblue" d="M327.585,-116.295C321.445,-97.0451 308.446,-56.2889 300.542,-31.5091"/>
<polygon fill="midnightblue" stroke="midnightblue" points="303.78,-30.1427 297.406,-21.6792 297.111,-32.2699 303.78,-30.1427"/>
</g>
</g>
</svg>
