<?xml version="1.0" encoding="UTF-8" standalone="no"?>
<!DOCTYPE svg PUBLIC "-//W3C//DTD SVG 1.1//EN"
 "http://www.w3.org/Graphics/SVG/1.1/DTD/svg11.dtd">
<!-- Generated by graphviz version 2.26.3 (20100126.1600)
 -->
<!-- Title: G Pages: 1 -->
<svg width="276pt" height="146pt"
 viewBox="0.00 0.00 276.00 146.00" xmlns="http://www.w3.org/2000/svg" xmlns:xlink="http://www.w3.org/1999/xlink">
<g id="graph1" class="graph" transform="scale(1 1) rotate(0) translate(4 142)">
<title>G</title>
<polygon fill="white" stroke="white" points="-4,5 -4,-142 273,-142 273,5 -4,5"/>
<!-- Node1 -->
<g id="node1" class="node"><title>Node1</title>
<polygon fill="#bfbfbf" stroke="black" points="0,-116.5 0,-137.5 268,-137.5 268,-116.5 0,-116.5"/>
<text text-anchor="middle" x="134" y="-124.5" font-family="Helvetica,sans-Serif" font-size="10.00">/home/vilon_tao/gaia/sdk/include/gaia/media/SoundPool.h</text>
</g>
<!-- Node2 -->
<g id="node3" class="node"><title>Node2</title>
<polygon fill="white" stroke="#bfbfbf" points="39.5,-0.5 39.5,-21.5 88.5,-21.5 88.5,-0.5 39.5,-0.5"/>
<text text-anchor="middle" x="64" y="-8.5" font-family="Helvetica,sans-Serif" font-size="10.00">stdint.h</text>
</g>
<!-- Node1&#45;&gt;Node2 -->
<g id="edge2" class="edge"><title>Node1&#45;&gt;Node2</title>
<path fill="none" stroke="midnightblue" d="M104.415,-116.479C88.1715,-109.006 69.4552,-97.2064 60,-80 51.8953,-65.2512 53.8715,-45.9529 57.3155,-31.5168"/>
<polygon fill="midnightblue" stroke="midnightblue" points="60.7714,-32.1541 60.0926,-21.581 54.0298,-30.2697 60.7714,-32.1541"/>
</g>
<!-- Node3 -->
<g id="node5" class="node"><title>Node3</title>
<a xlink:href="../../d1/dd0/gmacros_8h.html" target="_top" xlink:title="gaia/base/gmacros.h">
<polygon fill="white" stroke="black" points="150.5,-0.5 150.5,-21.5 257.5,-21.5 257.5,-0.5 150.5,-0.5"/>
<text text-anchor="middle" x="204" y="-8.5" font-family="Helvetica,sans-Serif" font-size="10.00">gaia/base/gmacros.h</text>
</a>
</g>
<!-- Node1&#45;&gt;Node3 -->
<g id="edge4" class="edge"><title>Node1&#45;&gt;Node3</title>
<path fill="none" stroke="midnightblue" d="M163.585,-116.479C179.829,-109.006 198.545,-97.2064 208,-80 216.105,-65.2512 214.129,-45.9529 210.685,-31.5168"/>
<polygon fill="midnightblue" stroke="midnightblue" points="213.97,-30.2697 207.907,-21.581 207.229,-32.1541 213.97,-30.2697"/>
</g>
<!-- Node4 -->
<g id="node7" class="node"><title>Node4</title>
<a xlink:href="../../d9/d66/_audio_control_8h.html" target="_top" xlink:title="gaia/media/AudioControl.h">
<polygon fill="white" stroke="black" points="68.5,-58.5 68.5,-79.5 199.5,-79.5 199.5,-58.5 68.5,-58.5"/>
<text text-anchor="middle" x="134" y="-66.5" font-family="Helvetica,sans-Serif" font-size="10.00">gaia/media/AudioControl.h</text>
</a>
</g>
<!-- Node1&#45;&gt;Node4 -->
<g id="edge6" class="edge"><title>Node1&#45;&gt;Node4</title>
<path fill="none" stroke="midnightblue" d="M134,-116.362C134,-108.922 134,-98.7427 134,-89.7276"/>
<polygon fill="midnightblue" stroke="midnightblue" points="137.5,-89.5706 134,-79.5707 130.5,-89.5707 137.5,-89.5706"/>
</g>
<!-- Node4&#45;&gt;Node2 -->
<g id="edge8" class="edge"><title>Node4&#45;&gt;Node2</title>
<path fill="none" stroke="midnightblue" d="M121.161,-58.3619C110.998,-49.9408 96.5989,-38.0105 84.7958,-28.2308"/>
<polygon fill="midnightblue" stroke="midnightblue" points="86.691,-25.2558 76.7577,-21.5707 82.2248,-30.6459 86.691,-25.2558"/>
</g>
<!-- Node4&#45;&gt;Node3 -->
<g id="edge10" class="edge"><title>Node4&#45;&gt;Node3</title>
<path fill="none" stroke="midnightblue" d="M146.839,-58.3619C157.002,-49.9408 171.401,-38.0105 183.204,-28.2308"/>
<polygon fill="midnightblue" stroke="midnightblue" points="185.775,-30.6459 191.242,-21.5707 181.309,-25.2558 185.775,-30.6459"/>
</g>
</g>
</svg>
