<?xml version="1.0" encoding="UTF-8" standalone="no"?>
<!DOCTYPE svg PUBLIC "-//W3C//DTD SVG 1.1//EN"
 "http://www.w3.org/Graphics/SVG/1.1/DTD/svg11.dtd">
<!-- Generated by graphviz version 2.26.3 (20100126.1600)
 -->
<!-- Title: G Pages: 1 -->
<svg width="1086pt" height="196pt"
 viewBox="0.00 0.00 1086.00 196.37" xmlns="http://www.w3.org/2000/svg" xmlns:xlink="http://www.w3.org/1999/xlink">
<g id="graph1" class="graph" transform="scale(1 1) rotate(0) translate(4 192.37)">
<title>G</title>
<polygon fill="white" stroke="white" points="-4,5 -4,-192.37 1083,-192.37 1083,5 -4,5"/>
<!-- Node1 -->
<g id="node1" class="node"><title>Node1</title>
<polygon fill="#bfbfbf" stroke="black" points="531.5,-38.8705 531.5,-59.8705 692.5,-59.8705 692.5,-38.8705 531.5,-38.8705"/>
<text text-anchor="middle" x="612" y="-46.8705" font-family="Helvetica,sans-Serif" font-size="10.00">gaia::ui::AppSecurityPermissions</text>
</g>
<!-- Node2 -->
<g id="node2" class="node"><title>Node2</title>
<a xlink:href="../../d8/dac/classgaia_1_1core_1_1_widget.html" target="_top" xlink:title="The Widget class is the base class of all user interface component.">
<polygon fill="white" stroke="black" points="244,-33.8705 244,-54.8705 340,-54.8705 340,-33.8705 244,-33.8705"/>
<text text-anchor="middle" x="292" y="-41.8705" font-family="Helvetica,sans-Serif" font-size="10.00">gaia::core::Widget</text>
</a>
</g>
<!-- Node2&#45;&gt;Node1 -->
<g id="edge2" class="edge"><title>Node2&#45;&gt;Node1</title>
<path fill="none" stroke="#9a32cd" stroke-dasharray="5,2" d="M350.179,-44.2269C390.088,-44.235 444.255,-44.4555 492,-45.3705 504.713,-45.6141 518.181,-45.9687 531.322,-46.3676"/>
<polygon fill="#9a32cd" stroke="#9a32cd" points="350.093,-40.7268 340.094,-44.2293 350.095,-47.7268 350.093,-40.7268"/>
<text text-anchor="middle" x="436" y="-49.3705" font-family="Helvetica,sans-Serif" font-size="10.00"> mpWidget</text>
</g>
<!-- Node5 -->
<g id="node8" class="node"><title>Node5</title>
<a xlink:href="../../db/d6c/classgaia_1_1core_1_1_widget_controller.html" target="_top" xlink:title="Define the default widget layout to put sets of layout in it.">
<polygon fill="white" stroke="black" points="543,-82.8705 543,-103.87 681,-103.87 681,-82.8705 543,-82.8705"/>
<text text-anchor="middle" x="612" y="-90.8705" font-family="Helvetica,sans-Serif" font-size="10.00">gaia::core::WidgetController</text>
</a>
</g>
<!-- Node2&#45;&gt;Node5 -->
<g id="edge10" class="edge"><title>Node2&#45;&gt;Node5</title>
<path fill="none" stroke="midnightblue" d="M350.523,-53.7483C360.362,-55.3055 370.469,-56.8934 380,-58.3705 434.744,-66.8544 496.799,-76.2021 542.947,-83.1014"/>
<polygon fill="midnightblue" stroke="midnightblue" points="350.828,-50.253 340.403,-52.1426 349.731,-57.1666 350.828,-50.253"/>
</g>
<!-- Node3 -->
<g id="node4" class="node"><title>Node3</title>
<a xlink:href="../../d0/db2/classgaia_1_1core_1_1_property_animatable.html" target="_top" xlink:title="Any animation object need to implement PropertyAnimatable because of setting value.">
<polygon fill="white" stroke="black" points="0.5,-53.8705 0.5,-74.8705 151.5,-74.8705 151.5,-53.8705 0.5,-53.8705"/>
<text text-anchor="middle" x="76" y="-61.8705" font-family="Helvetica,sans-Serif" font-size="10.00">gaia::core::PropertyAnimatable</text>
</a>
</g>
<!-- Node3&#45;&gt;Node2 -->
<g id="edge4" class="edge"><title>Node3&#45;&gt;Node2</title>
<path fill="none" stroke="midnightblue" d="M161.729,-56.4326C189.663,-53.8461 219.676,-51.0672 243.845,-48.8293"/>
<polygon fill="midnightblue" stroke="midnightblue" points="161.181,-52.9683 151.546,-57.3754 161.826,-59.9385 161.181,-52.9683"/>
</g>
<!-- Node4 -->
<g id="node6" class="node"><title>Node4</title>
<a xlink:href="../../d5/dfb/classgaia_1_1core_1_1_scene.html" target="_top" xlink:title="A Scene is used to build a visual interface.">
<polygon fill="white" stroke="black" points="814.5,-90.8705 814.5,-111.87 907.5,-111.87 907.5,-90.8705 814.5,-90.8705"/>
<text text-anchor="middle" x="861" y="-98.8705" font-family="Helvetica,sans-Serif" font-size="10.00">gaia::core::Scene</text>
</a>
</g>
<!-- Node4&#45;&gt;Node2 -->
<g id="edge6" class="edge"><title>Node4&#45;&gt;Node2</title>
<path fill="none" stroke="#9a32cd" stroke-dasharray="5,2" d="M840.314,-84.617C813.217,-63.857 763.33,-29.6058 714,-16.3705 576.244,20.5899 404.572,-14.6613 329.769,-33.8177"/>
<polygon fill="#9a32cd" stroke="#9a32cd" points="838.246,-87.4426 848.282,-90.8394 842.555,-81.9258 838.246,-87.4426"/>
<text text-anchor="middle" x="612" y="-20.3705" font-family="Helvetica,sans-Serif" font-size="10.00"> mpScene</text>
</g>
<!-- Node4&#45;&gt;Node5 -->
<g id="edge14" class="edge"><title>Node4&#45;&gt;Node5</title>
<path fill="none" stroke="#9a32cd" stroke-dasharray="5,2" d="M824.883,-87.4986C815.608,-84.5503 805.549,-81.8747 796,-80.3705 753.452,-73.6679 704.822,-77.5968 668.246,-82.8358"/>
<polygon fill="#9a32cd" stroke="#9a32cd" points="823.984,-90.8891 834.578,-90.7624 826.218,-84.2549 823.984,-90.8891"/>
<text text-anchor="middle" x="764" y="-84.3705" font-family="Helvetica,sans-Serif" font-size="10.00"> mpScene</text>
</g>
<!-- Node11 -->
<g id="node23" class="node"><title>Node11</title>
<a xlink:href="../../db/d3f/classgaia_1_1core_1_1_page.html" target="_top" xlink:title="An page is a single, focused thing that the user can do.">
<polygon fill="white" stroke="black" points="990,-90.8705 990,-111.87 1078,-111.87 1078,-90.8705 990,-90.8705"/>
<text text-anchor="middle" x="1034" y="-98.8705" font-family="Helvetica,sans-Serif" font-size="10.00">gaia::core::Page</text>
</a>
</g>
<!-- Node4&#45;&gt;Node11 -->
<g id="edge28" class="edge"><title>Node4&#45;&gt;Node11</title>
<path fill="none" stroke="#9a32cd" stroke-dasharray="5,2" d="M917.951,-101.37C941.324,-101.37 967.968,-101.37 989.826,-101.37"/>
<polygon fill="#9a32cd" stroke="#9a32cd" points="917.816,-97.8706 907.816,-101.37 917.816,-104.871 917.816,-97.8706"/>
<text text-anchor="middle" x="949" y="-105.37" font-family="Helvetica,sans-Serif" font-size="10.00"> mpScene</text>
</g>
<!-- Node5&#45;&gt;Node4 -->
<g id="edge8" class="edge"><title>Node5&#45;&gt;Node4</title>
<path fill="none" stroke="#9a32cd" stroke-dasharray="5,2" d="M691.166,-95.914C731.716,-97.2168 779.698,-98.7583 814.299,-99.87"/>
<polygon fill="#9a32cd" stroke="#9a32cd" points="691.137,-92.4113 681.03,-95.5883 690.912,-99.4077 691.137,-92.4113"/>
<text text-anchor="middle" x="764" y="-102.37" font-family="Helvetica,sans-Serif" font-size="10.00"> mpController</text>
</g>
<!-- Node6 -->
<g id="node11" class="node"><title>Node6</title>
<a xlink:href="../../dd/de0/classgaia_1_1core_1_1_event_control.html" target="_top" xlink:title="EventControl is used to dispatch event and register listener.">
<polygon fill="white" stroke="black" points="231,-86.8705 231,-107.87 353,-107.87 353,-86.8705 231,-86.8705"/>
<text text-anchor="middle" x="292" y="-94.8705" font-family="Helvetica,sans-Serif" font-size="10.00">gaia::core::EventControl</text>
</a>
</g>
<!-- Node6&#45;&gt;Node5 -->
<g id="edge12" class="edge"><title>Node6&#45;&gt;Node5</title>
<path fill="none" stroke="midnightblue" d="M363.422,-96.4777C416.968,-95.8084 489.839,-94.8975 542.831,-94.2351"/>
<polygon fill="midnightblue" stroke="midnightblue" points="363.276,-92.9791 353.321,-96.604 363.364,-99.9786 363.276,-92.9791"/>
</g>
<!-- Node7 -->
<g id="node14" class="node"><title>Node7</title>
<a xlink:href="../../de/dad/classgaia_1_1content_1_1_resources.html" target="_top" xlink:title="Class for accessing an application&#39;s resources.">
<polygon fill="white" stroke="black" points="549,-166.87 549,-187.87 675,-187.87 675,-166.87 549,-166.87"/>
<text text-anchor="middle" x="612" y="-174.87" font-family="Helvetica,sans-Serif" font-size="10.00">gaia::content::Resources</text>
</a>
</g>
<!-- Node7&#45;&gt;Node4 -->
<g id="edge16" class="edge"><title>Node7&#45;&gt;Node4</title>
<path fill="none" stroke="#9a32cd" stroke-dasharray="5,2" d="M685.272,-168.623C719.682,-163.017 760.78,-154.129 796,-140.37 814.51,-133.14 833.798,-120.87 846.507,-112.022"/>
<polygon fill="#9a32cd" stroke="#9a32cd" points="684.626,-165.181 675.289,-170.188 685.711,-172.097 684.626,-165.181"/>
<text text-anchor="middle" x="764" y="-161.37" font-family="Helvetica,sans-Serif" font-size="10.00"> mpResources</text>
</g>
<!-- Node8 -->
<g id="node16" class="node"><title>Node8</title>
<a xlink:href="../../df/d5d/classgaia_1_1base_1_1_vector.html" target="_top" xlink:title="gaia::base::Vector\&lt; gaia::ui::DialogBox * \&gt;">
<polygon fill="white" stroke="black" points="510.5,-126.87 510.5,-147.87 713.5,-147.87 713.5,-126.87 510.5,-126.87"/>
<text text-anchor="middle" x="612" y="-134.87" font-family="Helvetica,sans-Serif" font-size="10.00">gaia::base::Vector&lt; gaia::ui::DialogBox * &gt;</text>
</a>
</g>
<!-- Node8&#45;&gt;Node4 -->
<g id="edge18" class="edge"><title>Node8&#45;&gt;Node4</title>
<path fill="none" stroke="#9a32cd" stroke-dasharray="5,2" d="M724.075,-125.659C747.878,-122.699 772.816,-119.245 796,-115.37 802.034,-114.362 808.356,-113.171 814.588,-111.917"/>
<polygon fill="#9a32cd" stroke="#9a32cd" points="723.454,-122.208 713.952,-126.896 724.303,-129.157 723.454,-122.208"/>
<text text-anchor="middle" x="764" y="-127.37" font-family="Helvetica,sans-Serif" font-size="10.00"> mDialogList</text>
</g>
<!-- Node9 -->
<g id="node18" class="node"><title>Node9</title>
<a xlink:href="../../d0/d21/classgaia_1_1base_1_1_vector_impl.html" target="_top" xlink:title="Implements vector data structure equipped with copy&#45;on&#45;write mechanism.">
<polygon fill="white" stroke="black" points="18.5,-146.87 18.5,-167.87 133.5,-167.87 133.5,-146.87 18.5,-146.87"/>
<text text-anchor="middle" x="76" y="-154.87" font-family="Helvetica,sans-Serif" font-size="10.00">gaia::base::VectorImpl</text>
</a>
</g>
<!-- Node9&#45;&gt;Node8 -->
<g id="edge20" class="edge"><title>Node9&#45;&gt;Node8</title>
<path fill="none" stroke="#8b1a1a" d="M143.899,-159.984C226.37,-162.443 369.645,-164.414 492,-154.37 510.14,-152.881 529.721,-150.458 547.7,-147.901"/>
<polygon fill="#8b1a1a" stroke="#8b1a1a" points="143.76,-156.478 133.657,-159.667 143.544,-163.475 143.76,-156.478"/>
</g>
<!-- Node10 -->
<g id="node20" class="node"><title>Node10</title>
<a xlink:href="../../df/d5d/classgaia_1_1base_1_1_vector.html" target="_top" xlink:title="This class implements the vector data structure.">
<polygon fill="white" stroke="black" points="222,-126.87 222,-147.87 362,-147.87 362,-126.87 222,-126.87"/>
<text text-anchor="middle" x="292" y="-134.87" font-family="Helvetica,sans-Serif" font-size="10.00">gaia::base::Vector&lt; TYPE &gt;</text>
</a>
</g>
<!-- Node9&#45;&gt;Node10 -->
<g id="edge24" class="edge"><title>Node9&#45;&gt;Node10</title>
<path fill="none" stroke="#8b1a1a" d="M143.676,-151.104C168.552,-148.801 196.761,-146.189 221.851,-143.866"/>
<polygon fill="#8b1a1a" stroke="#8b1a1a" points="143.235,-147.63 133.6,-152.037 143.88,-154.6 143.235,-147.63"/>
</g>
<!-- Node10&#45;&gt;Node8 -->
<g id="edge22" class="edge"><title>Node10&#45;&gt;Node8</title>
<path fill="none" stroke="orange" stroke-dasharray="5,2" d="M372.365,-137.37C414.198,-137.37 465.78,-137.37 510.358,-137.37"/>
<polygon fill="orange" stroke="orange" points="372.225,-133.871 362.225,-137.37 372.225,-140.871 372.225,-133.871"/>
<text text-anchor="middle" x="436" y="-141.37" font-family="Helvetica,sans-Serif" font-size="10.00"> &lt; gaia::ui::DialogBox * &gt;</text>
</g>
<!-- Node11&#45;&gt;Node4 -->
<g id="edge26" class="edge"><title>Node11&#45;&gt;Node4</title>
<path fill="none" stroke="#9a32cd" stroke-dasharray="5,2" d="M991.756,-88.1757C985.2,-86.5979 978.461,-85.2401 972,-84.3705 951.738,-81.643 946.277,-81.7627 926,-84.3705 915.704,-85.6946 904.71,-88.1528 894.749,-90.7964"/>
<polygon fill="#9a32cd" stroke="#9a32cd" points="991.28,-91.6682 1001.84,-90.7978 993.042,-84.8935 991.28,-91.6682"/>
<text text-anchor="middle" x="949" y="-88.3705" font-family="Helvetica,sans-Serif" font-size="10.00"> mpPage</text>
</g>
<!-- Node12 -->
<g id="node26" class="node"><title>Node12</title>
<a xlink:href="../../db/d88/classgaia_1_1core_1_1_widget_tag.html" target="_top" xlink:title="gaia::core::WidgetTag">
<polygon fill="white" stroke="black" points="19.5,-13.8705 19.5,-34.8705 132.5,-34.8705 132.5,-13.8705 19.5,-13.8705"/>
<text text-anchor="middle" x="76" y="-21.8705" font-family="Helvetica,sans-Serif" font-size="10.00">gaia::core::WidgetTag</text>
</a>
</g>
<!-- Node12&#45;&gt;Node2 -->
<g id="edge30" class="edge"><title>Node12&#45;&gt;Node2</title>
<path fill="none" stroke="#9a32cd" stroke-dasharray="5,2" d="M142.84,-29.9087C162.544,-31.597 184.145,-33.5021 204,-35.3705 216.844,-36.579 230.733,-37.9635 243.599,-39.2782"/>
<polygon fill="#9a32cd" stroke="#9a32cd" points="142.989,-26.4088 132.728,-29.0469 142.395,-33.3835 142.989,-26.4088"/>
<text text-anchor="middle" x="187" y="-39.3705" font-family="Helvetica,sans-Serif" font-size="10.00"> mpTag</text>
</g>
</g>
</svg>
