<?xml version="1.0" encoding="UTF-8" standalone="no"?>
<!DOCTYPE svg PUBLIC "-//W3C//DTD SVG 1.1//EN"
 "http://www.w3.org/Graphics/SVG/1.1/DTD/svg11.dtd">
<!-- Generated by graphviz version 2.26.3 (20100126.1600)
 -->
<!-- Title: G Pages: 1 -->
<svg width="278pt" height="146pt"
 viewBox="0.00 0.00 278.00 146.00" xmlns="http://www.w3.org/2000/svg" xmlns:xlink="http://www.w3.org/1999/xlink">
<g id="graph1" class="graph" transform="scale(1 1) rotate(0) translate(4 142)">
<title>G</title>
<polygon fill="white" stroke="white" points="-4,5 -4,-142 275,-142 275,5 -4,5"/>
<!-- Node1 -->
<g id="node1" class="node"><title>Node1</title>
<polygon fill="#bfbfbf" stroke="black" points="-0.5,-116.5 -0.5,-137.5 270.5,-137.5 270.5,-116.5 -0.5,-116.5"/>
<text text-anchor="middle" x="135" y="-124.5" font-family="Helvetica,sans-Serif" font-size="10.00">/home/vilon_tao/gaia/sdk/include/gaia/telephony/IccCard.h</text>
</g>
<!-- Node2 -->
<g id="node3" class="node"><title>Node2</title>
<a xlink:href="../../d9/d28/_enum_base_8h.html" target="_top" xlink:title="gaia/base/EnumBase.h">
<polygon fill="white" stroke="black" points="11,-58.5 11,-79.5 129,-79.5 129,-58.5 11,-58.5"/>
<text text-anchor="middle" x="70" y="-66.5" font-family="Helvetica,sans-Serif" font-size="10.00">gaia/base/EnumBase.h</text>
</a>
</g>
<!-- Node1&#45;&gt;Node2 -->
<g id="edge2" class="edge"><title>Node1&#45;&gt;Node2</title>
<path fill="none" stroke="midnightblue" d="M123.078,-116.362C113.641,-107.941 100.27,-96.0105 89.3104,-86.2308"/>
<polygon fill="midnightblue" stroke="midnightblue" points="91.6381,-83.6171 81.8464,-79.5707 86.9776,-88.8401 91.6381,-83.6171"/>
</g>
<!-- Node4 -->
<g id="node7" class="node"><title>Node4</title>
<a xlink:href="../../d1/dd0/gmacros_8h.html" target="_top" xlink:title="gaia/base/gmacros.h">
<polygon fill="white" stroke="black" points="146.5,-58.5 146.5,-79.5 253.5,-79.5 253.5,-58.5 146.5,-58.5"/>
<text text-anchor="middle" x="200" y="-66.5" font-family="Helvetica,sans-Serif" font-size="10.00">gaia/base/gmacros.h</text>
</a>
</g>
<!-- Node1&#45;&gt;Node4 -->
<g id="edge6" class="edge"><title>Node1&#45;&gt;Node4</title>
<path fill="none" stroke="midnightblue" d="M146.922,-116.362C156.359,-107.941 169.73,-96.0105 180.69,-86.2308"/>
<polygon fill="midnightblue" stroke="midnightblue" points="183.022,-88.8401 188.154,-79.5707 178.362,-83.6171 183.022,-88.8401"/>
</g>
<!-- Node3 -->
<g id="node5" class="node"><title>Node3</title>
<polygon fill="white" stroke="#bfbfbf" points="47,-0.5 47,-21.5 93,-21.5 93,-0.5 47,-0.5"/>
<text text-anchor="middle" x="70" y="-8.5" font-family="Helvetica,sans-Serif" font-size="10.00">cstdint</text>
</g>
<!-- Node2&#45;&gt;Node3 -->
<g id="edge4" class="edge"><title>Node2&#45;&gt;Node3</title>
<path fill="none" stroke="midnightblue" d="M70,-58.3619C70,-50.9219 70,-40.7427 70,-31.7276"/>
<polygon fill="midnightblue" stroke="midnightblue" points="73.5001,-31.5706 70,-21.5707 66.5001,-31.5707 73.5001,-31.5706"/>
</g>
</g>
</svg>
