<?xml version="1.0" encoding="UTF-8" standalone="no"?>
<!DOCTYPE svg PUBLIC "-//W3C//DTD SVG 1.1//EN"
 "http://www.w3.org/Graphics/SVG/1.1/DTD/svg11.dtd">
<!-- Generated by graphviz version 2.26.3 (20100126.1600)
 -->
<!-- Title: G Pages: 1 -->
<svg width="1556pt" height="320pt"
 viewBox="0.00 0.00 1556.00 320.00" xmlns="http://www.w3.org/2000/svg" xmlns:xlink="http://www.w3.org/1999/xlink">
<g id="graph1" class="graph" transform="scale(1 1) rotate(0) translate(4 316)">
<title>G</title>
<polygon fill="white" stroke="white" points="-4,5 -4,-316 1553,-316 1553,5 -4,5"/>
<!-- Node1 -->
<g id="node1" class="node"><title>Node1</title>
<polygon fill="#bfbfbf" stroke="black" points="601,-290.5 601,-311.5 861,-311.5 861,-290.5 601,-290.5"/>
<text text-anchor="middle" x="731" y="-298.5" font-family="Helvetica,sans-Serif" font-size="10.00">/home/vilon_tao/gaia/sdk/include/gaia/ui/IItemProvider.h</text>
</g>
<!-- Node2 -->
<g id="node3" class="node"><title>Node2</title>
<a xlink:href="../../d4/d8b/_i_list_item_provider_8h.html" target="_top" xlink:title="/home/vilon_tao/gaia/sdk/include/gaia/ui/IListItemProvider.h">
<polygon fill="white" stroke="black" points="593,-232.5 593,-253.5 869,-253.5 869,-232.5 593,-232.5"/>
<text text-anchor="middle" x="731" y="-240.5" font-family="Helvetica,sans-Serif" font-size="10.00">/home/vilon_tao/gaia/sdk/include/gaia/ui/IListItemProvider.h</text>
</a>
</g>
<!-- Node1&#45;&gt;Node2 -->
<g id="edge2" class="edge"><title>Node1&#45;&gt;Node2</title>
<path fill="none" stroke="midnightblue" d="M731,-280.191C731,-271.168 731,-260.994 731,-253.571"/>
<polygon fill="midnightblue" stroke="midnightblue" points="727.5,-280.362 731,-290.362 734.5,-280.362 727.5,-280.362"/>
</g>
<!-- Node3 -->
<g id="node5" class="node"><title>Node3</title>
<a xlink:href="../../d9/dd2/_abs_list_item_provider_8h.html" target="_top" xlink:title="/home/vilon_tao/gaia/sdk/include/gaia/ui/AbsListItemProvider.h">
<polygon fill="white" stroke="black" points="0,-174.5 0,-195.5 290,-195.5 290,-174.5 0,-174.5"/>
<text text-anchor="middle" x="145" y="-182.5" font-family="Helvetica,sans-Serif" font-size="10.00">/home/vilon_tao/gaia/sdk/include/gaia/ui/AbsListItemProvider.h</text>
</a>
</g>
<!-- Node2&#45;&gt;Node3 -->
<g id="edge4" class="edge"><title>Node2&#45;&gt;Node3</title>
<path fill="none" stroke="midnightblue" d="M614.794,-231.498C508.952,-221.023 353.951,-205.681 251.319,-195.523"/>
<polygon fill="midnightblue" stroke="midnightblue" points="614.584,-234.995 624.88,-232.497 615.273,-228.029 614.584,-234.995"/>
</g>
<!-- Node4 -->
<g id="node7" class="node"><title>Node4</title>
<a xlink:href="../../d3/d9b/_combo_picker_8h.html" target="_top" xlink:title="/home/vilon_tao/gaia/sdk/include/gaia/ui/ComboPicker.h">
<polygon fill="white" stroke="black" points="307.5,-174.5 307.5,-195.5 568.5,-195.5 568.5,-174.5 307.5,-174.5"/>
<text text-anchor="middle" x="438" y="-182.5" font-family="Helvetica,sans-Serif" font-size="10.00">/home/vilon_tao/gaia/sdk/include/gaia/ui/ComboPicker.h</text>
</a>
</g>
<!-- Node2&#45;&gt;Node4 -->
<g id="edge6" class="edge"><title>Node2&#45;&gt;Node4</title>
<path fill="none" stroke="midnightblue" d="M668.03,-230.535C615.313,-220.099 540.924,-205.374 491.16,-195.523"/>
<polygon fill="midnightblue" stroke="midnightblue" points="667.451,-233.988 677.94,-232.497 668.81,-227.121 667.451,-233.988"/>
</g>
<!-- Node5 -->
<g id="node9" class="node"><title>Node5</title>
<a xlink:href="../../d0/dcd/_i_cursor_item_provider_8h.html" target="_top" xlink:title="/home/vilon_tao/gaia/sdk/include/gaia/ui/ICursorItemProvider.h">
<polygon fill="white" stroke="black" points="586,-174.5 586,-195.5 876,-195.5 876,-174.5 586,-174.5"/>
<text text-anchor="middle" x="731" y="-182.5" font-family="Helvetica,sans-Serif" font-size="10.00">/home/vilon_tao/gaia/sdk/include/gaia/ui/ICursorItemProvider.h</text>
</a>
</g>
<!-- Node2&#45;&gt;Node5 -->
<g id="edge8" class="edge"><title>Node2&#45;&gt;Node5</title>
<path fill="none" stroke="midnightblue" d="M731,-222.191C731,-213.168 731,-202.994 731,-195.571"/>
<polygon fill="midnightblue" stroke="midnightblue" points="727.5,-222.362 731,-232.362 734.5,-222.362 727.5,-222.362"/>
</g>
<!-- Node6 -->
<g id="node11" class="node"><title>Node6</title>
<a xlink:href="../../d9/d41/_i_filterable_list_item_provider_8h.html" target="_top" xlink:title="/home/vilon_tao/gaia/sdk/include/gaia/ui/IFilterableListItemProvider.h">
<polygon fill="white" stroke="black" points="1218,-174.5 1218,-195.5 1534,-195.5 1534,-174.5 1218,-174.5"/>
<text text-anchor="middle" x="1376" y="-182.5" font-family="Helvetica,sans-Serif" font-size="10.00">/home/vilon_tao/gaia/sdk/include/gaia/ui/IFilterableListItemProvider.h</text>
</a>
</g>
<!-- Node2&#45;&gt;Node6 -->
<g id="edge10" class="edge"><title>Node2&#45;&gt;Node6</title>
<path fill="none" stroke="midnightblue" d="M857.851,-231.593C974.372,-221.115 1145.67,-205.712 1258.98,-195.523"/>
<polygon fill="midnightblue" stroke="midnightblue" points="857.451,-228.115 847.805,-232.497 858.078,-235.087 857.451,-228.115"/>
</g>
<!-- Node11 -->
<g id="node21" class="node"><title>Node11</title>
<a xlink:href="../../d8/de3/_i_simple_list_item_provider_8h.html" target="_top" xlink:title="/home/vilon_tao/gaia/sdk/include/gaia/ui/ISimpleListItemProvider.h">
<polygon fill="white" stroke="black" points="894,-174.5 894,-195.5 1200,-195.5 1200,-174.5 894,-174.5"/>
<text text-anchor="middle" x="1047" y="-182.5" font-family="Helvetica,sans-Serif" font-size="10.00">/home/vilon_tao/gaia/sdk/include/gaia/ui/ISimpleListItemProvider.h</text>
</a>
</g>
<!-- Node2&#45;&gt;Node11 -->
<g id="edge20" class="edge"><title>Node2&#45;&gt;Node11</title>
<path fill="none" stroke="midnightblue" d="M798.205,-230.665C855.101,-220.222 935.774,-205.415 989.667,-195.523"/>
<polygon fill="midnightblue" stroke="midnightblue" points="797.429,-227.249 788.225,-232.497 798.693,-234.134 797.429,-227.249"/>
</g>
<!-- Node7 -->
<g id="node13" class="node"><title>Node7</title>
<a xlink:href="../../d4/da1/_auto_complete_edit_widget_8h.html" target="_top" xlink:title="/home/vilon_tao/gaia/sdk/include/gaia/ui/AutoCompleteEditWidget.h">
<polygon fill="white" stroke="black" points="893,-116.5 893,-137.5 1205,-137.5 1205,-116.5 893,-116.5"/>
<text text-anchor="middle" x="1049" y="-124.5" font-family="Helvetica,sans-Serif" font-size="10.00">/home/vilon_tao/gaia/sdk/include/gaia/ui/AutoCompleteEditWidget.h</text>
</a>
</g>
<!-- Node6&#45;&gt;Node7 -->
<g id="edge12" class="edge"><title>Node6&#45;&gt;Node7</title>
<path fill="none" stroke="midnightblue" d="M1306.82,-172.73C1247.92,-162.283 1164.21,-147.435 1108.33,-137.523"/>
<polygon fill="midnightblue" stroke="midnightblue" points="1306.33,-176.196 1316.78,-174.497 1307.55,-169.304 1306.33,-176.196"/>
</g>
<!-- Node8 -->
<g id="node15" class="node"><title>Node8</title>
<a xlink:href="../../d7/d78/_cursor_list_item_provider_8h.html" target="_top" xlink:title="/home/vilon_tao/gaia/sdk/include/gaia/ui/CursorListItemProvider.h">
<polygon fill="white" stroke="black" points="1225,-116.5 1225,-137.5 1527,-137.5 1527,-116.5 1225,-116.5"/>
<text text-anchor="middle" x="1376" y="-124.5" font-family="Helvetica,sans-Serif" font-size="10.00">/home/vilon_tao/gaia/sdk/include/gaia/ui/CursorListItemProvider.h</text>
</a>
</g>
<!-- Node6&#45;&gt;Node8 -->
<g id="edge14" class="edge"><title>Node6&#45;&gt;Node8</title>
<path fill="none" stroke="midnightblue" d="M1376,-164.191C1376,-155.168 1376,-144.994 1376,-137.571"/>
<polygon fill="midnightblue" stroke="midnightblue" points="1372.5,-164.362 1376,-174.362 1379.5,-164.362 1372.5,-164.362"/>
</g>
<!-- Node9 -->
<g id="node17" class="node"><title>Node9</title>
<a xlink:href="../../db/d95/_resource_cursor_list_item_provider_8h.html" target="_top" xlink:title="/home/vilon_tao/gaia/sdk/include/gaia/ui/ResourceCursorListItemProvider.h">
<polygon fill="white" stroke="black" points="1204,-58.5 1204,-79.5 1548,-79.5 1548,-58.5 1204,-58.5"/>
<text text-anchor="middle" x="1376" y="-66.5" font-family="Helvetica,sans-Serif" font-size="10.00">/home/vilon_tao/gaia/sdk/include/gaia/ui/ResourceCursorListItemProvider.h</text>
</a>
</g>
<!-- Node8&#45;&gt;Node9 -->
<g id="edge16" class="edge"><title>Node8&#45;&gt;Node9</title>
<path fill="none" stroke="midnightblue" d="M1376,-106.191C1376,-97.1684 1376,-86.9941 1376,-79.5707"/>
<polygon fill="midnightblue" stroke="midnightblue" points="1372.5,-106.362 1376,-116.362 1379.5,-106.362 1372.5,-106.362"/>
</g>
<!-- Node10 -->
<g id="node19" class="node"><title>Node10</title>
<a xlink:href="../../db/daf/_simple_cursor_list_item_provider_8h.html" target="_top" xlink:title="/home/vilon_tao/gaia/sdk/include/gaia/ui/SimpleCursorListItemProvider.h">
<polygon fill="white" stroke="black" points="1210,-0.5 1210,-21.5 1542,-21.5 1542,-0.5 1210,-0.5"/>
<text text-anchor="middle" x="1376" y="-8.5" font-family="Helvetica,sans-Serif" font-size="10.00">/home/vilon_tao/gaia/sdk/include/gaia/ui/SimpleCursorListItemProvider.h</text>
</a>
</g>
<!-- Node9&#45;&gt;Node10 -->
<g id="edge18" class="edge"><title>Node9&#45;&gt;Node10</title>
<path fill="none" stroke="midnightblue" d="M1376,-48.1906C1376,-39.1684 1376,-28.9941 1376,-21.5707"/>
<polygon fill="midnightblue" stroke="midnightblue" points="1372.5,-48.3619 1376,-58.3619 1379.5,-48.3619 1372.5,-48.3619"/>
</g>
<!-- Node11&#45;&gt;Node7 -->
<g id="edge22" class="edge"><title>Node11&#45;&gt;Node7</title>
<path fill="none" stroke="midnightblue" d="M1047.72,-164.191C1048.03,-155.168 1048.38,-144.994 1048.64,-137.571"/>
<polygon fill="midnightblue" stroke="midnightblue" points="1044.21,-164.247 1047.37,-174.362 1051.21,-164.488 1044.21,-164.247"/>
</g>
</g>
</svg>
