<?xml version="1.0" encoding="UTF-8" standalone="no"?>
<!DOCTYPE svg PUBLIC "-//W3C//DTD SVG 1.1//EN"
 "http://www.w3.org/Graphics/SVG/1.1/DTD/svg11.dtd">
<!-- Generated by graphviz version 2.26.3 (20100126.1600)
 -->
<!-- Title: G Pages: 1 -->
<svg width="344pt" height="88pt"
 viewBox="0.00 0.00 344.00 88.00" xmlns="http://www.w3.org/2000/svg" xmlns:xlink="http://www.w3.org/1999/xlink">
<g id="graph1" class="graph" transform="scale(1 1) rotate(0) translate(4 84)">
<title>G</title>
<polygon fill="white" stroke="white" points="-4,5 -4,-84 341,-84 341,5 -4,5"/>
<!-- Node1 -->
<g id="node1" class="node"><title>Node1</title>
<polygon fill="#bfbfbf" stroke="black" points="117,-58.5 117,-79.5 229,-79.5 229,-58.5 117,-58.5"/>
<text text-anchor="middle" x="173" y="-66.5" font-family="Helvetica,sans-Serif" font-size="10.00">gaia::core::Subscriber</text>
</g>
<!-- Node2 -->
<g id="node3" class="node"><title>Node2</title>
<a xlink:href="../../d3/dd2/classgaia_1_1admin_1_1_device_admin_receiver.html" target="_top" xlink:title="class for implementing a device administration component.">
<polygon fill="white" stroke="black" points="0,-0.5 0,-21.5 170,-21.5 170,-0.5 0,-0.5"/>
<text text-anchor="middle" x="85" y="-8.5" font-family="Helvetica,sans-Serif" font-size="10.00">gaia::admin::DeviceAdminReceiver</text>
</a>
</g>
<!-- Node1&#45;&gt;Node2 -->
<g id="edge2" class="edge"><title>Node1&#45;&gt;Node2</title>
<path fill="none" stroke="midnightblue" d="M148.453,-52.8215C133.296,-42.8312 114.282,-30.2993 101.038,-21.5707"/>
<polygon fill="midnightblue" stroke="midnightblue" points="146.584,-55.7811 156.859,-58.3619 150.436,-49.9364 146.584,-55.7811"/>
</g>
<!-- Node3 -->
<g id="node5" class="node"><title>Node3</title>
<a xlink:href="../../d0/da6/classgaia_1_1core_1_1_app_widget_provider.html" target="_top" xlink:title="A convenience class to aid in implementing an AppWidget provider.">
<polygon fill="white" stroke="black" points="187.5,-0.5 187.5,-21.5 336.5,-21.5 336.5,-0.5 187.5,-0.5"/>
<text text-anchor="middle" x="262" y="-8.5" font-family="Helvetica,sans-Serif" font-size="10.00">gaia::core::AppWidgetProvider</text>
</a>
</g>
<!-- Node1&#45;&gt;Node3 -->
<g id="edge4" class="edge"><title>Node1&#45;&gt;Node3</title>
<path fill="none" stroke="midnightblue" d="M197.826,-52.8215C213.156,-42.8312 232.386,-30.2993 245.78,-21.5707"/>
<polygon fill="midnightblue" stroke="midnightblue" points="195.791,-49.9698 189.324,-58.3619 199.613,-55.8344 195.791,-49.9698"/>
</g>
</g>
</svg>
