<?xml version="1.0" encoding="UTF-8" standalone="no"?>
<!DOCTYPE svg PUBLIC "-//W3C//DTD SVG 1.1//EN"
 "http://www.w3.org/Graphics/SVG/1.1/DTD/svg11.dtd">
<!-- Generated by graphviz version 2.26.3 (20100126.1600)
 -->
<!-- Title: G Pages: 1 -->
<svg width="206pt" height="162pt"
 viewBox="0.00 0.00 206.00 162.00" xmlns="http://www.w3.org/2000/svg" xmlns:xlink="http://www.w3.org/1999/xlink">
<g id="graph1" class="graph" transform="scale(1 1) rotate(0) translate(4 158)">
<title>G</title>
<polygon fill="white" stroke="white" points="-4,5 -4,-158 203,-158 203,5 -4,5"/>
<!-- Node1 -->
<g id="node1" class="node"><title>Node1</title>
<polygon fill="#bfbfbf" stroke="black" points="96,-132.5 96,-153.5 198,-153.5 198,-132.5 96,-132.5"/>
<text text-anchor="middle" x="147" y="-140.5" font-family="Helvetica,sans-Serif" font-size="10.00">gaia::base::ListImpl</text>
</g>
<!-- Node2 -->
<g id="node3" class="node"><title>Node2</title>
<a xlink:href="../../df/d22/classgaia_1_1base_1_1_list.html" target="_top" xlink:title="The class implements circular bi&#45;directional linked list data structure.">
<polygon fill="white" stroke="black" points="0,-72.5 0,-93.5 128,-93.5 128,-72.5 0,-72.5"/>
<text text-anchor="middle" x="64" y="-80.5" font-family="Helvetica,sans-Serif" font-size="10.00">gaia::base::List&lt; TYPE &gt;</text>
</a>
</g>
<!-- Node1&#45;&gt;Node2 -->
<g id="edge2" class="edge"><title>Node1&#45;&gt;Node2</title>
<path fill="none" stroke="#8b1a1a" d="M123.73,-126.178C109.293,-115.742 91.1827,-102.65 78.7103,-93.6339"/>
<polygon fill="#8b1a1a" stroke="#8b1a1a" points="122.007,-129.251 132.161,-132.273 126.108,-123.578 122.007,-129.251"/>
</g>
<!-- Node3 -->
<g id="node5" class="node"><title>Node3</title>
<a xlink:href="../../df/d22/classgaia_1_1base_1_1_list.html" target="_top" xlink:title="gaia::base::List\&lt; X509Certificate * \&gt;">
<polygon fill="white" stroke="black" points="22,-0.5 22,-21.5 198,-21.5 198,-0.5 22,-0.5"/>
<text text-anchor="middle" x="110" y="-8.5" font-family="Helvetica,sans-Serif" font-size="10.00">gaia::base::List&lt; X509Certificate * &gt;</text>
</a>
</g>
<!-- Node1&#45;&gt;Node3 -->
<g id="edge6" class="edge"><title>Node1&#45;&gt;Node3</title>
<path fill="none" stroke="#8b1a1a" d="M153.825,-122.485C159.797,-100.7 165.592,-65.9029 152,-40 147.965,-32.3106 140.864,-26.2586 133.637,-21.7172"/>
<polygon fill="#8b1a1a" stroke="#8b1a1a" points="150.4,-121.723 150.876,-132.307 157.104,-123.736 150.4,-121.723"/>
</g>
<!-- Node2&#45;&gt;Node3 -->
<g id="edge4" class="edge"><title>Node2&#45;&gt;Node3</title>
<path fill="none" stroke="orange" stroke-dasharray="5,2" d="M54.6317,-62.8008C52.5125,-55.2255 51.9272,-46.8101 56,-40 60.861,-31.8718 68.8688,-25.8902 77.2478,-21.545"/>
<polygon fill="orange" stroke="orange" points="51.4241,-64.218 58.1787,-72.3805 57.9886,-61.7873 51.4241,-64.218"/>
<text text-anchor="middle" x="104" y="-44.5" font-family="Helvetica,sans-Serif" font-size="10.00"> &lt; X509Certificate * &gt;</text>
</g>
</g>
</svg>
