<?xml version="1.0" encoding="UTF-8" standalone="no"?>
<!DOCTYPE svg PUBLIC "-//W3C//DTD SVG 1.1//EN"
 "http://www.w3.org/Graphics/SVG/1.1/DTD/svg11.dtd">
<!-- Generated by graphviz version 2.26.3 (20100126.1600)
 -->
<!-- Title: G Pages: 1 -->
<svg width="192pt" height="162pt"
 viewBox="0.00 0.00 192.00 162.00" xmlns="http://www.w3.org/2000/svg" xmlns:xlink="http://www.w3.org/1999/xlink">
<g id="graph1" class="graph" transform="scale(1 1) rotate(0) translate(4 158)">
<title>G</title>
<polygon fill="white" stroke="white" points="-4,5 -4,-158 189,-158 189,5 -4,5"/>
<!-- Node1 -->
<g id="node1" class="node"><title>Node1</title>
<polygon fill="#bfbfbf" stroke="black" points="24,-72.5 24,-93.5 152,-93.5 152,-72.5 24,-72.5"/>
<text text-anchor="middle" x="88" y="-80.5" font-family="Helvetica,sans-Serif" font-size="10.00">gaia::base::List&lt; TYPE &gt;</text>
</g>
<!-- Node3 -->
<g id="node5" class="node"><title>Node3</title>
<a xlink:href="../../df/d22/classgaia_1_1base_1_1_list.html" target="_top" xlink:title="gaia::base::List\&lt; X509Certificate * \&gt;">
<polygon fill="white" stroke="black" points="0,-0.5 0,-21.5 176,-21.5 176,-0.5 0,-0.5"/>
<text text-anchor="middle" x="88" y="-8.5" font-family="Helvetica,sans-Serif" font-size="10.00">gaia::base::List&lt; X509Certificate * &gt;</text>
</a>
</g>
<!-- Node1&#45;&gt;Node3 -->
<g id="edge4" class="edge"><title>Node1&#45;&gt;Node3</title>
<path fill="none" stroke="orange" stroke-dasharray="5,2" d="M88,-62.2348C88,-48.969 88,-32.3188 88,-21.6674"/>
<polygon fill="orange" stroke="orange" points="84.5001,-62.3761 88,-72.3762 91.5001,-62.3762 84.5001,-62.3761"/>
<text text-anchor="middle" x="136" y="-44.5" font-family="Helvetica,sans-Serif" font-size="10.00"> &lt; X509Certificate * &gt;</text>
</g>
<!-- Node2 -->
<g id="node2" class="node"><title>Node2</title>
<a xlink:href="../../d8/d95/classgaia_1_1base_1_1_list_impl.html" target="_top" xlink:title="Implements list data structure.">
<polygon fill="white" stroke="black" points="37,-132.5 37,-153.5 139,-153.5 139,-132.5 37,-132.5"/>
<text text-anchor="middle" x="88" y="-140.5" font-family="Helvetica,sans-Serif" font-size="10.00">gaia::base::ListImpl</text>
</a>
</g>
<!-- Node2&#45;&gt;Node1 -->
<g id="edge2" class="edge"><title>Node2&#45;&gt;Node1</title>
<path fill="none" stroke="#8b1a1a" d="M88,-122.231C88,-112.592 88,-101.544 88,-93.6339"/>
<polygon fill="#8b1a1a" stroke="#8b1a1a" points="84.5001,-122.273 88,-132.273 91.5001,-122.273 84.5001,-122.273"/>
</g>
</g>
</svg>
