<?xml version="1.0" encoding="UTF-8" standalone="no"?>
<!DOCTYPE svg PUBLIC "-//W3C//DTD SVG 1.1//EN"
 "http://www.w3.org/Graphics/SVG/1.1/DTD/svg11.dtd">
<!-- Generated by graphviz version 2.26.3 (20100126.1600)
 -->
<!-- Title: G Pages: 1 -->
<svg width="380pt" height="146pt"
 viewBox="0.00 0.00 380.00 146.00" xmlns="http://www.w3.org/2000/svg" xmlns:xlink="http://www.w3.org/1999/xlink">
<g id="graph1" class="graph" transform="scale(1 1) rotate(0) translate(4 142)">
<title>G</title>
<polygon fill="white" stroke="white" points="-4,5 -4,-142 377,-142 377,5 -4,5"/>
<!-- Node1 -->
<g id="node1" class="node"><title>Node1</title>
<polygon fill="#bfbfbf" stroke="black" points="8,-116.5 8,-137.5 294,-137.5 294,-116.5 8,-116.5"/>
<text text-anchor="middle" x="151" y="-124.5" font-family="Helvetica,sans-Serif" font-size="10.00">/home/vilon_tao/gaia/sdk/include/gaia/webkit/ValueCallback.h</text>
</g>
<!-- Node2 -->
<g id="node3" class="node"><title>Node2</title>
<a xlink:href="../../db/d4a/_web_chrome_client_8h.html" target="_top" xlink:title="/home/vilon_tao/gaia/sdk/include/gaia/webkit/WebChromeClient.h">
<polygon fill="white" stroke="black" points="-0.5,-0.5 -0.5,-21.5 302.5,-21.5 302.5,-0.5 -0.5,-0.5"/>
<text text-anchor="middle" x="151" y="-8.5" font-family="Helvetica,sans-Serif" font-size="10.00">/home/vilon_tao/gaia/sdk/include/gaia/webkit/WebChromeClient.h</text>
</a>
</g>
<!-- Node1&#45;&gt;Node2 -->
<g id="edge2" class="edge"><title>Node1&#45;&gt;Node2</title>
<path fill="none" stroke="midnightblue" d="M118.246,-111.319C106.127,-103.69 93.7145,-93.2616 87,-80 74.7484,-55.8024 105.296,-33.9735 128.289,-21.6159"/>
<polygon fill="midnightblue" stroke="midnightblue" points="116.531,-114.37 126.934,-116.38 120.055,-108.322 116.531,-114.37"/>
</g>
<!-- Node3 -->
<g id="node5" class="node"><title>Node3</title>
<a xlink:href="../../d2/da3/_web_storage_8h.html" target="_top" xlink:title="/home/vilon_tao/gaia/sdk/include/gaia/webkit/WebStorage.h">
<polygon fill="white" stroke="black" points="95.5,-58.5 95.5,-79.5 372.5,-79.5 372.5,-58.5 95.5,-58.5"/>
<text text-anchor="middle" x="234" y="-66.5" font-family="Helvetica,sans-Serif" font-size="10.00">/home/vilon_tao/gaia/sdk/include/gaia/webkit/WebStorage.h</text>
</a>
</g>
<!-- Node1&#45;&gt;Node3 -->
<g id="edge4" class="edge"><title>Node1&#45;&gt;Node3</title>
<path fill="none" stroke="midnightblue" d="M174.554,-110.541C188.783,-100.597 206.499,-88.2177 218.873,-79.5707"/>
<polygon fill="midnightblue" stroke="midnightblue" points="172.416,-107.765 166.223,-116.362 176.425,-113.503 172.416,-107.765"/>
</g>
<!-- Node3&#45;&gt;Node2 -->
<g id="edge6" class="edge"><title>Node3&#45;&gt;Node2</title>
<path fill="none" stroke="midnightblue" d="M210.446,-52.5407C196.217,-42.5973 178.501,-30.2177 166.127,-21.5707"/>
<polygon fill="midnightblue" stroke="midnightblue" points="208.575,-55.5028 218.777,-58.3619 212.584,-49.7649 208.575,-55.5028"/>
</g>
</g>
</svg>
