<?xml version="1.0" encoding="UTF-8" standalone="no"?>
<!DOCTYPE svg PUBLIC "-//W3C//DTD SVG 1.1//EN"
 "http://www.w3.org/Graphics/SVG/1.1/DTD/svg11.dtd">
<!-- Generated by graphviz version 2.26.3 (20100126.1600)
 -->
<!-- Title: G Pages: 1 -->
<svg width="418pt" height="204pt"
 viewBox="0.00 0.00 418.00 204.00" xmlns="http://www.w3.org/2000/svg" xmlns:xlink="http://www.w3.org/1999/xlink">
<g id="graph1" class="graph" transform="scale(1 1) rotate(0) translate(4 200)">
<title>G</title>
<polygon fill="white" stroke="white" points="-4,5 -4,-200 415,-200 415,5 -4,5"/>
<!-- Node1 -->
<g id="node1" class="node"><title>Node1</title>
<polygon fill="#bfbfbf" stroke="black" points="-0.5,-174.5 -0.5,-195.5 294.5,-195.5 294.5,-174.5 -0.5,-174.5"/>
<text text-anchor="middle" x="147" y="-182.5" font-family="Helvetica,sans-Serif" font-size="10.00">/home/vilon_tao/gaia/sdk/include/gaia/system/SensorManager.h</text>
</g>
<!-- Node2 -->
<g id="node3" class="node"><title>Node2</title>
<polygon fill="white" stroke="#bfbfbf" points="42.5,-0.5 42.5,-21.5 91.5,-21.5 91.5,-0.5 42.5,-0.5"/>
<text text-anchor="middle" x="67" y="-8.5" font-family="Helvetica,sans-Serif" font-size="10.00">stdint.h</text>
</g>
<!-- Node1&#45;&gt;Node2 -->
<g id="edge2" class="edge"><title>Node1&#45;&gt;Node2</title>
<path fill="none" stroke="midnightblue" d="M125.647,-174.49C111.725,-166.471 94.4468,-154.069 85,-138 65.447,-104.741 64.1153,-58.3323 65.2973,-31.8051"/>
<polygon fill="midnightblue" stroke="midnightblue" points="68.7952,-31.9447 65.912,-21.7497 61.8083,-31.5175 68.7952,-31.9447"/>
</g>
<!-- Node3 -->
<g id="node5" class="node"><title>Node3</title>
<a xlink:href="../../d1/dd0/gmacros_8h.html" target="_top" xlink:title="gaia/base/gmacros.h">
<polygon fill="white" stroke="black" points="93.5,-116.5 93.5,-137.5 200.5,-137.5 200.5,-116.5 93.5,-116.5"/>
<text text-anchor="middle" x="147" y="-124.5" font-family="Helvetica,sans-Serif" font-size="10.00">gaia/base/gmacros.h</text>
</a>
</g>
<!-- Node1&#45;&gt;Node3 -->
<g id="edge4" class="edge"><title>Node1&#45;&gt;Node3</title>
<path fill="none" stroke="midnightblue" d="M147,-174.362C147,-166.922 147,-156.743 147,-147.728"/>
<polygon fill="midnightblue" stroke="midnightblue" points="150.5,-147.571 147,-137.571 143.5,-147.571 150.5,-147.571"/>
</g>
<!-- Node4 -->
<g id="node7" class="node"><title>Node4</title>
<a xlink:href="../../d4/d7f/_vector_8h.html" target="_top" xlink:title="gaia/base/Vector.h">
<polygon fill="white" stroke="black" points="218,-116.5 218,-137.5 316,-137.5 316,-116.5 218,-116.5"/>
<text text-anchor="middle" x="267" y="-124.5" font-family="Helvetica,sans-Serif" font-size="10.00">gaia/base/Vector.h</text>
</a>
</g>
<!-- Node1&#45;&gt;Node4 -->
<g id="edge6" class="edge"><title>Node1&#45;&gt;Node4</title>
<path fill="none" stroke="midnightblue" d="M168.731,-174.497C187.474,-165.438 214.767,-152.246 235.836,-142.063"/>
<polygon fill="midnightblue" stroke="midnightblue" points="237.545,-145.124 245.025,-137.621 234.498,-138.822 237.545,-145.124"/>
</g>
<!-- Node5 -->
<g id="node9" class="node"><title>Node5</title>
<a xlink:href="../../d1/d86/_type_helpers_8h.html" target="_top" xlink:title="gaia/base/TypeHelpers.h">
<polygon fill="white" stroke="black" points="113.5,-58.5 113.5,-79.5 238.5,-79.5 238.5,-58.5 113.5,-58.5"/>
<text text-anchor="middle" x="176" y="-66.5" font-family="Helvetica,sans-Serif" font-size="10.00">gaia/base/TypeHelpers.h</text>
</a>
</g>
<!-- Node4&#45;&gt;Node5 -->
<g id="edge8" class="edge"><title>Node4&#45;&gt;Node5</title>
<path fill="none" stroke="midnightblue" d="M250.309,-116.362C236.584,-107.614 216.916,-95.0786 201.263,-85.1015"/>
<polygon fill="midnightblue" stroke="midnightblue" points="202.899,-81.994 192.585,-79.5707 199.137,-87.8969 202.899,-81.994"/>
</g>
<!-- Node7 -->
<g id="node14" class="node"><title>Node7</title>
<polygon fill="white" stroke="#bfbfbf" points="232,-0.5 232,-21.5 300,-21.5 300,-0.5 232,-0.5"/>
<text text-anchor="middle" x="266" y="-8.5" font-family="Helvetica,sans-Serif" font-size="10.00">sys/types.h</text>
</g>
<!-- Node4&#45;&gt;Node7 -->
<g id="edge22" class="edge"><title>Node4&#45;&gt;Node7</title>
<path fill="none" stroke="midnightblue" d="M266.908,-116.295C266.743,-97.1314 266.394,-56.654 266.18,-31.8434"/>
<polygon fill="midnightblue" stroke="midnightblue" points="269.678,-31.6486 266.092,-21.6792 262.678,-31.709 269.678,-31.6486"/>
</g>
<!-- Node9 -->
<g id="node18" class="node"><title>Node9</title>
<a xlink:href="../../dc/da9/_vector_impl_8h.html" target="_top" xlink:title="gaia/base/VectorImpl.h">
<polygon fill="white" stroke="black" points="293.5,-58.5 293.5,-79.5 410.5,-79.5 410.5,-58.5 293.5,-58.5"/>
<text text-anchor="middle" x="352" y="-66.5" font-family="Helvetica,sans-Serif" font-size="10.00">gaia/base/VectorImpl.h</text>
</a>
</g>
<!-- Node4&#45;&gt;Node9 -->
<g id="edge18" class="edge"><title>Node4&#45;&gt;Node9</title>
<path fill="none" stroke="midnightblue" d="M282.59,-116.362C295.291,-107.696 313.438,-95.3126 327.992,-85.3819"/>
<polygon fill="midnightblue" stroke="midnightblue" points="330.221,-88.0982 336.509,-79.5707 326.276,-82.316 330.221,-88.0982"/>
</g>
<!-- Node5&#45;&gt;Node2 -->
<g id="edge10" class="edge"><title>Node5&#45;&gt;Node2</title>
<path fill="none" stroke="midnightblue" d="M156.261,-58.4966C139.39,-49.5194 114.891,-36.4835 95.8262,-26.3387"/>
<polygon fill="midnightblue" stroke="midnightblue" points="97.4327,-23.2289 86.9606,-21.6212 94.1445,-29.4086 97.4327,-23.2289"/>
</g>
<!-- Node6 -->
<g id="node12" class="node"><title>Node6</title>
<polygon fill="white" stroke="#bfbfbf" points="110.5,-0.5 110.5,-21.5 159.5,-21.5 159.5,-0.5 110.5,-0.5"/>
<text text-anchor="middle" x="135" y="-8.5" font-family="Helvetica,sans-Serif" font-size="10.00">string.h</text>
</g>
<!-- Node5&#45;&gt;Node6 -->
<g id="edge12" class="edge"><title>Node5&#45;&gt;Node6</title>
<path fill="none" stroke="midnightblue" d="M168.48,-58.3619C162.874,-50.4313 155.068,-39.3885 148.403,-29.9606"/>
<polygon fill="midnightblue" stroke="midnightblue" points="151.103,-27.7161 142.472,-21.5707 145.387,-31.7568 151.103,-27.7161"/>
</g>
<!-- Node5&#45;&gt;Node7 -->
<g id="edge14" class="edge"><title>Node5&#45;&gt;Node7</title>
<path fill="none" stroke="midnightblue" d="M192.507,-58.3619C206.082,-49.6138 225.533,-37.0786 241.015,-27.1015"/>
<polygon fill="midnightblue" stroke="midnightblue" points="243.088,-29.9297 249.597,-21.5707 239.296,-24.0457 243.088,-29.9297"/>
</g>
<!-- Node8 -->
<g id="node16" class="node"><title>Node8</title>
<polygon fill="white" stroke="#bfbfbf" points="176.5,-0.5 176.5,-21.5 211.5,-21.5 211.5,-0.5 176.5,-0.5"/>
<text text-anchor="middle" x="194" y="-8.5" font-family="Helvetica,sans-Serif" font-size="10.00">new</text>
</g>
<!-- Node5&#45;&gt;Node8 -->
<g id="edge16" class="edge"><title>Node5&#45;&gt;Node8</title>
<path fill="none" stroke="midnightblue" d="M179.301,-58.3619C181.661,-50.7584 184.909,-40.294 187.751,-31.1349"/>
<polygon fill="midnightblue" stroke="midnightblue" points="191.098,-32.1587 190.719,-21.5707 184.413,-30.0839 191.098,-32.1587"/>
</g>
<!-- Node9&#45;&gt;Node7 -->
<g id="edge20" class="edge"><title>Node9&#45;&gt;Node7</title>
<path fill="none" stroke="midnightblue" d="M336.226,-58.3619C323.376,-49.6955 305.015,-37.3126 290.29,-27.3819"/>
<polygon fill="midnightblue" stroke="midnightblue" points="291.921,-24.2604 281.674,-21.5707 288.007,-30.0639 291.921,-24.2604"/>
</g>
</g>
</svg>
