<?xml version="1.0" encoding="UTF-8" standalone="no"?>
<!DOCTYPE svg PUBLIC "-//W3C//DTD SVG 1.1//EN"
 "http://www.w3.org/Graphics/SVG/1.1/DTD/svg11.dtd">
<!-- Generated by graphviz version 2.26.3 (20100126.1600)
 -->
<!-- Title: G Pages: 1 -->
<svg width="675pt" height="204pt"
 viewBox="0.00 0.00 675.00 204.00" xmlns="http://www.w3.org/2000/svg" xmlns:xlink="http://www.w3.org/1999/xlink">
<g id="graph1" class="graph" transform="scale(1 1) rotate(0) translate(4 200)">
<title>G</title>
<polygon fill="white" stroke="white" points="-4,5 -4,-200 672,-200 672,5 -4,5"/>
<!-- Node1 -->
<g id="node1" class="node"><title>Node1</title>
<polygon fill="#bfbfbf" stroke="black" points="80,-174.5 80,-195.5 310,-195.5 310,-174.5 80,-174.5"/>
<text text-anchor="middle" x="195" y="-182.5" font-family="Helvetica,sans-Serif" font-size="10.00">/home/vilon_tao/gaia/sdk/include/gaia/net/DNS.h</text>
</g>
<!-- Node2 -->
<g id="node3" class="node"><title>Node2</title>
<a xlink:href="../../d3/dc5/_array_8h.html" target="_top" xlink:title="gaia/base/Array.h">
<polygon fill="white" stroke="black" points="363.5,-116.5 363.5,-137.5 456.5,-137.5 456.5,-116.5 363.5,-116.5"/>
<text text-anchor="middle" x="410" y="-124.5" font-family="Helvetica,sans-Serif" font-size="10.00">gaia/base/Array.h</text>
</a>
</g>
<!-- Node1&#45;&gt;Node2 -->
<g id="edge2" class="edge"><title>Node1&#45;&gt;Node2</title>
<path fill="none" stroke="midnightblue" d="M233.935,-174.497C269.593,-164.877 322.524,-150.598 361.036,-140.209"/>
<polygon fill="midnightblue" stroke="midnightblue" points="362.249,-143.507 370.992,-137.523 360.426,-136.748 362.249,-143.507"/>
</g>
<!-- Node9 -->
<g id="node19" class="node"><title>Node9</title>
<a xlink:href="../../db/db5/_string_8h.html" target="_top" xlink:title="gaia/base/String.h">
<polygon fill="white" stroke="black" points="147.5,-116.5 147.5,-137.5 242.5,-137.5 242.5,-116.5 147.5,-116.5"/>
<text text-anchor="middle" x="195" y="-124.5" font-family="Helvetica,sans-Serif" font-size="10.00">gaia/base/String.h</text>
</a>
</g>
<!-- Node1&#45;&gt;Node9 -->
<g id="edge20" class="edge"><title>Node1&#45;&gt;Node9</title>
<path fill="none" stroke="midnightblue" d="M195,-174.362C195,-166.922 195,-156.743 195,-147.728"/>
<polygon fill="midnightblue" stroke="midnightblue" points="198.5,-147.571 195,-137.571 191.5,-147.571 198.5,-147.571"/>
</g>
<!-- Node12 -->
<g id="node28" class="node"><title>Node12</title>
<a xlink:href="../../d1/d88/_net_types_8h.html" target="_top" xlink:title="gaia/net/NetTypes.h">
<polygon fill="white" stroke="black" points="-0.5,-116.5 -0.5,-137.5 104.5,-137.5 104.5,-116.5 -0.5,-116.5"/>
<text text-anchor="middle" x="52" y="-124.5" font-family="Helvetica,sans-Serif" font-size="10.00">gaia/net/NetTypes.h</text>
</a>
</g>
<!-- Node1&#45;&gt;Node12 -->
<g id="edge32" class="edge"><title>Node1&#45;&gt;Node12</title>
<path fill="none" stroke="midnightblue" d="M169.104,-174.497C146.367,-165.275 113.07,-151.769 87.7877,-141.515"/>
<polygon fill="midnightblue" stroke="midnightblue" points="88.7691,-138.136 78.1868,-137.621 86.1381,-144.623 88.7691,-138.136"/>
</g>
<!-- Node3 -->
<g id="node5" class="node"><title>Node3</title>
<a xlink:href="../../d8/dae/_array_impl_8h.html" target="_top" xlink:title="gaia/base/ArrayImpl.h">
<polygon fill="white" stroke="black" points="223,-58.5 223,-79.5 335,-79.5 335,-58.5 223,-58.5"/>
<text text-anchor="middle" x="279" y="-66.5" font-family="Helvetica,sans-Serif" font-size="10.00">gaia/base/ArrayImpl.h</text>
</a>
</g>
<!-- Node2&#45;&gt;Node3 -->
<g id="edge4" class="edge"><title>Node2&#45;&gt;Node3</title>
<path fill="none" stroke="midnightblue" d="M386.277,-116.497C365.632,-107.356 335.484,-94.0082 312.401,-83.7883"/>
<polygon fill="midnightblue" stroke="midnightblue" points="313.55,-80.4694 302.989,-79.6212 310.716,-86.8701 313.55,-80.4694"/>
</g>
<!-- Node4 -->
<g id="node7" class="node"><title>Node4</title>
<polygon fill="white" stroke="#bfbfbf" points="203,-0.5 203,-21.5 271,-21.5 271,-0.5 203,-0.5"/>
<text text-anchor="middle" x="237" y="-8.5" font-family="Helvetica,sans-Serif" font-size="10.00">sys/types.h</text>
</g>
<!-- Node2&#45;&gt;Node4 -->
<g id="edge18" class="edge"><title>Node2&#45;&gt;Node4</title>
<path fill="none" stroke="midnightblue" d="M441.965,-116.456C474.158,-104.164 516.365,-82.3926 496,-58 469.172,-25.8659 348.104,-15.6542 281.415,-12.4449"/>
<polygon fill="midnightblue" stroke="midnightblue" points="281.348,-8.93845 271.202,-11.9876 281.035,-15.9314 281.348,-8.93845"/>
</g>
<!-- Node5 -->
<g id="node9" class="node"><title>Node5</title>
<a xlink:href="../../d1/d86/_type_helpers_8h.html" target="_top" xlink:title="gaia/base/TypeHelpers.h">
<polygon fill="white" stroke="black" points="542.5,-58.5 542.5,-79.5 667.5,-79.5 667.5,-58.5 542.5,-58.5"/>
<text text-anchor="middle" x="605" y="-66.5" font-family="Helvetica,sans-Serif" font-size="10.00">gaia/base/TypeHelpers.h</text>
</a>
</g>
<!-- Node2&#45;&gt;Node5 -->
<g id="edge8" class="edge"><title>Node2&#45;&gt;Node5</title>
<path fill="none" stroke="midnightblue" d="M445.313,-116.497C477.379,-106.959 524.845,-92.8408 559.696,-82.475"/>
<polygon fill="midnightblue" stroke="midnightblue" points="561.034,-85.7288 569.621,-79.5231 559.038,-79.0193 561.034,-85.7288"/>
</g>
<!-- Node3&#45;&gt;Node4 -->
<g id="edge6" class="edge"><title>Node3&#45;&gt;Node4</title>
<path fill="none" stroke="midnightblue" d="M271.297,-58.3619C265.554,-50.4313 257.557,-39.3885 250.73,-29.9606"/>
<polygon fill="midnightblue" stroke="midnightblue" points="253.355,-27.6173 244.655,-21.5707 247.685,-31.7229 253.355,-27.6173"/>
</g>
<!-- Node5&#45;&gt;Node4 -->
<g id="edge14" class="edge"><title>Node5&#45;&gt;Node4</title>
<path fill="none" stroke="midnightblue" d="M542.157,-59.0953C467.915,-47.3943 346.302,-28.227 281.281,-17.9791"/>
<polygon fill="midnightblue" stroke="midnightblue" points="281.77,-14.5131 271.347,-16.4135 280.681,-21.4277 281.77,-14.5131"/>
</g>
<!-- Node6 -->
<g id="node11" class="node"><title>Node6</title>
<polygon fill="white" stroke="#bfbfbf" points="443.5,-0.5 443.5,-21.5 492.5,-21.5 492.5,-0.5 443.5,-0.5"/>
<text text-anchor="middle" x="468" y="-8.5" font-family="Helvetica,sans-Serif" font-size="10.00">stdint.h</text>
</g>
<!-- Node5&#45;&gt;Node6 -->
<g id="edge10" class="edge"><title>Node5&#45;&gt;Node6</title>
<path fill="none" stroke="midnightblue" d="M580.19,-58.4966C558.368,-49.258 526.392,-35.7209 502.156,-25.46"/>
<polygon fill="midnightblue" stroke="midnightblue" points="503.198,-22.1008 492.625,-21.4252 500.469,-28.5469 503.198,-22.1008"/>
</g>
<!-- Node7 -->
<g id="node13" class="node"><title>Node7</title>
<polygon fill="white" stroke="#bfbfbf" points="609.5,-0.5 609.5,-21.5 658.5,-21.5 658.5,-0.5 609.5,-0.5"/>
<text text-anchor="middle" x="634" y="-8.5" font-family="Helvetica,sans-Serif" font-size="10.00">string.h</text>
</g>
<!-- Node5&#45;&gt;Node7 -->
<g id="edge12" class="edge"><title>Node5&#45;&gt;Node7</title>
<path fill="none" stroke="midnightblue" d="M610.319,-58.3619C614.203,-50.5949 619.579,-39.8426 624.227,-30.5458"/>
<polygon fill="midnightblue" stroke="midnightblue" points="627.373,-32.0802 628.715,-21.5707 621.112,-28.9497 627.373,-32.0802"/>
</g>
<!-- Node8 -->
<g id="node16" class="node"><title>Node8</title>
<polygon fill="white" stroke="#bfbfbf" points="557.5,-0.5 557.5,-21.5 592.5,-21.5 592.5,-0.5 557.5,-0.5"/>
<text text-anchor="middle" x="575" y="-8.5" font-family="Helvetica,sans-Serif" font-size="10.00">new</text>
</g>
<!-- Node5&#45;&gt;Node8 -->
<g id="edge16" class="edge"><title>Node5&#45;&gt;Node8</title>
<path fill="none" stroke="midnightblue" d="M599.498,-58.3619C595.48,-50.5949 589.919,-39.8426 585.11,-30.5458"/>
<polygon fill="midnightblue" stroke="midnightblue" points="588.171,-28.8448 580.468,-21.5707 581.953,-32.0608 588.171,-28.8448"/>
</g>
<!-- Node9&#45;&gt;Node4 -->
<g id="edge30" class="edge"><title>Node9&#45;&gt;Node4</title>
<path fill="none" stroke="midnightblue" d="M197.351,-116.044C200.458,-102.264 206.434,-77.9867 214,-58 217.514,-48.7182 222.217,-38.7988 226.455,-30.4765"/>
<polygon fill="midnightblue" stroke="midnightblue" points="229.579,-32.0568 231.117,-21.5742 223.377,-28.8094 229.579,-32.0568"/>
</g>
<!-- Node10 -->
<g id="node21" class="node"><title>Node10</title>
<a xlink:href="../../d7/d97/_char_sequence_8h.html" target="_top" xlink:title="gaia/base/CharSequence.h">
<polygon fill="white" stroke="black" points="353,-58.5 353,-79.5 487,-79.5 487,-58.5 353,-58.5"/>
<text text-anchor="middle" x="420" y="-66.5" font-family="Helvetica,sans-Serif" font-size="10.00">gaia/base/CharSequence.h</text>
</a>
</g>
<!-- Node9&#45;&gt;Node10 -->
<g id="edge22" class="edge"><title>Node9&#45;&gt;Node10</title>
<path fill="none" stroke="midnightblue" d="M235.746,-116.497C273.221,-106.836 328.927,-92.4765 369.272,-82.0765"/>
<polygon fill="midnightblue" stroke="midnightblue" points="370.368,-85.4085 379.178,-79.5231 368.621,-78.6301 370.368,-85.4085"/>
</g>
<!-- Node11 -->
<g id="node24" class="node"><title>Node11</title>
<a xlink:href="../../d6/d83/_hash_func_8h.html" target="_top" xlink:title="gaia/base/HashFunc.h">
<polygon fill="white" stroke="black" points="52.5,-58.5 52.5,-79.5 167.5,-79.5 167.5,-58.5 52.5,-58.5"/>
<text text-anchor="middle" x="110" y="-66.5" font-family="Helvetica,sans-Serif" font-size="10.00">gaia/base/HashFunc.h</text>
</a>
</g>
<!-- Node9&#45;&gt;Node11 -->
<g id="edge26" class="edge"><title>Node9&#45;&gt;Node11</title>
<path fill="none" stroke="midnightblue" d="M179.41,-116.362C166.709,-107.696 148.562,-95.3126 134.008,-85.3819"/>
<polygon fill="midnightblue" stroke="midnightblue" points="135.724,-82.316 125.491,-79.5707 131.779,-88.0982 135.724,-82.316"/>
</g>
<!-- Node10&#45;&gt;Node6 -->
<g id="edge24" class="edge"><title>Node10&#45;&gt;Node6</title>
<path fill="none" stroke="midnightblue" d="M428.804,-58.3619C435.502,-50.2678 444.884,-38.9318 452.789,-29.3796"/>
<polygon fill="midnightblue" stroke="midnightblue" points="455.573,-31.5061 459.252,-21.5707 450.18,-27.0431 455.573,-31.5061"/>
</g>
<!-- Node11&#45;&gt;Node4 -->
<g id="edge28" class="edge"><title>Node11&#45;&gt;Node4</title>
<path fill="none" stroke="midnightblue" d="M132.999,-58.4966C153.013,-49.3562 182.241,-36.0082 204.619,-25.7883"/>
<polygon fill="midnightblue" stroke="midnightblue" points="206.101,-28.9592 213.743,-21.6212 203.193,-22.5918 206.101,-28.9592"/>
</g>
<!-- Node12&#45;&gt;Node4 -->
<g id="edge34" class="edge"><title>Node12&#45;&gt;Node4</title>
<path fill="none" stroke="midnightblue" d="M46.5311,-116.388C39.7862,-101.644 30.7381,-74.879 44,-58 62.1389,-34.9138 141.528,-21.7458 192.666,-15.5153"/>
<polygon fill="midnightblue" stroke="midnightblue" points="193.28,-18.9674 202.804,-14.3254 192.464,-12.0151 193.28,-18.9674"/>
</g>
</g>
</svg>
