<?xml version="1.0" encoding="UTF-8" standalone="no"?>
<!DOCTYPE svg PUBLIC "-//W3C//DTD SVG 1.1//EN"
 "http://www.w3.org/Graphics/SVG/1.1/DTD/svg11.dtd">
<!-- Generated by graphviz version 2.26.3 (20100126.1600)
 -->
<!-- Title: G Pages: 1 -->
<svg width="598pt" height="320pt"
 viewBox="0.00 0.00 598.00 320.00" xmlns="http://www.w3.org/2000/svg" xmlns:xlink="http://www.w3.org/1999/xlink">
<g id="graph1" class="graph" transform="scale(1 1) rotate(0) translate(4 316)">
<title>G</title>
<polygon fill="white" stroke="white" points="-4,5 -4,-316 595,-316 595,5 -4,5"/>
<!-- Node1 -->
<g id="node1" class="node"><title>Node1</title>
<polygon fill="#bfbfbf" stroke="black" points="308,-290.5 308,-311.5 590,-311.5 590,-290.5 308,-290.5"/>
<text text-anchor="middle" x="449" y="-298.5" font-family="Helvetica,sans-Serif" font-size="10.00">/home/vilon_tao/gaia/sdk/include/gaia/text/SpannableString.h</text>
</g>
<!-- Node2 -->
<g id="node3" class="node"><title>Node2</title>
<a xlink:href="../../d7/d1c/_spannable_8h.html" target="_top" xlink:title="gaia/text/Spannable.h">
<polygon fill="white" stroke="black" points="343.5,-232.5 343.5,-253.5 454.5,-253.5 454.5,-232.5 343.5,-232.5"/>
<text text-anchor="middle" x="399" y="-240.5" font-family="Helvetica,sans-Serif" font-size="10.00">gaia/text/Spannable.h</text>
</a>
</g>
<!-- Node1&#45;&gt;Node2 -->
<g id="edge2" class="edge"><title>Node1&#45;&gt;Node2</title>
<path fill="none" stroke="midnightblue" d="M439.829,-290.362C432.852,-282.268 423.079,-270.932 414.844,-261.38"/>
<polygon fill="midnightblue" stroke="midnightblue" points="417.293,-258.859 408.113,-253.571 411.991,-263.43 417.293,-258.859"/>
</g>
<!-- Node11 -->
<g id="node23" class="node"><title>Node11</title>
<a xlink:href="../../d7/d97/_char_sequence_8h.html" target="_top" xlink:title="gaia/base/CharSequence.h">
<polygon fill="white" stroke="black" points="451,-116.5 451,-137.5 585,-137.5 585,-116.5 451,-116.5"/>
<text text-anchor="middle" x="518" y="-124.5" font-family="Helvetica,sans-Serif" font-size="10.00">gaia/base/CharSequence.h</text>
</a>
</g>
<!-- Node1&#45;&gt;Node11 -->
<g id="edge36" class="edge"><title>Node1&#45;&gt;Node11</title>
<path fill="none" stroke="midnightblue" d="M453.212,-290.377C464.445,-262.051 495.258,-184.349 509.973,-147.242"/>
<polygon fill="midnightblue" stroke="midnightblue" points="513.234,-148.514 513.667,-137.928 506.727,-145.933 513.234,-148.514"/>
</g>
<!-- Node3 -->
<g id="node5" class="node"><title>Node3</title>
<a xlink:href="../../d7/dc2/_spanned_8h.html" target="_top" xlink:title="gaia/text/Spanned.h">
<polygon fill="white" stroke="black" points="311,-174.5 311,-195.5 415,-195.5 415,-174.5 311,-174.5"/>
<text text-anchor="middle" x="363" y="-182.5" font-family="Helvetica,sans-Serif" font-size="10.00">gaia/text/Spanned.h</text>
</a>
</g>
<!-- Node2&#45;&gt;Node3 -->
<g id="edge4" class="edge"><title>Node2&#45;&gt;Node3</title>
<path fill="none" stroke="midnightblue" d="M392.397,-232.362C387.525,-224.513 380.762,-213.616 374.95,-204.253"/>
<polygon fill="midnightblue" stroke="midnightblue" points="377.809,-202.221 369.561,-195.571 371.861,-205.913 377.809,-202.221"/>
</g>
<!-- Node4 -->
<g id="node7" class="node"><title>Node4</title>
<a xlink:href="../../d3/dc5/_array_8h.html" target="_top" xlink:title="gaia/base/Array.h">
<polygon fill="white" stroke="black" points="118.5,-116.5 118.5,-137.5 211.5,-137.5 211.5,-116.5 118.5,-116.5"/>
<text text-anchor="middle" x="165" y="-124.5" font-family="Helvetica,sans-Serif" font-size="10.00">gaia/base/Array.h</text>
</a>
</g>
<!-- Node3&#45;&gt;Node4 -->
<g id="edge6" class="edge"><title>Node3&#45;&gt;Node4</title>
<path fill="none" stroke="midnightblue" d="M327.144,-174.497C294.445,-164.918 245.974,-150.72 210.546,-140.342"/>
<polygon fill="midnightblue" stroke="midnightblue" points="211.504,-136.975 200.924,-137.523 209.536,-143.693 211.504,-136.975"/>
</g>
<!-- Node3&#45;&gt;Node11 -->
<g id="edge24" class="edge"><title>Node3&#45;&gt;Node11</title>
<path fill="none" stroke="midnightblue" d="M391.069,-174.497C416.01,-165.164 452.674,-151.445 480.192,-141.147"/>
<polygon fill="midnightblue" stroke="midnightblue" points="481.739,-144.306 489.878,-137.523 479.286,-137.75 481.739,-144.306"/>
</g>
<!-- Node12 -->
<g id="node26" class="node"><title>Node12</title>
<a xlink:href="../../d1/dd0/gmacros_8h.html" target="_top" xlink:title="gaia/base/gmacros.h">
<polygon fill="white" stroke="black" points="309.5,-58.5 309.5,-79.5 416.5,-79.5 416.5,-58.5 309.5,-58.5"/>
<text text-anchor="middle" x="363" y="-66.5" font-family="Helvetica,sans-Serif" font-size="10.00">gaia/base/gmacros.h</text>
</a>
</g>
<!-- Node3&#45;&gt;Node12 -->
<g id="edge28" class="edge"><title>Node3&#45;&gt;Node12</title>
<path fill="none" stroke="midnightblue" d="M333.229,-174.405C305.146,-162.592 269.372,-141.723 284,-116 292.154,-101.661 306.602,-91.2393 320.932,-83.9088"/>
<polygon fill="midnightblue" stroke="midnightblue" points="322.699,-86.9456 330.264,-79.528 319.725,-80.609 322.699,-86.9456"/>
</g>
<!-- Node13 -->
<g id="node28" class="node"><title>Node13</title>
<a xlink:href="../../d1/d81/_object_style_8h.html" target="_top" xlink:title="gaia/text/style/ObjectStyle.h">
<polygon fill="white" stroke="black" points="293,-116.5 293,-137.5 433,-137.5 433,-116.5 293,-116.5"/>
<text text-anchor="middle" x="363" y="-124.5" font-family="Helvetica,sans-Serif" font-size="10.00">gaia/text/style/ObjectStyle.h</text>
</a>
</g>
<!-- Node3&#45;&gt;Node13 -->
<g id="edge30" class="edge"><title>Node3&#45;&gt;Node13</title>
<path fill="none" stroke="midnightblue" d="M363,-174.362C363,-166.922 363,-156.743 363,-147.728"/>
<polygon fill="midnightblue" stroke="midnightblue" points="366.5,-147.571 363,-137.571 359.5,-147.571 366.5,-147.571"/>
</g>
<!-- Node5 -->
<g id="node9" class="node"><title>Node5</title>
<a xlink:href="../../d8/dae/_array_impl_8h.html" target="_top" xlink:title="gaia/base/ArrayImpl.h">
<polygon fill="white" stroke="black" points="0,-58.5 0,-79.5 112,-79.5 112,-58.5 0,-58.5"/>
<text text-anchor="middle" x="56" y="-66.5" font-family="Helvetica,sans-Serif" font-size="10.00">gaia/base/ArrayImpl.h</text>
</a>
</g>
<!-- Node4&#45;&gt;Node5 -->
<g id="edge8" class="edge"><title>Node4&#45;&gt;Node5</title>
<path fill="none" stroke="midnightblue" d="M145.261,-116.497C128.39,-107.519 103.891,-94.4835 84.8262,-84.3387"/>
<polygon fill="midnightblue" stroke="midnightblue" points="86.4327,-81.2289 75.9606,-79.6212 83.1445,-87.4086 86.4327,-81.2289"/>
</g>
<!-- Node6 -->
<g id="node11" class="node"><title>Node6</title>
<polygon fill="white" stroke="#bfbfbf" points="106,-0.5 106,-21.5 174,-21.5 174,-0.5 106,-0.5"/>
<text text-anchor="middle" x="140" y="-8.5" font-family="Helvetica,sans-Serif" font-size="10.00">sys/types.h</text>
</g>
<!-- Node4&#45;&gt;Node6 -->
<g id="edge22" class="edge"><title>Node4&#45;&gt;Node6</title>
<path fill="none" stroke="midnightblue" d="M162.693,-116.295C158.544,-97.0451 149.761,-56.2889 144.42,-31.5091"/>
<polygon fill="midnightblue" stroke="midnightblue" points="147.83,-30.7174 142.302,-21.6792 140.987,-32.1922 147.83,-30.7174"/>
</g>
<!-- Node7 -->
<g id="node13" class="node"><title>Node7</title>
<a xlink:href="../../d1/d86/_type_helpers_8h.html" target="_top" xlink:title="gaia/base/TypeHelpers.h">
<polygon fill="white" stroke="black" points="167.5,-58.5 167.5,-79.5 292.5,-79.5 292.5,-58.5 167.5,-58.5"/>
<text text-anchor="middle" x="230" y="-66.5" font-family="Helvetica,sans-Serif" font-size="10.00">gaia/base/TypeHelpers.h</text>
</a>
</g>
<!-- Node4&#45;&gt;Node7 -->
<g id="edge12" class="edge"><title>Node4&#45;&gt;Node7</title>
<path fill="none" stroke="midnightblue" d="M176.922,-116.362C186.359,-107.941 199.73,-96.0105 210.69,-86.2308"/>
<polygon fill="midnightblue" stroke="midnightblue" points="213.022,-88.8401 218.154,-79.5707 208.362,-83.6171 213.022,-88.8401"/>
</g>
<!-- Node5&#45;&gt;Node6 -->
<g id="edge10" class="edge"><title>Node5&#45;&gt;Node6</title>
<path fill="none" stroke="midnightblue" d="M71.4069,-58.3619C83.9582,-49.6955 101.892,-37.3126 116.275,-27.3819"/>
<polygon fill="midnightblue" stroke="midnightblue" points="118.45,-30.1327 124.691,-21.5707 114.473,-24.3725 118.45,-30.1327"/>
</g>
<!-- Node7&#45;&gt;Node6 -->
<g id="edge18" class="edge"><title>Node7&#45;&gt;Node6</title>
<path fill="none" stroke="midnightblue" d="M213.493,-58.3619C199.918,-49.6138 180.467,-37.0786 164.985,-27.1015"/>
<polygon fill="midnightblue" stroke="midnightblue" points="166.704,-24.0457 156.403,-21.5707 162.912,-29.9297 166.704,-24.0457"/>
</g>
<!-- Node8 -->
<g id="node15" class="node"><title>Node8</title>
<polygon fill="white" stroke="#bfbfbf" points="419.5,-0.5 419.5,-21.5 468.5,-21.5 468.5,-0.5 419.5,-0.5"/>
<text text-anchor="middle" x="444" y="-8.5" font-family="Helvetica,sans-Serif" font-size="10.00">stdint.h</text>
</g>
<!-- Node7&#45;&gt;Node8 -->
<g id="edge14" class="edge"><title>Node7&#45;&gt;Node8</title>
<path fill="none" stroke="midnightblue" d="M268.754,-58.4966C308.889,-47.6187 371.012,-30.7817 409.502,-20.3499"/>
<polygon fill="midnightblue" stroke="midnightblue" points="410.486,-23.7096 419.222,-17.7155 408.655,-16.9534 410.486,-23.7096"/>
</g>
<!-- Node9 -->
<g id="node17" class="node"><title>Node9</title>
<polygon fill="white" stroke="#bfbfbf" points="198.5,-0.5 198.5,-21.5 247.5,-21.5 247.5,-0.5 198.5,-0.5"/>
<text text-anchor="middle" x="223" y="-8.5" font-family="Helvetica,sans-Serif" font-size="10.00">string.h</text>
</g>
<!-- Node7&#45;&gt;Node9 -->
<g id="edge16" class="edge"><title>Node7&#45;&gt;Node9</title>
<path fill="none" stroke="midnightblue" d="M228.716,-58.3619C227.818,-50.9219 226.59,-40.7427 225.502,-31.7276"/>
<polygon fill="midnightblue" stroke="midnightblue" points="228.949,-31.0792 224.276,-21.5707 221.999,-31.918 228.949,-31.0792"/>
</g>
<!-- Node10 -->
<g id="node20" class="node"><title>Node10</title>
<polygon fill="white" stroke="#bfbfbf" points="264.5,-0.5 264.5,-21.5 299.5,-21.5 299.5,-0.5 264.5,-0.5"/>
<text text-anchor="middle" x="282" y="-8.5" font-family="Helvetica,sans-Serif" font-size="10.00">new</text>
</g>
<!-- Node7&#45;&gt;Node10 -->
<g id="edge20" class="edge"><title>Node7&#45;&gt;Node10</title>
<path fill="none" stroke="midnightblue" d="M239.538,-58.3619C246.868,-50.1861 257.163,-38.7025 265.781,-29.0907"/>
<polygon fill="midnightblue" stroke="midnightblue" points="268.453,-31.3528 272.523,-21.5707 263.241,-26.68 268.453,-31.3528"/>
</g>
<!-- Node11&#45;&gt;Node8 -->
<g id="edge26" class="edge"><title>Node11&#45;&gt;Node8</title>
<path fill="none" stroke="midnightblue" d="M511.171,-116.295C498.671,-96.6998 471.954,-54.8198 456.243,-30.1913"/>
<polygon fill="midnightblue" stroke="midnightblue" points="459.142,-28.2275 450.813,-21.6792 453.24,-31.9922 459.142,-28.2275"/>
</g>
<!-- Node13&#45;&gt;Node8 -->
<g id="edge32" class="edge"><title>Node13&#45;&gt;Node8</title>
<path fill="none" stroke="midnightblue" d="M383.121,-116.438C396.846,-108.244 414.394,-95.6557 425,-80 434.774,-65.5728 439.541,-46.2438 441.854,-31.7141"/>
<polygon fill="midnightblue" stroke="midnightblue" points="445.337,-32.0736 443.187,-21.6993 438.398,-31.1503 445.337,-32.0736"/>
</g>
<!-- Node13&#45;&gt;Node12 -->
<g id="edge34" class="edge"><title>Node13&#45;&gt;Node12</title>
<path fill="none" stroke="midnightblue" d="M363,-116.362C363,-108.922 363,-98.7427 363,-89.7276"/>
<polygon fill="midnightblue" stroke="midnightblue" points="366.5,-89.5706 363,-79.5707 359.5,-89.5707 366.5,-89.5706"/>
</g>
</g>
</svg>
