<?xml version="1.0" encoding="UTF-8" standalone="no"?>
<!DOCTYPE svg PUBLIC "-//W3C//DTD SVG 1.1//EN"
 "http://www.w3.org/Graphics/SVG/1.1/DTD/svg11.dtd">
<!-- Generated by graphviz version 2.26.3 (20100126.1600)
 -->
<!-- Title: G Pages: 1 -->
<svg width="164pt" height="320pt"
 viewBox="0.00 0.00 164.00 320.00" xmlns="http://www.w3.org/2000/svg" xmlns:xlink="http://www.w3.org/1999/xlink">
<g id="graph1" class="graph" transform="scale(1 1) rotate(0) translate(4 316)">
<title>G</title>
<polygon fill="white" stroke="white" points="-4,5 -4,-316 161,-316 161,5 -4,5"/>
<!-- Node1 -->
<g id="node1" class="node"><title>Node1</title>
<polygon fill="#bfbfbf" stroke="black" points="6.5,-116.5 6.5,-137.5 149.5,-137.5 149.5,-116.5 6.5,-116.5"/>
<text text-anchor="middle" x="78" y="-124.5" font-family="Helvetica,sans-Serif" font-size="10.00">gaia::text::ReplacementSpan</text>
</g>
<!-- Node5 -->
<g id="node9" class="node"><title>Node5</title>
<a xlink:href="../../de/d02/classgaia_1_1text_1_1_dynamic_drawer_span.html" target="_top" xlink:title="gaia::text::DynamicDrawerSpan">
<polygon fill="white" stroke="black" points="0,-58.5 0,-79.5 156,-79.5 156,-58.5 0,-58.5"/>
<text text-anchor="middle" x="78" y="-66.5" font-family="Helvetica,sans-Serif" font-size="10.00">gaia::text::DynamicDrawerSpan</text>
</a>
</g>
<!-- Node1&#45;&gt;Node5 -->
<g id="edge8" class="edge"><title>Node1&#45;&gt;Node5</title>
<path fill="none" stroke="midnightblue" d="M78,-106.191C78,-97.1684 78,-86.9941 78,-79.5707"/>
<polygon fill="midnightblue" stroke="midnightblue" points="74.5001,-106.362 78,-116.362 81.5001,-106.362 74.5001,-106.362"/>
</g>
<!-- Node2 -->
<g id="node2" class="node"><title>Node2</title>
<a xlink:href="../../d2/dff/classgaia_1_1text_1_1_metric_affecting_span.html" target="_top" xlink:title="The classes that affect character&#45;level text formatting in a way that changes the width or height of ...">
<polygon fill="white" stroke="black" points="2,-174.5 2,-195.5 154,-195.5 154,-174.5 2,-174.5"/>
<text text-anchor="middle" x="78" y="-182.5" font-family="Helvetica,sans-Serif" font-size="10.00">gaia::text::MetricAffectingSpan</text>
</a>
</g>
<!-- Node2&#45;&gt;Node1 -->
<g id="edge2" class="edge"><title>Node2&#45;&gt;Node1</title>
<path fill="none" stroke="midnightblue" d="M78,-164.191C78,-155.168 78,-144.994 78,-137.571"/>
<polygon fill="midnightblue" stroke="midnightblue" points="74.5001,-164.362 78,-174.362 81.5001,-164.362 74.5001,-164.362"/>
</g>
<!-- Node3 -->
<g id="node4" class="node"><title>Node3</title>
<a xlink:href="../../d9/d29/classgaia_1_1text_1_1_character_style.html" target="_top" xlink:title="The classes that affect character&#45;level text formatting extend this class.">
<polygon fill="white" stroke="black" points="14,-232.5 14,-253.5 142,-253.5 142,-232.5 14,-232.5"/>
<text text-anchor="middle" x="78" y="-240.5" font-family="Helvetica,sans-Serif" font-size="10.00">gaia::text::CharacterStyle</text>
</a>
</g>
<!-- Node3&#45;&gt;Node2 -->
<g id="edge4" class="edge"><title>Node3&#45;&gt;Node2</title>
<path fill="none" stroke="midnightblue" d="M78,-222.191C78,-213.168 78,-202.994 78,-195.571"/>
<polygon fill="midnightblue" stroke="midnightblue" points="74.5001,-222.362 78,-232.362 81.5001,-222.362 74.5001,-222.362"/>
</g>
<!-- Node4 -->
<g id="node6" class="node"><title>Node4</title>
<a xlink:href="../../d7/d55/classgaia_1_1text_1_1_object_style.html" target="_top" xlink:title="ObjectStyle is interface for spannable class.">
<polygon fill="white" stroke="black" points="21,-290.5 21,-311.5 135,-311.5 135,-290.5 21,-290.5"/>
<text text-anchor="middle" x="78" y="-298.5" font-family="Helvetica,sans-Serif" font-size="10.00">gaia::text::ObjectStyle</text>
</a>
</g>
<!-- Node4&#45;&gt;Node3 -->
<g id="edge6" class="edge"><title>Node4&#45;&gt;Node3</title>
<path fill="none" stroke="midnightblue" d="M78,-280.191C78,-271.168 78,-260.994 78,-253.571"/>
<polygon fill="midnightblue" stroke="midnightblue" points="74.5001,-280.362 78,-290.362 81.5001,-280.362 74.5001,-280.362"/>
</g>
<!-- Node6 -->
<g id="node11" class="node"><title>Node6</title>
<a xlink:href="../../d2/d21/classgaia_1_1text_1_1_image_span.html" target="_top" xlink:title="gaia::text::ImageSpan">
<polygon fill="white" stroke="black" points="21.5,-0.5 21.5,-21.5 134.5,-21.5 134.5,-0.5 21.5,-0.5"/>
<text text-anchor="middle" x="78" y="-8.5" font-family="Helvetica,sans-Serif" font-size="10.00">gaia::text::ImageSpan</text>
</a>
</g>
<!-- Node5&#45;&gt;Node6 -->
<g id="edge10" class="edge"><title>Node5&#45;&gt;Node6</title>
<path fill="none" stroke="midnightblue" d="M78,-48.1906C78,-39.1684 78,-28.9941 78,-21.5707"/>
<polygon fill="midnightblue" stroke="midnightblue" points="74.5001,-48.3619 78,-58.3619 81.5001,-48.3619 74.5001,-48.3619"/>
</g>
</g>
</svg>
