<?xml version="1.0" encoding="UTF-8" standalone="no"?>
<!DOCTYPE svg PUBLIC "-//W3C//DTD SVG 1.1//EN"
 "http://www.w3.org/Graphics/SVG/1.1/DTD/svg11.dtd">
<!-- Generated by graphviz version 2.26.3 (20100126.1600)
 -->
<!-- Title: G Pages: 1 -->
<svg width="312pt" height="204pt"
 viewBox="0.00 0.00 312.00 204.00" xmlns="http://www.w3.org/2000/svg" xmlns:xlink="http://www.w3.org/1999/xlink">
<g id="graph1" class="graph" transform="scale(1 1) rotate(0) translate(4 200)">
<title>G</title>
<polygon fill="white" stroke="white" points="-4,5 -4,-200 309,-200 309,5 -4,5"/>
<!-- Node1 -->
<g id="node1" class="node"><title>Node1</title>
<polygon fill="#bfbfbf" stroke="black" points="0,-174.5 0,-195.5 304,-195.5 304,-174.5 0,-174.5"/>
<text text-anchor="middle" x="152" y="-182.5" font-family="Helvetica,sans-Serif" font-size="10.00">/home/vilon_tao/gaia/sdk/include/gaia/ui/LinearControllerParams.h</text>
</g>
<!-- Node2 -->
<g id="node3" class="node"><title>Node2</title>
<a xlink:href="../../d3/db0/_margin_controller_params_8h.html" target="_top" xlink:title="gaia/ui/MarginControllerParams.h">
<polygon fill="white" stroke="black" points="71.5,-116.5 71.5,-137.5 232.5,-137.5 232.5,-116.5 71.5,-116.5"/>
<text text-anchor="middle" x="152" y="-124.5" font-family="Helvetica,sans-Serif" font-size="10.00">gaia/ui/MarginControllerParams.h</text>
</a>
</g>
<!-- Node1&#45;&gt;Node2 -->
<g id="edge2" class="edge"><title>Node1&#45;&gt;Node2</title>
<path fill="none" stroke="midnightblue" d="M152,-174.362C152,-166.922 152,-156.743 152,-147.728"/>
<polygon fill="midnightblue" stroke="midnightblue" points="155.5,-147.571 152,-137.571 148.5,-147.571 155.5,-147.571"/>
</g>
<!-- Node3 -->
<g id="node5" class="node"><title>Node3</title>
<a xlink:href="../../d9/de8/_controller_params_8h.html" target="_top" xlink:title="gaia/ui/ControllerParams.h">
<polygon fill="white" stroke="black" points="86,-58.5 86,-79.5 218,-79.5 218,-58.5 86,-58.5"/>
<text text-anchor="middle" x="152" y="-66.5" font-family="Helvetica,sans-Serif" font-size="10.00">gaia/ui/ControllerParams.h</text>
</a>
</g>
<!-- Node2&#45;&gt;Node3 -->
<g id="edge4" class="edge"><title>Node2&#45;&gt;Node3</title>
<path fill="none" stroke="midnightblue" d="M152,-116.362C152,-108.922 152,-98.7427 152,-89.7276"/>
<polygon fill="midnightblue" stroke="midnightblue" points="155.5,-89.5706 152,-79.5707 148.5,-89.5707 155.5,-89.5706"/>
</g>
<!-- Node4 -->
<g id="node7" class="node"><title>Node4</title>
<polygon fill="white" stroke="#bfbfbf" points="127.5,-0.5 127.5,-21.5 176.5,-21.5 176.5,-0.5 127.5,-0.5"/>
<text text-anchor="middle" x="152" y="-8.5" font-family="Helvetica,sans-Serif" font-size="10.00">stdint.h</text>
</g>
<!-- Node3&#45;&gt;Node4 -->
<g id="edge6" class="edge"><title>Node3&#45;&gt;Node4</title>
<path fill="none" stroke="midnightblue" d="M152,-58.3619C152,-50.9219 152,-40.7427 152,-31.7276"/>
<polygon fill="midnightblue" stroke="midnightblue" points="155.5,-31.5706 152,-21.5707 148.5,-31.5707 155.5,-31.5706"/>
</g>
</g>
</svg>
