<?xml version="1.0" encoding="UTF-8" standalone="no"?>
<!DOCTYPE svg PUBLIC "-//W3C//DTD SVG 1.1//EN"
 "http://www.w3.org/Graphics/SVG/1.1/DTD/svg11.dtd">
<!-- Generated by graphviz version 2.26.3 (20100126.1600)
 -->
<!-- Title: G Pages: 1 -->
<svg width="828pt" height="204pt"
 viewBox="0.00 0.00 828.00 204.00" xmlns="http://www.w3.org/2000/svg" xmlns:xlink="http://www.w3.org/1999/xlink">
<g id="graph1" class="graph" transform="scale(1 1) rotate(0) translate(4 200)">
<title>G</title>
<polygon fill="white" stroke="white" points="-4,5 -4,-200 825,-200 825,5 -4,5"/>
<!-- Node1 -->
<g id="node1" class="node"><title>Node1</title>
<polygon fill="#bfbfbf" stroke="black" points="245.5,-174.5 245.5,-195.5 592.5,-195.5 592.5,-174.5 245.5,-174.5"/>
<text text-anchor="middle" x="419" y="-182.5" font-family="Helvetica,sans-Serif" font-size="10.00">/home/vilon_tao/gaia/sdk/include/gaia/cloudstorage/CloudStorageManager.h</text>
</g>
<!-- Node2 -->
<g id="node3" class="node"><title>Node2</title>
<a xlink:href="../../dd/d0b/_hash_map_8h.html" target="_top" xlink:title="gaia/base/HashMap.h">
<polygon fill="white" stroke="black" points="149,-116.5 149,-137.5 261,-137.5 261,-116.5 149,-116.5"/>
<text text-anchor="middle" x="205" y="-124.5" font-family="Helvetica,sans-Serif" font-size="10.00">gaia/base/HashMap.h</text>
</a>
</g>
<!-- Node1&#45;&gt;Node2 -->
<g id="edge2" class="edge"><title>Node1&#45;&gt;Node2</title>
<path fill="none" stroke="midnightblue" d="M380.246,-174.497C344.754,-164.877 292.069,-150.598 253.736,-140.209"/>
<polygon fill="midnightblue" stroke="midnightblue" points="254.394,-136.761 243.826,-137.523 252.563,-143.517 254.394,-136.761"/>
</g>
<!-- Node6 -->
<g id="node12" class="node"><title>Node6</title>
<a xlink:href="../../d4/d7f/_vector_8h.html" target="_top" xlink:title="gaia/base/Vector.h">
<polygon fill="white" stroke="black" points="313,-116.5 313,-137.5 411,-137.5 411,-116.5 313,-116.5"/>
<text text-anchor="middle" x="362" y="-124.5" font-family="Helvetica,sans-Serif" font-size="10.00">gaia/base/Vector.h</text>
</a>
</g>
<!-- Node1&#45;&gt;Node6 -->
<g id="edge12" class="edge"><title>Node1&#45;&gt;Node6</title>
<path fill="none" stroke="midnightblue" d="M408.545,-174.362C400.43,-166.104 388.999,-154.472 379.496,-144.803"/>
<polygon fill="midnightblue" stroke="midnightblue" points="381.894,-142.25 372.388,-137.571 376.901,-147.156 381.894,-142.25"/>
</g>
<!-- Node12 -->
<g id="node27" class="node"><title>Node12</title>
<a xlink:href="../../db/db5/_string_8h.html" target="_top" xlink:title="gaia/base/String.h">
<polygon fill="white" stroke="black" points="428.5,-116.5 428.5,-137.5 523.5,-137.5 523.5,-116.5 428.5,-116.5"/>
<text text-anchor="middle" x="476" y="-124.5" font-family="Helvetica,sans-Serif" font-size="10.00">gaia/base/String.h</text>
</a>
</g>
<!-- Node1&#45;&gt;Node12 -->
<g id="edge30" class="edge"><title>Node1&#45;&gt;Node12</title>
<path fill="none" stroke="midnightblue" d="M429.455,-174.362C437.57,-166.104 449.001,-154.472 458.504,-144.803"/>
<polygon fill="midnightblue" stroke="midnightblue" points="461.099,-147.156 465.612,-137.571 456.106,-142.25 461.099,-147.156"/>
</g>
<!-- Node14 -->
<g id="node34" class="node"><title>Node14</title>
<a xlink:href="../../d1/de4/_cloud_storage_header_8h.html" target="_top" xlink:title="gaia/cloudstorage/CloudStorageHeader.h">
<polygon fill="white" stroke="black" points="625.5,-116.5 625.5,-137.5 820.5,-137.5 820.5,-116.5 625.5,-116.5"/>
<text text-anchor="middle" x="723" y="-124.5" font-family="Helvetica,sans-Serif" font-size="10.00">gaia/cloudstorage/CloudStorageHeader.h</text>
</a>
</g>
<!-- Node1&#45;&gt;Node14 -->
<g id="edge40" class="edge"><title>Node1&#45;&gt;Node14</title>
<path fill="none" stroke="midnightblue" d="M474.052,-174.497C525.758,-164.632 603.151,-149.866 657.897,-139.421"/>
<polygon fill="midnightblue" stroke="midnightblue" points="658.678,-142.835 667.845,-137.523 657.366,-135.959 658.678,-142.835"/>
</g>
<!-- Node3 -->
<g id="node5" class="node"><title>Node3</title>
<a xlink:href="../../d6/d83/_hash_func_8h.html" target="_top" xlink:title="gaia/base/HashFunc.h">
<polygon fill="white" stroke="black" points="147.5,-58.5 147.5,-79.5 262.5,-79.5 262.5,-58.5 147.5,-58.5"/>
<text text-anchor="middle" x="205" y="-66.5" font-family="Helvetica,sans-Serif" font-size="10.00">gaia/base/HashFunc.h</text>
</a>
</g>
<!-- Node2&#45;&gt;Node3 -->
<g id="edge4" class="edge"><title>Node2&#45;&gt;Node3</title>
<path fill="none" stroke="midnightblue" d="M205,-116.362C205,-108.922 205,-98.7427 205,-89.7276"/>
<polygon fill="midnightblue" stroke="midnightblue" points="208.5,-89.5706 205,-79.5707 201.5,-89.5707 208.5,-89.5706"/>
</g>
<!-- Node5 -->
<g id="node9" class="node"><title>Node5</title>
<a xlink:href="../../dc/d11/_hash_map_impl_8h.html" target="_top" xlink:title="gaia/base/HashMapImpl.h">
<polygon fill="white" stroke="black" points="-0.5,-58.5 -0.5,-79.5 130.5,-79.5 130.5,-58.5 -0.5,-58.5"/>
<text text-anchor="middle" x="65" y="-66.5" font-family="Helvetica,sans-Serif" font-size="10.00">gaia/base/HashMapImpl.h</text>
</a>
</g>
<!-- Node2&#45;&gt;Node5 -->
<g id="edge8" class="edge"><title>Node2&#45;&gt;Node5</title>
<path fill="none" stroke="midnightblue" d="M179.647,-116.497C157.387,-107.275 124.788,-93.7695 100.037,-83.5153"/>
<polygon fill="midnightblue" stroke="midnightblue" points="101.216,-80.2152 90.6374,-79.6212 98.5364,-86.6822 101.216,-80.2152"/>
</g>
<!-- Node4 -->
<g id="node7" class="node"><title>Node4</title>
<polygon fill="white" stroke="#bfbfbf" points="299,-0.5 299,-21.5 367,-21.5 367,-0.5 299,-0.5"/>
<text text-anchor="middle" x="333" y="-8.5" font-family="Helvetica,sans-Serif" font-size="10.00">sys/types.h</text>
</g>
<!-- Node3&#45;&gt;Node4 -->
<g id="edge6" class="edge"><title>Node3&#45;&gt;Node4</title>
<path fill="none" stroke="midnightblue" d="M228.18,-58.4966C248.352,-49.3562 277.81,-36.0082 300.364,-25.7883"/>
<polygon fill="midnightblue" stroke="midnightblue" points="301.896,-28.9366 309.56,-21.6212 299.007,-22.5606 301.896,-28.9366"/>
</g>
<!-- Node5&#45;&gt;Node4 -->
<g id="edge10" class="edge"><title>Node5&#45;&gt;Node4</title>
<path fill="none" stroke="midnightblue" d="M113.533,-58.4966C163.525,-47.6774 240.757,-30.9631 289.015,-20.5192"/>
<polygon fill="midnightblue" stroke="midnightblue" points="289.819,-23.9262 298.852,-18.3901 288.338,-17.0846 289.819,-23.9262"/>
</g>
<!-- Node6&#45;&gt;Node4 -->
<g id="edge28" class="edge"><title>Node6&#45;&gt;Node4</title>
<path fill="none" stroke="midnightblue" d="M343.566,-116.467C331.251,-108.287 316.062,-95.7024 309,-80 301.574,-63.4899 309.89,-43.9405 318.702,-29.8734"/>
<polygon fill="midnightblue" stroke="midnightblue" points="321.664,-31.7424 324.404,-21.508 315.88,-27.7998 321.664,-31.7424"/>
</g>
<!-- Node7 -->
<g id="node14" class="node"><title>Node7</title>
<a xlink:href="../../d1/d86/_type_helpers_8h.html" target="_top" xlink:title="gaia/base/TypeHelpers.h">
<polygon fill="white" stroke="black" points="489.5,-58.5 489.5,-79.5 614.5,-79.5 614.5,-58.5 489.5,-58.5"/>
<text text-anchor="middle" x="552" y="-66.5" font-family="Helvetica,sans-Serif" font-size="10.00">gaia/base/TypeHelpers.h</text>
</a>
</g>
<!-- Node6&#45;&gt;Node7 -->
<g id="edge14" class="edge"><title>Node6&#45;&gt;Node7</title>
<path fill="none" stroke="midnightblue" d="M396.408,-116.497C427.651,-106.959 473.901,-92.8408 507.858,-82.475"/>
<polygon fill="midnightblue" stroke="midnightblue" points="508.985,-85.7903 517.528,-79.5231 506.942,-79.0953 508.985,-85.7903"/>
</g>
<!-- Node11 -->
<g id="node23" class="node"><title>Node11</title>
<a xlink:href="../../dc/da9/_vector_impl_8h.html" target="_top" xlink:title="gaia/base/VectorImpl.h">
<polygon fill="white" stroke="black" points="317.5,-58.5 317.5,-79.5 434.5,-79.5 434.5,-58.5 317.5,-58.5"/>
<text text-anchor="middle" x="376" y="-66.5" font-family="Helvetica,sans-Serif" font-size="10.00">gaia/base/VectorImpl.h</text>
</a>
</g>
<!-- Node6&#45;&gt;Node11 -->
<g id="edge24" class="edge"><title>Node6&#45;&gt;Node11</title>
<path fill="none" stroke="midnightblue" d="M364.568,-116.362C366.383,-108.84 368.875,-98.5187 371.068,-89.4308"/>
<polygon fill="midnightblue" stroke="midnightblue" points="374.504,-90.1127 373.448,-79.5707 367.7,-88.4702 374.504,-90.1127"/>
</g>
<!-- Node7&#45;&gt;Node4 -->
<g id="edge20" class="edge"><title>Node7&#45;&gt;Node4</title>
<path fill="none" stroke="midnightblue" d="M512.341,-58.4966C474.241,-48.4064 416.782,-33.1888 377.223,-22.7121"/>
<polygon fill="midnightblue" stroke="midnightblue" points="377.887,-19.2672 367.324,-20.0904 376.095,-26.034 377.887,-19.2672"/>
</g>
<!-- Node8 -->
<g id="node16" class="node"><title>Node8</title>
<polygon fill="white" stroke="#bfbfbf" points="674.5,-0.5 674.5,-21.5 723.5,-21.5 723.5,-0.5 674.5,-0.5"/>
<text text-anchor="middle" x="699" y="-8.5" font-family="Helvetica,sans-Serif" font-size="10.00">stdint.h</text>
</g>
<!-- Node7&#45;&gt;Node8 -->
<g id="edge16" class="edge"><title>Node7&#45;&gt;Node8</title>
<path fill="none" stroke="midnightblue" d="M578.621,-58.4966C602.684,-49.0022 638.254,-34.968 664.492,-24.6154"/>
<polygon fill="midnightblue" stroke="midnightblue" points="666.03,-27.7711 674.048,-20.8451 663.461,-21.2596 666.03,-27.7711"/>
</g>
<!-- Node9 -->
<g id="node18" class="node"><title>Node9</title>
<polygon fill="white" stroke="#bfbfbf" points="497.5,-0.5 497.5,-21.5 546.5,-21.5 546.5,-0.5 497.5,-0.5"/>
<text text-anchor="middle" x="522" y="-8.5" font-family="Helvetica,sans-Serif" font-size="10.00">string.h</text>
</g>
<!-- Node7&#45;&gt;Node9 -->
<g id="edge18" class="edge"><title>Node7&#45;&gt;Node9</title>
<path fill="none" stroke="midnightblue" d="M546.498,-58.3619C542.48,-50.5949 536.919,-39.8426 532.11,-30.5458"/>
<polygon fill="midnightblue" stroke="midnightblue" points="535.171,-28.8448 527.468,-21.5707 528.953,-32.0608 535.171,-28.8448"/>
</g>
<!-- Node10 -->
<g id="node21" class="node"><title>Node10</title>
<polygon fill="white" stroke="#bfbfbf" points="563.5,-0.5 563.5,-21.5 598.5,-21.5 598.5,-0.5 563.5,-0.5"/>
<text text-anchor="middle" x="581" y="-8.5" font-family="Helvetica,sans-Serif" font-size="10.00">new</text>
</g>
<!-- Node7&#45;&gt;Node10 -->
<g id="edge22" class="edge"><title>Node7&#45;&gt;Node10</title>
<path fill="none" stroke="midnightblue" d="M557.319,-58.3619C561.203,-50.5949 566.579,-39.8426 571.227,-30.5458"/>
<polygon fill="midnightblue" stroke="midnightblue" points="574.373,-32.0802 575.715,-21.5707 568.112,-28.9497 574.373,-32.0802"/>
</g>
<!-- Node11&#45;&gt;Node4 -->
<g id="edge26" class="edge"><title>Node11&#45;&gt;Node4</title>
<path fill="none" stroke="midnightblue" d="M368.113,-58.3619C362.173,-50.3496 353.878,-39.1605 346.841,-29.6696"/>
<polygon fill="midnightblue" stroke="midnightblue" points="349.604,-27.5193 340.837,-21.5707 343.981,-31.6883 349.604,-27.5193"/>
</g>
<!-- Node12&#45;&gt;Node3 -->
<g id="edge36" class="edge"><title>Node12&#45;&gt;Node3</title>
<path fill="none" stroke="midnightblue" d="M428.485,-116.831C382.756,-107.044 313.472,-92.2154 264.182,-81.6662"/>
<polygon fill="midnightblue" stroke="midnightblue" points="264.804,-78.2203 254.293,-79.5499 263.339,-85.0653 264.804,-78.2203"/>
</g>
<!-- Node12&#45;&gt;Node4 -->
<g id="edge38" class="edge"><title>Node12&#45;&gt;Node4</title>
<path fill="none" stroke="midnightblue" d="M473.428,-116.242C469.352,-101.326 460.063,-74.3559 443,-58 424.734,-40.4906 398.938,-29.0017 376.917,-21.7687"/>
<polygon fill="midnightblue" stroke="midnightblue" points="377.693,-18.3453 367.106,-18.7385 375.628,-25.0336 377.693,-18.3453"/>
</g>
<!-- Node13 -->
<g id="node29" class="node"><title>Node13</title>
<a xlink:href="../../d7/d97/_char_sequence_8h.html" target="_top" xlink:title="gaia/base/CharSequence.h">
<polygon fill="white" stroke="black" points="632,-58.5 632,-79.5 766,-79.5 766,-58.5 632,-58.5"/>
<text text-anchor="middle" x="699" y="-66.5" font-family="Helvetica,sans-Serif" font-size="10.00">gaia/base/CharSequence.h</text>
</a>
</g>
<!-- Node12&#45;&gt;Node13 -->
<g id="edge32" class="edge"><title>Node12&#45;&gt;Node13</title>
<path fill="none" stroke="midnightblue" d="M516.384,-116.497C553.526,-106.836 608.737,-92.4765 648.723,-82.0765"/>
<polygon fill="midnightblue" stroke="midnightblue" points="649.744,-85.4276 658.541,-79.5231 647.982,-78.653 649.744,-85.4276"/>
</g>
<!-- Node13&#45;&gt;Node8 -->
<g id="edge34" class="edge"><title>Node13&#45;&gt;Node8</title>
<path fill="none" stroke="midnightblue" d="M699,-58.3619C699,-50.9219 699,-40.7427 699,-31.7276"/>
<polygon fill="midnightblue" stroke="midnightblue" points="702.5,-31.5706 699,-21.5707 695.5,-31.5707 702.5,-31.5706"/>
</g>
<!-- Node14&#45;&gt;Node8 -->
<g id="edge42" class="edge"><title>Node14&#45;&gt;Node8</title>
<path fill="none" stroke="midnightblue" d="M740.865,-116.412C760.41,-103.393 787.415,-80.2741 775,-58 765.993,-41.8404 748.887,-30.5373 733.18,-23.0726"/>
<polygon fill="midnightblue" stroke="midnightblue" points="734.232,-19.7122 723.667,-18.9117 731.426,-26.1256 734.232,-19.7122"/>
</g>
</g>
</svg>
