<?xml version="1.0" encoding="UTF-8" standalone="no"?>
<!DOCTYPE svg PUBLIC "-//W3C//DTD SVG 1.1//EN"
 "http://www.w3.org/Graphics/SVG/1.1/DTD/svg11.dtd">
<!-- Generated by graphviz version 2.26.3 (20100126.1600)
 -->
<!-- Title: G Pages: 1 -->
<svg width="560pt" height="262pt"
 viewBox="0.00 0.00 560.00 262.00" xmlns="http://www.w3.org/2000/svg" xmlns:xlink="http://www.w3.org/1999/xlink">
<g id="graph1" class="graph" transform="scale(1 1) rotate(0) translate(4 258)">
<title>G</title>
<polygon fill="white" stroke="white" points="-4,5 -4,-258 557,-258 557,5 -4,5"/>
<!-- Node1 -->
<g id="node1" class="node"><title>Node1</title>
<polygon fill="#bfbfbf" stroke="black" points="198.5,-232.5 198.5,-253.5 473.5,-253.5 473.5,-232.5 198.5,-232.5"/>
<text text-anchor="middle" x="336" y="-240.5" font-family="Helvetica,sans-Serif" font-size="10.00">/home/vilon_tao/gaia/sdk/include/gaia/text/SpannedString.h</text>
</g>
<!-- Node2 -->
<g id="node3" class="node"><title>Node2</title>
<a xlink:href="../../d7/dc2/_spanned_8h.html" target="_top" xlink:title="gaia/text/Spanned.h">
<polygon fill="white" stroke="black" points="284,-174.5 284,-195.5 388,-195.5 388,-174.5 284,-174.5"/>
<text text-anchor="middle" x="336" y="-182.5" font-family="Helvetica,sans-Serif" font-size="10.00">gaia/text/Spanned.h</text>
</a>
</g>
<!-- Node1&#45;&gt;Node2 -->
<g id="edge2" class="edge"><title>Node1&#45;&gt;Node2</title>
<path fill="none" stroke="midnightblue" d="M336,-232.362C336,-224.922 336,-214.743 336,-205.728"/>
<polygon fill="midnightblue" stroke="midnightblue" points="339.5,-205.571 336,-195.571 332.5,-205.571 339.5,-205.571"/>
</g>
<!-- Node3 -->
<g id="node5" class="node"><title>Node3</title>
<a xlink:href="../../d3/dc5/_array_8h.html" target="_top" xlink:title="gaia/base/Array.h">
<polygon fill="white" stroke="black" points="102.5,-116.5 102.5,-137.5 195.5,-137.5 195.5,-116.5 102.5,-116.5"/>
<text text-anchor="middle" x="149" y="-124.5" font-family="Helvetica,sans-Serif" font-size="10.00">gaia/base/Array.h</text>
</a>
</g>
<!-- Node2&#45;&gt;Node3 -->
<g id="edge4" class="edge"><title>Node2&#45;&gt;Node3</title>
<path fill="none" stroke="midnightblue" d="M302.136,-174.497C271.518,-165 226.257,-150.962 192.876,-140.609"/>
<polygon fill="midnightblue" stroke="midnightblue" points="193.516,-137.143 182.928,-137.523 191.442,-143.828 193.516,-137.143"/>
</g>
<!-- Node10 -->
<g id="node21" class="node"><title>Node10</title>
<a xlink:href="../../d7/d97/_char_sequence_8h.html" target="_top" xlink:title="gaia/base/CharSequence.h">
<polygon fill="white" stroke="black" points="222,-116.5 222,-137.5 356,-137.5 356,-116.5 222,-116.5"/>
<text text-anchor="middle" x="289" y="-124.5" font-family="Helvetica,sans-Serif" font-size="10.00">gaia/base/CharSequence.h</text>
</a>
</g>
<!-- Node2&#45;&gt;Node10 -->
<g id="edge22" class="edge"><title>Node2&#45;&gt;Node10</title>
<path fill="none" stroke="midnightblue" d="M327.379,-174.362C320.82,-166.268 311.634,-154.932 303.894,-145.38"/>
<polygon fill="midnightblue" stroke="midnightblue" points="306.581,-143.136 297.566,-137.571 301.142,-147.544 306.581,-143.136"/>
</g>
<!-- Node11 -->
<g id="node24" class="node"><title>Node11</title>
<a xlink:href="../../d1/dd0/gmacros_8h.html" target="_top" xlink:title="gaia/base/gmacros.h">
<polygon fill="white" stroke="black" points="347.5,-58.5 347.5,-79.5 454.5,-79.5 454.5,-58.5 347.5,-58.5"/>
<text text-anchor="middle" x="401" y="-66.5" font-family="Helvetica,sans-Serif" font-size="10.00">gaia/base/gmacros.h</text>
</a>
</g>
<!-- Node2&#45;&gt;Node11 -->
<g id="edge26" class="edge"><title>Node2&#45;&gt;Node11</title>
<path fill="none" stroke="midnightblue" d="M342.904,-174.305C348.925,-164.864 357.798,-150.67 365,-138 374.241,-121.742 384.013,-102.895 391.04,-89.0106"/>
<polygon fill="midnightblue" stroke="midnightblue" points="394.263,-90.3926 395.625,-79.8857 388.008,-87.2496 394.263,-90.3926"/>
</g>
<!-- Node12 -->
<g id="node26" class="node"><title>Node12</title>
<a xlink:href="../../d1/d81/_object_style_8h.html" target="_top" xlink:title="gaia/text/style/ObjectStyle.h">
<polygon fill="white" stroke="black" points="412,-116.5 412,-137.5 552,-137.5 552,-116.5 412,-116.5"/>
<text text-anchor="middle" x="482" y="-124.5" font-family="Helvetica,sans-Serif" font-size="10.00">gaia/text/style/ObjectStyle.h</text>
</a>
</g>
<!-- Node2&#45;&gt;Node12 -->
<g id="edge28" class="edge"><title>Node2&#45;&gt;Node12</title>
<path fill="none" stroke="midnightblue" d="M362.439,-174.497C385.756,-165.234 419.95,-151.65 445.804,-141.379"/>
<polygon fill="midnightblue" stroke="midnightblue" points="447.263,-144.566 455.264,-137.621 444.678,-138.06 447.263,-144.566"/>
</g>
<!-- Node4 -->
<g id="node7" class="node"><title>Node4</title>
<a xlink:href="../../d8/dae/_array_impl_8h.html" target="_top" xlink:title="gaia/base/ArrayImpl.h">
<polygon fill="white" stroke="black" points="0,-58.5 0,-79.5 112,-79.5 112,-58.5 0,-58.5"/>
<text text-anchor="middle" x="56" y="-66.5" font-family="Helvetica,sans-Serif" font-size="10.00">gaia/base/ArrayImpl.h</text>
</a>
</g>
<!-- Node3&#45;&gt;Node4 -->
<g id="edge6" class="edge"><title>Node3&#45;&gt;Node4</title>
<path fill="none" stroke="midnightblue" d="M131.942,-116.362C117.915,-107.614 97.8157,-95.0786 81.8179,-85.1015"/>
<polygon fill="midnightblue" stroke="midnightblue" points="83.2868,-81.8927 72.9495,-79.5707 79.5825,-87.8323 83.2868,-81.8927"/>
</g>
<!-- Node5 -->
<g id="node9" class="node"><title>Node5</title>
<polygon fill="white" stroke="#bfbfbf" points="99,-0.5 99,-21.5 167,-21.5 167,-0.5 99,-0.5"/>
<text text-anchor="middle" x="133" y="-8.5" font-family="Helvetica,sans-Serif" font-size="10.00">sys/types.h</text>
</g>
<!-- Node3&#45;&gt;Node5 -->
<g id="edge20" class="edge"><title>Node3&#45;&gt;Node5</title>
<path fill="none" stroke="midnightblue" d="M147.523,-116.295C144.88,-97.1314 139.297,-56.654 135.875,-31.8434"/>
<polygon fill="midnightblue" stroke="midnightblue" points="139.307,-31.1072 134.473,-21.6792 132.372,-32.0637 139.307,-31.1072"/>
</g>
<!-- Node6 -->
<g id="node11" class="node"><title>Node6</title>
<a xlink:href="../../d1/d86/_type_helpers_8h.html" target="_top" xlink:title="gaia/base/TypeHelpers.h">
<polygon fill="white" stroke="black" points="167.5,-58.5 167.5,-79.5 292.5,-79.5 292.5,-58.5 167.5,-58.5"/>
<text text-anchor="middle" x="230" y="-66.5" font-family="Helvetica,sans-Serif" font-size="10.00">gaia/base/TypeHelpers.h</text>
</a>
</g>
<!-- Node3&#45;&gt;Node6 -->
<g id="edge10" class="edge"><title>Node3&#45;&gt;Node6</title>
<path fill="none" stroke="midnightblue" d="M163.857,-116.362C175.846,-107.777 192.927,-95.5459 206.728,-85.6636"/>
<polygon fill="midnightblue" stroke="midnightblue" points="209.145,-88.2383 215.238,-79.5707 205.069,-82.5469 209.145,-88.2383"/>
</g>
<!-- Node4&#45;&gt;Node5 -->
<g id="edge8" class="edge"><title>Node4&#45;&gt;Node5</title>
<path fill="none" stroke="midnightblue" d="M70.123,-58.3619C81.5198,-49.7773 97.7581,-37.5459 110.878,-27.6636"/>
<polygon fill="midnightblue" stroke="midnightblue" points="113.085,-30.3829 118.967,-21.5707 108.873,-24.7916 113.085,-30.3829"/>
</g>
<!-- Node6&#45;&gt;Node5 -->
<g id="edge16" class="edge"><title>Node6&#45;&gt;Node5</title>
<path fill="none" stroke="midnightblue" d="M212.209,-58.3619C197.441,-49.532 176.222,-36.844 159.462,-26.8224"/>
<polygon fill="midnightblue" stroke="midnightblue" points="161.057,-23.6987 150.679,-21.5707 157.465,-29.7066 161.057,-23.6987"/>
</g>
<!-- Node7 -->
<g id="node13" class="node"><title>Node7</title>
<polygon fill="white" stroke="#bfbfbf" points="302.5,-0.5 302.5,-21.5 351.5,-21.5 351.5,-0.5 302.5,-0.5"/>
<text text-anchor="middle" x="327" y="-8.5" font-family="Helvetica,sans-Serif" font-size="10.00">stdint.h</text>
</g>
<!-- Node6&#45;&gt;Node7 -->
<g id="edge12" class="edge"><title>Node6&#45;&gt;Node7</title>
<path fill="none" stroke="midnightblue" d="M247.791,-58.3619C262.559,-49.532 283.778,-36.844 300.538,-26.8224"/>
<polygon fill="midnightblue" stroke="midnightblue" points="302.535,-29.7066 309.321,-21.5707 298.943,-23.6987 302.535,-29.7066"/>
</g>
<!-- Node8 -->
<g id="node15" class="node"><title>Node8</title>
<polygon fill="white" stroke="#bfbfbf" points="184.5,-0.5 184.5,-21.5 233.5,-21.5 233.5,-0.5 184.5,-0.5"/>
<text text-anchor="middle" x="209" y="-8.5" font-family="Helvetica,sans-Serif" font-size="10.00">string.h</text>
</g>
<!-- Node6&#45;&gt;Node8 -->
<g id="edge14" class="edge"><title>Node6&#45;&gt;Node8</title>
<path fill="none" stroke="midnightblue" d="M226.148,-58.3619C223.395,-50.7584 219.606,-40.294 216.29,-31.1349"/>
<polygon fill="midnightblue" stroke="midnightblue" points="219.523,-29.7818 212.827,-21.5707 212.941,-32.1649 219.523,-29.7818"/>
</g>
<!-- Node9 -->
<g id="node18" class="node"><title>Node9</title>
<polygon fill="white" stroke="#bfbfbf" points="250.5,-0.5 250.5,-21.5 285.5,-21.5 285.5,-0.5 250.5,-0.5"/>
<text text-anchor="middle" x="268" y="-8.5" font-family="Helvetica,sans-Serif" font-size="10.00">new</text>
</g>
<!-- Node6&#45;&gt;Node9 -->
<g id="edge18" class="edge"><title>Node6&#45;&gt;Node9</title>
<path fill="none" stroke="midnightblue" d="M236.97,-58.3619C242.166,-50.4313 249.401,-39.3885 255.578,-29.9606"/>
<polygon fill="midnightblue" stroke="midnightblue" points="258.522,-31.8534 261.074,-21.5707 252.666,-28.0172 258.522,-31.8534"/>
</g>
<!-- Node10&#45;&gt;Node7 -->
<g id="edge24" class="edge"><title>Node10&#45;&gt;Node7</title>
<path fill="none" stroke="midnightblue" d="M292.507,-116.295C298.813,-97.0451 312.164,-56.2889 320.282,-31.5091"/>
<polygon fill="midnightblue" stroke="midnightblue" points="323.715,-32.2719 323.502,-21.6792 317.062,-30.0927 323.715,-32.2719"/>
</g>
<!-- Node12&#45;&gt;Node7 -->
<g id="edge30" class="edge"><title>Node12&#45;&gt;Node7</title>
<path fill="none" stroke="midnightblue" d="M482.007,-116.431C481.442,-101.493 478.215,-74.222 463,-58 436.629,-29.884 392.637,-18.5864 361.848,-14.0473"/>
<polygon fill="midnightblue" stroke="midnightblue" points="361.927,-10.5281 351.559,-12.7072 361.023,-17.4695 361.927,-10.5281"/>
</g>
<!-- Node12&#45;&gt;Node11 -->
<g id="edge32" class="edge"><title>Node12&#45;&gt;Node11</title>
<path fill="none" stroke="midnightblue" d="M467.143,-116.362C455.154,-107.777 438.073,-95.5459 424.272,-85.6636"/>
<polygon fill="midnightblue" stroke="midnightblue" points="425.931,-82.5469 415.762,-79.5707 421.855,-88.2383 425.931,-82.5469"/>
</g>
</g>
</svg>
