<?xml version="1.0" encoding="UTF-8" standalone="no"?>
<!DOCTYPE svg PUBLIC "-//W3C//DTD SVG 1.1//EN"
 "http://www.w3.org/Graphics/SVG/1.1/DTD/svg11.dtd">
<!-- Generated by graphviz version 2.26.3 (20100126.1600)
 -->
<!-- Title: G Pages: 1 -->
<svg width="326pt" height="146pt"
 viewBox="0.00 0.00 326.00 146.00" xmlns="http://www.w3.org/2000/svg" xmlns:xlink="http://www.w3.org/1999/xlink">
<g id="graph1" class="graph" transform="scale(1 1) rotate(0) translate(4 142)">
<title>G</title>
<polygon fill="white" stroke="white" points="-4,5 -4,-142 323,-142 323,5 -4,5"/>
<!-- Node1 -->
<g id="node1" class="node"><title>Node1</title>
<polygon fill="#bfbfbf" stroke="black" points="0,-116.5 0,-137.5 318,-137.5 318,-116.5 0,-116.5"/>
<text text-anchor="middle" x="159" y="-124.5" font-family="Helvetica,sans-Serif" font-size="10.00">/home/vilon_tao/gaia/sdk/include/gaia/admin/DeviceAdminReceiver.h</text>
</g>
<!-- Node2 -->
<g id="node3" class="node"><title>Node2</title>
<polygon fill="white" stroke="#bfbfbf" points="85.5,-58.5 85.5,-79.5 134.5,-79.5 134.5,-58.5 85.5,-58.5"/>
<text text-anchor="middle" x="110" y="-66.5" font-family="Helvetica,sans-Serif" font-size="10.00">stdint.h</text>
</g>
<!-- Node1&#45;&gt;Node2 -->
<g id="edge2" class="edge"><title>Node1&#45;&gt;Node2</title>
<path fill="none" stroke="midnightblue" d="M150.013,-116.362C143.175,-108.268 133.598,-96.9318 125.528,-87.3796"/>
<polygon fill="midnightblue" stroke="midnightblue" points="128.058,-84.9508 118.93,-79.5707 122.71,-89.4683 128.058,-84.9508"/>
</g>
<!-- Node3 -->
<g id="node5" class="node"><title>Node3</title>
<a xlink:href="../../da/d21/_subscriber_8h.html" target="_top" xlink:title="gaia/core/Subscriber.h">
<polygon fill="white" stroke="black" points="152,-58.5 152,-79.5 266,-79.5 266,-58.5 152,-58.5"/>
<text text-anchor="middle" x="209" y="-66.5" font-family="Helvetica,sans-Serif" font-size="10.00">gaia/core/Subscriber.h</text>
</a>
</g>
<!-- Node1&#45;&gt;Node3 -->
<g id="edge4" class="edge"><title>Node1&#45;&gt;Node3</title>
<path fill="none" stroke="midnightblue" d="M168.171,-116.362C175.148,-108.268 184.921,-96.9318 193.156,-87.3796"/>
<polygon fill="midnightblue" stroke="midnightblue" points="196.009,-89.4301 199.887,-79.5707 190.707,-84.8595 196.009,-89.4301"/>
</g>
<!-- Node4 -->
<g id="node7" class="node"><title>Node4</title>
<polygon fill="white" stroke="#bfbfbf" points="175,-0.5 175,-21.5 243,-21.5 243,-0.5 175,-0.5"/>
<text text-anchor="middle" x="209" y="-8.5" font-family="Helvetica,sans-Serif" font-size="10.00">sys/types.h</text>
</g>
<!-- Node3&#45;&gt;Node4 -->
<g id="edge6" class="edge"><title>Node3&#45;&gt;Node4</title>
<path fill="none" stroke="midnightblue" d="M209,-58.3619C209,-50.9219 209,-40.7427 209,-31.7276"/>
<polygon fill="midnightblue" stroke="midnightblue" points="212.5,-31.5706 209,-21.5707 205.5,-31.5707 212.5,-31.5706"/>
</g>
</g>
</svg>
