<?xml version="1.0" encoding="UTF-8" standalone="no"?>
<!DOCTYPE svg PUBLIC "-//W3C//DTD SVG 1.1//EN"
 "http://www.w3.org/Graphics/SVG/1.1/DTD/svg11.dtd">
<!-- Generated by graphviz version 2.26.3 (20100126.1600)
 -->
<!-- Title: G Pages: 1 -->
<svg width="922pt" height="146pt"
 viewBox="0.00 0.00 922.00 146.00" xmlns="http://www.w3.org/2000/svg" xmlns:xlink="http://www.w3.org/1999/xlink">
<g id="graph1" class="graph" transform="scale(1 1) rotate(0) translate(4 142)">
<title>G</title>
<polygon fill="white" stroke="white" points="-4,5 -4,-142 919,-142 919,5 -4,5"/>
<!-- Node1 -->
<g id="node1" class="node"><title>Node1</title>
<polygon fill="#bfbfbf" stroke="black" points="319.5,-116.5 319.5,-137.5 594.5,-137.5 594.5,-116.5 319.5,-116.5"/>
<text text-anchor="middle" x="457" y="-124.5" font-family="Helvetica,sans-Serif" font-size="10.00">/home/vilon_tao/gaia/sdk/include/gaia/ui/dialog/DialogBox.h</text>
</g>
<!-- Node2 -->
<g id="node3" class="node"><title>Node2</title>
<a xlink:href="../../db/d62/_alert_box_8h.html" target="_top" xlink:title="/home/vilon_tao/gaia/sdk/include/gaia/ui/dialog/AlertBox.h">
<polygon fill="white" stroke="black" points="323,-58.5 323,-79.5 591,-79.5 591,-58.5 323,-58.5"/>
<text text-anchor="middle" x="457" y="-66.5" font-family="Helvetica,sans-Serif" font-size="10.00">/home/vilon_tao/gaia/sdk/include/gaia/ui/dialog/AlertBox.h</text>
</a>
</g>
<!-- Node1&#45;&gt;Node2 -->
<g id="edge2" class="edge"><title>Node1&#45;&gt;Node2</title>
<path fill="none" stroke="midnightblue" d="M457,-106.191C457,-97.1684 457,-86.9941 457,-79.5707"/>
<polygon fill="midnightblue" stroke="midnightblue" points="453.5,-106.362 457,-116.362 460.5,-106.362 453.5,-106.362"/>
</g>
<!-- Node3 -->
<g id="node5" class="node"><title>Node3</title>
<a xlink:href="../../d6/de8/_date_picker_box_8h.html" target="_top" xlink:title="/home/vilon_tao/gaia/sdk/include/gaia/ui/dialog/DatePickerBox.h">
<polygon fill="white" stroke="black" points="0,-0.5 0,-21.5 296,-21.5 296,-0.5 0,-0.5"/>
<text text-anchor="middle" x="148" y="-8.5" font-family="Helvetica,sans-Serif" font-size="10.00">/home/vilon_tao/gaia/sdk/include/gaia/ui/dialog/DatePickerBox.h</text>
</a>
</g>
<!-- Node2&#45;&gt;Node3 -->
<g id="edge4" class="edge"><title>Node2&#45;&gt;Node3</title>
<path fill="none" stroke="midnightblue" d="M390.937,-56.5999C335.321,-46.1607 256.653,-31.3945 204.063,-21.5231"/>
<polygon fill="midnightblue" stroke="midnightblue" points="390.568,-60.0917 401.042,-58.4966 391.86,-53.2118 390.568,-60.0917"/>
</g>
<!-- Node4 -->
<g id="node7" class="node"><title>Node4</title>
<a xlink:href="../../d8/d6d/_progress_box_8h.html" target="_top" xlink:title="/home/vilon_tao/gaia/sdk/include/gaia/ui/dialog/ProgressBox.h">
<polygon fill="white" stroke="black" points="313.5,-0.5 313.5,-21.5 600.5,-21.5 600.5,-0.5 313.5,-0.5"/>
<text text-anchor="middle" x="457" y="-8.5" font-family="Helvetica,sans-Serif" font-size="10.00">/home/vilon_tao/gaia/sdk/include/gaia/ui/dialog/ProgressBox.h</text>
</a>
</g>
<!-- Node2&#45;&gt;Node4 -->
<g id="edge6" class="edge"><title>Node2&#45;&gt;Node4</title>
<path fill="none" stroke="midnightblue" d="M457,-48.1906C457,-39.1684 457,-28.9941 457,-21.5707"/>
<polygon fill="midnightblue" stroke="midnightblue" points="453.5,-48.3619 457,-58.3619 460.5,-48.3619 453.5,-48.3619"/>
</g>
<!-- Node5 -->
<g id="node9" class="node"><title>Node5</title>
<a xlink:href="../../d9/df6/_time_picker_box_8h.html" target="_top" xlink:title="/home/vilon_tao/gaia/sdk/include/gaia/ui/dialog/TimePickerBox.h">
<polygon fill="white" stroke="black" points="617.5,-0.5 617.5,-21.5 914.5,-21.5 914.5,-0.5 617.5,-0.5"/>
<text text-anchor="middle" x="766" y="-8.5" font-family="Helvetica,sans-Serif" font-size="10.00">/home/vilon_tao/gaia/sdk/include/gaia/ui/dialog/TimePickerBox.h</text>
</a>
</g>
<!-- Node2&#45;&gt;Node5 -->
<g id="edge8" class="edge"><title>Node2&#45;&gt;Node5</title>
<path fill="none" stroke="midnightblue" d="M523.063,-56.5999C578.679,-46.1607 657.347,-31.3945 709.937,-21.5231"/>
<polygon fill="midnightblue" stroke="midnightblue" points="522.14,-53.2118 512.958,-58.4966 523.432,-60.0917 522.14,-53.2118"/>
</g>
</g>
</svg>
