<?xml version="1.0" encoding="UTF-8" standalone="no"?>
<!DOCTYPE svg PUBLIC "-//W3C//DTD SVG 1.1//EN"
 "http://www.w3.org/Graphics/SVG/1.1/DTD/svg11.dtd">
<!-- Generated by graphviz version 2.26.3 (20100126.1600)
 -->
<!-- Title: G Pages: 1 -->
<svg width="323pt" height="146pt"
 viewBox="0.00 0.00 323.44 146.00" xmlns="http://www.w3.org/2000/svg" xmlns:xlink="http://www.w3.org/1999/xlink">
<g id="graph1" class="graph" transform="scale(1 1) rotate(0) translate(4 142)">
<title>G</title>
<polygon fill="white" stroke="white" points="-4,5 -4,-142 320.435,-142 320.435,5 -4,5"/>
<!-- Node1 -->
<g id="node1" class="node"><title>Node1</title>
<polygon fill="#bfbfbf" stroke="black" points="17.2783,-116.5 17.2783,-137.5 302.278,-137.5 302.278,-116.5 17.2783,-116.5"/>
<text text-anchor="middle" x="159.778" y="-124.5" font-family="Helvetica,sans-Serif" font-size="10.00">/home/vilon_tao/gaia/sdk/include/gaia/media/AudioStreamIn.h</text>
</g>
<!-- Node2 -->
<g id="node3" class="node"><title>Node2</title>
<polygon fill="white" stroke="#bfbfbf" points="59.2783,-0.5 59.2783,-21.5 108.278,-21.5 108.278,-0.5 59.2783,-0.5"/>
<text text-anchor="middle" x="83.7783" y="-8.5" font-family="Helvetica,sans-Serif" font-size="10.00">stdint.h</text>
</g>
<!-- Node1&#45;&gt;Node2 -->
<g id="edge2" class="edge"><title>Node1&#45;&gt;Node2</title>
<path fill="none" stroke="midnightblue" d="M99.9541,-116.446C61.4388,-108.294 16.4629,-95.753 4.77832,-80 -12.2298,-57.0699 21.2228,-36.3468 49.7095,-23.7274"/>
<polygon fill="midnightblue" stroke="midnightblue" points="51.2459,-26.878 59.0998,-19.767 48.5256,-20.4282 51.2459,-26.878"/>
</g>
<!-- Node3 -->
<g id="node5" class="node"><title>Node3</title>
<a xlink:href="../../d1/dd0/gmacros_8h.html" target="_top" xlink:title="gaia/base/gmacros.h">
<polygon fill="white" stroke="black" points="183.278,-0.5 183.278,-21.5 290.278,-21.5 290.278,-0.5 183.278,-0.5"/>
<text text-anchor="middle" x="236.778" y="-8.5" font-family="Helvetica,sans-Serif" font-size="10.00">gaia/base/gmacros.h</text>
</a>
</g>
<!-- Node1&#45;&gt;Node3 -->
<g id="edge4" class="edge"><title>Node1&#45;&gt;Node3</title>
<path fill="none" stroke="midnightblue" d="M217.272,-116.417C254.978,-108.174 299.345,-95.5335 310.778,-80 326.266,-58.9592 298.778,-39.0763 273.024,-26.1083"/>
<polygon fill="midnightblue" stroke="midnightblue" points="274.229,-22.8052 263.697,-21.6541 271.212,-29.1219 274.229,-22.8052"/>
</g>
<!-- Node4 -->
<g id="node7" class="node"><title>Node4</title>
<a xlink:href="../../d0/d81/_media_recorder_8h.html" target="_top" xlink:title="gaia/media/MediaRecorder.h">
<polygon fill="white" stroke="black" points="13.2783,-58.5 13.2783,-79.5 154.278,-79.5 154.278,-58.5 13.2783,-58.5"/>
<text text-anchor="middle" x="83.7783" y="-66.5" font-family="Helvetica,sans-Serif" font-size="10.00">gaia/media/MediaRecorder.h</text>
</a>
</g>
<!-- Node1&#45;&gt;Node4 -->
<g id="edge6" class="edge"><title>Node1&#45;&gt;Node4</title>
<path fill="none" stroke="midnightblue" d="M145.839,-116.362C134.59,-107.777 118.563,-95.5459 105.613,-85.6636"/>
<polygon fill="midnightblue" stroke="midnightblue" points="107.702,-82.8551 97.6295,-79.5707 103.456,-88.4198 107.702,-82.8551"/>
</g>
<!-- Node5 -->
<g id="node11" class="node"><title>Node5</title>
<a xlink:href="../../d9/d66/_audio_control_8h.html" target="_top" xlink:title="gaia/media/AudioControl.h">
<polygon fill="white" stroke="black" points="171.278,-58.5 171.278,-79.5 302.278,-79.5 302.278,-58.5 171.278,-58.5"/>
<text text-anchor="middle" x="236.778" y="-66.5" font-family="Helvetica,sans-Serif" font-size="10.00">gaia/media/AudioControl.h</text>
</a>
</g>
<!-- Node1&#45;&gt;Node5 -->
<g id="edge12" class="edge"><title>Node1&#45;&gt;Node5</title>
<path fill="none" stroke="midnightblue" d="M173.901,-116.362C185.298,-107.777 201.536,-95.5459 214.656,-85.6636"/>
<polygon fill="midnightblue" stroke="midnightblue" points="216.863,-88.3829 222.745,-79.5707 212.651,-82.7916 216.863,-88.3829"/>
</g>
<!-- Node4&#45;&gt;Node2 -->
<g id="edge8" class="edge"><title>Node4&#45;&gt;Node2</title>
<path fill="none" stroke="midnightblue" d="M83.7783,-58.3619C83.7783,-50.9219 83.7783,-40.7427 83.7783,-31.7276"/>
<polygon fill="midnightblue" stroke="midnightblue" points="87.2784,-31.5706 83.7783,-21.5707 80.2784,-31.5707 87.2784,-31.5706"/>
</g>
<!-- Node4&#45;&gt;Node3 -->
<g id="edge10" class="edge"><title>Node4&#45;&gt;Node3</title>
<path fill="none" stroke="midnightblue" d="M111.485,-58.4966C136.105,-49.1639 172.295,-35.4447 199.458,-25.1475"/>
<polygon fill="midnightblue" stroke="midnightblue" points="200.909,-28.3406 209.019,-21.5231 198.428,-21.7951 200.909,-28.3406"/>
</g>
<!-- Node5&#45;&gt;Node2 -->
<g id="edge14" class="edge"><title>Node5&#45;&gt;Node2</title>
<path fill="none" stroke="midnightblue" d="M209.071,-58.4966C183.608,-48.8441 145.768,-34.4993 118.339,-24.1013"/>
<polygon fill="midnightblue" stroke="midnightblue" points="119.338,-20.737 108.746,-20.465 116.856,-27.2825 119.338,-20.737"/>
</g>
<!-- Node5&#45;&gt;Node3 -->
<g id="edge16" class="edge"><title>Node5&#45;&gt;Node3</title>
<path fill="none" stroke="midnightblue" d="M236.778,-58.3619C236.778,-50.9219 236.778,-40.7427 236.778,-31.7276"/>
<polygon fill="midnightblue" stroke="midnightblue" points="240.278,-31.5706 236.778,-21.5707 233.278,-31.5707 240.278,-31.5706"/>
</g>
</g>
</svg>
