<?xml version="1.0" encoding="UTF-8" standalone="no"?>
<!DOCTYPE svg PUBLIC "-//W3C//DTD SVG 1.1//EN"
 "http://www.w3.org/Graphics/SVG/1.1/DTD/svg11.dtd">
<!-- Generated by graphviz version 2.26.3 (20100126.1600)
 -->
<!-- Title: G Pages: 1 -->
<svg width="1408pt" height="88pt"
 viewBox="0.00 0.00 1408.00 88.00" xmlns="http://www.w3.org/2000/svg" xmlns:xlink="http://www.w3.org/1999/xlink">
<g id="graph1" class="graph" transform="scale(1 1) rotate(0) translate(4 84)">
<title>G</title>
<polygon fill="white" stroke="white" points="-4,5 -4,-84 1405,-84 1405,5 -4,5"/>
<!-- Node1 -->
<g id="node1" class="node"><title>Node1</title>
<polygon fill="#bfbfbf" stroke="black" points="521.5,-58.5 521.5,-79.5 862.5,-79.5 862.5,-58.5 521.5,-58.5"/>
<text text-anchor="middle" x="692" y="-66.5" font-family="Helvetica,sans-Serif" font-size="10.00">/home/vilon_tao/gaia/sdk/include/gaia/cloudstorage/CloudStorageHeader.h</text>
</g>
<!-- Node2 -->
<g id="node3" class="node"><title>Node2</title>
<a xlink:href="../../d5/d41/_cloud_storage_file_8h.html" target="_top" xlink:title="/home/vilon_tao/gaia/sdk/include/gaia/cloudstorage/CloudStorageFile.h">
<polygon fill="white" stroke="black" points="-0.5,-0.5 -0.5,-21.5 324.5,-21.5 324.5,-0.5 -0.5,-0.5"/>
<text text-anchor="middle" x="162" y="-8.5" font-family="Helvetica,sans-Serif" font-size="10.00">/home/vilon_tao/gaia/sdk/include/gaia/cloudstorage/CloudStorageFile.h</text>
</a>
</g>
<!-- Node1&#45;&gt;Node2 -->
<g id="edge2" class="edge"><title>Node1&#45;&gt;Node2</title>
<path fill="none" stroke="midnightblue" d="M586.029,-57.4032C490.324,-46.9298 350.703,-31.6505 258.159,-21.5231"/>
<polygon fill="midnightblue" stroke="midnightblue" points="585.7,-60.8879 596.021,-58.4966 586.461,-53.9295 585.7,-60.8879"/>
</g>
<!-- Node3 -->
<g id="node5" class="node"><title>Node3</title>
<a xlink:href="../../d4/d15/_cloud_storage_file_info_8h.html" target="_top" xlink:title="/home/vilon_tao/gaia/sdk/include/gaia/cloudstorage/CloudStorageFileInfo.h">
<polygon fill="white" stroke="black" points="341.5,-0.5 341.5,-21.5 682.5,-21.5 682.5,-0.5 341.5,-0.5"/>
<text text-anchor="middle" x="512" y="-8.5" font-family="Helvetica,sans-Serif" font-size="10.00">/home/vilon_tao/gaia/sdk/include/gaia/cloudstorage/CloudStorageFileInfo.h</text>
</a>
</g>
<!-- Node1&#45;&gt;Node3 -->
<g id="edge4" class="edge"><title>Node1&#45;&gt;Node3</title>
<path fill="none" stroke="midnightblue" d="M649.833,-55.4127C617.718,-45.0646 574.149,-31.0258 544.658,-21.5231"/>
<polygon fill="midnightblue" stroke="midnightblue" points="648.812,-58.761 659.403,-58.4966 650.959,-52.0983 648.812,-58.761"/>
</g>
<!-- Node4 -->
<g id="node7" class="node"><title>Node4</title>
<a xlink:href="../../d6/d2c/_cloud_storage_manager_8h.html" target="_top" xlink:title="/home/vilon_tao/gaia/sdk/include/gaia/cloudstorage/CloudStorageManager.h">
<polygon fill="white" stroke="black" points="699.5,-0.5 699.5,-21.5 1046.5,-21.5 1046.5,-0.5 699.5,-0.5"/>
<text text-anchor="middle" x="873" y="-8.5" font-family="Helvetica,sans-Serif" font-size="10.00">/home/vilon_tao/gaia/sdk/include/gaia/cloudstorage/CloudStorageManager.h</text>
</a>
</g>
<!-- Node1&#45;&gt;Node4 -->
<g id="edge6" class="edge"><title>Node1&#45;&gt;Node4</title>
<path fill="none" stroke="midnightblue" d="M734.402,-55.4127C766.695,-45.0646 810.506,-31.0258 840.161,-21.5231"/>
<polygon fill="midnightblue" stroke="midnightblue" points="733.233,-52.1119 724.778,-58.4966 735.369,-58.7781 733.233,-52.1119"/>
</g>
<!-- Node5 -->
<g id="node9" class="node"><title>Node5</title>
<a xlink:href="../../d6/de3/_cloud_storage_plugin_8h.html" target="_top" xlink:title="/home/vilon_tao/gaia/sdk/include/gaia/cloudstorage/CloudStoragePlugin.h">
<polygon fill="white" stroke="black" points="1064,-0.5 1064,-21.5 1400,-21.5 1400,-0.5 1064,-0.5"/>
<text text-anchor="middle" x="1232" y="-8.5" font-family="Helvetica,sans-Serif" font-size="10.00">/home/vilon_tao/gaia/sdk/include/gaia/cloudstorage/CloudStoragePlugin.h</text>
</a>
</g>
<!-- Node1&#45;&gt;Node5 -->
<g id="edge8" class="edge"><title>Node1&#45;&gt;Node5</title>
<path fill="none" stroke="midnightblue" d="M799.97,-57.4032C897.481,-46.9298 1039.74,-31.6505 1134.03,-21.5231"/>
<polygon fill="midnightblue" stroke="midnightblue" points="799.359,-53.9486 789.79,-58.4966 800.107,-60.9086 799.359,-53.9486"/>
</g>
</g>
</svg>
